<svg xmlns="http://www.w3.org/2000/svg" width="368" height="368" viewBox="0 0 368 368">
<title>Dameo — starting position</title>
<rect x="24" y="24" width="40" height="40" fill="#f0d9b5"/><rect x="64" y="24" width="40" height="40" fill="#b58863"/><rect x="104" y="24" width="40" height="40" fill="#f0d9b5"/><rect x="144" y="24" width="40" height="40" fill="#b58863"/><rect x="184" y="24" width="40" height="40" fill="#f0d9b5"/><rect x="224" y="24" width="40" height="40" fill="#b58863"/><rect x="264" y="24" width="40" height="40" fill="#f0d9b5"/><rect x="304" y="24" width="40" height="40" fill="#b58863"/><rect x="24" y="64" width="40" height="40" fill="#b58863"/><rect x="64" y="64" width="40" height="40" fill="#f0d9b5"/><rect x="104" y="64" width="40" height="40" fill="#b58863"/><rect x="144" y="64" width="40" height="40" fill="#f0d9b5"/><rect x="184" y="64" width="40" height="40" fill="#b58863"/><rect x="224" y="64" width="40" height="40" fill="#f0d9b5"/><rect x="264" y="64" width="40" height="40" fill="#b58863"/><rect x="304" y="64" width="40" height="40" fill="#f0d9b5"/><rect x="24" y="104" width="40" height="40" fill="#f0d9b5"/><rect x="64" y="104" width="40" height="40" fill="#b58863"/><rect x="104" y="104" width="40" height="40" fill="#f0d9b5"/><rect x="144" y="104" width="40" height="40" fill="#b58863"/><rect x="184" y="104" width="40" height="40" fill="#f0d9b5"/><rect x="224" y="104" width="40" height="40" fill="#b58863"/><rect x="264" y="104" width="40" height="40" fill="#f0d9b5"/><rect x="304" y="104" width="40" height="40" fill="#b58863"/><rect x="24" y="144" width="40" height="40" fill="#b58863"/><rect x="64" y="144" width="40" height="40" fill="#f0d9b5"/><rect x="104" y="144" width="40" height="40" fill="#b58863"/><rect x="144" y="144" width="40" height="40" fill="#f0d9b5"/><rect x="184" y="144" width="40" height="40" fill="#b58863"/><rect x="224" y="144" width="40" height="40" fill="#f0d9b5"/><rect x="264" y="144" width="40" height="40" fill="#b58863"/><rect x="304" y="144" width="40" height="40" fill="#f0d9b5"/><rect x="24" y="184" width="40" height="40" fill="#f0d9b5"/><rect x="64" y="184" width="40" height="40" fill="#b58863"/><rect x="104" y="184" width="40" height="40" fill="#f0d9b5"/><rect x="144" y="184" width="40" height="40" fill="#b58863"/><rect x="184" y="184" width="40" height="40" fill="#f0d9b5"/><rect x="224" y="184" width="40" height="40" fill="#b58863"/><rect x="264" y="184" width="40" height="40" fill="#f0d9b5"/><rect x="304" y="184" width="40" height="40" fill="#b58863"/><rect x="24" y="224" width="40" height="40" fill="#b58863"/><rect x="64" y="224" width="40" height="40" fill="#f0d9b5"/><rect x="104" y="224" width="40" height="40" fill="#b58863"/><rect x="144" y="224" width="40" height="40" fill="#f0d9b5"/><rect x="184" y="224" width="40" height="40" fill="#b58863"/><rect x="224" y="224" width="40" height="40" fill="#f0d9b5"/><rect x="264" y="224" width="40" height="40" fill="#b58863"/><rect x="304" y="224" width="40" height="40" fill="#f0d9b5"/><rect x="24" y="264" width="40" height="40" fill="#f0d9b5"/><rect x="64" y="264" width="40" height="40" fill="#b58863"/><rect x="104" y="264" width="40" height="40" fill="#f0d9b5"/><rect x="144" y="264" width="40" height="40" fill="#b58863"/><rect x="184" y="264" width="40" height="40" fill="#f0d9b5"/><rect x="224" y="264" width="40" height="40" fill="#b58863"/><rect x="264" y="264" width="40" height="40" fill="#f0d9b5"/><rect x="304" y="264" width="40" height="40" fill="#b58863"/><rect x="24" y="304" width="40" height="40" fill="#b58863"/><rect x="64" y="304" width="40" height="40" fill="#f0d9b5"/><rect x="104" y="304" width="40" height="40" fill="#b58863"/><rect x="144" y="304" width="40" height="40" fill="#f0d9b5"/><rect x="184" y="304" width="40" height="40" fill="#b58863"/><rect x="224" y="304" width="40" height="40" fill="#f0d9b5"/><rect x="264" y="304" width="40" height="40" fill="#b58863"/><rect x="304" y="304" width="40" height="40" fill="#f0d9b5"/>
<circle cx="44" cy="44" r="15.2" fill="#333" stroke="#111" stroke-width="1.5"/><circle cx="44" cy="44" r="9.728" fill="none" stroke="#555" stroke-width="1"/><circle cx="84" cy="44" r="15.2" fill="#333" stroke="#111" stroke-width="1.5"/><circle cx="84" cy="44" r="9.728" fill="none" stroke="#555" stroke-width="1"/><circle cx="124" cy="44" r="15.2" fill="#333" stroke="#111" stroke-width="1.5"/><circle cx="124" cy="44" r="9.728" fill="none" stroke="#555" stroke-width="1"/><circle cx="164" cy="44" r="15.2" fill="#333" stroke="#111" stroke-width="1.5"/><circle cx="164" cy="44" r="9.728" fill="none" stroke="#555" stroke-width="1"/><circle cx="204" cy="44" r="15.2" fill="#333" stroke="#111" stroke-width="1.5"/><circle cx="204" cy="44" r="9.728" fill="none" stroke="#555" stroke-width="1"/><circle cx="244" cy="44" r="15.2" fill="#333" stroke="#111" stroke-width="1.5"/><circle cx="244" cy="44" r="9.728" fill="none" stroke="#555" stroke-width="1"/><circle cx="284" cy="44" r="15.2" fill="#333" stroke="#111" stroke-width="1.5"/><circle cx="284" cy="44" r="9.728" fill="none" stroke="#555" stroke-width="1"/><circle cx="324" cy="44" r="15.2" fill="#333" stroke="#111" stroke-width="1.5"/><circle cx="324" cy="44" r="9.728" fill="none" stroke="#555" stroke-width="1"/><circle cx="84" cy="84" r="15.2" fill="#333" stroke="#111" stroke-width="1.5"/><circle cx="84" cy="84" r="9.728" fill="none" stroke="#555" stroke-width="1"/><circle cx="124" cy="84" r="15.2" fill="#333" stroke="#111" stroke-width="1.5"/><circle cx="124" cy="84" r="9.728" fill="none" stroke="#555" stroke-width="1"/><circle cx="164" cy="84" r="15.2" fill="#333" stroke="#111" stroke-width="1.5"/><circle cx="164" cy="84" r="9.728" fill="none" stroke="#555" stroke-width="1"/><circle cx="204" cy="84" r="15.2" fill="#333" stroke="#111" stroke-width="1.5"/><circle cx="204" cy="84" r="9.728" fill="none" stroke="#555" stroke-width="1"/><circle cx="244" cy="84" r="15.2" fill="#333" stroke="#111" stroke-width="1.5"/><circle cx="244" cy="84" r="9.728" fill="none" stroke="#555" stroke-width="1"/><circle cx="284" cy="84" r="15.2" fill="#333" stroke="#111" stroke-width="1.5"/><circle cx="284" cy="84" r="9.728" fill="none" stroke="#555" stroke-width="1"/><circle cx="124" cy="124" r="15.2" fill="#333" stroke="#111" stroke-width="1.5"/><circle cx="124" cy="124" r="9.728" fill="none" stroke="#555" stroke-width="1"/><circle cx="164" cy="124" r="15.2" fill="#333" stroke="#111" stroke-width="1.5"/><circle cx="164" cy="124" r="9.728" fill="none" stroke="#555" stroke-width="1"/><circle cx="204" cy="124" r="15.2" fill="#333" stroke="#111" stroke-width="1.5"/><circle cx="204" cy="124" r="9.728" fill="none" stroke="#555" stroke-width="1"/><circle cx="244" cy="124" r="15.2" fill="#333" stroke="#111" stroke-width="1.5"/><circle cx="244" cy="124" r="9.728" fill="none" stroke="#555" stroke-width="1"/><circle cx="124" cy="244" r="15.2" fill="#fff" stroke="#333" stroke-width="1.5"/><circle cx="124" cy="244" r="9.728" fill="none" stroke="#ccc" stroke-width="1"/><circle cx="164" cy="244" r="15.2" fill="#fff" stroke="#333" stroke-width="1.5"/><circle cx="164" cy="244" r="9.728" fill="none" stroke="#ccc" stroke-width="1"/><circle cx="204" cy="244" r="15.2" fill="#fff" stroke="#333" stroke-width="1.5"/><circle cx="204" cy="244" r="9.728" fill="none" stroke="#ccc" stroke-width="1"/><circle cx="244" cy="244" r="15.2" fill="#fff" stroke="#333" stroke-width="1.5"/><circle cx="244" cy="244" r="9.728" fill="none" stroke="#ccc" stroke-width="1"/><circle cx="84" cy="284" r="15.2" fill="#fff" stroke="#333" stroke-width="1.5"/><circle cx="84" cy="284" r="9.728" fill="none" stroke="#ccc" stroke-width="1"/><circle cx="124" cy="284" r="15.2" fill="#fff" stroke="#333" stroke-width="1.5"/><circle cx="124" cy="284" r="9.728" fill="none" stroke="#ccc" stroke-width="1"/><circle cx="164" cy="284" r="15.2" fill="#fff" stroke="#333" stroke-width="1.5"/><circle cx="164" cy="284" r="9.728" fill="none" stroke="#ccc" stroke-width="1"/><circle cx="204" cy="284" r="15.2" fill="#fff" stroke="#333" stroke-width="1.5"/><circle cx="204" cy="284" r="9.728" fill="none" stroke="#ccc" stroke-width="1"/><circle cx="244" cy="284" r="15.2" fill="#fff" stroke="#333" stroke-width="1.5"/><circle cx="244" cy="284" r="9.728" fill="none" stroke="#ccc" stroke-width="1"/><circle cx="284" cy="284" r="15.2" fill="#fff" stroke="#333" stroke-width="1.5"/><circle cx="284" cy="284" r="9.728" fill="none" stroke="#ccc" stroke-width="1"/><circle cx="44" cy="324" r="15.2" fill="#fff" stroke="#333" stroke-width="1.5"/><circle cx="44" cy="324" r="9.728" fill="none" stroke="#ccc" stroke-width="1"/><circle cx="84" cy="324" r="15.2" fill="#fff" stroke="#333" stroke-width="1.5"/><circle cx="84" cy="324" r="9.728" fill="none" stroke="#ccc" stroke-width="1"/><circle cx="124" cy="324" r="15.2" fill="#fff" stroke="#333" stroke-width="1.5"/><circle cx="124" cy="324" r="9.728" fill="none" stroke="#ccc" stroke-width="1"/><circle cx="164" cy="324" r="15.2" fill="#fff" stroke="#333" stroke-width="1.5"/><circle cx="164" cy="324" r="9.728" fill="none" stroke="#ccc" stroke-width="1"/><circle cx="204" cy="324" r="15.2" fill="#fff" stroke="#333" stroke-width="1.5"/><circle cx="204" cy="324" r="9.728" fill="none" stroke="#ccc" stroke-width="1"/><circle cx="244" cy="324" r="15.2" fill="#fff" stroke="#333" stroke-width="1.5"/><circle cx="244" cy="324" r="9.728" fill="none" stroke="#ccc" stroke-width="1"/><circle cx="284" cy="324" r="15.2" fill="#fff" stroke="#333" stroke-width="1.5"/><circle cx="284" cy="324" r="9.728" fill="none" stroke="#ccc" stroke-width="1"/><circle cx="324" cy="324" r="15.2" fill="#fff" stroke="#333" stroke-width="1.5"/><circle cx="324" cy="324" r="9.728" fill="none" stroke="#ccc" stroke-width="1"/>
<text x="44" y="359.6" text-anchor="middle" font-size="13" fill="#5c3a1e" font-family="monospace">a</text><text x="84" y="359.6" text-anchor="middle" font-size="13" fill="#5c3a1e" font-family="monospace">b</text><text x="124" y="359.6" text-anchor="middle" font-size="13" fill="#5c3a1e" font-family="monospace">c</text><text x="164" y="359.6" text-anchor="middle" font-size="13" fill="#5c3a1e" font-family="monospace">d</text><text x="204" y="359.6" text-anchor="middle" font-size="13" fill="#5c3a1e" font-family="monospace">e</text><text x="244" y="359.6" text-anchor="middle" font-size="13" fill="#5c3a1e" font-family="monospace">f</text><text x="284" y="359.6" text-anchor="middle" font-size="13" fill="#5c3a1e" font-family="monospace">g</text><text x="324" y="359.6" text-anchor="middle" font-size="13" fill="#5c3a1e" font-family="monospace">h</text><text x="12" y="48.55" text-anchor="middle" font-size="13" fill="#5c3a1e" font-family="monospace">8</text><text x="12" y="88.55" text-anchor="middle" font-size="13" fill="#5c3a1e" font-family="monospace">7</text><text x="12" y="128.55" text-anchor="middle" font-size="13" fill="#5c3a1e" font-family="monospace">6</text><text x="12" y="168.55" text-anchor="middle" font-size="13" fill="#5c3a1e" font-family="monospace">5</text><text x="12" y="208.55" text-anchor="middle" font-size="13" fill="#5c3a1e" font-family="monospace">4</text><text x="12" y="248.55" text-anchor="middle" font-size="13" fill="#5c3a1e" font-family="monospace">3</text><text x="12" y="288.55" text-anchor="middle" font-size="13" fill="#5c3a1e" font-family="monospace">2</text><text x="12" y="328.55" text-anchor="middle" font-size="13" fill="#5c3a1e" font-family="monospace">1</text>
</svg>