<svg xmlns="http://www.w3.org/2000/svg" width="45" height="45">
<path d="M34.641 10.359l.622.621c-.46 1.27-.778 2.661-.953 4.171-.175 1.51-.18 3.545-.014 6.104L33.19 22.36a20.478 20.478 0 0 1-1.602-6.988L13.552 33.41c2.45.129 4.774.667 6.975 1.616l-1.091 1.09c-2.56-.165-4.595-.16-6.105.015-1.51.175-2.9.492-4.17.952l-.622-.621c.47-1.261.79-2.65.96-4.164.17-1.515.172-3.552.007-6.111l1.09-1.091a20.157 20.157 0 0 1 1.617 6.974l18.036-18.037a20.478 20.478 0 0 1-6.988-1.602l1.105-1.104c2.56.165 4.597.163 6.111-.007 1.515-.17 2.903-.49 4.164-.96z"/>
</svg>