<svg xmlns="http://www.w3.org/2000/svg" width="45" height="45">
<path d="M10.359 10.359l.621-.622c1.27.46 2.661.778 4.171.953 1.51.175 3.545.18 6.104.014l1.105 1.105c-2.21.939-4.539 1.473-6.988 1.602L33.41 31.448a20.156 20.156 0 0 1 1.616-6.975l1.09 1.091c-.165 2.56-.16 4.595.015 6.105.175 1.51.492 2.9.952 4.17l-.621.622c-1.261-.47-2.65-.79-4.164-.96-1.515-.17-3.552-.172-6.111-.007l-1.091-1.09a20.157 20.157 0 0 1 6.974-1.617L14.032 14.751a20.478 20.478 0 0 1-1.602 6.988l-1.104-1.105c.165-2.56.163-4.597-.007-6.111-.17-1.515-.49-2.903-.96-4.164z"/>
</svg>