<?xml version="1.0" encoding="UTF-8" standalone="no"?>
<!-- Created with Inkscape (http://www.inkscape.org/) -->

<svg
   width="49.999996mm"
   height="50mm"
   viewBox="0 0 49.999996 50"
   version="1.1"
   id="svg1"
   xmlns="http://www.w3.org/2000/svg"
   xmlns:svg="http://www.w3.org/2000/svg"
   xmlns:rdf="http://www.w3.org/1999/02/22-rdf-syntax-ns#"
   xmlns:cc="http://creativecommons.org/ns#"
   xmlns:dc="http://purl.org/dc/elements/1.1/">
  <title
     id="title1">Tile front Ace Arm Piecepack</title>
  <defs
     id="defs1" />
  <g
     id="layer1"
     transform="translate(-178.85834,-19.050001)">
    <rect
       style="fill:#ffffff;fill-opacity:1;stroke:#000000;stroke-width:0.999608;stroke-linecap:round;stroke-linejoin:round;stroke-miterlimit:10;stroke-dasharray:none"
       id="rect1924-93"
       width="49.000389"
       height="49.000393"
       x="179.35814"
       y="19.549805" />
    <path
       id="path1"
       style="fill:#0423c0;fill-opacity:1"
       d="m 203.85683,25.836905 -0.69453,1.544091 c -0.38206,0.849352 -1.18848,2.156686 -1.79162,2.904733 -1.70409,2.113492 -1.73026,3.087322 -0.28526,10.620023 1.07643,5.611352 1.32817,10.276482 1.32598,11.488192 h -0.84673 c -0.0543,-1.53129 -0.0846,-2.22564 -0.45858,-4.72013 -1.00368,-6.694224 -4.98917,-9.376344 -8.84287,-7.581965 -2.91291,1.35633 -3.51834,5.452361 -1.13429,7.673435 1.02734,0.95712 1.36632,0.93342 1.36632,-0.0951 0,-1.44459 1.28297,-2.693377 2.76727,-2.693377 0.0773,0 4.90492,0.02962 5.3755,7.417117 h -2.49248 v 1.4118 h 4.26542 c -0.1755,4.62161 -3.3281,3.05037 -3.91867,2.4598 -0.70555,-0.70556 -0.70538,-0.70548 -0.70538,0.29817 0,1.41451 1.15143,2.34263 2.8515,2.29805 1.30153,-0.0341 1.38183,0.0236 1.38183,0.99994 0,0.56997 0.16398,1.34346 0.36484,1.71876 0.25207,0.47101 0.63809,0.68265 1.47323,0.68265 z m 0.003,0 0.69453,1.544091 c 0.38206,0.849352 1.18848,2.156686 1.79162,2.904733 1.70409,2.113492 1.73026,3.087322 0.28526,10.620023 -1.07643,5.611352 -1.32817,10.276482 -1.32598,11.488192 h 0.84673 c 0.0543,-1.53129 0.0846,-2.22564 0.45858,-4.72013 1.00368,-6.694224 4.98917,-9.376344 8.84287,-7.581965 2.91291,1.35633 3.51834,5.452361 1.13429,7.673435 -1.02734,0.95712 -1.36632,0.93342 -1.36632,-0.0951 0,-1.44459 -1.28297,-2.693377 -2.76727,-2.693377 -0.0773,0 -4.90492,0.02962 -5.3755,7.417117 h 2.49248 v 1.4118 h -4.26542 c 0.1755,4.62161 3.32811,3.05037 3.91867,2.4598 0.70555,-0.70556 0.70538,-0.70548 0.70538,0.29817 0,1.41451 -1.15143,2.34263 -2.8515,2.29805 -1.30153,-0.0341 -1.38183,0.0236 -1.38183,0.99994 0,0.56997 -0.16398,1.34346 -0.36484,1.71876 -0.25207,0.47101 -0.63809,0.68265 -1.47323,0.68265 z" />
    <path
       id="path1-5-60-7"
       style="fill:#0423c0;fill-opacity:1;stroke-width:0.248838"
       d="m 185.48289,21.142757 -0.17283,0.38423 c -0.0951,0.21135 -0.29574,0.53666 -0.44582,0.7228 -0.42405,0.52593 -0.43056,0.76825 -0.071,2.64267 0.26786,1.39632 0.33051,2.55719 0.32996,2.85871 h -0.21069 c -0.0135,-0.38105 -0.0211,-0.55383 -0.11412,-1.17455 -0.24975,-1.66579 -1.2415,-2.3332 -2.20044,-1.88669 -0.72485,0.33751 -0.8755,1.35676 -0.28225,1.90945 0.25563,0.23817 0.33999,0.23227 0.33999,-0.0237 0,-0.35948 0.31924,-0.67022 0.6886,-0.67022 0.0192,0 1.22053,0.008 1.33763,1.84566 h -0.62023 v 0.35131 h 1.0614 c -0.0436,1.15004 -0.82815,0.75905 -0.97511,0.61209 -0.17557,-0.17557 -0.17553,-0.17554 -0.17553,0.0742 0,0.35198 0.28652,0.58294 0.70956,0.57184 0.32388,-0.008 0.34385,0.006 0.34385,0.24882 0,0.14183 0.0408,0.33431 0.0908,0.4277 0.0627,0.1172 0.15878,0.16987 0.3666,0.16987 z m 5.8e-4,0 0.17283,0.38423 c 0.0951,0.21135 0.29574,0.53666 0.44583,0.7228 0.42404,0.52593 0.43055,0.76825 0.071,2.64267 -0.26786,1.39632 -0.3305,2.55719 -0.32996,2.85871 h 0.2107 c 0.0135,-0.38105 0.0211,-0.55383 0.11411,-1.17455 0.24976,-1.66579 1.2415,-2.3332 2.20045,-1.88669 0.72484,0.33751 0.87549,1.35676 0.28225,1.90945 -0.25564,0.23817 -0.33999,0.23227 -0.33999,-0.0237 0,-0.35948 -0.31925,-0.67022 -0.6886,-0.67022 -0.0192,0 -1.22053,0.008 -1.33763,1.84566 h 0.62022 v 0.35131 h -1.0614 c 0.0436,1.15004 0.82816,0.75905 0.97512,0.61209 0.17557,-0.17557 0.17552,-0.17554 0.17552,0.0742 0,0.35198 -0.28651,0.58294 -0.70956,0.57184 -0.32387,-0.008 -0.34385,0.006 -0.34385,0.24882 0,0.14183 -0.0409,0.33431 -0.0908,0.4277 -0.0627,0.1172 -0.15879,0.16987 -0.3666,0.16987 z" />
  </g>
  <metadata
     id="metadata1">
    <rdf:RDF>
      <cc:Work
         rdf:about="">
        <dc:title>Tile front Ace Arm Piecepack</dc:title>
        <dc:date>2024/03</dc:date>
        <dc:creator>
          <cc:Agent>
            <dc:title>Miguel de Dios Matias</dc:title>
          </cc:Agent>
        </dc:creator>
        <dc:rights>
          <cc:Agent>
            <dc:title>CC0</dc:title>
          </cc:Agent>
        </dc:rights>
        <dc:subject>
          <rdf:Bag>
            <rdf:li>piecepack</rdf:li>
          </rdf:Bag>
        </dc:subject>
        <cc:license
           rdf:resource="http://creativecommons.org/publicdomain/zero/1.0/" />
      </cc:Work>
      <cc:License
         rdf:about="http://creativecommons.org/publicdomain/zero/1.0/">
        <cc:permits
           rdf:resource="http://creativecommons.org/ns#Reproduction" />
        <cc:permits
           rdf:resource="http://creativecommons.org/ns#Distribution" />
        <cc:permits
           rdf:resource="http://creativecommons.org/ns#DerivativeWorks" />
      </cc:License>
    </rdf:RDF>
  </metadata>
</svg>
