<?xml version="1.0" encoding="UTF-8" standalone="no"?>
<!-- Created with Inkscape (http://www.inkscape.org/) -->

<svg
   width="49.999996mm"
   height="50mm"
   viewBox="0 0 49.999996 50"
   version="1.1"
   id="svg1"
   xmlns="http://www.w3.org/2000/svg"
   xmlns:svg="http://www.w3.org/2000/svg"
   xmlns:rdf="http://www.w3.org/1999/02/22-rdf-syntax-ns#"
   xmlns:cc="http://creativecommons.org/ns#"
   xmlns:dc="http://purl.org/dc/elements/1.1/">
  <title
     id="title1">Tile front Null Moon Piecepack</title>
  <defs
     id="defs1" />
  <g
     id="layer1"
     transform="translate(-69.056249,-95.514585)">
    <rect
       style="fill:#ffffff;fill-opacity:1;stroke:#000000;stroke-width:0.999608;stroke-linecap:round;stroke-linejoin:round;stroke-miterlimit:10;stroke-dasharray:none"
       id="rect1924"
       width="49.000389"
       height="49.000393"
       x="69.556053"
       y="96.014389" />
    <path
       id="path84-3-3"
       style="fill:#000000;fill-opacity:0.996194;stroke-width:0.236464;stroke-linecap:round;stroke-linejoin:round"
       d="m 76.601972,97.673846 a 4.4656285,4.4656285 0 0 0 -4.46565,4.465654 4.4656285,4.4656285 0 0 0 4.46565,4.46552 4.4656285,4.4656285 0 0 0 2.61572,-0.85964 3.8566229,3.8566229 0 0 1 -1.33987,0.25074 3.8566229,3.8566229 0 0 1 -3.85663,-3.85662 3.8566229,3.8566229 0 0 1 3.85663,-3.856629 3.8566229,3.8566229 0 0 1 1.34806,0.244269 4.4656285,4.4656285 0 0 0 -2.62391,-0.853294 z" />
  </g>
  <metadata
     id="metadata1">
    <rdf:RDF>
      <cc:Work
         rdf:about="">
        <dc:title>Tile front Null Moon Piecepack</dc:title>
        <dc:date>2024/03</dc:date>
        <dc:creator>
          <cc:Agent>
            <dc:title>Miguel de Dios Matias</dc:title>
          </cc:Agent>
        </dc:creator>
        <dc:rights>
          <cc:Agent>
            <dc:title>CC0</dc:title>
          </cc:Agent>
        </dc:rights>
        <dc:subject>
          <rdf:Bag>
            <rdf:li>piecepack</rdf:li>
          </rdf:Bag>
        </dc:subject>
        <cc:license
           rdf:resource="http://creativecommons.org/publicdomain/zero/1.0/" />
      </cc:Work>
      <cc:License
         rdf:about="http://creativecommons.org/publicdomain/zero/1.0/">
        <cc:permits
           rdf:resource="http://creativecommons.org/ns#Reproduction" />
        <cc:permits
           rdf:resource="http://creativecommons.org/ns#Distribution" />
        <cc:permits
           rdf:resource="http://creativecommons.org/ns#DerivativeWorks" />
      </cc:License>
    </rdf:RDF>
  </metadata>
</svg>
