<svg xmlns="http://www.w3.org/2000/svg" width="320" height="140" viewBox="0 0 320 140">
<title>Royal Game of Ur — board layout</title>
<rect x="0" y="10" width="40" height="40" fill="#d4b896" stroke="#8b7355" stroke-width="1.5"/><rect x="40" y="10" width="40" height="40" fill="#d4b896" stroke="#8b7355" stroke-width="1.5"/><rect x="80" y="10" width="40" height="40" fill="#d4b896" stroke="#8b7355" stroke-width="1.5"/><rect x="120" y="10" width="40" height="40" fill="#d4b896" stroke="#8b7355" stroke-width="1.5"/><rect x="240" y="10" width="40" height="40" fill="#d4b896" stroke="#8b7355" stroke-width="1.5"/><rect x="280" y="10" width="40" height="40" fill="#d4b896" stroke="#8b7355" stroke-width="1.5"/><rect x="0" y="50" width="40" height="40" fill="#d4b896" stroke="#8b7355" stroke-width="1.5"/><rect x="40" y="50" width="40" height="40" fill="#d4b896" stroke="#8b7355" stroke-width="1.5"/><rect x="80" y="50" width="40" height="40" fill="#d4b896" stroke="#8b7355" stroke-width="1.5"/><rect x="120" y="50" width="40" height="40" fill="#d4b896" stroke="#8b7355" stroke-width="1.5"/><rect x="160" y="50" width="40" height="40" fill="#d4b896" stroke="#8b7355" stroke-width="1.5"/><rect x="200" y="50" width="40" height="40" fill="#d4b896" stroke="#8b7355" stroke-width="1.5"/><rect x="240" y="50" width="40" height="40" fill="#d4b896" stroke="#8b7355" stroke-width="1.5"/><rect x="280" y="50" width="40" height="40" fill="#d4b896" stroke="#8b7355" stroke-width="1.5"/><rect x="0" y="90" width="40" height="40" fill="#d4b896" stroke="#8b7355" stroke-width="1.5"/><rect x="40" y="90" width="40" height="40" fill="#d4b896" stroke="#8b7355" stroke-width="1.5"/><rect x="80" y="90" width="40" height="40" fill="#d4b896" stroke="#8b7355" stroke-width="1.5"/><rect x="120" y="90" width="40" height="40" fill="#d4b896" stroke="#8b7355" stroke-width="1.5"/><rect x="240" y="90" width="40" height="40" fill="#d4b896" stroke="#8b7355" stroke-width="1.5"/><rect x="280" y="90" width="40" height="40" fill="#d4b896" stroke="#8b7355" stroke-width="1.5"/><g stroke="#c4a882" stroke-width="0.5" opacity="0.6"><line x1="40" y1="10" x2="80" y2="50"/><line x1="80" y1="10" x2="40" y2="50"/><line x1="80" y1="10" x2="120" y2="50"/><line x1="120" y1="10" x2="80" y2="50"/><line x1="120" y1="10" x2="160" y2="50"/><line x1="160" y1="10" x2="120" y2="50"/><line x1="280" y1="10" x2="320" y2="50"/><line x1="320" y1="10" x2="280" y2="50"/><line x1="0" y1="50" x2="40" y2="90"/><line x1="40" y1="50" x2="0" y2="90"/><line x1="40" y1="50" x2="80" y2="90"/><line x1="80" y1="50" x2="40" y2="90"/><line x1="80" y1="50" x2="120" y2="90"/><line x1="120" y1="50" x2="80" y2="90"/><line x1="160" y1="50" x2="200" y2="90"/><line x1="200" y1="50" x2="160" y2="90"/><line x1="200" y1="50" x2="240" y2="90"/><line x1="240" y1="50" x2="200" y2="90"/><line x1="240" y1="50" x2="280" y2="90"/><line x1="280" y1="50" x2="240" y2="90"/><line x1="280" y1="50" x2="320" y2="90"/><line x1="320" y1="50" x2="280" y2="90"/><line x1="40" y1="90" x2="80" y2="130"/><line x1="80" y1="90" x2="40" y2="130"/><line x1="80" y1="90" x2="120" y2="130"/><line x1="120" y1="90" x2="80" y2="130"/><line x1="120" y1="90" x2="160" y2="130"/><line x1="160" y1="90" x2="120" y2="130"/><line x1="280" y1="90" x2="320" y2="130"/><line x1="320" y1="90" x2="280" y2="130"/></g><circle cx="20" cy="30" r="5" fill="#8b3a3a"/><circle cx="20" cy="20" r="3" fill="#8b3a3a"/><circle cx="20" cy="40" r="3" fill="#8b3a3a"/><circle cx="10" cy="30" r="3" fill="#8b3a3a"/><circle cx="30" cy="30" r="3" fill="#8b3a3a"/><circle cx="12" cy="22" r="2" fill="#a04848"/><circle cx="28" cy="22" r="2" fill="#a04848"/><circle cx="12" cy="38" r="2" fill="#a04848"/><circle cx="28" cy="38" r="2" fill="#a04848"/><circle cx="260" cy="30" r="5" fill="#8b3a3a"/><circle cx="260" cy="20" r="3" fill="#8b3a3a"/><circle cx="260" cy="40" r="3" fill="#8b3a3a"/><circle cx="250" cy="30" r="3" fill="#8b3a3a"/><circle cx="270" cy="30" r="3" fill="#8b3a3a"/><circle cx="252" cy="22" r="2" fill="#a04848"/><circle cx="268" cy="22" r="2" fill="#a04848"/><circle cx="252" cy="38" r="2" fill="#a04848"/><circle cx="268" cy="38" r="2" fill="#a04848"/><circle cx="140" cy="70" r="5" fill="#8b3a3a"/><circle cx="140" cy="60" r="3" fill="#8b3a3a"/><circle cx="140" cy="80" r="3" fill="#8b3a3a"/><circle cx="130" cy="70" r="3" fill="#8b3a3a"/><circle cx="150" cy="70" r="3" fill="#8b3a3a"/><circle cx="132" cy="62" r="2" fill="#a04848"/><circle cx="148" cy="62" r="2" fill="#a04848"/><circle cx="132" cy="78" r="2" fill="#a04848"/><circle cx="148" cy="78" r="2" fill="#a04848"/><circle cx="20" cy="110" r="5" fill="#8b3a3a"/><circle cx="20" cy="100" r="3" fill="#8b3a3a"/><circle cx="20" cy="120" r="3" fill="#8b3a3a"/><circle cx="10" cy="110" r="3" fill="#8b3a3a"/><circle cx="30" cy="110" r="3" fill="#8b3a3a"/><circle cx="12" cy="102" r="2" fill="#a04848"/><circle cx="28" cy="102" r="2" fill="#a04848"/><circle cx="12" cy="118" r="2" fill="#a04848"/><circle cx="28" cy="118" r="2" fill="#a04848"/><circle cx="260" cy="110" r="5" fill="#8b3a3a"/><circle cx="260" cy="100" r="3" fill="#8b3a3a"/><circle cx="260" cy="120" r="3" fill="#8b3a3a"/><circle cx="250" cy="110" r="3" fill="#8b3a3a"/><circle cx="270" cy="110" r="3" fill="#8b3a3a"/><circle cx="252" cy="102" r="2" fill="#a04848"/><circle cx="268" cy="102" r="2" fill="#a04848"/><circle cx="252" cy="118" r="2" fill="#a04848"/><circle cx="268" cy="118" r="2" fill="#a04848"/><path fill="none" stroke="#5a4020" stroke-width="2" stroke-linejoin="round" d="M 0,10 L 160,10 L 160,50 L 240,50 L 240,10 L 320,10 L 320,130 L 240,130 L 240,90 L 160,90 L 160,130 L 0,130 Z"/>
</svg>