<svg xmlns="http://www.w3.org/2000/svg" viewBox="0 0 1035.3422791987305 735.3422791987305" width="1035.3422791987305" height="735.3422791987305">
<rect x="0" y="0" width="1035.3422791987305" height="735.3422791987305" fill="#1b5e3a" rx="16"/><rect x="20" y="20" width="995.3422791987305" height="695.3422791987305" fill="#2d7a4f" rx="12" stroke="#1a4a2e" stroke-width="2"/><g class="hand" data-zone="Player 1 — 8 cards (visible)"><g data-card="7🍃"><image href="../pieces/sets/mfrasca-skat/Playing_card-german-blatt-07.svg" x="327.67113959936523" y="50" width="44" height="64" preserveAspectRatio="xMidYMid meet"/></g><g data-card="8🔔"><image href="../pieces/sets/mfrasca-skat/Playing_card-german-schellen-08.svg" x="375.67113959936523" y="50" width="44" height="64" preserveAspectRatio="xMidYMid meet"/></g><g data-card="A♥"><image href="../pieces/sets/mfrasca-skat/Playing_card-german-hart-01_daus.svg" x="423.67113959936523" y="50" width="44" height="64" preserveAspectRatio="xMidYMid meet"/></g><g data-card="9♥"><image href="../pieces/sets/mfrasca-skat/Playing_card-german-hart-09.svg" x="471.67113959936523" y="50" width="44" height="64" preserveAspectRatio="xMidYMid meet"/></g><g data-card="10♥"><image href="../pieces/sets/mfrasca-skat/Playing_card-german-hart-10.svg" x="519.6711395993652" y="50" width="44" height="64" preserveAspectRatio="xMidYMid meet"/></g><g data-card="K🔔"><image href="../pieces/sets/mfrasca-skat/Playing_card-german-schellen-13_king.svg" x="567.6711395993652" y="50" width="44" height="64" preserveAspectRatio="xMidYMid meet"/></g><g data-card="K🌰"><image href="../pieces/sets/mfrasca-skat/Playing_card-german-eichel-13_konig.svg" x="615.6711395993652" y="50" width="44" height="64" preserveAspectRatio="xMidYMid meet"/></g><g data-card="K♥"><image href="../pieces/sets/mfrasca-skat/Playing_card-german-hart-13_konig.svg" x="663.6711395993652" y="50" width="44" height="64" preserveAspectRatio="xMidYMid meet"/></g></g><text x="517.6711395993652" y="44" text-anchor="middle" font-size="11" fill="rgba(255,255,255,0.6)" font-family="system-ui">Player 1 (8)</text><g class="hand" data-zone="Player 2 — 8 cards (hidden)"><rect x="613.3422791987305" y="335.67113959936523" width="44" height="64" fill="#2a3a6a" rx="3" stroke="#1a2a4a" stroke-width="1" data-card="Face down"/><rect x="661.3422791987305" y="335.67113959936523" width="44" height="64" fill="#2a3a6a" rx="3" stroke="#1a2a4a" stroke-width="1" data-card="Face down"/><rect x="709.3422791987305" y="335.67113959936523" width="44" height="64" fill="#2a3a6a" rx="3" stroke="#1a2a4a" stroke-width="1" data-card="Face down"/><rect x="757.3422791987305" y="335.67113959936523" width="44" height="64" fill="#2a3a6a" rx="3" stroke="#1a2a4a" stroke-width="1" data-card="Face down"/><rect x="805.3422791987305" y="335.67113959936523" width="44" height="64" fill="#2a3a6a" rx="3" stroke="#1a2a4a" stroke-width="1" data-card="Face down"/><rect x="853.3422791987305" y="335.67113959936523" width="44" height="64" fill="#2a3a6a" rx="3" stroke="#1a2a4a" stroke-width="1" data-card="Face down"/><rect x="901.3422791987305" y="335.67113959936523" width="44" height="64" fill="#2a3a6a" rx="3" stroke="#1a2a4a" stroke-width="1" data-card="Face down"/><rect x="949.3422791987305" y="335.67113959936523" width="44" height="64" fill="#2a3a6a" rx="3" stroke="#1a2a4a" stroke-width="1" data-card="Face down"/></g><text x="803.3422791987305" y="329.67113959936523" text-anchor="middle" font-size="11" fill="rgba(255,255,255,0.6)" font-family="system-ui">Player 2 (8)</text><g class="hand" data-zone="Player 3 — 8 cards (hidden)"><rect x="327.67113959936523" y="621.3422791987305" width="44" height="64" fill="#2a3a6a" rx="3" stroke="#1a2a4a" stroke-width="1" data-card="Face down"/><rect x="375.67113959936523" y="621.3422791987305" width="44" height="64" fill="#2a3a6a" rx="3" stroke="#1a2a4a" stroke-width="1" data-card="Face down"/><rect x="423.67113959936523" y="621.3422791987305" width="44" height="64" fill="#2a3a6a" rx="3" stroke="#1a2a4a" stroke-width="1" data-card="Face down"/><rect x="471.67113959936523" y="621.3422791987305" width="44" height="64" fill="#2a3a6a" rx="3" stroke="#1a2a4a" stroke-width="1" data-card="Face down"/><rect x="519.6711395993652" y="621.3422791987305" width="44" height="64" fill="#2a3a6a" rx="3" stroke="#1a2a4a" stroke-width="1" data-card="Face down"/><rect x="567.6711395993652" y="621.3422791987305" width="44" height="64" fill="#2a3a6a" rx="3" stroke="#1a2a4a" stroke-width="1" data-card="Face down"/><rect x="615.6711395993652" y="621.3422791987305" width="44" height="64" fill="#2a3a6a" rx="3" stroke="#1a2a4a" stroke-width="1" data-card="Face down"/><rect x="663.6711395993652" y="621.3422791987305" width="44" height="64" fill="#2a3a6a" rx="3" stroke="#1a2a4a" stroke-width="1" data-card="Face down"/></g><text x="517.6711395993652" y="699.3422791987305" text-anchor="middle" font-size="11" fill="rgba(255,255,255,0.6)" font-family="system-ui">Player 3 (8)</text><g class="hand" data-zone="Player 4 — 8 cards (hidden)"><rect x="42" y="335.6711395993653" width="44" height="64" fill="#2a3a6a" rx="3" stroke="#1a2a4a" stroke-width="1" data-card="Face down"/><rect x="90" y="335.6711395993653" width="44" height="64" fill="#2a3a6a" rx="3" stroke="#1a2a4a" stroke-width="1" data-card="Face down"/><rect x="138" y="335.6711395993653" width="44" height="64" fill="#2a3a6a" rx="3" stroke="#1a2a4a" stroke-width="1" data-card="Face down"/><rect x="186" y="335.6711395993653" width="44" height="64" fill="#2a3a6a" rx="3" stroke="#1a2a4a" stroke-width="1" data-card="Face down"/><rect x="234" y="335.6711395993653" width="44" height="64" fill="#2a3a6a" rx="3" stroke="#1a2a4a" stroke-width="1" data-card="Face down"/><rect x="282" y="335.6711395993653" width="44" height="64" fill="#2a3a6a" rx="3" stroke="#1a2a4a" stroke-width="1" data-card="Face down"/><rect x="330" y="335.6711395993653" width="44" height="64" fill="#2a3a6a" rx="3" stroke="#1a2a4a" stroke-width="1" data-card="Face down"/><rect x="378" y="335.6711395993653" width="44" height="64" fill="#2a3a6a" rx="3" stroke="#1a2a4a" stroke-width="1" data-card="Face down"/></g><text x="232" y="413.6711395993653" text-anchor="middle" font-size="11" fill="rgba(255,255,255,0.6)" font-family="system-ui">Player 4 (8)</text><text x="517.6711395993652" y="729.3422791987305" text-anchor="middle" font-size="9" fill="rgba(255,255,255,0.3)" font-family="system-ui">Bavarian 32 · seed: 42</text>
</svg>