<svg xmlns="http://www.w3.org/2000/svg" viewBox="0 0 1176 780" width="1176" height="780">
<rect x="0" y="0" width="1176" height="780" fill="#1b5e3a" rx="16"/><rect x="20" y="20" width="1136" height="740" fill="#2d7a4f" rx="12" stroke="#1a4a2e" stroke-width="2"/><g class="hand" data-zone="Player 1 — 10 cards (visible)"><g data-card="7🍃"><image href="../pieces/sets/mfrasca-skat/Playing_card-german-blatt-07.svg" x="350" y="50" width="44" height="64" preserveAspectRatio="xMidYMid meet"/></g><g data-card="7♥"><image href="../pieces/sets/mfrasca-skat/Playing_card-german-hart-07.svg" x="398" y="50" width="44" height="64" preserveAspectRatio="xMidYMid meet"/></g><g data-card="10🔔"><image href="../pieces/sets/mfrasca-skat/Playing_card-german-schellen-10.svg" x="446" y="50" width="44" height="64" preserveAspectRatio="xMidYMid meet"/></g><g data-card="9🌰"><image href="../pieces/sets/mfrasca-skat/Playing_card-german-eichel-09.svg" x="494" y="50" width="44" height="64" preserveAspectRatio="xMidYMid meet"/></g><g data-card="9♥"><image href="../pieces/sets/mfrasca-skat/Playing_card-german-hart-09.svg" x="542" y="50" width="44" height="64" preserveAspectRatio="xMidYMid meet"/></g><g data-card="9🍃"><image href="../pieces/sets/mfrasca-skat/Playing_card-german-blatt-09.svg" x="590" y="50" width="44" height="64" preserveAspectRatio="xMidYMid meet"/></g><g data-card="10🌰"><image href="../pieces/sets/mfrasca-skat/Playing_card-german-eichel-10.svg" x="638" y="50" width="44" height="64" preserveAspectRatio="xMidYMid meet"/></g><g data-card="O🌰"><image href="../pieces/sets/mfrasca-skat/Playing_card-german-eichel-12_ober.svg" x="686" y="50" width="44" height="64" preserveAspectRatio="xMidYMid meet"/></g><g data-card="K🌰"><image href="../pieces/sets/mfrasca-skat/Playing_card-german-eichel-13_konig.svg" x="734" y="50" width="44" height="64" preserveAspectRatio="xMidYMid meet"/></g><g data-card="8🍃"><image href="../pieces/sets/mfrasca-skat/Playing_card-german-blatt-08.svg" x="782" y="50" width="44" height="64" preserveAspectRatio="xMidYMid meet"/></g></g><text x="588" y="44" text-anchor="middle" font-size="11" fill="rgba(255,255,255,0.6)" font-family="system-ui">Player 1 (10)</text><g class="hand" data-zone="Player 2 — 10 cards (hidden)"><rect x="616.7358243656072" y="512" width="44" height="64" fill="#2a3a6a" rx="3" stroke="#1a2a4a" stroke-width="1" data-card="Face down"/><rect x="664.7358243656072" y="512" width="44" height="64" fill="#2a3a6a" rx="3" stroke="#1a2a4a" stroke-width="1" data-card="Face down"/><rect x="712.7358243656072" y="512" width="44" height="64" fill="#2a3a6a" rx="3" stroke="#1a2a4a" stroke-width="1" data-card="Face down"/><rect x="760.7358243656072" y="512" width="44" height="64" fill="#2a3a6a" rx="3" stroke="#1a2a4a" stroke-width="1" data-card="Face down"/><rect x="808.7358243656072" y="512" width="44" height="64" fill="#2a3a6a" rx="3" stroke="#1a2a4a" stroke-width="1" data-card="Face down"/><rect x="856.7358243656072" y="512" width="44" height="64" fill="#2a3a6a" rx="3" stroke="#1a2a4a" stroke-width="1" data-card="Face down"/><rect x="904.7358243656072" y="512" width="44" height="64" fill="#2a3a6a" rx="3" stroke="#1a2a4a" stroke-width="1" data-card="Face down"/><rect x="952.7358243656072" y="512" width="44" height="64" fill="#2a3a6a" rx="3" stroke="#1a2a4a" stroke-width="1" data-card="Face down"/><rect x="1000.7358243656072" y="512" width="44" height="64" fill="#2a3a6a" rx="3" stroke="#1a2a4a" stroke-width="1" data-card="Face down"/><rect x="1048.7358243656072" y="512" width="44" height="64" fill="#2a3a6a" rx="3" stroke="#1a2a4a" stroke-width="1" data-card="Face down"/></g><text x="854.7358243656072" y="590" text-anchor="middle" font-size="11" fill="rgba(255,255,255,0.6)" font-family="system-ui">Player 2 (10)</text><g class="hand" data-zone="Player 3 — 10 cards (hidden)"><rect x="83.26417563439293" y="512.0000000000001" width="44" height="64" fill="#2a3a6a" rx="3" stroke="#1a2a4a" stroke-width="1" data-card="Face down"/><rect x="131.26417563439293" y="512.0000000000001" width="44" height="64" fill="#2a3a6a" rx="3" stroke="#1a2a4a" stroke-width="1" data-card="Face down"/><rect x="179.26417563439293" y="512.0000000000001" width="44" height="64" fill="#2a3a6a" rx="3" stroke="#1a2a4a" stroke-width="1" data-card="Face down"/><rect x="227.26417563439293" y="512.0000000000001" width="44" height="64" fill="#2a3a6a" rx="3" stroke="#1a2a4a" stroke-width="1" data-card="Face down"/><rect x="275.2641756343929" y="512.0000000000001" width="44" height="64" fill="#2a3a6a" rx="3" stroke="#1a2a4a" stroke-width="1" data-card="Face down"/><rect x="323.2641756343929" y="512.0000000000001" width="44" height="64" fill="#2a3a6a" rx="3" stroke="#1a2a4a" stroke-width="1" data-card="Face down"/><rect x="371.2641756343929" y="512.0000000000001" width="44" height="64" fill="#2a3a6a" rx="3" stroke="#1a2a4a" stroke-width="1" data-card="Face down"/><rect x="419.2641756343929" y="512.0000000000001" width="44" height="64" fill="#2a3a6a" rx="3" stroke="#1a2a4a" stroke-width="1" data-card="Face down"/><rect x="467.2641756343929" y="512.0000000000001" width="44" height="64" fill="#2a3a6a" rx="3" stroke="#1a2a4a" stroke-width="1" data-card="Face down"/><rect x="515.2641756343929" y="512.0000000000001" width="44" height="64" fill="#2a3a6a" rx="3" stroke="#1a2a4a" stroke-width="1" data-card="Face down"/></g><text x="321.2641756343929" y="590.0000000000001" text-anchor="middle" font-size="11" fill="rgba(255,255,255,0.6)" font-family="system-ui">Player 3 (10)</text><g class="community" data-zone="Community / Field — 2 cards (face up)"><g data-card="U🌰"><image href="../pieces/sets/mfrasca-skat/Playing_card-german-eichel-11_unter.svg" x="542" y="358" width="44" height="64" preserveAspectRatio="xMidYMid meet"/></g><g data-card="7🌰"><image href="../pieces/sets/mfrasca-skat/Playing_card-german-eichel-07.svg" x="590" y="358" width="44" height="64" preserveAspectRatio="xMidYMid meet"/></g></g><text x="588" y="436" text-anchor="middle" font-size="10" fill="rgba(255,255,255,0.5)" font-family="system-ui">Field (2)</text><text x="588" y="774" text-anchor="middle" font-size="9" fill="rgba(255,255,255,0.3)" font-family="system-ui">Bavarian 32 · seed: 42</text>
</svg>