<svg xmlns="http://www.w3.org/2000/svg" viewBox="0 0 280 360" width="280" height="360">
<defs>
<symbol id="piece-twemoji-lion" viewBox="0 0 36 36"><path fill="#662113" d="M32.325 10.958s2.315.024 3.511 1.177c-.336-4.971-2.104-8.249-5.944-10.13-3.141-1.119-6.066 1.453-6.066 1.453s.862-1.99 2.19-2.746C23.789.236 21.146 0 18 0c-3.136 0-5.785.227-8.006.701 1.341.745 2.215 2.758 2.215 2.758S9.194.803 6 2.053C2.221 3.949.481 7.223.158 12.174c1.183-1.19 3.55-1.215 3.55-1.215S-.105 13.267.282 16.614c.387 2.947 1.394 5.967 2.879 8.722C3.039 22.15 5.917 20 5.917 20s-2.492 5.96-.581 8.738c1.935 2.542 4.313 4.641 6.976 5.916-.955-1.645-.136-3.044-.103-2.945.042.125.459 3.112 2.137 3.743 1.178.356 2.4.548 3.654.548 1.292 0 2.55-.207 3.761-.583 1.614-.691 2.024-3.585 2.064-3.708.032-.098.843 1.287-.09 2.921 2.706-1.309 5.118-3.463 7.064-6.073 1.699-2.846-.683-8.557-.683-8.557s2.85 2.13 2.757 5.288c1.556-2.906 2.585-6.104 2.911-9.2-.035-3.061-3.459-5.13-3.459-5.13z"/><path fill="#FFCC4D" d="M13.859 9.495c.596 2.392.16 4.422-2.231 5.017-2.392.596-6.363.087-6.958-2.304-.596-2.392.469-5.39 1.81-5.724 1.341-.334 6.784.62 7.379 3.011zm9.104 18.432c0 2.74-2.222 4.963-4.963 4.963s-4.963-2.223-4.963-4.963c0-2.741 2.223-4.964 4.963-4.964 2.741 0 4.963 2.222 4.963 4.964z"/><path fill="#DD2E44" d="M21.309 27.927c0 1.827-1.481 3.309-3.309 3.309s-3.309-1.481-3.309-3.309c0-1.827 1.481-3.31 3.309-3.31s3.309 1.483 3.309 3.31z"/><path fill="#E6AAAA" d="M11.052 8.997c.871 1.393.447 3.229-.946 4.1-1.394.871-2.608.797-3.479-.596-.871-1.394-.186-4.131.324-4.45.51-.319 3.23-.448 4.101.946z"/><path fill="#FFCC4D" d="M22.141 9.495c-.596 2.392-.159 4.422 2.232 5.017 2.392.596 6.363.087 6.959-2.304.596-2.392-.47-5.39-1.811-5.724-1.342-.334-6.786.62-7.38 3.011z"/><path fill="#E6AAAA" d="M24.948 8.997c-.871 1.393-.447 3.229.945 4.1 1.394.871 2.608.797 3.479-.596.871-1.394.185-4.131-.324-4.45-.51-.319-3.229-.448-4.1.946z"/><path fill="#FFCC4D" d="M18 7.125h-.002C5.167 7.126 7.125 12.083 8.5 18.667 9.875 25.25 10.384 27 10.384 27h15.228s.51-1.75 1.885-8.333C28.872 12.083 30.829 7.126 18 7.125z"/><path fill="#272B2B" d="M12 16s0-1.5 1.5-1.5S15 16 15 16v1.5s0 1.5-1.5 1.5-1.5-1.5-1.5-1.5V16zm9 0s0-1.5 1.5-1.5S24 16 24 16v1.5s0 1.5-1.5 1.5-1.5-1.5-1.5-1.5V16z"/><path fill="#FFE8B6" d="M20.168 21.521c-1.598 0-1.385.848-2.168 2.113-.783-1.266-.571-2.113-2.168-2.113-6.865 0-6.837.375-6.865 2.828-.058 4.986 2.802 6.132 5.257 6.06 1.597-.048 2.994-.88 3.777-2.131.783 1.251 2.179 2.083 3.776 2.131 2.455.072 5.315-1.073 5.257-6.06-.029-2.453-.001-2.828-6.866-2.828z"/><path fill="#272B2B" d="M14.582 21.411c-1.14.233 2.279 4.431 3.418 4.431s4.559-4.198 3.419-4.431c-1.14-.232-5.698-.232-6.837 0z"/><circle fill="#D99E82" cx="11.5" cy="24.5" r=".5"/><circle fill="#D99E82" cx="10.5" cy="26.5" r=".5"/><circle fill="#D99E82" cx="12.5" cy="27.5" r=".5"/><circle fill="#D99E82" cx="24.5" cy="24.5" r=".5"/><circle fill="#D99E82" cx="25.5" cy="26.5" r=".5"/><circle fill="#D99E82" cx="23.5" cy="27.5" r=".5"/></symbol>
<symbol id="piece-twemoji-tiger" viewBox="0 0 36 36"><circle fill="#FFCC4D" cx="7" cy="6" r="6"/><circle fill="#FFCC4D" cx="18" cy="30" r="6"/><circle fill="#DD2E44" cx="18" cy="30" r="4"/><circle fill="#FFCC4D" cx="29" cy="6" r="6"/><circle fill="#E6AAAA" cx="7" cy="6" r="4"/><circle fill="#E6AAAA" cx="29" cy="6" r="4"/><path fill="#FFCC4D" d="M34 22c0 7-4.923 7-4.923 7H6.923S2 29 2 22C2 22 3.231 0 18 0c14.77 0 16 22 16 22z"/><path fill="#272B2B" d="M11 17s0-2 2-2 2 2 2 2v2s0 2-2 2-2-2-2-2v-2zm10 0s0-2 2-2 2 2 2 2v2s0 2-2 2-2-2-2-2v-2z"/><path fill="#FFF" d="M23.678 23c-2.402 0-4.501.953-5.678 2.378C16.823 23.953 14.723 23 12.321 23 2 23 2.043 23.421 2 26.182c-.087 5.61 6.63 6.9 10.321 6.818 2.401-.053 4.502-.989 5.679-2.397 1.177 1.408 3.276 2.345 5.678 2.397 3.691.082 10.409-1.208 10.321-6.818-.043-2.761 0-3.182-10.321-3.182z"/><path fill="#272B2B" d="M33.66 25.242c.204.279.333.588.339.939.03 1.905-.745 3.303-1.915 4.327L26.999 31l6.661-5.758zM15 25c-1 1 2 4 3 4s4-3 3-4-5-1-6 0zM10 3c2.667 2 8 4 8 4s5.333-2 8-4l-8 1-8-1zm8-1s1.652-.62 3.576-1.514C20.48.178 19.295 0 18 0s-2.481.178-3.576.486C16.348 1.38 18 2 18 2zm-7 7c3 2 7 4 7 4s4-2 7-4l-7 1-7-1zm20.645 2.285L27 15l6.006.75c-.334-1.401-.777-2.928-1.361-4.465zm1.911 7.159L28 24h5.835c.102-.595.165-1.251.165-2 0 0-.081-1.43-.444-3.556zm-31.112 0C2.082 20.57 2 22 2 22c0 .748.063 1.405.165 2H8l-5.556-5.556zm-.105 6.798c-.204.279-.333.588-.339.94-.03 1.905.745 3.303 1.916 4.327L9 31l-6.661-5.758zM9 15l-4.644-3.715c-.584 1.537-1.028 3.064-1.361 4.466L9 15z"/></symbol>
<symbol id="piece-twemoji-dog" viewBox="0 0 36 36"><path fill="#DD2E44" d="M15 27v6s0 3 3 3 3-3 3-3v-6h-6z"/><path fill="#BE1931" d="M15 33l.001.037c1.041-.035 2.016-.274 2.632-1.286.171-.281.563-.281.735 0 .616 1.011 1.591 1.251 2.632 1.286V27h-6v6z"/><path fill="#D99E82" d="M31.954 21.619c0 6.276-5 6.276-5 6.276h-18s-5 0-5-6.276c0-6.724 5-18.619 14-18.619s14 12.895 14 18.619z"/><path fill="#F4C7B5" d="M18 20c-7 0-10 3.527-10 6.395 0 3.037 2.462 5.5 5.5 5.5 1.605 0 3.042-.664 4.049-2.767.185-.386.716-.386.901 0 1.007 2.103 2.445 2.767 4.049 2.767 3.038 0 5.5-2.463 5.5-5.5C28 23.527 25 20 18 20z"/><path fill="#292F33" d="M15 22.895c-1 1 2 4 3 4s4-3 3-4-5-1-6 0zM13 19c-1.1 0-2-.9-2-2v-2c0-1.1.9-2 2-2s2 .9 2 2v2c0 1.1-.9 2-2 2zm10 0c-1.1 0-2-.9-2-2v-2c0-1.1.9-2 2-2s2 .9 2 2v2c0 1.1-.9 2-2 2z"/><path fill="#662113" d="M15 3.608C13.941 2.199 11.681.881 2.828 4.2-1.316 5.754.708 17.804 3.935 18.585c1.106 0 4.426 0 4.426-8.852 0-.22-.002-.423-.005-.625C10.35 6.298 12.5 4.857 15 3.608zm18.172.592C24.319.881 22.059 2.199 21 3.608c2.5 1.25 4.65 2.691 6.644 5.501-.003.201-.005.404-.005.625 0 8.852 3.319 8.852 4.426 8.852 3.227-.782 5.251-12.832 1.107-14.386z"/><circle fill="#D99E82" cx="23.5" cy="25.5" r=".5"/><circle fill="#D99E82" cx="11.5" cy="25.5" r=".5"/><circle fill="#D99E82" cx="25.5" cy="27.5" r=".5"/><circle fill="#D99E82" cx="10.5" cy="27.5" r=".5"/><circle fill="#D99E82" cx="23" cy="28" r="1"/><circle fill="#D99E82" cx="13" cy="28" r="1"/><path fill="#380F09" d="M9.883 7.232c-.259-.673-.634-1.397-1.176-1.939-.391-.391-1.023-.391-1.414 0s-.391 1.023 0 1.414c.57.57 1.066 1.934 1.068 2.346.145-.404.839-1.15 1.522-1.821zm16.217 0c.259-.672.634-1.397 1.176-1.939.391-.391 1.023-.391 1.414 0s.391 1.023 0 1.414c-.57.57-1.066 1.934-1.068 2.346-.145-.404-.839-1.15-1.522-1.821z"/></symbol>
<symbol id="piece-twemoji-cat" viewBox="0 0 36 36"><path fill="#FFCC4D" d="M32.348 13.999s3.445-8.812 1.651-11.998c-.604-1.073-8 1.998-10.723 5.442 0 0-2.586-.86-5.276-.86s-5.276.86-5.276.86C10.001 3.999 2.605.928 2.001 2.001.207 5.187 3.652 13.999 3.652 13.999c-.897 1.722-1.233 4.345-1.555 7.16-.354 3.086.35 5.546.658 6.089.35.617 2.123 2.605 4.484 4.306 3.587 2.583 8.967 3.445 10.761 3.445s7.174-.861 10.761-3.445c2.361-1.701 4.134-3.689 4.484-4.306.308-.543 1.012-3.003.659-6.089-.324-2.814-.659-5.438-1.556-7.16z"/><path fill="#F18F26" d="M2.359 2.971c.2-.599 5.348 2.173 6.518 5.404 0 0-3.808 2.624-4.528 4.624 0 0-2.99-7.028-1.99-10.028z"/><path fill="#FFCC4D" d="M5.98 7.261c0-1.414 5.457 2.733 4.457 3.733s-1.255.72-2.255 1.72S5.98 8.261 5.98 7.261z"/><path fill="#F18F26" d="M33.641 2.971c-.2-.599-5.348 2.173-6.518 5.404 0 0 3.808 2.624 4.528 4.624 0 0 2.99-7.028 1.99-10.028z"/><path fill="#FFCC4D" d="M30.02 7.261c0-1.414-5.457 2.733-4.457 3.733s1.255.72 2.255 1.72 2.202-4.453 2.202-5.453z"/><path fill="#292F33" d="M14.001 20.001c0 1.105-.896 1.999-2 1.999s-2-.894-2-1.999c0-1.104.896-1.999 2-1.999s2 .896 2 1.999zm11.998 0c0 1.105-.896 1.999-2 1.999-1.105 0-2-.894-2-1.999 0-1.104.895-1.999 2-1.999s2 .896 2 1.999z"/><path fill="#FEE7B8" d="M2.201 30.458c-.148 0-.294-.065-.393-.19-.171-.217-.134-.531.083-.702.162-.127 4.02-3.12 10.648-2.605.275.021.481.261.46.536-.021.275-.257.501-.537.46-6.233-.474-9.915 2.366-9.951 2.395-.093.07-.202.106-.31.106zm8.868-4.663c-.049 0-.1-.007-.149-.022-4.79-1.497-8.737-.347-8.777-.336-.265.081-.543-.07-.623-.335-.079-.265.071-.543.335-.622.173-.052 4.286-1.247 9.362.338.264.083.411.363.328.627-.066.213-.263.35-.476.35zm22.73 4.663c.148 0 .294-.065.393-.19.171-.217.134-.531-.083-.702-.162-.127-4.02-3.12-10.648-2.605-.275.021-.481.261-.46.536.022.275.257.501.537.46 6.233-.474 9.915 2.366 9.951 2.395.093.07.202.106.31.106zm-8.868-4.663c.049 0 .1-.007.149-.022 4.79-1.497 8.737-.347 8.777-.336.265.081.543-.07.623-.335.079-.265-.071-.543-.335-.622-.173-.052-4.286-1.247-9.362.338-.264.083-.411.363-.328.627.066.213.263.35.476.35z"/><path fill="#67757F" d="M24.736 30.898c-.097-.258-.384-.392-.643-.294-.552.206-1.076.311-1.559.311-1.152 0-1.561-.306-2.033-.659-.451-.338-.956-.715-1.99-.803v-2.339c0-.276-.224-.5-.5-.5s-.5.224-.5.5v2.373c-.81.115-1.346.439-1.816.743-.568.367-1.059.685-2.083.685-.482 0-1.006-.104-1.558-.311-.258-.095-.547.035-.643.294-.097.259.035.547.293.644.664.247 1.306.373 1.907.373 1.319 0 2.014-.449 2.627-.845.524-.339.98-.631 1.848-.635.992.008 1.358.278 1.815.621.538.403 1.147.859 2.633.859.601 0 1.244-.126 1.908-.373.259-.097.391-.385.294-.644z"/><path fill="#E75A70" d="M19.4 24.807h-2.8c-.64 0-1.163.523-1.163 1.163 0 .639.523 1.163 1.163 1.163h.237v.345c0 .639.523 1.163 1.163 1.163s1.163-.523 1.163-1.163v-.345h.237c.639 0 1.163-.523 1.163-1.163s-.524-1.163-1.163-1.163z"/><path fill="#F18F26" d="M18.022 17.154c-.276 0-.5-.224-.5-.5V8.37c0-.276.224-.5.5-.5s.5.224.5.5v8.284c0 .277-.223.5-.5.5zM21 15.572c-.276 0-.5-.224-.5-.5 0-2.882 1.232-5.21 1.285-5.308.13-.244.435-.334.677-.204.243.13.334.433.204.677-.012.021-1.166 2.213-1.166 4.835 0 .276-.224.5-.5.5zm-6 0c-.276 0-.5-.224-.5-.5 0-2.623-1.155-4.814-1.167-4.835-.13-.244-.038-.546.205-.677.242-.131.545-.039.676.204.053.098 1.285 2.426 1.285 5.308.001.276-.223.5-.499.5z"/></symbol>
<symbol id="piece-twemoji-rat" viewBox="0 0 36 36"><path fill="#EA596E" d="M30 36H6c-.552 0-1-.447-1-1s.448-1 1-1h24c2.542 0 4-1.367 4-3.75 0-1.537-1.643-3.25-4-3.25h-7c-.553 0-1-.447-1-1s.447-1 1-1h7c3.589 0 6 2.715 6 5.25 0 3.493-2.355 5.75-6 5.75z"/><path fill="#66757F" d="M12 24.5c0-3.037 3.604-5.938 1-7.5-3.407-2.044-6.879 4.293-9 5-3 1-4 3.407-4 5 0 1.838 1.986 1.725 5 2 1.906.175 5.594.125 9 1 2.942.756-2-2.462-2-5.5z"/><path fill="#66757F" d="M33 23.5C33 15 29.247 11 24 11c-10 0-14 7-14 14 0 5.247 6.753 6 12 6s11-2.253 11-7.5z"/><path fill="#66757F" d="M9.781 17.844c0-2.594-2.375-3.219-1.188-5.031.706-1.078 2.588-.635 3.051-.582-.037 1.332 1.605 1.875 2.054 1.049.378.372.71.83.962 1.361.914 1.923-.461 4.49-1.958 5.201-1.494.711-2.921.132-2.921-1.998z"/><path fill="#E6AAAA" d="M13.633 16.14c.084 1.279-.481 2.67-1.396 2.915-.914.246-1.277-.728-1.608-1.961-.331-1.233-.95-2.686-.036-2.932.915-.246 2.931.317 3.04 1.978z"/><circle fill="#292F33" cx="8" cy="23" r="1"/><path fill="#66757F" d="M10.594 18.312c-1.26-1.717-2.834-1.977-4.49-1.979-.729 0-.687.479-.104.542 1.076.115 1.963.406 2.077.667.076.175-.702-.042-1.431-.042-1.167 0-1.042.298-.167.521 1.875.479 1.833 1.219 2.896 1.188 1.063-.033 1.219-.897 1.219-.897zm15.848-6.987c-1.65-.616-3.942-2.241-6.192-1.991-.751.083-.462.519 0 .625.609.141 1.438.704 1.731.933.281.219-2.314-.558-4.065.109-.872.332-.514.562.031.5.816-.094 1.609.172 2.641.797 1.031.624 6.932-.571 5.854-.973z"/></symbol>
<symbol id="piece-twemoji-leopard" viewBox="0 0 36 36"><path fill="#FFCC4D" d="M32.855 16.484c-.259-.171-.543-.328-.855-.484-2-1-5 0-9 0-2 0-4.901-3-10-3-.801 0-2.256.635-4.341.89C8.62 12.837 8.044 12 7.333 12 6.597 12 6 12.895 6 14c0 .051.007.1.01.15C3.19 14.916 0 18.589 0 20.375 0 22.375 2 24 2 24s1 0 3-2c1.581-1.581 5-1 5-1l1 12s-1 1-2 1-1 2-1 2h6l1-9h3c2 0 7-1 7-1 2 3 4 4 4 4v3l-2 1c-2 1-1 2-1 2h6s1-8 2-13v5c0 .553.447 1 1 1s1-.447 1-1v-7c0-2.666-1.357-3.928-3.145-4.516z"/><circle fill="#292F33" cx="4" cy="17" r="1"/><path fill="#292F33" d="M0 20s0 2 1 2c0-2 1-2 1-2s-1-1-2 0z"/><g fill="#F4900C"><circle cx="10.5" cy="16.5" r="2"/><circle cx="17.5" cy="16.5" r="2"/><circle cx="14.5" cy="21.5" r="2"/><circle cx="21.5" cy="23.5" r="2"/><circle cx="24.5" cy="18.5" r="2"/><circle cx="28.5" cy="23.5" r="2"/><circle cx="31.5" cy="18.5" r="2"/></g><g fill="#FFAC33"><circle cx="10.5" cy="16.5" r="1"/><circle cx="17.5" cy="16.5" r="1"/><circle cx="14.5" cy="21.5" r="1"/><circle cx="21.5" cy="23.5" r="1"/><circle cx="24.5" cy="18.5" r="1"/><circle cx="28.5" cy="23.5" r="1"/><circle cx="31.5" cy="18.5" r="1"/></g></symbol>
<symbol id="piece-twemoji-wolf" viewBox="0 0 36 36"><path fill="#66757F" d="M14.858 9.497c.475 2.326-.182 4.236-2.921 4.638-2.741.403-6.7 3.898-8.848-1.798C1.844 9.038 1.092 2.234 2.628 2.009c1.537-.226 11.756 5.162 12.23 7.488z"/><path fill="#CCD6DD" d="M12.784 9.851c.865 1.392-2.205 3.833-3.844 4.568-1.639.736-2.915-.66-4.173-4.1-.55-1.503-1.234-5.532-.634-5.802.599-.268 7.785 3.942 8.651 5.334z"/><path fill="#66757F" d="M21.372 9.497c-.458 2.326.176 4.236 2.818 4.638 2.644.403 6.464 3.898 8.536-1.798 1.201-3.3 1.927-10.103.445-10.329-1.483-.225-11.342 5.163-11.799 7.489z"/><path fill="#CCD6DD" d="M23.373 9.851c-.835 1.392 2.127 3.833 3.708 4.568 1.581.736 2.812-.66 4.026-4.1.531-1.503 1.19-5.532.611-5.802-.577-.268-7.509 3.942-8.345 5.334z"/><path fill="#66757F" d="M32.347 26.912c0-.454-.188-1.091-.407-1.687.585.028 1.519.191 2.77.817-.008-.536-.118-.984-.273-1.393.041.02.075.034.116.055-1.104-3.31-3.309-5.517-3.309-5.517h2.206c-2.331-4.663-4.965-8.015-8.075-9.559-1.39-.873-3.688-1.338-7.373-1.339h-.003c-3.696 0-5.996.468-7.385 1.346-3.104 1.547-5.734 4.896-8.061 9.552H4.76s-2.207 2.206-3.311 5.517l.084-.039c-.201.392-.307.847-.282 1.377 1.263-.632 2.217-.792 2.813-.818-.189.513-.343 1.044-.386 1.475-.123.371-.191.812-.135 1.343 3.207-1.458 4.707-1.25 6.457-.375C11.213 31.29 14.206 34 18.001 34c3.793 0 6.746-2.794 7.958-6.416 1.458-1.25 3.708-.875 6.416.416.066-.413.036-.773-.036-1.093l.008.005z"/><path fill="#CCD6DD" d="M34.553 24.704c-.437-1.313-3.665-3.101-6.973-4.513.26-.664.42-1.401.42-2.191 0-2.761-1.791-5-4-5s-4 2.239-4 5c0 3 4 10-2.001 11.118-5.125-.955-2.954-6.201-2.212-9.58.072-.276.125-.559.158-.853.034-.245.055-.476.055-.685 0-2.761-1.791-5-4-5s-4 2.239-4 5c0 .79.16 1.527.421 2.191-3.308 1.412-6.535 3.2-6.973 4.513C3.655 23.6 4.759 23.6 4.759 23.6s-1.104 2.208-1.104 3.312c2.67-1.78 5.339-2.122 7.429-.452C12.297 30.083 14 33 18.001 30.124c3.999 2.876 5.7-.04 6.912-3.662 2.092-1.673 4.763-1.33 7.434.45 0-1.104-1.103-3.312-1.103-3.312s1.103.001 3.309 1.104z"/><path fill="#292F33" d="M11 17s0-1.5 1.5-1.5S14 17 14 17v1.5s0 1.5-1.5 1.5-1.5-1.5-1.5-1.5V17zm11 0s0-1.5 1.5-1.5S25 17 25 17v1.5s0 1.5-1.5 1.5-1.5-1.5-1.5-1.5V17zm-7.061 9.156c-1.021.208 2.041 3.968 3.062 3.968 1.02 0 4.082-3.76 3.062-3.968s-5.103-.208-6.124 0z"/></symbol>
<symbol id="piece-twemoji-elephant" viewBox="0 0 36 36"><path fill="#99AAB5" d="M34.453 15.573c-.864-7.3-5.729-10.447-13.93-10.447-.391 0-.763.017-1.139.031-.013-.01-.022-.021-.035-.031C14.655 1.605 4.091 2.779 1.745 6.3c-3.255 4.883-1.174 22.3 0 24.646 1.173 2.35 4.694 3.521 5.868 2.35 1.174-1.176 0-1.176-1.173-3.521-.85-1.701-.466-5.859.255-8.471.028.168.068.322.1.486.39 2.871 1.993 7.412 1.993 9.744 0 3.564 2.102 4.107 4.694 4.107 2.593 0 4.695-.543 4.695-4.107 0-.24-.008-.463-.012-.695.757.064 1.535.107 2.359.107.497 0 .977-.016 1.448-.039-.004.209-.013.41-.013.627 0 3.564 2.103 4.107 4.694 4.107 2.593 0 4.695-.543 4.695-4.107 0-1.801 1.192-4.625 2.039-6.982.159-.354.291-.732.42-1.117.118 1.307.193 2.706.193 4.206 0 .553.447 1 1 1s1-.447 1-1c0-5.153-.771-9.248-1.547-12.068z"/><path fill="#66757F" d="M19.35 5.126S23 10.641 20 15.641c-3 5-7.838 5-11 5-2 0-1 2 0 2 1.414 0 8.395 1.211 12-6 3-6-1.65-11.515-1.65-11.515z"/><circle fill="#292F33" cx="6.5" cy="14.141" r="1.5"/></symbol>
</defs>

<rect x="0" y="0" width="280" height="360" fill="transparent"/><rect x="0" y="0" width="40" height="40" fill="#7cb342" stroke="#558b2f" stroke-width="2" data-sq="a9" data-type="floor" class="board-cell"/><rect x="40" y="0" width="40" height="40" fill="#7cb342" stroke="#558b2f" stroke-width="2" data-sq="b9" data-type="floor" class="board-cell"/><rect x="80" y="0" width="40" height="40" fill="#c8963c" stroke="#8b6520" stroke-width="2" data-sq="c9" data-type="trap" class="board-cell"/><rect x="120" y="0" width="40" height="40" fill="#4a3520" stroke="#2a1a10" stroke-width="2" data-sq="d9" data-type="den" class="board-cell"/><rect x="160" y="0" width="40" height="40" fill="#c8963c" stroke="#8b6520" stroke-width="2" data-sq="e9" data-type="trap" class="board-cell"/><rect x="200" y="0" width="40" height="40" fill="#7cb342" stroke="#558b2f" stroke-width="2" data-sq="f9" data-type="floor" class="board-cell"/><rect x="240" y="0" width="40" height="40" fill="#7cb342" stroke="#558b2f" stroke-width="2" data-sq="g9" data-type="floor" class="board-cell"/><rect x="0" y="40" width="40" height="40" fill="#7cb342" stroke="#558b2f" stroke-width="2" data-sq="a8" data-type="floor" class="board-cell"/><rect x="40" y="40" width="40" height="40" fill="#7cb342" stroke="#558b2f" stroke-width="2" data-sq="b8" data-type="floor" class="board-cell"/><rect x="80" y="40" width="40" height="40" fill="#7cb342" stroke="#558b2f" stroke-width="2" data-sq="c8" data-type="floor" class="board-cell"/><rect x="120" y="40" width="40" height="40" fill="#c8963c" stroke="#8b6520" stroke-width="2" data-sq="d8" data-type="trap" class="board-cell"/><rect x="160" y="40" width="40" height="40" fill="#7cb342" stroke="#558b2f" stroke-width="2" data-sq="e8" data-type="floor" class="board-cell"/><rect x="200" y="40" width="40" height="40" fill="#7cb342" stroke="#558b2f" stroke-width="2" data-sq="f8" data-type="floor" class="board-cell"/><rect x="240" y="40" width="40" height="40" fill="#7cb342" stroke="#558b2f" stroke-width="2" data-sq="g8" data-type="floor" class="board-cell"/><rect x="0" y="80" width="40" height="40" fill="#7cb342" stroke="#558b2f" stroke-width="2" data-sq="a7" data-type="floor" class="board-cell"/><rect x="40" y="80" width="40" height="40" fill="#7cb342" stroke="#558b2f" stroke-width="2" data-sq="b7" data-type="floor" class="board-cell"/><rect x="80" y="80" width="40" height="40" fill="#7cb342" stroke="#558b2f" stroke-width="2" data-sq="c7" data-type="floor" class="board-cell"/><rect x="120" y="80" width="40" height="40" fill="#7cb342" stroke="#558b2f" stroke-width="2" data-sq="d7" data-type="floor" class="board-cell"/><rect x="160" y="80" width="40" height="40" fill="#7cb342" stroke="#558b2f" stroke-width="2" data-sq="e7" data-type="floor" class="board-cell"/><rect x="200" y="80" width="40" height="40" fill="#7cb342" stroke="#558b2f" stroke-width="2" data-sq="f7" data-type="floor" class="board-cell"/><rect x="240" y="80" width="40" height="40" fill="#7cb342" stroke="#558b2f" stroke-width="2" data-sq="g7" data-type="floor" class="board-cell"/><rect x="0" y="120" width="40" height="40" fill="#7cb342" stroke="#558b2f" stroke-width="2" data-sq="a6" data-type="floor" class="board-cell"/><rect x="40" y="120" width="40" height="40" fill="#4a90c8" stroke="#2a6a9a" stroke-width="2" data-sq="b6" data-type="river" class="board-cell"/><rect x="80" y="120" width="40" height="40" fill="#4a90c8" stroke="#2a6a9a" stroke-width="2" data-sq="c6" data-type="river" class="board-cell"/><rect x="120" y="120" width="40" height="40" fill="#7cb342" stroke="#558b2f" stroke-width="2" data-sq="d6" data-type="floor" class="board-cell"/><rect x="160" y="120" width="40" height="40" fill="#4a90c8" stroke="#2a6a9a" stroke-width="2" data-sq="e6" data-type="river" class="board-cell"/><rect x="200" y="120" width="40" height="40" fill="#4a90c8" stroke="#2a6a9a" stroke-width="2" data-sq="f6" data-type="river" class="board-cell"/><rect x="240" y="120" width="40" height="40" fill="#7cb342" stroke="#558b2f" stroke-width="2" data-sq="g6" data-type="floor" class="board-cell"/><rect x="0" y="160" width="40" height="40" fill="#7cb342" stroke="#558b2f" stroke-width="2" data-sq="a5" data-type="floor" class="board-cell"/><rect x="40" y="160" width="40" height="40" fill="#4a90c8" stroke="#2a6a9a" stroke-width="2" data-sq="b5" data-type="river" class="board-cell"/><rect x="80" y="160" width="40" height="40" fill="#4a90c8" stroke="#2a6a9a" stroke-width="2" data-sq="c5" data-type="river" class="board-cell"/><rect x="120" y="160" width="40" height="40" fill="#7cb342" stroke="#558b2f" stroke-width="2" data-sq="d5" data-type="floor" class="board-cell"/><rect x="160" y="160" width="40" height="40" fill="#4a90c8" stroke="#2a6a9a" stroke-width="2" data-sq="e5" data-type="river" class="board-cell"/><rect x="200" y="160" width="40" height="40" fill="#4a90c8" stroke="#2a6a9a" stroke-width="2" data-sq="f5" data-type="river" class="board-cell"/><rect x="240" y="160" width="40" height="40" fill="#7cb342" stroke="#558b2f" stroke-width="2" data-sq="g5" data-type="floor" class="board-cell"/><rect x="0" y="200" width="40" height="40" fill="#7cb342" stroke="#558b2f" stroke-width="2" data-sq="a4" data-type="floor" class="board-cell"/><rect x="40" y="200" width="40" height="40" fill="#4a90c8" stroke="#2a6a9a" stroke-width="2" data-sq="b4" data-type="river" class="board-cell"/><rect x="80" y="200" width="40" height="40" fill="#4a90c8" stroke="#2a6a9a" stroke-width="2" data-sq="c4" data-type="river" class="board-cell"/><rect x="120" y="200" width="40" height="40" fill="#7cb342" stroke="#558b2f" stroke-width="2" data-sq="d4" data-type="floor" class="board-cell"/><rect x="160" y="200" width="40" height="40" fill="#4a90c8" stroke="#2a6a9a" stroke-width="2" data-sq="e4" data-type="river" class="board-cell"/><rect x="200" y="200" width="40" height="40" fill="#4a90c8" stroke="#2a6a9a" stroke-width="2" data-sq="f4" data-type="river" class="board-cell"/><rect x="240" y="200" width="40" height="40" fill="#7cb342" stroke="#558b2f" stroke-width="2" data-sq="g4" data-type="floor" class="board-cell"/><rect x="0" y="240" width="40" height="40" fill="#7cb342" stroke="#558b2f" stroke-width="2" data-sq="a3" data-type="floor" class="board-cell"/><rect x="40" y="240" width="40" height="40" fill="#7cb342" stroke="#558b2f" stroke-width="2" data-sq="b3" data-type="floor" class="board-cell"/><rect x="80" y="240" width="40" height="40" fill="#7cb342" stroke="#558b2f" stroke-width="2" data-sq="c3" data-type="floor" class="board-cell"/><rect x="120" y="240" width="40" height="40" fill="#7cb342" stroke="#558b2f" stroke-width="2" data-sq="d3" data-type="floor" class="board-cell"/><rect x="160" y="240" width="40" height="40" fill="#7cb342" stroke="#558b2f" stroke-width="2" data-sq="e3" data-type="floor" class="board-cell"/><rect x="200" y="240" width="40" height="40" fill="#7cb342" stroke="#558b2f" stroke-width="2" data-sq="f3" data-type="floor" class="board-cell"/><rect x="240" y="240" width="40" height="40" fill="#7cb342" stroke="#558b2f" stroke-width="2" data-sq="g3" data-type="floor" class="board-cell"/><rect x="0" y="280" width="40" height="40" fill="#7cb342" stroke="#558b2f" stroke-width="2" data-sq="a2" data-type="floor" class="board-cell"/><rect x="40" y="280" width="40" height="40" fill="#7cb342" stroke="#558b2f" stroke-width="2" data-sq="b2" data-type="floor" class="board-cell"/><rect x="80" y="280" width="40" height="40" fill="#7cb342" stroke="#558b2f" stroke-width="2" data-sq="c2" data-type="floor" class="board-cell"/><rect x="120" y="280" width="40" height="40" fill="#c8963c" stroke="#8b6520" stroke-width="2" data-sq="d2" data-type="trap" class="board-cell"/><rect x="160" y="280" width="40" height="40" fill="#7cb342" stroke="#558b2f" stroke-width="2" data-sq="e2" data-type="floor" class="board-cell"/><rect x="200" y="280" width="40" height="40" fill="#7cb342" stroke="#558b2f" stroke-width="2" data-sq="f2" data-type="floor" class="board-cell"/><rect x="240" y="280" width="40" height="40" fill="#7cb342" stroke="#558b2f" stroke-width="2" data-sq="g2" data-type="floor" class="board-cell"/><rect x="0" y="320" width="40" height="40" fill="#7cb342" stroke="#558b2f" stroke-width="2" data-sq="a1" data-type="floor" class="board-cell"/><rect x="40" y="320" width="40" height="40" fill="#7cb342" stroke="#558b2f" stroke-width="2" data-sq="b1" data-type="floor" class="board-cell"/><rect x="80" y="320" width="40" height="40" fill="#c8963c" stroke="#8b6520" stroke-width="2" data-sq="c1" data-type="trap" class="board-cell"/><rect x="120" y="320" width="40" height="40" fill="#4a3520" stroke="#2a1a10" stroke-width="2" data-sq="d1" data-type="den" class="board-cell"/><rect x="160" y="320" width="40" height="40" fill="#c8963c" stroke="#8b6520" stroke-width="2" data-sq="e1" data-type="trap" class="board-cell"/><rect x="200" y="320" width="40" height="40" fill="#7cb342" stroke="#558b2f" stroke-width="2" data-sq="f1" data-type="floor" class="board-cell"/><rect x="240" y="320" width="40" height="40" fill="#7cb342" stroke="#558b2f" stroke-width="2" data-sq="g1" data-type="floor" class="board-cell"/>
<g pointer-events="none"><circle cx="20" cy="20" r="18.400000000000002" fill="#ffcdd2" stroke="#c62828" stroke-width="2" pointer-events="none"/><use href="#piece-twemoji-lion" x="8" y="8" width="24" height="24"/><circle cx="260" cy="20" r="18.400000000000002" fill="#ffcdd2" stroke="#c62828" stroke-width="2" pointer-events="none"/><use href="#piece-twemoji-tiger" x="248" y="8" width="24" height="24"/><circle cx="60" cy="60" r="18.400000000000002" fill="#ffcdd2" stroke="#c62828" stroke-width="2" pointer-events="none"/><use href="#piece-twemoji-dog" x="48" y="48" width="24" height="24"/><circle cx="220" cy="60" r="18.400000000000002" fill="#ffcdd2" stroke="#c62828" stroke-width="2" pointer-events="none"/><use href="#piece-twemoji-cat" x="208" y="48" width="24" height="24"/><circle cx="20" cy="100" r="18.400000000000002" fill="#ffcdd2" stroke="#c62828" stroke-width="2" pointer-events="none"/><use href="#piece-twemoji-rat" x="8" y="88" width="24" height="24"/><circle cx="100" cy="100" r="18.400000000000002" fill="#ffcdd2" stroke="#c62828" stroke-width="2" pointer-events="none"/><use href="#piece-twemoji-leopard" x="88" y="88" width="24" height="24"/><circle cx="180" cy="100" r="18.400000000000002" fill="#ffcdd2" stroke="#c62828" stroke-width="2" pointer-events="none"/><use href="#piece-twemoji-wolf" x="168" y="88" width="24" height="24"/><circle cx="260" cy="100" r="18.400000000000002" fill="#ffcdd2" stroke="#c62828" stroke-width="2" pointer-events="none"/><use href="#piece-twemoji-elephant" x="248" y="88" width="24" height="24"/><circle cx="20" cy="260" r="18.400000000000002" fill="#bbdefb" stroke="#1565c0" stroke-width="2" pointer-events="none"/><use href="#piece-twemoji-elephant" x="8" y="248" width="24" height="24"/><circle cx="100" cy="260" r="18.400000000000002" fill="#bbdefb" stroke="#1565c0" stroke-width="2" pointer-events="none"/><use href="#piece-twemoji-wolf" x="88" y="248" width="24" height="24"/><circle cx="180" cy="260" r="18.400000000000002" fill="#bbdefb" stroke="#1565c0" stroke-width="2" pointer-events="none"/><use href="#piece-twemoji-leopard" x="168" y="248" width="24" height="24"/><circle cx="260" cy="260" r="18.400000000000002" fill="#bbdefb" stroke="#1565c0" stroke-width="2" pointer-events="none"/><use href="#piece-twemoji-rat" x="248" y="248" width="24" height="24"/><circle cx="60" cy="300" r="18.400000000000002" fill="#bbdefb" stroke="#1565c0" stroke-width="2" pointer-events="none"/><use href="#piece-twemoji-cat" x="48" y="288" width="24" height="24"/><circle cx="220" cy="300" r="18.400000000000002" fill="#bbdefb" stroke="#1565c0" stroke-width="2" pointer-events="none"/><use href="#piece-twemoji-dog" x="208" y="288" width="24" height="24"/><circle cx="20" cy="340" r="18.400000000000002" fill="#bbdefb" stroke="#1565c0" stroke-width="2" pointer-events="none"/><use href="#piece-twemoji-tiger" x="8" y="328" width="24" height="24"/><circle cx="260" cy="340" r="18.400000000000002" fill="#bbdefb" stroke="#1565c0" stroke-width="2" pointer-events="none"/><use href="#piece-twemoji-lion" x="248" y="328" width="24" height="24"/></g>
</svg>