<svg xmlns="http://www.w3.org/2000/svg" viewBox="0 0 664 492" width="664" height="492">
<rect x="0" y="0" width="664" height="492" fill="#1b5e3a" rx="16"/><rect x="20" y="20" width="624" height="452" fill="#2d7a4f" rx="12" stroke="#1a4a2e" stroke-width="2"/><g class="hand" data-zone="Player 1 — 7 cards (visible)"><g data-card="[5|5]"><rect x="208" y="50" width="32" height="60" fill="#f0ede6" rx="4" stroke="#bbb" stroke-width="0.8"/><image href="../pieces/sets/dominoes-classic/domino-05-05.svg" x="211" y="53" width="26" height="54" preserveAspectRatio="xMidYMid meet"/></g><g data-card="[4|5]"><rect x="244" y="50" width="32" height="60" fill="#f0ede6" rx="4" stroke="#bbb" stroke-width="0.8"/><image href="../pieces/sets/dominoes-classic/domino-04-05.svg" x="247" y="53" width="26" height="54" preserveAspectRatio="xMidYMid meet"/></g><g data-card="[3|6]"><rect x="280" y="50" width="32" height="60" fill="#f0ede6" rx="4" stroke="#bbb" stroke-width="0.8"/><image href="../pieces/sets/dominoes-classic/domino-03-06.svg" x="283" y="53" width="26" height="54" preserveAspectRatio="xMidYMid meet"/></g><g data-card="[0|2]"><rect x="316" y="50" width="32" height="60" fill="#f0ede6" rx="4" stroke="#bbb" stroke-width="0.8"/><image href="../pieces/sets/dominoes-classic/domino-00-02.svg" x="319" y="53" width="26" height="54" preserveAspectRatio="xMidYMid meet"/></g><g data-card="[0|4]"><rect x="352" y="50" width="32" height="60" fill="#f0ede6" rx="4" stroke="#bbb" stroke-width="0.8"/><image href="../pieces/sets/dominoes-classic/domino-00-04.svg" x="355" y="53" width="26" height="54" preserveAspectRatio="xMidYMid meet"/></g><g data-card="[0|3]"><rect x="388" y="50" width="32" height="60" fill="#f0ede6" rx="4" stroke="#bbb" stroke-width="0.8"/><image href="../pieces/sets/dominoes-classic/domino-00-03.svg" x="391" y="53" width="26" height="54" preserveAspectRatio="xMidYMid meet"/></g><g data-card="[3|5]"><rect x="424" y="50" width="32" height="60" fill="#f0ede6" rx="4" stroke="#bbb" stroke-width="0.8"/><image href="../pieces/sets/dominoes-classic/domino-03-05.svg" x="427" y="53" width="26" height="54" preserveAspectRatio="xMidYMid meet"/></g></g><text x="332" y="44" text-anchor="middle" font-size="11" fill="rgba(255,255,255,0.6)" font-family="system-ui">Player 1 (7)</text><g class="hand" data-zone="Player 2 — 7 cards (hidden)"><g data-card="Face down"><rect x="208" y="382" width="32" height="60" fill="#f0ede6" rx="4" stroke="#bbb" stroke-width="0.8"/><image href="../pieces/sets/dominoes-classic/domino-back.svg" x="211" y="385" width="26" height="54" preserveAspectRatio="xMidYMid meet"/></g><g data-card="Face down"><rect x="244" y="382" width="32" height="60" fill="#f0ede6" rx="4" stroke="#bbb" stroke-width="0.8"/><image href="../pieces/sets/dominoes-classic/domino-back.svg" x="247" y="385" width="26" height="54" preserveAspectRatio="xMidYMid meet"/></g><g data-card="Face down"><rect x="280" y="382" width="32" height="60" fill="#f0ede6" rx="4" stroke="#bbb" stroke-width="0.8"/><image href="../pieces/sets/dominoes-classic/domino-back.svg" x="283" y="385" width="26" height="54" preserveAspectRatio="xMidYMid meet"/></g><g data-card="Face down"><rect x="316" y="382" width="32" height="60" fill="#f0ede6" rx="4" stroke="#bbb" stroke-width="0.8"/><image href="../pieces/sets/dominoes-classic/domino-back.svg" x="319" y="385" width="26" height="54" preserveAspectRatio="xMidYMid meet"/></g><g data-card="Face down"><rect x="352" y="382" width="32" height="60" fill="#f0ede6" rx="4" stroke="#bbb" stroke-width="0.8"/><image href="../pieces/sets/dominoes-classic/domino-back.svg" x="355" y="385" width="26" height="54" preserveAspectRatio="xMidYMid meet"/></g><g data-card="Face down"><rect x="388" y="382" width="32" height="60" fill="#f0ede6" rx="4" stroke="#bbb" stroke-width="0.8"/><image href="../pieces/sets/dominoes-classic/domino-back.svg" x="391" y="385" width="26" height="54" preserveAspectRatio="xMidYMid meet"/></g><g data-card="Face down"><rect x="424" y="382" width="32" height="60" fill="#f0ede6" rx="4" stroke="#bbb" stroke-width="0.8"/><image href="../pieces/sets/dominoes-classic/domino-back.svg" x="427" y="385" width="26" height="54" preserveAspectRatio="xMidYMid meet"/></g></g><text x="332" y="456" text-anchor="middle" font-size="11" fill="rgba(255,255,255,0.6)" font-family="system-ui">Player 2 (7)</text><g data-zone="Draw pile — 14 cards remaining (face down)"><image href="../pieces/sets/dominoes-classic/domino-back.svg" x="311.5" y="211.5" width="32" height="60" preserveAspectRatio="xMidYMid meet"/><image href="../pieces/sets/dominoes-classic/domino-back.svg" x="313" y="213" width="32" height="60" preserveAspectRatio="xMidYMid meet"/><image href="../pieces/sets/dominoes-classic/domino-back.svg" x="314.5" y="214.5" width="32" height="60" preserveAspectRatio="xMidYMid meet"/><image href="../pieces/sets/dominoes-classic/domino-back.svg" x="316" y="216" width="32" height="60" preserveAspectRatio="xMidYMid meet"/><text x="332" y="249" text-anchor="middle" font-size="11" fill="rgba(255,255,255,0.85)" font-family="system-ui" font-weight="bold">14</text></g><text x="332" y="486" text-anchor="middle" font-size="9" fill="rgba(255,255,255,0.3)" font-family="system-ui">Double-Six Dominoes · seed: 42</text>
</svg>