<svg xmlns="http://www.w3.org/2000/svg" viewBox="0 0 716.6660889654819 544.6660889654819" width="716.6660889654819" height="544.6660889654819">
<rect x="0" y="0" width="716.6660889654819" height="544.6660889654819" fill="#1b5e3a" rx="16"/><rect x="20" y="20" width="676.6660889654819" height="504.6660889654819" fill="#2d7a4f" rx="12" stroke="#1a4a2e" stroke-width="2"/><g class="hand" data-zone="Player 1 — 7 cards (visible)"><g data-card="[5|5]"><rect x="234.33304448274095" y="50" width="32" height="60" fill="#f0ede6" rx="4" stroke="#bbb" stroke-width="0.8"/><image href="../pieces/sets/dominoes-classic/domino-05-05.svg" x="237.33304448274095" y="53" width="26" height="54" preserveAspectRatio="xMidYMid meet"/></g><g data-card="[3|6]"><rect x="270.33304448274095" y="50" width="32" height="60" fill="#f0ede6" rx="4" stroke="#bbb" stroke-width="0.8"/><image href="../pieces/sets/dominoes-classic/domino-03-06.svg" x="273.33304448274095" y="53" width="26" height="54" preserveAspectRatio="xMidYMid meet"/></g><g data-card="[0|4]"><rect x="306.33304448274095" y="50" width="32" height="60" fill="#f0ede6" rx="4" stroke="#bbb" stroke-width="0.8"/><image href="../pieces/sets/dominoes-classic/domino-00-04.svg" x="309.33304448274095" y="53" width="26" height="54" preserveAspectRatio="xMidYMid meet"/></g><g data-card="[3|5]"><rect x="342.33304448274095" y="50" width="32" height="60" fill="#f0ede6" rx="4" stroke="#bbb" stroke-width="0.8"/><image href="../pieces/sets/dominoes-classic/domino-03-05.svg" x="345.33304448274095" y="53" width="26" height="54" preserveAspectRatio="xMidYMid meet"/></g><g data-card="[1|3]"><rect x="378.33304448274095" y="50" width="32" height="60" fill="#f0ede6" rx="4" stroke="#bbb" stroke-width="0.8"/><image href="../pieces/sets/dominoes-classic/domino-01-03.svg" x="381.33304448274095" y="53" width="26" height="54" preserveAspectRatio="xMidYMid meet"/></g><g data-card="[2|5]"><rect x="414.33304448274095" y="50" width="32" height="60" fill="#f0ede6" rx="4" stroke="#bbb" stroke-width="0.8"/><image href="../pieces/sets/dominoes-classic/domino-02-05.svg" x="417.33304448274095" y="53" width="26" height="54" preserveAspectRatio="xMidYMid meet"/></g><g data-card="[1|5]"><rect x="450.33304448274095" y="50" width="32" height="60" fill="#f0ede6" rx="4" stroke="#bbb" stroke-width="0.8"/><image href="../pieces/sets/dominoes-classic/domino-01-05.svg" x="453.33304448274095" y="53" width="26" height="54" preserveAspectRatio="xMidYMid meet"/></g></g><text x="358.33304448274095" y="44" text-anchor="middle" font-size="11" fill="rgba(255,255,255,0.6)" font-family="system-ui">Player 1 (7)</text><g class="hand" data-zone="Player 2 — 7 cards (hidden)"><g data-card="Face down"><rect x="426.6660889654819" y="242.33304448274095" width="32" height="60" fill="#f0ede6" rx="4" stroke="#bbb" stroke-width="0.8"/><image href="../pieces/sets/dominoes-classic/domino-back.svg" x="429.6660889654819" y="245.33304448274095" width="26" height="54" preserveAspectRatio="xMidYMid meet"/></g><g data-card="Face down"><rect x="462.6660889654819" y="242.33304448274095" width="32" height="60" fill="#f0ede6" rx="4" stroke="#bbb" stroke-width="0.8"/><image href="../pieces/sets/dominoes-classic/domino-back.svg" x="465.6660889654819" y="245.33304448274095" width="26" height="54" preserveAspectRatio="xMidYMid meet"/></g><g data-card="Face down"><rect x="498.6660889654819" y="242.33304448274095" width="32" height="60" fill="#f0ede6" rx="4" stroke="#bbb" stroke-width="0.8"/><image href="../pieces/sets/dominoes-classic/domino-back.svg" x="501.6660889654819" y="245.33304448274095" width="26" height="54" preserveAspectRatio="xMidYMid meet"/></g><g data-card="Face down"><rect x="534.6660889654819" y="242.33304448274095" width="32" height="60" fill="#f0ede6" rx="4" stroke="#bbb" stroke-width="0.8"/><image href="../pieces/sets/dominoes-classic/domino-back.svg" x="537.6660889654819" y="245.33304448274095" width="26" height="54" preserveAspectRatio="xMidYMid meet"/></g><g data-card="Face down"><rect x="570.6660889654819" y="242.33304448274095" width="32" height="60" fill="#f0ede6" rx="4" stroke="#bbb" stroke-width="0.8"/><image href="../pieces/sets/dominoes-classic/domino-back.svg" x="573.6660889654819" y="245.33304448274095" width="26" height="54" preserveAspectRatio="xMidYMid meet"/></g><g data-card="Face down"><rect x="606.6660889654819" y="242.33304448274095" width="32" height="60" fill="#f0ede6" rx="4" stroke="#bbb" stroke-width="0.8"/><image href="../pieces/sets/dominoes-classic/domino-back.svg" x="609.6660889654819" y="245.33304448274095" width="26" height="54" preserveAspectRatio="xMidYMid meet"/></g><g data-card="Face down"><rect x="642.6660889654819" y="242.33304448274095" width="32" height="60" fill="#f0ede6" rx="4" stroke="#bbb" stroke-width="0.8"/><image href="../pieces/sets/dominoes-classic/domino-back.svg" x="645.6660889654819" y="245.33304448274095" width="26" height="54" preserveAspectRatio="xMidYMid meet"/></g></g><text x="550.6660889654819" y="236.33304448274095" text-anchor="middle" font-size="11" fill="rgba(255,255,255,0.6)" font-family="system-ui">Player 2 (7)</text><g class="hand" data-zone="Player 3 — 7 cards (hidden)"><g data-card="Face down"><rect x="234.33304448274095" y="434.6660889654819" width="32" height="60" fill="#f0ede6" rx="4" stroke="#bbb" stroke-width="0.8"/><image href="../pieces/sets/dominoes-classic/domino-back.svg" x="237.33304448274095" y="437.6660889654819" width="26" height="54" preserveAspectRatio="xMidYMid meet"/></g><g data-card="Face down"><rect x="270.33304448274095" y="434.6660889654819" width="32" height="60" fill="#f0ede6" rx="4" stroke="#bbb" stroke-width="0.8"/><image href="../pieces/sets/dominoes-classic/domino-back.svg" x="273.33304448274095" y="437.6660889654819" width="26" height="54" preserveAspectRatio="xMidYMid meet"/></g><g data-card="Face down"><rect x="306.33304448274095" y="434.6660889654819" width="32" height="60" fill="#f0ede6" rx="4" stroke="#bbb" stroke-width="0.8"/><image href="../pieces/sets/dominoes-classic/domino-back.svg" x="309.33304448274095" y="437.6660889654819" width="26" height="54" preserveAspectRatio="xMidYMid meet"/></g><g data-card="Face down"><rect x="342.33304448274095" y="434.6660889654819" width="32" height="60" fill="#f0ede6" rx="4" stroke="#bbb" stroke-width="0.8"/><image href="../pieces/sets/dominoes-classic/domino-back.svg" x="345.33304448274095" y="437.6660889654819" width="26" height="54" preserveAspectRatio="xMidYMid meet"/></g><g data-card="Face down"><rect x="378.33304448274095" y="434.6660889654819" width="32" height="60" fill="#f0ede6" rx="4" stroke="#bbb" stroke-width="0.8"/><image href="../pieces/sets/dominoes-classic/domino-back.svg" x="381.33304448274095" y="437.6660889654819" width="26" height="54" preserveAspectRatio="xMidYMid meet"/></g><g data-card="Face down"><rect x="414.33304448274095" y="434.6660889654819" width="32" height="60" fill="#f0ede6" rx="4" stroke="#bbb" stroke-width="0.8"/><image href="../pieces/sets/dominoes-classic/domino-back.svg" x="417.33304448274095" y="437.6660889654819" width="26" height="54" preserveAspectRatio="xMidYMid meet"/></g><g data-card="Face down"><rect x="450.33304448274095" y="434.6660889654819" width="32" height="60" fill="#f0ede6" rx="4" stroke="#bbb" stroke-width="0.8"/><image href="../pieces/sets/dominoes-classic/domino-back.svg" x="453.33304448274095" y="437.6660889654819" width="26" height="54" preserveAspectRatio="xMidYMid meet"/></g></g><text x="358.33304448274095" y="508.6660889654819" text-anchor="middle" font-size="11" fill="rgba(255,255,255,0.6)" font-family="system-ui">Player 3 (7)</text><g class="hand" data-zone="Player 4 — 7 cards (hidden)"><g data-card="Face down"><rect x="42" y="242.333044482741" width="32" height="60" fill="#f0ede6" rx="4" stroke="#bbb" stroke-width="0.8"/><image href="../pieces/sets/dominoes-classic/domino-back.svg" x="45" y="245.333044482741" width="26" height="54" preserveAspectRatio="xMidYMid meet"/></g><g data-card="Face down"><rect x="78" y="242.333044482741" width="32" height="60" fill="#f0ede6" rx="4" stroke="#bbb" stroke-width="0.8"/><image href="../pieces/sets/dominoes-classic/domino-back.svg" x="81" y="245.333044482741" width="26" height="54" preserveAspectRatio="xMidYMid meet"/></g><g data-card="Face down"><rect x="114" y="242.333044482741" width="32" height="60" fill="#f0ede6" rx="4" stroke="#bbb" stroke-width="0.8"/><image href="../pieces/sets/dominoes-classic/domino-back.svg" x="117" y="245.333044482741" width="26" height="54" preserveAspectRatio="xMidYMid meet"/></g><g data-card="Face down"><rect x="150" y="242.333044482741" width="32" height="60" fill="#f0ede6" rx="4" stroke="#bbb" stroke-width="0.8"/><image href="../pieces/sets/dominoes-classic/domino-back.svg" x="153" y="245.333044482741" width="26" height="54" preserveAspectRatio="xMidYMid meet"/></g><g data-card="Face down"><rect x="186" y="242.333044482741" width="32" height="60" fill="#f0ede6" rx="4" stroke="#bbb" stroke-width="0.8"/><image href="../pieces/sets/dominoes-classic/domino-back.svg" x="189" y="245.333044482741" width="26" height="54" preserveAspectRatio="xMidYMid meet"/></g><g data-card="Face down"><rect x="222" y="242.333044482741" width="32" height="60" fill="#f0ede6" rx="4" stroke="#bbb" stroke-width="0.8"/><image href="../pieces/sets/dominoes-classic/domino-back.svg" x="225" y="245.333044482741" width="26" height="54" preserveAspectRatio="xMidYMid meet"/></g><g data-card="Face down"><rect x="258" y="242.333044482741" width="32" height="60" fill="#f0ede6" rx="4" stroke="#bbb" stroke-width="0.8"/><image href="../pieces/sets/dominoes-classic/domino-back.svg" x="261" y="245.333044482741" width="26" height="54" preserveAspectRatio="xMidYMid meet"/></g></g><text x="166" y="316.333044482741" text-anchor="middle" font-size="11" fill="rgba(255,255,255,0.6)" font-family="system-ui">Player 4 (7)</text><text x="358.33304448274095" y="538.6660889654819" text-anchor="middle" font-size="9" fill="rgba(255,255,255,0.3)" font-family="system-ui">Double-Six Dominoes · seed: 42</text>
</svg>