<svg xmlns="http://www.w3.org/2000/svg" viewBox="0 0 448 448" width="448" height="448">
<defs>
<symbol id="piece-playstrategy-dameo-fabirovsky-bM" viewBox="0 0 100 100"><style><![CDATA[.B{fill-rule:evenodd}]]></style><defs><clipPath id="A"><path d="M0 0h100v100H0z"/></clipPath></defs><g clip-path="url(#A)"><circle vector-effect="non-scaling-stroke" cx="50" cy="50" r="40" fill="#191919"/><linearGradient id="B" x1="50" y1="25" x2="50" y2="74.923" gradientUnits="userSpaceOnUse"><stop offset="0%" stop-opacity=".2" stop-color="#fff"/><stop offset="100%" stop-opacity=".098" stop-color="#000"/></linearGradient><path d="M50 25c-13.807 0-25 11.193-25 25s11.193 25 25 25 25-11.193 25-25-11.193-25-25-25zm0 5c11.046 0 20 8.954 20 20s-8.954 20-20 20-20-8.954-20-20 8.954-20 20-20z" fill="url(#B)" class="B"/><linearGradient id="C" x1="50" y1="70.078" x2="50" y2="30" gradientUnits="userSpaceOnUse"><stop offset="0%" stop-opacity=".2" stop-color="#fff"/><stop offset="100%" stop-opacity=".098" stop-color="#000"/></linearGradient><path d="M50 30c-11.046 0-20 8.954-20 20s8.954 20 20 20 20-8.954 20-20-8.954-20-20-20zm0 5c8.284 0 15 6.716 15 15s-6.716 15-15 15-15-6.716-15-15 6.716-15 15-15z" fill="url(#C)" class="B"/><linearGradient id="D" x1="50" y1="60.303" x2="50" y2="40" gradientUnits="userSpaceOnUse"><stop offset="0%" stop-opacity=".2" stop-color="#fff"/><stop offset="100%" stop-opacity=".098" stop-color="#000"/></linearGradient><path d="M50 40a10 10 0 1 0 0 20 10 10 0 1 0 0-20h0zm0 5a5 5 0 1 1 0 10 5 5 0 1 1 0-10h0z" fill="url(#D)" class="B"/><linearGradient id="E" x1="50" y1="10" x2="49.735" y2="90" gradientUnits="userSpaceOnUse"><stop offset="0%" stop-opacity=".2" stop-color="#fff"/><stop offset="100%" stop-opacity=".098" stop-color="#000"/></linearGradient><path d="M50 10c-10.61 0-20.783 4.214-28.284 11.716S10 39.39 10 50s4.214 20.783 11.716 28.284S39.39 90 50 90s20.783-4.214 28.284-11.716S90 60.61 90 50s-4.214-20.783-11.716-28.284S60.61 10 50 10h0zm0 5c19.33 0 35 15.67 35 35S69.33 85 50 85 15 69.33 15 50s15.67-35 35-35z" fill="url(#E)" class="B"/><linearGradient id="F" x1="50" y1="84.77" x2="50" y2="15" gradientUnits="userSpaceOnUse"><stop offset="0%" stop-opacity=".2" stop-color="#fff"/><stop offset="100%" stop-opacity=".098" stop-color="#000"/></linearGradient><path d="M50 15c-19.33 0-35 15.67-35 35s15.67 35 35 35 35-15.67 35-35-15.67-35-35-35zm0 10c6.63 0 12.99 2.634 17.678 7.322S75 43.37 75 50s-2.634 12.99-7.322 17.678S56.63 75 50 75s-12.99-2.634-17.678-7.322S25 56.63 25 50s2.634-12.99 7.322-17.678S43.37 25 50 25h0z" fill="url(#F)" class="B"/><linearGradient id="G" x1="50" y1="44.933" x2="50" y2="53.754" gradientUnits="userSpaceOnUse"><stop offset="0%" stop-opacity=".2" stop-color="#fff"/><stop offset="100%" stop-opacity=".098" stop-color="#000"/></linearGradient><circle vector-effect="non-scaling-stroke" cx="50" cy="50" r="5" fill="url(#G)"/><linearGradient id="H" x1="50" y1="35" x2="50" y2="64.594" gradientUnits="userSpaceOnUse"><stop offset="0%" stop-opacity=".2" stop-color="#fff"/><stop offset="100%" stop-opacity=".098" stop-color="#000"/></linearGradient><path d="M50 35a15 15 0 0 0-15 15 15 15 0 0 0 15 15 15 15 0 0 0 15-15 15 15 0 0 0-15-15h0zm0 5a10 10 0 1 1 0 20 10 10 0 1 1 0-20h0z" fill="url(#H)" class="B"/></g></symbol>
<symbol id="piece-playstrategy-dameo-fabirovsky-wM" viewBox="0 0 100 100"><style><![CDATA[.B{fill-rule:evenodd}]]></style><defs><clipPath id="A"><path d="M0 0h100v100H0z"/></clipPath></defs><g clip-path="url(#A)"><circle vector-effect="non-scaling-stroke" cx="50" cy="50" r="40" fill="#fff"/><linearGradient id="B" x1="50" y1="25" x2="50" y2="74.923" gradientUnits="userSpaceOnUse"><stop offset="0%" stop-opacity=".1" stop-color="#fff"/><stop offset="100%" stop-opacity=".098" stop-color="#000"/></linearGradient><path d="M50 25c-13.807 0-25 11.193-25 25s11.193 25 25 25 25-11.193 25-25-11.193-25-25-25zm0 5c11.046 0 20 8.954 20 20s-8.954 20-20 20-20-8.954-20-20 8.954-20 20-20z" fill="url(#B)" class="B"/><linearGradient id="C" x1="50" y1="70.078" x2="50" y2="30" gradientUnits="userSpaceOnUse"><stop offset="0%" stop-opacity=".2" stop-color="#fff"/><stop offset="100%" stop-opacity=".098" stop-color="#000"/></linearGradient><path d="M50 30c-11.046 0-20 8.954-20 20s8.954 20 20 20 20-8.954 20-20-8.954-20-20-20zm0 5c8.284 0 15 6.716 15 15s-6.716 15-15 15-15-6.716-15-15 6.716-15 15-15z" fill="url(#C)" class="B"/><linearGradient id="D" x1="50" y1="60.303" x2="50" y2="40" gradientUnits="userSpaceOnUse"><stop offset="0%" stop-opacity=".1" stop-color="#fff"/><stop offset="100%" stop-opacity=".098" stop-color="#000"/></linearGradient><path d="M50 40a10 10 0 1 0 0 20 10 10 0 1 0 0-20h0zm0 5a5 5 0 1 1 0 10 5 5 0 1 1 0-10h0z" fill="url(#D)" class="B"/><linearGradient id="E" x1="50" y1="10" x2="49.735" y2="90" gradientUnits="userSpaceOnUse"><stop offset="0%" stop-opacity=".1" stop-color="#fff"/><stop offset="100%" stop-opacity=".098" stop-color="#000"/></linearGradient><path d="M50 10c-10.61 0-20.783 4.214-28.284 11.716S10 39.39 10 50s4.214 20.783 11.716 28.284S39.39 90 50 90s20.783-4.214 28.284-11.716S90 60.61 90 50s-4.214-20.783-11.716-28.284S60.61 10 50 10h0zm0 5c19.33 0 35 15.67 35 35S69.33 85 50 85 15 69.33 15 50s15.67-35 35-35z" fill="url(#E)" class="B"/><linearGradient id="F" x1="50" y1="84.77" x2="50" y2="15" gradientUnits="userSpaceOnUse"><stop offset="0%" stop-opacity=".1" stop-color="#fff"/><stop offset="100%" stop-opacity=".098" stop-color="#000"/></linearGradient><path d="M50 15c-19.33 0-35 15.67-35 35s15.67 35 35 35 35-15.67 35-35-15.67-35-35-35zm0 10c6.63 0 12.99 2.634 17.678 7.322S75 43.37 75 50s-2.634 12.99-7.322 17.678S56.63 75 50 75s-12.99-2.634-17.678-7.322S25 56.63 25 50s2.634-12.99 7.322-17.678S43.37 25 50 25h0z" fill="url(#F)" class="B"/><linearGradient id="G" x1="50" y1="44.933" x2="50" y2="53.754" gradientUnits="userSpaceOnUse"><stop offset="0%" stop-opacity=".1" stop-color="#fff"/><stop offset="100%" stop-opacity=".098" stop-color="#000"/></linearGradient><circle vector-effect="non-scaling-stroke" cx="50" cy="50" r="5" fill="url(#G)"/><linearGradient id="H" x1="50" y1="35" x2="50" y2="64.594" gradientUnits="userSpaceOnUse"><stop offset="0%" stop-opacity=".1" stop-color="#fff"/><stop offset="100%" stop-opacity=".098" stop-color="#000"/></linearGradient><path d="M50 35a15 15 0 0 0-15 15 15 15 0 0 0 15 15 15 15 0 0 0 15-15 15 15 0 0 0-15-15h0zm0 5a10 10 0 1 1 0 20 10 10 0 1 1 0-20h0z" fill="url(#H)" class="B"/></g></symbol>
</defs>

<rect x="24" y="24" width="40" height="40" fill="#f0d9b5" data-sq="a10" class="board-cell"/><rect x="64" y="24" width="40" height="40" fill="#b58863" data-sq="b10" class="board-cell"/><rect x="104" y="24" width="40" height="40" fill="#f0d9b5" data-sq="c10" class="board-cell"/><rect x="144" y="24" width="40" height="40" fill="#b58863" data-sq="d10" class="board-cell"/><rect x="184" y="24" width="40" height="40" fill="#f0d9b5" data-sq="e10" class="board-cell"/><rect x="224" y="24" width="40" height="40" fill="#b58863" data-sq="f10" class="board-cell"/><rect x="264" y="24" width="40" height="40" fill="#f0d9b5" data-sq="g10" class="board-cell"/><rect x="304" y="24" width="40" height="40" fill="#b58863" data-sq="h10" class="board-cell"/><rect x="344" y="24" width="40" height="40" fill="#f0d9b5" data-sq="i10" class="board-cell"/><rect x="384" y="24" width="40" height="40" fill="#b58863" data-sq="j10" class="board-cell"/><rect x="24" y="64" width="40" height="40" fill="#b58863" data-sq="a9" class="board-cell"/><rect x="64" y="64" width="40" height="40" fill="#f0d9b5" data-sq="b9" class="board-cell"/><rect x="104" y="64" width="40" height="40" fill="#b58863" data-sq="c9" class="board-cell"/><rect x="144" y="64" width="40" height="40" fill="#f0d9b5" data-sq="d9" class="board-cell"/><rect x="184" y="64" width="40" height="40" fill="#b58863" data-sq="e9" class="board-cell"/><rect x="224" y="64" width="40" height="40" fill="#f0d9b5" data-sq="f9" class="board-cell"/><rect x="264" y="64" width="40" height="40" fill="#b58863" data-sq="g9" class="board-cell"/><rect x="304" y="64" width="40" height="40" fill="#f0d9b5" data-sq="h9" class="board-cell"/><rect x="344" y="64" width="40" height="40" fill="#b58863" data-sq="i9" class="board-cell"/><rect x="384" y="64" width="40" height="40" fill="#f0d9b5" data-sq="j9" class="board-cell"/><rect x="24" y="104" width="40" height="40" fill="#f0d9b5" data-sq="a8" class="board-cell"/><rect x="64" y="104" width="40" height="40" fill="#b58863" data-sq="b8" class="board-cell"/><rect x="104" y="104" width="40" height="40" fill="#f0d9b5" data-sq="c8" class="board-cell"/><rect x="144" y="104" width="40" height="40" fill="#b58863" data-sq="d8" class="board-cell"/><rect x="184" y="104" width="40" height="40" fill="#f0d9b5" data-sq="e8" class="board-cell"/><rect x="224" y="104" width="40" height="40" fill="#b58863" data-sq="f8" class="board-cell"/><rect x="264" y="104" width="40" height="40" fill="#f0d9b5" data-sq="g8" class="board-cell"/><rect x="304" y="104" width="40" height="40" fill="#b58863" data-sq="h8" class="board-cell"/><rect x="344" y="104" width="40" height="40" fill="#f0d9b5" data-sq="i8" class="board-cell"/><rect x="384" y="104" width="40" height="40" fill="#b58863" data-sq="j8" class="board-cell"/><rect x="24" y="144" width="40" height="40" fill="#b58863" data-sq="a7" class="board-cell"/><rect x="64" y="144" width="40" height="40" fill="#f0d9b5" data-sq="b7" class="board-cell"/><rect x="104" y="144" width="40" height="40" fill="#b58863" data-sq="c7" class="board-cell"/><rect x="144" y="144" width="40" height="40" fill="#f0d9b5" data-sq="d7" class="board-cell"/><rect x="184" y="144" width="40" height="40" fill="#b58863" data-sq="e7" class="board-cell"/><rect x="224" y="144" width="40" height="40" fill="#f0d9b5" data-sq="f7" class="board-cell"/><rect x="264" y="144" width="40" height="40" fill="#b58863" data-sq="g7" class="board-cell"/><rect x="304" y="144" width="40" height="40" fill="#f0d9b5" data-sq="h7" class="board-cell"/><rect x="344" y="144" width="40" height="40" fill="#b58863" data-sq="i7" class="board-cell"/><rect x="384" y="144" width="40" height="40" fill="#f0d9b5" data-sq="j7" class="board-cell"/><rect x="24" y="184" width="40" height="40" fill="#f0d9b5" data-sq="a6" class="board-cell"/><rect x="64" y="184" width="40" height="40" fill="#b58863" data-sq="b6" class="board-cell"/><rect x="104" y="184" width="40" height="40" fill="#f0d9b5" data-sq="c6" class="board-cell"/><rect x="144" y="184" width="40" height="40" fill="#b58863" data-sq="d6" class="board-cell"/><rect x="184" y="184" width="40" height="40" fill="#f0d9b5" data-sq="e6" class="board-cell"/><rect x="224" y="184" width="40" height="40" fill="#b58863" data-sq="f6" class="board-cell"/><rect x="264" y="184" width="40" height="40" fill="#f0d9b5" data-sq="g6" class="board-cell"/><rect x="304" y="184" width="40" height="40" fill="#b58863" data-sq="h6" class="board-cell"/><rect x="344" y="184" width="40" height="40" fill="#f0d9b5" data-sq="i6" class="board-cell"/><rect x="384" y="184" width="40" height="40" fill="#b58863" data-sq="j6" class="board-cell"/><rect x="24" y="224" width="40" height="40" fill="#b58863" data-sq="a5" class="board-cell"/><rect x="64" y="224" width="40" height="40" fill="#f0d9b5" data-sq="b5" class="board-cell"/><rect x="104" y="224" width="40" height="40" fill="#b58863" data-sq="c5" class="board-cell"/><rect x="144" y="224" width="40" height="40" fill="#f0d9b5" data-sq="d5" class="board-cell"/><rect x="184" y="224" width="40" height="40" fill="#b58863" data-sq="e5" class="board-cell"/><rect x="224" y="224" width="40" height="40" fill="#f0d9b5" data-sq="f5" class="board-cell"/><rect x="264" y="224" width="40" height="40" fill="#b58863" data-sq="g5" class="board-cell"/><rect x="304" y="224" width="40" height="40" fill="#f0d9b5" data-sq="h5" class="board-cell"/><rect x="344" y="224" width="40" height="40" fill="#b58863" data-sq="i5" class="board-cell"/><rect x="384" y="224" width="40" height="40" fill="#f0d9b5" data-sq="j5" class="board-cell"/><rect x="24" y="264" width="40" height="40" fill="#f0d9b5" data-sq="a4" class="board-cell"/><rect x="64" y="264" width="40" height="40" fill="#b58863" data-sq="b4" class="board-cell"/><rect x="104" y="264" width="40" height="40" fill="#f0d9b5" data-sq="c4" class="board-cell"/><rect x="144" y="264" width="40" height="40" fill="#b58863" data-sq="d4" class="board-cell"/><rect x="184" y="264" width="40" height="40" fill="#f0d9b5" data-sq="e4" class="board-cell"/><rect x="224" y="264" width="40" height="40" fill="#b58863" data-sq="f4" class="board-cell"/><rect x="264" y="264" width="40" height="40" fill="#f0d9b5" data-sq="g4" class="board-cell"/><rect x="304" y="264" width="40" height="40" fill="#b58863" data-sq="h4" class="board-cell"/><rect x="344" y="264" width="40" height="40" fill="#f0d9b5" data-sq="i4" class="board-cell"/><rect x="384" y="264" width="40" height="40" fill="#b58863" data-sq="j4" class="board-cell"/><rect x="24" y="304" width="40" height="40" fill="#b58863" data-sq="a3" class="board-cell"/><rect x="64" y="304" width="40" height="40" fill="#f0d9b5" data-sq="b3" class="board-cell"/><rect x="104" y="304" width="40" height="40" fill="#b58863" data-sq="c3" class="board-cell"/><rect x="144" y="304" width="40" height="40" fill="#f0d9b5" data-sq="d3" class="board-cell"/><rect x="184" y="304" width="40" height="40" fill="#b58863" data-sq="e3" class="board-cell"/><rect x="224" y="304" width="40" height="40" fill="#f0d9b5" data-sq="f3" class="board-cell"/><rect x="264" y="304" width="40" height="40" fill="#b58863" data-sq="g3" class="board-cell"/><rect x="304" y="304" width="40" height="40" fill="#f0d9b5" data-sq="h3" class="board-cell"/><rect x="344" y="304" width="40" height="40" fill="#b58863" data-sq="i3" class="board-cell"/><rect x="384" y="304" width="40" height="40" fill="#f0d9b5" data-sq="j3" class="board-cell"/><rect x="24" y="344" width="40" height="40" fill="#f0d9b5" data-sq="a2" class="board-cell"/><rect x="64" y="344" width="40" height="40" fill="#b58863" data-sq="b2" class="board-cell"/><rect x="104" y="344" width="40" height="40" fill="#f0d9b5" data-sq="c2" class="board-cell"/><rect x="144" y="344" width="40" height="40" fill="#b58863" data-sq="d2" class="board-cell"/><rect x="184" y="344" width="40" height="40" fill="#f0d9b5" data-sq="e2" class="board-cell"/><rect x="224" y="344" width="40" height="40" fill="#b58863" data-sq="f2" class="board-cell"/><rect x="264" y="344" width="40" height="40" fill="#f0d9b5" data-sq="g2" class="board-cell"/><rect x="304" y="344" width="40" height="40" fill="#b58863" data-sq="h2" class="board-cell"/><rect x="344" y="344" width="40" height="40" fill="#f0d9b5" data-sq="i2" class="board-cell"/><rect x="384" y="344" width="40" height="40" fill="#b58863" data-sq="j2" class="board-cell"/><rect x="24" y="384" width="40" height="40" fill="#b58863" data-sq="a1" class="board-cell"/><rect x="64" y="384" width="40" height="40" fill="#f0d9b5" data-sq="b1" class="board-cell"/><rect x="104" y="384" width="40" height="40" fill="#b58863" data-sq="c1" class="board-cell"/><rect x="144" y="384" width="40" height="40" fill="#f0d9b5" data-sq="d1" class="board-cell"/><rect x="184" y="384" width="40" height="40" fill="#b58863" data-sq="e1" class="board-cell"/><rect x="224" y="384" width="40" height="40" fill="#f0d9b5" data-sq="f1" class="board-cell"/><rect x="264" y="384" width="40" height="40" fill="#b58863" data-sq="g1" class="board-cell"/><rect x="304" y="384" width="40" height="40" fill="#f0d9b5" data-sq="h1" class="board-cell"/><rect x="344" y="384" width="40" height="40" fill="#b58863" data-sq="i1" class="board-cell"/><rect x="384" y="384" width="40" height="40" fill="#f0d9b5" data-sq="j1" class="board-cell"/>
<g pointer-events="none"><use href="#piece-playstrategy-dameo-fabirovsky-bM" x="64" y="24" width="40" height="40"/><use href="#piece-playstrategy-dameo-fabirovsky-bM" x="144" y="24" width="40" height="40"/><use href="#piece-playstrategy-dameo-fabirovsky-bM" x="224" y="24" width="40" height="40"/><use href="#piece-playstrategy-dameo-fabirovsky-bM" x="304" y="24" width="40" height="40"/><use href="#piece-playstrategy-dameo-fabirovsky-bM" x="384" y="24" width="40" height="40"/><use href="#piece-playstrategy-dameo-fabirovsky-bM" x="24" y="64" width="40" height="40"/><use href="#piece-playstrategy-dameo-fabirovsky-bM" x="104" y="64" width="40" height="40"/><use href="#piece-playstrategy-dameo-fabirovsky-bM" x="184" y="64" width="40" height="40"/><use href="#piece-playstrategy-dameo-fabirovsky-bM" x="264" y="64" width="40" height="40"/><use href="#piece-playstrategy-dameo-fabirovsky-bM" x="344" y="64" width="40" height="40"/><use href="#piece-playstrategy-dameo-fabirovsky-bM" x="64" y="104" width="40" height="40"/><use href="#piece-playstrategy-dameo-fabirovsky-bM" x="144" y="104" width="40" height="40"/><use href="#piece-playstrategy-dameo-fabirovsky-bM" x="224" y="104" width="40" height="40"/><use href="#piece-playstrategy-dameo-fabirovsky-bM" x="304" y="104" width="40" height="40"/><use href="#piece-playstrategy-dameo-fabirovsky-bM" x="384" y="104" width="40" height="40"/><use href="#piece-playstrategy-dameo-fabirovsky-bM" x="24" y="144" width="40" height="40"/><use href="#piece-playstrategy-dameo-fabirovsky-bM" x="104" y="144" width="40" height="40"/><use href="#piece-playstrategy-dameo-fabirovsky-bM" x="184" y="144" width="40" height="40"/><use href="#piece-playstrategy-dameo-fabirovsky-bM" x="264" y="144" width="40" height="40"/><use href="#piece-playstrategy-dameo-fabirovsky-bM" x="344" y="144" width="40" height="40"/><use href="#piece-playstrategy-dameo-fabirovsky-wM" x="64" y="264" width="40" height="40"/><use href="#piece-playstrategy-dameo-fabirovsky-wM" x="144" y="264" width="40" height="40"/><use href="#piece-playstrategy-dameo-fabirovsky-wM" x="224" y="264" width="40" height="40"/><use href="#piece-playstrategy-dameo-fabirovsky-wM" x="304" y="264" width="40" height="40"/><use href="#piece-playstrategy-dameo-fabirovsky-wM" x="384" y="264" width="40" height="40"/><use href="#piece-playstrategy-dameo-fabirovsky-wM" x="24" y="304" width="40" height="40"/><use href="#piece-playstrategy-dameo-fabirovsky-wM" x="104" y="304" width="40" height="40"/><use href="#piece-playstrategy-dameo-fabirovsky-wM" x="184" y="304" width="40" height="40"/><use href="#piece-playstrategy-dameo-fabirovsky-wM" x="264" y="304" width="40" height="40"/><use href="#piece-playstrategy-dameo-fabirovsky-wM" x="344" y="304" width="40" height="40"/><use href="#piece-playstrategy-dameo-fabirovsky-wM" x="64" y="344" width="40" height="40"/><use href="#piece-playstrategy-dameo-fabirovsky-wM" x="144" y="344" width="40" height="40"/><use href="#piece-playstrategy-dameo-fabirovsky-wM" x="224" y="344" width="40" height="40"/><use href="#piece-playstrategy-dameo-fabirovsky-wM" x="304" y="344" width="40" height="40"/><use href="#piece-playstrategy-dameo-fabirovsky-wM" x="384" y="344" width="40" height="40"/><use href="#piece-playstrategy-dameo-fabirovsky-wM" x="24" y="384" width="40" height="40"/><use href="#piece-playstrategy-dameo-fabirovsky-wM" x="104" y="384" width="40" height="40"/><use href="#piece-playstrategy-dameo-fabirovsky-wM" x="184" y="384" width="40" height="40"/><use href="#piece-playstrategy-dameo-fabirovsky-wM" x="264" y="384" width="40" height="40"/><use href="#piece-playstrategy-dameo-fabirovsky-wM" x="344" y="384" width="40" height="40"/></g>
<text x="44" y="439.6" text-anchor="middle" font-size="13" fill="#5c3a1e" font-family="monospace">a</text><text x="84" y="439.6" text-anchor="middle" font-size="13" fill="#5c3a1e" font-family="monospace">b</text><text x="124" y="439.6" text-anchor="middle" font-size="13" fill="#5c3a1e" font-family="monospace">c</text><text x="164" y="439.6" text-anchor="middle" font-size="13" fill="#5c3a1e" font-family="monospace">d</text><text x="204" y="439.6" text-anchor="middle" font-size="13" fill="#5c3a1e" font-family="monospace">e</text><text x="244" y="439.6" text-anchor="middle" font-size="13" fill="#5c3a1e" font-family="monospace">f</text><text x="284" y="439.6" text-anchor="middle" font-size="13" fill="#5c3a1e" font-family="monospace">g</text><text x="324" y="439.6" text-anchor="middle" font-size="13" fill="#5c3a1e" font-family="monospace">h</text><text x="364" y="439.6" text-anchor="middle" font-size="13" fill="#5c3a1e" font-family="monospace">i</text><text x="404" y="439.6" text-anchor="middle" font-size="13" fill="#5c3a1e" font-family="monospace">j</text><text x="12" y="48.55" text-anchor="middle" font-size="13" fill="#5c3a1e" font-family="monospace">10</text><text x="12" y="88.55" text-anchor="middle" font-size="13" fill="#5c3a1e" font-family="monospace">9</text><text x="12" y="128.55" text-anchor="middle" font-size="13" fill="#5c3a1e" font-family="monospace">8</text><text x="12" y="168.55" text-anchor="middle" font-size="13" fill="#5c3a1e" font-family="monospace">7</text><text x="12" y="208.55" text-anchor="middle" font-size="13" fill="#5c3a1e" font-family="monospace">6</text><text x="12" y="248.55" text-anchor="middle" font-size="13" fill="#5c3a1e" font-family="monospace">5</text><text x="12" y="288.55" text-anchor="middle" font-size="13" fill="#5c3a1e" font-family="monospace">4</text><text x="12" y="328.55" text-anchor="middle" font-size="13" fill="#5c3a1e" font-family="monospace">3</text><text x="12" y="368.55" text-anchor="middle" font-size="13" fill="#5c3a1e" font-family="monospace">2</text><text x="12" y="408.55" text-anchor="middle" font-size="13" fill="#5c3a1e" font-family="monospace">1</text>
</svg>