<svg xmlns="http://www.w3.org/2000/svg" viewBox="0 0 360 360" width="360" height="360">
<rect x="0" y="0" width="360" height="360" fill="transparent"/><rect x="108" y="0" width="18" height="18" fill="#f0d080" stroke="#c08820" stroke-width="2" data-sq="g20" data-type="p1" class="board-cell"/><rect x="126" y="0" width="18" height="18" fill="#f0d080" stroke="#c08820" stroke-width="2" data-sq="h20" data-type="p1" class="board-cell"/><rect x="144" y="0" width="18" height="18" fill="#f0d080" stroke="#c08820" stroke-width="2" data-sq="i20" data-type="p1" class="board-cell"/><rect x="162" y="0" width="18" height="18" fill="#f0d080" stroke="#c08820" stroke-width="2" data-sq="j20" data-type="p1" class="board-cell"/><rect x="180" y="0" width="18" height="18" fill="#f0d080" stroke="#c08820" stroke-width="2" data-sq="k20" data-type="p1" class="board-cell"/><rect x="198" y="0" width="18" height="18" fill="#f0d080" stroke="#c08820" stroke-width="2" data-sq="l20" data-type="p1" class="board-cell"/><rect x="216" y="0" width="18" height="18" fill="#f0d080" stroke="#c08820" stroke-width="2" data-sq="m20" data-type="p1" class="board-cell"/><rect x="234" y="0" width="18" height="18" fill="#f0d080" stroke="#c08820" stroke-width="2" data-sq="n20" data-type="p1" class="board-cell"/><rect x="108" y="18" width="18" height="18" fill="#f0d080" stroke="#c08820" stroke-width="2" data-sq="g19" data-type="p1" class="board-cell"/><rect x="126" y="18" width="18" height="18" fill="#f0d080" stroke="#c08820" stroke-width="2" data-sq="h19" data-type="p1" class="board-cell"/><rect x="144" y="18" width="18" height="18" fill="#f0d080" stroke="#c08820" stroke-width="2" data-sq="i19" data-type="p1" class="board-cell"/><rect x="162" y="18" width="18" height="18" fill="#f0d080" stroke="#c08820" stroke-width="2" data-sq="j19" data-type="p1" class="board-cell"/><rect x="180" y="18" width="18" height="18" fill="#f0d080" stroke="#c08820" stroke-width="2" data-sq="k19" data-type="p1" class="board-cell"/><rect x="198" y="18" width="18" height="18" fill="#f0d080" stroke="#c08820" stroke-width="2" data-sq="l19" data-type="p1" class="board-cell"/><rect x="216" y="18" width="18" height="18" fill="#f0d080" stroke="#c08820" stroke-width="2" data-sq="m19" data-type="p1" class="board-cell"/><rect x="234" y="18" width="18" height="18" fill="#f0d080" stroke="#c08820" stroke-width="2" data-sq="n19" data-type="p1" class="board-cell"/><rect x="108" y="36" width="18" height="18" fill="#d4c4a8" stroke="#2a2a2a" stroke-width="2" data-sq="g18" data-type="floor" class="board-cell"/><rect x="126" y="36" width="18" height="18" fill="#d4c4a8" stroke="#2a2a2a" stroke-width="2" data-sq="h18" data-type="floor" class="board-cell"/><rect x="144" y="36" width="18" height="18" fill="#d4c4a8" stroke="#2a2a2a" stroke-width="2" data-sq="i18" data-type="floor" class="board-cell"/><rect x="162" y="36" width="18" height="18" fill="#d4c4a8" stroke="#2a2a2a" stroke-width="2" data-sq="j18" data-type="floor" class="board-cell"/><rect x="180" y="36" width="18" height="18" fill="#d4c4a8" stroke="#2a2a2a" stroke-width="2" data-sq="k18" data-type="floor" class="board-cell"/><rect x="198" y="36" width="18" height="18" fill="#d4c4a8" stroke="#2a2a2a" stroke-width="2" data-sq="l18" data-type="floor" class="board-cell"/><rect x="216" y="36" width="18" height="18" fill="#d4c4a8" stroke="#2a2a2a" stroke-width="2" data-sq="m18" data-type="floor" class="board-cell"/><rect x="234" y="36" width="18" height="18" fill="#d4c4a8" stroke="#2a2a2a" stroke-width="2" data-sq="n18" data-type="floor" class="board-cell"/><rect x="162" y="54" width="18" height="18" fill="#d4c4a8" stroke="#2a2a2a" stroke-width="2" data-sq="j17" data-type="floor" class="board-cell"/><rect x="180" y="54" width="18" height="18" fill="#d4c4a8" stroke="#2a2a2a" stroke-width="2" data-sq="k17" data-type="floor" class="board-cell"/><rect x="162" y="72" width="18" height="18" fill="#d4c4a8" stroke="#2a2a2a" stroke-width="2" data-sq="j16" data-type="floor" class="board-cell"/><rect x="180" y="72" width="18" height="18" fill="#d4c4a8" stroke="#2a2a2a" stroke-width="2" data-sq="k16" data-type="floor" class="board-cell"/><rect x="162" y="90" width="18" height="18" fill="#d4c4a8" stroke="#2a2a2a" stroke-width="2" data-sq="j15" data-type="floor" class="board-cell"/><rect x="180" y="90" width="18" height="18" fill="#d4c4a8" stroke="#2a2a2a" stroke-width="2" data-sq="k15" data-type="floor" class="board-cell"/><rect x="0" y="108" width="18" height="18" fill="#f0d080" stroke="#c08820" stroke-width="2" data-sq="a14" data-type="p1" class="board-cell"/><rect x="18" y="108" width="18" height="18" fill="#f0d080" stroke="#c08820" stroke-width="2" data-sq="b14" data-type="p1" class="board-cell"/><rect x="36" y="108" width="18" height="18" fill="#d4c4a8" stroke="#2a2a2a" stroke-width="2" data-sq="c14" data-type="floor" class="board-cell"/><rect x="108" y="108" width="18" height="18" fill="#d4c4a8" stroke="#2a2a2a" stroke-width="2" data-sq="g14" data-type="floor" class="board-cell"/><rect x="126" y="108" width="18" height="18" fill="#d4c4a8" stroke="#2a2a2a" stroke-width="2" data-sq="h14" data-type="floor" class="board-cell"/><rect x="144" y="108" width="18" height="18" fill="#d4c4a8" stroke="#2a2a2a" stroke-width="2" data-sq="i14" data-type="floor" class="board-cell"/><rect x="162" y="108" width="18" height="18" fill="#d4c4a8" stroke="#2a2a2a" stroke-width="2" data-sq="j14" data-type="floor" class="board-cell"/><rect x="180" y="108" width="18" height="18" fill="#d4c4a8" stroke="#2a2a2a" stroke-width="2" data-sq="k14" data-type="floor" class="board-cell"/><rect x="198" y="108" width="18" height="18" fill="#d4c4a8" stroke="#2a2a2a" stroke-width="2" data-sq="l14" data-type="floor" class="board-cell"/><rect x="216" y="108" width="18" height="18" fill="#d4c4a8" stroke="#2a2a2a" stroke-width="2" data-sq="m14" data-type="floor" class="board-cell"/><rect x="234" y="108" width="18" height="18" fill="#d4c4a8" stroke="#2a2a2a" stroke-width="2" data-sq="n14" data-type="floor" class="board-cell"/><rect x="306" y="108" width="18" height="18" fill="#d4c4a8" stroke="#2a2a2a" stroke-width="2" data-sq="r14" data-type="floor" class="board-cell"/><rect x="324" y="108" width="18" height="18" fill="#f0d080" stroke="#c08820" stroke-width="2" data-sq="s14" data-type="p1" class="board-cell"/><rect x="342" y="108" width="18" height="18" fill="#f0d080" stroke="#c08820" stroke-width="2" data-sq="t14" data-type="p1" class="board-cell"/><rect x="0" y="126" width="18" height="18" fill="#f0d080" stroke="#c08820" stroke-width="2" data-sq="a13" data-type="p1" class="board-cell"/><rect x="18" y="126" width="18" height="18" fill="#f0d080" stroke="#c08820" stroke-width="2" data-sq="b13" data-type="p1" class="board-cell"/><rect x="36" y="126" width="18" height="18" fill="#d4c4a8" stroke="#2a2a2a" stroke-width="2" data-sq="c13" data-type="floor" class="board-cell"/><rect x="108" y="126" width="18" height="18" fill="#d4c4a8" stroke="#2a2a2a" stroke-width="2" data-sq="g13" data-type="floor" class="board-cell"/><rect x="126" y="126" width="18" height="18" fill="#d4c4a8" stroke="#2a2a2a" stroke-width="2" data-sq="h13" data-type="floor" class="board-cell"/><rect x="144" y="126" width="18" height="18" fill="#d4c4a8" stroke="#2a2a2a" stroke-width="2" data-sq="i13" data-type="floor" class="board-cell"/><rect x="162" y="126" width="18" height="18" fill="#d4c4a8" stroke="#2a2a2a" stroke-width="2" data-sq="j13" data-type="floor" class="board-cell"/><rect x="180" y="126" width="18" height="18" fill="#d4c4a8" stroke="#2a2a2a" stroke-width="2" data-sq="k13" data-type="floor" class="board-cell"/><rect x="198" y="126" width="18" height="18" fill="#d4c4a8" stroke="#2a2a2a" stroke-width="2" data-sq="l13" data-type="floor" class="board-cell"/><rect x="216" y="126" width="18" height="18" fill="#d4c4a8" stroke="#2a2a2a" stroke-width="2" data-sq="m13" data-type="floor" class="board-cell"/><rect x="234" y="126" width="18" height="18" fill="#d4c4a8" stroke="#2a2a2a" stroke-width="2" data-sq="n13" data-type="floor" class="board-cell"/><rect x="306" y="126" width="18" height="18" fill="#d4c4a8" stroke="#2a2a2a" stroke-width="2" data-sq="r13" data-type="floor" class="board-cell"/><rect x="324" y="126" width="18" height="18" fill="#f0d080" stroke="#c08820" stroke-width="2" data-sq="s13" data-type="p1" class="board-cell"/><rect x="342" y="126" width="18" height="18" fill="#f0d080" stroke="#c08820" stroke-width="2" data-sq="t13" data-type="p1" class="board-cell"/><rect x="0" y="144" width="18" height="18" fill="#f0d080" stroke="#c08820" stroke-width="2" data-sq="a12" data-type="p1" class="board-cell"/><rect x="18" y="144" width="18" height="18" fill="#f0d080" stroke="#c08820" stroke-width="2" data-sq="b12" data-type="p1" class="board-cell"/><rect x="36" y="144" width="18" height="18" fill="#d4c4a8" stroke="#2a2a2a" stroke-width="2" data-sq="c12" data-type="floor" class="board-cell"/><rect x="108" y="144" width="18" height="18" fill="#d4c4a8" stroke="#2a2a2a" stroke-width="2" data-sq="g12" data-type="floor" class="board-cell"/><rect x="126" y="144" width="18" height="18" fill="#d4c4a8" stroke="#2a2a2a" stroke-width="2" data-sq="h12" data-type="floor" class="board-cell"/><rect x="144" y="144" width="18" height="18" fill="#4a90c8" stroke="#2a2a2a" stroke-width="2" data-sq="i12" data-type="water" class="board-cell"/><rect x="162" y="144" width="18" height="18" fill="#4a90c8" stroke="#2a2a2a" stroke-width="2" data-sq="j12" data-type="water" class="board-cell"/><rect x="180" y="144" width="18" height="18" fill="#4a90c8" stroke="#2a2a2a" stroke-width="2" data-sq="k12" data-type="water" class="board-cell"/><rect x="198" y="144" width="18" height="18" fill="#4a90c8" stroke="#2a2a2a" stroke-width="2" data-sq="l12" data-type="water" class="board-cell"/><rect x="216" y="144" width="18" height="18" fill="#d4c4a8" stroke="#2a2a2a" stroke-width="2" data-sq="m12" data-type="floor" class="board-cell"/><rect x="234" y="144" width="18" height="18" fill="#d4c4a8" stroke="#2a2a2a" stroke-width="2" data-sq="n12" data-type="floor" class="board-cell"/><rect x="306" y="144" width="18" height="18" fill="#d4c4a8" stroke="#2a2a2a" stroke-width="2" data-sq="r12" data-type="floor" class="board-cell"/><rect x="324" y="144" width="18" height="18" fill="#f0d080" stroke="#c08820" stroke-width="2" data-sq="s12" data-type="p1" class="board-cell"/><rect x="342" y="144" width="18" height="18" fill="#f0d080" stroke="#c08820" stroke-width="2" data-sq="t12" data-type="p1" class="board-cell"/><rect x="0" y="162" width="18" height="18" fill="#f0d080" stroke="#c08820" stroke-width="2" data-sq="a11" data-type="p1" class="board-cell"/><rect x="18" y="162" width="18" height="18" fill="#f0d080" stroke="#c08820" stroke-width="2" data-sq="b11" data-type="p1" class="board-cell"/><rect x="36" y="162" width="18" height="18" fill="#d4c4a8" stroke="#2a2a2a" stroke-width="2" data-sq="c11" data-type="floor" class="board-cell"/><rect x="54" y="162" width="18" height="18" fill="#d4c4a8" stroke="#2a2a2a" stroke-width="2" data-sq="d11" data-type="floor" class="board-cell"/><rect x="72" y="162" width="18" height="18" fill="#d4c4a8" stroke="#2a2a2a" stroke-width="2" data-sq="e11" data-type="floor" class="board-cell"/><rect x="90" y="162" width="18" height="18" fill="#d4c4a8" stroke="#2a2a2a" stroke-width="2" data-sq="f11" data-type="floor" class="board-cell"/><rect x="108" y="162" width="18" height="18" fill="#d4c4a8" stroke="#2a2a2a" stroke-width="2" data-sq="g11" data-type="floor" class="board-cell"/><rect x="126" y="162" width="18" height="18" fill="#d4c4a8" stroke="#2a2a2a" stroke-width="2" data-sq="h11" data-type="floor" class="board-cell"/><rect x="144" y="162" width="18" height="18" fill="#4a90c8" stroke="#2a2a2a" stroke-width="2" data-sq="i11" data-type="water" class="board-cell"/><rect x="162" y="162" width="18" height="18" fill="#4a90c8" stroke="#2a2a2a" stroke-width="2" data-sq="j11" data-type="water" class="board-cell"/><rect x="180" y="162" width="18" height="18" fill="#4a90c8" stroke="#2a2a2a" stroke-width="2" data-sq="k11" data-type="water" class="board-cell"/><rect x="198" y="162" width="18" height="18" fill="#4a90c8" stroke="#2a2a2a" stroke-width="2" data-sq="l11" data-type="water" class="board-cell"/><rect x="216" y="162" width="18" height="18" fill="#d4c4a8" stroke="#2a2a2a" stroke-width="2" data-sq="m11" data-type="floor" class="board-cell"/><rect x="234" y="162" width="18" height="18" fill="#d4c4a8" stroke="#2a2a2a" stroke-width="2" data-sq="n11" data-type="floor" class="board-cell"/><rect x="252" y="162" width="18" height="18" fill="#d4c4a8" stroke="#2a2a2a" stroke-width="2" data-sq="o11" data-type="floor" class="board-cell"/><rect x="270" y="162" width="18" height="18" fill="#d4c4a8" stroke="#2a2a2a" stroke-width="2" data-sq="p11" data-type="floor" class="board-cell"/><rect x="288" y="162" width="18" height="18" fill="#d4c4a8" stroke="#2a2a2a" stroke-width="2" data-sq="q11" data-type="floor" class="board-cell"/><rect x="306" y="162" width="18" height="18" fill="#d4c4a8" stroke="#2a2a2a" stroke-width="2" data-sq="r11" data-type="floor" class="board-cell"/><rect x="324" y="162" width="18" height="18" fill="#f0d080" stroke="#c08820" stroke-width="2" data-sq="s11" data-type="p1" class="board-cell"/><rect x="342" y="162" width="18" height="18" fill="#f0d080" stroke="#c08820" stroke-width="2" data-sq="t11" data-type="p1" class="board-cell"/><rect x="0" y="180" width="18" height="18" fill="#f0d080" stroke="#c08820" stroke-width="2" data-sq="a10" data-type="p1" class="board-cell"/><rect x="18" y="180" width="18" height="18" fill="#f0d080" stroke="#c08820" stroke-width="2" data-sq="b10" data-type="p1" class="board-cell"/><rect x="36" y="180" width="18" height="18" fill="#d4c4a8" stroke="#2a2a2a" stroke-width="2" data-sq="c10" data-type="floor" class="board-cell"/><rect x="54" y="180" width="18" height="18" fill="#d4c4a8" stroke="#2a2a2a" stroke-width="2" data-sq="d10" data-type="floor" class="board-cell"/><rect x="72" y="180" width="18" height="18" fill="#d4c4a8" stroke="#2a2a2a" stroke-width="2" data-sq="e10" data-type="floor" class="board-cell"/><rect x="90" y="180" width="18" height="18" fill="#d4c4a8" stroke="#2a2a2a" stroke-width="2" data-sq="f10" data-type="floor" class="board-cell"/><rect x="108" y="180" width="18" height="18" fill="#d4c4a8" stroke="#2a2a2a" stroke-width="2" data-sq="g10" data-type="floor" class="board-cell"/><rect x="126" y="180" width="18" height="18" fill="#d4c4a8" stroke="#2a2a2a" stroke-width="2" data-sq="h10" data-type="floor" class="board-cell"/><rect x="144" y="180" width="18" height="18" fill="#4a90c8" stroke="#2a2a2a" stroke-width="2" data-sq="i10" data-type="water" class="board-cell"/><rect x="162" y="180" width="18" height="18" fill="#4a90c8" stroke="#2a2a2a" stroke-width="2" data-sq="j10" data-type="water" class="board-cell"/><rect x="180" y="180" width="18" height="18" fill="#4a90c8" stroke="#2a2a2a" stroke-width="2" data-sq="k10" data-type="water" class="board-cell"/><rect x="198" y="180" width="18" height="18" fill="#4a90c8" stroke="#2a2a2a" stroke-width="2" data-sq="l10" data-type="water" class="board-cell"/><rect x="216" y="180" width="18" height="18" fill="#d4c4a8" stroke="#2a2a2a" stroke-width="2" data-sq="m10" data-type="floor" class="board-cell"/><rect x="234" y="180" width="18" height="18" fill="#d4c4a8" stroke="#2a2a2a" stroke-width="2" data-sq="n10" data-type="floor" class="board-cell"/><rect x="252" y="180" width="18" height="18" fill="#d4c4a8" stroke="#2a2a2a" stroke-width="2" data-sq="o10" data-type="floor" class="board-cell"/><rect x="270" y="180" width="18" height="18" fill="#d4c4a8" stroke="#2a2a2a" stroke-width="2" data-sq="p10" data-type="floor" class="board-cell"/><rect x="288" y="180" width="18" height="18" fill="#d4c4a8" stroke="#2a2a2a" stroke-width="2" data-sq="q10" data-type="floor" class="board-cell"/><rect x="306" y="180" width="18" height="18" fill="#d4c4a8" stroke="#2a2a2a" stroke-width="2" data-sq="r10" data-type="floor" class="board-cell"/><rect x="324" y="180" width="18" height="18" fill="#f0d080" stroke="#c08820" stroke-width="2" data-sq="s10" data-type="p1" class="board-cell"/><rect x="342" y="180" width="18" height="18" fill="#f0d080" stroke="#c08820" stroke-width="2" data-sq="t10" data-type="p1" class="board-cell"/><rect x="0" y="198" width="18" height="18" fill="#f0d080" stroke="#c08820" stroke-width="2" data-sq="a9" data-type="p1" class="board-cell"/><rect x="18" y="198" width="18" height="18" fill="#f0d080" stroke="#c08820" stroke-width="2" data-sq="b9" data-type="p1" class="board-cell"/><rect x="36" y="198" width="18" height="18" fill="#d4c4a8" stroke="#2a2a2a" stroke-width="2" data-sq="c9" data-type="floor" class="board-cell"/><rect x="108" y="198" width="18" height="18" fill="#d4c4a8" stroke="#2a2a2a" stroke-width="2" data-sq="g9" data-type="floor" class="board-cell"/><rect x="126" y="198" width="18" height="18" fill="#d4c4a8" stroke="#2a2a2a" stroke-width="2" data-sq="h9" data-type="floor" class="board-cell"/><rect x="144" y="198" width="18" height="18" fill="#4a90c8" stroke="#2a2a2a" stroke-width="2" data-sq="i9" data-type="water" class="board-cell"/><rect x="162" y="198" width="18" height="18" fill="#4a90c8" stroke="#2a2a2a" stroke-width="2" data-sq="j9" data-type="water" class="board-cell"/><rect x="180" y="198" width="18" height="18" fill="#4a90c8" stroke="#2a2a2a" stroke-width="2" data-sq="k9" data-type="water" class="board-cell"/><rect x="198" y="198" width="18" height="18" fill="#4a90c8" stroke="#2a2a2a" stroke-width="2" data-sq="l9" data-type="water" class="board-cell"/><rect x="216" y="198" width="18" height="18" fill="#d4c4a8" stroke="#2a2a2a" stroke-width="2" data-sq="m9" data-type="floor" class="board-cell"/><rect x="234" y="198" width="18" height="18" fill="#d4c4a8" stroke="#2a2a2a" stroke-width="2" data-sq="n9" data-type="floor" class="board-cell"/><rect x="306" y="198" width="18" height="18" fill="#d4c4a8" stroke="#2a2a2a" stroke-width="2" data-sq="r9" data-type="floor" class="board-cell"/><rect x="324" y="198" width="18" height="18" fill="#f0d080" stroke="#c08820" stroke-width="2" data-sq="s9" data-type="p1" class="board-cell"/><rect x="342" y="198" width="18" height="18" fill="#f0d080" stroke="#c08820" stroke-width="2" data-sq="t9" data-type="p1" class="board-cell"/><rect x="0" y="216" width="18" height="18" fill="#f0d080" stroke="#c08820" stroke-width="2" data-sq="a8" data-type="p1" class="board-cell"/><rect x="18" y="216" width="18" height="18" fill="#f0d080" stroke="#c08820" stroke-width="2" data-sq="b8" data-type="p1" class="board-cell"/><rect x="36" y="216" width="18" height="18" fill="#d4c4a8" stroke="#2a2a2a" stroke-width="2" data-sq="c8" data-type="floor" class="board-cell"/><rect x="108" y="216" width="18" height="18" fill="#d4c4a8" stroke="#2a2a2a" stroke-width="2" data-sq="g8" data-type="floor" class="board-cell"/><rect x="126" y="216" width="18" height="18" fill="#d4c4a8" stroke="#2a2a2a" stroke-width="2" data-sq="h8" data-type="floor" class="board-cell"/><rect x="144" y="216" width="18" height="18" fill="#d4c4a8" stroke="#2a2a2a" stroke-width="2" data-sq="i8" data-type="floor" class="board-cell"/><rect x="162" y="216" width="18" height="18" fill="#d4c4a8" stroke="#2a2a2a" stroke-width="2" data-sq="j8" data-type="floor" class="board-cell"/><rect x="180" y="216" width="18" height="18" fill="#d4c4a8" stroke="#2a2a2a" stroke-width="2" data-sq="k8" data-type="floor" class="board-cell"/><rect x="198" y="216" width="18" height="18" fill="#d4c4a8" stroke="#2a2a2a" stroke-width="2" data-sq="l8" data-type="floor" class="board-cell"/><rect x="216" y="216" width="18" height="18" fill="#d4c4a8" stroke="#2a2a2a" stroke-width="2" data-sq="m8" data-type="floor" class="board-cell"/><rect x="234" y="216" width="18" height="18" fill="#d4c4a8" stroke="#2a2a2a" stroke-width="2" data-sq="n8" data-type="floor" class="board-cell"/><rect x="306" y="216" width="18" height="18" fill="#d4c4a8" stroke="#2a2a2a" stroke-width="2" data-sq="r8" data-type="floor" class="board-cell"/><rect x="324" y="216" width="18" height="18" fill="#f0d080" stroke="#c08820" stroke-width="2" data-sq="s8" data-type="p1" class="board-cell"/><rect x="342" y="216" width="18" height="18" fill="#f0d080" stroke="#c08820" stroke-width="2" data-sq="t8" data-type="p1" class="board-cell"/><rect x="0" y="234" width="18" height="18" fill="#f0d080" stroke="#c08820" stroke-width="2" data-sq="a7" data-type="p1" class="board-cell"/><rect x="18" y="234" width="18" height="18" fill="#f0d080" stroke="#c08820" stroke-width="2" data-sq="b7" data-type="p1" class="board-cell"/><rect x="36" y="234" width="18" height="18" fill="#d4c4a8" stroke="#2a2a2a" stroke-width="2" data-sq="c7" data-type="floor" class="board-cell"/><rect x="108" y="234" width="18" height="18" fill="#d4c4a8" stroke="#2a2a2a" stroke-width="2" data-sq="g7" data-type="floor" class="board-cell"/><rect x="126" y="234" width="18" height="18" fill="#d4c4a8" stroke="#2a2a2a" stroke-width="2" data-sq="h7" data-type="floor" class="board-cell"/><rect x="144" y="234" width="18" height="18" fill="#d4c4a8" stroke="#2a2a2a" stroke-width="2" data-sq="i7" data-type="floor" class="board-cell"/><rect x="162" y="234" width="18" height="18" fill="#d4c4a8" stroke="#2a2a2a" stroke-width="2" data-sq="j7" data-type="floor" class="board-cell"/><rect x="180" y="234" width="18" height="18" fill="#d4c4a8" stroke="#2a2a2a" stroke-width="2" data-sq="k7" data-type="floor" class="board-cell"/><rect x="198" y="234" width="18" height="18" fill="#d4c4a8" stroke="#2a2a2a" stroke-width="2" data-sq="l7" data-type="floor" class="board-cell"/><rect x="216" y="234" width="18" height="18" fill="#d4c4a8" stroke="#2a2a2a" stroke-width="2" data-sq="m7" data-type="floor" class="board-cell"/><rect x="234" y="234" width="18" height="18" fill="#d4c4a8" stroke="#2a2a2a" stroke-width="2" data-sq="n7" data-type="floor" class="board-cell"/><rect x="306" y="234" width="18" height="18" fill="#d4c4a8" stroke="#2a2a2a" stroke-width="2" data-sq="r7" data-type="floor" class="board-cell"/><rect x="324" y="234" width="18" height="18" fill="#f0d080" stroke="#c08820" stroke-width="2" data-sq="s7" data-type="p1" class="board-cell"/><rect x="342" y="234" width="18" height="18" fill="#f0d080" stroke="#c08820" stroke-width="2" data-sq="t7" data-type="p1" class="board-cell"/><rect x="162" y="252" width="18" height="18" fill="#d4c4a8" stroke="#2a2a2a" stroke-width="2" data-sq="j6" data-type="floor" class="board-cell"/><rect x="180" y="252" width="18" height="18" fill="#d4c4a8" stroke="#2a2a2a" stroke-width="2" data-sq="k6" data-type="floor" class="board-cell"/><rect x="162" y="270" width="18" height="18" fill="#d4c4a8" stroke="#2a2a2a" stroke-width="2" data-sq="j5" data-type="floor" class="board-cell"/><rect x="180" y="270" width="18" height="18" fill="#d4c4a8" stroke="#2a2a2a" stroke-width="2" data-sq="k5" data-type="floor" class="board-cell"/><rect x="162" y="288" width="18" height="18" fill="#d4c4a8" stroke="#2a2a2a" stroke-width="2" data-sq="j4" data-type="floor" class="board-cell"/><rect x="180" y="288" width="18" height="18" fill="#d4c4a8" stroke="#2a2a2a" stroke-width="2" data-sq="k4" data-type="floor" class="board-cell"/><rect x="108" y="306" width="18" height="18" fill="#d4c4a8" stroke="#2a2a2a" stroke-width="2" data-sq="g3" data-type="floor" class="board-cell"/><rect x="126" y="306" width="18" height="18" fill="#d4c4a8" stroke="#2a2a2a" stroke-width="2" data-sq="h3" data-type="floor" class="board-cell"/><rect x="144" y="306" width="18" height="18" fill="#d4c4a8" stroke="#2a2a2a" stroke-width="2" data-sq="i3" data-type="floor" class="board-cell"/><rect x="162" y="306" width="18" height="18" fill="#d4c4a8" stroke="#2a2a2a" stroke-width="2" data-sq="j3" data-type="floor" class="board-cell"/><rect x="180" y="306" width="18" height="18" fill="#d4c4a8" stroke="#2a2a2a" stroke-width="2" data-sq="k3" data-type="floor" class="board-cell"/><rect x="198" y="306" width="18" height="18" fill="#d4c4a8" stroke="#2a2a2a" stroke-width="2" data-sq="l3" data-type="floor" class="board-cell"/><rect x="216" y="306" width="18" height="18" fill="#d4c4a8" stroke="#2a2a2a" stroke-width="2" data-sq="m3" data-type="floor" class="board-cell"/><rect x="234" y="306" width="18" height="18" fill="#d4c4a8" stroke="#2a2a2a" stroke-width="2" data-sq="n3" data-type="floor" class="board-cell"/><rect x="108" y="324" width="18" height="18" fill="#f0d080" stroke="#c08820" stroke-width="2" data-sq="g2" data-type="p1" class="board-cell"/><rect x="126" y="324" width="18" height="18" fill="#f0d080" stroke="#c08820" stroke-width="2" data-sq="h2" data-type="p1" class="board-cell"/><rect x="144" y="324" width="18" height="18" fill="#f0d080" stroke="#c08820" stroke-width="2" data-sq="i2" data-type="p1" class="board-cell"/><rect x="162" y="324" width="18" height="18" fill="#f0d080" stroke="#c08820" stroke-width="2" data-sq="j2" data-type="p1" class="board-cell"/><rect x="180" y="324" width="18" height="18" fill="#f0d080" stroke="#c08820" stroke-width="2" data-sq="k2" data-type="p1" class="board-cell"/><rect x="198" y="324" width="18" height="18" fill="#f0d080" stroke="#c08820" stroke-width="2" data-sq="l2" data-type="p1" class="board-cell"/><rect x="216" y="324" width="18" height="18" fill="#f0d080" stroke="#c08820" stroke-width="2" data-sq="m2" data-type="p1" class="board-cell"/><rect x="234" y="324" width="18" height="18" fill="#f0d080" stroke="#c08820" stroke-width="2" data-sq="n2" data-type="p1" class="board-cell"/><rect x="108" y="342" width="18" height="18" fill="#f0d080" stroke="#c08820" stroke-width="2" data-sq="g1" data-type="p1" class="board-cell"/><rect x="126" y="342" width="18" height="18" fill="#f0d080" stroke="#c08820" stroke-width="2" data-sq="h1" data-type="p1" class="board-cell"/><rect x="144" y="342" width="18" height="18" fill="#f0d080" stroke="#c08820" stroke-width="2" data-sq="i1" data-type="p1" class="board-cell"/><rect x="162" y="342" width="18" height="18" fill="#f0d080" stroke="#c08820" stroke-width="2" data-sq="j1" data-type="p1" class="board-cell"/><rect x="180" y="342" width="18" height="18" fill="#f0d080" stroke="#c08820" stroke-width="2" data-sq="k1" data-type="p1" class="board-cell"/><rect x="198" y="342" width="18" height="18" fill="#f0d080" stroke="#c08820" stroke-width="2" data-sq="l1" data-type="p1" class="board-cell"/><rect x="216" y="342" width="18" height="18" fill="#f0d080" stroke="#c08820" stroke-width="2" data-sq="m1" data-type="p1" class="board-cell"/><rect x="234" y="342" width="18" height="18" fill="#f0d080" stroke="#c08820" stroke-width="2" data-sq="n1" data-type="p1" class="board-cell"/>
</svg>