<svg xmlns="http://www.w3.org/2000/svg" viewBox="0 0 1324 1024" width="1324" height="1024">
<rect x="0" y="0" width="1324" height="1024" fill="#1b5e3a" rx="16"/><rect x="20" y="20" width="1284" height="984" fill="#2d7a4f" rx="12" stroke="#1a4a2e" stroke-width="2"/><g class="hand" data-zone="Player 1 — 8 cards (visible)"><g data-card="July — Plain 1"><image href="../pieces/sets/hanafuda-traditional/Hanafuda_July_Kasu_1_Alt.svg" x="472" y="50" width="44" height="64" preserveAspectRatio="xMidYMid meet"/></g><g data-card="January — Plain 2"><image href="../pieces/sets/hanafuda-traditional/Hanafuda_January_Kasu_2_Alt.svg" x="520" y="50" width="44" height="64" preserveAspectRatio="xMidYMid meet"/></g><g data-card="June — Plain 1"><image href="../pieces/sets/hanafuda-traditional/Hanafuda_June_Kasu_1_Alt.svg" x="568" y="50" width="44" height="64" preserveAspectRatio="xMidYMid meet"/></g><g data-card="May — Plain 1"><image href="../pieces/sets/hanafuda-traditional/Hanafuda_May_Kasu_1_Alt.svg" x="616" y="50" width="44" height="64" preserveAspectRatio="xMidYMid meet"/></g><g data-card="February — Poetry Ribbon"><image href="../pieces/sets/hanafuda-traditional/Hanafuda_February_Tanzaku_Alt.svg" x="664" y="50" width="44" height="64" preserveAspectRatio="xMidYMid meet"/></g><g data-card="September — Sake Cup"><image href="../pieces/sets/hanafuda-traditional/Hanafuda_September_Tane_Alt.svg" x="712" y="50" width="44" height="64" preserveAspectRatio="xMidYMid meet"/></g><g data-card="June — Blue Ribbon"><image href="../pieces/sets/hanafuda-traditional/Hanafuda_June_Tanzaku_Alt.svg" x="760" y="50" width="44" height="64" preserveAspectRatio="xMidYMid meet"/></g><g data-card="September — Blue Ribbon"><image href="../pieces/sets/hanafuda-traditional/Hanafuda_September_Tanzaku_Alt.svg" x="808" y="50" width="44" height="64" preserveAspectRatio="xMidYMid meet"/></g></g><text x="662" y="44" text-anchor="middle" font-size="11" fill="rgba(255,255,255,0.6)" font-family="system-ui">Player 1 (8)</text><g class="hand" data-zone="Player 2 — 8 cards (hidden)"><rect x="472" y="910" width="44" height="64" fill="#2a3a6a" rx="3" stroke="#1a2a4a" stroke-width="1" data-card="Face down"/><rect x="520" y="910" width="44" height="64" fill="#2a3a6a" rx="3" stroke="#1a2a4a" stroke-width="1" data-card="Face down"/><rect x="568" y="910" width="44" height="64" fill="#2a3a6a" rx="3" stroke="#1a2a4a" stroke-width="1" data-card="Face down"/><rect x="616" y="910" width="44" height="64" fill="#2a3a6a" rx="3" stroke="#1a2a4a" stroke-width="1" data-card="Face down"/><rect x="664" y="910" width="44" height="64" fill="#2a3a6a" rx="3" stroke="#1a2a4a" stroke-width="1" data-card="Face down"/><rect x="712" y="910" width="44" height="64" fill="#2a3a6a" rx="3" stroke="#1a2a4a" stroke-width="1" data-card="Face down"/><rect x="760" y="910" width="44" height="64" fill="#2a3a6a" rx="3" stroke="#1a2a4a" stroke-width="1" data-card="Face down"/><rect x="808" y="910" width="44" height="64" fill="#2a3a6a" rx="3" stroke="#1a2a4a" stroke-width="1" data-card="Face down"/></g><text x="662" y="988" text-anchor="middle" font-size="11" fill="rgba(255,255,255,0.6)" font-family="system-ui">Player 2 (8)</text><g class="community" data-zone="Community / Field — 8 cards (face up)"><g data-card="February — Plain 2"><image href="../pieces/sets/hanafuda-traditional/Hanafuda_February_Kasu_2_Alt.svg" x="498" y="480" width="44" height="64" preserveAspectRatio="xMidYMid meet"/></g><g data-card="September — Plain 1"><image href="../pieces/sets/hanafuda-traditional/Hanafuda_September_Kasu_1_Alt.svg" x="546" y="480" width="44" height="64" preserveAspectRatio="xMidYMid meet"/></g><g data-card="July — Plain 2"><image href="../pieces/sets/hanafuda-traditional/Hanafuda_July_Kasu_2_Alt.svg" x="594" y="480" width="44" height="64" preserveAspectRatio="xMidYMid meet"/></g><g data-card="August — Plain 1"><image href="../pieces/sets/hanafuda-traditional/Hanafuda_August_Kasu_1_Alt.svg" x="642" y="480" width="44" height="64" preserveAspectRatio="xMidYMid meet"/></g><g data-card="January — Poetry Ribbon"><image href="../pieces/sets/hanafuda-traditional/Hanafuda_January_Tanzaku_Alt.svg" x="690" y="480" width="44" height="64" preserveAspectRatio="xMidYMid meet"/></g><g data-card="April — Red Ribbon"><image href="../pieces/sets/hanafuda-traditional/Hanafuda_April_Tanzaku_Alt.svg" x="738" y="480" width="44" height="64" preserveAspectRatio="xMidYMid meet"/></g><g data-card="October — Plain 2"><image href="../pieces/sets/hanafuda-traditional/Hanafuda_October_Kasu_2_Alt.svg" x="786" y="480" width="44" height="64" preserveAspectRatio="xMidYMid meet"/></g><g data-card="April — Plain 1"><image href="../pieces/sets/hanafuda-traditional/Hanafuda_April_Kasu_1_Alt.svg" x="834" y="480" width="44" height="64" preserveAspectRatio="xMidYMid meet"/></g></g><text x="662" y="558" text-anchor="middle" font-size="10" fill="rgba(255,255,255,0.5)" font-family="system-ui">Field (8)</text><g data-zone="Draw pile — 24 cards remaining (face down)"><rect x="417.5" y="475.5" width="44" height="64" fill="#2a3a6a" rx="3" stroke="#1a2a4a" stroke-width="1"/><rect x="419" y="477" width="44" height="64" fill="#2a3a6a" rx="3" stroke="#1a2a4a" stroke-width="1"/><rect x="420.5" y="478.5" width="44" height="64" fill="#2a3a6a" rx="3" stroke="#1a2a4a" stroke-width="1"/><rect x="422" y="480" width="44" height="64" fill="#2a3a6a" rx="3" stroke="#1a2a4a" stroke-width="1"/><text x="444" y="515" text-anchor="middle" font-size="11" fill="rgba(255,255,255,0.85)" font-family="system-ui" font-weight="bold">24</text></g><text x="662" y="1018" text-anchor="middle" font-size="9" fill="rgba(255,255,255,0.3)" font-family="system-ui">Hanafuda 48 · seed: 42</text>
</svg>