<svg xmlns="http://www.w3.org/2000/svg" viewBox="0 0 476 464" width="476" height="464">
<rect x="0" y="0" width="476" height="464" fill="#1b5e3a" rx="16"/><rect x="20" y="20" width="436" height="424" fill="#2d7a4f" rx="12" stroke="#1a4a2e" stroke-width="2"/><g class="hand" data-zone="Player 1 — 2 cards (visible)"><g data-card="July — Plain 1"><image href="../pieces/sets/hanafuda-traditional/Hanafuda_July_Kasu_1_Alt.svg" x="192" y="50" width="44" height="64" preserveAspectRatio="xMidYMid meet"/></g><g data-card="June — Plain 1"><image href="../pieces/sets/hanafuda-traditional/Hanafuda_June_Kasu_1_Alt.svg" x="240" y="50" width="44" height="64" preserveAspectRatio="xMidYMid meet"/></g></g><text x="238" y="44" text-anchor="middle" font-size="11" fill="rgba(255,255,255,0.6)" font-family="system-ui">Player 1 (2)</text><g class="hand" data-zone="Player 2 — 2 cards (hidden)"><rect x="342" y="200" width="44" height="64" fill="#2a3a6a" rx="3" stroke="#1a2a4a" stroke-width="1" data-card="Face down"/><rect x="390" y="200" width="44" height="64" fill="#2a3a6a" rx="3" stroke="#1a2a4a" stroke-width="1" data-card="Face down"/></g><text x="388" y="194" text-anchor="middle" font-size="11" fill="rgba(255,255,255,0.6)" font-family="system-ui">Player 2 (2)</text><g class="hand" data-zone="Player 3 — 2 cards (hidden)"><rect x="192" y="350" width="44" height="64" fill="#2a3a6a" rx="3" stroke="#1a2a4a" stroke-width="1" data-card="Face down"/><rect x="240" y="350" width="44" height="64" fill="#2a3a6a" rx="3" stroke="#1a2a4a" stroke-width="1" data-card="Face down"/></g><text x="238" y="428" text-anchor="middle" font-size="11" fill="rgba(255,255,255,0.6)" font-family="system-ui">Player 3 (2)</text><g class="hand" data-zone="Player 4 — 2 cards (hidden)"><rect x="42" y="200.00000000000003" width="44" height="64" fill="#2a3a6a" rx="3" stroke="#1a2a4a" stroke-width="1" data-card="Face down"/><rect x="90" y="200.00000000000003" width="44" height="64" fill="#2a3a6a" rx="3" stroke="#1a2a4a" stroke-width="1" data-card="Face down"/></g><text x="88" y="278" text-anchor="middle" font-size="11" fill="rgba(255,255,255,0.6)" font-family="system-ui">Player 4 (2)</text><g data-zone="Draw pile — 40 cards remaining (face down)"><rect x="211.5" y="195.5" width="44" height="64" fill="#2a3a6a" rx="3" stroke="#1a2a4a" stroke-width="1"/><rect x="213" y="197" width="44" height="64" fill="#2a3a6a" rx="3" stroke="#1a2a4a" stroke-width="1"/><rect x="214.5" y="198.5" width="44" height="64" fill="#2a3a6a" rx="3" stroke="#1a2a4a" stroke-width="1"/><rect x="216" y="200" width="44" height="64" fill="#2a3a6a" rx="3" stroke="#1a2a4a" stroke-width="1"/><text x="238" y="235" text-anchor="middle" font-size="11" fill="rgba(255,255,255,0.85)" font-family="system-ui" font-weight="bold">40</text></g><text x="238" y="458" text-anchor="middle" font-size="9" fill="rgba(255,255,255,0.3)" font-family="system-ui">Hanafuda 48 · seed: 42</text>
</svg>