<svg xmlns="http://www.w3.org/2000/svg" viewBox="0 0 476 464" width="476" height="464">
<defs>
<symbol id="piece-hanafuda-traditional-Hanafuda_July_Kasu_1_Alt" viewBox="0 0 976 1600"><style type="text/css">
	.st0{fill:#FFFFFF;}
	.st1{clip-path:url(#SVGID_2_);}
	.st2{fill:#333333;}
	.st3{fill:#D81E1E;}
	.st4{fill:none;stroke:#333333;stroke-width:2;stroke-linecap:square;stroke-miterlimit:3;}
</style>
<g id="Paper_Backing">
	<path class="st0" d="M960,22v1556c0,3.3-2.7,6-6,6H22c-3.3,0-6-2.7-6-6V22c0-3.3,2.7-6,6-6h932C957.3,16,960,18.7,960,22z"/>
</g>
<g id="Wikipedia_Cropped">
	<g>
		<defs>
			<path id="SVGID_1_" d="M960,22v1556c0,3.3-2.7,6-6,6H22c-3.3,0-6-2.7-6-6V22c0-3.3,2.7-6,6-6h932C957.3,16,960,18.7,960,22z"/>
		</defs>
		<clipPath id="SVGID_2_">
			<use href="#SVGID_1_"  style="overflow:visible;"/>
		</clipPath>
		<g class="st1">
			<path class="st2" d="M238,1515.7c-28.7-4.9-86.3-25.7-80.6-63.3c26.1-20.4,67.2,9,78.5,37.2c2.4,4.7-3.2,6.6-2.9,10.9
				C233,1506.2,249.8,1511.6,238,1515.7z M355,1507.4c-31.7-6.1-98.8-65.6-54.4-90.3C332.1,1415.6,391,1481.7,355,1507.4z
				 M477.1,1493.1c-19.4,2.6-77.2-66.2-41-85.2C466.1,1408.4,512.9,1475.6,477.1,1493.1L477.1,1493.1z M313.9,1333.5
				c-13.6-26.2,58.1-106,77.4-76.9c-3.9,29.7-34.2,76.9-68.4,71.5C318.6,1327.6,317.8,1333.4,313.9,1333.5z M128.4,1265.8
				c-32.9-19-50.2-72.6-24.7-100.8C138.3,1184,158,1239.6,128.4,1265.8L128.4,1265.8z M634.8,1131.5c-11.3-1.1-37.8-3.4-48.7-18.6
				C594.4,1059.4,737.3,1119.1,634.8,1131.5L634.8,1131.5z M334.6,1131c-16.6,0.8-19.7-7.1-21-19.8c7.6-18.6,59.7-34,82.7-19.5
				C385.4,1114.3,361.5,1132,334.6,1131z M115.4,1123c-15.8-0.1-32.8-8.9-43.2-20.8c-3.2-4.2,4.3-7.6,1.4-12.1c-1-2-0.1-4.4,1.9-5.3
				c0.1,0,0.1-0.1,0.2-0.1c26-14,54.8-5.2,80.8,9.4C171,1112.6,130.3,1123.2,115.4,1123L115.4,1123z M447.2,1050.7
				c-27.1-23-37.8-71.5-23.6-104.1C463.6,961.6,471.6,1024.7,447.2,1050.7L447.2,1050.7z M701,1048.7c-15.6-0.1-67-8.9-42.7-34.7
				C696.1,983.4,787.3,1041.5,701,1048.7z M236.6,1032.7c-38.4-6.4,3-61,34.5-72.8c22.7,2.7,7.1,33.1-0.9,42.2
				C262.2,1012.4,251.7,1027.9,236.6,1032.7L236.6,1032.7z M162.2,1002.6c-25.4-5.4-67.8-101.6-24.9-103.2
				c32.4,16.6,41.5,55.5,37.4,87.9C162.1,995.8,169.7,1000.4,162.2,1002.6L162.2,1002.6z M717.7,968.8c-16.9-0.3-32.7-5.2-40.9-19
				c-10.6-13.3,32.8-20.9,41.1-20.6C775.9,931.2,783,964.8,717.7,968.8L717.7,968.8z M514.2,938.7c-24.1-16.5-56.6-93.7-19.2-103.1
				C525.2,853.3,541.7,916.8,514.2,938.7z M594.4,871.4c-29.7-19.3-49.3-76.7-18.5-96.5C608.9,792,613.4,847.2,594.4,871.4z"/>
			<path class="st3" d="M640.8,1457.3c-25.8-7.4-38-33.4-43.1-56.5C584.5,1354.3,690.6,1448,640.8,1457.3z M714.3,1412.3
				c-26-6.8-44.9-39.8-46.4-63C703.8,1341.7,753.7,1406.5,714.3,1412.3z M787.5,1360.3c-24-4.1-39.3-22.9-53.7-46.3
				C733.4,1274.8,849.7,1346.1,787.5,1360.3z M847,1293.7c-19.5-0.4-34.1-14.5-48-26.8c-31.2-28.3,40.4-19.9,49.1-9
				C865.6,1264.1,869.1,1292.8,847,1293.7z M515.9,1291.7c-16.5-15.8,0-47.3,7.6-66.1C571.7,1182.7,540.2,1285.2,515.9,1291.7
				L515.9,1291.7z M604,1269.2c-18.2-17.1-10.8-69.5,16.2-82.3C661.8,1179.1,626,1261.7,604,1269.2L604,1269.2z M691.5,1226.8
				c-18-17.9-4.4-54.7,6.4-73.2c8-15,31.8-14.2,29.2,5.4C724.5,1187.3,710,1210.1,691.5,1226.8L691.5,1226.8z M774.2,1207.5
				c-10.2-15.2,10-51.6,19.1-67.1C854.3,1090.4,867.4,1175.1,774.2,1207.5L774.2,1207.5z M798.7,872.7
				c-10.8,1.8-66.3-14.4-47.4-29.5C791.2,825.5,861.5,865,798.7,872.7z M214.4,806.7c-25.6,7.2-88-40.3-42.3-49.9
				C196.1,755,296.2,804.4,214.4,806.7L214.4,806.7z M827.1,802.7c-18.6-1.5-42.6-8.8-52.7-23.8c8.7-14.3,49-15.4,64.9-6.9
				C855.5,783.9,845.3,803.7,827.1,802.7L827.1,802.7z M686.7,764.5c-64-19.7-51.4-95.2-22.2-64.4
				C676.7,718.8,699.9,746.7,686.7,764.5z M316.1,754.6c-13.8-6,0.9-31.5,6.8-37.9C386.3,652.1,408.9,732.4,316.1,754.6z M849,727.6
				c-14.3,0-36.6-9.2-42.5-17.6c3.6-15.2,37.2-16.2,51.7-12.3C885.7,703.2,871.4,729.4,849,727.6L849,727.6z M183.6,717.2
				c-28,8.8-90.1-38-40.5-53.4C166.4,665.7,249.9,723,183.6,717.2z M510.8,716.9c-71.6-3.6-29.3-30.8,9-34.8
				C563.1,684.1,542.9,720.3,510.8,716.9L510.8,716.9z M719.2,689.8c-19.8-0.5-62.3-55.8-33-66.5
				C703.1,628.6,734.2,677.5,719.2,689.8z M871.2,655.2c-11.3,0.4-57.1-4.3-41-20.5C861.4,606.5,938.5,646.1,871.2,655.2
				L871.2,655.2z M360.8,654.1c-21.6,6.4-90-38.1-49.7-48.9C321.1,604,374.7,643.9,360.8,654.1L360.8,654.1z M201.8,631.1
				c-19,1.9-54.2-43.4-46.6-62.1c5.7-17.5,24.5-21.5,33.8-3.4C195,580,220.6,625.1,201.8,631.1L201.8,631.1z M505.5,623.4
				c-80.2,7.5,46.6-74.5,41.3-16.7C540.3,618.3,518.5,622.1,505.5,623.4L505.5,623.4z M746.8,616.8c-48.4-19.6-37-113.4-2.4-57.3
				C748,577.6,762.5,605.3,746.8,616.8L746.8,616.8z M360.3,562.8c-20.2-1.6-39.8-1.3-55.6-18.7c-14.9-10.2-3.8-33.3,5.8-30.6
				C326.4,513.6,383.7,553.5,360.3,562.8L360.3,562.8z M812.2,558.7c-17.2-11.7-4.1-50.9,1.3-64.7c5-15.2,38.9-25.5,35.4-1.5
				C845.4,515.9,831.5,544.2,812.2,558.7L812.2,558.7z M471.4,531.7c-21.9-11.1,39-45.2,47.8-44.7
				C566.2,496.9,499,537.4,471.4,531.7L471.4,531.7z M350.6,479.8c-36.2,8.2-91-57-43-50C321.2,433.5,376.4,475.6,350.6,479.8z
				 M452.7,443.2c-33-0.8,23.2-55.1,39.7-53.5C549.1,387.3,478.3,447.8,452.7,443.2L452.7,443.2z M321.3,393.3
				c-17.6-2.4-56.7-20.3-49.9-46.9C284.9,321.7,366.4,397.1,321.3,393.3z M423.8,353.6c-27.8-6.1,21.1-61,37.6-64.5
				C503.2,291.9,444.6,353.6,423.8,353.6z M347.2,298.8c-25-7-70.6-64.8-29.3-77.8C341.2,232,360.9,276.7,347.2,298.8L347.2,298.8z"
				/>
			<path d="M901.2,641.3c-0.9-10.8-8-13.4-17-16.8c-17.8-6.6-34.2-3.9-49.5,5.1c-9.4,5.5-17.7,11.8-29.3,9.4
				c-7.1-1.5-18.2,3.8-13.1-8c4.4-13.8,8.7-27.7,12.8-41.7c2-6.5,1.2-15.1,5.6-20.6c9.6-11.2,20-21.5,28.3-34.1
				c8.3-11.3,26.3-55.3,7.2-61.7c-12-5.2-21.8,1-30.3,8c-16.5,14.8-19.6,46.7-16.1,67.3c2.3,8.9,2.6,18.2,0.8,27.2
				c-6.9,23.5-16.2,46.5-23.8,69.8c-0.8,1.5-1.6,4.6-3.6,2.3c-26.5-31.8-4.1-80.4-38.1-108.1c-7.4-6-15.8-3-19.7,2.9
				c-11.8,17.9-4.3,50,11.8,64.7c9.8,9,22.7,14.9,29,27.8c5.6,11.5,18,20.7,11.2,36.2c-6.3,14.2-12,28.6-17.8,42.6
				c-15.8-19-22.3-30.2-27.5-54.8c-4.6-13.4-14.6-23.3-23.5-33.9c-5.2-6.2-11.8-7.9-18.5-5.8c-22.1,11.2-0.7,40.7,8.1,54.1
				c4.2,7.1,11.5,14.1,17.4,14.8c18.6,2.2,24.2,18.2,35.2,28.3c2.3,2.1,4.5,7.3,3.5,9.7c-8.5,19.9-15.7,40.8-26.1,59.6
				c-0.8-0.5-2-0.9-2.3-1.7c-6.4-12.6-20.9-20.2-21.7-36.3c-0.3-5.3-1.8-10.4-4.3-15.1c-7.9-12.4-23.6-54.6-42.6-43.6
				c-8.5,4.2-12.8,12-12.3,22.2c1,21.7,15.8,33.9,30.6,46.3c10.1,8.5,26.5,6.2,33.5,20.2c4.6,9.2,19.5,12.9,10.6,29.1
				c-8,14.5-15.8,29.6-21.6,45.5c-4.9,13.3-13.9,25-21,37.4c-11.4,20-21.9,40.6-37,59.2c-6.1-19.8-10.4-38.7-18.3-56.6
				c-3-6.9-4.4-14.4-4.1-21.9c8.8-31.6,9.9-67.2-18.6-90.6c-43-41.9-48.9,78.5,7.1,100.2c4.1,1.7,4.6,6.3,6,10.1
				c5.5,17.3,11.5,34.5,16.2,52.1c1.8,6.8,9.8,13.1,1.1,21.9c-9.9,9.8-17.3,21.9-26,32.8c-9.9,12.5-20.1,24.8-30.3,37.1
				c-1.1,1.3-3,5-4.8,0.6s-4.8-8.5-5.5-12.4c-4-21.7-15-41.1-19.3-62.7c-1.7-8.5-6.5-16.1-2.9-25.8c13.2-33.7,2-75.4-25.8-98.9
				c-4.5-3.5-8.5-11.3-16.6-8.9c-14.9,4.5-13,18.4-14.9,29.2c-2.9,34.9,12.6,71.9,41.1,92.8c2.3,1.7,5.3,1,6.8,5.2
				c9.6,27.2,15.6,55.6,27.1,82.1c11.5,16-27.4,38.4-35.8,51.2c-11.1,13-23.4,25.1-35.9,38.3c-4.9-19.4-9.5-35.6-12.8-52.1
				c-1.9-9.3-8.3-17.9-3.9-28.3c16.1-36.2,7.1-81.4-28-102.5c-5-3.7-10.6-6.1-13.9,1.7c-12.2,27.8-5.1,93.2,24.4,108.8
				c4.6,2.4,7.4,3.9,8.7,9c4.3,17.8,9.5,35.3,13.4,53.1c1.3,5.9,8.7,12.5-0.8,18.9c-8.5,5.8-16.5,12.3-23.8,19.6
				c-73.9,66.2-171.3,97.4-266.5,119.3c14.2-13.6,20.6-30.9,33-44.3c7.7-8.3,12.4-19.4,18.6-29.3c26.9-42.5,24.1-57.3,77.6-67.5
				c9.2-3.4,19.1,5.1,28.9,5.3c26.9,0.5,48.7-10.5,64.8-32c2.6-3.5,6.8-9.6,3.8-12.8c-25.5-22.6-66.9-10.2-89.4,12.1
				c-4.5,4.5-5,12-10.1,14.5c-9.8,5-20.6,8.1-32,12.4c41.5-72.7,78.3-148,106.4-227.1c9.9-34.7,22.1-69.8,27.4-105.4
				c3.5-20,9.8-39.8,9.3-60.6c-0.1-3.8-0.1-10.4,7.2-12.4c9.5-2.6,18.3-7.2,27.7-10.2c6.9-2.2,13.6-9.3,20.8-5.6
				c22.9,13,70.8,21,83.1-9c1.9-8.3-2.8-14.8-10.5-18.4c-29-14.1-55.5,5-79.4,18.2c-13.5,3.4-26.4,8.2-39.2,13.4
				c-2.3,0.9-4.1,4.2-6.8,2.8c-3-1.6,0.4-4,0.8-5.7c3.9-11.3,0.6-55.2,9.3-60c23.1-7,41.4-28.2,67.6-23.7c15.9,4,63.6-3.1,61.7-24.6
				c-2.8-33.1-42.4-22.6-60.9-8.8c-10.8,6.5-16,18.5-26.1,24.9c-11.1,7-23.5,12.1-35.4,17.9c-6.2,3-11.8,7.3-10.5-6.1
				c2-20.4,1.5-41.1,2-61.6c0.1-5.7-1.3-11.6,6.6-13.8c15.8-4.5,25.2-21.5,45.9-18.9s40.6-5,56.1-21c22.9-18.3,0.2-43.2-22.6-31.1
				c-15.7,7-29.5,17.6-40.1,31.1c-3,3.8-3.9,8.8-9.7,11.5c-12.5,6-23.9,14.1-35.7,21.3c-1.8-18.8-4.3-37-6.4-55.7
				c-0.9-8.9-5.2-21.2-1.1-26c7.8-9.2,16.4-20.8,32.3-19.3c22.1,6.5,82.2-30.5,69.4-53.9c-15.9-26.3-63.3,6.8-71,27.8
				c-3.1,6.2-3.8,13.6-11.6,17.3c-7.3,3.5-13.5,9-20.1,13.8c-0.8,0.5,0.2,3.2-1.9,2.5c-7.2-15.6-8.4-34.8-13.8-51.5
				c-2.2-8.3-7.3-15,1.6-24c10.8-11.1,21-20.1,36.4-25.4c20.8-7.2,32.3-26.7,43-45.1c9.1-13-6-31.2-20.7-25.2
				c-48.8,19.1-35.4,65.9-68.1,92.3c-5-12.5-10-25.7-15.7-38.5c-8.1-18.2-20.7-34-20.5-56.1c0.2-21.3-6.8-41.5-23.1-57.3
				c-18-22.4-43.9,1.3-37,24c8.7,27.4,26.5,47.3,53.7,58c3.2,1.3,5,4.3,7,9.7c14.2,33.4,26,64,34.5,98.4
				c-18-14.9-44.6-12.4-55.5-38.6c-7-18.5-25.6-28.4-43.4-36.7c-7.8-3.6-15.6-7.3-23.4,0.4c-21.2,26.9,28.8,59.2,53.1,60.4
				c6.1,0.9,11.7-3.6,17.7-0.6c14.3,7.2,28.9,13.9,42.9,21.8c3.6,2,9.7-3.8,11.3,5c3.8,22.5,14.3,43.9,11.4,67.1
				c-3.3-1.2-7-1.8-10-3.7c-10-6.3-23.9-6.2-31-16.8c-13.4-19.8-30-36-51.7-46.1c-16.2-10.8-34.3,5.3-26.3,22.3
				c22.3,48.4,67.5,24.4,103.8,49.1c6.7,4.1,18.4,2.5,18.7,15.3c0.4,16.1,2,32.2,2.8,48.3c0.3,7.1,3.4,17.9-10.6,8.2
				c-7.5-5.2-19.1-6.3-24.4-12.8c-13.5-17.3-57.8-64.2-79.6-41.2c-23,32.5,39.2,58.3,63.4,51.5c11.9-5.9,29.3,8.8,41.1,13.1
				c3.8,1.9,10.5,4.6,10.5,6.8c-0.7,28.1-2.3,56.1-3.8,85.2c-13.6-11.9-30.5-14.5-41.9-30.1c-12.4-17-28.9-30.6-47.9-39.7
				c-10.3-5.7-26.7,2.9-22.8,16.2c2.3,15.7,15,22.2,26.5,28.8c21.1,12,48.6,8,67.6,26.1c4.8,4.6,15.6,4.7,15.6,11.7
				c-1.5,41-10.1,81.8-17.2,122.1c-9.5,41.9-17.7,85.7-37,123.9c-13.1-44-28.9-87.3-46.3-129.7c-3.9-10.9-12.6-20.2,1.6-33.3
				c27.1-19.3,65.8-19.2,77.8-55.4c3.1-10.1-0.8-18.3-8.7-23.8c-16.2-9.4-39.7,7.1-50.9,19.8c-9.5,11.8-16.7,23.4-16.7,38.7
				c0,11.1-10.9,15.1-14.7,23.7c-26.6-41-38.5-90.6-70.4-128.5c-5-6.2-7.9-12.6-7.3-21c-2.3-18.8-9.7-37-17.3-54.4
				c-12.4-29.5-44.8-24.6-50.5,6.5c-1.5,26,25.2,51.1,44.3,59.7c6.5,2.9,16.4,1.3,20.4,5.7c17.1,21.8,28.7,51.6,41.5,75.4
				c-1.7,11.7-7.4-0.7-11.4,1c-0.9,0.4-2,0.4-2.9,0c-7.9-4.7-19.1-1.7-25.4-9.8c-15.3-20-66.5-65.6-89.8-39.5
				c-7,8.4-6.9,20-1.9,29.1c12,22,41.4,32.8,62.6,27.5c25.1-6.3,46.6,0.8,69,8.4c3.4,1.2,7.3-1,9.6,4.4c9.4,22.7,19.5,45.1,29.5,68
				c-15.7-5-31.8-8.8-45.6-18.3c-18.4-15.5-92.4-60.7-97.9-16.3c8.8,40.6,62.1,49.4,95.6,36.6c4.6-1.5,8.9-6.2,14-3.3
				c8.1,4.7,17,6.4,25.5,9.7c6.1,2.4,15.2,0.7,17,11.1c7.4,25,17.6,49.4,25.8,74.2c5.5,15.7,6.6,33.3,19,46.3c0.5,0.5,0.3,2-0.1,2.9
				c-32.6,77.1-70,151.6-115.6,222c-8.1-30.4-27.6-74-19.3-103.1c5.3-8.6,9.6-20.5,18.5-23.3c30.6-10.6,59.8-43.1,59.3-76.5
				c-0.2-3.7,0.4-8.3-6-10.3c-10.4-3.3-18,1.3-25.9,6.3c-22.4,14.5-40.9,31.3-42.4,60.8c-0.4,8.2,7.1,16.9-1.7,24.9
				c-5.3,5-8.1,12.6-13,18.2c-8.1-14.8-12.1-31.7-18.5-47.4c-1.9-5.2-6.5-13.9-5-15.1c15.5-18,2.8-69.8-10.5-87.8
				c-6.4-9.5-16.5-14-26.1-19.3c-8.5-6.6-17.1-5-20.5,3.5c-19.8,35.7,6.8,100.2,46.1,110.9c4.7,0.5,12.8,27.1,14.6,32.2
				c6,21.9,15.1,42.8,20.5,64.8c-1.4,0-3.1,0.9-4.4,0.2c-7.8-4.4-21.7,0.9-27.8-5.4c-7.7-17.4-25.5-18.4-39.7-23.9
				c-17.2-6.6-35.6-8.1-52.9,3.2c-7.5,4.9-14.3,16.9-9.2,22.9c19.9,27.5,53.3,31.3,84.1,19.6c27.5-13.5,16.4-10.4,46.3-9.1
				c12.7,2.2,14,33.4,18.9,44.2c2.9,9.2,9.6,19.5,0.7,31.2c-23.4,31.7-44.1,66.5-67.1,98.4c-2-6.1-9.2-16-8.1-21.8
				c12-34.7,7.6-65.8-18.9-91.9c-5.7-5.7-12.6-14.7-22.6-11.1c-24.8,17.9-13.3,59.7-1.3,83.2c6.6,11.1,13.8,21.2,26.5,24.7
				c9.6,2.7,19.4,22.7,13.5,31c-18.9,26.6-38.1,53-57.3,79.4c-19.9,26.4-38.8,53.5-57.4,80.8c-7,12.4-31.7,37.5-24.1,51.3
				c4.1,2.9,6.6-1.7,9.3-4.6c24-29.1,55.7-50.8,91.6-62.5c11.2-4.6,21.3-17.1,34.5-5.3c6.1,5.4,15.1,6.5,16.2,17.9
				c0.9,10.3,6.1,20.7,13.2,28.2c20.7,20.6,51.2,38.7,81.4,33.8c19.6-3.8,1.7-13.9-0.9-25.2c-17.6-40.9-45.3-58-90.4-54.5
				c-5.2-2.2-9.9-6.5-16.2-9.2c39.3-15.1,83.8-28.9,124.8-33.3c6.9,8.7,18.3,15.4,17.6,29.2c-3.5,38.5,29.3,65.6,58.8,82.8
				c8.2,5.1,20.3,10.8,28.6,2.9c7.5-7.1,4.3-19.3,3.5-29.6c-1.2-15.5-11.3-26.5-18.4-39.1c-10.4-18.5-26.5-29.3-47-31.3
				c-36.5,3-17.6-13.6-36.7-14.9c5.6-1.9,7.8-3.2,10.1-3.3c20.2-1.3,39.5-8.7,60-8.4c9.5,0.1,19.6-0.9,28.3-4.4
				c25.1-10.9,38.6,3.9,50.3,23.9c-1,40.4,18.5,82.3,59.1,95.5c4.3,1.5,8.9,2.1,13.5,1.9c12.7-0.7,7-8.5,6.2-15.4
				c-1.6-22.5-5.3-39.4-19.8-57.2c-5.6-11-15-16.8-25.3-22.3c-7.5-4.1-17.2-1.7-23.1-6.2c-7.2-5.5-11.6-14.8-17.2-22.4
				c-1.5-2.1-0.8-3.6,1.5-4c19.4-3.8,38.9-7.3,58.3-11.2c19-3.9,38.5-6.8,56.9-12.6c22.3-7.1,30.4-5.8,44.2,13.6
				c7.4,10.3,14.8,19.3,17.3,33.8c15.6,90.6,110.8,75,49.4,4.9c-12-9.1-26-14.9-38-23.2c-14.9-10.3-26-26.1-38.2-38.9
				c15.7-6.5,30.8-12.9,46.1-19.1c5.1-2,12.5-6.4,15.4-4.4c10.8,7.1,20,16.4,30,24.7c3.1,2.5,6.4,4.2,6.1,9.1
				c-0.5,8.2,4.4,14.9,7.2,22.1c9,21.7,35.4,56.6,61.1,40c19.7-18.7-10.2-52.7-27-62c-27.1-6.9-45.4-16.7-64.3-37.6
				c-2-1.8-1-3.3,1.6-4.7c12.9-7,27.5-10.5,39.4-19.4c2.7-2,5.8-4.9,9.8-2.1c13.5,9.8,32.8,11.3,40.1,30.2
				c5.1,13.1,16.6,21.9,25.7,32.3c11.9,13.6,31.9,19.8,47.1,11.2c9.3-5.2,14-15.4,10.3-25c-9.1-27.3-43.5-37.3-70-38.8
				c-4.2,0.1-7.7,3.5-12.9,0c-10.4-7.1-22-12.7-33.5-19.1c14.8-12.2,31.3-24.9,45.4-37.8c19.8,7.3,39.9,12.9,55.2,30.5
				c14,18.1,49.5,41.8,70.4,20.2c5.7-7.2,6.4-17.2,1.7-25.1c-17.3-27-52.2-31-80.7-21.8c-9.5,2.3-21.5-6.5-32.6-9.8
				c-7.6-2.3-2.6-4.3-0.6-7.3c2.4-3.5,5.3-6.5,8.7-9c31.1-16.3,66.5-28.5,82.7-62.4c23.9-60-79.4-58.1-78.7,49
				c-28.2,27.1-56.4,49.3-89.2,72.9c10.6-17.6,9.4-36.2,24.2-52.9c15-17.6,30.8-36.5,31.7-62.4c0.5-13.7-1.1-25.3-16.6-28.1
				c-21.1-2.5-36.1,30.3-37.5,47.8c-1,14.7-3.6,29.9,4.2,43.9c1.1,1.9,1.3,3.4,0.2,6.1c-4.8,11.6-7.9,23.9-13.1,35.3
				c-3.5,7.7-4.1,17.8-13.1,21.9c-22.6,9.5-44.7,20.4-68,28c1.7-4.7,2.9-9.6,5.6-13.8c6.6-13.8,7.4-30.7,22.6-39.8
				c3.8-2.5,7-5.9,9.4-9.8c10.7-16.8,30.5-64.5,5.3-75.4c-11.4-3.8-20.5,2.9-28.6,12.9c-13.9,17.1-14.8,35.9-13.6,56.1
				c0.6,10.4,10.2,19.1,4.9,30.4c-4.6,9.8-9.2,19.7-13.4,29.7c-2.8,6.7-3.6,15.4-11.1,17.9c-22.1,7-44.4,14.5-67,19.8
				c1.8-6.2,6.4-12.8,6.9-18.9c3.7-18.1,13.6-32.6,23.8-46.9c11.3-15.8,21.9-31.8,21.4-52.4c1.5-16.2-15.8-25.7-28.6-15
				c-11.2,8.2-13.8,20.9-17.5,32.9c-4.3,13.6-6.5,27.2-3,41.7c1,4.3,7.6,6.7,3.4,13.6c-5.1,8.4-6.7,18.8-11.2,27.6
				c-3.6,7.2-3.4,17.4-12,21c-51.1,10.4-103.7,18.7-155.5,26c-13.4,0.9-26.3,2.2-39,6.6c-1.1,0.4-2.6-0.1-3.9-0.2
				c11.3-16.4,19-38.3,41.4-44.7c21.2-7.7,39.9-24,53.2-41.9c7.9-9.8,8.7-22.7,12-34.4c2.1-7.5-4.4-21.9-9.8-20.6
				c-27.7,4.7-48,25.2-63.7,47.3c-8.9,11.6-14.7,25.3-16.7,39.8c-0.8,4.9,2.1,9.9-2,14.9c-7.3,9-12.9,19.4-20.5,28.1
				c-4.3,4.9-5,12.9-14.6,14.1c-37.4,3.4-72.7,16.1-108.2,27.4c-47,15-94.7,33-133.9,63.5c-0.2-7.6,6.4-13.5,10.8-18.3
				c30.5-37.9,58.5-77.5,87.4-116.8c11.9-16.1,25-31.4,35.7-48.3c5.5-8.6,11.9-14.8,20.9-15.4c100.3-13.1,197.3-56.4,274.4-122
				c19.5-15.6,36.4-35.7,56.5-49.9c17.6-0.8,34.9,2.9,52.3,4.6c8.6,0.8,17.9-0.5,23.2,9.5s38.2,21.9,48.8,19
				c93.5-21.1,2.7-72.1-44.2-46.5c-5.9,2.9-8,13.8-18,8.9c-3.2-1.6-7.3-1.7-10.9-2.1c-12.8-1.4-25.6-2.7-38.3-4
				c-3.4-0.3-1.4-1.7-0.5-2.7c17.6-19.3,37.2-36.6,53-57.6c1.6-2.2,4.7-5.4,6.4-5.1c13.3,2.7,26.7,1,40,1.7
				c8.1,0.4,19.5-0.8,23.7,3.8c18.8,19.5,54.5,26.4,78.8,16c48.9-21.2,1.2-45.9-28.2-51.2c-16.8-3.3-40.8,3.1-50.3,17.7
				c-1.4,2.1-4.1,5.3-5.8,5c-16.2-2.1-32.5-1.6-48.8-1.6c-2.7,0-3.7,0-1.3-2.8c6.3-7.6,11.3-16.4,18.3-23.2
				c13.2-12.8,16.6-35.7,39.1-38.8c7.7-1.1,16.8-2.4,22.7,2.6c10.9,9,23.5,13.9,36.7,16c16.7,5.2,89.6-13.7,58.4-36.4
				c-10.2-7.5-22.1-12.3-34.6-14c-57.7-12.5-52.6,28.2-84,19.5c19.8-29.5,36.6-61.3,52.9-93c3.3-6.7,9.5,0.4,14.5,0.3
				c8.1-0.2,18.8-2.5,24,1.6c21.1,16.8,43.5,27.1,71.1,24.3c14.3-1.5,22.5-14.4,14.5-26.1c-11.2-15-40.7-18.7-58-15.1
				c-20.8,5.8-41.3,9.8-62.3,3.8c19.1-17.2,14.1-64.8,49.1-56.8c6.1,1.7,13.7-1.8,19.4,1.7c19.2,16.9,66.6,39.2,80,5.6
				c5.1-30.4-38.4-29.4-58.1-24.5c-11.4,1.9-20.4,11.6-33.1,9.3c-5.9-1.4-22,2.5-23-5c5-12.4,10-24.8,14.9-37.3
				c4.6-11.8,8.7-24.1,25.8-20.1c6.1-0.5,17.9-4.1,22.2-0.6c14.5,15.1,45.1,24.2,64.6,16.8c13.3-3,19.1-23.6,6.5-31.3
				c-14.2-8.2-30.5-9.6-45-3.8c-5.8,4-68.5,18.7-59.5,3.1c3-8.6,5.2-17.7,9.7-25.4c5-8.4,1-25.3,19.2-22.5
				c9.8,1.5,19.7-5.3,29.3,0.3C839.6,659.8,903.7,667.9,901.2,641.3z M808.8,536.2c0.3-20.5,4.1-54.7,31-53.9
				c17.3,3.5-11,55.6-19.7,62.5c-3,3.4-6.4,11.8-8.8,9.5C807.3,550.4,808.8,542.5,808.8,536.2z M748.8,609.7
				c-0.1,1.7-1.1,4.4-3.8,2.3c-15.8-12.8-26.7-28.3-28.1-50.3c0.4-6.1,1.9-14.4,9.4-14.9C743.7,545.6,750.5,596.5,748.8,609.7
				L748.8,609.7z M717,685.3c-13.8-2.7-49.2-43.2-32-58.2c20,9.7,30.2,35.4,34.8,56.1C720.5,686.8,719.1,685.7,717,685.3z
				 M686.7,760.6c-18.6-5-53.1-37.6-41-57.1c1.9-3.5,4.5-6.7,9.9-6.7c4.3,0,4,3.5,5.2,5.1C673.6,719.1,686.8,738,686.7,760.6
				L686.7,760.6z M568.2,786c8.9,27.6,17.4,54.1,26.2,81.4C570.2,845.4,559.9,819.5,568.2,786z M599.9,852.7
				c-8.8-25.4-17.3-50.1-25.7-74.3C594.7,788.5,607.6,824.2,599.9,852.7z M514.2,934.7c-22.1-23.9-37.3-59.5-28.6-91.8
				c8.3,24.6,16.8,49.8,25.3,74.9C512.9,923.4,516.2,928.6,514.2,934.7L514.2,934.7z M521.9,921.5c-9.6-27.2-19.1-54.5-29-82.5
				C520.2,855.8,530.7,904.8,521.9,921.5L521.9,921.5z M423.6,950.5c8.3,33.9,15.7,64,23.6,96.1C421.9,1018.8,420,987.3,423.6,950.5
				L423.6,950.5z M453.6,1034.7c-7.6-27.8-14.6-53.5-21.7-79.3C458,975.3,460.3,1002.5,453.6,1034.7L453.6,1034.7z M320,1123.4
				l65.1-20.7C373.2,1123.4,332.6,1132.7,320,1123.4z M392.5,1091.9l-75.2,21.2C326.8,1095.8,355.6,1087.5,392.5,1091.9
				L392.5,1091.9z M476.4,702.8c18.6-13.5,44-22.7,61.8-11.3c1.9,1.1,3.6,4.8,3.3,7.1c-8.3,21.6-51.7,14.9-67.2,6
				C475,703.9,475.6,703.3,476.4,702.8L476.4,702.8z M491.3,606.8c10.1-9.3,22.3-14.3,35.5-17.1c16.5-2.1,24.3,18.7,6.2,23.1
				c-12.4,5.4-25.9,7.5-39.3,6.2c-4.2-0.6-10.5,2.4-11.7-2.7C481.4,613.9,487.9,609.8,491.3,606.8L491.3,606.8z M469.9,525.4
				c8.8-12.1,49.3-48.5,61.4-28.5c1.6,4.1-1.7,6.4-4.1,9c-14.8,16.8-34.5,21.3-55.6,21.7C470.4,527.6,468.2,527.3,469.9,525.4
				L469.9,525.4z M450.6,428.7c7-17.4,39.4-44.8,57.7-32.9c8.1,19.8-45.5,48.8-62.9,42.7C447.1,435.1,448.9,431.9,450.6,428.7
				L450.6,428.7z M424,332.8c9.9-15.5,21-34.4,39.9-40.1c9.9,1.4,10.6,8.2,6.8,13.7c-9.7,13.9-17.7,29.5-33.5,37.9
				C421.3,354.5,412.7,349,424,332.8z M347.3,294.8c-20.2-8.4-60.9-52.3-31.4-70.4c10.4,6.1,19.3,13.3,22.9,24.5
				C344.4,263.6,349,278.5,347.3,294.8L347.3,294.8z M316.5,388.7c-17.5-5.6-33.3-14.2-42.1-31.6c-2-5.2,0.3-12.9,7.1-12.3
				c12.2,4.5,24.3,10.6,33.4,20.9c3.5,3.9,8.9,5.3,11.1,11c1.6,4,5.2,7.3,5.6,12C326.5,388.7,321,390.1,316.5,388.7L316.5,388.7z
				 M353.3,475.8c-54.8,3.1-76.8-55.8-45.4-41.4c19.4,8.4,35.7,23.2,46.6,41.1L353.3,475.8z M359.9,558.8
				c-7.4-0.6-14.9-2.3-22.3-1.7c-11.8,0.9-36.6-17.3-36.6-26.5c0.5-13.7,8.4-15,16.9-11.2c17.5,8.6,37.5,20,44.7,39.1
				C361.7,558.7,360.8,558.7,359.9,558.8L359.9,558.8z M346.6,648.9c-70.6-20.5-47.8-78.5,14.2,1.2
				C356.1,649.7,351.1,650.1,346.6,648.9L346.6,648.9z M326,719.3c7.4-13.4,48.9-39.2,49-8.5c-4.3,10.2-12.1,18.6-22,23.6
				c-11.2,5.7-23.1,10-34.5,15.5c-3.7,1.8-3.4,0.3-3.6-2.2C313.9,736.3,319.7,727.1,326,719.3L326,719.3z M203,627
				c-18.1,1.7-49.7-38.8-44-56.8c22.5-42.9,42.7,35.5,46,53.1C204.5,624.6,205.9,626.7,203,627z M200.2,712.8
				c-25.8,1.6-63.9,1.4-71.1-30c4.5-40.2,66.8,12.7,77.4,27.8C204.4,711.4,202.3,712.7,200.2,712.8L200.2,712.8z M243.4,794.3
				c-17.5,19.1-81.8,5.4-82.5-25c-0.8-22.1,52.1,2.4,62,10.5c4.1,2.7,8.3,5.3,12.4,7.9C238.3,789.8,244.1,790.8,243.4,794.3
				L243.4,794.3z M278.6,967.5c3.1,20.6-24.8,53.1-42,61.2C248.8,1007.7,264.5,988.7,278.6,967.5L278.6,967.5z M272.7,963.5
				c-15.2,21.1-33,39.8-46.6,63.3C221.9,1005,244.2,975.7,272.7,963.5L272.7,963.5z M162.2,998.6c-1.1-0.2-3.9,0.3-4.5-0.6
				c-19.1-26.5-45.1-57.9-29.9-92.7c11.8,29.4,21.7,59.4,34.8,88.1C163.1,994.9,162.4,996.8,162.2,998.6z M170.4,986.8
				c-12.4-28.1-22-55.8-35-83.9c20.4,11.5,31.1,27.7,33.6,49.3C168.9,961.9,175.6,979.3,170.4,986.8z M89.1,1110.3
				c-4.8-3.4-10.7-5.2-13.7-10.7c23.8,0.2,47.4,7.6,71.1,10.5c1.8,0.3,3.7-0.7,5.6-1.1C131.2,1118,110.3,1125.3,89.1,1110.3z
				 M153.2,1100.9c-21.5-3.5-43.5-4.1-64.7-9.8c-3.8-1-8.5,2.1-11.3-2.8c8.5-2.7,14.1-7.9,23.7-7.2c17.6,3.1,41,4.4,55.9,19.1
				C155.6,1100.4,154.3,1101.1,153.2,1100.9L153.2,1100.9z M128.4,1261.8c-27.4-18.3-38.5-55.9-28.6-86.9
				c7.8,24.4,15.4,48.5,23.3,72.5C124.7,1252.2,129.9,1255.8,128.4,1261.8L128.4,1261.8z M137.8,1247.5c-0.1,1.2-1,2.2-1.5,3.3
				c-12.7-27.2-17.9-54.8-32.6-81.7C131.1,1188,141.4,1216.4,137.8,1247.5L137.8,1247.5z M232.2,1491.2c0.1,0.5,0.2,1,0.2,1.5
				c-23.3-13.1-42.7-28.8-65.9-43.2C195.1,1448,221.2,1465.1,232.2,1491.2L232.2,1491.2z M238,1511.7c-37.4-7.7-65.9-20.6-80.4-55.3
				L238,1511.7z M300.4,1421.1c21.8,1.5,35.9,14.6,46.9,31.9c8,12.7,18.3,24.8,15.2,42.2c-21.4-25.8-43.6-49.3-66.2-73.2
				C297.6,1421.7,299,1421,300.4,1421.1L300.4,1421.1z M290.3,1434c0.1-0.7,0.1-1.4,0.2-2.2c21.9,23.6,43.5,47.1,64.5,71.5
				C327.3,1494.2,289.2,1466.2,290.3,1434z M486.4,1481.2c-16.4-24.4-37.4-44.2-50.4-69.4C458.2,1413.2,486,1446.4,486.4,1481.2
				L486.4,1481.2z M460.4,1464.5c5.5,7.3,9.8,15.7,17.3,21.5c0.7,0.6,0.8,2,1.2,3c-31.3-6.7-48.2-40.5-51.1-69.9
				C436.2,1436.1,449.1,1449.7,460.4,1464.5L460.4,1464.5z M599.6,1391.4c23.5,8.4,44,25,49.5,50.3c0.8,5-1.2,8.3-5.1,10.6
				c-3.7,2.2-7.1,0.2-10-1.7C612.6,1437.7,603.6,1415.1,599.6,1391.4L599.6,1391.4z M674.3,1351.2c25.5,8.3,44.7,21.1,50.6,48
				c-0.2,7.8-10.3,11.5-17.1,7.2c-19.7-12.3-29.2-31.9-36.7-52.7C670.2,1351,672.4,1350.6,674.3,1351.2L674.3,1351.2z M741.7,1307.2
				c17.6-2.1,53.4,15.3,59.2,33.2c0,14.1-10.9,19.6-22.9,13.4c-18.3-9.4-30.9-24.4-40.8-41.8
				C734.7,1307.7,739.7,1307.6,741.7,1307.2L741.7,1307.2z M795.6,1254.7c15.3-10,66.6,3.7,63,25.5c-10,25.3-44.7-5-56.3-15.7
				C799.5,1261.6,792.7,1259.5,795.6,1254.7L795.6,1254.7z M796.6,1142.6c9.4-13.2,28.8-18.3,39.6-7.4c7.4,7.5,1,15.2-2.2,21.5
				c-11.9,24.1-36.9,35.2-59.7,46.7C778.7,1182,783.5,1161.1,796.6,1142.6L796.6,1142.6z M701.3,1155.7c5.7-11.2,24.3-12.4,21.8,2.6
				c-1.5,27.4-16.8,45.4-31.6,64.4C682.3,1201.2,689.5,1175.4,701.3,1155.7L701.3,1155.7z M598.9,1239.7
				c-4.1-33.4,32.1-68.3,35.8-40.8c-0.4,25.8-10.5,47.9-29.2,65.6c-3.4,3.2-3.9-4.8-4-5.9C601,1251.6,597,1245,598.9,1239.7
				L598.9,1239.7z M513.3,1272.6c4.7-15.6,5.9-51.5,26.6-53.2c7.1,1.1,4.8,7.8,5.2,12.6c0.3,16.6-10.3,28.6-18,41.8
				c-2.4,5.5-6.3,10.3-11.2,13.8C513.3,1283,512.1,1277.6,513.3,1272.6L513.3,1272.6z M387.4,1255.8c-4.8,32.4-27.3,60.8-58.2,70.6
				C347,1301.6,366.4,1278,387.4,1255.8L387.4,1255.8z M376.4,1253.4c-20,24.1-41.2,47.2-62.5,76.1
				C325.9,1292.9,344.6,1267.7,376.4,1253.4L376.4,1253.4z M669.4,1112.3c-27.1-7.6-51.7-9.2-77.2-9.5
				C615,1091.7,643.5,1092.3,669.4,1112.3L669.4,1112.3z M666.6,1117.6c-25.4,16.8-49.6,10.3-76.5-3.8
				C617.9,1111.4,642.2,1115.3,666.6,1117.6L666.6,1117.6z M660.6,1017.2c20.4-14.6,57.5-6,72.9,9.6c-26,0-52.9-0.5-76.8-5.3
				C658,1020,659,1018.3,660.6,1017.2L660.6,1017.2z M733.5,1035.1c-18.9,12.3-43.4,14.4-77.8-3
				C683.7,1035.8,708.2,1034.8,733.5,1035.1L733.5,1035.1z M713.4,964.7c-6.3-0.9-25.2-4.1-28.2-9.7c22.3-4.8,49.6-0.3,75.5-1.8
				C744.2,960.6,729.3,965.7,713.4,964.7L713.4,964.7z M760.1,944.2c-27.2,3.4-53-5.4-82.3,1.7C707,927,732.8,931.5,760.1,944.2
				L760.1,944.2z M752,847.2c8.7-1.7,17.4-3.2,26.4-4.9c11.6,3.7,40.4,2.3,40,19c-1.8,7.4-10.8,7.1-16.7,7.4
				c-19,0.8-35.8-5.8-50.5-17.9C750,849.5,749.5,847.5,752,847.2L752,847.2z M783,776.8c9.8-4.3,20.2-5.3,31.1-6
				c7.2,1.8,15.2-1.3,22.7,4.4c16.5,12.9-0.7,27.2-16.4,23C815.6,800.1,762.2,776.7,783,776.8z M853.6,700.8
				c6.1,1.7,13.1,1.5,15.2,8.3c3.5,11.6-7.6,11-13.4,13.5c-10,4.4-39.2-5.8-45.6-14.8C823.9,702.7,837.6,696.4,853.6,700.8
				L853.6,700.8z M892.8,644.2c-0.7,3.5-3.3,4.8-7,4.8c-18.1,3.3-37.3,3.5-53-6.1c-2.2-1.3-4.7-2.4-0.7-4.7
				c18.4-10.3,37.1-14.3,56.6-3.2C892,636.8,893.7,640.6,892.8,644.2L892.8,644.2z"/>
		</g>
	</g>
</g>
<g>
	<g id="Layer_1_2_">
		<g transform="matrix( 1, 0, 0, 1, 0,0) ">
			<g>
				<g id="Layer0_0_FILL_1_">
					<path d="M52,1548v15l-37,37h946l-37-37v-15H52 M52,52V37.7L14.3,0H0v1600h15l37-37v-15V52 M924,52V37.7L961.7,0H14.3L52,37.7
						V52H924 M976,0h-14.3L924,37.7V52v1496v15l37,37h15V0z"/>
				</g>
			</g>
			<g>
				<path id="Layer0_0_1_STROKES_1_" class="st4" d="M961,1600h15V0h-14.3L924,37.7V52v1496v15L961,1600H15H0V0h14.3h947.4 M52,52
					V37.7L14.3,0 M15,1600l37-37v-15V52h872 M924,1548H52"/>
			</g>
		</g>
	</g>
</g></symbol>
<symbol id="piece-hanafuda-traditional-Hanafuda_June_Kasu_1_Alt" viewBox="0 0 976 1600"><style type="text/css">
	.st0{fill:#FFFFFF;}
	.st1{clip-path:url(#SVGID_2_);}
	.st2{fill:#333333;}
	.st3{fill:#D81E1E;}
	.st4{fill:none;stroke:#333333;stroke-width:2;stroke-linecap:square;stroke-miterlimit:3;}
</style>
<g id="Paper_Backing">
	<path class="st0" d="M960,22v1556c0,3.3-2.7,6-6,6H22c-3.3,0-6-2.7-6-6V22c0-3.3,2.7-6,6-6h932C957.3,16,960,18.7,960,22z"/>
</g>
<g id="Wikipedia_Cropped">
	<g>
		<defs>
			<path id="SVGID_1_" d="M960,22v1556c0,3.3-2.7,6-6,6H22c-3.3,0-6-2.7-6-6V22c0-3.3,2.7-6,6-6h932C957.3,16,960,18.7,960,22z"/>
		</defs>
		<clipPath id="SVGID_2_">
			<use href="#SVGID_1_"  style="overflow:visible;"/>
		</clipPath>
		<g class="st1">
			<path class="st2" d="M781.6,1549.7c-38.9,0.6-75.4-3.3-110.9-24c-14.1-6.4-25.6-29.7-42.2-23.6c-32.6,14.5-71-0.4-103,13.2
				c-13.6,8.1-22-0.1-25.9-13.7c-30.6-50.9-30.3-123.2-0.3-176.1c15.6-13.2,42.2-2.5,47.8-31c0.7-2.3,2-4.5,4.6-4.5
				c18.8,16.4,24.7,33.5,56.2,25.1c6.4,4.3,9.8-1,14.8-3.6c15.9-8.9,35-9.8,51.2-11.2c68,6,60.4-73.1,100.2-54.9
				c39.1,15.7,63.6,52.3,81.8,88.2c8.8,14.3,14.4,36.9,32.3,41.5c13.9,3.9,1.9,14.8-5.6,18.7c-65.6,39.7-67.3-13-62.4,97.3
				C822.8,1554.5,871,1546.1,781.6,1549.7z M89.5,1405.3c-25.6-1.2-61.8-7.4-80.3-22.1c45.1-23.3,21.5-87.7,55.7-123.6
				c21.1-16.2-32.9-33.2-38.9-52.4c-7.8-18.2,23.3-30.8,37.5-43.2c21.5-14.8,90.9-37.2,101.1-4.6c-3.6,39.7,55.7,42,79.2,61.3
				c25.9,10.4,21.8,64.2,59.9,52.7c8.6,1,27.5-20.8,30.2-7.6c-17.8,39.5,19.2,53.1,0.9,67c-20,21.9-42.2,42.1-69.4,54.6
				c-20.4-0.1-35-21.4-52.5-30.2c-6.2-4-9,3.8-12.6,7.2C167.2,1391.2,130.8,1403.1,89.5,1405.3L89.5,1405.3z M844.2,1219.6
				c-23.8-15.9-44.4-40.3-61.1-64.8c-11.5-13.7,4.9-14.4,13.4-20.9c15.6-10.1,14.5-32.6,24.7-45.6c5.4-0.9,5.1-6.4,4.7-10.7
				c-0.1-4.8,9.9-20,14.3-24.4c28.1-23.6,14-45.5-3-71c-36.3-55.8,46.5-35.1,75.8-23.6c42,17.9-39.8,43.6,19,63.1
				c23,14,31.2,40.5,48.1,57c0,5.7-0.5,50.1,0,54.3c-1.5,2.7,3,31-2.6,31.3c-29.4-28.3-58.3,5.5-92.7,0c-5.8-0.1-5.9,5.8-6.9,10.2
				C870.2,1190.8,859.7,1211.6,844.2,1219.6L844.2,1219.6z M81.6,1063.2c-81.7-2.4-96-13.4-42.4-82.3C29,970.2,12.5,958-2,954.3
				c-5.6-1.7-0.2-100.8-2-104.2c0-3.5,3.6-4.4,6.5-4c23.6,19.5,47-19.4,73.1-17.2c14.3-2.3,15.9-45.4,33-61.5
				c10.8-16.9,23,23.4,36.3,21.7c46.5,17.1,112,39.1,120.3,97.2c-1.9,7.3,6.9,22.7-5,22.4c-46.1-12.9-57.9,28.7-64.3,63.3
				c-1.2,2.9-5.1,4.3-4.1,8.1c1.3,18.1-20.2,29.7-21.6,47.9C171.2,1062.9,107.9,1060.7,81.6,1063.2L81.6,1063.2z M681.7,835.8
				c-9.6-3.2,2.2-18.2,2.7-24.9c9-26,16.4-52.3,15.9-80.3c-0.8-73.8-26.7-155.4-79.2-210.7c-4.2-12.3-21.7,2.4-30.3-6.4
				c-27.2,9.2-34,59.2-35.4,88.4c-4.5,9,15.9,46.3,2.2,40.9c-97.1-72.6,5.6-135.9-21.5-196.4c7.7-8.2,22.4,0.6,29.9-5.1
				c15.9-8.1,34.2-10.6,47.5-24.1c12.9-22.4,28.3-4.5,40.7,3.9c11,6,22.3,1,20.4,22.1c2.9,18.3-17.9,42.5-3.2,51.1
				c78.9,89.7,105.9,218.9,65.6,333.8C730.4,842.1,709.6,814.1,681.7,835.8z M338.5,811.4c-14.5-3.5-19.9-11.3-27.6-20.1
				c-24.3-28,23.6-38.8,35.3-50c-0.5-23.6-13.2-52.5-11.7-77.2c1.1-10.1-1.5-76.7,15.4-61.7c51.2,62.7,120.2,41.3,165.5,97.4
				c14.3-2.3,61.5-33.6,63.2-8.2c4.5,109.9-11.7,72.6-90.5,98.2c-5.1,11.5-6.5,16-16.3,5.6c-8.7,3.1-14.6-1.2-23.4-3.8
				C414.3,821.5,373.6,783.4,338.5,811.4z M227.5,396.8c-47.8,1.3-91.3-23.6-137.6-27.7c-9.2-16.6,20.4-29.6,23.7-44.5
				c-18.8-17-42.8-28.2-63.1-55.5c-8.7-11-21.7-26.2,0.9-27.9c52.9-6.9,85-62,140-56.2c19.3-29.7,28.9-75.4,60.2-90.7
				c36.3,55,143.9,92.8,142.1,164.6c-35.2,27.6,7.3,61.3-10.9,63.7c-14.6-3.8-28.6-11.4-43.8-7.9c-22.6-5.4-48.3,18.6-40.8,44.3
				C301.1,391.3,249.6,394.9,227.5,396.8L227.5,396.8z M783.8,309.3c-4.9-1.7-18.2-0.9-14.2-8.8c9.8-10.8,0-23.7,2.7-35.8
				c-1.9-10.4,4.7-22.1-0.7-31.8c-3-13.5,50.9-49.7,66.9-50.4c24.5,4.2,47.5,28.4,57.1,49c-6,9.7,13.3,10.8,11,19.3
				c-12.5,6.2-29.7-10-44.1-5.9C821.1,245,810,289.6,783.8,309.3L783.8,309.3z"/>
			<path class="st3" d="M438,1348.7c-42.3-14.8-123-12.7-104.5-76.8c1.7-5.1-4.5-9.7-8.9-6.8c-21.4,13.2-49.4,15-57.5-16.7
				c-8.6-52.6-97.2-33-102.1-89c-16.6-45.9-24.3-58.5,16.2-90.2c-30.9-43.2,10.4-63.3,18.1-106.9c3-15.6,4.5-32,17.6-44
				c13.2-19.7,53,0,50.4-16.7c-4.7-12-3.2-24,4.6-37.7c20.1-18.3,42.4,0.9,58.7-37.9c13.7-29.6,47.1-27.8,74.3-20.3
				c26.9-3.3,52.9-10.5,75.5,10c16.5-21.5,20.2-39.1,56.5-34.7c26,1.2,52.2-27.9,76.5-2.3c9.3,8.1,21.2,10.4,31.5,11.9
				c40.8,9.7,10.4,63.4,31.9,52.8c32.7-33.5,74.6,2.8,98.5,27.3c7.4,6.3-2.7,28.3,9.2,31.1c47.1,1.6,35,50.2,50.5,79.2
				c49.5,55.8-9.1,64.3-20,116.1c-7.3,54.7-66.8,26-26.8,67.9c15.5,36.1-32,55.7-42.4,87.6c-14.5,29.7-37.9,46.9-67.4,46.5
				c-42.4-5-91.2,43.5-120.4-5.7c-11.9-11.9-19,27.3-35.8,23.5C489.2,1315,468.6,1347.3,438,1348.7L438,1348.7z M423.9,587.4
				c-23.3-3-32.5-35.4-57.9-44.7c-23-14.2-25.8-33.8-10.5-56.1c6.2-18-35,2.1-44.5-30.6c-6.6-16.3-0.6-29.3,2.4-44
				c-1.8-41.5-40.3-91.1,25.6-97c11-5.8,56.9,23.5,51.4,1.2c-30.7-37.5,18.7-62.1,29-98c19.5-35.6,58-7.9,78.7,8
				c17.7-21.4,6.4-52.4,54.9-47.6c24.4,0.8,36.2-22.8,60.8-21.6c18,0,39.9,9.4,45.1,29.9c8.3,11.5-3.1,32.7,9.3,37.8
				c30-18.6,82.9-28.6,101.1,11.2c3.8,21.2,0.3,47.3-2,68.1c89.9,35.6,30.5,46.9,27.8,97.6c-0.2,80.5-78.8,8.4-80.5,29.8
				c2.9,19.9-23.7,51.6-42.2,41.3c11.3-71-3.4-31.4-42.2-73.5c-22.5,15.4-43.4,37.2-73.6,39.9c-6.7,2.6-18-0.9-23.1,5.3
				c16.9,29.9-3.8,92.2-45.2,90.1C482.7,565.7,456.7,590.4,423.9,587.4z"/>
			<path d="M976.8,1125.8c-15.8-19.6-38.1-31-57.6-45.8c0.7-0.3,1.3-0.9,2-0.8c8.9,1,18.1-2.1,26.9,1.6c3,1.3,5.5-1.5,6.5-3.5
				c1.8-7-24.8-6-29.4-6c-23.2,4-42.3-9.9-62.8-18.5c-28-6.1,16.5-20.5-11.2-55.4c10.5-5.3,23.1,4.9,33.7,7.9c2.5,1,6.1,3.7,7.2,0.5
				c2-8.2-23-11.3-28.7-14.9c6.9-5,22.9-10.3,25.6-16.5c-10.4-7.8-40.6,21.1-43.5,15.7c-4.2-10.4-11.9-19.4-12.2-31.2
				c0-1.7-6.3-4.1,0.9-6.2c16.7-4.9,32.8-3.1,49.4,0.4c59.2,17.9,35.2,13.5,23.9,44.8c-1.8,5.2-8,13.3,2.2,16.9
				c28.6,9.1,45.7,34.3,59.6,59c4,7.5,12.8,6,6.8-3.4c-12.2-26.8-29.6-48.9-57.3-61.7c-1.7-0.8-6.1-0.8-4.9-3.8
				c3.8-9.2,8.1-18.3,14.6-26.2c6.2-7.5,7-10.4,4.6-11.8c-16.3-9.4-31.5-20.3-50.9-23.8c-38.8-10.2-53.1,9.7-52.8-8.2
				c-0.8-20-22.5-35.8-40.2-35.9c-4.5,0-4.2-2.3-4-5.4c4.6-29.5-19.5-41.5-40.8-55.5c-7.4-4.3-4.4-9.8-2.3-14.3
				c18.7-42.1,19.9-88.8,18.5-134c-7.1-74.3-38.2-147.7-89.6-202.2c-3.6-3.8,2.7-6.1,2.2-9.5c0,0,1.3-0.5,1.6-0.3
				c6.1,3.7,12.4,0.7,17.1-1.8c17.6-9.4,29-23.6,29-46c14.7,13.6,32.2,15.4,49.2,16.5c45-2.7,20.2-54.5,42.5-78.5
				c5.9-7,13.2-15.8,9.8-25.5c-3.8-10.9-9.3-21.6-20.2-28.3c-2.3-1.4-9.5-2.6-6.5-7c17.5-25.1,36.9-60.2,72-57.7
				c15.5,1,30.5,7.5,44,16c6.2,4,13.9,0.7,8.2-6.3c-15-31-55.1-96.6-95.4-80.3c-14.8,9.2-29,19.2-42,31.1
				c-4.3,3.9-8.7,14.5-14.1,10.3C749,202.1,719.8,198,695,206.4c-9.5,3.7-18.3,9.4-26.9,13.9c9.8-45.1-34.4-87.6-80-62.4
				c-13.6,7.8-26,17.8-43.7,15.3c-27.7-4.4-46.2,23.9-46.1,49c-2.6-7.5-10.1-8.8-15-13c-13.5-11.7-29.5-16.9-47.1-12.1
				c-21.6,5.3-25.4,26.5-34,43.8c-10.6-12.7-17.1-28.8-27.9-41.5c-12.2-15.7-26.8-29.1-42.5-41.2c-12.1-9.4-23.5-19.8-35.9-28.9
				c-11.8-8.6-23.6-17.1-31.2-29.8c-10.1-16.9-9.8-17-24.1-2.9c-11.9,11.8-22.4,24.3-30.8,39.3c-7.1,12.8-13,25.6-17,39.5
				c-0.6,2.3-1.1,7.1-5.2,5.3c-43.9-7.5-76.6,34.4-114.7,49.3c-11,4.8-22.5,9.4-35.3,8.1c-2.8-0.3-7.3-0.1-6.8,5.7
				c11.9,32.9,40.2,58,69.7,76.2c2,1.1,9.8,2,6.1,5.7c-7.1,7.1-11.3,16.2-18.3,23.1c-5.4,5.2-6.9,12.7-6.6,18.7
				c0.4,9,8.9,5,14.8,6.2c19.3,4.1,39,8.3,56.8,16.3c42.6,15.5,92.3,20.8,133.1-2.4c4.1-2.8,10.3-10.2,13.1-7
				c19.7,22.9-2.7,44.8,3,69c5.1,16.6,21.5,37.8,42.3,35.7c2.9-0.3,5.4-0.8,2.7,4c-26,50.9,22.8,54.1,46.2,83.7
				c14.4,28.4,55.7,24,74.8,5.4c11.1-10.3,22.4-21.2,21-38.7c0-0.5,2.1-1.8,2.8-1.5c8.3,2.7,15.6,0.9,22.2-5.1
				c-26.5,89.6,62.5,139.2,51.5,106.4c-10.4-33.3-6.8-71,9-102.6c4-7,8-18.3,13.9-18.7c16.5-1.1,32.4,6.5,41.8,20
				c59,79.5,80.5,187.2,45.4,281.1c-9.3-37.7-29.3-29.2-56-42.3c-12-7.5-22.8-18.1-39-14.1c-2,0.5-2.1-1.3-1.8-2.6
				c3.5-15.4,17.2-89.7-10.6-83.1c-16.1,4.7-32.8,7.7-48.1,15.3c-1.7,0.8-4.8,5.3-7.4,0.8c-16.6-26.3-48-39.9-77.2-44.3
				c-34.5-7.7-61-30.4-87-52.8c-5.7-4.8-12.4-9.1-13.9,3.7c-2.6,21.1-7.6,41.7-6.5,63.4c1.2,24,6.1,46.7,13.6,69.1
				c0.7,2.1,1.5,5.8,0.7,6.4c-8.8,5.8-18.2,10.8-27,16.7c-21.5,14.2-19.9,35.3,2.9,48.3c4.9,2.8,11.6,8.4,11.7,12.8
				c0.2,10.9-19.6,29.8-30.2,32.6c-12.2,3.3-27.9-0.5-34.4,18.1c-3.3-16.8-20.2-29.4-31.8-41.3c-33.8-36.5-89.3-28.6-111.6-68
				c-2.4-4.6-5.7-8-10.3-1c-3.2,5-8.1,9-11.5,14c-9.6,13.9-16.7,28.9-19.4,45.7c-0.7,4.3-1.9,6.7-6.6,6.4
				c-25.3-1.3-44.8,25.4-68,24.1c-1.2-0.1-2.6,2-4,3.1c8.8,12.7,26.6,3.3,36.3-2.6C50.6,840.4,62,833.9,76,833
				c4-0.3,10,1.6,11.1-4.6c3.8-21.5,12.8-40.7,24.8-58.6c1.6-2.3,3.8-5.8,6.4,0c18.3,34,66.3,30.2,95,53.1
				c17.6,12,31.3,27.3,43.9,44.2c7.6,10.1,1.9,21.2,4.9,31.5c0.5,1.9,0.2,4,0.3,6.1c-2.4-0.1-5.2,0.5-7.2-0.5
				c-15.7-7.5-47.9,7.9-52.2,25c-3.5,13.9-7.2,27.7-10.9,41.8c-18.9-11.5-12.7-25.6-15.1-44.1c-1.3-10.7-5.3-21.2-5.1-31.8
				c0.1-7.7-9-14-1.6-23c10-11.9,15.3-27,14.9-42.6c1.2-5.6-5.7-4.4-6.2,0.4c-1.9,13.6-8,25.5-14.9,36.9
				c-2.9-7.5-18.4-44.3-26.6-41.8c-2.7,1.8-1.3,5-0.3,6.7c15,22.9,22.3,47,28.4,74.1c-14.2-12.5-27.4-23.7-40-35.5
				c-2.5-2.3-3.7-7.9-7.6-4.3c-3.1,2.8,0.5,7.3,3,9.9c12,11.9,23.2,25.2,36.9,34.6c15.4,10.7,9.7,26.7,14.6,39.9
				c-2.3,0.3-0.2,4.9-3.3,3.8c-4.8-1.7-9.7-3.4-13.8-6.2c-15.7-10.7-33.2-17.7-50.3-25.7c-4.2-1.9-10.7-3.8-11.6-7
				c-2.1-11.7-24-60.3-37.7-56.7c-1.6,4.5,13.1,20.1,15.5,26.2c4.9,8.3,9,17.2,13.3,25.9c0.5,1,0.4,2.5-1.6,1.9
				c-16.4-5.1-32.7-10.5-49.2-15.2c-3.5-1-8.3-2.6-11.4,1.6c-2.5,5.3,20.7,10.2,24.8,11.9c20.8,6.2,42.9,12.4,61.3,23.2
				c-21.4,11.6-47.5,15-72,14.8c-2.7-0.1-5.3,0.3-5.8,3.3c-0.3,11.2,61.2-2.2,69.3-4.3c8.5-1.7,14.8-11.8,25.7-5.4
				c10,5.9,21.7,9,31.5,15.2c22.7,4.4,4.7,14.9-6.6,23.9c-15.6,9.6-28.1,26.1-50.1,21.4c-12.1-1.6-24.3-0.8-36.1,2.5
				c-1.5,3.5,3.7,5.6,6.8,5.5c10-0.2,20.2-4.1,31.2,0.8c-7.4,4.2-39.7,13.3-39.5,18.4c1.7,2.5,9.2-0.1,12-0.5
				c20.5-4.9,38.1-16.8,57.1-24.5c-2.1,9.3-16,21.9-15.1,30.8c8.3,6.5,28.3-41.3,34.9-45.3c8.5-5.7,17-11.5,22.9-20.2
				c0.6-0.8,2.4-1.6,3.2-1.3c27.1,14.8-12.1,37.4-12.2,57.9c-0.7,4.7,2.3,12.1-4.4,15.3c-41.7,20.1-89.6,20.1-134.2,10.6
				c-40.7-6.5,2.4-51.8,15.4-67.2c9.8-10.1-11.3-14.8-16.7-20.8c-7-3.3-19.1-16.9-26.2-14.3c-2.4,0.8-1.9,4.6,0,6.1
				c11,8.2,22.1,16.1,33.3,24c1,0.7,2.3,0.5,0.6,2.1c-13.5,14.7-45.7,50.1-28.7,69.3c13.2,8.3,28.1,13.2,43.6,14.4
				c32.3,3.5,66.1,2.5,97.4-7.3c11.3-3.7,23-14.4,31.1,4.7c1.1,2.6,0.5,3.6-0.7,4.3c-28.2,15.5-40.2,43.2-23.6,73.1
				c-48.6-12-97.3,13-128.7,49.5c-3.3,3.8-9,7.7-4.3,14.8c11.6,17.8,27.5,31,44.7,42.8c3.1,2.1,2.9,2.7,0.3,4.6
				c-7.4,5.5-11.3,13.9-16,21.4c-22.2,30.8-4.6,80.2-39.6,101.8c-3.1,1.6-9.3,0.3-9.2,5.9c0,3.6,4.8,1.5,6.4,3.2
				c36.7,29.8,89.3,32.2,132.8,17c25.2-8.7,50.7-18.2,68.6-39.9c0.6-0.8,0.9-2.5,3.2-0.5c9.9,8.6,19.7,17.5,32.2,22.3
				c7.6,2.9,14.7,10.3,23,7.9c15.8-4.5,27.8-16.1,40.6-25.7c14.2-10.6,28.1-22.1,36.1-38.8c0.8-1.7,2.3-0.5,4,0.1
				c21.2,10.8,45.7,9.9,66.9,20.2c30.7,14,54.5-4.7,81.1-20.6c-9.3,9.2-11.5,19.1-13.6,27.8c-11.6,39.9-13.9,83.6,0.3,123.1
				c4.9,17.8,17,32.6,25.7,48.8c1.3,2.4,2.8,1.5,4.5,0.4c20.8-16.9,53.9-11.9,79.6-15c13-0.6,27.6,1.5,38.7-9.3
				c1.4-1.4,4.1-2.4,6.4,0.4c15.6,19.3,35.4,33.2,58.8,40.6c44.6,16.1,93.3,12,139.8,8.1c2.7-0.3,6.8-0.5,8.9-5.7
				c4.1-10.1-5.9-10-8.9-14.7c-17.5-33.5-12-72.1-8.9-108c0.1-3.2,0.4-5.8,5.4-5.5c6.2,0.2,12.4-0.6,18.4-2.2
				c18.3-4.7,32.9-16,46.9-28c3.5-3,9.2-5.5,7.7-11.5c-1.7-7.7-12.3-1-18.6-8.1c-12.3-10.3-16.7-25.4-24-39
				c-9.9-18.3-21.6-35.5-34.9-51.4c-36.3-49.8-80.1-32.9-60-52.2c11.5-12.3,29.2-20.3,28.8-41.1c0-2.4,2.1-0.4,2.9,0.6
				c10.3,13,23.3,23.3,36,33.7c3.9,3.2,9.6,9.3,14.5,4.1c13.3-14.1,26.5-28.6,32.2-48.1c0.5-1.8-0.5-8.6,5-6.1
				c9.1,4.1,17.6,0.6,25.7-1.8c19.8-5.8,39-18.9,59.8-2.8c8.5,0.6,2.9-6.6-1.4-9.1c-26.6-22.7-54.1,10.6-83.2,4.9
				c-12.3-3.2-12,2.4-13.6,12.6c-4.9,15-15.8,26.1-24.6,38.7c-2.9,4.1-5.7,4.9-8.2,2.3c-18.7-19.2-39.7-36.5-53.6-59.8
				c-16.1-22.1,18.4,7,34.4-62c6.7,13.5,6.2,27.7,9,41.1c-3,8.1-9.7,14.9-13.1,23c-1,2.1-4.7,6.3-0.6,8.3c7.5,3.7,13.1-19,17.3-25.8
				c3.4,9.6,4.5,37,13.4,36.9c3-0.3,1.4-4.7,1.1-6.9c-2.8-21.5-12.8-41.5-12.5-63.3c7.8,5.9,16.1,12.5,24.8,18.5
				c3.1,2.1,6.9,5.7,11,1c-8.7-16.9-43.1-20.1-42.3-47.5c0-3.5,13.2-25,16.3-23.4c7.9,4,17.5,5.5,23.1,12.8
				c12.1,15.9,22.4,33,32,50.6c1.8,3.3,4.3,8.2,9.7,7.3c0.8-0.1,2.3-4.4,1.6-5.2c-10.7-15.4-18.3-32.8-29.4-47.7
				c25.3,9.9,49.7,26.4,71.5,43.5c3.5,2,22.8,21.8,24.4,16.7C980.8,1129.6,978.5,1127.7,976.8,1125.8z M640.2,403.1
				c-7.7-8.5,4-14.1,7.9-20c8.3-12.3,15-25.1,18.9-39.4c0.3-1.3,0-2.8,2-2.7c15.6,1,31.3-0.1,46.6-3.1c5.5-1,8.5,9.8,8,15.3
				c-1.2,15.3-14.9,26.3-16.3,41.9c-0.5,14.4-4.6,28.9-21,27.9C667.6,421.9,651.8,415.8,640.2,403.1z M556.1,435.2
				c-42.4,6.8-84.6-12.2-101.6-53.5c-4.6-11.2-9.1-25.5-0.6-36.1c20.3-27,48.3,12.5,65.5,26.8c6.7,6,15.6,3.5,22.7,2.2
				c20.3-1.7,33.6-24.4,26.3-42.9c-3.7-11.8,2.1-18.6,8.8-24.7c21.7-17.1,10.1-48.4,32.8-53.8c26.6-4.8,40.5,37.6,47.8,56.8
				C665.9,365.9,610,426.5,556.1,435.2z M607.8,452c-2.4,8.9,0.1,19-11.2,20c-13.1,1.3-20-7.5-25.5-18
				c-10.3-19.3,12.8-8.8,14.9-16.9c4.8-0.8,9.5-3.9,14.2-5.6C602.9,438.7,605.5,445.9,607.8,452z M679.7,471
				c-3.5,0.1-5.4,0.9-3.5-4.9c9.9-22-2.3-34.3,6.3-33c7.8,0.9,14.3-2.1,21.1-5.5c9.3-4.6,6.2,4.1,7.3,7.1
				C710.9,450.3,693,470.6,679.7,471L679.7,471z M782.2,223c52.9-47.7,62.7-49.5,110.1,6.4c-13-7.8-20.1-16-30.7-18.9
				c-14.3-3.9-26.6-2.1-38.8,7.2c-16.2,12.5-32.5,24.7-47.4,39.7C784.2,227.4,764.9,232.2,782.2,223z M775.6,271
				c-1.5-7.3,5.8-9.8,9.7-13c16.6-13.7,32.8-28.4,51.8-38.7c25-12.2,46.1,18.3,65.8,29.9c-35.9-14.2-69.8-9.7-93.8,22.4
				c-7.5,10.1-13.8,21.2-21.2,31.4c-4.3,5.8-9.6-1.1-15.2,0.1C781,292.5,777.8,281.8,775.6,271z M770,311
				c17.2,0.1,39.8,17,42.8,32.1c2,10.1-6.7,16.1-11.4,23c-16.3,20.9-3.5,53.1-18.8,65.1c-21.4,12.7-50.5,0.1-65.7-17.1
				c-3.3-3.8,0.8-13.9,1.1-21c0.6-16.8,23.3-30.6,12.8-47.4c-8.7-9.2-2.3-13.3,5.4-16.5c9.6-4,18.6-9.3,26.8-15.6
				C765.3,312,767.5,310,770,311L770,311z M693,217.1c8.4-4.3,17.8-4.7,27.4-4c24.1-3.7,51.9,14.9,46.1,41.3
				c-4.3,29.1,10.6,41.1-23.2,60.9c-21.5,13-45.3,14.7-68.8,19.1c-12.7,3.1,5.1-23.4-22.3-61.5c-2.1-3.3,0.4-4.5,1-6.3
				c3.3-9.4,6.9-18.6,10.7-27.8C669.3,226.1,682.2,222.8,693,217.1L693,217.1z M512.8,201.9c5.7-13.6,17.6-21.1,35.6-19.4
				c17,1.6,30.2-6.1,43.2-15.3c18.4-12.8,56.7-5.4,63.4,20.7c8.9,24.3,0.8,49.7-8.3,70.9c-4.9,5.5-17.3-29.1-45.7-14.4
				c-1.7,0.8-6.2-2.9-8.7-5.3c-12.1-11.5-38.5-12.6-53-4.4c-11.5,5.9-17.4,16.2-26.4,24.2C505.6,241.3,505.8,220.4,512.8,201.9z
				 M518.7,269.1c28.7-49.7,84.9-23.2,67.9-11.6c-4.7,8.2-4.7,17.5-7.3,26.1c-15.2,30.5-27,17.8-20.3,60c0.5,7.9-2.4,13.7-9.3,17.2
				c-27.7,15.5-47.8-37.8-78.9-34c-7.2,1-11.2-0.6-9.8-7.9c0-15,9.9-25.3,24.4-25.8C502,292.6,511,281.3,518.7,269.1L518.7,269.1z
				 M423.1,219.9c13.1-26.1,45.7-12.2,61.8,1.8c12.8,9.1,13.5,24,17.8,36.9c5.3,15.9-1.4,23.4-18.9,24.4
				c-22.6,1.4-34.7,23.9-29.3,43.7c0.8,2.8,0.9,3.5-1.4,5.5c-14.5,10.1-6.8,15.6-15.2,14.5c-26.5-11.4-69.1-41.9-47.9-74.3
				C404.3,256.8,414.9,239.2,423.1,219.9L423.1,219.9z M294.4,360c6.1,20.8-38.3,29.5-51.9,31.7c-51.6,8.1-100.4-22.4-150.5-26
				c-3.9-6.2,22.9-35,29.5-39c3.2-2.3-0.5-6-2.8-7c-32.3-15.7-58.7-40.9-77.5-71.1c25.5-6.5,49.8-14.2,71.3-29.9
				c22.8-14.9,47.5-33,76.5-30c12.4,3.8,11.6-8,13.7-14.3c9.6-28.9,23.4-55,47.2-74.8c0.8-0.7,1.6-2.7,2.9-0.1
				c7.2,14.9,20.5,24.3,32.3,34.8c39.8,34,87.4,62.3,107.5,113.3c1.2,2.8,0.6,6.2-1.7,8.3c-20.4,18.9-19.4,39.7-6.4,62.5
				c-15.4-2.7-29.4-11.8-46.4-7.7c-11,2.2-21.3-10.4-23.7-20.9c-3.6-16.1,5.2-27.6,9.4-41.3c3.8-12.6,8.4-46.6-4.4-54.9
				c-0.9,2-2.7,4.2-2.5,6.1c2.1,20.6,2.3,41.1-7,60.1c-10.3-37.3-23.1-71.6-41.1-105c-0.9-1.8-2-3.7-5-2.1c-3.3,1.8-0.7,3.2-0.1,4.7
				c9.3,24,20.5,47.3,27.3,72.2c-12.2-10.7-24.4-21.3-36.6-32c-3.4-4.1-7-5.5-12.2-3.6c15.3,22.5,38.9,38,55.3,59.5
				c8.4,10.8,4.4,29.4,9.4,42.3c-7.8-7.6-18-8.3-27.1-10.5c-22.8-5.5-44.7-10.8-61.8-29.6c-12.3-13.4-28.5-22.7-46.2-26.7
				c-3-1.8-7.4-6.6-9.2-2.5c-2.1,4.9,3.9,8.7,8.3,10.4c20.4,8.2,38.9,20.6,54.1,36.6c-22.8-3.5-43.6-6.5-66.2-8.2
				c-16-1.2-32-2.4-47.8-5.7c-2.4-0.5-5.4,1.8-8.1,2.8c2.2,5.4,7.8,6.1,12,6.7c24.4,2.9,48.4,6.2,73,8.5
				c-13.4,7.9-27.9,13.8-43,17.5c-3.3,0.8-2.6,3.7-2,4.5c10.2,7.7,45-16.3,58.6-17.9c10.4-2.7,23,1.6,34.4,3.9
				c20.2,4.2,40.3,9.2,62.2,14.3c-24.4,14.8-50.3,18.5-76.7,26.9c-3.2,0.9-6.8-2.6-9-4.1c-8.3-5.9-18.5-6.3-27.1-11
				c-1.7-1-5.2-1.6-6.4,1.7c-1.1,2.9,0.7,3.6,3.3,4.6c7.3,2.8,14.4,6.3,21.6,9.5c1,0.5,3.3-0.6,2.7,1.6c-0.3,1-2.1,2-3.3,2.3
				c-16.8,3.5-33.7,6.8-50.5,10.2c-0.9,0.2-1.6,1.4-2.3,2.2c2.3,1.3,5.1,4,6.9,3.5c12.8-3.3,26-2.3,39.1-6.4
				c13.1-4.3,28.3-4.2,41.4-9c1.4-1.3,4.4-1,6.8-1.4c0.5,3.8-3.6,3.3-4.9,5.1c-7.4,11.2-18.5,18.2-29.1,25.7
				c-2.5,2.9-17.9,7.9-15,11.7c1.2,1.6,2.5,3.3,5.3,2.1c50.6-20.3,35.4-42.5,94.2-63.8c7.3-4.8,17.1-6.3,22.3,1.8
				c-0.7,1.6-2.1,3.5-3.6,4.1C297.5,323,289.2,342.8,294.4,360z M314.7,454.5c-9.7-29.4,14.7-44.5-4.5-77.2
				c-15.2-30.1-4.4-58.1,29.5-58.4c37.2,0.9,61.9,22.5,92.6,36c10.6,3.5,8.6,13.5,10.1,20.5c3.4,23.9,23.7,35.8,11.9,37.5
				c-23.9,4.9-43.1,19.2-63.6,31.2C366.3,461.6,337.6,496.8,314.7,454.5L314.7,454.5z M477.5,554.4c-10.8,18.1-25.9,29.3-50.1,28.7
				c-10,1.8-17.4-4.3-23.6-13.7c-8.9-13.4-22.4-21.9-35.7-30c-58.7-41.7,43-99,77.8-115.7c14.5-7.2,25.8-2.2,36.3,7.6
				c2.5,2.4-1.4,6-10.6,9.7c-16.1,6.5-37.1,41.5-33.5,58c2.5,11.3,11.8,17.8,22.7,20C480.3,522.8,487.6,537.3,477.5,554.4z
				 M511.1,524.2c-7.6,6.5-16.2,9.1-22.5,1.1c-8.7-11-21.6-12.5-32.7-18.2c-17.7-9.6-6.1-34.2,5.7-44.2c10.2-9.2,18.6-22,33-23.4
				C552.3,441.3,543.7,491.1,511.1,524.2z M571,526.5c-18.3,25.3-27.6,84.8-11.3,112.9c-52.2-29.9-45.3-97.1-19.4-142.8
				c4.4-9.7,11.4-8.1,15.8-4.9c6.1,4.5-2.7,8.7-4.6,11.8c-9.7,15.4-12.5,32.7-16.9,49.7c-1.2,4.8,1.8,9-0.4,13.3
				c-0.2,0.4,1,1.5,1.5,2.2c1.8-2.5,4.7-4.9,5.2-7.6c3.5-20,8.9-39.3,18.6-57.1c1.3-2.3,3-9.3,8.8-5
				C582.5,509.4,582.1,511.7,571,526.5z M612.9,510.7c-31,11-32.5-31.9-63.6-29.7c-9.4,2,0.8-23-9.6-33.1
				c19.6-3.5,20.9-1.9,27.4,14.9c9.1,18.9,32.9,25,44.2,10.9c4.9-6.2,6-31.9-0.8-41.7c-7-9.2,2.9-6.6,6.3-12.6
				c16.5-24.4,24.7,6.3,48.2,10c7.6,1.6,5.9,10.1,5.5,14.1C671.2,477.6,648,507.3,612.9,510.7L612.9,510.7z M697.6,781.3
				c19-81.9-5.8-172.7-53.8-240.5c-4.8-7.5-10.7-14.2-17.6-19.8c-7.1-4.1,23-9.5,34.5-25.1c3.5-3.8,5.6-1.7,7.4,0.7
				c17.5,22.4,35.2,44.7,47.4,70.7c41.9,80.2,46.1,174.3,17.4,259.6c-0.8,2.6-2.4,2.5-3.6,1.8c-16.7-10-32.5-6.3-47.8,3.2
				C686.8,814.7,693.5,798.6,697.6,781.3L697.6,781.3z M699.6,834.2c1.5-0.5,3.1-0.9,4.7-0.9c21.1-0.9,31.6,12.6,44.7,20.7
				c8.4,5.2,17.6,9,22.9,18.7c8,15.5,0.2,41.3-13.4,52.1c-13,18.2-30-7.7-48.3-2.1c-5.1,0.8-7.8,0.3-7.1-5.9
				c3.3-32.4-60.6-28.6-51.2-40.8C667.3,861.6,677.9,841.5,699.6,834.2L699.6,834.2z M549.5,1206.9c-1.3-11.1-4.3-21.2-11.4-29.8
				c-2.1-2.6,0.8-2.8,1.5-3.6c12.6-15,30.7-20,48.1-26.4c20.5-7.5,27.2-32.2,14.2-49.5c11.5-4.5,7.7,7.8,11.8,11.5
				c18.9,17.6,42.7,29.2,68.8,28.4c5.4,0.3,2.9,6.6,2,8.7c-5,11.1-12.6,18.3-25.7,21.4c-42.7,14.4-44.8,55.3-106.6,49.3
				C545.8,1216.1,549.8,1210,549.5,1206.9z M419.2,1112.7c11.9,8.8,26.1,12.2,40,16.3c3.1,0.9,1.6,3,1.1,3.7
				c-3.1,4.1,2.3,15.3-9.8,12.1c-12.5-3.3-24.5-8.1-35.8-14.3c-11.2-6.1-12.4-17.2-13.4-27.7c-7-44.9,33.9-77.3,65.6-102.5
				c1.5-1.3,3.4-1.7,5.3-1.3c20,3.7,39.2,0.7,57.7-7.6c1.9-0.9,4.5-0.3,7-0.4c-4.6,8.9-2.8,51.5,4,61.5c-12.3-0.5-23.8,11-25.6-8.2
				c-1.7-10.6-8.9-19.5-9.3-30.5c0-0.9-2.3-1.8-3.5-2.7c-9.2,8.9,7,40.5,12.2,48.9c-8.3,2.5-11.4,13.5-16.4,3.4
				c-7.9-13.1-15.3-26.5-21.2-40.6c-1.5-4.1-6.4-5-6.1,0.5c2.3,18.2,12,33.1,21.9,47.9c1.3,2,2.6,3.6,0,4.8
				c-3.2,1.5-4.2,9.5-9.3,4.7c-11.9-11.3-24.1-22.5-32.8-36.8c-1.9-3.1-5.3-4.6-8.4-3c-4,2,0.4,4.6,1.1,5.9
				c9,14.9,19.6,28.5,33.3,39.8c6.5,5.3-2.3,8.9-4,13.2c-1.3,3.2-3.6,0.1-5.7-1.2c-11.2-7.4-22.6-14.4-34-21.6
				c-3.6-2.3-7.1-4.8-10.9-6.8c-5.1-2.6-7.4,2.2-3.4,5.4c12.8,9.2,25.9,17.9,38,27.9c3.3,2.7,13.9,0.7,8.7,11.6
				c-5.8,12.1-12.2,1.8-17.5,0.9c-9.1-1.6-17.8-5.8-26.6-9C416.6,1104.8,416.1,1110.6,419.2,1112.7z M396.8,1061.7
				c-4.7,3.3-10.9-4.1-16.3-6.8c-14.1-6.3-39.9-37.9-15.8-46.4c29.2-9,26.2-50.9,58.6-53.8c15.8,3,26.4,12.5,33.6,26.1
				c2.3,4.3,9,9.2,5.6,13c-16.2,16-37.8,27.1-49.7,47.6C408.4,1048.7,403.6,1056.9,396.8,1061.7L396.8,1061.7z M466.9,1147.6
				c0.9-40,28.9-72.5,65.6-87.1c11.8-4.3,15.6,5.2,21.8,10.8c10.9,9.7,23.5,17.1,37.2,21.9c4.9,1.7,9.9,22.4,8.6,28.1
				c-4.6,19.3-22.3,20-36,25.2c-12.8,4.9-22.6,13.1-31.5,22.5C510.6,1197.3,463.1,1184.7,466.9,1147.6L466.9,1147.6z M565.3,1069.1
				c-26.1-19.1-26.4-55.4-19.8-83.7c3.7-11.7,15-17.8,25.1-24.5c11.2-7.3,23.1-11.8,35.8-15.4s44.6,11.9,44.5,24.6
				c-4.3,9.8-4,21.5-4.1,33.2c-0.1,9.8,7.3,17.7,6.3,27.9c-0.7,7.2-1.7,13.7-7.8,18.3c-9.9,7.4-8.7,19.7-13,29.5
				C620.1,1105.5,581.7,1079.2,565.3,1069.1L565.3,1069.1z M648.1,950.8c-15.5-14.3-38.7-16.3-58.6-10.4c1.3-15.6,6.5-37.6-4.4-51
				c-12.1-14.4,4.4-17,10.2-19.7c18.8-8.9,22.8-5.6,35.5,8.8c8.2,9.2,19.6,15,31.8,16.2c18,2,32.4,12.3,29.9,26.2
				c-2.5,13-15.3,20.9-25.2,28.6C661.4,959,655.3,958.3,648.1,950.8L648.1,950.8z M582.5,922.1c7,31.1-30.8,30.8-42,54.4
				c-7,13-21.6,10.5-33.1,14.3c-3.8,1.3-8.1,2.3-12.1,1.9c-10.1-0.9-22,5.6-27.1-12.2c-3.5-12.2-13.2-22.6-12.3-36.9
				c0.6-10.1,10.6-17.8,20.6-16.6c17,2,32.8-1.4,47.1-11.8C548.5,894.5,585.7,866.6,582.5,922.1L582.5,922.1z M540.4,891.2
				c-12.5,6-21,17.9-34.6,23.1c-24.6,9.2-56.5-7.7-59.2,35.2c-6.1-17-11.8-31.1-16.3-45.7c-4.6-14.8,5-37,18-44.1
				c8.8-4.8,18-1.6,27-1.5c27.1,2.2,53.5-36.8,72.7-21.1c8,5.8,8.3,14.5,9.4,23.8C559.3,876.2,553.6,884.8,540.4,891.2L540.4,891.2z
				 M439,950.8c-21.8-10-49.7,4-56.1,27.5c-1.9,7.1-23.9,27.5-30.1,26c-8.1-1.9-14.5-8-21.2-13.1c-7.7-5.8-17.7-8.2-24.7-15.4
				c-17.1-17.6-16.6-43.5,10.7-52.9c20-6.9,35.4-17.2,50.1-33.5c16.2-18.1,45.2-15.8,54.5,15.8C426.6,920.5,433.2,935.2,439,950.8z
				 M338.9,1009.4c11.3,3.4,6.3,12.6,8.5,18.8c7.5,21.1,25.5,34.9,46.2,41.5c4,1.2-0.1,7.1-0.3,10.7c-5.7,45.5,17,48.2-1.1,57.3
				c-14.5,9.5-28.8,20.3-49.6,19.5c-29.3,1.9-54.5-19.9-52.5-51.2c-1.4-17.3-12.8-28.8-23.7-40.2c-22.3-23.3-10.3-49.7,14.1-60.6
				C300.8,996.1,319.6,1003.6,338.9,1009.4L338.9,1009.4z M403.9,1135.5c0.3-0.6,4.5,0.8,6.5,1.9c14.4,8.3,29,15,46.2,16.3
				c5.7,0.4,3.4,10.2,6,15.5c11.5,24.3,43.8,32.5,64.4,14.8c4.4-3.6,9.9,1.6,11.7,12.4c4.2,17.3,4.6,44.6-11.3,57.2
				c-17.9,14-54.5-14.8-84.7-5c-26.1,6.1-45.9-1.5-58.4-26.3c-4.9-9.8-2.8-22.3-0.7-33.6C386,1169.1,392,1151.2,403.9,1135.5
				L403.9,1135.5z M627.3,1108.7c-3.6-2.4-6.5-5.9-10-9.3c32.4-5.9,20.7-25.7,32.6-42.1c14.7-12.2,15.8-27.1,8.9-43
				c-6.6-15.3-2.3-29.8,0.4-44.7c1.5-7.9,9.4-10.1,14.5-13.6c8.9-6.2,16.9-13.7,23.7-22.1c5.2-6.3,14-3.8,20.1-2.3
				c22.9,5.8,40.7,18.7,47.2,42.7c6.5,28.5-28.4,34.8-26.1,68.6c-0.9,22.7,0.9,46.4-15.2,65.8C697.8,1136.8,655,1128.9,627.3,1108.7
				L627.3,1108.7z M610.7,781.8c9.8,8.5,21.6,11.1,33.6,12.8c36.1,13.8,17.8,52.7,0.5,74.6c-3.4,4.8-6.2,5.1-9.8,0.6
				c-15.8-19.5-48-16.2-60.5,6c-1.1,1.9-2.3,4.4-5.4,3.8c-4-0.7-2.1-3.5-2-5.5c2.5-20.8-2.6-52.7-30-51.3
				c-18.9-0.7-39.8,28-42.8,11.3c-12-25.8,4.4-50,32.6-49.3C567.8,791.3,577.5,755,610.7,781.8z M329.7,802.3
				c-8-8-15.3-16.7-22.9-25.1c-2.3-2.5-0.1-4.2,1.5-5.3c12.4-8.6,24.8-17.3,37.5-25.4c10.3-6.5,4.5-14.7,2.3-21.7
				c-11-34.4-10.6-70.8-7-106.1c0.5-5.2,0.7-11.6,4.6-15.5c21.2,24.5,49.7,42.3,80,53.8c29.4,7.6,62.9,11.5,79.7,40
				c8.7,13.9,15.5,3.4,23,1.1c13.8-4.1,27.2-9.1,41-13c5.3-1.5,5,5.1,5,7c1.2,24.1,1.7,48.5-5.9,71.7c-2.9,8.8-14.1,9-21.7,10.6
				c-16.5,1.8-34.3-1.2-49.2,9.3c-1.3-6.7,14.7-26,21.5-26.9c12.3-1.5,24.5-3.8,36.7-6c1.9-0.3,4.3-2.9,2.8-4.3
				c-10.3-9.6-28.7,4.2-40.4,1.5c5.5-8.8,12.9-16.5,19.5-24.4c2.2-2.5,0.6-4.3-0.4-5.7c-2-2.8-3.3,0.7-4,1.4
				c-15.4,12.9-25.7,29.9-37.7,45.4c-8.4-12.6-10.1-28.9-19.4-41.4c-2.2-3.3-4.1-10.4-8.4-7.5c-4.7,3,0.1,8.9,2.1,13.1
				c6.7,14,15,27.4,20.3,41.9c2.7,7.3-5.7,14.3-8,21.8c-0.4,1.4-1.4,2.6-2.8,5c-18.1-33-45-59-67.6-88.7c-6.6-9.3-2-20.8-3.1-30.9
				c-1.8-4.9,3.9-15-4.1-14c-7.7,3.1-3.5,24.1-3.6,33.6c-8-8.1-37.9-56.8-43.4-51.3c-7,5.8,36.5,54.2,42.2,63.9
				c3.5,4.5,9.5,7.1,9.5,14c-6.2-0.6-48.9-19.3-47.7-10.8c0.3,5,5.6,6.4,9.6,7.5c15.7,4.4,31.4,8.9,47,13.3
				c7.8,2.2,12.8,14.5,19,22.3c8.7,10.8,17.3,21.6,26,32.4c1,1.3,2.5,2.6,0.9,4.2c-14.5-5.4-28.9-13.1-45.1-14.6
				c-9.5-1.2-13-13.6-18.3-20.6c-3.6-2.6-6.5-10.1-10-7.7c-4.7,3.2,1.3,7.3,3.3,11.1c2.5,4.6,4.7,9.3,10.6,14.3
				c-7.9,0.3-37.3-7-35.5,2.7c0.3,5.1,6.9,4.7,10,4.5c16.1-1,30.9,5.6,46.6,6.7c4.4,0.3,8.7,3.2,13,5c-25.5,10.5-40.7,4.9-65.7,0.5
				C347.5,791.3,343.9,817.8,329.7,802.3L329.7,802.3z M275.4,866c4-7,11.5-6.1,17.2-6.4c42.8-1.3,36.4-55.3,80.2-56.1
				c7.1-0.7,14.6,4.1,22.1,5.4c16,2.8,31.5-2.3,47.2-4.1c18.6-1.9,37.7,13.5,42.3,30.9c1.2,3.4,4.8,7.8,1.8,10.3
				c-2.8,2.3-8.3,2.9-12,2c-22.2-5.7-44.8,7.7-50.5,29.9c-0.6,2.4-1,4.8-1.2,7.2c-17-26.6-60.4-17.3-72.5,9.8
				c-11.3,19.2-43.5,10.3-58.1,35.9C276.1,910.5,259,891,275.4,866z M177.5,1051.8c-7.6-11.6-3.8-30.8,5.3-41.7
				c11.2-13.5,17.1-29.5,20.5-46.8c2.8-36.7,26.9-65.5,64.7-45.1c36.8,23.9-0.3,49.9,48.3,75c-13.2-0.5-24.4-0.6-35.9,1.5
				c-21,3.8-41.4,34.7-34,54.4c1.1,3,0.7,3.2-3,3.3c-18.9,0.5-37.4,2.8-55.3,10.2C181.1,1065.3,180.1,1055.6,177.5,1051.8
				L177.5,1051.8z M181.2,1076.7c18.1-11.4,39-13.6,58.3-15.8c15.9-1,18.8,13.2,27.1,20c16.2,13.4,11.7,34.7,18.1,52
				c21,38.4,64.1,40,99.9,20.7c-7.8,14-10.8,30-11.2,45.7c-0.3,9.7-2.5,16.3-10,22.8c-10.3,9-18.9,19.8-28.4,29.7
				c-18.8,19.6-55.9,30.4-64.1-4.4c-15.4-54.9-77.1-36.4-98.7-74.3c-4.2-9.2-2.2-20.3-7.1-29.7
				C147,1116.9,154.1,1091.5,181.2,1076.7L181.2,1076.7z M330,1332.1c-9.9,10.7-19.6,22.5-31.8,29.7c-11.6,6.9-20.7,18-33.8,21.9
				c-9.5,2.8-40-25.5-51.1-31c-9.1-5.7-11.1,5.1-15.4,8.8c-34.9,28.7-87.3,45.1-132.2,38c-18.1-3.3-35-11.3-52.5-15.5
				c44.7-17.8,20.2-88.1,57.1-124.8c14.2-7.4,6.5-12.1-1.5-18.3c-14-11-29.5-20.8-39.4-35.8c-5.5-8.4,5.9-12.5,10.3-17.2
				c7.5-7.9,16.7-14.6,26-20.4c26.5-17.3,59.7-24.2,90.5-16.3c4.6,0.8,4.5,5.7,4.5,8.3c-0.7,41.2,43.5,43.9,71.9,57.8
				c2.6,1,2.3,1.8,0.7,4.6c-9.5,16.7-21.3,8-33.4,4.3c-12.7-3.8-25.6-7.4-39.3-7.7c-5.8-0.1-12.2-1.7-16.1-9.6
				c-4.9-12-41.9-38.4-53.3-27.5c-0.6,2.5,1.4,3.3,3.5,3.9c16.7,4.8,30.7,13.8,43,27.8c-13.1,0.2-47.3-14-54.6-4.8
				c-0.6,3,2.1,4.2,4.2,4.7c25.9,5.1,51.8,8.7,77.5,14.8c-14,2.8-26.2,12.5-41.5,9.5c-9.1-2.1-12.6,9.3-0.9,7.9
				c19.5,2.7,36.6-4.8,53.6-12.5c11.9-5.3,20.6,3.8,30.9,5.7c14.3,4.8-40.6,45.3-45.6,53.1c-2.3,2.5-5.7,3.8-9.1,3.6
				c-21.1-0.4-41.6,2.8-60.9,11.9c-3.9,1.8-8.4,4.3-6,8.8c2.1,4,6.7-0.3,8.9-1.4c16.5-8.6,34.3-9.9,55.4-11.9
				c-27.4,23.1-51.8,38.6-76.9,61.8c-1.4,1.3-4.7,2.3-3.3,4.6c1.7,2.7,5,1,6.7-0.2c21.5-15.2,42.8-30.7,64.5-46.3
				c1,17-11.3,29.5-19.9,42.6c-1.9,2.8-7.5,5.9-3.1,9.1c8.6,5.6,22.9-25.6,27.1-31.9c4-7.9,5.2-16.9,3.4-25.5
				c-0.6-3.4,8.3-8.7,13-13c9.1-8.2,17.8-16.7,27.3-24.3c0.1,2.5,1,5.2,0.3,7.4c-4.4,14.2-3.3,29.7-9.8,43.4
				c-2.7,5.8-5.6,11.6-7.8,17.6c-0.7,1.8-4.7,4.4-0.6,6.1c13.5,2.1,22.3-43.5,24.6-54.4c1.6-9.1,2.4-18.4,2.3-27.7
				c0-3.4,4.6-7,7.4-10.2c1.7-1.8,3.5-3.4,5.5-4.8c4-3.1,6.9-11.4,11.9-8.6c6.1,3.5,5,12.1,4.5,19c-2.8,22,5.8,42.4,15,61.9
				c0.5,1.1,2.6,1.4,3.9,2.1c4.5-11-5.8-21.2-7.3-32.2c-1.7-8.7-0.3-16.9-2-28.5c7.3,10.4,35.9,68.4,43.1,63.8
				c2.5-11.3-20.8-40.2-26.1-52.3c3.9-1,25.5,8.2,32.1,12.8c3.9,2.7,8.7,3.9,13.1,5.7c2.8,0.5,2-4.6,1.2-5.2
				c-16-9.4-30.8-21.5-50.3-22.1c-3.6-0.1-2.8-2.9-3.7-4.2c-5.5-7.8-10.8-15.8-15.5-24.1c-6.6-11.8,6.8-13.4,11.2-18.8
				c3.2-3.8,6.9,2.2,9.9,5.5c7.7,8.5,10.3,19.6,15,29.5c13.3,25.6,44.5,19.2,63.6,3.9C312.3,1321.1,351.7,1315.8,330,1332.1z
				 M462.2,1336.9c-28.9,21.1-57.9-9.2-88.5-9.3c-49.5-4.6-45.5-59.3-17.2-87.1c4.6-5.5,10.2-10.2,15.1-15.5c2.8-3,4.2-1.4,5.1,1.2
				c7.3,20.7,25.1,29.3,43.8,34c10.5,2.6,22.8-2,34.3-3.2c29.7-4.3,61.6,26,86-2.6c0.2,12,4.8,22.5,3.8,33.9
				c-0.8,9.5-12.6,24.3-22.3,24.4C499,1313.1,480.6,1324.9,462.2,1336.9L462.2,1336.9z M772.8,1249.3
				c48.2,19.1,69.7,68.7,93.1,110.8c4.9,7.6,10.4,17.6,21.9,19.1c1.2,0.2,2.3,1.6,3.5,2.5c-3.4,2.9-6.3,6.8-10.2,8.6
				c-10.5,4.9-18.9,13.4-31.3,15.2c-9.3,1.4-18.4,3.8-27.9,3.3c-3.7-0.2-5.4,1-4.8,4.8c3,17.3-4.3,33.9-3.8,51
				c0.2,8.9,3.3,17.8,3.1,26.6c-0.1,18.3,3.6,38.3,17.7,51.4c-54.9,4.9-112,8.3-161.1-20.3c-14.6-7.2-28.8-33.1-46.8-23.3
				c-32.2,13.3-70.8-1.1-102.2,12.8c-17.3,8.6-16.4-5-20.6-12.2c-30.6-51.8-29.2-119.8-0.3-172c11.5-12,35.6,5.7,49-33.5
				c1,0.7,2.6,1.1,3,2.1c8.6,20,33.1,29.6,53.2,23.1c-18.5,28.9-56.8,35-73.8,65.9c-2.4,6.1-18,18.6-13.9,24.6
				c1.6,2.2,2.7,0.7,4-0.3c10.4-8.3,15.8-20.9,25-30.2s18.7-18.8,32.5-25.5c-21.6,34-40.3,66.4-46.7,105.1c-1,1.7,1,2.6,2.5,2.6
				c8.3-1.5,7.8-20.8,12-27.7c5.6-13.7,11.4-27.2,18.9-40.8c3.8,15.5,2.8,30.7-0.3,45.8c-0.6,6-6.5,21.3-1.4,25.2
				c10.5-1.7,13.5-52.4,12.1-62.3c-0.8-8.5-7-17.2-1.4-25.4c13.9-20.2,29.1-39.6,44.3-58.9c1.5-2,2.5-2,4.2,0.1
				c6.9,8.7,14.6,16.9,21.5,25.7c5.5,7-0.7,14.4-0.9,21.6c-0.3,11.1-4.1,22.1-5.2,33.2c0,13.3-6.8,48.9,3.2,57.2
				c6.8-10.2,0.5-33.1,4.5-46.9c11.2-76.4-1.5-58.7,46.1-4.6c4.6,5.7,3.5,16.9,3.9,25.1c1.1,24.7,8.4,47,23.5,66.7
				c6.7,11.7,11.4,0.8,5.6-6.1c-12.7-19.3-18.9-40.3-20.5-62.9c25.7,23,50.7,46.7,76.9,69c2.5,2.1,6.1,3.5,8.1,1.3
				c2.2-2.5-0.6-5.3-2.8-7.5c-30.6-30-60.7-61.2-88.5-93.7c26.2-3.2,47.5,9.9,68.5,21.9c2.2,1.3,4.7,5,6.9,2.2s-0.7-6.4-3-8.1
				c-23.4-18.4-52.6-26-81.6-29.1c-6.3-1.7-10.5-11.1-15.6-17.2c-10.3-13.1-22.2-25.2-31.2-39.2c19.8-3.9,39.5-2.3,59.3-1.2
				c10.6,0.4,15.8,6.4,21.2,12.6c6.4,8.1,41.8,39.1,50.6,30.4c1.9-3.9-2.8-5.4-5.1-6.4c-16.2-7-28.3-18.9-42.1-33.3
				c16.5,4.8,31.6,4.4,45.7,10c16.4,6.5,33,12.8,49.6,19c1.1,0.4,2.8-0.7,4.1-1.1c-0.8-1.5-1.1-3.8-2.3-4.5
				c-14.4-7.7-29.5-13.6-44.6-19.7c-19-7.7-39.5-7.9-58.7-14.1c18.6-13.4,43.1-19.5,66-18.6c3,0.2,8.5,4.6,8.5-1.5
				c0-4-6.1-6.1-11.1-6.6c-40.5-6.3-70.8,32.4-111.1,22.4c-11.6-2.8-23.2,2.4-34.7,4.4c-6.4,1.2-5.5-5.3-11.5-5.1
				c21.7-8.1,42.5-7.2,62.9-9.9c30.7-3,47.6-30.4,61.8-54.5C756.9,1244.1,766.3,1246.9,772.8,1249.3L772.8,1249.3z M784.8,1166.9
				c5.5,10,1,32.8-10.2,40.6c-35.8,27.4-39,89.9-96.1,87.5c-22.2-0.1-44.1,4.4-64.4,13.5c-23.7,10.7-47.8-1.1-57.1-26.9
				c-4-11.1-9.1-21.8-7.7-35.6c-1.8-14.6-3.3-23.6,14.1-18.8c51.1,4.5,62.3-38.7,103-51.8c36.2-10.8,19.7-39.4,31.6-40.7
				c4.9-1.2,9.5-3.2,13.8-5.9c17.1-10.2,24.8,8.2,37.2,12.2C763.4,1145.8,776.7,1152.1,784.8,1166.9L784.8,1166.9z M836.2,1051
				c-35,26.8-15.1,85.6-72.8,85.4c-9.2-2.1-21.4-9.5-33.3-17.5c-2.1-1.4-0.1-1.7,0.5-2.3c14.7-15.2,18.8-34.3,18.2-54.3
				c-0.7-21.3,1.7-40.2,19-55.7c14.7-13.2,11.2-43.5-5.5-59.3c-14.7-12.8,8.5-12.5,16.8-35.1c5.7-11.5,13.6-4.8,19.2-2.4
				c18.4,7.9,22.7,18.9,23.2,39.4c-0.4,24.2,17.4,43.9,29.1,63.8C854.7,1019.9,845.7,1042.6,836.2,1051z"/>
		</g>
	</g>
</g>
<g>
	<g id="Layer_1_2_">
		<g transform="matrix( 1, 0, 0, 1, 0,0) ">
			<g>
				<g id="Layer0_0_FILL_1_">
					<path d="M52,1548v15l-37,37h946l-37-37v-15H52 M52,52V37.7L14.3,0H0v1600h15l37-37v-15V52 M924,52V37.7L961.7,0H14.3L52,37.7
						V52H924 M976,0h-14.3L924,37.7V52v1496v15l37,37h15V0z"/>
				</g>
			</g>
			<g>
				<path id="Layer0_0_1_STROKES_1_" class="st4" d="M961,1600h15V0h-14.3L924,37.7V52v1496v15L961,1600H15H0V0h14.3h947.4 M52,52
					V37.7L14.3,0 M15,1600l37-37v-15V52h872 M924,1548H52"/>
			</g>
		</g>
	</g>
</g></symbol>
</defs>
<rect x="0" y="0" width="476" height="464" fill="#1b5e3a" rx="16"/><rect x="20" y="20" width="436" height="424" fill="#2d7a4f" rx="12" stroke="#1a4a2e" stroke-width="2"/><g class="hand" data-zone="Player 1 — 2 cards (visible)"><g data-card="July — Plain 1"><use href="#piece-hanafuda-traditional-Hanafuda_July_Kasu_1_Alt" x="192" y="50" width="44" height="64"/></g><g data-card="June — Plain 1"><use href="#piece-hanafuda-traditional-Hanafuda_June_Kasu_1_Alt" x="240" y="50" width="44" height="64"/></g></g><text x="238" y="44" text-anchor="middle" font-size="11" fill="rgba(255,255,255,0.6)" font-family="system-ui">Player 1 (2)</text><g class="hand" data-zone="Player 2 — 2 cards (hidden)"><rect x="342" y="200" width="44" height="64" fill="#2a3a6a" rx="3" stroke="#1a2a4a" stroke-width="1" data-card="Face down"/><rect x="390" y="200" width="44" height="64" fill="#2a3a6a" rx="3" stroke="#1a2a4a" stroke-width="1" data-card="Face down"/></g><text x="388" y="194" text-anchor="middle" font-size="11" fill="rgba(255,255,255,0.6)" font-family="system-ui">Player 2 (2)</text><g class="hand" data-zone="Player 3 — 2 cards (hidden)"><rect x="192" y="350" width="44" height="64" fill="#2a3a6a" rx="3" stroke="#1a2a4a" stroke-width="1" data-card="Face down"/><rect x="240" y="350" width="44" height="64" fill="#2a3a6a" rx="3" stroke="#1a2a4a" stroke-width="1" data-card="Face down"/></g><text x="238" y="428" text-anchor="middle" font-size="11" fill="rgba(255,255,255,0.6)" font-family="system-ui">Player 3 (2)</text><g class="hand" data-zone="Player 4 — 2 cards (hidden)"><rect x="42" y="200.00000000000003" width="44" height="64" fill="#2a3a6a" rx="3" stroke="#1a2a4a" stroke-width="1" data-card="Face down"/><rect x="90" y="200.00000000000003" width="44" height="64" fill="#2a3a6a" rx="3" stroke="#1a2a4a" stroke-width="1" data-card="Face down"/></g><text x="88" y="278" text-anchor="middle" font-size="11" fill="rgba(255,255,255,0.6)" font-family="system-ui">Player 4 (2)</text><g data-zone="Draw pile — 40 cards remaining (face down)"><rect x="211.5" y="195.5" width="44" height="64" fill="#2a3a6a" rx="3" stroke="#1a2a4a" stroke-width="1"/><rect x="213" y="197" width="44" height="64" fill="#2a3a6a" rx="3" stroke="#1a2a4a" stroke-width="1"/><rect x="214.5" y="198.5" width="44" height="64" fill="#2a3a6a" rx="3" stroke="#1a2a4a" stroke-width="1"/><rect x="216" y="200" width="44" height="64" fill="#2a3a6a" rx="3" stroke="#1a2a4a" stroke-width="1"/><text x="238" y="235" text-anchor="middle" font-size="11" fill="rgba(255,255,255,0.85)" font-family="system-ui" font-weight="bold">40</text></g><text x="238" y="458" text-anchor="middle" font-size="9" fill="rgba(255,255,255,0.3)" font-family="system-ui">Hanafuda 48 · seed: 42</text>
</svg>