<svg xmlns="http://www.w3.org/2000/svg" viewBox="0 0 1132 880" width="1132" height="880">
<rect x="0" y="0" width="1132" height="880" fill="#1b5e3a" rx="16"/><rect x="20" y="20" width="1092" height="840" fill="#2d7a4f" rx="12" stroke="#1a4a2e" stroke-width="2"/><g class="hand" data-zone="Player 1 — 7 cards (visible)"><g data-card="July — Plain 1"><image href="../pieces/sets/hanafuda-traditional/Hanafuda_July_Kasu_1_Alt.svg" x="400" y="50" width="44" height="64" preserveAspectRatio="xMidYMid meet"/></g><g data-card="January — Plain 2"><image href="../pieces/sets/hanafuda-traditional/Hanafuda_January_Kasu_2_Alt.svg" x="448" y="50" width="44" height="64" preserveAspectRatio="xMidYMid meet"/></g><g data-card="June — Plain 1"><image href="../pieces/sets/hanafuda-traditional/Hanafuda_June_Kasu_1_Alt.svg" x="496" y="50" width="44" height="64" preserveAspectRatio="xMidYMid meet"/></g><g data-card="May — Plain 1"><image href="../pieces/sets/hanafuda-traditional/Hanafuda_May_Kasu_1_Alt.svg" x="544" y="50" width="44" height="64" preserveAspectRatio="xMidYMid meet"/></g><g data-card="February — Poetry Ribbon"><image href="../pieces/sets/hanafuda-traditional/Hanafuda_February_Tanzaku_Alt.svg" x="592" y="50" width="44" height="64" preserveAspectRatio="xMidYMid meet"/></g><g data-card="September — Sake Cup"><image href="../pieces/sets/hanafuda-traditional/Hanafuda_September_Tane_Alt.svg" x="640" y="50" width="44" height="64" preserveAspectRatio="xMidYMid meet"/></g><g data-card="June — Blue Ribbon"><image href="../pieces/sets/hanafuda-traditional/Hanafuda_June_Tanzaku_Alt.svg" x="688" y="50" width="44" height="64" preserveAspectRatio="xMidYMid meet"/></g></g><text x="566" y="44" text-anchor="middle" font-size="11" fill="rgba(255,255,255,0.6)" font-family="system-ui">Player 1 (7)</text><g class="hand" data-zone="Player 2 — 7 cards (hidden)"><rect x="400" y="766" width="44" height="64" fill="#2a3a6a" rx="3" stroke="#1a2a4a" stroke-width="1" data-card="Face down"/><rect x="448" y="766" width="44" height="64" fill="#2a3a6a" rx="3" stroke="#1a2a4a" stroke-width="1" data-card="Face down"/><rect x="496" y="766" width="44" height="64" fill="#2a3a6a" rx="3" stroke="#1a2a4a" stroke-width="1" data-card="Face down"/><rect x="544" y="766" width="44" height="64" fill="#2a3a6a" rx="3" stroke="#1a2a4a" stroke-width="1" data-card="Face down"/><rect x="592" y="766" width="44" height="64" fill="#2a3a6a" rx="3" stroke="#1a2a4a" stroke-width="1" data-card="Face down"/><rect x="640" y="766" width="44" height="64" fill="#2a3a6a" rx="3" stroke="#1a2a4a" stroke-width="1" data-card="Face down"/><rect x="688" y="766" width="44" height="64" fill="#2a3a6a" rx="3" stroke="#1a2a4a" stroke-width="1" data-card="Face down"/></g><text x="566" y="844" text-anchor="middle" font-size="11" fill="rgba(255,255,255,0.6)" font-family="system-ui">Player 2 (7)</text><g class="community" data-zone="Community / Field — 6 cards (face up)"><g data-card="September — Blue Ribbon"><image href="../pieces/sets/hanafuda-traditional/Hanafuda_September_Tanzaku_Alt.svg" x="450" y="408" width="44" height="64" preserveAspectRatio="xMidYMid meet"/></g><g data-card="September — Plain 2"><image href="../pieces/sets/hanafuda-traditional/Hanafuda_September_Kasu_2_Alt.svg" x="498" y="408" width="44" height="64" preserveAspectRatio="xMidYMid meet"/></g><g data-card="February — Plain 2"><image href="../pieces/sets/hanafuda-traditional/Hanafuda_February_Kasu_2_Alt.svg" x="546" y="408" width="44" height="64" preserveAspectRatio="xMidYMid meet"/></g><g data-card="September — Plain 1"><image href="../pieces/sets/hanafuda-traditional/Hanafuda_September_Kasu_1_Alt.svg" x="594" y="408" width="44" height="64" preserveAspectRatio="xMidYMid meet"/></g><g data-card="July — Plain 2"><image href="../pieces/sets/hanafuda-traditional/Hanafuda_July_Kasu_2_Alt.svg" x="642" y="408" width="44" height="64" preserveAspectRatio="xMidYMid meet"/></g><g data-card="August — Plain 1"><image href="../pieces/sets/hanafuda-traditional/Hanafuda_August_Kasu_1_Alt.svg" x="690" y="408" width="44" height="64" preserveAspectRatio="xMidYMid meet"/></g></g><text x="566" y="486" text-anchor="middle" font-size="10" fill="rgba(255,255,255,0.5)" font-family="system-ui">Field (6)</text><g data-zone="Draw pile — 28 cards remaining (face down)"><rect x="369.5" y="403.5" width="44" height="64" fill="#2a3a6a" rx="3" stroke="#1a2a4a" stroke-width="1"/><rect x="371" y="405" width="44" height="64" fill="#2a3a6a" rx="3" stroke="#1a2a4a" stroke-width="1"/><rect x="372.5" y="406.5" width="44" height="64" fill="#2a3a6a" rx="3" stroke="#1a2a4a" stroke-width="1"/><rect x="374" y="408" width="44" height="64" fill="#2a3a6a" rx="3" stroke="#1a2a4a" stroke-width="1"/><text x="396" y="443" text-anchor="middle" font-size="11" fill="rgba(255,255,255,0.85)" font-family="system-ui" font-weight="bold">28</text></g><text x="566" y="874" text-anchor="middle" font-size="9" fill="rgba(255,255,255,0.3)" font-family="system-ui">Hanafuda 48 · seed: 42</text>
</svg>