<svg xmlns="http://www.w3.org/2000/svg" viewBox="0 0 358 358" width="358" height="358">
<rect x="24" y="24" width="310" height="310" fill="#dcb35c"/><rect x="39" y="39" width="280" height="280" fill="#d4a843" rx="2"/><g stroke="#3d2b1a" stroke-width="0.8"><line x1="39" y1="39" x2="319" y2="39"/><line x1="39" y1="59" x2="319" y2="59"/><line x1="39" y1="79" x2="319" y2="79"/><line x1="39" y1="99" x2="319" y2="99"/><line x1="39" y1="119" x2="319" y2="119"/><line x1="39" y1="139" x2="319" y2="139"/><line x1="39" y1="159" x2="319" y2="159"/><line x1="39" y1="179" x2="319" y2="179"/><line x1="39" y1="199" x2="319" y2="199"/><line x1="39" y1="219" x2="319" y2="219"/><line x1="39" y1="239" x2="319" y2="239"/><line x1="39" y1="259" x2="319" y2="259"/><line x1="39" y1="279" x2="319" y2="279"/><line x1="39" y1="299" x2="319" y2="299"/><line x1="39" y1="319" x2="319" y2="319"/><line x1="39" y1="39" x2="39" y2="319"/><line x1="59" y1="39" x2="59" y2="319"/><line x1="79" y1="39" x2="79" y2="319"/><line x1="99" y1="39" x2="99" y2="319"/><line x1="119" y1="39" x2="119" y2="319"/><line x1="139" y1="39" x2="139" y2="319"/><line x1="159" y1="39" x2="159" y2="319"/><line x1="179" y1="39" x2="179" y2="319"/><line x1="199" y1="39" x2="199" y2="319"/><line x1="219" y1="39" x2="219" y2="319"/><line x1="239" y1="39" x2="239" y2="319"/><line x1="259" y1="39" x2="259" y2="319"/><line x1="279" y1="39" x2="279" y2="319"/><line x1="299" y1="39" x2="299" y2="319"/><line x1="319" y1="39" x2="319" y2="319"/></g><g fill="transparent"><circle cx="39" cy="39" r="9" class="board-cell" data-sq="a15"/><circle cx="59" cy="39" r="9" class="board-cell" data-sq="b15"/><circle cx="79" cy="39" r="9" class="board-cell" data-sq="c15"/><circle cx="99" cy="39" r="9" class="board-cell" data-sq="d15"/><circle cx="119" cy="39" r="9" class="board-cell" data-sq="e15"/><circle cx="139" cy="39" r="9" class="board-cell" data-sq="f15"/><circle cx="159" cy="39" r="9" class="board-cell" data-sq="g15"/><circle cx="179" cy="39" r="9" class="board-cell" data-sq="h15"/><circle cx="199" cy="39" r="9" class="board-cell" data-sq="j15"/><circle cx="219" cy="39" r="9" class="board-cell" data-sq="k15"/><circle cx="239" cy="39" r="9" class="board-cell" data-sq="l15"/><circle cx="259" cy="39" r="9" class="board-cell" data-sq="m15"/><circle cx="279" cy="39" r="9" class="board-cell" data-sq="n15"/><circle cx="299" cy="39" r="9" class="board-cell" data-sq="o15"/><circle cx="319" cy="39" r="9" class="board-cell" data-sq="p15"/><circle cx="39" cy="59" r="9" class="board-cell" data-sq="a14"/><circle cx="59" cy="59" r="9" class="board-cell" data-sq="b14"/><circle cx="79" cy="59" r="9" class="board-cell" data-sq="c14"/><circle cx="99" cy="59" r="9" class="board-cell" data-sq="d14"/><circle cx="119" cy="59" r="9" class="board-cell" data-sq="e14"/><circle cx="139" cy="59" r="9" class="board-cell" data-sq="f14"/><circle cx="159" cy="59" r="9" class="board-cell" data-sq="g14"/><circle cx="179" cy="59" r="9" class="board-cell" data-sq="h14"/><circle cx="199" cy="59" r="9" class="board-cell" data-sq="j14"/><circle cx="219" cy="59" r="9" class="board-cell" data-sq="k14"/><circle cx="239" cy="59" r="9" class="board-cell" data-sq="l14"/><circle cx="259" cy="59" r="9" class="board-cell" data-sq="m14"/><circle cx="279" cy="59" r="9" class="board-cell" data-sq="n14"/><circle cx="299" cy="59" r="9" class="board-cell" data-sq="o14"/><circle cx="319" cy="59" r="9" class="board-cell" data-sq="p14"/><circle cx="39" cy="79" r="9" class="board-cell" data-sq="a13"/><circle cx="59" cy="79" r="9" class="board-cell" data-sq="b13"/><circle cx="79" cy="79" r="9" class="board-cell" data-sq="c13"/><circle cx="99" cy="79" r="9" class="board-cell" data-sq="d13"/><circle cx="119" cy="79" r="9" class="board-cell" data-sq="e13"/><circle cx="139" cy="79" r="9" class="board-cell" data-sq="f13"/><circle cx="159" cy="79" r="9" class="board-cell" data-sq="g13"/><circle cx="179" cy="79" r="9" class="board-cell" data-sq="h13"/><circle cx="199" cy="79" r="9" class="board-cell" data-sq="j13"/><circle cx="219" cy="79" r="9" class="board-cell" data-sq="k13"/><circle cx="239" cy="79" r="9" class="board-cell" data-sq="l13"/><circle cx="259" cy="79" r="9" class="board-cell" data-sq="m13"/><circle cx="279" cy="79" r="9" class="board-cell" data-sq="n13"/><circle cx="299" cy="79" r="9" class="board-cell" data-sq="o13"/><circle cx="319" cy="79" r="9" class="board-cell" data-sq="p13"/><circle cx="39" cy="99" r="9" class="board-cell" data-sq="a12"/><circle cx="59" cy="99" r="9" class="board-cell" data-sq="b12"/><circle cx="79" cy="99" r="9" class="board-cell" data-sq="c12"/><circle cx="99" cy="99" r="9" class="board-cell" data-sq="d12"/><circle cx="119" cy="99" r="9" class="board-cell" data-sq="e12"/><circle cx="139" cy="99" r="9" class="board-cell" data-sq="f12"/><circle cx="159" cy="99" r="9" class="board-cell" data-sq="g12"/><circle cx="179" cy="99" r="9" class="board-cell" data-sq="h12"/><circle cx="199" cy="99" r="9" class="board-cell" data-sq="j12"/><circle cx="219" cy="99" r="9" class="board-cell" data-sq="k12"/><circle cx="239" cy="99" r="9" class="board-cell" data-sq="l12"/><circle cx="259" cy="99" r="9" class="board-cell" data-sq="m12"/><circle cx="279" cy="99" r="9" class="board-cell" data-sq="n12"/><circle cx="299" cy="99" r="9" class="board-cell" data-sq="o12"/><circle cx="319" cy="99" r="9" class="board-cell" data-sq="p12"/><circle cx="39" cy="119" r="9" class="board-cell" data-sq="a11"/><circle cx="59" cy="119" r="9" class="board-cell" data-sq="b11"/><circle cx="79" cy="119" r="9" class="board-cell" data-sq="c11"/><circle cx="99" cy="119" r="9" class="board-cell" data-sq="d11"/><circle cx="119" cy="119" r="9" class="board-cell" data-sq="e11"/><circle cx="139" cy="119" r="9" class="board-cell" data-sq="f11"/><circle cx="159" cy="119" r="9" class="board-cell" data-sq="g11"/><circle cx="179" cy="119" r="9" class="board-cell" data-sq="h11"/><circle cx="199" cy="119" r="9" class="board-cell" data-sq="j11"/><circle cx="219" cy="119" r="9" class="board-cell" data-sq="k11"/><circle cx="239" cy="119" r="9" class="board-cell" data-sq="l11"/><circle cx="259" cy="119" r="9" class="board-cell" data-sq="m11"/><circle cx="279" cy="119" r="9" class="board-cell" data-sq="n11"/><circle cx="299" cy="119" r="9" class="board-cell" data-sq="o11"/><circle cx="319" cy="119" r="9" class="board-cell" data-sq="p11"/><circle cx="39" cy="139" r="9" class="board-cell" data-sq="a10"/><circle cx="59" cy="139" r="9" class="board-cell" data-sq="b10"/><circle cx="79" cy="139" r="9" class="board-cell" data-sq="c10"/><circle cx="99" cy="139" r="9" class="board-cell" data-sq="d10"/><circle cx="119" cy="139" r="9" class="board-cell" data-sq="e10"/><circle cx="139" cy="139" r="9" class="board-cell" data-sq="f10"/><circle cx="159" cy="139" r="9" class="board-cell" data-sq="g10"/><circle cx="179" cy="139" r="9" class="board-cell" data-sq="h10"/><circle cx="199" cy="139" r="9" class="board-cell" data-sq="j10"/><circle cx="219" cy="139" r="9" class="board-cell" data-sq="k10"/><circle cx="239" cy="139" r="9" class="board-cell" data-sq="l10"/><circle cx="259" cy="139" r="9" class="board-cell" data-sq="m10"/><circle cx="279" cy="139" r="9" class="board-cell" data-sq="n10"/><circle cx="299" cy="139" r="9" class="board-cell" data-sq="o10"/><circle cx="319" cy="139" r="9" class="board-cell" data-sq="p10"/><circle cx="39" cy="159" r="9" class="board-cell" data-sq="a9"/><circle cx="59" cy="159" r="9" class="board-cell" data-sq="b9"/><circle cx="79" cy="159" r="9" class="board-cell" data-sq="c9"/><circle cx="99" cy="159" r="9" class="board-cell" data-sq="d9"/><circle cx="119" cy="159" r="9" class="board-cell" data-sq="e9"/><circle cx="139" cy="159" r="9" class="board-cell" data-sq="f9"/><circle cx="159" cy="159" r="9" class="board-cell" data-sq="g9"/><circle cx="179" cy="159" r="9" class="board-cell" data-sq="h9"/><circle cx="199" cy="159" r="9" class="board-cell" data-sq="j9"/><circle cx="219" cy="159" r="9" class="board-cell" data-sq="k9"/><circle cx="239" cy="159" r="9" class="board-cell" data-sq="l9"/><circle cx="259" cy="159" r="9" class="board-cell" data-sq="m9"/><circle cx="279" cy="159" r="9" class="board-cell" data-sq="n9"/><circle cx="299" cy="159" r="9" class="board-cell" data-sq="o9"/><circle cx="319" cy="159" r="9" class="board-cell" data-sq="p9"/><circle cx="39" cy="179" r="9" class="board-cell" data-sq="a8"/><circle cx="59" cy="179" r="9" class="board-cell" data-sq="b8"/><circle cx="79" cy="179" r="9" class="board-cell" data-sq="c8"/><circle cx="99" cy="179" r="9" class="board-cell" data-sq="d8"/><circle cx="119" cy="179" r="9" class="board-cell" data-sq="e8"/><circle cx="139" cy="179" r="9" class="board-cell" data-sq="f8"/><circle cx="159" cy="179" r="9" class="board-cell" data-sq="g8"/><circle cx="179" cy="179" r="9" class="board-cell" data-sq="h8"/><circle cx="199" cy="179" r="9" class="board-cell" data-sq="j8"/><circle cx="219" cy="179" r="9" class="board-cell" data-sq="k8"/><circle cx="239" cy="179" r="9" class="board-cell" data-sq="l8"/><circle cx="259" cy="179" r="9" class="board-cell" data-sq="m8"/><circle cx="279" cy="179" r="9" class="board-cell" data-sq="n8"/><circle cx="299" cy="179" r="9" class="board-cell" data-sq="o8"/><circle cx="319" cy="179" r="9" class="board-cell" data-sq="p8"/><circle cx="39" cy="199" r="9" class="board-cell" data-sq="a7"/><circle cx="59" cy="199" r="9" class="board-cell" data-sq="b7"/><circle cx="79" cy="199" r="9" class="board-cell" data-sq="c7"/><circle cx="99" cy="199" r="9" class="board-cell" data-sq="d7"/><circle cx="119" cy="199" r="9" class="board-cell" data-sq="e7"/><circle cx="139" cy="199" r="9" class="board-cell" data-sq="f7"/><circle cx="159" cy="199" r="9" class="board-cell" data-sq="g7"/><circle cx="179" cy="199" r="9" class="board-cell" data-sq="h7"/><circle cx="199" cy="199" r="9" class="board-cell" data-sq="j7"/><circle cx="219" cy="199" r="9" class="board-cell" data-sq="k7"/><circle cx="239" cy="199" r="9" class="board-cell" data-sq="l7"/><circle cx="259" cy="199" r="9" class="board-cell" data-sq="m7"/><circle cx="279" cy="199" r="9" class="board-cell" data-sq="n7"/><circle cx="299" cy="199" r="9" class="board-cell" data-sq="o7"/><circle cx="319" cy="199" r="9" class="board-cell" data-sq="p7"/><circle cx="39" cy="219" r="9" class="board-cell" data-sq="a6"/><circle cx="59" cy="219" r="9" class="board-cell" data-sq="b6"/><circle cx="79" cy="219" r="9" class="board-cell" data-sq="c6"/><circle cx="99" cy="219" r="9" class="board-cell" data-sq="d6"/><circle cx="119" cy="219" r="9" class="board-cell" data-sq="e6"/><circle cx="139" cy="219" r="9" class="board-cell" data-sq="f6"/><circle cx="159" cy="219" r="9" class="board-cell" data-sq="g6"/><circle cx="179" cy="219" r="9" class="board-cell" data-sq="h6"/><circle cx="199" cy="219" r="9" class="board-cell" data-sq="j6"/><circle cx="219" cy="219" r="9" class="board-cell" data-sq="k6"/><circle cx="239" cy="219" r="9" class="board-cell" data-sq="l6"/><circle cx="259" cy="219" r="9" class="board-cell" data-sq="m6"/><circle cx="279" cy="219" r="9" class="board-cell" data-sq="n6"/><circle cx="299" cy="219" r="9" class="board-cell" data-sq="o6"/><circle cx="319" cy="219" r="9" class="board-cell" data-sq="p6"/><circle cx="39" cy="239" r="9" class="board-cell" data-sq="a5"/><circle cx="59" cy="239" r="9" class="board-cell" data-sq="b5"/><circle cx="79" cy="239" r="9" class="board-cell" data-sq="c5"/><circle cx="99" cy="239" r="9" class="board-cell" data-sq="d5"/><circle cx="119" cy="239" r="9" class="board-cell" data-sq="e5"/><circle cx="139" cy="239" r="9" class="board-cell" data-sq="f5"/><circle cx="159" cy="239" r="9" class="board-cell" data-sq="g5"/><circle cx="179" cy="239" r="9" class="board-cell" data-sq="h5"/><circle cx="199" cy="239" r="9" class="board-cell" data-sq="j5"/><circle cx="219" cy="239" r="9" class="board-cell" data-sq="k5"/><circle cx="239" cy="239" r="9" class="board-cell" data-sq="l5"/><circle cx="259" cy="239" r="9" class="board-cell" data-sq="m5"/><circle cx="279" cy="239" r="9" class="board-cell" data-sq="n5"/><circle cx="299" cy="239" r="9" class="board-cell" data-sq="o5"/><circle cx="319" cy="239" r="9" class="board-cell" data-sq="p5"/><circle cx="39" cy="259" r="9" class="board-cell" data-sq="a4"/><circle cx="59" cy="259" r="9" class="board-cell" data-sq="b4"/><circle cx="79" cy="259" r="9" class="board-cell" data-sq="c4"/><circle cx="99" cy="259" r="9" class="board-cell" data-sq="d4"/><circle cx="119" cy="259" r="9" class="board-cell" data-sq="e4"/><circle cx="139" cy="259" r="9" class="board-cell" data-sq="f4"/><circle cx="159" cy="259" r="9" class="board-cell" data-sq="g4"/><circle cx="179" cy="259" r="9" class="board-cell" data-sq="h4"/><circle cx="199" cy="259" r="9" class="board-cell" data-sq="j4"/><circle cx="219" cy="259" r="9" class="board-cell" data-sq="k4"/><circle cx="239" cy="259" r="9" class="board-cell" data-sq="l4"/><circle cx="259" cy="259" r="9" class="board-cell" data-sq="m4"/><circle cx="279" cy="259" r="9" class="board-cell" data-sq="n4"/><circle cx="299" cy="259" r="9" class="board-cell" data-sq="o4"/><circle cx="319" cy="259" r="9" class="board-cell" data-sq="p4"/><circle cx="39" cy="279" r="9" class="board-cell" data-sq="a3"/><circle cx="59" cy="279" r="9" class="board-cell" data-sq="b3"/><circle cx="79" cy="279" r="9" class="board-cell" data-sq="c3"/><circle cx="99" cy="279" r="9" class="board-cell" data-sq="d3"/><circle cx="119" cy="279" r="9" class="board-cell" data-sq="e3"/><circle cx="139" cy="279" r="9" class="board-cell" data-sq="f3"/><circle cx="159" cy="279" r="9" class="board-cell" data-sq="g3"/><circle cx="179" cy="279" r="9" class="board-cell" data-sq="h3"/><circle cx="199" cy="279" r="9" class="board-cell" data-sq="j3"/><circle cx="219" cy="279" r="9" class="board-cell" data-sq="k3"/><circle cx="239" cy="279" r="9" class="board-cell" data-sq="l3"/><circle cx="259" cy="279" r="9" class="board-cell" data-sq="m3"/><circle cx="279" cy="279" r="9" class="board-cell" data-sq="n3"/><circle cx="299" cy="279" r="9" class="board-cell" data-sq="o3"/><circle cx="319" cy="279" r="9" class="board-cell" data-sq="p3"/><circle cx="39" cy="299" r="9" class="board-cell" data-sq="a2"/><circle cx="59" cy="299" r="9" class="board-cell" data-sq="b2"/><circle cx="79" cy="299" r="9" class="board-cell" data-sq="c2"/><circle cx="99" cy="299" r="9" class="board-cell" data-sq="d2"/><circle cx="119" cy="299" r="9" class="board-cell" data-sq="e2"/><circle cx="139" cy="299" r="9" class="board-cell" data-sq="f2"/><circle cx="159" cy="299" r="9" class="board-cell" data-sq="g2"/><circle cx="179" cy="299" r="9" class="board-cell" data-sq="h2"/><circle cx="199" cy="299" r="9" class="board-cell" data-sq="j2"/><circle cx="219" cy="299" r="9" class="board-cell" data-sq="k2"/><circle cx="239" cy="299" r="9" class="board-cell" data-sq="l2"/><circle cx="259" cy="299" r="9" class="board-cell" data-sq="m2"/><circle cx="279" cy="299" r="9" class="board-cell" data-sq="n2"/><circle cx="299" cy="299" r="9" class="board-cell" data-sq="o2"/><circle cx="319" cy="299" r="9" class="board-cell" data-sq="p2"/><circle cx="39" cy="319" r="9" class="board-cell" data-sq="a1"/><circle cx="59" cy="319" r="9" class="board-cell" data-sq="b1"/><circle cx="79" cy="319" r="9" class="board-cell" data-sq="c1"/><circle cx="99" cy="319" r="9" class="board-cell" data-sq="d1"/><circle cx="119" cy="319" r="9" class="board-cell" data-sq="e1"/><circle cx="139" cy="319" r="9" class="board-cell" data-sq="f1"/><circle cx="159" cy="319" r="9" class="board-cell" data-sq="g1"/><circle cx="179" cy="319" r="9" class="board-cell" data-sq="h1"/><circle cx="199" cy="319" r="9" class="board-cell" data-sq="j1"/><circle cx="219" cy="319" r="9" class="board-cell" data-sq="k1"/><circle cx="239" cy="319" r="9" class="board-cell" data-sq="l1"/><circle cx="259" cy="319" r="9" class="board-cell" data-sq="m1"/><circle cx="279" cy="319" r="9" class="board-cell" data-sq="n1"/><circle cx="299" cy="319" r="9" class="board-cell" data-sq="o1"/><circle cx="319" cy="319" r="9" class="board-cell" data-sq="p1"/></g>
<text x="39" y="349.6" text-anchor="middle" font-size="13" fill="#5a4020" font-family="sans-serif">A</text><text x="59" y="349.6" text-anchor="middle" font-size="13" fill="#5a4020" font-family="sans-serif">B</text><text x="79" y="349.6" text-anchor="middle" font-size="13" fill="#5a4020" font-family="sans-serif">C</text><text x="99" y="349.6" text-anchor="middle" font-size="13" fill="#5a4020" font-family="sans-serif">D</text><text x="119" y="349.6" text-anchor="middle" font-size="13" fill="#5a4020" font-family="sans-serif">E</text><text x="139" y="349.6" text-anchor="middle" font-size="13" fill="#5a4020" font-family="sans-serif">F</text><text x="159" y="349.6" text-anchor="middle" font-size="13" fill="#5a4020" font-family="sans-serif">G</text><text x="179" y="349.6" text-anchor="middle" font-size="13" fill="#5a4020" font-family="sans-serif">H</text><text x="199" y="349.6" text-anchor="middle" font-size="13" fill="#5a4020" font-family="sans-serif">J</text><text x="219" y="349.6" text-anchor="middle" font-size="13" fill="#5a4020" font-family="sans-serif">K</text><text x="239" y="349.6" text-anchor="middle" font-size="13" fill="#5a4020" font-family="sans-serif">L</text><text x="259" y="349.6" text-anchor="middle" font-size="13" fill="#5a4020" font-family="sans-serif">M</text><text x="279" y="349.6" text-anchor="middle" font-size="13" fill="#5a4020" font-family="sans-serif">N</text><text x="299" y="349.6" text-anchor="middle" font-size="13" fill="#5a4020" font-family="sans-serif">O</text><text x="319" y="349.6" text-anchor="middle" font-size="13" fill="#5a4020" font-family="sans-serif">P</text><text x="12" y="43.55" text-anchor="middle" font-size="13" fill="#5a4020" font-family="sans-serif">15</text><text x="12" y="63.55" text-anchor="middle" font-size="13" fill="#5a4020" font-family="sans-serif">14</text><text x="12" y="83.55" text-anchor="middle" font-size="13" fill="#5a4020" font-family="sans-serif">13</text><text x="12" y="103.55" text-anchor="middle" font-size="13" fill="#5a4020" font-family="sans-serif">12</text><text x="12" y="123.55" text-anchor="middle" font-size="13" fill="#5a4020" font-family="sans-serif">11</text><text x="12" y="143.55" text-anchor="middle" font-size="13" fill="#5a4020" font-family="sans-serif">10</text><text x="12" y="163.55" text-anchor="middle" font-size="13" fill="#5a4020" font-family="sans-serif">9</text><text x="12" y="183.55" text-anchor="middle" font-size="13" fill="#5a4020" font-family="sans-serif">8</text><text x="12" y="203.55" text-anchor="middle" font-size="13" fill="#5a4020" font-family="sans-serif">7</text><text x="12" y="223.55" text-anchor="middle" font-size="13" fill="#5a4020" font-family="sans-serif">6</text><text x="12" y="243.55" text-anchor="middle" font-size="13" fill="#5a4020" font-family="sans-serif">5</text><text x="12" y="263.55" text-anchor="middle" font-size="13" fill="#5a4020" font-family="sans-serif">4</text><text x="12" y="283.55" text-anchor="middle" font-size="13" fill="#5a4020" font-family="sans-serif">3</text><text x="12" y="303.55" text-anchor="middle" font-size="13" fill="#5a4020" font-family="sans-serif">2</text><text x="12" y="323.55" text-anchor="middle" font-size="13" fill="#5a4020" font-family="sans-serif">1</text>
</svg>