<svg xmlns="http://www.w3.org/2000/svg" viewBox="0 0 389.8819582834999 344.4" width="389.8819582834999" height="344.4">
<g fill="#6b4226"><polygon points="208.04,17.64 208.04,32.76 194.94,40.32 181.85,32.76 181.85,17.64 194.94,10.08"/><polygon points="195.91,38.64 195.91,53.76 182.82,61.32 169.72,53.76 169.72,38.64 182.82,31.08"/><polygon points="220.16,38.64 220.16,53.76 207.07,61.32 193.97,53.76 193.97,38.64 207.07,31.08"/><polygon points="183.79,59.64 183.79,74.76 170.69,82.32 157.60,74.76 157.60,59.64 170.69,52.08"/><polygon points="208.04,59.64 208.04,74.76 194.94,82.32 181.85,74.76 181.85,59.64 194.94,52.08"/><polygon points="232.28,59.64 232.28,74.76 219.19,82.32 206.10,74.76 206.10,59.64 219.19,52.08"/><polygon points="171.66,80.64 171.66,95.76 158.57,103.32 145.47,95.76 145.47,80.64 158.57,73.08"/><polygon points="195.91,80.64 195.91,95.76 182.82,103.32 169.72,95.76 169.72,80.64 182.82,73.08"/><polygon points="220.16,80.64 220.16,95.76 207.07,103.32 193.97,95.76 193.97,80.64 207.07,73.08"/><polygon points="244.41,80.64 244.41,95.76 231.31,103.32 218.22,95.76 218.22,80.64 231.31,73.08"/><polygon points="159.54,101.64 159.54,116.76 146.44,124.32 133.35,116.76 133.35,101.64 146.44,94.08"/><polygon points="183.79,101.64 183.79,116.76 170.69,124.32 157.60,116.76 157.60,101.64 170.69,94.08"/><polygon points="208.04,101.64 208.04,116.76 194.94,124.32 181.85,116.76 181.85,101.64 194.94,94.08"/><polygon points="232.28,101.64 232.28,116.76 219.19,124.32 206.10,116.76 206.10,101.64 219.19,94.08"/><polygon points="256.53,101.64 256.53,116.76 243.44,124.32 230.34,116.76 230.34,101.64 243.44,94.08"/><polygon points="147.41,122.64 147.41,137.76 134.32,145.32 121.22,137.76 121.22,122.64 134.32,115.08"/><polygon points="171.66,122.64 171.66,137.76 158.57,145.32 145.47,137.76 145.47,122.64 158.57,115.08"/><polygon points="195.91,122.64 195.91,137.76 182.82,145.32 169.72,137.76 169.72,122.64 182.82,115.08"/><polygon points="220.16,122.64 220.16,137.76 207.07,145.32 193.97,137.76 193.97,122.64 207.07,115.08"/><polygon points="244.41,122.64 244.41,137.76 231.31,145.32 218.22,137.76 218.22,122.64 231.31,115.08"/><polygon points="268.66,122.64 268.66,137.76 255.56,145.32 242.47,137.76 242.47,122.64 255.56,115.08"/><polygon points="135.29,143.64 135.29,158.76 122.19,166.32 109.10,158.76 109.10,143.64 122.19,136.08"/><polygon points="159.54,143.64 159.54,158.76 146.44,166.32 133.35,158.76 133.35,143.64 146.44,136.08"/><polygon points="183.79,143.64 183.79,158.76 170.69,166.32 157.60,158.76 157.60,143.64 170.69,136.08"/><polygon points="208.04,143.64 208.04,158.76 194.94,166.32 181.85,158.76 181.85,143.64 194.94,136.08"/><polygon points="232.28,143.64 232.28,158.76 219.19,166.32 206.10,158.76 206.10,143.64 219.19,136.08"/><polygon points="256.53,143.64 256.53,158.76 243.44,166.32 230.34,158.76 230.34,143.64 243.44,136.08"/><polygon points="280.78,143.64 280.78,158.76 267.69,166.32 254.59,158.76 254.59,143.64 267.69,136.08"/><polygon points="123.16,164.64 123.16,179.76 110.07,187.32 96.98,179.76 96.98,164.64 110.07,157.08"/><polygon points="147.41,164.64 147.41,179.76 134.32,187.32 121.22,179.76 121.22,164.64 134.32,157.08"/><polygon points="171.66,164.64 171.66,179.76 158.57,187.32 145.47,179.76 145.47,164.64 158.57,157.08"/><polygon points="195.91,164.64 195.91,179.76 182.82,187.32 169.72,179.76 169.72,164.64 182.82,157.08"/><polygon points="220.16,164.64 220.16,179.76 207.07,187.32 193.97,179.76 193.97,164.64 207.07,157.08"/><polygon points="244.41,164.64 244.41,179.76 231.31,187.32 218.22,179.76 218.22,164.64 231.31,157.08"/><polygon points="268.66,164.64 268.66,179.76 255.56,187.32 242.47,179.76 242.47,164.64 255.56,157.08"/><polygon points="292.91,164.64 292.91,179.76 279.81,187.32 266.72,179.76 266.72,164.64 279.81,157.08"/><polygon points="111.04,185.64 111.04,200.76 97.95,208.32 84.85,200.76 84.85,185.64 97.95,178.08"/><polygon points="135.29,185.64 135.29,200.76 122.19,208.32 109.10,200.76 109.10,185.64 122.19,178.08"/><polygon points="159.54,185.64 159.54,200.76 146.44,208.32 133.35,200.76 133.35,185.64 146.44,178.08"/><polygon points="183.79,185.64 183.79,200.76 170.69,208.32 157.60,200.76 157.60,185.64 170.69,178.08"/><polygon points="208.04,185.64 208.04,200.76 194.94,208.32 181.85,200.76 181.85,185.64 194.94,178.08"/><polygon points="232.28,185.64 232.28,200.76 219.19,208.32 206.10,200.76 206.10,185.64 219.19,178.08"/><polygon points="256.53,185.64 256.53,200.76 243.44,208.32 230.34,200.76 230.34,185.64 243.44,178.08"/><polygon points="280.78,185.64 280.78,200.76 267.69,208.32 254.59,200.76 254.59,185.64 267.69,178.08"/><polygon points="305.03,185.64 305.03,200.76 291.94,208.32 278.84,200.76 278.84,185.64 291.94,178.08"/><polygon points="98.92,206.64 98.92,221.76 85.82,229.32 72.73,221.76 72.73,206.64 85.82,199.08"/><polygon points="123.16,206.64 123.16,221.76 110.07,229.32 96.98,221.76 96.98,206.64 110.07,199.08"/><polygon points="147.41,206.64 147.41,221.76 134.32,229.32 121.22,221.76 121.22,206.64 134.32,199.08"/><polygon points="171.66,206.64 171.66,221.76 158.57,229.32 145.47,221.76 145.47,206.64 158.57,199.08"/><polygon points="195.91,206.64 195.91,221.76 182.82,229.32 169.72,221.76 169.72,206.64 182.82,199.08"/><polygon points="220.16,206.64 220.16,221.76 207.07,229.32 193.97,221.76 193.97,206.64 207.07,199.08"/><polygon points="244.41,206.64 244.41,221.76 231.31,229.32 218.22,221.76 218.22,206.64 231.31,199.08"/><polygon points="268.66,206.64 268.66,221.76 255.56,229.32 242.47,221.76 242.47,206.64 255.56,199.08"/><polygon points="292.91,206.64 292.91,221.76 279.81,229.32 266.72,221.76 266.72,206.64 279.81,199.08"/><polygon points="317.15,206.64 317.15,221.76 304.06,229.32 290.97,221.76 290.97,206.64 304.06,199.08"/><polygon points="86.79,227.64 86.79,242.76 73.70,250.32 60.60,242.76 60.60,227.64 73.70,220.08"/><polygon points="111.04,227.64 111.04,242.76 97.95,250.32 84.85,242.76 84.85,227.64 97.95,220.08"/><polygon points="135.29,227.64 135.29,242.76 122.19,250.32 109.10,242.76 109.10,227.64 122.19,220.08"/><polygon points="159.54,227.64 159.54,242.76 146.44,250.32 133.35,242.76 133.35,227.64 146.44,220.08"/><polygon points="183.79,227.64 183.79,242.76 170.69,250.32 157.60,242.76 157.60,227.64 170.69,220.08"/><polygon points="208.04,227.64 208.04,242.76 194.94,250.32 181.85,242.76 181.85,227.64 194.94,220.08"/><polygon points="232.28,227.64 232.28,242.76 219.19,250.32 206.10,242.76 206.10,227.64 219.19,220.08"/><polygon points="256.53,227.64 256.53,242.76 243.44,250.32 230.34,242.76 230.34,227.64 243.44,220.08"/><polygon points="280.78,227.64 280.78,242.76 267.69,250.32 254.59,242.76 254.59,227.64 267.69,220.08"/><polygon points="305.03,227.64 305.03,242.76 291.94,250.32 278.84,242.76 278.84,227.64 291.94,220.08"/><polygon points="329.28,227.64 329.28,242.76 316.18,250.32 303.09,242.76 303.09,227.64 316.18,220.08"/><polygon points="74.67,248.64 74.67,263.76 61.57,271.32 48.48,263.76 48.48,248.64 61.57,241.08"/><polygon points="98.92,248.64 98.92,263.76 85.82,271.32 72.73,263.76 72.73,248.64 85.82,241.08"/><polygon points="123.16,248.64 123.16,263.76 110.07,271.32 96.98,263.76 96.98,248.64 110.07,241.08"/><polygon points="147.41,248.64 147.41,263.76 134.32,271.32 121.22,263.76 121.22,248.64 134.32,241.08"/><polygon points="171.66,248.64 171.66,263.76 158.57,271.32 145.47,263.76 145.47,248.64 158.57,241.08"/><polygon points="195.91,248.64 195.91,263.76 182.82,271.32 169.72,263.76 169.72,248.64 182.82,241.08"/><polygon points="220.16,248.64 220.16,263.76 207.07,271.32 193.97,263.76 193.97,248.64 207.07,241.08"/><polygon points="244.41,248.64 244.41,263.76 231.31,271.32 218.22,263.76 218.22,248.64 231.31,241.08"/><polygon points="268.66,248.64 268.66,263.76 255.56,271.32 242.47,263.76 242.47,248.64 255.56,241.08"/><polygon points="292.91,248.64 292.91,263.76 279.81,271.32 266.72,263.76 266.72,248.64 279.81,241.08"/><polygon points="317.15,248.64 317.15,263.76 304.06,271.32 290.97,263.76 290.97,248.64 304.06,241.08"/><polygon points="341.40,248.64 341.40,263.76 328.31,271.32 315.21,263.76 315.21,248.64 328.31,241.08"/><polygon points="62.54,269.64 62.54,284.76 49.45,292.32 36.35,284.76 36.35,269.64 49.45,262.08"/><polygon points="86.79,269.64 86.79,284.76 73.70,292.32 60.60,284.76 60.60,269.64 73.70,262.08"/><polygon points="111.04,269.64 111.04,284.76 97.95,292.32 84.85,284.76 84.85,269.64 97.95,262.08"/><polygon points="135.29,269.64 135.29,284.76 122.19,292.32 109.10,284.76 109.10,269.64 122.19,262.08"/><polygon points="159.54,269.64 159.54,284.76 146.44,292.32 133.35,284.76 133.35,269.64 146.44,262.08"/><polygon points="183.79,269.64 183.79,284.76 170.69,292.32 157.60,284.76 157.60,269.64 170.69,262.08"/><polygon points="208.04,269.64 208.04,284.76 194.94,292.32 181.85,284.76 181.85,269.64 194.94,262.08"/><polygon points="232.28,269.64 232.28,284.76 219.19,292.32 206.10,284.76 206.10,269.64 219.19,262.08"/><polygon points="256.53,269.64 256.53,284.76 243.44,292.32 230.34,284.76 230.34,269.64 243.44,262.08"/><polygon points="280.78,269.64 280.78,284.76 267.69,292.32 254.59,284.76 254.59,269.64 267.69,262.08"/><polygon points="305.03,269.64 305.03,284.76 291.94,292.32 278.84,284.76 278.84,269.64 291.94,262.08"/><polygon points="329.28,269.64 329.28,284.76 316.18,292.32 303.09,284.76 303.09,269.64 316.18,262.08"/><polygon points="353.53,269.64 353.53,284.76 340.43,292.32 327.34,284.76 327.34,269.64 340.43,262.08"/><polygon points="50.42,290.64 50.42,305.76 37.32,313.32 24.23,305.76 24.23,290.64 37.32,283.08"/><polygon points="74.67,290.64 74.67,305.76 61.57,313.32 48.48,305.76 48.48,290.64 61.57,283.08"/><polygon points="98.92,290.64 98.92,305.76 85.82,313.32 72.73,305.76 72.73,290.64 85.82,283.08"/><polygon points="123.16,290.64 123.16,305.76 110.07,313.32 96.98,305.76 96.98,290.64 110.07,283.08"/><polygon points="147.41,290.64 147.41,305.76 134.32,313.32 121.22,305.76 121.22,290.64 134.32,283.08"/><polygon points="171.66,290.64 171.66,305.76 158.57,313.32 145.47,305.76 145.47,290.64 158.57,283.08"/><polygon points="195.91,290.64 195.91,305.76 182.82,313.32 169.72,305.76 169.72,290.64 182.82,283.08"/><polygon points="220.16,290.64 220.16,305.76 207.07,313.32 193.97,305.76 193.97,290.64 207.07,283.08"/><polygon points="244.41,290.64 244.41,305.76 231.31,313.32 218.22,305.76 218.22,290.64 231.31,283.08"/><polygon points="268.66,290.64 268.66,305.76 255.56,313.32 242.47,305.76 242.47,290.64 255.56,283.08"/><polygon points="292.91,290.64 292.91,305.76 279.81,313.32 266.72,305.76 266.72,290.64 279.81,283.08"/><polygon points="317.15,290.64 317.15,305.76 304.06,313.32 290.97,305.76 290.97,290.64 304.06,283.08"/><polygon points="341.40,290.64 341.40,305.76 328.31,313.32 315.21,305.76 315.21,290.64 328.31,283.08"/><polygon points="365.65,290.64 365.65,305.76 352.56,313.32 339.46,305.76 339.46,290.64 352.56,283.08"/><polygon points="38.29,311.64 38.29,326.76 25.20,334.32 12.11,326.76 12.11,311.64 25.20,304.08"/><polygon points="62.54,311.64 62.54,326.76 49.45,334.32 36.35,326.76 36.35,311.64 49.45,304.08"/><polygon points="86.79,311.64 86.79,326.76 73.70,334.32 60.60,326.76 60.60,311.64 73.70,304.08"/><polygon points="111.04,311.64 111.04,326.76 97.95,334.32 84.85,326.76 84.85,311.64 97.95,304.08"/><polygon points="135.29,311.64 135.29,326.76 122.19,334.32 109.10,326.76 109.10,311.64 122.19,304.08"/><polygon points="159.54,311.64 159.54,326.76 146.44,334.32 133.35,326.76 133.35,311.64 146.44,304.08"/><polygon points="183.79,311.64 183.79,326.76 170.69,334.32 157.60,326.76 157.60,311.64 170.69,304.08"/><polygon points="208.04,311.64 208.04,326.76 194.94,334.32 181.85,326.76 181.85,311.64 194.94,304.08"/><polygon points="232.28,311.64 232.28,326.76 219.19,334.32 206.10,326.76 206.10,311.64 219.19,304.08"/><polygon points="256.53,311.64 256.53,326.76 243.44,334.32 230.34,326.76 230.34,311.64 243.44,304.08"/><polygon points="280.78,311.64 280.78,326.76 267.69,334.32 254.59,326.76 254.59,311.64 267.69,304.08"/><polygon points="305.03,311.64 305.03,326.76 291.94,334.32 278.84,326.76 278.84,311.64 291.94,304.08"/><polygon points="329.28,311.64 329.28,326.76 316.18,334.32 303.09,326.76 303.09,311.64 316.18,304.08"/><polygon points="353.53,311.64 353.53,326.76 340.43,334.32 327.34,326.76 327.34,311.64 340.43,304.08"/><polygon points="377.78,311.64 377.78,326.76 364.68,334.32 351.59,326.76 351.59,311.64 364.68,304.08"/></g><g fill="none" stroke="#6b4226" stroke-width="14" stroke-linecap="round" stroke-linejoin="round"><line x1="207.67" y1="17.85" x2="207.67" y2="32.55"/><line x1="182.21" y1="32.55" x2="182.21" y2="17.85"/><line x1="182.21" y1="17.85" x2="194.94" y2="10.50"/><line x1="194.94" y1="10.50" x2="207.67" y2="17.85"/><line x1="170.09" y1="53.55" x2="170.09" y2="38.85"/><line x1="170.09" y1="38.85" x2="182.82" y2="31.50"/><line x1="219.80" y1="38.85" x2="219.80" y2="53.55"/><line x1="207.07" y1="31.50" x2="219.80" y2="38.85"/><line x1="157.96" y1="74.55" x2="157.96" y2="59.85"/><line x1="157.96" y1="59.85" x2="170.69" y2="52.50"/><line x1="231.92" y1="59.85" x2="231.92" y2="74.55"/><line x1="219.19" y1="52.50" x2="231.92" y2="59.85"/><line x1="145.84" y1="95.55" x2="145.84" y2="80.85"/><line x1="145.84" y1="80.85" x2="158.57" y2="73.50"/><line x1="244.04" y1="80.85" x2="244.04" y2="95.55"/><line x1="231.31" y1="73.50" x2="244.04" y2="80.85"/><line x1="133.71" y1="116.55" x2="133.71" y2="101.85"/><line x1="133.71" y1="101.85" x2="146.44" y2="94.50"/><line x1="256.17" y1="101.85" x2="256.17" y2="116.55"/><line x1="243.44" y1="94.50" x2="256.17" y2="101.85"/><line x1="121.59" y1="137.55" x2="121.59" y2="122.85"/><line x1="121.59" y1="122.85" x2="134.32" y2="115.50"/><line x1="268.29" y1="122.85" x2="268.29" y2="137.55"/><line x1="255.56" y1="115.50" x2="268.29" y2="122.85"/><line x1="109.46" y1="158.55" x2="109.46" y2="143.85"/><line x1="109.46" y1="143.85" x2="122.19" y2="136.50"/><line x1="280.42" y1="143.85" x2="280.42" y2="158.55"/><line x1="267.69" y1="136.50" x2="280.42" y2="143.85"/><line x1="97.34" y1="179.55" x2="97.34" y2="164.85"/><line x1="97.34" y1="164.85" x2="110.07" y2="157.50"/><line x1="292.54" y1="164.85" x2="292.54" y2="179.55"/><line x1="279.81" y1="157.50" x2="292.54" y2="164.85"/><line x1="85.22" y1="200.55" x2="85.22" y2="185.85"/><line x1="85.22" y1="185.85" x2="97.95" y2="178.50"/><line x1="304.67" y1="185.85" x2="304.67" y2="200.55"/><line x1="291.94" y1="178.50" x2="304.67" y2="185.85"/><line x1="73.09" y1="221.55" x2="73.09" y2="206.85"/><line x1="73.09" y1="206.85" x2="85.82" y2="199.50"/><line x1="316.79" y1="206.85" x2="316.79" y2="221.55"/><line x1="304.06" y1="199.50" x2="316.79" y2="206.85"/><line x1="60.97" y1="242.55" x2="60.97" y2="227.85"/><line x1="60.97" y1="227.85" x2="73.70" y2="220.50"/><line x1="328.92" y1="227.85" x2="328.92" y2="242.55"/><line x1="316.18" y1="220.50" x2="328.92" y2="227.85"/><line x1="48.84" y1="263.55" x2="48.84" y2="248.85"/><line x1="48.84" y1="248.85" x2="61.57" y2="241.50"/><line x1="341.04" y1="248.85" x2="341.04" y2="263.55"/><line x1="328.31" y1="241.50" x2="341.04" y2="248.85"/><line x1="36.72" y1="284.55" x2="36.72" y2="269.85"/><line x1="36.72" y1="269.85" x2="49.45" y2="262.50"/><line x1="353.16" y1="269.85" x2="353.16" y2="284.55"/><line x1="340.43" y1="262.50" x2="353.16" y2="269.85"/><line x1="24.59" y1="305.55" x2="24.59" y2="290.85"/><line x1="24.59" y1="290.85" x2="37.32" y2="283.50"/><line x1="365.29" y1="290.85" x2="365.29" y2="305.55"/><line x1="352.56" y1="283.50" x2="365.29" y2="290.85"/><line x1="37.93" y1="326.55" x2="25.20" y2="333.90"/><line x1="25.20" y1="333.90" x2="12.47" y2="326.55"/><line x1="12.47" y1="326.55" x2="12.47" y2="311.85"/><line x1="12.47" y1="311.85" x2="25.20" y2="304.50"/><line x1="62.18" y1="326.55" x2="49.45" y2="333.90"/><line x1="49.45" y1="333.90" x2="36.72" y2="326.55"/><line x1="86.43" y1="326.55" x2="73.70" y2="333.90"/><line x1="73.70" y1="333.90" x2="60.97" y2="326.55"/><line x1="110.68" y1="326.55" x2="97.95" y2="333.90"/><line x1="97.95" y1="333.90" x2="85.22" y2="326.55"/><line x1="134.93" y1="326.55" x2="122.19" y2="333.90"/><line x1="122.19" y1="333.90" x2="109.46" y2="326.55"/><line x1="159.17" y1="326.55" x2="146.44" y2="333.90"/><line x1="146.44" y1="333.90" x2="133.71" y2="326.55"/><line x1="183.42" y1="326.55" x2="170.69" y2="333.90"/><line x1="170.69" y1="333.90" x2="157.96" y2="326.55"/><line x1="207.67" y1="326.55" x2="194.94" y2="333.90"/><line x1="194.94" y1="333.90" x2="182.21" y2="326.55"/><line x1="231.92" y1="326.55" x2="219.19" y2="333.90"/><line x1="219.19" y1="333.90" x2="206.46" y2="326.55"/><line x1="256.17" y1="326.55" x2="243.44" y2="333.90"/><line x1="243.44" y1="333.90" x2="230.71" y2="326.55"/><line x1="280.42" y1="326.55" x2="267.69" y2="333.90"/><line x1="267.69" y1="333.90" x2="254.96" y2="326.55"/><line x1="304.67" y1="326.55" x2="291.94" y2="333.90"/><line x1="291.94" y1="333.90" x2="279.21" y2="326.55"/><line x1="328.92" y1="326.55" x2="316.18" y2="333.90"/><line x1="316.18" y1="333.90" x2="303.45" y2="326.55"/><line x1="353.16" y1="326.55" x2="340.43" y2="333.90"/><line x1="340.43" y1="333.90" x2="327.70" y2="326.55"/><line x1="377.41" y1="311.85" x2="377.41" y2="326.55"/><line x1="377.41" y1="326.55" x2="364.68" y2="333.90"/><line x1="364.68" y1="333.90" x2="351.95" y2="326.55"/><line x1="364.68" y1="304.50" x2="377.41" y2="311.85"/></g><polygon points="206.46,18.55 206.46,31.85 194.94,38.50 183.42,31.85 183.42,18.55 194.94,11.90" fill="#e8e8e8" stroke="rgba(0,0,0,0.3)" stroke-width="1" data-sq="0,0" class="board-cell"/><polygon points="194.33,39.55 194.33,52.85 182.82,59.50 171.30,52.85 171.30,39.55 182.82,32.90" fill="#e8e8e8" stroke="rgba(0,0,0,0.3)" stroke-width="1" data-sq="-1,1" class="board-cell"/><polygon points="218.58,39.55 218.58,52.85 207.07,59.50 195.55,52.85 195.55,39.55 207.07,32.90" fill="#c0c0c0" stroke="rgba(0,0,0,0.3)" stroke-width="1" data-sq="0,1" class="board-cell"/><polygon points="182.21,60.55 182.21,73.85 170.69,80.50 159.17,73.85 159.17,60.55 170.69,53.90" fill="#e8e8e8" stroke="rgba(0,0,0,0.3)" stroke-width="1" data-sq="-2,2" class="board-cell"/><polygon points="206.46,60.55 206.46,73.85 194.94,80.50 183.42,73.85 183.42,60.55 194.94,53.90" fill="#c0c0c0" stroke="rgba(0,0,0,0.3)" stroke-width="1" data-sq="-1,2" class="board-cell"/><polygon points="230.71,60.55 230.71,73.85 219.19,80.50 207.67,73.85 207.67,60.55 219.19,53.90" fill="#d8d8d8" stroke="rgba(0,0,0,0.3)" stroke-width="1" data-sq="0,2" class="board-cell"/><polygon points="170.09,81.55 170.09,94.85 158.57,101.50 147.05,94.85 147.05,81.55 158.57,74.90" fill="#e8e8e8" stroke="rgba(0,0,0,0.3)" stroke-width="1" data-sq="-3,3" class="board-cell"/><polygon points="194.33,81.55 194.33,94.85 182.82,101.50 171.30,94.85 171.30,81.55 182.82,74.90" fill="#c0c0c0" stroke="rgba(0,0,0,0.3)" stroke-width="1" data-sq="-2,3" class="board-cell"/><polygon points="218.58,81.55 218.58,94.85 207.07,101.50 195.55,94.85 195.55,81.55 207.07,74.90" fill="#d8d8d8" stroke="rgba(0,0,0,0.3)" stroke-width="1" data-sq="-1,3" class="board-cell"/><polygon points="242.83,81.55 242.83,94.85 231.31,101.50 219.80,94.85 219.80,81.55 231.31,74.90" fill="#e8e8e8" stroke="rgba(0,0,0,0.3)" stroke-width="1" data-sq="0,3" class="board-cell"/><polygon points="157.96,102.55 157.96,115.85 146.44,122.50 134.93,115.85 134.93,102.55 146.44,95.90" fill="#e8e8e8" stroke="rgba(0,0,0,0.3)" stroke-width="1" data-sq="-4,4" class="board-cell"/><polygon points="182.21,102.55 182.21,115.85 170.69,122.50 159.17,115.85 159.17,102.55 170.69,95.90" fill="#c0c0c0" stroke="rgba(0,0,0,0.3)" stroke-width="1" data-sq="-3,4" class="board-cell"/><polygon points="206.46,102.55 206.46,115.85 194.94,122.50 183.42,115.85 183.42,102.55 194.94,95.90" fill="#d8d8d8" stroke="rgba(0,0,0,0.3)" stroke-width="1" data-sq="-2,4" class="board-cell"/><polygon points="230.71,102.55 230.71,115.85 219.19,122.50 207.67,115.85 207.67,102.55 219.19,95.90" fill="#e8e8e8" stroke="rgba(0,0,0,0.3)" stroke-width="1" data-sq="-1,4" class="board-cell"/><polygon points="254.96,102.55 254.96,115.85 243.44,122.50 231.92,115.85 231.92,102.55 243.44,95.90" fill="#c0c0c0" stroke="rgba(0,0,0,0.3)" stroke-width="1" data-sq="0,4" class="board-cell"/><polygon points="145.84,123.55 145.84,136.85 134.32,143.50 122.80,136.85 122.80,123.55 134.32,116.90" fill="#e8e8e8" stroke="rgba(0,0,0,0.3)" stroke-width="1" data-sq="-5,5" class="board-cell"/><polygon points="170.09,123.55 170.09,136.85 158.57,143.50 147.05,136.85 147.05,123.55 158.57,116.90" fill="#c0c0c0" stroke="rgba(0,0,0,0.3)" stroke-width="1" data-sq="-4,5" class="board-cell"/><polygon points="194.33,123.55 194.33,136.85 182.82,143.50 171.30,136.85 171.30,123.55 182.82,116.90" fill="#d8d8d8" stroke="rgba(0,0,0,0.3)" stroke-width="1" data-sq="-3,5" class="board-cell"/><polygon points="218.58,123.55 218.58,136.85 207.07,143.50 195.55,136.85 195.55,123.55 207.07,116.90" fill="#e8e8e8" stroke="rgba(0,0,0,0.3)" stroke-width="1" data-sq="-2,5" class="board-cell"/><polygon points="242.83,123.55 242.83,136.85 231.31,143.50 219.80,136.85 219.80,123.55 231.31,116.90" fill="#c0c0c0" stroke="rgba(0,0,0,0.3)" stroke-width="1" data-sq="-1,5" class="board-cell"/><polygon points="267.08,123.55 267.08,136.85 255.56,143.50 244.04,136.85 244.04,123.55 255.56,116.90" fill="#d8d8d8" stroke="rgba(0,0,0,0.3)" stroke-width="1" data-sq="0,5" class="board-cell"/><polygon points="133.71,144.55 133.71,157.85 122.19,164.50 110.68,157.85 110.68,144.55 122.19,137.90" fill="#e8e8e8" stroke="rgba(0,0,0,0.3)" stroke-width="1" data-sq="-6,6" class="board-cell"/><polygon points="157.96,144.55 157.96,157.85 146.44,164.50 134.93,157.85 134.93,144.55 146.44,137.90" fill="#c0c0c0" stroke="rgba(0,0,0,0.3)" stroke-width="1" data-sq="-5,6" class="board-cell"/><polygon points="182.21,144.55 182.21,157.85 170.69,164.50 159.17,157.85 159.17,144.55 170.69,137.90" fill="#d8d8d8" stroke="rgba(0,0,0,0.3)" stroke-width="1" data-sq="-4,6" class="board-cell"/><polygon points="206.46,144.55 206.46,157.85 194.94,164.50 183.42,157.85 183.42,144.55 194.94,137.90" fill="#e8e8e8" stroke="rgba(0,0,0,0.3)" stroke-width="1" data-sq="-3,6" class="board-cell"/><polygon points="230.71,144.55 230.71,157.85 219.19,164.50 207.67,157.85 207.67,144.55 219.19,137.90" fill="#c0c0c0" stroke="rgba(0,0,0,0.3)" stroke-width="1" data-sq="-2,6" class="board-cell"/><polygon points="254.96,144.55 254.96,157.85 243.44,164.50 231.92,157.85 231.92,144.55 243.44,137.90" fill="#d8d8d8" stroke="rgba(0,0,0,0.3)" stroke-width="1" data-sq="-1,6" class="board-cell"/><polygon points="279.21,144.55 279.21,157.85 267.69,164.50 256.17,157.85 256.17,144.55 267.69,137.90" fill="#e8e8e8" stroke="rgba(0,0,0,0.3)" stroke-width="1" data-sq="0,6" class="board-cell"/><polygon points="121.59,165.55 121.59,178.85 110.07,185.50 98.55,178.85 98.55,165.55 110.07,158.90" fill="#e8e8e8" stroke="rgba(0,0,0,0.3)" stroke-width="1" data-sq="-7,7" class="board-cell"/><polygon points="145.84,165.55 145.84,178.85 134.32,185.50 122.80,178.85 122.80,165.55 134.32,158.90" fill="#c0c0c0" stroke="rgba(0,0,0,0.3)" stroke-width="1" data-sq="-6,7" class="board-cell"/><polygon points="170.09,165.55 170.09,178.85 158.57,185.50 147.05,178.85 147.05,165.55 158.57,158.90" fill="#d8d8d8" stroke="rgba(0,0,0,0.3)" stroke-width="1" data-sq="-5,7" class="board-cell"/><polygon points="194.33,165.55 194.33,178.85 182.82,185.50 171.30,178.85 171.30,165.55 182.82,158.90" fill="#e8e8e8" stroke="rgba(0,0,0,0.3)" stroke-width="1" data-sq="-4,7" class="board-cell"/><polygon points="218.58,165.55 218.58,178.85 207.07,185.50 195.55,178.85 195.55,165.55 207.07,158.90" fill="#c0c0c0" stroke="rgba(0,0,0,0.3)" stroke-width="1" data-sq="-3,7" class="board-cell"/><polygon points="242.83,165.55 242.83,178.85 231.31,185.50 219.80,178.85 219.80,165.55 231.31,158.90" fill="#d8d8d8" stroke="rgba(0,0,0,0.3)" stroke-width="1" data-sq="-2,7" class="board-cell"/><polygon points="267.08,165.55 267.08,178.85 255.56,185.50 244.04,178.85 244.04,165.55 255.56,158.90" fill="#e8e8e8" stroke="rgba(0,0,0,0.3)" stroke-width="1" data-sq="-1,7" class="board-cell"/><polygon points="291.33,165.55 291.33,178.85 279.81,185.50 268.29,178.85 268.29,165.55 279.81,158.90" fill="#c0c0c0" stroke="rgba(0,0,0,0.3)" stroke-width="1" data-sq="0,7" class="board-cell"/><polygon points="109.46,186.55 109.46,199.85 97.95,206.50 86.43,199.85 86.43,186.55 97.95,179.90" fill="#e8e8e8" stroke="rgba(0,0,0,0.3)" stroke-width="1" data-sq="-8,8" class="board-cell"/><polygon points="133.71,186.55 133.71,199.85 122.19,206.50 110.68,199.85 110.68,186.55 122.19,179.90" fill="#c0c0c0" stroke="rgba(0,0,0,0.3)" stroke-width="1" data-sq="-7,8" class="board-cell"/><polygon points="157.96,186.55 157.96,199.85 146.44,206.50 134.93,199.85 134.93,186.55 146.44,179.90" fill="#d8d8d8" stroke="rgba(0,0,0,0.3)" stroke-width="1" data-sq="-6,8" class="board-cell"/><polygon points="182.21,186.55 182.21,199.85 170.69,206.50 159.17,199.85 159.17,186.55 170.69,179.90" fill="#e8e8e8" stroke="rgba(0,0,0,0.3)" stroke-width="1" data-sq="-5,8" class="board-cell"/><polygon points="206.46,186.55 206.46,199.85 194.94,206.50 183.42,199.85 183.42,186.55 194.94,179.90" fill="#c0c0c0" stroke="rgba(0,0,0,0.3)" stroke-width="1" data-sq="-4,8" class="board-cell"/><polygon points="230.71,186.55 230.71,199.85 219.19,206.50 207.67,199.85 207.67,186.55 219.19,179.90" fill="#d8d8d8" stroke="rgba(0,0,0,0.3)" stroke-width="1" data-sq="-3,8" class="board-cell"/><polygon points="254.96,186.55 254.96,199.85 243.44,206.50 231.92,199.85 231.92,186.55 243.44,179.90" fill="#e8e8e8" stroke="rgba(0,0,0,0.3)" stroke-width="1" data-sq="-2,8" class="board-cell"/><polygon points="279.21,186.55 279.21,199.85 267.69,206.50 256.17,199.85 256.17,186.55 267.69,179.90" fill="#c0c0c0" stroke="rgba(0,0,0,0.3)" stroke-width="1" data-sq="-1,8" class="board-cell"/><polygon points="303.45,186.55 303.45,199.85 291.94,206.50 280.42,199.85 280.42,186.55 291.94,179.90" fill="#d8d8d8" stroke="rgba(0,0,0,0.3)" stroke-width="1" data-sq="0,8" class="board-cell"/><polygon points="97.34,207.55 97.34,220.85 85.82,227.50 74.30,220.85 74.30,207.55 85.82,200.90" fill="#e8e8e8" stroke="rgba(0,0,0,0.3)" stroke-width="1" data-sq="-9,9" class="board-cell"/><polygon points="121.59,207.55 121.59,220.85 110.07,227.50 98.55,220.85 98.55,207.55 110.07,200.90" fill="#c0c0c0" stroke="rgba(0,0,0,0.3)" stroke-width="1" data-sq="-8,9" class="board-cell"/><polygon points="145.84,207.55 145.84,220.85 134.32,227.50 122.80,220.85 122.80,207.55 134.32,200.90" fill="#d8d8d8" stroke="rgba(0,0,0,0.3)" stroke-width="1" data-sq="-7,9" class="board-cell"/><polygon points="170.09,207.55 170.09,220.85 158.57,227.50 147.05,220.85 147.05,207.55 158.57,200.90" fill="#e8e8e8" stroke="rgba(0,0,0,0.3)" stroke-width="1" data-sq="-6,9" class="board-cell"/><polygon points="194.33,207.55 194.33,220.85 182.82,227.50 171.30,220.85 171.30,207.55 182.82,200.90" fill="#c0c0c0" stroke="rgba(0,0,0,0.3)" stroke-width="1" data-sq="-5,9" class="board-cell"/><polygon points="218.58,207.55 218.58,220.85 207.07,227.50 195.55,220.85 195.55,207.55 207.07,200.90" fill="#d8d8d8" stroke="rgba(0,0,0,0.3)" stroke-width="1" data-sq="-4,9" class="board-cell"/><polygon points="242.83,207.55 242.83,220.85 231.31,227.50 219.80,220.85 219.80,207.55 231.31,200.90" fill="#e8e8e8" stroke="rgba(0,0,0,0.3)" stroke-width="1" data-sq="-3,9" class="board-cell"/><polygon points="267.08,207.55 267.08,220.85 255.56,227.50 244.04,220.85 244.04,207.55 255.56,200.90" fill="#c0c0c0" stroke="rgba(0,0,0,0.3)" stroke-width="1" data-sq="-2,9" class="board-cell"/><polygon points="291.33,207.55 291.33,220.85 279.81,227.50 268.29,220.85 268.29,207.55 279.81,200.90" fill="#d8d8d8" stroke="rgba(0,0,0,0.3)" stroke-width="1" data-sq="-1,9" class="board-cell"/><polygon points="315.58,207.55 315.58,220.85 304.06,227.50 292.54,220.85 292.54,207.55 304.06,200.90" fill="#e8e8e8" stroke="rgba(0,0,0,0.3)" stroke-width="1" data-sq="0,9" class="board-cell"/><polygon points="85.22,228.55 85.22,241.85 73.70,248.50 62.18,241.85 62.18,228.55 73.70,221.90" fill="#e8e8e8" stroke="rgba(0,0,0,0.3)" stroke-width="1" data-sq="-10,10" class="board-cell"/><polygon points="109.46,228.55 109.46,241.85 97.95,248.50 86.43,241.85 86.43,228.55 97.95,221.90" fill="#c0c0c0" stroke="rgba(0,0,0,0.3)" stroke-width="1" data-sq="-9,10" class="board-cell"/><polygon points="133.71,228.55 133.71,241.85 122.19,248.50 110.68,241.85 110.68,228.55 122.19,221.90" fill="#d8d8d8" stroke="rgba(0,0,0,0.3)" stroke-width="1" data-sq="-8,10" class="board-cell"/><polygon points="157.96,228.55 157.96,241.85 146.44,248.50 134.93,241.85 134.93,228.55 146.44,221.90" fill="#e8e8e8" stroke="rgba(0,0,0,0.3)" stroke-width="1" data-sq="-7,10" class="board-cell"/><polygon points="182.21,228.55 182.21,241.85 170.69,248.50 159.17,241.85 159.17,228.55 170.69,221.90" fill="#c0c0c0" stroke="rgba(0,0,0,0.3)" stroke-width="1" data-sq="-6,10" class="board-cell"/><polygon points="206.46,228.55 206.46,241.85 194.94,248.50 183.42,241.85 183.42,228.55 194.94,221.90" fill="#d8d8d8" stroke="rgba(0,0,0,0.3)" stroke-width="1" data-sq="-5,10" class="board-cell"/><polygon points="230.71,228.55 230.71,241.85 219.19,248.50 207.67,241.85 207.67,228.55 219.19,221.90" fill="#e8e8e8" stroke="rgba(0,0,0,0.3)" stroke-width="1" data-sq="-4,10" class="board-cell"/><polygon points="254.96,228.55 254.96,241.85 243.44,248.50 231.92,241.85 231.92,228.55 243.44,221.90" fill="#c0c0c0" stroke="rgba(0,0,0,0.3)" stroke-width="1" data-sq="-3,10" class="board-cell"/><polygon points="279.21,228.55 279.21,241.85 267.69,248.50 256.17,241.85 256.17,228.55 267.69,221.90" fill="#d8d8d8" stroke="rgba(0,0,0,0.3)" stroke-width="1" data-sq="-2,10" class="board-cell"/><polygon points="303.45,228.55 303.45,241.85 291.94,248.50 280.42,241.85 280.42,228.55 291.94,221.90" fill="#e8e8e8" stroke="rgba(0,0,0,0.3)" stroke-width="1" data-sq="-1,10" class="board-cell"/><polygon points="327.70,228.55 327.70,241.85 316.18,248.50 304.67,241.85 304.67,228.55 316.18,221.90" fill="#c0c0c0" stroke="rgba(0,0,0,0.3)" stroke-width="1" data-sq="0,10" class="board-cell"/><polygon points="73.09,249.55 73.09,262.85 61.57,269.50 50.05,262.85 50.05,249.55 61.57,242.90" fill="#e8e8e8" stroke="rgba(0,0,0,0.3)" stroke-width="1" data-sq="-11,11" class="board-cell"/><polygon points="97.34,249.55 97.34,262.85 85.82,269.50 74.30,262.85 74.30,249.55 85.82,242.90" fill="#c0c0c0" stroke="rgba(0,0,0,0.3)" stroke-width="1" data-sq="-10,11" class="board-cell"/><polygon points="121.59,249.55 121.59,262.85 110.07,269.50 98.55,262.85 98.55,249.55 110.07,242.90" fill="#d8d8d8" stroke="rgba(0,0,0,0.3)" stroke-width="1" data-sq="-9,11" class="board-cell"/><polygon points="145.84,249.55 145.84,262.85 134.32,269.50 122.80,262.85 122.80,249.55 134.32,242.90" fill="#e8e8e8" stroke="rgba(0,0,0,0.3)" stroke-width="1" data-sq="-8,11" class="board-cell"/><polygon points="170.09,249.55 170.09,262.85 158.57,269.50 147.05,262.85 147.05,249.55 158.57,242.90" fill="#c0c0c0" stroke="rgba(0,0,0,0.3)" stroke-width="1" data-sq="-7,11" class="board-cell"/><polygon points="194.33,249.55 194.33,262.85 182.82,269.50 171.30,262.85 171.30,249.55 182.82,242.90" fill="#d8d8d8" stroke="rgba(0,0,0,0.3)" stroke-width="1" data-sq="-6,11" class="board-cell"/><polygon points="218.58,249.55 218.58,262.85 207.07,269.50 195.55,262.85 195.55,249.55 207.07,242.90" fill="#e8e8e8" stroke="rgba(0,0,0,0.3)" stroke-width="1" data-sq="-5,11" class="board-cell"/><polygon points="242.83,249.55 242.83,262.85 231.31,269.50 219.80,262.85 219.80,249.55 231.31,242.90" fill="#c0c0c0" stroke="rgba(0,0,0,0.3)" stroke-width="1" data-sq="-4,11" class="board-cell"/><polygon points="267.08,249.55 267.08,262.85 255.56,269.50 244.04,262.85 244.04,249.55 255.56,242.90" fill="#d8d8d8" stroke="rgba(0,0,0,0.3)" stroke-width="1" data-sq="-3,11" class="board-cell"/><polygon points="291.33,249.55 291.33,262.85 279.81,269.50 268.29,262.85 268.29,249.55 279.81,242.90" fill="#e8e8e8" stroke="rgba(0,0,0,0.3)" stroke-width="1" data-sq="-2,11" class="board-cell"/><polygon points="315.58,249.55 315.58,262.85 304.06,269.50 292.54,262.85 292.54,249.55 304.06,242.90" fill="#c0c0c0" stroke="rgba(0,0,0,0.3)" stroke-width="1" data-sq="-1,11" class="board-cell"/><polygon points="339.83,249.55 339.83,262.85 328.31,269.50 316.79,262.85 316.79,249.55 328.31,242.90" fill="#d8d8d8" stroke="rgba(0,0,0,0.3)" stroke-width="1" data-sq="0,11" class="board-cell"/><polygon points="60.97,270.55 60.97,283.85 49.45,290.50 37.93,283.85 37.93,270.55 49.45,263.90" fill="#e8e8e8" stroke="rgba(0,0,0,0.3)" stroke-width="1" data-sq="-12,12" class="board-cell"/><polygon points="85.22,270.55 85.22,283.85 73.70,290.50 62.18,283.85 62.18,270.55 73.70,263.90" fill="#c0c0c0" stroke="rgba(0,0,0,0.3)" stroke-width="1" data-sq="-11,12" class="board-cell"/><polygon points="109.46,270.55 109.46,283.85 97.95,290.50 86.43,283.85 86.43,270.55 97.95,263.90" fill="#d8d8d8" stroke="rgba(0,0,0,0.3)" stroke-width="1" data-sq="-10,12" class="board-cell"/><polygon points="133.71,270.55 133.71,283.85 122.19,290.50 110.68,283.85 110.68,270.55 122.19,263.90" fill="#e8e8e8" stroke="rgba(0,0,0,0.3)" stroke-width="1" data-sq="-9,12" class="board-cell"/><polygon points="157.96,270.55 157.96,283.85 146.44,290.50 134.93,283.85 134.93,270.55 146.44,263.90" fill="#c0c0c0" stroke="rgba(0,0,0,0.3)" stroke-width="1" data-sq="-8,12" class="board-cell"/><polygon points="182.21,270.55 182.21,283.85 170.69,290.50 159.17,283.85 159.17,270.55 170.69,263.90" fill="#d8d8d8" stroke="rgba(0,0,0,0.3)" stroke-width="1" data-sq="-7,12" class="board-cell"/><polygon points="206.46,270.55 206.46,283.85 194.94,290.50 183.42,283.85 183.42,270.55 194.94,263.90" fill="#e8e8e8" stroke="rgba(0,0,0,0.3)" stroke-width="1" data-sq="-6,12" class="board-cell"/><polygon points="230.71,270.55 230.71,283.85 219.19,290.50 207.67,283.85 207.67,270.55 219.19,263.90" fill="#c0c0c0" stroke="rgba(0,0,0,0.3)" stroke-width="1" data-sq="-5,12" class="board-cell"/><polygon points="254.96,270.55 254.96,283.85 243.44,290.50 231.92,283.85 231.92,270.55 243.44,263.90" fill="#d8d8d8" stroke="rgba(0,0,0,0.3)" stroke-width="1" data-sq="-4,12" class="board-cell"/><polygon points="279.21,270.55 279.21,283.85 267.69,290.50 256.17,283.85 256.17,270.55 267.69,263.90" fill="#e8e8e8" stroke="rgba(0,0,0,0.3)" stroke-width="1" data-sq="-3,12" class="board-cell"/><polygon points="303.45,270.55 303.45,283.85 291.94,290.50 280.42,283.85 280.42,270.55 291.94,263.90" fill="#c0c0c0" stroke="rgba(0,0,0,0.3)" stroke-width="1" data-sq="-2,12" class="board-cell"/><polygon points="327.70,270.55 327.70,283.85 316.18,290.50 304.67,283.85 304.67,270.55 316.18,263.90" fill="#d8d8d8" stroke="rgba(0,0,0,0.3)" stroke-width="1" data-sq="-1,12" class="board-cell"/><polygon points="351.95,270.55 351.95,283.85 340.43,290.50 328.92,283.85 328.92,270.55 340.43,263.90" fill="#e8e8e8" stroke="rgba(0,0,0,0.3)" stroke-width="1" data-sq="0,12" class="board-cell"/><polygon points="48.84,291.55 48.84,304.85 37.32,311.50 25.81,304.85 25.81,291.55 37.32,284.90" fill="#e8e8e8" stroke="rgba(0,0,0,0.3)" stroke-width="1" data-sq="-13,13" class="board-cell"/><polygon points="73.09,291.55 73.09,304.85 61.57,311.50 50.05,304.85 50.05,291.55 61.57,284.90" fill="#c0c0c0" stroke="rgba(0,0,0,0.3)" stroke-width="1" data-sq="-12,13" class="board-cell"/><polygon points="97.34,291.55 97.34,304.85 85.82,311.50 74.30,304.85 74.30,291.55 85.82,284.90" fill="#d8d8d8" stroke="rgba(0,0,0,0.3)" stroke-width="1" data-sq="-11,13" class="board-cell"/><polygon points="121.59,291.55 121.59,304.85 110.07,311.50 98.55,304.85 98.55,291.55 110.07,284.90" fill="#e8e8e8" stroke="rgba(0,0,0,0.3)" stroke-width="1" data-sq="-10,13" class="board-cell"/><polygon points="145.84,291.55 145.84,304.85 134.32,311.50 122.80,304.85 122.80,291.55 134.32,284.90" fill="#c0c0c0" stroke="rgba(0,0,0,0.3)" stroke-width="1" data-sq="-9,13" class="board-cell"/><polygon points="170.09,291.55 170.09,304.85 158.57,311.50 147.05,304.85 147.05,291.55 158.57,284.90" fill="#d8d8d8" stroke="rgba(0,0,0,0.3)" stroke-width="1" data-sq="-8,13" class="board-cell"/><polygon points="194.33,291.55 194.33,304.85 182.82,311.50 171.30,304.85 171.30,291.55 182.82,284.90" fill="#e8e8e8" stroke="rgba(0,0,0,0.3)" stroke-width="1" data-sq="-7,13" class="board-cell"/><polygon points="218.58,291.55 218.58,304.85 207.07,311.50 195.55,304.85 195.55,291.55 207.07,284.90" fill="#c0c0c0" stroke="rgba(0,0,0,0.3)" stroke-width="1" data-sq="-6,13" class="board-cell"/><polygon points="242.83,291.55 242.83,304.85 231.31,311.50 219.80,304.85 219.80,291.55 231.31,284.90" fill="#d8d8d8" stroke="rgba(0,0,0,0.3)" stroke-width="1" data-sq="-5,13" class="board-cell"/><polygon points="267.08,291.55 267.08,304.85 255.56,311.50 244.04,304.85 244.04,291.55 255.56,284.90" fill="#e8e8e8" stroke="rgba(0,0,0,0.3)" stroke-width="1" data-sq="-4,13" class="board-cell"/><polygon points="291.33,291.55 291.33,304.85 279.81,311.50 268.29,304.85 268.29,291.55 279.81,284.90" fill="#c0c0c0" stroke="rgba(0,0,0,0.3)" stroke-width="1" data-sq="-3,13" class="board-cell"/><polygon points="315.58,291.55 315.58,304.85 304.06,311.50 292.54,304.85 292.54,291.55 304.06,284.90" fill="#d8d8d8" stroke="rgba(0,0,0,0.3)" stroke-width="1" data-sq="-2,13" class="board-cell"/><polygon points="339.83,291.55 339.83,304.85 328.31,311.50 316.79,304.85 316.79,291.55 328.31,284.90" fill="#e8e8e8" stroke="rgba(0,0,0,0.3)" stroke-width="1" data-sq="-1,13" class="board-cell"/><polygon points="364.08,291.55 364.08,304.85 352.56,311.50 341.04,304.85 341.04,291.55 352.56,284.90" fill="#c0c0c0" stroke="rgba(0,0,0,0.3)" stroke-width="1" data-sq="0,13" class="board-cell"/><polygon points="36.72,312.55 36.72,325.85 25.20,332.50 13.68,325.85 13.68,312.55 25.20,305.90" fill="#e8e8e8" stroke="rgba(0,0,0,0.3)" stroke-width="1" data-sq="-14,14" class="board-cell"/><polygon points="60.97,312.55 60.97,325.85 49.45,332.50 37.93,325.85 37.93,312.55 49.45,305.90" fill="#c0c0c0" stroke="rgba(0,0,0,0.3)" stroke-width="1" data-sq="-13,14" class="board-cell"/><polygon points="85.22,312.55 85.22,325.85 73.70,332.50 62.18,325.85 62.18,312.55 73.70,305.90" fill="#d8d8d8" stroke="rgba(0,0,0,0.3)" stroke-width="1" data-sq="-12,14" class="board-cell"/><polygon points="109.46,312.55 109.46,325.85 97.95,332.50 86.43,325.85 86.43,312.55 97.95,305.90" fill="#e8e8e8" stroke="rgba(0,0,0,0.3)" stroke-width="1" data-sq="-11,14" class="board-cell"/><polygon points="133.71,312.55 133.71,325.85 122.19,332.50 110.68,325.85 110.68,312.55 122.19,305.90" fill="#c0c0c0" stroke="rgba(0,0,0,0.3)" stroke-width="1" data-sq="-10,14" class="board-cell"/><polygon points="157.96,312.55 157.96,325.85 146.44,332.50 134.93,325.85 134.93,312.55 146.44,305.90" fill="#d8d8d8" stroke="rgba(0,0,0,0.3)" stroke-width="1" data-sq="-9,14" class="board-cell"/><polygon points="182.21,312.55 182.21,325.85 170.69,332.50 159.17,325.85 159.17,312.55 170.69,305.90" fill="#e8e8e8" stroke="rgba(0,0,0,0.3)" stroke-width="1" data-sq="-8,14" class="board-cell"/><polygon points="206.46,312.55 206.46,325.85 194.94,332.50 183.42,325.85 183.42,312.55 194.94,305.90" fill="#c0c0c0" stroke="rgba(0,0,0,0.3)" stroke-width="1" data-sq="-7,14" class="board-cell"/><polygon points="230.71,312.55 230.71,325.85 219.19,332.50 207.67,325.85 207.67,312.55 219.19,305.90" fill="#d8d8d8" stroke="rgba(0,0,0,0.3)" stroke-width="1" data-sq="-6,14" class="board-cell"/><polygon points="254.96,312.55 254.96,325.85 243.44,332.50 231.92,325.85 231.92,312.55 243.44,305.90" fill="#e8e8e8" stroke="rgba(0,0,0,0.3)" stroke-width="1" data-sq="-5,14" class="board-cell"/><polygon points="279.21,312.55 279.21,325.85 267.69,332.50 256.17,325.85 256.17,312.55 267.69,305.90" fill="#c0c0c0" stroke="rgba(0,0,0,0.3)" stroke-width="1" data-sq="-4,14" class="board-cell"/><polygon points="303.45,312.55 303.45,325.85 291.94,332.50 280.42,325.85 280.42,312.55 291.94,305.90" fill="#d8d8d8" stroke="rgba(0,0,0,0.3)" stroke-width="1" data-sq="-3,14" class="board-cell"/><polygon points="327.70,312.55 327.70,325.85 316.18,332.50 304.67,325.85 304.67,312.55 316.18,305.90" fill="#e8e8e8" stroke="rgba(0,0,0,0.3)" stroke-width="1" data-sq="-2,14" class="board-cell"/><polygon points="351.95,312.55 351.95,325.85 340.43,332.50 328.92,325.85 328.92,312.55 340.43,305.90" fill="#c0c0c0" stroke="rgba(0,0,0,0.3)" stroke-width="1" data-sq="-1,14" class="board-cell"/><polygon points="376.20,312.55 376.20,325.85 364.68,332.50 353.16,325.85 353.16,312.55 364.68,305.90" fill="#d8d8d8" stroke="rgba(0,0,0,0.3)" stroke-width="1" data-sq="0,14" class="board-cell"/>
</svg>