<svg xmlns="http://www.w3.org/2000/svg" viewBox="0 0 384.0409421321224 343.2" width="384.0409421321224" height="343.2">
<g fill="#6b4226"><polygon points="212.60,27.72 212.60,51.48 192.02,63.36 171.44,51.48 171.44,27.72 192.02,15.84"/><polygon points="193.54,60.72 193.54,84.48 172.97,96.36 152.39,84.48 152.39,60.72 172.97,48.84"/><polygon points="231.65,60.72 231.65,84.48 211.07,96.36 190.50,84.48 190.50,60.72 211.07,48.84"/><polygon points="174.49,93.72 174.49,117.48 153.92,129.36 133.34,117.48 133.34,93.72 153.92,81.84"/><polygon points="212.60,93.72 212.60,117.48 192.02,129.36 171.44,117.48 171.44,93.72 192.02,81.84"/><polygon points="250.70,93.72 250.70,117.48 230.13,129.36 209.55,117.48 209.55,93.72 230.13,81.84"/><polygon points="155.44,126.72 155.44,150.48 134.86,162.36 114.29,150.48 114.29,126.72 134.86,114.84"/><polygon points="193.54,126.72 193.54,150.48 172.97,162.36 152.39,150.48 152.39,126.72 172.97,114.84"/><polygon points="231.65,126.72 231.65,150.48 211.07,162.36 190.50,150.48 190.50,126.72 211.07,114.84"/><polygon points="269.75,126.72 269.75,150.48 249.18,162.36 228.60,150.48 228.60,126.72 249.18,114.84"/><polygon points="136.39,159.72 136.39,183.48 115.81,195.36 95.23,183.48 95.23,159.72 115.81,147.84"/><polygon points="174.49,159.72 174.49,183.48 153.92,195.36 133.34,183.48 133.34,159.72 153.92,147.84"/><polygon points="212.60,159.72 212.60,183.48 192.02,195.36 171.44,183.48 171.44,159.72 192.02,147.84"/><polygon points="250.70,159.72 250.70,183.48 230.13,195.36 209.55,183.48 209.55,159.72 230.13,147.84"/><polygon points="288.81,159.72 288.81,183.48 268.23,195.36 247.65,183.48 247.65,159.72 268.23,147.84"/><polygon points="117.33,192.72 117.33,216.48 96.76,228.36 76.18,216.48 76.18,192.72 96.76,180.84"/><polygon points="155.44,192.72 155.44,216.48 134.86,228.36 114.29,216.48 114.29,192.72 134.86,180.84"/><polygon points="193.54,192.72 193.54,216.48 172.97,228.36 152.39,216.48 152.39,192.72 172.97,180.84"/><polygon points="231.65,192.72 231.65,216.48 211.07,228.36 190.50,216.48 190.50,192.72 211.07,180.84"/><polygon points="269.75,192.72 269.75,216.48 249.18,228.36 228.60,216.48 228.60,192.72 249.18,180.84"/><polygon points="307.86,192.72 307.86,216.48 287.28,228.36 266.71,216.48 266.71,192.72 287.28,180.84"/><polygon points="98.28,225.72 98.28,249.48 77.71,261.36 57.13,249.48 57.13,225.72 77.71,213.84"/><polygon points="136.39,225.72 136.39,249.48 115.81,261.36 95.23,249.48 95.23,225.72 115.81,213.84"/><polygon points="174.49,225.72 174.49,249.48 153.92,261.36 133.34,249.48 133.34,225.72 153.92,213.84"/><polygon points="212.60,225.72 212.60,249.48 192.02,261.36 171.44,249.48 171.44,225.72 192.02,213.84"/><polygon points="250.70,225.72 250.70,249.48 230.13,261.36 209.55,249.48 209.55,225.72 230.13,213.84"/><polygon points="288.81,225.72 288.81,249.48 268.23,261.36 247.65,249.48 247.65,225.72 268.23,213.84"/><polygon points="326.91,225.72 326.91,249.48 306.34,261.36 285.76,249.48 285.76,225.72 306.34,213.84"/><polygon points="79.23,258.72 79.23,282.48 58.65,294.36 38.08,282.48 38.08,258.72 58.65,246.84"/><polygon points="117.33,258.72 117.33,282.48 96.76,294.36 76.18,282.48 76.18,258.72 96.76,246.84"/><polygon points="155.44,258.72 155.44,282.48 134.86,294.36 114.29,282.48 114.29,258.72 134.86,246.84"/><polygon points="193.54,258.72 193.54,282.48 172.97,294.36 152.39,282.48 152.39,258.72 172.97,246.84"/><polygon points="231.65,258.72 231.65,282.48 211.07,294.36 190.50,282.48 190.50,258.72 211.07,246.84"/><polygon points="269.75,258.72 269.75,282.48 249.18,294.36 228.60,282.48 228.60,258.72 249.18,246.84"/><polygon points="307.86,258.72 307.86,282.48 287.28,294.36 266.71,282.48 266.71,258.72 287.28,246.84"/><polygon points="345.97,258.72 345.97,282.48 325.39,294.36 304.81,282.48 304.81,258.72 325.39,246.84"/><polygon points="60.18,291.72 60.18,315.48 39.60,327.36 19.02,315.48 19.02,291.72 39.60,279.84"/><polygon points="98.28,291.72 98.28,315.48 77.71,327.36 57.13,315.48 57.13,291.72 77.71,279.84"/><polygon points="136.39,291.72 136.39,315.48 115.81,327.36 95.23,315.48 95.23,291.72 115.81,279.84"/><polygon points="174.49,291.72 174.49,315.48 153.92,327.36 133.34,315.48 133.34,291.72 153.92,279.84"/><polygon points="212.60,291.72 212.60,315.48 192.02,327.36 171.44,315.48 171.44,291.72 192.02,279.84"/><polygon points="250.70,291.72 250.70,315.48 230.13,327.36 209.55,315.48 209.55,291.72 230.13,279.84"/><polygon points="288.81,291.72 288.81,315.48 268.23,327.36 247.65,315.48 247.65,291.72 268.23,279.84"/><polygon points="326.91,291.72 326.91,315.48 306.34,327.36 285.76,315.48 285.76,291.72 306.34,279.84"/><polygon points="365.02,291.72 365.02,315.48 344.44,327.36 323.86,315.48 323.86,291.72 344.44,279.84"/></g><g fill="none" stroke="#6b4226" stroke-width="14" stroke-linecap="round" stroke-linejoin="round"><line x1="212.03" y1="28.05" x2="212.03" y2="51.15"/><line x1="172.02" y1="51.15" x2="172.02" y2="28.05"/><line x1="172.02" y1="28.05" x2="192.02" y2="16.50"/><line x1="192.02" y1="16.50" x2="212.03" y2="28.05"/><line x1="152.96" y1="84.15" x2="152.96" y2="61.05"/><line x1="152.96" y1="61.05" x2="172.97" y2="49.50"/><line x1="231.08" y1="61.05" x2="231.08" y2="84.15"/><line x1="211.07" y1="49.50" x2="231.08" y2="61.05"/><line x1="133.91" y1="117.15" x2="133.91" y2="94.05"/><line x1="133.91" y1="94.05" x2="153.92" y2="82.50"/><line x1="250.13" y1="94.05" x2="250.13" y2="117.15"/><line x1="230.13" y1="82.50" x2="250.13" y2="94.05"/><line x1="114.86" y1="150.15" x2="114.86" y2="127.05"/><line x1="114.86" y1="127.05" x2="134.86" y2="115.50"/><line x1="269.18" y1="127.05" x2="269.18" y2="150.15"/><line x1="249.18" y1="115.50" x2="269.18" y2="127.05"/><line x1="95.81" y1="183.15" x2="95.81" y2="160.05"/><line x1="95.81" y1="160.05" x2="115.81" y2="148.50"/><line x1="288.24" y1="160.05" x2="288.24" y2="183.15"/><line x1="268.23" y1="148.50" x2="288.24" y2="160.05"/><line x1="76.75" y1="216.15" x2="76.75" y2="193.05"/><line x1="76.75" y1="193.05" x2="96.76" y2="181.50"/><line x1="307.29" y1="193.05" x2="307.29" y2="216.15"/><line x1="287.28" y1="181.50" x2="307.29" y2="193.05"/><line x1="57.70" y1="249.15" x2="57.70" y2="226.05"/><line x1="57.70" y1="226.05" x2="77.71" y2="214.50"/><line x1="326.34" y1="226.05" x2="326.34" y2="249.15"/><line x1="306.34" y1="214.50" x2="326.34" y2="226.05"/><line x1="38.65" y1="282.15" x2="38.65" y2="259.05"/><line x1="38.65" y1="259.05" x2="58.65" y2="247.50"/><line x1="345.39" y1="259.05" x2="345.39" y2="282.15"/><line x1="325.39" y1="247.50" x2="345.39" y2="259.05"/><line x1="59.61" y1="315.15" x2="39.60" y2="326.70"/><line x1="39.60" y1="326.70" x2="19.59" y2="315.15"/><line x1="19.59" y1="315.15" x2="19.59" y2="292.05"/><line x1="19.59" y1="292.05" x2="39.60" y2="280.50"/><line x1="97.71" y1="315.15" x2="77.71" y2="326.70"/><line x1="77.71" y1="326.70" x2="57.70" y2="315.15"/><line x1="135.82" y1="315.15" x2="115.81" y2="326.70"/><line x1="115.81" y1="326.70" x2="95.81" y2="315.15"/><line x1="173.92" y1="315.15" x2="153.92" y2="326.70"/><line x1="153.92" y1="326.70" x2="133.91" y2="315.15"/><line x1="212.03" y1="315.15" x2="192.02" y2="326.70"/><line x1="192.02" y1="326.70" x2="172.02" y2="315.15"/><line x1="250.13" y1="315.15" x2="230.13" y2="326.70"/><line x1="230.13" y1="326.70" x2="210.12" y2="315.15"/><line x1="288.24" y1="315.15" x2="268.23" y2="326.70"/><line x1="268.23" y1="326.70" x2="248.23" y2="315.15"/><line x1="326.34" y1="315.15" x2="306.34" y2="326.70"/><line x1="306.34" y1="326.70" x2="286.33" y2="315.15"/><line x1="364.45" y1="292.05" x2="364.45" y2="315.15"/><line x1="364.45" y1="315.15" x2="344.44" y2="326.70"/><line x1="344.44" y1="326.70" x2="324.44" y2="315.15"/><line x1="344.44" y1="280.50" x2="364.45" y2="292.05"/></g><polygon points="210.12,29.15 210.12,50.05 192.02,60.50 173.92,50.05 173.92,29.15 192.02,18.70" fill="#e8e8e8" stroke="rgba(0,0,0,0.3)" stroke-width="1" data-sq="0,0" class="board-cell"/><polygon points="191.07,62.15 191.07,83.05 172.97,93.50 154.87,83.05 154.87,62.15 172.97,51.70" fill="#e8e8e8" stroke="rgba(0,0,0,0.3)" stroke-width="1" data-sq="-1,1" class="board-cell"/><polygon points="229.17,62.15 229.17,83.05 211.07,93.50 192.97,83.05 192.97,62.15 211.07,51.70" fill="#c0c0c0" stroke="rgba(0,0,0,0.3)" stroke-width="1" data-sq="0,1" class="board-cell"/><polygon points="172.02,95.15 172.02,116.05 153.92,126.50 135.82,116.05 135.82,95.15 153.92,84.70" fill="#e8e8e8" stroke="rgba(0,0,0,0.3)" stroke-width="1" data-sq="-2,2" class="board-cell"/><polygon points="210.12,95.15 210.12,116.05 192.02,126.50 173.92,116.05 173.92,95.15 192.02,84.70" fill="#c0c0c0" stroke="rgba(0,0,0,0.3)" stroke-width="1" data-sq="-1,2" class="board-cell"/><polygon points="248.23,95.15 248.23,116.05 230.13,126.50 212.03,116.05 212.03,95.15 230.13,84.70" fill="#d8d8d8" stroke="rgba(0,0,0,0.3)" stroke-width="1" data-sq="0,2" class="board-cell"/><polygon points="152.96,128.15 152.96,149.05 134.86,159.50 116.76,149.05 116.76,128.15 134.86,117.70" fill="#e8e8e8" stroke="rgba(0,0,0,0.3)" stroke-width="1" data-sq="-3,3" class="board-cell"/><polygon points="191.07,128.15 191.07,149.05 172.97,159.50 154.87,149.05 154.87,128.15 172.97,117.70" fill="#c0c0c0" stroke="rgba(0,0,0,0.3)" stroke-width="1" data-sq="-2,3" class="board-cell"/><polygon points="229.17,128.15 229.17,149.05 211.07,159.50 192.97,149.05 192.97,128.15 211.07,117.70" fill="#d8d8d8" stroke="rgba(0,0,0,0.3)" stroke-width="1" data-sq="-1,3" class="board-cell"/><polygon points="267.28,128.15 267.28,149.05 249.18,159.50 231.08,149.05 231.08,128.15 249.18,117.70" fill="#e8e8e8" stroke="rgba(0,0,0,0.3)" stroke-width="1" data-sq="0,3" class="board-cell"/><polygon points="133.91,161.15 133.91,182.05 115.81,192.50 97.71,182.05 97.71,161.15 115.81,150.70" fill="#e8e8e8" stroke="rgba(0,0,0,0.3)" stroke-width="1" data-sq="-4,4" class="board-cell"/><polygon points="172.02,161.15 172.02,182.05 153.92,192.50 135.82,182.05 135.82,161.15 153.92,150.70" fill="#c0c0c0" stroke="rgba(0,0,0,0.3)" stroke-width="1" data-sq="-3,4" class="board-cell"/><polygon points="210.12,161.15 210.12,182.05 192.02,192.50 173.92,182.05 173.92,161.15 192.02,150.70" fill="#d8d8d8" stroke="rgba(0,0,0,0.3)" stroke-width="1" data-sq="-2,4" class="board-cell"/><polygon points="248.23,161.15 248.23,182.05 230.13,192.50 212.03,182.05 212.03,161.15 230.13,150.70" fill="#e8e8e8" stroke="rgba(0,0,0,0.3)" stroke-width="1" data-sq="-1,4" class="board-cell"/><polygon points="286.33,161.15 286.33,182.05 268.23,192.50 250.13,182.05 250.13,161.15 268.23,150.70" fill="#c0c0c0" stroke="rgba(0,0,0,0.3)" stroke-width="1" data-sq="0,4" class="board-cell"/><polygon points="114.86,194.15 114.86,215.05 96.76,225.50 78.66,215.05 78.66,194.15 96.76,183.70" fill="#e8e8e8" stroke="rgba(0,0,0,0.3)" stroke-width="1" data-sq="-5,5" class="board-cell"/><polygon points="152.96,194.15 152.96,215.05 134.86,225.50 116.76,215.05 116.76,194.15 134.86,183.70" fill="#c0c0c0" stroke="rgba(0,0,0,0.3)" stroke-width="1" data-sq="-4,5" class="board-cell"/><polygon points="191.07,194.15 191.07,215.05 172.97,225.50 154.87,215.05 154.87,194.15 172.97,183.70" fill="#d8d8d8" stroke="rgba(0,0,0,0.3)" stroke-width="1" data-sq="-3,5" class="board-cell"/><polygon points="229.17,194.15 229.17,215.05 211.07,225.50 192.97,215.05 192.97,194.15 211.07,183.70" fill="#e8e8e8" stroke="rgba(0,0,0,0.3)" stroke-width="1" data-sq="-2,5" class="board-cell"/><polygon points="267.28,194.15 267.28,215.05 249.18,225.50 231.08,215.05 231.08,194.15 249.18,183.70" fill="#c0c0c0" stroke="rgba(0,0,0,0.3)" stroke-width="1" data-sq="-1,5" class="board-cell"/><polygon points="305.38,194.15 305.38,215.05 287.28,225.50 269.18,215.05 269.18,194.15 287.28,183.70" fill="#d8d8d8" stroke="rgba(0,0,0,0.3)" stroke-width="1" data-sq="0,5" class="board-cell"/><polygon points="95.81,227.15 95.81,248.05 77.71,258.50 59.61,248.05 59.61,227.15 77.71,216.70" fill="#e8e8e8" stroke="rgba(0,0,0,0.3)" stroke-width="1" data-sq="-6,6" class="board-cell"/><polygon points="133.91,227.15 133.91,248.05 115.81,258.50 97.71,248.05 97.71,227.15 115.81,216.70" fill="#c0c0c0" stroke="rgba(0,0,0,0.3)" stroke-width="1" data-sq="-5,6" class="board-cell"/><polygon points="172.02,227.15 172.02,248.05 153.92,258.50 135.82,248.05 135.82,227.15 153.92,216.70" fill="#d8d8d8" stroke="rgba(0,0,0,0.3)" stroke-width="1" data-sq="-4,6" class="board-cell"/><polygon points="210.12,227.15 210.12,248.05 192.02,258.50 173.92,248.05 173.92,227.15 192.02,216.70" fill="#e8e8e8" stroke="rgba(0,0,0,0.3)" stroke-width="1" data-sq="-3,6" class="board-cell"/><polygon points="248.23,227.15 248.23,248.05 230.13,258.50 212.03,248.05 212.03,227.15 230.13,216.70" fill="#c0c0c0" stroke="rgba(0,0,0,0.3)" stroke-width="1" data-sq="-2,6" class="board-cell"/><polygon points="286.33,227.15 286.33,248.05 268.23,258.50 250.13,248.05 250.13,227.15 268.23,216.70" fill="#d8d8d8" stroke="rgba(0,0,0,0.3)" stroke-width="1" data-sq="-1,6" class="board-cell"/><polygon points="324.44,227.15 324.44,248.05 306.34,258.50 288.24,248.05 288.24,227.15 306.34,216.70" fill="#e8e8e8" stroke="rgba(0,0,0,0.3)" stroke-width="1" data-sq="0,6" class="board-cell"/><polygon points="76.75,260.15 76.75,281.05 58.65,291.50 40.55,281.05 40.55,260.15 58.65,249.70" fill="#e8e8e8" stroke="rgba(0,0,0,0.3)" stroke-width="1" data-sq="-7,7" class="board-cell"/><polygon points="114.86,260.15 114.86,281.05 96.76,291.50 78.66,281.05 78.66,260.15 96.76,249.70" fill="#c0c0c0" stroke="rgba(0,0,0,0.3)" stroke-width="1" data-sq="-6,7" class="board-cell"/><polygon points="152.96,260.15 152.96,281.05 134.86,291.50 116.76,281.05 116.76,260.15 134.86,249.70" fill="#d8d8d8" stroke="rgba(0,0,0,0.3)" stroke-width="1" data-sq="-5,7" class="board-cell"/><polygon points="191.07,260.15 191.07,281.05 172.97,291.50 154.87,281.05 154.87,260.15 172.97,249.70" fill="#e8e8e8" stroke="rgba(0,0,0,0.3)" stroke-width="1" data-sq="-4,7" class="board-cell"/><polygon points="229.17,260.15 229.17,281.05 211.07,291.50 192.97,281.05 192.97,260.15 211.07,249.70" fill="#c0c0c0" stroke="rgba(0,0,0,0.3)" stroke-width="1" data-sq="-3,7" class="board-cell"/><polygon points="267.28,260.15 267.28,281.05 249.18,291.50 231.08,281.05 231.08,260.15 249.18,249.70" fill="#d8d8d8" stroke="rgba(0,0,0,0.3)" stroke-width="1" data-sq="-2,7" class="board-cell"/><polygon points="305.38,260.15 305.38,281.05 287.28,291.50 269.18,281.05 269.18,260.15 287.28,249.70" fill="#e8e8e8" stroke="rgba(0,0,0,0.3)" stroke-width="1" data-sq="-1,7" class="board-cell"/><polygon points="343.49,260.15 343.49,281.05 325.39,291.50 307.29,281.05 307.29,260.15 325.39,249.70" fill="#c0c0c0" stroke="rgba(0,0,0,0.3)" stroke-width="1" data-sq="0,7" class="board-cell"/><polygon points="57.70,293.15 57.70,314.05 39.60,324.50 21.50,314.05 21.50,293.15 39.60,282.70" fill="#e8e8e8" stroke="rgba(0,0,0,0.3)" stroke-width="1" data-sq="-8,8" class="board-cell"/><polygon points="95.81,293.15 95.81,314.05 77.71,324.50 59.61,314.05 59.61,293.15 77.71,282.70" fill="#c0c0c0" stroke="rgba(0,0,0,0.3)" stroke-width="1" data-sq="-7,8" class="board-cell"/><polygon points="133.91,293.15 133.91,314.05 115.81,324.50 97.71,314.05 97.71,293.15 115.81,282.70" fill="#d8d8d8" stroke="rgba(0,0,0,0.3)" stroke-width="1" data-sq="-6,8" class="board-cell"/><polygon points="172.02,293.15 172.02,314.05 153.92,324.50 135.82,314.05 135.82,293.15 153.92,282.70" fill="#e8e8e8" stroke="rgba(0,0,0,0.3)" stroke-width="1" data-sq="-5,8" class="board-cell"/><polygon points="210.12,293.15 210.12,314.05 192.02,324.50 173.92,314.05 173.92,293.15 192.02,282.70" fill="#c0c0c0" stroke="rgba(0,0,0,0.3)" stroke-width="1" data-sq="-4,8" class="board-cell"/><polygon points="248.23,293.15 248.23,314.05 230.13,324.50 212.03,314.05 212.03,293.15 230.13,282.70" fill="#d8d8d8" stroke="rgba(0,0,0,0.3)" stroke-width="1" data-sq="-3,8" class="board-cell"/><polygon points="286.33,293.15 286.33,314.05 268.23,324.50 250.13,314.05 250.13,293.15 268.23,282.70" fill="#e8e8e8" stroke="rgba(0,0,0,0.3)" stroke-width="1" data-sq="-2,8" class="board-cell"/><polygon points="324.44,293.15 324.44,314.05 306.34,324.50 288.24,314.05 288.24,293.15 306.34,282.70" fill="#c0c0c0" stroke="rgba(0,0,0,0.3)" stroke-width="1" data-sq="-1,8" class="board-cell"/><polygon points="362.54,293.15 362.54,314.05 344.44,324.50 326.34,314.05 326.34,293.15 344.44,282.70" fill="#d8d8d8" stroke="rgba(0,0,0,0.3)" stroke-width="1" data-sq="0,8" class="board-cell"/>
</svg>