<svg xmlns="http://www.w3.org/2000/svg" viewBox="0 0 407.7460598986377 361.8" width="407.7460598986377" height="361.8">
<g fill="#6b4226"><polygon points="220.71,22.68 220.71,42.12 203.87,51.84 187.04,42.12 187.04,22.68 203.87,12.96"/><polygon points="205.12,49.68 205.12,69.12 188.28,78.84 171.45,69.12 171.45,49.68 188.28,39.96"/><polygon points="236.30,49.68 236.30,69.12 219.46,78.84 202.63,69.12 202.63,49.68 219.46,39.96"/><polygon points="189.53,76.68 189.53,96.12 172.70,105.84 155.86,96.12 155.86,76.68 172.70,66.96"/><polygon points="220.71,76.68 220.71,96.12 203.87,105.84 187.04,96.12 187.04,76.68 203.87,66.96"/><polygon points="251.89,76.68 251.89,96.12 235.05,105.84 218.21,96.12 218.21,76.68 235.05,66.96"/><polygon points="173.94,103.68 173.94,123.12 157.11,132.84 140.27,123.12 140.27,103.68 157.11,93.96"/><polygon points="205.12,103.68 205.12,123.12 188.28,132.84 171.45,123.12 171.45,103.68 188.28,93.96"/><polygon points="236.30,103.68 236.30,123.12 219.46,132.84 202.63,123.12 202.63,103.68 219.46,93.96"/><polygon points="267.47,103.68 267.47,123.12 250.64,132.84 233.80,123.12 233.80,103.68 250.64,93.96"/><polygon points="158.35,130.68 158.35,150.12 141.52,159.84 124.68,150.12 124.68,130.68 141.52,120.96"/><polygon points="189.53,130.68 189.53,150.12 172.70,159.84 155.86,150.12 155.86,130.68 172.70,120.96"/><polygon points="220.71,130.68 220.71,150.12 203.87,159.84 187.04,150.12 187.04,130.68 203.87,120.96"/><polygon points="251.89,130.68 251.89,150.12 235.05,159.84 218.21,150.12 218.21,130.68 235.05,120.96"/><polygon points="283.06,130.68 283.06,150.12 266.23,159.84 249.39,150.12 249.39,130.68 266.23,120.96"/><polygon points="142.77,157.68 142.77,177.12 125.93,186.84 109.10,177.12 109.10,157.68 125.93,147.96"/><polygon points="173.94,157.68 173.94,177.12 157.11,186.84 140.27,177.12 140.27,157.68 157.11,147.96"/><polygon points="205.12,157.68 205.12,177.12 188.28,186.84 171.45,177.12 171.45,157.68 188.28,147.96"/><polygon points="236.30,157.68 236.30,177.12 219.46,186.84 202.63,177.12 202.63,157.68 219.46,147.96"/><polygon points="267.47,157.68 267.47,177.12 250.64,186.84 233.80,177.12 233.80,157.68 250.64,147.96"/><polygon points="298.65,157.68 298.65,177.12 281.82,186.84 264.98,177.12 264.98,157.68 281.82,147.96"/><polygon points="127.18,184.68 127.18,204.12 110.34,213.84 93.51,204.12 93.51,184.68 110.34,174.96"/><polygon points="158.35,184.68 158.35,204.12 141.52,213.84 124.68,204.12 124.68,184.68 141.52,174.96"/><polygon points="189.53,184.68 189.53,204.12 172.70,213.84 155.86,204.12 155.86,184.68 172.70,174.96"/><polygon points="220.71,184.68 220.71,204.12 203.87,213.84 187.04,204.12 187.04,184.68 203.87,174.96"/><polygon points="251.89,184.68 251.89,204.12 235.05,213.84 218.21,204.12 218.21,184.68 235.05,174.96"/><polygon points="283.06,184.68 283.06,204.12 266.23,213.84 249.39,204.12 249.39,184.68 266.23,174.96"/><polygon points="314.24,184.68 314.24,204.12 297.40,213.84 280.57,204.12 280.57,184.68 297.40,174.96"/><polygon points="111.59,211.68 111.59,231.12 94.75,240.84 77.92,231.12 77.92,211.68 94.75,201.96"/><polygon points="142.77,211.68 142.77,231.12 125.93,240.84 109.10,231.12 109.10,211.68 125.93,201.96"/><polygon points="173.94,211.68 173.94,231.12 157.11,240.84 140.27,231.12 140.27,211.68 157.11,201.96"/><polygon points="205.12,211.68 205.12,231.12 188.28,240.84 171.45,231.12 171.45,211.68 188.28,201.96"/><polygon points="236.30,211.68 236.30,231.12 219.46,240.84 202.63,231.12 202.63,211.68 219.46,201.96"/><polygon points="267.47,211.68 267.47,231.12 250.64,240.84 233.80,231.12 233.80,211.68 250.64,201.96"/><polygon points="298.65,211.68 298.65,231.12 281.82,240.84 264.98,231.12 264.98,211.68 281.82,201.96"/><polygon points="329.83,211.68 329.83,231.12 312.99,240.84 296.16,231.12 296.16,211.68 312.99,201.96"/><polygon points="96.00,238.68 96.00,258.12 79.17,267.84 62.33,258.12 62.33,238.68 79.17,228.96"/><polygon points="127.18,238.68 127.18,258.12 110.34,267.84 93.51,258.12 93.51,238.68 110.34,228.96"/><polygon points="158.35,238.68 158.35,258.12 141.52,267.84 124.68,258.12 124.68,238.68 141.52,228.96"/><polygon points="189.53,238.68 189.53,258.12 172.70,267.84 155.86,258.12 155.86,238.68 172.70,228.96"/><polygon points="220.71,238.68 220.71,258.12 203.87,267.84 187.04,258.12 187.04,238.68 203.87,228.96"/><polygon points="251.89,238.68 251.89,258.12 235.05,267.84 218.21,258.12 218.21,238.68 235.05,228.96"/><polygon points="283.06,238.68 283.06,258.12 266.23,267.84 249.39,258.12 249.39,238.68 266.23,228.96"/><polygon points="314.24,238.68 314.24,258.12 297.40,267.84 280.57,258.12 280.57,238.68 297.40,228.96"/><polygon points="345.42,238.68 345.42,258.12 328.58,267.84 311.75,258.12 311.75,238.68 328.58,228.96"/><polygon points="80.41,265.68 80.41,285.12 63.58,294.84 46.74,285.12 46.74,265.68 63.58,255.96"/><polygon points="111.59,265.68 111.59,285.12 94.75,294.84 77.92,285.12 77.92,265.68 94.75,255.96"/><polygon points="142.77,265.68 142.77,285.12 125.93,294.84 109.10,285.12 109.10,265.68 125.93,255.96"/><polygon points="173.94,265.68 173.94,285.12 157.11,294.84 140.27,285.12 140.27,265.68 157.11,255.96"/><polygon points="205.12,265.68 205.12,285.12 188.28,294.84 171.45,285.12 171.45,265.68 188.28,255.96"/><polygon points="236.30,265.68 236.30,285.12 219.46,294.84 202.63,285.12 202.63,265.68 219.46,255.96"/><polygon points="267.47,265.68 267.47,285.12 250.64,294.84 233.80,285.12 233.80,265.68 250.64,255.96"/><polygon points="298.65,265.68 298.65,285.12 281.82,294.84 264.98,285.12 264.98,265.68 281.82,255.96"/><polygon points="329.83,265.68 329.83,285.12 312.99,294.84 296.16,285.12 296.16,265.68 312.99,255.96"/><polygon points="361.00,265.68 361.00,285.12 344.17,294.84 327.33,285.12 327.33,265.68 344.17,255.96"/><polygon points="64.82,292.68 64.82,312.12 47.99,321.84 31.15,312.12 31.15,292.68 47.99,282.96"/><polygon points="96.00,292.68 96.00,312.12 79.17,321.84 62.33,312.12 62.33,292.68 79.17,282.96"/><polygon points="127.18,292.68 127.18,312.12 110.34,321.84 93.51,312.12 93.51,292.68 110.34,282.96"/><polygon points="158.35,292.68 158.35,312.12 141.52,321.84 124.68,312.12 124.68,292.68 141.52,282.96"/><polygon points="189.53,292.68 189.53,312.12 172.70,321.84 155.86,312.12 155.86,292.68 172.70,282.96"/><polygon points="220.71,292.68 220.71,312.12 203.87,321.84 187.04,312.12 187.04,292.68 203.87,282.96"/><polygon points="251.89,292.68 251.89,312.12 235.05,321.84 218.21,312.12 218.21,292.68 235.05,282.96"/><polygon points="283.06,292.68 283.06,312.12 266.23,321.84 249.39,312.12 249.39,292.68 266.23,282.96"/><polygon points="314.24,292.68 314.24,312.12 297.40,321.84 280.57,312.12 280.57,292.68 297.40,282.96"/><polygon points="345.42,292.68 345.42,312.12 328.58,321.84 311.75,312.12 311.75,292.68 328.58,282.96"/><polygon points="376.59,292.68 376.59,312.12 359.76,321.84 342.92,312.12 342.92,292.68 359.76,282.96"/><polygon points="49.24,319.68 49.24,339.12 32.40,348.84 15.56,339.12 15.56,319.68 32.40,309.96"/><polygon points="80.41,319.68 80.41,339.12 63.58,348.84 46.74,339.12 46.74,319.68 63.58,309.96"/><polygon points="111.59,319.68 111.59,339.12 94.75,348.84 77.92,339.12 77.92,319.68 94.75,309.96"/><polygon points="142.77,319.68 142.77,339.12 125.93,348.84 109.10,339.12 109.10,319.68 125.93,309.96"/><polygon points="173.94,319.68 173.94,339.12 157.11,348.84 140.27,339.12 140.27,319.68 157.11,309.96"/><polygon points="205.12,319.68 205.12,339.12 188.28,348.84 171.45,339.12 171.45,319.68 188.28,309.96"/><polygon points="236.30,319.68 236.30,339.12 219.46,348.84 202.63,339.12 202.63,319.68 219.46,309.96"/><polygon points="267.47,319.68 267.47,339.12 250.64,348.84 233.80,339.12 233.80,319.68 250.64,309.96"/><polygon points="298.65,319.68 298.65,339.12 281.82,348.84 264.98,339.12 264.98,319.68 281.82,309.96"/><polygon points="329.83,319.68 329.83,339.12 312.99,348.84 296.16,339.12 296.16,319.68 312.99,309.96"/><polygon points="361.00,319.68 361.00,339.12 344.17,348.84 327.33,339.12 327.33,319.68 344.17,309.96"/><polygon points="392.18,319.68 392.18,339.12 375.35,348.84 358.51,339.12 358.51,319.68 375.35,309.96"/></g><g fill="none" stroke="#6b4226" stroke-width="14" stroke-linecap="round" stroke-linejoin="round"><line x1="220.24" y1="22.95" x2="220.24" y2="41.85"/><line x1="187.51" y1="41.85" x2="187.51" y2="22.95"/><line x1="187.51" y1="22.95" x2="203.87" y2="13.50"/><line x1="203.87" y1="13.50" x2="220.24" y2="22.95"/><line x1="171.92" y1="68.85" x2="171.92" y2="49.95"/><line x1="171.92" y1="49.95" x2="188.28" y2="40.50"/><line x1="235.83" y1="49.95" x2="235.83" y2="68.85"/><line x1="219.46" y1="40.50" x2="235.83" y2="49.95"/><line x1="156.33" y1="95.85" x2="156.33" y2="76.95"/><line x1="156.33" y1="76.95" x2="172.70" y2="67.50"/><line x1="251.42" y1="76.95" x2="251.42" y2="95.85"/><line x1="235.05" y1="67.50" x2="251.42" y2="76.95"/><line x1="140.74" y1="122.85" x2="140.74" y2="103.95"/><line x1="140.74" y1="103.95" x2="157.11" y2="94.50"/><line x1="267.01" y1="103.95" x2="267.01" y2="122.85"/><line x1="250.64" y1="94.50" x2="267.01" y2="103.95"/><line x1="125.15" y1="149.85" x2="125.15" y2="130.95"/><line x1="125.15" y1="130.95" x2="141.52" y2="121.50"/><line x1="282.59" y1="130.95" x2="282.59" y2="149.85"/><line x1="266.23" y1="121.50" x2="282.59" y2="130.95"/><line x1="109.56" y1="176.85" x2="109.56" y2="157.95"/><line x1="109.56" y1="157.95" x2="125.93" y2="148.50"/><line x1="298.18" y1="157.95" x2="298.18" y2="176.85"/><line x1="281.82" y1="148.50" x2="298.18" y2="157.95"/><line x1="93.97" y1="203.85" x2="93.97" y2="184.95"/><line x1="93.97" y1="184.95" x2="110.34" y2="175.50"/><line x1="313.77" y1="184.95" x2="313.77" y2="203.85"/><line x1="297.40" y1="175.50" x2="313.77" y2="184.95"/><line x1="78.39" y1="230.85" x2="78.39" y2="211.95"/><line x1="78.39" y1="211.95" x2="94.75" y2="202.50"/><line x1="329.36" y1="211.95" x2="329.36" y2="230.85"/><line x1="312.99" y1="202.50" x2="329.36" y2="211.95"/><line x1="62.80" y1="257.85" x2="62.80" y2="238.95"/><line x1="62.80" y1="238.95" x2="79.17" y2="229.50"/><line x1="344.95" y1="238.95" x2="344.95" y2="257.85"/><line x1="328.58" y1="229.50" x2="344.95" y2="238.95"/><line x1="47.21" y1="284.85" x2="47.21" y2="265.95"/><line x1="47.21" y1="265.95" x2="63.58" y2="256.50"/><line x1="360.54" y1="265.95" x2="360.54" y2="284.85"/><line x1="344.17" y1="256.50" x2="360.54" y2="265.95"/><line x1="31.62" y1="311.85" x2="31.62" y2="292.95"/><line x1="31.62" y1="292.95" x2="47.99" y2="283.50"/><line x1="376.13" y1="292.95" x2="376.13" y2="311.85"/><line x1="359.76" y1="283.50" x2="376.13" y2="292.95"/><line x1="48.77" y1="338.85" x2="32.40" y2="348.30"/><line x1="32.40" y1="348.30" x2="16.03" y2="338.85"/><line x1="16.03" y1="338.85" x2="16.03" y2="319.95"/><line x1="16.03" y1="319.95" x2="32.40" y2="310.50"/><line x1="79.94" y1="338.85" x2="63.58" y2="348.30"/><line x1="63.58" y1="348.30" x2="47.21" y2="338.85"/><line x1="111.12" y1="338.85" x2="94.75" y2="348.30"/><line x1="94.75" y1="348.30" x2="78.39" y2="338.85"/><line x1="142.30" y1="338.85" x2="125.93" y2="348.30"/><line x1="125.93" y1="348.30" x2="109.56" y2="338.85"/><line x1="173.48" y1="338.85" x2="157.11" y2="348.30"/><line x1="157.11" y1="348.30" x2="140.74" y2="338.85"/><line x1="204.65" y1="338.85" x2="188.28" y2="348.30"/><line x1="188.28" y1="348.30" x2="171.92" y2="338.85"/><line x1="235.83" y1="338.85" x2="219.46" y2="348.30"/><line x1="219.46" y1="348.30" x2="203.09" y2="338.85"/><line x1="267.01" y1="338.85" x2="250.64" y2="348.30"/><line x1="250.64" y1="348.30" x2="234.27" y2="338.85"/><line x1="298.18" y1="338.85" x2="281.82" y2="348.30"/><line x1="281.82" y1="348.30" x2="265.45" y2="338.85"/><line x1="329.36" y1="338.85" x2="312.99" y2="348.30"/><line x1="312.99" y1="348.30" x2="296.62" y2="338.85"/><line x1="360.54" y1="338.85" x2="344.17" y2="348.30"/><line x1="344.17" y1="348.30" x2="327.80" y2="338.85"/><line x1="391.71" y1="319.95" x2="391.71" y2="338.85"/><line x1="391.71" y1="338.85" x2="375.35" y2="348.30"/><line x1="375.35" y1="348.30" x2="358.98" y2="338.85"/><line x1="375.35" y1="310.50" x2="391.71" y2="319.95"/></g><polygon points="218.68,23.85 218.68,40.95 203.87,49.50 189.06,40.95 189.06,23.85 203.87,15.30" fill="#e8e8e8" stroke="rgba(0,0,0,0.3)" stroke-width="1" data-sq="0,0" class="board-cell"/><polygon points="203.09,50.85 203.09,67.95 188.28,76.50 173.48,67.95 173.48,50.85 188.28,42.30" fill="#e8e8e8" stroke="rgba(0,0,0,0.3)" stroke-width="1" data-sq="-1,1" class="board-cell"/><polygon points="234.27,50.85 234.27,67.95 219.46,76.50 204.65,67.95 204.65,50.85 219.46,42.30" fill="#c0c0c0" stroke="rgba(0,0,0,0.3)" stroke-width="1" data-sq="0,1" class="board-cell"/><polygon points="187.51,77.85 187.51,94.95 172.70,103.50 157.89,94.95 157.89,77.85 172.70,69.30" fill="#e8e8e8" stroke="rgba(0,0,0,0.3)" stroke-width="1" data-sq="-2,2" class="board-cell"/><polygon points="218.68,77.85 218.68,94.95 203.87,103.50 189.06,94.95 189.06,77.85 203.87,69.30" fill="#c0c0c0" stroke="rgba(0,0,0,0.3)" stroke-width="1" data-sq="-1,2" class="board-cell"/><polygon points="249.86,77.85 249.86,94.95 235.05,103.50 220.24,94.95 220.24,77.85 235.05,69.30" fill="#d8d8d8" stroke="rgba(0,0,0,0.3)" stroke-width="1" data-sq="0,2" class="board-cell"/><polygon points="171.92,104.85 171.92,121.95 157.11,130.50 142.30,121.95 142.30,104.85 157.11,96.30" fill="#e8e8e8" stroke="rgba(0,0,0,0.3)" stroke-width="1" data-sq="-3,3" class="board-cell"/><polygon points="203.09,104.85 203.09,121.95 188.28,130.50 173.48,121.95 173.48,104.85 188.28,96.30" fill="#c0c0c0" stroke="rgba(0,0,0,0.3)" stroke-width="1" data-sq="-2,3" class="board-cell"/><polygon points="234.27,104.85 234.27,121.95 219.46,130.50 204.65,121.95 204.65,104.85 219.46,96.30" fill="#d8d8d8" stroke="rgba(0,0,0,0.3)" stroke-width="1" data-sq="-1,3" class="board-cell"/><polygon points="265.45,104.85 265.45,121.95 250.64,130.50 235.83,121.95 235.83,104.85 250.64,96.30" fill="#e8e8e8" stroke="rgba(0,0,0,0.3)" stroke-width="1" data-sq="0,3" class="board-cell"/><polygon points="156.33,131.85 156.33,148.95 141.52,157.50 126.71,148.95 126.71,131.85 141.52,123.30" fill="#e8e8e8" stroke="rgba(0,0,0,0.3)" stroke-width="1" data-sq="-4,4" class="board-cell"/><polygon points="187.51,131.85 187.51,148.95 172.70,157.50 157.89,148.95 157.89,131.85 172.70,123.30" fill="#c0c0c0" stroke="rgba(0,0,0,0.3)" stroke-width="1" data-sq="-3,4" class="board-cell"/><polygon points="218.68,131.85 218.68,148.95 203.87,157.50 189.06,148.95 189.06,131.85 203.87,123.30" fill="#d8d8d8" stroke="rgba(0,0,0,0.3)" stroke-width="1" data-sq="-2,4" class="board-cell"/><polygon points="249.86,131.85 249.86,148.95 235.05,157.50 220.24,148.95 220.24,131.85 235.05,123.30" fill="#e8e8e8" stroke="rgba(0,0,0,0.3)" stroke-width="1" data-sq="-1,4" class="board-cell"/><polygon points="281.04,131.85 281.04,148.95 266.23,157.50 251.42,148.95 251.42,131.85 266.23,123.30" fill="#c0c0c0" stroke="rgba(0,0,0,0.3)" stroke-width="1" data-sq="0,4" class="board-cell"/><polygon points="140.74,158.85 140.74,175.95 125.93,184.50 111.12,175.95 111.12,158.85 125.93,150.30" fill="#e8e8e8" stroke="rgba(0,0,0,0.3)" stroke-width="1" data-sq="-5,5" class="board-cell"/><polygon points="171.92,158.85 171.92,175.95 157.11,184.50 142.30,175.95 142.30,158.85 157.11,150.30" fill="#c0c0c0" stroke="rgba(0,0,0,0.3)" stroke-width="1" data-sq="-4,5" class="board-cell"/><polygon points="203.09,158.85 203.09,175.95 188.28,184.50 173.48,175.95 173.48,158.85 188.28,150.30" fill="#d8d8d8" stroke="rgba(0,0,0,0.3)" stroke-width="1" data-sq="-3,5" class="board-cell"/><polygon points="234.27,158.85 234.27,175.95 219.46,184.50 204.65,175.95 204.65,158.85 219.46,150.30" fill="#e8e8e8" stroke="rgba(0,0,0,0.3)" stroke-width="1" data-sq="-2,5" class="board-cell"/><polygon points="265.45,158.85 265.45,175.95 250.64,184.50 235.83,175.95 235.83,158.85 250.64,150.30" fill="#c0c0c0" stroke="rgba(0,0,0,0.3)" stroke-width="1" data-sq="-1,5" class="board-cell"/><polygon points="296.62,158.85 296.62,175.95 281.82,184.50 267.01,175.95 267.01,158.85 281.82,150.30" fill="#d8d8d8" stroke="rgba(0,0,0,0.3)" stroke-width="1" data-sq="0,5" class="board-cell"/><polygon points="125.15,185.85 125.15,202.95 110.34,211.50 95.53,202.95 95.53,185.85 110.34,177.30" fill="#e8e8e8" stroke="rgba(0,0,0,0.3)" stroke-width="1" data-sq="-6,6" class="board-cell"/><polygon points="156.33,185.85 156.33,202.95 141.52,211.50 126.71,202.95 126.71,185.85 141.52,177.30" fill="#c0c0c0" stroke="rgba(0,0,0,0.3)" stroke-width="1" data-sq="-5,6" class="board-cell"/><polygon points="187.51,185.85 187.51,202.95 172.70,211.50 157.89,202.95 157.89,185.85 172.70,177.30" fill="#d8d8d8" stroke="rgba(0,0,0,0.3)" stroke-width="1" data-sq="-4,6" class="board-cell"/><polygon points="218.68,185.85 218.68,202.95 203.87,211.50 189.06,202.95 189.06,185.85 203.87,177.30" fill="#e8e8e8" stroke="rgba(0,0,0,0.3)" stroke-width="1" data-sq="-3,6" class="board-cell"/><polygon points="249.86,185.85 249.86,202.95 235.05,211.50 220.24,202.95 220.24,185.85 235.05,177.30" fill="#c0c0c0" stroke="rgba(0,0,0,0.3)" stroke-width="1" data-sq="-2,6" class="board-cell"/><polygon points="281.04,185.85 281.04,202.95 266.23,211.50 251.42,202.95 251.42,185.85 266.23,177.30" fill="#d8d8d8" stroke="rgba(0,0,0,0.3)" stroke-width="1" data-sq="-1,6" class="board-cell"/><polygon points="312.21,185.85 312.21,202.95 297.40,211.50 282.59,202.95 282.59,185.85 297.40,177.30" fill="#e8e8e8" stroke="rgba(0,0,0,0.3)" stroke-width="1" data-sq="0,6" class="board-cell"/><polygon points="109.56,212.85 109.56,229.95 94.75,238.50 79.94,229.95 79.94,212.85 94.75,204.30" fill="#e8e8e8" stroke="rgba(0,0,0,0.3)" stroke-width="1" data-sq="-7,7" class="board-cell"/><polygon points="140.74,212.85 140.74,229.95 125.93,238.50 111.12,229.95 111.12,212.85 125.93,204.30" fill="#c0c0c0" stroke="rgba(0,0,0,0.3)" stroke-width="1" data-sq="-6,7" class="board-cell"/><polygon points="171.92,212.85 171.92,229.95 157.11,238.50 142.30,229.95 142.30,212.85 157.11,204.30" fill="#d8d8d8" stroke="rgba(0,0,0,0.3)" stroke-width="1" data-sq="-5,7" class="board-cell"/><polygon points="203.09,212.85 203.09,229.95 188.28,238.50 173.48,229.95 173.48,212.85 188.28,204.30" fill="#e8e8e8" stroke="rgba(0,0,0,0.3)" stroke-width="1" data-sq="-4,7" class="board-cell"/><polygon points="234.27,212.85 234.27,229.95 219.46,238.50 204.65,229.95 204.65,212.85 219.46,204.30" fill="#c0c0c0" stroke="rgba(0,0,0,0.3)" stroke-width="1" data-sq="-3,7" class="board-cell"/><polygon points="265.45,212.85 265.45,229.95 250.64,238.50 235.83,229.95 235.83,212.85 250.64,204.30" fill="#d8d8d8" stroke="rgba(0,0,0,0.3)" stroke-width="1" data-sq="-2,7" class="board-cell"/><polygon points="296.62,212.85 296.62,229.95 281.82,238.50 267.01,229.95 267.01,212.85 281.82,204.30" fill="#e8e8e8" stroke="rgba(0,0,0,0.3)" stroke-width="1" data-sq="-1,7" class="board-cell"/><polygon points="327.80,212.85 327.80,229.95 312.99,238.50 298.18,229.95 298.18,212.85 312.99,204.30" fill="#c0c0c0" stroke="rgba(0,0,0,0.3)" stroke-width="1" data-sq="0,7" class="board-cell"/><polygon points="93.97,239.85 93.97,256.95 79.17,265.50 64.36,256.95 64.36,239.85 79.17,231.30" fill="#e8e8e8" stroke="rgba(0,0,0,0.3)" stroke-width="1" data-sq="-8,8" class="board-cell"/><polygon points="125.15,239.85 125.15,256.95 110.34,265.50 95.53,256.95 95.53,239.85 110.34,231.30" fill="#c0c0c0" stroke="rgba(0,0,0,0.3)" stroke-width="1" data-sq="-7,8" class="board-cell"/><polygon points="156.33,239.85 156.33,256.95 141.52,265.50 126.71,256.95 126.71,239.85 141.52,231.30" fill="#d8d8d8" stroke="rgba(0,0,0,0.3)" stroke-width="1" data-sq="-6,8" class="board-cell"/><polygon points="187.51,239.85 187.51,256.95 172.70,265.50 157.89,256.95 157.89,239.85 172.70,231.30" fill="#e8e8e8" stroke="rgba(0,0,0,0.3)" stroke-width="1" data-sq="-5,8" class="board-cell"/><polygon points="218.68,239.85 218.68,256.95 203.87,265.50 189.06,256.95 189.06,239.85 203.87,231.30" fill="#c0c0c0" stroke="rgba(0,0,0,0.3)" stroke-width="1" data-sq="-4,8" class="board-cell"/><polygon points="249.86,239.85 249.86,256.95 235.05,265.50 220.24,256.95 220.24,239.85 235.05,231.30" fill="#d8d8d8" stroke="rgba(0,0,0,0.3)" stroke-width="1" data-sq="-3,8" class="board-cell"/><polygon points="281.04,239.85 281.04,256.95 266.23,265.50 251.42,256.95 251.42,239.85 266.23,231.30" fill="#e8e8e8" stroke="rgba(0,0,0,0.3)" stroke-width="1" data-sq="-2,8" class="board-cell"/><polygon points="312.21,239.85 312.21,256.95 297.40,265.50 282.59,256.95 282.59,239.85 297.40,231.30" fill="#c0c0c0" stroke="rgba(0,0,0,0.3)" stroke-width="1" data-sq="-1,8" class="board-cell"/><polygon points="343.39,239.85 343.39,256.95 328.58,265.50 313.77,256.95 313.77,239.85 328.58,231.30" fill="#d8d8d8" stroke="rgba(0,0,0,0.3)" stroke-width="1" data-sq="0,8" class="board-cell"/><polygon points="78.39,266.85 78.39,283.95 63.58,292.50 48.77,283.95 48.77,266.85 63.58,258.30" fill="#e8e8e8" stroke="rgba(0,0,0,0.3)" stroke-width="1" data-sq="-9,9" class="board-cell"/><polygon points="109.56,266.85 109.56,283.95 94.75,292.50 79.94,283.95 79.94,266.85 94.75,258.30" fill="#c0c0c0" stroke="rgba(0,0,0,0.3)" stroke-width="1" data-sq="-8,9" class="board-cell"/><polygon points="140.74,266.85 140.74,283.95 125.93,292.50 111.12,283.95 111.12,266.85 125.93,258.30" fill="#d8d8d8" stroke="rgba(0,0,0,0.3)" stroke-width="1" data-sq="-7,9" class="board-cell"/><polygon points="171.92,266.85 171.92,283.95 157.11,292.50 142.30,283.95 142.30,266.85 157.11,258.30" fill="#e8e8e8" stroke="rgba(0,0,0,0.3)" stroke-width="1" data-sq="-6,9" class="board-cell"/><polygon points="203.09,266.85 203.09,283.95 188.28,292.50 173.48,283.95 173.48,266.85 188.28,258.30" fill="#c0c0c0" stroke="rgba(0,0,0,0.3)" stroke-width="1" data-sq="-5,9" class="board-cell"/><polygon points="234.27,266.85 234.27,283.95 219.46,292.50 204.65,283.95 204.65,266.85 219.46,258.30" fill="#d8d8d8" stroke="rgba(0,0,0,0.3)" stroke-width="1" data-sq="-4,9" class="board-cell"/><polygon points="265.45,266.85 265.45,283.95 250.64,292.50 235.83,283.95 235.83,266.85 250.64,258.30" fill="#e8e8e8" stroke="rgba(0,0,0,0.3)" stroke-width="1" data-sq="-3,9" class="board-cell"/><polygon points="296.62,266.85 296.62,283.95 281.82,292.50 267.01,283.95 267.01,266.85 281.82,258.30" fill="#c0c0c0" stroke="rgba(0,0,0,0.3)" stroke-width="1" data-sq="-2,9" class="board-cell"/><polygon points="327.80,266.85 327.80,283.95 312.99,292.50 298.18,283.95 298.18,266.85 312.99,258.30" fill="#d8d8d8" stroke="rgba(0,0,0,0.3)" stroke-width="1" data-sq="-1,9" class="board-cell"/><polygon points="358.98,266.85 358.98,283.95 344.17,292.50 329.36,283.95 329.36,266.85 344.17,258.30" fill="#e8e8e8" stroke="rgba(0,0,0,0.3)" stroke-width="1" data-sq="0,9" class="board-cell"/><polygon points="62.80,293.85 62.80,310.95 47.99,319.50 33.18,310.95 33.18,293.85 47.99,285.30" fill="#e8e8e8" stroke="rgba(0,0,0,0.3)" stroke-width="1" data-sq="-10,10" class="board-cell"/><polygon points="93.97,293.85 93.97,310.95 79.17,319.50 64.36,310.95 64.36,293.85 79.17,285.30" fill="#c0c0c0" stroke="rgba(0,0,0,0.3)" stroke-width="1" data-sq="-9,10" class="board-cell"/><polygon points="125.15,293.85 125.15,310.95 110.34,319.50 95.53,310.95 95.53,293.85 110.34,285.30" fill="#d8d8d8" stroke="rgba(0,0,0,0.3)" stroke-width="1" data-sq="-8,10" class="board-cell"/><polygon points="156.33,293.85 156.33,310.95 141.52,319.50 126.71,310.95 126.71,293.85 141.52,285.30" fill="#e8e8e8" stroke="rgba(0,0,0,0.3)" stroke-width="1" data-sq="-7,10" class="board-cell"/><polygon points="187.51,293.85 187.51,310.95 172.70,319.50 157.89,310.95 157.89,293.85 172.70,285.30" fill="#c0c0c0" stroke="rgba(0,0,0,0.3)" stroke-width="1" data-sq="-6,10" class="board-cell"/><polygon points="218.68,293.85 218.68,310.95 203.87,319.50 189.06,310.95 189.06,293.85 203.87,285.30" fill="#d8d8d8" stroke="rgba(0,0,0,0.3)" stroke-width="1" data-sq="-5,10" class="board-cell"/><polygon points="249.86,293.85 249.86,310.95 235.05,319.50 220.24,310.95 220.24,293.85 235.05,285.30" fill="#e8e8e8" stroke="rgba(0,0,0,0.3)" stroke-width="1" data-sq="-4,10" class="board-cell"/><polygon points="281.04,293.85 281.04,310.95 266.23,319.50 251.42,310.95 251.42,293.85 266.23,285.30" fill="#c0c0c0" stroke="rgba(0,0,0,0.3)" stroke-width="1" data-sq="-3,10" class="board-cell"/><polygon points="312.21,293.85 312.21,310.95 297.40,319.50 282.59,310.95 282.59,293.85 297.40,285.30" fill="#d8d8d8" stroke="rgba(0,0,0,0.3)" stroke-width="1" data-sq="-2,10" class="board-cell"/><polygon points="343.39,293.85 343.39,310.95 328.58,319.50 313.77,310.95 313.77,293.85 328.58,285.30" fill="#e8e8e8" stroke="rgba(0,0,0,0.3)" stroke-width="1" data-sq="-1,10" class="board-cell"/><polygon points="374.57,293.85 374.57,310.95 359.76,319.50 344.95,310.95 344.95,293.85 359.76,285.30" fill="#c0c0c0" stroke="rgba(0,0,0,0.3)" stroke-width="1" data-sq="0,10" class="board-cell"/><polygon points="47.21,320.85 47.21,337.95 32.40,346.50 17.59,337.95 17.59,320.85 32.40,312.30" fill="#e8e8e8" stroke="rgba(0,0,0,0.3)" stroke-width="1" data-sq="-11,11" class="board-cell"/><polygon points="78.39,320.85 78.39,337.95 63.58,346.50 48.77,337.95 48.77,320.85 63.58,312.30" fill="#c0c0c0" stroke="rgba(0,0,0,0.3)" stroke-width="1" data-sq="-10,11" class="board-cell"/><polygon points="109.56,320.85 109.56,337.95 94.75,346.50 79.94,337.95 79.94,320.85 94.75,312.30" fill="#d8d8d8" stroke="rgba(0,0,0,0.3)" stroke-width="1" data-sq="-9,11" class="board-cell"/><polygon points="140.74,320.85 140.74,337.95 125.93,346.50 111.12,337.95 111.12,320.85 125.93,312.30" fill="#e8e8e8" stroke="rgba(0,0,0,0.3)" stroke-width="1" data-sq="-8,11" class="board-cell"/><polygon points="171.92,320.85 171.92,337.95 157.11,346.50 142.30,337.95 142.30,320.85 157.11,312.30" fill="#c0c0c0" stroke="rgba(0,0,0,0.3)" stroke-width="1" data-sq="-7,11" class="board-cell"/><polygon points="203.09,320.85 203.09,337.95 188.28,346.50 173.48,337.95 173.48,320.85 188.28,312.30" fill="#d8d8d8" stroke="rgba(0,0,0,0.3)" stroke-width="1" data-sq="-6,11" class="board-cell"/><polygon points="234.27,320.85 234.27,337.95 219.46,346.50 204.65,337.95 204.65,320.85 219.46,312.30" fill="#e8e8e8" stroke="rgba(0,0,0,0.3)" stroke-width="1" data-sq="-5,11" class="board-cell"/><polygon points="265.45,320.85 265.45,337.95 250.64,346.50 235.83,337.95 235.83,320.85 250.64,312.30" fill="#c0c0c0" stroke="rgba(0,0,0,0.3)" stroke-width="1" data-sq="-4,11" class="board-cell"/><polygon points="296.62,320.85 296.62,337.95 281.82,346.50 267.01,337.95 267.01,320.85 281.82,312.30" fill="#d8d8d8" stroke="rgba(0,0,0,0.3)" stroke-width="1" data-sq="-3,11" class="board-cell"/><polygon points="327.80,320.85 327.80,337.95 312.99,346.50 298.18,337.95 298.18,320.85 312.99,312.30" fill="#e8e8e8" stroke="rgba(0,0,0,0.3)" stroke-width="1" data-sq="-2,11" class="board-cell"/><polygon points="358.98,320.85 358.98,337.95 344.17,346.50 329.36,337.95 329.36,320.85 344.17,312.30" fill="#c0c0c0" stroke="rgba(0,0,0,0.3)" stroke-width="1" data-sq="-1,11" class="board-cell"/><polygon points="390.16,320.85 390.16,337.95 375.35,346.50 360.54,337.95 360.54,320.85 375.35,312.30" fill="#d8d8d8" stroke="rgba(0,0,0,0.3)" stroke-width="1" data-sq="0,11" class="board-cell"/>
</svg>