<svg xmlns="http://www.w3.org/2000/svg" viewBox="0 0 591.2075471160765 367.2" width="591.2075471160765" height="367.2">
<g fill="#6b4226"><polygon points="46.50,21.42 46.50,39.78 30.60,48.96 14.70,39.78 14.70,21.42 30.60,12.24"/><polygon points="75.95,21.42 75.95,39.78 60.04,48.96 44.14,39.78 44.14,21.42 60.04,12.24"/><polygon points="105.39,21.42 105.39,39.78 89.49,48.96 73.59,39.78 73.59,21.42 89.49,12.24"/><polygon points="134.83,21.42 134.83,39.78 118.93,48.96 103.03,39.78 103.03,21.42 118.93,12.24"/><polygon points="164.28,21.42 164.28,39.78 148.38,48.96 132.48,39.78 132.48,21.42 148.38,12.24"/><polygon points="193.72,21.42 193.72,39.78 177.82,48.96 161.92,39.78 161.92,21.42 177.82,12.24"/><polygon points="223.17,21.42 223.17,39.78 207.27,48.96 191.37,39.78 191.37,21.42 207.27,12.24"/><polygon points="252.61,21.42 252.61,39.78 236.71,48.96 220.81,39.78 220.81,21.42 236.71,12.24"/><polygon points="282.06,21.42 282.06,39.78 266.16,48.96 250.26,39.78 250.26,21.42 266.16,12.24"/><polygon points="311.50,21.42 311.50,39.78 295.60,48.96 279.70,39.78 279.70,21.42 295.60,12.24"/><polygon points="340.95,21.42 340.95,39.78 325.05,48.96 309.15,39.78 309.15,21.42 325.05,12.24"/><polygon points="370.39,21.42 370.39,39.78 354.49,48.96 338.59,39.78 338.59,21.42 354.49,12.24"/><polygon points="399.84,21.42 399.84,39.78 383.94,48.96 368.04,39.78 368.04,21.42 383.94,12.24"/><polygon points="61.22,46.92 61.22,65.28 45.32,74.46 29.42,65.28 29.42,46.92 45.32,37.74"/><polygon points="90.67,46.92 90.67,65.28 74.77,74.46 58.87,65.28 58.87,46.92 74.77,37.74"/><polygon points="120.11,46.92 120.11,65.28 104.21,74.46 88.31,65.28 88.31,46.92 104.21,37.74"/><polygon points="149.56,46.92 149.56,65.28 133.66,74.46 117.76,65.28 117.76,46.92 133.66,37.74"/><polygon points="179.00,46.92 179.00,65.28 163.10,74.46 147.20,65.28 147.20,46.92 163.10,37.74"/><polygon points="208.45,46.92 208.45,65.28 192.55,74.46 176.65,65.28 176.65,46.92 192.55,37.74"/><polygon points="237.89,46.92 237.89,65.28 221.99,74.46 206.09,65.28 206.09,46.92 221.99,37.74"/><polygon points="267.34,46.92 267.34,65.28 251.44,74.46 235.54,65.28 235.54,46.92 251.44,37.74"/><polygon points="296.78,46.92 296.78,65.28 280.88,74.46 264.98,65.28 264.98,46.92 280.88,37.74"/><polygon points="326.23,46.92 326.23,65.28 310.33,74.46 294.43,65.28 294.43,46.92 310.33,37.74"/><polygon points="355.67,46.92 355.67,65.28 339.77,74.46 323.87,65.28 323.87,46.92 339.77,37.74"/><polygon points="385.12,46.92 385.12,65.28 369.22,74.46 353.32,65.28 353.32,46.92 369.22,37.74"/><polygon points="414.56,46.92 414.56,65.28 398.66,74.46 382.76,65.28 382.76,46.92 398.66,37.74"/><polygon points="75.95,72.42 75.95,90.78 60.04,99.96 44.14,90.78 44.14,72.42 60.04,63.24"/><polygon points="105.39,72.42 105.39,90.78 89.49,99.96 73.59,90.78 73.59,72.42 89.49,63.24"/><polygon points="134.83,72.42 134.83,90.78 118.93,99.96 103.03,90.78 103.03,72.42 118.93,63.24"/><polygon points="164.28,72.42 164.28,90.78 148.38,99.96 132.48,90.78 132.48,72.42 148.38,63.24"/><polygon points="193.72,72.42 193.72,90.78 177.82,99.96 161.92,90.78 161.92,72.42 177.82,63.24"/><polygon points="223.17,72.42 223.17,90.78 207.27,99.96 191.37,90.78 191.37,72.42 207.27,63.24"/><polygon points="252.61,72.42 252.61,90.78 236.71,99.96 220.81,90.78 220.81,72.42 236.71,63.24"/><polygon points="282.06,72.42 282.06,90.78 266.16,99.96 250.26,90.78 250.26,72.42 266.16,63.24"/><polygon points="311.50,72.42 311.50,90.78 295.60,99.96 279.70,90.78 279.70,72.42 295.60,63.24"/><polygon points="340.95,72.42 340.95,90.78 325.05,99.96 309.15,90.78 309.15,72.42 325.05,63.24"/><polygon points="370.39,72.42 370.39,90.78 354.49,99.96 338.59,90.78 338.59,72.42 354.49,63.24"/><polygon points="399.84,72.42 399.84,90.78 383.94,99.96 368.04,90.78 368.04,72.42 383.94,63.24"/><polygon points="429.28,72.42 429.28,90.78 413.38,99.96 397.48,90.78 397.48,72.42 413.38,63.24"/><polygon points="90.67,97.92 90.67,116.28 74.77,125.46 58.87,116.28 58.87,97.92 74.77,88.74"/><polygon points="120.11,97.92 120.11,116.28 104.21,125.46 88.31,116.28 88.31,97.92 104.21,88.74"/><polygon points="149.56,97.92 149.56,116.28 133.66,125.46 117.76,116.28 117.76,97.92 133.66,88.74"/><polygon points="179.00,97.92 179.00,116.28 163.10,125.46 147.20,116.28 147.20,97.92 163.10,88.74"/><polygon points="208.45,97.92 208.45,116.28 192.55,125.46 176.65,116.28 176.65,97.92 192.55,88.74"/><polygon points="237.89,97.92 237.89,116.28 221.99,125.46 206.09,116.28 206.09,97.92 221.99,88.74"/><polygon points="267.34,97.92 267.34,116.28 251.44,125.46 235.54,116.28 235.54,97.92 251.44,88.74"/><polygon points="296.78,97.92 296.78,116.28 280.88,125.46 264.98,116.28 264.98,97.92 280.88,88.74"/><polygon points="326.23,97.92 326.23,116.28 310.33,125.46 294.43,116.28 294.43,97.92 310.33,88.74"/><polygon points="355.67,97.92 355.67,116.28 339.77,125.46 323.87,116.28 323.87,97.92 339.77,88.74"/><polygon points="385.12,97.92 385.12,116.28 369.22,125.46 353.32,116.28 353.32,97.92 369.22,88.74"/><polygon points="414.56,97.92 414.56,116.28 398.66,125.46 382.76,116.28 382.76,97.92 398.66,88.74"/><polygon points="444.01,97.92 444.01,116.28 428.11,125.46 412.21,116.28 412.21,97.92 428.11,88.74"/><polygon points="105.39,123.42 105.39,141.78 89.49,150.96 73.59,141.78 73.59,123.42 89.49,114.24"/><polygon points="134.83,123.42 134.83,141.78 118.93,150.96 103.03,141.78 103.03,123.42 118.93,114.24"/><polygon points="164.28,123.42 164.28,141.78 148.38,150.96 132.48,141.78 132.48,123.42 148.38,114.24"/><polygon points="193.72,123.42 193.72,141.78 177.82,150.96 161.92,141.78 161.92,123.42 177.82,114.24"/><polygon points="223.17,123.42 223.17,141.78 207.27,150.96 191.37,141.78 191.37,123.42 207.27,114.24"/><polygon points="252.61,123.42 252.61,141.78 236.71,150.96 220.81,141.78 220.81,123.42 236.71,114.24"/><polygon points="282.06,123.42 282.06,141.78 266.16,150.96 250.26,141.78 250.26,123.42 266.16,114.24"/><polygon points="311.50,123.42 311.50,141.78 295.60,150.96 279.70,141.78 279.70,123.42 295.60,114.24"/><polygon points="340.95,123.42 340.95,141.78 325.05,150.96 309.15,141.78 309.15,123.42 325.05,114.24"/><polygon points="370.39,123.42 370.39,141.78 354.49,150.96 338.59,141.78 338.59,123.42 354.49,114.24"/><polygon points="399.84,123.42 399.84,141.78 383.94,150.96 368.04,141.78 368.04,123.42 383.94,114.24"/><polygon points="429.28,123.42 429.28,141.78 413.38,150.96 397.48,141.78 397.48,123.42 413.38,114.24"/><polygon points="458.73,123.42 458.73,141.78 442.83,150.96 426.93,141.78 426.93,123.42 442.83,114.24"/><polygon points="120.11,148.92 120.11,167.28 104.21,176.46 88.31,167.28 88.31,148.92 104.21,139.74"/><polygon points="149.56,148.92 149.56,167.28 133.66,176.46 117.76,167.28 117.76,148.92 133.66,139.74"/><polygon points="179.00,148.92 179.00,167.28 163.10,176.46 147.20,167.28 147.20,148.92 163.10,139.74"/><polygon points="208.45,148.92 208.45,167.28 192.55,176.46 176.65,167.28 176.65,148.92 192.55,139.74"/><polygon points="237.89,148.92 237.89,167.28 221.99,176.46 206.09,167.28 206.09,148.92 221.99,139.74"/><polygon points="267.34,148.92 267.34,167.28 251.44,176.46 235.54,167.28 235.54,148.92 251.44,139.74"/><polygon points="296.78,148.92 296.78,167.28 280.88,176.46 264.98,167.28 264.98,148.92 280.88,139.74"/><polygon points="326.23,148.92 326.23,167.28 310.33,176.46 294.43,167.28 294.43,148.92 310.33,139.74"/><polygon points="355.67,148.92 355.67,167.28 339.77,176.46 323.87,167.28 323.87,148.92 339.77,139.74"/><polygon points="385.12,148.92 385.12,167.28 369.22,176.46 353.32,167.28 353.32,148.92 369.22,139.74"/><polygon points="414.56,148.92 414.56,167.28 398.66,176.46 382.76,167.28 382.76,148.92 398.66,139.74"/><polygon points="444.01,148.92 444.01,167.28 428.11,176.46 412.21,167.28 412.21,148.92 428.11,139.74"/><polygon points="473.45,148.92 473.45,167.28 457.55,176.46 441.65,167.28 441.65,148.92 457.55,139.74"/><polygon points="134.83,174.42 134.83,192.78 118.93,201.96 103.03,192.78 103.03,174.42 118.93,165.24"/><polygon points="164.28,174.42 164.28,192.78 148.38,201.96 132.48,192.78 132.48,174.42 148.38,165.24"/><polygon points="193.72,174.42 193.72,192.78 177.82,201.96 161.92,192.78 161.92,174.42 177.82,165.24"/><polygon points="223.17,174.42 223.17,192.78 207.27,201.96 191.37,192.78 191.37,174.42 207.27,165.24"/><polygon points="252.61,174.42 252.61,192.78 236.71,201.96 220.81,192.78 220.81,174.42 236.71,165.24"/><polygon points="282.06,174.42 282.06,192.78 266.16,201.96 250.26,192.78 250.26,174.42 266.16,165.24"/><polygon points="311.50,174.42 311.50,192.78 295.60,201.96 279.70,192.78 279.70,174.42 295.60,165.24"/><polygon points="340.95,174.42 340.95,192.78 325.05,201.96 309.15,192.78 309.15,174.42 325.05,165.24"/><polygon points="370.39,174.42 370.39,192.78 354.49,201.96 338.59,192.78 338.59,174.42 354.49,165.24"/><polygon points="399.84,174.42 399.84,192.78 383.94,201.96 368.04,192.78 368.04,174.42 383.94,165.24"/><polygon points="429.28,174.42 429.28,192.78 413.38,201.96 397.48,192.78 397.48,174.42 413.38,165.24"/><polygon points="458.73,174.42 458.73,192.78 442.83,201.96 426.93,192.78 426.93,174.42 442.83,165.24"/><polygon points="488.17,174.42 488.17,192.78 472.27,201.96 456.37,192.78 456.37,174.42 472.27,165.24"/><polygon points="149.56,199.92 149.56,218.28 133.66,227.46 117.76,218.28 117.76,199.92 133.66,190.74"/><polygon points="179.00,199.92 179.00,218.28 163.10,227.46 147.20,218.28 147.20,199.92 163.10,190.74"/><polygon points="208.45,199.92 208.45,218.28 192.55,227.46 176.65,218.28 176.65,199.92 192.55,190.74"/><polygon points="237.89,199.92 237.89,218.28 221.99,227.46 206.09,218.28 206.09,199.92 221.99,190.74"/><polygon points="267.34,199.92 267.34,218.28 251.44,227.46 235.54,218.28 235.54,199.92 251.44,190.74"/><polygon points="296.78,199.92 296.78,218.28 280.88,227.46 264.98,218.28 264.98,199.92 280.88,190.74"/><polygon points="326.23,199.92 326.23,218.28 310.33,227.46 294.43,218.28 294.43,199.92 310.33,190.74"/><polygon points="355.67,199.92 355.67,218.28 339.77,227.46 323.87,218.28 323.87,199.92 339.77,190.74"/><polygon points="385.12,199.92 385.12,218.28 369.22,227.46 353.32,218.28 353.32,199.92 369.22,190.74"/><polygon points="414.56,199.92 414.56,218.28 398.66,227.46 382.76,218.28 382.76,199.92 398.66,190.74"/><polygon points="444.01,199.92 444.01,218.28 428.11,227.46 412.21,218.28 412.21,199.92 428.11,190.74"/><polygon points="473.45,199.92 473.45,218.28 457.55,227.46 441.65,218.28 441.65,199.92 457.55,190.74"/><polygon points="502.90,199.92 502.90,218.28 487.00,227.46 471.10,218.28 471.10,199.92 487.00,190.74"/><polygon points="164.28,225.42 164.28,243.78 148.38,252.96 132.48,243.78 132.48,225.42 148.38,216.24"/><polygon points="193.72,225.42 193.72,243.78 177.82,252.96 161.92,243.78 161.92,225.42 177.82,216.24"/><polygon points="223.17,225.42 223.17,243.78 207.27,252.96 191.37,243.78 191.37,225.42 207.27,216.24"/><polygon points="252.61,225.42 252.61,243.78 236.71,252.96 220.81,243.78 220.81,225.42 236.71,216.24"/><polygon points="282.06,225.42 282.06,243.78 266.16,252.96 250.26,243.78 250.26,225.42 266.16,216.24"/><polygon points="311.50,225.42 311.50,243.78 295.60,252.96 279.70,243.78 279.70,225.42 295.60,216.24"/><polygon points="340.95,225.42 340.95,243.78 325.05,252.96 309.15,243.78 309.15,225.42 325.05,216.24"/><polygon points="370.39,225.42 370.39,243.78 354.49,252.96 338.59,243.78 338.59,225.42 354.49,216.24"/><polygon points="399.84,225.42 399.84,243.78 383.94,252.96 368.04,243.78 368.04,225.42 383.94,216.24"/><polygon points="429.28,225.42 429.28,243.78 413.38,252.96 397.48,243.78 397.48,225.42 413.38,216.24"/><polygon points="458.73,225.42 458.73,243.78 442.83,252.96 426.93,243.78 426.93,225.42 442.83,216.24"/><polygon points="488.17,225.42 488.17,243.78 472.27,252.96 456.37,243.78 456.37,225.42 472.27,216.24"/><polygon points="517.62,225.42 517.62,243.78 501.72,252.96 485.82,243.78 485.82,225.42 501.72,216.24"/><polygon points="179.00,250.92 179.00,269.28 163.10,278.46 147.20,269.28 147.20,250.92 163.10,241.74"/><polygon points="208.45,250.92 208.45,269.28 192.55,278.46 176.65,269.28 176.65,250.92 192.55,241.74"/><polygon points="237.89,250.92 237.89,269.28 221.99,278.46 206.09,269.28 206.09,250.92 221.99,241.74"/><polygon points="267.34,250.92 267.34,269.28 251.44,278.46 235.54,269.28 235.54,250.92 251.44,241.74"/><polygon points="296.78,250.92 296.78,269.28 280.88,278.46 264.98,269.28 264.98,250.92 280.88,241.74"/><polygon points="326.23,250.92 326.23,269.28 310.33,278.46 294.43,269.28 294.43,250.92 310.33,241.74"/><polygon points="355.67,250.92 355.67,269.28 339.77,278.46 323.87,269.28 323.87,250.92 339.77,241.74"/><polygon points="385.12,250.92 385.12,269.28 369.22,278.46 353.32,269.28 353.32,250.92 369.22,241.74"/><polygon points="414.56,250.92 414.56,269.28 398.66,278.46 382.76,269.28 382.76,250.92 398.66,241.74"/><polygon points="444.01,250.92 444.01,269.28 428.11,278.46 412.21,269.28 412.21,250.92 428.11,241.74"/><polygon points="473.45,250.92 473.45,269.28 457.55,278.46 441.65,269.28 441.65,250.92 457.55,241.74"/><polygon points="502.90,250.92 502.90,269.28 487.00,278.46 471.10,269.28 471.10,250.92 487.00,241.74"/><polygon points="532.34,250.92 532.34,269.28 516.44,278.46 500.54,269.28 500.54,250.92 516.44,241.74"/><polygon points="193.72,276.42 193.72,294.78 177.82,303.96 161.92,294.78 161.92,276.42 177.82,267.24"/><polygon points="223.17,276.42 223.17,294.78 207.27,303.96 191.37,294.78 191.37,276.42 207.27,267.24"/><polygon points="252.61,276.42 252.61,294.78 236.71,303.96 220.81,294.78 220.81,276.42 236.71,267.24"/><polygon points="282.06,276.42 282.06,294.78 266.16,303.96 250.26,294.78 250.26,276.42 266.16,267.24"/><polygon points="311.50,276.42 311.50,294.78 295.60,303.96 279.70,294.78 279.70,276.42 295.60,267.24"/><polygon points="340.95,276.42 340.95,294.78 325.05,303.96 309.15,294.78 309.15,276.42 325.05,267.24"/><polygon points="370.39,276.42 370.39,294.78 354.49,303.96 338.59,294.78 338.59,276.42 354.49,267.24"/><polygon points="399.84,276.42 399.84,294.78 383.94,303.96 368.04,294.78 368.04,276.42 383.94,267.24"/><polygon points="429.28,276.42 429.28,294.78 413.38,303.96 397.48,294.78 397.48,276.42 413.38,267.24"/><polygon points="458.73,276.42 458.73,294.78 442.83,303.96 426.93,294.78 426.93,276.42 442.83,267.24"/><polygon points="488.17,276.42 488.17,294.78 472.27,303.96 456.37,294.78 456.37,276.42 472.27,267.24"/><polygon points="517.62,276.42 517.62,294.78 501.72,303.96 485.82,294.78 485.82,276.42 501.72,267.24"/><polygon points="547.06,276.42 547.06,294.78 531.16,303.96 515.26,294.78 515.26,276.42 531.16,267.24"/><polygon points="208.45,301.92 208.45,320.28 192.55,329.46 176.65,320.28 176.65,301.92 192.55,292.74"/><polygon points="237.89,301.92 237.89,320.28 221.99,329.46 206.09,320.28 206.09,301.92 221.99,292.74"/><polygon points="267.34,301.92 267.34,320.28 251.44,329.46 235.54,320.28 235.54,301.92 251.44,292.74"/><polygon points="296.78,301.92 296.78,320.28 280.88,329.46 264.98,320.28 264.98,301.92 280.88,292.74"/><polygon points="326.23,301.92 326.23,320.28 310.33,329.46 294.43,320.28 294.43,301.92 310.33,292.74"/><polygon points="355.67,301.92 355.67,320.28 339.77,329.46 323.87,320.28 323.87,301.92 339.77,292.74"/><polygon points="385.12,301.92 385.12,320.28 369.22,329.46 353.32,320.28 353.32,301.92 369.22,292.74"/><polygon points="414.56,301.92 414.56,320.28 398.66,329.46 382.76,320.28 382.76,301.92 398.66,292.74"/><polygon points="444.01,301.92 444.01,320.28 428.11,329.46 412.21,320.28 412.21,301.92 428.11,292.74"/><polygon points="473.45,301.92 473.45,320.28 457.55,329.46 441.65,320.28 441.65,301.92 457.55,292.74"/><polygon points="502.90,301.92 502.90,320.28 487.00,329.46 471.10,320.28 471.10,301.92 487.00,292.74"/><polygon points="532.34,301.92 532.34,320.28 516.44,329.46 500.54,320.28 500.54,301.92 516.44,292.74"/><polygon points="561.79,301.92 561.79,320.28 545.89,329.46 529.98,320.28 529.98,301.92 545.89,292.74"/><polygon points="223.17,327.42 223.17,345.78 207.27,354.96 191.37,345.78 191.37,327.42 207.27,318.24"/><polygon points="252.61,327.42 252.61,345.78 236.71,354.96 220.81,345.78 220.81,327.42 236.71,318.24"/><polygon points="282.06,327.42 282.06,345.78 266.16,354.96 250.26,345.78 250.26,327.42 266.16,318.24"/><polygon points="311.50,327.42 311.50,345.78 295.60,354.96 279.70,345.78 279.70,327.42 295.60,318.24"/><polygon points="340.95,327.42 340.95,345.78 325.05,354.96 309.15,345.78 309.15,327.42 325.05,318.24"/><polygon points="370.39,327.42 370.39,345.78 354.49,354.96 338.59,345.78 338.59,327.42 354.49,318.24"/><polygon points="399.84,327.42 399.84,345.78 383.94,354.96 368.04,345.78 368.04,327.42 383.94,318.24"/><polygon points="429.28,327.42 429.28,345.78 413.38,354.96 397.48,345.78 397.48,327.42 413.38,318.24"/><polygon points="458.73,327.42 458.73,345.78 442.83,354.96 426.93,345.78 426.93,327.42 442.83,318.24"/><polygon points="488.17,327.42 488.17,345.78 472.27,354.96 456.37,345.78 456.37,327.42 472.27,318.24"/><polygon points="517.62,327.42 517.62,345.78 501.72,354.96 485.82,345.78 485.82,327.42 501.72,318.24"/><polygon points="547.06,327.42 547.06,345.78 531.16,354.96 515.26,345.78 515.26,327.42 531.16,318.24"/><polygon points="576.51,327.42 576.51,345.78 560.61,354.96 544.71,345.78 544.71,327.42 560.61,318.24"/></g><g fill="none" stroke="#6b4226" stroke-width="14" stroke-linecap="round" stroke-linejoin="round"><line x1="30.60" y1="48.45" x2="15.14" y2="39.52"/><line x1="15.14" y1="39.52" x2="15.14" y2="21.67"/><line x1="15.14" y1="21.67" x2="30.60" y2="12.75"/><line x1="30.60" y1="12.75" x2="46.06" y2="21.68"/><line x1="44.59" y1="21.67" x2="60.04" y2="12.75"/><line x1="60.04" y1="12.75" x2="75.50" y2="21.68"/><line x1="74.03" y1="21.67" x2="89.49" y2="12.75"/><line x1="89.49" y1="12.75" x2="104.95" y2="21.68"/><line x1="103.48" y1="21.67" x2="118.93" y2="12.75"/><line x1="118.93" y1="12.75" x2="134.39" y2="21.68"/><line x1="132.92" y1="21.67" x2="148.38" y2="12.75"/><line x1="148.38" y1="12.75" x2="163.84" y2="21.68"/><line x1="162.37" y1="21.67" x2="177.82" y2="12.75"/><line x1="177.82" y1="12.75" x2="193.28" y2="21.68"/><line x1="191.81" y1="21.67" x2="207.27" y2="12.75"/><line x1="207.27" y1="12.75" x2="222.73" y2="21.68"/><line x1="221.26" y1="21.67" x2="236.71" y2="12.75"/><line x1="236.71" y1="12.75" x2="252.17" y2="21.68"/><line x1="250.70" y1="21.67" x2="266.16" y2="12.75"/><line x1="266.16" y1="12.75" x2="281.62" y2="21.68"/><line x1="280.15" y1="21.67" x2="295.60" y2="12.75"/><line x1="295.60" y1="12.75" x2="311.06" y2="21.68"/><line x1="309.59" y1="21.67" x2="325.05" y2="12.75"/><line x1="325.05" y1="12.75" x2="340.51" y2="21.68"/><line x1="339.03" y1="21.67" x2="354.49" y2="12.75"/><line x1="354.49" y1="12.75" x2="369.95" y2="21.68"/><line x1="399.40" y1="21.68" x2="399.40" y2="39.52"/><line x1="368.48" y1="21.67" x2="383.94" y2="12.75"/><line x1="383.94" y1="12.75" x2="399.40" y2="21.68"/><line x1="45.32" y1="73.95" x2="29.86" y2="65.03"/><line x1="29.86" y1="65.03" x2="29.86" y2="47.17"/><line x1="414.12" y1="47.18" x2="414.12" y2="65.03"/><line x1="398.66" y1="38.25" x2="414.12" y2="47.18"/><line x1="60.04" y1="99.45" x2="44.59" y2="90.52"/><line x1="44.59" y1="90.52" x2="44.59" y2="72.67"/><line x1="428.84" y1="72.67" x2="428.84" y2="90.52"/><line x1="413.38" y1="63.75" x2="428.84" y2="72.67"/><line x1="74.77" y1="124.95" x2="59.31" y2="116.02"/><line x1="59.31" y1="116.02" x2="59.31" y2="98.17"/><line x1="443.56" y1="98.17" x2="443.56" y2="116.02"/><line x1="428.11" y1="89.25" x2="443.56" y2="98.17"/><line x1="89.49" y1="150.45" x2="74.03" y2="141.53"/><line x1="74.03" y1="141.53" x2="74.03" y2="123.67"/><line x1="458.29" y1="123.67" x2="458.29" y2="141.53"/><line x1="442.83" y1="114.75" x2="458.29" y2="123.67"/><line x1="104.21" y1="175.95" x2="88.75" y2="167.03"/><line x1="88.75" y1="167.03" x2="88.75" y2="149.17"/><line x1="473.01" y1="149.17" x2="473.01" y2="167.03"/><line x1="457.55" y1="140.25" x2="473.01" y2="149.17"/><line x1="118.93" y1="201.45" x2="103.48" y2="192.53"/><line x1="103.48" y1="192.53" x2="103.48" y2="174.67"/><line x1="487.73" y1="174.67" x2="487.73" y2="192.53"/><line x1="472.27" y1="165.75" x2="487.73" y2="174.67"/><line x1="133.66" y1="226.95" x2="118.20" y2="218.03"/><line x1="118.20" y1="218.03" x2="118.20" y2="200.17"/><line x1="502.45" y1="200.17" x2="502.45" y2="218.03"/><line x1="487.00" y1="191.25" x2="502.45" y2="200.17"/><line x1="148.38" y1="252.45" x2="132.92" y2="243.53"/><line x1="132.92" y1="243.53" x2="132.92" y2="225.67"/><line x1="517.18" y1="225.67" x2="517.18" y2="243.53"/><line x1="501.72" y1="216.75" x2="517.18" y2="225.67"/><line x1="163.10" y1="277.95" x2="147.64" y2="269.03"/><line x1="147.64" y1="269.03" x2="147.64" y2="251.18"/><line x1="531.90" y1="251.18" x2="531.90" y2="269.03"/><line x1="516.44" y1="242.25" x2="531.90" y2="251.18"/><line x1="177.82" y1="303.45" x2="162.37" y2="294.53"/><line x1="162.37" y1="294.53" x2="162.37" y2="276.68"/><line x1="546.62" y1="276.68" x2="546.62" y2="294.53"/><line x1="531.16" y1="267.75" x2="546.62" y2="276.68"/><line x1="192.55" y1="328.95" x2="177.09" y2="320.03"/><line x1="177.09" y1="320.03" x2="177.09" y2="302.18"/><line x1="561.34" y1="302.18" x2="561.34" y2="320.03"/><line x1="545.89" y1="293.25" x2="561.34" y2="302.18"/><line x1="222.73" y1="345.53" x2="207.27" y2="354.45"/><line x1="207.27" y1="354.45" x2="191.81" y2="345.53"/><line x1="191.81" y1="345.53" x2="191.81" y2="327.68"/><line x1="252.17" y1="345.53" x2="236.71" y2="354.45"/><line x1="236.71" y1="354.45" x2="221.26" y2="345.53"/><line x1="281.62" y1="345.53" x2="266.16" y2="354.45"/><line x1="266.16" y1="354.45" x2="250.70" y2="345.53"/><line x1="311.06" y1="345.53" x2="295.60" y2="354.45"/><line x1="295.60" y1="354.45" x2="280.15" y2="345.53"/><line x1="340.51" y1="345.53" x2="325.05" y2="354.45"/><line x1="325.05" y1="354.45" x2="309.59" y2="345.53"/><line x1="369.95" y1="345.53" x2="354.49" y2="354.45"/><line x1="354.49" y1="354.45" x2="339.03" y2="345.53"/><line x1="399.40" y1="345.53" x2="383.94" y2="354.45"/><line x1="383.94" y1="354.45" x2="368.48" y2="345.53"/><line x1="428.84" y1="345.53" x2="413.38" y2="354.45"/><line x1="413.38" y1="354.45" x2="397.92" y2="345.53"/><line x1="458.29" y1="345.53" x2="442.83" y2="354.45"/><line x1="442.83" y1="354.45" x2="427.37" y2="345.53"/><line x1="487.73" y1="345.53" x2="472.27" y2="354.45"/><line x1="472.27" y1="354.45" x2="456.81" y2="345.53"/><line x1="517.18" y1="345.53" x2="501.72" y2="354.45"/><line x1="501.72" y1="354.45" x2="486.26" y2="345.53"/><line x1="546.62" y1="345.53" x2="531.16" y2="354.45"/><line x1="531.16" y1="354.45" x2="515.70" y2="345.53"/><line x1="576.07" y1="327.68" x2="576.07" y2="345.53"/><line x1="576.07" y1="345.53" x2="560.61" y2="354.45"/><line x1="560.61" y1="354.45" x2="545.15" y2="345.53"/><line x1="560.61" y1="318.75" x2="576.07" y2="327.68"/></g><polygon points="44.59,22.53 44.59,38.67 30.60,46.75 16.61,38.67 16.61,22.52 30.60,14.45" fill="#e8e8e8" stroke="rgba(0,0,0,0.3)" stroke-width="1" data-sq="0,0" class="board-cell"/><polygon points="74.03,22.53 74.03,38.67 60.04,46.75 46.06,38.67 46.06,22.52 60.04,14.45" fill="#c0c0c0" stroke="rgba(0,0,0,0.3)" stroke-width="1" data-sq="1,0" class="board-cell"/><polygon points="103.48,22.53 103.48,38.67 89.49,46.75 75.50,38.67 75.50,22.52 89.49,14.45" fill="#d8d8d8" stroke="rgba(0,0,0,0.3)" stroke-width="1" data-sq="2,0" class="board-cell"/><polygon points="132.92,22.53 132.92,38.67 118.93,46.75 104.95,38.67 104.95,22.52 118.93,14.45" fill="#e8e8e8" stroke="rgba(0,0,0,0.3)" stroke-width="1" data-sq="3,0" class="board-cell"/><polygon points="162.37,22.53 162.37,38.67 148.38,46.75 134.39,38.67 134.39,22.52 148.38,14.45" fill="#c0c0c0" stroke="rgba(0,0,0,0.3)" stroke-width="1" data-sq="4,0" class="board-cell"/><polygon points="191.81,22.53 191.81,38.67 177.82,46.75 163.84,38.67 163.84,22.52 177.82,14.45" fill="#d8d8d8" stroke="rgba(0,0,0,0.3)" stroke-width="1" data-sq="5,0" class="board-cell"/><polygon points="221.26,22.53 221.26,38.67 207.27,46.75 193.28,38.67 193.28,22.52 207.27,14.45" fill="#e8e8e8" stroke="rgba(0,0,0,0.3)" stroke-width="1" data-sq="6,0" class="board-cell"/><polygon points="250.70,22.53 250.70,38.67 236.71,46.75 222.73,38.67 222.73,22.52 236.71,14.45" fill="#c0c0c0" stroke="rgba(0,0,0,0.3)" stroke-width="1" data-sq="7,0" class="board-cell"/><polygon points="280.15,22.53 280.15,38.67 266.16,46.75 252.17,38.67 252.17,22.52 266.16,14.45" fill="#d8d8d8" stroke="rgba(0,0,0,0.3)" stroke-width="1" data-sq="8,0" class="board-cell"/><polygon points="309.59,22.53 309.59,38.67 295.60,46.75 281.62,38.67 281.62,22.52 295.60,14.45" fill="#e8e8e8" stroke="rgba(0,0,0,0.3)" stroke-width="1" data-sq="9,0" class="board-cell"/><polygon points="339.03,22.53 339.03,38.67 325.05,46.75 311.06,38.67 311.06,22.52 325.05,14.45" fill="#c0c0c0" stroke="rgba(0,0,0,0.3)" stroke-width="1" data-sq="10,0" class="board-cell"/><polygon points="368.48,22.53 368.48,38.67 354.49,46.75 340.51,38.67 340.51,22.52 354.49,14.45" fill="#d8d8d8" stroke="rgba(0,0,0,0.3)" stroke-width="1" data-sq="11,0" class="board-cell"/><polygon points="397.92,22.53 397.92,38.67 383.94,46.75 369.95,38.67 369.95,22.52 383.94,14.45" fill="#e8e8e8" stroke="rgba(0,0,0,0.3)" stroke-width="1" data-sq="12,0" class="board-cell"/><polygon points="59.31,48.03 59.31,64.17 45.32,72.25 31.34,64.17 31.34,48.02 45.32,39.95" fill="#c0c0c0" stroke="rgba(0,0,0,0.3)" stroke-width="1" data-sq="0,1" class="board-cell"/><polygon points="88.75,48.03 88.75,64.17 74.77,72.25 60.78,64.17 60.78,48.02 74.77,39.95" fill="#d8d8d8" stroke="rgba(0,0,0,0.3)" stroke-width="1" data-sq="1,1" class="board-cell"/><polygon points="118.20,48.03 118.20,64.17 104.21,72.25 90.23,64.17 90.23,48.02 104.21,39.95" fill="#e8e8e8" stroke="rgba(0,0,0,0.3)" stroke-width="1" data-sq="2,1" class="board-cell"/><polygon points="147.64,48.03 147.64,64.17 133.66,72.25 119.67,64.17 119.67,48.02 133.66,39.95" fill="#c0c0c0" stroke="rgba(0,0,0,0.3)" stroke-width="1" data-sq="3,1" class="board-cell"/><polygon points="177.09,48.03 177.09,64.17 163.10,72.25 149.12,64.17 149.12,48.02 163.10,39.95" fill="#d8d8d8" stroke="rgba(0,0,0,0.3)" stroke-width="1" data-sq="4,1" class="board-cell"/><polygon points="206.53,48.03 206.53,64.17 192.55,72.25 178.56,64.17 178.56,48.02 192.55,39.95" fill="#e8e8e8" stroke="rgba(0,0,0,0.3)" stroke-width="1" data-sq="5,1" class="board-cell"/><polygon points="235.98,48.03 235.98,64.17 221.99,72.25 208.01,64.17 208.01,48.02 221.99,39.95" fill="#c0c0c0" stroke="rgba(0,0,0,0.3)" stroke-width="1" data-sq="6,1" class="board-cell"/><polygon points="265.42,48.03 265.42,64.17 251.44,72.25 237.45,64.17 237.45,48.02 251.44,39.95" fill="#d8d8d8" stroke="rgba(0,0,0,0.3)" stroke-width="1" data-sq="7,1" class="board-cell"/><polygon points="294.87,48.03 294.87,64.17 280.88,72.25 266.90,64.17 266.90,48.02 280.88,39.95" fill="#e8e8e8" stroke="rgba(0,0,0,0.3)" stroke-width="1" data-sq="8,1" class="board-cell"/><polygon points="324.31,48.03 324.31,64.17 310.33,72.25 296.34,64.17 296.34,48.02 310.33,39.95" fill="#c0c0c0" stroke="rgba(0,0,0,0.3)" stroke-width="1" data-sq="9,1" class="board-cell"/><polygon points="353.76,48.03 353.76,64.17 339.77,72.25 325.78,64.17 325.78,48.02 339.77,39.95" fill="#d8d8d8" stroke="rgba(0,0,0,0.3)" stroke-width="1" data-sq="10,1" class="board-cell"/><polygon points="383.20,48.03 383.20,64.17 369.22,72.25 355.23,64.17 355.23,48.02 369.22,39.95" fill="#e8e8e8" stroke="rgba(0,0,0,0.3)" stroke-width="1" data-sq="11,1" class="board-cell"/><polygon points="412.65,48.03 412.65,64.17 398.66,72.25 384.67,64.17 384.67,48.02 398.66,39.95" fill="#c0c0c0" stroke="rgba(0,0,0,0.3)" stroke-width="1" data-sq="12,1" class="board-cell"/><polygon points="74.03,73.52 74.03,89.67 60.04,97.75 46.06,89.67 46.06,73.52 60.04,65.45" fill="#d8d8d8" stroke="rgba(0,0,0,0.3)" stroke-width="1" data-sq="0,2" class="board-cell"/><polygon points="103.48,73.52 103.48,89.67 89.49,97.75 75.50,89.67 75.50,73.52 89.49,65.45" fill="#e8e8e8" stroke="rgba(0,0,0,0.3)" stroke-width="1" data-sq="1,2" class="board-cell"/><polygon points="132.92,73.52 132.92,89.67 118.93,97.75 104.95,89.67 104.95,73.52 118.93,65.45" fill="#c0c0c0" stroke="rgba(0,0,0,0.3)" stroke-width="1" data-sq="2,2" class="board-cell"/><polygon points="162.37,73.52 162.37,89.67 148.38,97.75 134.39,89.67 134.39,73.52 148.38,65.45" fill="#d8d8d8" stroke="rgba(0,0,0,0.3)" stroke-width="1" data-sq="3,2" class="board-cell"/><polygon points="191.81,73.52 191.81,89.67 177.82,97.75 163.84,89.67 163.84,73.52 177.82,65.45" fill="#e8e8e8" stroke="rgba(0,0,0,0.3)" stroke-width="1" data-sq="4,2" class="board-cell"/><polygon points="221.26,73.52 221.26,89.67 207.27,97.75 193.28,89.67 193.28,73.52 207.27,65.45" fill="#c0c0c0" stroke="rgba(0,0,0,0.3)" stroke-width="1" data-sq="5,2" class="board-cell"/><polygon points="250.70,73.52 250.70,89.67 236.71,97.75 222.73,89.67 222.73,73.52 236.71,65.45" fill="#d8d8d8" stroke="rgba(0,0,0,0.3)" stroke-width="1" data-sq="6,2" class="board-cell"/><polygon points="280.15,73.52 280.15,89.67 266.16,97.75 252.17,89.67 252.17,73.52 266.16,65.45" fill="#e8e8e8" stroke="rgba(0,0,0,0.3)" stroke-width="1" data-sq="7,2" class="board-cell"/><polygon points="309.59,73.52 309.59,89.67 295.60,97.75 281.62,89.67 281.62,73.52 295.60,65.45" fill="#c0c0c0" stroke="rgba(0,0,0,0.3)" stroke-width="1" data-sq="8,2" class="board-cell"/><polygon points="339.03,73.52 339.03,89.67 325.05,97.75 311.06,89.67 311.06,73.52 325.05,65.45" fill="#d8d8d8" stroke="rgba(0,0,0,0.3)" stroke-width="1" data-sq="9,2" class="board-cell"/><polygon points="368.48,73.52 368.48,89.67 354.49,97.75 340.51,89.67 340.51,73.52 354.49,65.45" fill="#e8e8e8" stroke="rgba(0,0,0,0.3)" stroke-width="1" data-sq="10,2" class="board-cell"/><polygon points="397.92,73.52 397.92,89.67 383.94,97.75 369.95,89.67 369.95,73.52 383.94,65.45" fill="#c0c0c0" stroke="rgba(0,0,0,0.3)" stroke-width="1" data-sq="11,2" class="board-cell"/><polygon points="427.37,73.52 427.37,89.67 413.38,97.75 399.40,89.67 399.40,73.52 413.38,65.45" fill="#d8d8d8" stroke="rgba(0,0,0,0.3)" stroke-width="1" data-sq="12,2" class="board-cell"/><polygon points="88.75,99.02 88.75,115.17 74.77,123.25 60.78,115.17 60.78,99.02 74.77,90.95" fill="#e8e8e8" stroke="rgba(0,0,0,0.3)" stroke-width="1" data-sq="0,3" class="board-cell"/><polygon points="118.20,99.02 118.20,115.17 104.21,123.25 90.23,115.17 90.23,99.02 104.21,90.95" fill="#c0c0c0" stroke="rgba(0,0,0,0.3)" stroke-width="1" data-sq="1,3" class="board-cell"/><polygon points="147.64,99.02 147.64,115.17 133.66,123.25 119.67,115.17 119.67,99.02 133.66,90.95" fill="#d8d8d8" stroke="rgba(0,0,0,0.3)" stroke-width="1" data-sq="2,3" class="board-cell"/><polygon points="177.09,99.02 177.09,115.17 163.10,123.25 149.12,115.17 149.12,99.02 163.10,90.95" fill="#e8e8e8" stroke="rgba(0,0,0,0.3)" stroke-width="1" data-sq="3,3" class="board-cell"/><polygon points="206.53,99.02 206.53,115.17 192.55,123.25 178.56,115.17 178.56,99.02 192.55,90.95" fill="#c0c0c0" stroke="rgba(0,0,0,0.3)" stroke-width="1" data-sq="4,3" class="board-cell"/><polygon points="235.98,99.02 235.98,115.17 221.99,123.25 208.01,115.17 208.01,99.02 221.99,90.95" fill="#d8d8d8" stroke="rgba(0,0,0,0.3)" stroke-width="1" data-sq="5,3" class="board-cell"/><polygon points="265.42,99.02 265.42,115.17 251.44,123.25 237.45,115.17 237.45,99.02 251.44,90.95" fill="#e8e8e8" stroke="rgba(0,0,0,0.3)" stroke-width="1" data-sq="6,3" class="board-cell"/><polygon points="294.87,99.02 294.87,115.17 280.88,123.25 266.90,115.17 266.90,99.02 280.88,90.95" fill="#c0c0c0" stroke="rgba(0,0,0,0.3)" stroke-width="1" data-sq="7,3" class="board-cell"/><polygon points="324.31,99.02 324.31,115.17 310.33,123.25 296.34,115.17 296.34,99.02 310.33,90.95" fill="#d8d8d8" stroke="rgba(0,0,0,0.3)" stroke-width="1" data-sq="8,3" class="board-cell"/><polygon points="353.76,99.02 353.76,115.17 339.77,123.25 325.78,115.17 325.78,99.02 339.77,90.95" fill="#e8e8e8" stroke="rgba(0,0,0,0.3)" stroke-width="1" data-sq="9,3" class="board-cell"/><polygon points="383.20,99.02 383.20,115.17 369.22,123.25 355.23,115.17 355.23,99.02 369.22,90.95" fill="#c0c0c0" stroke="rgba(0,0,0,0.3)" stroke-width="1" data-sq="10,3" class="board-cell"/><polygon points="412.65,99.02 412.65,115.17 398.66,123.25 384.67,115.17 384.67,99.02 398.66,90.95" fill="#d8d8d8" stroke="rgba(0,0,0,0.3)" stroke-width="1" data-sq="11,3" class="board-cell"/><polygon points="442.09,99.02 442.09,115.17 428.11,123.25 414.12,115.17 414.12,99.02 428.11,90.95" fill="#e8e8e8" stroke="rgba(0,0,0,0.3)" stroke-width="1" data-sq="12,3" class="board-cell"/><polygon points="103.48,124.52 103.48,140.67 89.49,148.75 75.50,140.67 75.50,124.52 89.49,116.45" fill="#c0c0c0" stroke="rgba(0,0,0,0.3)" stroke-width="1" data-sq="0,4" class="board-cell"/><polygon points="132.92,124.52 132.92,140.67 118.93,148.75 104.95,140.67 104.95,124.52 118.93,116.45" fill="#d8d8d8" stroke="rgba(0,0,0,0.3)" stroke-width="1" data-sq="1,4" class="board-cell"/><polygon points="162.37,124.52 162.37,140.67 148.38,148.75 134.39,140.67 134.39,124.52 148.38,116.45" fill="#e8e8e8" stroke="rgba(0,0,0,0.3)" stroke-width="1" data-sq="2,4" class="board-cell"/><polygon points="191.81,124.52 191.81,140.67 177.82,148.75 163.84,140.67 163.84,124.52 177.82,116.45" fill="#c0c0c0" stroke="rgba(0,0,0,0.3)" stroke-width="1" data-sq="3,4" class="board-cell"/><polygon points="221.26,124.52 221.26,140.67 207.27,148.75 193.28,140.67 193.28,124.52 207.27,116.45" fill="#d8d8d8" stroke="rgba(0,0,0,0.3)" stroke-width="1" data-sq="4,4" class="board-cell"/><polygon points="250.70,124.52 250.70,140.67 236.71,148.75 222.73,140.67 222.73,124.52 236.71,116.45" fill="#e8e8e8" stroke="rgba(0,0,0,0.3)" stroke-width="1" data-sq="5,4" class="board-cell"/><polygon points="280.15,124.52 280.15,140.67 266.16,148.75 252.17,140.67 252.17,124.52 266.16,116.45" fill="#c0c0c0" stroke="rgba(0,0,0,0.3)" stroke-width="1" data-sq="6,4" class="board-cell"/><polygon points="309.59,124.52 309.59,140.67 295.60,148.75 281.62,140.67 281.62,124.52 295.60,116.45" fill="#d8d8d8" stroke="rgba(0,0,0,0.3)" stroke-width="1" data-sq="7,4" class="board-cell"/><polygon points="339.03,124.52 339.03,140.67 325.05,148.75 311.06,140.67 311.06,124.52 325.05,116.45" fill="#e8e8e8" stroke="rgba(0,0,0,0.3)" stroke-width="1" data-sq="8,4" class="board-cell"/><polygon points="368.48,124.52 368.48,140.67 354.49,148.75 340.51,140.67 340.51,124.52 354.49,116.45" fill="#c0c0c0" stroke="rgba(0,0,0,0.3)" stroke-width="1" data-sq="9,4" class="board-cell"/><polygon points="397.92,124.52 397.92,140.67 383.94,148.75 369.95,140.67 369.95,124.52 383.94,116.45" fill="#d8d8d8" stroke="rgba(0,0,0,0.3)" stroke-width="1" data-sq="10,4" class="board-cell"/><polygon points="427.37,124.52 427.37,140.67 413.38,148.75 399.40,140.67 399.40,124.52 413.38,116.45" fill="#e8e8e8" stroke="rgba(0,0,0,0.3)" stroke-width="1" data-sq="11,4" class="board-cell"/><polygon points="456.81,124.52 456.81,140.67 442.83,148.75 428.84,140.67 428.84,124.52 442.83,116.45" fill="#c0c0c0" stroke="rgba(0,0,0,0.3)" stroke-width="1" data-sq="12,4" class="board-cell"/><polygon points="118.20,150.03 118.20,166.17 104.21,174.25 90.23,166.17 90.23,150.03 104.21,141.95" fill="#d8d8d8" stroke="rgba(0,0,0,0.3)" stroke-width="1" data-sq="0,5" class="board-cell"/><polygon points="147.64,150.03 147.64,166.17 133.66,174.25 119.67,166.17 119.67,150.03 133.66,141.95" fill="#e8e8e8" stroke="rgba(0,0,0,0.3)" stroke-width="1" data-sq="1,5" class="board-cell"/><polygon points="177.09,150.03 177.09,166.17 163.10,174.25 149.12,166.17 149.12,150.03 163.10,141.95" fill="#c0c0c0" stroke="rgba(0,0,0,0.3)" stroke-width="1" data-sq="2,5" class="board-cell"/><polygon points="206.53,150.03 206.53,166.17 192.55,174.25 178.56,166.17 178.56,150.03 192.55,141.95" fill="#d8d8d8" stroke="rgba(0,0,0,0.3)" stroke-width="1" data-sq="3,5" class="board-cell"/><polygon points="235.98,150.03 235.98,166.17 221.99,174.25 208.01,166.17 208.01,150.03 221.99,141.95" fill="#e8e8e8" stroke="rgba(0,0,0,0.3)" stroke-width="1" data-sq="4,5" class="board-cell"/><polygon points="265.42,150.03 265.42,166.17 251.44,174.25 237.45,166.17 237.45,150.03 251.44,141.95" fill="#c0c0c0" stroke="rgba(0,0,0,0.3)" stroke-width="1" data-sq="5,5" class="board-cell"/><polygon points="294.87,150.03 294.87,166.17 280.88,174.25 266.90,166.17 266.90,150.03 280.88,141.95" fill="#d8d8d8" stroke="rgba(0,0,0,0.3)" stroke-width="1" data-sq="6,5" class="board-cell"/><polygon points="324.31,150.03 324.31,166.17 310.33,174.25 296.34,166.17 296.34,150.03 310.33,141.95" fill="#e8e8e8" stroke="rgba(0,0,0,0.3)" stroke-width="1" data-sq="7,5" class="board-cell"/><polygon points="353.76,150.03 353.76,166.17 339.77,174.25 325.78,166.17 325.78,150.03 339.77,141.95" fill="#c0c0c0" stroke="rgba(0,0,0,0.3)" stroke-width="1" data-sq="8,5" class="board-cell"/><polygon points="383.20,150.03 383.20,166.17 369.22,174.25 355.23,166.17 355.23,150.03 369.22,141.95" fill="#d8d8d8" stroke="rgba(0,0,0,0.3)" stroke-width="1" data-sq="9,5" class="board-cell"/><polygon points="412.65,150.03 412.65,166.17 398.66,174.25 384.67,166.17 384.67,150.03 398.66,141.95" fill="#e8e8e8" stroke="rgba(0,0,0,0.3)" stroke-width="1" data-sq="10,5" class="board-cell"/><polygon points="442.09,150.03 442.09,166.17 428.11,174.25 414.12,166.17 414.12,150.03 428.11,141.95" fill="#c0c0c0" stroke="rgba(0,0,0,0.3)" stroke-width="1" data-sq="11,5" class="board-cell"/><polygon points="471.54,150.03 471.54,166.17 457.55,174.25 443.56,166.17 443.56,150.03 457.55,141.95" fill="#d8d8d8" stroke="rgba(0,0,0,0.3)" stroke-width="1" data-sq="12,5" class="board-cell"/><polygon points="132.92,175.53 132.92,191.67 118.93,199.75 104.95,191.67 104.95,175.53 118.93,167.45" fill="#e8e8e8" stroke="rgba(0,0,0,0.3)" stroke-width="1" data-sq="0,6" class="board-cell"/><polygon points="162.37,175.53 162.37,191.67 148.38,199.75 134.39,191.67 134.39,175.53 148.38,167.45" fill="#c0c0c0" stroke="rgba(0,0,0,0.3)" stroke-width="1" data-sq="1,6" class="board-cell"/><polygon points="191.81,175.53 191.81,191.67 177.82,199.75 163.84,191.67 163.84,175.53 177.82,167.45" fill="#d8d8d8" stroke="rgba(0,0,0,0.3)" stroke-width="1" data-sq="2,6" class="board-cell"/><polygon points="221.26,175.53 221.26,191.67 207.27,199.75 193.28,191.67 193.28,175.53 207.27,167.45" fill="#e8e8e8" stroke="rgba(0,0,0,0.3)" stroke-width="1" data-sq="3,6" class="board-cell"/><polygon points="250.70,175.53 250.70,191.67 236.71,199.75 222.73,191.67 222.73,175.53 236.71,167.45" fill="#c0c0c0" stroke="rgba(0,0,0,0.3)" stroke-width="1" data-sq="4,6" class="board-cell"/><polygon points="280.15,175.53 280.15,191.67 266.16,199.75 252.17,191.67 252.17,175.53 266.16,167.45" fill="#d8d8d8" stroke="rgba(0,0,0,0.3)" stroke-width="1" data-sq="5,6" class="board-cell"/><polygon points="309.59,175.53 309.59,191.67 295.60,199.75 281.62,191.67 281.62,175.53 295.60,167.45" fill="#e8e8e8" stroke="rgba(0,0,0,0.3)" stroke-width="1" data-sq="6,6" class="board-cell"/><polygon points="339.03,175.53 339.03,191.67 325.05,199.75 311.06,191.67 311.06,175.53 325.05,167.45" fill="#c0c0c0" stroke="rgba(0,0,0,0.3)" stroke-width="1" data-sq="7,6" class="board-cell"/><polygon points="368.48,175.53 368.48,191.67 354.49,199.75 340.51,191.67 340.51,175.53 354.49,167.45" fill="#d8d8d8" stroke="rgba(0,0,0,0.3)" stroke-width="1" data-sq="8,6" class="board-cell"/><polygon points="397.92,175.53 397.92,191.67 383.94,199.75 369.95,191.67 369.95,175.53 383.94,167.45" fill="#e8e8e8" stroke="rgba(0,0,0,0.3)" stroke-width="1" data-sq="9,6" class="board-cell"/><polygon points="427.37,175.53 427.37,191.67 413.38,199.75 399.40,191.67 399.40,175.53 413.38,167.45" fill="#c0c0c0" stroke="rgba(0,0,0,0.3)" stroke-width="1" data-sq="10,6" class="board-cell"/><polygon points="456.81,175.53 456.81,191.67 442.83,199.75 428.84,191.67 428.84,175.53 442.83,167.45" fill="#d8d8d8" stroke="rgba(0,0,0,0.3)" stroke-width="1" data-sq="11,6" class="board-cell"/><polygon points="486.26,175.53 486.26,191.67 472.27,199.75 458.29,191.67 458.29,175.53 472.27,167.45" fill="#e8e8e8" stroke="rgba(0,0,0,0.3)" stroke-width="1" data-sq="12,6" class="board-cell"/><polygon points="147.64,201.03 147.64,217.17 133.66,225.25 119.67,217.17 119.67,201.03 133.66,192.95" fill="#c0c0c0" stroke="rgba(0,0,0,0.3)" stroke-width="1" data-sq="0,7" class="board-cell"/><polygon points="177.09,201.03 177.09,217.17 163.10,225.25 149.12,217.17 149.12,201.03 163.10,192.95" fill="#d8d8d8" stroke="rgba(0,0,0,0.3)" stroke-width="1" data-sq="1,7" class="board-cell"/><polygon points="206.53,201.03 206.53,217.17 192.55,225.25 178.56,217.17 178.56,201.03 192.55,192.95" fill="#e8e8e8" stroke="rgba(0,0,0,0.3)" stroke-width="1" data-sq="2,7" class="board-cell"/><polygon points="235.98,201.03 235.98,217.17 221.99,225.25 208.01,217.17 208.01,201.03 221.99,192.95" fill="#c0c0c0" stroke="rgba(0,0,0,0.3)" stroke-width="1" data-sq="3,7" class="board-cell"/><polygon points="265.42,201.03 265.42,217.17 251.44,225.25 237.45,217.17 237.45,201.03 251.44,192.95" fill="#d8d8d8" stroke="rgba(0,0,0,0.3)" stroke-width="1" data-sq="4,7" class="board-cell"/><polygon points="294.87,201.03 294.87,217.17 280.88,225.25 266.90,217.17 266.90,201.03 280.88,192.95" fill="#e8e8e8" stroke="rgba(0,0,0,0.3)" stroke-width="1" data-sq="5,7" class="board-cell"/><polygon points="324.31,201.03 324.31,217.17 310.33,225.25 296.34,217.17 296.34,201.03 310.33,192.95" fill="#c0c0c0" stroke="rgba(0,0,0,0.3)" stroke-width="1" data-sq="6,7" class="board-cell"/><polygon points="353.76,201.03 353.76,217.17 339.77,225.25 325.78,217.17 325.78,201.03 339.77,192.95" fill="#d8d8d8" stroke="rgba(0,0,0,0.3)" stroke-width="1" data-sq="7,7" class="board-cell"/><polygon points="383.20,201.03 383.20,217.17 369.22,225.25 355.23,217.17 355.23,201.03 369.22,192.95" fill="#e8e8e8" stroke="rgba(0,0,0,0.3)" stroke-width="1" data-sq="8,7" class="board-cell"/><polygon points="412.65,201.03 412.65,217.17 398.66,225.25 384.67,217.17 384.67,201.03 398.66,192.95" fill="#c0c0c0" stroke="rgba(0,0,0,0.3)" stroke-width="1" data-sq="9,7" class="board-cell"/><polygon points="442.09,201.03 442.09,217.17 428.11,225.25 414.12,217.17 414.12,201.03 428.11,192.95" fill="#d8d8d8" stroke="rgba(0,0,0,0.3)" stroke-width="1" data-sq="10,7" class="board-cell"/><polygon points="471.54,201.03 471.54,217.17 457.55,225.25 443.56,217.17 443.56,201.03 457.55,192.95" fill="#e8e8e8" stroke="rgba(0,0,0,0.3)" stroke-width="1" data-sq="11,7" class="board-cell"/><polygon points="500.98,201.03 500.98,217.17 487.00,225.25 473.01,217.17 473.01,201.03 487.00,192.95" fill="#c0c0c0" stroke="rgba(0,0,0,0.3)" stroke-width="1" data-sq="12,7" class="board-cell"/><polygon points="162.37,226.53 162.37,242.67 148.38,250.75 134.39,242.67 134.39,226.53 148.38,218.45" fill="#d8d8d8" stroke="rgba(0,0,0,0.3)" stroke-width="1" data-sq="0,8" class="board-cell"/><polygon points="191.81,226.53 191.81,242.67 177.82,250.75 163.84,242.67 163.84,226.53 177.82,218.45" fill="#e8e8e8" stroke="rgba(0,0,0,0.3)" stroke-width="1" data-sq="1,8" class="board-cell"/><polygon points="221.26,226.53 221.26,242.67 207.27,250.75 193.28,242.67 193.28,226.53 207.27,218.45" fill="#c0c0c0" stroke="rgba(0,0,0,0.3)" stroke-width="1" data-sq="2,8" class="board-cell"/><polygon points="250.70,226.53 250.70,242.67 236.71,250.75 222.73,242.67 222.73,226.53 236.71,218.45" fill="#d8d8d8" stroke="rgba(0,0,0,0.3)" stroke-width="1" data-sq="3,8" class="board-cell"/><polygon points="280.15,226.53 280.15,242.67 266.16,250.75 252.17,242.67 252.17,226.53 266.16,218.45" fill="#e8e8e8" stroke="rgba(0,0,0,0.3)" stroke-width="1" data-sq="4,8" class="board-cell"/><polygon points="309.59,226.53 309.59,242.67 295.60,250.75 281.62,242.67 281.62,226.53 295.60,218.45" fill="#c0c0c0" stroke="rgba(0,0,0,0.3)" stroke-width="1" data-sq="5,8" class="board-cell"/><polygon points="339.03,226.53 339.03,242.67 325.05,250.75 311.06,242.67 311.06,226.53 325.05,218.45" fill="#d8d8d8" stroke="rgba(0,0,0,0.3)" stroke-width="1" data-sq="6,8" class="board-cell"/><polygon points="368.48,226.53 368.48,242.67 354.49,250.75 340.51,242.67 340.51,226.53 354.49,218.45" fill="#e8e8e8" stroke="rgba(0,0,0,0.3)" stroke-width="1" data-sq="7,8" class="board-cell"/><polygon points="397.92,226.53 397.92,242.67 383.94,250.75 369.95,242.67 369.95,226.53 383.94,218.45" fill="#c0c0c0" stroke="rgba(0,0,0,0.3)" stroke-width="1" data-sq="8,8" class="board-cell"/><polygon points="427.37,226.53 427.37,242.67 413.38,250.75 399.40,242.67 399.40,226.53 413.38,218.45" fill="#d8d8d8" stroke="rgba(0,0,0,0.3)" stroke-width="1" data-sq="9,8" class="board-cell"/><polygon points="456.81,226.53 456.81,242.67 442.83,250.75 428.84,242.67 428.84,226.53 442.83,218.45" fill="#e8e8e8" stroke="rgba(0,0,0,0.3)" stroke-width="1" data-sq="10,8" class="board-cell"/><polygon points="486.26,226.53 486.26,242.67 472.27,250.75 458.29,242.67 458.29,226.53 472.27,218.45" fill="#c0c0c0" stroke="rgba(0,0,0,0.3)" stroke-width="1" data-sq="11,8" class="board-cell"/><polygon points="515.70,226.53 515.70,242.67 501.72,250.75 487.73,242.67 487.73,226.53 501.72,218.45" fill="#d8d8d8" stroke="rgba(0,0,0,0.3)" stroke-width="1" data-sq="12,8" class="board-cell"/><polygon points="177.09,252.03 177.09,268.18 163.10,276.25 149.12,268.18 149.12,252.03 163.10,243.95" fill="#e8e8e8" stroke="rgba(0,0,0,0.3)" stroke-width="1" data-sq="0,9" class="board-cell"/><polygon points="206.53,252.03 206.53,268.18 192.55,276.25 178.56,268.18 178.56,252.03 192.55,243.95" fill="#c0c0c0" stroke="rgba(0,0,0,0.3)" stroke-width="1" data-sq="1,9" class="board-cell"/><polygon points="235.98,252.03 235.98,268.18 221.99,276.25 208.01,268.18 208.01,252.03 221.99,243.95" fill="#d8d8d8" stroke="rgba(0,0,0,0.3)" stroke-width="1" data-sq="2,9" class="board-cell"/><polygon points="265.42,252.03 265.42,268.18 251.44,276.25 237.45,268.18 237.45,252.03 251.44,243.95" fill="#e8e8e8" stroke="rgba(0,0,0,0.3)" stroke-width="1" data-sq="3,9" class="board-cell"/><polygon points="294.87,252.03 294.87,268.18 280.88,276.25 266.90,268.18 266.90,252.03 280.88,243.95" fill="#c0c0c0" stroke="rgba(0,0,0,0.3)" stroke-width="1" data-sq="4,9" class="board-cell"/><polygon points="324.31,252.03 324.31,268.18 310.33,276.25 296.34,268.18 296.34,252.03 310.33,243.95" fill="#d8d8d8" stroke="rgba(0,0,0,0.3)" stroke-width="1" data-sq="5,9" class="board-cell"/><polygon points="353.76,252.03 353.76,268.18 339.77,276.25 325.78,268.18 325.78,252.03 339.77,243.95" fill="#e8e8e8" stroke="rgba(0,0,0,0.3)" stroke-width="1" data-sq="6,9" class="board-cell"/><polygon points="383.20,252.03 383.20,268.18 369.22,276.25 355.23,268.18 355.23,252.03 369.22,243.95" fill="#c0c0c0" stroke="rgba(0,0,0,0.3)" stroke-width="1" data-sq="7,9" class="board-cell"/><polygon points="412.65,252.03 412.65,268.18 398.66,276.25 384.67,268.18 384.67,252.03 398.66,243.95" fill="#d8d8d8" stroke="rgba(0,0,0,0.3)" stroke-width="1" data-sq="8,9" class="board-cell"/><polygon points="442.09,252.03 442.09,268.18 428.11,276.25 414.12,268.18 414.12,252.03 428.11,243.95" fill="#e8e8e8" stroke="rgba(0,0,0,0.3)" stroke-width="1" data-sq="9,9" class="board-cell"/><polygon points="471.54,252.03 471.54,268.18 457.55,276.25 443.56,268.18 443.56,252.03 457.55,243.95" fill="#c0c0c0" stroke="rgba(0,0,0,0.3)" stroke-width="1" data-sq="10,9" class="board-cell"/><polygon points="500.98,252.03 500.98,268.18 487.00,276.25 473.01,268.18 473.01,252.03 487.00,243.95" fill="#d8d8d8" stroke="rgba(0,0,0,0.3)" stroke-width="1" data-sq="11,9" class="board-cell"/><polygon points="530.43,252.03 530.43,268.18 516.44,276.25 502.45,268.18 502.45,252.03 516.44,243.95" fill="#e8e8e8" stroke="rgba(0,0,0,0.3)" stroke-width="1" data-sq="12,9" class="board-cell"/><polygon points="191.81,277.53 191.81,293.68 177.82,301.75 163.84,293.68 163.84,277.53 177.82,269.45" fill="#c0c0c0" stroke="rgba(0,0,0,0.3)" stroke-width="1" data-sq="0,10" class="board-cell"/><polygon points="221.26,277.53 221.26,293.68 207.27,301.75 193.28,293.68 193.28,277.53 207.27,269.45" fill="#d8d8d8" stroke="rgba(0,0,0,0.3)" stroke-width="1" data-sq="1,10" class="board-cell"/><polygon points="250.70,277.53 250.70,293.68 236.71,301.75 222.73,293.68 222.73,277.53 236.71,269.45" fill="#e8e8e8" stroke="rgba(0,0,0,0.3)" stroke-width="1" data-sq="2,10" class="board-cell"/><polygon points="280.15,277.53 280.15,293.68 266.16,301.75 252.17,293.68 252.17,277.53 266.16,269.45" fill="#c0c0c0" stroke="rgba(0,0,0,0.3)" stroke-width="1" data-sq="3,10" class="board-cell"/><polygon points="309.59,277.53 309.59,293.68 295.60,301.75 281.62,293.68 281.62,277.53 295.60,269.45" fill="#d8d8d8" stroke="rgba(0,0,0,0.3)" stroke-width="1" data-sq="4,10" class="board-cell"/><polygon points="339.03,277.53 339.03,293.68 325.05,301.75 311.06,293.68 311.06,277.53 325.05,269.45" fill="#e8e8e8" stroke="rgba(0,0,0,0.3)" stroke-width="1" data-sq="5,10" class="board-cell"/><polygon points="368.48,277.53 368.48,293.68 354.49,301.75 340.51,293.68 340.51,277.53 354.49,269.45" fill="#c0c0c0" stroke="rgba(0,0,0,0.3)" stroke-width="1" data-sq="6,10" class="board-cell"/><polygon points="397.92,277.53 397.92,293.68 383.94,301.75 369.95,293.68 369.95,277.53 383.94,269.45" fill="#d8d8d8" stroke="rgba(0,0,0,0.3)" stroke-width="1" data-sq="7,10" class="board-cell"/><polygon points="427.37,277.53 427.37,293.68 413.38,301.75 399.40,293.68 399.40,277.53 413.38,269.45" fill="#e8e8e8" stroke="rgba(0,0,0,0.3)" stroke-width="1" data-sq="8,10" class="board-cell"/><polygon points="456.81,277.53 456.81,293.68 442.83,301.75 428.84,293.68 428.84,277.53 442.83,269.45" fill="#c0c0c0" stroke="rgba(0,0,0,0.3)" stroke-width="1" data-sq="9,10" class="board-cell"/><polygon points="486.26,277.53 486.26,293.68 472.27,301.75 458.29,293.68 458.29,277.53 472.27,269.45" fill="#d8d8d8" stroke="rgba(0,0,0,0.3)" stroke-width="1" data-sq="10,10" class="board-cell"/><polygon points="515.70,277.53 515.70,293.68 501.72,301.75 487.73,293.68 487.73,277.53 501.72,269.45" fill="#e8e8e8" stroke="rgba(0,0,0,0.3)" stroke-width="1" data-sq="11,10" class="board-cell"/><polygon points="545.15,277.53 545.15,293.68 531.16,301.75 517.18,293.68 517.18,277.53 531.16,269.45" fill="#c0c0c0" stroke="rgba(0,0,0,0.3)" stroke-width="1" data-sq="12,10" class="board-cell"/><polygon points="206.53,303.03 206.53,319.18 192.55,327.25 178.56,319.18 178.56,303.03 192.55,294.95" fill="#d8d8d8" stroke="rgba(0,0,0,0.3)" stroke-width="1" data-sq="0,11" class="board-cell"/><polygon points="235.98,303.03 235.98,319.18 221.99,327.25 208.01,319.18 208.01,303.03 221.99,294.95" fill="#e8e8e8" stroke="rgba(0,0,0,0.3)" stroke-width="1" data-sq="1,11" class="board-cell"/><polygon points="265.42,303.03 265.42,319.18 251.44,327.25 237.45,319.18 237.45,303.03 251.44,294.95" fill="#c0c0c0" stroke="rgba(0,0,0,0.3)" stroke-width="1" data-sq="2,11" class="board-cell"/><polygon points="294.87,303.03 294.87,319.18 280.88,327.25 266.90,319.18 266.90,303.03 280.88,294.95" fill="#d8d8d8" stroke="rgba(0,0,0,0.3)" stroke-width="1" data-sq="3,11" class="board-cell"/><polygon points="324.31,303.03 324.31,319.18 310.33,327.25 296.34,319.18 296.34,303.03 310.33,294.95" fill="#e8e8e8" stroke="rgba(0,0,0,0.3)" stroke-width="1" data-sq="4,11" class="board-cell"/><polygon points="353.76,303.03 353.76,319.18 339.77,327.25 325.78,319.18 325.78,303.03 339.77,294.95" fill="#c0c0c0" stroke="rgba(0,0,0,0.3)" stroke-width="1" data-sq="5,11" class="board-cell"/><polygon points="383.20,303.03 383.20,319.18 369.22,327.25 355.23,319.18 355.23,303.03 369.22,294.95" fill="#d8d8d8" stroke="rgba(0,0,0,0.3)" stroke-width="1" data-sq="6,11" class="board-cell"/><polygon points="412.65,303.03 412.65,319.18 398.66,327.25 384.67,319.18 384.67,303.03 398.66,294.95" fill="#e8e8e8" stroke="rgba(0,0,0,0.3)" stroke-width="1" data-sq="7,11" class="board-cell"/><polygon points="442.09,303.03 442.09,319.18 428.11,327.25 414.12,319.18 414.12,303.03 428.11,294.95" fill="#c0c0c0" stroke="rgba(0,0,0,0.3)" stroke-width="1" data-sq="8,11" class="board-cell"/><polygon points="471.54,303.03 471.54,319.18 457.55,327.25 443.56,319.18 443.56,303.03 457.55,294.95" fill="#d8d8d8" stroke="rgba(0,0,0,0.3)" stroke-width="1" data-sq="9,11" class="board-cell"/><polygon points="500.98,303.03 500.98,319.18 487.00,327.25 473.01,319.18 473.01,303.03 487.00,294.95" fill="#e8e8e8" stroke="rgba(0,0,0,0.3)" stroke-width="1" data-sq="10,11" class="board-cell"/><polygon points="530.43,303.03 530.43,319.18 516.44,327.25 502.45,319.18 502.45,303.03 516.44,294.95" fill="#c0c0c0" stroke="rgba(0,0,0,0.3)" stroke-width="1" data-sq="11,11" class="board-cell"/><polygon points="559.87,303.03 559.87,319.18 545.89,327.25 531.90,319.18 531.90,303.03 545.89,294.95" fill="#d8d8d8" stroke="rgba(0,0,0,0.3)" stroke-width="1" data-sq="12,11" class="board-cell"/><polygon points="221.26,328.53 221.26,344.68 207.27,352.75 193.28,344.68 193.28,328.53 207.27,320.45" fill="#e8e8e8" stroke="rgba(0,0,0,0.3)" stroke-width="1" data-sq="0,12" class="board-cell"/><polygon points="250.70,328.53 250.70,344.68 236.71,352.75 222.73,344.68 222.73,328.53 236.71,320.45" fill="#c0c0c0" stroke="rgba(0,0,0,0.3)" stroke-width="1" data-sq="1,12" class="board-cell"/><polygon points="280.15,328.53 280.15,344.68 266.16,352.75 252.17,344.68 252.17,328.53 266.16,320.45" fill="#d8d8d8" stroke="rgba(0,0,0,0.3)" stroke-width="1" data-sq="2,12" class="board-cell"/><polygon points="309.59,328.53 309.59,344.68 295.60,352.75 281.62,344.68 281.62,328.53 295.60,320.45" fill="#e8e8e8" stroke="rgba(0,0,0,0.3)" stroke-width="1" data-sq="3,12" class="board-cell"/><polygon points="339.03,328.53 339.03,344.68 325.05,352.75 311.06,344.68 311.06,328.53 325.05,320.45" fill="#c0c0c0" stroke="rgba(0,0,0,0.3)" stroke-width="1" data-sq="4,12" class="board-cell"/><polygon points="368.48,328.53 368.48,344.68 354.49,352.75 340.51,344.68 340.51,328.53 354.49,320.45" fill="#d8d8d8" stroke="rgba(0,0,0,0.3)" stroke-width="1" data-sq="5,12" class="board-cell"/><polygon points="397.92,328.53 397.92,344.68 383.94,352.75 369.95,344.68 369.95,328.53 383.94,320.45" fill="#e8e8e8" stroke="rgba(0,0,0,0.3)" stroke-width="1" data-sq="6,12" class="board-cell"/><polygon points="427.37,328.53 427.37,344.68 413.38,352.75 399.40,344.68 399.40,328.53 413.38,320.45" fill="#c0c0c0" stroke="rgba(0,0,0,0.3)" stroke-width="1" data-sq="7,12" class="board-cell"/><polygon points="456.81,328.53 456.81,344.68 442.83,352.75 428.84,344.68 428.84,328.53 442.83,320.45" fill="#d8d8d8" stroke="rgba(0,0,0,0.3)" stroke-width="1" data-sq="8,12" class="board-cell"/><polygon points="486.26,328.53 486.26,344.68 472.27,352.75 458.29,344.68 458.29,328.53 472.27,320.45" fill="#e8e8e8" stroke="rgba(0,0,0,0.3)" stroke-width="1" data-sq="9,12" class="board-cell"/><polygon points="515.70,328.53 515.70,344.68 501.72,352.75 487.73,344.68 487.73,328.53 501.72,320.45" fill="#c0c0c0" stroke="rgba(0,0,0,0.3)" stroke-width="1" data-sq="10,12" class="board-cell"/><polygon points="545.15,328.53 545.15,344.68 531.16,352.75 517.18,344.68 517.18,328.53 531.16,320.45" fill="#d8d8d8" stroke="rgba(0,0,0,0.3)" stroke-width="1" data-sq="11,12" class="board-cell"/><polygon points="574.59,328.53 574.59,344.68 560.61,352.75 546.62,344.68 546.62,328.53 560.61,320.45" fill="#e8e8e8" stroke="rgba(0,0,0,0.3)" stroke-width="1" data-sq="12,12" class="board-cell"/>
</svg>