<svg xmlns="http://www.w3.org/2000/svg" viewBox="0 0 597.9998519614898 369.6" width="597.9998519614898" height="369.6">
<g fill="#6b4226"><polygon points="43.76,20.16 43.76,37.44 28.80,46.08 13.84,37.44 13.84,20.16 28.80,11.52"/><polygon points="71.48,20.16 71.48,37.44 56.51,46.08 41.55,37.44 41.55,20.16 56.51,11.52"/><polygon points="99.19,20.16 99.19,37.44 84.23,46.08 69.26,37.44 69.26,20.16 84.23,11.52"/><polygon points="126.90,20.16 126.90,37.44 111.94,46.08 96.97,37.44 96.97,20.16 111.94,11.52"/><polygon points="154.62,20.16 154.62,37.44 139.65,46.08 124.69,37.44 124.69,20.16 139.65,11.52"/><polygon points="182.33,20.16 182.33,37.44 167.36,46.08 152.40,37.44 152.40,20.16 167.36,11.52"/><polygon points="210.04,20.16 210.04,37.44 195.08,46.08 180.11,37.44 180.11,20.16 195.08,11.52"/><polygon points="237.75,20.16 237.75,37.44 222.79,46.08 207.82,37.44 207.82,20.16 222.79,11.52"/><polygon points="265.47,20.16 265.47,37.44 250.50,46.08 235.54,37.44 235.54,20.16 250.50,11.52"/><polygon points="293.18,20.16 293.18,37.44 278.22,46.08 263.25,37.44 263.25,20.16 278.22,11.52"/><polygon points="320.89,20.16 320.89,37.44 305.93,46.08 290.96,37.44 290.96,20.16 305.93,11.52"/><polygon points="348.61,20.16 348.61,37.44 333.64,46.08 318.68,37.44 318.68,20.16 333.64,11.52"/><polygon points="376.32,20.16 376.32,37.44 361.35,46.08 346.39,37.44 346.39,20.16 361.35,11.52"/><polygon points="404.03,20.16 404.03,37.44 389.07,46.08 374.10,37.44 374.10,20.16 389.07,11.52"/><polygon points="57.62,44.16 57.62,61.44 42.66,70.08 27.69,61.44 27.69,44.16 42.66,35.52"/><polygon points="85.33,44.16 85.33,61.44 70.37,70.08 55.40,61.44 55.40,44.16 70.37,35.52"/><polygon points="113.05,44.16 113.05,61.44 98.08,70.08 83.12,61.44 83.12,44.16 98.08,35.52"/><polygon points="140.76,44.16 140.76,61.44 125.79,70.08 110.83,61.44 110.83,44.16 125.79,35.52"/><polygon points="168.47,44.16 168.47,61.44 153.51,70.08 138.54,61.44 138.54,44.16 153.51,35.52"/><polygon points="196.19,44.16 196.19,61.44 181.22,70.08 166.26,61.44 166.26,44.16 181.22,35.52"/><polygon points="223.90,44.16 223.90,61.44 208.93,70.08 193.97,61.44 193.97,44.16 208.93,35.52"/><polygon points="251.61,44.16 251.61,61.44 236.65,70.08 221.68,61.44 221.68,44.16 236.65,35.52"/><polygon points="279.32,44.16 279.32,61.44 264.36,70.08 249.39,61.44 249.39,44.16 264.36,35.52"/><polygon points="307.04,44.16 307.04,61.44 292.07,70.08 277.11,61.44 277.11,44.16 292.07,35.52"/><polygon points="334.75,44.16 334.75,61.44 319.78,70.08 304.82,61.44 304.82,44.16 319.78,35.52"/><polygon points="362.46,44.16 362.46,61.44 347.50,70.08 332.53,61.44 332.53,44.16 347.50,35.52"/><polygon points="390.18,44.16 390.18,61.44 375.21,70.08 360.25,61.44 360.25,44.16 375.21,35.52"/><polygon points="417.89,44.16 417.89,61.44 402.92,70.08 387.96,61.44 387.96,44.16 402.92,35.52"/><polygon points="71.48,68.16 71.48,85.44 56.51,94.08 41.55,85.44 41.55,68.16 56.51,59.52"/><polygon points="99.19,68.16 99.19,85.44 84.23,94.08 69.26,85.44 69.26,68.16 84.23,59.52"/><polygon points="126.90,68.16 126.90,85.44 111.94,94.08 96.97,85.44 96.97,68.16 111.94,59.52"/><polygon points="154.62,68.16 154.62,85.44 139.65,94.08 124.69,85.44 124.69,68.16 139.65,59.52"/><polygon points="182.33,68.16 182.33,85.44 167.36,94.08 152.40,85.44 152.40,68.16 167.36,59.52"/><polygon points="210.04,68.16 210.04,85.44 195.08,94.08 180.11,85.44 180.11,68.16 195.08,59.52"/><polygon points="237.75,68.16 237.75,85.44 222.79,94.08 207.82,85.44 207.82,68.16 222.79,59.52"/><polygon points="265.47,68.16 265.47,85.44 250.50,94.08 235.54,85.44 235.54,68.16 250.50,59.52"/><polygon points="293.18,68.16 293.18,85.44 278.22,94.08 263.25,85.44 263.25,68.16 278.22,59.52"/><polygon points="320.89,68.16 320.89,85.44 305.93,94.08 290.96,85.44 290.96,68.16 305.93,59.52"/><polygon points="348.61,68.16 348.61,85.44 333.64,94.08 318.68,85.44 318.68,68.16 333.64,59.52"/><polygon points="376.32,68.16 376.32,85.44 361.35,94.08 346.39,85.44 346.39,68.16 361.35,59.52"/><polygon points="404.03,68.16 404.03,85.44 389.07,94.08 374.10,85.44 374.10,68.16 389.07,59.52"/><polygon points="431.74,68.16 431.74,85.44 416.78,94.08 401.81,85.44 401.81,68.16 416.78,59.52"/><polygon points="85.33,92.16 85.33,109.44 70.37,118.08 55.40,109.44 55.40,92.16 70.37,83.52"/><polygon points="113.05,92.16 113.05,109.44 98.08,118.08 83.12,109.44 83.12,92.16 98.08,83.52"/><polygon points="140.76,92.16 140.76,109.44 125.79,118.08 110.83,109.44 110.83,92.16 125.79,83.52"/><polygon points="168.47,92.16 168.47,109.44 153.51,118.08 138.54,109.44 138.54,92.16 153.51,83.52"/><polygon points="196.19,92.16 196.19,109.44 181.22,118.08 166.26,109.44 166.26,92.16 181.22,83.52"/><polygon points="223.90,92.16 223.90,109.44 208.93,118.08 193.97,109.44 193.97,92.16 208.93,83.52"/><polygon points="251.61,92.16 251.61,109.44 236.65,118.08 221.68,109.44 221.68,92.16 236.65,83.52"/><polygon points="279.32,92.16 279.32,109.44 264.36,118.08 249.39,109.44 249.39,92.16 264.36,83.52"/><polygon points="307.04,92.16 307.04,109.44 292.07,118.08 277.11,109.44 277.11,92.16 292.07,83.52"/><polygon points="334.75,92.16 334.75,109.44 319.78,118.08 304.82,109.44 304.82,92.16 319.78,83.52"/><polygon points="362.46,92.16 362.46,109.44 347.50,118.08 332.53,109.44 332.53,92.16 347.50,83.52"/><polygon points="390.18,92.16 390.18,109.44 375.21,118.08 360.25,109.44 360.25,92.16 375.21,83.52"/><polygon points="417.89,92.16 417.89,109.44 402.92,118.08 387.96,109.44 387.96,92.16 402.92,83.52"/><polygon points="445.60,92.16 445.60,109.44 430.64,118.08 415.67,109.44 415.67,92.16 430.64,83.52"/><polygon points="99.19,116.16 99.19,133.44 84.23,142.08 69.26,133.44 69.26,116.16 84.23,107.52"/><polygon points="126.90,116.16 126.90,133.44 111.94,142.08 96.97,133.44 96.97,116.16 111.94,107.52"/><polygon points="154.62,116.16 154.62,133.44 139.65,142.08 124.69,133.44 124.69,116.16 139.65,107.52"/><polygon points="182.33,116.16 182.33,133.44 167.36,142.08 152.40,133.44 152.40,116.16 167.36,107.52"/><polygon points="210.04,116.16 210.04,133.44 195.08,142.08 180.11,133.44 180.11,116.16 195.08,107.52"/><polygon points="237.75,116.16 237.75,133.44 222.79,142.08 207.82,133.44 207.82,116.16 222.79,107.52"/><polygon points="265.47,116.16 265.47,133.44 250.50,142.08 235.54,133.44 235.54,116.16 250.50,107.52"/><polygon points="293.18,116.16 293.18,133.44 278.22,142.08 263.25,133.44 263.25,116.16 278.22,107.52"/><polygon points="320.89,116.16 320.89,133.44 305.93,142.08 290.96,133.44 290.96,116.16 305.93,107.52"/><polygon points="348.61,116.16 348.61,133.44 333.64,142.08 318.68,133.44 318.68,116.16 333.64,107.52"/><polygon points="376.32,116.16 376.32,133.44 361.35,142.08 346.39,133.44 346.39,116.16 361.35,107.52"/><polygon points="404.03,116.16 404.03,133.44 389.07,142.08 374.10,133.44 374.10,116.16 389.07,107.52"/><polygon points="431.74,116.16 431.74,133.44 416.78,142.08 401.81,133.44 401.81,116.16 416.78,107.52"/><polygon points="459.46,116.16 459.46,133.44 444.49,142.08 429.53,133.44 429.53,116.16 444.49,107.52"/><polygon points="113.05,140.16 113.05,157.44 98.08,166.08 83.12,157.44 83.12,140.16 98.08,131.52"/><polygon points="140.76,140.16 140.76,157.44 125.79,166.08 110.83,157.44 110.83,140.16 125.79,131.52"/><polygon points="168.47,140.16 168.47,157.44 153.51,166.08 138.54,157.44 138.54,140.16 153.51,131.52"/><polygon points="196.19,140.16 196.19,157.44 181.22,166.08 166.26,157.44 166.26,140.16 181.22,131.52"/><polygon points="223.90,140.16 223.90,157.44 208.93,166.08 193.97,157.44 193.97,140.16 208.93,131.52"/><polygon points="251.61,140.16 251.61,157.44 236.65,166.08 221.68,157.44 221.68,140.16 236.65,131.52"/><polygon points="279.32,140.16 279.32,157.44 264.36,166.08 249.39,157.44 249.39,140.16 264.36,131.52"/><polygon points="307.04,140.16 307.04,157.44 292.07,166.08 277.11,157.44 277.11,140.16 292.07,131.52"/><polygon points="334.75,140.16 334.75,157.44 319.78,166.08 304.82,157.44 304.82,140.16 319.78,131.52"/><polygon points="362.46,140.16 362.46,157.44 347.50,166.08 332.53,157.44 332.53,140.16 347.50,131.52"/><polygon points="390.18,140.16 390.18,157.44 375.21,166.08 360.25,157.44 360.25,140.16 375.21,131.52"/><polygon points="417.89,140.16 417.89,157.44 402.92,166.08 387.96,157.44 387.96,140.16 402.92,131.52"/><polygon points="445.60,140.16 445.60,157.44 430.64,166.08 415.67,157.44 415.67,140.16 430.64,131.52"/><polygon points="473.31,140.16 473.31,157.44 458.35,166.08 443.38,157.44 443.38,140.16 458.35,131.52"/><polygon points="126.90,164.16 126.90,181.44 111.94,190.08 96.97,181.44 96.97,164.16 111.94,155.52"/><polygon points="154.62,164.16 154.62,181.44 139.65,190.08 124.69,181.44 124.69,164.16 139.65,155.52"/><polygon points="182.33,164.16 182.33,181.44 167.36,190.08 152.40,181.44 152.40,164.16 167.36,155.52"/><polygon points="210.04,164.16 210.04,181.44 195.08,190.08 180.11,181.44 180.11,164.16 195.08,155.52"/><polygon points="237.75,164.16 237.75,181.44 222.79,190.08 207.82,181.44 207.82,164.16 222.79,155.52"/><polygon points="265.47,164.16 265.47,181.44 250.50,190.08 235.54,181.44 235.54,164.16 250.50,155.52"/><polygon points="293.18,164.16 293.18,181.44 278.22,190.08 263.25,181.44 263.25,164.16 278.22,155.52"/><polygon points="320.89,164.16 320.89,181.44 305.93,190.08 290.96,181.44 290.96,164.16 305.93,155.52"/><polygon points="348.61,164.16 348.61,181.44 333.64,190.08 318.68,181.44 318.68,164.16 333.64,155.52"/><polygon points="376.32,164.16 376.32,181.44 361.35,190.08 346.39,181.44 346.39,164.16 361.35,155.52"/><polygon points="404.03,164.16 404.03,181.44 389.07,190.08 374.10,181.44 374.10,164.16 389.07,155.52"/><polygon points="431.74,164.16 431.74,181.44 416.78,190.08 401.81,181.44 401.81,164.16 416.78,155.52"/><polygon points="459.46,164.16 459.46,181.44 444.49,190.08 429.53,181.44 429.53,164.16 444.49,155.52"/><polygon points="487.17,164.16 487.17,181.44 472.21,190.08 457.24,181.44 457.24,164.16 472.21,155.52"/><polygon points="140.76,188.16 140.76,205.44 125.79,214.08 110.83,205.44 110.83,188.16 125.79,179.52"/><polygon points="168.47,188.16 168.47,205.44 153.51,214.08 138.54,205.44 138.54,188.16 153.51,179.52"/><polygon points="196.19,188.16 196.19,205.44 181.22,214.08 166.26,205.44 166.26,188.16 181.22,179.52"/><polygon points="223.90,188.16 223.90,205.44 208.93,214.08 193.97,205.44 193.97,188.16 208.93,179.52"/><polygon points="251.61,188.16 251.61,205.44 236.65,214.08 221.68,205.44 221.68,188.16 236.65,179.52"/><polygon points="279.32,188.16 279.32,205.44 264.36,214.08 249.39,205.44 249.39,188.16 264.36,179.52"/><polygon points="307.04,188.16 307.04,205.44 292.07,214.08 277.11,205.44 277.11,188.16 292.07,179.52"/><polygon points="334.75,188.16 334.75,205.44 319.78,214.08 304.82,205.44 304.82,188.16 319.78,179.52"/><polygon points="362.46,188.16 362.46,205.44 347.50,214.08 332.53,205.44 332.53,188.16 347.50,179.52"/><polygon points="390.18,188.16 390.18,205.44 375.21,214.08 360.25,205.44 360.25,188.16 375.21,179.52"/><polygon points="417.89,188.16 417.89,205.44 402.92,214.08 387.96,205.44 387.96,188.16 402.92,179.52"/><polygon points="445.60,188.16 445.60,205.44 430.64,214.08 415.67,205.44 415.67,188.16 430.64,179.52"/><polygon points="473.31,188.16 473.31,205.44 458.35,214.08 443.38,205.44 443.38,188.16 458.35,179.52"/><polygon points="501.03,188.16 501.03,205.44 486.06,214.08 471.10,205.44 471.10,188.16 486.06,179.52"/><polygon points="154.62,212.16 154.62,229.44 139.65,238.08 124.69,229.44 124.69,212.16 139.65,203.52"/><polygon points="182.33,212.16 182.33,229.44 167.36,238.08 152.40,229.44 152.40,212.16 167.36,203.52"/><polygon points="210.04,212.16 210.04,229.44 195.08,238.08 180.11,229.44 180.11,212.16 195.08,203.52"/><polygon points="237.75,212.16 237.75,229.44 222.79,238.08 207.82,229.44 207.82,212.16 222.79,203.52"/><polygon points="265.47,212.16 265.47,229.44 250.50,238.08 235.54,229.44 235.54,212.16 250.50,203.52"/><polygon points="293.18,212.16 293.18,229.44 278.22,238.08 263.25,229.44 263.25,212.16 278.22,203.52"/><polygon points="320.89,212.16 320.89,229.44 305.93,238.08 290.96,229.44 290.96,212.16 305.93,203.52"/><polygon points="348.61,212.16 348.61,229.44 333.64,238.08 318.68,229.44 318.68,212.16 333.64,203.52"/><polygon points="376.32,212.16 376.32,229.44 361.35,238.08 346.39,229.44 346.39,212.16 361.35,203.52"/><polygon points="404.03,212.16 404.03,229.44 389.07,238.08 374.10,229.44 374.10,212.16 389.07,203.52"/><polygon points="431.74,212.16 431.74,229.44 416.78,238.08 401.81,229.44 401.81,212.16 416.78,203.52"/><polygon points="459.46,212.16 459.46,229.44 444.49,238.08 429.53,229.44 429.53,212.16 444.49,203.52"/><polygon points="487.17,212.16 487.17,229.44 472.21,238.08 457.24,229.44 457.24,212.16 472.21,203.52"/><polygon points="514.88,212.16 514.88,229.44 499.92,238.08 484.95,229.44 484.95,212.16 499.92,203.52"/><polygon points="168.47,236.16 168.47,253.44 153.51,262.08 138.54,253.44 138.54,236.16 153.51,227.52"/><polygon points="196.19,236.16 196.19,253.44 181.22,262.08 166.26,253.44 166.26,236.16 181.22,227.52"/><polygon points="223.90,236.16 223.90,253.44 208.93,262.08 193.97,253.44 193.97,236.16 208.93,227.52"/><polygon points="251.61,236.16 251.61,253.44 236.65,262.08 221.68,253.44 221.68,236.16 236.65,227.52"/><polygon points="279.32,236.16 279.32,253.44 264.36,262.08 249.39,253.44 249.39,236.16 264.36,227.52"/><polygon points="307.04,236.16 307.04,253.44 292.07,262.08 277.11,253.44 277.11,236.16 292.07,227.52"/><polygon points="334.75,236.16 334.75,253.44 319.78,262.08 304.82,253.44 304.82,236.16 319.78,227.52"/><polygon points="362.46,236.16 362.46,253.44 347.50,262.08 332.53,253.44 332.53,236.16 347.50,227.52"/><polygon points="390.18,236.16 390.18,253.44 375.21,262.08 360.25,253.44 360.25,236.16 375.21,227.52"/><polygon points="417.89,236.16 417.89,253.44 402.92,262.08 387.96,253.44 387.96,236.16 402.92,227.52"/><polygon points="445.60,236.16 445.60,253.44 430.64,262.08 415.67,253.44 415.67,236.16 430.64,227.52"/><polygon points="473.31,236.16 473.31,253.44 458.35,262.08 443.38,253.44 443.38,236.16 458.35,227.52"/><polygon points="501.03,236.16 501.03,253.44 486.06,262.08 471.10,253.44 471.10,236.16 486.06,227.52"/><polygon points="528.74,236.16 528.74,253.44 513.77,262.08 498.81,253.44 498.81,236.16 513.77,227.52"/><polygon points="182.33,260.16 182.33,277.44 167.36,286.08 152.40,277.44 152.40,260.16 167.36,251.52"/><polygon points="210.04,260.16 210.04,277.44 195.08,286.08 180.11,277.44 180.11,260.16 195.08,251.52"/><polygon points="237.75,260.16 237.75,277.44 222.79,286.08 207.82,277.44 207.82,260.16 222.79,251.52"/><polygon points="265.47,260.16 265.47,277.44 250.50,286.08 235.54,277.44 235.54,260.16 250.50,251.52"/><polygon points="293.18,260.16 293.18,277.44 278.22,286.08 263.25,277.44 263.25,260.16 278.22,251.52"/><polygon points="320.89,260.16 320.89,277.44 305.93,286.08 290.96,277.44 290.96,260.16 305.93,251.52"/><polygon points="348.61,260.16 348.61,277.44 333.64,286.08 318.68,277.44 318.68,260.16 333.64,251.52"/><polygon points="376.32,260.16 376.32,277.44 361.35,286.08 346.39,277.44 346.39,260.16 361.35,251.52"/><polygon points="404.03,260.16 404.03,277.44 389.07,286.08 374.10,277.44 374.10,260.16 389.07,251.52"/><polygon points="431.74,260.16 431.74,277.44 416.78,286.08 401.81,277.44 401.81,260.16 416.78,251.52"/><polygon points="459.46,260.16 459.46,277.44 444.49,286.08 429.53,277.44 429.53,260.16 444.49,251.52"/><polygon points="487.17,260.16 487.17,277.44 472.21,286.08 457.24,277.44 457.24,260.16 472.21,251.52"/><polygon points="514.88,260.16 514.88,277.44 499.92,286.08 484.95,277.44 484.95,260.16 499.92,251.52"/><polygon points="542.60,260.16 542.60,277.44 527.63,286.08 512.67,277.44 512.67,260.16 527.63,251.52"/><polygon points="196.19,284.16 196.19,301.44 181.22,310.08 166.26,301.44 166.26,284.16 181.22,275.52"/><polygon points="223.90,284.16 223.90,301.44 208.93,310.08 193.97,301.44 193.97,284.16 208.93,275.52"/><polygon points="251.61,284.16 251.61,301.44 236.65,310.08 221.68,301.44 221.68,284.16 236.65,275.52"/><polygon points="279.32,284.16 279.32,301.44 264.36,310.08 249.39,301.44 249.39,284.16 264.36,275.52"/><polygon points="307.04,284.16 307.04,301.44 292.07,310.08 277.11,301.44 277.11,284.16 292.07,275.52"/><polygon points="334.75,284.16 334.75,301.44 319.78,310.08 304.82,301.44 304.82,284.16 319.78,275.52"/><polygon points="362.46,284.16 362.46,301.44 347.50,310.08 332.53,301.44 332.53,284.16 347.50,275.52"/><polygon points="390.18,284.16 390.18,301.44 375.21,310.08 360.25,301.44 360.25,284.16 375.21,275.52"/><polygon points="417.89,284.16 417.89,301.44 402.92,310.08 387.96,301.44 387.96,284.16 402.92,275.52"/><polygon points="445.60,284.16 445.60,301.44 430.64,310.08 415.67,301.44 415.67,284.16 430.64,275.52"/><polygon points="473.31,284.16 473.31,301.44 458.35,310.08 443.38,301.44 443.38,284.16 458.35,275.52"/><polygon points="501.03,284.16 501.03,301.44 486.06,310.08 471.10,301.44 471.10,284.16 486.06,275.52"/><polygon points="528.74,284.16 528.74,301.44 513.77,310.08 498.81,301.44 498.81,284.16 513.77,275.52"/><polygon points="556.45,284.16 556.45,301.44 541.49,310.08 526.52,301.44 526.52,284.16 541.49,275.52"/><polygon points="210.04,308.16 210.04,325.44 195.08,334.08 180.11,325.44 180.11,308.16 195.08,299.52"/><polygon points="237.75,308.16 237.75,325.44 222.79,334.08 207.82,325.44 207.82,308.16 222.79,299.52"/><polygon points="265.47,308.16 265.47,325.44 250.50,334.08 235.54,325.44 235.54,308.16 250.50,299.52"/><polygon points="293.18,308.16 293.18,325.44 278.22,334.08 263.25,325.44 263.25,308.16 278.22,299.52"/><polygon points="320.89,308.16 320.89,325.44 305.93,334.08 290.96,325.44 290.96,308.16 305.93,299.52"/><polygon points="348.61,308.16 348.61,325.44 333.64,334.08 318.68,325.44 318.68,308.16 333.64,299.52"/><polygon points="376.32,308.16 376.32,325.44 361.35,334.08 346.39,325.44 346.39,308.16 361.35,299.52"/><polygon points="404.03,308.16 404.03,325.44 389.07,334.08 374.10,325.44 374.10,308.16 389.07,299.52"/><polygon points="431.74,308.16 431.74,325.44 416.78,334.08 401.81,325.44 401.81,308.16 416.78,299.52"/><polygon points="459.46,308.16 459.46,325.44 444.49,334.08 429.53,325.44 429.53,308.16 444.49,299.52"/><polygon points="487.17,308.16 487.17,325.44 472.21,334.08 457.24,325.44 457.24,308.16 472.21,299.52"/><polygon points="514.88,308.16 514.88,325.44 499.92,334.08 484.95,325.44 484.95,308.16 499.92,299.52"/><polygon points="542.60,308.16 542.60,325.44 527.63,334.08 512.67,325.44 512.67,308.16 527.63,299.52"/><polygon points="570.31,308.16 570.31,325.44 555.34,334.08 540.38,325.44 540.38,308.16 555.34,299.52"/><polygon points="223.90,332.16 223.90,349.44 208.93,358.08 193.97,349.44 193.97,332.16 208.93,323.52"/><polygon points="251.61,332.16 251.61,349.44 236.65,358.08 221.68,349.44 221.68,332.16 236.65,323.52"/><polygon points="279.32,332.16 279.32,349.44 264.36,358.08 249.39,349.44 249.39,332.16 264.36,323.52"/><polygon points="307.04,332.16 307.04,349.44 292.07,358.08 277.11,349.44 277.11,332.16 292.07,323.52"/><polygon points="334.75,332.16 334.75,349.44 319.78,358.08 304.82,349.44 304.82,332.16 319.78,323.52"/><polygon points="362.46,332.16 362.46,349.44 347.50,358.08 332.53,349.44 332.53,332.16 347.50,323.52"/><polygon points="390.18,332.16 390.18,349.44 375.21,358.08 360.25,349.44 360.25,332.16 375.21,323.52"/><polygon points="417.89,332.16 417.89,349.44 402.92,358.08 387.96,349.44 387.96,332.16 402.92,323.52"/><polygon points="445.60,332.16 445.60,349.44 430.64,358.08 415.67,349.44 415.67,332.16 430.64,323.52"/><polygon points="473.31,332.16 473.31,349.44 458.35,358.08 443.38,349.44 443.38,332.16 458.35,323.52"/><polygon points="501.03,332.16 501.03,349.44 486.06,358.08 471.10,349.44 471.10,332.16 486.06,323.52"/><polygon points="528.74,332.16 528.74,349.44 513.77,358.08 498.81,349.44 498.81,332.16 513.77,323.52"/><polygon points="556.45,332.16 556.45,349.44 541.49,358.08 526.52,349.44 526.52,332.16 541.49,323.52"/><polygon points="584.16,332.16 584.16,349.44 569.20,358.08 554.23,349.44 554.23,332.16 569.20,323.52"/></g><g fill="none" stroke="#6b4226" stroke-width="14" stroke-linecap="round" stroke-linejoin="round"><line x1="28.80" y1="45.60" x2="14.25" y2="37.20"/><line x1="14.25" y1="37.20" x2="14.25" y2="20.40"/><line x1="14.25" y1="20.40" x2="28.80" y2="12.00"/><line x1="28.80" y1="12.00" x2="43.35" y2="20.40"/><line x1="41.96" y1="20.40" x2="56.51" y2="12.00"/><line x1="56.51" y1="12.00" x2="71.06" y2="20.40"/><line x1="69.68" y1="20.40" x2="84.23" y2="12.00"/><line x1="84.23" y1="12.00" x2="98.77" y2="20.40"/><line x1="97.39" y1="20.40" x2="111.94" y2="12.00"/><line x1="111.94" y1="12.00" x2="126.49" y2="20.40"/><line x1="125.10" y1="20.40" x2="139.65" y2="12.00"/><line x1="139.65" y1="12.00" x2="154.20" y2="20.40"/><line x1="152.81" y1="20.40" x2="167.36" y2="12.00"/><line x1="167.36" y1="12.00" x2="181.91" y2="20.40"/><line x1="180.53" y1="20.40" x2="195.08" y2="12.00"/><line x1="195.08" y1="12.00" x2="209.63" y2="20.40"/><line x1="208.24" y1="20.40" x2="222.79" y2="12.00"/><line x1="222.79" y1="12.00" x2="237.34" y2="20.40"/><line x1="235.95" y1="20.40" x2="250.50" y2="12.00"/><line x1="250.50" y1="12.00" x2="265.05" y2="20.40"/><line x1="263.67" y1="20.40" x2="278.22" y2="12.00"/><line x1="278.22" y1="12.00" x2="292.76" y2="20.40"/><line x1="291.38" y1="20.40" x2="305.93" y2="12.00"/><line x1="305.93" y1="12.00" x2="320.48" y2="20.40"/><line x1="319.09" y1="20.40" x2="333.64" y2="12.00"/><line x1="333.64" y1="12.00" x2="348.19" y2="20.40"/><line x1="346.80" y1="20.40" x2="361.35" y2="12.00"/><line x1="361.35" y1="12.00" x2="375.90" y2="20.40"/><line x1="403.62" y1="20.40" x2="403.62" y2="37.20"/><line x1="374.52" y1="20.40" x2="389.07" y2="12.00"/><line x1="389.07" y1="12.00" x2="403.62" y2="20.40"/><line x1="42.66" y1="69.60" x2="28.11" y2="61.20"/><line x1="28.11" y1="61.20" x2="28.11" y2="44.40"/><line x1="417.47" y1="44.40" x2="417.47" y2="61.20"/><line x1="402.92" y1="36.00" x2="417.47" y2="44.40"/><line x1="56.51" y1="93.60" x2="41.96" y2="85.20"/><line x1="41.96" y1="85.20" x2="41.96" y2="68.40"/><line x1="431.33" y1="68.40" x2="431.33" y2="85.20"/><line x1="416.78" y1="60.00" x2="431.33" y2="68.40"/><line x1="70.37" y1="117.60" x2="55.82" y2="109.20"/><line x1="55.82" y1="109.20" x2="55.82" y2="92.40"/><line x1="445.19" y1="92.40" x2="445.19" y2="109.20"/><line x1="430.64" y1="84.00" x2="445.19" y2="92.40"/><line x1="84.23" y1="141.60" x2="69.68" y2="133.20"/><line x1="69.68" y1="133.20" x2="69.68" y2="116.40"/><line x1="459.04" y1="116.40" x2="459.04" y2="133.20"/><line x1="444.49" y1="108.00" x2="459.04" y2="116.40"/><line x1="98.08" y1="165.60" x2="83.53" y2="157.20"/><line x1="83.53" y1="157.20" x2="83.53" y2="140.40"/><line x1="472.90" y1="140.40" x2="472.90" y2="157.20"/><line x1="458.35" y1="132.00" x2="472.90" y2="140.40"/><line x1="111.94" y1="189.60" x2="97.39" y2="181.20"/><line x1="97.39" y1="181.20" x2="97.39" y2="164.40"/><line x1="486.75" y1="164.40" x2="486.75" y2="181.20"/><line x1="472.21" y1="156.00" x2="486.75" y2="164.40"/><line x1="125.79" y1="213.60" x2="111.25" y2="205.20"/><line x1="111.25" y1="205.20" x2="111.25" y2="188.40"/><line x1="500.61" y1="188.40" x2="500.61" y2="205.20"/><line x1="486.06" y1="180.00" x2="500.61" y2="188.40"/><line x1="139.65" y1="237.60" x2="125.10" y2="229.20"/><line x1="125.10" y1="229.20" x2="125.10" y2="212.40"/><line x1="514.47" y1="212.40" x2="514.47" y2="229.20"/><line x1="499.92" y1="204.00" x2="514.47" y2="212.40"/><line x1="153.51" y1="261.60" x2="138.96" y2="253.20"/><line x1="138.96" y1="253.20" x2="138.96" y2="236.40"/><line x1="528.32" y1="236.40" x2="528.32" y2="253.20"/><line x1="513.77" y1="228.00" x2="528.32" y2="236.40"/><line x1="167.36" y1="285.60" x2="152.81" y2="277.20"/><line x1="152.81" y1="277.20" x2="152.81" y2="260.40"/><line x1="542.18" y1="260.40" x2="542.18" y2="277.20"/><line x1="527.63" y1="252.00" x2="542.18" y2="260.40"/><line x1="181.22" y1="309.60" x2="166.67" y2="301.20"/><line x1="166.67" y1="301.20" x2="166.67" y2="284.40"/><line x1="556.04" y1="284.40" x2="556.04" y2="301.20"/><line x1="541.49" y1="276.00" x2="556.04" y2="284.40"/><line x1="195.08" y1="333.60" x2="180.53" y2="325.20"/><line x1="180.53" y1="325.20" x2="180.53" y2="308.40"/><line x1="569.89" y1="308.40" x2="569.89" y2="325.20"/><line x1="555.34" y1="300.00" x2="569.89" y2="308.40"/><line x1="223.48" y1="349.20" x2="208.93" y2="357.60"/><line x1="208.93" y1="357.60" x2="194.38" y2="349.20"/><line x1="194.38" y1="349.20" x2="194.38" y2="332.40"/><line x1="251.20" y1="349.20" x2="236.65" y2="357.60"/><line x1="236.65" y1="357.60" x2="222.10" y2="349.20"/><line x1="278.91" y1="349.20" x2="264.36" y2="357.60"/><line x1="264.36" y1="357.60" x2="249.81" y2="349.20"/><line x1="306.62" y1="349.20" x2="292.07" y2="357.60"/><line x1="292.07" y1="357.60" x2="277.52" y2="349.20"/><line x1="334.33" y1="349.20" x2="319.78" y2="357.60"/><line x1="319.78" y1="357.60" x2="305.24" y2="349.20"/><line x1="362.05" y1="349.20" x2="347.50" y2="357.60"/><line x1="347.50" y1="357.60" x2="332.95" y2="349.20"/><line x1="389.76" y1="349.20" x2="375.21" y2="357.60"/><line x1="375.21" y1="357.60" x2="360.66" y2="349.20"/><line x1="417.47" y1="349.20" x2="402.92" y2="357.60"/><line x1="402.92" y1="357.60" x2="388.37" y2="349.20"/><line x1="445.19" y1="349.20" x2="430.64" y2="357.60"/><line x1="430.64" y1="357.60" x2="416.09" y2="349.20"/><line x1="472.90" y1="349.20" x2="458.35" y2="357.60"/><line x1="458.35" y1="357.60" x2="443.80" y2="349.20"/><line x1="500.61" y1="349.20" x2="486.06" y2="357.60"/><line x1="486.06" y1="357.60" x2="471.51" y2="349.20"/><line x1="528.32" y1="349.20" x2="513.77" y2="357.60"/><line x1="513.77" y1="357.60" x2="499.22" y2="349.20"/><line x1="556.04" y1="349.20" x2="541.49" y2="357.60"/><line x1="541.49" y1="357.60" x2="526.94" y2="349.20"/><line x1="583.75" y1="332.40" x2="583.75" y2="349.20"/><line x1="583.75" y1="349.20" x2="569.20" y2="357.60"/><line x1="569.20" y1="357.60" x2="554.65" y2="349.20"/><line x1="569.20" y1="324.00" x2="583.75" y2="332.40"/></g><polygon points="41.96,21.20 41.96,36.40 28.80,44.00 15.64,36.40 15.64,21.20 28.80,13.60" fill="#e8e8e8" stroke="rgba(0,0,0,0.3)" stroke-width="1" data-sq="0,0" class="board-cell"/><polygon points="69.68,21.20 69.68,36.40 56.51,44.00 43.35,36.40 43.35,21.20 56.51,13.60" fill="#c0c0c0" stroke="rgba(0,0,0,0.3)" stroke-width="1" data-sq="1,0" class="board-cell"/><polygon points="97.39,21.20 97.39,36.40 84.23,44.00 71.06,36.40 71.06,21.20 84.23,13.60" fill="#d8d8d8" stroke="rgba(0,0,0,0.3)" stroke-width="1" data-sq="2,0" class="board-cell"/><polygon points="125.10,21.20 125.10,36.40 111.94,44.00 98.77,36.40 98.77,21.20 111.94,13.60" fill="#e8e8e8" stroke="rgba(0,0,0,0.3)" stroke-width="1" data-sq="3,0" class="board-cell"/><polygon points="152.81,21.20 152.81,36.40 139.65,44.00 126.49,36.40 126.49,21.20 139.65,13.60" fill="#c0c0c0" stroke="rgba(0,0,0,0.3)" stroke-width="1" data-sq="4,0" class="board-cell"/><polygon points="180.53,21.20 180.53,36.40 167.36,44.00 154.20,36.40 154.20,21.20 167.36,13.60" fill="#d8d8d8" stroke="rgba(0,0,0,0.3)" stroke-width="1" data-sq="5,0" class="board-cell"/><polygon points="208.24,21.20 208.24,36.40 195.08,44.00 181.91,36.40 181.91,21.20 195.08,13.60" fill="#e8e8e8" stroke="rgba(0,0,0,0.3)" stroke-width="1" data-sq="6,0" class="board-cell"/><polygon points="235.95,21.20 235.95,36.40 222.79,44.00 209.63,36.40 209.63,21.20 222.79,13.60" fill="#c0c0c0" stroke="rgba(0,0,0,0.3)" stroke-width="1" data-sq="7,0" class="board-cell"/><polygon points="263.67,21.20 263.67,36.40 250.50,44.00 237.34,36.40 237.34,21.20 250.50,13.60" fill="#d8d8d8" stroke="rgba(0,0,0,0.3)" stroke-width="1" data-sq="8,0" class="board-cell"/><polygon points="291.38,21.20 291.38,36.40 278.22,44.00 265.05,36.40 265.05,21.20 278.22,13.60" fill="#e8e8e8" stroke="rgba(0,0,0,0.3)" stroke-width="1" data-sq="9,0" class="board-cell"/><polygon points="319.09,21.20 319.09,36.40 305.93,44.00 292.76,36.40 292.76,21.20 305.93,13.60" fill="#c0c0c0" stroke="rgba(0,0,0,0.3)" stroke-width="1" data-sq="10,0" class="board-cell"/><polygon points="346.80,21.20 346.80,36.40 333.64,44.00 320.48,36.40 320.48,21.20 333.64,13.60" fill="#d8d8d8" stroke="rgba(0,0,0,0.3)" stroke-width="1" data-sq="11,0" class="board-cell"/><polygon points="374.52,21.20 374.52,36.40 361.35,44.00 348.19,36.40 348.19,21.20 361.35,13.60" fill="#e8e8e8" stroke="rgba(0,0,0,0.3)" stroke-width="1" data-sq="12,0" class="board-cell"/><polygon points="402.23,21.20 402.23,36.40 389.07,44.00 375.90,36.40 375.90,21.20 389.07,13.60" fill="#c0c0c0" stroke="rgba(0,0,0,0.3)" stroke-width="1" data-sq="13,0" class="board-cell"/><polygon points="55.82,45.20 55.82,60.40 42.66,68.00 29.49,60.40 29.49,45.20 42.66,37.60" fill="#c0c0c0" stroke="rgba(0,0,0,0.3)" stroke-width="1" data-sq="0,1" class="board-cell"/><polygon points="83.53,45.20 83.53,60.40 70.37,68.00 57.21,60.40 57.21,45.20 70.37,37.60" fill="#d8d8d8" stroke="rgba(0,0,0,0.3)" stroke-width="1" data-sq="1,1" class="board-cell"/><polygon points="111.25,45.20 111.25,60.40 98.08,68.00 84.92,60.40 84.92,45.20 98.08,37.60" fill="#e8e8e8" stroke="rgba(0,0,0,0.3)" stroke-width="1" data-sq="2,1" class="board-cell"/><polygon points="138.96,45.20 138.96,60.40 125.79,68.00 112.63,60.40 112.63,45.20 125.79,37.60" fill="#c0c0c0" stroke="rgba(0,0,0,0.3)" stroke-width="1" data-sq="3,1" class="board-cell"/><polygon points="166.67,45.20 166.67,60.40 153.51,68.00 140.34,60.40 140.34,45.20 153.51,37.60" fill="#d8d8d8" stroke="rgba(0,0,0,0.3)" stroke-width="1" data-sq="4,1" class="board-cell"/><polygon points="194.38,45.20 194.38,60.40 181.22,68.00 168.06,60.40 168.06,45.20 181.22,37.60" fill="#e8e8e8" stroke="rgba(0,0,0,0.3)" stroke-width="1" data-sq="5,1" class="board-cell"/><polygon points="222.10,45.20 222.10,60.40 208.93,68.00 195.77,60.40 195.77,45.20 208.93,37.60" fill="#c0c0c0" stroke="rgba(0,0,0,0.3)" stroke-width="1" data-sq="6,1" class="board-cell"/><polygon points="249.81,45.20 249.81,60.40 236.65,68.00 223.48,60.40 223.48,45.20 236.65,37.60" fill="#d8d8d8" stroke="rgba(0,0,0,0.3)" stroke-width="1" data-sq="7,1" class="board-cell"/><polygon points="277.52,45.20 277.52,60.40 264.36,68.00 251.20,60.40 251.20,45.20 264.36,37.60" fill="#e8e8e8" stroke="rgba(0,0,0,0.3)" stroke-width="1" data-sq="8,1" class="board-cell"/><polygon points="305.24,45.20 305.24,60.40 292.07,68.00 278.91,60.40 278.91,45.20 292.07,37.60" fill="#c0c0c0" stroke="rgba(0,0,0,0.3)" stroke-width="1" data-sq="9,1" class="board-cell"/><polygon points="332.95,45.20 332.95,60.40 319.78,68.00 306.62,60.40 306.62,45.20 319.78,37.60" fill="#d8d8d8" stroke="rgba(0,0,0,0.3)" stroke-width="1" data-sq="10,1" class="board-cell"/><polygon points="360.66,45.20 360.66,60.40 347.50,68.00 334.33,60.40 334.33,45.20 347.50,37.60" fill="#e8e8e8" stroke="rgba(0,0,0,0.3)" stroke-width="1" data-sq="11,1" class="board-cell"/><polygon points="388.37,45.20 388.37,60.40 375.21,68.00 362.05,60.40 362.05,45.20 375.21,37.60" fill="#c0c0c0" stroke="rgba(0,0,0,0.3)" stroke-width="1" data-sq="12,1" class="board-cell"/><polygon points="416.09,45.20 416.09,60.40 402.92,68.00 389.76,60.40 389.76,45.20 402.92,37.60" fill="#d8d8d8" stroke="rgba(0,0,0,0.3)" stroke-width="1" data-sq="13,1" class="board-cell"/><polygon points="69.68,69.20 69.68,84.40 56.51,92.00 43.35,84.40 43.35,69.20 56.51,61.60" fill="#d8d8d8" stroke="rgba(0,0,0,0.3)" stroke-width="1" data-sq="0,2" class="board-cell"/><polygon points="97.39,69.20 97.39,84.40 84.23,92.00 71.06,84.40 71.06,69.20 84.23,61.60" fill="#e8e8e8" stroke="rgba(0,0,0,0.3)" stroke-width="1" data-sq="1,2" class="board-cell"/><polygon points="125.10,69.20 125.10,84.40 111.94,92.00 98.77,84.40 98.77,69.20 111.94,61.60" fill="#c0c0c0" stroke="rgba(0,0,0,0.3)" stroke-width="1" data-sq="2,2" class="board-cell"/><polygon points="152.81,69.20 152.81,84.40 139.65,92.00 126.49,84.40 126.49,69.20 139.65,61.60" fill="#d8d8d8" stroke="rgba(0,0,0,0.3)" stroke-width="1" data-sq="3,2" class="board-cell"/><polygon points="180.53,69.20 180.53,84.40 167.36,92.00 154.20,84.40 154.20,69.20 167.36,61.60" fill="#e8e8e8" stroke="rgba(0,0,0,0.3)" stroke-width="1" data-sq="4,2" class="board-cell"/><polygon points="208.24,69.20 208.24,84.40 195.08,92.00 181.91,84.40 181.91,69.20 195.08,61.60" fill="#c0c0c0" stroke="rgba(0,0,0,0.3)" stroke-width="1" data-sq="5,2" class="board-cell"/><polygon points="235.95,69.20 235.95,84.40 222.79,92.00 209.63,84.40 209.63,69.20 222.79,61.60" fill="#d8d8d8" stroke="rgba(0,0,0,0.3)" stroke-width="1" data-sq="6,2" class="board-cell"/><polygon points="263.67,69.20 263.67,84.40 250.50,92.00 237.34,84.40 237.34,69.20 250.50,61.60" fill="#e8e8e8" stroke="rgba(0,0,0,0.3)" stroke-width="1" data-sq="7,2" class="board-cell"/><polygon points="291.38,69.20 291.38,84.40 278.22,92.00 265.05,84.40 265.05,69.20 278.22,61.60" fill="#c0c0c0" stroke="rgba(0,0,0,0.3)" stroke-width="1" data-sq="8,2" class="board-cell"/><polygon points="319.09,69.20 319.09,84.40 305.93,92.00 292.76,84.40 292.76,69.20 305.93,61.60" fill="#d8d8d8" stroke="rgba(0,0,0,0.3)" stroke-width="1" data-sq="9,2" class="board-cell"/><polygon points="346.80,69.20 346.80,84.40 333.64,92.00 320.48,84.40 320.48,69.20 333.64,61.60" fill="#e8e8e8" stroke="rgba(0,0,0,0.3)" stroke-width="1" data-sq="10,2" class="board-cell"/><polygon points="374.52,69.20 374.52,84.40 361.35,92.00 348.19,84.40 348.19,69.20 361.35,61.60" fill="#c0c0c0" stroke="rgba(0,0,0,0.3)" stroke-width="1" data-sq="11,2" class="board-cell"/><polygon points="402.23,69.20 402.23,84.40 389.07,92.00 375.90,84.40 375.90,69.20 389.07,61.60" fill="#d8d8d8" stroke="rgba(0,0,0,0.3)" stroke-width="1" data-sq="12,2" class="board-cell"/><polygon points="429.94,69.20 429.94,84.40 416.78,92.00 403.62,84.40 403.62,69.20 416.78,61.60" fill="#e8e8e8" stroke="rgba(0,0,0,0.3)" stroke-width="1" data-sq="13,2" class="board-cell"/><polygon points="83.53,93.20 83.53,108.40 70.37,116.00 57.21,108.40 57.21,93.20 70.37,85.60" fill="#e8e8e8" stroke="rgba(0,0,0,0.3)" stroke-width="1" data-sq="0,3" class="board-cell"/><polygon points="111.25,93.20 111.25,108.40 98.08,116.00 84.92,108.40 84.92,93.20 98.08,85.60" fill="#c0c0c0" stroke="rgba(0,0,0,0.3)" stroke-width="1" data-sq="1,3" class="board-cell"/><polygon points="138.96,93.20 138.96,108.40 125.79,116.00 112.63,108.40 112.63,93.20 125.79,85.60" fill="#d8d8d8" stroke="rgba(0,0,0,0.3)" stroke-width="1" data-sq="2,3" class="board-cell"/><polygon points="166.67,93.20 166.67,108.40 153.51,116.00 140.34,108.40 140.34,93.20 153.51,85.60" fill="#e8e8e8" stroke="rgba(0,0,0,0.3)" stroke-width="1" data-sq="3,3" class="board-cell"/><polygon points="194.38,93.20 194.38,108.40 181.22,116.00 168.06,108.40 168.06,93.20 181.22,85.60" fill="#c0c0c0" stroke="rgba(0,0,0,0.3)" stroke-width="1" data-sq="4,3" class="board-cell"/><polygon points="222.10,93.20 222.10,108.40 208.93,116.00 195.77,108.40 195.77,93.20 208.93,85.60" fill="#d8d8d8" stroke="rgba(0,0,0,0.3)" stroke-width="1" data-sq="5,3" class="board-cell"/><polygon points="249.81,93.20 249.81,108.40 236.65,116.00 223.48,108.40 223.48,93.20 236.65,85.60" fill="#e8e8e8" stroke="rgba(0,0,0,0.3)" stroke-width="1" data-sq="6,3" class="board-cell"/><polygon points="277.52,93.20 277.52,108.40 264.36,116.00 251.20,108.40 251.20,93.20 264.36,85.60" fill="#c0c0c0" stroke="rgba(0,0,0,0.3)" stroke-width="1" data-sq="7,3" class="board-cell"/><polygon points="305.24,93.20 305.24,108.40 292.07,116.00 278.91,108.40 278.91,93.20 292.07,85.60" fill="#d8d8d8" stroke="rgba(0,0,0,0.3)" stroke-width="1" data-sq="8,3" class="board-cell"/><polygon points="332.95,93.20 332.95,108.40 319.78,116.00 306.62,108.40 306.62,93.20 319.78,85.60" fill="#e8e8e8" stroke="rgba(0,0,0,0.3)" stroke-width="1" data-sq="9,3" class="board-cell"/><polygon points="360.66,93.20 360.66,108.40 347.50,116.00 334.33,108.40 334.33,93.20 347.50,85.60" fill="#c0c0c0" stroke="rgba(0,0,0,0.3)" stroke-width="1" data-sq="10,3" class="board-cell"/><polygon points="388.37,93.20 388.37,108.40 375.21,116.00 362.05,108.40 362.05,93.20 375.21,85.60" fill="#d8d8d8" stroke="rgba(0,0,0,0.3)" stroke-width="1" data-sq="11,3" class="board-cell"/><polygon points="416.09,93.20 416.09,108.40 402.92,116.00 389.76,108.40 389.76,93.20 402.92,85.60" fill="#e8e8e8" stroke="rgba(0,0,0,0.3)" stroke-width="1" data-sq="12,3" class="board-cell"/><polygon points="443.80,93.20 443.80,108.40 430.64,116.00 417.47,108.40 417.47,93.20 430.64,85.60" fill="#c0c0c0" stroke="rgba(0,0,0,0.3)" stroke-width="1" data-sq="13,3" class="board-cell"/><polygon points="97.39,117.20 97.39,132.40 84.23,140.00 71.06,132.40 71.06,117.20 84.23,109.60" fill="#c0c0c0" stroke="rgba(0,0,0,0.3)" stroke-width="1" data-sq="0,4" class="board-cell"/><polygon points="125.10,117.20 125.10,132.40 111.94,140.00 98.77,132.40 98.77,117.20 111.94,109.60" fill="#d8d8d8" stroke="rgba(0,0,0,0.3)" stroke-width="1" data-sq="1,4" class="board-cell"/><polygon points="152.81,117.20 152.81,132.40 139.65,140.00 126.49,132.40 126.49,117.20 139.65,109.60" fill="#e8e8e8" stroke="rgba(0,0,0,0.3)" stroke-width="1" data-sq="2,4" class="board-cell"/><polygon points="180.53,117.20 180.53,132.40 167.36,140.00 154.20,132.40 154.20,117.20 167.36,109.60" fill="#c0c0c0" stroke="rgba(0,0,0,0.3)" stroke-width="1" data-sq="3,4" class="board-cell"/><polygon points="208.24,117.20 208.24,132.40 195.08,140.00 181.91,132.40 181.91,117.20 195.08,109.60" fill="#d8d8d8" stroke="rgba(0,0,0,0.3)" stroke-width="1" data-sq="4,4" class="board-cell"/><polygon points="235.95,117.20 235.95,132.40 222.79,140.00 209.63,132.40 209.63,117.20 222.79,109.60" fill="#e8e8e8" stroke="rgba(0,0,0,0.3)" stroke-width="1" data-sq="5,4" class="board-cell"/><polygon points="263.67,117.20 263.67,132.40 250.50,140.00 237.34,132.40 237.34,117.20 250.50,109.60" fill="#c0c0c0" stroke="rgba(0,0,0,0.3)" stroke-width="1" data-sq="6,4" class="board-cell"/><polygon points="291.38,117.20 291.38,132.40 278.22,140.00 265.05,132.40 265.05,117.20 278.22,109.60" fill="#d8d8d8" stroke="rgba(0,0,0,0.3)" stroke-width="1" data-sq="7,4" class="board-cell"/><polygon points="319.09,117.20 319.09,132.40 305.93,140.00 292.76,132.40 292.76,117.20 305.93,109.60" fill="#e8e8e8" stroke="rgba(0,0,0,0.3)" stroke-width="1" data-sq="8,4" class="board-cell"/><polygon points="346.80,117.20 346.80,132.40 333.64,140.00 320.48,132.40 320.48,117.20 333.64,109.60" fill="#c0c0c0" stroke="rgba(0,0,0,0.3)" stroke-width="1" data-sq="9,4" class="board-cell"/><polygon points="374.52,117.20 374.52,132.40 361.35,140.00 348.19,132.40 348.19,117.20 361.35,109.60" fill="#d8d8d8" stroke="rgba(0,0,0,0.3)" stroke-width="1" data-sq="10,4" class="board-cell"/><polygon points="402.23,117.20 402.23,132.40 389.07,140.00 375.90,132.40 375.90,117.20 389.07,109.60" fill="#e8e8e8" stroke="rgba(0,0,0,0.3)" stroke-width="1" data-sq="11,4" class="board-cell"/><polygon points="429.94,117.20 429.94,132.40 416.78,140.00 403.62,132.40 403.62,117.20 416.78,109.60" fill="#c0c0c0" stroke="rgba(0,0,0,0.3)" stroke-width="1" data-sq="12,4" class="board-cell"/><polygon points="457.66,117.20 457.66,132.40 444.49,140.00 431.33,132.40 431.33,117.20 444.49,109.60" fill="#d8d8d8" stroke="rgba(0,0,0,0.3)" stroke-width="1" data-sq="13,4" class="board-cell"/><polygon points="111.25,141.20 111.25,156.40 98.08,164.00 84.92,156.40 84.92,141.20 98.08,133.60" fill="#d8d8d8" stroke="rgba(0,0,0,0.3)" stroke-width="1" data-sq="0,5" class="board-cell"/><polygon points="138.96,141.20 138.96,156.40 125.79,164.00 112.63,156.40 112.63,141.20 125.79,133.60" fill="#e8e8e8" stroke="rgba(0,0,0,0.3)" stroke-width="1" data-sq="1,5" class="board-cell"/><polygon points="166.67,141.20 166.67,156.40 153.51,164.00 140.34,156.40 140.34,141.20 153.51,133.60" fill="#c0c0c0" stroke="rgba(0,0,0,0.3)" stroke-width="1" data-sq="2,5" class="board-cell"/><polygon points="194.38,141.20 194.38,156.40 181.22,164.00 168.06,156.40 168.06,141.20 181.22,133.60" fill="#d8d8d8" stroke="rgba(0,0,0,0.3)" stroke-width="1" data-sq="3,5" class="board-cell"/><polygon points="222.10,141.20 222.10,156.40 208.93,164.00 195.77,156.40 195.77,141.20 208.93,133.60" fill="#e8e8e8" stroke="rgba(0,0,0,0.3)" stroke-width="1" data-sq="4,5" class="board-cell"/><polygon points="249.81,141.20 249.81,156.40 236.65,164.00 223.48,156.40 223.48,141.20 236.65,133.60" fill="#c0c0c0" stroke="rgba(0,0,0,0.3)" stroke-width="1" data-sq="5,5" class="board-cell"/><polygon points="277.52,141.20 277.52,156.40 264.36,164.00 251.20,156.40 251.20,141.20 264.36,133.60" fill="#d8d8d8" stroke="rgba(0,0,0,0.3)" stroke-width="1" data-sq="6,5" class="board-cell"/><polygon points="305.24,141.20 305.24,156.40 292.07,164.00 278.91,156.40 278.91,141.20 292.07,133.60" fill="#e8e8e8" stroke="rgba(0,0,0,0.3)" stroke-width="1" data-sq="7,5" class="board-cell"/><polygon points="332.95,141.20 332.95,156.40 319.78,164.00 306.62,156.40 306.62,141.20 319.78,133.60" fill="#c0c0c0" stroke="rgba(0,0,0,0.3)" stroke-width="1" data-sq="8,5" class="board-cell"/><polygon points="360.66,141.20 360.66,156.40 347.50,164.00 334.33,156.40 334.33,141.20 347.50,133.60" fill="#d8d8d8" stroke="rgba(0,0,0,0.3)" stroke-width="1" data-sq="9,5" class="board-cell"/><polygon points="388.37,141.20 388.37,156.40 375.21,164.00 362.05,156.40 362.05,141.20 375.21,133.60" fill="#e8e8e8" stroke="rgba(0,0,0,0.3)" stroke-width="1" data-sq="10,5" class="board-cell"/><polygon points="416.09,141.20 416.09,156.40 402.92,164.00 389.76,156.40 389.76,141.20 402.92,133.60" fill="#c0c0c0" stroke="rgba(0,0,0,0.3)" stroke-width="1" data-sq="11,5" class="board-cell"/><polygon points="443.80,141.20 443.80,156.40 430.64,164.00 417.47,156.40 417.47,141.20 430.64,133.60" fill="#d8d8d8" stroke="rgba(0,0,0,0.3)" stroke-width="1" data-sq="12,5" class="board-cell"/><polygon points="471.51,141.20 471.51,156.40 458.35,164.00 445.19,156.40 445.19,141.20 458.35,133.60" fill="#e8e8e8" stroke="rgba(0,0,0,0.3)" stroke-width="1" data-sq="13,5" class="board-cell"/><polygon points="125.10,165.20 125.10,180.40 111.94,188.00 98.77,180.40 98.77,165.20 111.94,157.60" fill="#e8e8e8" stroke="rgba(0,0,0,0.3)" stroke-width="1" data-sq="0,6" class="board-cell"/><polygon points="152.81,165.20 152.81,180.40 139.65,188.00 126.49,180.40 126.49,165.20 139.65,157.60" fill="#c0c0c0" stroke="rgba(0,0,0,0.3)" stroke-width="1" data-sq="1,6" class="board-cell"/><polygon points="180.53,165.20 180.53,180.40 167.36,188.00 154.20,180.40 154.20,165.20 167.36,157.60" fill="#d8d8d8" stroke="rgba(0,0,0,0.3)" stroke-width="1" data-sq="2,6" class="board-cell"/><polygon points="208.24,165.20 208.24,180.40 195.08,188.00 181.91,180.40 181.91,165.20 195.08,157.60" fill="#e8e8e8" stroke="rgba(0,0,0,0.3)" stroke-width="1" data-sq="3,6" class="board-cell"/><polygon points="235.95,165.20 235.95,180.40 222.79,188.00 209.63,180.40 209.63,165.20 222.79,157.60" fill="#c0c0c0" stroke="rgba(0,0,0,0.3)" stroke-width="1" data-sq="4,6" class="board-cell"/><polygon points="263.67,165.20 263.67,180.40 250.50,188.00 237.34,180.40 237.34,165.20 250.50,157.60" fill="#d8d8d8" stroke="rgba(0,0,0,0.3)" stroke-width="1" data-sq="5,6" class="board-cell"/><polygon points="291.38,165.20 291.38,180.40 278.22,188.00 265.05,180.40 265.05,165.20 278.22,157.60" fill="#e8e8e8" stroke="rgba(0,0,0,0.3)" stroke-width="1" data-sq="6,6" class="board-cell"/><polygon points="319.09,165.20 319.09,180.40 305.93,188.00 292.76,180.40 292.76,165.20 305.93,157.60" fill="#c0c0c0" stroke="rgba(0,0,0,0.3)" stroke-width="1" data-sq="7,6" class="board-cell"/><polygon points="346.80,165.20 346.80,180.40 333.64,188.00 320.48,180.40 320.48,165.20 333.64,157.60" fill="#d8d8d8" stroke="rgba(0,0,0,0.3)" stroke-width="1" data-sq="8,6" class="board-cell"/><polygon points="374.52,165.20 374.52,180.40 361.35,188.00 348.19,180.40 348.19,165.20 361.35,157.60" fill="#e8e8e8" stroke="rgba(0,0,0,0.3)" stroke-width="1" data-sq="9,6" class="board-cell"/><polygon points="402.23,165.20 402.23,180.40 389.07,188.00 375.90,180.40 375.90,165.20 389.07,157.60" fill="#c0c0c0" stroke="rgba(0,0,0,0.3)" stroke-width="1" data-sq="10,6" class="board-cell"/><polygon points="429.94,165.20 429.94,180.40 416.78,188.00 403.62,180.40 403.62,165.20 416.78,157.60" fill="#d8d8d8" stroke="rgba(0,0,0,0.3)" stroke-width="1" data-sq="11,6" class="board-cell"/><polygon points="457.66,165.20 457.66,180.40 444.49,188.00 431.33,180.40 431.33,165.20 444.49,157.60" fill="#e8e8e8" stroke="rgba(0,0,0,0.3)" stroke-width="1" data-sq="12,6" class="board-cell"/><polygon points="485.37,165.20 485.37,180.40 472.21,188.00 459.04,180.40 459.04,165.20 472.21,157.60" fill="#c0c0c0" stroke="rgba(0,0,0,0.3)" stroke-width="1" data-sq="13,6" class="board-cell"/><polygon points="138.96,189.20 138.96,204.40 125.79,212.00 112.63,204.40 112.63,189.20 125.79,181.60" fill="#c0c0c0" stroke="rgba(0,0,0,0.3)" stroke-width="1" data-sq="0,7" class="board-cell"/><polygon points="166.67,189.20 166.67,204.40 153.51,212.00 140.34,204.40 140.34,189.20 153.51,181.60" fill="#d8d8d8" stroke="rgba(0,0,0,0.3)" stroke-width="1" data-sq="1,7" class="board-cell"/><polygon points="194.38,189.20 194.38,204.40 181.22,212.00 168.06,204.40 168.06,189.20 181.22,181.60" fill="#e8e8e8" stroke="rgba(0,0,0,0.3)" stroke-width="1" data-sq="2,7" class="board-cell"/><polygon points="222.10,189.20 222.10,204.40 208.93,212.00 195.77,204.40 195.77,189.20 208.93,181.60" fill="#c0c0c0" stroke="rgba(0,0,0,0.3)" stroke-width="1" data-sq="3,7" class="board-cell"/><polygon points="249.81,189.20 249.81,204.40 236.65,212.00 223.48,204.40 223.48,189.20 236.65,181.60" fill="#d8d8d8" stroke="rgba(0,0,0,0.3)" stroke-width="1" data-sq="4,7" class="board-cell"/><polygon points="277.52,189.20 277.52,204.40 264.36,212.00 251.20,204.40 251.20,189.20 264.36,181.60" fill="#e8e8e8" stroke="rgba(0,0,0,0.3)" stroke-width="1" data-sq="5,7" class="board-cell"/><polygon points="305.24,189.20 305.24,204.40 292.07,212.00 278.91,204.40 278.91,189.20 292.07,181.60" fill="#c0c0c0" stroke="rgba(0,0,0,0.3)" stroke-width="1" data-sq="6,7" class="board-cell"/><polygon points="332.95,189.20 332.95,204.40 319.78,212.00 306.62,204.40 306.62,189.20 319.78,181.60" fill="#d8d8d8" stroke="rgba(0,0,0,0.3)" stroke-width="1" data-sq="7,7" class="board-cell"/><polygon points="360.66,189.20 360.66,204.40 347.50,212.00 334.33,204.40 334.33,189.20 347.50,181.60" fill="#e8e8e8" stroke="rgba(0,0,0,0.3)" stroke-width="1" data-sq="8,7" class="board-cell"/><polygon points="388.37,189.20 388.37,204.40 375.21,212.00 362.05,204.40 362.05,189.20 375.21,181.60" fill="#c0c0c0" stroke="rgba(0,0,0,0.3)" stroke-width="1" data-sq="9,7" class="board-cell"/><polygon points="416.09,189.20 416.09,204.40 402.92,212.00 389.76,204.40 389.76,189.20 402.92,181.60" fill="#d8d8d8" stroke="rgba(0,0,0,0.3)" stroke-width="1" data-sq="10,7" class="board-cell"/><polygon points="443.80,189.20 443.80,204.40 430.64,212.00 417.47,204.40 417.47,189.20 430.64,181.60" fill="#e8e8e8" stroke="rgba(0,0,0,0.3)" stroke-width="1" data-sq="11,7" class="board-cell"/><polygon points="471.51,189.20 471.51,204.40 458.35,212.00 445.19,204.40 445.19,189.20 458.35,181.60" fill="#c0c0c0" stroke="rgba(0,0,0,0.3)" stroke-width="1" data-sq="12,7" class="board-cell"/><polygon points="499.22,189.20 499.22,204.40 486.06,212.00 472.90,204.40 472.90,189.20 486.06,181.60" fill="#d8d8d8" stroke="rgba(0,0,0,0.3)" stroke-width="1" data-sq="13,7" class="board-cell"/><polygon points="152.81,213.20 152.81,228.40 139.65,236.00 126.49,228.40 126.49,213.20 139.65,205.60" fill="#d8d8d8" stroke="rgba(0,0,0,0.3)" stroke-width="1" data-sq="0,8" class="board-cell"/><polygon points="180.53,213.20 180.53,228.40 167.36,236.00 154.20,228.40 154.20,213.20 167.36,205.60" fill="#e8e8e8" stroke="rgba(0,0,0,0.3)" stroke-width="1" data-sq="1,8" class="board-cell"/><polygon points="208.24,213.20 208.24,228.40 195.08,236.00 181.91,228.40 181.91,213.20 195.08,205.60" fill="#c0c0c0" stroke="rgba(0,0,0,0.3)" stroke-width="1" data-sq="2,8" class="board-cell"/><polygon points="235.95,213.20 235.95,228.40 222.79,236.00 209.63,228.40 209.63,213.20 222.79,205.60" fill="#d8d8d8" stroke="rgba(0,0,0,0.3)" stroke-width="1" data-sq="3,8" class="board-cell"/><polygon points="263.67,213.20 263.67,228.40 250.50,236.00 237.34,228.40 237.34,213.20 250.50,205.60" fill="#e8e8e8" stroke="rgba(0,0,0,0.3)" stroke-width="1" data-sq="4,8" class="board-cell"/><polygon points="291.38,213.20 291.38,228.40 278.22,236.00 265.05,228.40 265.05,213.20 278.22,205.60" fill="#c0c0c0" stroke="rgba(0,0,0,0.3)" stroke-width="1" data-sq="5,8" class="board-cell"/><polygon points="319.09,213.20 319.09,228.40 305.93,236.00 292.76,228.40 292.76,213.20 305.93,205.60" fill="#d8d8d8" stroke="rgba(0,0,0,0.3)" stroke-width="1" data-sq="6,8" class="board-cell"/><polygon points="346.80,213.20 346.80,228.40 333.64,236.00 320.48,228.40 320.48,213.20 333.64,205.60" fill="#e8e8e8" stroke="rgba(0,0,0,0.3)" stroke-width="1" data-sq="7,8" class="board-cell"/><polygon points="374.52,213.20 374.52,228.40 361.35,236.00 348.19,228.40 348.19,213.20 361.35,205.60" fill="#c0c0c0" stroke="rgba(0,0,0,0.3)" stroke-width="1" data-sq="8,8" class="board-cell"/><polygon points="402.23,213.20 402.23,228.40 389.07,236.00 375.90,228.40 375.90,213.20 389.07,205.60" fill="#d8d8d8" stroke="rgba(0,0,0,0.3)" stroke-width="1" data-sq="9,8" class="board-cell"/><polygon points="429.94,213.20 429.94,228.40 416.78,236.00 403.62,228.40 403.62,213.20 416.78,205.60" fill="#e8e8e8" stroke="rgba(0,0,0,0.3)" stroke-width="1" data-sq="10,8" class="board-cell"/><polygon points="457.66,213.20 457.66,228.40 444.49,236.00 431.33,228.40 431.33,213.20 444.49,205.60" fill="#c0c0c0" stroke="rgba(0,0,0,0.3)" stroke-width="1" data-sq="11,8" class="board-cell"/><polygon points="485.37,213.20 485.37,228.40 472.21,236.00 459.04,228.40 459.04,213.20 472.21,205.60" fill="#d8d8d8" stroke="rgba(0,0,0,0.3)" stroke-width="1" data-sq="12,8" class="board-cell"/><polygon points="513.08,213.20 513.08,228.40 499.92,236.00 486.75,228.40 486.75,213.20 499.92,205.60" fill="#e8e8e8" stroke="rgba(0,0,0,0.3)" stroke-width="1" data-sq="13,8" class="board-cell"/><polygon points="166.67,237.20 166.67,252.40 153.51,260.00 140.34,252.40 140.34,237.20 153.51,229.60" fill="#e8e8e8" stroke="rgba(0,0,0,0.3)" stroke-width="1" data-sq="0,9" class="board-cell"/><polygon points="194.38,237.20 194.38,252.40 181.22,260.00 168.06,252.40 168.06,237.20 181.22,229.60" fill="#c0c0c0" stroke="rgba(0,0,0,0.3)" stroke-width="1" data-sq="1,9" class="board-cell"/><polygon points="222.10,237.20 222.10,252.40 208.93,260.00 195.77,252.40 195.77,237.20 208.93,229.60" fill="#d8d8d8" stroke="rgba(0,0,0,0.3)" stroke-width="1" data-sq="2,9" class="board-cell"/><polygon points="249.81,237.20 249.81,252.40 236.65,260.00 223.48,252.40 223.48,237.20 236.65,229.60" fill="#e8e8e8" stroke="rgba(0,0,0,0.3)" stroke-width="1" data-sq="3,9" class="board-cell"/><polygon points="277.52,237.20 277.52,252.40 264.36,260.00 251.20,252.40 251.20,237.20 264.36,229.60" fill="#c0c0c0" stroke="rgba(0,0,0,0.3)" stroke-width="1" data-sq="4,9" class="board-cell"/><polygon points="305.24,237.20 305.24,252.40 292.07,260.00 278.91,252.40 278.91,237.20 292.07,229.60" fill="#d8d8d8" stroke="rgba(0,0,0,0.3)" stroke-width="1" data-sq="5,9" class="board-cell"/><polygon points="332.95,237.20 332.95,252.40 319.78,260.00 306.62,252.40 306.62,237.20 319.78,229.60" fill="#e8e8e8" stroke="rgba(0,0,0,0.3)" stroke-width="1" data-sq="6,9" class="board-cell"/><polygon points="360.66,237.20 360.66,252.40 347.50,260.00 334.33,252.40 334.33,237.20 347.50,229.60" fill="#c0c0c0" stroke="rgba(0,0,0,0.3)" stroke-width="1" data-sq="7,9" class="board-cell"/><polygon points="388.37,237.20 388.37,252.40 375.21,260.00 362.05,252.40 362.05,237.20 375.21,229.60" fill="#d8d8d8" stroke="rgba(0,0,0,0.3)" stroke-width="1" data-sq="8,9" class="board-cell"/><polygon points="416.09,237.20 416.09,252.40 402.92,260.00 389.76,252.40 389.76,237.20 402.92,229.60" fill="#e8e8e8" stroke="rgba(0,0,0,0.3)" stroke-width="1" data-sq="9,9" class="board-cell"/><polygon points="443.80,237.20 443.80,252.40 430.64,260.00 417.47,252.40 417.47,237.20 430.64,229.60" fill="#c0c0c0" stroke="rgba(0,0,0,0.3)" stroke-width="1" data-sq="10,9" class="board-cell"/><polygon points="471.51,237.20 471.51,252.40 458.35,260.00 445.19,252.40 445.19,237.20 458.35,229.60" fill="#d8d8d8" stroke="rgba(0,0,0,0.3)" stroke-width="1" data-sq="11,9" class="board-cell"/><polygon points="499.22,237.20 499.22,252.40 486.06,260.00 472.90,252.40 472.90,237.20 486.06,229.60" fill="#e8e8e8" stroke="rgba(0,0,0,0.3)" stroke-width="1" data-sq="12,9" class="board-cell"/><polygon points="526.94,237.20 526.94,252.40 513.77,260.00 500.61,252.40 500.61,237.20 513.77,229.60" fill="#c0c0c0" stroke="rgba(0,0,0,0.3)" stroke-width="1" data-sq="13,9" class="board-cell"/><polygon points="180.53,261.20 180.53,276.40 167.36,284.00 154.20,276.40 154.20,261.20 167.36,253.60" fill="#c0c0c0" stroke="rgba(0,0,0,0.3)" stroke-width="1" data-sq="0,10" class="board-cell"/><polygon points="208.24,261.20 208.24,276.40 195.08,284.00 181.91,276.40 181.91,261.20 195.08,253.60" fill="#d8d8d8" stroke="rgba(0,0,0,0.3)" stroke-width="1" data-sq="1,10" class="board-cell"/><polygon points="235.95,261.20 235.95,276.40 222.79,284.00 209.63,276.40 209.63,261.20 222.79,253.60" fill="#e8e8e8" stroke="rgba(0,0,0,0.3)" stroke-width="1" data-sq="2,10" class="board-cell"/><polygon points="263.67,261.20 263.67,276.40 250.50,284.00 237.34,276.40 237.34,261.20 250.50,253.60" fill="#c0c0c0" stroke="rgba(0,0,0,0.3)" stroke-width="1" data-sq="3,10" class="board-cell"/><polygon points="291.38,261.20 291.38,276.40 278.22,284.00 265.05,276.40 265.05,261.20 278.22,253.60" fill="#d8d8d8" stroke="rgba(0,0,0,0.3)" stroke-width="1" data-sq="4,10" class="board-cell"/><polygon points="319.09,261.20 319.09,276.40 305.93,284.00 292.76,276.40 292.76,261.20 305.93,253.60" fill="#e8e8e8" stroke="rgba(0,0,0,0.3)" stroke-width="1" data-sq="5,10" class="board-cell"/><polygon points="346.80,261.20 346.80,276.40 333.64,284.00 320.48,276.40 320.48,261.20 333.64,253.60" fill="#c0c0c0" stroke="rgba(0,0,0,0.3)" stroke-width="1" data-sq="6,10" class="board-cell"/><polygon points="374.52,261.20 374.52,276.40 361.35,284.00 348.19,276.40 348.19,261.20 361.35,253.60" fill="#d8d8d8" stroke="rgba(0,0,0,0.3)" stroke-width="1" data-sq="7,10" class="board-cell"/><polygon points="402.23,261.20 402.23,276.40 389.07,284.00 375.90,276.40 375.90,261.20 389.07,253.60" fill="#e8e8e8" stroke="rgba(0,0,0,0.3)" stroke-width="1" data-sq="8,10" class="board-cell"/><polygon points="429.94,261.20 429.94,276.40 416.78,284.00 403.62,276.40 403.62,261.20 416.78,253.60" fill="#c0c0c0" stroke="rgba(0,0,0,0.3)" stroke-width="1" data-sq="9,10" class="board-cell"/><polygon points="457.66,261.20 457.66,276.40 444.49,284.00 431.33,276.40 431.33,261.20 444.49,253.60" fill="#d8d8d8" stroke="rgba(0,0,0,0.3)" stroke-width="1" data-sq="10,10" class="board-cell"/><polygon points="485.37,261.20 485.37,276.40 472.21,284.00 459.04,276.40 459.04,261.20 472.21,253.60" fill="#e8e8e8" stroke="rgba(0,0,0,0.3)" stroke-width="1" data-sq="11,10" class="board-cell"/><polygon points="513.08,261.20 513.08,276.40 499.92,284.00 486.75,276.40 486.75,261.20 499.92,253.60" fill="#c0c0c0" stroke="rgba(0,0,0,0.3)" stroke-width="1" data-sq="12,10" class="board-cell"/><polygon points="540.79,261.20 540.79,276.40 527.63,284.00 514.47,276.40 514.47,261.20 527.63,253.60" fill="#d8d8d8" stroke="rgba(0,0,0,0.3)" stroke-width="1" data-sq="13,10" class="board-cell"/><polygon points="194.38,285.20 194.38,300.40 181.22,308.00 168.06,300.40 168.06,285.20 181.22,277.60" fill="#d8d8d8" stroke="rgba(0,0,0,0.3)" stroke-width="1" data-sq="0,11" class="board-cell"/><polygon points="222.10,285.20 222.10,300.40 208.93,308.00 195.77,300.40 195.77,285.20 208.93,277.60" fill="#e8e8e8" stroke="rgba(0,0,0,0.3)" stroke-width="1" data-sq="1,11" class="board-cell"/><polygon points="249.81,285.20 249.81,300.40 236.65,308.00 223.48,300.40 223.48,285.20 236.65,277.60" fill="#c0c0c0" stroke="rgba(0,0,0,0.3)" stroke-width="1" data-sq="2,11" class="board-cell"/><polygon points="277.52,285.20 277.52,300.40 264.36,308.00 251.20,300.40 251.20,285.20 264.36,277.60" fill="#d8d8d8" stroke="rgba(0,0,0,0.3)" stroke-width="1" data-sq="3,11" class="board-cell"/><polygon points="305.24,285.20 305.24,300.40 292.07,308.00 278.91,300.40 278.91,285.20 292.07,277.60" fill="#e8e8e8" stroke="rgba(0,0,0,0.3)" stroke-width="1" data-sq="4,11" class="board-cell"/><polygon points="332.95,285.20 332.95,300.40 319.78,308.00 306.62,300.40 306.62,285.20 319.78,277.60" fill="#c0c0c0" stroke="rgba(0,0,0,0.3)" stroke-width="1" data-sq="5,11" class="board-cell"/><polygon points="360.66,285.20 360.66,300.40 347.50,308.00 334.33,300.40 334.33,285.20 347.50,277.60" fill="#d8d8d8" stroke="rgba(0,0,0,0.3)" stroke-width="1" data-sq="6,11" class="board-cell"/><polygon points="388.37,285.20 388.37,300.40 375.21,308.00 362.05,300.40 362.05,285.20 375.21,277.60" fill="#e8e8e8" stroke="rgba(0,0,0,0.3)" stroke-width="1" data-sq="7,11" class="board-cell"/><polygon points="416.09,285.20 416.09,300.40 402.92,308.00 389.76,300.40 389.76,285.20 402.92,277.60" fill="#c0c0c0" stroke="rgba(0,0,0,0.3)" stroke-width="1" data-sq="8,11" class="board-cell"/><polygon points="443.80,285.20 443.80,300.40 430.64,308.00 417.47,300.40 417.47,285.20 430.64,277.60" fill="#d8d8d8" stroke="rgba(0,0,0,0.3)" stroke-width="1" data-sq="9,11" class="board-cell"/><polygon points="471.51,285.20 471.51,300.40 458.35,308.00 445.19,300.40 445.19,285.20 458.35,277.60" fill="#e8e8e8" stroke="rgba(0,0,0,0.3)" stroke-width="1" data-sq="10,11" class="board-cell"/><polygon points="499.22,285.20 499.22,300.40 486.06,308.00 472.90,300.40 472.90,285.20 486.06,277.60" fill="#c0c0c0" stroke="rgba(0,0,0,0.3)" stroke-width="1" data-sq="11,11" class="board-cell"/><polygon points="526.94,285.20 526.94,300.40 513.77,308.00 500.61,300.40 500.61,285.20 513.77,277.60" fill="#d8d8d8" stroke="rgba(0,0,0,0.3)" stroke-width="1" data-sq="12,11" class="board-cell"/><polygon points="554.65,285.20 554.65,300.40 541.49,308.00 528.32,300.40 528.32,285.20 541.49,277.60" fill="#e8e8e8" stroke="rgba(0,0,0,0.3)" stroke-width="1" data-sq="13,11" class="board-cell"/><polygon points="208.24,309.20 208.24,324.40 195.08,332.00 181.91,324.40 181.91,309.20 195.08,301.60" fill="#e8e8e8" stroke="rgba(0,0,0,0.3)" stroke-width="1" data-sq="0,12" class="board-cell"/><polygon points="235.95,309.20 235.95,324.40 222.79,332.00 209.63,324.40 209.63,309.20 222.79,301.60" fill="#c0c0c0" stroke="rgba(0,0,0,0.3)" stroke-width="1" data-sq="1,12" class="board-cell"/><polygon points="263.67,309.20 263.67,324.40 250.50,332.00 237.34,324.40 237.34,309.20 250.50,301.60" fill="#d8d8d8" stroke="rgba(0,0,0,0.3)" stroke-width="1" data-sq="2,12" class="board-cell"/><polygon points="291.38,309.20 291.38,324.40 278.22,332.00 265.05,324.40 265.05,309.20 278.22,301.60" fill="#e8e8e8" stroke="rgba(0,0,0,0.3)" stroke-width="1" data-sq="3,12" class="board-cell"/><polygon points="319.09,309.20 319.09,324.40 305.93,332.00 292.76,324.40 292.76,309.20 305.93,301.60" fill="#c0c0c0" stroke="rgba(0,0,0,0.3)" stroke-width="1" data-sq="4,12" class="board-cell"/><polygon points="346.80,309.20 346.80,324.40 333.64,332.00 320.48,324.40 320.48,309.20 333.64,301.60" fill="#d8d8d8" stroke="rgba(0,0,0,0.3)" stroke-width="1" data-sq="5,12" class="board-cell"/><polygon points="374.52,309.20 374.52,324.40 361.35,332.00 348.19,324.40 348.19,309.20 361.35,301.60" fill="#e8e8e8" stroke="rgba(0,0,0,0.3)" stroke-width="1" data-sq="6,12" class="board-cell"/><polygon points="402.23,309.20 402.23,324.40 389.07,332.00 375.90,324.40 375.90,309.20 389.07,301.60" fill="#c0c0c0" stroke="rgba(0,0,0,0.3)" stroke-width="1" data-sq="7,12" class="board-cell"/><polygon points="429.94,309.20 429.94,324.40 416.78,332.00 403.62,324.40 403.62,309.20 416.78,301.60" fill="#d8d8d8" stroke="rgba(0,0,0,0.3)" stroke-width="1" data-sq="8,12" class="board-cell"/><polygon points="457.66,309.20 457.66,324.40 444.49,332.00 431.33,324.40 431.33,309.20 444.49,301.60" fill="#e8e8e8" stroke="rgba(0,0,0,0.3)" stroke-width="1" data-sq="9,12" class="board-cell"/><polygon points="485.37,309.20 485.37,324.40 472.21,332.00 459.04,324.40 459.04,309.20 472.21,301.60" fill="#c0c0c0" stroke="rgba(0,0,0,0.3)" stroke-width="1" data-sq="10,12" class="board-cell"/><polygon points="513.08,309.20 513.08,324.40 499.92,332.00 486.75,324.40 486.75,309.20 499.92,301.60" fill="#d8d8d8" stroke="rgba(0,0,0,0.3)" stroke-width="1" data-sq="11,12" class="board-cell"/><polygon points="540.79,309.20 540.79,324.40 527.63,332.00 514.47,324.40 514.47,309.20 527.63,301.60" fill="#e8e8e8" stroke="rgba(0,0,0,0.3)" stroke-width="1" data-sq="12,12" class="board-cell"/><polygon points="568.51,309.20 568.51,324.40 555.34,332.00 542.18,324.40 542.18,309.20 555.34,301.60" fill="#c0c0c0" stroke="rgba(0,0,0,0.3)" stroke-width="1" data-sq="13,12" class="board-cell"/><polygon points="222.10,333.20 222.10,348.40 208.93,356.00 195.77,348.40 195.77,333.20 208.93,325.60" fill="#c0c0c0" stroke="rgba(0,0,0,0.3)" stroke-width="1" data-sq="0,13" class="board-cell"/><polygon points="249.81,333.20 249.81,348.40 236.65,356.00 223.48,348.40 223.48,333.20 236.65,325.60" fill="#d8d8d8" stroke="rgba(0,0,0,0.3)" stroke-width="1" data-sq="1,13" class="board-cell"/><polygon points="277.52,333.20 277.52,348.40 264.36,356.00 251.20,348.40 251.20,333.20 264.36,325.60" fill="#e8e8e8" stroke="rgba(0,0,0,0.3)" stroke-width="1" data-sq="2,13" class="board-cell"/><polygon points="305.24,333.20 305.24,348.40 292.07,356.00 278.91,348.40 278.91,333.20 292.07,325.60" fill="#c0c0c0" stroke="rgba(0,0,0,0.3)" stroke-width="1" data-sq="3,13" class="board-cell"/><polygon points="332.95,333.20 332.95,348.40 319.78,356.00 306.62,348.40 306.62,333.20 319.78,325.60" fill="#d8d8d8" stroke="rgba(0,0,0,0.3)" stroke-width="1" data-sq="4,13" class="board-cell"/><polygon points="360.66,333.20 360.66,348.40 347.50,356.00 334.33,348.40 334.33,333.20 347.50,325.60" fill="#e8e8e8" stroke="rgba(0,0,0,0.3)" stroke-width="1" data-sq="5,13" class="board-cell"/><polygon points="388.37,333.20 388.37,348.40 375.21,356.00 362.05,348.40 362.05,333.20 375.21,325.60" fill="#c0c0c0" stroke="rgba(0,0,0,0.3)" stroke-width="1" data-sq="6,13" class="board-cell"/><polygon points="416.09,333.20 416.09,348.40 402.92,356.00 389.76,348.40 389.76,333.20 402.92,325.60" fill="#d8d8d8" stroke="rgba(0,0,0,0.3)" stroke-width="1" data-sq="7,13" class="board-cell"/><polygon points="443.80,333.20 443.80,348.40 430.64,356.00 417.47,348.40 417.47,333.20 430.64,325.60" fill="#e8e8e8" stroke="rgba(0,0,0,0.3)" stroke-width="1" data-sq="8,13" class="board-cell"/><polygon points="471.51,333.20 471.51,348.40 458.35,356.00 445.19,348.40 445.19,333.20 458.35,325.60" fill="#c0c0c0" stroke="rgba(0,0,0,0.3)" stroke-width="1" data-sq="9,13" class="board-cell"/><polygon points="499.22,333.20 499.22,348.40 486.06,356.00 472.90,348.40 472.90,333.20 486.06,325.60" fill="#d8d8d8" stroke="rgba(0,0,0,0.3)" stroke-width="1" data-sq="10,13" class="board-cell"/><polygon points="526.94,333.20 526.94,348.40 513.77,356.00 500.61,348.40 500.61,333.20 513.77,325.60" fill="#e8e8e8" stroke="rgba(0,0,0,0.3)" stroke-width="1" data-sq="11,13" class="board-cell"/><polygon points="554.65,333.20 554.65,348.40 541.49,356.00 528.32,348.40 528.32,333.20 541.49,325.60" fill="#c0c0c0" stroke="rgba(0,0,0,0.3)" stroke-width="1" data-sq="12,13" class="board-cell"/><polygon points="582.36,333.20 582.36,348.40 569.20,356.00 556.04,348.40 556.04,333.20 569.20,325.60" fill="#d8d8d8" stroke="rgba(0,0,0,0.3)" stroke-width="1" data-sq="13,13" class="board-cell"/>
</svg>