<svg xmlns="http://www.w3.org/2000/svg" viewBox="0 0 306 340" width="306" height="340">
<rect x="0" y="0" width="306" height="340" fill="transparent"/><rect x="0" y="0" width="34" height="34" fill="#5a8a3a" stroke="#3d6b28" stroke-width="2" data-sq="a10" data-type="floor" class="board-cell"/><rect x="34" y="0" width="34" height="34" fill="#5a8a3a" stroke="#3d6b28" stroke-width="2" data-sq="b10" data-type="floor" class="board-cell"/><rect x="68" y="0" width="34" height="34" fill="#5a8a3a" stroke="#3d6b28" stroke-width="2" data-sq="c10" data-type="floor" class="board-cell"/><rect x="102" y="0" width="34" height="34" fill="#5a8a3a" stroke="#3d6b28" stroke-width="2" data-sq="d10" data-type="floor" class="board-cell"/><rect x="136" y="0" width="34" height="34" fill="#5a8a3a" stroke="#3d6b28" stroke-width="2" data-sq="e10" data-type="floor" class="board-cell"/><rect x="170" y="0" width="34" height="34" fill="#5a8a3a" stroke="#3d6b28" stroke-width="2" data-sq="f10" data-type="floor" class="board-cell"/><rect x="204" y="0" width="34" height="34" fill="#5a8a3a" stroke="#3d6b28" stroke-width="2" data-sq="g10" data-type="floor" class="board-cell"/><rect x="238" y="0" width="34" height="34" fill="#5a8a3a" stroke="#3d6b28" stroke-width="2" data-sq="h10" data-type="floor" class="board-cell"/><rect x="272" y="0" width="34" height="34" fill="#5a8a3a" stroke="#3d6b28" stroke-width="2" data-sq="i10" data-type="floor" class="board-cell"/><rect x="0" y="34" width="34" height="34" fill="#5a8a3a" stroke="#3d6b28" stroke-width="2" data-sq="a9" data-type="floor" class="board-cell"/><rect x="34" y="34" width="34" height="34" fill="#5a8a3a" stroke="#3d6b28" stroke-width="2" data-sq="b9" data-type="floor" class="board-cell"/><rect x="68" y="34" width="34" height="34" fill="#5a8a3a" stroke="#3d6b28" stroke-width="2" data-sq="c9" data-type="floor" class="board-cell"/><rect x="102" y="34" width="34" height="34" fill="#5a8a3a" stroke="#3d6b28" stroke-width="2" data-sq="d9" data-type="floor" class="board-cell"/><rect x="136" y="34" width="34" height="34" fill="#5a8a3a" stroke="#3d6b28" stroke-width="2" data-sq="e9" data-type="floor" class="board-cell"/><rect x="170" y="34" width="34" height="34" fill="#5a8a3a" stroke="#3d6b28" stroke-width="2" data-sq="f9" data-type="floor" class="board-cell"/><rect x="204" y="34" width="34" height="34" fill="#5a8a3a" stroke="#3d6b28" stroke-width="2" data-sq="g9" data-type="floor" class="board-cell"/><rect x="238" y="34" width="34" height="34" fill="#5a8a3a" stroke="#3d6b28" stroke-width="2" data-sq="h9" data-type="floor" class="board-cell"/><rect x="272" y="34" width="34" height="34" fill="#5a8a3a" stroke="#3d6b28" stroke-width="2" data-sq="i9" data-type="floor" class="board-cell"/><rect x="0" y="68" width="34" height="34" fill="#5a8a3a" stroke="#3d6b28" stroke-width="2" data-sq="a8" data-type="floor" class="board-cell"/><rect x="34" y="68" width="34" height="34" fill="#5a8a3a" stroke="#3d6b28" stroke-width="2" data-sq="b8" data-type="floor" class="board-cell"/><rect x="68" y="68" width="34" height="34" fill="#5a8a3a" stroke="#3d6b28" stroke-width="2" data-sq="c8" data-type="floor" class="board-cell"/><rect x="102" y="68" width="34" height="34" fill="#5a8a3a" stroke="#3d6b28" stroke-width="2" data-sq="d8" data-type="floor" class="board-cell"/><rect x="136" y="68" width="34" height="34" fill="#5a8a3a" stroke="#3d6b28" stroke-width="2" data-sq="e8" data-type="floor" class="board-cell"/><rect x="170" y="68" width="34" height="34" fill="#5a8a3a" stroke="#3d6b28" stroke-width="2" data-sq="f8" data-type="floor" class="board-cell"/><rect x="204" y="68" width="34" height="34" fill="#5a8a3a" stroke="#3d6b28" stroke-width="2" data-sq="g8" data-type="floor" class="board-cell"/><rect x="238" y="68" width="34" height="34" fill="#5a8a3a" stroke="#3d6b28" stroke-width="2" data-sq="h8" data-type="floor" class="board-cell"/><rect x="272" y="68" width="34" height="34" fill="#5a8a3a" stroke="#3d6b28" stroke-width="2" data-sq="i8" data-type="floor" class="board-cell"/><rect x="0" y="102" width="34" height="34" fill="#5a8a3a" stroke="#3d6b28" stroke-width="2" data-sq="a7" data-type="floor" class="board-cell"/><rect x="34" y="102" width="34" height="34" fill="#5a8a3a" stroke="#3d6b28" stroke-width="2" data-sq="b7" data-type="floor" class="board-cell"/><rect x="68" y="102" width="34" height="34" fill="#5a8a3a" stroke="#3d6b28" stroke-width="2" data-sq="c7" data-type="floor" class="board-cell"/><rect x="102" y="102" width="34" height="34" fill="#5a8a3a" stroke="#3d6b28" stroke-width="2" data-sq="d7" data-type="floor" class="board-cell"/><rect x="136" y="102" width="34" height="34" fill="#5a8a3a" stroke="#3d6b28" stroke-width="2" data-sq="e7" data-type="floor" class="board-cell"/><rect x="170" y="102" width="34" height="34" fill="#5a8a3a" stroke="#3d6b28" stroke-width="2" data-sq="f7" data-type="floor" class="board-cell"/><rect x="204" y="102" width="34" height="34" fill="#5a8a3a" stroke="#3d6b28" stroke-width="2" data-sq="g7" data-type="floor" class="board-cell"/><rect x="238" y="102" width="34" height="34" fill="#5a8a3a" stroke="#3d6b28" stroke-width="2" data-sq="h7" data-type="floor" class="board-cell"/><rect x="272" y="102" width="34" height="34" fill="#5a8a3a" stroke="#3d6b28" stroke-width="2" data-sq="i7" data-type="floor" class="board-cell"/><rect x="0" y="136" width="34" height="34" fill="#5a8a3a" stroke="#3d6b28" stroke-width="2" data-sq="a6" data-type="floor" class="board-cell"/><rect x="34" y="136" width="34" height="34" fill="#5a8a3a" stroke="#3d6b28" stroke-width="2" data-sq="b6" data-type="floor" class="board-cell"/><rect x="68" y="136" width="34" height="34" fill="#4a7ab5" stroke="#2a5a8a" stroke-width="2" data-sq="c6" data-type="lake" class="board-cell"/><rect x="102" y="136" width="34" height="34" fill="#5a8a3a" stroke="#3d6b28" stroke-width="2" data-sq="d6" data-type="floor" class="board-cell"/><rect x="136" y="136" width="34" height="34" fill="#4a7ab5" stroke="#2a5a8a" stroke-width="2" data-sq="e6" data-type="lake" class="board-cell"/><rect x="170" y="136" width="34" height="34" fill="#5a8a3a" stroke="#3d6b28" stroke-width="2" data-sq="f6" data-type="floor" class="board-cell"/><rect x="204" y="136" width="34" height="34" fill="#4a7ab5" stroke="#2a5a8a" stroke-width="2" data-sq="g6" data-type="lake" class="board-cell"/><rect x="238" y="136" width="34" height="34" fill="#5a8a3a" stroke="#3d6b28" stroke-width="2" data-sq="h6" data-type="floor" class="board-cell"/><rect x="272" y="136" width="34" height="34" fill="#5a8a3a" stroke="#3d6b28" stroke-width="2" data-sq="i6" data-type="floor" class="board-cell"/><rect x="0" y="170" width="34" height="34" fill="#5a8a3a" stroke="#3d6b28" stroke-width="2" data-sq="a5" data-type="floor" class="board-cell"/><rect x="34" y="170" width="34" height="34" fill="#5a8a3a" stroke="#3d6b28" stroke-width="2" data-sq="b5" data-type="floor" class="board-cell"/><rect x="68" y="170" width="34" height="34" fill="#4a7ab5" stroke="#2a5a8a" stroke-width="2" data-sq="c5" data-type="lake" class="board-cell"/><rect x="102" y="170" width="34" height="34" fill="#5a8a3a" stroke="#3d6b28" stroke-width="2" data-sq="d5" data-type="floor" class="board-cell"/><rect x="136" y="170" width="34" height="34" fill="#4a7ab5" stroke="#2a5a8a" stroke-width="2" data-sq="e5" data-type="lake" class="board-cell"/><rect x="170" y="170" width="34" height="34" fill="#5a8a3a" stroke="#3d6b28" stroke-width="2" data-sq="f5" data-type="floor" class="board-cell"/><rect x="204" y="170" width="34" height="34" fill="#4a7ab5" stroke="#2a5a8a" stroke-width="2" data-sq="g5" data-type="lake" class="board-cell"/><rect x="238" y="170" width="34" height="34" fill="#5a8a3a" stroke="#3d6b28" stroke-width="2" data-sq="h5" data-type="floor" class="board-cell"/><rect x="272" y="170" width="34" height="34" fill="#5a8a3a" stroke="#3d6b28" stroke-width="2" data-sq="i5" data-type="floor" class="board-cell"/><rect x="0" y="204" width="34" height="34" fill="#5a8a3a" stroke="#3d6b28" stroke-width="2" data-sq="a4" data-type="floor" class="board-cell"/><rect x="34" y="204" width="34" height="34" fill="#5a8a3a" stroke="#3d6b28" stroke-width="2" data-sq="b4" data-type="floor" class="board-cell"/><rect x="68" y="204" width="34" height="34" fill="#5a8a3a" stroke="#3d6b28" stroke-width="2" data-sq="c4" data-type="floor" class="board-cell"/><rect x="102" y="204" width="34" height="34" fill="#5a8a3a" stroke="#3d6b28" stroke-width="2" data-sq="d4" data-type="floor" class="board-cell"/><rect x="136" y="204" width="34" height="34" fill="#5a8a3a" stroke="#3d6b28" stroke-width="2" data-sq="e4" data-type="floor" class="board-cell"/><rect x="170" y="204" width="34" height="34" fill="#5a8a3a" stroke="#3d6b28" stroke-width="2" data-sq="f4" data-type="floor" class="board-cell"/><rect x="204" y="204" width="34" height="34" fill="#5a8a3a" stroke="#3d6b28" stroke-width="2" data-sq="g4" data-type="floor" class="board-cell"/><rect x="238" y="204" width="34" height="34" fill="#5a8a3a" stroke="#3d6b28" stroke-width="2" data-sq="h4" data-type="floor" class="board-cell"/><rect x="272" y="204" width="34" height="34" fill="#5a8a3a" stroke="#3d6b28" stroke-width="2" data-sq="i4" data-type="floor" class="board-cell"/><rect x="0" y="238" width="34" height="34" fill="#5a8a3a" stroke="#3d6b28" stroke-width="2" data-sq="a3" data-type="floor" class="board-cell"/><rect x="34" y="238" width="34" height="34" fill="#5a8a3a" stroke="#3d6b28" stroke-width="2" data-sq="b3" data-type="floor" class="board-cell"/><rect x="68" y="238" width="34" height="34" fill="#5a8a3a" stroke="#3d6b28" stroke-width="2" data-sq="c3" data-type="floor" class="board-cell"/><rect x="102" y="238" width="34" height="34" fill="#5a8a3a" stroke="#3d6b28" stroke-width="2" data-sq="d3" data-type="floor" class="board-cell"/><rect x="136" y="238" width="34" height="34" fill="#5a8a3a" stroke="#3d6b28" stroke-width="2" data-sq="e3" data-type="floor" class="board-cell"/><rect x="170" y="238" width="34" height="34" fill="#5a8a3a" stroke="#3d6b28" stroke-width="2" data-sq="f3" data-type="floor" class="board-cell"/><rect x="204" y="238" width="34" height="34" fill="#5a8a3a" stroke="#3d6b28" stroke-width="2" data-sq="g3" data-type="floor" class="board-cell"/><rect x="238" y="238" width="34" height="34" fill="#5a8a3a" stroke="#3d6b28" stroke-width="2" data-sq="h3" data-type="floor" class="board-cell"/><rect x="272" y="238" width="34" height="34" fill="#5a8a3a" stroke="#3d6b28" stroke-width="2" data-sq="i3" data-type="floor" class="board-cell"/><rect x="0" y="272" width="34" height="34" fill="#5a8a3a" stroke="#3d6b28" stroke-width="2" data-sq="a2" data-type="floor" class="board-cell"/><rect x="34" y="272" width="34" height="34" fill="#5a8a3a" stroke="#3d6b28" stroke-width="2" data-sq="b2" data-type="floor" class="board-cell"/><rect x="68" y="272" width="34" height="34" fill="#5a8a3a" stroke="#3d6b28" stroke-width="2" data-sq="c2" data-type="floor" class="board-cell"/><rect x="102" y="272" width="34" height="34" fill="#5a8a3a" stroke="#3d6b28" stroke-width="2" data-sq="d2" data-type="floor" class="board-cell"/><rect x="136" y="272" width="34" height="34" fill="#5a8a3a" stroke="#3d6b28" stroke-width="2" data-sq="e2" data-type="floor" class="board-cell"/><rect x="170" y="272" width="34" height="34" fill="#5a8a3a" stroke="#3d6b28" stroke-width="2" data-sq="f2" data-type="floor" class="board-cell"/><rect x="204" y="272" width="34" height="34" fill="#5a8a3a" stroke="#3d6b28" stroke-width="2" data-sq="g2" data-type="floor" class="board-cell"/><rect x="238" y="272" width="34" height="34" fill="#5a8a3a" stroke="#3d6b28" stroke-width="2" data-sq="h2" data-type="floor" class="board-cell"/><rect x="272" y="272" width="34" height="34" fill="#5a8a3a" stroke="#3d6b28" stroke-width="2" data-sq="i2" data-type="floor" class="board-cell"/><rect x="0" y="306" width="34" height="34" fill="#5a8a3a" stroke="#3d6b28" stroke-width="2" data-sq="a1" data-type="floor" class="board-cell"/><rect x="34" y="306" width="34" height="34" fill="#5a8a3a" stroke="#3d6b28" stroke-width="2" data-sq="b1" data-type="floor" class="board-cell"/><rect x="68" y="306" width="34" height="34" fill="#5a8a3a" stroke="#3d6b28" stroke-width="2" data-sq="c1" data-type="floor" class="board-cell"/><rect x="102" y="306" width="34" height="34" fill="#5a8a3a" stroke="#3d6b28" stroke-width="2" data-sq="d1" data-type="floor" class="board-cell"/><rect x="136" y="306" width="34" height="34" fill="#5a8a3a" stroke="#3d6b28" stroke-width="2" data-sq="e1" data-type="floor" class="board-cell"/><rect x="170" y="306" width="34" height="34" fill="#5a8a3a" stroke="#3d6b28" stroke-width="2" data-sq="f1" data-type="floor" class="board-cell"/><rect x="204" y="306" width="34" height="34" fill="#5a8a3a" stroke="#3d6b28" stroke-width="2" data-sq="g1" data-type="floor" class="board-cell"/><rect x="238" y="306" width="34" height="34" fill="#5a8a3a" stroke="#3d6b28" stroke-width="2" data-sq="h1" data-type="floor" class="board-cell"/><rect x="272" y="306" width="34" height="34" fill="#5a8a3a" stroke="#3d6b28" stroke-width="2" data-sq="i1" data-type="floor" class="board-cell"/>
</svg>