<svg xmlns="http://www.w3.org/2000/svg" viewBox="0 0 272 408" width="272" height="408">
<rect x="0" y="0" width="272" height="408" fill="transparent"/><rect x="0" y="0" width="34" height="34" fill="#3a6e9e" stroke="#2a5580" stroke-width="2" data-sq="a12" data-type="sea" class="board-cell"/><rect x="34" y="0" width="34" height="34" fill="#3a6e9e" stroke="#2a5580" stroke-width="2" data-sq="b12" data-type="sea" class="board-cell"/><rect x="68" y="0" width="34" height="34" fill="#3a6e9e" stroke="#2a5580" stroke-width="2" data-sq="c12" data-type="sea" class="board-cell"/><rect x="102" y="0" width="34" height="34" fill="#3a6e9e" stroke="#2a5580" stroke-width="2" data-sq="d12" data-type="sea" class="board-cell"/><rect x="136" y="0" width="34" height="34" fill="#3a6e9e" stroke="#2a5580" stroke-width="2" data-sq="e12" data-type="sea" class="board-cell"/><rect x="170" y="0" width="34" height="34" fill="#c8a832" stroke="#9a8020" stroke-width="2" data-sq="f12" data-type="base" class="board-cell"/><rect x="204" y="0" width="34" height="34" fill="#5a8ab5" stroke="#3a6a95" stroke-width="2" data-sq="g12" data-type="harbour" class="board-cell"/><rect x="238" y="0" width="34" height="34" fill="#5a8ab5" stroke="#3a6a95" stroke-width="2" data-sq="h12" data-type="harbour" class="board-cell"/><rect x="0" y="34" width="34" height="34" fill="#3a6e9e" stroke="#2a5580" stroke-width="2" data-sq="a11" data-type="sea" class="board-cell"/><rect x="34" y="34" width="34" height="34" fill="#3a6e9e" stroke="#2a5580" stroke-width="2" data-sq="b11" data-type="sea" class="board-cell"/><rect x="68" y="34" width="34" height="34" fill="#3a6e9e" stroke="#2a5580" stroke-width="2" data-sq="c11" data-type="sea" class="board-cell"/><rect x="102" y="34" width="34" height="34" fill="#3a6e9e" stroke="#2a5580" stroke-width="2" data-sq="d11" data-type="sea" class="board-cell"/><rect x="136" y="34" width="34" height="34" fill="#3a6e9e" stroke="#2a5580" stroke-width="2" data-sq="e11" data-type="sea" class="board-cell"/><rect x="170" y="34" width="34" height="34" fill="#5a8ab5" stroke="#3a6a95" stroke-width="2" data-sq="f11" data-type="harbour" class="board-cell"/><rect x="204" y="34" width="34" height="34" fill="#5a8ab5" stroke="#3a6a95" stroke-width="2" data-sq="g11" data-type="harbour" class="board-cell"/><rect x="238" y="34" width="34" height="34" fill="#5a8ab5" stroke="#3a6a95" stroke-width="2" data-sq="h11" data-type="harbour" class="board-cell"/><rect x="0" y="68" width="34" height="34" fill="#3a6e9e" stroke="#2a5580" stroke-width="2" data-sq="a10" data-type="sea" class="board-cell"/><rect x="34" y="68" width="34" height="34" fill="#3a6e9e" stroke="#2a5580" stroke-width="2" data-sq="b10" data-type="sea" class="board-cell"/><rect x="68" y="68" width="34" height="34" fill="#3a6e9e" stroke="#2a5580" stroke-width="2" data-sq="c10" data-type="sea" class="board-cell"/><rect x="102" y="68" width="34" height="34" fill="#3a6e9e" stroke="#2a5580" stroke-width="2" data-sq="d10" data-type="sea" class="board-cell"/><rect x="136" y="68" width="34" height="34" fill="#3a6e9e" stroke="#2a5580" stroke-width="2" data-sq="e10" data-type="sea" class="board-cell"/><rect x="170" y="68" width="34" height="34" fill="#5a8ab5" stroke="#3a6a95" stroke-width="2" data-sq="f10" data-type="harbour" class="board-cell"/><rect x="204" y="68" width="34" height="34" fill="#5a8ab5" stroke="#3a6a95" stroke-width="2" data-sq="g10" data-type="harbour" class="board-cell"/><rect x="238" y="68" width="34" height="34" fill="#5a8ab5" stroke="#3a6a95" stroke-width="2" data-sq="h10" data-type="harbour" class="board-cell"/><rect x="0" y="102" width="34" height="34" fill="#3a6e9e" stroke="#2a5580" stroke-width="2" data-sq="a9" data-type="sea" class="board-cell"/><rect x="34" y="102" width="34" height="34" fill="#3a6e9e" stroke="#2a5580" stroke-width="2" data-sq="b9" data-type="sea" class="board-cell"/><rect x="68" y="102" width="34" height="34" fill="#3a6e9e" stroke="#2a5580" stroke-width="2" data-sq="c9" data-type="sea" class="board-cell"/><rect x="102" y="102" width="34" height="34" fill="#3a6e9e" stroke="#2a5580" stroke-width="2" data-sq="d9" data-type="sea" class="board-cell"/><rect x="136" y="102" width="34" height="34" fill="#3a6e9e" stroke="#2a5580" stroke-width="2" data-sq="e9" data-type="sea" class="board-cell"/><rect x="170" y="102" width="34" height="34" fill="#3a6e9e" stroke="#2a5580" stroke-width="2" data-sq="f9" data-type="sea" class="board-cell"/><rect x="204" y="102" width="34" height="34" fill="#3a6e9e" stroke="#2a5580" stroke-width="2" data-sq="g9" data-type="sea" class="board-cell"/><rect x="238" y="102" width="34" height="34" fill="#3a6e9e" stroke="#2a5580" stroke-width="2" data-sq="h9" data-type="sea" class="board-cell"/><rect x="0" y="136" width="34" height="34" fill="#3a6e9e" stroke="#2a5580" stroke-width="2" data-sq="a8" data-type="sea" class="board-cell"/><rect x="34" y="136" width="34" height="34" fill="#3a6e9e" stroke="#2a5580" stroke-width="2" data-sq="b8" data-type="sea" class="board-cell"/><rect x="68" y="136" width="34" height="34" fill="#3a6e9e" stroke="#2a5580" stroke-width="2" data-sq="c8" data-type="sea" class="board-cell"/><rect x="102" y="136" width="34" height="34" fill="#3a6e9e" stroke="#2a5580" stroke-width="2" data-sq="d8" data-type="sea" class="board-cell"/><rect x="136" y="136" width="34" height="34" fill="#3a6e9e" stroke="#2a5580" stroke-width="2" data-sq="e8" data-type="sea" class="board-cell"/><rect x="170" y="136" width="34" height="34" fill="#3a6e9e" stroke="#2a5580" stroke-width="2" data-sq="f8" data-type="sea" class="board-cell"/><rect x="204" y="136" width="34" height="34" fill="#3a6e9e" stroke="#2a5580" stroke-width="2" data-sq="g8" data-type="sea" class="board-cell"/><rect x="238" y="136" width="34" height="34" fill="#3a6e9e" stroke="#2a5580" stroke-width="2" data-sq="h8" data-type="sea" class="board-cell"/><rect x="0" y="170" width="34" height="34" fill="#3a6e9e" stroke="#2a5580" stroke-width="2" data-sq="a7" data-type="sea" class="board-cell"/><rect x="34" y="170" width="34" height="34" fill="#3a6e9e" stroke="#2a5580" stroke-width="2" data-sq="b7" data-type="sea" class="board-cell"/><rect x="68" y="170" width="34" height="34" fill="#3a6e9e" stroke="#2a5580" stroke-width="2" data-sq="c7" data-type="sea" class="board-cell"/><rect x="102" y="170" width="34" height="34" fill="#3a6e9e" stroke="#2a5580" stroke-width="2" data-sq="d7" data-type="sea" class="board-cell"/><rect x="136" y="170" width="34" height="34" fill="#3a6e9e" stroke="#2a5580" stroke-width="2" data-sq="e7" data-type="sea" class="board-cell"/><rect x="170" y="170" width="34" height="34" fill="#3a6e9e" stroke="#2a5580" stroke-width="2" data-sq="f7" data-type="sea" class="board-cell"/><rect x="204" y="170" width="34" height="34" fill="#3a6e9e" stroke="#2a5580" stroke-width="2" data-sq="g7" data-type="sea" class="board-cell"/><rect x="238" y="170" width="34" height="34" fill="#3a6e9e" stroke="#2a5580" stroke-width="2" data-sq="h7" data-type="sea" class="board-cell"/><rect x="0" y="204" width="34" height="34" fill="#3a6e9e" stroke="#2a5580" stroke-width="2" data-sq="a6" data-type="sea" class="board-cell"/><rect x="34" y="204" width="34" height="34" fill="#3a6e9e" stroke="#2a5580" stroke-width="2" data-sq="b6" data-type="sea" class="board-cell"/><rect x="68" y="204" width="34" height="34" fill="#3a6e9e" stroke="#2a5580" stroke-width="2" data-sq="c6" data-type="sea" class="board-cell"/><rect x="102" y="204" width="34" height="34" fill="#3a6e9e" stroke="#2a5580" stroke-width="2" data-sq="d6" data-type="sea" class="board-cell"/><rect x="136" y="204" width="34" height="34" fill="#3a6e9e" stroke="#2a5580" stroke-width="2" data-sq="e6" data-type="sea" class="board-cell"/><rect x="170" y="204" width="34" height="34" fill="#3a6e9e" stroke="#2a5580" stroke-width="2" data-sq="f6" data-type="sea" class="board-cell"/><rect x="204" y="204" width="34" height="34" fill="#3a6e9e" stroke="#2a5580" stroke-width="2" data-sq="g6" data-type="sea" class="board-cell"/><rect x="238" y="204" width="34" height="34" fill="#3a6e9e" stroke="#2a5580" stroke-width="2" data-sq="h6" data-type="sea" class="board-cell"/><rect x="0" y="238" width="34" height="34" fill="#3a6e9e" stroke="#2a5580" stroke-width="2" data-sq="a5" data-type="sea" class="board-cell"/><rect x="34" y="238" width="34" height="34" fill="#3a6e9e" stroke="#2a5580" stroke-width="2" data-sq="b5" data-type="sea" class="board-cell"/><rect x="68" y="238" width="34" height="34" fill="#3a6e9e" stroke="#2a5580" stroke-width="2" data-sq="c5" data-type="sea" class="board-cell"/><rect x="102" y="238" width="34" height="34" fill="#3a6e9e" stroke="#2a5580" stroke-width="2" data-sq="d5" data-type="sea" class="board-cell"/><rect x="136" y="238" width="34" height="34" fill="#3a6e9e" stroke="#2a5580" stroke-width="2" data-sq="e5" data-type="sea" class="board-cell"/><rect x="170" y="238" width="34" height="34" fill="#3a6e9e" stroke="#2a5580" stroke-width="2" data-sq="f5" data-type="sea" class="board-cell"/><rect x="204" y="238" width="34" height="34" fill="#3a6e9e" stroke="#2a5580" stroke-width="2" data-sq="g5" data-type="sea" class="board-cell"/><rect x="238" y="238" width="34" height="34" fill="#3a6e9e" stroke="#2a5580" stroke-width="2" data-sq="h5" data-type="sea" class="board-cell"/><rect x="0" y="272" width="34" height="34" fill="#3a6e9e" stroke="#2a5580" stroke-width="2" data-sq="a4" data-type="sea" class="board-cell"/><rect x="34" y="272" width="34" height="34" fill="#3a6e9e" stroke="#2a5580" stroke-width="2" data-sq="b4" data-type="sea" class="board-cell"/><rect x="68" y="272" width="34" height="34" fill="#3a6e9e" stroke="#2a5580" stroke-width="2" data-sq="c4" data-type="sea" class="board-cell"/><rect x="102" y="272" width="34" height="34" fill="#3a6e9e" stroke="#2a5580" stroke-width="2" data-sq="d4" data-type="sea" class="board-cell"/><rect x="136" y="272" width="34" height="34" fill="#3a6e9e" stroke="#2a5580" stroke-width="2" data-sq="e4" data-type="sea" class="board-cell"/><rect x="170" y="272" width="34" height="34" fill="#3a6e9e" stroke="#2a5580" stroke-width="2" data-sq="f4" data-type="sea" class="board-cell"/><rect x="204" y="272" width="34" height="34" fill="#3a6e9e" stroke="#2a5580" stroke-width="2" data-sq="g4" data-type="sea" class="board-cell"/><rect x="238" y="272" width="34" height="34" fill="#3a6e9e" stroke="#2a5580" stroke-width="2" data-sq="h4" data-type="sea" class="board-cell"/><rect x="0" y="306" width="34" height="34" fill="#5a8ab5" stroke="#3a6a95" stroke-width="2" data-sq="a3" data-type="harbour" class="board-cell"/><rect x="34" y="306" width="34" height="34" fill="#5a8ab5" stroke="#3a6a95" stroke-width="2" data-sq="b3" data-type="harbour" class="board-cell"/><rect x="68" y="306" width="34" height="34" fill="#5a8ab5" stroke="#3a6a95" stroke-width="2" data-sq="c3" data-type="harbour" class="board-cell"/><rect x="102" y="306" width="34" height="34" fill="#3a6e9e" stroke="#2a5580" stroke-width="2" data-sq="d3" data-type="sea" class="board-cell"/><rect x="136" y="306" width="34" height="34" fill="#3a6e9e" stroke="#2a5580" stroke-width="2" data-sq="e3" data-type="sea" class="board-cell"/><rect x="170" y="306" width="34" height="34" fill="#3a6e9e" stroke="#2a5580" stroke-width="2" data-sq="f3" data-type="sea" class="board-cell"/><rect x="204" y="306" width="34" height="34" fill="#3a6e9e" stroke="#2a5580" stroke-width="2" data-sq="g3" data-type="sea" class="board-cell"/><rect x="238" y="306" width="34" height="34" fill="#3a6e9e" stroke="#2a5580" stroke-width="2" data-sq="h3" data-type="sea" class="board-cell"/><rect x="0" y="340" width="34" height="34" fill="#5a8ab5" stroke="#3a6a95" stroke-width="2" data-sq="a2" data-type="harbour" class="board-cell"/><rect x="34" y="340" width="34" height="34" fill="#5a8ab5" stroke="#3a6a95" stroke-width="2" data-sq="b2" data-type="harbour" class="board-cell"/><rect x="68" y="340" width="34" height="34" fill="#5a8ab5" stroke="#3a6a95" stroke-width="2" data-sq="c2" data-type="harbour" class="board-cell"/><rect x="102" y="340" width="34" height="34" fill="#3a6e9e" stroke="#2a5580" stroke-width="2" data-sq="d2" data-type="sea" class="board-cell"/><rect x="136" y="340" width="34" height="34" fill="#3a6e9e" stroke="#2a5580" stroke-width="2" data-sq="e2" data-type="sea" class="board-cell"/><rect x="170" y="340" width="34" height="34" fill="#3a6e9e" stroke="#2a5580" stroke-width="2" data-sq="f2" data-type="sea" class="board-cell"/><rect x="204" y="340" width="34" height="34" fill="#3a6e9e" stroke="#2a5580" stroke-width="2" data-sq="g2" data-type="sea" class="board-cell"/><rect x="238" y="340" width="34" height="34" fill="#3a6e9e" stroke="#2a5580" stroke-width="2" data-sq="h2" data-type="sea" class="board-cell"/><rect x="0" y="374" width="34" height="34" fill="#5a8ab5" stroke="#3a6a95" stroke-width="2" data-sq="a1" data-type="harbour" class="board-cell"/><rect x="34" y="374" width="34" height="34" fill="#5a8ab5" stroke="#3a6a95" stroke-width="2" data-sq="b1" data-type="harbour" class="board-cell"/><rect x="68" y="374" width="34" height="34" fill="#c8a832" stroke="#9a8020" stroke-width="2" data-sq="c1" data-type="base" class="board-cell"/><rect x="102" y="374" width="34" height="34" fill="#3a6e9e" stroke="#2a5580" stroke-width="2" data-sq="d1" data-type="sea" class="board-cell"/><rect x="136" y="374" width="34" height="34" fill="#3a6e9e" stroke="#2a5580" stroke-width="2" data-sq="e1" data-type="sea" class="board-cell"/><rect x="170" y="374" width="34" height="34" fill="#3a6e9e" stroke="#2a5580" stroke-width="2" data-sq="f1" data-type="sea" class="board-cell"/><rect x="204" y="374" width="34" height="34" fill="#3a6e9e" stroke="#2a5580" stroke-width="2" data-sq="g1" data-type="sea" class="board-cell"/><rect x="238" y="374" width="34" height="34" fill="#3a6e9e" stroke="#2a5580" stroke-width="2" data-sq="h1" data-type="sea" class="board-cell"/>
</svg>