<svg xmlns="http://www.w3.org/2000/svg" viewBox="0 0 616 616" width="616" height="616">
<rect x="0" y="0" width="616" height="616" fill="#1b5e3a" rx="16"/><rect x="20" y="20" width="576" height="576" fill="#2d7a4f" rx="12" stroke="#1a4a2e" stroke-width="2"/><g data-zone="Wall — South side · 22 tiles (11 stacks of 2) · draw from here"><g data-card="Stack 1 · 2 tiles high · BREAK"><rect x="133" y="480" width="30" height="40" fill="#d4c9a8" rx="3" stroke="#a89060" stroke-width="0.5"/><rect x="133" y="483" width="30" height="40" fill="#f0ede6" rx="3" stroke="#bbb" stroke-width="0.6"/><rect x="133" y="483" width="30" height="40" fill="none" rx="3" stroke="#ffcc00" stroke-width="1.5"/></g><g data-card="Stack 2 · 2 tiles high"><rect x="165" y="480" width="30" height="40" fill="#d4c9a8" rx="3" stroke="#a89060" stroke-width="0.5"/><rect x="165" y="483" width="30" height="40" fill="#f0ede6" rx="3" stroke="#bbb" stroke-width="0.6"/></g><g data-card="Stack 3 · 2 tiles high"><rect x="197" y="480" width="30" height="40" fill="#d4c9a8" rx="3" stroke="#a89060" stroke-width="0.5"/><rect x="197" y="483" width="30" height="40" fill="#f0ede6" rx="3" stroke="#bbb" stroke-width="0.6"/></g><g data-card="Stack 4 · 2 tiles high"><rect x="229" y="480" width="30" height="40" fill="#d4c9a8" rx="3" stroke="#a89060" stroke-width="0.5"/><rect x="229" y="483" width="30" height="40" fill="#f0ede6" rx="3" stroke="#bbb" stroke-width="0.6"/></g><g data-card="Stack 5 · 2 tiles high"><rect x="261" y="480" width="30" height="40" fill="#d4c9a8" rx="3" stroke="#a89060" stroke-width="0.5"/><rect x="261" y="483" width="30" height="40" fill="#f0ede6" rx="3" stroke="#bbb" stroke-width="0.6"/></g><g data-card="Stack 6 · 2 tiles high"><rect x="293" y="480" width="30" height="40" fill="#d4c9a8" rx="3" stroke="#a89060" stroke-width="0.5"/><rect x="293" y="483" width="30" height="40" fill="#f0ede6" rx="3" stroke="#bbb" stroke-width="0.6"/></g><g data-card="Stack 7 · 2 tiles high"><rect x="325" y="480" width="30" height="40" fill="#d4c9a8" rx="3" stroke="#a89060" stroke-width="0.5"/><rect x="325" y="483" width="30" height="40" fill="#f0ede6" rx="3" stroke="#bbb" stroke-width="0.6"/></g><g data-card="Stack 8 · 2 tiles high"><rect x="357" y="480" width="30" height="40" fill="#d4c9a8" rx="3" stroke="#a89060" stroke-width="0.5"/><rect x="357" y="483" width="30" height="40" fill="#f0ede6" rx="3" stroke="#bbb" stroke-width="0.6"/></g><g data-card="Stack 9 · 2 tiles high"><rect x="389" y="480" width="30" height="40" fill="#d4c9a8" rx="3" stroke="#a89060" stroke-width="0.5"/><rect x="389" y="483" width="30" height="40" fill="#f0ede6" rx="3" stroke="#bbb" stroke-width="0.6"/></g><g data-card="Stack 10 · 2 tiles high"><rect x="421" y="480" width="30" height="40" fill="#d4c9a8" rx="3" stroke="#a89060" stroke-width="0.5"/><rect x="421" y="483" width="30" height="40" fill="#f0ede6" rx="3" stroke="#bbb" stroke-width="0.6"/></g><g data-card="Stack 11 · 2 tiles high"><rect x="453" y="480" width="30" height="40" fill="#d4c9a8" rx="3" stroke="#a89060" stroke-width="0.5"/><rect x="453" y="483" width="30" height="40" fill="#f0ede6" rx="3" stroke="#bbb" stroke-width="0.6"/></g></g><g data-zone="Wall — East side · 22 tiles (11 stacks of 2)"><g data-card="Stack 12 · 2 tiles high"><rect x="480" y="453" width="40" height="30" fill="#d4c9a8" rx="3" stroke="#a89060" stroke-width="0.5"/><rect x="483" y="453" width="40" height="30" fill="#f0ede6" rx="3" stroke="#bbb" stroke-width="0.6"/></g><g data-card="Stack 13 · 2 tiles high"><rect x="480" y="421" width="40" height="30" fill="#d4c9a8" rx="3" stroke="#a89060" stroke-width="0.5"/><rect x="483" y="421" width="40" height="30" fill="#f0ede6" rx="3" stroke="#bbb" stroke-width="0.6"/></g><g data-card="Stack 14 · 2 tiles high"><rect x="480" y="389" width="40" height="30" fill="#d4c9a8" rx="3" stroke="#a89060" stroke-width="0.5"/><rect x="483" y="389" width="40" height="30" fill="#f0ede6" rx="3" stroke="#bbb" stroke-width="0.6"/></g><g data-card="Stack 15 · 2 tiles high"><rect x="480" y="357" width="40" height="30" fill="#d4c9a8" rx="3" stroke="#a89060" stroke-width="0.5"/><rect x="483" y="357" width="40" height="30" fill="#f0ede6" rx="3" stroke="#bbb" stroke-width="0.6"/></g><g data-card="Stack 16 · 2 tiles high"><rect x="480" y="325" width="40" height="30" fill="#d4c9a8" rx="3" stroke="#a89060" stroke-width="0.5"/><rect x="483" y="325" width="40" height="30" fill="#f0ede6" rx="3" stroke="#bbb" stroke-width="0.6"/></g><g data-card="Stack 17 · 2 tiles high"><rect x="480" y="293" width="40" height="30" fill="#d4c9a8" rx="3" stroke="#a89060" stroke-width="0.5"/><rect x="483" y="293" width="40" height="30" fill="#f0ede6" rx="3" stroke="#bbb" stroke-width="0.6"/></g><g data-card="Stack 18 · 2 tiles high"><rect x="480" y="261" width="40" height="30" fill="#d4c9a8" rx="3" stroke="#a89060" stroke-width="0.5"/><rect x="483" y="261" width="40" height="30" fill="#f0ede6" rx="3" stroke="#bbb" stroke-width="0.6"/></g><g data-card="Stack 19 · 2 tiles high"><rect x="480" y="229" width="40" height="30" fill="#d4c9a8" rx="3" stroke="#a89060" stroke-width="0.5"/><rect x="483" y="229" width="40" height="30" fill="#f0ede6" rx="3" stroke="#bbb" stroke-width="0.6"/></g><g data-card="Stack 20 · 2 tiles high"><rect x="480" y="197" width="40" height="30" fill="#d4c9a8" rx="3" stroke="#a89060" stroke-width="0.5"/><rect x="483" y="197" width="40" height="30" fill="#f0ede6" rx="3" stroke="#bbb" stroke-width="0.6"/></g><g data-card="Stack 21 · 2 tiles high"><rect x="480" y="165" width="40" height="30" fill="#d4c9a8" rx="3" stroke="#a89060" stroke-width="0.5"/><rect x="483" y="165" width="40" height="30" fill="#f0ede6" rx="3" stroke="#bbb" stroke-width="0.6"/></g><g data-card="Stack 22 · 2 tiles high"><rect x="480" y="133" width="40" height="30" fill="#d4c9a8" rx="3" stroke="#a89060" stroke-width="0.5"/><rect x="483" y="133" width="40" height="30" fill="#f0ede6" rx="3" stroke="#bbb" stroke-width="0.6"/></g></g><g data-zone="Wall — North side · 22 tiles (11 stacks of 2)"><g data-card="Stack 23 · 2 tiles high"><rect x="453" y="96" width="30" height="40" fill="#d4c9a8" rx="3" stroke="#a89060" stroke-width="0.5"/><rect x="453" y="93" width="30" height="40" fill="#f0ede6" rx="3" stroke="#bbb" stroke-width="0.6"/></g><g data-card="Stack 24 · 2 tiles high"><rect x="421" y="96" width="30" height="40" fill="#d4c9a8" rx="3" stroke="#a89060" stroke-width="0.5"/><rect x="421" y="93" width="30" height="40" fill="#f0ede6" rx="3" stroke="#bbb" stroke-width="0.6"/></g><g data-card="Stack 25 · 2 tiles high"><rect x="389" y="96" width="30" height="40" fill="#d4c9a8" rx="3" stroke="#a89060" stroke-width="0.5"/><rect x="389" y="93" width="30" height="40" fill="#f0ede6" rx="3" stroke="#bbb" stroke-width="0.6"/></g><g data-card="Stack 26 · 2 tiles high"><rect x="357" y="96" width="30" height="40" fill="#d4c9a8" rx="3" stroke="#a89060" stroke-width="0.5"/><rect x="357" y="93" width="30" height="40" fill="#f0ede6" rx="3" stroke="#bbb" stroke-width="0.6"/></g><g data-card="Stack 27 · 2 tiles high"><rect x="325" y="96" width="30" height="40" fill="#d4c9a8" rx="3" stroke="#a89060" stroke-width="0.5"/><rect x="325" y="93" width="30" height="40" fill="#f0ede6" rx="3" stroke="#bbb" stroke-width="0.6"/></g><g data-card="Stack 28 · 2 tiles high"><rect x="293" y="96" width="30" height="40" fill="#d4c9a8" rx="3" stroke="#a89060" stroke-width="0.5"/><rect x="293" y="93" width="30" height="40" fill="#f0ede6" rx="3" stroke="#bbb" stroke-width="0.6"/></g><g data-card="Stack 29 · 2 tiles high"><rect x="261" y="96" width="30" height="40" fill="#d4c9a8" rx="3" stroke="#a89060" stroke-width="0.5"/><rect x="261" y="93" width="30" height="40" fill="#f0ede6" rx="3" stroke="#bbb" stroke-width="0.6"/></g><g data-card="Stack 30 · 2 tiles high"><rect x="229" y="96" width="30" height="40" fill="#d4c9a8" rx="3" stroke="#a89060" stroke-width="0.5"/><rect x="229" y="93" width="30" height="40" fill="#f0ede6" rx="3" stroke="#bbb" stroke-width="0.6"/></g><g data-card="Stack 31 · 2 tiles high"><rect x="197" y="96" width="30" height="40" fill="#d4c9a8" rx="3" stroke="#a89060" stroke-width="0.5"/><rect x="197" y="93" width="30" height="40" fill="#f0ede6" rx="3" stroke="#bbb" stroke-width="0.6"/></g><g data-card="Stack 32 · 2 tiles high"><rect x="165" y="96" width="30" height="40" fill="#d4c9a8" rx="3" stroke="#a89060" stroke-width="0.5"/><rect x="165" y="93" width="30" height="40" fill="#f0ede6" rx="3" stroke="#bbb" stroke-width="0.6"/></g><g data-card="Stack 33 · 2 tiles high"><rect x="133" y="96" width="30" height="40" fill="#d4c9a8" rx="3" stroke="#a89060" stroke-width="0.5"/><rect x="133" y="93" width="30" height="40" fill="#f0ede6" rx="3" stroke="#bbb" stroke-width="0.6"/></g></g><g data-zone="Wall — West side · 18 tiles (9 stacks of 2)"><g data-card="Stack 34 · 2 tiles high"><rect x="96" y="133" width="40" height="30" fill="#d4c9a8" rx="3" stroke="#a89060" stroke-width="0.5"/><rect x="93" y="133" width="40" height="30" fill="#f0ede6" rx="3" stroke="#bbb" stroke-width="0.6"/></g><g data-card="Stack 35 · 2 tiles high"><rect x="96" y="165" width="40" height="30" fill="#d4c9a8" rx="3" stroke="#a89060" stroke-width="0.5"/><rect x="93" y="165" width="40" height="30" fill="#f0ede6" rx="3" stroke="#bbb" stroke-width="0.6"/></g><g data-card="Stack 36 · 2 tiles high"><rect x="96" y="197" width="40" height="30" fill="#d4c9a8" rx="3" stroke="#a89060" stroke-width="0.5"/><rect x="93" y="197" width="40" height="30" fill="#f0ede6" rx="3" stroke="#bbb" stroke-width="0.6"/></g><g data-card="Stack 37 · 2 tiles high"><rect x="96" y="229" width="40" height="30" fill="#d4c9a8" rx="3" stroke="#a89060" stroke-width="0.5"/><rect x="93" y="229" width="40" height="30" fill="#f0ede6" rx="3" stroke="#bbb" stroke-width="0.6"/></g><g data-card="Stack 38 · 2 tiles high"><rect x="96" y="261" width="40" height="30" fill="#d4c9a8" rx="3" stroke="#a89060" stroke-width="0.5"/><rect x="93" y="261" width="40" height="30" fill="#f0ede6" rx="3" stroke="#bbb" stroke-width="0.6"/></g><g data-card="Stack 39 · 2 tiles high"><rect x="96" y="293" width="40" height="30" fill="#d4c9a8" rx="3" stroke="#a89060" stroke-width="0.5"/><rect x="93" y="293" width="40" height="30" fill="#f0ede6" rx="3" stroke="#bbb" stroke-width="0.6"/></g><g data-card="Stack 40 · 2 tiles high"><rect x="96" y="325" width="40" height="30" fill="#d4c9a8" rx="3" stroke="#a89060" stroke-width="0.5"/><rect x="93" y="325" width="40" height="30" fill="#f0ede6" rx="3" stroke="#bbb" stroke-width="0.6"/></g><g data-card="Stack 41 · 2 tiles high"><rect x="96" y="357" width="40" height="30" fill="#d4c9a8" rx="3" stroke="#a89060" stroke-width="0.5"/><rect x="93" y="357" width="40" height="30" fill="#f0ede6" rx="3" stroke="#bbb" stroke-width="0.6"/></g><g data-card="Stack 42 · 2 tiles high"><rect x="96" y="389" width="40" height="30" fill="#d4c9a8" rx="3" stroke="#a89060" stroke-width="0.5"/><rect x="93" y="389" width="40" height="30" fill="#f0ede6" rx="3" stroke="#bbb" stroke-width="0.6"/></g></g><g data-zone="South (you) — 13 tiles (visible)"><g data-card="north wind"><rect x="100" y="536" width="30" height="40" fill="#f0ede6" rx="4" stroke="#bbb" stroke-width="0.8"/><image href="../pieces/sets/mahjong-regular/Pei.svg" x="102" y="538" width="26" height="36" preserveAspectRatio="xMidYMid meet"/></g><g data-card="7 circles"><rect x="132" y="536" width="30" height="40" fill="#f0ede6" rx="4" stroke="#bbb" stroke-width="0.8"/><image href="../pieces/sets/mahjong-regular/Pin7.svg" x="134" y="538" width="26" height="36" preserveAspectRatio="xMidYMid meet"/></g><g data-card="8 characters"><rect x="164" y="536" width="30" height="40" fill="#f0ede6" rx="4" stroke="#bbb" stroke-width="0.8"/><image href="../pieces/sets/mahjong-regular/Man8.svg" x="166" y="538" width="26" height="36" preserveAspectRatio="xMidYMid meet"/></g><g data-card="4 characters"><rect x="196" y="536" width="30" height="40" fill="#f0ede6" rx="4" stroke="#bbb" stroke-width="0.8"/><image href="../pieces/sets/mahjong-regular/Man4.svg" x="198" y="538" width="26" height="36" preserveAspectRatio="xMidYMid meet"/></g><g data-card="2 bamboo"><rect x="228" y="536" width="30" height="40" fill="#f0ede6" rx="4" stroke="#bbb" stroke-width="0.8"/><image href="../pieces/sets/mahjong-regular/Sou2.svg" x="230" y="538" width="26" height="36" preserveAspectRatio="xMidYMid meet"/></g><g data-card="5 bamboo"><rect x="260" y="536" width="30" height="40" fill="#f0ede6" rx="4" stroke="#bbb" stroke-width="0.8"/><image href="../pieces/sets/mahjong-regular/Sou5.svg" x="262" y="538" width="26" height="36" preserveAspectRatio="xMidYMid meet"/></g><g data-card="8 circles"><rect x="292" y="536" width="30" height="40" fill="#f0ede6" rx="4" stroke="#bbb" stroke-width="0.8"/><image href="../pieces/sets/mahjong-regular/Pin8.svg" x="294" y="538" width="26" height="36" preserveAspectRatio="xMidYMid meet"/></g><g data-card="east wind"><rect x="324" y="536" width="30" height="40" fill="#f0ede6" rx="4" stroke="#bbb" stroke-width="0.8"/><image href="../pieces/sets/mahjong-regular/Ton.svg" x="326" y="538" width="26" height="36" preserveAspectRatio="xMidYMid meet"/></g><g data-card="7 characters"><rect x="356" y="536" width="30" height="40" fill="#f0ede6" rx="4" stroke="#bbb" stroke-width="0.8"/><image href="../pieces/sets/mahjong-regular/Man7.svg" x="358" y="538" width="26" height="36" preserveAspectRatio="xMidYMid meet"/></g><g data-card="9 circles"><rect x="388" y="536" width="30" height="40" fill="#f0ede6" rx="4" stroke="#bbb" stroke-width="0.8"/><image href="../pieces/sets/mahjong-regular/Pin9.svg" x="390" y="538" width="26" height="36" preserveAspectRatio="xMidYMid meet"/></g><g data-card="7 characters"><rect x="420" y="536" width="30" height="40" fill="#f0ede6" rx="4" stroke="#bbb" stroke-width="0.8"/><image href="../pieces/sets/mahjong-regular/Man7.svg" x="422" y="538" width="26" height="36" preserveAspectRatio="xMidYMid meet"/></g><g data-card="3 bamboo"><rect x="452" y="536" width="30" height="40" fill="#f0ede6" rx="4" stroke="#bbb" stroke-width="0.8"/><image href="../pieces/sets/mahjong-regular/Sou3.svg" x="454" y="538" width="26" height="36" preserveAspectRatio="xMidYMid meet"/></g><g data-card="1 circles"><rect x="484" y="536" width="30" height="40" fill="#f0ede6" rx="4" stroke="#bbb" stroke-width="0.8"/><image href="../pieces/sets/mahjong-regular/Pin1.svg" x="486" y="538" width="26" height="36" preserveAspectRatio="xMidYMid meet"/></g><text x="308" y="592" text-anchor="middle" font-size="10" fill="rgba(255,255,255,0.5)" font-family="system-ui">South (you) (13)</text></g><g data-zone="East — 13 tiles (hidden)"><g data-card="Face down"><rect x="536" y="484" width="40" height="30" fill="#f0ede6" rx="4" stroke="#bbb" stroke-width="0.8"/><rect x="538" y="486" width="36" height="26" fill="#c8a96e" rx="2" opacity="0.4"/></g><g data-card="Face down"><rect x="536" y="452" width="40" height="30" fill="#f0ede6" rx="4" stroke="#bbb" stroke-width="0.8"/><rect x="538" y="454" width="36" height="26" fill="#c8a96e" rx="2" opacity="0.4"/></g><g data-card="Face down"><rect x="536" y="420" width="40" height="30" fill="#f0ede6" rx="4" stroke="#bbb" stroke-width="0.8"/><rect x="538" y="422" width="36" height="26" fill="#c8a96e" rx="2" opacity="0.4"/></g><g data-card="Face down"><rect x="536" y="388" width="40" height="30" fill="#f0ede6" rx="4" stroke="#bbb" stroke-width="0.8"/><rect x="538" y="390" width="36" height="26" fill="#c8a96e" rx="2" opacity="0.4"/></g><g data-card="Face down"><rect x="536" y="356" width="40" height="30" fill="#f0ede6" rx="4" stroke="#bbb" stroke-width="0.8"/><rect x="538" y="358" width="36" height="26" fill="#c8a96e" rx="2" opacity="0.4"/></g><g data-card="Face down"><rect x="536" y="324" width="40" height="30" fill="#f0ede6" rx="4" stroke="#bbb" stroke-width="0.8"/><rect x="538" y="326" width="36" height="26" fill="#c8a96e" rx="2" opacity="0.4"/></g><g data-card="Face down"><rect x="536" y="292" width="40" height="30" fill="#f0ede6" rx="4" stroke="#bbb" stroke-width="0.8"/><rect x="538" y="294" width="36" height="26" fill="#c8a96e" rx="2" opacity="0.4"/></g><g data-card="Face down"><rect x="536" y="260" width="40" height="30" fill="#f0ede6" rx="4" stroke="#bbb" stroke-width="0.8"/><rect x="538" y="262" width="36" height="26" fill="#c8a96e" rx="2" opacity="0.4"/></g><g data-card="Face down"><rect x="536" y="228" width="40" height="30" fill="#f0ede6" rx="4" stroke="#bbb" stroke-width="0.8"/><rect x="538" y="230" width="36" height="26" fill="#c8a96e" rx="2" opacity="0.4"/></g><g data-card="Face down"><rect x="536" y="196" width="40" height="30" fill="#f0ede6" rx="4" stroke="#bbb" stroke-width="0.8"/><rect x="538" y="198" width="36" height="26" fill="#c8a96e" rx="2" opacity="0.4"/></g><g data-card="Face down"><rect x="536" y="164" width="40" height="30" fill="#f0ede6" rx="4" stroke="#bbb" stroke-width="0.8"/><rect x="538" y="166" width="36" height="26" fill="#c8a96e" rx="2" opacity="0.4"/></g><g data-card="Face down"><rect x="536" y="132" width="40" height="30" fill="#f0ede6" rx="4" stroke="#bbb" stroke-width="0.8"/><rect x="538" y="134" width="36" height="26" fill="#c8a96e" rx="2" opacity="0.4"/></g><g data-card="Face down"><rect x="536" y="100" width="40" height="30" fill="#f0ede6" rx="4" stroke="#bbb" stroke-width="0.8"/><rect x="538" y="102" width="36" height="26" fill="#c8a96e" rx="2" opacity="0.4"/></g><text x="592" y="308" text-anchor="middle" font-size="10" fill="rgba(255,255,255,0.5)" font-family="system-ui" transform="rotate(-90 592 308)">East (13)</text></g><g data-zone="North — 13 tiles (hidden)"><g data-card="Face down"><rect x="484" y="40" width="30" height="40" fill="#f0ede6" rx="4" stroke="#bbb" stroke-width="0.8"/><rect x="486" y="42" width="26" height="36" fill="#c8a96e" rx="2" opacity="0.4"/></g><g data-card="Face down"><rect x="452" y="40" width="30" height="40" fill="#f0ede6" rx="4" stroke="#bbb" stroke-width="0.8"/><rect x="454" y="42" width="26" height="36" fill="#c8a96e" rx="2" opacity="0.4"/></g><g data-card="Face down"><rect x="420" y="40" width="30" height="40" fill="#f0ede6" rx="4" stroke="#bbb" stroke-width="0.8"/><rect x="422" y="42" width="26" height="36" fill="#c8a96e" rx="2" opacity="0.4"/></g><g data-card="Face down"><rect x="388" y="40" width="30" height="40" fill="#f0ede6" rx="4" stroke="#bbb" stroke-width="0.8"/><rect x="390" y="42" width="26" height="36" fill="#c8a96e" rx="2" opacity="0.4"/></g><g data-card="Face down"><rect x="356" y="40" width="30" height="40" fill="#f0ede6" rx="4" stroke="#bbb" stroke-width="0.8"/><rect x="358" y="42" width="26" height="36" fill="#c8a96e" rx="2" opacity="0.4"/></g><g data-card="Face down"><rect x="324" y="40" width="30" height="40" fill="#f0ede6" rx="4" stroke="#bbb" stroke-width="0.8"/><rect x="326" y="42" width="26" height="36" fill="#c8a96e" rx="2" opacity="0.4"/></g><g data-card="Face down"><rect x="292" y="40" width="30" height="40" fill="#f0ede6" rx="4" stroke="#bbb" stroke-width="0.8"/><rect x="294" y="42" width="26" height="36" fill="#c8a96e" rx="2" opacity="0.4"/></g><g data-card="Face down"><rect x="260" y="40" width="30" height="40" fill="#f0ede6" rx="4" stroke="#bbb" stroke-width="0.8"/><rect x="262" y="42" width="26" height="36" fill="#c8a96e" rx="2" opacity="0.4"/></g><g data-card="Face down"><rect x="228" y="40" width="30" height="40" fill="#f0ede6" rx="4" stroke="#bbb" stroke-width="0.8"/><rect x="230" y="42" width="26" height="36" fill="#c8a96e" rx="2" opacity="0.4"/></g><g data-card="Face down"><rect x="196" y="40" width="30" height="40" fill="#f0ede6" rx="4" stroke="#bbb" stroke-width="0.8"/><rect x="198" y="42" width="26" height="36" fill="#c8a96e" rx="2" opacity="0.4"/></g><g data-card="Face down"><rect x="164" y="40" width="30" height="40" fill="#f0ede6" rx="4" stroke="#bbb" stroke-width="0.8"/><rect x="166" y="42" width="26" height="36" fill="#c8a96e" rx="2" opacity="0.4"/></g><g data-card="Face down"><rect x="132" y="40" width="30" height="40" fill="#f0ede6" rx="4" stroke="#bbb" stroke-width="0.8"/><rect x="134" y="42" width="26" height="36" fill="#c8a96e" rx="2" opacity="0.4"/></g><g data-card="Face down"><rect x="100" y="40" width="30" height="40" fill="#f0ede6" rx="4" stroke="#bbb" stroke-width="0.8"/><rect x="102" y="42" width="26" height="36" fill="#c8a96e" rx="2" opacity="0.4"/></g><text x="308" y="32" text-anchor="middle" font-size="10" fill="rgba(255,255,255,0.5)" font-family="system-ui">North (13)</text></g><g data-zone="West — 13 tiles (hidden)"><g data-card="Face down"><rect x="40" y="100" width="40" height="30" fill="#f0ede6" rx="4" stroke="#bbb" stroke-width="0.8"/><rect x="42" y="102" width="36" height="26" fill="#c8a96e" rx="2" opacity="0.4"/></g><g data-card="Face down"><rect x="40" y="132" width="40" height="30" fill="#f0ede6" rx="4" stroke="#bbb" stroke-width="0.8"/><rect x="42" y="134" width="36" height="26" fill="#c8a96e" rx="2" opacity="0.4"/></g><g data-card="Face down"><rect x="40" y="164" width="40" height="30" fill="#f0ede6" rx="4" stroke="#bbb" stroke-width="0.8"/><rect x="42" y="166" width="36" height="26" fill="#c8a96e" rx="2" opacity="0.4"/></g><g data-card="Face down"><rect x="40" y="196" width="40" height="30" fill="#f0ede6" rx="4" stroke="#bbb" stroke-width="0.8"/><rect x="42" y="198" width="36" height="26" fill="#c8a96e" rx="2" opacity="0.4"/></g><g data-card="Face down"><rect x="40" y="228" width="40" height="30" fill="#f0ede6" rx="4" stroke="#bbb" stroke-width="0.8"/><rect x="42" y="230" width="36" height="26" fill="#c8a96e" rx="2" opacity="0.4"/></g><g data-card="Face down"><rect x="40" y="260" width="40" height="30" fill="#f0ede6" rx="4" stroke="#bbb" stroke-width="0.8"/><rect x="42" y="262" width="36" height="26" fill="#c8a96e" rx="2" opacity="0.4"/></g><g data-card="Face down"><rect x="40" y="292" width="40" height="30" fill="#f0ede6" rx="4" stroke="#bbb" stroke-width="0.8"/><rect x="42" y="294" width="36" height="26" fill="#c8a96e" rx="2" opacity="0.4"/></g><g data-card="Face down"><rect x="40" y="324" width="40" height="30" fill="#f0ede6" rx="4" stroke="#bbb" stroke-width="0.8"/><rect x="42" y="326" width="36" height="26" fill="#c8a96e" rx="2" opacity="0.4"/></g><g data-card="Face down"><rect x="40" y="356" width="40" height="30" fill="#f0ede6" rx="4" stroke="#bbb" stroke-width="0.8"/><rect x="42" y="358" width="36" height="26" fill="#c8a96e" rx="2" opacity="0.4"/></g><g data-card="Face down"><rect x="40" y="388" width="40" height="30" fill="#f0ede6" rx="4" stroke="#bbb" stroke-width="0.8"/><rect x="42" y="390" width="36" height="26" fill="#c8a96e" rx="2" opacity="0.4"/></g><g data-card="Face down"><rect x="40" y="420" width="40" height="30" fill="#f0ede6" rx="4" stroke="#bbb" stroke-width="0.8"/><rect x="42" y="422" width="36" height="26" fill="#c8a96e" rx="2" opacity="0.4"/></g><g data-card="Face down"><rect x="40" y="452" width="40" height="30" fill="#f0ede6" rx="4" stroke="#bbb" stroke-width="0.8"/><rect x="42" y="454" width="36" height="26" fill="#c8a96e" rx="2" opacity="0.4"/></g><g data-card="Face down"><rect x="40" y="484" width="40" height="30" fill="#f0ede6" rx="4" stroke="#bbb" stroke-width="0.8"/><rect x="42" y="486" width="36" height="26" fill="#c8a96e" rx="2" opacity="0.4"/></g><text x="32" y="308" text-anchor="middle" font-size="10" fill="rgba(255,255,255,0.5)" font-family="system-ui" transform="rotate(-90 32 308)">West (13)</text></g><text x="308" y="610" text-anchor="middle" font-size="9" fill="rgba(255,255,255,0.3)" font-family="system-ui">Mahjong 136 · seed: 42</text>
</svg>