<svg xmlns="http://www.w3.org/2000/svg" viewBox="0 0 642 642" width="642" height="642">
<rect x="0" y="0" width="642" height="642" fill="#1b5e3a" rx="16"/><rect x="20" y="20" width="602" height="602" fill="#2d7a4f" rx="12" stroke="#1a4a2e" stroke-width="2"/><g data-zone="Wall — South side · 24 tiles (12 stacks of 2)"><g data-card="Stack 1 · 2 tiles high"><rect x="130" y="509" width="30" height="40" fill="#d4c9a8" rx="3" stroke="#a89060" stroke-width="0.5"/><rect x="130" y="512" width="30" height="40" fill="#f0ede6" rx="3" stroke="#bbb" stroke-width="0.6"/></g><g data-card="Stack 2 · 2 tiles high"><rect x="162" y="509" width="30" height="40" fill="#d4c9a8" rx="3" stroke="#a89060" stroke-width="0.5"/><rect x="162" y="512" width="30" height="40" fill="#f0ede6" rx="3" stroke="#bbb" stroke-width="0.6"/></g><g data-card="Stack 3 · 2 tiles high"><rect x="194" y="509" width="30" height="40" fill="#d4c9a8" rx="3" stroke="#a89060" stroke-width="0.5"/><rect x="194" y="512" width="30" height="40" fill="#f0ede6" rx="3" stroke="#bbb" stroke-width="0.6"/></g><g data-card="Stack 4 · 2 tiles high"><rect x="226" y="509" width="30" height="40" fill="#d4c9a8" rx="3" stroke="#a89060" stroke-width="0.5"/><rect x="226" y="512" width="30" height="40" fill="#f0ede6" rx="3" stroke="#bbb" stroke-width="0.6"/></g><g data-card="Stack 5 · 2 tiles high"><rect x="258" y="509" width="30" height="40" fill="#d4c9a8" rx="3" stroke="#a89060" stroke-width="0.5"/><rect x="258" y="512" width="30" height="40" fill="#f0ede6" rx="3" stroke="#bbb" stroke-width="0.6"/></g><g data-card="Stack 6 · 2 tiles high"><rect x="290" y="509" width="30" height="40" fill="#d4c9a8" rx="3" stroke="#a89060" stroke-width="0.5"/><rect x="290" y="512" width="30" height="40" fill="#f0ede6" rx="3" stroke="#bbb" stroke-width="0.6"/></g><g data-card="Stack 7 · 2 tiles high"><rect x="322" y="509" width="30" height="40" fill="#d4c9a8" rx="3" stroke="#a89060" stroke-width="0.5"/><rect x="322" y="512" width="30" height="40" fill="#f0ede6" rx="3" stroke="#bbb" stroke-width="0.6"/></g><g data-card="Stack 8 · 2 tiles high"><rect x="354" y="509" width="30" height="40" fill="#d4c9a8" rx="3" stroke="#a89060" stroke-width="0.5"/><rect x="354" y="512" width="30" height="40" fill="#f0ede6" rx="3" stroke="#bbb" stroke-width="0.6"/></g><g data-card="Stack 9 · 2 tiles high"><rect x="386" y="509" width="30" height="40" fill="#d4c9a8" rx="3" stroke="#a89060" stroke-width="0.5"/><rect x="386" y="512" width="30" height="40" fill="#f0ede6" rx="3" stroke="#bbb" stroke-width="0.6"/></g><g data-card="Stack 10 · 2 tiles high"><rect x="418" y="509" width="30" height="40" fill="#d4c9a8" rx="3" stroke="#a89060" stroke-width="0.5"/><rect x="418" y="512" width="30" height="40" fill="#f0ede6" rx="3" stroke="#bbb" stroke-width="0.6"/></g><g data-card="Stack 11 · 2 tiles high"><rect x="450" y="509" width="30" height="40" fill="#d4c9a8" rx="3" stroke="#a89060" stroke-width="0.5"/><rect x="450" y="512" width="30" height="40" fill="#f0ede6" rx="3" stroke="#bbb" stroke-width="0.6"/></g><g data-card="Stack 12 · 2 tiles high"><rect x="482" y="509" width="30" height="40" fill="#d4c9a8" rx="3" stroke="#a89060" stroke-width="0.5"/><rect x="482" y="512" width="30" height="40" fill="#f0ede6" rx="3" stroke="#bbb" stroke-width="0.6"/></g></g><g data-zone="Wall — East side · 24 tiles (12 stacks of 2)"><g data-card="Stack 13 · 2 tiles high"><rect x="509" y="482" width="40" height="30" fill="#d4c9a8" rx="3" stroke="#a89060" stroke-width="0.5"/><rect x="512" y="482" width="40" height="30" fill="#f0ede6" rx="3" stroke="#bbb" stroke-width="0.6"/></g><g data-card="Stack 14 · 2 tiles high"><rect x="509" y="450" width="40" height="30" fill="#d4c9a8" rx="3" stroke="#a89060" stroke-width="0.5"/><rect x="512" y="450" width="40" height="30" fill="#f0ede6" rx="3" stroke="#bbb" stroke-width="0.6"/></g><g data-card="Stack 15 · 2 tiles high"><rect x="509" y="418" width="40" height="30" fill="#d4c9a8" rx="3" stroke="#a89060" stroke-width="0.5"/><rect x="512" y="418" width="40" height="30" fill="#f0ede6" rx="3" stroke="#bbb" stroke-width="0.6"/></g><g data-card="Stack 16 · 2 tiles high"><rect x="509" y="386" width="40" height="30" fill="#d4c9a8" rx="3" stroke="#a89060" stroke-width="0.5"/><rect x="512" y="386" width="40" height="30" fill="#f0ede6" rx="3" stroke="#bbb" stroke-width="0.6"/></g><g data-card="Stack 17 · 2 tiles high"><rect x="509" y="354" width="40" height="30" fill="#d4c9a8" rx="3" stroke="#a89060" stroke-width="0.5"/><rect x="512" y="354" width="40" height="30" fill="#f0ede6" rx="3" stroke="#bbb" stroke-width="0.6"/></g><g data-card="Stack 18 · 2 tiles high"><rect x="509" y="322" width="40" height="30" fill="#d4c9a8" rx="3" stroke="#a89060" stroke-width="0.5"/><rect x="512" y="322" width="40" height="30" fill="#f0ede6" rx="3" stroke="#bbb" stroke-width="0.6"/></g><g data-card="Stack 19 · 2 tiles high"><rect x="509" y="290" width="40" height="30" fill="#d4c9a8" rx="3" stroke="#a89060" stroke-width="0.5"/><rect x="512" y="290" width="40" height="30" fill="#f0ede6" rx="3" stroke="#bbb" stroke-width="0.6"/></g><g data-card="Stack 20 · 2 tiles high"><rect x="509" y="258" width="40" height="30" fill="#d4c9a8" rx="3" stroke="#a89060" stroke-width="0.5"/><rect x="512" y="258" width="40" height="30" fill="#f0ede6" rx="3" stroke="#bbb" stroke-width="0.6"/></g><g data-card="Stack 21 · 2 tiles high"><rect x="509" y="226" width="40" height="30" fill="#d4c9a8" rx="3" stroke="#a89060" stroke-width="0.5"/><rect x="512" y="226" width="40" height="30" fill="#f0ede6" rx="3" stroke="#bbb" stroke-width="0.6"/></g><g data-card="Stack 22 · 2 tiles high"><rect x="509" y="194" width="40" height="30" fill="#d4c9a8" rx="3" stroke="#a89060" stroke-width="0.5"/><rect x="512" y="194" width="40" height="30" fill="#f0ede6" rx="3" stroke="#bbb" stroke-width="0.6"/></g><g data-card="Stack 23 · 2 tiles high"><rect x="509" y="162" width="40" height="30" fill="#d4c9a8" rx="3" stroke="#a89060" stroke-width="0.5"/><rect x="512" y="162" width="40" height="30" fill="#f0ede6" rx="3" stroke="#bbb" stroke-width="0.6"/></g><g data-card="Stack 24 · 2 tiles high"><rect x="509" y="130" width="40" height="30" fill="#d4c9a8" rx="3" stroke="#a89060" stroke-width="0.5"/><rect x="512" y="130" width="40" height="30" fill="#f0ede6" rx="3" stroke="#bbb" stroke-width="0.6"/></g></g><g data-zone="Wall — North side · 24 tiles (12 stacks of 2)"><g data-card="Stack 25 · 2 tiles high"><rect x="482" y="93" width="30" height="40" fill="#d4c9a8" rx="3" stroke="#a89060" stroke-width="0.5"/><rect x="482" y="90" width="30" height="40" fill="#f0ede6" rx="3" stroke="#bbb" stroke-width="0.6"/></g><g data-card="Stack 26 · 2 tiles high"><rect x="450" y="93" width="30" height="40" fill="#d4c9a8" rx="3" stroke="#a89060" stroke-width="0.5"/><rect x="450" y="90" width="30" height="40" fill="#f0ede6" rx="3" stroke="#bbb" stroke-width="0.6"/></g><g data-card="Stack 27 · 2 tiles high"><rect x="418" y="93" width="30" height="40" fill="#d4c9a8" rx="3" stroke="#a89060" stroke-width="0.5"/><rect x="418" y="90" width="30" height="40" fill="#f0ede6" rx="3" stroke="#bbb" stroke-width="0.6"/></g><g data-card="Stack 28 · 2 tiles high"><rect x="386" y="93" width="30" height="40" fill="#d4c9a8" rx="3" stroke="#a89060" stroke-width="0.5"/><rect x="386" y="90" width="30" height="40" fill="#f0ede6" rx="3" stroke="#bbb" stroke-width="0.6"/></g><g data-card="Stack 29 · 2 tiles high"><rect x="354" y="93" width="30" height="40" fill="#d4c9a8" rx="3" stroke="#a89060" stroke-width="0.5"/><rect x="354" y="90" width="30" height="40" fill="#f0ede6" rx="3" stroke="#bbb" stroke-width="0.6"/></g><g data-card="Stack 30 · 2 tiles high"><rect x="322" y="93" width="30" height="40" fill="#d4c9a8" rx="3" stroke="#a89060" stroke-width="0.5"/><rect x="322" y="90" width="30" height="40" fill="#f0ede6" rx="3" stroke="#bbb" stroke-width="0.6"/></g><g data-card="Stack 31 · 2 tiles high"><rect x="290" y="93" width="30" height="40" fill="#d4c9a8" rx="3" stroke="#a89060" stroke-width="0.5"/><rect x="290" y="90" width="30" height="40" fill="#f0ede6" rx="3" stroke="#bbb" stroke-width="0.6"/></g><g data-card="Stack 32 · 2 tiles high"><rect x="258" y="93" width="30" height="40" fill="#d4c9a8" rx="3" stroke="#a89060" stroke-width="0.5"/><rect x="258" y="90" width="30" height="40" fill="#f0ede6" rx="3" stroke="#bbb" stroke-width="0.6"/></g><g data-card="Stack 33 · 2 tiles high"><rect x="226" y="93" width="30" height="40" fill="#d4c9a8" rx="3" stroke="#a89060" stroke-width="0.5"/><rect x="226" y="90" width="30" height="40" fill="#f0ede6" rx="3" stroke="#bbb" stroke-width="0.6"/></g><g data-card="Stack 34 · 2 tiles high"><rect x="194" y="93" width="30" height="40" fill="#d4c9a8" rx="3" stroke="#a89060" stroke-width="0.5"/><rect x="194" y="90" width="30" height="40" fill="#f0ede6" rx="3" stroke="#bbb" stroke-width="0.6"/></g><g data-card="Stack 35 · 2 tiles high"><rect x="162" y="93" width="30" height="40" fill="#d4c9a8" rx="3" stroke="#a89060" stroke-width="0.5"/><rect x="162" y="90" width="30" height="40" fill="#f0ede6" rx="3" stroke="#bbb" stroke-width="0.6"/></g><g data-card="Stack 36 · 2 tiles high"><rect x="130" y="93" width="30" height="40" fill="#d4c9a8" rx="3" stroke="#a89060" stroke-width="0.5"/><rect x="130" y="90" width="30" height="40" fill="#f0ede6" rx="3" stroke="#bbb" stroke-width="0.6"/></g></g><g data-zone="Wall — West side · 20 tiles (10 stacks of 2) · draw from here"><g data-card="Stack 37 · 2 tiles high"><rect x="93" y="130" width="40" height="30" fill="#d4c9a8" rx="3" stroke="#a89060" stroke-width="0.5"/><rect x="90" y="130" width="40" height="30" fill="#f0ede6" rx="3" stroke="#bbb" stroke-width="0.6"/></g><g data-card="Stack 38 · 2 tiles high"><rect x="93" y="162" width="40" height="30" fill="#d4c9a8" rx="3" stroke="#a89060" stroke-width="0.5"/><rect x="90" y="162" width="40" height="30" fill="#f0ede6" rx="3" stroke="#bbb" stroke-width="0.6"/></g><g data-card="Stack 39 · 2 tiles high"><rect x="93" y="194" width="40" height="30" fill="#d4c9a8" rx="3" stroke="#a89060" stroke-width="0.5"/><rect x="90" y="194" width="40" height="30" fill="#f0ede6" rx="3" stroke="#bbb" stroke-width="0.6"/></g><g data-card="Stack 40 · 2 tiles high"><rect x="93" y="226" width="40" height="30" fill="#d4c9a8" rx="3" stroke="#a89060" stroke-width="0.5"/><rect x="90" y="226" width="40" height="30" fill="#f0ede6" rx="3" stroke="#bbb" stroke-width="0.6"/></g><g data-card="Stack 41 · 2 tiles high"><rect x="93" y="258" width="40" height="30" fill="#d4c9a8" rx="3" stroke="#a89060" stroke-width="0.5"/><rect x="90" y="258" width="40" height="30" fill="#f0ede6" rx="3" stroke="#bbb" stroke-width="0.6"/></g><g data-card="Stack 42 · 2 tiles high"><rect x="93" y="290" width="40" height="30" fill="#d4c9a8" rx="3" stroke="#a89060" stroke-width="0.5"/><rect x="90" y="290" width="40" height="30" fill="#f0ede6" rx="3" stroke="#bbb" stroke-width="0.6"/></g><g data-card="Stack 43 · 2 tiles high · BREAK"><rect x="93" y="322" width="40" height="30" fill="#d4c9a8" rx="3" stroke="#a89060" stroke-width="0.5"/><rect x="90" y="322" width="40" height="30" fill="#f0ede6" rx="3" stroke="#bbb" stroke-width="0.6"/><rect x="90" y="322" width="40" height="30" fill="none" rx="3" stroke="#ffcc00" stroke-width="1.5"/></g><g data-card="Stack 44 · 2 tiles high"><rect x="93" y="354" width="40" height="30" fill="#d4c9a8" rx="3" stroke="#a89060" stroke-width="0.5"/><rect x="90" y="354" width="40" height="30" fill="#f0ede6" rx="3" stroke="#bbb" stroke-width="0.6"/></g><g data-card="Stack 45 · 2 tiles high"><rect x="93" y="386" width="40" height="30" fill="#d4c9a8" rx="3" stroke="#a89060" stroke-width="0.5"/><rect x="90" y="386" width="40" height="30" fill="#f0ede6" rx="3" stroke="#bbb" stroke-width="0.6"/></g><g data-card="Stack 46 · 2 tiles high"><rect x="93" y="418" width="40" height="30" fill="#d4c9a8" rx="3" stroke="#a89060" stroke-width="0.5"/><rect x="90" y="418" width="40" height="30" fill="#f0ede6" rx="3" stroke="#bbb" stroke-width="0.6"/></g></g><g data-zone="South (you) — 13 tiles (visible)"><g data-card="north wind"><rect x="113" y="562" width="30" height="40" fill="#f0ede6" rx="4" stroke="#bbb" stroke-width="0.8"/><image href="../pieces/sets/mahjong-planar/MJNorthwind.svg" x="115" y="564" width="26" height="36" preserveAspectRatio="xMidYMid meet"/></g><g data-card="3 bamboo"><rect x="145" y="562" width="30" height="40" fill="#f0ede6" rx="4" stroke="#bbb" stroke-width="0.8"/><image href="../pieces/sets/mahjong-planar/MJ3tiao.svg" x="147" y="564" width="26" height="36" preserveAspectRatio="xMidYMid meet"/></g><g data-card="6 circles"><rect x="177" y="562" width="30" height="40" fill="#f0ede6" rx="4" stroke="#bbb" stroke-width="0.8"/><image href="../pieces/sets/mahjong-planar/MJ6bing.svg" x="179" y="564" width="26" height="36" preserveAspectRatio="xMidYMid meet"/></g><g data-card="west wind"><rect x="209" y="562" width="30" height="40" fill="#f0ede6" rx="4" stroke="#bbb" stroke-width="0.8"/><image href="../pieces/sets/mahjong-planar/MJWestwind.svg" x="211" y="564" width="26" height="36" preserveAspectRatio="xMidYMid meet"/></g><g data-card="green dragon"><rect x="241" y="562" width="30" height="40" fill="#f0ede6" rx="4" stroke="#bbb" stroke-width="0.8"/><image href="../pieces/sets/mahjong-planar/MJGreendragon.svg" x="243" y="564" width="26" height="36" preserveAspectRatio="xMidYMid meet"/></g><g data-card="west wind"><rect x="273" y="562" width="30" height="40" fill="#f0ede6" rx="4" stroke="#bbb" stroke-width="0.8"/><image href="../pieces/sets/mahjong-planar/MJWestwind.svg" x="275" y="564" width="26" height="36" preserveAspectRatio="xMidYMid meet"/></g><g data-card="9 circles"><rect x="305" y="562" width="30" height="40" fill="#f0ede6" rx="4" stroke="#bbb" stroke-width="0.8"/><image href="../pieces/sets/mahjong-planar/MJ9bing.svg" x="307" y="564" width="26" height="36" preserveAspectRatio="xMidYMid meet"/></g><g data-card="north wind"><rect x="337" y="562" width="30" height="40" fill="#f0ede6" rx="4" stroke="#bbb" stroke-width="0.8"/><image href="../pieces/sets/mahjong-planar/MJNorthwind.svg" x="339" y="564" width="26" height="36" preserveAspectRatio="xMidYMid meet"/></g><g data-card="9 characters"><rect x="369" y="562" width="30" height="40" fill="#f0ede6" rx="4" stroke="#bbb" stroke-width="0.8"/><image href="../pieces/sets/mahjong-planar/MJ9wan.svg" x="371" y="564" width="26" height="36" preserveAspectRatio="xMidYMid meet"/></g><g data-card="5 bamboo"><rect x="401" y="562" width="30" height="40" fill="#f0ede6" rx="4" stroke="#bbb" stroke-width="0.8"/><image href="../pieces/sets/mahjong-planar/MJ5tiao.svg" x="403" y="564" width="26" height="36" preserveAspectRatio="xMidYMid meet"/></g><g data-card="7 circles"><rect x="433" y="562" width="30" height="40" fill="#f0ede6" rx="4" stroke="#bbb" stroke-width="0.8"/><image href="../pieces/sets/mahjong-planar/MJ7bing.svg" x="435" y="564" width="26" height="36" preserveAspectRatio="xMidYMid meet"/></g><g data-card="1 bamboo"><rect x="465" y="562" width="30" height="40" fill="#f0ede6" rx="4" stroke="#bbb" stroke-width="0.8"/><image href="../pieces/sets/mahjong-planar/MJ1tiao.svg" x="467" y="564" width="26" height="36" preserveAspectRatio="xMidYMid meet"/></g><g data-card="7 characters"><rect x="497" y="562" width="30" height="40" fill="#f0ede6" rx="4" stroke="#bbb" stroke-width="0.8"/><image href="../pieces/sets/mahjong-planar/MJ7wan.svg" x="499" y="564" width="26" height="36" preserveAspectRatio="xMidYMid meet"/></g><text x="321" y="618" text-anchor="middle" font-size="10" fill="rgba(255,255,255,0.5)" font-family="system-ui">South (you) (13)</text></g><g data-zone="East — 13 tiles (hidden)"><g data-card="Face down"><rect x="562" y="497" width="40" height="30" fill="#f0ede6" rx="4" stroke="#bbb" stroke-width="0.8"/><rect x="564" y="499" width="36" height="26" fill="#c8a96e" rx="2" opacity="0.4"/></g><g data-card="Face down"><rect x="562" y="465" width="40" height="30" fill="#f0ede6" rx="4" stroke="#bbb" stroke-width="0.8"/><rect x="564" y="467" width="36" height="26" fill="#c8a96e" rx="2" opacity="0.4"/></g><g data-card="Face down"><rect x="562" y="433" width="40" height="30" fill="#f0ede6" rx="4" stroke="#bbb" stroke-width="0.8"/><rect x="564" y="435" width="36" height="26" fill="#c8a96e" rx="2" opacity="0.4"/></g><g data-card="Face down"><rect x="562" y="401" width="40" height="30" fill="#f0ede6" rx="4" stroke="#bbb" stroke-width="0.8"/><rect x="564" y="403" width="36" height="26" fill="#c8a96e" rx="2" opacity="0.4"/></g><g data-card="Face down"><rect x="562" y="369" width="40" height="30" fill="#f0ede6" rx="4" stroke="#bbb" stroke-width="0.8"/><rect x="564" y="371" width="36" height="26" fill="#c8a96e" rx="2" opacity="0.4"/></g><g data-card="Face down"><rect x="562" y="337" width="40" height="30" fill="#f0ede6" rx="4" stroke="#bbb" stroke-width="0.8"/><rect x="564" y="339" width="36" height="26" fill="#c8a96e" rx="2" opacity="0.4"/></g><g data-card="Face down"><rect x="562" y="305" width="40" height="30" fill="#f0ede6" rx="4" stroke="#bbb" stroke-width="0.8"/><rect x="564" y="307" width="36" height="26" fill="#c8a96e" rx="2" opacity="0.4"/></g><g data-card="Face down"><rect x="562" y="273" width="40" height="30" fill="#f0ede6" rx="4" stroke="#bbb" stroke-width="0.8"/><rect x="564" y="275" width="36" height="26" fill="#c8a96e" rx="2" opacity="0.4"/></g><g data-card="Face down"><rect x="562" y="241" width="40" height="30" fill="#f0ede6" rx="4" stroke="#bbb" stroke-width="0.8"/><rect x="564" y="243" width="36" height="26" fill="#c8a96e" rx="2" opacity="0.4"/></g><g data-card="Face down"><rect x="562" y="209" width="40" height="30" fill="#f0ede6" rx="4" stroke="#bbb" stroke-width="0.8"/><rect x="564" y="211" width="36" height="26" fill="#c8a96e" rx="2" opacity="0.4"/></g><g data-card="Face down"><rect x="562" y="177" width="40" height="30" fill="#f0ede6" rx="4" stroke="#bbb" stroke-width="0.8"/><rect x="564" y="179" width="36" height="26" fill="#c8a96e" rx="2" opacity="0.4"/></g><g data-card="Face down"><rect x="562" y="145" width="40" height="30" fill="#f0ede6" rx="4" stroke="#bbb" stroke-width="0.8"/><rect x="564" y="147" width="36" height="26" fill="#c8a96e" rx="2" opacity="0.4"/></g><g data-card="Face down"><rect x="562" y="113" width="40" height="30" fill="#f0ede6" rx="4" stroke="#bbb" stroke-width="0.8"/><rect x="564" y="115" width="36" height="26" fill="#c8a96e" rx="2" opacity="0.4"/></g><text x="618" y="321" text-anchor="middle" font-size="10" fill="rgba(255,255,255,0.5)" font-family="system-ui" transform="rotate(-90 618 321)">East (13)</text></g><g data-zone="North — 13 tiles (hidden)"><g data-card="Face down"><rect x="497" y="40" width="30" height="40" fill="#f0ede6" rx="4" stroke="#bbb" stroke-width="0.8"/><rect x="499" y="42" width="26" height="36" fill="#c8a96e" rx="2" opacity="0.4"/></g><g data-card="Face down"><rect x="465" y="40" width="30" height="40" fill="#f0ede6" rx="4" stroke="#bbb" stroke-width="0.8"/><rect x="467" y="42" width="26" height="36" fill="#c8a96e" rx="2" opacity="0.4"/></g><g data-card="Face down"><rect x="433" y="40" width="30" height="40" fill="#f0ede6" rx="4" stroke="#bbb" stroke-width="0.8"/><rect x="435" y="42" width="26" height="36" fill="#c8a96e" rx="2" opacity="0.4"/></g><g data-card="Face down"><rect x="401" y="40" width="30" height="40" fill="#f0ede6" rx="4" stroke="#bbb" stroke-width="0.8"/><rect x="403" y="42" width="26" height="36" fill="#c8a96e" rx="2" opacity="0.4"/></g><g data-card="Face down"><rect x="369" y="40" width="30" height="40" fill="#f0ede6" rx="4" stroke="#bbb" stroke-width="0.8"/><rect x="371" y="42" width="26" height="36" fill="#c8a96e" rx="2" opacity="0.4"/></g><g data-card="Face down"><rect x="337" y="40" width="30" height="40" fill="#f0ede6" rx="4" stroke="#bbb" stroke-width="0.8"/><rect x="339" y="42" width="26" height="36" fill="#c8a96e" rx="2" opacity="0.4"/></g><g data-card="Face down"><rect x="305" y="40" width="30" height="40" fill="#f0ede6" rx="4" stroke="#bbb" stroke-width="0.8"/><rect x="307" y="42" width="26" height="36" fill="#c8a96e" rx="2" opacity="0.4"/></g><g data-card="Face down"><rect x="273" y="40" width="30" height="40" fill="#f0ede6" rx="4" stroke="#bbb" stroke-width="0.8"/><rect x="275" y="42" width="26" height="36" fill="#c8a96e" rx="2" opacity="0.4"/></g><g data-card="Face down"><rect x="241" y="40" width="30" height="40" fill="#f0ede6" rx="4" stroke="#bbb" stroke-width="0.8"/><rect x="243" y="42" width="26" height="36" fill="#c8a96e" rx="2" opacity="0.4"/></g><g data-card="Face down"><rect x="209" y="40" width="30" height="40" fill="#f0ede6" rx="4" stroke="#bbb" stroke-width="0.8"/><rect x="211" y="42" width="26" height="36" fill="#c8a96e" rx="2" opacity="0.4"/></g><g data-card="Face down"><rect x="177" y="40" width="30" height="40" fill="#f0ede6" rx="4" stroke="#bbb" stroke-width="0.8"/><rect x="179" y="42" width="26" height="36" fill="#c8a96e" rx="2" opacity="0.4"/></g><g data-card="Face down"><rect x="145" y="40" width="30" height="40" fill="#f0ede6" rx="4" stroke="#bbb" stroke-width="0.8"/><rect x="147" y="42" width="26" height="36" fill="#c8a96e" rx="2" opacity="0.4"/></g><g data-card="Face down"><rect x="113" y="40" width="30" height="40" fill="#f0ede6" rx="4" stroke="#bbb" stroke-width="0.8"/><rect x="115" y="42" width="26" height="36" fill="#c8a96e" rx="2" opacity="0.4"/></g><text x="321" y="32" text-anchor="middle" font-size="10" fill="rgba(255,255,255,0.5)" font-family="system-ui">North (13)</text></g><g data-zone="West — 13 tiles (hidden)"><g data-card="Face down"><rect x="40" y="113" width="40" height="30" fill="#f0ede6" rx="4" stroke="#bbb" stroke-width="0.8"/><rect x="42" y="115" width="36" height="26" fill="#c8a96e" rx="2" opacity="0.4"/></g><g data-card="Face down"><rect x="40" y="145" width="40" height="30" fill="#f0ede6" rx="4" stroke="#bbb" stroke-width="0.8"/><rect x="42" y="147" width="36" height="26" fill="#c8a96e" rx="2" opacity="0.4"/></g><g data-card="Face down"><rect x="40" y="177" width="40" height="30" fill="#f0ede6" rx="4" stroke="#bbb" stroke-width="0.8"/><rect x="42" y="179" width="36" height="26" fill="#c8a96e" rx="2" opacity="0.4"/></g><g data-card="Face down"><rect x="40" y="209" width="40" height="30" fill="#f0ede6" rx="4" stroke="#bbb" stroke-width="0.8"/><rect x="42" y="211" width="36" height="26" fill="#c8a96e" rx="2" opacity="0.4"/></g><g data-card="Face down"><rect x="40" y="241" width="40" height="30" fill="#f0ede6" rx="4" stroke="#bbb" stroke-width="0.8"/><rect x="42" y="243" width="36" height="26" fill="#c8a96e" rx="2" opacity="0.4"/></g><g data-card="Face down"><rect x="40" y="273" width="40" height="30" fill="#f0ede6" rx="4" stroke="#bbb" stroke-width="0.8"/><rect x="42" y="275" width="36" height="26" fill="#c8a96e" rx="2" opacity="0.4"/></g><g data-card="Face down"><rect x="40" y="305" width="40" height="30" fill="#f0ede6" rx="4" stroke="#bbb" stroke-width="0.8"/><rect x="42" y="307" width="36" height="26" fill="#c8a96e" rx="2" opacity="0.4"/></g><g data-card="Face down"><rect x="40" y="337" width="40" height="30" fill="#f0ede6" rx="4" stroke="#bbb" stroke-width="0.8"/><rect x="42" y="339" width="36" height="26" fill="#c8a96e" rx="2" opacity="0.4"/></g><g data-card="Face down"><rect x="40" y="369" width="40" height="30" fill="#f0ede6" rx="4" stroke="#bbb" stroke-width="0.8"/><rect x="42" y="371" width="36" height="26" fill="#c8a96e" rx="2" opacity="0.4"/></g><g data-card="Face down"><rect x="40" y="401" width="40" height="30" fill="#f0ede6" rx="4" stroke="#bbb" stroke-width="0.8"/><rect x="42" y="403" width="36" height="26" fill="#c8a96e" rx="2" opacity="0.4"/></g><g data-card="Face down"><rect x="40" y="433" width="40" height="30" fill="#f0ede6" rx="4" stroke="#bbb" stroke-width="0.8"/><rect x="42" y="435" width="36" height="26" fill="#c8a96e" rx="2" opacity="0.4"/></g><g data-card="Face down"><rect x="40" y="465" width="40" height="30" fill="#f0ede6" rx="4" stroke="#bbb" stroke-width="0.8"/><rect x="42" y="467" width="36" height="26" fill="#c8a96e" rx="2" opacity="0.4"/></g><g data-card="Face down"><rect x="40" y="497" width="40" height="30" fill="#f0ede6" rx="4" stroke="#bbb" stroke-width="0.8"/><rect x="42" y="499" width="36" height="26" fill="#c8a96e" rx="2" opacity="0.4"/></g><text x="32" y="321" text-anchor="middle" font-size="10" fill="rgba(255,255,255,0.5)" font-family="system-ui" transform="rotate(-90 32 321)">West (13)</text></g><text x="321" y="636" text-anchor="middle" font-size="9" fill="rgba(255,255,255,0.3)" font-family="system-ui">Mahjong 136 · seed: 42</text>
</svg>