<svg xmlns="http://www.w3.org/2000/svg" viewBox="0 0 560 180" width="560" height="180">
<defs>
<symbol id="piece-playstrategy-oware-7" viewBox="0 0 144 144"><title>seeds-7</title>
    <defs>
        <filter x="-22.2%" y="-26.1%" width="144.4%" height="152.2%" filterUnits="objectBoundingBox" id="filter-1">
            <feGaussianBlur stdDeviation="2" in="SourceGraphic"></feGaussianBlur>
        </filter>
        <radialGradient cx="46.387808%" cy="46.387808%" fx="46.387808%" fy="46.387808%" r="46.1573049%" gradientTransform="translate(0.463878,0.463878),scale(0.851852,1.000000),rotate(90.000000),translate(-0.463878,-0.463878)" id="radialGradient-2">
            <stop stop-color="#FFFFFF" stop-opacity="0.1" offset="0%"></stop>
            <stop stop-color="#FFFFFF" stop-opacity="0.0858890035" offset="63.5889013%"></stop>
            <stop stop-color="#000000" stop-opacity="0.08" offset="100%"></stop>
        </radialGradient>
        <ellipse id="path-3" cx="13.5" cy="11.5" rx="13.5" ry="11.5"></ellipse>
        <filter x="-34.6%" y="-38.6%" width="169.2%" height="177.3%" filterUnits="objectBoundingBox" id="filter-4">
            <feGaussianBlur stdDeviation="2" in="SourceGraphic"></feGaussianBlur>
        </filter>
        <filter x="-22.2%" y="-26.1%" width="144.4%" height="152.2%" filterUnits="objectBoundingBox" id="filter-5">
            <feGaussianBlur stdDeviation="2" in="SourceGraphic"></feGaussianBlur>
        </filter>
        <ellipse id="path-6" cx="13.5" cy="11.5" rx="13.5" ry="11.5"></ellipse>
        <filter x="-34.6%" y="-38.6%" width="169.2%" height="177.3%" filterUnits="objectBoundingBox" id="filter-7">
            <feGaussianBlur stdDeviation="2" in="SourceGraphic"></feGaussianBlur>
        </filter>
        <filter x="-22.2%" y="-26.1%" width="144.4%" height="152.2%" filterUnits="objectBoundingBox" id="filter-8">
            <feGaussianBlur stdDeviation="2" in="SourceGraphic"></feGaussianBlur>
        </filter>
        <ellipse id="path-9" cx="13.5" cy="11.5" rx="13.5" ry="11.5"></ellipse>
        <filter x="-34.6%" y="-38.6%" width="169.2%" height="177.3%" filterUnits="objectBoundingBox" id="filter-10">
            <feGaussianBlur stdDeviation="2" in="SourceGraphic"></feGaussianBlur>
        </filter>
        <filter x="-22.2%" y="-26.1%" width="144.4%" height="152.2%" filterUnits="objectBoundingBox" id="filter-11">
            <feGaussianBlur stdDeviation="2" in="SourceGraphic"></feGaussianBlur>
        </filter>
        <ellipse id="path-12" cx="13.5" cy="11.5" rx="13.5" ry="11.5"></ellipse>
        <filter x="-34.6%" y="-38.6%" width="169.2%" height="177.3%" filterUnits="objectBoundingBox" id="filter-13">
            <feGaussianBlur stdDeviation="2" in="SourceGraphic"></feGaussianBlur>
        </filter>
        <filter x="-22.2%" y="-26.1%" width="144.4%" height="152.2%" filterUnits="objectBoundingBox" id="filter-14">
            <feGaussianBlur stdDeviation="2" in="SourceGraphic"></feGaussianBlur>
        </filter>
        <ellipse id="path-15" cx="13.5" cy="11.5" rx="13.5" ry="11.5"></ellipse>
        <filter x="-34.6%" y="-38.6%" width="169.2%" height="177.3%" filterUnits="objectBoundingBox" id="filter-16">
            <feGaussianBlur stdDeviation="2" in="SourceGraphic"></feGaussianBlur>
        </filter>
        <filter x="-22.2%" y="-26.1%" width="144.4%" height="152.2%" filterUnits="objectBoundingBox" id="filter-17">
            <feGaussianBlur stdDeviation="2" in="SourceGraphic"></feGaussianBlur>
        </filter>
        <ellipse id="path-18" cx="13.5" cy="11.5" rx="13.5" ry="11.5"></ellipse>
        <filter x="-34.6%" y="-38.6%" width="169.2%" height="177.3%" filterUnits="objectBoundingBox" id="filter-19">
            <feGaussianBlur stdDeviation="2" in="SourceGraphic"></feGaussianBlur>
        </filter>
        <filter x="-22.2%" y="-26.1%" width="144.4%" height="152.2%" filterUnits="objectBoundingBox" id="filter-20">
            <feGaussianBlur stdDeviation="2" in="SourceGraphic"></feGaussianBlur>
        </filter>
        <ellipse id="path-21" cx="13.5" cy="11.5" rx="13.5" ry="11.5"></ellipse>
        <filter x="-34.6%" y="-38.6%" width="169.2%" height="177.3%" filterUnits="objectBoundingBox" id="filter-22">
            <feGaussianBlur stdDeviation="2" in="SourceGraphic"></feGaussianBlur>
        </filter>
    </defs>
    <g id="seeds-7" stroke="none" stroke-width="1" fill="none" fill-rule="evenodd">
        <g id="Group" transform="translate(22.000000, 27.000000)">
            <g transform="translate(29.000000, 29.000000)">
                <ellipse id="shadow" fill="#000000" opacity="0.4" style="mix-blend-mode: multiply;" filter="url(#filter-1)" cx="18.5" cy="19.0828118" rx="13.5" ry="11.5"></ellipse>
                <g id="colour---blue" transform="translate(6.000000, 6.582812)">
                    <use fill="#257989" href="#path-3"></use>
                    <use fill="url(#radialGradient-2)" href="#path-3"></use>
                </g>
                <ellipse id="gradient" fill="url(#radialGradient-2)" cx="19.5" cy="18.0828118" rx="13.5" ry="11.5"></ellipse>
                <path d="M12.5948736,25.0350541 C11.3899054,18.6960045 12.8422208,14.1754906 16.9518199,11.4735124 C21.0614189,8.7715343 25.2518379,8.85187883 29.5230768,11.714546 C25.6309065,10.7024657 21.7895756,11.6688261 17.999084,14.6136272 C14.2085923,17.5584284 12.4071889,21.0322373 12.5948736,25.0350541 Z" id="glow" fill="#FFFFFF" filter="url(#filter-4)" transform="translate(20.854074, 17.270301) rotate(-300.000000) translate(-20.854074, -17.270301) "></path>
            </g>
            <g transform="translate(0.000000, 30.000000)">
                <ellipse id="shadow" fill="#000000" opacity="0.4" style="mix-blend-mode: multiply;" filter="url(#filter-5)" cx="18.5" cy="19.0828118" rx="13.5" ry="11.5"></ellipse>
                <g id="colour---blue" transform="translate(6.000000, 6.582812)">
                    <use fill="#257989" href="#path-6"></use>
                    <use fill="url(#radialGradient-2)" href="#path-6"></use>
                </g>
                <ellipse id="gradient" fill="url(#radialGradient-2)" cx="19.5" cy="18.0828118" rx="13.5" ry="11.5"></ellipse>
                <path d="M12.5948736,25.0350541 C11.3899054,18.6960045 12.8422208,14.1754906 16.9518199,11.4735124 C21.0614189,8.7715343 25.2518379,8.85187883 29.5230768,11.714546 C25.6309065,10.7024657 21.7895756,11.6688261 17.999084,14.6136272 C14.2085923,17.5584284 12.4071889,21.0322373 12.5948736,25.0350541 Z" id="glow" fill="#FFFFFF" filter="url(#filter-7)" transform="translate(20.854074, 17.270301) rotate(-300.000000) translate(-20.854074, -17.270301) "></path>
            </g>
            <g transform="translate(14.000000, 54.000000)">
                <ellipse id="shadow" fill="#000000" opacity="0.4" style="mix-blend-mode: multiply;" filter="url(#filter-8)" cx="18.5" cy="19.0828118" rx="13.5" ry="11.5"></ellipse>
                <g id="colour---blue" transform="translate(6.000000, 6.582812)">
                    <use fill="#257989" href="#path-9"></use>
                    <use fill="url(#radialGradient-2)" href="#path-9"></use>
                </g>
                <ellipse id="gradient" fill="url(#radialGradient-2)" cx="19.5" cy="18.0828118" rx="13.5" ry="11.5"></ellipse>
                <path d="M12.5948736,25.0350541 C11.3899054,18.6960045 12.8422208,14.1754906 16.9518199,11.4735124 C21.0614189,8.7715343 25.2518379,8.85187883 29.5230768,11.714546 C25.6309065,10.7024657 21.7895756,11.6688261 17.999084,14.6136272 C14.2085923,17.5584284 12.4071889,21.0322373 12.5948736,25.0350541 Z" id="glow" fill="#FFFFFF" filter="url(#filter-10)" transform="translate(20.854074, 17.270301) rotate(-300.000000) translate(-20.854074, -17.270301) "></path>
            </g>
            <g transform="translate(48.000000, 53.000000)">
                <ellipse id="shadow" fill="#000000" opacity="0.4" style="mix-blend-mode: multiply;" filter="url(#filter-11)" cx="18.5" cy="19.0828118" rx="13.5" ry="11.5"></ellipse>
                <g id="colour---blue" transform="translate(6.000000, 6.582812)">
                    <use fill="#257989" href="#path-12"></use>
                    <use fill="url(#radialGradient-2)" href="#path-12"></use>
                </g>
                <ellipse id="gradient" fill="url(#radialGradient-2)" cx="19.5" cy="18.0828118" rx="13.5" ry="11.5"></ellipse>
                <path d="M12.5948736,25.0350541 C11.3899054,18.6960045 12.8422208,14.1754906 16.9518199,11.4735124 C21.0614189,8.7715343 25.2518379,8.85187883 29.5230768,11.714546 C25.6309065,10.7024657 21.7895756,11.6688261 17.999084,14.6136272 C14.2085923,17.5584284 12.4071889,21.0322373 12.5948736,25.0350541 Z" id="glow" fill="#FFFFFF" filter="url(#filter-13)" transform="translate(20.854074, 17.270301) rotate(-300.000000) translate(-20.854074, -17.270301) "></path>
            </g>
            <g transform="translate(59.000000, 25.000000)">
                <ellipse id="shadow" fill="#000000" opacity="0.4" style="mix-blend-mode: multiply;" filter="url(#filter-14)" cx="18.5" cy="19.0828118" rx="13.5" ry="11.5"></ellipse>
                <g id="colour---blue" transform="translate(6.000000, 6.582812)">
                    <use fill="#257989" href="#path-15"></use>
                    <use fill="url(#radialGradient-2)" href="#path-15"></use>
                </g>
                <ellipse id="gradient" fill="url(#radialGradient-2)" cx="19.5" cy="18.0828118" rx="13.5" ry="11.5"></ellipse>
                <path d="M12.5948736,25.0350541 C11.3899054,18.6960045 12.8422208,14.1754906 16.9518199,11.4735124 C21.0614189,8.7715343 25.2518379,8.85187883 29.5230768,11.714546 C25.6309065,10.7024657 21.7895756,11.6688261 17.999084,14.6136272 C14.2085923,17.5584284 12.4071889,21.0322373 12.5948736,25.0350541 Z" id="glow" fill="#FFFFFF" filter="url(#filter-16)" transform="translate(20.854074, 17.270301) rotate(-300.000000) translate(-20.854074, -17.270301) "></path>
            </g>
            <g transform="translate(12.000000, 3.000000)">
                <ellipse id="shadow" fill="#000000" opacity="0.4" style="mix-blend-mode: multiply;" filter="url(#filter-17)" cx="18.5" cy="19.0828118" rx="13.5" ry="11.5"></ellipse>
                <g id="colour---blue" transform="translate(6.000000, 6.582812)">
                    <use fill="#257989" href="#path-18"></use>
                    <use fill="url(#radialGradient-2)" href="#path-18"></use>
                </g>
                <ellipse id="gradient" fill="url(#radialGradient-2)" cx="19.5" cy="18.0828118" rx="13.5" ry="11.5"></ellipse>
                <path d="M12.5948736,25.0350541 C11.3899054,18.6960045 12.8422208,14.1754906 16.9518199,11.4735124 C21.0614189,8.7715343 25.2518379,8.85187883 29.5230768,11.714546 C25.6309065,10.7024657 21.7895756,11.6688261 17.999084,14.6136272 C14.2085923,17.5584284 12.4071889,21.0322373 12.5948736,25.0350541 Z" id="glow" fill="#FFFFFF" filter="url(#filter-19)" transform="translate(20.854074, 17.270301) rotate(-300.000000) translate(-20.854074, -17.270301) "></path>
            </g>
            <g transform="translate(46.000000, 0.000000)">
                <ellipse id="shadow" fill="#000000" opacity="0.4" style="mix-blend-mode: multiply;" filter="url(#filter-20)" cx="18.5" cy="19.0828118" rx="13.5" ry="11.5"></ellipse>
                <g id="colour---blue" transform="translate(6.000000, 6.582812)">
                    <use fill="#257989" href="#path-21"></use>
                    <use fill="url(#radialGradient-2)" href="#path-21"></use>
                </g>
                <ellipse id="gradient" fill="url(#radialGradient-2)" cx="19.5" cy="18.0828118" rx="13.5" ry="11.5"></ellipse>
                <path d="M12.5948736,25.0350541 C11.3899054,18.6960045 12.8422208,14.1754906 16.9518199,11.4735124 C21.0614189,8.7715343 25.2518379,8.85187883 29.5230768,11.714546 C25.6309065,10.7024657 21.7895756,11.6688261 17.999084,14.6136272 C14.2085923,17.5584284 12.4071889,21.0322373 12.5948736,25.0350541 Z" id="glow" fill="#FFFFFF" filter="url(#filter-22)" transform="translate(20.854074, 17.270301) rotate(-300.000000) translate(-20.854074, -17.270301) "></path>
            </g>
        </g>
        <g id="Number" transform="translate(93.000000, 26.000000)">
            <circle id="Oval" fill="#000000" cx="19" cy="19" r="19"></circle>
            <path d="M19.177,25 L23.274,14.936 L23.274,12.76 L15.556,12.76 L15.556,14.936 L20.792,14.936 L16.678,25 L19.177,25 Z" id="Masked-text-object" fill="#FFFFFF"></path>
        </g>
    </g></symbol>
</defs>
<ellipse cx="280" cy="90" rx="267.9" ry="75.96000000000001" fill="#7A5A32"/><ellipse cx="280" cy="90" rx="259.9" ry="67.96000000000001" fill="#9B7740"/><ellipse cx="80.16" cy="90" rx="20" ry="38" fill="#4E3320" stroke="#3A2515" stroke-width="1.5" class="board-cell" data-sq="store-1"/><ellipse cx="479.84000000000003" cy="90" rx="20" ry="38" fill="#4E3320" stroke="#3A2515" stroke-width="1.5" class="board-cell" data-sq="store-0"/><circle cx="120.16" cy="58" r="18" fill="#4E3320" stroke="#3A2515" stroke-width="1.5" class="board-cell" data-sq="pit-6"/><circle cx="120.16" cy="122" r="18" fill="#4E3320" stroke="#3A2515" stroke-width="1.5" class="board-cell" data-sq="pit-7"/><use href="#piece-playstrategy-oware-7" x="105.75999999999999" y="43.6" width="28.8" height="28.8"/><use href="#piece-playstrategy-oware-7" x="105.75999999999999" y="107.6" width="28.8" height="28.8"/><circle cx="173.44" cy="55.77777777777778" r="18" fill="#4E3320" stroke="#3A2515" stroke-width="1.5" class="board-cell" data-sq="pit-5"/><circle cx="173.44" cy="124.22222222222223" r="18" fill="#4E3320" stroke="#3A2515" stroke-width="1.5" class="board-cell" data-sq="pit-8"/><use href="#piece-playstrategy-oware-7" x="159.04" y="41.37777777777778" width="28.8" height="28.8"/><use href="#piece-playstrategy-oware-7" x="159.04" y="109.82222222222222" width="28.8" height="28.8"/><circle cx="226.72" cy="54.44444444444444" r="18" fill="#4E3320" stroke="#3A2515" stroke-width="1.5" class="board-cell" data-sq="pit-4"/><circle cx="226.72" cy="125.55555555555556" r="18" fill="#4E3320" stroke="#3A2515" stroke-width="1.5" class="board-cell" data-sq="pit-9"/><use href="#piece-playstrategy-oware-7" x="212.32" y="40.044444444444444" width="28.8" height="28.8"/><use href="#piece-playstrategy-oware-7" x="212.32" y="111.15555555555555" width="28.8" height="28.8"/><circle cx="280" cy="54" r="18" fill="#4E3320" stroke="#3A2515" stroke-width="1.5" class="board-cell" data-sq="pit-3"/><circle cx="280" cy="126" r="18" fill="#4E3320" stroke="#3A2515" stroke-width="1.5" class="board-cell" data-sq="pit-10"/><use href="#piece-playstrategy-oware-7" x="265.6" y="39.6" width="28.8" height="28.8"/><use href="#piece-playstrategy-oware-7" x="265.6" y="111.6" width="28.8" height="28.8"/><circle cx="333.28" cy="54.44444444444444" r="18" fill="#4E3320" stroke="#3A2515" stroke-width="1.5" class="board-cell" data-sq="pit-2"/><circle cx="333.28" cy="125.55555555555556" r="18" fill="#4E3320" stroke="#3A2515" stroke-width="1.5" class="board-cell" data-sq="pit-11"/><use href="#piece-playstrategy-oware-7" x="318.88" y="40.044444444444444" width="28.8" height="28.8"/><use href="#piece-playstrategy-oware-7" x="318.88" y="111.15555555555555" width="28.8" height="28.8"/><circle cx="386.56" cy="55.77777777777778" r="18" fill="#4E3320" stroke="#3A2515" stroke-width="1.5" class="board-cell" data-sq="pit-1"/><circle cx="386.56" cy="124.22222222222223" r="18" fill="#4E3320" stroke="#3A2515" stroke-width="1.5" class="board-cell" data-sq="pit-12"/><use href="#piece-playstrategy-oware-7" x="372.16" y="41.37777777777778" width="28.8" height="28.8"/><use href="#piece-playstrategy-oware-7" x="372.16" y="109.82222222222222" width="28.8" height="28.8"/><circle cx="439.84000000000003" cy="58" r="18" fill="#4E3320" stroke="#3A2515" stroke-width="1.5" class="board-cell" data-sq="pit-0"/><circle cx="439.84000000000003" cy="122" r="18" fill="#4E3320" stroke="#3A2515" stroke-width="1.5" class="board-cell" data-sq="pit-13"/><use href="#piece-playstrategy-oware-7" x="425.44000000000005" y="43.6" width="28.8" height="28.8"/><use href="#piece-playstrategy-oware-7" x="425.44000000000005" y="107.6" width="28.8" height="28.8"/>
</svg>