<svg xmlns="http://www.w3.org/2000/svg" viewBox="0 0 459.2 168.79999999999998" width="459.2" height="168.79999999999998">
<defs>
<symbol id="piece-playstrategy-oware-4" viewBox="0 0 144 144"><title>seeds-4</title>
    <defs>
        <filter x="-22.2%" y="-26.1%" width="144.4%" height="152.2%" filterUnits="objectBoundingBox" id="filter-1">
            <feGaussianBlur stdDeviation="2" in="SourceGraphic"></feGaussianBlur>
        </filter>
        <radialGradient cx="46.387808%" cy="46.387808%" fx="46.387808%" fy="46.387808%" r="46.1573049%" gradientTransform="translate(0.463878,0.463878),scale(0.851852,1.000000),rotate(90.000000),translate(-0.463878,-0.463878)" id="radialGradient-2">
            <stop stop-color="#FFFFFF" stop-opacity="0.1" offset="0%"></stop>
            <stop stop-color="#FFFFFF" stop-opacity="0.0858890035" offset="63.5889013%"></stop>
            <stop stop-color="#000000" stop-opacity="0.08" offset="100%"></stop>
        </radialGradient>
        <ellipse id="path-3" cx="13.5" cy="11.5" rx="13.5" ry="11.5"></ellipse>
        <filter x="-34.6%" y="-38.6%" width="169.2%" height="177.3%" filterUnits="objectBoundingBox" id="filter-4">
            <feGaussianBlur stdDeviation="2" in="SourceGraphic"></feGaussianBlur>
        </filter>
        <filter x="-22.2%" y="-26.1%" width="144.4%" height="152.2%" filterUnits="objectBoundingBox" id="filter-5">
            <feGaussianBlur stdDeviation="2" in="SourceGraphic"></feGaussianBlur>
        </filter>
        <ellipse id="path-6" cx="13.5" cy="11.5" rx="13.5" ry="11.5"></ellipse>
        <filter x="-34.6%" y="-38.6%" width="169.2%" height="177.3%" filterUnits="objectBoundingBox" id="filter-7">
            <feGaussianBlur stdDeviation="2" in="SourceGraphic"></feGaussianBlur>
        </filter>
        <filter x="-22.2%" y="-26.1%" width="144.4%" height="152.2%" filterUnits="objectBoundingBox" id="filter-8">
            <feGaussianBlur stdDeviation="2" in="SourceGraphic"></feGaussianBlur>
        </filter>
        <ellipse id="path-9" cx="13.5" cy="11.5" rx="13.5" ry="11.5"></ellipse>
        <filter x="-34.6%" y="-38.6%" width="169.2%" height="177.3%" filterUnits="objectBoundingBox" id="filter-10">
            <feGaussianBlur stdDeviation="2" in="SourceGraphic"></feGaussianBlur>
        </filter>
        <filter x="-22.2%" y="-26.1%" width="144.4%" height="152.2%" filterUnits="objectBoundingBox" id="filter-11">
            <feGaussianBlur stdDeviation="2" in="SourceGraphic"></feGaussianBlur>
        </filter>
        <ellipse id="path-12" cx="13.5" cy="11.5" rx="13.5" ry="11.5"></ellipse>
        <filter x="-34.6%" y="-38.6%" width="169.2%" height="177.3%" filterUnits="objectBoundingBox" id="filter-13">
            <feGaussianBlur stdDeviation="2" in="SourceGraphic"></feGaussianBlur>
        </filter>
    </defs>
    <g id="seeds-4" stroke="none" stroke-width="1" fill="none" fill-rule="evenodd">
        <g id="Seeds" transform="translate(29.000000, 33.000000)">
            <g id="Group" transform="translate(0.000000, 20.000000)">
                <ellipse id="shadow" fill="#000000" opacity="0.4" style="mix-blend-mode: multiply;" filter="url(#filter-1)" cx="18.5" cy="19.0828118" rx="13.5" ry="11.5"></ellipse>
                <g id="colour---blue" transform="translate(6.000000, 6.582812)">
                    <use fill="#257989" href="#path-3"></use>
                    <use fill="url(#radialGradient-2)" href="#path-3"></use>
                </g>
                <ellipse id="gradient" fill="url(#radialGradient-2)" cx="19.5" cy="18.0828118" rx="13.5" ry="11.5"></ellipse>
                <path d="M12.5948736,25.0350541 C11.3899054,18.6960045 12.8422208,14.1754906 16.9518199,11.4735124 C21.0614189,8.7715343 25.2518379,8.85187883 29.5230768,11.714546 C25.6309065,10.7024657 21.7895756,11.6688261 17.999084,14.6136272 C14.2085923,17.5584284 12.4071889,21.0322373 12.5948736,25.0350541 Z" id="glow" fill="#FFFFFF" filter="url(#filter-4)" transform="translate(20.854074, 17.270301) rotate(-300.000000) translate(-20.854074, -17.270301) "></path>
            </g>
            <g id="Group" transform="translate(22.000000, 0.000000)">
                <ellipse id="shadow" fill="#000000" opacity="0.4" style="mix-blend-mode: multiply;" filter="url(#filter-5)" cx="18.5" cy="19.0828118" rx="13.5" ry="11.5"></ellipse>
                <g id="colour---blue" transform="translate(6.000000, 6.582812)">
                    <use fill="#257989" href="#path-6"></use>
                    <use fill="url(#radialGradient-2)" href="#path-6"></use>
                </g>
                <ellipse id="gradient" fill="url(#radialGradient-2)" cx="19.5" cy="18.0828118" rx="13.5" ry="11.5"></ellipse>
                <path d="M12.5948736,25.0350541 C11.3899054,18.6960045 12.8422208,14.1754906 16.9518199,11.4735124 C21.0614189,8.7715343 25.2518379,8.85187883 29.5230768,11.714546 C25.6309065,10.7024657 21.7895756,11.6688261 17.999084,14.6136272 C14.2085923,17.5584284 12.4071889,21.0322373 12.5948736,25.0350541 Z" id="glow" fill="#FFFFFF" filter="url(#filter-7)" transform="translate(20.854074, 17.270301) rotate(-300.000000) translate(-20.854074, -17.270301) "></path>
            </g>
            <g id="Group" transform="translate(22.000000, 40.000000)">
                <ellipse id="shadow" fill="#000000" opacity="0.4" style="mix-blend-mode: multiply;" filter="url(#filter-8)" cx="18.5" cy="19.0828118" rx="13.5" ry="11.5"></ellipse>
                <g id="colour---blue" transform="translate(6.000000, 6.582812)">
                    <use fill="#257989" href="#path-9"></use>
                    <use fill="url(#radialGradient-2)" href="#path-9"></use>
                </g>
                <ellipse id="gradient" fill="url(#radialGradient-2)" cx="19.5" cy="18.0828118" rx="13.5" ry="11.5"></ellipse>
                <path d="M12.5948736,25.0350541 C11.3899054,18.6960045 12.8422208,14.1754906 16.9518199,11.4735124 C21.0614189,8.7715343 25.2518379,8.85187883 29.5230768,11.714546 C25.6309065,10.7024657 21.7895756,11.6688261 17.999084,14.6136272 C14.2085923,17.5584284 12.4071889,21.0322373 12.5948736,25.0350541 Z" id="glow" fill="#FFFFFF" filter="url(#filter-10)" transform="translate(20.854074, 17.270301) rotate(-300.000000) translate(-20.854074, -17.270301) "></path>
            </g>
            <g id="Group" transform="translate(46.000000, 20.000000)">
                <ellipse id="shadow" fill="#000000" opacity="0.4" style="mix-blend-mode: multiply;" filter="url(#filter-11)" cx="18.5" cy="19.0828118" rx="13.5" ry="11.5"></ellipse>
                <g id="colour---blue" transform="translate(6.000000, 6.582812)">
                    <use fill="#257989" href="#path-12"></use>
                    <use fill="url(#radialGradient-2)" href="#path-12"></use>
                </g>
                <ellipse id="gradient" fill="url(#radialGradient-2)" cx="19.5" cy="18.0828118" rx="13.5" ry="11.5"></ellipse>
                <path d="M12.5948736,25.0350541 C11.3899054,18.6960045 12.8422208,14.1754906 16.9518199,11.4735124 C21.0614189,8.7715343 25.2518379,8.85187883 29.5230768,11.714546 C25.6309065,10.7024657 21.7895756,11.6688261 17.999084,14.6136272 C14.2085923,17.5584284 12.4071889,21.0322373 12.5948736,25.0350541 Z" id="glow" fill="#FFFFFF" filter="url(#filter-13)" transform="translate(20.854074, 17.270301) rotate(-300.000000) translate(-20.854074, -17.270301) "></path>
            </g>
        </g>
    </g></symbol>
</defs>
<rect x="8" y="8" width="443.2" height="152.79999999999998" rx="22" ry="22" fill="#7A5A32"/><rect x="14" y="14" width="431.2" height="140.79999999999998" rx="18" ry="18" fill="#9B7740"/><circle cx="55.599999999999994" cy="55.599999999999994" r="24" fill="#4E3320" stroke="#3A2515" stroke-width="1.5" class="board-cell" data-sq="pit-5"/><use href="#piece-playstrategy-oware-4" x="36.39999999999999" y="36.39999999999999" width="38.400000000000006" height="38.400000000000006"/><circle cx="125.19999999999999" cy="55.599999999999994" r="24" fill="#4E3320" stroke="#3A2515" stroke-width="1.5" class="board-cell" data-sq="pit-4"/><use href="#piece-playstrategy-oware-4" x="105.99999999999999" y="36.39999999999999" width="38.400000000000006" height="38.400000000000006"/><circle cx="194.79999999999998" cy="55.599999999999994" r="24" fill="#4E3320" stroke="#3A2515" stroke-width="1.5" class="board-cell" data-sq="pit-3"/><use href="#piece-playstrategy-oware-4" x="175.59999999999997" y="36.39999999999999" width="38.400000000000006" height="38.400000000000006"/><circle cx="264.4" cy="55.599999999999994" r="24" fill="#4E3320" stroke="#3A2515" stroke-width="1.5" class="board-cell" data-sq="pit-2"/><use href="#piece-playstrategy-oware-4" x="245.2" y="36.39999999999999" width="38.400000000000006" height="38.400000000000006"/><circle cx="334" cy="55.599999999999994" r="24" fill="#4E3320" stroke="#3A2515" stroke-width="1.5" class="board-cell" data-sq="pit-1"/><use href="#piece-playstrategy-oware-4" x="314.8" y="36.39999999999999" width="38.400000000000006" height="38.400000000000006"/><circle cx="403.6" cy="55.599999999999994" r="24" fill="#4E3320" stroke="#3A2515" stroke-width="1.5" class="board-cell" data-sq="pit-0"/><use href="#piece-playstrategy-oware-4" x="384.40000000000003" y="36.39999999999999" width="38.400000000000006" height="38.400000000000006"/><circle cx="55.599999999999994" cy="113.19999999999999" r="24" fill="#4E3320" stroke="#3A2515" stroke-width="1.5" class="board-cell" data-sq="pit-6"/><use href="#piece-playstrategy-oware-4" x="36.39999999999999" y="93.99999999999999" width="38.400000000000006" height="38.400000000000006"/><circle cx="125.19999999999999" cy="113.19999999999999" r="24" fill="#4E3320" stroke="#3A2515" stroke-width="1.5" class="board-cell" data-sq="pit-7"/><use href="#piece-playstrategy-oware-4" x="105.99999999999999" y="93.99999999999999" width="38.400000000000006" height="38.400000000000006"/><circle cx="194.79999999999998" cy="113.19999999999999" r="24" fill="#4E3320" stroke="#3A2515" stroke-width="1.5" class="board-cell" data-sq="pit-8"/><use href="#piece-playstrategy-oware-4" x="175.59999999999997" y="93.99999999999999" width="38.400000000000006" height="38.400000000000006"/><circle cx="264.4" cy="113.19999999999999" r="24" fill="#4E3320" stroke="#3A2515" stroke-width="1.5" class="board-cell" data-sq="pit-9"/><use href="#piece-playstrategy-oware-4" x="245.2" y="93.99999999999999" width="38.400000000000006" height="38.400000000000006"/><circle cx="334" cy="113.19999999999999" r="24" fill="#4E3320" stroke="#3A2515" stroke-width="1.5" class="board-cell" data-sq="pit-10"/><use href="#piece-playstrategy-oware-4" x="314.8" y="93.99999999999999" width="38.400000000000006" height="38.400000000000006"/><circle cx="403.6" cy="113.19999999999999" r="24" fill="#4E3320" stroke="#3A2515" stroke-width="1.5" class="board-cell" data-sq="pit-11"/><use href="#piece-playstrategy-oware-4" x="384.40000000000003" y="93.99999999999999" width="38.400000000000006" height="38.400000000000006"/>
</svg>