<svg xmlns="http://www.w3.org/2000/svg" viewBox="0 0 344 344" width="344" height="344">
<defs>
<symbol id="piece-mce-xiangqi-fairy-bR" viewBox="0 0 45 45"><circle cx="22.5" cy="22.5" r="20" fill="#f5e6c8" stroke="#1a1a1a" stroke-width="2"/><circle cx="22.5" cy="22.5" r="17" fill="none" stroke="#1a1a1a" stroke-width="0.8"/><text x="22.5" y="28" text-anchor="middle" font-size="18" font-family="serif" fill="#1a1a1a">車</text></symbol>
<symbol id="piece-mce-xiangqi-fairy-bB" viewBox="0 0 45 45"><circle cx="22.5" cy="22.5" r="20" fill="#f5e6c8" stroke="#1a1a1a" stroke-width="2"/><circle cx="22.5" cy="22.5" r="17" fill="none" stroke="#1a1a1a" stroke-width="0.8"/><text x="22.5" y="28" text-anchor="middle" font-size="18" font-family="serif" fill="#1a1a1a">象</text></symbol>
<symbol id="piece-mce-xiangqi-fairy-bE" viewBox="0 0 45 45"><circle cx="22.5" cy="22.5" r="20" fill="#f5e6c8" stroke="#1a1a1a" stroke-width="2"/><circle cx="22.5" cy="22.5" r="17" fill="none" stroke="#1a1a1a" stroke-width="0.8"/><text x="22.5" y="28" text-anchor="middle" font-size="18" font-family="serif" fill="#1a1a1a">象</text></symbol>
<symbol id="piece-mce-xiangqi-fairy-bC" viewBox="0 0 45 45"><circle cx="22.5" cy="22.5" r="20" fill="#f5e6c8" stroke="#1a1a1a" stroke-width="2"/><circle cx="22.5" cy="22.5" r="17" fill="none" stroke="#1a1a1a" stroke-width="0.8"/><text x="22.5" y="28" text-anchor="middle" font-size="18" font-family="serif" fill="#1a1a1a">砲</text></symbol>
<symbol id="piece-mce-xiangqi-fairy-bV" viewBox="0 0 45 45"><circle cx="22.5" cy="22.5" r="20" fill="#f5e6c8" stroke="#1a1a1a" stroke-width="2"/><circle cx="22.5" cy="22.5" r="17" fill="none" stroke="#1a1a1a" stroke-width="0.8"/><text x="22.5" y="28" text-anchor="middle" font-size="18" font-family="serif" fill="#1a1a1a">砲</text></symbol>
<symbol id="piece-mce-xiangqi-fairy-bN" viewBox="0 0 45 45"><circle cx="22.5" cy="22.5" r="20" fill="#f5e6c8" stroke="#1a1a1a" stroke-width="2"/><circle cx="22.5" cy="22.5" r="17" fill="none" stroke="#1a1a1a" stroke-width="0.8"/><text x="22.5" y="28" text-anchor="middle" font-size="18" font-family="serif" fill="#1a1a1a">馬</text></symbol>
<symbol id="piece-mce-xiangqi-fairy-bK" viewBox="0 0 45 45"><circle cx="22.5" cy="22.5" r="20" fill="#f5e6c8" stroke="#1a1a1a" stroke-width="2"/><circle cx="22.5" cy="22.5" r="17" fill="none" stroke="#1a1a1a" stroke-width="0.8"/><text x="22.5" y="28" text-anchor="middle" font-size="18" font-family="serif" fill="#1a1a1a">將</text></symbol>
<symbol id="piece-mce-xiangqi-fairy-wK" viewBox="0 0 45 45"><circle cx="22.5" cy="22.5" r="20" fill="#f5e6c8" stroke="#c62828" stroke-width="2"/><circle cx="22.5" cy="22.5" r="17" fill="none" stroke="#c62828" stroke-width="0.8"/><text x="22.5" y="28" text-anchor="middle" font-size="18" font-family="serif" fill="#c62828">帥</text></symbol>
<symbol id="piece-mce-xiangqi-fairy-wN" viewBox="0 0 45 45"><circle cx="22.5" cy="22.5" r="20" fill="#f5e6c8" stroke="#c62828" stroke-width="2"/><circle cx="22.5" cy="22.5" r="17" fill="none" stroke="#c62828" stroke-width="0.8"/><text x="22.5" y="28" text-anchor="middle" font-size="18" font-family="serif" fill="#c62828">馬</text></symbol>
<symbol id="piece-mce-xiangqi-fairy-wV" viewBox="0 0 45 45"><circle cx="22.5" cy="22.5" r="20" fill="#f5e6c8" stroke="#c62828" stroke-width="2"/><circle cx="22.5" cy="22.5" r="17" fill="none" stroke="#c62828" stroke-width="0.8"/><text x="22.5" y="28" text-anchor="middle" font-size="18" font-family="serif" fill="#c62828">砲</text></symbol>
<symbol id="piece-mce-xiangqi-fairy-wC" viewBox="0 0 45 45"><circle cx="22.5" cy="22.5" r="20" fill="#f5e6c8" stroke="#c62828" stroke-width="2"/><circle cx="22.5" cy="22.5" r="17" fill="none" stroke="#c62828" stroke-width="0.8"/><text x="22.5" y="28" text-anchor="middle" font-size="18" font-family="serif" fill="#c62828">炮</text></symbol>
<symbol id="piece-mce-xiangqi-fairy-wE" viewBox="0 0 45 45"><circle cx="22.5" cy="22.5" r="20" fill="#f5e6c8" stroke="#c62828" stroke-width="2"/><circle cx="22.5" cy="22.5" r="17" fill="none" stroke="#c62828" stroke-width="0.8"/><text x="22.5" y="28" text-anchor="middle" font-size="18" font-family="serif" fill="#c62828">相</text></symbol>
<symbol id="piece-mce-xiangqi-fairy-wB" viewBox="0 0 45 45"><circle cx="22.5" cy="22.5" r="20" fill="#f5e6c8" stroke="#c62828" stroke-width="2"/><circle cx="22.5" cy="22.5" r="17" fill="none" stroke="#c62828" stroke-width="0.8"/><text x="22.5" y="28" text-anchor="middle" font-size="18" font-family="serif" fill="#c62828">象</text></symbol>
<symbol id="piece-mce-xiangqi-fairy-wR" viewBox="0 0 45 45"><circle cx="22.5" cy="22.5" r="20" fill="#f5e6c8" stroke="#c62828" stroke-width="2"/><circle cx="22.5" cy="22.5" r="17" fill="none" stroke="#c62828" stroke-width="0.8"/><text x="22.5" y="28" text-anchor="middle" font-size="18" font-family="serif" fill="#c62828">車</text></symbol>
</defs>

<rect x="0" y="0" width="344" height="344" fill="#f0d9b5"/><rect x="96" y="96" width="152" height="152" fill="#6b8fb8" opacity="0.5"/><rect x="20" y="20" width="304" height="38" fill="#ffffff" opacity="0.55"/><rect x="20" y="286" width="304" height="38" fill="#ffffff" opacity="0.55"/><rect x="0" y="0" width="344" height="344" fill="none" stroke="rgba(0,0,0,0.1)" stroke-width="2"/><g stroke="rgba(0,0,0,0.1)" stroke-width="1"><line x1="20" y1="20" x2="324" y2="20"/><line x1="20" y1="58" x2="324" y2="58"/><line x1="20" y1="96" x2="324" y2="96"/><line x1="20" y1="134" x2="324" y2="134"/><line x1="20" y1="172" x2="324" y2="172"/><line x1="20" y1="210" x2="324" y2="210"/><line x1="20" y1="248" x2="324" y2="248"/><line x1="20" y1="286" x2="324" y2="286"/><line x1="20" y1="324" x2="324" y2="324"/><line x1="20" y1="20" x2="20" y2="324"/><line x1="58" y1="20" x2="58" y2="324"/><line x1="96" y1="20" x2="96" y2="324"/><line x1="134" y1="20" x2="134" y2="324"/><line x1="172" y1="20" x2="172" y2="324"/><line x1="210" y1="20" x2="210" y2="324"/><line x1="248" y1="20" x2="248" y2="324"/><line x1="286" y1="20" x2="286" y2="324"/><line x1="324" y1="20" x2="324" y2="324"/></g><g fill="transparent"><circle cx="20" cy="20" r="15.200000000000001" class="board-cell" data-sq="a9"/><circle cx="58" cy="20" r="15.200000000000001" class="board-cell" data-sq="b9"/><circle cx="96" cy="20" r="15.200000000000001" class="board-cell" data-sq="c9"/><circle cx="134" cy="20" r="15.200000000000001" class="board-cell" data-sq="d9"/><circle cx="172" cy="20" r="15.200000000000001" class="board-cell" data-sq="e9"/><circle cx="210" cy="20" r="15.200000000000001" class="board-cell" data-sq="f9"/><circle cx="248" cy="20" r="15.200000000000001" class="board-cell" data-sq="g9"/><circle cx="286" cy="20" r="15.200000000000001" class="board-cell" data-sq="h9"/><circle cx="324" cy="20" r="15.200000000000001" class="board-cell" data-sq="i9"/><circle cx="20" cy="58" r="15.200000000000001" class="board-cell" data-sq="a8"/><circle cx="58" cy="58" r="15.200000000000001" class="board-cell" data-sq="b8"/><circle cx="96" cy="58" r="15.200000000000001" class="board-cell" data-sq="c8"/><circle cx="134" cy="58" r="15.200000000000001" class="board-cell" data-sq="d8"/><circle cx="172" cy="58" r="15.200000000000001" class="board-cell" data-sq="e8"/><circle cx="210" cy="58" r="15.200000000000001" class="board-cell" data-sq="f8"/><circle cx="248" cy="58" r="15.200000000000001" class="board-cell" data-sq="g8"/><circle cx="286" cy="58" r="15.200000000000001" class="board-cell" data-sq="h8"/><circle cx="324" cy="58" r="15.200000000000001" class="board-cell" data-sq="i8"/><circle cx="20" cy="96" r="15.200000000000001" class="board-cell" data-sq="a7"/><circle cx="58" cy="96" r="15.200000000000001" class="board-cell" data-sq="b7"/><circle cx="96" cy="96" r="15.200000000000001" class="board-cell" data-sq="c7"/><circle cx="134" cy="96" r="15.200000000000001" class="board-cell" data-sq="d7"/><circle cx="172" cy="96" r="15.200000000000001" class="board-cell" data-sq="e7"/><circle cx="210" cy="96" r="15.200000000000001" class="board-cell" data-sq="f7"/><circle cx="248" cy="96" r="15.200000000000001" class="board-cell" data-sq="g7"/><circle cx="286" cy="96" r="15.200000000000001" class="board-cell" data-sq="h7"/><circle cx="324" cy="96" r="15.200000000000001" class="board-cell" data-sq="i7"/><circle cx="20" cy="134" r="15.200000000000001" class="board-cell" data-sq="a6"/><circle cx="58" cy="134" r="15.200000000000001" class="board-cell" data-sq="b6"/><circle cx="96" cy="134" r="15.200000000000001" class="board-cell" data-sq="c6"/><circle cx="134" cy="134" r="15.200000000000001" class="board-cell" data-sq="d6"/><circle cx="172" cy="134" r="15.200000000000001" class="board-cell" data-sq="e6"/><circle cx="210" cy="134" r="15.200000000000001" class="board-cell" data-sq="f6"/><circle cx="248" cy="134" r="15.200000000000001" class="board-cell" data-sq="g6"/><circle cx="286" cy="134" r="15.200000000000001" class="board-cell" data-sq="h6"/><circle cx="324" cy="134" r="15.200000000000001" class="board-cell" data-sq="i6"/><circle cx="20" cy="172" r="15.200000000000001" class="board-cell" data-sq="a5"/><circle cx="58" cy="172" r="15.200000000000001" class="board-cell" data-sq="b5"/><circle cx="96" cy="172" r="15.200000000000001" class="board-cell" data-sq="c5"/><circle cx="134" cy="172" r="15.200000000000001" class="board-cell" data-sq="d5"/><circle cx="172" cy="172" r="15.200000000000001" class="board-cell" data-sq="e5"/><circle cx="210" cy="172" r="15.200000000000001" class="board-cell" data-sq="f5"/><circle cx="248" cy="172" r="15.200000000000001" class="board-cell" data-sq="g5"/><circle cx="286" cy="172" r="15.200000000000001" class="board-cell" data-sq="h5"/><circle cx="324" cy="172" r="15.200000000000001" class="board-cell" data-sq="i5"/><circle cx="20" cy="210" r="15.200000000000001" class="board-cell" data-sq="a4"/><circle cx="58" cy="210" r="15.200000000000001" class="board-cell" data-sq="b4"/><circle cx="96" cy="210" r="15.200000000000001" class="board-cell" data-sq="c4"/><circle cx="134" cy="210" r="15.200000000000001" class="board-cell" data-sq="d4"/><circle cx="172" cy="210" r="15.200000000000001" class="board-cell" data-sq="e4"/><circle cx="210" cy="210" r="15.200000000000001" class="board-cell" data-sq="f4"/><circle cx="248" cy="210" r="15.200000000000001" class="board-cell" data-sq="g4"/><circle cx="286" cy="210" r="15.200000000000001" class="board-cell" data-sq="h4"/><circle cx="324" cy="210" r="15.200000000000001" class="board-cell" data-sq="i4"/><circle cx="20" cy="248" r="15.200000000000001" class="board-cell" data-sq="a3"/><circle cx="58" cy="248" r="15.200000000000001" class="board-cell" data-sq="b3"/><circle cx="96" cy="248" r="15.200000000000001" class="board-cell" data-sq="c3"/><circle cx="134" cy="248" r="15.200000000000001" class="board-cell" data-sq="d3"/><circle cx="172" cy="248" r="15.200000000000001" class="board-cell" data-sq="e3"/><circle cx="210" cy="248" r="15.200000000000001" class="board-cell" data-sq="f3"/><circle cx="248" cy="248" r="15.200000000000001" class="board-cell" data-sq="g3"/><circle cx="286" cy="248" r="15.200000000000001" class="board-cell" data-sq="h3"/><circle cx="324" cy="248" r="15.200000000000001" class="board-cell" data-sq="i3"/><circle cx="20" cy="286" r="15.200000000000001" class="board-cell" data-sq="a2"/><circle cx="58" cy="286" r="15.200000000000001" class="board-cell" data-sq="b2"/><circle cx="96" cy="286" r="15.200000000000001" class="board-cell" data-sq="c2"/><circle cx="134" cy="286" r="15.200000000000001" class="board-cell" data-sq="d2"/><circle cx="172" cy="286" r="15.200000000000001" class="board-cell" data-sq="e2"/><circle cx="210" cy="286" r="15.200000000000001" class="board-cell" data-sq="f2"/><circle cx="248" cy="286" r="15.200000000000001" class="board-cell" data-sq="g2"/><circle cx="286" cy="286" r="15.200000000000001" class="board-cell" data-sq="h2"/><circle cx="324" cy="286" r="15.200000000000001" class="board-cell" data-sq="i2"/><circle cx="20" cy="324" r="15.200000000000001" class="board-cell" data-sq="a1"/><circle cx="58" cy="324" r="15.200000000000001" class="board-cell" data-sq="b1"/><circle cx="96" cy="324" r="15.200000000000001" class="board-cell" data-sq="c1"/><circle cx="134" cy="324" r="15.200000000000001" class="board-cell" data-sq="d1"/><circle cx="172" cy="324" r="15.200000000000001" class="board-cell" data-sq="e1"/><circle cx="210" cy="324" r="15.200000000000001" class="board-cell" data-sq="f1"/><circle cx="248" cy="324" r="15.200000000000001" class="board-cell" data-sq="g1"/><circle cx="286" cy="324" r="15.200000000000001" class="board-cell" data-sq="h1"/><circle cx="324" cy="324" r="15.200000000000001" class="board-cell" data-sq="i1"/></g>
<g pointer-events="none"><use href="#piece-mce-xiangqi-fairy-bR" x="77" y="1" width="38" height="38"/><use href="#piece-mce-xiangqi-fairy-bB" x="115" y="1" width="38" height="38"/><use href="#piece-mce-xiangqi-fairy-bE" x="153" y="1" width="38" height="38"/><use href="#piece-mce-xiangqi-fairy-bC" x="77" y="39" width="38" height="38"/><use href="#piece-mce-xiangqi-fairy-bV" x="115" y="39" width="38" height="38"/><use href="#piece-mce-xiangqi-fairy-bN" x="153" y="39" width="38" height="38"/><use href="#piece-mce-xiangqi-fairy-bK" x="77" y="77" width="38" height="38"/><use href="#piece-mce-xiangqi-fairy-bK" x="153" y="77" width="38" height="38"/><use href="#piece-mce-xiangqi-fairy-wK" x="153" y="229" width="38" height="38"/><use href="#piece-mce-xiangqi-fairy-wK" x="229" y="229" width="38" height="38"/><use href="#piece-mce-xiangqi-fairy-wN" x="153" y="267" width="38" height="38"/><use href="#piece-mce-xiangqi-fairy-wV" x="191" y="267" width="38" height="38"/><use href="#piece-mce-xiangqi-fairy-wC" x="229" y="267" width="38" height="38"/><use href="#piece-mce-xiangqi-fairy-wE" x="153" y="305" width="38" height="38"/><use href="#piece-mce-xiangqi-fairy-wB" x="191" y="305" width="38" height="38"/><use href="#piece-mce-xiangqi-fairy-wR" x="229" y="305" width="38" height="38"/></g>
</svg>