<svg xmlns="http://www.w3.org/2000/svg" viewBox="0 0 343.2 422.1460598986377" width="343.2" height="422.1460598986377">
<defs>
<symbol id="piece-mce-chess-bP" viewBox="0 0 45 45"><path d="M 22,9 C 19.79,9 18,10.79 18,13 C 18,13.89 18.29,14.71 18.78,15.38 C 16.83,16.5 15.5,18.59 15.5,21 C 15.5,23.03 16.44,24.84 17.91,26.03 C 14.91,27.09 10.5,31.58 10.5,39.5 L 33.5,39.5 C 33.5,31.58 29.09,27.09 26.09,26.03 C 27.56,24.84 28.5,23.03 28.5,21 C 28.5,18.59 27.17,16.5 25.22,15.38 C 25.71,14.71 26,13.89 26,13 C 26,10.79 24.21,9 22,9 z" style="fill:#000;stroke:#000;stroke-width:1.5;stroke-linecap:round"/></symbol>
<symbol id="piece-mce-chess-bQ" viewBox="0 0 45 45"><g style="fill:#000;stroke:#000;stroke-width:1.5;stroke-linejoin:round"><path d="M 9,26 C 17.5,24.5 30,24.5 36,26 L 38.5,13.5 L 31,25 L 30.7,10.9 L 25.5,24.5 L 22.5,10 L 19.5,24.5 L 14.3,10.9 L 14,25 L 6.5,13.5 L 9,26 z"/><path d="M 9,26 C 9,28 10.5,28 11.5,30 C 12.5,31.5 12.5,31 12,33.5 C 10.5,34.5 11,36 11,36 C 9.5,37.5 11.5,38.5 11.5,38.5 C 17.5,39.5 27.5,39.5 33.5,38.5 C 33.5,38.5 35.5,37.5 34,36 C 34,36 34.5,34.5 33,33.5 C 32.5,31 32.5,31.5 33.5,30 C 34.5,28 36,28 36,26 C 27.5,24.5 17.5,24.5 9,26 z"/><path d="M 11.5,30 C 15,29 30,29 33.5,30" style="fill:none;stroke:#fff"/><path d="M 12,33.5 C 15,32.5 30,32.5 33,33.5" style="fill:none;stroke:#fff"/><circle cx="6" cy="12" r="2" style="fill:#fff"/><circle cx="14" cy="9" r="2" style="fill:#fff"/><circle cx="22.5" cy="8" r="2" style="fill:#fff"/><circle cx="31" cy="9" r="2" style="fill:#fff"/><circle cx="39" cy="12" r="2" style="fill:#fff"/></g></symbol>
<symbol id="piece-mce-chess-wP" viewBox="0 0 45 45"><path d="M 22,9 C 19.79,9 18,10.79 18,13 C 18,13.89 18.29,14.71 18.78,15.38 C 16.83,16.5 15.5,18.59 15.5,21 C 15.5,23.03 16.44,24.84 17.91,26.03 C 14.91,27.09 10.5,31.58 10.5,39.5 L 33.5,39.5 C 33.5,31.58 29.09,27.09 26.09,26.03 C 27.56,24.84 28.5,23.03 28.5,21 C 28.5,18.59 27.17,16.5 25.22,15.38 C 25.71,14.71 26,13.89 26,13 C 26,10.79 24.21,9 22,9 z" style="fill:#fff;stroke:#000;stroke-width:1.5;stroke-linecap:round"/></symbol>
<symbol id="piece-mce-chess-wQ" viewBox="0 0 45 45"><g style="fill:#fff;stroke:#000;stroke-width:1.5;stroke-linejoin:round"><path d="M 9,26 C 17.5,24.5 30,24.5 36,26 L 38.5,13.5 L 31,25 L 30.7,10.9 L 25.5,24.5 L 22.5,10 L 19.5,24.5 L 14.3,10.9 L 14,25 L 6.5,13.5 L 9,26 z"/><path d="M 9,26 C 9,28 10.5,28 11.5,30 C 12.5,31.5 12.5,31 12,33.5 C 10.5,34.5 11,36 11,36 C 9.5,37.5 11.5,38.5 11.5,38.5 C 17.5,39.5 27.5,39.5 33.5,38.5 C 33.5,38.5 35.5,37.5 34,36 C 34,36 34.5,34.5 33,33.5 C 32.5,31 32.5,31.5 33.5,30 C 34.5,28 36,28 36,26 C 27.5,24.5 17.5,24.5 9,26 z"/><path d="M 11.5,30 C 15,29 30,29 33.5,30" style="fill:none"/><path d="M 12,33.5 C 15,32.5 30,32.5 33,33.5" style="fill:none"/><circle cx="6" cy="12" r="2"/><circle cx="14" cy="9" r="2"/><circle cx="22.5" cy="8" r="2"/><circle cx="31" cy="9" r="2"/><circle cx="39" cy="12" r="2"/></g></symbol>
<symbol id="piece-mce-chess-bB" viewBox="0 0 45 45"><g style="fill:none;stroke:#000;stroke-width:1.5;stroke-linecap:round;stroke-linejoin:round"><g style="fill:#000;stroke-linecap:butt"><path d="M 9,36 C 12.39,35.03 19.11,36.43 22.5,34 C 25.89,36.43 32.61,35.03 36,36 C 36,36 37.65,36.54 39,38 C 38.32,38.97 37.2,38.91 36,38.5 C 32.61,37.53 25.89,38.96 22.5,37.5 C 19.11,38.96 12.39,37.53 9,38.5 C 7.8,38.91 6.68,38.97 6,38 C 7.35,36.54 9,36 9,36 z"/><path d="M 15,32 C 17.5,34.5 27.5,34.5 30,32 C 30.5,30.5 30,30 30,30 C 30,27.5 27.5,26 27.5,26 C 33,24.5 33.5,14.5 22.5,10.5 C 11.5,14.5 12,24.5 17.5,26 C 17.5,26 15,27.5 15,30 C 15,30 14.5,30.5 15,32 z"/><path d="M 25,8 A 2.5,2.5 0 1 1 20,8 A 2.5,2.5 0 1 1 25,8 z"/></g><path d="M 17.5,26 L 27.5,26 M 15,30 L 30,30 M 22.5,15.5 L 22.5,20.5 M 20,18 L 25,18" style="fill:none;stroke:#fff;stroke-linejoin:miter"/></g></symbol>
<symbol id="piece-mce-chess-wB" viewBox="0 0 45 45"><g style="fill:none;stroke:#000;stroke-width:1.5;stroke-linecap:round;stroke-linejoin:round"><g style="fill:#fff;stroke-linecap:butt"><path d="M 9,36 C 12.39,35.03 19.11,36.43 22.5,34 C 25.89,36.43 32.61,35.03 36,36 C 36,36 37.65,36.54 39,38 C 38.32,38.97 37.2,38.91 36,38.5 C 32.61,37.53 25.89,38.96 22.5,37.5 C 19.11,38.96 12.39,37.53 9,38.5 C 7.8,38.91 6.68,38.97 6,38 C 7.35,36.54 9,36 9,36 z"/><path d="M 15,32 C 17.5,34.5 27.5,34.5 30,32 C 30.5,30.5 30,30 30,30 C 30,27.5 27.5,26 27.5,26 C 33,24.5 33.5,14.5 22.5,10.5 C 11.5,14.5 12,24.5 17.5,26 C 17.5,26 15,27.5 15,30 C 15,30 14.5,30.5 15,32 z"/><path d="M 25,8 A 2.5,2.5 0 1 1 20,8 A 2.5,2.5 0 1 1 25,8 z"/></g><path d="M 17.5,26 L 27.5,26 M 15,30 L 30,30 M 22.5,15.5 L 22.5,20.5 M 20,18 L 25,18" style="fill:none;stroke:#000;stroke-linejoin:miter"/></g></symbol>
<symbol id="piece-mce-chess-bN" viewBox="0 0 45 45"><g style="fill:none;stroke:#000;stroke-width:1.5;stroke-linecap:round;stroke-linejoin:round"><path d="M 22,10 C 32.5,11 38.5,18 38,39 L 15,39 C 15,30 25,32.5 23,18" style="fill:#000"/><path d="M 24,18 C 24.38,20.91 18.45,25.37 16,27 C 13,29 13.18,31.34 11,31 C 9.958,30.06 12.41,27.96 11,28 C 10,28 11.19,29.23 10,30 C 9,30 5.997,31 6,26 C 6,24 12,14 12,14 C 12,14 13.89,12.1 14,10.5 C 13.27,9.506 13.5,8.5 13.5,7.5 C 14.5,6.5 16.5,10 16.5,10 L 18.5,10 C 18.5,10 19.28,8.008 21,7 C 22,7 22,10 22,10" style="fill:#000"/><path d="M 9.5,25.5 A 0.5,0.5 0 1 1 8.5,25.5 A 0.5,0.5 0 1 1 9.5,25.5 z" style="fill:#fff"/><path d="M 15,15.5 A 0.5,1.5 0 1 1 14,15.5 A 0.5,1.5 0 1 1 15,15.5 z" transform="matrix(0.866,0.5,-0.5,0.866,9.693,-5.173)" style="fill:#fff"/><path d="M 24.55,10.4 L 24.1,11.85 L 24.6,12 C 27.75,13 30.25,14.49 32.5,18.75 C 34.75,23.01 35.75,29.06 35.25,39 L 35.2,39.5 L 37.45,39.5 L 37.5,39 C 38,28.94 36.62,22.15 34.25,17.66 C 31.88,13.17 28.46,11.02 25.06,10.5 L 24.55,10.4 z" style="fill:#fff;stroke:none"/></g></symbol>
<symbol id="piece-mce-chess-wN" viewBox="0 0 45 45"><g style="fill:none;stroke:#000;stroke-width:1.5;stroke-linecap:round;stroke-linejoin:round"><path d="M 22,10 C 32.5,11 38.5,18 38,39 L 15,39 C 15,30 25,32.5 23,18" style="fill:#fff"/><path d="M 24,18 C 24.38,20.91 18.45,25.37 16,27 C 13,29 13.18,31.34 11,31 C 9.958,30.06 12.41,27.96 11,28 C 10,28 11.19,29.23 10,30 C 9,30 5.997,31 6,26 C 6,24 12,14 12,14 C 12,14 13.89,12.1 14,10.5 C 13.27,9.506 13.5,8.5 13.5,7.5 C 14.5,6.5 16.5,10 16.5,10 L 18.5,10 C 18.5,10 19.28,8.008 21,7 C 22,7 22,10 22,10" style="fill:#fff"/><path d="M 9.5,25.5 A 0.5,0.5 0 1 1 8.5,25.5 A 0.5,0.5 0 1 1 9.5,25.5 z" style="fill:#000"/><path d="M 15,15.5 A 0.5,1.5 0 1 1 14,15.5 A 0.5,1.5 0 1 1 15,15.5 z" transform="matrix(0.866,0.5,-0.5,0.866,9.693,-5.173)" style="fill:#000"/></g></symbol>
<symbol id="piece-mce-chess-bR" viewBox="0 0 45 45"><g style="fill:#000;stroke:#000;stroke-width:1.5;stroke-linecap:round;stroke-linejoin:round"><path d="M 9,39 L 36,39 L 36,36 L 9,36 L 9,39 z"/><path d="M 12,36 L 12,32 L 33,32 L 33,36 L 12,36 z"/><path d="M 11,14 L 11,9 L 15,9 L 15,11 L 20,11 L 20,9 L 25,9 L 25,11 L 30,11 L 30,9 L 34,9 L 34,14"/><path d="M 34,14 L 31,17 L 14,17 L 11,14"/><path d="M 31,17 L 31,29.5 L 14,29.5 L 14,17"/><path d="M 31,29.5 L 32.5,32 L 12.5,32 L 14,29.5"/><path d="M 11,14 L 34,14" style="fill:none;stroke:#fff;stroke-linejoin:miter"/><path d="M 12,35.5 L 33,35.5" style="fill:none;stroke:#fff;stroke-width:1"/><path d="M 13,31.5 L 32,31.5" style="fill:none;stroke:#fff;stroke-width:1"/><path d="M 14,29.5 L 31,29.5" style="fill:none;stroke:#fff;stroke-width:1"/></g></symbol>
<symbol id="piece-mce-chess-wR" viewBox="0 0 45 45"><g style="fill:#fff;stroke:#000;stroke-width:1.5;stroke-linecap:round;stroke-linejoin:round"><path d="M 9,39 L 36,39 L 36,36 L 9,36 L 9,39 z"/><path d="M 12,36 L 12,32 L 33,32 L 33,36 L 12,36 z"/><path d="M 11,14 L 11,9 L 15,9 L 15,11 L 20,11 L 20,9 L 25,9 L 25,11 L 30,11 L 30,9 L 34,9 L 34,14"/><path d="M 34,14 L 31,17 L 14,17 L 11,14"/><path d="M 31,17 L 31,29.5 L 14,29.5 L 14,17"/><path d="M 31,29.5 L 32.5,32 L 12.5,32 L 14,29.5"/><path d="M 11,14 L 34,14" style="fill:none"/></g></symbol>
<symbol id="piece-mce-chess-bK" viewBox="0 0 45 45"><g style="fill:#000;stroke:#000;stroke-width:1.5;stroke-linejoin:round"><path d="M 22.5,11.63 L 22.5,6" style="fill:none;stroke:#fff;stroke-linejoin:miter"/><path d="M 20,8 L 25,8" style="fill:none;stroke:#fff;stroke-linejoin:miter"/><path d="M 22.5,25 C 22.5,25 27,17.5 25.5,14.5 C 25.5,14.5 24.5,12 22.5,12 C 20.5,12 19.5,14.5 19.5,14.5 C 18,17.5 22.5,25 22.5,25"/><path d="M 12.5,37 C 18,40.5 27,40.5 32.5,37 L 32.5,30 C 32.5,30 41.5,25.5 38.5,19.5 C 34.5,13 25,16 22.5,23.5 L 22.5,27 L 22.5,23.5 C 20,16 10.5,13 6.5,19.5 C 3.5,25.5 12.5,30 12.5,30 L 12.5,37"/><path d="M 12.5,30 C 18,27 27,27 32.5,30" style="fill:none;stroke:#fff"/><path d="M 12.5,33.5 C 18,30.5 27,30.5 32.5,33.5" style="fill:none;stroke:#fff"/><path d="M 12.5,37 C 18,34 27,34 32.5,37" style="fill:none;stroke:#fff"/></g></symbol>
<symbol id="piece-mce-chess-wK" viewBox="0 0 45 45"><g style="fill:#fff;stroke:#000;stroke-width:1.5;stroke-linejoin:round"><path d="M 22.5,11.63 L 22.5,6" style="fill:none;stroke-linejoin:miter"/><path d="M 20,8 L 25,8" style="fill:none;stroke-linejoin:miter"/><path d="M 22.5,25 C 22.5,25 27,17.5 25.5,14.5 C 25.5,14.5 24.5,12 22.5,12 C 20.5,12 19.5,14.5 19.5,14.5 C 18,17.5 22.5,25 22.5,25"/><path d="M 12.5,37 C 18,40.5 27,40.5 32.5,37 L 32.5,30 C 32.5,30 41.5,25.5 38.5,19.5 C 34.5,13 25,16 22.5,23.5 L 22.5,27 L 22.5,23.5 C 20,16 10.5,13 6.5,19.5 C 3.5,25.5 12.5,30 12.5,30 L 12.5,37"/><path d="M 12.5,30 C 18,27 27,27 32.5,30"/><path d="M 12.5,33.5 C 18,30.5 27,30.5 32.5,33.5"/><path d="M 12.5,37 C 18,34 27,34 32.5,37"/></g></symbol>
</defs>
<g fill="#6b4226"><polygon points="63.36,115.81 51.48,136.39 27.72,136.39 15.84,115.81 27.72,95.23 51.48,95.23"/><polygon points="63.36,153.92 51.48,174.49 27.72,174.49 15.84,153.92 27.72,133.34 51.48,133.34"/><polygon points="63.36,192.02 51.48,212.60 27.72,212.60 15.84,192.02 27.72,171.44 51.48,171.44"/><polygon points="63.36,230.13 51.48,250.70 27.72,250.70 15.84,230.13 27.72,209.55 51.48,209.55"/><polygon points="63.36,268.23 51.48,288.81 27.72,288.81 15.84,268.23 27.72,247.65 51.48,247.65"/><polygon points="63.36,306.34 51.48,326.91 27.72,326.91 15.84,306.34 27.72,285.76 51.48,285.76"/><polygon points="96.36,96.76 84.48,117.33 60.72,117.33 48.84,96.76 60.72,76.18 84.48,76.18"/><polygon points="96.36,134.86 84.48,155.44 60.72,155.44 48.84,134.86 60.72,114.29 84.48,114.29"/><polygon points="96.36,172.97 84.48,193.54 60.72,193.54 48.84,172.97 60.72,152.39 84.48,152.39"/><polygon points="96.36,211.07 84.48,231.65 60.72,231.65 48.84,211.07 60.72,190.50 84.48,190.50"/><polygon points="96.36,249.18 84.48,269.75 60.72,269.75 48.84,249.18 60.72,228.60 84.48,228.60"/><polygon points="96.36,287.28 84.48,307.86 60.72,307.86 48.84,287.28 60.72,266.71 84.48,266.71"/><polygon points="96.36,325.39 84.48,345.97 60.72,345.97 48.84,325.39 60.72,304.81 84.48,304.81"/><polygon points="129.36,77.71 117.48,98.28 93.72,98.28 81.84,77.71 93.72,57.13 117.48,57.13"/><polygon points="129.36,115.81 117.48,136.39 93.72,136.39 81.84,115.81 93.72,95.23 117.48,95.23"/><polygon points="129.36,153.92 117.48,174.49 93.72,174.49 81.84,153.92 93.72,133.34 117.48,133.34"/><polygon points="129.36,192.02 117.48,212.60 93.72,212.60 81.84,192.02 93.72,171.44 117.48,171.44"/><polygon points="129.36,230.13 117.48,250.70 93.72,250.70 81.84,230.13 93.72,209.55 117.48,209.55"/><polygon points="129.36,268.23 117.48,288.81 93.72,288.81 81.84,268.23 93.72,247.65 117.48,247.65"/><polygon points="129.36,306.34 117.48,326.91 93.72,326.91 81.84,306.34 93.72,285.76 117.48,285.76"/><polygon points="129.36,344.44 117.48,365.02 93.72,365.02 81.84,344.44 93.72,323.86 117.48,323.86"/><polygon points="162.36,58.65 150.48,79.23 126.72,79.23 114.84,58.65 126.72,38.08 150.48,38.08"/><polygon points="162.36,96.76 150.48,117.33 126.72,117.33 114.84,96.76 126.72,76.18 150.48,76.18"/><polygon points="162.36,134.86 150.48,155.44 126.72,155.44 114.84,134.86 126.72,114.29 150.48,114.29"/><polygon points="162.36,172.97 150.48,193.54 126.72,193.54 114.84,172.97 126.72,152.39 150.48,152.39"/><polygon points="162.36,211.07 150.48,231.65 126.72,231.65 114.84,211.07 126.72,190.50 150.48,190.50"/><polygon points="162.36,249.18 150.48,269.75 126.72,269.75 114.84,249.18 126.72,228.60 150.48,228.60"/><polygon points="162.36,287.28 150.48,307.86 126.72,307.86 114.84,287.28 126.72,266.71 150.48,266.71"/><polygon points="162.36,325.39 150.48,345.97 126.72,345.97 114.84,325.39 126.72,304.81 150.48,304.81"/><polygon points="162.36,363.49 150.48,384.07 126.72,384.07 114.84,363.49 126.72,342.92 150.48,342.92"/><polygon points="195.36,39.60 183.48,60.18 159.72,60.18 147.84,39.60 159.72,19.02 183.48,19.02"/><polygon points="195.36,77.71 183.48,98.28 159.72,98.28 147.84,77.71 159.72,57.13 183.48,57.13"/><polygon points="195.36,115.81 183.48,136.39 159.72,136.39 147.84,115.81 159.72,95.23 183.48,95.23"/><polygon points="195.36,153.92 183.48,174.49 159.72,174.49 147.84,153.92 159.72,133.34 183.48,133.34"/><polygon points="195.36,192.02 183.48,212.60 159.72,212.60 147.84,192.02 159.72,171.44 183.48,171.44"/><polygon points="195.36,230.13 183.48,250.70 159.72,250.70 147.84,230.13 159.72,209.55 183.48,209.55"/><polygon points="195.36,268.23 183.48,288.81 159.72,288.81 147.84,268.23 159.72,247.65 183.48,247.65"/><polygon points="195.36,306.34 183.48,326.91 159.72,326.91 147.84,306.34 159.72,285.76 183.48,285.76"/><polygon points="195.36,344.44 183.48,365.02 159.72,365.02 147.84,344.44 159.72,323.86 183.48,323.86"/><polygon points="195.36,382.55 183.48,403.12 159.72,403.12 147.84,382.55 159.72,361.97 183.48,361.97"/><polygon points="228.36,58.65 216.48,79.23 192.72,79.23 180.84,58.65 192.72,38.08 216.48,38.08"/><polygon points="228.36,96.76 216.48,117.33 192.72,117.33 180.84,96.76 192.72,76.18 216.48,76.18"/><polygon points="228.36,134.86 216.48,155.44 192.72,155.44 180.84,134.86 192.72,114.29 216.48,114.29"/><polygon points="228.36,172.97 216.48,193.54 192.72,193.54 180.84,172.97 192.72,152.39 216.48,152.39"/><polygon points="228.36,211.07 216.48,231.65 192.72,231.65 180.84,211.07 192.72,190.50 216.48,190.50"/><polygon points="228.36,249.18 216.48,269.75 192.72,269.75 180.84,249.18 192.72,228.60 216.48,228.60"/><polygon points="228.36,287.28 216.48,307.86 192.72,307.86 180.84,287.28 192.72,266.71 216.48,266.71"/><polygon points="228.36,325.39 216.48,345.97 192.72,345.97 180.84,325.39 192.72,304.81 216.48,304.81"/><polygon points="228.36,363.49 216.48,384.07 192.72,384.07 180.84,363.49 192.72,342.92 216.48,342.92"/><polygon points="261.36,77.71 249.48,98.28 225.72,98.28 213.84,77.71 225.72,57.13 249.48,57.13"/><polygon points="261.36,115.81 249.48,136.39 225.72,136.39 213.84,115.81 225.72,95.23 249.48,95.23"/><polygon points="261.36,153.92 249.48,174.49 225.72,174.49 213.84,153.92 225.72,133.34 249.48,133.34"/><polygon points="261.36,192.02 249.48,212.60 225.72,212.60 213.84,192.02 225.72,171.44 249.48,171.44"/><polygon points="261.36,230.13 249.48,250.70 225.72,250.70 213.84,230.13 225.72,209.55 249.48,209.55"/><polygon points="261.36,268.23 249.48,288.81 225.72,288.81 213.84,268.23 225.72,247.65 249.48,247.65"/><polygon points="261.36,306.34 249.48,326.91 225.72,326.91 213.84,306.34 225.72,285.76 249.48,285.76"/><polygon points="261.36,344.44 249.48,365.02 225.72,365.02 213.84,344.44 225.72,323.86 249.48,323.86"/><polygon points="294.36,96.76 282.48,117.33 258.72,117.33 246.84,96.76 258.72,76.18 282.48,76.18"/><polygon points="294.36,134.86 282.48,155.44 258.72,155.44 246.84,134.86 258.72,114.29 282.48,114.29"/><polygon points="294.36,172.97 282.48,193.54 258.72,193.54 246.84,172.97 258.72,152.39 282.48,152.39"/><polygon points="294.36,211.07 282.48,231.65 258.72,231.65 246.84,211.07 258.72,190.50 282.48,190.50"/><polygon points="294.36,249.18 282.48,269.75 258.72,269.75 246.84,249.18 258.72,228.60 282.48,228.60"/><polygon points="294.36,287.28 282.48,307.86 258.72,307.86 246.84,287.28 258.72,266.71 282.48,266.71"/><polygon points="294.36,325.39 282.48,345.97 258.72,345.97 246.84,325.39 258.72,304.81 282.48,304.81"/><polygon points="327.36,115.81 315.48,136.39 291.72,136.39 279.84,115.81 291.72,95.23 315.48,95.23"/><polygon points="327.36,153.92 315.48,174.49 291.72,174.49 279.84,153.92 291.72,133.34 315.48,133.34"/><polygon points="327.36,192.02 315.48,212.60 291.72,212.60 279.84,192.02 291.72,171.44 315.48,171.44"/><polygon points="327.36,230.13 315.48,250.70 291.72,250.70 279.84,230.13 291.72,209.55 315.48,209.55"/><polygon points="327.36,268.23 315.48,288.81 291.72,288.81 279.84,268.23 291.72,247.65 315.48,247.65"/><polygon points="327.36,306.34 315.48,326.91 291.72,326.91 279.84,306.34 291.72,285.76 315.48,285.76"/></g><g fill="none" stroke="#6b4226" stroke-width="14" stroke-linecap="round" stroke-linejoin="round"><line x1="28.05" y1="135.82" x2="16.50" y2="115.81"/><line x1="16.50" y1="115.81" x2="28.05" y2="95.81"/><line x1="28.05" y1="95.81" x2="51.15" y2="95.81"/><line x1="28.05" y1="173.92" x2="16.50" y2="153.92"/><line x1="16.50" y1="153.92" x2="28.05" y2="133.91"/><line x1="28.05" y1="212.03" x2="16.50" y2="192.02"/><line x1="16.50" y1="192.02" x2="28.05" y2="172.02"/><line x1="28.05" y1="250.13" x2="16.50" y2="230.13"/><line x1="16.50" y1="230.13" x2="28.05" y2="210.12"/><line x1="28.05" y1="288.24" x2="16.50" y2="268.23"/><line x1="16.50" y1="268.23" x2="28.05" y2="248.23"/><line x1="51.15" y1="326.34" x2="28.05" y2="326.34"/><line x1="28.05" y1="326.34" x2="16.50" y2="306.34"/><line x1="16.50" y1="306.34" x2="28.05" y2="286.33"/><line x1="49.50" y1="96.76" x2="61.05" y2="76.75"/><line x1="61.05" y1="76.75" x2="84.15" y2="76.75"/><line x1="84.15" y1="345.39" x2="61.05" y2="345.39"/><line x1="61.05" y1="345.39" x2="49.50" y2="325.39"/><line x1="82.50" y1="77.71" x2="94.05" y2="57.70"/><line x1="94.05" y1="57.70" x2="117.15" y2="57.70"/><line x1="117.15" y1="364.45" x2="94.05" y2="364.45"/><line x1="94.05" y1="364.45" x2="82.50" y2="344.44"/><line x1="115.50" y1="58.65" x2="127.05" y2="38.65"/><line x1="127.05" y1="38.65" x2="150.15" y2="38.65"/><line x1="150.15" y1="383.50" x2="127.05" y2="383.50"/><line x1="127.05" y1="383.50" x2="115.50" y2="363.49"/><line x1="148.50" y1="39.60" x2="160.05" y2="19.59"/><line x1="160.05" y1="19.59" x2="183.15" y2="19.59"/><line x1="183.15" y1="19.59" x2="194.70" y2="39.60"/><line x1="194.70" y1="382.55" x2="183.15" y2="402.55"/><line x1="183.15" y1="402.55" x2="160.05" y2="402.55"/><line x1="160.05" y1="402.55" x2="148.50" y2="382.55"/><line x1="193.05" y1="38.65" x2="216.15" y2="38.65"/><line x1="216.15" y1="38.65" x2="227.70" y2="58.65"/><line x1="227.70" y1="363.49" x2="216.15" y2="383.50"/><line x1="216.15" y1="383.50" x2="193.05" y2="383.50"/><line x1="226.05" y1="57.70" x2="249.15" y2="57.70"/><line x1="249.15" y1="57.70" x2="260.70" y2="77.71"/><line x1="260.70" y1="344.44" x2="249.15" y2="364.45"/><line x1="249.15" y1="364.45" x2="226.05" y2="364.45"/><line x1="259.05" y1="76.75" x2="282.15" y2="76.75"/><line x1="282.15" y1="76.75" x2="293.70" y2="96.76"/><line x1="293.70" y1="325.39" x2="282.15" y2="345.39"/><line x1="282.15" y1="345.39" x2="259.05" y2="345.39"/><line x1="326.70" y1="115.81" x2="315.15" y2="135.82"/><line x1="292.05" y1="95.81" x2="315.15" y2="95.81"/><line x1="315.15" y1="95.81" x2="326.70" y2="115.81"/><line x1="326.70" y1="153.92" x2="315.15" y2="173.92"/><line x1="315.15" y1="133.91" x2="326.70" y2="153.92"/><line x1="326.70" y1="192.02" x2="315.15" y2="212.03"/><line x1="315.15" y1="172.02" x2="326.70" y2="192.02"/><line x1="326.70" y1="230.13" x2="315.15" y2="250.13"/><line x1="315.15" y1="210.12" x2="326.70" y2="230.13"/><line x1="326.70" y1="268.23" x2="315.15" y2="288.24"/><line x1="315.15" y1="248.23" x2="326.70" y2="268.23"/><line x1="326.70" y1="306.34" x2="315.15" y2="326.34"/><line x1="315.15" y1="326.34" x2="292.05" y2="326.34"/><line x1="315.15" y1="286.33" x2="326.70" y2="306.34"/></g><polygon points="60.50,115.81 50.05,133.91 29.15,133.91 18.70,115.81 29.15,97.71 50.05,97.71" fill="#d18b47" stroke="rgba(0,0,0,0.15)" stroke-width="1" data-sq="-4,0" class="board-cell"/><polygon points="60.50,153.92 50.05,172.02 29.15,172.02 18.70,153.92 29.15,135.82 50.05,135.82" fill="#e8ab6f" stroke="rgba(0,0,0,0.15)" stroke-width="1" data-sq="-4,1" class="board-cell"/><polygon points="60.50,192.02 50.05,210.12 29.15,210.12 18.70,192.02 29.15,173.92 50.05,173.92" fill="#ffce9e" stroke="rgba(0,0,0,0.15)" stroke-width="1" data-sq="-4,2" class="board-cell"/><polygon points="60.50,230.13 50.05,248.23 29.15,248.23 18.70,230.13 29.15,212.03 50.05,212.03" fill="#d18b47" stroke="rgba(0,0,0,0.15)" stroke-width="1" data-sq="-4,3" class="board-cell"/><polygon points="60.50,268.23 50.05,286.33 29.15,286.33 18.70,268.23 29.15,250.13 50.05,250.13" fill="#e8ab6f" stroke="rgba(0,0,0,0.15)" stroke-width="1" data-sq="-4,4" class="board-cell"/><polygon points="60.50,306.34 50.05,324.44 29.15,324.44 18.70,306.34 29.15,288.24 50.05,288.24" fill="#ffce9e" stroke="rgba(0,0,0,0.15)" stroke-width="1" data-sq="-4,5" class="board-cell"/><polygon points="93.50,96.76 83.05,114.86 62.15,114.86 51.70,96.76 62.15,78.66 83.05,78.66" fill="#e8ab6f" stroke="rgba(0,0,0,0.15)" stroke-width="1" data-sq="-3,-1" class="board-cell"/><polygon points="93.50,134.86 83.05,152.96 62.15,152.96 51.70,134.86 62.15,116.76 83.05,116.76" fill="#ffce9e" stroke="rgba(0,0,0,0.15)" stroke-width="1" data-sq="-3,0" class="board-cell"/><polygon points="93.50,172.97 83.05,191.07 62.15,191.07 51.70,172.97 62.15,154.87 83.05,154.87" fill="#d18b47" stroke="rgba(0,0,0,0.15)" stroke-width="1" data-sq="-3,1" class="board-cell"/><polygon points="93.50,211.07 83.05,229.17 62.15,229.17 51.70,211.07 62.15,192.97 83.05,192.97" fill="#e8ab6f" stroke="rgba(0,0,0,0.15)" stroke-width="1" data-sq="-3,2" class="board-cell"/><polygon points="93.50,249.18 83.05,267.28 62.15,267.28 51.70,249.18 62.15,231.08 83.05,231.08" fill="#ffce9e" stroke="rgba(0,0,0,0.15)" stroke-width="1" data-sq="-3,3" class="board-cell"/><polygon points="93.50,287.28 83.05,305.38 62.15,305.38 51.70,287.28 62.15,269.18 83.05,269.18" fill="#d18b47" stroke="rgba(0,0,0,0.15)" stroke-width="1" data-sq="-3,4" class="board-cell"/><polygon points="93.50,325.39 83.05,343.49 62.15,343.49 51.70,325.39 62.15,307.29 83.05,307.29" fill="#e8ab6f" stroke="rgba(0,0,0,0.15)" stroke-width="1" data-sq="-3,5" class="board-cell"/><polygon points="126.50,77.71 116.05,95.81 95.15,95.81 84.70,77.71 95.15,59.61 116.05,59.61" fill="#ffce9e" stroke="rgba(0,0,0,0.15)" stroke-width="1" data-sq="-2,-2" class="board-cell"/><polygon points="126.50,115.81 116.05,133.91 95.15,133.91 84.70,115.81 95.15,97.71 116.05,97.71" fill="#d18b47" stroke="rgba(0,0,0,0.15)" stroke-width="1" data-sq="-2,-1" class="board-cell"/><polygon points="126.50,153.92 116.05,172.02 95.15,172.02 84.70,153.92 95.15,135.82 116.05,135.82" fill="#e8ab6f" stroke="rgba(0,0,0,0.15)" stroke-width="1" data-sq="-2,0" class="board-cell"/><polygon points="126.50,192.02 116.05,210.12 95.15,210.12 84.70,192.02 95.15,173.92 116.05,173.92" fill="#ffce9e" stroke="rgba(0,0,0,0.15)" stroke-width="1" data-sq="-2,1" class="board-cell"/><polygon points="126.50,230.13 116.05,248.23 95.15,248.23 84.70,230.13 95.15,212.03 116.05,212.03" fill="#d18b47" stroke="rgba(0,0,0,0.15)" stroke-width="1" data-sq="-2,2" class="board-cell"/><polygon points="126.50,268.23 116.05,286.33 95.15,286.33 84.70,268.23 95.15,250.13 116.05,250.13" fill="#e8ab6f" stroke="rgba(0,0,0,0.15)" stroke-width="1" data-sq="-2,3" class="board-cell"/><polygon points="126.50,306.34 116.05,324.44 95.15,324.44 84.70,306.34 95.15,288.24 116.05,288.24" fill="#ffce9e" stroke="rgba(0,0,0,0.15)" stroke-width="1" data-sq="-2,4" class="board-cell"/><polygon points="126.50,344.44 116.05,362.54 95.15,362.54 84.70,344.44 95.15,326.34 116.05,326.34" fill="#d18b47" stroke="rgba(0,0,0,0.15)" stroke-width="1" data-sq="-2,5" class="board-cell"/><polygon points="159.50,58.65 149.05,76.75 128.15,76.75 117.70,58.65 128.15,40.55 149.05,40.55" fill="#d18b47" stroke="rgba(0,0,0,0.15)" stroke-width="1" data-sq="-1,-3" class="board-cell"/><polygon points="159.50,96.76 149.05,114.86 128.15,114.86 117.70,96.76 128.15,78.66 149.05,78.66" fill="#e8ab6f" stroke="rgba(0,0,0,0.15)" stroke-width="1" data-sq="-1,-2" class="board-cell"/><polygon points="159.50,134.86 149.05,152.96 128.15,152.96 117.70,134.86 128.15,116.76 149.05,116.76" fill="#ffce9e" stroke="rgba(0,0,0,0.15)" stroke-width="1" data-sq="-1,-1" class="board-cell"/><polygon points="159.50,172.97 149.05,191.07 128.15,191.07 117.70,172.97 128.15,154.87 149.05,154.87" fill="#d18b47" stroke="rgba(0,0,0,0.15)" stroke-width="1" data-sq="-1,0" class="board-cell"/><polygon points="159.50,211.07 149.05,229.17 128.15,229.17 117.70,211.07 128.15,192.97 149.05,192.97" fill="#e8ab6f" stroke="rgba(0,0,0,0.15)" stroke-width="1" data-sq="-1,1" class="board-cell"/><polygon points="159.50,249.18 149.05,267.28 128.15,267.28 117.70,249.18 128.15,231.08 149.05,231.08" fill="#ffce9e" stroke="rgba(0,0,0,0.15)" stroke-width="1" data-sq="-1,2" class="board-cell"/><polygon points="159.50,287.28 149.05,305.38 128.15,305.38 117.70,287.28 128.15,269.18 149.05,269.18" fill="#d18b47" stroke="rgba(0,0,0,0.15)" stroke-width="1" data-sq="-1,3" class="board-cell"/><polygon points="159.50,325.39 149.05,343.49 128.15,343.49 117.70,325.39 128.15,307.29 149.05,307.29" fill="#e8ab6f" stroke="rgba(0,0,0,0.15)" stroke-width="1" data-sq="-1,4" class="board-cell"/><polygon points="159.50,363.49 149.05,381.59 128.15,381.59 117.70,363.49 128.15,345.39 149.05,345.39" fill="#ffce9e" stroke="rgba(0,0,0,0.15)" stroke-width="1" data-sq="-1,5" class="board-cell"/><polygon points="192.50,39.60 182.05,57.70 161.15,57.70 150.70,39.60 161.15,21.50 182.05,21.50" fill="#e8ab6f" stroke="rgba(0,0,0,0.15)" stroke-width="1" data-sq="0,-4" class="board-cell"/><polygon points="192.50,77.71 182.05,95.81 161.15,95.81 150.70,77.71 161.15,59.61 182.05,59.61" fill="#ffce9e" stroke="rgba(0,0,0,0.15)" stroke-width="1" data-sq="0,-3" class="board-cell"/><polygon points="192.50,115.81 182.05,133.91 161.15,133.91 150.70,115.81 161.15,97.71 182.05,97.71" fill="#d18b47" stroke="rgba(0,0,0,0.15)" stroke-width="1" data-sq="0,-2" class="board-cell"/><polygon points="192.50,153.92 182.05,172.02 161.15,172.02 150.70,153.92 161.15,135.82 182.05,135.82" fill="#e8ab6f" stroke="rgba(0,0,0,0.15)" stroke-width="1" data-sq="0,-1" class="board-cell"/><polygon points="192.50,192.02 182.05,210.12 161.15,210.12 150.70,192.02 161.15,173.92 182.05,173.92" fill="#ffce9e" stroke="rgba(0,0,0,0.15)" stroke-width="1" data-sq="0,0" class="board-cell"/><polygon points="192.50,230.13 182.05,248.23 161.15,248.23 150.70,230.13 161.15,212.03 182.05,212.03" fill="#d18b47" stroke="rgba(0,0,0,0.15)" stroke-width="1" data-sq="0,1" class="board-cell"/><polygon points="192.50,268.23 182.05,286.33 161.15,286.33 150.70,268.23 161.15,250.13 182.05,250.13" fill="#e8ab6f" stroke="rgba(0,0,0,0.15)" stroke-width="1" data-sq="0,2" class="board-cell"/><polygon points="192.50,306.34 182.05,324.44 161.15,324.44 150.70,306.34 161.15,288.24 182.05,288.24" fill="#ffce9e" stroke="rgba(0,0,0,0.15)" stroke-width="1" data-sq="0,3" class="board-cell"/><polygon points="192.50,344.44 182.05,362.54 161.15,362.54 150.70,344.44 161.15,326.34 182.05,326.34" fill="#d18b47" stroke="rgba(0,0,0,0.15)" stroke-width="1" data-sq="0,4" class="board-cell"/><polygon points="192.50,382.55 182.05,400.65 161.15,400.65 150.70,382.55 161.15,364.45 182.05,364.45" fill="#e8ab6f" stroke="rgba(0,0,0,0.15)" stroke-width="1" data-sq="0,5" class="board-cell"/><polygon points="225.50,58.65 215.05,76.75 194.15,76.75 183.70,58.65 194.15,40.55 215.05,40.55" fill="#d18b47" stroke="rgba(0,0,0,0.15)" stroke-width="1" data-sq="1,-4" class="board-cell"/><polygon points="225.50,96.76 215.05,114.86 194.15,114.86 183.70,96.76 194.15,78.66 215.05,78.66" fill="#e8ab6f" stroke="rgba(0,0,0,0.15)" stroke-width="1" data-sq="1,-3" class="board-cell"/><polygon points="225.50,134.86 215.05,152.96 194.15,152.96 183.70,134.86 194.15,116.76 215.05,116.76" fill="#ffce9e" stroke="rgba(0,0,0,0.15)" stroke-width="1" data-sq="1,-2" class="board-cell"/><polygon points="225.50,172.97 215.05,191.07 194.15,191.07 183.70,172.97 194.15,154.87 215.05,154.87" fill="#d18b47" stroke="rgba(0,0,0,0.15)" stroke-width="1" data-sq="1,-1" class="board-cell"/><polygon points="225.50,211.07 215.05,229.17 194.15,229.17 183.70,211.07 194.15,192.97 215.05,192.97" fill="#e8ab6f" stroke="rgba(0,0,0,0.15)" stroke-width="1" data-sq="1,0" class="board-cell"/><polygon points="225.50,249.18 215.05,267.28 194.15,267.28 183.70,249.18 194.15,231.08 215.05,231.08" fill="#ffce9e" stroke="rgba(0,0,0,0.15)" stroke-width="1" data-sq="1,1" class="board-cell"/><polygon points="225.50,287.28 215.05,305.38 194.15,305.38 183.70,287.28 194.15,269.18 215.05,269.18" fill="#d18b47" stroke="rgba(0,0,0,0.15)" stroke-width="1" data-sq="1,2" class="board-cell"/><polygon points="225.50,325.39 215.05,343.49 194.15,343.49 183.70,325.39 194.15,307.29 215.05,307.29" fill="#e8ab6f" stroke="rgba(0,0,0,0.15)" stroke-width="1" data-sq="1,3" class="board-cell"/><polygon points="225.50,363.49 215.05,381.59 194.15,381.59 183.70,363.49 194.15,345.39 215.05,345.39" fill="#ffce9e" stroke="rgba(0,0,0,0.15)" stroke-width="1" data-sq="1,4" class="board-cell"/><polygon points="258.50,77.71 248.05,95.81 227.15,95.81 216.70,77.71 227.15,59.61 248.05,59.61" fill="#ffce9e" stroke="rgba(0,0,0,0.15)" stroke-width="1" data-sq="2,-4" class="board-cell"/><polygon points="258.50,115.81 248.05,133.91 227.15,133.91 216.70,115.81 227.15,97.71 248.05,97.71" fill="#d18b47" stroke="rgba(0,0,0,0.15)" stroke-width="1" data-sq="2,-3" class="board-cell"/><polygon points="258.50,153.92 248.05,172.02 227.15,172.02 216.70,153.92 227.15,135.82 248.05,135.82" fill="#e8ab6f" stroke="rgba(0,0,0,0.15)" stroke-width="1" data-sq="2,-2" class="board-cell"/><polygon points="258.50,192.02 248.05,210.12 227.15,210.12 216.70,192.02 227.15,173.92 248.05,173.92" fill="#ffce9e" stroke="rgba(0,0,0,0.15)" stroke-width="1" data-sq="2,-1" class="board-cell"/><polygon points="258.50,230.13 248.05,248.23 227.15,248.23 216.70,230.13 227.15,212.03 248.05,212.03" fill="#d18b47" stroke="rgba(0,0,0,0.15)" stroke-width="1" data-sq="2,0" class="board-cell"/><polygon points="258.50,268.23 248.05,286.33 227.15,286.33 216.70,268.23 227.15,250.13 248.05,250.13" fill="#e8ab6f" stroke="rgba(0,0,0,0.15)" stroke-width="1" data-sq="2,1" class="board-cell"/><polygon points="258.50,306.34 248.05,324.44 227.15,324.44 216.70,306.34 227.15,288.24 248.05,288.24" fill="#ffce9e" stroke="rgba(0,0,0,0.15)" stroke-width="1" data-sq="2,2" class="board-cell"/><polygon points="258.50,344.44 248.05,362.54 227.15,362.54 216.70,344.44 227.15,326.34 248.05,326.34" fill="#d18b47" stroke="rgba(0,0,0,0.15)" stroke-width="1" data-sq="2,3" class="board-cell"/><polygon points="291.50,96.76 281.05,114.86 260.15,114.86 249.70,96.76 260.15,78.66 281.05,78.66" fill="#e8ab6f" stroke="rgba(0,0,0,0.15)" stroke-width="1" data-sq="3,-4" class="board-cell"/><polygon points="291.50,134.86 281.05,152.96 260.15,152.96 249.70,134.86 260.15,116.76 281.05,116.76" fill="#ffce9e" stroke="rgba(0,0,0,0.15)" stroke-width="1" data-sq="3,-3" class="board-cell"/><polygon points="291.50,172.97 281.05,191.07 260.15,191.07 249.70,172.97 260.15,154.87 281.05,154.87" fill="#d18b47" stroke="rgba(0,0,0,0.15)" stroke-width="1" data-sq="3,-2" class="board-cell"/><polygon points="291.50,211.07 281.05,229.17 260.15,229.17 249.70,211.07 260.15,192.97 281.05,192.97" fill="#e8ab6f" stroke="rgba(0,0,0,0.15)" stroke-width="1" data-sq="3,-1" class="board-cell"/><polygon points="291.50,249.18 281.05,267.28 260.15,267.28 249.70,249.18 260.15,231.08 281.05,231.08" fill="#ffce9e" stroke="rgba(0,0,0,0.15)" stroke-width="1" data-sq="3,0" class="board-cell"/><polygon points="291.50,287.28 281.05,305.38 260.15,305.38 249.70,287.28 260.15,269.18 281.05,269.18" fill="#d18b47" stroke="rgba(0,0,0,0.15)" stroke-width="1" data-sq="3,1" class="board-cell"/><polygon points="291.50,325.39 281.05,343.49 260.15,343.49 249.70,325.39 260.15,307.29 281.05,307.29" fill="#e8ab6f" stroke="rgba(0,0,0,0.15)" stroke-width="1" data-sq="3,2" class="board-cell"/><polygon points="324.50,115.81 314.05,133.91 293.15,133.91 282.70,115.81 293.15,97.71 314.05,97.71" fill="#d18b47" stroke="rgba(0,0,0,0.15)" stroke-width="1" data-sq="4,-4" class="board-cell"/><polygon points="324.50,153.92 314.05,172.02 293.15,172.02 282.70,153.92 293.15,135.82 314.05,135.82" fill="#e8ab6f" stroke="rgba(0,0,0,0.15)" stroke-width="1" data-sq="4,-3" class="board-cell"/><polygon points="324.50,192.02 314.05,210.12 293.15,210.12 282.70,192.02 293.15,173.92 314.05,173.92" fill="#ffce9e" stroke="rgba(0,0,0,0.15)" stroke-width="1" data-sq="4,-2" class="board-cell"/><polygon points="324.50,230.13 314.05,248.23 293.15,248.23 282.70,230.13 293.15,212.03 314.05,212.03" fill="#d18b47" stroke="rgba(0,0,0,0.15)" stroke-width="1" data-sq="4,-1" class="board-cell"/><polygon points="324.50,268.23 314.05,286.33 293.15,286.33 282.70,268.23 293.15,250.13 314.05,250.13" fill="#e8ab6f" stroke="rgba(0,0,0,0.15)" stroke-width="1" data-sq="4,0" class="board-cell"/><polygon points="324.50,306.34 314.05,324.44 293.15,324.44 282.70,306.34 293.15,288.24 314.05,288.24" fill="#ffce9e" stroke="rgba(0,0,0,0.15)" stroke-width="1" data-sq="4,1" class="board-cell"/><g pointer-events="none"><use href="#piece-mce-chess-bP" x="121.0" y="79.2" width="35.2" height="35.2"/><use href="#piece-mce-chess-bQ" x="121.0" y="41.1" width="35.2" height="35.2"/><use href="#piece-mce-chess-wP" x="121.0" y="307.8" width="35.2" height="35.2"/><use href="#piece-mce-chess-wQ" x="121.0" y="345.9" width="35.2" height="35.2"/><use href="#piece-mce-chess-bP" x="88.0" y="98.2" width="35.2" height="35.2"/><use href="#piece-mce-chess-bB" x="88.0" y="60.1" width="35.2" height="35.2"/><use href="#piece-mce-chess-wP" x="88.0" y="288.7" width="35.2" height="35.2"/><use href="#piece-mce-chess-wB" x="88.0" y="326.8" width="35.2" height="35.2"/><use href="#piece-mce-chess-bN" x="55.0" y="79.2" width="35.2" height="35.2"/><use href="#piece-mce-chess-bP" x="55.0" y="117.3" width="35.2" height="35.2"/><use href="#piece-mce-chess-wP" x="55.0" y="269.7" width="35.2" height="35.2"/><use href="#piece-mce-chess-wN" x="55.0" y="307.8" width="35.2" height="35.2"/><use href="#piece-mce-chess-bR" x="22.0" y="98.2" width="35.2" height="35.2"/><use href="#piece-mce-chess-bP" x="22.0" y="136.3" width="35.2" height="35.2"/><use href="#piece-mce-chess-wP" x="22.0" y="250.6" width="35.2" height="35.2"/><use href="#piece-mce-chess-wR" x="22.0" y="288.7" width="35.2" height="35.2"/><use href="#piece-mce-chess-bP" x="154.0" y="60.1" width="35.2" height="35.2"/><use href="#piece-mce-chess-bK" x="154.0" y="22.0" width="35.2" height="35.2"/><use href="#piece-mce-chess-wP" x="154.0" y="326.8" width="35.2" height="35.2"/><use href="#piece-mce-chess-wK" x="154.0" y="364.9" width="35.2" height="35.2"/><use href="#piece-mce-chess-bP" x="187.0" y="79.2" width="35.2" height="35.2"/><use href="#piece-mce-chess-bB" x="187.0" y="41.1" width="35.2" height="35.2"/><use href="#piece-mce-chess-wP" x="187.0" y="307.8" width="35.2" height="35.2"/><use href="#piece-mce-chess-wB" x="187.0" y="345.9" width="35.2" height="35.2"/><use href="#piece-mce-chess-bP" x="220.0" y="98.2" width="35.2" height="35.2"/><use href="#piece-mce-chess-bB" x="220.0" y="60.1" width="35.2" height="35.2"/><use href="#piece-mce-chess-wP" x="220.0" y="288.7" width="35.2" height="35.2"/><use href="#piece-mce-chess-wB" x="220.0" y="326.8" width="35.2" height="35.2"/><use href="#piece-mce-chess-bP" x="253.0" y="117.3" width="35.2" height="35.2"/><use href="#piece-mce-chess-bN" x="253.0" y="79.2" width="35.2" height="35.2"/><use href="#piece-mce-chess-wP" x="253.0" y="269.7" width="35.2" height="35.2"/><use href="#piece-mce-chess-wN" x="253.0" y="307.8" width="35.2" height="35.2"/><use href="#piece-mce-chess-bP" x="286.0" y="136.3" width="35.2" height="35.2"/><use href="#piece-mce-chess-bR" x="286.0" y="98.2" width="35.2" height="35.2"/><use href="#piece-mce-chess-wP" x="286.0" y="250.6" width="35.2" height="35.2"/><use href="#piece-mce-chess-wR" x="286.0" y="288.7" width="35.2" height="35.2"/></g>
</svg>