<svg xmlns="http://www.w3.org/2000/svg" viewBox="0 0 344 806" width="344" height="806">
<defs>
<symbol id="piece-mce-chess-wG" viewBox="0 0 45 45"><g transform="translate(10,10) scale(0.56)"><path d="M 22,9 C 19.79,9 18,10.79 18,13 C 18,13.89 18.29,14.71 18.78,15.38 C 16.83,16.5 15.5,18.59 15.5,21 C 15.5,23.03 16.44,24.84 17.91,26.03 C 14.91,27.09 10.5,31.58 10.5,39.5 L 33.5,39.5 C 33.5,31.58 29.09,27.09 26.09,26.03 C 27.56,24.84 28.5,23.03 28.5,21 C 28.5,18.59 27.17,16.5 25.22,15.38 C 25.71,14.71 26,13.89 26,13 C 26,10.79 24.21,9 22,9 z" style="fill:#fff;stroke:#000;stroke-width:1.5;stroke-linecap:round"/></g><g transform="translate(0,0) scale(0.22)"><path d="M 22,9 C 19.79,9 18,10.79 18,13 C 18,13.89 18.29,14.71 18.78,15.38 C 16.83,16.5 15.5,18.59 15.5,21 C 15.5,23.03 16.44,24.84 17.91,26.03 C 14.91,27.09 10.5,31.58 10.5,39.5 L 33.5,39.5 C 33.5,31.58 29.09,27.09 26.09,26.03 C 27.56,24.84 28.5,23.03 28.5,21 C 28.5,18.59 27.17,16.5 25.22,15.38 C 25.71,14.71 26,13.89 26,13 C 26,10.79 24.21,9 22,9 z" style="fill:#000;stroke:none"/></g><g transform="translate(35,0) scale(0.22)"><path d="M 22,9 C 19.79,9 18,10.79 18,13 C 18,13.89 18.29,14.71 18.78,15.38 C 16.83,16.5 15.5,18.59 15.5,21 C 15.5,23.03 16.44,24.84 17.91,26.03 C 14.91,27.09 10.5,31.58 10.5,39.5 L 33.5,39.5 C 33.5,31.58 29.09,27.09 26.09,26.03 C 27.56,24.84 28.5,23.03 28.5,21 C 28.5,18.59 27.17,16.5 25.22,15.38 C 25.71,14.71 26,13.89 26,13 C 26,10.79 24.21,9 22,9 z" style="fill:#000;stroke:none"/></g><g transform="translate(0,35) scale(0.22)"><path d="M 22,9 C 19.79,9 18,10.79 18,13 C 18,13.89 18.29,14.71 18.78,15.38 C 16.83,16.5 15.5,18.59 15.5,21 C 15.5,23.03 16.44,24.84 17.91,26.03 C 14.91,27.09 10.5,31.58 10.5,39.5 L 33.5,39.5 C 33.5,31.58 29.09,27.09 26.09,26.03 C 27.56,24.84 28.5,23.03 28.5,21 C 28.5,18.59 27.17,16.5 25.22,15.38 C 25.71,14.71 26,13.89 26,13 C 26,10.79 24.21,9 22,9 z" style="fill:#000;stroke:none"/></g><g transform="translate(35,35) scale(0.22)"><path d="M 22,9 C 19.79,9 18,10.79 18,13 C 18,13.89 18.29,14.71 18.78,15.38 C 16.83,16.5 15.5,18.59 15.5,21 C 15.5,23.03 16.44,24.84 17.91,26.03 C 14.91,27.09 10.5,31.58 10.5,39.5 L 33.5,39.5 C 33.5,31.58 29.09,27.09 26.09,26.03 C 27.56,24.84 28.5,23.03 28.5,21 C 28.5,18.59 27.17,16.5 25.22,15.38 C 25.71,14.71 26,13.89 26,13 C 26,10.79 24.21,9 22,9 z" style="fill:#000;stroke:none"/></g></symbol>
<symbol id="piece-mce-chess-wR" viewBox="0 0 45 45"><g style="fill:#fff;stroke:#000;stroke-width:1.5;stroke-linecap:round;stroke-linejoin:round"><path d="M 9,39 L 36,39 L 36,36 L 9,36 L 9,39 z"/><path d="M 12,36 L 12,32 L 33,32 L 33,36 L 12,36 z"/><path d="M 11,14 L 11,9 L 15,9 L 15,11 L 20,11 L 20,9 L 25,9 L 25,11 L 30,11 L 30,9 L 34,9 L 34,14"/><path d="M 34,14 L 31,17 L 14,17 L 11,14"/><path d="M 31,17 L 31,29.5 L 14,29.5 L 14,17"/><path d="M 31,29.5 L 32.5,32 L 12.5,32 L 14,29.5"/><path d="M 11,14 L 34,14" style="fill:none"/></g></symbol>
<symbol id="piece-mce-chess-wS" viewBox="0 0 45 45"><path d="M 22,9 C 19.79,9 18,10.79 18,13 C 18,13.89 18.29,14.71 18.78,15.38 C 16.83,16.5 15.5,18.59 15.5,21 C 15.5,23.03 16.44,24.84 17.91,26.03 C 14.91,27.09 10.5,31.58 10.5,39.5 L 33.5,39.5 C 33.5,31.58 29.09,27.09 26.09,26.03 C 27.56,24.84 28.5,23.03 28.5,21 C 28.5,18.59 27.17,16.5 25.22,15.38 C 25.71,14.71 26,13.89 26,13 C 26,10.79 24.21,9 22,9 z" style="fill:#fff;stroke:#000;stroke-width:1.5;stroke-linecap:round"/><g transform="translate(14,23) scale(0.35)"><path d="M 22.5,25 C 22.5,25 27,17.5 25.5,14.5 C 25.5,14.5 24.5,12 22.5,12 C 20.5,12 19.5,14.5 19.5,14.5 C 18,17.5 22.5,25 22.5,25" style="fill:#000;stroke:none"/><path d="M 12.5,37 C 18,40.5 27,40.5 32.5,37 L 32.5,30 C 32.5,30 41.5,25.5 38.5,19.5 C 34.5,13 25,16 22.5,23.5 L 22.5,27 L 22.5,23.5 C 20,16 10.5,13 6.5,19.5 C 3.5,25.5 12.5,30 12.5,30 L 12.5,37" style="fill:#000;stroke:none"/></g></symbol>
<symbol id="piece-mce-chess-bS" viewBox="0 0 45 45"><path d="M 22,9 C 19.79,9 18,10.79 18,13 C 18,13.89 18.29,14.71 18.78,15.38 C 16.83,16.5 15.5,18.59 15.5,21 C 15.5,23.03 16.44,24.84 17.91,26.03 C 14.91,27.09 10.5,31.58 10.5,39.5 L 33.5,39.5 C 33.5,31.58 29.09,27.09 26.09,26.03 C 27.56,24.84 28.5,23.03 28.5,21 C 28.5,18.59 27.17,16.5 25.22,15.38 C 25.71,14.71 26,13.89 26,13 C 26,10.79 24.21,9 22,9 z" style="fill:#000;stroke:#000;stroke-width:1.5;stroke-linecap:round"/><g transform="translate(14,23) scale(0.35)"><path d="M 22.5,25 C 22.5,25 27,17.5 25.5,14.5 C 25.5,14.5 24.5,12 22.5,12 C 20.5,12 19.5,14.5 19.5,14.5 C 18,17.5 22.5,25 22.5,25" style="fill:#fff;stroke:none"/><path d="M 12.5,37 C 18,40.5 27,40.5 32.5,37 L 32.5,30 C 32.5,30 41.5,25.5 38.5,19.5 C 34.5,13 25,16 22.5,23.5 L 22.5,27 L 22.5,23.5 C 20,16 10.5,13 6.5,19.5 C 3.5,25.5 12.5,30 12.5,30 L 12.5,37" style="fill:#fff;stroke:none"/></g></symbol>
<symbol id="piece-mce-chess-bG" viewBox="0 0 45 45"><g transform="translate(10,10) scale(0.56)"><path d="M 22,9 C 19.79,9 18,10.79 18,13 C 18,13.89 18.29,14.71 18.78,15.38 C 16.83,16.5 15.5,18.59 15.5,21 C 15.5,23.03 16.44,24.84 17.91,26.03 C 14.91,27.09 10.5,31.58 10.5,39.5 L 33.5,39.5 C 33.5,31.58 29.09,27.09 26.09,26.03 C 27.56,24.84 28.5,23.03 28.5,21 C 28.5,18.59 27.17,16.5 25.22,15.38 C 25.71,14.71 26,13.89 26,13 C 26,10.79 24.21,9 22,9 z" style="fill:#000;stroke:#000;stroke-width:1.5;stroke-linecap:round"/></g><g transform="translate(0,0) scale(0.22)"><path d="M 22,9 C 19.79,9 18,10.79 18,13 C 18,13.89 18.29,14.71 18.78,15.38 C 16.83,16.5 15.5,18.59 15.5,21 C 15.5,23.03 16.44,24.84 17.91,26.03 C 14.91,27.09 10.5,31.58 10.5,39.5 L 33.5,39.5 C 33.5,31.58 29.09,27.09 26.09,26.03 C 27.56,24.84 28.5,23.03 28.5,21 C 28.5,18.59 27.17,16.5 25.22,15.38 C 25.71,14.71 26,13.89 26,13 C 26,10.79 24.21,9 22,9 z" style="fill:#fff;stroke:none"/></g><g transform="translate(35,0) scale(0.22)"><path d="M 22,9 C 19.79,9 18,10.79 18,13 C 18,13.89 18.29,14.71 18.78,15.38 C 16.83,16.5 15.5,18.59 15.5,21 C 15.5,23.03 16.44,24.84 17.91,26.03 C 14.91,27.09 10.5,31.58 10.5,39.5 L 33.5,39.5 C 33.5,31.58 29.09,27.09 26.09,26.03 C 27.56,24.84 28.5,23.03 28.5,21 C 28.5,18.59 27.17,16.5 25.22,15.38 C 25.71,14.71 26,13.89 26,13 C 26,10.79 24.21,9 22,9 z" style="fill:#fff;stroke:none"/></g><g transform="translate(0,35) scale(0.22)"><path d="M 22,9 C 19.79,9 18,10.79 18,13 C 18,13.89 18.29,14.71 18.78,15.38 C 16.83,16.5 15.5,18.59 15.5,21 C 15.5,23.03 16.44,24.84 17.91,26.03 C 14.91,27.09 10.5,31.58 10.5,39.5 L 33.5,39.5 C 33.5,31.58 29.09,27.09 26.09,26.03 C 27.56,24.84 28.5,23.03 28.5,21 C 28.5,18.59 27.17,16.5 25.22,15.38 C 25.71,14.71 26,13.89 26,13 C 26,10.79 24.21,9 22,9 z" style="fill:#fff;stroke:none"/></g><g transform="translate(35,35) scale(0.22)"><path d="M 22,9 C 19.79,9 18,10.79 18,13 C 18,13.89 18.29,14.71 18.78,15.38 C 16.83,16.5 15.5,18.59 15.5,21 C 15.5,23.03 16.44,24.84 17.91,26.03 C 14.91,27.09 10.5,31.58 10.5,39.5 L 33.5,39.5 C 33.5,31.58 29.09,27.09 26.09,26.03 C 27.56,24.84 28.5,23.03 28.5,21 C 28.5,18.59 27.17,16.5 25.22,15.38 C 25.71,14.71 26,13.89 26,13 C 26,10.79 24.21,9 22,9 z" style="fill:#fff;stroke:none"/></g></symbol>
<symbol id="piece-mce-chess-bR" viewBox="0 0 45 45"><g style="fill:#000;stroke:#000;stroke-width:1.5;stroke-linecap:round;stroke-linejoin:round"><path d="M 9,39 L 36,39 L 36,36 L 9,36 L 9,39 z"/><path d="M 12,36 L 12,32 L 33,32 L 33,36 L 12,36 z"/><path d="M 11,14 L 11,9 L 15,9 L 15,11 L 20,11 L 20,9 L 25,9 L 25,11 L 30,11 L 30,9 L 34,9 L 34,14"/><path d="M 34,14 L 31,17 L 14,17 L 11,14"/><path d="M 31,17 L 31,29.5 L 14,29.5 L 14,17"/><path d="M 31,29.5 L 32.5,32 L 12.5,32 L 14,29.5"/><path d="M 11,14 L 34,14" style="fill:none;stroke:#fff;stroke-linejoin:miter"/><path d="M 12,35.5 L 33,35.5" style="fill:none;stroke:#fff;stroke-width:1"/><path d="M 13,31.5 L 32,31.5" style="fill:none;stroke:#fff;stroke-width:1"/><path d="M 14,29.5 L 31,29.5" style="fill:none;stroke:#fff;stroke-width:1"/></g></symbol>
<symbol id="piece-twemoji-ogre" viewBox="0 0 36 36"><path fill="#292F33" d="M32 23s7 0 1-8c0 0 6-2-2-7 0 0 6-6.017-7-3 0 0 0-5-2-5s-4 4-4 4-2-4-4-4-2 5-2 5C-1 1.928 5 8 5 8c-8 5-2 7-2 7-6 8 1 8 1 8s-4 2-4 5 3 2 6 2c-7 9 12 1 12 1s19 8 12-1c3 0 6 1 6-2s-4-5-4-5z"/><path fill="#DD2E44" d="M28.963 16s-.26-6.519-3.982-9C21.982 5 20 5 18 5c-2.089 0-4 0-7 2-3.721 2.481-4 9-4 9-1 0-2.271 2.291-2 5 .289 2.889 2 4 2 4 0 4 3 7 3 7 0 2 0 3 4 3h7.963c4.037 0 4-1 4-3 0 0 3-3 3-7 0 0 1.711-1.111 2-4 .271-2.709-1-5-2-5z"/><path fill="#292F33" d="M25.178 25.622c-.845.445-4.378 1.467-7.178 1.467-3 0-6.508-1.022-7.353-1.467-.844-.444-1.776.344-1.51 1.867.363 2.074 1.253 4.684 3.387 4.195C13.224 31.524 15 30 18 30c3.022 0 4.645 1.524 5.345 1.684 2.133.489 2.893-2.122 3.255-4.195.267-1.523-.578-2.311-1.422-1.867z"/><g fill="#FFF"><path d="M25.721 28.741l-.805-3c-1.155.485-4.343 1.348-6.917 1.348-2.835 0-6.12-.912-7.186-1.388l-.815 3.04c-.142.531.176 1.082.707 1.225.531.142 1.082-.176 1.225-.707l.748-2.331c.892.344 3.114.664 5.322.66 2.161-.004 4.308-.324 5.18-.66l.616 2.331c.142.531.689.849 1.22.707.532-.142.848-.694.705-1.225z"/><path d="M22.929 29.906c.086-.403-.174-.804-.578-.889-.403-.086-.804.174-.889.578l-.119.643c-.351-.19-1.839-.646-3.343-.649-1.553-.003-3.125.454-3.484.649l-.198-.643c-.086-.404-.517-.664-.92-.578-.403.086-.679.486-.593.889l.318 1.514C14.038 30.941 15.632 30 18 30c2.255 0 3.729.847 4.624 1.345l.305-1.439z"/></g><path fill="#55ACEE" d="M13.496 14.984l-2.38-.506c-1.636-.348-3.259.706-3.607 2.342-.348 1.636.706 3.259 2.342 3.607l2.38.506c1.636.348 3.259-.706 3.607-2.342.348-1.636-.706-3.259-2.342-3.607zm9.008-.239l2.38-.506c1.636-.348 3.259.706 3.607 2.342.348 1.636-.706 3.259-2.342 3.607l-2.38.506c-1.636.348-3.259-.706-3.607-2.342-.348-1.636.706-3.259 2.342-3.607z"/><path fill="#FFCC4D" d="M13.737 15.47l-1.956-.416c-1.345-.286-2.679.581-2.965 1.926-.286 1.345.581 2.679 1.926 2.965l1.956.416c1.345.286 2.679-.581 2.965-1.926.285-1.344-.581-2.679-1.926-2.965z"/><circle fill="#292F33" cx="12.739" cy="17.708" r="1.5"/><path fill="#FFCC4D" d="M22.263 15.47l1.956-.416c1.345-.286 2.679.581 2.965 1.926.286 1.345-.581 2.679-1.925 2.965l-1.956.416c-1.345.286-2.679-.581-2.965-1.926-.286-1.344.58-2.679 1.925-2.965z"/><circle fill="#292F33" cx="23.261" cy="17.708" r="1.5"/><path fill="#A0041E" d="M18 26.5c-1.86 0-2.647-1.005-2.901-1.855-.543.128-1.345.209-1.929-.187-.305-.207-.67-.628-.67-1.458 0-.276.224-.5.5-.5s.5.224.5.5c0 .474.173.591.231.63.373.254 1.229.046 1.585-.095.153-.061.328-.042.465.052.136.093.219.247.219.413.003.149.083 1.5 2 1.5 1.978 0 2-1.438 2-1.5 0-.166.082-.32.22-.413.136-.094.309-.113.465-.052.356.142 1.211.35 1.585.095.057-.039.23-.156.23-.63 0-.276.224-.5.5-.5s.5.224.5.5c0 .83-.364 1.251-.671 1.458-.584.396-1.386.314-1.929.187-.253.85-1.041 1.855-2.9 1.855z"/><path fill="#BE1931" d="M23.663 34.095c-.63 0-1.292-.273-1.975-.816-.96-.765-1.864-1.484-3.688-1.484s-2.729.72-3.687 1.483c-1.186.945-2.439.944-3.624.002-.216-.172-.252-.487-.08-.703.171-.216.486-.252.703-.08.821.654 1.556.654 2.377 0 1.003-.798 2.138-1.701 4.311-1.701 2.174 0 3.309.903 4.31 1.7.578.46 1.096.654 1.531.587.477-.075.729-.449.738-.465.151-.229.46-.296.69-.147.229.148.3.452.154.684-.049.077-.5.759-1.403.912-.118.018-.237.028-.357.028z"/><path fill="#F4900C" d="M6.002.95c.026-.497.435-.896.92-.936.632-.053.912.447 1.146.953.73 1.574 1.508 3.121 2.544 4.52.72.973 1.589 2.014 2.696 2.564.589.197.862.911.55 1.449.525.911-.513 1.79-1.366 1.364-1.16.67-3.078-1.545-3.733-2.334-.846-1.019-1.496-2.191-1.954-3.43-.469-1.27-.883-2.779-.803-4.15zm23.988 0c-.026-.497-.435-.896-.92-.936-.632-.053-.912.447-1.146.953-.73 1.574-1.508 3.121-2.544 4.52-.72.973-1.589 2.014-2.696 2.564-.589.197-.862.911-.55 1.449-.525.911.513 1.79 1.366 1.364 1.16.67 3.078-1.545 3.733-2.334.846-1.018 1.496-2.19 1.954-3.429.469-1.271.883-2.78.803-4.151z"/><path fill="#292F33" d="M15 16c-4.254 0-7.422-2.08-7.555-2.168-.459-.306-.583-.927-.277-1.387.306-.458.926-.583 1.385-.279C8.581 12.185 11.372 14 15 14c.552 0 1 .448 1 1s-.448 1-1 1zm6 0c-.553 0-1-.448-1-1s.447-1 1-1c3.655 0 6.418-1.814 6.445-1.832.46-.307 1.08-.183 1.387.277.307.46.183 1.081-.277 1.387C28.422 13.92 25.254 16 21 16z"/></symbol>
<symbol id="piece-wikimedia-standard-Chess_Ult45" viewBox="0 0 45 45"><g>
  <title>Unicorn</title>
  <g id="Head" style="opacity:1; fill:none; fill-opacity:1; fill-rule:evenodd; stroke:#000000; stroke-width:1.5; stroke-linecap:round; stroke-linejoin:round; stroke-miterlimit:4; stroke-dasharray:none; stroke-opacity:1;">
    <path id="Neck" d="M 22,10 C 32.5,11 38.5,18 38,39 L 15,39 C 15,30 25,32.5 23,18" style="fill:#ffffff; stroke:#000000;"/>
   <path id="Face" d="m24,18c0.38,2.91 -5.55,7.37 -8,9c-3,2 -2.82,4.34 -5,4c-1.042,-0.94 1.41,-3.04 0,-3c-1,0 0.19,1.23 -1,2c-1,0 -4,1 -4,-4c0,-2 6,-12 6,-12c0,0 -7.5275,-6.475 -7.0413,-7.15c0.4863,-0.675 8.9863,4.45 9.0413,3.65c-0.73,-0.994 -0.5,-2 -0.5,-3c1,-1 3,2.5 3,2.5l2,0c0,0 0.78,-1.992 2.5,-3c1,0 1,3 1,3" style="fill:#ffffff; stroke:#000000;"/>
    <path id="Nose" d="M 9.5 25.5 A 0.5 0.5 0 1 1 8.5,25.5 A 0.5 0.5 0 1 1 9.5 25.5 z" style="fill:#000000; stroke:#000000;"/>
    <path id="Eye" d="M 15 15.5 A 0.5 1.5 0 1 1  14,15.5 A 0.5 1.5 0 1 1  15 15.5 z" transform="matrix(0.866,0.5,-0.5,0.866,9.693,-5.173)" style="fill:#000000; stroke:#000000;"/>
  </g>
 </g></symbol>
<symbol id="piece-mce-chess-wH" viewBox="0 0 45 45"><g transform="translate(-2,-2) scale(0.6)"><g style="fill:none;stroke:#000;stroke-width:1.5;stroke-linecap:round;stroke-linejoin:round"><g style="fill:#fff;stroke-linecap:butt"><path d="M 9,36 C 12.39,35.03 19.11,36.43 22.5,34 C 25.89,36.43 32.61,35.03 36,36 C 36,36 37.65,36.54 39,38 C 38.32,38.97 37.2,38.91 36,38.5 C 32.61,37.53 25.89,38.96 22.5,37.5 C 19.11,38.96 12.39,37.53 9,38.5 C 7.8,38.91 6.68,38.97 6,38 C 7.35,36.54 9,36 9,36 z"/><path d="M 15,32 C 17.5,34.5 27.5,34.5 30,32 C 30.5,30.5 30,30 30,30 C 30,27.5 27.5,26 27.5,26 C 33,24.5 33.5,14.5 22.5,10.5 C 11.5,14.5 12,24.5 17.5,26 C 17.5,26 15,27.5 15,30 C 15,30 14.5,30.5 15,32 z"/><path d="M 25,8 A 2.5,2.5 0 1 1 20,8 A 2.5,2.5 0 1 1 25,8 z"/></g><path d="M 17.5,26 L 27.5,26 M 15,30 L 30,30 M 22.5,15.5 L 22.5,20.5 M 20,18 L 25,18" style="fill:none;stroke:#000;stroke-linejoin:miter"/></g></g><g transform="translate(20,20) scale(0.6)"><g style="fill:none;stroke:#000;stroke-width:1.5;stroke-linecap:round;stroke-linejoin:round"><path d="M 22,10 C 32.5,11 38.5,18 38,39 L 15,39 C 15,30 25,32.5 23,18" style="fill:#fff"/><path d="M 24,18 C 24.38,20.91 18.45,25.37 16,27 C 13,29 13.18,31.34 11,31 C 9.958,30.06 12.41,27.96 11,28 C 10,28 11.19,29.23 10,30 C 9,30 5.997,31 6,26 C 6,24 12,14 12,14 C 12,14 13.89,12.1 14,10.5 C 13.27,9.506 13.5,8.5 13.5,7.5 C 14.5,6.5 16.5,10 16.5,10 L 18.5,10 C 18.5,10 19.28,8.008 21,7 C 22,7 22,10 22,10" style="fill:#fff"/><path d="M 9.5,25.5 A 0.5,0.5 0 1 1 8.5,25.5 A 0.5,0.5 0 1 1 9.5,25.5 z" style="fill:#000"/><path d="M 15,15.5 A 0.5,1.5 0 1 1 14,15.5 A 0.5,1.5 0 1 1 15,15.5 z" transform="matrix(0.866,0.5,-0.5,0.866,9.693,-5.173)" style="fill:#000"/></g></g></symbol>
<symbol id="piece-playstrategy-mono-tower" viewBox="0 0 12.699667 12.699667"><defs>
    <linearGradient
       id="0"
       x1="21.375999"
       x2="77.639999"
       gradientUnits="userSpaceOnUse">
      <stop
         stop-color="#fff"
         id="stop1711" />
      <stop
         offset="1"
         stop-color="#fff"
         stop-opacity="0"
         id="stop1713" />
    </linearGradient>
  </defs>
  <g
     id="g2346"
     transform="matrix(0.21561852,0,0,0.21561852,-9.2382782,1.0446959)"
     style="fill:#888888;fill-opacity:1;stroke-width:1.96329;stroke-miterlimit:4;stroke-dasharray:none;stroke:#888888;stroke-opacity:1">
    <path
       style="fill:#888888;fill-opacity:1;stroke:#888888;stroke-width:1.96329;stroke-linecap:butt;stroke-linejoin:round;stroke-miterlimit:4;stroke-dasharray:none;stroke-opacity:1"
       d="M 77.01174,6.6646411 H 57.922216 V 43.633418 H 87.464014 C 84.800606,33.069099 80.963403,19.989506 77.01174,6.6646411 Z"
       id="path1728" />
    <circle
       style="fill:#888888;fill-opacity:1;stroke:#888888;stroke-width:1.96329;stroke-miterlimit:4;stroke-dasharray:none;stroke-opacity:1"
       id="circle2293"
       cx="85.307617"
       cy="41.959423"
       r="4.2410712" />
    <path
       style="fill:#888888;fill-opacity:1;stroke:#888888;stroke-width:1.96329;stroke-linecap:butt;stroke-linejoin:miter;stroke-miterlimit:4;stroke-dasharray:none;stroke-opacity:1"
       d="M 77.01174,6.6646411 V 43.898808"
       id="path2295" />
    <path
       style="fill:#888888;fill-opacity:1;stroke:#888888;stroke-width:1.96329;stroke-linecap:butt;stroke-linejoin:miter;stroke-miterlimit:4;stroke-dasharray:none;stroke-opacity:1"
       d="M 58.21581,25.298871 H 82.676576"
       id="path2297" />
    <path
       style="fill:#888888;fill-opacity:1;stroke:#888888;stroke-width:1.96329;stroke-linecap:butt;stroke-linejoin:miter;stroke-miterlimit:4;stroke-dasharray:none;stroke-opacity:1"
       d="M 57.922214,43.633419 77.02705,25.654604"
       id="path2299" />
    <circle
       style="fill:#888888;fill-opacity:1;stroke:#888888;stroke-width:1.96329;stroke-miterlimit:4;stroke-dasharray:none;stroke-opacity:1"
       id="path2291"
       cx="59.282112"
       cy="41.959423"
       r="4.2410712" />
    <path
       style="fill:#888888;fill-opacity:1;stroke:#888888;stroke-width:1.96329;stroke-linecap:butt;stroke-linejoin:miter;stroke-miterlimit:4;stroke-dasharray:none;stroke-opacity:1"
       d="M 57.922214,6.6837255 77.02705,25.654604"
       id="path2303" />
  </g></symbol>
<symbol id="piece-mce-chess-wC" viewBox="0 0 45 45"><g style="fill:#fff;stroke:#000;stroke-width:1.5;stroke-linecap:round;stroke-linejoin:round"><path d="M 9,39 L 36,39 L 36,36 L 9,36 L 9,39 z"/><path d="M 12,36 L 12,32 L 33,32 L 33,36 L 12,36 z"/><path d="M 11,14 L 11,9 L 15,9 L 15,11 L 20,11 L 20,9 L 25,9 L 25,11 L 30,11 L 30,9 L 34,9 L 34,14"/><path d="M 34,14 L 31,17 L 14,17 L 11,14"/><path d="M 31,17 L 31,29.5 L 14,29.5 L 14,17"/><path d="M 31,29.5 L 32.5,32 L 12.5,32 L 14,29.5"/><path d="M 11,14 L 34,14" style="fill:none"/></g><g transform="translate(14.5,15) scale(0.33)"><path d="M 22,10 C 32.5,11 38.5,18 38,39 L 15,39 C 15,30 25,32.5 23,18" style="fill:#000;stroke:none"/><path d="M 24,18 C 24.38,20.91 18.45,25.37 16,27 C 13,29 13.18,31.34 11,31 C 9.958,30.06 12.41,27.96 11,28 C 10,28 11.19,29.23 10,30 C 9,30 5.997,31 6,26 C 6,24 12,14 12,14 C 12,14 13.89,12.1 14,10.5 C 13.27,9.506 13.5,8.5 13.5,7.5 C 14.5,6.5 16.5,10 16.5,10 L 18.5,10 C 18.5,10 19.28,8.008 21,7 C 22,7 22,10 22,10" style="fill:#000;stroke:none"/></g></symbol>
<symbol id="piece-mce-chess-wM" viewBox="0 0 45 45"><g style="fill:#fff;stroke:#000;stroke-width:1.5;stroke-linejoin:round"><path d="M 9,26 C 17.5,24.5 30,24.5 36,26 L 38.5,13.5 L 31,25 L 30.7,10.9 L 25.5,24.5 L 22.5,10 L 19.5,24.5 L 14.3,10.9 L 14,25 L 6.5,13.5 L 9,26 z"/><path d="M 9,26 C 9,28 10.5,28 11.5,30 C 12.5,31.5 12.5,31 12,33.5 C 10.5,34.5 11,36 11,36 C 9.5,37.5 11.5,38.5 11.5,38.5 C 17.5,39.5 27.5,39.5 33.5,38.5 C 33.5,38.5 35.5,37.5 34,36 C 34,36 34.5,34.5 33,33.5 C 32.5,31 32.5,31.5 33.5,30 C 34.5,28 36,28 36,26 C 27.5,24.5 17.5,24.5 9,26 z"/><circle cx="6" cy="12" r="2"/><circle cx="14" cy="9" r="2"/><circle cx="22.5" cy="8" r="2"/><circle cx="31" cy="9" r="2"/><circle cx="39" cy="12" r="2"/></g><g transform="translate(14.5,24) scale(0.33)"><path d="M 22,10 C 32.5,11 38.5,18 38,39 L 15,39 C 15,30 25,32.5 23,18" style="fill:#000;stroke:none"/><path d="M 24,18 C 24.38,20.91 18.45,25.37 16,27 C 13,29 13.18,31.34 11,31 C 9.958,30.06 12.41,27.96 11,28 C 10,28 11.19,29.23 10,30 C 9,30 5.997,31 6,26 C 6,24 12,14 12,14 C 12,14 13.89,12.1 14,10.5 C 13.27,9.506 13.5,8.5 13.5,7.5 C 14.5,6.5 16.5,10 16.5,10 L 18.5,10 C 18.5,10 19.28,8.008 21,7 C 22,7 22,10 22,10" style="fill:#000;stroke:none"/></g></symbol>
<symbol id="piece-mce-chess-wK" viewBox="0 0 45 45"><g style="fill:#fff;stroke:#000;stroke-width:1.5;stroke-linejoin:round"><path d="M 22.5,11.63 L 22.5,6" style="fill:none;stroke-linejoin:miter"/><path d="M 20,8 L 25,8" style="fill:none;stroke-linejoin:miter"/><path d="M 22.5,25 C 22.5,25 27,17.5 25.5,14.5 C 25.5,14.5 24.5,12 22.5,12 C 20.5,12 19.5,14.5 19.5,14.5 C 18,17.5 22.5,25 22.5,25"/><path d="M 12.5,37 C 18,40.5 27,40.5 32.5,37 L 32.5,30 C 32.5,30 41.5,25.5 38.5,19.5 C 34.5,13 25,16 22.5,23.5 L 22.5,27 L 22.5,23.5 C 20,16 10.5,13 6.5,19.5 C 3.5,25.5 12.5,30 12.5,30 L 12.5,37"/><path d="M 12.5,30 C 18,27 27,27 32.5,30"/><path d="M 12.5,33.5 C 18,30.5 27,30.5 32.5,33.5"/><path d="M 12.5,37 C 18,34 27,34 32.5,37"/></g></symbol>
<symbol id="piece-mce-chess-wP" viewBox="0 0 45 45"><path d="M 22,9 C 19.79,9 18,10.79 18,13 C 18,13.89 18.29,14.71 18.78,15.38 C 16.83,16.5 15.5,18.59 15.5,21 C 15.5,23.03 16.44,24.84 17.91,26.03 C 14.91,27.09 10.5,31.58 10.5,39.5 L 33.5,39.5 C 33.5,31.58 29.09,27.09 26.09,26.03 C 27.56,24.84 28.5,23.03 28.5,21 C 28.5,18.59 27.17,16.5 25.22,15.38 C 25.71,14.71 26,13.89 26,13 C 26,10.79 24.21,9 22,9 z" style="fill:#fff;stroke:#000;stroke-width:1.5;stroke-linecap:round"/></symbol>
<symbol id="piece-mce-chess-wW" viewBox="0 0 45 45"><g style="fill:#fff;stroke:#000;stroke-width:1.5;stroke-linejoin:round"><path d="M 22.5,11.63 L 22.5,6" style="fill:none;stroke-linejoin:miter"/><path d="M 20,8 L 25,8" style="fill:none;stroke-linejoin:miter"/><path d="M 22.5,25 C 22.5,25 27,17.5 25.5,14.5 C 25.5,14.5 24.5,12 22.5,12 C 20.5,12 19.5,14.5 19.5,14.5 C 18,17.5 22.5,25 22.5,25"/><path d="M 12.5,37 C 18,40.5 27,40.5 32.5,37 L 32.5,30 C 32.5,30 41.5,25.5 38.5,19.5 C 34.5,13 25,16 22.5,23.5 L 22.5,27 L 22.5,23.5 C 20,16 10.5,13 6.5,19.5 C 3.5,25.5 12.5,30 12.5,30 L 12.5,37"/></g><g transform="translate(14.5,22) scale(0.33)"><path d="M 22,10 C 32.5,11 38.5,18 38,39 L 15,39 C 15,30 25,32.5 23,18" style="fill:#000;stroke:none"/><path d="M 24,18 C 24.38,20.91 18.45,25.37 16,27 C 13,29 13.18,31.34 11,31 C 9.958,30.06 12.41,27.96 11,28 C 10,28 11.19,29.23 10,30 C 9,30 5.997,31 6,26 C 6,24 12,14 12,14 C 12,14 13.89,12.1 14,10.5 C 13.27,9.506 13.5,8.5 13.5,7.5 C 14.5,6.5 16.5,10 16.5,10 L 18.5,10 C 18.5,10 19.28,8.008 21,7 C 22,7 22,10 22,10" style="fill:#000;stroke:none"/></g></symbol>
<symbol id="piece-mce-chess-bW" viewBox="0 0 45 45"><g style="fill:#000;stroke:#000;stroke-width:1.5;stroke-linejoin:round"><path d="M 22.5,11.63 L 22.5,6" style="fill:none;stroke:#fff;stroke-linejoin:miter"/><path d="M 20,8 L 25,8" style="fill:none;stroke:#fff;stroke-linejoin:miter"/><path d="M 22.5,25 C 22.5,25 27,17.5 25.5,14.5 C 25.5,14.5 24.5,12 22.5,12 C 20.5,12 19.5,14.5 19.5,14.5 C 18,17.5 22.5,25 22.5,25"/><path d="M 12.5,37 C 18,40.5 27,40.5 32.5,37 L 32.5,30 C 32.5,30 41.5,25.5 38.5,19.5 C 34.5,13 25,16 22.5,23.5 L 22.5,27 L 22.5,23.5 C 20,16 10.5,13 6.5,19.5 C 3.5,25.5 12.5,30 12.5,30 L 12.5,37"/></g><g transform="translate(14.5,22) scale(0.33)"><path d="M 22,10 C 32.5,11 38.5,18 38,39 L 15,39 C 15,30 25,32.5 23,18" style="fill:#fff;stroke:none"/><path d="M 24,18 C 24.38,20.91 18.45,25.37 16,27 C 13,29 13.18,31.34 11,31 C 9.958,30.06 12.41,27.96 11,28 C 10,28 11.19,29.23 10,30 C 9,30 5.997,31 6,26 C 6,24 12,14 12,14 C 12,14 13.89,12.1 14,10.5 C 13.27,9.506 13.5,8.5 13.5,7.5 C 14.5,6.5 16.5,10 16.5,10 L 18.5,10 C 18.5,10 19.28,8.008 21,7 C 22,7 22,10 22,10" style="fill:#fff;stroke:none"/></g></symbol>
<symbol id="piece-wikimedia-standard-Chess_Udt45" viewBox="0 0 45 45"><g>
  <title>Unicorn</title>
  <g id="Head" style="opacity:1; fill:none; fill-opacity:1; fill-rule:evenodd; stroke:#000000; stroke-width:1.5; stroke-linecap:round;stroke-linejoin:round;stroke-miterlimit:4; stroke-dasharray:none; stroke-opacity:1;">
    <path id="Neck" d="M 22,10 C 32.5,11 38.5,18 38,39 L 15,39 C 15,30 25,32.5 23,18" style="fill:#000000; stroke:#000000;"/>
    <path id="Face" fill="#000000" d="m24,18c0.38,2.91 -5.55,7.37 -8,9c-3,2 -2.82,4.34 -5,4c-1.042,-0.94 1.41,-3.04 0,-3c-1,0 0.19,1.23 -1,2c-1,0 -4,1 -4,-4c0,-2 6,-12 6,-12c0,0 -7.5275,-6.475 -7.0413,-7.15c0.4863,-0.675 8.9863,4.45 9.0413,3.65c-0.73,-0.994 -0.5,-2 -0.5,-3c1,-1 3,2.5 3,2.5l2,0c0,0 0.78,-1.992 2.5,-3c1,0 1,3 1,3" style="fill:#000000; stroke:#000000;"/>
    <path id="Nose" d="M 9.5 25.5 A 0.5 0.5 0 1 1 8.5,25.5 A 0.5 0.5 0 1 1 9.5 25.5 z" style="fill:#ffffff; stroke:#ffffff;"/>
    <path id="Eye" d="M 15 15.5 A 0.5 1.5 0 1 1  14,15.5 A 0.5 1.5 0 1 1  15 15.5 z" transform="matrix(0.866,0.5,-0.5,0.866,9.693,-5.173)" style="fill:#ffffff; stroke:#ffffff;"/>
    <path id="Mane" d="M 24.55,10.4 L 24.1,11.85 L 24.6,12 C 27.75,13 30.25,14.49 32.5,18.75 C 34.75,23.01 35.75,29.06 35.25,39 L 35.2,39.5 L 37.45,39.5 L 37.5,39 C 38,28.94 36.62,22.15 34.25,17.66 C 31.88,13.17 28.46,11.02 25.06,10.5 L 24.55,10.4 z " style="fill:#ffffff; stroke:none;"/>
  </g>
 </g></symbol>
<symbol id="piece-mce-chess-bH" viewBox="0 0 45 45"><g transform="translate(-2,-2) scale(0.6)"><g style="fill:none;stroke:#000;stroke-width:1.5;stroke-linecap:round;stroke-linejoin:round"><g style="fill:#000;stroke-linecap:butt"><path d="M 9,36 C 12.39,35.03 19.11,36.43 22.5,34 C 25.89,36.43 32.61,35.03 36,36 C 36,36 37.65,36.54 39,38 C 38.32,38.97 37.2,38.91 36,38.5 C 32.61,37.53 25.89,38.96 22.5,37.5 C 19.11,38.96 12.39,37.53 9,38.5 C 7.8,38.91 6.68,38.97 6,38 C 7.35,36.54 9,36 9,36 z"/><path d="M 15,32 C 17.5,34.5 27.5,34.5 30,32 C 30.5,30.5 30,30 30,30 C 30,27.5 27.5,26 27.5,26 C 33,24.5 33.5,14.5 22.5,10.5 C 11.5,14.5 12,24.5 17.5,26 C 17.5,26 15,27.5 15,30 C 15,30 14.5,30.5 15,32 z"/><path d="M 25,8 A 2.5,2.5 0 1 1 20,8 A 2.5,2.5 0 1 1 25,8 z"/></g><path d="M 17.5,26 L 27.5,26 M 15,30 L 30,30" style="fill:none;stroke:#fff;stroke-linejoin:miter"/></g></g><g transform="translate(20,20) scale(0.6)"><g style="fill:none;stroke:#000;stroke-width:1.5;stroke-linecap:round;stroke-linejoin:round"><path d="M 22,10 C 32.5,11 38.5,18 38,39 L 15,39 C 15,30 25,32.5 23,18" style="fill:#000"/><path d="M 24,18 C 24.38,20.91 18.45,25.37 16,27 C 13,29 13.18,31.34 11,31 C 9.958,30.06 12.41,27.96 11,28 C 10,28 11.19,29.23 10,30 C 9,30 5.997,31 6,26 C 6,24 12,14 12,14 C 12,14 13.89,12.1 14,10.5 C 13.27,9.506 13.5,8.5 13.5,7.5 C 14.5,6.5 16.5,10 16.5,10 L 18.5,10 C 18.5,10 19.28,8.008 21,7 C 22,7 22,10 22,10" style="fill:#000"/><path d="M 9.5,25.5 A 0.5,0.5 0 1 1 8.5,25.5 A 0.5,0.5 0 1 1 9.5,25.5 z" style="fill:#fff"/><path d="M 15,15.5 A 0.5,1.5 0 1 1 14,15.5 A 0.5,1.5 0 1 1 15,15.5 z" transform="matrix(0.866,0.5,-0.5,0.866,9.693,-5.173)" style="fill:#fff"/><path d="M 24.55,10.4 L 24.1,11.85 L 24.6,12 C 27.75,13 30.25,14.49 32.5,18.75 C 34.75,23.01 35.75,29.06 35.25,39 L 35.2,39.5 L 37.45,39.5 L 37.5,39 C 38,28.94 36.62,22.15 34.25,17.66 C 31.88,13.17 28.46,11.02 25.06,10.5 L 24.55,10.4 z" style="fill:#fff;stroke:none"/></g></g></symbol>
<symbol id="piece-mce-chess-bC" viewBox="0 0 45 45"><g style="fill:#000;stroke:#000;stroke-width:1.5;stroke-linecap:round;stroke-linejoin:round"><path d="M 9,39 L 36,39 L 36,36 L 9,36 L 9,39 z"/><path d="M 12,36 L 12,32 L 33,32 L 33,36 L 12,36 z"/><path d="M 11,14 L 11,9 L 15,9 L 15,11 L 20,11 L 20,9 L 25,9 L 25,11 L 30,11 L 30,9 L 34,9 L 34,14"/><path d="M 34,14 L 31,17 L 14,17 L 11,14"/><path d="M 31,17 L 31,29.5 L 14,29.5 L 14,17"/><path d="M 31,29.5 L 32.5,32 L 12.5,32 L 14,29.5"/><path d="M 11,14 L 34,14" style="fill:none;stroke:#fff;stroke-linejoin:miter"/><path d="M 12,35.5 L 33,35.5" style="fill:none;stroke:#fff;stroke-width:1"/><path d="M 13,31.5 L 32,31.5" style="fill:none;stroke:#fff;stroke-width:1"/><path d="M 14,29.5 L 31,29.5" style="fill:none;stroke:#fff;stroke-width:1"/></g><g transform="translate(14.5,15) scale(0.33)"><path d="M 22,10 C 32.5,11 38.5,18 38,39 L 15,39 C 15,30 25,32.5 23,18" style="fill:#fff;stroke:none"/><path d="M 24,18 C 24.38,20.91 18.45,25.37 16,27 C 13,29 13.18,31.34 11,31 C 9.958,30.06 12.41,27.96 11,28 C 10,28 11.19,29.23 10,30 C 9,30 5.997,31 6,26 C 6,24 12,14 12,14 C 12,14 13.89,12.1 14,10.5 C 13.27,9.506 13.5,8.5 13.5,7.5 C 14.5,6.5 16.5,10 16.5,10 L 18.5,10 C 18.5,10 19.28,8.008 21,7 C 22,7 22,10 22,10" style="fill:#fff;stroke:none"/></g></symbol>
<symbol id="piece-mce-chess-bM" viewBox="0 0 45 45"><g style="fill:#000;stroke:#000;stroke-width:1.5;stroke-linejoin:round"><path d="M 9,26 C 17.5,24.5 30,24.5 36,26 L 38.5,13.5 L 31,25 L 30.7,10.9 L 25.5,24.5 L 22.5,10 L 19.5,24.5 L 14.3,10.9 L 14,25 L 6.5,13.5 L 9,26 z"/><path d="M 9,26 C 9,28 10.5,28 11.5,30 C 12.5,31.5 12.5,31 12,33.5 C 10.5,34.5 11,36 11,36 C 9.5,37.5 11.5,38.5 11.5,38.5 C 17.5,39.5 27.5,39.5 33.5,38.5 C 33.5,38.5 35.5,37.5 34,36 C 34,36 34.5,34.5 33,33.5 C 32.5,31 32.5,31.5 33.5,30 C 34.5,28 36,28 36,26 C 27.5,24.5 17.5,24.5 9,26 z"/><circle cx="6" cy="12" r="2" style="fill:#fff"/><circle cx="14" cy="9" r="2" style="fill:#fff"/><circle cx="22.5" cy="8" r="2" style="fill:#fff"/><circle cx="31" cy="9" r="2" style="fill:#fff"/><circle cx="39" cy="12" r="2" style="fill:#fff"/></g><g transform="translate(14.5,24) scale(0.33)"><path d="M 22,10 C 32.5,11 38.5,18 38,39 L 15,39 C 15,30 25,32.5 23,18" style="fill:#fff;stroke:none"/><path d="M 24,18 C 24.38,20.91 18.45,25.37 16,27 C 13,29 13.18,31.34 11,31 C 9.958,30.06 12.41,27.96 11,28 C 10,28 11.19,29.23 10,30 C 9,30 5.997,31 6,26 C 6,24 12,14 12,14 C 12,14 13.89,12.1 14,10.5 C 13.27,9.506 13.5,8.5 13.5,7.5 C 14.5,6.5 16.5,10 16.5,10 L 18.5,10 C 18.5,10 19.28,8.008 21,7 C 22,7 22,10 22,10" style="fill:#fff;stroke:none"/></g></symbol>
<symbol id="piece-mce-chess-bK" viewBox="0 0 45 45"><g style="fill:#000;stroke:#000;stroke-width:1.5;stroke-linejoin:round"><path d="M 22.5,11.63 L 22.5,6" style="fill:none;stroke:#fff;stroke-linejoin:miter"/><path d="M 20,8 L 25,8" style="fill:none;stroke:#fff;stroke-linejoin:miter"/><path d="M 22.5,25 C 22.5,25 27,17.5 25.5,14.5 C 25.5,14.5 24.5,12 22.5,12 C 20.5,12 19.5,14.5 19.5,14.5 C 18,17.5 22.5,25 22.5,25"/><path d="M 12.5,37 C 18,40.5 27,40.5 32.5,37 L 32.5,30 C 32.5,30 41.5,25.5 38.5,19.5 C 34.5,13 25,16 22.5,23.5 L 22.5,27 L 22.5,23.5 C 20,16 10.5,13 6.5,19.5 C 3.5,25.5 12.5,30 12.5,30 L 12.5,37"/><path d="M 12.5,30 C 18,27 27,27 32.5,30" style="fill:none;stroke:#fff"/><path d="M 12.5,33.5 C 18,30.5 27,30.5 32.5,33.5" style="fill:none;stroke:#fff"/><path d="M 12.5,37 C 18,34 27,34 32.5,37" style="fill:none;stroke:#fff"/></g></symbol>
<symbol id="piece-mce-chess-bP" viewBox="0 0 45 45"><path d="M 22,9 C 19.79,9 18,10.79 18,13 C 18,13.89 18.29,14.71 18.78,15.38 C 16.83,16.5 15.5,18.59 15.5,21 C 15.5,23.03 16.44,24.84 17.91,26.03 C 14.91,27.09 10.5,31.58 10.5,39.5 L 33.5,39.5 C 33.5,31.58 29.09,27.09 26.09,26.03 C 27.56,24.84 28.5,23.03 28.5,21 C 28.5,18.59 27.17,16.5 25.22,15.38 C 25.71,14.71 26,13.89 26,13 C 26,10.79 24.21,9 22,9 z" style="fill:#000;stroke:#000;stroke-width:1.5;stroke-linecap:round"/></symbol>
<symbol id="piece-mce-chess-wB" viewBox="0 0 45 45"><g style="fill:none;stroke:#000;stroke-width:1.5;stroke-linecap:round;stroke-linejoin:round"><g style="fill:#fff;stroke-linecap:butt"><path d="M 9,36 C 12.39,35.03 19.11,36.43 22.5,34 C 25.89,36.43 32.61,35.03 36,36 C 36,36 37.65,36.54 39,38 C 38.32,38.97 37.2,38.91 36,38.5 C 32.61,37.53 25.89,38.96 22.5,37.5 C 19.11,38.96 12.39,37.53 9,38.5 C 7.8,38.91 6.68,38.97 6,38 C 7.35,36.54 9,36 9,36 z"/><path d="M 15,32 C 17.5,34.5 27.5,34.5 30,32 C 30.5,30.5 30,30 30,30 C 30,27.5 27.5,26 27.5,26 C 33,24.5 33.5,14.5 22.5,10.5 C 11.5,14.5 12,24.5 17.5,26 C 17.5,26 15,27.5 15,30 C 15,30 14.5,30.5 15,32 z"/><path d="M 25,8 A 2.5,2.5 0 1 1 20,8 A 2.5,2.5 0 1 1 25,8 z"/></g><path d="M 17.5,26 L 27.5,26 M 15,30 L 30,30 M 22.5,15.5 L 22.5,20.5 M 20,18 L 25,18" style="fill:none;stroke:#000;stroke-linejoin:miter"/></g></symbol>
<symbol id="piece-mce-chess-wE" viewBox="0 0 45 45"><g transform="translate(2,1) scale(0.228)"><path d="M140.07,68.8c3.43,6.1,5.37,13.14,5.37,20.64,0,3.43-.41,6.78-1.19,9.97-.1,.37-.17,.72-.27,1.09-1.69,6.7-2.84,13.61-3.41,20.68-.29,3.45-.43,6.91-.43,10.44,0,.93,.01,1.86,.04,2.79-1.09-.45-2.3-.85-3.65-1.2,0,0-47.52-4.73-70.93,0-1.42,.36-2.69,.78-3.82,1.27h-.63c1.09-7.23,3.99-13.85,8.24-19.4,2.72-3.58,6.02-6.71,9.76-9.27,.25-.16,.49-.31,.72-.49,2.01-1.36,3.88-2.9,5.61-4.6-4.46-1.44-12.33-5.8-16.01-8.57-2.29-.53-5.69,2.3-5.69,2.3-1.19,.99-2.3,2.06-3.37,3.19-.81,.84-1.58,1.72-2.28,2.61-4.24,5.31-7.24,11.68-8.55,18.63-.47,2.51-.7,5.1-.7,7.77,0,3.97,.55,7.8,1.58,11.45,0,0,1.43,4.08,2.52,6.8,.35,.88,.67,1.61,.89,2.02,1.27,2.36,1.06,6.71-1.63,9.88-1.17,1.38-2.81,2.54-4.99,3.22-.97,.33-1.99,.54-3.06,.58-.25,0-.49-.02-.74-.02-.59-.02-1.17-.08-1.73-.17-1.97-.37-3.74-1.28-5.14-2.59-.55-.49-1.03-1.03-1.44-1.64,.61-1.94,.92-4.01,.92-6.15s-.31-4.21-.92-6.15c0-.02,.02-.04,.02-.04,0-.02-.02-.06-.02-.08-.12-.33-.23-.68-.37-1.01-2.12-6.14-3.58-12.6-4.25-19.28-.12-1.17-.21-2.36-.29-3.54v-.02c-.1-1.66-.14-3.31-.14-4.99,0-18.42,5.88-35.47,15.89-49.36,.78-1.11,1.61-2.22,2.47-3.29,2.57-20.02,19.14-35.67,39.6-36.78,.78-.06,1.58-.08,2.38-.08,2.05,0,4.07,.16,6.04,.43,.02,0,.06,0,.08,.02,1.83-.41,3.68-.78,5.53-1.11,.78-.14,1.56-.27,2.36-.39,.8-.14,1.61-.26,2.41-.37,1.03-.16,2.06-.27,3.09-.39,.41-.06,.8-.1,1.21-.14,.97-.1,1.97-.19,2.96-.27,1.34-.12,2.72-.2,4.09-.28,2.08-.1,4.18-.16,6.31-.16,8.7,0,17.19,.88,25.39,2.55-1.58,11.45-4.67,22.41-9.09,32.67,.06,.8,.08,1.61,.08,2.43,0,.68-.02,1.38-.06,2.06,0,.1,0,.17-.02,.27-.02,.58-.06,1.15-.12,1.71,0,.12-.02,.24-.04,.33-.06,.6-.12,1.19-.21,1.79,0,.08-.02,.16-.04,.24-.08,.52-.16,1.03-.27,1.56l-.06,.35v.04Z" style="fill:#fff;stroke:#000;stroke-width:6"/><path d="M52.25,156.09v3.47h97.65v-3.47c.03-10.4,.05-19.46-13.36-22.87,0,0-47.52-4.73-70.93,0h0c-13.41,3.41-13.39,12.47-13.36,22.87Z" style="fill:#fff;stroke:#000;stroke-width:6"/><path d="M72.65,94.39c.12,0,7.82,4.74,12.82,6.35-.21,.17-.4,.35-.61,.52-.02,.02-.05,.02-.07,.02-5.44,3.05-11.32,5.01-17.56,5.82l-.31,.05c-.14,.02-.24,.05-.38,.05l-.21-.02-.17,.05c-2.58,0-4.66-2.08-4.66-4.66,0-1.96,1.3-3.78,3.14-4.4l.28-.07c2.88-.9,5.28-1.91,7.72-3.7Z" style="fill:#fff;stroke:#000;stroke-width:4"/><circle cx="76.4" cy="53.46" r="5.3" style="fill:#000;stroke:none"/></g></symbol>
<symbol id="piece-wikimedia-fairy-White_dabbaba" viewBox="0 0 12 12"><path d="M3.698 7.75h-.775c.015.145.06.286.135.42.026.049.054.094.084.135zm.68 0 .555.555a1.146 1.146 0 0 0 .213-.556Zm-.006-.282h.78a1.288 1.288 0 0 0-.135-.426.998.998 0 0 0-.09-.13Zm-.197-.196.556-.556a.997.997 0 0 0-.13-.09 1.288 1.288 0 0 0-.426-.135Zm-.28-.006v-.769a1.146 1.146 0 0 0-.556.213zm.28 1.455a1.135 1.135 0 0 0 .562-.22l-.562-.56Zm-.471-1.253-.562-.561c-.03.045-.058.09-.084.135-.075.138-.12.28-.135.426Zm-.365 1.034c.04.03.086.058.134.084.135.075.275.12.421.135v-.775Zm.696-2.297c.243 0 .477.06.702.18.228.12.402.294.522.522.12.225.18.458.18.702 0 .243-.06.477-.18.702-.12.224-.294.398-.522.522a1.472 1.472 0 0 1-1.41 0 1.263 1.263 0 0 1-.516-.522 1.472 1.472 0 0 1-.18-.702c0-.244.06-.477.18-.702a1.22 1.22 0 0 1 .516-.522c.229-.12.464-.18.708-.18Zm3.594 1.544h-.775c.015.146.06.287.134.421.027.049.055.094.085.135zm.679 0 .556.556a1.146 1.146 0 0 0 .213-.556Zm-.006-.28h.78a1.288 1.288 0 0 0-.134-.427.997.997 0 0 0-.09-.13Zm-.196-.197.556-.556a.997.997 0 0 0-.13-.09 1.288 1.288 0 0 0-.426-.135Zm-.28-.006v-.769a1.146 1.146 0 0 0-.557.213Zm.28 1.455a1.135 1.135 0 0 0 .561-.22l-.561-.56Zm-.472-1.253-.561-.561a1.135 1.135 0 0 0-.219.562ZM7.27 8.502c.041.03.086.058.135.084.135.075.275.12.421.135v-.775Zm.696-2.297c.244 0 .478.06.702.18.229.12.403.294.523.522.12.225.18.458.18.702 0 .243-.06.477-.18.702a1.26 1.26 0 0 1-.523.522 1.472 1.472 0 0 1-1.409 0 1.263 1.263 0 0 1-.517-.522 1.472 1.472 0 0 1-.18-.702c0-.244.06-.477.18-.702a1.22 1.22 0 0 1 .517-.522 1.5 1.5 0 0 1 .707-.18Zm.427-.517-1.27-4.312H4.877L3.608 5.688a2.086 2.086 0 0 1 1.415.208c.131.071.25.156.36.253h1.235c.108-.097.23-.182.365-.253a2.054 2.054 0 0 1 1.41-.208zm-2.021.742H5.63c.04.06.08.123.117.19l.045.09h.416l.045-.09c.037-.067.077-.13.118-.19Zm-.764.561a4.222 4.222 0 0 0-.101-.23 1.517 1.517 0 0 0-.556-.584l-.067-.04a1.814 1.814 0 0 0-.848-.213 1.73 1.73 0 0 0-.517.079 1.998 1.998 0 0 0-.325.135l1.403-5.043h2.808l1.404 5.043a1.998 1.998 0 0 0-.326-.135 1.73 1.73 0 0 0-.517-.079c-.292 0-.572.071-.842.214l-.073.039c-.22.131-.395.309-.522.533a3.15 3.15 0 0 0-.135.281Zm-1.572.337a.275.275 0 0 0-.14.04.252.252 0 0 0-.107.1.31.31 0 0 0 0 .281c.026.045.062.08.106.107a.31.31 0 0 0 .281 0 .252.252 0 0 0 .101-.107.275.275 0 0 0 0-.28.22.22 0 0 0-.1-.102.275.275 0 0 0-.141-.039Zm3.93 0a.275.275 0 0 0-.14.04.252.252 0 0 0-.107.1.31.31 0 0 0 0 .281c.027.045.062.08.107.107a.31.31 0 0 0 .28 0 .252.252 0 0 0 .102-.107.275.275 0 0 0 0-.28.22.22 0 0 0-.101-.102.275.275 0 0 0-.14-.039Z" style="font-size:11.5px;line-height:0;font-family:Quivira;stroke-width:.15;stroke-linecap:square;stroke-linejoin:bevel;paint-order:markers stroke fill"/></symbol>
<symbol id="piece-wikimedia-fairy-Black_dabbaba" viewBox="0 0 12 12"><path d="M3.698 7.75h-.775q.022.218.135.42.04.073.084.135zm.68 0 .555.555q.045-.062.084-.135.107-.202.13-.42Zm-.006-.282h.78q-.028-.219-.135-.426-.039-.068-.09-.13Zm-.197-.196.556-.556q-.062-.05-.13-.09-.207-.107-.426-.135Zm-.28-.006v-.769q-.22.022-.422.13-.073.038-.134.083Zm.28 1.455q.22-.023.427-.135.067-.04.135-.084l-.562-.562Zm-.471-1.253-.562-.561q-.045.067-.084.135-.113.207-.135.426Zm-.365 1.034q.061.045.134.084.202.112.421.135v-.775Zm.696-2.297q.365 0 .702.18.342.18.522.522.18.337.18.702 0 .365-.18.702-.18.337-.522.522-.337.18-.702.18-.365 0-.708-.18-.337-.185-.516-.522-.18-.337-.18-.702 0-.365.18-.702.18-.343.516-.522.343-.18.708-.18Zm3.594 1.544h-.775q.022.22.134.421.04.073.085.135zm.679 0 .556.556q.045-.062.084-.135.107-.202.13-.42Zm-.006-.28h.78q-.027-.22-.134-.427-.04-.068-.09-.13Zm-.196-.197.556-.556q-.062-.05-.13-.09-.207-.107-.426-.135Zm-.28-.006v-.769q-.22.022-.422.13-.073.038-.135.083Zm.28 1.455q.219-.023.427-.135.067-.04.134-.084l-.561-.562Zm-.472-1.253-.561-.561q-.045.067-.085.135-.112.207-.134.426ZM7.27 8.502q.062.045.135.084.202.112.421.135v-.775Zm.696-2.297q.365 0 .702.18.343.18.523.522.18.337.18.702 0 .365-.18.702-.18.337-.523.522-.337.18-.702.18-.365 0-.707-.18-.337-.185-.517-.522t-.18-.702q0-.365.18-.702.18-.343.517-.522.342-.18.707-.18Zm-1.594.225H5.63q.061.09.117.19l.045.09h.416l.045-.09q.056-.1.118-.19zm-.764.561q-.011-.034-.101-.23-.202-.37-.556-.584l-.067-.04q-.41-.213-.848-.213-.264 0-.517.079-.163.05-.325.135l1.403-5.043h2.808l1.404 5.043q-.163-.085-.326-.135-.253-.079-.517-.079-.438 0-.842.214l-.073.039q-.331.196-.522.533-.079.146-.135.281Z" style="font-size:11.5px;line-height:0;font-family:Quivira;stroke-width:.15;stroke-linecap:square;stroke-linejoin:bevel;paint-order:markers stroke fill"/></symbol>
<symbol id="piece-mce-chess-bB" viewBox="0 0 45 45"><g style="fill:none;stroke:#000;stroke-width:1.5;stroke-linecap:round;stroke-linejoin:round"><g style="fill:#000;stroke-linecap:butt"><path d="M 9,36 C 12.39,35.03 19.11,36.43 22.5,34 C 25.89,36.43 32.61,35.03 36,36 C 36,36 37.65,36.54 39,38 C 38.32,38.97 37.2,38.91 36,38.5 C 32.61,37.53 25.89,38.96 22.5,37.5 C 19.11,38.96 12.39,37.53 9,38.5 C 7.8,38.91 6.68,38.97 6,38 C 7.35,36.54 9,36 9,36 z"/><path d="M 15,32 C 17.5,34.5 27.5,34.5 30,32 C 30.5,30.5 30,30 30,30 C 30,27.5 27.5,26 27.5,26 C 33,24.5 33.5,14.5 22.5,10.5 C 11.5,14.5 12,24.5 17.5,26 C 17.5,26 15,27.5 15,30 C 15,30 14.5,30.5 15,32 z"/><path d="M 25,8 A 2.5,2.5 0 1 1 20,8 A 2.5,2.5 0 1 1 25,8 z"/></g><path d="M 17.5,26 L 27.5,26 M 15,30 L 30,30 M 22.5,15.5 L 22.5,20.5 M 20,18 L 25,18" style="fill:none;stroke:#fff;stroke-linejoin:miter"/></g></symbol>
<symbol id="piece-mce-chess-bE" viewBox="0 0 45 45"><g transform="translate(2,1) scale(0.228)"><path d="M140.07,68.8c3.43,6.1,5.37,13.14,5.37,20.64,0,3.43-.41,6.78-1.19,9.97-.1,.37-.17,.72-.27,1.09-1.69,6.7-2.84,13.61-3.41,20.68-.29,3.45-.43,6.91-.43,10.44,0,.93,.01,1.86,.04,2.79-1.09-.45-2.3-.85-3.65-1.2,0,0-47.52-4.73-70.93,0-1.42,.36-2.69,.78-3.82,1.27h-.63c1.09-7.23,3.99-13.85,8.24-19.4,2.72-3.58,6.02-6.71,9.76-9.27,.25-.16,.49-.31,.72-.49,2.01-1.36,3.88-2.9,5.61-4.6-4.46-1.44-12.33-5.8-16.01-8.57-2.29-.53-5.69,2.3-5.69,2.3-1.19,.99-2.3,2.06-3.37,3.19-.81,.84-1.58,1.72-2.28,2.61-4.24,5.31-7.24,11.68-8.55,18.63-.47,2.51-.7,5.1-.7,7.77,0,3.97,.55,7.8,1.58,11.45,0,0,1.43,4.08,2.52,6.8,.35,.88,.67,1.61,.89,2.02,1.27,2.36,1.06,6.71-1.63,9.88-1.17,1.38-2.81,2.54-4.99,3.22-.97,.33-1.99,.54-3.06,.58-.25,0-.49-.02-.74-.02-.59-.02-1.17-.08-1.73-.17-1.97-.37-3.74-1.28-5.14-2.59-.55-.49-1.03-1.03-1.44-1.64,.61-1.94,.92-4.01,.92-6.15s-.31-4.21-.92-6.15c0-.02,.02-.04,.02-.04,0-.02-.02-.06-.02-.08-.12-.33-.23-.68-.37-1.01-2.12-6.14-3.58-12.6-4.25-19.28-.12-1.17-.21-2.36-.29-3.54v-.02c-.1-1.66-.14-3.31-.14-4.99,0-18.42,5.88-35.47,15.89-49.36,.78-1.11,1.61-2.22,2.47-3.29,2.57-20.02,19.14-35.67,39.6-36.78,.78-.06,1.58-.08,2.38-.08,2.05,0,4.07,.16,6.04,.43,.02,0,.06,0,.08,.02,1.83-.41,3.68-.78,5.53-1.11,.78-.14,1.56-.27,2.36-.39,.8-.14,1.61-.26,2.41-.37,1.03-.16,2.06-.27,3.09-.39,.41-.06,.8-.1,1.21-.14,.97-.1,1.97-.19,2.96-.27,1.34-.12,2.72-.2,4.09-.28,2.08-.1,4.18-.16,6.31-.16,8.7,0,17.19,.88,25.39,2.55-1.58,11.45-4.67,22.41-9.09,32.67,.06,.8,.08,1.61,.08,2.43,0,.68-.02,1.38-.06,2.06,0,.1,0,.17-.02,.27-.02,.58-.06,1.15-.12,1.71,0,.12-.02,.24-.04,.33-.06,.6-.12,1.19-.21,1.79,0,.08-.02,.16-.04,.24-.08,.52-.16,1.03-.27,1.56l-.06,.35v.04Z" style="fill:#000;stroke:#fff;stroke-width:6"/><path d="M52.25,156.09v3.47h97.65v-3.47c.03-10.4,.05-19.46-13.36-22.87,0,0-47.52-4.73-70.93,0h0c-13.41,3.41-13.39,12.47-13.36,22.87Z" style="fill:#000;stroke:#fff;stroke-width:6"/><path d="M72.65,94.39c.12,0,7.82,4.74,12.82,6.35-.21,.17-.4,.35-.61,.52-.02,.02-.05,.02-.07,.02-5.44,3.05-11.32,5.01-17.56,5.82l-.31,.05c-.14,.02-.24,.05-.38,.05l-.21-.02-.17,.05c-2.58,0-4.66-2.08-4.66-4.66,0-1.96,1.3-3.78,3.14-4.4l.28-.07c2.88-.9,5.28-1.91,7.72-3.7Z" style="fill:#000;stroke:#fff;stroke-width:4"/><circle cx="76.4" cy="53.46" r="5.3" style="fill:#fff;stroke:none"/></g></symbol>
</defs>
<text x="172" y="0" text-anchor="middle" font-size="11" fill="#333" font-family="system-ui">Subterranean</text>
<g transform="translate(4,4)" data-layer="0">


<rect x="24" y="24" width="24" height="24" fill="#a0c8e8" data-sq="a8" class="board-cell"/><rect x="48" y="24" width="24" height="24" fill="#6a9ec8" data-sq="b8" class="board-cell"/><rect x="72" y="24" width="24" height="24" fill="#a0c8e8" data-sq="c8" class="board-cell"/><rect x="96" y="24" width="24" height="24" fill="#6a9ec8" data-sq="d8" class="board-cell"/><rect x="120" y="24" width="24" height="24" fill="#a0c8e8" data-sq="e8" class="board-cell"/><rect x="144" y="24" width="24" height="24" fill="#6a9ec8" data-sq="f8" class="board-cell"/><rect x="168" y="24" width="24" height="24" fill="#a0c8e8" data-sq="g8" class="board-cell"/><rect x="192" y="24" width="24" height="24" fill="#6a9ec8" data-sq="h8" class="board-cell"/><rect x="216" y="24" width="24" height="24" fill="#a0c8e8" data-sq="i8" class="board-cell"/><rect x="240" y="24" width="24" height="24" fill="#6a9ec8" data-sq="j8" class="board-cell"/><rect x="264" y="24" width="24" height="24" fill="#a0c8e8" data-sq="k8" class="board-cell"/><rect x="288" y="24" width="24" height="24" fill="#6a9ec8" data-sq="l8" class="board-cell"/><rect x="24" y="48" width="24" height="24" fill="#6a9ec8" data-sq="a7" class="board-cell"/><rect x="48" y="48" width="24" height="24" fill="#a0c8e8" data-sq="b7" class="board-cell"/><rect x="72" y="48" width="24" height="24" fill="#6a9ec8" data-sq="c7" class="board-cell"/><rect x="96" y="48" width="24" height="24" fill="#a0c8e8" data-sq="d7" class="board-cell"/><rect x="120" y="48" width="24" height="24" fill="#6a9ec8" data-sq="e7" class="board-cell"/><rect x="144" y="48" width="24" height="24" fill="#a0c8e8" data-sq="f7" class="board-cell"/><rect x="168" y="48" width="24" height="24" fill="#6a9ec8" data-sq="g7" class="board-cell"/><rect x="192" y="48" width="24" height="24" fill="#a0c8e8" data-sq="h7" class="board-cell"/><rect x="216" y="48" width="24" height="24" fill="#6a9ec8" data-sq="i7" class="board-cell"/><rect x="240" y="48" width="24" height="24" fill="#a0c8e8" data-sq="j7" class="board-cell"/><rect x="264" y="48" width="24" height="24" fill="#6a9ec8" data-sq="k7" class="board-cell"/><rect x="288" y="48" width="24" height="24" fill="#a0c8e8" data-sq="l7" class="board-cell"/><rect x="24" y="72" width="24" height="24" fill="#a0c8e8" data-sq="a6" class="board-cell"/><rect x="48" y="72" width="24" height="24" fill="#6a9ec8" data-sq="b6" class="board-cell"/><rect x="72" y="72" width="24" height="24" fill="#a0c8e8" data-sq="c6" class="board-cell"/><rect x="96" y="72" width="24" height="24" fill="#6a9ec8" data-sq="d6" class="board-cell"/><rect x="120" y="72" width="24" height="24" fill="#a0c8e8" data-sq="e6" class="board-cell"/><rect x="144" y="72" width="24" height="24" fill="#6a9ec8" data-sq="f6" class="board-cell"/><rect x="168" y="72" width="24" height="24" fill="#a0c8e8" data-sq="g6" class="board-cell"/><rect x="192" y="72" width="24" height="24" fill="#6a9ec8" data-sq="h6" class="board-cell"/><rect x="216" y="72" width="24" height="24" fill="#a0c8e8" data-sq="i6" class="board-cell"/><rect x="240" y="72" width="24" height="24" fill="#6a9ec8" data-sq="j6" class="board-cell"/><rect x="264" y="72" width="24" height="24" fill="#a0c8e8" data-sq="k6" class="board-cell"/><rect x="288" y="72" width="24" height="24" fill="#6a9ec8" data-sq="l6" class="board-cell"/><rect x="24" y="96" width="24" height="24" fill="#6a9ec8" data-sq="a5" class="board-cell"/><rect x="48" y="96" width="24" height="24" fill="#a0c8e8" data-sq="b5" class="board-cell"/><rect x="72" y="96" width="24" height="24" fill="#6a9ec8" data-sq="c5" class="board-cell"/><rect x="96" y="96" width="24" height="24" fill="#a0c8e8" data-sq="d5" class="board-cell"/><rect x="120" y="96" width="24" height="24" fill="#6a9ec8" data-sq="e5" class="board-cell"/><rect x="144" y="96" width="24" height="24" fill="#a0c8e8" data-sq="f5" class="board-cell"/><rect x="168" y="96" width="24" height="24" fill="#6a9ec8" data-sq="g5" class="board-cell"/><rect x="192" y="96" width="24" height="24" fill="#a0c8e8" data-sq="h5" class="board-cell"/><rect x="216" y="96" width="24" height="24" fill="#6a9ec8" data-sq="i5" class="board-cell"/><rect x="240" y="96" width="24" height="24" fill="#a0c8e8" data-sq="j5" class="board-cell"/><rect x="264" y="96" width="24" height="24" fill="#6a9ec8" data-sq="k5" class="board-cell"/><rect x="288" y="96" width="24" height="24" fill="#a0c8e8" data-sq="l5" class="board-cell"/><rect x="24" y="120" width="24" height="24" fill="#a0c8e8" data-sq="a4" class="board-cell"/><rect x="48" y="120" width="24" height="24" fill="#6a9ec8" data-sq="b4" class="board-cell"/><rect x="72" y="120" width="24" height="24" fill="#a0c8e8" data-sq="c4" class="board-cell"/><rect x="96" y="120" width="24" height="24" fill="#6a9ec8" data-sq="d4" class="board-cell"/><rect x="120" y="120" width="24" height="24" fill="#a0c8e8" data-sq="e4" class="board-cell"/><rect x="144" y="120" width="24" height="24" fill="#6a9ec8" data-sq="f4" class="board-cell"/><rect x="168" y="120" width="24" height="24" fill="#a0c8e8" data-sq="g4" class="board-cell"/><rect x="192" y="120" width="24" height="24" fill="#6a9ec8" data-sq="h4" class="board-cell"/><rect x="216" y="120" width="24" height="24" fill="#a0c8e8" data-sq="i4" class="board-cell"/><rect x="240" y="120" width="24" height="24" fill="#6a9ec8" data-sq="j4" class="board-cell"/><rect x="264" y="120" width="24" height="24" fill="#a0c8e8" data-sq="k4" class="board-cell"/><rect x="288" y="120" width="24" height="24" fill="#6a9ec8" data-sq="l4" class="board-cell"/><rect x="24" y="144" width="24" height="24" fill="#6a9ec8" data-sq="a3" class="board-cell"/><rect x="48" y="144" width="24" height="24" fill="#a0c8e8" data-sq="b3" class="board-cell"/><rect x="72" y="144" width="24" height="24" fill="#6a9ec8" data-sq="c3" class="board-cell"/><rect x="96" y="144" width="24" height="24" fill="#a0c8e8" data-sq="d3" class="board-cell"/><rect x="120" y="144" width="24" height="24" fill="#6a9ec8" data-sq="e3" class="board-cell"/><rect x="144" y="144" width="24" height="24" fill="#a0c8e8" data-sq="f3" class="board-cell"/><rect x="168" y="144" width="24" height="24" fill="#6a9ec8" data-sq="g3" class="board-cell"/><rect x="192" y="144" width="24" height="24" fill="#a0c8e8" data-sq="h3" class="board-cell"/><rect x="216" y="144" width="24" height="24" fill="#6a9ec8" data-sq="i3" class="board-cell"/><rect x="240" y="144" width="24" height="24" fill="#a0c8e8" data-sq="j3" class="board-cell"/><rect x="264" y="144" width="24" height="24" fill="#6a9ec8" data-sq="k3" class="board-cell"/><rect x="288" y="144" width="24" height="24" fill="#a0c8e8" data-sq="l3" class="board-cell"/><rect x="24" y="168" width="24" height="24" fill="#a0c8e8" data-sq="a2" class="board-cell"/><rect x="48" y="168" width="24" height="24" fill="#6a9ec8" data-sq="b2" class="board-cell"/><rect x="72" y="168" width="24" height="24" fill="#a0c8e8" data-sq="c2" class="board-cell"/><rect x="96" y="168" width="24" height="24" fill="#6a9ec8" data-sq="d2" class="board-cell"/><rect x="120" y="168" width="24" height="24" fill="#a0c8e8" data-sq="e2" class="board-cell"/><rect x="144" y="168" width="24" height="24" fill="#6a9ec8" data-sq="f2" class="board-cell"/><rect x="168" y="168" width="24" height="24" fill="#a0c8e8" data-sq="g2" class="board-cell"/><rect x="192" y="168" width="24" height="24" fill="#6a9ec8" data-sq="h2" class="board-cell"/><rect x="216" y="168" width="24" height="24" fill="#a0c8e8" data-sq="i2" class="board-cell"/><rect x="240" y="168" width="24" height="24" fill="#6a9ec8" data-sq="j2" class="board-cell"/><rect x="264" y="168" width="24" height="24" fill="#a0c8e8" data-sq="k2" class="board-cell"/><rect x="288" y="168" width="24" height="24" fill="#6a9ec8" data-sq="l2" class="board-cell"/><rect x="24" y="192" width="24" height="24" fill="#6a9ec8" data-sq="a1" class="board-cell"/><rect x="48" y="192" width="24" height="24" fill="#a0c8e8" data-sq="b1" class="board-cell"/><rect x="72" y="192" width="24" height="24" fill="#6a9ec8" data-sq="c1" class="board-cell"/><rect x="96" y="192" width="24" height="24" fill="#a0c8e8" data-sq="d1" class="board-cell"/><rect x="120" y="192" width="24" height="24" fill="#6a9ec8" data-sq="e1" class="board-cell"/><rect x="144" y="192" width="24" height="24" fill="#a0c8e8" data-sq="f1" class="board-cell"/><rect x="168" y="192" width="24" height="24" fill="#6a9ec8" data-sq="g1" class="board-cell"/><rect x="192" y="192" width="24" height="24" fill="#a0c8e8" data-sq="h1" class="board-cell"/><rect x="216" y="192" width="24" height="24" fill="#6a9ec8" data-sq="i1" class="board-cell"/><rect x="240" y="192" width="24" height="24" fill="#a0c8e8" data-sq="j1" class="board-cell"/><rect x="264" y="192" width="24" height="24" fill="#6a9ec8" data-sq="k1" class="board-cell"/><rect x="288" y="192" width="24" height="24" fill="#a0c8e8" data-sq="l1" class="board-cell"/>
<g pointer-events="none"><use href="#piece-mce-chess-wG" x="72" y="24" width="24" height="24"/><use href="#piece-mce-chess-wR" x="168" y="24" width="24" height="24"/><use href="#piece-mce-chess-wG" x="264" y="24" width="24" height="24"/><use href="#piece-mce-chess-wS" x="24" y="48" width="24" height="24"/><use href="#piece-mce-chess-wS" x="72" y="48" width="24" height="24"/><use href="#piece-mce-chess-wS" x="120" y="48" width="24" height="24"/><use href="#piece-mce-chess-wS" x="168" y="48" width="24" height="24"/><use href="#piece-mce-chess-wS" x="216" y="48" width="24" height="24"/><use href="#piece-mce-chess-wS" x="264" y="48" width="24" height="24"/><use href="#piece-mce-chess-bS" x="24" y="168" width="24" height="24"/><use href="#piece-mce-chess-bS" x="72" y="168" width="24" height="24"/><use href="#piece-mce-chess-bS" x="120" y="168" width="24" height="24"/><use href="#piece-mce-chess-bS" x="168" y="168" width="24" height="24"/><use href="#piece-mce-chess-bS" x="216" y="168" width="24" height="24"/><use href="#piece-mce-chess-bS" x="264" y="168" width="24" height="24"/><use href="#piece-mce-chess-bG" x="72" y="192" width="24" height="24"/><use href="#piece-mce-chess-bR" x="168" y="192" width="24" height="24"/><use href="#piece-mce-chess-bG" x="264" y="192" width="24" height="24"/></g>
<text x="36" y="231.6" text-anchor="middle" font-size="13" fill="#5c3a1e" font-family="monospace">a</text><text x="60" y="231.6" text-anchor="middle" font-size="13" fill="#5c3a1e" font-family="monospace">b</text><text x="84" y="231.6" text-anchor="middle" font-size="13" fill="#5c3a1e" font-family="monospace">c</text><text x="108" y="231.6" text-anchor="middle" font-size="13" fill="#5c3a1e" font-family="monospace">d</text><text x="132" y="231.6" text-anchor="middle" font-size="13" fill="#5c3a1e" font-family="monospace">e</text><text x="156" y="231.6" text-anchor="middle" font-size="13" fill="#5c3a1e" font-family="monospace">f</text><text x="180" y="231.6" text-anchor="middle" font-size="13" fill="#5c3a1e" font-family="monospace">g</text><text x="204" y="231.6" text-anchor="middle" font-size="13" fill="#5c3a1e" font-family="monospace">h</text><text x="228" y="231.6" text-anchor="middle" font-size="13" fill="#5c3a1e" font-family="monospace">i</text><text x="252" y="231.6" text-anchor="middle" font-size="13" fill="#5c3a1e" font-family="monospace">j</text><text x="276" y="231.6" text-anchor="middle" font-size="13" fill="#5c3a1e" font-family="monospace">k</text><text x="300" y="231.6" text-anchor="middle" font-size="13" fill="#5c3a1e" font-family="monospace">l</text><text x="12" y="40.55" text-anchor="middle" font-size="13" fill="#5c3a1e" font-family="monospace">8</text><text x="12" y="64.55" text-anchor="middle" font-size="13" fill="#5c3a1e" font-family="monospace">7</text><text x="12" y="88.55" text-anchor="middle" font-size="13" fill="#5c3a1e" font-family="monospace">6</text><text x="12" y="112.55" text-anchor="middle" font-size="13" fill="#5c3a1e" font-family="monospace">5</text><text x="12" y="136.55" text-anchor="middle" font-size="13" fill="#5c3a1e" font-family="monospace">4</text><text x="12" y="160.55" text-anchor="middle" font-size="13" fill="#5c3a1e" font-family="monospace">3</text><text x="12" y="184.55" text-anchor="middle" font-size="13" fill="#5c3a1e" font-family="monospace">2</text><text x="12" y="208.55" text-anchor="middle" font-size="13" fill="#5c3a1e" font-family="monospace">1</text>

</g>
<text x="172" y="270" text-anchor="middle" font-size="11" fill="#333" font-family="system-ui">Land</text>
<g transform="translate(4,274)" data-layer="1">


<rect x="24" y="24" width="24" height="24" fill="#a8c890" data-sq="a8" class="board-cell"/><rect x="48" y="24" width="24" height="24" fill="#6d9450" data-sq="b8" class="board-cell"/><rect x="72" y="24" width="24" height="24" fill="#a8c890" data-sq="c8" class="board-cell"/><rect x="96" y="24" width="24" height="24" fill="#6d9450" data-sq="d8" class="board-cell"/><rect x="120" y="24" width="24" height="24" fill="#a8c890" data-sq="e8" class="board-cell"/><rect x="144" y="24" width="24" height="24" fill="#6d9450" data-sq="f8" class="board-cell"/><rect x="168" y="24" width="24" height="24" fill="#a8c890" data-sq="g8" class="board-cell"/><rect x="192" y="24" width="24" height="24" fill="#6d9450" data-sq="h8" class="board-cell"/><rect x="216" y="24" width="24" height="24" fill="#a8c890" data-sq="i8" class="board-cell"/><rect x="240" y="24" width="24" height="24" fill="#6d9450" data-sq="j8" class="board-cell"/><rect x="264" y="24" width="24" height="24" fill="#a8c890" data-sq="k8" class="board-cell"/><rect x="288" y="24" width="24" height="24" fill="#6d9450" data-sq="l8" class="board-cell"/><rect x="24" y="48" width="24" height="24" fill="#6d9450" data-sq="a7" class="board-cell"/><rect x="48" y="48" width="24" height="24" fill="#a8c890" data-sq="b7" class="board-cell"/><rect x="72" y="48" width="24" height="24" fill="#6d9450" data-sq="c7" class="board-cell"/><rect x="96" y="48" width="24" height="24" fill="#a8c890" data-sq="d7" class="board-cell"/><rect x="120" y="48" width="24" height="24" fill="#6d9450" data-sq="e7" class="board-cell"/><rect x="144" y="48" width="24" height="24" fill="#a8c890" data-sq="f7" class="board-cell"/><rect x="168" y="48" width="24" height="24" fill="#6d9450" data-sq="g7" class="board-cell"/><rect x="192" y="48" width="24" height="24" fill="#a8c890" data-sq="h7" class="board-cell"/><rect x="216" y="48" width="24" height="24" fill="#6d9450" data-sq="i7" class="board-cell"/><rect x="240" y="48" width="24" height="24" fill="#a8c890" data-sq="j7" class="board-cell"/><rect x="264" y="48" width="24" height="24" fill="#6d9450" data-sq="k7" class="board-cell"/><rect x="288" y="48" width="24" height="24" fill="#a8c890" data-sq="l7" class="board-cell"/><rect x="24" y="72" width="24" height="24" fill="#a8c890" data-sq="a6" class="board-cell"/><rect x="48" y="72" width="24" height="24" fill="#6d9450" data-sq="b6" class="board-cell"/><rect x="72" y="72" width="24" height="24" fill="#a8c890" data-sq="c6" class="board-cell"/><rect x="96" y="72" width="24" height="24" fill="#6d9450" data-sq="d6" class="board-cell"/><rect x="120" y="72" width="24" height="24" fill="#a8c890" data-sq="e6" class="board-cell"/><rect x="144" y="72" width="24" height="24" fill="#6d9450" data-sq="f6" class="board-cell"/><rect x="168" y="72" width="24" height="24" fill="#a8c890" data-sq="g6" class="board-cell"/><rect x="192" y="72" width="24" height="24" fill="#6d9450" data-sq="h6" class="board-cell"/><rect x="216" y="72" width="24" height="24" fill="#a8c890" data-sq="i6" class="board-cell"/><rect x="240" y="72" width="24" height="24" fill="#6d9450" data-sq="j6" class="board-cell"/><rect x="264" y="72" width="24" height="24" fill="#a8c890" data-sq="k6" class="board-cell"/><rect x="288" y="72" width="24" height="24" fill="#6d9450" data-sq="l6" class="board-cell"/><rect x="24" y="96" width="24" height="24" fill="#6d9450" data-sq="a5" class="board-cell"/><rect x="48" y="96" width="24" height="24" fill="#a8c890" data-sq="b5" class="board-cell"/><rect x="72" y="96" width="24" height="24" fill="#6d9450" data-sq="c5" class="board-cell"/><rect x="96" y="96" width="24" height="24" fill="#a8c890" data-sq="d5" class="board-cell"/><rect x="120" y="96" width="24" height="24" fill="#6d9450" data-sq="e5" class="board-cell"/><rect x="144" y="96" width="24" height="24" fill="#a8c890" data-sq="f5" class="board-cell"/><rect x="168" y="96" width="24" height="24" fill="#6d9450" data-sq="g5" class="board-cell"/><rect x="192" y="96" width="24" height="24" fill="#a8c890" data-sq="h5" class="board-cell"/><rect x="216" y="96" width="24" height="24" fill="#6d9450" data-sq="i5" class="board-cell"/><rect x="240" y="96" width="24" height="24" fill="#a8c890" data-sq="j5" class="board-cell"/><rect x="264" y="96" width="24" height="24" fill="#6d9450" data-sq="k5" class="board-cell"/><rect x="288" y="96" width="24" height="24" fill="#a8c890" data-sq="l5" class="board-cell"/><rect x="24" y="120" width="24" height="24" fill="#a8c890" data-sq="a4" class="board-cell"/><rect x="48" y="120" width="24" height="24" fill="#6d9450" data-sq="b4" class="board-cell"/><rect x="72" y="120" width="24" height="24" fill="#a8c890" data-sq="c4" class="board-cell"/><rect x="96" y="120" width="24" height="24" fill="#6d9450" data-sq="d4" class="board-cell"/><rect x="120" y="120" width="24" height="24" fill="#a8c890" data-sq="e4" class="board-cell"/><rect x="144" y="120" width="24" height="24" fill="#6d9450" data-sq="f4" class="board-cell"/><rect x="168" y="120" width="24" height="24" fill="#a8c890" data-sq="g4" class="board-cell"/><rect x="192" y="120" width="24" height="24" fill="#6d9450" data-sq="h4" class="board-cell"/><rect x="216" y="120" width="24" height="24" fill="#a8c890" data-sq="i4" class="board-cell"/><rect x="240" y="120" width="24" height="24" fill="#6d9450" data-sq="j4" class="board-cell"/><rect x="264" y="120" width="24" height="24" fill="#a8c890" data-sq="k4" class="board-cell"/><rect x="288" y="120" width="24" height="24" fill="#6d9450" data-sq="l4" class="board-cell"/><rect x="24" y="144" width="24" height="24" fill="#6d9450" data-sq="a3" class="board-cell"/><rect x="48" y="144" width="24" height="24" fill="#a8c890" data-sq="b3" class="board-cell"/><rect x="72" y="144" width="24" height="24" fill="#6d9450" data-sq="c3" class="board-cell"/><rect x="96" y="144" width="24" height="24" fill="#a8c890" data-sq="d3" class="board-cell"/><rect x="120" y="144" width="24" height="24" fill="#6d9450" data-sq="e3" class="board-cell"/><rect x="144" y="144" width="24" height="24" fill="#a8c890" data-sq="f3" class="board-cell"/><rect x="168" y="144" width="24" height="24" fill="#6d9450" data-sq="g3" class="board-cell"/><rect x="192" y="144" width="24" height="24" fill="#a8c890" data-sq="h3" class="board-cell"/><rect x="216" y="144" width="24" height="24" fill="#6d9450" data-sq="i3" class="board-cell"/><rect x="240" y="144" width="24" height="24" fill="#a8c890" data-sq="j3" class="board-cell"/><rect x="264" y="144" width="24" height="24" fill="#6d9450" data-sq="k3" class="board-cell"/><rect x="288" y="144" width="24" height="24" fill="#a8c890" data-sq="l3" class="board-cell"/><rect x="24" y="168" width="24" height="24" fill="#a8c890" data-sq="a2" class="board-cell"/><rect x="48" y="168" width="24" height="24" fill="#6d9450" data-sq="b2" class="board-cell"/><rect x="72" y="168" width="24" height="24" fill="#a8c890" data-sq="c2" class="board-cell"/><rect x="96" y="168" width="24" height="24" fill="#6d9450" data-sq="d2" class="board-cell"/><rect x="120" y="168" width="24" height="24" fill="#a8c890" data-sq="e2" class="board-cell"/><rect x="144" y="168" width="24" height="24" fill="#6d9450" data-sq="f2" class="board-cell"/><rect x="168" y="168" width="24" height="24" fill="#a8c890" data-sq="g2" class="board-cell"/><rect x="192" y="168" width="24" height="24" fill="#6d9450" data-sq="h2" class="board-cell"/><rect x="216" y="168" width="24" height="24" fill="#a8c890" data-sq="i2" class="board-cell"/><rect x="240" y="168" width="24" height="24" fill="#6d9450" data-sq="j2" class="board-cell"/><rect x="264" y="168" width="24" height="24" fill="#a8c890" data-sq="k2" class="board-cell"/><rect x="288" y="168" width="24" height="24" fill="#6d9450" data-sq="l2" class="board-cell"/><rect x="24" y="192" width="24" height="24" fill="#6d9450" data-sq="a1" class="board-cell"/><rect x="48" y="192" width="24" height="24" fill="#a8c890" data-sq="b1" class="board-cell"/><rect x="72" y="192" width="24" height="24" fill="#6d9450" data-sq="c1" class="board-cell"/><rect x="96" y="192" width="24" height="24" fill="#a8c890" data-sq="d1" class="board-cell"/><rect x="120" y="192" width="24" height="24" fill="#6d9450" data-sq="e1" class="board-cell"/><rect x="144" y="192" width="24" height="24" fill="#a8c890" data-sq="f1" class="board-cell"/><rect x="168" y="192" width="24" height="24" fill="#6d9450" data-sq="g1" class="board-cell"/><rect x="192" y="192" width="24" height="24" fill="#a8c890" data-sq="h1" class="board-cell"/><rect x="216" y="192" width="24" height="24" fill="#6d9450" data-sq="i1" class="board-cell"/><rect x="240" y="192" width="24" height="24" fill="#a8c890" data-sq="j1" class="board-cell"/><rect x="264" y="192" width="24" height="24" fill="#6d9450" data-sq="k1" class="board-cell"/><rect x="288" y="192" width="24" height="24" fill="#a8c890" data-sq="l1" class="board-cell"/>
<g pointer-events="none"><circle cx="36" cy="36" r="11.040000000000001" fill="#f0f0f0" stroke="#999" stroke-width="2" pointer-events="none"/><use href="#piece-twemoji-ogre" x="28.8" y="28.8" width="14.399999999999999" height="14.399999999999999"/><use href="#piece-wikimedia-standard-Chess_Ult45" x="48" y="24" width="24" height="24"/><use href="#piece-mce-chess-wH" x="72" y="24" width="24" height="24"/><use href="#piece-playstrategy-mono-tower" x="96" y="24" width="24" height="24"/><use href="#piece-mce-chess-wC" x="120" y="24" width="24" height="24"/><use href="#piece-mce-chess-wM" x="144" y="24" width="24" height="24"/><use href="#piece-mce-chess-wK" x="168" y="24" width="24" height="24"/><use href="#piece-mce-chess-wP" x="192" y="24" width="24" height="24"/><use href="#piece-playstrategy-mono-tower" x="216" y="24" width="24" height="24"/><use href="#piece-mce-chess-wH" x="240" y="24" width="24" height="24"/><use href="#piece-wikimedia-standard-Chess_Ult45" x="264" y="24" width="24" height="24"/><circle cx="300" cy="36" r="11.040000000000001" fill="#f0f0f0" stroke="#999" stroke-width="2" pointer-events="none"/><use href="#piece-twemoji-ogre" x="292.8" y="28.8" width="14.399999999999999" height="14.399999999999999"/><use href="#piece-mce-chess-wW" x="24" y="48" width="24" height="24"/><use href="#piece-mce-chess-wW" x="48" y="48" width="24" height="24"/><use href="#piece-mce-chess-wW" x="72" y="48" width="24" height="24"/><use href="#piece-mce-chess-wW" x="96" y="48" width="24" height="24"/><use href="#piece-mce-chess-wW" x="120" y="48" width="24" height="24"/><use href="#piece-mce-chess-wW" x="144" y="48" width="24" height="24"/><use href="#piece-mce-chess-wW" x="168" y="48" width="24" height="24"/><use href="#piece-mce-chess-wW" x="192" y="48" width="24" height="24"/><use href="#piece-mce-chess-wW" x="216" y="48" width="24" height="24"/><use href="#piece-mce-chess-wW" x="240" y="48" width="24" height="24"/><use href="#piece-mce-chess-wW" x="264" y="48" width="24" height="24"/><use href="#piece-mce-chess-wW" x="288" y="48" width="24" height="24"/><use href="#piece-mce-chess-bW" x="24" y="168" width="24" height="24"/><use href="#piece-mce-chess-bW" x="48" y="168" width="24" height="24"/><use href="#piece-mce-chess-bW" x="72" y="168" width="24" height="24"/><use href="#piece-mce-chess-bW" x="96" y="168" width="24" height="24"/><use href="#piece-mce-chess-bW" x="120" y="168" width="24" height="24"/><use href="#piece-mce-chess-bW" x="144" y="168" width="24" height="24"/><use href="#piece-mce-chess-bW" x="168" y="168" width="24" height="24"/><use href="#piece-mce-chess-bW" x="192" y="168" width="24" height="24"/><use href="#piece-mce-chess-bW" x="216" y="168" width="24" height="24"/><use href="#piece-mce-chess-bW" x="240" y="168" width="24" height="24"/><use href="#piece-mce-chess-bW" x="264" y="168" width="24" height="24"/><use href="#piece-mce-chess-bW" x="288" y="168" width="24" height="24"/><circle cx="36" cy="204" r="11.040000000000001" fill="#2a2a2a" stroke="#555" stroke-width="2" pointer-events="none"/><use href="#piece-twemoji-ogre" x="28.8" y="196.8" width="14.399999999999999" height="14.399999999999999"/><use href="#piece-wikimedia-standard-Chess_Udt45" x="48" y="192" width="24" height="24"/><use href="#piece-mce-chess-bH" x="72" y="192" width="24" height="24"/><use href="#piece-playstrategy-mono-tower" x="96" y="192" width="24" height="24"/><use href="#piece-mce-chess-bC" x="120" y="192" width="24" height="24"/><use href="#piece-mce-chess-bM" x="144" y="192" width="24" height="24"/><use href="#piece-mce-chess-bK" x="168" y="192" width="24" height="24"/><use href="#piece-mce-chess-bP" x="192" y="192" width="24" height="24"/><use href="#piece-playstrategy-mono-tower" x="216" y="192" width="24" height="24"/><use href="#piece-mce-chess-bH" x="240" y="192" width="24" height="24"/><use href="#piece-wikimedia-standard-Chess_Udt45" x="264" y="192" width="24" height="24"/><circle cx="300" cy="204" r="11.040000000000001" fill="#2a2a2a" stroke="#555" stroke-width="2" pointer-events="none"/><use href="#piece-twemoji-ogre" x="292.8" y="196.8" width="14.399999999999999" height="14.399999999999999"/></g>
<text x="36" y="231.6" text-anchor="middle" font-size="13" fill="#5c3a1e" font-family="monospace">a</text><text x="60" y="231.6" text-anchor="middle" font-size="13" fill="#5c3a1e" font-family="monospace">b</text><text x="84" y="231.6" text-anchor="middle" font-size="13" fill="#5c3a1e" font-family="monospace">c</text><text x="108" y="231.6" text-anchor="middle" font-size="13" fill="#5c3a1e" font-family="monospace">d</text><text x="132" y="231.6" text-anchor="middle" font-size="13" fill="#5c3a1e" font-family="monospace">e</text><text x="156" y="231.6" text-anchor="middle" font-size="13" fill="#5c3a1e" font-family="monospace">f</text><text x="180" y="231.6" text-anchor="middle" font-size="13" fill="#5c3a1e" font-family="monospace">g</text><text x="204" y="231.6" text-anchor="middle" font-size="13" fill="#5c3a1e" font-family="monospace">h</text><text x="228" y="231.6" text-anchor="middle" font-size="13" fill="#5c3a1e" font-family="monospace">i</text><text x="252" y="231.6" text-anchor="middle" font-size="13" fill="#5c3a1e" font-family="monospace">j</text><text x="276" y="231.6" text-anchor="middle" font-size="13" fill="#5c3a1e" font-family="monospace">k</text><text x="300" y="231.6" text-anchor="middle" font-size="13" fill="#5c3a1e" font-family="monospace">l</text><text x="12" y="40.55" text-anchor="middle" font-size="13" fill="#5c3a1e" font-family="monospace">8</text><text x="12" y="64.55" text-anchor="middle" font-size="13" fill="#5c3a1e" font-family="monospace">7</text><text x="12" y="88.55" text-anchor="middle" font-size="13" fill="#5c3a1e" font-family="monospace">6</text><text x="12" y="112.55" text-anchor="middle" font-size="13" fill="#5c3a1e" font-family="monospace">5</text><text x="12" y="136.55" text-anchor="middle" font-size="13" fill="#5c3a1e" font-family="monospace">4</text><text x="12" y="160.55" text-anchor="middle" font-size="13" fill="#5c3a1e" font-family="monospace">3</text><text x="12" y="184.55" text-anchor="middle" font-size="13" fill="#5c3a1e" font-family="monospace">2</text><text x="12" y="208.55" text-anchor="middle" font-size="13" fill="#5c3a1e" font-family="monospace">1</text>

</g>
<text x="172" y="540" text-anchor="middle" font-size="11" fill="#333" font-family="system-ui">Air</text>
<g transform="translate(4,544)" data-layer="2">


<rect x="24" y="24" width="24" height="24" fill="#d4a080" data-sq="a8" class="board-cell"/><rect x="48" y="24" width="24" height="24" fill="#a06848" data-sq="b8" class="board-cell"/><rect x="72" y="24" width="24" height="24" fill="#d4a080" data-sq="c8" class="board-cell"/><rect x="96" y="24" width="24" height="24" fill="#a06848" data-sq="d8" class="board-cell"/><rect x="120" y="24" width="24" height="24" fill="#d4a080" data-sq="e8" class="board-cell"/><rect x="144" y="24" width="24" height="24" fill="#a06848" data-sq="f8" class="board-cell"/><rect x="168" y="24" width="24" height="24" fill="#d4a080" data-sq="g8" class="board-cell"/><rect x="192" y="24" width="24" height="24" fill="#a06848" data-sq="h8" class="board-cell"/><rect x="216" y="24" width="24" height="24" fill="#d4a080" data-sq="i8" class="board-cell"/><rect x="240" y="24" width="24" height="24" fill="#a06848" data-sq="j8" class="board-cell"/><rect x="264" y="24" width="24" height="24" fill="#d4a080" data-sq="k8" class="board-cell"/><rect x="288" y="24" width="24" height="24" fill="#a06848" data-sq="l8" class="board-cell"/><rect x="24" y="48" width="24" height="24" fill="#a06848" data-sq="a7" class="board-cell"/><rect x="48" y="48" width="24" height="24" fill="#d4a080" data-sq="b7" class="board-cell"/><rect x="72" y="48" width="24" height="24" fill="#a06848" data-sq="c7" class="board-cell"/><rect x="96" y="48" width="24" height="24" fill="#d4a080" data-sq="d7" class="board-cell"/><rect x="120" y="48" width="24" height="24" fill="#a06848" data-sq="e7" class="board-cell"/><rect x="144" y="48" width="24" height="24" fill="#d4a080" data-sq="f7" class="board-cell"/><rect x="168" y="48" width="24" height="24" fill="#a06848" data-sq="g7" class="board-cell"/><rect x="192" y="48" width="24" height="24" fill="#d4a080" data-sq="h7" class="board-cell"/><rect x="216" y="48" width="24" height="24" fill="#a06848" data-sq="i7" class="board-cell"/><rect x="240" y="48" width="24" height="24" fill="#d4a080" data-sq="j7" class="board-cell"/><rect x="264" y="48" width="24" height="24" fill="#a06848" data-sq="k7" class="board-cell"/><rect x="288" y="48" width="24" height="24" fill="#d4a080" data-sq="l7" class="board-cell"/><rect x="24" y="72" width="24" height="24" fill="#d4a080" data-sq="a6" class="board-cell"/><rect x="48" y="72" width="24" height="24" fill="#a06848" data-sq="b6" class="board-cell"/><rect x="72" y="72" width="24" height="24" fill="#d4a080" data-sq="c6" class="board-cell"/><rect x="96" y="72" width="24" height="24" fill="#a06848" data-sq="d6" class="board-cell"/><rect x="120" y="72" width="24" height="24" fill="#d4a080" data-sq="e6" class="board-cell"/><rect x="144" y="72" width="24" height="24" fill="#a06848" data-sq="f6" class="board-cell"/><rect x="168" y="72" width="24" height="24" fill="#d4a080" data-sq="g6" class="board-cell"/><rect x="192" y="72" width="24" height="24" fill="#a06848" data-sq="h6" class="board-cell"/><rect x="216" y="72" width="24" height="24" fill="#d4a080" data-sq="i6" class="board-cell"/><rect x="240" y="72" width="24" height="24" fill="#a06848" data-sq="j6" class="board-cell"/><rect x="264" y="72" width="24" height="24" fill="#d4a080" data-sq="k6" class="board-cell"/><rect x="288" y="72" width="24" height="24" fill="#a06848" data-sq="l6" class="board-cell"/><rect x="24" y="96" width="24" height="24" fill="#a06848" data-sq="a5" class="board-cell"/><rect x="48" y="96" width="24" height="24" fill="#d4a080" data-sq="b5" class="board-cell"/><rect x="72" y="96" width="24" height="24" fill="#a06848" data-sq="c5" class="board-cell"/><rect x="96" y="96" width="24" height="24" fill="#d4a080" data-sq="d5" class="board-cell"/><rect x="120" y="96" width="24" height="24" fill="#a06848" data-sq="e5" class="board-cell"/><rect x="144" y="96" width="24" height="24" fill="#d4a080" data-sq="f5" class="board-cell"/><rect x="168" y="96" width="24" height="24" fill="#a06848" data-sq="g5" class="board-cell"/><rect x="192" y="96" width="24" height="24" fill="#d4a080" data-sq="h5" class="board-cell"/><rect x="216" y="96" width="24" height="24" fill="#a06848" data-sq="i5" class="board-cell"/><rect x="240" y="96" width="24" height="24" fill="#d4a080" data-sq="j5" class="board-cell"/><rect x="264" y="96" width="24" height="24" fill="#a06848" data-sq="k5" class="board-cell"/><rect x="288" y="96" width="24" height="24" fill="#d4a080" data-sq="l5" class="board-cell"/><rect x="24" y="120" width="24" height="24" fill="#d4a080" data-sq="a4" class="board-cell"/><rect x="48" y="120" width="24" height="24" fill="#a06848" data-sq="b4" class="board-cell"/><rect x="72" y="120" width="24" height="24" fill="#d4a080" data-sq="c4" class="board-cell"/><rect x="96" y="120" width="24" height="24" fill="#a06848" data-sq="d4" class="board-cell"/><rect x="120" y="120" width="24" height="24" fill="#d4a080" data-sq="e4" class="board-cell"/><rect x="144" y="120" width="24" height="24" fill="#a06848" data-sq="f4" class="board-cell"/><rect x="168" y="120" width="24" height="24" fill="#d4a080" data-sq="g4" class="board-cell"/><rect x="192" y="120" width="24" height="24" fill="#a06848" data-sq="h4" class="board-cell"/><rect x="216" y="120" width="24" height="24" fill="#d4a080" data-sq="i4" class="board-cell"/><rect x="240" y="120" width="24" height="24" fill="#a06848" data-sq="j4" class="board-cell"/><rect x="264" y="120" width="24" height="24" fill="#d4a080" data-sq="k4" class="board-cell"/><rect x="288" y="120" width="24" height="24" fill="#a06848" data-sq="l4" class="board-cell"/><rect x="24" y="144" width="24" height="24" fill="#a06848" data-sq="a3" class="board-cell"/><rect x="48" y="144" width="24" height="24" fill="#d4a080" data-sq="b3" class="board-cell"/><rect x="72" y="144" width="24" height="24" fill="#a06848" data-sq="c3" class="board-cell"/><rect x="96" y="144" width="24" height="24" fill="#d4a080" data-sq="d3" class="board-cell"/><rect x="120" y="144" width="24" height="24" fill="#a06848" data-sq="e3" class="board-cell"/><rect x="144" y="144" width="24" height="24" fill="#d4a080" data-sq="f3" class="board-cell"/><rect x="168" y="144" width="24" height="24" fill="#a06848" data-sq="g3" class="board-cell"/><rect x="192" y="144" width="24" height="24" fill="#d4a080" data-sq="h3" class="board-cell"/><rect x="216" y="144" width="24" height="24" fill="#a06848" data-sq="i3" class="board-cell"/><rect x="240" y="144" width="24" height="24" fill="#d4a080" data-sq="j3" class="board-cell"/><rect x="264" y="144" width="24" height="24" fill="#a06848" data-sq="k3" class="board-cell"/><rect x="288" y="144" width="24" height="24" fill="#d4a080" data-sq="l3" class="board-cell"/><rect x="24" y="168" width="24" height="24" fill="#d4a080" data-sq="a2" class="board-cell"/><rect x="48" y="168" width="24" height="24" fill="#a06848" data-sq="b2" class="board-cell"/><rect x="72" y="168" width="24" height="24" fill="#d4a080" data-sq="c2" class="board-cell"/><rect x="96" y="168" width="24" height="24" fill="#a06848" data-sq="d2" class="board-cell"/><rect x="120" y="168" width="24" height="24" fill="#d4a080" data-sq="e2" class="board-cell"/><rect x="144" y="168" width="24" height="24" fill="#a06848" data-sq="f2" class="board-cell"/><rect x="168" y="168" width="24" height="24" fill="#d4a080" data-sq="g2" class="board-cell"/><rect x="192" y="168" width="24" height="24" fill="#a06848" data-sq="h2" class="board-cell"/><rect x="216" y="168" width="24" height="24" fill="#d4a080" data-sq="i2" class="board-cell"/><rect x="240" y="168" width="24" height="24" fill="#a06848" data-sq="j2" class="board-cell"/><rect x="264" y="168" width="24" height="24" fill="#d4a080" data-sq="k2" class="board-cell"/><rect x="288" y="168" width="24" height="24" fill="#a06848" data-sq="l2" class="board-cell"/><rect x="24" y="192" width="24" height="24" fill="#a06848" data-sq="a1" class="board-cell"/><rect x="48" y="192" width="24" height="24" fill="#d4a080" data-sq="b1" class="board-cell"/><rect x="72" y="192" width="24" height="24" fill="#a06848" data-sq="c1" class="board-cell"/><rect x="96" y="192" width="24" height="24" fill="#d4a080" data-sq="d1" class="board-cell"/><rect x="120" y="192" width="24" height="24" fill="#a06848" data-sq="e1" class="board-cell"/><rect x="144" y="192" width="24" height="24" fill="#d4a080" data-sq="f1" class="board-cell"/><rect x="168" y="192" width="24" height="24" fill="#a06848" data-sq="g1" class="board-cell"/><rect x="192" y="192" width="24" height="24" fill="#d4a080" data-sq="h1" class="board-cell"/><rect x="216" y="192" width="24" height="24" fill="#a06848" data-sq="i1" class="board-cell"/><rect x="240" y="192" width="24" height="24" fill="#d4a080" data-sq="j1" class="board-cell"/><rect x="264" y="192" width="24" height="24" fill="#a06848" data-sq="k1" class="board-cell"/><rect x="288" y="192" width="24" height="24" fill="#d4a080" data-sq="l1" class="board-cell"/>
<g pointer-events="none"><use href="#piece-mce-chess-wB" x="72" y="24" width="24" height="24"/><use href="#piece-mce-chess-wE" x="168" y="24" width="24" height="24"/><use href="#piece-mce-chess-wB" x="264" y="24" width="24" height="24"/><use href="#piece-wikimedia-fairy-White_dabbaba" x="48" y="48" width="24" height="24"/><use href="#piece-wikimedia-fairy-White_dabbaba" x="96" y="48" width="24" height="24"/><use href="#piece-wikimedia-fairy-White_dabbaba" x="144" y="48" width="24" height="24"/><use href="#piece-wikimedia-fairy-White_dabbaba" x="192" y="48" width="24" height="24"/><use href="#piece-wikimedia-fairy-White_dabbaba" x="240" y="48" width="24" height="24"/><use href="#piece-wikimedia-fairy-White_dabbaba" x="288" y="48" width="24" height="24"/><use href="#piece-wikimedia-fairy-Black_dabbaba" x="48" y="168" width="24" height="24"/><use href="#piece-wikimedia-fairy-Black_dabbaba" x="96" y="168" width="24" height="24"/><use href="#piece-wikimedia-fairy-Black_dabbaba" x="144" y="168" width="24" height="24"/><use href="#piece-wikimedia-fairy-Black_dabbaba" x="192" y="168" width="24" height="24"/><use href="#piece-wikimedia-fairy-Black_dabbaba" x="240" y="168" width="24" height="24"/><use href="#piece-wikimedia-fairy-Black_dabbaba" x="288" y="168" width="24" height="24"/><use href="#piece-mce-chess-bB" x="72" y="192" width="24" height="24"/><use href="#piece-mce-chess-bE" x="168" y="192" width="24" height="24"/><use href="#piece-mce-chess-bB" x="264" y="192" width="24" height="24"/></g>
<text x="36" y="231.6" text-anchor="middle" font-size="13" fill="#5c3a1e" font-family="monospace">a</text><text x="60" y="231.6" text-anchor="middle" font-size="13" fill="#5c3a1e" font-family="monospace">b</text><text x="84" y="231.6" text-anchor="middle" font-size="13" fill="#5c3a1e" font-family="monospace">c</text><text x="108" y="231.6" text-anchor="middle" font-size="13" fill="#5c3a1e" font-family="monospace">d</text><text x="132" y="231.6" text-anchor="middle" font-size="13" fill="#5c3a1e" font-family="monospace">e</text><text x="156" y="231.6" text-anchor="middle" font-size="13" fill="#5c3a1e" font-family="monospace">f</text><text x="180" y="231.6" text-anchor="middle" font-size="13" fill="#5c3a1e" font-family="monospace">g</text><text x="204" y="231.6" text-anchor="middle" font-size="13" fill="#5c3a1e" font-family="monospace">h</text><text x="228" y="231.6" text-anchor="middle" font-size="13" fill="#5c3a1e" font-family="monospace">i</text><text x="252" y="231.6" text-anchor="middle" font-size="13" fill="#5c3a1e" font-family="monospace">j</text><text x="276" y="231.6" text-anchor="middle" font-size="13" fill="#5c3a1e" font-family="monospace">k</text><text x="300" y="231.6" text-anchor="middle" font-size="13" fill="#5c3a1e" font-family="monospace">l</text><text x="12" y="40.55" text-anchor="middle" font-size="13" fill="#5c3a1e" font-family="monospace">8</text><text x="12" y="64.55" text-anchor="middle" font-size="13" fill="#5c3a1e" font-family="monospace">7</text><text x="12" y="88.55" text-anchor="middle" font-size="13" fill="#5c3a1e" font-family="monospace">6</text><text x="12" y="112.55" text-anchor="middle" font-size="13" fill="#5c3a1e" font-family="monospace">5</text><text x="12" y="136.55" text-anchor="middle" font-size="13" fill="#5c3a1e" font-family="monospace">4</text><text x="12" y="160.55" text-anchor="middle" font-size="13" fill="#5c3a1e" font-family="monospace">3</text><text x="12" y="184.55" text-anchor="middle" font-size="13" fill="#5c3a1e" font-family="monospace">2</text><text x="12" y="208.55" text-anchor="middle" font-size="13" fill="#5c3a1e" font-family="monospace">1</text>

</g>
</svg>