<svg xmlns="http://www.w3.org/2000/svg" viewBox="0 0 198 198" width="198" height="198">
<defs>
<symbol id="piece-mce-chess-bP" viewBox="0 0 45 45"><path d="M 22,9 C 19.79,9 18,10.79 18,13 C 18,13.89 18.29,14.71 18.78,15.38 C 16.83,16.5 15.5,18.59 15.5,21 C 15.5,23.03 16.44,24.84 17.91,26.03 C 14.91,27.09 10.5,31.58 10.5,39.5 L 33.5,39.5 C 33.5,31.58 29.09,27.09 26.09,26.03 C 27.56,24.84 28.5,23.03 28.5,21 C 28.5,18.59 27.17,16.5 25.22,15.38 C 25.71,14.71 26,13.89 26,13 C 26,10.79 24.21,9 22,9 z" style="fill:#000;stroke:#000;stroke-width:1.5;stroke-linecap:round"/></symbol>
<symbol id="piece-mce-chess-wP" viewBox="0 0 45 45"><path d="M 22,9 C 19.79,9 18,10.79 18,13 C 18,13.89 18.29,14.71 18.78,15.38 C 16.83,16.5 15.5,18.59 15.5,21 C 15.5,23.03 16.44,24.84 17.91,26.03 C 14.91,27.09 10.5,31.58 10.5,39.5 L 33.5,39.5 C 33.5,31.58 29.09,27.09 26.09,26.03 C 27.56,24.84 28.5,23.03 28.5,21 C 28.5,18.59 27.17,16.5 25.22,15.38 C 25.71,14.71 26,13.89 26,13 C 26,10.79 24.21,9 22,9 z" style="fill:#fff;stroke:#000;stroke-width:1.5;stroke-linecap:round"/></symbol>
</defs>

<rect x="24" y="24" width="50" height="50" fill="#f0d9b5" data-sq="a3" class="board-cell"/><rect x="74" y="24" width="50" height="50" fill="#b58863" data-sq="b3" class="board-cell"/><rect x="124" y="24" width="50" height="50" fill="#f0d9b5" data-sq="c3" class="board-cell"/><rect x="24" y="74" width="50" height="50" fill="#b58863" data-sq="a2" class="board-cell"/><rect x="74" y="74" width="50" height="50" fill="#f0d9b5" data-sq="b2" class="board-cell"/><rect x="124" y="74" width="50" height="50" fill="#b58863" data-sq="c2" class="board-cell"/><rect x="24" y="124" width="50" height="50" fill="#f0d9b5" data-sq="a1" class="board-cell"/><rect x="74" y="124" width="50" height="50" fill="#b58863" data-sq="b1" class="board-cell"/><rect x="124" y="124" width="50" height="50" fill="#f0d9b5" data-sq="c1" class="board-cell"/>
<g pointer-events="none"><use href="#piece-mce-chess-bP" x="24" y="24" width="50" height="50"/><use href="#piece-mce-chess-bP" x="74" y="24" width="50" height="50"/><use href="#piece-mce-chess-bP" x="124" y="24" width="50" height="50"/><use href="#piece-mce-chess-wP" x="24" y="124" width="50" height="50"/><use href="#piece-mce-chess-wP" x="74" y="124" width="50" height="50"/><use href="#piece-mce-chess-wP" x="124" y="124" width="50" height="50"/></g>
<text x="49" y="189.6" text-anchor="middle" font-size="13" fill="#5c3a1e" font-family="monospace">a</text><text x="99" y="189.6" text-anchor="middle" font-size="13" fill="#5c3a1e" font-family="monospace">b</text><text x="149" y="189.6" text-anchor="middle" font-size="13" fill="#5c3a1e" font-family="monospace">c</text><text x="12" y="53.55" text-anchor="middle" font-size="13" fill="#5c3a1e" font-family="monospace">3</text><text x="12" y="103.55" text-anchor="middle" font-size="13" fill="#5c3a1e" font-family="monospace">2</text><text x="12" y="153.55" text-anchor="middle" font-size="13" fill="#5c3a1e" font-family="monospace">1</text>
</svg>