<svg xmlns="http://www.w3.org/2000/svg" viewBox="0 0 412 328" width="412" height="328">
<defs>
<symbol id="piece-mce-chess-bR" viewBox="0 0 45 45"><g style="fill:#000;stroke:#000;stroke-width:1.5;stroke-linecap:round;stroke-linejoin:round"><path d="M 9,39 L 36,39 L 36,36 L 9,36 L 9,39 z"/><path d="M 12,36 L 12,32 L 33,32 L 33,36 L 12,36 z"/><path d="M 11,14 L 11,9 L 15,9 L 15,11 L 20,11 L 20,9 L 25,9 L 25,11 L 30,11 L 30,9 L 34,9 L 34,14"/><path d="M 34,14 L 31,17 L 14,17 L 11,14"/><path d="M 31,17 L 31,29.5 L 14,29.5 L 14,17"/><path d="M 31,29.5 L 32.5,32 L 12.5,32 L 14,29.5"/><path d="M 11,14 L 34,14" style="fill:none;stroke:#fff;stroke-linejoin:miter"/><path d="M 12,35.5 L 33,35.5" style="fill:none;stroke:#fff;stroke-width:1"/><path d="M 13,31.5 L 32,31.5" style="fill:none;stroke:#fff;stroke-width:1"/><path d="M 14,29.5 L 31,29.5" style="fill:none;stroke:#fff;stroke-width:1"/></g></symbol>
<symbol id="piece-mce-chess-bN" viewBox="0 0 45 45"><g style="fill:none;stroke:#000;stroke-width:1.5;stroke-linecap:round;stroke-linejoin:round"><path d="M 22,10 C 32.5,11 38.5,18 38,39 L 15,39 C 15,30 25,32.5 23,18" style="fill:#000"/><path d="M 24,18 C 24.38,20.91 18.45,25.37 16,27 C 13,29 13.18,31.34 11,31 C 9.958,30.06 12.41,27.96 11,28 C 10,28 11.19,29.23 10,30 C 9,30 5.997,31 6,26 C 6,24 12,14 12,14 C 12,14 13.89,12.1 14,10.5 C 13.27,9.506 13.5,8.5 13.5,7.5 C 14.5,6.5 16.5,10 16.5,10 L 18.5,10 C 18.5,10 19.28,8.008 21,7 C 22,7 22,10 22,10" style="fill:#000"/><path d="M 9.5,25.5 A 0.5,0.5 0 1 1 8.5,25.5 A 0.5,0.5 0 1 1 9.5,25.5 z" style="fill:#fff"/><path d="M 15,15.5 A 0.5,1.5 0 1 1 14,15.5 A 0.5,1.5 0 1 1 15,15.5 z" transform="matrix(0.866,0.5,-0.5,0.866,9.693,-5.173)" style="fill:#fff"/><path d="M 24.55,10.4 L 24.1,11.85 L 24.6,12 C 27.75,13 30.25,14.49 32.5,18.75 C 34.75,23.01 35.75,29.06 35.25,39 L 35.2,39.5 L 37.45,39.5 L 37.5,39 C 38,28.94 36.62,22.15 34.25,17.66 C 31.88,13.17 28.46,11.02 25.06,10.5 L 24.55,10.4 z" style="fill:#fff;stroke:none"/></g></symbol>
<symbol id="piece-playstrategy-mono-tower" viewBox="0 0 12.699667 12.699667"><defs>
    <linearGradient
       id="0"
       x1="21.375999"
       x2="77.639999"
       gradientUnits="userSpaceOnUse">
      <stop
         stop-color="#fff"
         id="stop1711" />
      <stop
         offset="1"
         stop-color="#fff"
         stop-opacity="0"
         id="stop1713" />
    </linearGradient>
  </defs>
  <g
     id="g2346"
     transform="matrix(0.21561852,0,0,0.21561852,-9.2382782,1.0446959)"
     style="fill:#888888;fill-opacity:1;stroke-width:1.96329;stroke-miterlimit:4;stroke-dasharray:none;stroke:#888888;stroke-opacity:1">
    <path
       style="fill:#888888;fill-opacity:1;stroke:#888888;stroke-width:1.96329;stroke-linecap:butt;stroke-linejoin:round;stroke-miterlimit:4;stroke-dasharray:none;stroke-opacity:1"
       d="M 77.01174,6.6646411 H 57.922216 V 43.633418 H 87.464014 C 84.800606,33.069099 80.963403,19.989506 77.01174,6.6646411 Z"
       id="path1728" />
    <circle
       style="fill:#888888;fill-opacity:1;stroke:#888888;stroke-width:1.96329;stroke-miterlimit:4;stroke-dasharray:none;stroke-opacity:1"
       id="circle2293"
       cx="85.307617"
       cy="41.959423"
       r="4.2410712" />
    <path
       style="fill:#888888;fill-opacity:1;stroke:#888888;stroke-width:1.96329;stroke-linecap:butt;stroke-linejoin:miter;stroke-miterlimit:4;stroke-dasharray:none;stroke-opacity:1"
       d="M 77.01174,6.6646411 V 43.898808"
       id="path2295" />
    <path
       style="fill:#888888;fill-opacity:1;stroke:#888888;stroke-width:1.96329;stroke-linecap:butt;stroke-linejoin:miter;stroke-miterlimit:4;stroke-dasharray:none;stroke-opacity:1"
       d="M 58.21581,25.298871 H 82.676576"
       id="path2297" />
    <path
       style="fill:#888888;fill-opacity:1;stroke:#888888;stroke-width:1.96329;stroke-linecap:butt;stroke-linejoin:miter;stroke-miterlimit:4;stroke-dasharray:none;stroke-opacity:1"
       d="M 57.922214,43.633419 77.02705,25.654604"
       id="path2299" />
    <circle
       style="fill:#888888;fill-opacity:1;stroke:#888888;stroke-width:1.96329;stroke-miterlimit:4;stroke-dasharray:none;stroke-opacity:1"
       id="path2291"
       cx="59.282112"
       cy="41.959423"
       r="4.2410712" />
    <path
       style="fill:#888888;fill-opacity:1;stroke:#888888;stroke-width:1.96329;stroke-linecap:butt;stroke-linejoin:miter;stroke-miterlimit:4;stroke-dasharray:none;stroke-opacity:1"
       d="M 57.922214,6.6837255 77.02705,25.654604"
       id="path2303" />
  </g></symbol>
<symbol id="piece-wikimedia-standard-Chess_Zdt45" viewBox="0 0 45 45"><g transform="translate(.482 -.5)"><path d="M22 10c10.5 1 16.5 8 16 29H15c0-9 10-6.5 8-21" style="fill:#2b2b3c;fill-opacity:1;fill-rule:evenodd;stroke:#303042;stroke-width:1px;stroke-linecap:round;stroke-linejoin:miter;stroke-opacity:1"/><path d="M24 18c.384 2.911-5.553 7.369-8 9-3 2-2.82 4.343-5 4-1.042-.944 1.413-3.038 0-3-1 0 .187 1.232-1 2-1 0-4.003 1-4-4 0-2 6-12 6-12s1.886-1.902 2-3.5c-.726-.994-.5-2-.5-3 1-1 3 2.5 3 2.5h2s.782-1.992 2.5-3c1 0 1 3 1 3" style="fill:#2b2b3c;fill-opacity:1;fill-rule:evenodd;stroke:#303042;stroke-width:1px;stroke-linecap:round;stroke-linejoin:round;stroke-opacity:1"/><circle r=".5" cy="23.5" cx="8.5" transform="translate(.5 2)" style="opacity:1;fill:#2b2b3c;fill-opacity:1;stroke:#fff;stroke-width:1;stroke-linecap:round;stroke-linejoin:round;stroke-miterlimit:4;stroke-dasharray:none;stroke-opacity:1"/><ellipse ry="1.5" rx=".5" cy="15.5" cx="14.5" transform="rotate(30 14.5 15.5)" style="opacity:1;fill:#2b2b3c;fill-opacity:1;stroke:#fff;stroke-width:1;stroke-linecap:round;stroke-linejoin:round;stroke-miterlimit:4;stroke-dasharray:none;stroke-opacity:1"/><path d="m24.55 10.4-.3 1.1.55.1c3.101.477 6.324 2.234 8.575 6.494S36.297 29.057 35.8 39l-.05.5h1.75V39c.503-10.057-.876-16.853-3.25-21.344s-5.789-6.633-9.187-7.156Z" style="fill:#fff;fill-opacity:1;fill-rule:evenodd;stroke:none;stroke-width:1;stroke-linecap:square;stroke-linejoin:miter;stroke-miterlimit:4;stroke-dasharray:none;stroke-opacity:1"/><path d="M14.568 38.46c.136-1.796.559-3.153 1.384-4.445.233-.364 1.313-1.579 2.399-2.699 1.994-2.056 2.893-3.226 3.454-4.494.447-1.01.8-2.508.89-3.78l.08-1.113-1.109 1.075c-1.509 1.463-2.577 2.35-4.42 3.673-1.7 1.22-2.545 2.007-3.666 3.418-.775.976-1.422 1.388-2.187 1.393-.575.004-.855-.176-1.012-.652l-.134-.407-1.032.041c-1.253.051-1.836-.109-2.462-.675-.62-.559-.992-1.445-1.135-2.698-.14-1.225-.027-1.826.634-3.372 1.153-2.698 4.86-9.36 5.972-10.734.361-.447.803-1.12.981-1.496.321-.679.322-.688.107-1.25-.12-.312-.247-1.077-.283-1.701-.065-1.124-.062-1.137.28-1.406.19-.15.502-.272.693-.272.5 0 1.32.673 2.101 1.724l.67.901h1.467l.27-.531c.15-.292.679-.94 1.177-1.438.781-.782.965-.906 1.346-.906.335 0 .515.089.753.371.304.363.582 1.3.586 1.979.003.508.127.617.81.713 6.883.968 11.353 4.977 13.519 12.125 1.123 3.707 1.627 7.688 1.755 13.843l.08 3.844h-1.001l.06-3.127c.125-6.497-.568-11.664-2.148-16.031-1.71-4.723-4.734-8.075-8.449-9.365-.532-.184-2.215-.602-2.429-.602-.083 0-.329 1.016-.268 1.113.036.06.33.148.653.196 2.436.366 5.129 1.936 6.703 3.91 3.062 3.836 4.213 8.694 4.212 17.781 0 2.028-.036 4.236-.08 4.906l-.081 1.22H14.489zm-4.88-12.276c.62-.62.181-1.693-.693-1.693-.514 0-1 .486-1 1s.486 1 1 1c.244 0 .5-.113.694-.307m4.663-9.016c.72-.43 1.52-1.843 1.52-2.688 0-.482-.46-.9-.874-.799-.471.116-1.091.779-1.507 1.61-.434.87-.474 1.47-.12 1.825.302.302.541.315.981.052" style="fill:#000"/><path d="M20 38c5-5 11.375-5.625 16.375-6.625l.125.75c-5 1-10.75 1.875-14.75 5.875Z" style="fill:#fff;fill-opacity:1;stroke:#fff;stroke-width:1px;stroke-linecap:butt;stroke-linejoin:miter;stroke-opacity:1"/><path d="M36.25 28.5c-5.547.614-12.711 1.06-18.25 5.25 2.125-2.625 2.823-2.542 3.625-3.875 4-1 9.188-2.068 14.375-2.875z" style="fill:#fff;fill-opacity:1;stroke:#fff;stroke-width:1px;stroke-linecap:butt;stroke-linejoin:miter;stroke-opacity:1"/><path d="M23.75 25.75c6.01-.943 8.145-1.984 11.25-2.75v-1c-3.366.835-6.665 2.155-11 2.5z" style="fill:#fff;fill-opacity:1;stroke:#fff;stroke-width:1px;stroke-linecap:butt;stroke-linejoin:miter;stroke-opacity:1"/><path d="M36.5 35.625c-3.847.338-5.611.87-7.875 2.375l3.125-.125c2.229-1.604 3.357-1.372 4.625-1.375z" style="fill:#fff;fill-opacity:1;stroke:#fff;stroke-width:1px;stroke-linecap:butt;stroke-linejoin:miter;stroke-opacity:1"/><path d="M33.125 17.75c-1.651 1.498-5.12 2.268-8.375 3.125l.125-.75c2.192-.758 2.842.157 7.5-3.375z" style="fill:#fff;fill-opacity:1;stroke:#fff;stroke-width:1px;stroke-linecap:butt;stroke-linejoin:miter;stroke-opacity:1"/><path d="m25.125 11.25-1.75 2.25.375-2.625z" style="fill:#fff;fill-opacity:1;stroke:#fff;stroke-width:1px;stroke-linecap:butt;stroke-linejoin:miter;stroke-opacity:1"/><path d="M30 13.375c-2.648 2.504-2.72 2.48-5.25 3.375 1.858-1.621 2.685-2.344 3.875-4.75z" style="fill:#fff;fill-opacity:1;stroke:#fff;stroke-width:1px;stroke-linecap:butt;stroke-linejoin:miter;stroke-opacity:1"/></g></symbol>
<symbol id="piece-mce-chess-bF" viewBox="0 0 45 45"><g transform="translate(8,8) scale(0.65)"><path d="M 22,9 C 19.79,9 18,10.79 18,13 C 18,13.89 18.29,14.71 18.78,15.38 C 16.83,16.5 15.5,18.59 15.5,21 C 15.5,23.03 16.44,24.84 17.91,26.03 C 14.91,27.09 10.5,31.58 10.5,39.5 L 33.5,39.5 C 33.5,31.58 29.09,27.09 26.09,26.03 C 27.56,24.84 28.5,23.03 28.5,21 C 28.5,18.59 27.17,16.5 25.22,15.38 C 25.71,14.71 26,13.89 26,13 C 26,10.79 24.21,9 22,9 z" style="fill:#000;stroke:#000;stroke-width:1.5;stroke-linecap:round"/></g><polygon points="2,2 2,9 9,2" style="fill:#fff;stroke:#000;stroke-width:0.5"/><polygon points="43,2 43,9 36,2" style="fill:#fff;stroke:#000;stroke-width:0.5"/><polygon points="2,43 2,36 9,43" style="fill:#fff;stroke:#000;stroke-width:0.5"/><polygon points="43,43 43,36 36,43" style="fill:#fff;stroke:#000;stroke-width:0.5"/></symbol>
<symbol id="piece-mce-chess-bK" viewBox="0 0 45 45"><g style="fill:#000;stroke:#000;stroke-width:1.5;stroke-linejoin:round"><path d="M 22.5,11.63 L 22.5,6" style="fill:none;stroke:#fff;stroke-linejoin:miter"/><path d="M 20,8 L 25,8" style="fill:none;stroke:#fff;stroke-linejoin:miter"/><path d="M 22.5,25 C 22.5,25 27,17.5 25.5,14.5 C 25.5,14.5 24.5,12 22.5,12 C 20.5,12 19.5,14.5 19.5,14.5 C 18,17.5 22.5,25 22.5,25"/><path d="M 12.5,37 C 18,40.5 27,40.5 32.5,37 L 32.5,30 C 32.5,30 41.5,25.5 38.5,19.5 C 34.5,13 25,16 22.5,23.5 L 22.5,27 L 22.5,23.5 C 20,16 10.5,13 6.5,19.5 C 3.5,25.5 12.5,30 12.5,30 L 12.5,37"/><path d="M 12.5,30 C 18,27 27,27 32.5,30" style="fill:none;stroke:#fff"/><path d="M 12.5,33.5 C 18,30.5 27,30.5 32.5,33.5" style="fill:none;stroke:#fff"/><path d="M 12.5,37 C 18,34 27,34 32.5,37" style="fill:none;stroke:#fff"/></g></symbol>
<symbol id="piece-mce-chess-bW" viewBox="0 0 45 45"><g style="fill:#000;stroke:#000;stroke-width:1.5;stroke-linejoin:round"><path d="M 22.5,11.63 L 22.5,6" style="fill:none;stroke:#fff;stroke-linejoin:miter"/><path d="M 20,8 L 25,8" style="fill:none;stroke:#fff;stroke-linejoin:miter"/><path d="M 22.5,25 C 22.5,25 27,17.5 25.5,14.5 C 25.5,14.5 24.5,12 22.5,12 C 20.5,12 19.5,14.5 19.5,14.5 C 18,17.5 22.5,25 22.5,25"/><path d="M 12.5,37 C 18,40.5 27,40.5 32.5,37 L 32.5,30 C 32.5,30 41.5,25.5 38.5,19.5 C 34.5,13 25,16 22.5,23.5 L 22.5,27 L 22.5,23.5 C 20,16 10.5,13 6.5,19.5 C 3.5,25.5 12.5,30 12.5,30 L 12.5,37"/></g><g transform="translate(14.5,22) scale(0.33)"><path d="M 22,10 C 32.5,11 38.5,18 38,39 L 15,39 C 15,30 25,32.5 23,18" style="fill:#fff;stroke:none"/><path d="M 24,18 C 24.38,20.91 18.45,25.37 16,27 C 13,29 13.18,31.34 11,31 C 9.958,30.06 12.41,27.96 11,28 C 10,28 11.19,29.23 10,30 C 9,30 5.997,31 6,26 C 6,24 12,14 12,14 C 12,14 13.89,12.1 14,10.5 C 13.27,9.506 13.5,8.5 13.5,7.5 C 14.5,6.5 16.5,10 16.5,10 L 18.5,10 C 18.5,10 19.28,8.008 21,7 C 22,7 22,10 22,10" style="fill:#fff;stroke:none"/></g></symbol>
<symbol id="piece-mce-chess-bE" viewBox="0 0 45 45"><g transform="translate(2,1) scale(0.228)"><path d="M140.07,68.8c3.43,6.1,5.37,13.14,5.37,20.64,0,3.43-.41,6.78-1.19,9.97-.1,.37-.17,.72-.27,1.09-1.69,6.7-2.84,13.61-3.41,20.68-.29,3.45-.43,6.91-.43,10.44,0,.93,.01,1.86,.04,2.79-1.09-.45-2.3-.85-3.65-1.2,0,0-47.52-4.73-70.93,0-1.42,.36-2.69,.78-3.82,1.27h-.63c1.09-7.23,3.99-13.85,8.24-19.4,2.72-3.58,6.02-6.71,9.76-9.27,.25-.16,.49-.31,.72-.49,2.01-1.36,3.88-2.9,5.61-4.6-4.46-1.44-12.33-5.8-16.01-8.57-2.29-.53-5.69,2.3-5.69,2.3-1.19,.99-2.3,2.06-3.37,3.19-.81,.84-1.58,1.72-2.28,2.61-4.24,5.31-7.24,11.68-8.55,18.63-.47,2.51-.7,5.1-.7,7.77,0,3.97,.55,7.8,1.58,11.45,0,0,1.43,4.08,2.52,6.8,.35,.88,.67,1.61,.89,2.02,1.27,2.36,1.06,6.71-1.63,9.88-1.17,1.38-2.81,2.54-4.99,3.22-.97,.33-1.99,.54-3.06,.58-.25,0-.49-.02-.74-.02-.59-.02-1.17-.08-1.73-.17-1.97-.37-3.74-1.28-5.14-2.59-.55-.49-1.03-1.03-1.44-1.64,.61-1.94,.92-4.01,.92-6.15s-.31-4.21-.92-6.15c0-.02,.02-.04,.02-.04,0-.02-.02-.06-.02-.08-.12-.33-.23-.68-.37-1.01-2.12-6.14-3.58-12.6-4.25-19.28-.12-1.17-.21-2.36-.29-3.54v-.02c-.1-1.66-.14-3.31-.14-4.99,0-18.42,5.88-35.47,15.89-49.36,.78-1.11,1.61-2.22,2.47-3.29,2.57-20.02,19.14-35.67,39.6-36.78,.78-.06,1.58-.08,2.38-.08,2.05,0,4.07,.16,6.04,.43,.02,0,.06,0,.08,.02,1.83-.41,3.68-.78,5.53-1.11,.78-.14,1.56-.27,2.36-.39,.8-.14,1.61-.26,2.41-.37,1.03-.16,2.06-.27,3.09-.39,.41-.06,.8-.1,1.21-.14,.97-.1,1.97-.19,2.96-.27,1.34-.12,2.72-.2,4.09-.28,2.08-.1,4.18-.16,6.31-.16,8.7,0,17.19,.88,25.39,2.55-1.58,11.45-4.67,22.41-9.09,32.67,.06,.8,.08,1.61,.08,2.43,0,.68-.02,1.38-.06,2.06,0,.1,0,.17-.02,.27-.02,.58-.06,1.15-.12,1.71,0,.12-.02,.24-.04,.33-.06,.6-.12,1.19-.21,1.79,0,.08-.02,.16-.04,.24-.08,.52-.16,1.03-.27,1.56l-.06,.35v.04Z" style="fill:#000;stroke:#fff;stroke-width:6"/><path d="M52.25,156.09v3.47h97.65v-3.47c.03-10.4,.05-19.46-13.36-22.87,0,0-47.52-4.73-70.93,0h0c-13.41,3.41-13.39,12.47-13.36,22.87Z" style="fill:#000;stroke:#fff;stroke-width:6"/><path d="M72.65,94.39c.12,0,7.82,4.74,12.82,6.35-.21,.17-.4,.35-.61,.52-.02,.02-.05,.02-.07,.02-5.44,3.05-11.32,5.01-17.56,5.82l-.31,.05c-.14,.02-.24,.05-.38,.05l-.21-.02-.17,.05c-2.58,0-4.66-2.08-4.66-4.66,0-1.96,1.3-3.78,3.14-4.4l.28-.07c2.88-.9,5.28-1.91,7.72-3.7Z" style="fill:#000;stroke:#fff;stroke-width:4"/><circle cx="76.4" cy="53.46" r="5.3" style="fill:#fff;stroke:none"/></g></symbol>
<symbol id="piece-wikimedia-fairy-Black_chess_giraffe" viewBox="0 0 12 12"><path d="m8.959 8.142-.421-.28h-3.65l-.421.28Zm-.562-.561v-.14l-.561-.282H5.59l-.562.281v.14ZM4.304 1.982q0 .073.034.14.039.068.106.107.068.034.14.034.074 0 .141-.034.067-.04.101-.106.04-.068.04-.14 0-.074-.04-.141-.034-.068-.1-.101-.068-.04-.141-.04-.073 0-.14.04-.068.033-.107.1-.034.068-.034.141zM2.72 3.992q0 .073.034.14.04.068.107.108.067.033.14.033.073 0 .084-.033.012-.04-.039-.107-.045-.068-.045-.14 0-.074.045-.14.05-.068.04-.102-.012-.04-.085-.04-.073 0-.14.04-.068.034-.107.101-.034.067-.034.14zm4.504-1.74.893 4.767.561.28v.282l.843.561v.842H3.905v-.842l.843-.561V7.3l.561-.281V4.621q-.017-.27-.084-.337-.068-.067-.264-.078-.242-.04-1.045.5-.797.533-1.145.146-.292-.455-.292-.82 0-.365.6-.899.607-.539.647-.96.039-.421.438-.786.258-.18.572-.27.169-.05.32-.073Q4.99.601 4.95.534q-.034-.068-.034-.14 0-.074.034-.141.039-.068.106-.101.068-.04.14-.04.074 0 .141.04.068.033.101.1.04.068.04.141 0 .073-.04.14-.033.068-.1.495.128.005.392.033-.067-.572-.106-.64Q5.59.354 5.59.281q0-.073.034-.14.039-.068.106-.102Q5.798 0 5.87 0q.074 0 .141.04.067.033.101.1.04.068.04.14 0 .074-.04.141-.034.068-.101.668l.09.012q.208-.107.455-.18.522-.174 1.078-.213-.04.555-.208 1.083-.079.247-.202.46Zm.27-1.404q-.455.034-.882.174-.152.045-.28.14-.405.343-.557.72l.163.14q.034-.08.067-.14.242-.433.77-.686.27-.123.488-.168-.04.286-.241.69-.253.5-.685.741-.062.029-.14.062l.14.163q.426-.19.59-.331.162-.14.246-.292.096-.152.152-.326.135-.432.168-.887Zm-.837 4.644q-.23-.753-1.112-1.028v1.19l.505.382q.275-.325.607-.544Zm-.146.971q.331.22.606.545l.506-.382v-1.19Q6.74 5.71 6.51 6.463Zm-.764-2.909q.23.753 1.112 1.028v-1.19l-.505-.382q-.276.325-.607.544Z" style="font-size:11.5px;line-height:0;font-family:Quivira;stroke-width:.15;stroke-linecap:square;stroke-linejoin:bevel;paint-order:markers stroke fill"/></symbol>
<symbol id="piece-wikimedia-fairy-Black_dabbaba" viewBox="0 0 12 12"><path d="M3.698 7.75h-.775q.022.218.135.42.04.073.084.135zm.68 0 .555.555q.045-.062.084-.135.107-.202.13-.42Zm-.006-.282h.78q-.028-.219-.135-.426-.039-.068-.09-.13Zm-.197-.196.556-.556q-.062-.05-.13-.09-.207-.107-.426-.135Zm-.28-.006v-.769q-.22.022-.422.13-.073.038-.134.083Zm.28 1.455q.22-.023.427-.135.067-.04.135-.084l-.562-.562Zm-.471-1.253-.562-.561q-.045.067-.084.135-.113.207-.135.426Zm-.365 1.034q.061.045.134.084.202.112.421.135v-.775Zm.696-2.297q.365 0 .702.18.342.18.522.522.18.337.18.702 0 .365-.18.702-.18.337-.522.522-.337.18-.702.18-.365 0-.708-.18-.337-.185-.516-.522-.18-.337-.18-.702 0-.365.18-.702.18-.343.516-.522.343-.18.708-.18Zm3.594 1.544h-.775q.022.22.134.421.04.073.085.135zm.679 0 .556.556q.045-.062.084-.135.107-.202.13-.42Zm-.006-.28h.78q-.027-.22-.134-.427-.04-.068-.09-.13Zm-.196-.197.556-.556q-.062-.05-.13-.09-.207-.107-.426-.135Zm-.28-.006v-.769q-.22.022-.422.13-.073.038-.135.083Zm.28 1.455q.219-.023.427-.135.067-.04.134-.084l-.561-.562Zm-.472-1.253-.561-.561q-.045.067-.085.135-.112.207-.134.426ZM7.27 8.502q.062.045.135.084.202.112.421.135v-.775Zm.696-2.297q.365 0 .702.18.343.18.523.522.18.337.18.702 0 .365-.18.702-.18.337-.523.522-.337.18-.702.18-.365 0-.707-.18-.337-.185-.517-.522t-.18-.702q0-.365.18-.702.18-.343.517-.522.342-.18.707-.18Zm-1.594.225H5.63q.061.09.117.19l.045.09h.416l.045-.09q.056-.1.118-.19zm-.764.561q-.011-.034-.101-.23-.202-.37-.556-.584l-.067-.04q-.41-.213-.848-.213-.264 0-.517.079-.163.05-.325.135l1.403-5.043h2.808l1.404 5.043q-.163-.085-.326-.135-.253-.079-.517-.079-.438 0-.842.214l-.073.039q-.331.196-.522.533-.079.146-.135.281Z" style="font-size:11.5px;line-height:0;font-family:Quivira;stroke-width:.15;stroke-linecap:square;stroke-linejoin:bevel;paint-order:markers stroke fill"/></symbol>
<symbol id="piece-mce-chess-bP" viewBox="0 0 45 45"><path d="M 22,9 C 19.79,9 18,10.79 18,13 C 18,13.89 18.29,14.71 18.78,15.38 C 16.83,16.5 15.5,18.59 15.5,21 C 15.5,23.03 16.44,24.84 17.91,26.03 C 14.91,27.09 10.5,31.58 10.5,39.5 L 33.5,39.5 C 33.5,31.58 29.09,27.09 26.09,26.03 C 27.56,24.84 28.5,23.03 28.5,21 C 28.5,18.59 27.17,16.5 25.22,15.38 C 25.71,14.71 26,13.89 26,13 C 26,10.79 24.21,9 22,9 z" style="fill:#000;stroke:#000;stroke-width:1.5;stroke-linecap:round"/></symbol>
<symbol id="piece-mce-chess-wP" viewBox="0 0 45 45"><path d="M 22,9 C 19.79,9 18,10.79 18,13 C 18,13.89 18.29,14.71 18.78,15.38 C 16.83,16.5 15.5,18.59 15.5,21 C 15.5,23.03 16.44,24.84 17.91,26.03 C 14.91,27.09 10.5,31.58 10.5,39.5 L 33.5,39.5 C 33.5,31.58 29.09,27.09 26.09,26.03 C 27.56,24.84 28.5,23.03 28.5,21 C 28.5,18.59 27.17,16.5 25.22,15.38 C 25.71,14.71 26,13.89 26,13 C 26,10.79 24.21,9 22,9 z" style="fill:#fff;stroke:#000;stroke-width:1.5;stroke-linecap:round"/></symbol>
<symbol id="piece-mce-chess-wE" viewBox="0 0 45 45"><g transform="translate(2,1) scale(0.228)"><path d="M140.07,68.8c3.43,6.1,5.37,13.14,5.37,20.64,0,3.43-.41,6.78-1.19,9.97-.1,.37-.17,.72-.27,1.09-1.69,6.7-2.84,13.61-3.41,20.68-.29,3.45-.43,6.91-.43,10.44,0,.93,.01,1.86,.04,2.79-1.09-.45-2.3-.85-3.65-1.2,0,0-47.52-4.73-70.93,0-1.42,.36-2.69,.78-3.82,1.27h-.63c1.09-7.23,3.99-13.85,8.24-19.4,2.72-3.58,6.02-6.71,9.76-9.27,.25-.16,.49-.31,.72-.49,2.01-1.36,3.88-2.9,5.61-4.6-4.46-1.44-12.33-5.8-16.01-8.57-2.29-.53-5.69,2.3-5.69,2.3-1.19,.99-2.3,2.06-3.37,3.19-.81,.84-1.58,1.72-2.28,2.61-4.24,5.31-7.24,11.68-8.55,18.63-.47,2.51-.7,5.1-.7,7.77,0,3.97,.55,7.8,1.58,11.45,0,0,1.43,4.08,2.52,6.8,.35,.88,.67,1.61,.89,2.02,1.27,2.36,1.06,6.71-1.63,9.88-1.17,1.38-2.81,2.54-4.99,3.22-.97,.33-1.99,.54-3.06,.58-.25,0-.49-.02-.74-.02-.59-.02-1.17-.08-1.73-.17-1.97-.37-3.74-1.28-5.14-2.59-.55-.49-1.03-1.03-1.44-1.64,.61-1.94,.92-4.01,.92-6.15s-.31-4.21-.92-6.15c0-.02,.02-.04,.02-.04,0-.02-.02-.06-.02-.08-.12-.33-.23-.68-.37-1.01-2.12-6.14-3.58-12.6-4.25-19.28-.12-1.17-.21-2.36-.29-3.54v-.02c-.1-1.66-.14-3.31-.14-4.99,0-18.42,5.88-35.47,15.89-49.36,.78-1.11,1.61-2.22,2.47-3.29,2.57-20.02,19.14-35.67,39.6-36.78,.78-.06,1.58-.08,2.38-.08,2.05,0,4.07,.16,6.04,.43,.02,0,.06,0,.08,.02,1.83-.41,3.68-.78,5.53-1.11,.78-.14,1.56-.27,2.36-.39,.8-.14,1.61-.26,2.41-.37,1.03-.16,2.06-.27,3.09-.39,.41-.06,.8-.1,1.21-.14,.97-.1,1.97-.19,2.96-.27,1.34-.12,2.72-.2,4.09-.28,2.08-.1,4.18-.16,6.31-.16,8.7,0,17.19,.88,25.39,2.55-1.58,11.45-4.67,22.41-9.09,32.67,.06,.8,.08,1.61,.08,2.43,0,.68-.02,1.38-.06,2.06,0,.1,0,.17-.02,.27-.02,.58-.06,1.15-.12,1.71,0,.12-.02,.24-.04,.33-.06,.6-.12,1.19-.21,1.79,0,.08-.02,.16-.04,.24-.08,.52-.16,1.03-.27,1.56l-.06,.35v.04Z" style="fill:#fff;stroke:#000;stroke-width:6"/><path d="M52.25,156.09v3.47h97.65v-3.47c.03-10.4,.05-19.46-13.36-22.87,0,0-47.52-4.73-70.93,0h0c-13.41,3.41-13.39,12.47-13.36,22.87Z" style="fill:#fff;stroke:#000;stroke-width:6"/><path d="M72.65,94.39c.12,0,7.82,4.74,12.82,6.35-.21,.17-.4,.35-.61,.52-.02,.02-.05,.02-.07,.02-5.44,3.05-11.32,5.01-17.56,5.82l-.31,.05c-.14,.02-.24,.05-.38,.05l-.21-.02-.17,.05c-2.58,0-4.66-2.08-4.66-4.66,0-1.96,1.3-3.78,3.14-4.4l.28-.07c2.88-.9,5.28-1.91,7.72-3.7Z" style="fill:#fff;stroke:#000;stroke-width:4"/><circle cx="76.4" cy="53.46" r="5.3" style="fill:#000;stroke:none"/></g></symbol>
<symbol id="piece-wikimedia-fairy-White_chess_giraffe" viewBox="0 0 12 12"><path d="M9.24 8.704v-.281H4.186v.28Zm-.281-.562-.421-.28h-3.65l-.421.28Zm-.562-.561v-.14l-.561-.282H5.59l-.562.281v.14ZM4.304 1.982q0-.073.034-.14.039-.068.106-.101.068-.04.14-.04.074 0 .141.04.067.033.101.1.04.068.04.141 0 .073-.04.14-.034.068-.1.107-.068.034-.141.034-.073 0-.14-.034-.068-.04-.107-.106-.034-.068-.034-.14ZM2.72 3.992q0-.073.034-.14.04-.067.107-.101.067-.04.14-.04.073 0 .084.04.012.034-.039.101-.045.067-.045.14 0 .073.045.14.05.068.04.108-.012.033-.085.033-.073 0-.14-.033-.068-.04-.107-.107-.034-.068-.034-.14Zm3.027-.438q.331-.219.607-.544l.505.382v1.19q-.882-.275-1.112-1.028ZM5.59 5.688v1.19H7q-.225-.24-.49-.415.22-.724 1.045-1.005L6.932 2.33q-.258.225-.595.354l-.14-.163q.078-.033.14-.062.432-.241.685-.74.112-.214.174-.405.011-.095.017-.185-.169.01-.332.039-.05.011-.106.028-.528.253-.77.685-.033.062-.067.14l-.163-.14q.14-.354.388-.629-.534-.056-.708-.056-.241 0-.556.09-.309.09-.567.27-.399.364-.438.786-.04.42-.64.954-.623.427-.595.696.061.382.224.635.348.387 1.151-.152.506-.337.787-.443l.1-.034q.09-.028.152-.017.197.011.354.169.163.157.163.275v.056q.842.275 1.067 1.01-.332.22-.607.545Zm1.696 1.19h.55l-.213-1.072v.82ZM7.19 2.062l.927 4.958.561.28v.282l.843.561v.842H3.905v-.842l.843-.561V7.3l.561-.281V4.621q-.017-.27-.084-.337-.068-.067-.264-.078-.242-.04-1.045.5-.797.533-1.145.146-.292-.455-.292-.82 0-.365.6-.899.607-.539.647-.96.039-.421.438-.786.258-.18.572-.27.169-.05.32-.073Q4.99.601 4.95.534q-.034-.068-.034-.14 0-.074.034-.141.039-.068.106-.101.068-.04.14-.04.074 0 .141.04.068.033.101.1.04.068.04.141 0 .073-.04.14-.033.068-.1.495.128.005.392.033-.067-.572-.106-.64Q5.59.354 5.59.281q0-.073.034-.14.039-.068.106-.102Q5.798 0 5.87 0q.074 0 .141.04.067.033.101.1.04.068.04.14 0 .074-.04.141-.034.068-.101.668.146.017.32.034.13-.056.28-.101.428-.14.882-.174-.033.455-.168.887-.056.174-.135.326Z" style="font-size:11.5px;line-height:0;font-family:Quivira;stroke-width:.15;stroke-linecap:square;stroke-linejoin:bevel;paint-order:markers stroke fill"/></symbol>
<symbol id="piece-wikimedia-fairy-White_dabbaba" viewBox="0 0 12 12"><path d="M3.698 7.75h-.775c.015.145.06.286.135.42.026.049.054.094.084.135zm.68 0 .555.555a1.146 1.146 0 0 0 .213-.556Zm-.006-.282h.78a1.288 1.288 0 0 0-.135-.426.998.998 0 0 0-.09-.13Zm-.197-.196.556-.556a.997.997 0 0 0-.13-.09 1.288 1.288 0 0 0-.426-.135Zm-.28-.006v-.769a1.146 1.146 0 0 0-.556.213zm.28 1.455a1.135 1.135 0 0 0 .562-.22l-.562-.56Zm-.471-1.253-.562-.561c-.03.045-.058.09-.084.135-.075.138-.12.28-.135.426Zm-.365 1.034c.04.03.086.058.134.084.135.075.275.12.421.135v-.775Zm.696-2.297c.243 0 .477.06.702.18.228.12.402.294.522.522.12.225.18.458.18.702 0 .243-.06.477-.18.702-.12.224-.294.398-.522.522a1.472 1.472 0 0 1-1.41 0 1.263 1.263 0 0 1-.516-.522 1.472 1.472 0 0 1-.18-.702c0-.244.06-.477.18-.702a1.22 1.22 0 0 1 .516-.522c.229-.12.464-.18.708-.18Zm3.594 1.544h-.775c.015.146.06.287.134.421.027.049.055.094.085.135zm.679 0 .556.556a1.146 1.146 0 0 0 .213-.556Zm-.006-.28h.78a1.288 1.288 0 0 0-.134-.427.997.997 0 0 0-.09-.13Zm-.196-.197.556-.556a.997.997 0 0 0-.13-.09 1.288 1.288 0 0 0-.426-.135Zm-.28-.006v-.769a1.146 1.146 0 0 0-.557.213Zm.28 1.455a1.135 1.135 0 0 0 .561-.22l-.561-.56Zm-.472-1.253-.561-.561a1.135 1.135 0 0 0-.219.562ZM7.27 8.502c.041.03.086.058.135.084.135.075.275.12.421.135v-.775Zm.696-2.297c.244 0 .478.06.702.18.229.12.403.294.523.522.12.225.18.458.18.702 0 .243-.06.477-.18.702a1.26 1.26 0 0 1-.523.522 1.472 1.472 0 0 1-1.409 0 1.263 1.263 0 0 1-.517-.522 1.472 1.472 0 0 1-.18-.702c0-.244.06-.477.18-.702a1.22 1.22 0 0 1 .517-.522 1.5 1.5 0 0 1 .707-.18Zm.427-.517-1.27-4.312H4.877L3.608 5.688a2.086 2.086 0 0 1 1.415.208c.131.071.25.156.36.253h1.235c.108-.097.23-.182.365-.253a2.054 2.054 0 0 1 1.41-.208zm-2.021.742H5.63c.04.06.08.123.117.19l.045.09h.416l.045-.09c.037-.067.077-.13.118-.19Zm-.764.561a4.222 4.222 0 0 0-.101-.23 1.517 1.517 0 0 0-.556-.584l-.067-.04a1.814 1.814 0 0 0-.848-.213 1.73 1.73 0 0 0-.517.079 1.998 1.998 0 0 0-.325.135l1.403-5.043h2.808l1.404 5.043a1.998 1.998 0 0 0-.326-.135 1.73 1.73 0 0 0-.517-.079c-.292 0-.572.071-.842.214l-.073.039c-.22.131-.395.309-.522.533a3.15 3.15 0 0 0-.135.281Zm-1.572.337a.275.275 0 0 0-.14.04.252.252 0 0 0-.107.1.31.31 0 0 0 0 .281c.026.045.062.08.106.107a.31.31 0 0 0 .281 0 .252.252 0 0 0 .101-.107.275.275 0 0 0 0-.28.22.22 0 0 0-.1-.102.275.275 0 0 0-.141-.039Zm3.93 0a.275.275 0 0 0-.14.04.252.252 0 0 0-.107.1.31.31 0 0 0 0 .281c.027.045.062.08.107.107a.31.31 0 0 0 .28 0 .252.252 0 0 0 .102-.107.275.275 0 0 0 0-.28.22.22 0 0 0-.101-.102.275.275 0 0 0-.14-.039Z" style="font-size:11.5px;line-height:0;font-family:Quivira;stroke-width:.15;stroke-linecap:square;stroke-linejoin:bevel;paint-order:markers stroke fill"/></symbol>
<symbol id="piece-mce-chess-wR" viewBox="0 0 45 45"><g style="fill:#fff;stroke:#000;stroke-width:1.5;stroke-linecap:round;stroke-linejoin:round"><path d="M 9,39 L 36,39 L 36,36 L 9,36 L 9,39 z"/><path d="M 12,36 L 12,32 L 33,32 L 33,36 L 12,36 z"/><path d="M 11,14 L 11,9 L 15,9 L 15,11 L 20,11 L 20,9 L 25,9 L 25,11 L 30,11 L 30,9 L 34,9 L 34,14"/><path d="M 34,14 L 31,17 L 14,17 L 11,14"/><path d="M 31,17 L 31,29.5 L 14,29.5 L 14,17"/><path d="M 31,29.5 L 32.5,32 L 12.5,32 L 14,29.5"/><path d="M 11,14 L 34,14" style="fill:none"/></g></symbol>
<symbol id="piece-mce-chess-wN" viewBox="0 0 45 45"><g style="fill:none;stroke:#000;stroke-width:1.5;stroke-linecap:round;stroke-linejoin:round"><path d="M 22,10 C 32.5,11 38.5,18 38,39 L 15,39 C 15,30 25,32.5 23,18" style="fill:#fff"/><path d="M 24,18 C 24.38,20.91 18.45,25.37 16,27 C 13,29 13.18,31.34 11,31 C 9.958,30.06 12.41,27.96 11,28 C 10,28 11.19,29.23 10,30 C 9,30 5.997,31 6,26 C 6,24 12,14 12,14 C 12,14 13.89,12.1 14,10.5 C 13.27,9.506 13.5,8.5 13.5,7.5 C 14.5,6.5 16.5,10 16.5,10 L 18.5,10 C 18.5,10 19.28,8.008 21,7 C 22,7 22,10 22,10" style="fill:#fff"/><path d="M 9.5,25.5 A 0.5,0.5 0 1 1 8.5,25.5 A 0.5,0.5 0 1 1 9.5,25.5 z" style="fill:#000"/><path d="M 15,15.5 A 0.5,1.5 0 1 1 14,15.5 A 0.5,1.5 0 1 1 15,15.5 z" transform="matrix(0.866,0.5,-0.5,0.866,9.693,-5.173)" style="fill:#000"/></g></symbol>
<symbol id="piece-wikimedia-standard-Chess_Zlt45" viewBox="0 0 45 45"><g transform="translate(.176 -.823)scale(1.01404)"><path d="M22 10c10.5 1 16.5 8 16 29H15c0-9 10-6.5 8-21" style="fill:#fff;fill-opacity:1;fill-rule:evenodd;stroke:#303042;stroke-width:1.5;stroke-linecap:round;stroke-linejoin:miter;stroke-miterlimit:4;stroke-dasharray:none;stroke-opacity:1"/><path d="M24 18c.384 2.911-5.553 7.369-8 9-3 2-2.82 4.343-5 4-1.042-.944 1.413-3.038 0-3-1 0 .187 1.232-1 2-1 0-4.003 1-4-4 0-2 6-12 6-12s1.886-1.902 2-3.5c-.726-.994-.5-2-.5-3 1-1 3 2.5 3 2.5h2s.782-1.992 2.5-3c1 0 1 3 1 3" style="fill:#fff;fill-opacity:1;fill-rule:evenodd;stroke:#303042;stroke-width:1.5;stroke-linecap:round;stroke-linejoin:round;stroke-miterlimit:4;stroke-dasharray:none;stroke-opacity:1"/><circle r=".5" cy="23.5" cx="8.5" transform="translate(.5 2)" style="opacity:1;fill:#2b2b3c;fill-opacity:1;stroke:#303042;stroke-width:1.5;stroke-linecap:round;stroke-linejoin:round;stroke-miterlimit:4;stroke-dasharray:none;stroke-opacity:1"/><ellipse ry="1.5" rx=".5" cy="15.5" cx="14.5" transform="rotate(30 14.5 15.5)" style="opacity:1;fill:#2b2b3c;fill-opacity:1;stroke:#303042;stroke-width:1.50000048;stroke-linecap:round;stroke-linejoin:round;stroke-miterlimit:4;stroke-dasharray:none;stroke-opacity:1"/><path d="M37 39c1-20-5.5-27.5-12-28.5" style="fill:none;fill-opacity:.75;fill-rule:evenodd;stroke:#303042;stroke-width:1;stroke-linecap:round;stroke-linejoin:miter;stroke-miterlimit:4;stroke-dasharray:none;stroke-opacity:1"/><path d="M13.57 17.51c-.902-.34-.85-1.578.128-3.02.259-.382.64-.75.928-.9.27-.14.79-.126 1.037.026.597.37.53 1.445-.164 2.606-.56.938-1.388 1.49-1.928 1.288" style="fill:#000"/><path d="M8.61 26.65a1.212 1.212 0 0 1-.522-1.95c.248-.282.512-.395.921-.395.696 0 1.187.491 1.187 1.187 0 .568-.28.969-.806 1.154-.33.116-.464.117-.78.005" style="fill:#000"/><path d="M14.26 39.164c.006-2.175.467-3.805 1.526-5.389.517-.774 1.07-1.386 2.88-3.191 1.578-1.573 2.242-2.445 2.839-3.729.474-1.02.805-2.285.935-3.579.035-.342.053-.633.04-.645s-.144.109-.293.27c-.378.41-1.895 1.776-2.679 2.411-.88.714-1.5 1.18-2.665 2-1.483 1.043-1.861 1.41-2.96 2.868-.863 1.145-1.394 1.5-2.32 1.548-.328.018-.628 0-.765-.045-.26-.086-.64-.5-.697-.759l-.04-.178-.885.038c-.714.03-.965.017-1.293-.066-1.217-.311-2.017-1.172-2.369-2.547-.16-.629-.277-1.862-.224-2.365.09-.841.576-2.044 1.817-4.501.897-1.778 1.994-3.783 3.341-6.11.63-1.087 1.004-1.653 1.486-2.25.641-.792 1.262-1.864 1.262-2.179 0-.073-.067-.284-.148-.47-.23-.52-.29-.92-.29-1.934 0-1.096.052-1.278.44-1.535.387-.256.927-.28 1.402-.062.552.252 1.412 1.135 2.063 2.118l.238.36h.585c.322 0 .585-.025.585-.054s.195-.348.433-.709c.487-.737 1.21-1.494 1.816-1.902.339-.228.455-.273.706-.273.84 0 1.346.713 1.578 2.226.058.374.114.712.125.75s.183.09.384.114c1.11.134 2.784.533 3.958.943.856.298 2.376 1.044 3.125 1.531 2.83 1.844 4.892 4.613 6.323 8.492 1.241 3.365 1.95 7.616 2.178 13.069.068 1.624.082 5.71.021 6.078l-.039.234H14.26zm22.342-2.75a67 67 0 0 0-.187-6.457c-.55-6.51-2.183-11.575-4.792-14.851-1.743-2.19-4.67-3.641-8.552-4.238a29 29 0 0 0-1.076-.15c-.485-.044-.736-.38-.737-.99 0-.429-.165-1.515-.255-1.683-.066-.124-.09-.11-.472.268a6.8 6.8 0 0 0-1.234 1.725c-.333.665-.345.67-1.723.691-1.469.023-1.426.042-2.063-.91-.485-.722-1.146-1.514-1.265-1.514-.046 0-.057.174-.034.54.029.461.067.605.267.999.218.43.232.488.202.882-.062.84-.628 1.942-1.628 3.173-1.263 1.553-5.291 8.993-6.077 11.22l-.23.655.035.812c.064 1.474.447 2.317 1.194 2.629.307.127 1.609.146 1.755.025.064-.053.09-.208.091-.521 0-.593.095-.903.35-1.142.338-.32 1.016-.401 1.462-.176.373.189.608.666.534 1.08-.023.126-.18.545-.35.929-.329.744-.374.933-.21.87a.6.6 0 0 1 .158-.038c.111 0 .622-.52.976-.993 1.019-1.363 1.688-2.034 2.824-2.832 3.491-2.45 5.783-4.507 6.94-6.23.467-.693.707-1.286.736-1.82.032-.57.105-.777.335-.94.374-.267.84-.128 1.077.32.22.414.048 1.428-.397 2.35-.242.5-.248.53-.248 1.188 0 2.5-.42 4.632-1.25 6.36-.668 1.392-1.326 2.228-3.442 4.378-.948.963-1.892 1.978-2.098 2.256a7.3 7.3 0 0 0-1.37 3.275c-.049.327-.09.616-.09.641s4.68.047 10.4.047h10.399z" style="fill:#000"/><path d="M29.125 38.5c4.417-3.861 4.731-1.256 8.75-2.375l-.25-1.5c-5.398.236-8.685 1.264-12.375 4.125z" style="fill:#000;fill-opacity:1;stroke:#000;stroke-width:1px;stroke-linecap:butt;stroke-linejoin:miter;stroke-opacity:1"/><path d="M20.25 38.625c5.095-5.317 8.412-6.61 17.25-7.25l-.125-1.25C32.618 30.248 22.48 31.909 17.5 39Z" style="fill:#000;fill-opacity:1;stroke:#000;stroke-width:1px;stroke-linecap:butt;stroke-linejoin:miter;stroke-opacity:1"/><path d="M23.5 24.25c4.512-.034 7.79-1.723 12.5-2.25-.375-1.171-.375-2.317-.75-1.875-2.716 2.057-6.746 1.938-11.875 3-.383-.498.206.112.125 1.125z" style="fill:#000;fill-opacity:1;stroke:#000;stroke-width:1px;stroke-linecap:butt;stroke-linejoin:miter;stroke-opacity:1"/><path d="M24 20c3.75-1.875 8.083-1.667 9.5-3.25l-1.125-1.375c-.95 2.434-5.73 2.432-8 3.875z" style="fill:#000;fill-opacity:1;stroke:#000;stroke-width:1px;stroke-linecap:butt;stroke-linejoin:miter;stroke-opacity:1"/><path d="M30.625 13.25 27 14.625l2-2.75z" style="fill:#000;fill-opacity:1;stroke:#000;stroke-width:1px;stroke-linecap:butt;stroke-linejoin:miter;stroke-opacity:1"/><path d="m25.25 10.375-1.375 2.75-.75-3c4.612.626 1.36.216 2.125.25z" style="fill:#000;fill-opacity:1;stroke:#000;stroke-width:1px;stroke-linecap:butt;stroke-linejoin:miter;stroke-opacity:1"/><path d="M36.75 25.25c-4.369 1.215-8.595 2.571-14.25 2.5l-4.375 4.75c4.074-2.615 8.928-4.983 19.25-5.625z" style="fill:#000;fill-opacity:1;stroke:#000;stroke-width:1px;stroke-linecap:butt;stroke-linejoin:miter;stroke-opacity:1"/></g></symbol>
<symbol id="piece-mce-chess-wF" viewBox="0 0 45 45"><g transform="translate(8,8) scale(0.65)"><path d="M 22,9 C 19.79,9 18,10.79 18,13 C 18,13.89 18.29,14.71 18.78,15.38 C 16.83,16.5 15.5,18.59 15.5,21 C 15.5,23.03 16.44,24.84 17.91,26.03 C 14.91,27.09 10.5,31.58 10.5,39.5 L 33.5,39.5 C 33.5,31.58 29.09,27.09 26.09,26.03 C 27.56,24.84 28.5,23.03 28.5,21 C 28.5,18.59 27.17,16.5 25.22,15.38 C 25.71,14.71 26,13.89 26,13 C 26,10.79 24.21,9 22,9 z" style="fill:#fff;stroke:#000;stroke-width:1.5;stroke-linecap:round"/></g><polygon points="2,2 2,9 9,2" style="fill:#000;stroke:#000;stroke-width:0.5"/><polygon points="43,2 43,9 36,2" style="fill:#000;stroke:#000;stroke-width:0.5"/><polygon points="2,43 2,36 9,43" style="fill:#000;stroke:#000;stroke-width:0.5"/><polygon points="43,43 43,36 36,43" style="fill:#000;stroke:#000;stroke-width:0.5"/></symbol>
<symbol id="piece-mce-chess-wK" viewBox="0 0 45 45"><g style="fill:#fff;stroke:#000;stroke-width:1.5;stroke-linejoin:round"><path d="M 22.5,11.63 L 22.5,6" style="fill:none;stroke-linejoin:miter"/><path d="M 20,8 L 25,8" style="fill:none;stroke-linejoin:miter"/><path d="M 22.5,25 C 22.5,25 27,17.5 25.5,14.5 C 25.5,14.5 24.5,12 22.5,12 C 20.5,12 19.5,14.5 19.5,14.5 C 18,17.5 22.5,25 22.5,25"/><path d="M 12.5,37 C 18,40.5 27,40.5 32.5,37 L 32.5,30 C 32.5,30 41.5,25.5 38.5,19.5 C 34.5,13 25,16 22.5,23.5 L 22.5,27 L 22.5,23.5 C 20,16 10.5,13 6.5,19.5 C 3.5,25.5 12.5,30 12.5,30 L 12.5,37"/><path d="M 12.5,30 C 18,27 27,27 32.5,30"/><path d="M 12.5,33.5 C 18,30.5 27,30.5 32.5,33.5"/><path d="M 12.5,37 C 18,34 27,34 32.5,37"/></g></symbol>
<symbol id="piece-mce-chess-wW" viewBox="0 0 45 45"><g style="fill:#fff;stroke:#000;stroke-width:1.5;stroke-linejoin:round"><path d="M 22.5,11.63 L 22.5,6" style="fill:none;stroke-linejoin:miter"/><path d="M 20,8 L 25,8" style="fill:none;stroke-linejoin:miter"/><path d="M 22.5,25 C 22.5,25 27,17.5 25.5,14.5 C 25.5,14.5 24.5,12 22.5,12 C 20.5,12 19.5,14.5 19.5,14.5 C 18,17.5 22.5,25 22.5,25"/><path d="M 12.5,37 C 18,40.5 27,40.5 32.5,37 L 32.5,30 C 32.5,30 41.5,25.5 38.5,19.5 C 34.5,13 25,16 22.5,23.5 L 22.5,27 L 22.5,23.5 C 20,16 10.5,13 6.5,19.5 C 3.5,25.5 12.5,30 12.5,30 L 12.5,37"/></g><g transform="translate(14.5,22) scale(0.33)"><path d="M 22,10 C 32.5,11 38.5,18 38,39 L 15,39 C 15,30 25,32.5 23,18" style="fill:#000;stroke:none"/><path d="M 24,18 C 24.38,20.91 18.45,25.37 16,27 C 13,29 13.18,31.34 11,31 C 9.958,30.06 12.41,27.96 11,28 C 10,28 11.19,29.23 10,30 C 9,30 5.997,31 6,26 C 6,24 12,14 12,14 C 12,14 13.89,12.1 14,10.5 C 13.27,9.506 13.5,8.5 13.5,7.5 C 14.5,6.5 16.5,10 16.5,10 L 18.5,10 C 18.5,10 19.28,8.008 21,7 C 22,7 22,10 22,10" style="fill:#000;stroke:none"/></g></symbol>
</defs>

<rect x="24" y="24" width="364" height="280" fill="transparent"/><rect x="52" y="24" width="28" height="28" fill="#b58863" stroke="rgba(0,0,0,0.15)" stroke-width="1" data-sq="b10" data-type="true" class="board-cell"/><rect x="80" y="24" width="28" height="28" fill="#f0d9b5" stroke="rgba(0,0,0,0.15)" stroke-width="1" data-sq="c10" data-type="true" class="board-cell"/><rect x="108" y="24" width="28" height="28" fill="#b58863" stroke="rgba(0,0,0,0.15)" stroke-width="1" data-sq="d10" data-type="true" class="board-cell"/><rect x="136" y="24" width="28" height="28" fill="#f0d9b5" stroke="rgba(0,0,0,0.15)" stroke-width="1" data-sq="e10" data-type="true" class="board-cell"/><rect x="164" y="24" width="28" height="28" fill="#b58863" stroke="rgba(0,0,0,0.15)" stroke-width="1" data-sq="f10" data-type="true" class="board-cell"/><rect x="192" y="24" width="28" height="28" fill="#f0d9b5" stroke="rgba(0,0,0,0.15)" stroke-width="1" data-sq="g10" data-type="true" class="board-cell"/><rect x="220" y="24" width="28" height="28" fill="#b58863" stroke="rgba(0,0,0,0.15)" stroke-width="1" data-sq="h10" data-type="true" class="board-cell"/><rect x="248" y="24" width="28" height="28" fill="#f0d9b5" stroke="rgba(0,0,0,0.15)" stroke-width="1" data-sq="i10" data-type="true" class="board-cell"/><rect x="276" y="24" width="28" height="28" fill="#b58863" stroke="rgba(0,0,0,0.15)" stroke-width="1" data-sq="j10" data-type="true" class="board-cell"/><rect x="304" y="24" width="28" height="28" fill="#f0d9b5" stroke="rgba(0,0,0,0.15)" stroke-width="1" data-sq="k10" data-type="true" class="board-cell"/><rect x="332" y="24" width="28" height="28" fill="#b58863" stroke="rgba(0,0,0,0.15)" stroke-width="1" data-sq="l10" data-type="true" class="board-cell"/><rect x="24" y="52" width="28" height="28" fill="#b58863" stroke="rgba(0,0,0,0.15)" stroke-width="1" data-sq="a9" data-type="true" class="board-cell"/><rect x="52" y="52" width="28" height="28" fill="#f0d9b5" stroke="rgba(0,0,0,0.15)" stroke-width="1" data-sq="b9" data-type="true" class="board-cell"/><rect x="80" y="52" width="28" height="28" fill="#b58863" stroke="rgba(0,0,0,0.15)" stroke-width="1" data-sq="c9" data-type="true" class="board-cell"/><rect x="108" y="52" width="28" height="28" fill="#f0d9b5" stroke="rgba(0,0,0,0.15)" stroke-width="1" data-sq="d9" data-type="true" class="board-cell"/><rect x="136" y="52" width="28" height="28" fill="#b58863" stroke="rgba(0,0,0,0.15)" stroke-width="1" data-sq="e9" data-type="true" class="board-cell"/><rect x="164" y="52" width="28" height="28" fill="#f0d9b5" stroke="rgba(0,0,0,0.15)" stroke-width="1" data-sq="f9" data-type="true" class="board-cell"/><rect x="192" y="52" width="28" height="28" fill="#b58863" stroke="rgba(0,0,0,0.15)" stroke-width="1" data-sq="g9" data-type="true" class="board-cell"/><rect x="220" y="52" width="28" height="28" fill="#f0d9b5" stroke="rgba(0,0,0,0.15)" stroke-width="1" data-sq="h9" data-type="true" class="board-cell"/><rect x="248" y="52" width="28" height="28" fill="#b58863" stroke="rgba(0,0,0,0.15)" stroke-width="1" data-sq="i9" data-type="true" class="board-cell"/><rect x="276" y="52" width="28" height="28" fill="#f0d9b5" stroke="rgba(0,0,0,0.15)" stroke-width="1" data-sq="j9" data-type="true" class="board-cell"/><rect x="304" y="52" width="28" height="28" fill="#b58863" stroke="rgba(0,0,0,0.15)" stroke-width="1" data-sq="k9" data-type="true" class="board-cell"/><rect x="332" y="52" width="28" height="28" fill="#f0d9b5" stroke="rgba(0,0,0,0.15)" stroke-width="1" data-sq="l9" data-type="true" class="board-cell"/><rect x="52" y="80" width="28" height="28" fill="#b58863" stroke="rgba(0,0,0,0.15)" stroke-width="1" data-sq="b8" data-type="true" class="board-cell"/><rect x="80" y="80" width="28" height="28" fill="#f0d9b5" stroke="rgba(0,0,0,0.15)" stroke-width="1" data-sq="c8" data-type="true" class="board-cell"/><rect x="108" y="80" width="28" height="28" fill="#b58863" stroke="rgba(0,0,0,0.15)" stroke-width="1" data-sq="d8" data-type="true" class="board-cell"/><rect x="136" y="80" width="28" height="28" fill="#f0d9b5" stroke="rgba(0,0,0,0.15)" stroke-width="1" data-sq="e8" data-type="true" class="board-cell"/><rect x="164" y="80" width="28" height="28" fill="#b58863" stroke="rgba(0,0,0,0.15)" stroke-width="1" data-sq="f8" data-type="true" class="board-cell"/><rect x="192" y="80" width="28" height="28" fill="#f0d9b5" stroke="rgba(0,0,0,0.15)" stroke-width="1" data-sq="g8" data-type="true" class="board-cell"/><rect x="220" y="80" width="28" height="28" fill="#b58863" stroke="rgba(0,0,0,0.15)" stroke-width="1" data-sq="h8" data-type="true" class="board-cell"/><rect x="248" y="80" width="28" height="28" fill="#f0d9b5" stroke="rgba(0,0,0,0.15)" stroke-width="1" data-sq="i8" data-type="true" class="board-cell"/><rect x="276" y="80" width="28" height="28" fill="#b58863" stroke="rgba(0,0,0,0.15)" stroke-width="1" data-sq="j8" data-type="true" class="board-cell"/><rect x="304" y="80" width="28" height="28" fill="#f0d9b5" stroke="rgba(0,0,0,0.15)" stroke-width="1" data-sq="k8" data-type="true" class="board-cell"/><rect x="332" y="80" width="28" height="28" fill="#b58863" stroke="rgba(0,0,0,0.15)" stroke-width="1" data-sq="l8" data-type="true" class="board-cell"/><rect x="52" y="108" width="28" height="28" fill="#f0d9b5" stroke="rgba(0,0,0,0.15)" stroke-width="1" data-sq="b7" data-type="true" class="board-cell"/><rect x="80" y="108" width="28" height="28" fill="#b58863" stroke="rgba(0,0,0,0.15)" stroke-width="1" data-sq="c7" data-type="true" class="board-cell"/><rect x="108" y="108" width="28" height="28" fill="#f0d9b5" stroke="rgba(0,0,0,0.15)" stroke-width="1" data-sq="d7" data-type="true" class="board-cell"/><rect x="136" y="108" width="28" height="28" fill="#b58863" stroke="rgba(0,0,0,0.15)" stroke-width="1" data-sq="e7" data-type="true" class="board-cell"/><rect x="164" y="108" width="28" height="28" fill="#f0d9b5" stroke="rgba(0,0,0,0.15)" stroke-width="1" data-sq="f7" data-type="true" class="board-cell"/><rect x="192" y="108" width="28" height="28" fill="#b58863" stroke="rgba(0,0,0,0.15)" stroke-width="1" data-sq="g7" data-type="true" class="board-cell"/><rect x="220" y="108" width="28" height="28" fill="#f0d9b5" stroke="rgba(0,0,0,0.15)" stroke-width="1" data-sq="h7" data-type="true" class="board-cell"/><rect x="248" y="108" width="28" height="28" fill="#b58863" stroke="rgba(0,0,0,0.15)" stroke-width="1" data-sq="i7" data-type="true" class="board-cell"/><rect x="276" y="108" width="28" height="28" fill="#f0d9b5" stroke="rgba(0,0,0,0.15)" stroke-width="1" data-sq="j7" data-type="true" class="board-cell"/><rect x="304" y="108" width="28" height="28" fill="#b58863" stroke="rgba(0,0,0,0.15)" stroke-width="1" data-sq="k7" data-type="true" class="board-cell"/><rect x="332" y="108" width="28" height="28" fill="#f0d9b5" stroke="rgba(0,0,0,0.15)" stroke-width="1" data-sq="l7" data-type="true" class="board-cell"/><rect x="52" y="136" width="28" height="28" fill="#b58863" stroke="rgba(0,0,0,0.15)" stroke-width="1" data-sq="b6" data-type="true" class="board-cell"/><rect x="80" y="136" width="28" height="28" fill="#f0d9b5" stroke="rgba(0,0,0,0.15)" stroke-width="1" data-sq="c6" data-type="true" class="board-cell"/><rect x="108" y="136" width="28" height="28" fill="#b58863" stroke="rgba(0,0,0,0.15)" stroke-width="1" data-sq="d6" data-type="true" class="board-cell"/><rect x="136" y="136" width="28" height="28" fill="#f0d9b5" stroke="rgba(0,0,0,0.15)" stroke-width="1" data-sq="e6" data-type="true" class="board-cell"/><rect x="164" y="136" width="28" height="28" fill="#b58863" stroke="rgba(0,0,0,0.15)" stroke-width="1" data-sq="f6" data-type="true" class="board-cell"/><rect x="192" y="136" width="28" height="28" fill="#f0d9b5" stroke="rgba(0,0,0,0.15)" stroke-width="1" data-sq="g6" data-type="true" class="board-cell"/><rect x="220" y="136" width="28" height="28" fill="#b58863" stroke="rgba(0,0,0,0.15)" stroke-width="1" data-sq="h6" data-type="true" class="board-cell"/><rect x="248" y="136" width="28" height="28" fill="#f0d9b5" stroke="rgba(0,0,0,0.15)" stroke-width="1" data-sq="i6" data-type="true" class="board-cell"/><rect x="276" y="136" width="28" height="28" fill="#b58863" stroke="rgba(0,0,0,0.15)" stroke-width="1" data-sq="j6" data-type="true" class="board-cell"/><rect x="304" y="136" width="28" height="28" fill="#f0d9b5" stroke="rgba(0,0,0,0.15)" stroke-width="1" data-sq="k6" data-type="true" class="board-cell"/><rect x="332" y="136" width="28" height="28" fill="#b58863" stroke="rgba(0,0,0,0.15)" stroke-width="1" data-sq="l6" data-type="true" class="board-cell"/><rect x="52" y="164" width="28" height="28" fill="#f0d9b5" stroke="rgba(0,0,0,0.15)" stroke-width="1" data-sq="b5" data-type="true" class="board-cell"/><rect x="80" y="164" width="28" height="28" fill="#b58863" stroke="rgba(0,0,0,0.15)" stroke-width="1" data-sq="c5" data-type="true" class="board-cell"/><rect x="108" y="164" width="28" height="28" fill="#f0d9b5" stroke="rgba(0,0,0,0.15)" stroke-width="1" data-sq="d5" data-type="true" class="board-cell"/><rect x="136" y="164" width="28" height="28" fill="#b58863" stroke="rgba(0,0,0,0.15)" stroke-width="1" data-sq="e5" data-type="true" class="board-cell"/><rect x="164" y="164" width="28" height="28" fill="#f0d9b5" stroke="rgba(0,0,0,0.15)" stroke-width="1" data-sq="f5" data-type="true" class="board-cell"/><rect x="192" y="164" width="28" height="28" fill="#b58863" stroke="rgba(0,0,0,0.15)" stroke-width="1" data-sq="g5" data-type="true" class="board-cell"/><rect x="220" y="164" width="28" height="28" fill="#f0d9b5" stroke="rgba(0,0,0,0.15)" stroke-width="1" data-sq="h5" data-type="true" class="board-cell"/><rect x="248" y="164" width="28" height="28" fill="#b58863" stroke="rgba(0,0,0,0.15)" stroke-width="1" data-sq="i5" data-type="true" class="board-cell"/><rect x="276" y="164" width="28" height="28" fill="#f0d9b5" stroke="rgba(0,0,0,0.15)" stroke-width="1" data-sq="j5" data-type="true" class="board-cell"/><rect x="304" y="164" width="28" height="28" fill="#b58863" stroke="rgba(0,0,0,0.15)" stroke-width="1" data-sq="k5" data-type="true" class="board-cell"/><rect x="332" y="164" width="28" height="28" fill="#f0d9b5" stroke="rgba(0,0,0,0.15)" stroke-width="1" data-sq="l5" data-type="true" class="board-cell"/><rect x="52" y="192" width="28" height="28" fill="#b58863" stroke="rgba(0,0,0,0.15)" stroke-width="1" data-sq="b4" data-type="true" class="board-cell"/><rect x="80" y="192" width="28" height="28" fill="#f0d9b5" stroke="rgba(0,0,0,0.15)" stroke-width="1" data-sq="c4" data-type="true" class="board-cell"/><rect x="108" y="192" width="28" height="28" fill="#b58863" stroke="rgba(0,0,0,0.15)" stroke-width="1" data-sq="d4" data-type="true" class="board-cell"/><rect x="136" y="192" width="28" height="28" fill="#f0d9b5" stroke="rgba(0,0,0,0.15)" stroke-width="1" data-sq="e4" data-type="true" class="board-cell"/><rect x="164" y="192" width="28" height="28" fill="#b58863" stroke="rgba(0,0,0,0.15)" stroke-width="1" data-sq="f4" data-type="true" class="board-cell"/><rect x="192" y="192" width="28" height="28" fill="#f0d9b5" stroke="rgba(0,0,0,0.15)" stroke-width="1" data-sq="g4" data-type="true" class="board-cell"/><rect x="220" y="192" width="28" height="28" fill="#b58863" stroke="rgba(0,0,0,0.15)" stroke-width="1" data-sq="h4" data-type="true" class="board-cell"/><rect x="248" y="192" width="28" height="28" fill="#f0d9b5" stroke="rgba(0,0,0,0.15)" stroke-width="1" data-sq="i4" data-type="true" class="board-cell"/><rect x="276" y="192" width="28" height="28" fill="#b58863" stroke="rgba(0,0,0,0.15)" stroke-width="1" data-sq="j4" data-type="true" class="board-cell"/><rect x="304" y="192" width="28" height="28" fill="#f0d9b5" stroke="rgba(0,0,0,0.15)" stroke-width="1" data-sq="k4" data-type="true" class="board-cell"/><rect x="332" y="192" width="28" height="28" fill="#b58863" stroke="rgba(0,0,0,0.15)" stroke-width="1" data-sq="l4" data-type="true" class="board-cell"/><rect x="52" y="220" width="28" height="28" fill="#f0d9b5" stroke="rgba(0,0,0,0.15)" stroke-width="1" data-sq="b3" data-type="true" class="board-cell"/><rect x="80" y="220" width="28" height="28" fill="#b58863" stroke="rgba(0,0,0,0.15)" stroke-width="1" data-sq="c3" data-type="true" class="board-cell"/><rect x="108" y="220" width="28" height="28" fill="#f0d9b5" stroke="rgba(0,0,0,0.15)" stroke-width="1" data-sq="d3" data-type="true" class="board-cell"/><rect x="136" y="220" width="28" height="28" fill="#b58863" stroke="rgba(0,0,0,0.15)" stroke-width="1" data-sq="e3" data-type="true" class="board-cell"/><rect x="164" y="220" width="28" height="28" fill="#f0d9b5" stroke="rgba(0,0,0,0.15)" stroke-width="1" data-sq="f3" data-type="true" class="board-cell"/><rect x="192" y="220" width="28" height="28" fill="#b58863" stroke="rgba(0,0,0,0.15)" stroke-width="1" data-sq="g3" data-type="true" class="board-cell"/><rect x="220" y="220" width="28" height="28" fill="#f0d9b5" stroke="rgba(0,0,0,0.15)" stroke-width="1" data-sq="h3" data-type="true" class="board-cell"/><rect x="248" y="220" width="28" height="28" fill="#b58863" stroke="rgba(0,0,0,0.15)" stroke-width="1" data-sq="i3" data-type="true" class="board-cell"/><rect x="276" y="220" width="28" height="28" fill="#f0d9b5" stroke="rgba(0,0,0,0.15)" stroke-width="1" data-sq="j3" data-type="true" class="board-cell"/><rect x="304" y="220" width="28" height="28" fill="#b58863" stroke="rgba(0,0,0,0.15)" stroke-width="1" data-sq="k3" data-type="true" class="board-cell"/><rect x="332" y="220" width="28" height="28" fill="#f0d9b5" stroke="rgba(0,0,0,0.15)" stroke-width="1" data-sq="l3" data-type="true" class="board-cell"/><rect x="52" y="248" width="28" height="28" fill="#b58863" stroke="rgba(0,0,0,0.15)" stroke-width="1" data-sq="b2" data-type="true" class="board-cell"/><rect x="80" y="248" width="28" height="28" fill="#f0d9b5" stroke="rgba(0,0,0,0.15)" stroke-width="1" data-sq="c2" data-type="true" class="board-cell"/><rect x="108" y="248" width="28" height="28" fill="#b58863" stroke="rgba(0,0,0,0.15)" stroke-width="1" data-sq="d2" data-type="true" class="board-cell"/><rect x="136" y="248" width="28" height="28" fill="#f0d9b5" stroke="rgba(0,0,0,0.15)" stroke-width="1" data-sq="e2" data-type="true" class="board-cell"/><rect x="164" y="248" width="28" height="28" fill="#b58863" stroke="rgba(0,0,0,0.15)" stroke-width="1" data-sq="f2" data-type="true" class="board-cell"/><rect x="192" y="248" width="28" height="28" fill="#f0d9b5" stroke="rgba(0,0,0,0.15)" stroke-width="1" data-sq="g2" data-type="true" class="board-cell"/><rect x="220" y="248" width="28" height="28" fill="#b58863" stroke="rgba(0,0,0,0.15)" stroke-width="1" data-sq="h2" data-type="true" class="board-cell"/><rect x="248" y="248" width="28" height="28" fill="#f0d9b5" stroke="rgba(0,0,0,0.15)" stroke-width="1" data-sq="i2" data-type="true" class="board-cell"/><rect x="276" y="248" width="28" height="28" fill="#b58863" stroke="rgba(0,0,0,0.15)" stroke-width="1" data-sq="j2" data-type="true" class="board-cell"/><rect x="304" y="248" width="28" height="28" fill="#f0d9b5" stroke="rgba(0,0,0,0.15)" stroke-width="1" data-sq="k2" data-type="true" class="board-cell"/><rect x="332" y="248" width="28" height="28" fill="#b58863" stroke="rgba(0,0,0,0.15)" stroke-width="1" data-sq="l2" data-type="true" class="board-cell"/><rect x="360" y="248" width="28" height="28" fill="#f0d9b5" stroke="rgba(0,0,0,0.15)" stroke-width="1" data-sq="m2" data-type="true" class="board-cell"/><rect x="52" y="276" width="28" height="28" fill="#f0d9b5" stroke="rgba(0,0,0,0.15)" stroke-width="1" data-sq="b1" data-type="true" class="board-cell"/><rect x="80" y="276" width="28" height="28" fill="#b58863" stroke="rgba(0,0,0,0.15)" stroke-width="1" data-sq="c1" data-type="true" class="board-cell"/><rect x="108" y="276" width="28" height="28" fill="#f0d9b5" stroke="rgba(0,0,0,0.15)" stroke-width="1" data-sq="d1" data-type="true" class="board-cell"/><rect x="136" y="276" width="28" height="28" fill="#b58863" stroke="rgba(0,0,0,0.15)" stroke-width="1" data-sq="e1" data-type="true" class="board-cell"/><rect x="164" y="276" width="28" height="28" fill="#f0d9b5" stroke="rgba(0,0,0,0.15)" stroke-width="1" data-sq="f1" data-type="true" class="board-cell"/><rect x="192" y="276" width="28" height="28" fill="#b58863" stroke="rgba(0,0,0,0.15)" stroke-width="1" data-sq="g1" data-type="true" class="board-cell"/><rect x="220" y="276" width="28" height="28" fill="#f0d9b5" stroke="rgba(0,0,0,0.15)" stroke-width="1" data-sq="h1" data-type="true" class="board-cell"/><rect x="248" y="276" width="28" height="28" fill="#b58863" stroke="rgba(0,0,0,0.15)" stroke-width="1" data-sq="i1" data-type="true" class="board-cell"/><rect x="276" y="276" width="28" height="28" fill="#f0d9b5" stroke="rgba(0,0,0,0.15)" stroke-width="1" data-sq="j1" data-type="true" class="board-cell"/><rect x="304" y="276" width="28" height="28" fill="#b58863" stroke="rgba(0,0,0,0.15)" stroke-width="1" data-sq="k1" data-type="true" class="board-cell"/><rect x="332" y="276" width="28" height="28" fill="#f0d9b5" stroke="rgba(0,0,0,0.15)" stroke-width="1" data-sq="l1" data-type="true" class="board-cell"/>
<g pointer-events="none"><use href="#piece-mce-chess-bR" x="52" y="24" width="28" height="28"/><use href="#piece-mce-chess-bN" x="80" y="24" width="28" height="28"/><use href="#piece-playstrategy-mono-tower" x="108" y="24" width="28" height="28"/><use href="#piece-wikimedia-standard-Chess_Zdt45" x="136" y="24" width="28" height="28"/><use href="#piece-mce-chess-bF" x="164" y="24" width="28" height="28"/><use href="#piece-mce-chess-bK" x="192" y="24" width="28" height="28"/><use href="#piece-mce-chess-bW" x="220" y="24" width="28" height="28"/><use href="#piece-wikimedia-standard-Chess_Zdt45" x="248" y="24" width="28" height="28"/><use href="#piece-playstrategy-mono-tower" x="276" y="24" width="28" height="28"/><use href="#piece-mce-chess-bN" x="304" y="24" width="28" height="28"/><use href="#piece-mce-chess-bR" x="332" y="24" width="28" height="28"/><use href="#piece-mce-chess-bE" x="52" y="52" width="28" height="28"/><use href="#piece-wikimedia-fairy-Black_chess_giraffe" x="108" y="52" width="28" height="28"/><use href="#piece-wikimedia-fairy-Black_dabbaba" x="164" y="52" width="28" height="28"/><use href="#piece-wikimedia-fairy-Black_dabbaba" x="220" y="52" width="28" height="28"/><use href="#piece-wikimedia-fairy-Black_chess_giraffe" x="276" y="52" width="28" height="28"/><use href="#piece-mce-chess-bE" x="332" y="52" width="28" height="28"/><use href="#piece-mce-chess-bP" x="52" y="80" width="28" height="28"/><use href="#piece-mce-chess-bP" x="80" y="80" width="28" height="28"/><use href="#piece-mce-chess-bP" x="108" y="80" width="28" height="28"/><use href="#piece-mce-chess-bP" x="136" y="80" width="28" height="28"/><use href="#piece-mce-chess-bP" x="164" y="80" width="28" height="28"/><use href="#piece-mce-chess-bP" x="192" y="80" width="28" height="28"/><use href="#piece-mce-chess-bP" x="220" y="80" width="28" height="28"/><use href="#piece-mce-chess-bP" x="248" y="80" width="28" height="28"/><use href="#piece-mce-chess-bP" x="276" y="80" width="28" height="28"/><use href="#piece-mce-chess-bP" x="304" y="80" width="28" height="28"/><use href="#piece-mce-chess-bP" x="332" y="80" width="28" height="28"/><use href="#piece-mce-chess-wP" x="52" y="220" width="28" height="28"/><use href="#piece-mce-chess-wP" x="80" y="220" width="28" height="28"/><use href="#piece-mce-chess-wP" x="108" y="220" width="28" height="28"/><use href="#piece-mce-chess-wP" x="136" y="220" width="28" height="28"/><use href="#piece-mce-chess-wP" x="164" y="220" width="28" height="28"/><use href="#piece-mce-chess-wP" x="192" y="220" width="28" height="28"/><use href="#piece-mce-chess-wP" x="220" y="220" width="28" height="28"/><use href="#piece-mce-chess-wP" x="248" y="220" width="28" height="28"/><use href="#piece-mce-chess-wP" x="276" y="220" width="28" height="28"/><use href="#piece-mce-chess-wP" x="304" y="220" width="28" height="28"/><use href="#piece-mce-chess-wP" x="332" y="220" width="28" height="28"/><use href="#piece-mce-chess-wE" x="52" y="248" width="28" height="28"/><use href="#piece-wikimedia-fairy-White_chess_giraffe" x="108" y="248" width="28" height="28"/><use href="#piece-wikimedia-fairy-White_dabbaba" x="164" y="248" width="28" height="28"/><use href="#piece-wikimedia-fairy-White_dabbaba" x="220" y="248" width="28" height="28"/><use href="#piece-wikimedia-fairy-White_chess_giraffe" x="276" y="248" width="28" height="28"/><use href="#piece-mce-chess-wE" x="332" y="248" width="28" height="28"/><use href="#piece-mce-chess-wR" x="52" y="276" width="28" height="28"/><use href="#piece-mce-chess-wN" x="80" y="276" width="28" height="28"/><use href="#piece-playstrategy-mono-tower" x="108" y="276" width="28" height="28"/><use href="#piece-wikimedia-standard-Chess_Zlt45" x="136" y="276" width="28" height="28"/><use href="#piece-mce-chess-wF" x="164" y="276" width="28" height="28"/><use href="#piece-mce-chess-wK" x="192" y="276" width="28" height="28"/><use href="#piece-mce-chess-wW" x="220" y="276" width="28" height="28"/><use href="#piece-wikimedia-standard-Chess_Zlt45" x="248" y="276" width="28" height="28"/><use href="#piece-playstrategy-mono-tower" x="276" y="276" width="28" height="28"/><use href="#piece-mce-chess-wN" x="304" y="276" width="28" height="28"/><use href="#piece-mce-chess-wR" x="332" y="276" width="28" height="28"/></g>
<text x="38" y="319.6" text-anchor="middle" font-size="13" fill="#5c3a1e" font-family="monospace">a</text><text x="66" y="319.6" text-anchor="middle" font-size="13" fill="#5c3a1e" font-family="monospace">b</text><text x="94" y="319.6" text-anchor="middle" font-size="13" fill="#5c3a1e" font-family="monospace">c</text><text x="122" y="319.6" text-anchor="middle" font-size="13" fill="#5c3a1e" font-family="monospace">d</text><text x="150" y="319.6" text-anchor="middle" font-size="13" fill="#5c3a1e" font-family="monospace">e</text><text x="178" y="319.6" text-anchor="middle" font-size="13" fill="#5c3a1e" font-family="monospace">f</text><text x="206" y="319.6" text-anchor="middle" font-size="13" fill="#5c3a1e" font-family="monospace">g</text><text x="234" y="319.6" text-anchor="middle" font-size="13" fill="#5c3a1e" font-family="monospace">h</text><text x="262" y="319.6" text-anchor="middle" font-size="13" fill="#5c3a1e" font-family="monospace">i</text><text x="290" y="319.6" text-anchor="middle" font-size="13" fill="#5c3a1e" font-family="monospace">j</text><text x="318" y="319.6" text-anchor="middle" font-size="13" fill="#5c3a1e" font-family="monospace">k</text><text x="346" y="319.6" text-anchor="middle" font-size="13" fill="#5c3a1e" font-family="monospace">l</text><text x="374" y="319.6" text-anchor="middle" font-size="13" fill="#5c3a1e" font-family="monospace">m</text><text x="12" y="42.55" text-anchor="middle" font-size="13" fill="#5c3a1e" font-family="monospace">10</text><text x="12" y="70.55" text-anchor="middle" font-size="13" fill="#5c3a1e" font-family="monospace">9</text><text x="12" y="98.55" text-anchor="middle" font-size="13" fill="#5c3a1e" font-family="monospace">8</text><text x="12" y="126.55" text-anchor="middle" font-size="13" fill="#5c3a1e" font-family="monospace">7</text><text x="12" y="154.55" text-anchor="middle" font-size="13" fill="#5c3a1e" font-family="monospace">6</text><text x="12" y="182.55" text-anchor="middle" font-size="13" fill="#5c3a1e" font-family="monospace">5</text><text x="12" y="210.55" text-anchor="middle" font-size="13" fill="#5c3a1e" font-family="monospace">4</text><text x="12" y="238.55" text-anchor="middle" font-size="13" fill="#5c3a1e" font-family="monospace">3</text><text x="12" y="266.55" text-anchor="middle" font-size="13" fill="#5c3a1e" font-family="monospace">2</text><text x="12" y="294.55" text-anchor="middle" font-size="13" fill="#5c3a1e" font-family="monospace">1</text>
</svg>