<svg xmlns="http://www.w3.org/2000/svg" viewBox="0 0 368 368" width="368" height="368">
<defs>
<symbol id="piece-mce-chess-bC" viewBox="0 0 45 45"><g style="fill:#000;stroke:#000;stroke-width:1.5;stroke-linecap:round;stroke-linejoin:round"><path d="M 9,39 L 36,39 L 36,36 L 9,36 L 9,39 z"/><path d="M 12,36 L 12,32 L 33,32 L 33,36 L 12,36 z"/><path d="M 11,14 L 11,9 L 15,9 L 15,11 L 20,11 L 20,9 L 25,9 L 25,11 L 30,11 L 30,9 L 34,9 L 34,14"/><path d="M 34,14 L 31,17 L 14,17 L 11,14"/><path d="M 31,17 L 31,29.5 L 14,29.5 L 14,17"/><path d="M 31,29.5 L 32.5,32 L 12.5,32 L 14,29.5"/><path d="M 11,14 L 34,14" style="fill:none;stroke:#fff;stroke-linejoin:miter"/><path d="M 12,35.5 L 33,35.5" style="fill:none;stroke:#fff;stroke-width:1"/><path d="M 13,31.5 L 32,31.5" style="fill:none;stroke:#fff;stroke-width:1"/><path d="M 14,29.5 L 31,29.5" style="fill:none;stroke:#fff;stroke-width:1"/></g><g transform="translate(14.5,15) scale(0.33)"><path d="M 22,10 C 32.5,11 38.5,18 38,39 L 15,39 C 15,30 25,32.5 23,18" style="fill:#fff;stroke:none"/><path d="M 24,18 C 24.38,20.91 18.45,25.37 16,27 C 13,29 13.18,31.34 11,31 C 9.958,30.06 12.41,27.96 11,28 C 10,28 11.19,29.23 10,30 C 9,30 5.997,31 6,26 C 6,24 12,14 12,14 C 12,14 13.89,12.1 14,10.5 C 13.27,9.506 13.5,8.5 13.5,7.5 C 14.5,6.5 16.5,10 16.5,10 L 18.5,10 C 18.5,10 19.28,8.008 21,7 C 22,7 22,10 22,10" style="fill:#fff;stroke:none"/></g></symbol>
<symbol id="piece-mce-chess-bM" viewBox="0 0 45 45"><g style="fill:#000;stroke:#000;stroke-width:1.5;stroke-linejoin:round"><path d="M 9,26 C 17.5,24.5 30,24.5 36,26 L 38.5,13.5 L 31,25 L 30.7,10.9 L 25.5,24.5 L 22.5,10 L 19.5,24.5 L 14.3,10.9 L 14,25 L 6.5,13.5 L 9,26 z"/><path d="M 9,26 C 9,28 10.5,28 11.5,30 C 12.5,31.5 12.5,31 12,33.5 C 10.5,34.5 11,36 11,36 C 9.5,37.5 11.5,38.5 11.5,38.5 C 17.5,39.5 27.5,39.5 33.5,38.5 C 33.5,38.5 35.5,37.5 34,36 C 34,36 34.5,34.5 33,33.5 C 32.5,31 32.5,31.5 33.5,30 C 34.5,28 36,28 36,26 C 27.5,24.5 17.5,24.5 9,26 z"/><circle cx="6" cy="12" r="2" style="fill:#fff"/><circle cx="14" cy="9" r="2" style="fill:#fff"/><circle cx="22.5" cy="8" r="2" style="fill:#fff"/><circle cx="31" cy="9" r="2" style="fill:#fff"/><circle cx="39" cy="12" r="2" style="fill:#fff"/></g><g transform="translate(14.5,24) scale(0.33)"><path d="M 22,10 C 32.5,11 38.5,18 38,39 L 15,39 C 15,30 25,32.5 23,18" style="fill:#fff;stroke:none"/><path d="M 24,18 C 24.38,20.91 18.45,25.37 16,27 C 13,29 13.18,31.34 11,31 C 9.958,30.06 12.41,27.96 11,28 C 10,28 11.19,29.23 10,30 C 9,30 5.997,31 6,26 C 6,24 12,14 12,14 C 12,14 13.89,12.1 14,10.5 C 13.27,9.506 13.5,8.5 13.5,7.5 C 14.5,6.5 16.5,10 16.5,10 L 18.5,10 C 18.5,10 19.28,8.008 21,7 C 22,7 22,10 22,10" style="fill:#fff;stroke:none"/></g></symbol>
<symbol id="piece-wikimedia-standard-Chess_Udt45" viewBox="0 0 45 45"><g>
  <title>Unicorn</title>
  <g id="Head" style="opacity:1; fill:none; fill-opacity:1; fill-rule:evenodd; stroke:#000000; stroke-width:1.5; stroke-linecap:round;stroke-linejoin:round;stroke-miterlimit:4; stroke-dasharray:none; stroke-opacity:1;">
    <path id="Neck" d="M 22,10 C 32.5,11 38.5,18 38,39 L 15,39 C 15,30 25,32.5 23,18" style="fill:#000000; stroke:#000000;"/>
    <path id="Face" fill="#000000" d="m24,18c0.38,2.91 -5.55,7.37 -8,9c-3,2 -2.82,4.34 -5,4c-1.042,-0.94 1.41,-3.04 0,-3c-1,0 0.19,1.23 -1,2c-1,0 -4,1 -4,-4c0,-2 6,-12 6,-12c0,0 -7.5275,-6.475 -7.0413,-7.15c0.4863,-0.675 8.9863,4.45 9.0413,3.65c-0.73,-0.994 -0.5,-2 -0.5,-3c1,-1 3,2.5 3,2.5l2,0c0,0 0.78,-1.992 2.5,-3c1,0 1,3 1,3" style="fill:#000000; stroke:#000000;"/>
    <path id="Nose" d="M 9.5 25.5 A 0.5 0.5 0 1 1 8.5,25.5 A 0.5 0.5 0 1 1 9.5 25.5 z" style="fill:#ffffff; stroke:#ffffff;"/>
    <path id="Eye" d="M 15 15.5 A 0.5 1.5 0 1 1  14,15.5 A 0.5 1.5 0 1 1  15 15.5 z" transform="matrix(0.866,0.5,-0.5,0.866,9.693,-5.173)" style="fill:#ffffff; stroke:#ffffff;"/>
    <path id="Mane" d="M 24.55,10.4 L 24.1,11.85 L 24.6,12 C 27.75,13 30.25,14.49 32.5,18.75 C 34.75,23.01 35.75,29.06 35.25,39 L 35.2,39.5 L 37.45,39.5 L 37.5,39 C 38,28.94 36.62,22.15 34.25,17.66 C 31.88,13.17 28.46,11.02 25.06,10.5 L 24.55,10.4 z " style="fill:#ffffff; stroke:none;"/>
  </g>
 </g></symbol>
<symbol id="piece-wikimedia-fairy-Black_chess_giraffe" viewBox="0 0 12 12"><path d="m8.959 8.142-.421-.28h-3.65l-.421.28Zm-.562-.561v-.14l-.561-.282H5.59l-.562.281v.14ZM4.304 1.982q0 .073.034.14.039.068.106.107.068.034.14.034.074 0 .141-.034.067-.04.101-.106.04-.068.04-.14 0-.074-.04-.141-.034-.068-.1-.101-.068-.04-.141-.04-.073 0-.14.04-.068.033-.107.1-.034.068-.034.141zM2.72 3.992q0 .073.034.14.04.068.107.108.067.033.14.033.073 0 .084-.033.012-.04-.039-.107-.045-.068-.045-.14 0-.074.045-.14.05-.068.04-.102-.012-.04-.085-.04-.073 0-.14.04-.068.034-.107.101-.034.067-.034.14zm4.504-1.74.893 4.767.561.28v.282l.843.561v.842H3.905v-.842l.843-.561V7.3l.561-.281V4.621q-.017-.27-.084-.337-.068-.067-.264-.078-.242-.04-1.045.5-.797.533-1.145.146-.292-.455-.292-.82 0-.365.6-.899.607-.539.647-.96.039-.421.438-.786.258-.18.572-.27.169-.05.32-.073Q4.99.601 4.95.534q-.034-.068-.034-.14 0-.074.034-.141.039-.068.106-.101.068-.04.14-.04.074 0 .141.04.068.033.101.1.04.068.04.141 0 .073-.04.14-.033.068-.1.495.128.005.392.033-.067-.572-.106-.64Q5.59.354 5.59.281q0-.073.034-.14.039-.068.106-.102Q5.798 0 5.87 0q.074 0 .141.04.067.033.101.1.04.068.04.14 0 .074-.04.141-.034.068-.101.668l.09.012q.208-.107.455-.18.522-.174 1.078-.213-.04.555-.208 1.083-.079.247-.202.46Zm.27-1.404q-.455.034-.882.174-.152.045-.28.14-.405.343-.557.72l.163.14q.034-.08.067-.14.242-.433.77-.686.27-.123.488-.168-.04.286-.241.69-.253.5-.685.741-.062.029-.14.062l.14.163q.426-.19.59-.331.162-.14.246-.292.096-.152.152-.326.135-.432.168-.887Zm-.837 4.644q-.23-.753-1.112-1.028v1.19l.505.382q.275-.325.607-.544Zm-.146.971q.331.22.606.545l.506-.382v-1.19Q6.74 5.71 6.51 6.463Zm-.764-2.909q.23.753 1.112 1.028v-1.19l-.505-.382q-.276.325-.607.544Z" style="font-size:11.5px;line-height:0;font-family:Quivira;stroke-width:.15;stroke-linecap:square;stroke-linejoin:bevel;paint-order:markers stroke fill"/></symbol>
<symbol id="piece-playstrategy-mono-tower" viewBox="0 0 12.699667 12.699667"><defs>
    <linearGradient
       id="0"
       x1="21.375999"
       x2="77.639999"
       gradientUnits="userSpaceOnUse">
      <stop
         stop-color="#fff"
         id="stop1711" />
      <stop
         offset="1"
         stop-color="#fff"
         stop-opacity="0"
         id="stop1713" />
    </linearGradient>
  </defs>
  <g
     id="g2346"
     transform="matrix(0.21561852,0,0,0.21561852,-9.2382782,1.0446959)"
     style="fill:#888888;fill-opacity:1;stroke-width:1.96329;stroke-miterlimit:4;stroke-dasharray:none;stroke:#888888;stroke-opacity:1">
    <path
       style="fill:#888888;fill-opacity:1;stroke:#888888;stroke-width:1.96329;stroke-linecap:butt;stroke-linejoin:round;stroke-miterlimit:4;stroke-dasharray:none;stroke-opacity:1"
       d="M 77.01174,6.6646411 H 57.922216 V 43.633418 H 87.464014 C 84.800606,33.069099 80.963403,19.989506 77.01174,6.6646411 Z"
       id="path1728" />
    <circle
       style="fill:#888888;fill-opacity:1;stroke:#888888;stroke-width:1.96329;stroke-miterlimit:4;stroke-dasharray:none;stroke-opacity:1"
       id="circle2293"
       cx="85.307617"
       cy="41.959423"
       r="4.2410712" />
    <path
       style="fill:#888888;fill-opacity:1;stroke:#888888;stroke-width:1.96329;stroke-linecap:butt;stroke-linejoin:miter;stroke-miterlimit:4;stroke-dasharray:none;stroke-opacity:1"
       d="M 77.01174,6.6646411 V 43.898808"
       id="path2295" />
    <path
       style="fill:#888888;fill-opacity:1;stroke:#888888;stroke-width:1.96329;stroke-linecap:butt;stroke-linejoin:miter;stroke-miterlimit:4;stroke-dasharray:none;stroke-opacity:1"
       d="M 58.21581,25.298871 H 82.676576"
       id="path2297" />
    <path
       style="fill:#888888;fill-opacity:1;stroke:#888888;stroke-width:1.96329;stroke-linecap:butt;stroke-linejoin:miter;stroke-miterlimit:4;stroke-dasharray:none;stroke-opacity:1"
       d="M 57.922214,43.633419 77.02705,25.654604"
       id="path2299" />
    <circle
       style="fill:#888888;fill-opacity:1;stroke:#888888;stroke-width:1.96329;stroke-miterlimit:4;stroke-dasharray:none;stroke-opacity:1"
       id="path2291"
       cx="59.282112"
       cy="41.959423"
       r="4.2410712" />
    <path
       style="fill:#888888;fill-opacity:1;stroke:#888888;stroke-width:1.96329;stroke-linecap:butt;stroke-linejoin:miter;stroke-miterlimit:4;stroke-dasharray:none;stroke-opacity:1"
       d="M 57.922214,6.6837255 77.02705,25.654604"
       id="path2303" />
  </g></symbol>
<symbol id="piece-mce-chess-bP" viewBox="0 0 45 45"><path d="M 22,9 C 19.79,9 18,10.79 18,13 C 18,13.89 18.29,14.71 18.78,15.38 C 16.83,16.5 15.5,18.59 15.5,21 C 15.5,23.03 16.44,24.84 17.91,26.03 C 14.91,27.09 10.5,31.58 10.5,39.5 L 33.5,39.5 C 33.5,31.58 29.09,27.09 26.09,26.03 C 27.56,24.84 28.5,23.03 28.5,21 C 28.5,18.59 27.17,16.5 25.22,15.38 C 25.71,14.71 26,13.89 26,13 C 26,10.79 24.21,9 22,9 z" style="fill:#000;stroke:#000;stroke-width:1.5;stroke-linecap:round"/></symbol>
<symbol id="piece-mce-chess-wP" viewBox="0 0 45 45"><path d="M 22,9 C 19.79,9 18,10.79 18,13 C 18,13.89 18.29,14.71 18.78,15.38 C 16.83,16.5 15.5,18.59 15.5,21 C 15.5,23.03 16.44,24.84 17.91,26.03 C 14.91,27.09 10.5,31.58 10.5,39.5 L 33.5,39.5 C 33.5,31.58 29.09,27.09 26.09,26.03 C 27.56,24.84 28.5,23.03 28.5,21 C 28.5,18.59 27.17,16.5 25.22,15.38 C 25.71,14.71 26,13.89 26,13 C 26,10.79 24.21,9 22,9 z" style="fill:#fff;stroke:#000;stroke-width:1.5;stroke-linecap:round"/></symbol>
<symbol id="piece-mce-chess-wR" viewBox="0 0 45 45"><g style="fill:#fff;stroke:#000;stroke-width:1.5;stroke-linecap:round;stroke-linejoin:round"><path d="M 9,39 L 36,39 L 36,36 L 9,36 L 9,39 z"/><path d="M 12,36 L 12,32 L 33,32 L 33,36 L 12,36 z"/><path d="M 11,14 L 11,9 L 15,9 L 15,11 L 20,11 L 20,9 L 25,9 L 25,11 L 30,11 L 30,9 L 34,9 L 34,14"/><path d="M 34,14 L 31,17 L 14,17 L 11,14"/><path d="M 31,17 L 31,29.5 L 14,29.5 L 14,17"/><path d="M 31,29.5 L 32.5,32 L 12.5,32 L 14,29.5"/><path d="M 11,14 L 34,14" style="fill:none"/></g></symbol>
<symbol id="piece-mce-chess-wN" viewBox="0 0 45 45"><g style="fill:none;stroke:#000;stroke-width:1.5;stroke-linecap:round;stroke-linejoin:round"><path d="M 22,10 C 32.5,11 38.5,18 38,39 L 15,39 C 15,30 25,32.5 23,18" style="fill:#fff"/><path d="M 24,18 C 24.38,20.91 18.45,25.37 16,27 C 13,29 13.18,31.34 11,31 C 9.958,30.06 12.41,27.96 11,28 C 10,28 11.19,29.23 10,30 C 9,30 5.997,31 6,26 C 6,24 12,14 12,14 C 12,14 13.89,12.1 14,10.5 C 13.27,9.506 13.5,8.5 13.5,7.5 C 14.5,6.5 16.5,10 16.5,10 L 18.5,10 C 18.5,10 19.28,8.008 21,7 C 22,7 22,10 22,10" style="fill:#fff"/><path d="M 9.5,25.5 A 0.5,0.5 0 1 1 8.5,25.5 A 0.5,0.5 0 1 1 9.5,25.5 z" style="fill:#000"/><path d="M 15,15.5 A 0.5,1.5 0 1 1 14,15.5 A 0.5,1.5 0 1 1 15,15.5 z" transform="matrix(0.866,0.5,-0.5,0.866,9.693,-5.173)" style="fill:#000"/></g></symbol>
<symbol id="piece-mce-chess-wB" viewBox="0 0 45 45"><g style="fill:none;stroke:#000;stroke-width:1.5;stroke-linecap:round;stroke-linejoin:round"><g style="fill:#fff;stroke-linecap:butt"><path d="M 9,36 C 12.39,35.03 19.11,36.43 22.5,34 C 25.89,36.43 32.61,35.03 36,36 C 36,36 37.65,36.54 39,38 C 38.32,38.97 37.2,38.91 36,38.5 C 32.61,37.53 25.89,38.96 22.5,37.5 C 19.11,38.96 12.39,37.53 9,38.5 C 7.8,38.91 6.68,38.97 6,38 C 7.35,36.54 9,36 9,36 z"/><path d="M 15,32 C 17.5,34.5 27.5,34.5 30,32 C 30.5,30.5 30,30 30,30 C 30,27.5 27.5,26 27.5,26 C 33,24.5 33.5,14.5 22.5,10.5 C 11.5,14.5 12,24.5 17.5,26 C 17.5,26 15,27.5 15,30 C 15,30 14.5,30.5 15,32 z"/><path d="M 25,8 A 2.5,2.5 0 1 1 20,8 A 2.5,2.5 0 1 1 25,8 z"/></g><path d="M 17.5,26 L 27.5,26 M 15,30 L 30,30 M 22.5,15.5 L 22.5,20.5 M 20,18 L 25,18" style="fill:none;stroke:#000;stroke-linejoin:miter"/></g></symbol>
<symbol id="piece-mce-chess-wQ" viewBox="0 0 45 45"><g style="fill:#fff;stroke:#000;stroke-width:1.5;stroke-linejoin:round"><path d="M 9,26 C 17.5,24.5 30,24.5 36,26 L 38.5,13.5 L 31,25 L 30.7,10.9 L 25.5,24.5 L 22.5,10 L 19.5,24.5 L 14.3,10.9 L 14,25 L 6.5,13.5 L 9,26 z"/><path d="M 9,26 C 9,28 10.5,28 11.5,30 C 12.5,31.5 12.5,31 12,33.5 C 10.5,34.5 11,36 11,36 C 9.5,37.5 11.5,38.5 11.5,38.5 C 17.5,39.5 27.5,39.5 33.5,38.5 C 33.5,38.5 35.5,37.5 34,36 C 34,36 34.5,34.5 33,33.5 C 32.5,31 32.5,31.5 33.5,30 C 34.5,28 36,28 36,26 C 27.5,24.5 17.5,24.5 9,26 z"/><path d="M 11.5,30 C 15,29 30,29 33.5,30" style="fill:none"/><path d="M 12,33.5 C 15,32.5 30,32.5 33,33.5" style="fill:none"/><circle cx="6" cy="12" r="2"/><circle cx="14" cy="9" r="2"/><circle cx="22.5" cy="8" r="2"/><circle cx="31" cy="9" r="2"/><circle cx="39" cy="12" r="2"/></g></symbol>
<symbol id="piece-mce-chess-wK" viewBox="0 0 45 45"><g style="fill:#fff;stroke:#000;stroke-width:1.5;stroke-linejoin:round"><path d="M 22.5,11.63 L 22.5,6" style="fill:none;stroke-linejoin:miter"/><path d="M 20,8 L 25,8" style="fill:none;stroke-linejoin:miter"/><path d="M 22.5,25 C 22.5,25 27,17.5 25.5,14.5 C 25.5,14.5 24.5,12 22.5,12 C 20.5,12 19.5,14.5 19.5,14.5 C 18,17.5 22.5,25 22.5,25"/><path d="M 12.5,37 C 18,40.5 27,40.5 32.5,37 L 32.5,30 C 32.5,30 41.5,25.5 38.5,19.5 C 34.5,13 25,16 22.5,23.5 L 22.5,27 L 22.5,23.5 C 20,16 10.5,13 6.5,19.5 C 3.5,25.5 12.5,30 12.5,30 L 12.5,37"/><path d="M 12.5,30 C 18,27 27,27 32.5,30"/><path d="M 12.5,33.5 C 18,30.5 27,30.5 32.5,33.5"/><path d="M 12.5,37 C 18,34 27,34 32.5,37"/></g></symbol>
</defs>

<rect x="24" y="24" width="40" height="40" fill="#f0d9b5" data-sq="a8" class="board-cell"/><rect x="64" y="24" width="40" height="40" fill="#b58863" data-sq="b8" class="board-cell"/><rect x="104" y="24" width="40" height="40" fill="#f0d9b5" data-sq="c8" class="board-cell"/><rect x="144" y="24" width="40" height="40" fill="#b58863" data-sq="d8" class="board-cell"/><rect x="184" y="24" width="40" height="40" fill="#f0d9b5" data-sq="e8" class="board-cell"/><rect x="224" y="24" width="40" height="40" fill="#b58863" data-sq="f8" class="board-cell"/><rect x="264" y="24" width="40" height="40" fill="#f0d9b5" data-sq="g8" class="board-cell"/><rect x="304" y="24" width="40" height="40" fill="#b58863" data-sq="h8" class="board-cell"/><rect x="24" y="64" width="40" height="40" fill="#b58863" data-sq="a7" class="board-cell"/><rect x="64" y="64" width="40" height="40" fill="#f0d9b5" data-sq="b7" class="board-cell"/><rect x="104" y="64" width="40" height="40" fill="#b58863" data-sq="c7" class="board-cell"/><rect x="144" y="64" width="40" height="40" fill="#f0d9b5" data-sq="d7" class="board-cell"/><rect x="184" y="64" width="40" height="40" fill="#b58863" data-sq="e7" class="board-cell"/><rect x="224" y="64" width="40" height="40" fill="#f0d9b5" data-sq="f7" class="board-cell"/><rect x="264" y="64" width="40" height="40" fill="#b58863" data-sq="g7" class="board-cell"/><rect x="304" y="64" width="40" height="40" fill="#f0d9b5" data-sq="h7" class="board-cell"/><rect x="24" y="104" width="40" height="40" fill="#f0d9b5" data-sq="a6" class="board-cell"/><rect x="64" y="104" width="40" height="40" fill="#b58863" data-sq="b6" class="board-cell"/><rect x="104" y="104" width="40" height="40" fill="#f0d9b5" data-sq="c6" class="board-cell"/><rect x="144" y="104" width="40" height="40" fill="#b58863" data-sq="d6" class="board-cell"/><rect x="184" y="104" width="40" height="40" fill="#f0d9b5" data-sq="e6" class="board-cell"/><rect x="224" y="104" width="40" height="40" fill="#b58863" data-sq="f6" class="board-cell"/><rect x="264" y="104" width="40" height="40" fill="#f0d9b5" data-sq="g6" class="board-cell"/><rect x="304" y="104" width="40" height="40" fill="#b58863" data-sq="h6" class="board-cell"/><rect x="24" y="144" width="40" height="40" fill="#b58863" data-sq="a5" class="board-cell"/><rect x="64" y="144" width="40" height="40" fill="#f0d9b5" data-sq="b5" class="board-cell"/><rect x="104" y="144" width="40" height="40" fill="#b58863" data-sq="c5" class="board-cell"/><rect x="144" y="144" width="40" height="40" fill="#f0d9b5" data-sq="d5" class="board-cell"/><rect x="184" y="144" width="40" height="40" fill="#b58863" data-sq="e5" class="board-cell"/><rect x="224" y="144" width="40" height="40" fill="#f0d9b5" data-sq="f5" class="board-cell"/><rect x="264" y="144" width="40" height="40" fill="#b58863" data-sq="g5" class="board-cell"/><rect x="304" y="144" width="40" height="40" fill="#f0d9b5" data-sq="h5" class="board-cell"/><rect x="24" y="184" width="40" height="40" fill="#f0d9b5" data-sq="a4" class="board-cell"/><rect x="64" y="184" width="40" height="40" fill="#b58863" data-sq="b4" class="board-cell"/><rect x="104" y="184" width="40" height="40" fill="#f0d9b5" data-sq="c4" class="board-cell"/><rect x="144" y="184" width="40" height="40" fill="#b58863" data-sq="d4" class="board-cell"/><rect x="184" y="184" width="40" height="40" fill="#f0d9b5" data-sq="e4" class="board-cell"/><rect x="224" y="184" width="40" height="40" fill="#b58863" data-sq="f4" class="board-cell"/><rect x="264" y="184" width="40" height="40" fill="#f0d9b5" data-sq="g4" class="board-cell"/><rect x="304" y="184" width="40" height="40" fill="#b58863" data-sq="h4" class="board-cell"/><rect x="24" y="224" width="40" height="40" fill="#b58863" data-sq="a3" class="board-cell"/><rect x="64" y="224" width="40" height="40" fill="#f0d9b5" data-sq="b3" class="board-cell"/><rect x="104" y="224" width="40" height="40" fill="#b58863" data-sq="c3" class="board-cell"/><rect x="144" y="224" width="40" height="40" fill="#f0d9b5" data-sq="d3" class="board-cell"/><rect x="184" y="224" width="40" height="40" fill="#b58863" data-sq="e3" class="board-cell"/><rect x="224" y="224" width="40" height="40" fill="#f0d9b5" data-sq="f3" class="board-cell"/><rect x="264" y="224" width="40" height="40" fill="#b58863" data-sq="g3" class="board-cell"/><rect x="304" y="224" width="40" height="40" fill="#f0d9b5" data-sq="h3" class="board-cell"/><rect x="24" y="264" width="40" height="40" fill="#f0d9b5" data-sq="a2" class="board-cell"/><rect x="64" y="264" width="40" height="40" fill="#b58863" data-sq="b2" class="board-cell"/><rect x="104" y="264" width="40" height="40" fill="#f0d9b5" data-sq="c2" class="board-cell"/><rect x="144" y="264" width="40" height="40" fill="#b58863" data-sq="d2" class="board-cell"/><rect x="184" y="264" width="40" height="40" fill="#f0d9b5" data-sq="e2" class="board-cell"/><rect x="224" y="264" width="40" height="40" fill="#b58863" data-sq="f2" class="board-cell"/><rect x="264" y="264" width="40" height="40" fill="#f0d9b5" data-sq="g2" class="board-cell"/><rect x="304" y="264" width="40" height="40" fill="#b58863" data-sq="h2" class="board-cell"/><rect x="24" y="304" width="40" height="40" fill="#b58863" data-sq="a1" class="board-cell"/><rect x="64" y="304" width="40" height="40" fill="#f0d9b5" data-sq="b1" class="board-cell"/><rect x="104" y="304" width="40" height="40" fill="#b58863" data-sq="c1" class="board-cell"/><rect x="144" y="304" width="40" height="40" fill="#f0d9b5" data-sq="d1" class="board-cell"/><rect x="184" y="304" width="40" height="40" fill="#b58863" data-sq="e1" class="board-cell"/><rect x="224" y="304" width="40" height="40" fill="#f0d9b5" data-sq="f1" class="board-cell"/><rect x="264" y="304" width="40" height="40" fill="#b58863" data-sq="g1" class="board-cell"/><rect x="304" y="304" width="40" height="40" fill="#f0d9b5" data-sq="h1" class="board-cell"/>
<g pointer-events="none"><use href="#piece-mce-chess-bC" x="24" y="24" width="40" height="40"/><use href="#piece-mce-chess-bM" x="64" y="24" width="40" height="40"/><use href="#piece-wikimedia-standard-Chess_Udt45" x="104" y="24" width="40" height="40"/><use href="#piece-wikimedia-fairy-Black_chess_giraffe" x="144" y="24" width="40" height="40"/><use href="#piece-playstrategy-mono-tower" x="184" y="24" width="40" height="40"/><use href="#piece-mce-chess-bM" x="224" y="24" width="40" height="40"/><use href="#piece-wikimedia-standard-Chess_Udt45" x="264" y="24" width="40" height="40"/><use href="#piece-mce-chess-bC" x="304" y="24" width="40" height="40"/><use href="#piece-mce-chess-bP" x="104" y="64" width="40" height="40"/><use href="#piece-mce-chess-bP" x="144" y="64" width="40" height="40"/><use href="#piece-mce-chess-bP" x="184" y="64" width="40" height="40"/><use href="#piece-mce-chess-bP" x="224" y="64" width="40" height="40"/><use href="#piece-mce-chess-wP" x="24" y="264" width="40" height="40"/><use href="#piece-mce-chess-wP" x="64" y="264" width="40" height="40"/><use href="#piece-mce-chess-wP" x="104" y="264" width="40" height="40"/><use href="#piece-mce-chess-wP" x="144" y="264" width="40" height="40"/><use href="#piece-mce-chess-wP" x="184" y="264" width="40" height="40"/><use href="#piece-mce-chess-wP" x="224" y="264" width="40" height="40"/><use href="#piece-mce-chess-wP" x="264" y="264" width="40" height="40"/><use href="#piece-mce-chess-wP" x="304" y="264" width="40" height="40"/><use href="#piece-mce-chess-wR" x="24" y="304" width="40" height="40"/><use href="#piece-mce-chess-wN" x="64" y="304" width="40" height="40"/><use href="#piece-mce-chess-wB" x="104" y="304" width="40" height="40"/><use href="#piece-mce-chess-wQ" x="144" y="304" width="40" height="40"/><use href="#piece-mce-chess-wK" x="184" y="304" width="40" height="40"/><use href="#piece-mce-chess-wB" x="224" y="304" width="40" height="40"/><use href="#piece-mce-chess-wN" x="264" y="304" width="40" height="40"/><use href="#piece-mce-chess-wR" x="304" y="304" width="40" height="40"/></g>
<text x="44" y="359.6" text-anchor="middle" font-size="13" fill="#5c3a1e" font-family="monospace">a</text><text x="84" y="359.6" text-anchor="middle" font-size="13" fill="#5c3a1e" font-family="monospace">b</text><text x="124" y="359.6" text-anchor="middle" font-size="13" fill="#5c3a1e" font-family="monospace">c</text><text x="164" y="359.6" text-anchor="middle" font-size="13" fill="#5c3a1e" font-family="monospace">d</text><text x="204" y="359.6" text-anchor="middle" font-size="13" fill="#5c3a1e" font-family="monospace">e</text><text x="244" y="359.6" text-anchor="middle" font-size="13" fill="#5c3a1e" font-family="monospace">f</text><text x="284" y="359.6" text-anchor="middle" font-size="13" fill="#5c3a1e" font-family="monospace">g</text><text x="324" y="359.6" text-anchor="middle" font-size="13" fill="#5c3a1e" font-family="monospace">h</text><text x="12" y="48.55" text-anchor="middle" font-size="13" fill="#5c3a1e" font-family="monospace">8</text><text x="12" y="88.55" text-anchor="middle" font-size="13" fill="#5c3a1e" font-family="monospace">7</text><text x="12" y="128.55" text-anchor="middle" font-size="13" fill="#5c3a1e" font-family="monospace">6</text><text x="12" y="168.55" text-anchor="middle" font-size="13" fill="#5c3a1e" font-family="monospace">5</text><text x="12" y="208.55" text-anchor="middle" font-size="13" fill="#5c3a1e" font-family="monospace">4</text><text x="12" y="248.55" text-anchor="middle" font-size="13" fill="#5c3a1e" font-family="monospace">3</text><text x="12" y="288.55" text-anchor="middle" font-size="13" fill="#5c3a1e" font-family="monospace">2</text><text x="12" y="328.55" text-anchor="middle" font-size="13" fill="#5c3a1e" font-family="monospace">1</text>
</svg>