<svg xmlns="http://www.w3.org/2000/svg" viewBox="0 0 409.2 460.25117766515297" width="409.2" height="460.25117766515297">
<defs>
<symbol id="piece-mce-chess-bP" viewBox="0 0 45 45"><path d="M 22,9 C 19.79,9 18,10.79 18,13 C 18,13.89 18.29,14.71 18.78,15.38 C 16.83,16.5 15.5,18.59 15.5,21 C 15.5,23.03 16.44,24.84 17.91,26.03 C 14.91,27.09 10.5,31.58 10.5,39.5 L 33.5,39.5 C 33.5,31.58 29.09,27.09 26.09,26.03 C 27.56,24.84 28.5,23.03 28.5,21 C 28.5,18.59 27.17,16.5 25.22,15.38 C 25.71,14.71 26,13.89 26,13 C 26,10.79 24.21,9 22,9 z" style="fill:#000;stroke:#000;stroke-width:1.5;stroke-linecap:round"/></symbol>
<symbol id="piece-mce-chess-bQ" viewBox="0 0 45 45"><g style="fill:#000;stroke:#000;stroke-width:1.5;stroke-linejoin:round"><path d="M 9,26 C 17.5,24.5 30,24.5 36,26 L 38.5,13.5 L 31,25 L 30.7,10.9 L 25.5,24.5 L 22.5,10 L 19.5,24.5 L 14.3,10.9 L 14,25 L 6.5,13.5 L 9,26 z"/><path d="M 9,26 C 9,28 10.5,28 11.5,30 C 12.5,31.5 12.5,31 12,33.5 C 10.5,34.5 11,36 11,36 C 9.5,37.5 11.5,38.5 11.5,38.5 C 17.5,39.5 27.5,39.5 33.5,38.5 C 33.5,38.5 35.5,37.5 34,36 C 34,36 34.5,34.5 33,33.5 C 32.5,31 32.5,31.5 33.5,30 C 34.5,28 36,28 36,26 C 27.5,24.5 17.5,24.5 9,26 z"/><path d="M 11.5,30 C 15,29 30,29 33.5,30" style="fill:none;stroke:#fff"/><path d="M 12,33.5 C 15,32.5 30,32.5 33,33.5" style="fill:none;stroke:#fff"/><circle cx="6" cy="12" r="2" style="fill:#fff"/><circle cx="14" cy="9" r="2" style="fill:#fff"/><circle cx="22.5" cy="8" r="2" style="fill:#fff"/><circle cx="31" cy="9" r="2" style="fill:#fff"/><circle cx="39" cy="12" r="2" style="fill:#fff"/></g></symbol>
<symbol id="piece-mce-chess-wP" viewBox="0 0 45 45"><path d="M 22,9 C 19.79,9 18,10.79 18,13 C 18,13.89 18.29,14.71 18.78,15.38 C 16.83,16.5 15.5,18.59 15.5,21 C 15.5,23.03 16.44,24.84 17.91,26.03 C 14.91,27.09 10.5,31.58 10.5,39.5 L 33.5,39.5 C 33.5,31.58 29.09,27.09 26.09,26.03 C 27.56,24.84 28.5,23.03 28.5,21 C 28.5,18.59 27.17,16.5 25.22,15.38 C 25.71,14.71 26,13.89 26,13 C 26,10.79 24.21,9 22,9 z" style="fill:#fff;stroke:#000;stroke-width:1.5;stroke-linecap:round"/></symbol>
<symbol id="piece-mce-chess-wQ" viewBox="0 0 45 45"><g style="fill:#fff;stroke:#000;stroke-width:1.5;stroke-linejoin:round"><path d="M 9,26 C 17.5,24.5 30,24.5 36,26 L 38.5,13.5 L 31,25 L 30.7,10.9 L 25.5,24.5 L 22.5,10 L 19.5,24.5 L 14.3,10.9 L 14,25 L 6.5,13.5 L 9,26 z"/><path d="M 9,26 C 9,28 10.5,28 11.5,30 C 12.5,31.5 12.5,31 12,33.5 C 10.5,34.5 11,36 11,36 C 9.5,37.5 11.5,38.5 11.5,38.5 C 17.5,39.5 27.5,39.5 33.5,38.5 C 33.5,38.5 35.5,37.5 34,36 C 34,36 34.5,34.5 33,33.5 C 32.5,31 32.5,31.5 33.5,30 C 34.5,28 36,28 36,26 C 27.5,24.5 17.5,24.5 9,26 z"/><path d="M 11.5,30 C 15,29 30,29 33.5,30" style="fill:none"/><path d="M 12,33.5 C 15,32.5 30,32.5 33,33.5" style="fill:none"/><circle cx="6" cy="12" r="2"/><circle cx="14" cy="9" r="2"/><circle cx="22.5" cy="8" r="2"/><circle cx="31" cy="9" r="2"/><circle cx="39" cy="12" r="2"/></g></symbol>
<symbol id="piece-mce-chess-bN" viewBox="0 0 45 45"><g style="fill:none;stroke:#000;stroke-width:1.5;stroke-linecap:round;stroke-linejoin:round"><path d="M 22,10 C 32.5,11 38.5,18 38,39 L 15,39 C 15,30 25,32.5 23,18" style="fill:#000"/><path d="M 24,18 C 24.38,20.91 18.45,25.37 16,27 C 13,29 13.18,31.34 11,31 C 9.958,30.06 12.41,27.96 11,28 C 10,28 11.19,29.23 10,30 C 9,30 5.997,31 6,26 C 6,24 12,14 12,14 C 12,14 13.89,12.1 14,10.5 C 13.27,9.506 13.5,8.5 13.5,7.5 C 14.5,6.5 16.5,10 16.5,10 L 18.5,10 C 18.5,10 19.28,8.008 21,7 C 22,7 22,10 22,10" style="fill:#000"/><path d="M 9.5,25.5 A 0.5,0.5 0 1 1 8.5,25.5 A 0.5,0.5 0 1 1 9.5,25.5 z" style="fill:#fff"/><path d="M 15,15.5 A 0.5,1.5 0 1 1 14,15.5 A 0.5,1.5 0 1 1 15,15.5 z" transform="matrix(0.866,0.5,-0.5,0.866,9.693,-5.173)" style="fill:#fff"/><path d="M 24.55,10.4 L 24.1,11.85 L 24.6,12 C 27.75,13 30.25,14.49 32.5,18.75 C 34.75,23.01 35.75,29.06 35.25,39 L 35.2,39.5 L 37.45,39.5 L 37.5,39 C 38,28.94 36.62,22.15 34.25,17.66 C 31.88,13.17 28.46,11.02 25.06,10.5 L 24.55,10.4 z" style="fill:#fff;stroke:none"/></g></symbol>
<symbol id="piece-mce-chess-wN" viewBox="0 0 45 45"><g style="fill:none;stroke:#000;stroke-width:1.5;stroke-linecap:round;stroke-linejoin:round"><path d="M 22,10 C 32.5,11 38.5,18 38,39 L 15,39 C 15,30 25,32.5 23,18" style="fill:#fff"/><path d="M 24,18 C 24.38,20.91 18.45,25.37 16,27 C 13,29 13.18,31.34 11,31 C 9.958,30.06 12.41,27.96 11,28 C 10,28 11.19,29.23 10,30 C 9,30 5.997,31 6,26 C 6,24 12,14 12,14 C 12,14 13.89,12.1 14,10.5 C 13.27,9.506 13.5,8.5 13.5,7.5 C 14.5,6.5 16.5,10 16.5,10 L 18.5,10 C 18.5,10 19.28,8.008 21,7 C 22,7 22,10 22,10" style="fill:#fff"/><path d="M 9.5,25.5 A 0.5,0.5 0 1 1 8.5,25.5 A 0.5,0.5 0 1 1 9.5,25.5 z" style="fill:#000"/><path d="M 15,15.5 A 0.5,1.5 0 1 1 14,15.5 A 0.5,1.5 0 1 1 15,15.5 z" transform="matrix(0.866,0.5,-0.5,0.866,9.693,-5.173)" style="fill:#000"/></g></symbol>
<symbol id="piece-mce-chess-bR" viewBox="0 0 45 45"><g style="fill:#000;stroke:#000;stroke-width:1.5;stroke-linecap:round;stroke-linejoin:round"><path d="M 9,39 L 36,39 L 36,36 L 9,36 L 9,39 z"/><path d="M 12,36 L 12,32 L 33,32 L 33,36 L 12,36 z"/><path d="M 11,14 L 11,9 L 15,9 L 15,11 L 20,11 L 20,9 L 25,9 L 25,11 L 30,11 L 30,9 L 34,9 L 34,14"/><path d="M 34,14 L 31,17 L 14,17 L 11,14"/><path d="M 31,17 L 31,29.5 L 14,29.5 L 14,17"/><path d="M 31,29.5 L 32.5,32 L 12.5,32 L 14,29.5"/><path d="M 11,14 L 34,14" style="fill:none;stroke:#fff;stroke-linejoin:miter"/><path d="M 12,35.5 L 33,35.5" style="fill:none;stroke:#fff;stroke-width:1"/><path d="M 13,31.5 L 32,31.5" style="fill:none;stroke:#fff;stroke-width:1"/><path d="M 14,29.5 L 31,29.5" style="fill:none;stroke:#fff;stroke-width:1"/></g></symbol>
<symbol id="piece-mce-chess-wR" viewBox="0 0 45 45"><g style="fill:#fff;stroke:#000;stroke-width:1.5;stroke-linecap:round;stroke-linejoin:round"><path d="M 9,39 L 36,39 L 36,36 L 9,36 L 9,39 z"/><path d="M 12,36 L 12,32 L 33,32 L 33,36 L 12,36 z"/><path d="M 11,14 L 11,9 L 15,9 L 15,11 L 20,11 L 20,9 L 25,9 L 25,11 L 30,11 L 30,9 L 34,9 L 34,14"/><path d="M 34,14 L 31,17 L 14,17 L 11,14"/><path d="M 31,17 L 31,29.5 L 14,29.5 L 14,17"/><path d="M 31,29.5 L 32.5,32 L 12.5,32 L 14,29.5"/><path d="M 11,14 L 34,14" style="fill:none"/></g></symbol>
<symbol id="piece-mce-chess-bB" viewBox="0 0 45 45"><g style="fill:none;stroke:#000;stroke-width:1.5;stroke-linecap:round;stroke-linejoin:round"><g style="fill:#000;stroke-linecap:butt"><path d="M 9,36 C 12.39,35.03 19.11,36.43 22.5,34 C 25.89,36.43 32.61,35.03 36,36 C 36,36 37.65,36.54 39,38 C 38.32,38.97 37.2,38.91 36,38.5 C 32.61,37.53 25.89,38.96 22.5,37.5 C 19.11,38.96 12.39,37.53 9,38.5 C 7.8,38.91 6.68,38.97 6,38 C 7.35,36.54 9,36 9,36 z"/><path d="M 15,32 C 17.5,34.5 27.5,34.5 30,32 C 30.5,30.5 30,30 30,30 C 30,27.5 27.5,26 27.5,26 C 33,24.5 33.5,14.5 22.5,10.5 C 11.5,14.5 12,24.5 17.5,26 C 17.5,26 15,27.5 15,30 C 15,30 14.5,30.5 15,32 z"/><path d="M 25,8 A 2.5,2.5 0 1 1 20,8 A 2.5,2.5 0 1 1 25,8 z"/></g><path d="M 17.5,26 L 27.5,26 M 15,30 L 30,30 M 22.5,15.5 L 22.5,20.5 M 20,18 L 25,18" style="fill:none;stroke:#fff;stroke-linejoin:miter"/></g></symbol>
<symbol id="piece-mce-chess-wB" viewBox="0 0 45 45"><g style="fill:none;stroke:#000;stroke-width:1.5;stroke-linecap:round;stroke-linejoin:round"><g style="fill:#fff;stroke-linecap:butt"><path d="M 9,36 C 12.39,35.03 19.11,36.43 22.5,34 C 25.89,36.43 32.61,35.03 36,36 C 36,36 37.65,36.54 39,38 C 38.32,38.97 37.2,38.91 36,38.5 C 32.61,37.53 25.89,38.96 22.5,37.5 C 19.11,38.96 12.39,37.53 9,38.5 C 7.8,38.91 6.68,38.97 6,38 C 7.35,36.54 9,36 9,36 z"/><path d="M 15,32 C 17.5,34.5 27.5,34.5 30,32 C 30.5,30.5 30,30 30,30 C 30,27.5 27.5,26 27.5,26 C 33,24.5 33.5,14.5 22.5,10.5 C 11.5,14.5 12,24.5 17.5,26 C 17.5,26 15,27.5 15,30 C 15,30 14.5,30.5 15,32 z"/><path d="M 25,8 A 2.5,2.5 0 1 1 20,8 A 2.5,2.5 0 1 1 25,8 z"/></g><path d="M 17.5,26 L 27.5,26 M 15,30 L 30,30 M 22.5,15.5 L 22.5,20.5 M 20,18 L 25,18" style="fill:none;stroke:#000;stroke-linejoin:miter"/></g></symbol>
<symbol id="piece-mce-chess-bK" viewBox="0 0 45 45"><g style="fill:#000;stroke:#000;stroke-width:1.5;stroke-linejoin:round"><path d="M 22.5,11.63 L 22.5,6" style="fill:none;stroke:#fff;stroke-linejoin:miter"/><path d="M 20,8 L 25,8" style="fill:none;stroke:#fff;stroke-linejoin:miter"/><path d="M 22.5,25 C 22.5,25 27,17.5 25.5,14.5 C 25.5,14.5 24.5,12 22.5,12 C 20.5,12 19.5,14.5 19.5,14.5 C 18,17.5 22.5,25 22.5,25"/><path d="M 12.5,37 C 18,40.5 27,40.5 32.5,37 L 32.5,30 C 32.5,30 41.5,25.5 38.5,19.5 C 34.5,13 25,16 22.5,23.5 L 22.5,27 L 22.5,23.5 C 20,16 10.5,13 6.5,19.5 C 3.5,25.5 12.5,30 12.5,30 L 12.5,37"/><path d="M 12.5,30 C 18,27 27,27 32.5,30" style="fill:none;stroke:#fff"/><path d="M 12.5,33.5 C 18,30.5 27,30.5 32.5,33.5" style="fill:none;stroke:#fff"/><path d="M 12.5,37 C 18,34 27,34 32.5,37" style="fill:none;stroke:#fff"/></g></symbol>
<symbol id="piece-mce-chess-wK" viewBox="0 0 45 45"><g style="fill:#fff;stroke:#000;stroke-width:1.5;stroke-linejoin:round"><path d="M 22.5,11.63 L 22.5,6" style="fill:none;stroke-linejoin:miter"/><path d="M 20,8 L 25,8" style="fill:none;stroke-linejoin:miter"/><path d="M 22.5,25 C 22.5,25 27,17.5 25.5,14.5 C 25.5,14.5 24.5,12 22.5,12 C 20.5,12 19.5,14.5 19.5,14.5 C 18,17.5 22.5,25 22.5,25"/><path d="M 12.5,37 C 18,40.5 27,40.5 32.5,37 L 32.5,30 C 32.5,30 41.5,25.5 38.5,19.5 C 34.5,13 25,16 22.5,23.5 L 22.5,27 L 22.5,23.5 C 20,16 10.5,13 6.5,19.5 C 3.5,25.5 12.5,30 12.5,30 L 12.5,37"/><path d="M 12.5,30 C 18,27 27,27 32.5,30"/><path d="M 12.5,33.5 C 18,30.5 27,30.5 32.5,33.5"/><path d="M 12.5,37 C 18,34 27,34 32.5,37"/></g></symbol>
</defs>
<g fill="#6b4226"><polygon points="63.36,134.86 51.48,155.44 27.72,155.44 15.84,134.86 27.72,114.29 51.48,114.29"/><polygon points="63.36,172.97 51.48,193.54 27.72,193.54 15.84,172.97 27.72,152.39 51.48,152.39"/><polygon points="63.36,211.07 51.48,231.65 27.72,231.65 15.84,211.07 27.72,190.50 51.48,190.50"/><polygon points="63.36,249.18 51.48,269.75 27.72,269.75 15.84,249.18 27.72,228.60 51.48,228.60"/><polygon points="63.36,287.28 51.48,307.86 27.72,307.86 15.84,287.28 27.72,266.71 51.48,266.71"/><polygon points="63.36,325.39 51.48,345.97 27.72,345.97 15.84,325.39 27.72,304.81 51.48,304.81"/><polygon points="96.36,115.81 84.48,136.39 60.72,136.39 48.84,115.81 60.72,95.23 84.48,95.23"/><polygon points="96.36,153.92 84.48,174.49 60.72,174.49 48.84,153.92 60.72,133.34 84.48,133.34"/><polygon points="96.36,192.02 84.48,212.60 60.72,212.60 48.84,192.02 60.72,171.44 84.48,171.44"/><polygon points="96.36,230.13 84.48,250.70 60.72,250.70 48.84,230.13 60.72,209.55 84.48,209.55"/><polygon points="96.36,268.23 84.48,288.81 60.72,288.81 48.84,268.23 60.72,247.65 84.48,247.65"/><polygon points="96.36,306.34 84.48,326.91 60.72,326.91 48.84,306.34 60.72,285.76 84.48,285.76"/><polygon points="96.36,344.44 84.48,365.02 60.72,365.02 48.84,344.44 60.72,323.86 84.48,323.86"/><polygon points="129.36,96.76 117.48,117.33 93.72,117.33 81.84,96.76 93.72,76.18 117.48,76.18"/><polygon points="129.36,134.86 117.48,155.44 93.72,155.44 81.84,134.86 93.72,114.29 117.48,114.29"/><polygon points="129.36,172.97 117.48,193.54 93.72,193.54 81.84,172.97 93.72,152.39 117.48,152.39"/><polygon points="129.36,211.07 117.48,231.65 93.72,231.65 81.84,211.07 93.72,190.50 117.48,190.50"/><polygon points="129.36,249.18 117.48,269.75 93.72,269.75 81.84,249.18 93.72,228.60 117.48,228.60"/><polygon points="129.36,287.28 117.48,307.86 93.72,307.86 81.84,287.28 93.72,266.71 117.48,266.71"/><polygon points="129.36,325.39 117.48,345.97 93.72,345.97 81.84,325.39 93.72,304.81 117.48,304.81"/><polygon points="129.36,363.49 117.48,384.07 93.72,384.07 81.84,363.49 93.72,342.92 117.48,342.92"/><polygon points="162.36,77.71 150.48,98.28 126.72,98.28 114.84,77.71 126.72,57.13 150.48,57.13"/><polygon points="162.36,115.81 150.48,136.39 126.72,136.39 114.84,115.81 126.72,95.23 150.48,95.23"/><polygon points="162.36,153.92 150.48,174.49 126.72,174.49 114.84,153.92 126.72,133.34 150.48,133.34"/><polygon points="162.36,192.02 150.48,212.60 126.72,212.60 114.84,192.02 126.72,171.44 150.48,171.44"/><polygon points="162.36,230.13 150.48,250.70 126.72,250.70 114.84,230.13 126.72,209.55 150.48,209.55"/><polygon points="162.36,268.23 150.48,288.81 126.72,288.81 114.84,268.23 126.72,247.65 150.48,247.65"/><polygon points="162.36,306.34 150.48,326.91 126.72,326.91 114.84,306.34 126.72,285.76 150.48,285.76"/><polygon points="162.36,344.44 150.48,365.02 126.72,365.02 114.84,344.44 126.72,323.86 150.48,323.86"/><polygon points="162.36,382.55 150.48,403.12 126.72,403.12 114.84,382.55 126.72,361.97 150.48,361.97"/><polygon points="195.36,58.65 183.48,79.23 159.72,79.23 147.84,58.65 159.72,38.08 183.48,38.08"/><polygon points="195.36,96.76 183.48,117.33 159.72,117.33 147.84,96.76 159.72,76.18 183.48,76.18"/><polygon points="195.36,134.86 183.48,155.44 159.72,155.44 147.84,134.86 159.72,114.29 183.48,114.29"/><polygon points="195.36,172.97 183.48,193.54 159.72,193.54 147.84,172.97 159.72,152.39 183.48,152.39"/><polygon points="195.36,211.07 183.48,231.65 159.72,231.65 147.84,211.07 159.72,190.50 183.48,190.50"/><polygon points="195.36,249.18 183.48,269.75 159.72,269.75 147.84,249.18 159.72,228.60 183.48,228.60"/><polygon points="195.36,287.28 183.48,307.86 159.72,307.86 147.84,287.28 159.72,266.71 183.48,266.71"/><polygon points="195.36,325.39 183.48,345.97 159.72,345.97 147.84,325.39 159.72,304.81 183.48,304.81"/><polygon points="195.36,363.49 183.48,384.07 159.72,384.07 147.84,363.49 159.72,342.92 183.48,342.92"/><polygon points="195.36,401.60 183.48,422.18 159.72,422.18 147.84,401.60 159.72,381.02 183.48,381.02"/><polygon points="228.36,39.60 216.48,60.18 192.72,60.18 180.84,39.60 192.72,19.02 216.48,19.02"/><polygon points="228.36,77.71 216.48,98.28 192.72,98.28 180.84,77.71 192.72,57.13 216.48,57.13"/><polygon points="228.36,115.81 216.48,136.39 192.72,136.39 180.84,115.81 192.72,95.23 216.48,95.23"/><polygon points="228.36,153.92 216.48,174.49 192.72,174.49 180.84,153.92 192.72,133.34 216.48,133.34"/><polygon points="228.36,192.02 216.48,212.60 192.72,212.60 180.84,192.02 192.72,171.44 216.48,171.44"/><polygon points="228.36,230.13 216.48,250.70 192.72,250.70 180.84,230.13 192.72,209.55 216.48,209.55"/><polygon points="228.36,268.23 216.48,288.81 192.72,288.81 180.84,268.23 192.72,247.65 216.48,247.65"/><polygon points="228.36,306.34 216.48,326.91 192.72,326.91 180.84,306.34 192.72,285.76 216.48,285.76"/><polygon points="228.36,344.44 216.48,365.02 192.72,365.02 180.84,344.44 192.72,323.86 216.48,323.86"/><polygon points="228.36,382.55 216.48,403.12 192.72,403.12 180.84,382.55 192.72,361.97 216.48,361.97"/><polygon points="228.36,420.65 216.48,441.23 192.72,441.23 180.84,420.65 192.72,400.07 216.48,400.07"/><polygon points="261.36,58.65 249.48,79.23 225.72,79.23 213.84,58.65 225.72,38.08 249.48,38.08"/><polygon points="261.36,96.76 249.48,117.33 225.72,117.33 213.84,96.76 225.72,76.18 249.48,76.18"/><polygon points="261.36,134.86 249.48,155.44 225.72,155.44 213.84,134.86 225.72,114.29 249.48,114.29"/><polygon points="261.36,172.97 249.48,193.54 225.72,193.54 213.84,172.97 225.72,152.39 249.48,152.39"/><polygon points="261.36,211.07 249.48,231.65 225.72,231.65 213.84,211.07 225.72,190.50 249.48,190.50"/><polygon points="261.36,249.18 249.48,269.75 225.72,269.75 213.84,249.18 225.72,228.60 249.48,228.60"/><polygon points="261.36,287.28 249.48,307.86 225.72,307.86 213.84,287.28 225.72,266.71 249.48,266.71"/><polygon points="261.36,325.39 249.48,345.97 225.72,345.97 213.84,325.39 225.72,304.81 249.48,304.81"/><polygon points="261.36,363.49 249.48,384.07 225.72,384.07 213.84,363.49 225.72,342.92 249.48,342.92"/><polygon points="261.36,401.60 249.48,422.18 225.72,422.18 213.84,401.60 225.72,381.02 249.48,381.02"/><polygon points="294.36,77.71 282.48,98.28 258.72,98.28 246.84,77.71 258.72,57.13 282.48,57.13"/><polygon points="294.36,115.81 282.48,136.39 258.72,136.39 246.84,115.81 258.72,95.23 282.48,95.23"/><polygon points="294.36,153.92 282.48,174.49 258.72,174.49 246.84,153.92 258.72,133.34 282.48,133.34"/><polygon points="294.36,192.02 282.48,212.60 258.72,212.60 246.84,192.02 258.72,171.44 282.48,171.44"/><polygon points="294.36,230.13 282.48,250.70 258.72,250.70 246.84,230.13 258.72,209.55 282.48,209.55"/><polygon points="294.36,268.23 282.48,288.81 258.72,288.81 246.84,268.23 258.72,247.65 282.48,247.65"/><polygon points="294.36,306.34 282.48,326.91 258.72,326.91 246.84,306.34 258.72,285.76 282.48,285.76"/><polygon points="294.36,344.44 282.48,365.02 258.72,365.02 246.84,344.44 258.72,323.86 282.48,323.86"/><polygon points="294.36,382.55 282.48,403.12 258.72,403.12 246.84,382.55 258.72,361.97 282.48,361.97"/><polygon points="327.36,96.76 315.48,117.33 291.72,117.33 279.84,96.76 291.72,76.18 315.48,76.18"/><polygon points="327.36,134.86 315.48,155.44 291.72,155.44 279.84,134.86 291.72,114.29 315.48,114.29"/><polygon points="327.36,172.97 315.48,193.54 291.72,193.54 279.84,172.97 291.72,152.39 315.48,152.39"/><polygon points="327.36,211.07 315.48,231.65 291.72,231.65 279.84,211.07 291.72,190.50 315.48,190.50"/><polygon points="327.36,249.18 315.48,269.75 291.72,269.75 279.84,249.18 291.72,228.60 315.48,228.60"/><polygon points="327.36,287.28 315.48,307.86 291.72,307.86 279.84,287.28 291.72,266.71 315.48,266.71"/><polygon points="327.36,325.39 315.48,345.97 291.72,345.97 279.84,325.39 291.72,304.81 315.48,304.81"/><polygon points="327.36,363.49 315.48,384.07 291.72,384.07 279.84,363.49 291.72,342.92 315.48,342.92"/><polygon points="360.36,115.81 348.48,136.39 324.72,136.39 312.84,115.81 324.72,95.23 348.48,95.23"/><polygon points="360.36,153.92 348.48,174.49 324.72,174.49 312.84,153.92 324.72,133.34 348.48,133.34"/><polygon points="360.36,192.02 348.48,212.60 324.72,212.60 312.84,192.02 324.72,171.44 348.48,171.44"/><polygon points="360.36,230.13 348.48,250.70 324.72,250.70 312.84,230.13 324.72,209.55 348.48,209.55"/><polygon points="360.36,268.23 348.48,288.81 324.72,288.81 312.84,268.23 324.72,247.65 348.48,247.65"/><polygon points="360.36,306.34 348.48,326.91 324.72,326.91 312.84,306.34 324.72,285.76 348.48,285.76"/><polygon points="360.36,344.44 348.48,365.02 324.72,365.02 312.84,344.44 324.72,323.86 348.48,323.86"/><polygon points="393.36,134.86 381.48,155.44 357.72,155.44 345.84,134.86 357.72,114.29 381.48,114.29"/><polygon points="393.36,172.97 381.48,193.54 357.72,193.54 345.84,172.97 357.72,152.39 381.48,152.39"/><polygon points="393.36,211.07 381.48,231.65 357.72,231.65 345.84,211.07 357.72,190.50 381.48,190.50"/><polygon points="393.36,249.18 381.48,269.75 357.72,269.75 345.84,249.18 357.72,228.60 381.48,228.60"/><polygon points="393.36,287.28 381.48,307.86 357.72,307.86 345.84,287.28 357.72,266.71 381.48,266.71"/><polygon points="393.36,325.39 381.48,345.97 357.72,345.97 345.84,325.39 357.72,304.81 381.48,304.81"/></g><g fill="none" stroke="#6b4226" stroke-width="14" stroke-linecap="round" stroke-linejoin="round"><line x1="28.05" y1="154.87" x2="16.50" y2="134.86"/><line x1="16.50" y1="134.86" x2="28.05" y2="114.86"/><line x1="28.05" y1="114.86" x2="51.15" y2="114.86"/><line x1="28.05" y1="192.97" x2="16.50" y2="172.97"/><line x1="16.50" y1="172.97" x2="28.05" y2="152.96"/><line x1="28.05" y1="231.08" x2="16.50" y2="211.07"/><line x1="16.50" y1="211.07" x2="28.05" y2="191.07"/><line x1="28.05" y1="269.18" x2="16.50" y2="249.18"/><line x1="16.50" y1="249.18" x2="28.05" y2="229.17"/><line x1="28.05" y1="307.29" x2="16.50" y2="287.28"/><line x1="16.50" y1="287.28" x2="28.05" y2="267.28"/><line x1="51.15" y1="345.39" x2="28.05" y2="345.39"/><line x1="28.05" y1="345.39" x2="16.50" y2="325.39"/><line x1="16.50" y1="325.39" x2="28.05" y2="305.38"/><line x1="49.50" y1="115.81" x2="61.05" y2="95.81"/><line x1="61.05" y1="95.81" x2="84.15" y2="95.81"/><line x1="84.15" y1="364.45" x2="61.05" y2="364.45"/><line x1="61.05" y1="364.45" x2="49.50" y2="344.44"/><line x1="82.50" y1="96.76" x2="94.05" y2="76.75"/><line x1="94.05" y1="76.75" x2="117.15" y2="76.75"/><line x1="117.15" y1="383.50" x2="94.05" y2="383.50"/><line x1="94.05" y1="383.50" x2="82.50" y2="363.49"/><line x1="115.50" y1="77.71" x2="127.05" y2="57.70"/><line x1="127.05" y1="57.70" x2="150.15" y2="57.70"/><line x1="150.15" y1="402.55" x2="127.05" y2="402.55"/><line x1="127.05" y1="402.55" x2="115.50" y2="382.55"/><line x1="148.50" y1="58.65" x2="160.05" y2="38.65"/><line x1="160.05" y1="38.65" x2="183.15" y2="38.65"/><line x1="183.15" y1="421.60" x2="160.05" y2="421.60"/><line x1="160.05" y1="421.60" x2="148.50" y2="401.60"/><line x1="181.50" y1="39.60" x2="193.05" y2="19.59"/><line x1="193.05" y1="19.59" x2="216.15" y2="19.59"/><line x1="216.15" y1="19.59" x2="227.70" y2="39.60"/><line x1="227.70" y1="420.65" x2="216.15" y2="440.66"/><line x1="216.15" y1="440.66" x2="193.05" y2="440.66"/><line x1="193.05" y1="440.66" x2="181.50" y2="420.65"/><line x1="226.05" y1="38.65" x2="249.15" y2="38.65"/><line x1="249.15" y1="38.65" x2="260.70" y2="58.65"/><line x1="260.70" y1="401.60" x2="249.15" y2="421.60"/><line x1="249.15" y1="421.60" x2="226.05" y2="421.60"/><line x1="259.05" y1="57.70" x2="282.15" y2="57.70"/><line x1="282.15" y1="57.70" x2="293.70" y2="77.71"/><line x1="293.70" y1="382.55" x2="282.15" y2="402.55"/><line x1="282.15" y1="402.55" x2="259.05" y2="402.55"/><line x1="292.05" y1="76.75" x2="315.15" y2="76.75"/><line x1="315.15" y1="76.75" x2="326.70" y2="96.76"/><line x1="326.70" y1="363.49" x2="315.15" y2="383.50"/><line x1="315.15" y1="383.50" x2="292.05" y2="383.50"/><line x1="325.05" y1="95.81" x2="348.15" y2="95.81"/><line x1="348.15" y1="95.81" x2="359.70" y2="115.81"/><line x1="359.70" y1="344.44" x2="348.15" y2="364.45"/><line x1="348.15" y1="364.45" x2="325.05" y2="364.45"/><line x1="392.70" y1="134.86" x2="381.15" y2="154.87"/><line x1="358.05" y1="114.86" x2="381.15" y2="114.86"/><line x1="381.15" y1="114.86" x2="392.70" y2="134.86"/><line x1="392.70" y1="172.97" x2="381.15" y2="192.97"/><line x1="381.15" y1="152.96" x2="392.70" y2="172.97"/><line x1="392.70" y1="211.07" x2="381.15" y2="231.08"/><line x1="381.15" y1="191.07" x2="392.70" y2="211.07"/><line x1="392.70" y1="249.18" x2="381.15" y2="269.18"/><line x1="381.15" y1="229.17" x2="392.70" y2="249.18"/><line x1="392.70" y1="287.28" x2="381.15" y2="307.29"/><line x1="381.15" y1="267.28" x2="392.70" y2="287.28"/><line x1="392.70" y1="325.39" x2="381.15" y2="345.39"/><line x1="381.15" y1="345.39" x2="358.05" y2="345.39"/><line x1="381.15" y1="305.38" x2="392.70" y2="325.39"/></g><polygon points="60.50,134.86 50.05,152.96 29.15,152.96 18.70,134.86 29.15,116.76 50.05,116.76" fill="#e8ab6f" stroke="rgba(0,0,0,0.15)" stroke-width="1" data-sq="-5,0" class="board-cell"/><polygon points="60.50,172.97 50.05,191.07 29.15,191.07 18.70,172.97 29.15,154.87 50.05,154.87" fill="#ffce9e" stroke="rgba(0,0,0,0.15)" stroke-width="1" data-sq="-5,1" class="board-cell"/><polygon points="60.50,211.07 50.05,229.17 29.15,229.17 18.70,211.07 29.15,192.97 50.05,192.97" fill="#d18b47" stroke="rgba(0,0,0,0.15)" stroke-width="1" data-sq="-5,2" class="board-cell"/><polygon points="60.50,249.18 50.05,267.28 29.15,267.28 18.70,249.18 29.15,231.08 50.05,231.08" fill="#e8ab6f" stroke="rgba(0,0,0,0.15)" stroke-width="1" data-sq="-5,3" class="board-cell"/><polygon points="60.50,287.28 50.05,305.38 29.15,305.38 18.70,287.28 29.15,269.18 50.05,269.18" fill="#ffce9e" stroke="rgba(0,0,0,0.15)" stroke-width="1" data-sq="-5,4" class="board-cell"/><polygon points="60.50,325.39 50.05,343.49 29.15,343.49 18.70,325.39 29.15,307.29 50.05,307.29" fill="#d18b47" stroke="rgba(0,0,0,0.15)" stroke-width="1" data-sq="-5,5" class="board-cell"/><polygon points="93.50,115.81 83.05,133.91 62.15,133.91 51.70,115.81 62.15,97.71 83.05,97.71" fill="#ffce9e" stroke="rgba(0,0,0,0.15)" stroke-width="1" data-sq="-4,-1" class="board-cell"/><polygon points="93.50,153.92 83.05,172.02 62.15,172.02 51.70,153.92 62.15,135.82 83.05,135.82" fill="#d18b47" stroke="rgba(0,0,0,0.15)" stroke-width="1" data-sq="-4,0" class="board-cell"/><polygon points="93.50,192.02 83.05,210.12 62.15,210.12 51.70,192.02 62.15,173.92 83.05,173.92" fill="#e8ab6f" stroke="rgba(0,0,0,0.15)" stroke-width="1" data-sq="-4,1" class="board-cell"/><polygon points="93.50,230.13 83.05,248.23 62.15,248.23 51.70,230.13 62.15,212.03 83.05,212.03" fill="#ffce9e" stroke="rgba(0,0,0,0.15)" stroke-width="1" data-sq="-4,2" class="board-cell"/><polygon points="93.50,268.23 83.05,286.33 62.15,286.33 51.70,268.23 62.15,250.13 83.05,250.13" fill="#d18b47" stroke="rgba(0,0,0,0.15)" stroke-width="1" data-sq="-4,3" class="board-cell"/><polygon points="93.50,306.34 83.05,324.44 62.15,324.44 51.70,306.34 62.15,288.24 83.05,288.24" fill="#e8ab6f" stroke="rgba(0,0,0,0.15)" stroke-width="1" data-sq="-4,4" class="board-cell"/><polygon points="93.50,344.44 83.05,362.54 62.15,362.54 51.70,344.44 62.15,326.34 83.05,326.34" fill="#ffce9e" stroke="rgba(0,0,0,0.15)" stroke-width="1" data-sq="-4,5" class="board-cell"/><polygon points="126.50,96.76 116.05,114.86 95.15,114.86 84.70,96.76 95.15,78.66 116.05,78.66" fill="#d18b47" stroke="rgba(0,0,0,0.15)" stroke-width="1" data-sq="-3,-2" class="board-cell"/><polygon points="126.50,134.86 116.05,152.96 95.15,152.96 84.70,134.86 95.15,116.76 116.05,116.76" fill="#e8ab6f" stroke="rgba(0,0,0,0.15)" stroke-width="1" data-sq="-3,-1" class="board-cell"/><polygon points="126.50,172.97 116.05,191.07 95.15,191.07 84.70,172.97 95.15,154.87 116.05,154.87" fill="#ffce9e" stroke="rgba(0,0,0,0.15)" stroke-width="1" data-sq="-3,0" class="board-cell"/><polygon points="126.50,211.07 116.05,229.17 95.15,229.17 84.70,211.07 95.15,192.97 116.05,192.97" fill="#d18b47" stroke="rgba(0,0,0,0.15)" stroke-width="1" data-sq="-3,1" class="board-cell"/><polygon points="126.50,249.18 116.05,267.28 95.15,267.28 84.70,249.18 95.15,231.08 116.05,231.08" fill="#e8ab6f" stroke="rgba(0,0,0,0.15)" stroke-width="1" data-sq="-3,2" class="board-cell"/><polygon points="126.50,287.28 116.05,305.38 95.15,305.38 84.70,287.28 95.15,269.18 116.05,269.18" fill="#ffce9e" stroke="rgba(0,0,0,0.15)" stroke-width="1" data-sq="-3,3" class="board-cell"/><polygon points="126.50,325.39 116.05,343.49 95.15,343.49 84.70,325.39 95.15,307.29 116.05,307.29" fill="#d18b47" stroke="rgba(0,0,0,0.15)" stroke-width="1" data-sq="-3,4" class="board-cell"/><polygon points="126.50,363.49 116.05,381.59 95.15,381.59 84.70,363.49 95.15,345.39 116.05,345.39" fill="#e8ab6f" stroke="rgba(0,0,0,0.15)" stroke-width="1" data-sq="-3,5" class="board-cell"/><polygon points="159.50,77.71 149.05,95.81 128.15,95.81 117.70,77.71 128.15,59.61 149.05,59.61" fill="#e8ab6f" stroke="rgba(0,0,0,0.15)" stroke-width="1" data-sq="-2,-3" class="board-cell"/><polygon points="159.50,115.81 149.05,133.91 128.15,133.91 117.70,115.81 128.15,97.71 149.05,97.71" fill="#ffce9e" stroke="rgba(0,0,0,0.15)" stroke-width="1" data-sq="-2,-2" class="board-cell"/><polygon points="159.50,153.92 149.05,172.02 128.15,172.02 117.70,153.92 128.15,135.82 149.05,135.82" fill="#d18b47" stroke="rgba(0,0,0,0.15)" stroke-width="1" data-sq="-2,-1" class="board-cell"/><polygon points="159.50,192.02 149.05,210.12 128.15,210.12 117.70,192.02 128.15,173.92 149.05,173.92" fill="#e8ab6f" stroke="rgba(0,0,0,0.15)" stroke-width="1" data-sq="-2,0" class="board-cell"/><polygon points="159.50,230.13 149.05,248.23 128.15,248.23 117.70,230.13 128.15,212.03 149.05,212.03" fill="#ffce9e" stroke="rgba(0,0,0,0.15)" stroke-width="1" data-sq="-2,1" class="board-cell"/><polygon points="159.50,268.23 149.05,286.33 128.15,286.33 117.70,268.23 128.15,250.13 149.05,250.13" fill="#d18b47" stroke="rgba(0,0,0,0.15)" stroke-width="1" data-sq="-2,2" class="board-cell"/><polygon points="159.50,306.34 149.05,324.44 128.15,324.44 117.70,306.34 128.15,288.24 149.05,288.24" fill="#e8ab6f" stroke="rgba(0,0,0,0.15)" stroke-width="1" data-sq="-2,3" class="board-cell"/><polygon points="159.50,344.44 149.05,362.54 128.15,362.54 117.70,344.44 128.15,326.34 149.05,326.34" fill="#ffce9e" stroke="rgba(0,0,0,0.15)" stroke-width="1" data-sq="-2,4" class="board-cell"/><polygon points="159.50,382.55 149.05,400.65 128.15,400.65 117.70,382.55 128.15,364.45 149.05,364.45" fill="#d18b47" stroke="rgba(0,0,0,0.15)" stroke-width="1" data-sq="-2,5" class="board-cell"/><polygon points="192.50,58.65 182.05,76.75 161.15,76.75 150.70,58.65 161.15,40.55 182.05,40.55" fill="#ffce9e" stroke="rgba(0,0,0,0.15)" stroke-width="1" data-sq="-1,-4" class="board-cell"/><polygon points="192.50,96.76 182.05,114.86 161.15,114.86 150.70,96.76 161.15,78.66 182.05,78.66" fill="#d18b47" stroke="rgba(0,0,0,0.15)" stroke-width="1" data-sq="-1,-3" class="board-cell"/><polygon points="192.50,134.86 182.05,152.96 161.15,152.96 150.70,134.86 161.15,116.76 182.05,116.76" fill="#e8ab6f" stroke="rgba(0,0,0,0.15)" stroke-width="1" data-sq="-1,-2" class="board-cell"/><polygon points="192.50,172.97 182.05,191.07 161.15,191.07 150.70,172.97 161.15,154.87 182.05,154.87" fill="#ffce9e" stroke="rgba(0,0,0,0.15)" stroke-width="1" data-sq="-1,-1" class="board-cell"/><polygon points="192.50,211.07 182.05,229.17 161.15,229.17 150.70,211.07 161.15,192.97 182.05,192.97" fill="#d18b47" stroke="rgba(0,0,0,0.15)" stroke-width="1" data-sq="-1,0" class="board-cell"/><polygon points="192.50,249.18 182.05,267.28 161.15,267.28 150.70,249.18 161.15,231.08 182.05,231.08" fill="#e8ab6f" stroke="rgba(0,0,0,0.15)" stroke-width="1" data-sq="-1,1" class="board-cell"/><polygon points="192.50,287.28 182.05,305.38 161.15,305.38 150.70,287.28 161.15,269.18 182.05,269.18" fill="#ffce9e" stroke="rgba(0,0,0,0.15)" stroke-width="1" data-sq="-1,2" class="board-cell"/><polygon points="192.50,325.39 182.05,343.49 161.15,343.49 150.70,325.39 161.15,307.29 182.05,307.29" fill="#d18b47" stroke="rgba(0,0,0,0.15)" stroke-width="1" data-sq="-1,3" class="board-cell"/><polygon points="192.50,363.49 182.05,381.59 161.15,381.59 150.70,363.49 161.15,345.39 182.05,345.39" fill="#e8ab6f" stroke="rgba(0,0,0,0.15)" stroke-width="1" data-sq="-1,4" class="board-cell"/><polygon points="192.50,401.60 182.05,419.70 161.15,419.70 150.70,401.60 161.15,383.50 182.05,383.50" fill="#ffce9e" stroke="rgba(0,0,0,0.15)" stroke-width="1" data-sq="-1,5" class="board-cell"/><polygon points="225.50,39.60 215.05,57.70 194.15,57.70 183.70,39.60 194.15,21.50 215.05,21.50" fill="#d18b47" stroke="rgba(0,0,0,0.15)" stroke-width="1" data-sq="0,-5" class="board-cell"/><polygon points="225.50,77.71 215.05,95.81 194.15,95.81 183.70,77.71 194.15,59.61 215.05,59.61" fill="#e8ab6f" stroke="rgba(0,0,0,0.15)" stroke-width="1" data-sq="0,-4" class="board-cell"/><polygon points="225.50,115.81 215.05,133.91 194.15,133.91 183.70,115.81 194.15,97.71 215.05,97.71" fill="#ffce9e" stroke="rgba(0,0,0,0.15)" stroke-width="1" data-sq="0,-3" class="board-cell"/><polygon points="225.50,153.92 215.05,172.02 194.15,172.02 183.70,153.92 194.15,135.82 215.05,135.82" fill="#d18b47" stroke="rgba(0,0,0,0.15)" stroke-width="1" data-sq="0,-2" class="board-cell"/><polygon points="225.50,192.02 215.05,210.12 194.15,210.12 183.70,192.02 194.15,173.92 215.05,173.92" fill="#e8ab6f" stroke="rgba(0,0,0,0.15)" stroke-width="1" data-sq="0,-1" class="board-cell"/><polygon points="225.50,230.13 215.05,248.23 194.15,248.23 183.70,230.13 194.15,212.03 215.05,212.03" fill="#ffce9e" stroke="rgba(0,0,0,0.15)" stroke-width="1" data-sq="0,0" class="board-cell"/><polygon points="225.50,268.23 215.05,286.33 194.15,286.33 183.70,268.23 194.15,250.13 215.05,250.13" fill="#d18b47" stroke="rgba(0,0,0,0.15)" stroke-width="1" data-sq="0,1" class="board-cell"/><polygon points="225.50,306.34 215.05,324.44 194.15,324.44 183.70,306.34 194.15,288.24 215.05,288.24" fill="#e8ab6f" stroke="rgba(0,0,0,0.15)" stroke-width="1" data-sq="0,2" class="board-cell"/><polygon points="225.50,344.44 215.05,362.54 194.15,362.54 183.70,344.44 194.15,326.34 215.05,326.34" fill="#ffce9e" stroke="rgba(0,0,0,0.15)" stroke-width="1" data-sq="0,3" class="board-cell"/><polygon points="225.50,382.55 215.05,400.65 194.15,400.65 183.70,382.55 194.15,364.45 215.05,364.45" fill="#d18b47" stroke="rgba(0,0,0,0.15)" stroke-width="1" data-sq="0,4" class="board-cell"/><polygon points="225.50,420.65 215.05,438.75 194.15,438.75 183.70,420.65 194.15,402.55 215.05,402.55" fill="#e8ab6f" stroke="rgba(0,0,0,0.15)" stroke-width="1" data-sq="0,5" class="board-cell"/><polygon points="258.50,58.65 248.05,76.75 227.15,76.75 216.70,58.65 227.15,40.55 248.05,40.55" fill="#ffce9e" stroke="rgba(0,0,0,0.15)" stroke-width="1" data-sq="1,-5" class="board-cell"/><polygon points="258.50,96.76 248.05,114.86 227.15,114.86 216.70,96.76 227.15,78.66 248.05,78.66" fill="#d18b47" stroke="rgba(0,0,0,0.15)" stroke-width="1" data-sq="1,-4" class="board-cell"/><polygon points="258.50,134.86 248.05,152.96 227.15,152.96 216.70,134.86 227.15,116.76 248.05,116.76" fill="#e8ab6f" stroke="rgba(0,0,0,0.15)" stroke-width="1" data-sq="1,-3" class="board-cell"/><polygon points="258.50,172.97 248.05,191.07 227.15,191.07 216.70,172.97 227.15,154.87 248.05,154.87" fill="#ffce9e" stroke="rgba(0,0,0,0.15)" stroke-width="1" data-sq="1,-2" class="board-cell"/><polygon points="258.50,211.07 248.05,229.17 227.15,229.17 216.70,211.07 227.15,192.97 248.05,192.97" fill="#d18b47" stroke="rgba(0,0,0,0.15)" stroke-width="1" data-sq="1,-1" class="board-cell"/><polygon points="258.50,249.18 248.05,267.28 227.15,267.28 216.70,249.18 227.15,231.08 248.05,231.08" fill="#e8ab6f" stroke="rgba(0,0,0,0.15)" stroke-width="1" data-sq="1,0" class="board-cell"/><polygon points="258.50,287.28 248.05,305.38 227.15,305.38 216.70,287.28 227.15,269.18 248.05,269.18" fill="#ffce9e" stroke="rgba(0,0,0,0.15)" stroke-width="1" data-sq="1,1" class="board-cell"/><polygon points="258.50,325.39 248.05,343.49 227.15,343.49 216.70,325.39 227.15,307.29 248.05,307.29" fill="#d18b47" stroke="rgba(0,0,0,0.15)" stroke-width="1" data-sq="1,2" class="board-cell"/><polygon points="258.50,363.49 248.05,381.59 227.15,381.59 216.70,363.49 227.15,345.39 248.05,345.39" fill="#e8ab6f" stroke="rgba(0,0,0,0.15)" stroke-width="1" data-sq="1,3" class="board-cell"/><polygon points="258.50,401.60 248.05,419.70 227.15,419.70 216.70,401.60 227.15,383.50 248.05,383.50" fill="#ffce9e" stroke="rgba(0,0,0,0.15)" stroke-width="1" data-sq="1,4" class="board-cell"/><polygon points="291.50,77.71 281.05,95.81 260.15,95.81 249.70,77.71 260.15,59.61 281.05,59.61" fill="#e8ab6f" stroke="rgba(0,0,0,0.15)" stroke-width="1" data-sq="2,-5" class="board-cell"/><polygon points="291.50,115.81 281.05,133.91 260.15,133.91 249.70,115.81 260.15,97.71 281.05,97.71" fill="#ffce9e" stroke="rgba(0,0,0,0.15)" stroke-width="1" data-sq="2,-4" class="board-cell"/><polygon points="291.50,153.92 281.05,172.02 260.15,172.02 249.70,153.92 260.15,135.82 281.05,135.82" fill="#d18b47" stroke="rgba(0,0,0,0.15)" stroke-width="1" data-sq="2,-3" class="board-cell"/><polygon points="291.50,192.02 281.05,210.12 260.15,210.12 249.70,192.02 260.15,173.92 281.05,173.92" fill="#e8ab6f" stroke="rgba(0,0,0,0.15)" stroke-width="1" data-sq="2,-2" class="board-cell"/><polygon points="291.50,230.13 281.05,248.23 260.15,248.23 249.70,230.13 260.15,212.03 281.05,212.03" fill="#ffce9e" stroke="rgba(0,0,0,0.15)" stroke-width="1" data-sq="2,-1" class="board-cell"/><polygon points="291.50,268.23 281.05,286.33 260.15,286.33 249.70,268.23 260.15,250.13 281.05,250.13" fill="#d18b47" stroke="rgba(0,0,0,0.15)" stroke-width="1" data-sq="2,0" class="board-cell"/><polygon points="291.50,306.34 281.05,324.44 260.15,324.44 249.70,306.34 260.15,288.24 281.05,288.24" fill="#e8ab6f" stroke="rgba(0,0,0,0.15)" stroke-width="1" data-sq="2,1" class="board-cell"/><polygon points="291.50,344.44 281.05,362.54 260.15,362.54 249.70,344.44 260.15,326.34 281.05,326.34" fill="#ffce9e" stroke="rgba(0,0,0,0.15)" stroke-width="1" data-sq="2,2" class="board-cell"/><polygon points="291.50,382.55 281.05,400.65 260.15,400.65 249.70,382.55 260.15,364.45 281.05,364.45" fill="#d18b47" stroke="rgba(0,0,0,0.15)" stroke-width="1" data-sq="2,3" class="board-cell"/><polygon points="324.50,96.76 314.05,114.86 293.15,114.86 282.70,96.76 293.15,78.66 314.05,78.66" fill="#d18b47" stroke="rgba(0,0,0,0.15)" stroke-width="1" data-sq="3,-5" class="board-cell"/><polygon points="324.50,134.86 314.05,152.96 293.15,152.96 282.70,134.86 293.15,116.76 314.05,116.76" fill="#e8ab6f" stroke="rgba(0,0,0,0.15)" stroke-width="1" data-sq="3,-4" class="board-cell"/><polygon points="324.50,172.97 314.05,191.07 293.15,191.07 282.70,172.97 293.15,154.87 314.05,154.87" fill="#ffce9e" stroke="rgba(0,0,0,0.15)" stroke-width="1" data-sq="3,-3" class="board-cell"/><polygon points="324.50,211.07 314.05,229.17 293.15,229.17 282.70,211.07 293.15,192.97 314.05,192.97" fill="#d18b47" stroke="rgba(0,0,0,0.15)" stroke-width="1" data-sq="3,-2" class="board-cell"/><polygon points="324.50,249.18 314.05,267.28 293.15,267.28 282.70,249.18 293.15,231.08 314.05,231.08" fill="#e8ab6f" stroke="rgba(0,0,0,0.15)" stroke-width="1" data-sq="3,-1" class="board-cell"/><polygon points="324.50,287.28 314.05,305.38 293.15,305.38 282.70,287.28 293.15,269.18 314.05,269.18" fill="#ffce9e" stroke="rgba(0,0,0,0.15)" stroke-width="1" data-sq="3,0" class="board-cell"/><polygon points="324.50,325.39 314.05,343.49 293.15,343.49 282.70,325.39 293.15,307.29 314.05,307.29" fill="#d18b47" stroke="rgba(0,0,0,0.15)" stroke-width="1" data-sq="3,1" class="board-cell"/><polygon points="324.50,363.49 314.05,381.59 293.15,381.59 282.70,363.49 293.15,345.39 314.05,345.39" fill="#e8ab6f" stroke="rgba(0,0,0,0.15)" stroke-width="1" data-sq="3,2" class="board-cell"/><polygon points="357.50,115.81 347.05,133.91 326.15,133.91 315.70,115.81 326.15,97.71 347.05,97.71" fill="#ffce9e" stroke="rgba(0,0,0,0.15)" stroke-width="1" data-sq="4,-5" class="board-cell"/><polygon points="357.50,153.92 347.05,172.02 326.15,172.02 315.70,153.92 326.15,135.82 347.05,135.82" fill="#d18b47" stroke="rgba(0,0,0,0.15)" stroke-width="1" data-sq="4,-4" class="board-cell"/><polygon points="357.50,192.02 347.05,210.12 326.15,210.12 315.70,192.02 326.15,173.92 347.05,173.92" fill="#e8ab6f" stroke="rgba(0,0,0,0.15)" stroke-width="1" data-sq="4,-3" class="board-cell"/><polygon points="357.50,230.13 347.05,248.23 326.15,248.23 315.70,230.13 326.15,212.03 347.05,212.03" fill="#ffce9e" stroke="rgba(0,0,0,0.15)" stroke-width="1" data-sq="4,-2" class="board-cell"/><polygon points="357.50,268.23 347.05,286.33 326.15,286.33 315.70,268.23 326.15,250.13 347.05,250.13" fill="#d18b47" stroke="rgba(0,0,0,0.15)" stroke-width="1" data-sq="4,-1" class="board-cell"/><polygon points="357.50,306.34 347.05,324.44 326.15,324.44 315.70,306.34 326.15,288.24 347.05,288.24" fill="#e8ab6f" stroke="rgba(0,0,0,0.15)" stroke-width="1" data-sq="4,0" class="board-cell"/><polygon points="357.50,344.44 347.05,362.54 326.15,362.54 315.70,344.44 326.15,326.34 347.05,326.34" fill="#ffce9e" stroke="rgba(0,0,0,0.15)" stroke-width="1" data-sq="4,1" class="board-cell"/><polygon points="390.50,134.86 380.05,152.96 359.15,152.96 348.70,134.86 359.15,116.76 380.05,116.76" fill="#e8ab6f" stroke="rgba(0,0,0,0.15)" stroke-width="1" data-sq="5,-5" class="board-cell"/><polygon points="390.50,172.97 380.05,191.07 359.15,191.07 348.70,172.97 359.15,154.87 380.05,154.87" fill="#ffce9e" stroke="rgba(0,0,0,0.15)" stroke-width="1" data-sq="5,-4" class="board-cell"/><polygon points="390.50,211.07 380.05,229.17 359.15,229.17 348.70,211.07 359.15,192.97 380.05,192.97" fill="#d18b47" stroke="rgba(0,0,0,0.15)" stroke-width="1" data-sq="5,-3" class="board-cell"/><polygon points="390.50,249.18 380.05,267.28 359.15,267.28 348.70,249.18 359.15,231.08 380.05,231.08" fill="#e8ab6f" stroke="rgba(0,0,0,0.15)" stroke-width="1" data-sq="5,-2" class="board-cell"/><polygon points="390.50,287.28 380.05,305.38 359.15,305.38 348.70,287.28 359.15,269.18 380.05,269.18" fill="#ffce9e" stroke="rgba(0,0,0,0.15)" stroke-width="1" data-sq="5,-1" class="board-cell"/><polygon points="390.50,325.39 380.05,343.49 359.15,343.49 348.70,325.39 359.15,307.29 380.05,307.29" fill="#d18b47" stroke="rgba(0,0,0,0.15)" stroke-width="1" data-sq="5,0" class="board-cell"/><g pointer-events="none"><use href="#piece-mce-chess-bP" x="154.0" y="155.4" width="35.2" height="35.2"/><use href="#piece-mce-chess-bQ" x="154.0" y="41.1" width="35.2" height="35.2"/><use href="#piece-mce-chess-wP" x="154.0" y="269.7" width="35.2" height="35.2"/><use href="#piece-mce-chess-wQ" x="154.0" y="384.0" width="35.2" height="35.2"/><use href="#piece-mce-chess-bP" x="121.0" y="136.3" width="35.2" height="35.2"/><use href="#piece-mce-chess-bN" x="121.0" y="60.1" width="35.2" height="35.2"/><use href="#piece-mce-chess-wP" x="121.0" y="288.7" width="35.2" height="35.2"/><use href="#piece-mce-chess-wN" x="121.0" y="364.9" width="35.2" height="35.2"/><use href="#piece-mce-chess-bP" x="88.0" y="117.3" width="35.2" height="35.2"/><use href="#piece-mce-chess-bR" x="88.0" y="79.2" width="35.2" height="35.2"/><use href="#piece-mce-chess-wP" x="88.0" y="307.8" width="35.2" height="35.2"/><use href="#piece-mce-chess-wR" x="88.0" y="345.9" width="35.2" height="35.2"/><use href="#piece-mce-chess-bP" x="187.0" y="174.4" width="35.2" height="35.2"/><use href="#piece-mce-chess-bB" x="187.0" y="98.2" width="35.2" height="35.2"/><use href="#piece-mce-chess-bB" x="187.0" y="60.1" width="35.2" height="35.2"/><use href="#piece-mce-chess-bB" x="187.0" y="22.0" width="35.2" height="35.2"/><use href="#piece-mce-chess-wP" x="187.0" y="250.6" width="35.2" height="35.2"/><use href="#piece-mce-chess-wB" x="187.0" y="326.8" width="35.2" height="35.2"/><use href="#piece-mce-chess-wB" x="187.0" y="364.9" width="35.2" height="35.2"/><use href="#piece-mce-chess-wB" x="187.0" y="403.1" width="35.2" height="35.2"/><use href="#piece-mce-chess-bP" x="220.0" y="155.4" width="35.2" height="35.2"/><use href="#piece-mce-chess-bK" x="220.0" y="41.1" width="35.2" height="35.2"/><use href="#piece-mce-chess-wP" x="220.0" y="269.7" width="35.2" height="35.2"/><use href="#piece-mce-chess-wK" x="220.0" y="384.0" width="35.2" height="35.2"/><use href="#piece-mce-chess-bP" x="253.0" y="136.3" width="35.2" height="35.2"/><use href="#piece-mce-chess-bN" x="253.0" y="60.1" width="35.2" height="35.2"/><use href="#piece-mce-chess-wP" x="253.0" y="288.7" width="35.2" height="35.2"/><use href="#piece-mce-chess-wN" x="253.0" y="364.9" width="35.2" height="35.2"/><use href="#piece-mce-chess-bP" x="286.0" y="117.3" width="35.2" height="35.2"/><use href="#piece-mce-chess-bR" x="286.0" y="79.2" width="35.2" height="35.2"/><use href="#piece-mce-chess-wP" x="286.0" y="307.8" width="35.2" height="35.2"/><use href="#piece-mce-chess-wR" x="286.0" y="345.9" width="35.2" height="35.2"/></g>
</svg>