<svg xmlns="http://www.w3.org/2000/svg" viewBox="0 0 352.8 391.7845356715714" width="352.8" height="391.7845356715714">
<defs>
<symbol id="piece-mce-chess-bN" viewBox="0 0 45 45"><g style="fill:none;stroke:#000;stroke-width:1.5;stroke-linecap:round;stroke-linejoin:round"><path d="M 22,10 C 32.5,11 38.5,18 38,39 L 15,39 C 15,30 25,32.5 23,18" style="fill:#000"/><path d="M 24,18 C 24.38,20.91 18.45,25.37 16,27 C 13,29 13.18,31.34 11,31 C 9.958,30.06 12.41,27.96 11,28 C 10,28 11.19,29.23 10,30 C 9,30 5.997,31 6,26 C 6,24 12,14 12,14 C 12,14 13.89,12.1 14,10.5 C 13.27,9.506 13.5,8.5 13.5,7.5 C 14.5,6.5 16.5,10 16.5,10 L 18.5,10 C 18.5,10 19.28,8.008 21,7 C 22,7 22,10 22,10" style="fill:#000"/><path d="M 9.5,25.5 A 0.5,0.5 0 1 1 8.5,25.5 A 0.5,0.5 0 1 1 9.5,25.5 z" style="fill:#fff"/><path d="M 15,15.5 A 0.5,1.5 0 1 1 14,15.5 A 0.5,1.5 0 1 1 15,15.5 z" transform="matrix(0.866,0.5,-0.5,0.866,9.693,-5.173)" style="fill:#fff"/><path d="M 24.55,10.4 L 24.1,11.85 L 24.6,12 C 27.75,13 30.25,14.49 32.5,18.75 C 34.75,23.01 35.75,29.06 35.25,39 L 35.2,39.5 L 37.45,39.5 L 37.5,39 C 38,28.94 36.62,22.15 34.25,17.66 C 31.88,13.17 28.46,11.02 25.06,10.5 L 24.55,10.4 z" style="fill:#fff;stroke:none"/></g></symbol>
<symbol id="piece-mce-chess-bP" viewBox="0 0 45 45"><path d="M 22,9 C 19.79,9 18,10.79 18,13 C 18,13.89 18.29,14.71 18.78,15.38 C 16.83,16.5 15.5,18.59 15.5,21 C 15.5,23.03 16.44,24.84 17.91,26.03 C 14.91,27.09 10.5,31.58 10.5,39.5 L 33.5,39.5 C 33.5,31.58 29.09,27.09 26.09,26.03 C 27.56,24.84 28.5,23.03 28.5,21 C 28.5,18.59 27.17,16.5 25.22,15.38 C 25.71,14.71 26,13.89 26,13 C 26,10.79 24.21,9 22,9 z" style="fill:#000;stroke:#000;stroke-width:1.5;stroke-linecap:round"/></symbol>
<symbol id="piece-mce-chess-wP" viewBox="0 0 45 45"><path d="M 22,9 C 19.79,9 18,10.79 18,13 C 18,13.89 18.29,14.71 18.78,15.38 C 16.83,16.5 15.5,18.59 15.5,21 C 15.5,23.03 16.44,24.84 17.91,26.03 C 14.91,27.09 10.5,31.58 10.5,39.5 L 33.5,39.5 C 33.5,31.58 29.09,27.09 26.09,26.03 C 27.56,24.84 28.5,23.03 28.5,21 C 28.5,18.59 27.17,16.5 25.22,15.38 C 25.71,14.71 26,13.89 26,13 C 26,10.79 24.21,9 22,9 z" style="fill:#fff;stroke:#000;stroke-width:1.5;stroke-linecap:round"/></symbol>
<symbol id="piece-mce-chess-wN" viewBox="0 0 45 45"><g style="fill:none;stroke:#000;stroke-width:1.5;stroke-linecap:round;stroke-linejoin:round"><path d="M 22,10 C 32.5,11 38.5,18 38,39 L 15,39 C 15,30 25,32.5 23,18" style="fill:#fff"/><path d="M 24,18 C 24.38,20.91 18.45,25.37 16,27 C 13,29 13.18,31.34 11,31 C 9.958,30.06 12.41,27.96 11,28 C 10,28 11.19,29.23 10,30 C 9,30 5.997,31 6,26 C 6,24 12,14 12,14 C 12,14 13.89,12.1 14,10.5 C 13.27,9.506 13.5,8.5 13.5,7.5 C 14.5,6.5 16.5,10 16.5,10 L 18.5,10 C 18.5,10 19.28,8.008 21,7 C 22,7 22,10 22,10" style="fill:#fff"/><path d="M 9.5,25.5 A 0.5,0.5 0 1 1 8.5,25.5 A 0.5,0.5 0 1 1 9.5,25.5 z" style="fill:#000"/><path d="M 15,15.5 A 0.5,1.5 0 1 1 14,15.5 A 0.5,1.5 0 1 1 15,15.5 z" transform="matrix(0.866,0.5,-0.5,0.866,9.693,-5.173)" style="fill:#000"/></g></symbol>
<symbol id="piece-mce-chess-bR" viewBox="0 0 45 45"><g style="fill:#000;stroke:#000;stroke-width:1.5;stroke-linecap:round;stroke-linejoin:round"><path d="M 9,39 L 36,39 L 36,36 L 9,36 L 9,39 z"/><path d="M 12,36 L 12,32 L 33,32 L 33,36 L 12,36 z"/><path d="M 11,14 L 11,9 L 15,9 L 15,11 L 20,11 L 20,9 L 25,9 L 25,11 L 30,11 L 30,9 L 34,9 L 34,14"/><path d="M 34,14 L 31,17 L 14,17 L 11,14"/><path d="M 31,17 L 31,29.5 L 14,29.5 L 14,17"/><path d="M 31,29.5 L 32.5,32 L 12.5,32 L 14,29.5"/><path d="M 11,14 L 34,14" style="fill:none;stroke:#fff;stroke-linejoin:miter"/><path d="M 12,35.5 L 33,35.5" style="fill:none;stroke:#fff;stroke-width:1"/><path d="M 13,31.5 L 32,31.5" style="fill:none;stroke:#fff;stroke-width:1"/><path d="M 14,29.5 L 31,29.5" style="fill:none;stroke:#fff;stroke-width:1"/></g></symbol>
<symbol id="piece-mce-chess-wR" viewBox="0 0 45 45"><g style="fill:#fff;stroke:#000;stroke-width:1.5;stroke-linecap:round;stroke-linejoin:round"><path d="M 9,39 L 36,39 L 36,36 L 9,36 L 9,39 z"/><path d="M 12,36 L 12,32 L 33,32 L 33,36 L 12,36 z"/><path d="M 11,14 L 11,9 L 15,9 L 15,11 L 20,11 L 20,9 L 25,9 L 25,11 L 30,11 L 30,9 L 34,9 L 34,14"/><path d="M 34,14 L 31,17 L 14,17 L 11,14"/><path d="M 31,17 L 31,29.5 L 14,29.5 L 14,17"/><path d="M 31,29.5 L 32.5,32 L 12.5,32 L 14,29.5"/><path d="M 11,14 L 34,14" style="fill:none"/></g></symbol>
<symbol id="piece-mce-chess-bB" viewBox="0 0 45 45"><g style="fill:none;stroke:#000;stroke-width:1.5;stroke-linecap:round;stroke-linejoin:round"><g style="fill:#000;stroke-linecap:butt"><path d="M 9,36 C 12.39,35.03 19.11,36.43 22.5,34 C 25.89,36.43 32.61,35.03 36,36 C 36,36 37.65,36.54 39,38 C 38.32,38.97 37.2,38.91 36,38.5 C 32.61,37.53 25.89,38.96 22.5,37.5 C 19.11,38.96 12.39,37.53 9,38.5 C 7.8,38.91 6.68,38.97 6,38 C 7.35,36.54 9,36 9,36 z"/><path d="M 15,32 C 17.5,34.5 27.5,34.5 30,32 C 30.5,30.5 30,30 30,30 C 30,27.5 27.5,26 27.5,26 C 33,24.5 33.5,14.5 22.5,10.5 C 11.5,14.5 12,24.5 17.5,26 C 17.5,26 15,27.5 15,30 C 15,30 14.5,30.5 15,32 z"/><path d="M 25,8 A 2.5,2.5 0 1 1 20,8 A 2.5,2.5 0 1 1 25,8 z"/></g><path d="M 17.5,26 L 27.5,26 M 15,30 L 30,30 M 22.5,15.5 L 22.5,20.5 M 20,18 L 25,18" style="fill:none;stroke:#fff;stroke-linejoin:miter"/></g></symbol>
<symbol id="piece-mce-chess-bK" viewBox="0 0 45 45"><g style="fill:#000;stroke:#000;stroke-width:1.5;stroke-linejoin:round"><path d="M 22.5,11.63 L 22.5,6" style="fill:none;stroke:#fff;stroke-linejoin:miter"/><path d="M 20,8 L 25,8" style="fill:none;stroke:#fff;stroke-linejoin:miter"/><path d="M 22.5,25 C 22.5,25 27,17.5 25.5,14.5 C 25.5,14.5 24.5,12 22.5,12 C 20.5,12 19.5,14.5 19.5,14.5 C 18,17.5 22.5,25 22.5,25"/><path d="M 12.5,37 C 18,40.5 27,40.5 32.5,37 L 32.5,30 C 32.5,30 41.5,25.5 38.5,19.5 C 34.5,13 25,16 22.5,23.5 L 22.5,27 L 22.5,23.5 C 20,16 10.5,13 6.5,19.5 C 3.5,25.5 12.5,30 12.5,30 L 12.5,37"/><path d="M 12.5,30 C 18,27 27,27 32.5,30" style="fill:none;stroke:#fff"/><path d="M 12.5,33.5 C 18,30.5 27,30.5 32.5,33.5" style="fill:none;stroke:#fff"/><path d="M 12.5,37 C 18,34 27,34 32.5,37" style="fill:none;stroke:#fff"/></g></symbol>
<symbol id="piece-mce-chess-wB" viewBox="0 0 45 45"><g style="fill:none;stroke:#000;stroke-width:1.5;stroke-linecap:round;stroke-linejoin:round"><g style="fill:#fff;stroke-linecap:butt"><path d="M 9,36 C 12.39,35.03 19.11,36.43 22.5,34 C 25.89,36.43 32.61,35.03 36,36 C 36,36 37.65,36.54 39,38 C 38.32,38.97 37.2,38.91 36,38.5 C 32.61,37.53 25.89,38.96 22.5,37.5 C 19.11,38.96 12.39,37.53 9,38.5 C 7.8,38.91 6.68,38.97 6,38 C 7.35,36.54 9,36 9,36 z"/><path d="M 15,32 C 17.5,34.5 27.5,34.5 30,32 C 30.5,30.5 30,30 30,30 C 30,27.5 27.5,26 27.5,26 C 33,24.5 33.5,14.5 22.5,10.5 C 11.5,14.5 12,24.5 17.5,26 C 17.5,26 15,27.5 15,30 C 15,30 14.5,30.5 15,32 z"/><path d="M 25,8 A 2.5,2.5 0 1 1 20,8 A 2.5,2.5 0 1 1 25,8 z"/></g><path d="M 17.5,26 L 27.5,26 M 15,30 L 30,30 M 22.5,15.5 L 22.5,20.5 M 20,18 L 25,18" style="fill:none;stroke:#000;stroke-linejoin:miter"/></g></symbol>
<symbol id="piece-mce-chess-wK" viewBox="0 0 45 45"><g style="fill:#fff;stroke:#000;stroke-width:1.5;stroke-linejoin:round"><path d="M 22.5,11.63 L 22.5,6" style="fill:none;stroke-linejoin:miter"/><path d="M 20,8 L 25,8" style="fill:none;stroke-linejoin:miter"/><path d="M 22.5,25 C 22.5,25 27,17.5 25.5,14.5 C 25.5,14.5 24.5,12 22.5,12 C 20.5,12 19.5,14.5 19.5,14.5 C 18,17.5 22.5,25 22.5,25"/><path d="M 12.5,37 C 18,40.5 27,40.5 32.5,37 L 32.5,30 C 32.5,30 41.5,25.5 38.5,19.5 C 34.5,13 25,16 22.5,23.5 L 22.5,27 L 22.5,23.5 C 20,16 10.5,13 6.5,19.5 C 3.5,25.5 12.5,30 12.5,30 L 12.5,37"/><path d="M 12.5,30 C 18,27 27,27 32.5,30"/><path d="M 12.5,33.5 C 18,30.5 27,30.5 32.5,33.5"/><path d="M 12.5,37 C 18,34 27,34 32.5,37"/></g></symbol>
</defs>
<g fill="#6b4226"><polygon points="80.64,123.15 65.52,149.33 35.28,149.33 20.16,123.15 35.28,96.96 65.52,96.96"/><polygon points="80.64,171.64 65.52,197.83 35.28,197.83 20.16,171.64 35.28,145.45 65.52,145.45"/><polygon points="80.64,220.14 65.52,246.33 35.28,246.33 20.16,220.14 35.28,193.95 65.52,193.95"/><polygon points="80.64,268.64 65.52,294.83 35.28,294.83 20.16,268.64 35.28,242.45 65.52,242.45"/><polygon points="122.64,98.90 107.52,125.09 77.28,125.09 62.16,98.90 77.28,72.71 107.52,72.71"/><polygon points="122.64,147.39 107.52,173.58 77.28,173.58 62.16,147.39 77.28,121.21 107.52,121.21"/><polygon points="122.64,195.89 107.52,222.08 77.28,222.08 62.16,195.89 77.28,169.70 107.52,169.70"/><polygon points="122.64,244.39 107.52,270.58 77.28,270.58 62.16,244.39 77.28,218.20 107.52,218.20"/><polygon points="122.64,292.89 107.52,319.08 77.28,319.08 62.16,292.89 77.28,266.70 107.52,266.70"/><polygon points="164.64,74.65 149.52,100.84 119.28,100.84 104.16,74.65 119.28,48.46 149.52,48.46"/><polygon points="164.64,123.15 149.52,149.33 119.28,149.33 104.16,123.15 119.28,96.96 149.52,96.96"/><polygon points="164.64,171.64 149.52,197.83 119.28,197.83 104.16,171.64 119.28,145.45 149.52,145.45"/><polygon points="164.64,220.14 149.52,246.33 119.28,246.33 104.16,220.14 119.28,193.95 149.52,193.95"/><polygon points="164.64,268.64 149.52,294.83 119.28,294.83 104.16,268.64 119.28,242.45 149.52,242.45"/><polygon points="164.64,317.14 149.52,343.32 119.28,343.32 104.16,317.14 119.28,290.95 149.52,290.95"/><polygon points="206.64,50.40 191.52,76.59 161.28,76.59 146.16,50.40 161.28,24.21 191.52,24.21"/><polygon points="206.64,98.90 191.52,125.09 161.28,125.09 146.16,98.90 161.28,72.71 191.52,72.71"/><polygon points="206.64,147.39 191.52,173.58 161.28,173.58 146.16,147.39 161.28,121.21 191.52,121.21"/><polygon points="206.64,195.89 191.52,222.08 161.28,222.08 146.16,195.89 161.28,169.70 191.52,169.70"/><polygon points="206.64,244.39 191.52,270.58 161.28,270.58 146.16,244.39 161.28,218.20 191.52,218.20"/><polygon points="206.64,292.89 191.52,319.08 161.28,319.08 146.16,292.89 161.28,266.70 191.52,266.70"/><polygon points="206.64,341.38 191.52,367.57 161.28,367.57 146.16,341.38 161.28,315.20 191.52,315.20"/><polygon points="248.64,74.65 233.52,100.84 203.28,100.84 188.16,74.65 203.28,48.46 233.52,48.46"/><polygon points="248.64,123.15 233.52,149.33 203.28,149.33 188.16,123.15 203.28,96.96 233.52,96.96"/><polygon points="248.64,171.64 233.52,197.83 203.28,197.83 188.16,171.64 203.28,145.45 233.52,145.45"/><polygon points="248.64,220.14 233.52,246.33 203.28,246.33 188.16,220.14 203.28,193.95 233.52,193.95"/><polygon points="248.64,268.64 233.52,294.83 203.28,294.83 188.16,268.64 203.28,242.45 233.52,242.45"/><polygon points="248.64,317.14 233.52,343.32 203.28,343.32 188.16,317.14 203.28,290.95 233.52,290.95"/><polygon points="290.64,98.90 275.52,125.09 245.28,125.09 230.16,98.90 245.28,72.71 275.52,72.71"/><polygon points="290.64,147.39 275.52,173.58 245.28,173.58 230.16,147.39 245.28,121.21 275.52,121.21"/><polygon points="290.64,195.89 275.52,222.08 245.28,222.08 230.16,195.89 245.28,169.70 275.52,169.70"/><polygon points="290.64,244.39 275.52,270.58 245.28,270.58 230.16,244.39 245.28,218.20 275.52,218.20"/><polygon points="290.64,292.89 275.52,319.08 245.28,319.08 230.16,292.89 245.28,266.70 275.52,266.70"/><polygon points="332.64,123.15 317.52,149.33 287.28,149.33 272.16,123.15 287.28,96.96 317.52,96.96"/><polygon points="332.64,171.64 317.52,197.83 287.28,197.83 272.16,171.64 287.28,145.45 317.52,145.45"/><polygon points="332.64,220.14 317.52,246.33 287.28,246.33 272.16,220.14 287.28,193.95 317.52,193.95"/><polygon points="332.64,268.64 317.52,294.83 287.28,294.83 272.16,268.64 287.28,242.45 317.52,242.45"/></g><g fill="none" stroke="#6b4226" stroke-width="14" stroke-linecap="round" stroke-linejoin="round"><line x1="35.70" y1="148.61" x2="21.00" y2="123.15"/><line x1="21.00" y1="123.15" x2="35.70" y2="97.68"/><line x1="35.70" y1="97.68" x2="65.10" y2="97.68"/><line x1="35.70" y1="197.10" x2="21.00" y2="171.64"/><line x1="21.00" y1="171.64" x2="35.70" y2="146.18"/><line x1="35.70" y1="245.60" x2="21.00" y2="220.14"/><line x1="21.00" y1="220.14" x2="35.70" y2="194.68"/><line x1="65.10" y1="294.10" x2="35.70" y2="294.10"/><line x1="35.70" y1="294.10" x2="21.00" y2="268.64"/><line x1="21.00" y1="268.64" x2="35.70" y2="243.18"/><line x1="63.00" y1="98.90" x2="77.70" y2="73.44"/><line x1="77.70" y1="73.44" x2="107.10" y2="73.44"/><line x1="107.10" y1="318.35" x2="77.70" y2="318.35"/><line x1="77.70" y1="318.35" x2="63.00" y2="292.89"/><line x1="105.00" y1="74.65" x2="119.70" y2="49.19"/><line x1="119.70" y1="49.19" x2="149.10" y2="49.19"/><line x1="149.10" y1="342.60" x2="119.70" y2="342.60"/><line x1="119.70" y1="342.60" x2="105.00" y2="317.14"/><line x1="147.00" y1="50.40" x2="161.70" y2="24.94"/><line x1="161.70" y1="24.94" x2="191.10" y2="24.94"/><line x1="191.10" y1="24.94" x2="205.80" y2="50.40"/><line x1="205.80" y1="341.38" x2="191.10" y2="366.85"/><line x1="191.10" y1="366.85" x2="161.70" y2="366.85"/><line x1="161.70" y1="366.85" x2="147.00" y2="341.38"/><line x1="203.70" y1="49.19" x2="233.10" y2="49.19"/><line x1="233.10" y1="49.19" x2="247.80" y2="74.65"/><line x1="247.80" y1="317.14" x2="233.10" y2="342.60"/><line x1="233.10" y1="342.60" x2="203.70" y2="342.60"/><line x1="245.70" y1="73.44" x2="275.10" y2="73.44"/><line x1="275.10" y1="73.44" x2="289.80" y2="98.90"/><line x1="289.80" y1="292.89" x2="275.10" y2="318.35"/><line x1="275.10" y1="318.35" x2="245.70" y2="318.35"/><line x1="331.80" y1="123.15" x2="317.10" y2="148.61"/><line x1="287.70" y1="97.68" x2="317.10" y2="97.68"/><line x1="317.10" y1="97.68" x2="331.80" y2="123.15"/><line x1="331.80" y1="171.64" x2="317.10" y2="197.10"/><line x1="317.10" y1="146.18" x2="331.80" y2="171.64"/><line x1="331.80" y1="220.14" x2="317.10" y2="245.60"/><line x1="317.10" y1="194.68" x2="331.80" y2="220.14"/><line x1="331.80" y1="268.64" x2="317.10" y2="294.10"/><line x1="317.10" y1="294.10" x2="287.70" y2="294.10"/><line x1="317.10" y1="243.18" x2="331.80" y2="268.64"/></g><polygon points="77.00,123.15 63.70,146.18 37.10,146.18 23.80,123.15 37.10,100.11 63.70,100.11" fill="#ffce9e" stroke="rgba(0,0,0,0.15)" stroke-width="1" data-sq="-3,0" class="board-cell"/><polygon points="77.00,171.64 63.70,194.68 37.10,194.68 23.80,171.64 37.10,148.61 63.70,148.61" fill="#d18b47" stroke="rgba(0,0,0,0.15)" stroke-width="1" data-sq="-3,1" class="board-cell"/><polygon points="77.00,220.14 63.70,243.18 37.10,243.18 23.80,220.14 37.10,197.10 63.70,197.10" fill="#e8ab6f" stroke="rgba(0,0,0,0.15)" stroke-width="1" data-sq="-3,2" class="board-cell"/><polygon points="77.00,268.64 63.70,291.67 37.10,291.67 23.80,268.64 37.10,245.60 63.70,245.60" fill="#ffce9e" stroke="rgba(0,0,0,0.15)" stroke-width="1" data-sq="-3,3" class="board-cell"/><polygon points="119.00,98.90 105.70,121.93 79.10,121.93 65.80,98.90 79.10,75.86 105.70,75.86" fill="#d18b47" stroke="rgba(0,0,0,0.15)" stroke-width="1" data-sq="-2,-1" class="board-cell"/><polygon points="119.00,147.39 105.70,170.43 79.10,170.43 65.80,147.39 79.10,124.36 105.70,124.36" fill="#e8ab6f" stroke="rgba(0,0,0,0.15)" stroke-width="1" data-sq="-2,0" class="board-cell"/><polygon points="119.00,195.89 105.70,218.93 79.10,218.93 65.80,195.89 79.10,172.86 105.70,172.86" fill="#ffce9e" stroke="rgba(0,0,0,0.15)" stroke-width="1" data-sq="-2,1" class="board-cell"/><polygon points="119.00,244.39 105.70,267.43 79.10,267.43 65.80,244.39 79.10,221.35 105.70,221.35" fill="#d18b47" stroke="rgba(0,0,0,0.15)" stroke-width="1" data-sq="-2,2" class="board-cell"/><polygon points="119.00,292.89 105.70,315.92 79.10,315.92 65.80,292.89 79.10,269.85 105.70,269.85" fill="#e8ab6f" stroke="rgba(0,0,0,0.15)" stroke-width="1" data-sq="-2,3" class="board-cell"/><polygon points="161.00,74.65 147.70,97.68 121.10,97.68 107.80,74.65 121.10,51.61 147.70,51.61" fill="#e8ab6f" stroke="rgba(0,0,0,0.15)" stroke-width="1" data-sq="-1,-2" class="board-cell"/><polygon points="161.00,123.15 147.70,146.18 121.10,146.18 107.80,123.15 121.10,100.11 147.70,100.11" fill="#ffce9e" stroke="rgba(0,0,0,0.15)" stroke-width="1" data-sq="-1,-1" class="board-cell"/><polygon points="161.00,171.64 147.70,194.68 121.10,194.68 107.80,171.64 121.10,148.61 147.70,148.61" fill="#d18b47" stroke="rgba(0,0,0,0.15)" stroke-width="1" data-sq="-1,0" class="board-cell"/><polygon points="161.00,220.14 147.70,243.18 121.10,243.18 107.80,220.14 121.10,197.10 147.70,197.10" fill="#e8ab6f" stroke="rgba(0,0,0,0.15)" stroke-width="1" data-sq="-1,1" class="board-cell"/><polygon points="161.00,268.64 147.70,291.67 121.10,291.67 107.80,268.64 121.10,245.60 147.70,245.60" fill="#ffce9e" stroke="rgba(0,0,0,0.15)" stroke-width="1" data-sq="-1,2" class="board-cell"/><polygon points="161.00,317.14 147.70,340.17 121.10,340.17 107.80,317.14 121.10,294.10 147.70,294.10" fill="#d18b47" stroke="rgba(0,0,0,0.15)" stroke-width="1" data-sq="-1,3" class="board-cell"/><polygon points="203.00,50.40 189.70,73.44 163.10,73.44 149.80,50.40 163.10,27.36 189.70,27.36" fill="#ffce9e" stroke="rgba(0,0,0,0.15)" stroke-width="1" data-sq="0,-3" class="board-cell"/><polygon points="203.00,98.90 189.70,121.93 163.10,121.93 149.80,98.90 163.10,75.86 189.70,75.86" fill="#d18b47" stroke="rgba(0,0,0,0.15)" stroke-width="1" data-sq="0,-2" class="board-cell"/><polygon points="203.00,147.39 189.70,170.43 163.10,170.43 149.80,147.39 163.10,124.36 189.70,124.36" fill="#e8ab6f" stroke="rgba(0,0,0,0.15)" stroke-width="1" data-sq="0,-1" class="board-cell"/><polygon points="203.00,195.89 189.70,218.93 163.10,218.93 149.80,195.89 163.10,172.86 189.70,172.86" fill="#ffce9e" stroke="rgba(0,0,0,0.15)" stroke-width="1" data-sq="0,0" class="board-cell"/><polygon points="203.00,244.39 189.70,267.43 163.10,267.43 149.80,244.39 163.10,221.35 189.70,221.35" fill="#d18b47" stroke="rgba(0,0,0,0.15)" stroke-width="1" data-sq="0,1" class="board-cell"/><polygon points="203.00,292.89 189.70,315.92 163.10,315.92 149.80,292.89 163.10,269.85 189.70,269.85" fill="#e8ab6f" stroke="rgba(0,0,0,0.15)" stroke-width="1" data-sq="0,2" class="board-cell"/><polygon points="203.00,341.38 189.70,364.42 163.10,364.42 149.80,341.38 163.10,318.35 189.70,318.35" fill="#ffce9e" stroke="rgba(0,0,0,0.15)" stroke-width="1" data-sq="0,3" class="board-cell"/><polygon points="245.00,74.65 231.70,97.68 205.10,97.68 191.80,74.65 205.10,51.61 231.70,51.61" fill="#e8ab6f" stroke="rgba(0,0,0,0.15)" stroke-width="1" data-sq="1,-3" class="board-cell"/><polygon points="245.00,123.15 231.70,146.18 205.10,146.18 191.80,123.15 205.10,100.11 231.70,100.11" fill="#ffce9e" stroke="rgba(0,0,0,0.15)" stroke-width="1" data-sq="1,-2" class="board-cell"/><polygon points="245.00,171.64 231.70,194.68 205.10,194.68 191.80,171.64 205.10,148.61 231.70,148.61" fill="#d18b47" stroke="rgba(0,0,0,0.15)" stroke-width="1" data-sq="1,-1" class="board-cell"/><polygon points="245.00,220.14 231.70,243.18 205.10,243.18 191.80,220.14 205.10,197.10 231.70,197.10" fill="#e8ab6f" stroke="rgba(0,0,0,0.15)" stroke-width="1" data-sq="1,0" class="board-cell"/><polygon points="245.00,268.64 231.70,291.67 205.10,291.67 191.80,268.64 205.10,245.60 231.70,245.60" fill="#ffce9e" stroke="rgba(0,0,0,0.15)" stroke-width="1" data-sq="1,1" class="board-cell"/><polygon points="245.00,317.14 231.70,340.17 205.10,340.17 191.80,317.14 205.10,294.10 231.70,294.10" fill="#d18b47" stroke="rgba(0,0,0,0.15)" stroke-width="1" data-sq="1,2" class="board-cell"/><polygon points="287.00,98.90 273.70,121.93 247.10,121.93 233.80,98.90 247.10,75.86 273.70,75.86" fill="#d18b47" stroke="rgba(0,0,0,0.15)" stroke-width="1" data-sq="2,-3" class="board-cell"/><polygon points="287.00,147.39 273.70,170.43 247.10,170.43 233.80,147.39 247.10,124.36 273.70,124.36" fill="#e8ab6f" stroke="rgba(0,0,0,0.15)" stroke-width="1" data-sq="2,-2" class="board-cell"/><polygon points="287.00,195.89 273.70,218.93 247.10,218.93 233.80,195.89 247.10,172.86 273.70,172.86" fill="#ffce9e" stroke="rgba(0,0,0,0.15)" stroke-width="1" data-sq="2,-1" class="board-cell"/><polygon points="287.00,244.39 273.70,267.43 247.10,267.43 233.80,244.39 247.10,221.35 273.70,221.35" fill="#d18b47" stroke="rgba(0,0,0,0.15)" stroke-width="1" data-sq="2,0" class="board-cell"/><polygon points="287.00,292.89 273.70,315.92 247.10,315.92 233.80,292.89 247.10,269.85 273.70,269.85" fill="#e8ab6f" stroke="rgba(0,0,0,0.15)" stroke-width="1" data-sq="2,1" class="board-cell"/><polygon points="329.00,123.15 315.70,146.18 289.10,146.18 275.80,123.15 289.10,100.11 315.70,100.11" fill="#ffce9e" stroke="rgba(0,0,0,0.15)" stroke-width="1" data-sq="3,-3" class="board-cell"/><polygon points="329.00,171.64 315.70,194.68 289.10,194.68 275.80,171.64 289.10,148.61 315.70,148.61" fill="#d18b47" stroke="rgba(0,0,0,0.15)" stroke-width="1" data-sq="3,-2" class="board-cell"/><polygon points="329.00,220.14 315.70,243.18 289.10,243.18 275.80,220.14 289.10,197.10 315.70,197.10" fill="#e8ab6f" stroke="rgba(0,0,0,0.15)" stroke-width="1" data-sq="3,-1" class="board-cell"/><polygon points="329.00,268.64 315.70,291.67 289.10,291.67 275.80,268.64 289.10,245.60 315.70,245.60" fill="#ffce9e" stroke="rgba(0,0,0,0.15)" stroke-width="1" data-sq="3,0" class="board-cell"/><g pointer-events="none"><use href="#piece-mce-chess-bN" x="112.0" y="52.2" width="44.8" height="44.8"/><use href="#piece-mce-chess-bP" x="112.0" y="149.2" width="44.8" height="44.8"/><use href="#piece-mce-chess-wP" x="112.0" y="197.7" width="44.8" height="44.8"/><use href="#piece-mce-chess-wN" x="112.0" y="294.7" width="44.8" height="44.8"/><use href="#piece-mce-chess-bR" x="70.0" y="76.5" width="44.8" height="44.8"/><use href="#piece-mce-chess-bP" x="70.0" y="125.0" width="44.8" height="44.8"/><use href="#piece-mce-chess-wP" x="70.0" y="222.0" width="44.8" height="44.8"/><use href="#piece-mce-chess-wR" x="70.0" y="270.5" width="44.8" height="44.8"/><use href="#piece-mce-chess-bB" x="154.0" y="125.0" width="44.8" height="44.8"/><use href="#piece-mce-chess-bB" x="154.0" y="76.5" width="44.8" height="44.8"/><use href="#piece-mce-chess-bK" x="154.0" y="28.0" width="44.8" height="44.8"/><use href="#piece-mce-chess-bP" x="154.0" y="173.5" width="44.8" height="44.8"/><use href="#piece-mce-chess-wB" x="154.0" y="222.0" width="44.8" height="44.8"/><use href="#piece-mce-chess-wB" x="154.0" y="270.5" width="44.8" height="44.8"/><use href="#piece-mce-chess-wK" x="154.0" y="319.0" width="44.8" height="44.8"/><use href="#piece-mce-chess-bP" x="196.0" y="149.2" width="44.8" height="44.8"/><use href="#piece-mce-chess-bN" x="196.0" y="52.2" width="44.8" height="44.8"/><use href="#piece-mce-chess-wP" x="196.0" y="197.7" width="44.8" height="44.8"/><use href="#piece-mce-chess-wN" x="196.0" y="294.7" width="44.8" height="44.8"/><use href="#piece-mce-chess-bP" x="238.0" y="125.0" width="44.8" height="44.8"/><use href="#piece-mce-chess-bR" x="238.0" y="76.5" width="44.8" height="44.8"/><use href="#piece-mce-chess-wP" x="238.0" y="222.0" width="44.8" height="44.8"/><use href="#piece-mce-chess-wR" x="238.0" y="270.5" width="44.8" height="44.8"/></g>
</svg>