<svg xmlns="http://www.w3.org/2000/svg" viewBox="0 0 390 390" width="390" height="390">
<defs>
<symbol id="piece-mce-chess-bA" viewBox="0 0 45 45"><g style="fill:none;stroke:#000;stroke-width:1.5;stroke-linecap:round;stroke-linejoin:round"><g style="fill:#000;stroke-linecap:butt"><path d="M 9,36 C 12.39,35.03 19.11,36.43 22.5,34 C 25.89,36.43 32.61,35.03 36,36 C 36,36 37.65,36.54 39,38 C 38.32,38.97 37.2,38.91 36,38.5 C 32.61,37.53 25.89,38.96 22.5,37.5 C 19.11,38.96 12.39,37.53 9,38.5 C 7.8,38.91 6.68,38.97 6,38 C 7.35,36.54 9,36 9,36 z"/><path d="M 15,32 C 17.5,34.5 27.5,34.5 30,32 C 30.5,30.5 30,30 30,30 C 30,27.5 27.5,26 27.5,26 C 33,24.5 33.5,14.5 22.5,10.5 C 11.5,14.5 12,24.5 17.5,26 C 17.5,26 15,27.5 15,30 C 15,30 14.5,30.5 15,32 z"/><path d="M 25,8 A 2.5,2.5 0 1 1 20,8 A 2.5,2.5 0 1 1 25,8 z"/></g><path d="M 17.5,26 L 27.5,26 M 15,30 L 30,30" style="fill:none;stroke:#fff;stroke-linejoin:miter"/><g transform="translate(14.5,11) scale(0.33)"><path d="M 22,10 C 32.5,11 38.5,18 38,39 L 15,39 C 15,30 25,32.5 23,18" style="fill:#fff;stroke:none"/><path d="M 24,18 C 24.38,20.91 18.45,25.37 16,27 C 13,29 13.18,31.34 11,31 C 9.958,30.06 12.41,27.96 11,28 C 10,28 11.19,29.23 10,30 C 9,30 5.997,31 6,26 C 6,24 12,14 12,14 C 12,14 13.89,12.1 14,10.5 C 13.27,9.506 13.5,8.5 13.5,7.5 C 14.5,6.5 16.5,10 16.5,10 L 18.5,10 C 18.5,10 19.28,8.008 21,7 C 22,7 22,10 22,10" style="fill:#fff;stroke:none"/></g></g></symbol>
<symbol id="piece-mce-chess-bM" viewBox="0 0 45 45"><g style="fill:#000;stroke:#000;stroke-width:1.5;stroke-linejoin:round"><path d="M 9,26 C 17.5,24.5 30,24.5 36,26 L 38.5,13.5 L 31,25 L 30.7,10.9 L 25.5,24.5 L 22.5,10 L 19.5,24.5 L 14.3,10.9 L 14,25 L 6.5,13.5 L 9,26 z"/><path d="M 9,26 C 9,28 10.5,28 11.5,30 C 12.5,31.5 12.5,31 12,33.5 C 10.5,34.5 11,36 11,36 C 9.5,37.5 11.5,38.5 11.5,38.5 C 17.5,39.5 27.5,39.5 33.5,38.5 C 33.5,38.5 35.5,37.5 34,36 C 34,36 34.5,34.5 33,33.5 C 32.5,31 32.5,31.5 33.5,30 C 34.5,28 36,28 36,26 C 27.5,24.5 17.5,24.5 9,26 z"/><circle cx="6" cy="12" r="2" style="fill:#fff"/><circle cx="14" cy="9" r="2" style="fill:#fff"/><circle cx="22.5" cy="8" r="2" style="fill:#fff"/><circle cx="31" cy="9" r="2" style="fill:#fff"/><circle cx="39" cy="12" r="2" style="fill:#fff"/></g><g transform="translate(14.5,24) scale(0.33)"><path d="M 22,10 C 32.5,11 38.5,18 38,39 L 15,39 C 15,30 25,32.5 23,18" style="fill:#fff;stroke:none"/><path d="M 24,18 C 24.38,20.91 18.45,25.37 16,27 C 13,29 13.18,31.34 11,31 C 9.958,30.06 12.41,27.96 11,28 C 10,28 11.19,29.23 10,30 C 9,30 5.997,31 6,26 C 6,24 12,14 12,14 C 12,14 13.89,12.1 14,10.5 C 13.27,9.506 13.5,8.5 13.5,7.5 C 14.5,6.5 16.5,10 16.5,10 L 18.5,10 C 18.5,10 19.28,8.008 21,7 C 22,7 22,10 22,10" style="fill:#fff;stroke:none"/></g></symbol>
<symbol id="piece-mce-chess-bR" viewBox="0 0 45 45"><g style="fill:#000;stroke:#000;stroke-width:1.5;stroke-linecap:round;stroke-linejoin:round"><path d="M 9,39 L 36,39 L 36,36 L 9,36 L 9,39 z"/><path d="M 12,36 L 12,32 L 33,32 L 33,36 L 12,36 z"/><path d="M 11,14 L 11,9 L 15,9 L 15,11 L 20,11 L 20,9 L 25,9 L 25,11 L 30,11 L 30,9 L 34,9 L 34,14"/><path d="M 34,14 L 31,17 L 14,17 L 11,14"/><path d="M 31,17 L 31,29.5 L 14,29.5 L 14,17"/><path d="M 31,29.5 L 32.5,32 L 12.5,32 L 14,29.5"/><path d="M 11,14 L 34,14" style="fill:none;stroke:#fff;stroke-linejoin:miter"/><path d="M 12,35.5 L 33,35.5" style="fill:none;stroke:#fff;stroke-width:1"/><path d="M 13,31.5 L 32,31.5" style="fill:none;stroke:#fff;stroke-width:1"/><path d="M 14,29.5 L 31,29.5" style="fill:none;stroke:#fff;stroke-width:1"/></g></symbol>
<symbol id="piece-mce-chess-bC" viewBox="0 0 45 45"><g style="fill:#000;stroke:#000;stroke-width:1.5;stroke-linecap:round;stroke-linejoin:round"><path d="M 9,39 L 36,39 L 36,36 L 9,36 L 9,39 z"/><path d="M 12,36 L 12,32 L 33,32 L 33,36 L 12,36 z"/><path d="M 11,14 L 11,9 L 15,9 L 15,11 L 20,11 L 20,9 L 25,9 L 25,11 L 30,11 L 30,9 L 34,9 L 34,14"/><path d="M 34,14 L 31,17 L 14,17 L 11,14"/><path d="M 31,17 L 31,29.5 L 14,29.5 L 14,17"/><path d="M 31,29.5 L 32.5,32 L 12.5,32 L 14,29.5"/><path d="M 11,14 L 34,14" style="fill:none;stroke:#fff;stroke-linejoin:miter"/><path d="M 12,35.5 L 33,35.5" style="fill:none;stroke:#fff;stroke-width:1"/><path d="M 13,31.5 L 32,31.5" style="fill:none;stroke:#fff;stroke-width:1"/><path d="M 14,29.5 L 31,29.5" style="fill:none;stroke:#fff;stroke-width:1"/></g><g transform="translate(14.5,15) scale(0.33)"><path d="M 22,10 C 32.5,11 38.5,18 38,39 L 15,39 C 15,30 25,32.5 23,18" style="fill:#fff;stroke:none"/><path d="M 24,18 C 24.38,20.91 18.45,25.37 16,27 C 13,29 13.18,31.34 11,31 C 9.958,30.06 12.41,27.96 11,28 C 10,28 11.19,29.23 10,30 C 9,30 5.997,31 6,26 C 6,24 12,14 12,14 C 12,14 13.89,12.1 14,10.5 C 13.27,9.506 13.5,8.5 13.5,7.5 C 14.5,6.5 16.5,10 16.5,10 L 18.5,10 C 18.5,10 19.28,8.008 21,7 C 22,7 22,10 22,10" style="fill:#fff;stroke:none"/></g></symbol>
<symbol id="piece-mce-chess-wM" viewBox="0 0 45 45"><g style="fill:#fff;stroke:#000;stroke-width:1.5;stroke-linejoin:round"><path d="M 9,26 C 17.5,24.5 30,24.5 36,26 L 38.5,13.5 L 31,25 L 30.7,10.9 L 25.5,24.5 L 22.5,10 L 19.5,24.5 L 14.3,10.9 L 14,25 L 6.5,13.5 L 9,26 z"/><path d="M 9,26 C 9,28 10.5,28 11.5,30 C 12.5,31.5 12.5,31 12,33.5 C 10.5,34.5 11,36 11,36 C 9.5,37.5 11.5,38.5 11.5,38.5 C 17.5,39.5 27.5,39.5 33.5,38.5 C 33.5,38.5 35.5,37.5 34,36 C 34,36 34.5,34.5 33,33.5 C 32.5,31 32.5,31.5 33.5,30 C 34.5,28 36,28 36,26 C 27.5,24.5 17.5,24.5 9,26 z"/><circle cx="6" cy="12" r="2"/><circle cx="14" cy="9" r="2"/><circle cx="22.5" cy="8" r="2"/><circle cx="31" cy="9" r="2"/><circle cx="39" cy="12" r="2"/></g><g transform="translate(14.5,24) scale(0.33)"><path d="M 22,10 C 32.5,11 38.5,18 38,39 L 15,39 C 15,30 25,32.5 23,18" style="fill:#000;stroke:none"/><path d="M 24,18 C 24.38,20.91 18.45,25.37 16,27 C 13,29 13.18,31.34 11,31 C 9.958,30.06 12.41,27.96 11,28 C 10,28 11.19,29.23 10,30 C 9,30 5.997,31 6,26 C 6,24 12,14 12,14 C 12,14 13.89,12.1 14,10.5 C 13.27,9.506 13.5,8.5 13.5,7.5 C 14.5,6.5 16.5,10 16.5,10 L 18.5,10 C 18.5,10 19.28,8.008 21,7 C 22,7 22,10 22,10" style="fill:#000;stroke:none"/></g></symbol>
<symbol id="piece-mce-chess-wA" viewBox="0 0 45 45"><g style="fill:none;stroke:#000;stroke-width:1.5;stroke-linecap:round;stroke-linejoin:round"><g style="fill:#fff;stroke-linecap:butt"><path d="M 9,36 C 12.39,35.03 19.11,36.43 22.5,34 C 25.89,36.43 32.61,35.03 36,36 C 36,36 37.65,36.54 39,38 C 38.32,38.97 37.2,38.91 36,38.5 C 32.61,37.53 25.89,38.96 22.5,37.5 C 19.11,38.96 12.39,37.53 9,38.5 C 7.8,38.91 6.68,38.97 6,38 C 7.35,36.54 9,36 9,36 z"/><path d="M 15,32 C 17.5,34.5 27.5,34.5 30,32 C 30.5,30.5 30,30 30,30 C 30,27.5 27.5,26 27.5,26 C 33,24.5 33.5,14.5 22.5,10.5 C 11.5,14.5 12,24.5 17.5,26 C 17.5,26 15,27.5 15,30 C 15,30 14.5,30.5 15,32 z"/><path d="M 25,8 A 2.5,2.5 0 1 1 20,8 A 2.5,2.5 0 1 1 25,8 z"/></g><path d="M 17.5,26 L 27.5,26 M 15,30 L 30,30" style="fill:none;stroke:#000;stroke-linejoin:miter"/><g transform="translate(14.5,11) scale(0.33)"><path d="M 22,10 C 32.5,11 38.5,18 38,39 L 15,39 C 15,30 25,32.5 23,18" style="fill:#000;stroke:none"/><path d="M 24,18 C 24.38,20.91 18.45,25.37 16,27 C 13,29 13.18,31.34 11,31 C 9.958,30.06 12.41,27.96 11,28 C 10,28 11.19,29.23 10,30 C 9,30 5.997,31 6,26 C 6,24 12,14 12,14 C 12,14 13.89,12.1 14,10.5 C 13.27,9.506 13.5,8.5 13.5,7.5 C 14.5,6.5 16.5,10 16.5,10 L 18.5,10 C 18.5,10 19.28,8.008 21,7 C 22,7 22,10 22,10" style="fill:#000;stroke:none"/></g></g></symbol>
<symbol id="piece-mce-chess-wR" viewBox="0 0 45 45"><g style="fill:#fff;stroke:#000;stroke-width:1.5;stroke-linecap:round;stroke-linejoin:round"><path d="M 9,39 L 36,39 L 36,36 L 9,36 L 9,39 z"/><path d="M 12,36 L 12,32 L 33,32 L 33,36 L 12,36 z"/><path d="M 11,14 L 11,9 L 15,9 L 15,11 L 20,11 L 20,9 L 25,9 L 25,11 L 30,11 L 30,9 L 34,9 L 34,14"/><path d="M 34,14 L 31,17 L 14,17 L 11,14"/><path d="M 31,17 L 31,29.5 L 14,29.5 L 14,17"/><path d="M 31,29.5 L 32.5,32 L 12.5,32 L 14,29.5"/><path d="M 11,14 L 34,14" style="fill:none"/></g></symbol>
<symbol id="piece-mce-chess-wC" viewBox="0 0 45 45"><g style="fill:#fff;stroke:#000;stroke-width:1.5;stroke-linecap:round;stroke-linejoin:round"><path d="M 9,39 L 36,39 L 36,36 L 9,36 L 9,39 z"/><path d="M 12,36 L 12,32 L 33,32 L 33,36 L 12,36 z"/><path d="M 11,14 L 11,9 L 15,9 L 15,11 L 20,11 L 20,9 L 25,9 L 25,11 L 30,11 L 30,9 L 34,9 L 34,14"/><path d="M 34,14 L 31,17 L 14,17 L 11,14"/><path d="M 31,17 L 31,29.5 L 14,29.5 L 14,17"/><path d="M 31,29.5 L 32.5,32 L 12.5,32 L 14,29.5"/><path d="M 11,14 L 34,14" style="fill:none"/></g><g transform="translate(14.5,15) scale(0.33)"><path d="M 22,10 C 32.5,11 38.5,18 38,39 L 15,39 C 15,30 25,32.5 23,18" style="fill:#000;stroke:none"/><path d="M 24,18 C 24.38,20.91 18.45,25.37 16,27 C 13,29 13.18,31.34 11,31 C 9.958,30.06 12.41,27.96 11,28 C 10,28 11.19,29.23 10,30 C 9,30 5.997,31 6,26 C 6,24 12,14 12,14 C 12,14 13.89,12.1 14,10.5 C 13.27,9.506 13.5,8.5 13.5,7.5 C 14.5,6.5 16.5,10 16.5,10 L 18.5,10 C 18.5,10 19.28,8.008 21,7 C 22,7 22,10 22,10" style="fill:#000;stroke:none"/></g></symbol>
</defs>

<rect x="24" y="24" width="38" height="38" fill="#f0d9b5" data-sq="a9" class="board-cell"/><rect x="62" y="24" width="38" height="38" fill="#b58863" data-sq="b9" class="board-cell"/><rect x="100" y="24" width="38" height="38" fill="#f0d9b5" data-sq="c9" class="board-cell"/><rect x="138" y="24" width="38" height="38" fill="#b58863" data-sq="d9" class="board-cell"/><rect x="176" y="24" width="38" height="38" fill="#f0d9b5" data-sq="e9" class="board-cell"/><rect x="214" y="24" width="38" height="38" fill="#b58863" data-sq="f9" class="board-cell"/><rect x="252" y="24" width="38" height="38" fill="#f0d9b5" data-sq="g9" class="board-cell"/><rect x="290" y="24" width="38" height="38" fill="#b58863" data-sq="h9" class="board-cell"/><rect x="328" y="24" width="38" height="38" fill="#f0d9b5" data-sq="i9" class="board-cell"/><rect x="24" y="62" width="38" height="38" fill="#b58863" data-sq="a8" class="board-cell"/><rect x="62" y="62" width="38" height="38" fill="#f0d9b5" data-sq="b8" class="board-cell"/><rect x="100" y="62" width="38" height="38" fill="#b58863" data-sq="c8" class="board-cell"/><rect x="138" y="62" width="38" height="38" fill="#f0d9b5" data-sq="d8" class="board-cell"/><rect x="176" y="62" width="38" height="38" fill="#b58863" data-sq="e8" class="board-cell"/><rect x="214" y="62" width="38" height="38" fill="#f0d9b5" data-sq="f8" class="board-cell"/><rect x="252" y="62" width="38" height="38" fill="#b58863" data-sq="g8" class="board-cell"/><rect x="290" y="62" width="38" height="38" fill="#f0d9b5" data-sq="h8" class="board-cell"/><rect x="328" y="62" width="38" height="38" fill="#b58863" data-sq="i8" class="board-cell"/><rect x="24" y="100" width="38" height="38" fill="#f0d9b5" data-sq="a7" class="board-cell"/><rect x="62" y="100" width="38" height="38" fill="#b58863" data-sq="b7" class="board-cell"/><rect x="100" y="100" width="38" height="38" fill="#f0d9b5" data-sq="c7" class="board-cell"/><rect x="138" y="100" width="38" height="38" fill="#b58863" data-sq="d7" class="board-cell"/><rect x="176" y="100" width="38" height="38" fill="#f0d9b5" data-sq="e7" class="board-cell"/><rect x="214" y="100" width="38" height="38" fill="#b58863" data-sq="f7" class="board-cell"/><rect x="252" y="100" width="38" height="38" fill="#f0d9b5" data-sq="g7" class="board-cell"/><rect x="290" y="100" width="38" height="38" fill="#b58863" data-sq="h7" class="board-cell"/><rect x="328" y="100" width="38" height="38" fill="#f0d9b5" data-sq="i7" class="board-cell"/><rect x="24" y="138" width="38" height="38" fill="#b58863" data-sq="a6" class="board-cell"/><rect x="62" y="138" width="38" height="38" fill="#f0d9b5" data-sq="b6" class="board-cell"/><rect x="100" y="138" width="38" height="38" fill="#b58863" data-sq="c6" class="board-cell"/><rect x="138" y="138" width="38" height="38" fill="#f0d9b5" data-sq="d6" class="board-cell"/><rect x="176" y="138" width="38" height="38" fill="#b58863" data-sq="e6" class="board-cell"/><rect x="214" y="138" width="38" height="38" fill="#f0d9b5" data-sq="f6" class="board-cell"/><rect x="252" y="138" width="38" height="38" fill="#b58863" data-sq="g6" class="board-cell"/><rect x="290" y="138" width="38" height="38" fill="#f0d9b5" data-sq="h6" class="board-cell"/><rect x="328" y="138" width="38" height="38" fill="#b58863" data-sq="i6" class="board-cell"/><rect x="24" y="176" width="38" height="38" fill="#f0d9b5" data-sq="a5" class="board-cell"/><rect x="62" y="176" width="38" height="38" fill="#b58863" data-sq="b5" class="board-cell"/><rect x="100" y="176" width="38" height="38" fill="#f0d9b5" data-sq="c5" class="board-cell"/><rect x="138" y="176" width="38" height="38" fill="#b58863" data-sq="d5" class="board-cell"/><rect x="176" y="176" width="38" height="38" fill="#f0d9b5" data-sq="e5" class="board-cell"/><rect x="214" y="176" width="38" height="38" fill="#b58863" data-sq="f5" class="board-cell"/><rect x="252" y="176" width="38" height="38" fill="#f0d9b5" data-sq="g5" class="board-cell"/><rect x="290" y="176" width="38" height="38" fill="#b58863" data-sq="h5" class="board-cell"/><rect x="328" y="176" width="38" height="38" fill="#f0d9b5" data-sq="i5" class="board-cell"/><rect x="24" y="214" width="38" height="38" fill="#b58863" data-sq="a4" class="board-cell"/><rect x="62" y="214" width="38" height="38" fill="#f0d9b5" data-sq="b4" class="board-cell"/><rect x="100" y="214" width="38" height="38" fill="#b58863" data-sq="c4" class="board-cell"/><rect x="138" y="214" width="38" height="38" fill="#f0d9b5" data-sq="d4" class="board-cell"/><rect x="176" y="214" width="38" height="38" fill="#b58863" data-sq="e4" class="board-cell"/><rect x="214" y="214" width="38" height="38" fill="#f0d9b5" data-sq="f4" class="board-cell"/><rect x="252" y="214" width="38" height="38" fill="#b58863" data-sq="g4" class="board-cell"/><rect x="290" y="214" width="38" height="38" fill="#f0d9b5" data-sq="h4" class="board-cell"/><rect x="328" y="214" width="38" height="38" fill="#b58863" data-sq="i4" class="board-cell"/><rect x="24" y="252" width="38" height="38" fill="#f0d9b5" data-sq="a3" class="board-cell"/><rect x="62" y="252" width="38" height="38" fill="#b58863" data-sq="b3" class="board-cell"/><rect x="100" y="252" width="38" height="38" fill="#f0d9b5" data-sq="c3" class="board-cell"/><rect x="138" y="252" width="38" height="38" fill="#b58863" data-sq="d3" class="board-cell"/><rect x="176" y="252" width="38" height="38" fill="#f0d9b5" data-sq="e3" class="board-cell"/><rect x="214" y="252" width="38" height="38" fill="#b58863" data-sq="f3" class="board-cell"/><rect x="252" y="252" width="38" height="38" fill="#f0d9b5" data-sq="g3" class="board-cell"/><rect x="290" y="252" width="38" height="38" fill="#b58863" data-sq="h3" class="board-cell"/><rect x="328" y="252" width="38" height="38" fill="#f0d9b5" data-sq="i3" class="board-cell"/><rect x="24" y="290" width="38" height="38" fill="#b58863" data-sq="a2" class="board-cell"/><rect x="62" y="290" width="38" height="38" fill="#f0d9b5" data-sq="b2" class="board-cell"/><rect x="100" y="290" width="38" height="38" fill="#b58863" data-sq="c2" class="board-cell"/><rect x="138" y="290" width="38" height="38" fill="#f0d9b5" data-sq="d2" class="board-cell"/><rect x="176" y="290" width="38" height="38" fill="#b58863" data-sq="e2" class="board-cell"/><rect x="214" y="290" width="38" height="38" fill="#f0d9b5" data-sq="f2" class="board-cell"/><rect x="252" y="290" width="38" height="38" fill="#b58863" data-sq="g2" class="board-cell"/><rect x="290" y="290" width="38" height="38" fill="#f0d9b5" data-sq="h2" class="board-cell"/><rect x="328" y="290" width="38" height="38" fill="#b58863" data-sq="i2" class="board-cell"/><rect x="24" y="328" width="38" height="38" fill="#f0d9b5" data-sq="a1" class="board-cell"/><rect x="62" y="328" width="38" height="38" fill="#b58863" data-sq="b1" class="board-cell"/><rect x="100" y="328" width="38" height="38" fill="#f0d9b5" data-sq="c1" class="board-cell"/><rect x="138" y="328" width="38" height="38" fill="#b58863" data-sq="d1" class="board-cell"/><rect x="176" y="328" width="38" height="38" fill="#f0d9b5" data-sq="e1" class="board-cell"/><rect x="214" y="328" width="38" height="38" fill="#b58863" data-sq="f1" class="board-cell"/><rect x="252" y="328" width="38" height="38" fill="#f0d9b5" data-sq="g1" class="board-cell"/><rect x="290" y="328" width="38" height="38" fill="#b58863" data-sq="h1" class="board-cell"/><rect x="328" y="328" width="38" height="38" fill="#f0d9b5" data-sq="i1" class="board-cell"/>
<g pointer-events="none"><use href="#piece-mce-chess-bA" x="24" y="24" width="38" height="38"/><use href="#piece-mce-chess-bM" x="62" y="24" width="38" height="38"/><use href="#piece-mce-chess-bR" x="100" y="24" width="38" height="38"/><use href="#piece-mce-chess-bC" x="138" y="24" width="38" height="38"/><use href="#piece-mce-chess-bC" x="214" y="24" width="38" height="38"/><use href="#piece-mce-chess-bR" x="252" y="24" width="38" height="38"/><use href="#piece-mce-chess-bM" x="290" y="24" width="38" height="38"/><use href="#piece-mce-chess-bA" x="328" y="24" width="38" height="38"/><use href="#piece-mce-chess-wM" x="176" y="176" width="38" height="38"/><use href="#piece-mce-chess-wA" x="24" y="328" width="38" height="38"/><use href="#piece-mce-chess-wM" x="62" y="328" width="38" height="38"/><use href="#piece-mce-chess-wR" x="100" y="328" width="38" height="38"/><use href="#piece-mce-chess-wC" x="138" y="328" width="38" height="38"/><use href="#piece-mce-chess-wC" x="214" y="328" width="38" height="38"/><use href="#piece-mce-chess-wR" x="252" y="328" width="38" height="38"/><use href="#piece-mce-chess-wM" x="290" y="328" width="38" height="38"/><use href="#piece-mce-chess-wA" x="328" y="328" width="38" height="38"/></g>
<text x="43" y="381.6" text-anchor="middle" font-size="13" fill="#5c3a1e" font-family="monospace">a</text><text x="81" y="381.6" text-anchor="middle" font-size="13" fill="#5c3a1e" font-family="monospace">b</text><text x="119" y="381.6" text-anchor="middle" font-size="13" fill="#5c3a1e" font-family="monospace">c</text><text x="157" y="381.6" text-anchor="middle" font-size="13" fill="#5c3a1e" font-family="monospace">d</text><text x="195" y="381.6" text-anchor="middle" font-size="13" fill="#5c3a1e" font-family="monospace">e</text><text x="233" y="381.6" text-anchor="middle" font-size="13" fill="#5c3a1e" font-family="monospace">f</text><text x="271" y="381.6" text-anchor="middle" font-size="13" fill="#5c3a1e" font-family="monospace">g</text><text x="309" y="381.6" text-anchor="middle" font-size="13" fill="#5c3a1e" font-family="monospace">h</text><text x="347" y="381.6" text-anchor="middle" font-size="13" fill="#5c3a1e" font-family="monospace">i</text><text x="12" y="47.55" text-anchor="middle" font-size="13" fill="#5c3a1e" font-family="monospace">9</text><text x="12" y="85.55" text-anchor="middle" font-size="13" fill="#5c3a1e" font-family="monospace">8</text><text x="12" y="123.55" text-anchor="middle" font-size="13" fill="#5c3a1e" font-family="monospace">7</text><text x="12" y="161.55" text-anchor="middle" font-size="13" fill="#5c3a1e" font-family="monospace">6</text><text x="12" y="199.55" text-anchor="middle" font-size="13" fill="#5c3a1e" font-family="monospace">5</text><text x="12" y="237.55" text-anchor="middle" font-size="13" fill="#5c3a1e" font-family="monospace">4</text><text x="12" y="275.55" text-anchor="middle" font-size="13" fill="#5c3a1e" font-family="monospace">3</text><text x="12" y="313.55" text-anchor="middle" font-size="13" fill="#5c3a1e" font-family="monospace">2</text><text x="12" y="351.55" text-anchor="middle" font-size="13" fill="#5c3a1e" font-family="monospace">1</text>
</svg>