<svg xmlns="http://www.w3.org/2000/svg" viewBox="0 0 384 384" width="384" height="384">
<defs>
<symbol id="piece-mce-chess-yR" viewBox="0 0 45 45"><g style="fill:#fdd835;stroke:#000;stroke-width:1.5;stroke-linecap:round;stroke-linejoin:round"><path d="M 9,39 L 36,39 L 36,36 L 9,36 L 9,39 z"/><path d="M 12,36 L 12,32 L 33,32 L 33,36 L 12,36 z"/><path d="M 11,14 L 11,9 L 15,9 L 15,11 L 20,11 L 20,9 L 25,9 L 25,11 L 30,11 L 30,9 L 34,9 L 34,14"/><path d="M 34,14 L 31,17 L 14,17 L 11,14"/><path d="M 31,17 L 31,29.5 L 14,29.5 L 14,17"/><path d="M 31,29.5 L 32.5,32 L 12.5,32 L 14,29.5"/><path d="M 11,14 L 34,14" style="fill:none"/></g></symbol>
<symbol id="piece-mce-chess-yN" viewBox="0 0 45 45"><g style="fill:none;stroke:#000;stroke-width:1.5;stroke-linecap:round;stroke-linejoin:round"><path d="M 22,10 C 32.5,11 38.5,18 38,39 L 15,39 C 15,30 25,32.5 23,18" style="fill:#fdd835"/><path d="M 24,18 C 24.38,20.91 18.45,25.37 16,27 C 13,29 13.18,31.34 11,31 C 9.958,30.06 12.41,27.96 11,28 C 10,28 11.19,29.23 10,30 C 9,30 5.997,31 6,26 C 6,24 12,14 12,14 C 12,14 13.89,12.1 14,10.5 C 13.27,9.506 13.5,8.5 13.5,7.5 C 14.5,6.5 16.5,10 16.5,10 L 18.5,10 C 18.5,10 19.28,8.008 21,7 C 22,7 22,10 22,10" style="fill:#fdd835"/><path d="M 9.5,25.5 A 0.5,0.5 0 1 1 8.5,25.5 A 0.5,0.5 0 1 1 9.5,25.5 z" style="fill:#000"/><path d="M 15,15.5 A 0.5,1.5 0 1 1 14,15.5 A 0.5,1.5 0 1 1 15,15.5 z" transform="matrix(0.866,0.5,-0.5,0.866,9.693,-5.173)" style="fill:#000"/></g></symbol>
<symbol id="piece-mce-chess-yB" viewBox="0 0 45 45"><g style="fill:none;stroke:#000;stroke-width:1.5;stroke-linecap:round;stroke-linejoin:round"><g style="fill:#fdd835;stroke-linecap:butt"><path d="M 9,36 C 12.39,35.03 19.11,36.43 22.5,34 C 25.89,36.43 32.61,35.03 36,36 C 36,36 37.65,36.54 39,38 C 38.32,38.97 37.2,38.91 36,38.5 C 32.61,37.53 25.89,38.96 22.5,37.5 C 19.11,38.96 12.39,37.53 9,38.5 C 7.8,38.91 6.68,38.97 6,38 C 7.35,36.54 9,36 9,36 z"/><path d="M 15,32 C 17.5,34.5 27.5,34.5 30,32 C 30.5,30.5 30,30 30,30 C 30,27.5 27.5,26 27.5,26 C 33,24.5 33.5,14.5 22.5,10.5 C 11.5,14.5 12,24.5 17.5,26 C 17.5,26 15,27.5 15,30 C 15,30 14.5,30.5 15,32 z"/><path d="M 25,8 A 2.5,2.5 0 1 1 20,8 A 2.5,2.5 0 1 1 25,8 z"/></g><path d="M 17.5,26 L 27.5,26 M 15,30 L 30,30 M 22.5,15.5 L 22.5,20.5 M 20,18 L 25,18" style="fill:none;stroke:#000;stroke-linejoin:miter"/></g></symbol>
<symbol id="piece-mce-chess-yK" viewBox="0 0 45 45"><g style="fill:#fdd835;stroke:#000;stroke-width:1.5;stroke-linejoin:round"><path d="M 22.5,11.63 L 22.5,6" style="fill:none;stroke-linejoin:miter"/><path d="M 20,8 L 25,8" style="fill:none;stroke-linejoin:miter"/><path d="M 22.5,25 C 22.5,25 27,17.5 25.5,14.5 C 25.5,14.5 24.5,12 22.5,12 C 20.5,12 19.5,14.5 19.5,14.5 C 18,17.5 22.5,25 22.5,25"/><path d="M 12.5,37 C 18,40.5 27,40.5 32.5,37 L 32.5,30 C 32.5,30 41.5,25.5 38.5,19.5 C 34.5,13 25,16 22.5,23.5 L 22.5,27 L 22.5,23.5 C 20,16 10.5,13 6.5,19.5 C 3.5,25.5 12.5,30 12.5,30 L 12.5,37"/><path d="M 12.5,30 C 18,27 27,27 32.5,30"/><path d="M 12.5,33.5 C 18,30.5 27,30.5 32.5,33.5"/><path d="M 12.5,37 C 18,34 27,34 32.5,37"/></g></symbol>
<symbol id="piece-mce-chess-yQ" viewBox="0 0 45 45"><g style="fill:#fdd835;stroke:#000;stroke-width:1.5;stroke-linejoin:round"><path d="M 9,26 C 17.5,24.5 30,24.5 36,26 L 38.5,13.5 L 31,25 L 30.7,10.9 L 25.5,24.5 L 22.5,10 L 19.5,24.5 L 14.3,10.9 L 14,25 L 6.5,13.5 L 9,26 z"/><path d="M 9,26 C 9,28 10.5,28 11.5,30 C 12.5,31.5 12.5,31 12,33.5 C 10.5,34.5 11,36 11,36 C 9.5,37.5 11.5,38.5 11.5,38.5 C 17.5,39.5 27.5,39.5 33.5,38.5 C 33.5,38.5 35.5,37.5 34,36 C 34,36 34.5,34.5 33,33.5 C 32.5,31 32.5,31.5 33.5,30 C 34.5,28 36,28 36,26 C 27.5,24.5 17.5,24.5 9,26 z"/><path d="M 11.5,30 C 15,29 30,29 33.5,30" style="fill:none"/><path d="M 12,33.5 C 15,32.5 30,32.5 33,33.5" style="fill:none"/><circle cx="6" cy="12" r="2"/><circle cx="14" cy="9" r="2"/><circle cx="22.5" cy="8" r="2"/><circle cx="31" cy="9" r="2"/><circle cx="39" cy="12" r="2"/></g></symbol>
<symbol id="piece-mce-chess-yP" viewBox="0 0 45 45"><path d="M 22,9 C 19.79,9 18,10.79 18,13 C 18,13.89 18.29,14.71 18.78,15.38 C 16.83,16.5 15.5,18.59 15.5,21 C 15.5,23.03 16.44,24.84 17.91,26.03 C 14.91,27.09 10.5,31.58 10.5,39.5 L 33.5,39.5 C 33.5,31.58 29.09,27.09 26.09,26.03 C 27.56,24.84 28.5,23.03 28.5,21 C 28.5,18.59 27.17,16.5 25.22,15.38 C 25.71,14.71 26,13.89 26,13 C 26,10.79 24.21,9 22,9 z" style="fill:#fdd835;stroke:#000;stroke-width:1.5;stroke-linecap:round"/></symbol>
<symbol id="piece-mce-chess-bR" viewBox="0 0 45 45"><g style="fill:#1565c0;stroke:#000;stroke-width:1.5;stroke-linecap:round;stroke-linejoin:round"><path d="M 9,39 L 36,39 L 36,36 L 9,36 L 9,39 z"/><path d="M 12,36 L 12,32 L 33,32 L 33,36 L 12,36 z"/><path d="M 11,14 L 11,9 L 15,9 L 15,11 L 20,11 L 20,9 L 25,9 L 25,11 L 30,11 L 30,9 L 34,9 L 34,14"/><path d="M 34,14 L 31,17 L 14,17 L 11,14"/><path d="M 31,17 L 31,29.5 L 14,29.5 L 14,17"/><path d="M 31,29.5 L 32.5,32 L 12.5,32 L 14,29.5"/><path d="M 11,14 L 34,14" style="fill:none"/></g></symbol>
<symbol id="piece-mce-chess-bP" viewBox="0 0 45 45"><path d="M 22,9 C 19.79,9 18,10.79 18,13 C 18,13.89 18.29,14.71 18.78,15.38 C 16.83,16.5 15.5,18.59 15.5,21 C 15.5,23.03 16.44,24.84 17.91,26.03 C 14.91,27.09 10.5,31.58 10.5,39.5 L 33.5,39.5 C 33.5,31.58 29.09,27.09 26.09,26.03 C 27.56,24.84 28.5,23.03 28.5,21 C 28.5,18.59 27.17,16.5 25.22,15.38 C 25.71,14.71 26,13.89 26,13 C 26,10.79 24.21,9 22,9 z" style="fill:#1565c0;stroke:#000;stroke-width:1.5;stroke-linecap:round"/></symbol>
<symbol id="piece-mce-chess-gP" viewBox="0 0 45 45"><path d="M 22,9 C 19.79,9 18,10.79 18,13 C 18,13.89 18.29,14.71 18.78,15.38 C 16.83,16.5 15.5,18.59 15.5,21 C 15.5,23.03 16.44,24.84 17.91,26.03 C 14.91,27.09 10.5,31.58 10.5,39.5 L 33.5,39.5 C 33.5,31.58 29.09,27.09 26.09,26.03 C 27.56,24.84 28.5,23.03 28.5,21 C 28.5,18.59 27.17,16.5 25.22,15.38 C 25.71,14.71 26,13.89 26,13 C 26,10.79 24.21,9 22,9 z" style="fill:#2e7d32;stroke:#000;stroke-width:1.5;stroke-linecap:round"/></symbol>
<symbol id="piece-mce-chess-gR" viewBox="0 0 45 45"><g style="fill:#2e7d32;stroke:#000;stroke-width:1.5;stroke-linecap:round;stroke-linejoin:round"><path d="M 9,39 L 36,39 L 36,36 L 9,36 L 9,39 z"/><path d="M 12,36 L 12,32 L 33,32 L 33,36 L 12,36 z"/><path d="M 11,14 L 11,9 L 15,9 L 15,11 L 20,11 L 20,9 L 25,9 L 25,11 L 30,11 L 30,9 L 34,9 L 34,14"/><path d="M 34,14 L 31,17 L 14,17 L 11,14"/><path d="M 31,17 L 31,29.5 L 14,29.5 L 14,17"/><path d="M 31,29.5 L 32.5,32 L 12.5,32 L 14,29.5"/><path d="M 11,14 L 34,14" style="fill:none"/></g></symbol>
<symbol id="piece-mce-chess-bN" viewBox="0 0 45 45"><g style="fill:none;stroke:#000;stroke-width:1.5;stroke-linecap:round;stroke-linejoin:round"><path d="M 22,10 C 32.5,11 38.5,18 38,39 L 15,39 C 15,30 25,32.5 23,18" style="fill:#1565c0"/><path d="M 24,18 C 24.38,20.91 18.45,25.37 16,27 C 13,29 13.18,31.34 11,31 C 9.958,30.06 12.41,27.96 11,28 C 10,28 11.19,29.23 10,30 C 9,30 5.997,31 6,26 C 6,24 12,14 12,14 C 12,14 13.89,12.1 14,10.5 C 13.27,9.506 13.5,8.5 13.5,7.5 C 14.5,6.5 16.5,10 16.5,10 L 18.5,10 C 18.5,10 19.28,8.008 21,7 C 22,7 22,10 22,10" style="fill:#1565c0"/><path d="M 9.5,25.5 A 0.5,0.5 0 1 1 8.5,25.5 A 0.5,0.5 0 1 1 9.5,25.5 z" style="fill:#000"/><path d="M 15,15.5 A 0.5,1.5 0 1 1 14,15.5 A 0.5,1.5 0 1 1 15,15.5 z" transform="matrix(0.866,0.5,-0.5,0.866,9.693,-5.173)" style="fill:#000"/></g></symbol>
<symbol id="piece-mce-chess-gN" viewBox="0 0 45 45"><g style="fill:none;stroke:#000;stroke-width:1.5;stroke-linecap:round;stroke-linejoin:round"><path d="M 22,10 C 32.5,11 38.5,18 38,39 L 15,39 C 15,30 25,32.5 23,18" style="fill:#2e7d32"/><path d="M 24,18 C 24.38,20.91 18.45,25.37 16,27 C 13,29 13.18,31.34 11,31 C 9.958,30.06 12.41,27.96 11,28 C 10,28 11.19,29.23 10,30 C 9,30 5.997,31 6,26 C 6,24 12,14 12,14 C 12,14 13.89,12.1 14,10.5 C 13.27,9.506 13.5,8.5 13.5,7.5 C 14.5,6.5 16.5,10 16.5,10 L 18.5,10 C 18.5,10 19.28,8.008 21,7 C 22,7 22,10 22,10" style="fill:#2e7d32"/><path d="M 9.5,25.5 A 0.5,0.5 0 1 1 8.5,25.5 A 0.5,0.5 0 1 1 9.5,25.5 z" style="fill:#000"/><path d="M 15,15.5 A 0.5,1.5 0 1 1 14,15.5 A 0.5,1.5 0 1 1 15,15.5 z" transform="matrix(0.866,0.5,-0.5,0.866,9.693,-5.173)" style="fill:#000"/></g></symbol>
<symbol id="piece-mce-chess-bB" viewBox="0 0 45 45"><g style="fill:none;stroke:#000;stroke-width:1.5;stroke-linecap:round;stroke-linejoin:round"><g style="fill:#1565c0;stroke-linecap:butt"><path d="M 9,36 C 12.39,35.03 19.11,36.43 22.5,34 C 25.89,36.43 32.61,35.03 36,36 C 36,36 37.65,36.54 39,38 C 38.32,38.97 37.2,38.91 36,38.5 C 32.61,37.53 25.89,38.96 22.5,37.5 C 19.11,38.96 12.39,37.53 9,38.5 C 7.8,38.91 6.68,38.97 6,38 C 7.35,36.54 9,36 9,36 z"/><path d="M 15,32 C 17.5,34.5 27.5,34.5 30,32 C 30.5,30.5 30,30 30,30 C 30,27.5 27.5,26 27.5,26 C 33,24.5 33.5,14.5 22.5,10.5 C 11.5,14.5 12,24.5 17.5,26 C 17.5,26 15,27.5 15,30 C 15,30 14.5,30.5 15,32 z"/><path d="M 25,8 A 2.5,2.5 0 1 1 20,8 A 2.5,2.5 0 1 1 25,8 z"/></g><path d="M 17.5,26 L 27.5,26 M 15,30 L 30,30 M 22.5,15.5 L 22.5,20.5 M 20,18 L 25,18" style="fill:none;stroke:#000;stroke-linejoin:miter"/></g></symbol>
<symbol id="piece-mce-chess-gB" viewBox="0 0 45 45"><g style="fill:none;stroke:#000;stroke-width:1.5;stroke-linecap:round;stroke-linejoin:round"><g style="fill:#2e7d32;stroke-linecap:butt"><path d="M 9,36 C 12.39,35.03 19.11,36.43 22.5,34 C 25.89,36.43 32.61,35.03 36,36 C 36,36 37.65,36.54 39,38 C 38.32,38.97 37.2,38.91 36,38.5 C 32.61,37.53 25.89,38.96 22.5,37.5 C 19.11,38.96 12.39,37.53 9,38.5 C 7.8,38.91 6.68,38.97 6,38 C 7.35,36.54 9,36 9,36 z"/><path d="M 15,32 C 17.5,34.5 27.5,34.5 30,32 C 30.5,30.5 30,30 30,30 C 30,27.5 27.5,26 27.5,26 C 33,24.5 33.5,14.5 22.5,10.5 C 11.5,14.5 12,24.5 17.5,26 C 17.5,26 15,27.5 15,30 C 15,30 14.5,30.5 15,32 z"/><path d="M 25,8 A 2.5,2.5 0 1 1 20,8 A 2.5,2.5 0 1 1 25,8 z"/></g><path d="M 17.5,26 L 27.5,26 M 15,30 L 30,30 M 22.5,15.5 L 22.5,20.5 M 20,18 L 25,18" style="fill:none;stroke:#000;stroke-linejoin:miter"/></g></symbol>
<symbol id="piece-mce-chess-bK" viewBox="0 0 45 45"><g style="fill:#1565c0;stroke:#000;stroke-width:1.5;stroke-linejoin:round"><path d="M 22.5,11.63 L 22.5,6" style="fill:none;stroke-linejoin:miter"/><path d="M 20,8 L 25,8" style="fill:none;stroke-linejoin:miter"/><path d="M 22.5,25 C 22.5,25 27,17.5 25.5,14.5 C 25.5,14.5 24.5,12 22.5,12 C 20.5,12 19.5,14.5 19.5,14.5 C 18,17.5 22.5,25 22.5,25"/><path d="M 12.5,37 C 18,40.5 27,40.5 32.5,37 L 32.5,30 C 32.5,30 41.5,25.5 38.5,19.5 C 34.5,13 25,16 22.5,23.5 L 22.5,27 L 22.5,23.5 C 20,16 10.5,13 6.5,19.5 C 3.5,25.5 12.5,30 12.5,30 L 12.5,37"/><path d="M 12.5,30 C 18,27 27,27 32.5,30"/><path d="M 12.5,33.5 C 18,30.5 27,30.5 32.5,33.5"/><path d="M 12.5,37 C 18,34 27,34 32.5,37"/></g></symbol>
<symbol id="piece-mce-chess-gQ" viewBox="0 0 45 45"><g style="fill:#2e7d32;stroke:#000;stroke-width:1.5;stroke-linejoin:round"><path d="M 9,26 C 17.5,24.5 30,24.5 36,26 L 38.5,13.5 L 31,25 L 30.7,10.9 L 25.5,24.5 L 22.5,10 L 19.5,24.5 L 14.3,10.9 L 14,25 L 6.5,13.5 L 9,26 z"/><path d="M 9,26 C 9,28 10.5,28 11.5,30 C 12.5,31.5 12.5,31 12,33.5 C 10.5,34.5 11,36 11,36 C 9.5,37.5 11.5,38.5 11.5,38.5 C 17.5,39.5 27.5,39.5 33.5,38.5 C 33.5,38.5 35.5,37.5 34,36 C 34,36 34.5,34.5 33,33.5 C 32.5,31 32.5,31.5 33.5,30 C 34.5,28 36,28 36,26 C 27.5,24.5 17.5,24.5 9,26 z"/><path d="M 11.5,30 C 15,29 30,29 33.5,30" style="fill:none"/><path d="M 12,33.5 C 15,32.5 30,32.5 33,33.5" style="fill:none"/><circle cx="6" cy="12" r="2"/><circle cx="14" cy="9" r="2"/><circle cx="22.5" cy="8" r="2"/><circle cx="31" cy="9" r="2"/><circle cx="39" cy="12" r="2"/></g></symbol>
<symbol id="piece-mce-chess-bQ" viewBox="0 0 45 45"><g style="fill:#1565c0;stroke:#000;stroke-width:1.5;stroke-linejoin:round"><path d="M 9,26 C 17.5,24.5 30,24.5 36,26 L 38.5,13.5 L 31,25 L 30.7,10.9 L 25.5,24.5 L 22.5,10 L 19.5,24.5 L 14.3,10.9 L 14,25 L 6.5,13.5 L 9,26 z"/><path d="M 9,26 C 9,28 10.5,28 11.5,30 C 12.5,31.5 12.5,31 12,33.5 C 10.5,34.5 11,36 11,36 C 9.5,37.5 11.5,38.5 11.5,38.5 C 17.5,39.5 27.5,39.5 33.5,38.5 C 33.5,38.5 35.5,37.5 34,36 C 34,36 34.5,34.5 33,33.5 C 32.5,31 32.5,31.5 33.5,30 C 34.5,28 36,28 36,26 C 27.5,24.5 17.5,24.5 9,26 z"/><path d="M 11.5,30 C 15,29 30,29 33.5,30" style="fill:none"/><path d="M 12,33.5 C 15,32.5 30,32.5 33,33.5" style="fill:none"/><circle cx="6" cy="12" r="2"/><circle cx="14" cy="9" r="2"/><circle cx="22.5" cy="8" r="2"/><circle cx="31" cy="9" r="2"/><circle cx="39" cy="12" r="2"/></g></symbol>
<symbol id="piece-mce-chess-gK" viewBox="0 0 45 45"><g style="fill:#2e7d32;stroke:#000;stroke-width:1.5;stroke-linejoin:round"><path d="M 22.5,11.63 L 22.5,6" style="fill:none;stroke-linejoin:miter"/><path d="M 20,8 L 25,8" style="fill:none;stroke-linejoin:miter"/><path d="M 22.5,25 C 22.5,25 27,17.5 25.5,14.5 C 25.5,14.5 24.5,12 22.5,12 C 20.5,12 19.5,14.5 19.5,14.5 C 18,17.5 22.5,25 22.5,25"/><path d="M 12.5,37 C 18,40.5 27,40.5 32.5,37 L 32.5,30 C 32.5,30 41.5,25.5 38.5,19.5 C 34.5,13 25,16 22.5,23.5 L 22.5,27 L 22.5,23.5 C 20,16 10.5,13 6.5,19.5 C 3.5,25.5 12.5,30 12.5,30 L 12.5,37"/><path d="M 12.5,30 C 18,27 27,27 32.5,30"/><path d="M 12.5,33.5 C 18,30.5 27,30.5 32.5,33.5"/><path d="M 12.5,37 C 18,34 27,34 32.5,37"/></g></symbol>
<symbol id="piece-mce-chess-rP" viewBox="0 0 45 45"><path d="M 22,9 C 19.79,9 18,10.79 18,13 C 18,13.89 18.29,14.71 18.78,15.38 C 16.83,16.5 15.5,18.59 15.5,21 C 15.5,23.03 16.44,24.84 17.91,26.03 C 14.91,27.09 10.5,31.58 10.5,39.5 L 33.5,39.5 C 33.5,31.58 29.09,27.09 26.09,26.03 C 27.56,24.84 28.5,23.03 28.5,21 C 28.5,18.59 27.17,16.5 25.22,15.38 C 25.71,14.71 26,13.89 26,13 C 26,10.79 24.21,9 22,9 z" style="fill:#d32f2f;stroke:#000;stroke-width:1.5;stroke-linecap:round"/></symbol>
<symbol id="piece-mce-chess-rR" viewBox="0 0 45 45"><g style="fill:#d32f2f;stroke:#000;stroke-width:1.5;stroke-linecap:round;stroke-linejoin:round"><path d="M 9,39 L 36,39 L 36,36 L 9,36 L 9,39 z"/><path d="M 12,36 L 12,32 L 33,32 L 33,36 L 12,36 z"/><path d="M 11,14 L 11,9 L 15,9 L 15,11 L 20,11 L 20,9 L 25,9 L 25,11 L 30,11 L 30,9 L 34,9 L 34,14"/><path d="M 34,14 L 31,17 L 14,17 L 11,14"/><path d="M 31,17 L 31,29.5 L 14,29.5 L 14,17"/><path d="M 31,29.5 L 32.5,32 L 12.5,32 L 14,29.5"/><path d="M 11,14 L 34,14" style="fill:none"/></g></symbol>
<symbol id="piece-mce-chess-rN" viewBox="0 0 45 45"><g style="fill:none;stroke:#000;stroke-width:1.5;stroke-linecap:round;stroke-linejoin:round"><path d="M 22,10 C 32.5,11 38.5,18 38,39 L 15,39 C 15,30 25,32.5 23,18" style="fill:#d32f2f"/><path d="M 24,18 C 24.38,20.91 18.45,25.37 16,27 C 13,29 13.18,31.34 11,31 C 9.958,30.06 12.41,27.96 11,28 C 10,28 11.19,29.23 10,30 C 9,30 5.997,31 6,26 C 6,24 12,14 12,14 C 12,14 13.89,12.1 14,10.5 C 13.27,9.506 13.5,8.5 13.5,7.5 C 14.5,6.5 16.5,10 16.5,10 L 18.5,10 C 18.5,10 19.28,8.008 21,7 C 22,7 22,10 22,10" style="fill:#d32f2f"/><path d="M 9.5,25.5 A 0.5,0.5 0 1 1 8.5,25.5 A 0.5,0.5 0 1 1 9.5,25.5 z" style="fill:#000"/><path d="M 15,15.5 A 0.5,1.5 0 1 1 14,15.5 A 0.5,1.5 0 1 1 15,15.5 z" transform="matrix(0.866,0.5,-0.5,0.866,9.693,-5.173)" style="fill:#000"/></g></symbol>
<symbol id="piece-mce-chess-rB" viewBox="0 0 45 45"><g style="fill:none;stroke:#000;stroke-width:1.5;stroke-linecap:round;stroke-linejoin:round"><g style="fill:#d32f2f;stroke-linecap:butt"><path d="M 9,36 C 12.39,35.03 19.11,36.43 22.5,34 C 25.89,36.43 32.61,35.03 36,36 C 36,36 37.65,36.54 39,38 C 38.32,38.97 37.2,38.91 36,38.5 C 32.61,37.53 25.89,38.96 22.5,37.5 C 19.11,38.96 12.39,37.53 9,38.5 C 7.8,38.91 6.68,38.97 6,38 C 7.35,36.54 9,36 9,36 z"/><path d="M 15,32 C 17.5,34.5 27.5,34.5 30,32 C 30.5,30.5 30,30 30,30 C 30,27.5 27.5,26 27.5,26 C 33,24.5 33.5,14.5 22.5,10.5 C 11.5,14.5 12,24.5 17.5,26 C 17.5,26 15,27.5 15,30 C 15,30 14.5,30.5 15,32 z"/><path d="M 25,8 A 2.5,2.5 0 1 1 20,8 A 2.5,2.5 0 1 1 25,8 z"/></g><path d="M 17.5,26 L 27.5,26 M 15,30 L 30,30 M 22.5,15.5 L 22.5,20.5 M 20,18 L 25,18" style="fill:none;stroke:#000;stroke-linejoin:miter"/></g></symbol>
<symbol id="piece-mce-chess-rQ" viewBox="0 0 45 45"><g style="fill:#d32f2f;stroke:#000;stroke-width:1.5;stroke-linejoin:round"><path d="M 9,26 C 17.5,24.5 30,24.5 36,26 L 38.5,13.5 L 31,25 L 30.7,10.9 L 25.5,24.5 L 22.5,10 L 19.5,24.5 L 14.3,10.9 L 14,25 L 6.5,13.5 L 9,26 z"/><path d="M 9,26 C 9,28 10.5,28 11.5,30 C 12.5,31.5 12.5,31 12,33.5 C 10.5,34.5 11,36 11,36 C 9.5,37.5 11.5,38.5 11.5,38.5 C 17.5,39.5 27.5,39.5 33.5,38.5 C 33.5,38.5 35.5,37.5 34,36 C 34,36 34.5,34.5 33,33.5 C 32.5,31 32.5,31.5 33.5,30 C 34.5,28 36,28 36,26 C 27.5,24.5 17.5,24.5 9,26 z"/><path d="M 11.5,30 C 15,29 30,29 33.5,30" style="fill:none"/><path d="M 12,33.5 C 15,32.5 30,32.5 33,33.5" style="fill:none"/><circle cx="6" cy="12" r="2"/><circle cx="14" cy="9" r="2"/><circle cx="22.5" cy="8" r="2"/><circle cx="31" cy="9" r="2"/><circle cx="39" cy="12" r="2"/></g></symbol>
<symbol id="piece-mce-chess-rK" viewBox="0 0 45 45"><g style="fill:#d32f2f;stroke:#000;stroke-width:1.5;stroke-linejoin:round"><path d="M 22.5,11.63 L 22.5,6" style="fill:none;stroke-linejoin:miter"/><path d="M 20,8 L 25,8" style="fill:none;stroke-linejoin:miter"/><path d="M 22.5,25 C 22.5,25 27,17.5 25.5,14.5 C 25.5,14.5 24.5,12 22.5,12 C 20.5,12 19.5,14.5 19.5,14.5 C 18,17.5 22.5,25 22.5,25"/><path d="M 12.5,37 C 18,40.5 27,40.5 32.5,37 L 32.5,30 C 32.5,30 41.5,25.5 38.5,19.5 C 34.5,13 25,16 22.5,23.5 L 22.5,27 L 22.5,23.5 C 20,16 10.5,13 6.5,19.5 C 3.5,25.5 12.5,30 12.5,30 L 12.5,37"/><path d="M 12.5,30 C 18,27 27,27 32.5,30"/><path d="M 12.5,33.5 C 18,30.5 27,30.5 32.5,33.5"/><path d="M 12.5,37 C 18,34 27,34 32.5,37"/></g></symbol>
</defs>

<rect x="24" y="24" width="336" height="336" fill="transparent"/><rect x="96" y="24" width="24" height="24" fill="#b58863" stroke="rgba(0,0,0,0.15)" stroke-width="1" data-sq="d14" data-type="true" class="board-cell"/><rect x="120" y="24" width="24" height="24" fill="#f0d9b5" stroke="rgba(0,0,0,0.15)" stroke-width="1" data-sq="e14" data-type="true" class="board-cell"/><rect x="144" y="24" width="24" height="24" fill="#b58863" stroke="rgba(0,0,0,0.15)" stroke-width="1" data-sq="f14" data-type="true" class="board-cell"/><rect x="168" y="24" width="24" height="24" fill="#f0d9b5" stroke="rgba(0,0,0,0.15)" stroke-width="1" data-sq="g14" data-type="true" class="board-cell"/><rect x="192" y="24" width="24" height="24" fill="#b58863" stroke="rgba(0,0,0,0.15)" stroke-width="1" data-sq="h14" data-type="true" class="board-cell"/><rect x="216" y="24" width="24" height="24" fill="#f0d9b5" stroke="rgba(0,0,0,0.15)" stroke-width="1" data-sq="i14" data-type="true" class="board-cell"/><rect x="240" y="24" width="24" height="24" fill="#b58863" stroke="rgba(0,0,0,0.15)" stroke-width="1" data-sq="j14" data-type="true" class="board-cell"/><rect x="264" y="24" width="24" height="24" fill="#f0d9b5" stroke="rgba(0,0,0,0.15)" stroke-width="1" data-sq="k14" data-type="true" class="board-cell"/><rect x="96" y="48" width="24" height="24" fill="#f0d9b5" stroke="rgba(0,0,0,0.15)" stroke-width="1" data-sq="d13" data-type="true" class="board-cell"/><rect x="120" y="48" width="24" height="24" fill="#b58863" stroke="rgba(0,0,0,0.15)" stroke-width="1" data-sq="e13" data-type="true" class="board-cell"/><rect x="144" y="48" width="24" height="24" fill="#f0d9b5" stroke="rgba(0,0,0,0.15)" stroke-width="1" data-sq="f13" data-type="true" class="board-cell"/><rect x="168" y="48" width="24" height="24" fill="#b58863" stroke="rgba(0,0,0,0.15)" stroke-width="1" data-sq="g13" data-type="true" class="board-cell"/><rect x="192" y="48" width="24" height="24" fill="#f0d9b5" stroke="rgba(0,0,0,0.15)" stroke-width="1" data-sq="h13" data-type="true" class="board-cell"/><rect x="216" y="48" width="24" height="24" fill="#b58863" stroke="rgba(0,0,0,0.15)" stroke-width="1" data-sq="i13" data-type="true" class="board-cell"/><rect x="240" y="48" width="24" height="24" fill="#f0d9b5" stroke="rgba(0,0,0,0.15)" stroke-width="1" data-sq="j13" data-type="true" class="board-cell"/><rect x="264" y="48" width="24" height="24" fill="#b58863" stroke="rgba(0,0,0,0.15)" stroke-width="1" data-sq="k13" data-type="true" class="board-cell"/><rect x="96" y="72" width="24" height="24" fill="#b58863" stroke="rgba(0,0,0,0.15)" stroke-width="1" data-sq="d12" data-type="true" class="board-cell"/><rect x="120" y="72" width="24" height="24" fill="#f0d9b5" stroke="rgba(0,0,0,0.15)" stroke-width="1" data-sq="e12" data-type="true" class="board-cell"/><rect x="144" y="72" width="24" height="24" fill="#b58863" stroke="rgba(0,0,0,0.15)" stroke-width="1" data-sq="f12" data-type="true" class="board-cell"/><rect x="168" y="72" width="24" height="24" fill="#f0d9b5" stroke="rgba(0,0,0,0.15)" stroke-width="1" data-sq="g12" data-type="true" class="board-cell"/><rect x="192" y="72" width="24" height="24" fill="#b58863" stroke="rgba(0,0,0,0.15)" stroke-width="1" data-sq="h12" data-type="true" class="board-cell"/><rect x="216" y="72" width="24" height="24" fill="#f0d9b5" stroke="rgba(0,0,0,0.15)" stroke-width="1" data-sq="i12" data-type="true" class="board-cell"/><rect x="240" y="72" width="24" height="24" fill="#b58863" stroke="rgba(0,0,0,0.15)" stroke-width="1" data-sq="j12" data-type="true" class="board-cell"/><rect x="264" y="72" width="24" height="24" fill="#f0d9b5" stroke="rgba(0,0,0,0.15)" stroke-width="1" data-sq="k12" data-type="true" class="board-cell"/><rect x="24" y="96" width="24" height="24" fill="#b58863" stroke="rgba(0,0,0,0.15)" stroke-width="1" data-sq="a11" data-type="true" class="board-cell"/><rect x="48" y="96" width="24" height="24" fill="#f0d9b5" stroke="rgba(0,0,0,0.15)" stroke-width="1" data-sq="b11" data-type="true" class="board-cell"/><rect x="72" y="96" width="24" height="24" fill="#b58863" stroke="rgba(0,0,0,0.15)" stroke-width="1" data-sq="c11" data-type="true" class="board-cell"/><rect x="96" y="96" width="24" height="24" fill="#f0d9b5" stroke="rgba(0,0,0,0.15)" stroke-width="1" data-sq="d11" data-type="true" class="board-cell"/><rect x="120" y="96" width="24" height="24" fill="#b58863" stroke="rgba(0,0,0,0.15)" stroke-width="1" data-sq="e11" data-type="true" class="board-cell"/><rect x="144" y="96" width="24" height="24" fill="#f0d9b5" stroke="rgba(0,0,0,0.15)" stroke-width="1" data-sq="f11" data-type="true" class="board-cell"/><rect x="168" y="96" width="24" height="24" fill="#b58863" stroke="rgba(0,0,0,0.15)" stroke-width="1" data-sq="g11" data-type="true" class="board-cell"/><rect x="192" y="96" width="24" height="24" fill="#f0d9b5" stroke="rgba(0,0,0,0.15)" stroke-width="1" data-sq="h11" data-type="true" class="board-cell"/><rect x="216" y="96" width="24" height="24" fill="#b58863" stroke="rgba(0,0,0,0.15)" stroke-width="1" data-sq="i11" data-type="true" class="board-cell"/><rect x="240" y="96" width="24" height="24" fill="#f0d9b5" stroke="rgba(0,0,0,0.15)" stroke-width="1" data-sq="j11" data-type="true" class="board-cell"/><rect x="264" y="96" width="24" height="24" fill="#b58863" stroke="rgba(0,0,0,0.15)" stroke-width="1" data-sq="k11" data-type="true" class="board-cell"/><rect x="288" y="96" width="24" height="24" fill="#f0d9b5" stroke="rgba(0,0,0,0.15)" stroke-width="1" data-sq="l11" data-type="true" class="board-cell"/><rect x="312" y="96" width="24" height="24" fill="#b58863" stroke="rgba(0,0,0,0.15)" stroke-width="1" data-sq="m11" data-type="true" class="board-cell"/><rect x="336" y="96" width="24" height="24" fill="#f0d9b5" stroke="rgba(0,0,0,0.15)" stroke-width="1" data-sq="n11" data-type="true" class="board-cell"/><rect x="24" y="120" width="24" height="24" fill="#f0d9b5" stroke="rgba(0,0,0,0.15)" stroke-width="1" data-sq="a10" data-type="true" class="board-cell"/><rect x="48" y="120" width="24" height="24" fill="#b58863" stroke="rgba(0,0,0,0.15)" stroke-width="1" data-sq="b10" data-type="true" class="board-cell"/><rect x="72" y="120" width="24" height="24" fill="#f0d9b5" stroke="rgba(0,0,0,0.15)" stroke-width="1" data-sq="c10" data-type="true" class="board-cell"/><rect x="96" y="120" width="24" height="24" fill="#b58863" stroke="rgba(0,0,0,0.15)" stroke-width="1" data-sq="d10" data-type="true" class="board-cell"/><rect x="120" y="120" width="24" height="24" fill="#f0d9b5" stroke="rgba(0,0,0,0.15)" stroke-width="1" data-sq="e10" data-type="true" class="board-cell"/><rect x="144" y="120" width="24" height="24" fill="#b58863" stroke="rgba(0,0,0,0.15)" stroke-width="1" data-sq="f10" data-type="true" class="board-cell"/><rect x="168" y="120" width="24" height="24" fill="#f0d9b5" stroke="rgba(0,0,0,0.15)" stroke-width="1" data-sq="g10" data-type="true" class="board-cell"/><rect x="192" y="120" width="24" height="24" fill="#b58863" stroke="rgba(0,0,0,0.15)" stroke-width="1" data-sq="h10" data-type="true" class="board-cell"/><rect x="216" y="120" width="24" height="24" fill="#f0d9b5" stroke="rgba(0,0,0,0.15)" stroke-width="1" data-sq="i10" data-type="true" class="board-cell"/><rect x="240" y="120" width="24" height="24" fill="#b58863" stroke="rgba(0,0,0,0.15)" stroke-width="1" data-sq="j10" data-type="true" class="board-cell"/><rect x="264" y="120" width="24" height="24" fill="#f0d9b5" stroke="rgba(0,0,0,0.15)" stroke-width="1" data-sq="k10" data-type="true" class="board-cell"/><rect x="288" y="120" width="24" height="24" fill="#b58863" stroke="rgba(0,0,0,0.15)" stroke-width="1" data-sq="l10" data-type="true" class="board-cell"/><rect x="312" y="120" width="24" height="24" fill="#f0d9b5" stroke="rgba(0,0,0,0.15)" stroke-width="1" data-sq="m10" data-type="true" class="board-cell"/><rect x="336" y="120" width="24" height="24" fill="#b58863" stroke="rgba(0,0,0,0.15)" stroke-width="1" data-sq="n10" data-type="true" class="board-cell"/><rect x="24" y="144" width="24" height="24" fill="#b58863" stroke="rgba(0,0,0,0.15)" stroke-width="1" data-sq="a9" data-type="true" class="board-cell"/><rect x="48" y="144" width="24" height="24" fill="#f0d9b5" stroke="rgba(0,0,0,0.15)" stroke-width="1" data-sq="b9" data-type="true" class="board-cell"/><rect x="72" y="144" width="24" height="24" fill="#b58863" stroke="rgba(0,0,0,0.15)" stroke-width="1" data-sq="c9" data-type="true" class="board-cell"/><rect x="96" y="144" width="24" height="24" fill="#f0d9b5" stroke="rgba(0,0,0,0.15)" stroke-width="1" data-sq="d9" data-type="true" class="board-cell"/><rect x="120" y="144" width="24" height="24" fill="#b58863" stroke="rgba(0,0,0,0.15)" stroke-width="1" data-sq="e9" data-type="true" class="board-cell"/><rect x="144" y="144" width="24" height="24" fill="#f0d9b5" stroke="rgba(0,0,0,0.15)" stroke-width="1" data-sq="f9" data-type="true" class="board-cell"/><rect x="168" y="144" width="24" height="24" fill="#b58863" stroke="rgba(0,0,0,0.15)" stroke-width="1" data-sq="g9" data-type="true" class="board-cell"/><rect x="192" y="144" width="24" height="24" fill="#f0d9b5" stroke="rgba(0,0,0,0.15)" stroke-width="1" data-sq="h9" data-type="true" class="board-cell"/><rect x="216" y="144" width="24" height="24" fill="#b58863" stroke="rgba(0,0,0,0.15)" stroke-width="1" data-sq="i9" data-type="true" class="board-cell"/><rect x="240" y="144" width="24" height="24" fill="#f0d9b5" stroke="rgba(0,0,0,0.15)" stroke-width="1" data-sq="j9" data-type="true" class="board-cell"/><rect x="264" y="144" width="24" height="24" fill="#b58863" stroke="rgba(0,0,0,0.15)" stroke-width="1" data-sq="k9" data-type="true" class="board-cell"/><rect x="288" y="144" width="24" height="24" fill="#f0d9b5" stroke="rgba(0,0,0,0.15)" stroke-width="1" data-sq="l9" data-type="true" class="board-cell"/><rect x="312" y="144" width="24" height="24" fill="#b58863" stroke="rgba(0,0,0,0.15)" stroke-width="1" data-sq="m9" data-type="true" class="board-cell"/><rect x="336" y="144" width="24" height="24" fill="#f0d9b5" stroke="rgba(0,0,0,0.15)" stroke-width="1" data-sq="n9" data-type="true" class="board-cell"/><rect x="24" y="168" width="24" height="24" fill="#f0d9b5" stroke="rgba(0,0,0,0.15)" stroke-width="1" data-sq="a8" data-type="true" class="board-cell"/><rect x="48" y="168" width="24" height="24" fill="#b58863" stroke="rgba(0,0,0,0.15)" stroke-width="1" data-sq="b8" data-type="true" class="board-cell"/><rect x="72" y="168" width="24" height="24" fill="#f0d9b5" stroke="rgba(0,0,0,0.15)" stroke-width="1" data-sq="c8" data-type="true" class="board-cell"/><rect x="96" y="168" width="24" height="24" fill="#b58863" stroke="rgba(0,0,0,0.15)" stroke-width="1" data-sq="d8" data-type="true" class="board-cell"/><rect x="120" y="168" width="24" height="24" fill="#f0d9b5" stroke="rgba(0,0,0,0.15)" stroke-width="1" data-sq="e8" data-type="true" class="board-cell"/><rect x="144" y="168" width="24" height="24" fill="#b58863" stroke="rgba(0,0,0,0.15)" stroke-width="1" data-sq="f8" data-type="true" class="board-cell"/><rect x="168" y="168" width="24" height="24" fill="#f0d9b5" stroke="rgba(0,0,0,0.15)" stroke-width="1" data-sq="g8" data-type="true" class="board-cell"/><rect x="192" y="168" width="24" height="24" fill="#b58863" stroke="rgba(0,0,0,0.15)" stroke-width="1" data-sq="h8" data-type="true" class="board-cell"/><rect x="216" y="168" width="24" height="24" fill="#f0d9b5" stroke="rgba(0,0,0,0.15)" stroke-width="1" data-sq="i8" data-type="true" class="board-cell"/><rect x="240" y="168" width="24" height="24" fill="#b58863" stroke="rgba(0,0,0,0.15)" stroke-width="1" data-sq="j8" data-type="true" class="board-cell"/><rect x="264" y="168" width="24" height="24" fill="#f0d9b5" stroke="rgba(0,0,0,0.15)" stroke-width="1" data-sq="k8" data-type="true" class="board-cell"/><rect x="288" y="168" width="24" height="24" fill="#b58863" stroke="rgba(0,0,0,0.15)" stroke-width="1" data-sq="l8" data-type="true" class="board-cell"/><rect x="312" y="168" width="24" height="24" fill="#f0d9b5" stroke="rgba(0,0,0,0.15)" stroke-width="1" data-sq="m8" data-type="true" class="board-cell"/><rect x="336" y="168" width="24" height="24" fill="#b58863" stroke="rgba(0,0,0,0.15)" stroke-width="1" data-sq="n8" data-type="true" class="board-cell"/><rect x="24" y="192" width="24" height="24" fill="#b58863" stroke="rgba(0,0,0,0.15)" stroke-width="1" data-sq="a7" data-type="true" class="board-cell"/><rect x="48" y="192" width="24" height="24" fill="#f0d9b5" stroke="rgba(0,0,0,0.15)" stroke-width="1" data-sq="b7" data-type="true" class="board-cell"/><rect x="72" y="192" width="24" height="24" fill="#b58863" stroke="rgba(0,0,0,0.15)" stroke-width="1" data-sq="c7" data-type="true" class="board-cell"/><rect x="96" y="192" width="24" height="24" fill="#f0d9b5" stroke="rgba(0,0,0,0.15)" stroke-width="1" data-sq="d7" data-type="true" class="board-cell"/><rect x="120" y="192" width="24" height="24" fill="#b58863" stroke="rgba(0,0,0,0.15)" stroke-width="1" data-sq="e7" data-type="true" class="board-cell"/><rect x="144" y="192" width="24" height="24" fill="#f0d9b5" stroke="rgba(0,0,0,0.15)" stroke-width="1" data-sq="f7" data-type="true" class="board-cell"/><rect x="168" y="192" width="24" height="24" fill="#b58863" stroke="rgba(0,0,0,0.15)" stroke-width="1" data-sq="g7" data-type="true" class="board-cell"/><rect x="192" y="192" width="24" height="24" fill="#f0d9b5" stroke="rgba(0,0,0,0.15)" stroke-width="1" data-sq="h7" data-type="true" class="board-cell"/><rect x="216" y="192" width="24" height="24" fill="#b58863" stroke="rgba(0,0,0,0.15)" stroke-width="1" data-sq="i7" data-type="true" class="board-cell"/><rect x="240" y="192" width="24" height="24" fill="#f0d9b5" stroke="rgba(0,0,0,0.15)" stroke-width="1" data-sq="j7" data-type="true" class="board-cell"/><rect x="264" y="192" width="24" height="24" fill="#b58863" stroke="rgba(0,0,0,0.15)" stroke-width="1" data-sq="k7" data-type="true" class="board-cell"/><rect x="288" y="192" width="24" height="24" fill="#f0d9b5" stroke="rgba(0,0,0,0.15)" stroke-width="1" data-sq="l7" data-type="true" class="board-cell"/><rect x="312" y="192" width="24" height="24" fill="#b58863" stroke="rgba(0,0,0,0.15)" stroke-width="1" data-sq="m7" data-type="true" class="board-cell"/><rect x="336" y="192" width="24" height="24" fill="#f0d9b5" stroke="rgba(0,0,0,0.15)" stroke-width="1" data-sq="n7" data-type="true" class="board-cell"/><rect x="24" y="216" width="24" height="24" fill="#f0d9b5" stroke="rgba(0,0,0,0.15)" stroke-width="1" data-sq="a6" data-type="true" class="board-cell"/><rect x="48" y="216" width="24" height="24" fill="#b58863" stroke="rgba(0,0,0,0.15)" stroke-width="1" data-sq="b6" data-type="true" class="board-cell"/><rect x="72" y="216" width="24" height="24" fill="#f0d9b5" stroke="rgba(0,0,0,0.15)" stroke-width="1" data-sq="c6" data-type="true" class="board-cell"/><rect x="96" y="216" width="24" height="24" fill="#b58863" stroke="rgba(0,0,0,0.15)" stroke-width="1" data-sq="d6" data-type="true" class="board-cell"/><rect x="120" y="216" width="24" height="24" fill="#f0d9b5" stroke="rgba(0,0,0,0.15)" stroke-width="1" data-sq="e6" data-type="true" class="board-cell"/><rect x="144" y="216" width="24" height="24" fill="#b58863" stroke="rgba(0,0,0,0.15)" stroke-width="1" data-sq="f6" data-type="true" class="board-cell"/><rect x="168" y="216" width="24" height="24" fill="#f0d9b5" stroke="rgba(0,0,0,0.15)" stroke-width="1" data-sq="g6" data-type="true" class="board-cell"/><rect x="192" y="216" width="24" height="24" fill="#b58863" stroke="rgba(0,0,0,0.15)" stroke-width="1" data-sq="h6" data-type="true" class="board-cell"/><rect x="216" y="216" width="24" height="24" fill="#f0d9b5" stroke="rgba(0,0,0,0.15)" stroke-width="1" data-sq="i6" data-type="true" class="board-cell"/><rect x="240" y="216" width="24" height="24" fill="#b58863" stroke="rgba(0,0,0,0.15)" stroke-width="1" data-sq="j6" data-type="true" class="board-cell"/><rect x="264" y="216" width="24" height="24" fill="#f0d9b5" stroke="rgba(0,0,0,0.15)" stroke-width="1" data-sq="k6" data-type="true" class="board-cell"/><rect x="288" y="216" width="24" height="24" fill="#b58863" stroke="rgba(0,0,0,0.15)" stroke-width="1" data-sq="l6" data-type="true" class="board-cell"/><rect x="312" y="216" width="24" height="24" fill="#f0d9b5" stroke="rgba(0,0,0,0.15)" stroke-width="1" data-sq="m6" data-type="true" class="board-cell"/><rect x="336" y="216" width="24" height="24" fill="#b58863" stroke="rgba(0,0,0,0.15)" stroke-width="1" data-sq="n6" data-type="true" class="board-cell"/><rect x="24" y="240" width="24" height="24" fill="#b58863" stroke="rgba(0,0,0,0.15)" stroke-width="1" data-sq="a5" data-type="true" class="board-cell"/><rect x="48" y="240" width="24" height="24" fill="#f0d9b5" stroke="rgba(0,0,0,0.15)" stroke-width="1" data-sq="b5" data-type="true" class="board-cell"/><rect x="72" y="240" width="24" height="24" fill="#b58863" stroke="rgba(0,0,0,0.15)" stroke-width="1" data-sq="c5" data-type="true" class="board-cell"/><rect x="96" y="240" width="24" height="24" fill="#f0d9b5" stroke="rgba(0,0,0,0.15)" stroke-width="1" data-sq="d5" data-type="true" class="board-cell"/><rect x="120" y="240" width="24" height="24" fill="#b58863" stroke="rgba(0,0,0,0.15)" stroke-width="1" data-sq="e5" data-type="true" class="board-cell"/><rect x="144" y="240" width="24" height="24" fill="#f0d9b5" stroke="rgba(0,0,0,0.15)" stroke-width="1" data-sq="f5" data-type="true" class="board-cell"/><rect x="168" y="240" width="24" height="24" fill="#b58863" stroke="rgba(0,0,0,0.15)" stroke-width="1" data-sq="g5" data-type="true" class="board-cell"/><rect x="192" y="240" width="24" height="24" fill="#f0d9b5" stroke="rgba(0,0,0,0.15)" stroke-width="1" data-sq="h5" data-type="true" class="board-cell"/><rect x="216" y="240" width="24" height="24" fill="#b58863" stroke="rgba(0,0,0,0.15)" stroke-width="1" data-sq="i5" data-type="true" class="board-cell"/><rect x="240" y="240" width="24" height="24" fill="#f0d9b5" stroke="rgba(0,0,0,0.15)" stroke-width="1" data-sq="j5" data-type="true" class="board-cell"/><rect x="264" y="240" width="24" height="24" fill="#b58863" stroke="rgba(0,0,0,0.15)" stroke-width="1" data-sq="k5" data-type="true" class="board-cell"/><rect x="288" y="240" width="24" height="24" fill="#f0d9b5" stroke="rgba(0,0,0,0.15)" stroke-width="1" data-sq="l5" data-type="true" class="board-cell"/><rect x="312" y="240" width="24" height="24" fill="#b58863" stroke="rgba(0,0,0,0.15)" stroke-width="1" data-sq="m5" data-type="true" class="board-cell"/><rect x="336" y="240" width="24" height="24" fill="#f0d9b5" stroke="rgba(0,0,0,0.15)" stroke-width="1" data-sq="n5" data-type="true" class="board-cell"/><rect x="24" y="264" width="24" height="24" fill="#f0d9b5" stroke="rgba(0,0,0,0.15)" stroke-width="1" data-sq="a4" data-type="true" class="board-cell"/><rect x="48" y="264" width="24" height="24" fill="#b58863" stroke="rgba(0,0,0,0.15)" stroke-width="1" data-sq="b4" data-type="true" class="board-cell"/><rect x="72" y="264" width="24" height="24" fill="#f0d9b5" stroke="rgba(0,0,0,0.15)" stroke-width="1" data-sq="c4" data-type="true" class="board-cell"/><rect x="96" y="264" width="24" height="24" fill="#b58863" stroke="rgba(0,0,0,0.15)" stroke-width="1" data-sq="d4" data-type="true" class="board-cell"/><rect x="120" y="264" width="24" height="24" fill="#f0d9b5" stroke="rgba(0,0,0,0.15)" stroke-width="1" data-sq="e4" data-type="true" class="board-cell"/><rect x="144" y="264" width="24" height="24" fill="#b58863" stroke="rgba(0,0,0,0.15)" stroke-width="1" data-sq="f4" data-type="true" class="board-cell"/><rect x="168" y="264" width="24" height="24" fill="#f0d9b5" stroke="rgba(0,0,0,0.15)" stroke-width="1" data-sq="g4" data-type="true" class="board-cell"/><rect x="192" y="264" width="24" height="24" fill="#b58863" stroke="rgba(0,0,0,0.15)" stroke-width="1" data-sq="h4" data-type="true" class="board-cell"/><rect x="216" y="264" width="24" height="24" fill="#f0d9b5" stroke="rgba(0,0,0,0.15)" stroke-width="1" data-sq="i4" data-type="true" class="board-cell"/><rect x="240" y="264" width="24" height="24" fill="#b58863" stroke="rgba(0,0,0,0.15)" stroke-width="1" data-sq="j4" data-type="true" class="board-cell"/><rect x="264" y="264" width="24" height="24" fill="#f0d9b5" stroke="rgba(0,0,0,0.15)" stroke-width="1" data-sq="k4" data-type="true" class="board-cell"/><rect x="288" y="264" width="24" height="24" fill="#b58863" stroke="rgba(0,0,0,0.15)" stroke-width="1" data-sq="l4" data-type="true" class="board-cell"/><rect x="312" y="264" width="24" height="24" fill="#f0d9b5" stroke="rgba(0,0,0,0.15)" stroke-width="1" data-sq="m4" data-type="true" class="board-cell"/><rect x="336" y="264" width="24" height="24" fill="#b58863" stroke="rgba(0,0,0,0.15)" stroke-width="1" data-sq="n4" data-type="true" class="board-cell"/><rect x="96" y="288" width="24" height="24" fill="#f0d9b5" stroke="rgba(0,0,0,0.15)" stroke-width="1" data-sq="d3" data-type="true" class="board-cell"/><rect x="120" y="288" width="24" height="24" fill="#b58863" stroke="rgba(0,0,0,0.15)" stroke-width="1" data-sq="e3" data-type="true" class="board-cell"/><rect x="144" y="288" width="24" height="24" fill="#f0d9b5" stroke="rgba(0,0,0,0.15)" stroke-width="1" data-sq="f3" data-type="true" class="board-cell"/><rect x="168" y="288" width="24" height="24" fill="#b58863" stroke="rgba(0,0,0,0.15)" stroke-width="1" data-sq="g3" data-type="true" class="board-cell"/><rect x="192" y="288" width="24" height="24" fill="#f0d9b5" stroke="rgba(0,0,0,0.15)" stroke-width="1" data-sq="h3" data-type="true" class="board-cell"/><rect x="216" y="288" width="24" height="24" fill="#b58863" stroke="rgba(0,0,0,0.15)" stroke-width="1" data-sq="i3" data-type="true" class="board-cell"/><rect x="240" y="288" width="24" height="24" fill="#f0d9b5" stroke="rgba(0,0,0,0.15)" stroke-width="1" data-sq="j3" data-type="true" class="board-cell"/><rect x="264" y="288" width="24" height="24" fill="#b58863" stroke="rgba(0,0,0,0.15)" stroke-width="1" data-sq="k3" data-type="true" class="board-cell"/><rect x="96" y="312" width="24" height="24" fill="#b58863" stroke="rgba(0,0,0,0.15)" stroke-width="1" data-sq="d2" data-type="true" class="board-cell"/><rect x="120" y="312" width="24" height="24" fill="#f0d9b5" stroke="rgba(0,0,0,0.15)" stroke-width="1" data-sq="e2" data-type="true" class="board-cell"/><rect x="144" y="312" width="24" height="24" fill="#b58863" stroke="rgba(0,0,0,0.15)" stroke-width="1" data-sq="f2" data-type="true" class="board-cell"/><rect x="168" y="312" width="24" height="24" fill="#f0d9b5" stroke="rgba(0,0,0,0.15)" stroke-width="1" data-sq="g2" data-type="true" class="board-cell"/><rect x="192" y="312" width="24" height="24" fill="#b58863" stroke="rgba(0,0,0,0.15)" stroke-width="1" data-sq="h2" data-type="true" class="board-cell"/><rect x="216" y="312" width="24" height="24" fill="#f0d9b5" stroke="rgba(0,0,0,0.15)" stroke-width="1" data-sq="i2" data-type="true" class="board-cell"/><rect x="240" y="312" width="24" height="24" fill="#b58863" stroke="rgba(0,0,0,0.15)" stroke-width="1" data-sq="j2" data-type="true" class="board-cell"/><rect x="264" y="312" width="24" height="24" fill="#f0d9b5" stroke="rgba(0,0,0,0.15)" stroke-width="1" data-sq="k2" data-type="true" class="board-cell"/><rect x="96" y="336" width="24" height="24" fill="#f0d9b5" stroke="rgba(0,0,0,0.15)" stroke-width="1" data-sq="d1" data-type="true" class="board-cell"/><rect x="120" y="336" width="24" height="24" fill="#b58863" stroke="rgba(0,0,0,0.15)" stroke-width="1" data-sq="e1" data-type="true" class="board-cell"/><rect x="144" y="336" width="24" height="24" fill="#f0d9b5" stroke="rgba(0,0,0,0.15)" stroke-width="1" data-sq="f1" data-type="true" class="board-cell"/><rect x="168" y="336" width="24" height="24" fill="#b58863" stroke="rgba(0,0,0,0.15)" stroke-width="1" data-sq="g1" data-type="true" class="board-cell"/><rect x="192" y="336" width="24" height="24" fill="#f0d9b5" stroke="rgba(0,0,0,0.15)" stroke-width="1" data-sq="h1" data-type="true" class="board-cell"/><rect x="216" y="336" width="24" height="24" fill="#b58863" stroke="rgba(0,0,0,0.15)" stroke-width="1" data-sq="i1" data-type="true" class="board-cell"/><rect x="240" y="336" width="24" height="24" fill="#f0d9b5" stroke="rgba(0,0,0,0.15)" stroke-width="1" data-sq="j1" data-type="true" class="board-cell"/><rect x="264" y="336" width="24" height="24" fill="#b58863" stroke="rgba(0,0,0,0.15)" stroke-width="1" data-sq="k1" data-type="true" class="board-cell"/>
<g pointer-events="none"><use href="#piece-mce-chess-yR" x="96" y="24" width="24" height="24"/><use href="#piece-mce-chess-yN" x="120" y="24" width="24" height="24"/><use href="#piece-mce-chess-yB" x="144" y="24" width="24" height="24"/><use href="#piece-mce-chess-yK" x="168" y="24" width="24" height="24"/><use href="#piece-mce-chess-yQ" x="192" y="24" width="24" height="24"/><use href="#piece-mce-chess-yB" x="216" y="24" width="24" height="24"/><use href="#piece-mce-chess-yN" x="240" y="24" width="24" height="24"/><use href="#piece-mce-chess-yR" x="264" y="24" width="24" height="24"/><use href="#piece-mce-chess-yP" x="96" y="48" width="24" height="24"/><use href="#piece-mce-chess-yP" x="120" y="48" width="24" height="24"/><use href="#piece-mce-chess-yP" x="144" y="48" width="24" height="24"/><use href="#piece-mce-chess-yP" x="168" y="48" width="24" height="24"/><use href="#piece-mce-chess-yP" x="192" y="48" width="24" height="24"/><use href="#piece-mce-chess-yP" x="216" y="48" width="24" height="24"/><use href="#piece-mce-chess-yP" x="240" y="48" width="24" height="24"/><use href="#piece-mce-chess-yP" x="264" y="48" width="24" height="24"/><use href="#piece-mce-chess-bR" x="24" y="96" width="24" height="24"/><use href="#piece-mce-chess-bP" x="48" y="96" width="24" height="24"/><use href="#piece-mce-chess-gP" x="312" y="96" width="24" height="24"/><use href="#piece-mce-chess-gR" x="336" y="96" width="24" height="24"/><use href="#piece-mce-chess-bN" x="24" y="120" width="24" height="24"/><use href="#piece-mce-chess-bP" x="48" y="120" width="24" height="24"/><use href="#piece-mce-chess-gP" x="312" y="120" width="24" height="24"/><use href="#piece-mce-chess-gN" x="336" y="120" width="24" height="24"/><use href="#piece-mce-chess-bB" x="24" y="144" width="24" height="24"/><use href="#piece-mce-chess-bP" x="48" y="144" width="24" height="24"/><use href="#piece-mce-chess-gP" x="312" y="144" width="24" height="24"/><use href="#piece-mce-chess-gB" x="336" y="144" width="24" height="24"/><use href="#piece-mce-chess-bK" x="24" y="168" width="24" height="24"/><use href="#piece-mce-chess-bP" x="48" y="168" width="24" height="24"/><use href="#piece-mce-chess-gP" x="312" y="168" width="24" height="24"/><use href="#piece-mce-chess-gQ" x="336" y="168" width="24" height="24"/><use href="#piece-mce-chess-bQ" x="24" y="192" width="24" height="24"/><use href="#piece-mce-chess-bP" x="48" y="192" width="24" height="24"/><use href="#piece-mce-chess-gP" x="312" y="192" width="24" height="24"/><use href="#piece-mce-chess-gK" x="336" y="192" width="24" height="24"/><use href="#piece-mce-chess-bB" x="24" y="216" width="24" height="24"/><use href="#piece-mce-chess-bP" x="48" y="216" width="24" height="24"/><use href="#piece-mce-chess-gP" x="312" y="216" width="24" height="24"/><use href="#piece-mce-chess-gB" x="336" y="216" width="24" height="24"/><use href="#piece-mce-chess-bN" x="24" y="240" width="24" height="24"/><use href="#piece-mce-chess-bP" x="48" y="240" width="24" height="24"/><use href="#piece-mce-chess-gP" x="312" y="240" width="24" height="24"/><use href="#piece-mce-chess-gN" x="336" y="240" width="24" height="24"/><use href="#piece-mce-chess-bR" x="24" y="264" width="24" height="24"/><use href="#piece-mce-chess-bP" x="48" y="264" width="24" height="24"/><use href="#piece-mce-chess-gP" x="312" y="264" width="24" height="24"/><use href="#piece-mce-chess-gR" x="336" y="264" width="24" height="24"/><use href="#piece-mce-chess-rP" x="96" y="312" width="24" height="24"/><use href="#piece-mce-chess-rP" x="120" y="312" width="24" height="24"/><use href="#piece-mce-chess-rP" x="144" y="312" width="24" height="24"/><use href="#piece-mce-chess-rP" x="168" y="312" width="24" height="24"/><use href="#piece-mce-chess-rP" x="192" y="312" width="24" height="24"/><use href="#piece-mce-chess-rP" x="216" y="312" width="24" height="24"/><use href="#piece-mce-chess-rP" x="240" y="312" width="24" height="24"/><use href="#piece-mce-chess-rP" x="264" y="312" width="24" height="24"/><use href="#piece-mce-chess-rR" x="96" y="336" width="24" height="24"/><use href="#piece-mce-chess-rN" x="120" y="336" width="24" height="24"/><use href="#piece-mce-chess-rB" x="144" y="336" width="24" height="24"/><use href="#piece-mce-chess-rQ" x="168" y="336" width="24" height="24"/><use href="#piece-mce-chess-rK" x="192" y="336" width="24" height="24"/><use href="#piece-mce-chess-rB" x="216" y="336" width="24" height="24"/><use href="#piece-mce-chess-rN" x="240" y="336" width="24" height="24"/><use href="#piece-mce-chess-rR" x="264" y="336" width="24" height="24"/></g>
<text x="36" y="375.6" text-anchor="middle" font-size="13" fill="#5c3a1e" font-family="monospace">a</text><text x="60" y="375.6" text-anchor="middle" font-size="13" fill="#5c3a1e" font-family="monospace">b</text><text x="84" y="375.6" text-anchor="middle" font-size="13" fill="#5c3a1e" font-family="monospace">c</text><text x="108" y="375.6" text-anchor="middle" font-size="13" fill="#5c3a1e" font-family="monospace">d</text><text x="132" y="375.6" text-anchor="middle" font-size="13" fill="#5c3a1e" font-family="monospace">e</text><text x="156" y="375.6" text-anchor="middle" font-size="13" fill="#5c3a1e" font-family="monospace">f</text><text x="180" y="375.6" text-anchor="middle" font-size="13" fill="#5c3a1e" font-family="monospace">g</text><text x="204" y="375.6" text-anchor="middle" font-size="13" fill="#5c3a1e" font-family="monospace">h</text><text x="228" y="375.6" text-anchor="middle" font-size="13" fill="#5c3a1e" font-family="monospace">i</text><text x="252" y="375.6" text-anchor="middle" font-size="13" fill="#5c3a1e" font-family="monospace">j</text><text x="276" y="375.6" text-anchor="middle" font-size="13" fill="#5c3a1e" font-family="monospace">k</text><text x="300" y="375.6" text-anchor="middle" font-size="13" fill="#5c3a1e" font-family="monospace">l</text><text x="324" y="375.6" text-anchor="middle" font-size="13" fill="#5c3a1e" font-family="monospace">m</text><text x="348" y="375.6" text-anchor="middle" font-size="13" fill="#5c3a1e" font-family="monospace">n</text><text x="12" y="40.55" text-anchor="middle" font-size="13" fill="#5c3a1e" font-family="monospace">14</text><text x="12" y="64.55" text-anchor="middle" font-size="13" fill="#5c3a1e" font-family="monospace">13</text><text x="12" y="88.55" text-anchor="middle" font-size="13" fill="#5c3a1e" font-family="monospace">12</text><text x="12" y="112.55" text-anchor="middle" font-size="13" fill="#5c3a1e" font-family="monospace">11</text><text x="12" y="136.55" text-anchor="middle" font-size="13" fill="#5c3a1e" font-family="monospace">10</text><text x="12" y="160.55" text-anchor="middle" font-size="13" fill="#5c3a1e" font-family="monospace">9</text><text x="12" y="184.55" text-anchor="middle" font-size="13" fill="#5c3a1e" font-family="monospace">8</text><text x="12" y="208.55" text-anchor="middle" font-size="13" fill="#5c3a1e" font-family="monospace">7</text><text x="12" y="232.55" text-anchor="middle" font-size="13" fill="#5c3a1e" font-family="monospace">6</text><text x="12" y="256.55" text-anchor="middle" font-size="13" fill="#5c3a1e" font-family="monospace">5</text><text x="12" y="280.55" text-anchor="middle" font-size="13" fill="#5c3a1e" font-family="monospace">4</text><text x="12" y="304.55" text-anchor="middle" font-size="13" fill="#5c3a1e" font-family="monospace">3</text><text x="12" y="328.55" text-anchor="middle" font-size="13" fill="#5c3a1e" font-family="monospace">2</text><text x="12" y="352.55" text-anchor="middle" font-size="13" fill="#5c3a1e" font-family="monospace">1</text>
</svg>