<svg xmlns="http://www.w3.org/2000/svg" viewBox="0 0 348 348" width="348" height="348">
<defs>
<symbol id="piece-mce-chess-yR" viewBox="0 0 45 45"><g style="fill:#fdd835;stroke:#000;stroke-width:1.5;stroke-linecap:round;stroke-linejoin:round"><path d="M 9,39 L 36,39 L 36,36 L 9,36 L 9,39 z"/><path d="M 12,36 L 12,32 L 33,32 L 33,36 L 12,36 z"/><path d="M 11,14 L 11,9 L 15,9 L 15,11 L 20,11 L 20,9 L 25,9 L 25,11 L 30,11 L 30,9 L 34,9 L 34,14"/><path d="M 34,14 L 31,17 L 14,17 L 11,14"/><path d="M 31,17 L 31,29.5 L 14,29.5 L 14,17"/><path d="M 31,29.5 L 32.5,32 L 12.5,32 L 14,29.5"/><path d="M 11,14 L 34,14" style="fill:none"/></g></symbol>
<symbol id="piece-mce-chess-yN" viewBox="0 0 45 45"><g style="fill:none;stroke:#000;stroke-width:1.5;stroke-linecap:round;stroke-linejoin:round"><path d="M 22,10 C 32.5,11 38.5,18 38,39 L 15,39 C 15,30 25,32.5 23,18" style="fill:#fdd835"/><path d="M 24,18 C 24.38,20.91 18.45,25.37 16,27 C 13,29 13.18,31.34 11,31 C 9.958,30.06 12.41,27.96 11,28 C 10,28 11.19,29.23 10,30 C 9,30 5.997,31 6,26 C 6,24 12,14 12,14 C 12,14 13.89,12.1 14,10.5 C 13.27,9.506 13.5,8.5 13.5,7.5 C 14.5,6.5 16.5,10 16.5,10 L 18.5,10 C 18.5,10 19.28,8.008 21,7 C 22,7 22,10 22,10" style="fill:#fdd835"/><path d="M 9.5,25.5 A 0.5,0.5 0 1 1 8.5,25.5 A 0.5,0.5 0 1 1 9.5,25.5 z" style="fill:#000"/><path d="M 15,15.5 A 0.5,1.5 0 1 1 14,15.5 A 0.5,1.5 0 1 1 15,15.5 z" transform="matrix(0.866,0.5,-0.5,0.866,9.693,-5.173)" style="fill:#000"/></g></symbol>
<symbol id="piece-mce-chess-yQ" viewBox="0 0 45 45"><g style="fill:#fdd835;stroke:#000;stroke-width:1.5;stroke-linejoin:round"><path d="M 9,26 C 17.5,24.5 30,24.5 36,26 L 38.5,13.5 L 31,25 L 30.7,10.9 L 25.5,24.5 L 22.5,10 L 19.5,24.5 L 14.3,10.9 L 14,25 L 6.5,13.5 L 9,26 z"/><path d="M 9,26 C 9,28 10.5,28 11.5,30 C 12.5,31.5 12.5,31 12,33.5 C 10.5,34.5 11,36 11,36 C 9.5,37.5 11.5,38.5 11.5,38.5 C 17.5,39.5 27.5,39.5 33.5,38.5 C 33.5,38.5 35.5,37.5 34,36 C 34,36 34.5,34.5 33,33.5 C 32.5,31 32.5,31.5 33.5,30 C 34.5,28 36,28 36,26 C 27.5,24.5 17.5,24.5 9,26 z"/><path d="M 11.5,30 C 15,29 30,29 33.5,30" style="fill:none"/><path d="M 12,33.5 C 15,32.5 30,32.5 33,33.5" style="fill:none"/><circle cx="6" cy="12" r="2"/><circle cx="14" cy="9" r="2"/><circle cx="22.5" cy="8" r="2"/><circle cx="31" cy="9" r="2"/><circle cx="39" cy="12" r="2"/></g></symbol>
<symbol id="piece-mce-chess-yK" viewBox="0 0 45 45"><g style="fill:#fdd835;stroke:#000;stroke-width:1.5;stroke-linejoin:round"><path d="M 22.5,11.63 L 22.5,6" style="fill:none;stroke-linejoin:miter"/><path d="M 20,8 L 25,8" style="fill:none;stroke-linejoin:miter"/><path d="M 22.5,25 C 22.5,25 27,17.5 25.5,14.5 C 25.5,14.5 24.5,12 22.5,12 C 20.5,12 19.5,14.5 19.5,14.5 C 18,17.5 22.5,25 22.5,25"/><path d="M 12.5,37 C 18,40.5 27,40.5 32.5,37 L 32.5,30 C 32.5,30 41.5,25.5 38.5,19.5 C 34.5,13 25,16 22.5,23.5 L 22.5,27 L 22.5,23.5 C 20,16 10.5,13 6.5,19.5 C 3.5,25.5 12.5,30 12.5,30 L 12.5,37"/><path d="M 12.5,30 C 18,27 27,27 32.5,30"/><path d="M 12.5,33.5 C 18,30.5 27,30.5 32.5,33.5"/><path d="M 12.5,37 C 18,34 27,34 32.5,37"/></g></symbol>
<symbol id="piece-mce-chess-yP" viewBox="0 0 45 45"><path d="M 22,9 C 19.79,9 18,10.79 18,13 C 18,13.89 18.29,14.71 18.78,15.38 C 16.83,16.5 15.5,18.59 15.5,21 C 15.5,23.03 16.44,24.84 17.91,26.03 C 14.91,27.09 10.5,31.58 10.5,39.5 L 33.5,39.5 C 33.5,31.58 29.09,27.09 26.09,26.03 C 27.56,24.84 28.5,23.03 28.5,21 C 28.5,18.59 27.17,16.5 25.22,15.38 C 25.71,14.71 26,13.89 26,13 C 26,10.79 24.21,9 22,9 z" style="fill:#fdd835;stroke:#000;stroke-width:1.5;stroke-linecap:round"/></symbol>
<symbol id="piece-mce-chess-bR" viewBox="0 0 45 45"><g style="fill:#1565c0;stroke:#000;stroke-width:1.5;stroke-linecap:round;stroke-linejoin:round"><path d="M 9,39 L 36,39 L 36,36 L 9,36 L 9,39 z"/><path d="M 12,36 L 12,32 L 33,32 L 33,36 L 12,36 z"/><path d="M 11,14 L 11,9 L 15,9 L 15,11 L 20,11 L 20,9 L 25,9 L 25,11 L 30,11 L 30,9 L 34,9 L 34,14"/><path d="M 34,14 L 31,17 L 14,17 L 11,14"/><path d="M 31,17 L 31,29.5 L 14,29.5 L 14,17"/><path d="M 31,29.5 L 32.5,32 L 12.5,32 L 14,29.5"/><path d="M 11,14 L 34,14" style="fill:none"/></g></symbol>
<symbol id="piece-mce-chess-bP" viewBox="0 0 45 45"><path d="M 22,9 C 19.79,9 18,10.79 18,13 C 18,13.89 18.29,14.71 18.78,15.38 C 16.83,16.5 15.5,18.59 15.5,21 C 15.5,23.03 16.44,24.84 17.91,26.03 C 14.91,27.09 10.5,31.58 10.5,39.5 L 33.5,39.5 C 33.5,31.58 29.09,27.09 26.09,26.03 C 27.56,24.84 28.5,23.03 28.5,21 C 28.5,18.59 27.17,16.5 25.22,15.38 C 25.71,14.71 26,13.89 26,13 C 26,10.79 24.21,9 22,9 z" style="fill:#1565c0;stroke:#000;stroke-width:1.5;stroke-linecap:round"/></symbol>
<symbol id="piece-mce-chess-gP" viewBox="0 0 45 45"><path d="M 22,9 C 19.79,9 18,10.79 18,13 C 18,13.89 18.29,14.71 18.78,15.38 C 16.83,16.5 15.5,18.59 15.5,21 C 15.5,23.03 16.44,24.84 17.91,26.03 C 14.91,27.09 10.5,31.58 10.5,39.5 L 33.5,39.5 C 33.5,31.58 29.09,27.09 26.09,26.03 C 27.56,24.84 28.5,23.03 28.5,21 C 28.5,18.59 27.17,16.5 25.22,15.38 C 25.71,14.71 26,13.89 26,13 C 26,10.79 24.21,9 22,9 z" style="fill:#2e7d32;stroke:#000;stroke-width:1.5;stroke-linecap:round"/></symbol>
<symbol id="piece-mce-chess-gR" viewBox="0 0 45 45"><g style="fill:#2e7d32;stroke:#000;stroke-width:1.5;stroke-linecap:round;stroke-linejoin:round"><path d="M 9,39 L 36,39 L 36,36 L 9,36 L 9,39 z"/><path d="M 12,36 L 12,32 L 33,32 L 33,36 L 12,36 z"/><path d="M 11,14 L 11,9 L 15,9 L 15,11 L 20,11 L 20,9 L 25,9 L 25,11 L 30,11 L 30,9 L 34,9 L 34,14"/><path d="M 34,14 L 31,17 L 14,17 L 11,14"/><path d="M 31,17 L 31,29.5 L 14,29.5 L 14,17"/><path d="M 31,29.5 L 32.5,32 L 12.5,32 L 14,29.5"/><path d="M 11,14 L 34,14" style="fill:none"/></g></symbol>
<symbol id="piece-mce-chess-bN" viewBox="0 0 45 45"><g style="fill:none;stroke:#000;stroke-width:1.5;stroke-linecap:round;stroke-linejoin:round"><path d="M 22,10 C 32.5,11 38.5,18 38,39 L 15,39 C 15,30 25,32.5 23,18" style="fill:#1565c0"/><path d="M 24,18 C 24.38,20.91 18.45,25.37 16,27 C 13,29 13.18,31.34 11,31 C 9.958,30.06 12.41,27.96 11,28 C 10,28 11.19,29.23 10,30 C 9,30 5.997,31 6,26 C 6,24 12,14 12,14 C 12,14 13.89,12.1 14,10.5 C 13.27,9.506 13.5,8.5 13.5,7.5 C 14.5,6.5 16.5,10 16.5,10 L 18.5,10 C 18.5,10 19.28,8.008 21,7 C 22,7 22,10 22,10" style="fill:#1565c0"/><path d="M 9.5,25.5 A 0.5,0.5 0 1 1 8.5,25.5 A 0.5,0.5 0 1 1 9.5,25.5 z" style="fill:#000"/><path d="M 15,15.5 A 0.5,1.5 0 1 1 14,15.5 A 0.5,1.5 0 1 1 15,15.5 z" transform="matrix(0.866,0.5,-0.5,0.866,9.693,-5.173)" style="fill:#000"/></g></symbol>
<symbol id="piece-mce-chess-gN" viewBox="0 0 45 45"><g style="fill:none;stroke:#000;stroke-width:1.5;stroke-linecap:round;stroke-linejoin:round"><path d="M 22,10 C 32.5,11 38.5,18 38,39 L 15,39 C 15,30 25,32.5 23,18" style="fill:#2e7d32"/><path d="M 24,18 C 24.38,20.91 18.45,25.37 16,27 C 13,29 13.18,31.34 11,31 C 9.958,30.06 12.41,27.96 11,28 C 10,28 11.19,29.23 10,30 C 9,30 5.997,31 6,26 C 6,24 12,14 12,14 C 12,14 13.89,12.1 14,10.5 C 13.27,9.506 13.5,8.5 13.5,7.5 C 14.5,6.5 16.5,10 16.5,10 L 18.5,10 C 18.5,10 19.28,8.008 21,7 C 22,7 22,10 22,10" style="fill:#2e7d32"/><path d="M 9.5,25.5 A 0.5,0.5 0 1 1 8.5,25.5 A 0.5,0.5 0 1 1 9.5,25.5 z" style="fill:#000"/><path d="M 15,15.5 A 0.5,1.5 0 1 1 14,15.5 A 0.5,1.5 0 1 1 15,15.5 z" transform="matrix(0.866,0.5,-0.5,0.866,9.693,-5.173)" style="fill:#000"/></g></symbol>
<symbol id="piece-mce-chess-bQ" viewBox="0 0 45 45"><g style="fill:#1565c0;stroke:#000;stroke-width:1.5;stroke-linejoin:round"><path d="M 9,26 C 17.5,24.5 30,24.5 36,26 L 38.5,13.5 L 31,25 L 30.7,10.9 L 25.5,24.5 L 22.5,10 L 19.5,24.5 L 14.3,10.9 L 14,25 L 6.5,13.5 L 9,26 z"/><path d="M 9,26 C 9,28 10.5,28 11.5,30 C 12.5,31.5 12.5,31 12,33.5 C 10.5,34.5 11,36 11,36 C 9.5,37.5 11.5,38.5 11.5,38.5 C 17.5,39.5 27.5,39.5 33.5,38.5 C 33.5,38.5 35.5,37.5 34,36 C 34,36 34.5,34.5 33,33.5 C 32.5,31 32.5,31.5 33.5,30 C 34.5,28 36,28 36,26 C 27.5,24.5 17.5,24.5 9,26 z"/><path d="M 11.5,30 C 15,29 30,29 33.5,30" style="fill:none"/><path d="M 12,33.5 C 15,32.5 30,32.5 33,33.5" style="fill:none"/><circle cx="6" cy="12" r="2"/><circle cx="14" cy="9" r="2"/><circle cx="22.5" cy="8" r="2"/><circle cx="31" cy="9" r="2"/><circle cx="39" cy="12" r="2"/></g></symbol>
<symbol id="piece-mce-chess-gK" viewBox="0 0 45 45"><g style="fill:#2e7d32;stroke:#000;stroke-width:1.5;stroke-linejoin:round"><path d="M 22.5,11.63 L 22.5,6" style="fill:none;stroke-linejoin:miter"/><path d="M 20,8 L 25,8" style="fill:none;stroke-linejoin:miter"/><path d="M 22.5,25 C 22.5,25 27,17.5 25.5,14.5 C 25.5,14.5 24.5,12 22.5,12 C 20.5,12 19.5,14.5 19.5,14.5 C 18,17.5 22.5,25 22.5,25"/><path d="M 12.5,37 C 18,40.5 27,40.5 32.5,37 L 32.5,30 C 32.5,30 41.5,25.5 38.5,19.5 C 34.5,13 25,16 22.5,23.5 L 22.5,27 L 22.5,23.5 C 20,16 10.5,13 6.5,19.5 C 3.5,25.5 12.5,30 12.5,30 L 12.5,37"/><path d="M 12.5,30 C 18,27 27,27 32.5,30"/><path d="M 12.5,33.5 C 18,30.5 27,30.5 32.5,33.5"/><path d="M 12.5,37 C 18,34 27,34 32.5,37"/></g></symbol>
<symbol id="piece-mce-chess-bK" viewBox="0 0 45 45"><g style="fill:#1565c0;stroke:#000;stroke-width:1.5;stroke-linejoin:round"><path d="M 22.5,11.63 L 22.5,6" style="fill:none;stroke-linejoin:miter"/><path d="M 20,8 L 25,8" style="fill:none;stroke-linejoin:miter"/><path d="M 22.5,25 C 22.5,25 27,17.5 25.5,14.5 C 25.5,14.5 24.5,12 22.5,12 C 20.5,12 19.5,14.5 19.5,14.5 C 18,17.5 22.5,25 22.5,25"/><path d="M 12.5,37 C 18,40.5 27,40.5 32.5,37 L 32.5,30 C 32.5,30 41.5,25.5 38.5,19.5 C 34.5,13 25,16 22.5,23.5 L 22.5,27 L 22.5,23.5 C 20,16 10.5,13 6.5,19.5 C 3.5,25.5 12.5,30 12.5,30 L 12.5,37"/><path d="M 12.5,30 C 18,27 27,27 32.5,30"/><path d="M 12.5,33.5 C 18,30.5 27,30.5 32.5,33.5"/><path d="M 12.5,37 C 18,34 27,34 32.5,37"/></g></symbol>
<symbol id="piece-mce-chess-gQ" viewBox="0 0 45 45"><g style="fill:#2e7d32;stroke:#000;stroke-width:1.5;stroke-linejoin:round"><path d="M 9,26 C 17.5,24.5 30,24.5 36,26 L 38.5,13.5 L 31,25 L 30.7,10.9 L 25.5,24.5 L 22.5,10 L 19.5,24.5 L 14.3,10.9 L 14,25 L 6.5,13.5 L 9,26 z"/><path d="M 9,26 C 9,28 10.5,28 11.5,30 C 12.5,31.5 12.5,31 12,33.5 C 10.5,34.5 11,36 11,36 C 9.5,37.5 11.5,38.5 11.5,38.5 C 17.5,39.5 27.5,39.5 33.5,38.5 C 33.5,38.5 35.5,37.5 34,36 C 34,36 34.5,34.5 33,33.5 C 32.5,31 32.5,31.5 33.5,30 C 34.5,28 36,28 36,26 C 27.5,24.5 17.5,24.5 9,26 z"/><path d="M 11.5,30 C 15,29 30,29 33.5,30" style="fill:none"/><path d="M 12,33.5 C 15,32.5 30,32.5 33,33.5" style="fill:none"/><circle cx="6" cy="12" r="2"/><circle cx="14" cy="9" r="2"/><circle cx="22.5" cy="8" r="2"/><circle cx="31" cy="9" r="2"/><circle cx="39" cy="12" r="2"/></g></symbol>
<symbol id="piece-mce-chess-rP" viewBox="0 0 45 45"><path d="M 22,9 C 19.79,9 18,10.79 18,13 C 18,13.89 18.29,14.71 18.78,15.38 C 16.83,16.5 15.5,18.59 15.5,21 C 15.5,23.03 16.44,24.84 17.91,26.03 C 14.91,27.09 10.5,31.58 10.5,39.5 L 33.5,39.5 C 33.5,31.58 29.09,27.09 26.09,26.03 C 27.56,24.84 28.5,23.03 28.5,21 C 28.5,18.59 27.17,16.5 25.22,15.38 C 25.71,14.71 26,13.89 26,13 C 26,10.79 24.21,9 22,9 z" style="fill:#d32f2f;stroke:#000;stroke-width:1.5;stroke-linecap:round"/></symbol>
<symbol id="piece-mce-chess-rR" viewBox="0 0 45 45"><g style="fill:#d32f2f;stroke:#000;stroke-width:1.5;stroke-linecap:round;stroke-linejoin:round"><path d="M 9,39 L 36,39 L 36,36 L 9,36 L 9,39 z"/><path d="M 12,36 L 12,32 L 33,32 L 33,36 L 12,36 z"/><path d="M 11,14 L 11,9 L 15,9 L 15,11 L 20,11 L 20,9 L 25,9 L 25,11 L 30,11 L 30,9 L 34,9 L 34,14"/><path d="M 34,14 L 31,17 L 14,17 L 11,14"/><path d="M 31,17 L 31,29.5 L 14,29.5 L 14,17"/><path d="M 31,29.5 L 32.5,32 L 12.5,32 L 14,29.5"/><path d="M 11,14 L 34,14" style="fill:none"/></g></symbol>
<symbol id="piece-mce-chess-rN" viewBox="0 0 45 45"><g style="fill:none;stroke:#000;stroke-width:1.5;stroke-linecap:round;stroke-linejoin:round"><path d="M 22,10 C 32.5,11 38.5,18 38,39 L 15,39 C 15,30 25,32.5 23,18" style="fill:#d32f2f"/><path d="M 24,18 C 24.38,20.91 18.45,25.37 16,27 C 13,29 13.18,31.34 11,31 C 9.958,30.06 12.41,27.96 11,28 C 10,28 11.19,29.23 10,30 C 9,30 5.997,31 6,26 C 6,24 12,14 12,14 C 12,14 13.89,12.1 14,10.5 C 13.27,9.506 13.5,8.5 13.5,7.5 C 14.5,6.5 16.5,10 16.5,10 L 18.5,10 C 18.5,10 19.28,8.008 21,7 C 22,7 22,10 22,10" style="fill:#d32f2f"/><path d="M 9.5,25.5 A 0.5,0.5 0 1 1 8.5,25.5 A 0.5,0.5 0 1 1 9.5,25.5 z" style="fill:#000"/><path d="M 15,15.5 A 0.5,1.5 0 1 1 14,15.5 A 0.5,1.5 0 1 1 15,15.5 z" transform="matrix(0.866,0.5,-0.5,0.866,9.693,-5.173)" style="fill:#000"/></g></symbol>
<symbol id="piece-mce-chess-rQ" viewBox="0 0 45 45"><g style="fill:#d32f2f;stroke:#000;stroke-width:1.5;stroke-linejoin:round"><path d="M 9,26 C 17.5,24.5 30,24.5 36,26 L 38.5,13.5 L 31,25 L 30.7,10.9 L 25.5,24.5 L 22.5,10 L 19.5,24.5 L 14.3,10.9 L 14,25 L 6.5,13.5 L 9,26 z"/><path d="M 9,26 C 9,28 10.5,28 11.5,30 C 12.5,31.5 12.5,31 12,33.5 C 10.5,34.5 11,36 11,36 C 9.5,37.5 11.5,38.5 11.5,38.5 C 17.5,39.5 27.5,39.5 33.5,38.5 C 33.5,38.5 35.5,37.5 34,36 C 34,36 34.5,34.5 33,33.5 C 32.5,31 32.5,31.5 33.5,30 C 34.5,28 36,28 36,26 C 27.5,24.5 17.5,24.5 9,26 z"/><path d="M 11.5,30 C 15,29 30,29 33.5,30" style="fill:none"/><path d="M 12,33.5 C 15,32.5 30,32.5 33,33.5" style="fill:none"/><circle cx="6" cy="12" r="2"/><circle cx="14" cy="9" r="2"/><circle cx="22.5" cy="8" r="2"/><circle cx="31" cy="9" r="2"/><circle cx="39" cy="12" r="2"/></g></symbol>
<symbol id="piece-mce-chess-rK" viewBox="0 0 45 45"><g style="fill:#d32f2f;stroke:#000;stroke-width:1.5;stroke-linejoin:round"><path d="M 22.5,11.63 L 22.5,6" style="fill:none;stroke-linejoin:miter"/><path d="M 20,8 L 25,8" style="fill:none;stroke-linejoin:miter"/><path d="M 22.5,25 C 22.5,25 27,17.5 25.5,14.5 C 25.5,14.5 24.5,12 22.5,12 C 20.5,12 19.5,14.5 19.5,14.5 C 18,17.5 22.5,25 22.5,25"/><path d="M 12.5,37 C 18,40.5 27,40.5 32.5,37 L 32.5,30 C 32.5,30 41.5,25.5 38.5,19.5 C 34.5,13 25,16 22.5,23.5 L 22.5,27 L 22.5,23.5 C 20,16 10.5,13 6.5,19.5 C 3.5,25.5 12.5,30 12.5,30 L 12.5,37"/><path d="M 12.5,30 C 18,27 27,27 32.5,30"/><path d="M 12.5,33.5 C 18,30.5 27,30.5 32.5,33.5"/><path d="M 12.5,37 C 18,34 27,34 32.5,37"/></g></symbol>
</defs>

<rect x="24" y="24" width="300" height="300" fill="transparent"/><rect x="84" y="24" width="30" height="30" fill="#f0d9b5" stroke="rgba(0,0,0,0.15)" stroke-width="1" data-sq="c10" data-type="true" class="board-cell"/><rect x="114" y="24" width="30" height="30" fill="#b58863" stroke="rgba(0,0,0,0.15)" stroke-width="1" data-sq="d10" data-type="true" class="board-cell"/><rect x="144" y="24" width="30" height="30" fill="#f0d9b5" stroke="rgba(0,0,0,0.15)" stroke-width="1" data-sq="e10" data-type="true" class="board-cell"/><rect x="174" y="24" width="30" height="30" fill="#b58863" stroke="rgba(0,0,0,0.15)" stroke-width="1" data-sq="f10" data-type="true" class="board-cell"/><rect x="204" y="24" width="30" height="30" fill="#f0d9b5" stroke="rgba(0,0,0,0.15)" stroke-width="1" data-sq="g10" data-type="true" class="board-cell"/><rect x="234" y="24" width="30" height="30" fill="#b58863" stroke="rgba(0,0,0,0.15)" stroke-width="1" data-sq="h10" data-type="true" class="board-cell"/><rect x="84" y="54" width="30" height="30" fill="#b58863" stroke="rgba(0,0,0,0.15)" stroke-width="1" data-sq="c9" data-type="true" class="board-cell"/><rect x="114" y="54" width="30" height="30" fill="#f0d9b5" stroke="rgba(0,0,0,0.15)" stroke-width="1" data-sq="d9" data-type="true" class="board-cell"/><rect x="144" y="54" width="30" height="30" fill="#b58863" stroke="rgba(0,0,0,0.15)" stroke-width="1" data-sq="e9" data-type="true" class="board-cell"/><rect x="174" y="54" width="30" height="30" fill="#f0d9b5" stroke="rgba(0,0,0,0.15)" stroke-width="1" data-sq="f9" data-type="true" class="board-cell"/><rect x="204" y="54" width="30" height="30" fill="#b58863" stroke="rgba(0,0,0,0.15)" stroke-width="1" data-sq="g9" data-type="true" class="board-cell"/><rect x="234" y="54" width="30" height="30" fill="#f0d9b5" stroke="rgba(0,0,0,0.15)" stroke-width="1" data-sq="h9" data-type="true" class="board-cell"/><rect x="24" y="84" width="30" height="30" fill="#f0d9b5" stroke="rgba(0,0,0,0.15)" stroke-width="1" data-sq="a8" data-type="true" class="board-cell"/><rect x="54" y="84" width="30" height="30" fill="#b58863" stroke="rgba(0,0,0,0.15)" stroke-width="1" data-sq="b8" data-type="true" class="board-cell"/><rect x="84" y="84" width="30" height="30" fill="#f0d9b5" stroke="rgba(0,0,0,0.15)" stroke-width="1" data-sq="c8" data-type="true" class="board-cell"/><rect x="114" y="84" width="30" height="30" fill="#b58863" stroke="rgba(0,0,0,0.15)" stroke-width="1" data-sq="d8" data-type="true" class="board-cell"/><rect x="144" y="84" width="30" height="30" fill="#f0d9b5" stroke="rgba(0,0,0,0.15)" stroke-width="1" data-sq="e8" data-type="true" class="board-cell"/><rect x="174" y="84" width="30" height="30" fill="#b58863" stroke="rgba(0,0,0,0.15)" stroke-width="1" data-sq="f8" data-type="true" class="board-cell"/><rect x="204" y="84" width="30" height="30" fill="#f0d9b5" stroke="rgba(0,0,0,0.15)" stroke-width="1" data-sq="g8" data-type="true" class="board-cell"/><rect x="234" y="84" width="30" height="30" fill="#b58863" stroke="rgba(0,0,0,0.15)" stroke-width="1" data-sq="h8" data-type="true" class="board-cell"/><rect x="264" y="84" width="30" height="30" fill="#f0d9b5" stroke="rgba(0,0,0,0.15)" stroke-width="1" data-sq="i8" data-type="true" class="board-cell"/><rect x="294" y="84" width="30" height="30" fill="#b58863" stroke="rgba(0,0,0,0.15)" stroke-width="1" data-sq="j8" data-type="true" class="board-cell"/><rect x="24" y="114" width="30" height="30" fill="#b58863" stroke="rgba(0,0,0,0.15)" stroke-width="1" data-sq="a7" data-type="true" class="board-cell"/><rect x="54" y="114" width="30" height="30" fill="#f0d9b5" stroke="rgba(0,0,0,0.15)" stroke-width="1" data-sq="b7" data-type="true" class="board-cell"/><rect x="84" y="114" width="30" height="30" fill="#b58863" stroke="rgba(0,0,0,0.15)" stroke-width="1" data-sq="c7" data-type="true" class="board-cell"/><rect x="114" y="114" width="30" height="30" fill="#f0d9b5" stroke="rgba(0,0,0,0.15)" stroke-width="1" data-sq="d7" data-type="true" class="board-cell"/><rect x="144" y="114" width="30" height="30" fill="#b58863" stroke="rgba(0,0,0,0.15)" stroke-width="1" data-sq="e7" data-type="true" class="board-cell"/><rect x="174" y="114" width="30" height="30" fill="#f0d9b5" stroke="rgba(0,0,0,0.15)" stroke-width="1" data-sq="f7" data-type="true" class="board-cell"/><rect x="204" y="114" width="30" height="30" fill="#b58863" stroke="rgba(0,0,0,0.15)" stroke-width="1" data-sq="g7" data-type="true" class="board-cell"/><rect x="234" y="114" width="30" height="30" fill="#f0d9b5" stroke="rgba(0,0,0,0.15)" stroke-width="1" data-sq="h7" data-type="true" class="board-cell"/><rect x="264" y="114" width="30" height="30" fill="#b58863" stroke="rgba(0,0,0,0.15)" stroke-width="1" data-sq="i7" data-type="true" class="board-cell"/><rect x="294" y="114" width="30" height="30" fill="#f0d9b5" stroke="rgba(0,0,0,0.15)" stroke-width="1" data-sq="j7" data-type="true" class="board-cell"/><rect x="24" y="144" width="30" height="30" fill="#f0d9b5" stroke="rgba(0,0,0,0.15)" stroke-width="1" data-sq="a6" data-type="true" class="board-cell"/><rect x="54" y="144" width="30" height="30" fill="#b58863" stroke="rgba(0,0,0,0.15)" stroke-width="1" data-sq="b6" data-type="true" class="board-cell"/><rect x="84" y="144" width="30" height="30" fill="#f0d9b5" stroke="rgba(0,0,0,0.15)" stroke-width="1" data-sq="c6" data-type="true" class="board-cell"/><rect x="114" y="144" width="30" height="30" fill="#b58863" stroke="rgba(0,0,0,0.15)" stroke-width="1" data-sq="d6" data-type="true" class="board-cell"/><rect x="144" y="144" width="30" height="30" fill="#f0d9b5" stroke="rgba(0,0,0,0.15)" stroke-width="1" data-sq="e6" data-type="true" class="board-cell"/><rect x="174" y="144" width="30" height="30" fill="#b58863" stroke="rgba(0,0,0,0.15)" stroke-width="1" data-sq="f6" data-type="true" class="board-cell"/><rect x="204" y="144" width="30" height="30" fill="#f0d9b5" stroke="rgba(0,0,0,0.15)" stroke-width="1" data-sq="g6" data-type="true" class="board-cell"/><rect x="234" y="144" width="30" height="30" fill="#b58863" stroke="rgba(0,0,0,0.15)" stroke-width="1" data-sq="h6" data-type="true" class="board-cell"/><rect x="264" y="144" width="30" height="30" fill="#f0d9b5" stroke="rgba(0,0,0,0.15)" stroke-width="1" data-sq="i6" data-type="true" class="board-cell"/><rect x="294" y="144" width="30" height="30" fill="#b58863" stroke="rgba(0,0,0,0.15)" stroke-width="1" data-sq="j6" data-type="true" class="board-cell"/><rect x="24" y="174" width="30" height="30" fill="#b58863" stroke="rgba(0,0,0,0.15)" stroke-width="1" data-sq="a5" data-type="true" class="board-cell"/><rect x="54" y="174" width="30" height="30" fill="#f0d9b5" stroke="rgba(0,0,0,0.15)" stroke-width="1" data-sq="b5" data-type="true" class="board-cell"/><rect x="84" y="174" width="30" height="30" fill="#b58863" stroke="rgba(0,0,0,0.15)" stroke-width="1" data-sq="c5" data-type="true" class="board-cell"/><rect x="114" y="174" width="30" height="30" fill="#f0d9b5" stroke="rgba(0,0,0,0.15)" stroke-width="1" data-sq="d5" data-type="true" class="board-cell"/><rect x="144" y="174" width="30" height="30" fill="#b58863" stroke="rgba(0,0,0,0.15)" stroke-width="1" data-sq="e5" data-type="true" class="board-cell"/><rect x="174" y="174" width="30" height="30" fill="#f0d9b5" stroke="rgba(0,0,0,0.15)" stroke-width="1" data-sq="f5" data-type="true" class="board-cell"/><rect x="204" y="174" width="30" height="30" fill="#b58863" stroke="rgba(0,0,0,0.15)" stroke-width="1" data-sq="g5" data-type="true" class="board-cell"/><rect x="234" y="174" width="30" height="30" fill="#f0d9b5" stroke="rgba(0,0,0,0.15)" stroke-width="1" data-sq="h5" data-type="true" class="board-cell"/><rect x="264" y="174" width="30" height="30" fill="#b58863" stroke="rgba(0,0,0,0.15)" stroke-width="1" data-sq="i5" data-type="true" class="board-cell"/><rect x="294" y="174" width="30" height="30" fill="#f0d9b5" stroke="rgba(0,0,0,0.15)" stroke-width="1" data-sq="j5" data-type="true" class="board-cell"/><rect x="24" y="204" width="30" height="30" fill="#f0d9b5" stroke="rgba(0,0,0,0.15)" stroke-width="1" data-sq="a4" data-type="true" class="board-cell"/><rect x="54" y="204" width="30" height="30" fill="#b58863" stroke="rgba(0,0,0,0.15)" stroke-width="1" data-sq="b4" data-type="true" class="board-cell"/><rect x="84" y="204" width="30" height="30" fill="#f0d9b5" stroke="rgba(0,0,0,0.15)" stroke-width="1" data-sq="c4" data-type="true" class="board-cell"/><rect x="114" y="204" width="30" height="30" fill="#b58863" stroke="rgba(0,0,0,0.15)" stroke-width="1" data-sq="d4" data-type="true" class="board-cell"/><rect x="144" y="204" width="30" height="30" fill="#f0d9b5" stroke="rgba(0,0,0,0.15)" stroke-width="1" data-sq="e4" data-type="true" class="board-cell"/><rect x="174" y="204" width="30" height="30" fill="#b58863" stroke="rgba(0,0,0,0.15)" stroke-width="1" data-sq="f4" data-type="true" class="board-cell"/><rect x="204" y="204" width="30" height="30" fill="#f0d9b5" stroke="rgba(0,0,0,0.15)" stroke-width="1" data-sq="g4" data-type="true" class="board-cell"/><rect x="234" y="204" width="30" height="30" fill="#b58863" stroke="rgba(0,0,0,0.15)" stroke-width="1" data-sq="h4" data-type="true" class="board-cell"/><rect x="264" y="204" width="30" height="30" fill="#f0d9b5" stroke="rgba(0,0,0,0.15)" stroke-width="1" data-sq="i4" data-type="true" class="board-cell"/><rect x="294" y="204" width="30" height="30" fill="#b58863" stroke="rgba(0,0,0,0.15)" stroke-width="1" data-sq="j4" data-type="true" class="board-cell"/><rect x="24" y="234" width="30" height="30" fill="#b58863" stroke="rgba(0,0,0,0.15)" stroke-width="1" data-sq="a3" data-type="true" class="board-cell"/><rect x="54" y="234" width="30" height="30" fill="#f0d9b5" stroke="rgba(0,0,0,0.15)" stroke-width="1" data-sq="b3" data-type="true" class="board-cell"/><rect x="84" y="234" width="30" height="30" fill="#b58863" stroke="rgba(0,0,0,0.15)" stroke-width="1" data-sq="c3" data-type="true" class="board-cell"/><rect x="114" y="234" width="30" height="30" fill="#f0d9b5" stroke="rgba(0,0,0,0.15)" stroke-width="1" data-sq="d3" data-type="true" class="board-cell"/><rect x="144" y="234" width="30" height="30" fill="#b58863" stroke="rgba(0,0,0,0.15)" stroke-width="1" data-sq="e3" data-type="true" class="board-cell"/><rect x="174" y="234" width="30" height="30" fill="#f0d9b5" stroke="rgba(0,0,0,0.15)" stroke-width="1" data-sq="f3" data-type="true" class="board-cell"/><rect x="204" y="234" width="30" height="30" fill="#b58863" stroke="rgba(0,0,0,0.15)" stroke-width="1" data-sq="g3" data-type="true" class="board-cell"/><rect x="234" y="234" width="30" height="30" fill="#f0d9b5" stroke="rgba(0,0,0,0.15)" stroke-width="1" data-sq="h3" data-type="true" class="board-cell"/><rect x="264" y="234" width="30" height="30" fill="#b58863" stroke="rgba(0,0,0,0.15)" stroke-width="1" data-sq="i3" data-type="true" class="board-cell"/><rect x="294" y="234" width="30" height="30" fill="#f0d9b5" stroke="rgba(0,0,0,0.15)" stroke-width="1" data-sq="j3" data-type="true" class="board-cell"/><rect x="84" y="264" width="30" height="30" fill="#f0d9b5" stroke="rgba(0,0,0,0.15)" stroke-width="1" data-sq="c2" data-type="true" class="board-cell"/><rect x="114" y="264" width="30" height="30" fill="#b58863" stroke="rgba(0,0,0,0.15)" stroke-width="1" data-sq="d2" data-type="true" class="board-cell"/><rect x="144" y="264" width="30" height="30" fill="#f0d9b5" stroke="rgba(0,0,0,0.15)" stroke-width="1" data-sq="e2" data-type="true" class="board-cell"/><rect x="174" y="264" width="30" height="30" fill="#b58863" stroke="rgba(0,0,0,0.15)" stroke-width="1" data-sq="f2" data-type="true" class="board-cell"/><rect x="204" y="264" width="30" height="30" fill="#f0d9b5" stroke="rgba(0,0,0,0.15)" stroke-width="1" data-sq="g2" data-type="true" class="board-cell"/><rect x="234" y="264" width="30" height="30" fill="#b58863" stroke="rgba(0,0,0,0.15)" stroke-width="1" data-sq="h2" data-type="true" class="board-cell"/><rect x="84" y="294" width="30" height="30" fill="#b58863" stroke="rgba(0,0,0,0.15)" stroke-width="1" data-sq="c1" data-type="true" class="board-cell"/><rect x="114" y="294" width="30" height="30" fill="#f0d9b5" stroke="rgba(0,0,0,0.15)" stroke-width="1" data-sq="d1" data-type="true" class="board-cell"/><rect x="144" y="294" width="30" height="30" fill="#b58863" stroke="rgba(0,0,0,0.15)" stroke-width="1" data-sq="e1" data-type="true" class="board-cell"/><rect x="174" y="294" width="30" height="30" fill="#f0d9b5" stroke="rgba(0,0,0,0.15)" stroke-width="1" data-sq="f1" data-type="true" class="board-cell"/><rect x="204" y="294" width="30" height="30" fill="#b58863" stroke="rgba(0,0,0,0.15)" stroke-width="1" data-sq="g1" data-type="true" class="board-cell"/><rect x="234" y="294" width="30" height="30" fill="#f0d9b5" stroke="rgba(0,0,0,0.15)" stroke-width="1" data-sq="h1" data-type="true" class="board-cell"/>
<g pointer-events="none"><use href="#piece-mce-chess-yR" x="84" y="24" width="30" height="30"/><use href="#piece-mce-chess-yN" x="114" y="24" width="30" height="30"/><use href="#piece-mce-chess-yQ" x="144" y="24" width="30" height="30"/><use href="#piece-mce-chess-yK" x="174" y="24" width="30" height="30"/><use href="#piece-mce-chess-yN" x="204" y="24" width="30" height="30"/><use href="#piece-mce-chess-yR" x="234" y="24" width="30" height="30"/><use href="#piece-mce-chess-yP" x="84" y="54" width="30" height="30"/><use href="#piece-mce-chess-yP" x="114" y="54" width="30" height="30"/><use href="#piece-mce-chess-yP" x="144" y="54" width="30" height="30"/><use href="#piece-mce-chess-yP" x="174" y="54" width="30" height="30"/><use href="#piece-mce-chess-yP" x="204" y="54" width="30" height="30"/><use href="#piece-mce-chess-yP" x="234" y="54" width="30" height="30"/><use href="#piece-mce-chess-bR" x="24" y="84" width="30" height="30"/><use href="#piece-mce-chess-bP" x="54" y="84" width="30" height="30"/><use href="#piece-mce-chess-gP" x="264" y="84" width="30" height="30"/><use href="#piece-mce-chess-gR" x="294" y="84" width="30" height="30"/><use href="#piece-mce-chess-bN" x="24" y="114" width="30" height="30"/><use href="#piece-mce-chess-bP" x="54" y="114" width="30" height="30"/><use href="#piece-mce-chess-gP" x="264" y="114" width="30" height="30"/><use href="#piece-mce-chess-gN" x="294" y="114" width="30" height="30"/><use href="#piece-mce-chess-bQ" x="24" y="144" width="30" height="30"/><use href="#piece-mce-chess-bP" x="54" y="144" width="30" height="30"/><use href="#piece-mce-chess-gP" x="264" y="144" width="30" height="30"/><use href="#piece-mce-chess-gK" x="294" y="144" width="30" height="30"/><use href="#piece-mce-chess-bK" x="24" y="174" width="30" height="30"/><use href="#piece-mce-chess-bP" x="54" y="174" width="30" height="30"/><use href="#piece-mce-chess-gP" x="264" y="174" width="30" height="30"/><use href="#piece-mce-chess-gQ" x="294" y="174" width="30" height="30"/><use href="#piece-mce-chess-bN" x="24" y="204" width="30" height="30"/><use href="#piece-mce-chess-bP" x="54" y="204" width="30" height="30"/><use href="#piece-mce-chess-gP" x="264" y="204" width="30" height="30"/><use href="#piece-mce-chess-gN" x="294" y="204" width="30" height="30"/><use href="#piece-mce-chess-bR" x="24" y="234" width="30" height="30"/><use href="#piece-mce-chess-bP" x="54" y="234" width="30" height="30"/><use href="#piece-mce-chess-gP" x="264" y="234" width="30" height="30"/><use href="#piece-mce-chess-gR" x="294" y="234" width="30" height="30"/><use href="#piece-mce-chess-rP" x="84" y="264" width="30" height="30"/><use href="#piece-mce-chess-rP" x="114" y="264" width="30" height="30"/><use href="#piece-mce-chess-rP" x="144" y="264" width="30" height="30"/><use href="#piece-mce-chess-rP" x="174" y="264" width="30" height="30"/><use href="#piece-mce-chess-rP" x="204" y="264" width="30" height="30"/><use href="#piece-mce-chess-rP" x="234" y="264" width="30" height="30"/><use href="#piece-mce-chess-rR" x="84" y="294" width="30" height="30"/><use href="#piece-mce-chess-rN" x="114" y="294" width="30" height="30"/><use href="#piece-mce-chess-rQ" x="144" y="294" width="30" height="30"/><use href="#piece-mce-chess-rK" x="174" y="294" width="30" height="30"/><use href="#piece-mce-chess-rN" x="204" y="294" width="30" height="30"/><use href="#piece-mce-chess-rR" x="234" y="294" width="30" height="30"/></g>
<text x="39" y="339.6" text-anchor="middle" font-size="13" fill="#5c3a1e" font-family="monospace">a</text><text x="69" y="339.6" text-anchor="middle" font-size="13" fill="#5c3a1e" font-family="monospace">b</text><text x="99" y="339.6" text-anchor="middle" font-size="13" fill="#5c3a1e" font-family="monospace">c</text><text x="129" y="339.6" text-anchor="middle" font-size="13" fill="#5c3a1e" font-family="monospace">d</text><text x="159" y="339.6" text-anchor="middle" font-size="13" fill="#5c3a1e" font-family="monospace">e</text><text x="189" y="339.6" text-anchor="middle" font-size="13" fill="#5c3a1e" font-family="monospace">f</text><text x="219" y="339.6" text-anchor="middle" font-size="13" fill="#5c3a1e" font-family="monospace">g</text><text x="249" y="339.6" text-anchor="middle" font-size="13" fill="#5c3a1e" font-family="monospace">h</text><text x="279" y="339.6" text-anchor="middle" font-size="13" fill="#5c3a1e" font-family="monospace">i</text><text x="309" y="339.6" text-anchor="middle" font-size="13" fill="#5c3a1e" font-family="monospace">j</text><text x="12" y="43.55" text-anchor="middle" font-size="13" fill="#5c3a1e" font-family="monospace">10</text><text x="12" y="73.55" text-anchor="middle" font-size="13" fill="#5c3a1e" font-family="monospace">9</text><text x="12" y="103.55" text-anchor="middle" font-size="13" fill="#5c3a1e" font-family="monospace">8</text><text x="12" y="133.55" text-anchor="middle" font-size="13" fill="#5c3a1e" font-family="monospace">7</text><text x="12" y="163.55" text-anchor="middle" font-size="13" fill="#5c3a1e" font-family="monospace">6</text><text x="12" y="193.55" text-anchor="middle" font-size="13" fill="#5c3a1e" font-family="monospace">5</text><text x="12" y="223.55" text-anchor="middle" font-size="13" fill="#5c3a1e" font-family="monospace">4</text><text x="12" y="253.55" text-anchor="middle" font-size="13" fill="#5c3a1e" font-family="monospace">3</text><text x="12" y="283.55" text-anchor="middle" font-size="13" fill="#5c3a1e" font-family="monospace">2</text><text x="12" y="313.55" text-anchor="middle" font-size="13" fill="#5c3a1e" font-family="monospace">1</text>
</svg>