<svg xmlns="http://www.w3.org/2000/svg" viewBox="0 0 408 336" width="408" height="336">
<defs>
<symbol id="piece-mce-chess-bR" viewBox="0 0 45 45"><g style="fill:#000;stroke:#000;stroke-width:1.5;stroke-linecap:round;stroke-linejoin:round"><path d="M 9,39 L 36,39 L 36,36 L 9,36 L 9,39 z"/><path d="M 12,36 L 12,32 L 33,32 L 33,36 L 12,36 z"/><path d="M 11,14 L 11,9 L 15,9 L 15,11 L 20,11 L 20,9 L 25,9 L 25,11 L 30,11 L 30,9 L 34,9 L 34,14"/><path d="M 34,14 L 31,17 L 14,17 L 11,14"/><path d="M 31,17 L 31,29.5 L 14,29.5 L 14,17"/><path d="M 31,29.5 L 32.5,32 L 12.5,32 L 14,29.5"/><path d="M 11,14 L 34,14" style="fill:none;stroke:#fff;stroke-linejoin:miter"/><path d="M 12,35.5 L 33,35.5" style="fill:none;stroke:#fff;stroke-width:1"/><path d="M 13,31.5 L 32,31.5" style="fill:none;stroke:#fff;stroke-width:1"/><path d="M 14,29.5 L 31,29.5" style="fill:none;stroke:#fff;stroke-width:1"/></g></symbol>
<symbol id="piece-mce-chess-bN" viewBox="0 0 45 45"><g style="fill:none;stroke:#000;stroke-width:1.5;stroke-linecap:round;stroke-linejoin:round"><path d="M 22,10 C 32.5,11 38.5,18 38,39 L 15,39 C 15,30 25,32.5 23,18" style="fill:#000"/><path d="M 24,18 C 24.38,20.91 18.45,25.37 16,27 C 13,29 13.18,31.34 11,31 C 9.958,30.06 12.41,27.96 11,28 C 10,28 11.19,29.23 10,30 C 9,30 5.997,31 6,26 C 6,24 12,14 12,14 C 12,14 13.89,12.1 14,10.5 C 13.27,9.506 13.5,8.5 13.5,7.5 C 14.5,6.5 16.5,10 16.5,10 L 18.5,10 C 18.5,10 19.28,8.008 21,7 C 22,7 22,10 22,10" style="fill:#000"/><path d="M 9.5,25.5 A 0.5,0.5 0 1 1 8.5,25.5 A 0.5,0.5 0 1 1 9.5,25.5 z" style="fill:#fff"/><path d="M 15,15.5 A 0.5,1.5 0 1 1 14,15.5 A 0.5,1.5 0 1 1 15,15.5 z" transform="matrix(0.866,0.5,-0.5,0.866,9.693,-5.173)" style="fill:#fff"/><path d="M 24.55,10.4 L 24.1,11.85 L 24.6,12 C 27.75,13 30.25,14.49 32.5,18.75 C 34.75,23.01 35.75,29.06 35.25,39 L 35.2,39.5 L 37.45,39.5 L 37.5,39 C 38,28.94 36.62,22.15 34.25,17.66 C 31.88,13.17 28.46,11.02 25.06,10.5 L 24.55,10.4 z" style="fill:#fff;stroke:none"/></g></symbol>
<symbol id="piece-mce-chess-bB" viewBox="0 0 45 45"><g style="fill:none;stroke:#000;stroke-width:1.5;stroke-linecap:round;stroke-linejoin:round"><g style="fill:#000;stroke-linecap:butt"><path d="M 9,36 C 12.39,35.03 19.11,36.43 22.5,34 C 25.89,36.43 32.61,35.03 36,36 C 36,36 37.65,36.54 39,38 C 38.32,38.97 37.2,38.91 36,38.5 C 32.61,37.53 25.89,38.96 22.5,37.5 C 19.11,38.96 12.39,37.53 9,38.5 C 7.8,38.91 6.68,38.97 6,38 C 7.35,36.54 9,36 9,36 z"/><path d="M 15,32 C 17.5,34.5 27.5,34.5 30,32 C 30.5,30.5 30,30 30,30 C 30,27.5 27.5,26 27.5,26 C 33,24.5 33.5,14.5 22.5,10.5 C 11.5,14.5 12,24.5 17.5,26 C 17.5,26 15,27.5 15,30 C 15,30 14.5,30.5 15,32 z"/><path d="M 25,8 A 2.5,2.5 0 1 1 20,8 A 2.5,2.5 0 1 1 25,8 z"/></g><path d="M 17.5,26 L 27.5,26 M 15,30 L 30,30 M 22.5,15.5 L 22.5,20.5 M 20,18 L 25,18" style="fill:none;stroke:#fff;stroke-linejoin:miter"/></g></symbol>
<symbol id="piece-mce-chess-bG" viewBox="0 0 45 45"><g transform="translate(10,10) scale(0.56)"><path d="M 22,9 C 19.79,9 18,10.79 18,13 C 18,13.89 18.29,14.71 18.78,15.38 C 16.83,16.5 15.5,18.59 15.5,21 C 15.5,23.03 16.44,24.84 17.91,26.03 C 14.91,27.09 10.5,31.58 10.5,39.5 L 33.5,39.5 C 33.5,31.58 29.09,27.09 26.09,26.03 C 27.56,24.84 28.5,23.03 28.5,21 C 28.5,18.59 27.17,16.5 25.22,15.38 C 25.71,14.71 26,13.89 26,13 C 26,10.79 24.21,9 22,9 z" style="fill:#000;stroke:#000;stroke-width:1.5;stroke-linecap:round"/></g><g transform="translate(0,0) scale(0.22)"><path d="M 22,9 C 19.79,9 18,10.79 18,13 C 18,13.89 18.29,14.71 18.78,15.38 C 16.83,16.5 15.5,18.59 15.5,21 C 15.5,23.03 16.44,24.84 17.91,26.03 C 14.91,27.09 10.5,31.58 10.5,39.5 L 33.5,39.5 C 33.5,31.58 29.09,27.09 26.09,26.03 C 27.56,24.84 28.5,23.03 28.5,21 C 28.5,18.59 27.17,16.5 25.22,15.38 C 25.71,14.71 26,13.89 26,13 C 26,10.79 24.21,9 22,9 z" style="fill:#fff;stroke:none"/></g><g transform="translate(35,0) scale(0.22)"><path d="M 22,9 C 19.79,9 18,10.79 18,13 C 18,13.89 18.29,14.71 18.78,15.38 C 16.83,16.5 15.5,18.59 15.5,21 C 15.5,23.03 16.44,24.84 17.91,26.03 C 14.91,27.09 10.5,31.58 10.5,39.5 L 33.5,39.5 C 33.5,31.58 29.09,27.09 26.09,26.03 C 27.56,24.84 28.5,23.03 28.5,21 C 28.5,18.59 27.17,16.5 25.22,15.38 C 25.71,14.71 26,13.89 26,13 C 26,10.79 24.21,9 22,9 z" style="fill:#fff;stroke:none"/></g><g transform="translate(0,35) scale(0.22)"><path d="M 22,9 C 19.79,9 18,10.79 18,13 C 18,13.89 18.29,14.71 18.78,15.38 C 16.83,16.5 15.5,18.59 15.5,21 C 15.5,23.03 16.44,24.84 17.91,26.03 C 14.91,27.09 10.5,31.58 10.5,39.5 L 33.5,39.5 C 33.5,31.58 29.09,27.09 26.09,26.03 C 27.56,24.84 28.5,23.03 28.5,21 C 28.5,18.59 27.17,16.5 25.22,15.38 C 25.71,14.71 26,13.89 26,13 C 26,10.79 24.21,9 22,9 z" style="fill:#fff;stroke:none"/></g><g transform="translate(35,35) scale(0.22)"><path d="M 22,9 C 19.79,9 18,10.79 18,13 C 18,13.89 18.29,14.71 18.78,15.38 C 16.83,16.5 15.5,18.59 15.5,21 C 15.5,23.03 16.44,24.84 17.91,26.03 C 14.91,27.09 10.5,31.58 10.5,39.5 L 33.5,39.5 C 33.5,31.58 29.09,27.09 26.09,26.03 C 27.56,24.84 28.5,23.03 28.5,21 C 28.5,18.59 27.17,16.5 25.22,15.38 C 25.71,14.71 26,13.89 26,13 C 26,10.79 24.21,9 22,9 z" style="fill:#fff;stroke:none"/></g></symbol>
<symbol id="piece-mce-chess-bQ" viewBox="0 0 45 45"><g style="fill:#000;stroke:#000;stroke-width:1.5;stroke-linejoin:round"><path d="M 9,26 C 17.5,24.5 30,24.5 36,26 L 38.5,13.5 L 31,25 L 30.7,10.9 L 25.5,24.5 L 22.5,10 L 19.5,24.5 L 14.3,10.9 L 14,25 L 6.5,13.5 L 9,26 z"/><path d="M 9,26 C 9,28 10.5,28 11.5,30 C 12.5,31.5 12.5,31 12,33.5 C 10.5,34.5 11,36 11,36 C 9.5,37.5 11.5,38.5 11.5,38.5 C 17.5,39.5 27.5,39.5 33.5,38.5 C 33.5,38.5 35.5,37.5 34,36 C 34,36 34.5,34.5 33,33.5 C 32.5,31 32.5,31.5 33.5,30 C 34.5,28 36,28 36,26 C 27.5,24.5 17.5,24.5 9,26 z"/><path d="M 11.5,30 C 15,29 30,29 33.5,30" style="fill:none;stroke:#fff"/><path d="M 12,33.5 C 15,32.5 30,32.5 33,33.5" style="fill:none;stroke:#fff"/><circle cx="6" cy="12" r="2" style="fill:#fff"/><circle cx="14" cy="9" r="2" style="fill:#fff"/><circle cx="22.5" cy="8" r="2" style="fill:#fff"/><circle cx="31" cy="9" r="2" style="fill:#fff"/><circle cx="39" cy="12" r="2" style="fill:#fff"/></g></symbol>
<symbol id="piece-mce-chess-bK" viewBox="0 0 45 45"><g style="fill:#000;stroke:#000;stroke-width:1.5;stroke-linejoin:round"><path d="M 22.5,11.63 L 22.5,6" style="fill:none;stroke:#fff;stroke-linejoin:miter"/><path d="M 20,8 L 25,8" style="fill:none;stroke:#fff;stroke-linejoin:miter"/><path d="M 22.5,25 C 22.5,25 27,17.5 25.5,14.5 C 25.5,14.5 24.5,12 22.5,12 C 20.5,12 19.5,14.5 19.5,14.5 C 18,17.5 22.5,25 22.5,25"/><path d="M 12.5,37 C 18,40.5 27,40.5 32.5,37 L 32.5,30 C 32.5,30 41.5,25.5 38.5,19.5 C 34.5,13 25,16 22.5,23.5 L 22.5,27 L 22.5,23.5 C 20,16 10.5,13 6.5,19.5 C 3.5,25.5 12.5,30 12.5,30 L 12.5,37"/><path d="M 12.5,30 C 18,27 27,27 32.5,30" style="fill:none;stroke:#fff"/><path d="M 12.5,33.5 C 18,30.5 27,30.5 32.5,33.5" style="fill:none;stroke:#fff"/><path d="M 12.5,37 C 18,34 27,34 32.5,37" style="fill:none;stroke:#fff"/></g></symbol>
<symbol id="piece-mce-chess-bE" viewBox="0 0 45 45"><g transform="translate(2,1) scale(0.228)"><path d="M140.07,68.8c3.43,6.1,5.37,13.14,5.37,20.64,0,3.43-.41,6.78-1.19,9.97-.1,.37-.17,.72-.27,1.09-1.69,6.7-2.84,13.61-3.41,20.68-.29,3.45-.43,6.91-.43,10.44,0,.93,.01,1.86,.04,2.79-1.09-.45-2.3-.85-3.65-1.2,0,0-47.52-4.73-70.93,0-1.42,.36-2.69,.78-3.82,1.27h-.63c1.09-7.23,3.99-13.85,8.24-19.4,2.72-3.58,6.02-6.71,9.76-9.27,.25-.16,.49-.31,.72-.49,2.01-1.36,3.88-2.9,5.61-4.6-4.46-1.44-12.33-5.8-16.01-8.57-2.29-.53-5.69,2.3-5.69,2.3-1.19,.99-2.3,2.06-3.37,3.19-.81,.84-1.58,1.72-2.28,2.61-4.24,5.31-7.24,11.68-8.55,18.63-.47,2.51-.7,5.1-.7,7.77,0,3.97,.55,7.8,1.58,11.45,0,0,1.43,4.08,2.52,6.8,.35,.88,.67,1.61,.89,2.02,1.27,2.36,1.06,6.71-1.63,9.88-1.17,1.38-2.81,2.54-4.99,3.22-.97,.33-1.99,.54-3.06,.58-.25,0-.49-.02-.74-.02-.59-.02-1.17-.08-1.73-.17-1.97-.37-3.74-1.28-5.14-2.59-.55-.49-1.03-1.03-1.44-1.64,.61-1.94,.92-4.01,.92-6.15s-.31-4.21-.92-6.15c0-.02,.02-.04,.02-.04,0-.02-.02-.06-.02-.08-.12-.33-.23-.68-.37-1.01-2.12-6.14-3.58-12.6-4.25-19.28-.12-1.17-.21-2.36-.29-3.54v-.02c-.1-1.66-.14-3.31-.14-4.99,0-18.42,5.88-35.47,15.89-49.36,.78-1.11,1.61-2.22,2.47-3.29,2.57-20.02,19.14-35.67,39.6-36.78,.78-.06,1.58-.08,2.38-.08,2.05,0,4.07,.16,6.04,.43,.02,0,.06,0,.08,.02,1.83-.41,3.68-.78,5.53-1.11,.78-.14,1.56-.27,2.36-.39,.8-.14,1.61-.26,2.41-.37,1.03-.16,2.06-.27,3.09-.39,.41-.06,.8-.1,1.21-.14,.97-.1,1.97-.19,2.96-.27,1.34-.12,2.72-.2,4.09-.28,2.08-.1,4.18-.16,6.31-.16,8.7,0,17.19,.88,25.39,2.55-1.58,11.45-4.67,22.41-9.09,32.67,.06,.8,.08,1.61,.08,2.43,0,.68-.02,1.38-.06,2.06,0,.1,0,.17-.02,.27-.02,.58-.06,1.15-.12,1.71,0,.12-.02,.24-.04,.33-.06,.6-.12,1.19-.21,1.79,0,.08-.02,.16-.04,.24-.08,.52-.16,1.03-.27,1.56l-.06,.35v.04Z" style="fill:#000;stroke:#fff;stroke-width:6"/><path d="M52.25,156.09v3.47h97.65v-3.47c.03-10.4,.05-19.46-13.36-22.87,0,0-47.52-4.73-70.93,0h0c-13.41,3.41-13.39,12.47-13.36,22.87Z" style="fill:#000;stroke:#fff;stroke-width:6"/><path d="M72.65,94.39c.12,0,7.82,4.74,12.82,6.35-.21,.17-.4,.35-.61,.52-.02,.02-.05,.02-.07,.02-5.44,3.05-11.32,5.01-17.56,5.82l-.31,.05c-.14,.02-.24,.05-.38,.05l-.21-.02-.17,.05c-2.58,0-4.66-2.08-4.66-4.66,0-1.96,1.3-3.78,3.14-4.4l.28-.07c2.88-.9,5.28-1.91,7.72-3.7Z" style="fill:#000;stroke:#fff;stroke-width:4"/><circle cx="76.4" cy="53.46" r="5.3" style="fill:#fff;stroke:none"/></g></symbol>
<symbol id="piece-mce-chess-bP" viewBox="0 0 45 45"><path d="M 22,9 C 19.79,9 18,10.79 18,13 C 18,13.89 18.29,14.71 18.78,15.38 C 16.83,16.5 15.5,18.59 15.5,21 C 15.5,23.03 16.44,24.84 17.91,26.03 C 14.91,27.09 10.5,31.58 10.5,39.5 L 33.5,39.5 C 33.5,31.58 29.09,27.09 26.09,26.03 C 27.56,24.84 28.5,23.03 28.5,21 C 28.5,18.59 27.17,16.5 25.22,15.38 C 25.71,14.71 26,13.89 26,13 C 26,10.79 24.21,9 22,9 z" style="fill:#000;stroke:#000;stroke-width:1.5;stroke-linecap:round"/></symbol>
<symbol id="piece-mce-chess-wP" viewBox="0 0 45 45"><path d="M 22,9 C 19.79,9 18,10.79 18,13 C 18,13.89 18.29,14.71 18.78,15.38 C 16.83,16.5 15.5,18.59 15.5,21 C 15.5,23.03 16.44,24.84 17.91,26.03 C 14.91,27.09 10.5,31.58 10.5,39.5 L 33.5,39.5 C 33.5,31.58 29.09,27.09 26.09,26.03 C 27.56,24.84 28.5,23.03 28.5,21 C 28.5,18.59 27.17,16.5 25.22,15.38 C 25.71,14.71 26,13.89 26,13 C 26,10.79 24.21,9 22,9 z" style="fill:#fff;stroke:#000;stroke-width:1.5;stroke-linecap:round"/></symbol>
<symbol id="piece-mce-chess-wR" viewBox="0 0 45 45"><g style="fill:#fff;stroke:#000;stroke-width:1.5;stroke-linecap:round;stroke-linejoin:round"><path d="M 9,39 L 36,39 L 36,36 L 9,36 L 9,39 z"/><path d="M 12,36 L 12,32 L 33,32 L 33,36 L 12,36 z"/><path d="M 11,14 L 11,9 L 15,9 L 15,11 L 20,11 L 20,9 L 25,9 L 25,11 L 30,11 L 30,9 L 34,9 L 34,14"/><path d="M 34,14 L 31,17 L 14,17 L 11,14"/><path d="M 31,17 L 31,29.5 L 14,29.5 L 14,17"/><path d="M 31,29.5 L 32.5,32 L 12.5,32 L 14,29.5"/><path d="M 11,14 L 34,14" style="fill:none"/></g></symbol>
<symbol id="piece-mce-chess-wN" viewBox="0 0 45 45"><g style="fill:none;stroke:#000;stroke-width:1.5;stroke-linecap:round;stroke-linejoin:round"><path d="M 22,10 C 32.5,11 38.5,18 38,39 L 15,39 C 15,30 25,32.5 23,18" style="fill:#fff"/><path d="M 24,18 C 24.38,20.91 18.45,25.37 16,27 C 13,29 13.18,31.34 11,31 C 9.958,30.06 12.41,27.96 11,28 C 10,28 11.19,29.23 10,30 C 9,30 5.997,31 6,26 C 6,24 12,14 12,14 C 12,14 13.89,12.1 14,10.5 C 13.27,9.506 13.5,8.5 13.5,7.5 C 14.5,6.5 16.5,10 16.5,10 L 18.5,10 C 18.5,10 19.28,8.008 21,7 C 22,7 22,10 22,10" style="fill:#fff"/><path d="M 9.5,25.5 A 0.5,0.5 0 1 1 8.5,25.5 A 0.5,0.5 0 1 1 9.5,25.5 z" style="fill:#000"/><path d="M 15,15.5 A 0.5,1.5 0 1 1 14,15.5 A 0.5,1.5 0 1 1 15,15.5 z" transform="matrix(0.866,0.5,-0.5,0.866,9.693,-5.173)" style="fill:#000"/></g></symbol>
<symbol id="piece-mce-chess-wB" viewBox="0 0 45 45"><g style="fill:none;stroke:#000;stroke-width:1.5;stroke-linecap:round;stroke-linejoin:round"><g style="fill:#fff;stroke-linecap:butt"><path d="M 9,36 C 12.39,35.03 19.11,36.43 22.5,34 C 25.89,36.43 32.61,35.03 36,36 C 36,36 37.65,36.54 39,38 C 38.32,38.97 37.2,38.91 36,38.5 C 32.61,37.53 25.89,38.96 22.5,37.5 C 19.11,38.96 12.39,37.53 9,38.5 C 7.8,38.91 6.68,38.97 6,38 C 7.35,36.54 9,36 9,36 z"/><path d="M 15,32 C 17.5,34.5 27.5,34.5 30,32 C 30.5,30.5 30,30 30,30 C 30,27.5 27.5,26 27.5,26 C 33,24.5 33.5,14.5 22.5,10.5 C 11.5,14.5 12,24.5 17.5,26 C 17.5,26 15,27.5 15,30 C 15,30 14.5,30.5 15,32 z"/><path d="M 25,8 A 2.5,2.5 0 1 1 20,8 A 2.5,2.5 0 1 1 25,8 z"/></g><path d="M 17.5,26 L 27.5,26 M 15,30 L 30,30 M 22.5,15.5 L 22.5,20.5 M 20,18 L 25,18" style="fill:none;stroke:#000;stroke-linejoin:miter"/></g></symbol>
<symbol id="piece-mce-chess-wG" viewBox="0 0 45 45"><g transform="translate(10,10) scale(0.56)"><path d="M 22,9 C 19.79,9 18,10.79 18,13 C 18,13.89 18.29,14.71 18.78,15.38 C 16.83,16.5 15.5,18.59 15.5,21 C 15.5,23.03 16.44,24.84 17.91,26.03 C 14.91,27.09 10.5,31.58 10.5,39.5 L 33.5,39.5 C 33.5,31.58 29.09,27.09 26.09,26.03 C 27.56,24.84 28.5,23.03 28.5,21 C 28.5,18.59 27.17,16.5 25.22,15.38 C 25.71,14.71 26,13.89 26,13 C 26,10.79 24.21,9 22,9 z" style="fill:#fff;stroke:#000;stroke-width:1.5;stroke-linecap:round"/></g><g transform="translate(0,0) scale(0.22)"><path d="M 22,9 C 19.79,9 18,10.79 18,13 C 18,13.89 18.29,14.71 18.78,15.38 C 16.83,16.5 15.5,18.59 15.5,21 C 15.5,23.03 16.44,24.84 17.91,26.03 C 14.91,27.09 10.5,31.58 10.5,39.5 L 33.5,39.5 C 33.5,31.58 29.09,27.09 26.09,26.03 C 27.56,24.84 28.5,23.03 28.5,21 C 28.5,18.59 27.17,16.5 25.22,15.38 C 25.71,14.71 26,13.89 26,13 C 26,10.79 24.21,9 22,9 z" style="fill:#000;stroke:none"/></g><g transform="translate(35,0) scale(0.22)"><path d="M 22,9 C 19.79,9 18,10.79 18,13 C 18,13.89 18.29,14.71 18.78,15.38 C 16.83,16.5 15.5,18.59 15.5,21 C 15.5,23.03 16.44,24.84 17.91,26.03 C 14.91,27.09 10.5,31.58 10.5,39.5 L 33.5,39.5 C 33.5,31.58 29.09,27.09 26.09,26.03 C 27.56,24.84 28.5,23.03 28.5,21 C 28.5,18.59 27.17,16.5 25.22,15.38 C 25.71,14.71 26,13.89 26,13 C 26,10.79 24.21,9 22,9 z" style="fill:#000;stroke:none"/></g><g transform="translate(0,35) scale(0.22)"><path d="M 22,9 C 19.79,9 18,10.79 18,13 C 18,13.89 18.29,14.71 18.78,15.38 C 16.83,16.5 15.5,18.59 15.5,21 C 15.5,23.03 16.44,24.84 17.91,26.03 C 14.91,27.09 10.5,31.58 10.5,39.5 L 33.5,39.5 C 33.5,31.58 29.09,27.09 26.09,26.03 C 27.56,24.84 28.5,23.03 28.5,21 C 28.5,18.59 27.17,16.5 25.22,15.38 C 25.71,14.71 26,13.89 26,13 C 26,10.79 24.21,9 22,9 z" style="fill:#000;stroke:none"/></g><g transform="translate(35,35) scale(0.22)"><path d="M 22,9 C 19.79,9 18,10.79 18,13 C 18,13.89 18.29,14.71 18.78,15.38 C 16.83,16.5 15.5,18.59 15.5,21 C 15.5,23.03 16.44,24.84 17.91,26.03 C 14.91,27.09 10.5,31.58 10.5,39.5 L 33.5,39.5 C 33.5,31.58 29.09,27.09 26.09,26.03 C 27.56,24.84 28.5,23.03 28.5,21 C 28.5,18.59 27.17,16.5 25.22,15.38 C 25.71,14.71 26,13.89 26,13 C 26,10.79 24.21,9 22,9 z" style="fill:#000;stroke:none"/></g></symbol>
<symbol id="piece-mce-chess-wQ" viewBox="0 0 45 45"><g style="fill:#fff;stroke:#000;stroke-width:1.5;stroke-linejoin:round"><path d="M 9,26 C 17.5,24.5 30,24.5 36,26 L 38.5,13.5 L 31,25 L 30.7,10.9 L 25.5,24.5 L 22.5,10 L 19.5,24.5 L 14.3,10.9 L 14,25 L 6.5,13.5 L 9,26 z"/><path d="M 9,26 C 9,28 10.5,28 11.5,30 C 12.5,31.5 12.5,31 12,33.5 C 10.5,34.5 11,36 11,36 C 9.5,37.5 11.5,38.5 11.5,38.5 C 17.5,39.5 27.5,39.5 33.5,38.5 C 33.5,38.5 35.5,37.5 34,36 C 34,36 34.5,34.5 33,33.5 C 32.5,31 32.5,31.5 33.5,30 C 34.5,28 36,28 36,26 C 27.5,24.5 17.5,24.5 9,26 z"/><path d="M 11.5,30 C 15,29 30,29 33.5,30" style="fill:none"/><path d="M 12,33.5 C 15,32.5 30,32.5 33,33.5" style="fill:none"/><circle cx="6" cy="12" r="2"/><circle cx="14" cy="9" r="2"/><circle cx="22.5" cy="8" r="2"/><circle cx="31" cy="9" r="2"/><circle cx="39" cy="12" r="2"/></g></symbol>
<symbol id="piece-mce-chess-wK" viewBox="0 0 45 45"><g style="fill:#fff;stroke:#000;stroke-width:1.5;stroke-linejoin:round"><path d="M 22.5,11.63 L 22.5,6" style="fill:none;stroke-linejoin:miter"/><path d="M 20,8 L 25,8" style="fill:none;stroke-linejoin:miter"/><path d="M 22.5,25 C 22.5,25 27,17.5 25.5,14.5 C 25.5,14.5 24.5,12 22.5,12 C 20.5,12 19.5,14.5 19.5,14.5 C 18,17.5 22.5,25 22.5,25"/><path d="M 12.5,37 C 18,40.5 27,40.5 32.5,37 L 32.5,30 C 32.5,30 41.5,25.5 38.5,19.5 C 34.5,13 25,16 22.5,23.5 L 22.5,27 L 22.5,23.5 C 20,16 10.5,13 6.5,19.5 C 3.5,25.5 12.5,30 12.5,30 L 12.5,37"/><path d="M 12.5,30 C 18,27 27,27 32.5,30"/><path d="M 12.5,33.5 C 18,30.5 27,30.5 32.5,33.5"/><path d="M 12.5,37 C 18,34 27,34 32.5,37"/></g></symbol>
<symbol id="piece-mce-chess-wE" viewBox="0 0 45 45"><g transform="translate(2,1) scale(0.228)"><path d="M140.07,68.8c3.43,6.1,5.37,13.14,5.37,20.64,0,3.43-.41,6.78-1.19,9.97-.1,.37-.17,.72-.27,1.09-1.69,6.7-2.84,13.61-3.41,20.68-.29,3.45-.43,6.91-.43,10.44,0,.93,.01,1.86,.04,2.79-1.09-.45-2.3-.85-3.65-1.2,0,0-47.52-4.73-70.93,0-1.42,.36-2.69,.78-3.82,1.27h-.63c1.09-7.23,3.99-13.85,8.24-19.4,2.72-3.58,6.02-6.71,9.76-9.27,.25-.16,.49-.31,.72-.49,2.01-1.36,3.88-2.9,5.61-4.6-4.46-1.44-12.33-5.8-16.01-8.57-2.29-.53-5.69,2.3-5.69,2.3-1.19,.99-2.3,2.06-3.37,3.19-.81,.84-1.58,1.72-2.28,2.61-4.24,5.31-7.24,11.68-8.55,18.63-.47,2.51-.7,5.1-.7,7.77,0,3.97,.55,7.8,1.58,11.45,0,0,1.43,4.08,2.52,6.8,.35,.88,.67,1.61,.89,2.02,1.27,2.36,1.06,6.71-1.63,9.88-1.17,1.38-2.81,2.54-4.99,3.22-.97,.33-1.99,.54-3.06,.58-.25,0-.49-.02-.74-.02-.59-.02-1.17-.08-1.73-.17-1.97-.37-3.74-1.28-5.14-2.59-.55-.49-1.03-1.03-1.44-1.64,.61-1.94,.92-4.01,.92-6.15s-.31-4.21-.92-6.15c0-.02,.02-.04,.02-.04,0-.02-.02-.06-.02-.08-.12-.33-.23-.68-.37-1.01-2.12-6.14-3.58-12.6-4.25-19.28-.12-1.17-.21-2.36-.29-3.54v-.02c-.1-1.66-.14-3.31-.14-4.99,0-18.42,5.88-35.47,15.89-49.36,.78-1.11,1.61-2.22,2.47-3.29,2.57-20.02,19.14-35.67,39.6-36.78,.78-.06,1.58-.08,2.38-.08,2.05,0,4.07,.16,6.04,.43,.02,0,.06,0,.08,.02,1.83-.41,3.68-.78,5.53-1.11,.78-.14,1.56-.27,2.36-.39,.8-.14,1.61-.26,2.41-.37,1.03-.16,2.06-.27,3.09-.39,.41-.06,.8-.1,1.21-.14,.97-.1,1.97-.19,2.96-.27,1.34-.12,2.72-.2,4.09-.28,2.08-.1,4.18-.16,6.31-.16,8.7,0,17.19,.88,25.39,2.55-1.58,11.45-4.67,22.41-9.09,32.67,.06,.8,.08,1.61,.08,2.43,0,.68-.02,1.38-.06,2.06,0,.1,0,.17-.02,.27-.02,.58-.06,1.15-.12,1.71,0,.12-.02,.24-.04,.33-.06,.6-.12,1.19-.21,1.79,0,.08-.02,.16-.04,.24-.08,.52-.16,1.03-.27,1.56l-.06,.35v.04Z" style="fill:#fff;stroke:#000;stroke-width:6"/><path d="M52.25,156.09v3.47h97.65v-3.47c.03-10.4,.05-19.46-13.36-22.87,0,0-47.52-4.73-70.93,0h0c-13.41,3.41-13.39,12.47-13.36,22.87Z" style="fill:#fff;stroke:#000;stroke-width:6"/><path d="M72.65,94.39c.12,0,7.82,4.74,12.82,6.35-.21,.17-.4,.35-.61,.52-.02,.02-.05,.02-.07,.02-5.44,3.05-11.32,5.01-17.56,5.82l-.31,.05c-.14,.02-.24,.05-.38,.05l-.21-.02-.17,.05c-2.58,0-4.66-2.08-4.66-4.66,0-1.96,1.3-3.78,3.14-4.4l.28-.07c2.88-.9,5.28-1.91,7.72-3.7Z" style="fill:#fff;stroke:#000;stroke-width:4"/><circle cx="76.4" cy="53.46" r="5.3" style="fill:#000;stroke:none"/></g></symbol>
</defs>

<rect x="24" y="24" width="36" height="36" fill="#f0d9b5" data-sq="a8" class="board-cell"/><rect x="60" y="24" width="36" height="36" fill="#b58863" data-sq="b8" class="board-cell"/><rect x="96" y="24" width="36" height="36" fill="#f0d9b5" data-sq="c8" class="board-cell"/><rect x="132" y="24" width="36" height="36" fill="#b58863" data-sq="d8" class="board-cell"/><rect x="168" y="24" width="36" height="36" fill="#f0d9b5" data-sq="e8" class="board-cell"/><rect x="204" y="24" width="36" height="36" fill="#b58863" data-sq="f8" class="board-cell"/><rect x="240" y="24" width="36" height="36" fill="#f0d9b5" data-sq="g8" class="board-cell"/><rect x="276" y="24" width="36" height="36" fill="#b58863" data-sq="h8" class="board-cell"/><rect x="312" y="24" width="36" height="36" fill="#f0d9b5" data-sq="i8" class="board-cell"/><rect x="348" y="24" width="36" height="36" fill="#b58863" data-sq="j8" class="board-cell"/><rect x="24" y="60" width="36" height="36" fill="#b58863" data-sq="a7" class="board-cell"/><rect x="60" y="60" width="36" height="36" fill="#f0d9b5" data-sq="b7" class="board-cell"/><rect x="96" y="60" width="36" height="36" fill="#b58863" data-sq="c7" class="board-cell"/><rect x="132" y="60" width="36" height="36" fill="#f0d9b5" data-sq="d7" class="board-cell"/><rect x="168" y="60" width="36" height="36" fill="#b58863" data-sq="e7" class="board-cell"/><rect x="204" y="60" width="36" height="36" fill="#f0d9b5" data-sq="f7" class="board-cell"/><rect x="240" y="60" width="36" height="36" fill="#b58863" data-sq="g7" class="board-cell"/><rect x="276" y="60" width="36" height="36" fill="#f0d9b5" data-sq="h7" class="board-cell"/><rect x="312" y="60" width="36" height="36" fill="#b58863" data-sq="i7" class="board-cell"/><rect x="348" y="60" width="36" height="36" fill="#f0d9b5" data-sq="j7" class="board-cell"/><rect x="24" y="96" width="36" height="36" fill="#f0d9b5" data-sq="a6" class="board-cell"/><rect x="60" y="96" width="36" height="36" fill="#b58863" data-sq="b6" class="board-cell"/><rect x="96" y="96" width="36" height="36" fill="#f0d9b5" data-sq="c6" class="board-cell"/><rect x="132" y="96" width="36" height="36" fill="#b58863" data-sq="d6" class="board-cell"/><rect x="168" y="96" width="36" height="36" fill="#f0d9b5" data-sq="e6" class="board-cell"/><rect x="204" y="96" width="36" height="36" fill="#b58863" data-sq="f6" class="board-cell"/><rect x="240" y="96" width="36" height="36" fill="#f0d9b5" data-sq="g6" class="board-cell"/><rect x="276" y="96" width="36" height="36" fill="#b58863" data-sq="h6" class="board-cell"/><rect x="312" y="96" width="36" height="36" fill="#f0d9b5" data-sq="i6" class="board-cell"/><rect x="348" y="96" width="36" height="36" fill="#b58863" data-sq="j6" class="board-cell"/><rect x="24" y="132" width="36" height="36" fill="#b58863" data-sq="a5" class="board-cell"/><rect x="60" y="132" width="36" height="36" fill="#f0d9b5" data-sq="b5" class="board-cell"/><rect x="96" y="132" width="36" height="36" fill="#b58863" data-sq="c5" class="board-cell"/><rect x="132" y="132" width="36" height="36" fill="#f0d9b5" data-sq="d5" class="board-cell"/><rect x="168" y="132" width="36" height="36" fill="#b58863" data-sq="e5" class="board-cell"/><rect x="204" y="132" width="36" height="36" fill="#f0d9b5" data-sq="f5" class="board-cell"/><rect x="240" y="132" width="36" height="36" fill="#b58863" data-sq="g5" class="board-cell"/><rect x="276" y="132" width="36" height="36" fill="#f0d9b5" data-sq="h5" class="board-cell"/><rect x="312" y="132" width="36" height="36" fill="#b58863" data-sq="i5" class="board-cell"/><rect x="348" y="132" width="36" height="36" fill="#f0d9b5" data-sq="j5" class="board-cell"/><rect x="24" y="168" width="36" height="36" fill="#f0d9b5" data-sq="a4" class="board-cell"/><rect x="60" y="168" width="36" height="36" fill="#b58863" data-sq="b4" class="board-cell"/><rect x="96" y="168" width="36" height="36" fill="#f0d9b5" data-sq="c4" class="board-cell"/><rect x="132" y="168" width="36" height="36" fill="#b58863" data-sq="d4" class="board-cell"/><rect x="168" y="168" width="36" height="36" fill="#f0d9b5" data-sq="e4" class="board-cell"/><rect x="204" y="168" width="36" height="36" fill="#b58863" data-sq="f4" class="board-cell"/><rect x="240" y="168" width="36" height="36" fill="#f0d9b5" data-sq="g4" class="board-cell"/><rect x="276" y="168" width="36" height="36" fill="#b58863" data-sq="h4" class="board-cell"/><rect x="312" y="168" width="36" height="36" fill="#f0d9b5" data-sq="i4" class="board-cell"/><rect x="348" y="168" width="36" height="36" fill="#b58863" data-sq="j4" class="board-cell"/><rect x="24" y="204" width="36" height="36" fill="#b58863" data-sq="a3" class="board-cell"/><rect x="60" y="204" width="36" height="36" fill="#f0d9b5" data-sq="b3" class="board-cell"/><rect x="96" y="204" width="36" height="36" fill="#b58863" data-sq="c3" class="board-cell"/><rect x="132" y="204" width="36" height="36" fill="#f0d9b5" data-sq="d3" class="board-cell"/><rect x="168" y="204" width="36" height="36" fill="#b58863" data-sq="e3" class="board-cell"/><rect x="204" y="204" width="36" height="36" fill="#f0d9b5" data-sq="f3" class="board-cell"/><rect x="240" y="204" width="36" height="36" fill="#b58863" data-sq="g3" class="board-cell"/><rect x="276" y="204" width="36" height="36" fill="#f0d9b5" data-sq="h3" class="board-cell"/><rect x="312" y="204" width="36" height="36" fill="#b58863" data-sq="i3" class="board-cell"/><rect x="348" y="204" width="36" height="36" fill="#f0d9b5" data-sq="j3" class="board-cell"/><rect x="24" y="240" width="36" height="36" fill="#f0d9b5" data-sq="a2" class="board-cell"/><rect x="60" y="240" width="36" height="36" fill="#b58863" data-sq="b2" class="board-cell"/><rect x="96" y="240" width="36" height="36" fill="#f0d9b5" data-sq="c2" class="board-cell"/><rect x="132" y="240" width="36" height="36" fill="#b58863" data-sq="d2" class="board-cell"/><rect x="168" y="240" width="36" height="36" fill="#f0d9b5" data-sq="e2" class="board-cell"/><rect x="204" y="240" width="36" height="36" fill="#b58863" data-sq="f2" class="board-cell"/><rect x="240" y="240" width="36" height="36" fill="#f0d9b5" data-sq="g2" class="board-cell"/><rect x="276" y="240" width="36" height="36" fill="#b58863" data-sq="h2" class="board-cell"/><rect x="312" y="240" width="36" height="36" fill="#f0d9b5" data-sq="i2" class="board-cell"/><rect x="348" y="240" width="36" height="36" fill="#b58863" data-sq="j2" class="board-cell"/><rect x="24" y="276" width="36" height="36" fill="#b58863" data-sq="a1" class="board-cell"/><rect x="60" y="276" width="36" height="36" fill="#f0d9b5" data-sq="b1" class="board-cell"/><rect x="96" y="276" width="36" height="36" fill="#b58863" data-sq="c1" class="board-cell"/><rect x="132" y="276" width="36" height="36" fill="#f0d9b5" data-sq="d1" class="board-cell"/><rect x="168" y="276" width="36" height="36" fill="#b58863" data-sq="e1" class="board-cell"/><rect x="204" y="276" width="36" height="36" fill="#f0d9b5" data-sq="f1" class="board-cell"/><rect x="240" y="276" width="36" height="36" fill="#b58863" data-sq="g1" class="board-cell"/><rect x="276" y="276" width="36" height="36" fill="#f0d9b5" data-sq="h1" class="board-cell"/><rect x="312" y="276" width="36" height="36" fill="#b58863" data-sq="i1" class="board-cell"/><rect x="348" y="276" width="36" height="36" fill="#f0d9b5" data-sq="j1" class="board-cell"/>
<g pointer-events="none"><use href="#piece-mce-chess-bR" x="24" y="24" width="36" height="36"/><use href="#piece-mce-chess-bN" x="60" y="24" width="36" height="36"/><use href="#piece-mce-chess-bB" x="96" y="24" width="36" height="36"/><use href="#piece-mce-chess-bG" x="132" y="24" width="36" height="36"/><use href="#piece-mce-chess-bQ" x="168" y="24" width="36" height="36"/><use href="#piece-mce-chess-bK" x="204" y="24" width="36" height="36"/><use href="#piece-mce-chess-bE" x="240" y="24" width="36" height="36"/><use href="#piece-mce-chess-bB" x="276" y="24" width="36" height="36"/><use href="#piece-mce-chess-bN" x="312" y="24" width="36" height="36"/><use href="#piece-mce-chess-bR" x="348" y="24" width="36" height="36"/><use href="#piece-mce-chess-bP" x="24" y="60" width="36" height="36"/><use href="#piece-mce-chess-bP" x="60" y="60" width="36" height="36"/><use href="#piece-mce-chess-bP" x="96" y="60" width="36" height="36"/><use href="#piece-mce-chess-bP" x="132" y="60" width="36" height="36"/><use href="#piece-mce-chess-bP" x="168" y="60" width="36" height="36"/><use href="#piece-mce-chess-bP" x="204" y="60" width="36" height="36"/><use href="#piece-mce-chess-bP" x="240" y="60" width="36" height="36"/><use href="#piece-mce-chess-bP" x="276" y="60" width="36" height="36"/><use href="#piece-mce-chess-bP" x="312" y="60" width="36" height="36"/><use href="#piece-mce-chess-bP" x="348" y="60" width="36" height="36"/><use href="#piece-mce-chess-wP" x="24" y="240" width="36" height="36"/><use href="#piece-mce-chess-wP" x="60" y="240" width="36" height="36"/><use href="#piece-mce-chess-wP" x="96" y="240" width="36" height="36"/><use href="#piece-mce-chess-wP" x="132" y="240" width="36" height="36"/><use href="#piece-mce-chess-wP" x="168" y="240" width="36" height="36"/><use href="#piece-mce-chess-wP" x="204" y="240" width="36" height="36"/><use href="#piece-mce-chess-wP" x="240" y="240" width="36" height="36"/><use href="#piece-mce-chess-wP" x="276" y="240" width="36" height="36"/><use href="#piece-mce-chess-wP" x="312" y="240" width="36" height="36"/><use href="#piece-mce-chess-wP" x="348" y="240" width="36" height="36"/><use href="#piece-mce-chess-wR" x="24" y="276" width="36" height="36"/><use href="#piece-mce-chess-wN" x="60" y="276" width="36" height="36"/><use href="#piece-mce-chess-wB" x="96" y="276" width="36" height="36"/><use href="#piece-mce-chess-wG" x="132" y="276" width="36" height="36"/><use href="#piece-mce-chess-wQ" x="168" y="276" width="36" height="36"/><use href="#piece-mce-chess-wK" x="204" y="276" width="36" height="36"/><use href="#piece-mce-chess-wE" x="240" y="276" width="36" height="36"/><use href="#piece-mce-chess-wB" x="276" y="276" width="36" height="36"/><use href="#piece-mce-chess-wN" x="312" y="276" width="36" height="36"/><use href="#piece-mce-chess-wR" x="348" y="276" width="36" height="36"/></g>
<text x="42" y="327.6" text-anchor="middle" font-size="13" fill="#5c3a1e" font-family="monospace">a</text><text x="78" y="327.6" text-anchor="middle" font-size="13" fill="#5c3a1e" font-family="monospace">b</text><text x="114" y="327.6" text-anchor="middle" font-size="13" fill="#5c3a1e" font-family="monospace">c</text><text x="150" y="327.6" text-anchor="middle" font-size="13" fill="#5c3a1e" font-family="monospace">d</text><text x="186" y="327.6" text-anchor="middle" font-size="13" fill="#5c3a1e" font-family="monospace">e</text><text x="222" y="327.6" text-anchor="middle" font-size="13" fill="#5c3a1e" font-family="monospace">f</text><text x="258" y="327.6" text-anchor="middle" font-size="13" fill="#5c3a1e" font-family="monospace">g</text><text x="294" y="327.6" text-anchor="middle" font-size="13" fill="#5c3a1e" font-family="monospace">h</text><text x="330" y="327.6" text-anchor="middle" font-size="13" fill="#5c3a1e" font-family="monospace">i</text><text x="366" y="327.6" text-anchor="middle" font-size="13" fill="#5c3a1e" font-family="monospace">j</text><text x="12" y="46.55" text-anchor="middle" font-size="13" fill="#5c3a1e" font-family="monospace">8</text><text x="12" y="82.55" text-anchor="middle" font-size="13" fill="#5c3a1e" font-family="monospace">7</text><text x="12" y="118.55" text-anchor="middle" font-size="13" fill="#5c3a1e" font-family="monospace">6</text><text x="12" y="154.55" text-anchor="middle" font-size="13" fill="#5c3a1e" font-family="monospace">5</text><text x="12" y="190.55" text-anchor="middle" font-size="13" fill="#5c3a1e" font-family="monospace">4</text><text x="12" y="226.55" text-anchor="middle" font-size="13" fill="#5c3a1e" font-family="monospace">3</text><text x="12" y="262.55" text-anchor="middle" font-size="13" fill="#5c3a1e" font-family="monospace">2</text><text x="12" y="298.55" text-anchor="middle" font-size="13" fill="#5c3a1e" font-family="monospace">1</text>
</svg>