<svg xmlns="http://www.w3.org/2000/svg" viewBox="0 0 390 390" width="390" height="390">
<defs>
<symbol id="piece-mce-chess-bS" viewBox="0 0 45 45"><path d="M 22,9 C 19.79,9 18,10.79 18,13 C 18,13.89 18.29,14.71 18.78,15.38 C 16.83,16.5 15.5,18.59 15.5,21 C 15.5,23.03 16.44,24.84 17.91,26.03 C 14.91,27.09 10.5,31.58 10.5,39.5 L 33.5,39.5 C 33.5,31.58 29.09,27.09 26.09,26.03 C 27.56,24.84 28.5,23.03 28.5,21 C 28.5,18.59 27.17,16.5 25.22,15.38 C 25.71,14.71 26,13.89 26,13 C 26,10.79 24.21,9 22,9 z" style="fill:#000;stroke:#000;stroke-width:1.5;stroke-linecap:round"/><g transform="translate(14,23) scale(0.35)"><path d="M 22.5,25 C 22.5,25 27,17.5 25.5,14.5 C 25.5,14.5 24.5,12 22.5,12 C 20.5,12 19.5,14.5 19.5,14.5 C 18,17.5 22.5,25 22.5,25" style="fill:#fff;stroke:none"/><path d="M 12.5,37 C 18,40.5 27,40.5 32.5,37 L 32.5,30 C 32.5,30 41.5,25.5 38.5,19.5 C 34.5,13 25,16 22.5,23.5 L 22.5,27 L 22.5,23.5 C 20,16 10.5,13 6.5,19.5 C 3.5,25.5 12.5,30 12.5,30 L 12.5,37" style="fill:#fff;stroke:none"/></g></symbol>
<symbol id="piece-wikimedia-fairy-Black_chess_giraffe" viewBox="0 0 12 12"><path d="m8.959 8.142-.421-.28h-3.65l-.421.28Zm-.562-.561v-.14l-.561-.282H5.59l-.562.281v.14ZM4.304 1.982q0 .073.034.14.039.068.106.107.068.034.14.034.074 0 .141-.034.067-.04.101-.106.04-.068.04-.14 0-.074-.04-.141-.034-.068-.1-.101-.068-.04-.141-.04-.073 0-.14.04-.068.033-.107.1-.034.068-.034.141zM2.72 3.992q0 .073.034.14.04.068.107.108.067.033.14.033.073 0 .084-.033.012-.04-.039-.107-.045-.068-.045-.14 0-.074.045-.14.05-.068.04-.102-.012-.04-.085-.04-.073 0-.14.04-.068.034-.107.101-.034.067-.034.14zm4.504-1.74.893 4.767.561.28v.282l.843.561v.842H3.905v-.842l.843-.561V7.3l.561-.281V4.621q-.017-.27-.084-.337-.068-.067-.264-.078-.242-.04-1.045.5-.797.533-1.145.146-.292-.455-.292-.82 0-.365.6-.899.607-.539.647-.96.039-.421.438-.786.258-.18.572-.27.169-.05.32-.073Q4.99.601 4.95.534q-.034-.068-.034-.14 0-.074.034-.141.039-.068.106-.101.068-.04.14-.04.074 0 .141.04.068.033.101.1.04.068.04.141 0 .073-.04.14-.033.068-.1.495.128.005.392.033-.067-.572-.106-.64Q5.59.354 5.59.281q0-.073.034-.14.039-.068.106-.102Q5.798 0 5.87 0q.074 0 .141.04.067.033.101.1.04.068.04.14 0 .074-.04.141-.034.068-.101.668l.09.012q.208-.107.455-.18.522-.174 1.078-.213-.04.555-.208 1.083-.079.247-.202.46Zm.27-1.404q-.455.034-.882.174-.152.045-.28.14-.405.343-.557.72l.163.14q.034-.08.067-.14.242-.433.77-.686.27-.123.488-.168-.04.286-.241.69-.253.5-.685.741-.062.029-.14.062l.14.163q.426-.19.59-.331.162-.14.246-.292.096-.152.152-.326.135-.432.168-.887Zm-.837 4.644q-.23-.753-1.112-1.028v1.19l.505.382q.275-.325.607-.544Zm-.146.971q.331.22.606.545l.506-.382v-1.19Q6.74 5.71 6.51 6.463Zm-.764-2.909q.23.753 1.112 1.028v-1.19l-.505-.382q-.276.325-.607.544Z" style="font-size:11.5px;line-height:0;font-family:Quivira;stroke-width:.15;stroke-linecap:square;stroke-linejoin:bevel;paint-order:markers stroke fill"/></symbol>
<symbol id="piece-playstrategy-mono-eagle" viewBox="0 0 45 45"><defs />
  <g
     fill="none"
     fill-rule="evenodd"
     stroke="#000000"
     stroke-width="1.5"
     stroke-linecap="round"
     stroke-linejoin="round"
     id="g5877"
     transform="translate(0.61372088)"
     style="fill:#888888;fill-opacity:1;stroke:#888888;stroke-opacity:1">
    <path
       d="M 38,39 H 14.222261 C 13.938042,33.457541 22.561194,26.818066 18.717558,22.435201 14.577229,19.307655 7.0535669,24.34426 5.6843273,25.621193 4.0639404,16.464759 8.8026488,14.504725 11.673096,14.971763 c 0.595942,0.09696 3.1366,0.199326 1.660388,0.134021 0,0 2.972382,2.917601 1.37935,1.255354 C 13.759599,15.532055 13.558127,14.718 13.82833,13.969059 14.57814,11.890754 19.465199,10.124458 21.494177,10.119267 38.700418,7.9462503 38.304152,26.99007 38,39 Z"
       fill="#ffffff"
       id="path5871"
       style="fill:#888888;fill-opacity:1;stroke:#888888;stroke-opacity:1" />
    <path
       d="m 24.279186,15.049123 c -1.741315,1.010486 -2.245744,0.136763 -0.499978,-0.866012 1.741315,-1.010486 2.245744,-0.136763 0.499978,0.866012 z"
       fill="#000000"
       id="path5875"
       style="fill:#888888;fill-opacity:1;stroke:#888888;stroke-opacity:1" />
  </g>
  <path
     style="fill:#888888;stroke:#888888;stroke-width:1.5;stroke-linecap:butt;stroke-linejoin:round;stroke-miterlimit:4;stroke-dasharray:none;stroke-opacity:1;fill-opacity:1"
     d="m 19.07647,11.089095 c -2.768354,5.127556 4.217737,9.74525 6.759498,12.586751 -0.246731,0.944547 -1.070093,0.792286 -2.301129,0.706604 -0.817672,-0.05691 -2.298404,-2.098006 -3.888476,-2.65669 -1.637322,-0.575284 -4.448565,-0.243375 -4.448565,-0.243375"
     id="path6450" />
  <path
     style="fill:#888888;stroke:#888888;stroke-width:1.2;stroke-linecap:butt;stroke-linejoin:miter;stroke-miterlimit:4;stroke-dasharray:none;stroke-opacity:1;fill-opacity:1"
     d="m 6.2980482,25.621193 c 2.8301055,-6.439862 8.6566428,-7.03062 13.8377048,-5.44707"
     id="path6468" /></symbol>
<symbol id="piece-wikimedia-fairy-Black_dabbaba" viewBox="0 0 12 12"><path d="M3.698 7.75h-.775q.022.218.135.42.04.073.084.135zm.68 0 .555.555q.045-.062.084-.135.107-.202.13-.42Zm-.006-.282h.78q-.028-.219-.135-.426-.039-.068-.09-.13Zm-.197-.196.556-.556q-.062-.05-.13-.09-.207-.107-.426-.135Zm-.28-.006v-.769q-.22.022-.422.13-.073.038-.134.083Zm.28 1.455q.22-.023.427-.135.067-.04.135-.084l-.562-.562Zm-.471-1.253-.562-.561q-.045.067-.084.135-.113.207-.135.426Zm-.365 1.034q.061.045.134.084.202.112.421.135v-.775Zm.696-2.297q.365 0 .702.18.342.18.522.522.18.337.18.702 0 .365-.18.702-.18.337-.522.522-.337.18-.702.18-.365 0-.708-.18-.337-.185-.516-.522-.18-.337-.18-.702 0-.365.18-.702.18-.343.516-.522.343-.18.708-.18Zm3.594 1.544h-.775q.022.22.134.421.04.073.085.135zm.679 0 .556.556q.045-.062.084-.135.107-.202.13-.42Zm-.006-.28h.78q-.027-.22-.134-.427-.04-.068-.09-.13Zm-.196-.197.556-.556q-.062-.05-.13-.09-.207-.107-.426-.135Zm-.28-.006v-.769q-.22.022-.422.13-.073.038-.135.083Zm.28 1.455q.219-.023.427-.135.067-.04.134-.084l-.561-.562Zm-.472-1.253-.561-.561q-.045.067-.085.135-.112.207-.134.426ZM7.27 8.502q.062.045.135.084.202.112.421.135v-.775Zm.696-2.297q.365 0 .702.18.343.18.523.522.18.337.18.702 0 .365-.18.702-.18.337-.523.522-.337.18-.702.18-.365 0-.707-.18-.337-.185-.517-.522t-.18-.702q0-.365.18-.702.18-.343.517-.522.342-.18.707-.18Zm-1.594.225H5.63q.061.09.117.19l.045.09h.416l.045-.09q.056-.1.118-.19zm-.764.561q-.011-.034-.101-.23-.202-.37-.556-.584l-.067-.04q-.41-.213-.848-.213-.264 0-.517.079-.163.05-.325.135l1.403-5.043h2.808l1.404 5.043q-.163-.085-.326-.135-.253-.079-.517-.079-.438 0-.842.214l-.073.039q-.331.196-.522.533-.079.146-.135.281Z" style="font-size:11.5px;line-height:0;font-family:Quivira;stroke-width:.15;stroke-linecap:square;stroke-linejoin:bevel;paint-order:markers stroke fill"/></symbol>
<symbol id="piece-mce-chess-bA" viewBox="0 0 45 45"><g style="fill:none;stroke:#000;stroke-width:1.5;stroke-linecap:round;stroke-linejoin:round"><g style="fill:#000;stroke-linecap:butt"><path d="M 9,36 C 12.39,35.03 19.11,36.43 22.5,34 C 25.89,36.43 32.61,35.03 36,36 C 36,36 37.65,36.54 39,38 C 38.32,38.97 37.2,38.91 36,38.5 C 32.61,37.53 25.89,38.96 22.5,37.5 C 19.11,38.96 12.39,37.53 9,38.5 C 7.8,38.91 6.68,38.97 6,38 C 7.35,36.54 9,36 9,36 z"/><path d="M 15,32 C 17.5,34.5 27.5,34.5 30,32 C 30.5,30.5 30,30 30,30 C 30,27.5 27.5,26 27.5,26 C 33,24.5 33.5,14.5 22.5,10.5 C 11.5,14.5 12,24.5 17.5,26 C 17.5,26 15,27.5 15,30 C 15,30 14.5,30.5 15,32 z"/><path d="M 25,8 A 2.5,2.5 0 1 1 20,8 A 2.5,2.5 0 1 1 25,8 z"/></g><path d="M 17.5,26 L 27.5,26 M 15,30 L 30,30" style="fill:none;stroke:#fff;stroke-linejoin:miter"/><g transform="translate(14.5,11) scale(0.33)"><path d="M 22,10 C 32.5,11 38.5,18 38,39 L 15,39 C 15,30 25,32.5 23,18" style="fill:#fff;stroke:none"/><path d="M 24,18 C 24.38,20.91 18.45,25.37 16,27 C 13,29 13.18,31.34 11,31 C 9.958,30.06 12.41,27.96 11,28 C 10,28 11.19,29.23 10,30 C 9,30 5.997,31 6,26 C 6,24 12,14 12,14 C 12,14 13.89,12.1 14,10.5 C 13.27,9.506 13.5,8.5 13.5,7.5 C 14.5,6.5 16.5,10 16.5,10 L 18.5,10 C 18.5,10 19.28,8.008 21,7 C 22,7 22,10 22,10" style="fill:#fff;stroke:none"/></g></g></symbol>
<symbol id="piece-mce-chess-bP" viewBox="0 0 45 45"><path d="M 22,9 C 19.79,9 18,10.79 18,13 C 18,13.89 18.29,14.71 18.78,15.38 C 16.83,16.5 15.5,18.59 15.5,21 C 15.5,23.03 16.44,24.84 17.91,26.03 C 14.91,27.09 10.5,31.58 10.5,39.5 L 33.5,39.5 C 33.5,31.58 29.09,27.09 26.09,26.03 C 27.56,24.84 28.5,23.03 28.5,21 C 28.5,18.59 27.17,16.5 25.22,15.38 C 25.71,14.71 26,13.89 26,13 C 26,10.79 24.21,9 22,9 z" style="fill:#000;stroke:#000;stroke-width:1.5;stroke-linecap:round"/></symbol>
<symbol id="piece-mce-chess-wP" viewBox="0 0 45 45"><path d="M 22,9 C 19.79,9 18,10.79 18,13 C 18,13.89 18.29,14.71 18.78,15.38 C 16.83,16.5 15.5,18.59 15.5,21 C 15.5,23.03 16.44,24.84 17.91,26.03 C 14.91,27.09 10.5,31.58 10.5,39.5 L 33.5,39.5 C 33.5,31.58 29.09,27.09 26.09,26.03 C 27.56,24.84 28.5,23.03 28.5,21 C 28.5,18.59 27.17,16.5 25.22,15.38 C 25.71,14.71 26,13.89 26,13 C 26,10.79 24.21,9 22,9 z" style="fill:#fff;stroke:#000;stroke-width:1.5;stroke-linecap:round"/></symbol>
<symbol id="piece-mce-chess-wS" viewBox="0 0 45 45"><path d="M 22,9 C 19.79,9 18,10.79 18,13 C 18,13.89 18.29,14.71 18.78,15.38 C 16.83,16.5 15.5,18.59 15.5,21 C 15.5,23.03 16.44,24.84 17.91,26.03 C 14.91,27.09 10.5,31.58 10.5,39.5 L 33.5,39.5 C 33.5,31.58 29.09,27.09 26.09,26.03 C 27.56,24.84 28.5,23.03 28.5,21 C 28.5,18.59 27.17,16.5 25.22,15.38 C 25.71,14.71 26,13.89 26,13 C 26,10.79 24.21,9 22,9 z" style="fill:#fff;stroke:#000;stroke-width:1.5;stroke-linecap:round"/><g transform="translate(14,23) scale(0.35)"><path d="M 22.5,25 C 22.5,25 27,17.5 25.5,14.5 C 25.5,14.5 24.5,12 22.5,12 C 20.5,12 19.5,14.5 19.5,14.5 C 18,17.5 22.5,25 22.5,25" style="fill:#000;stroke:none"/><path d="M 12.5,37 C 18,40.5 27,40.5 32.5,37 L 32.5,30 C 32.5,30 41.5,25.5 38.5,19.5 C 34.5,13 25,16 22.5,23.5 L 22.5,27 L 22.5,23.5 C 20,16 10.5,13 6.5,19.5 C 3.5,25.5 12.5,30 12.5,30 L 12.5,37" style="fill:#000;stroke:none"/></g></symbol>
<symbol id="piece-wikimedia-fairy-White_chess_giraffe" viewBox="0 0 12 12"><path d="M9.24 8.704v-.281H4.186v.28Zm-.281-.562-.421-.28h-3.65l-.421.28Zm-.562-.561v-.14l-.561-.282H5.59l-.562.281v.14ZM4.304 1.982q0-.073.034-.14.039-.068.106-.101.068-.04.14-.04.074 0 .141.04.067.033.101.1.04.068.04.141 0 .073-.04.14-.034.068-.1.107-.068.034-.141.034-.073 0-.14-.034-.068-.04-.107-.106-.034-.068-.034-.14ZM2.72 3.992q0-.073.034-.14.04-.067.107-.101.067-.04.14-.04.073 0 .084.04.012.034-.039.101-.045.067-.045.14 0 .073.045.14.05.068.04.108-.012.033-.085.033-.073 0-.14-.033-.068-.04-.107-.107-.034-.068-.034-.14Zm3.027-.438q.331-.219.607-.544l.505.382v1.19q-.882-.275-1.112-1.028ZM5.59 5.688v1.19H7q-.225-.24-.49-.415.22-.724 1.045-1.005L6.932 2.33q-.258.225-.595.354l-.14-.163q.078-.033.14-.062.432-.241.685-.74.112-.214.174-.405.011-.095.017-.185-.169.01-.332.039-.05.011-.106.028-.528.253-.77.685-.033.062-.067.14l-.163-.14q.14-.354.388-.629-.534-.056-.708-.056-.241 0-.556.09-.309.09-.567.27-.399.364-.438.786-.04.42-.64.954-.623.427-.595.696.061.382.224.635.348.387 1.151-.152.506-.337.787-.443l.1-.034q.09-.028.152-.017.197.011.354.169.163.157.163.275v.056q.842.275 1.067 1.01-.332.22-.607.545Zm1.696 1.19h.55l-.213-1.072v.82ZM7.19 2.062l.927 4.958.561.28v.282l.843.561v.842H3.905v-.842l.843-.561V7.3l.561-.281V4.621q-.017-.27-.084-.337-.068-.067-.264-.078-.242-.04-1.045.5-.797.533-1.145.146-.292-.455-.292-.82 0-.365.6-.899.607-.539.647-.96.039-.421.438-.786.258-.18.572-.27.169-.05.32-.073Q4.99.601 4.95.534q-.034-.068-.034-.14 0-.074.034-.141.039-.068.106-.101.068-.04.14-.04.074 0 .141.04.068.033.101.1.04.068.04.141 0 .073-.04.14-.033.068-.1.495.128.005.392.033-.067-.572-.106-.64Q5.59.354 5.59.281q0-.073.034-.14.039-.068.106-.102Q5.798 0 5.87 0q.074 0 .141.04.067.033.101.1.04.068.04.14 0 .074-.04.141-.034.068-.101.668.146.017.32.034.13-.056.28-.101.428-.14.882-.174-.033.455-.168.887-.056.174-.135.326Z" style="font-size:11.5px;line-height:0;font-family:Quivira;stroke-width:.15;stroke-linecap:square;stroke-linejoin:bevel;paint-order:markers stroke fill"/></symbol>
<symbol id="piece-wikimedia-fairy-White_dabbaba" viewBox="0 0 12 12"><path d="M3.698 7.75h-.775c.015.145.06.286.135.42.026.049.054.094.084.135zm.68 0 .555.555a1.146 1.146 0 0 0 .213-.556Zm-.006-.282h.78a1.288 1.288 0 0 0-.135-.426.998.998 0 0 0-.09-.13Zm-.197-.196.556-.556a.997.997 0 0 0-.13-.09 1.288 1.288 0 0 0-.426-.135Zm-.28-.006v-.769a1.146 1.146 0 0 0-.556.213zm.28 1.455a1.135 1.135 0 0 0 .562-.22l-.562-.56Zm-.471-1.253-.562-.561c-.03.045-.058.09-.084.135-.075.138-.12.28-.135.426Zm-.365 1.034c.04.03.086.058.134.084.135.075.275.12.421.135v-.775Zm.696-2.297c.243 0 .477.06.702.18.228.12.402.294.522.522.12.225.18.458.18.702 0 .243-.06.477-.18.702-.12.224-.294.398-.522.522a1.472 1.472 0 0 1-1.41 0 1.263 1.263 0 0 1-.516-.522 1.472 1.472 0 0 1-.18-.702c0-.244.06-.477.18-.702a1.22 1.22 0 0 1 .516-.522c.229-.12.464-.18.708-.18Zm3.594 1.544h-.775c.015.146.06.287.134.421.027.049.055.094.085.135zm.679 0 .556.556a1.146 1.146 0 0 0 .213-.556Zm-.006-.28h.78a1.288 1.288 0 0 0-.134-.427.997.997 0 0 0-.09-.13Zm-.196-.197.556-.556a.997.997 0 0 0-.13-.09 1.288 1.288 0 0 0-.426-.135Zm-.28-.006v-.769a1.146 1.146 0 0 0-.557.213Zm.28 1.455a1.135 1.135 0 0 0 .561-.22l-.561-.56Zm-.472-1.253-.561-.561a1.135 1.135 0 0 0-.219.562ZM7.27 8.502c.041.03.086.058.135.084.135.075.275.12.421.135v-.775Zm.696-2.297c.244 0 .478.06.702.18.229.12.403.294.523.522.12.225.18.458.18.702 0 .243-.06.477-.18.702a1.26 1.26 0 0 1-.523.522 1.472 1.472 0 0 1-1.409 0 1.263 1.263 0 0 1-.517-.522 1.472 1.472 0 0 1-.18-.702c0-.244.06-.477.18-.702a1.22 1.22 0 0 1 .517-.522 1.5 1.5 0 0 1 .707-.18Zm.427-.517-1.27-4.312H4.877L3.608 5.688a2.086 2.086 0 0 1 1.415.208c.131.071.25.156.36.253h1.235c.108-.097.23-.182.365-.253a2.054 2.054 0 0 1 1.41-.208zm-2.021.742H5.63c.04.06.08.123.117.19l.045.09h.416l.045-.09c.037-.067.077-.13.118-.19Zm-.764.561a4.222 4.222 0 0 0-.101-.23 1.517 1.517 0 0 0-.556-.584l-.067-.04a1.814 1.814 0 0 0-.848-.213 1.73 1.73 0 0 0-.517.079 1.998 1.998 0 0 0-.325.135l1.403-5.043h2.808l1.404 5.043a1.998 1.998 0 0 0-.326-.135 1.73 1.73 0 0 0-.517-.079c-.292 0-.572.071-.842.214l-.073.039c-.22.131-.395.309-.522.533a3.15 3.15 0 0 0-.135.281Zm-1.572.337a.275.275 0 0 0-.14.04.252.252 0 0 0-.107.1.31.31 0 0 0 0 .281c.026.045.062.08.106.107a.31.31 0 0 0 .281 0 .252.252 0 0 0 .101-.107.275.275 0 0 0 0-.28.22.22 0 0 0-.1-.102.275.275 0 0 0-.141-.039Zm3.93 0a.275.275 0 0 0-.14.04.252.252 0 0 0-.107.1.31.31 0 0 0 0 .281c.027.045.062.08.107.107a.31.31 0 0 0 .28 0 .252.252 0 0 0 .102-.107.275.275 0 0 0 0-.28.22.22 0 0 0-.101-.102.275.275 0 0 0-.14-.039Z" style="font-size:11.5px;line-height:0;font-family:Quivira;stroke-width:.15;stroke-linecap:square;stroke-linejoin:bevel;paint-order:markers stroke fill"/></symbol>
<symbol id="piece-mce-chess-wA" viewBox="0 0 45 45"><g style="fill:none;stroke:#000;stroke-width:1.5;stroke-linecap:round;stroke-linejoin:round"><g style="fill:#fff;stroke-linecap:butt"><path d="M 9,36 C 12.39,35.03 19.11,36.43 22.5,34 C 25.89,36.43 32.61,35.03 36,36 C 36,36 37.65,36.54 39,38 C 38.32,38.97 37.2,38.91 36,38.5 C 32.61,37.53 25.89,38.96 22.5,37.5 C 19.11,38.96 12.39,37.53 9,38.5 C 7.8,38.91 6.68,38.97 6,38 C 7.35,36.54 9,36 9,36 z"/><path d="M 15,32 C 17.5,34.5 27.5,34.5 30,32 C 30.5,30.5 30,30 30,30 C 30,27.5 27.5,26 27.5,26 C 33,24.5 33.5,14.5 22.5,10.5 C 11.5,14.5 12,24.5 17.5,26 C 17.5,26 15,27.5 15,30 C 15,30 14.5,30.5 15,32 z"/><path d="M 25,8 A 2.5,2.5 0 1 1 20,8 A 2.5,2.5 0 1 1 25,8 z"/></g><path d="M 17.5,26 L 27.5,26 M 15,30 L 30,30" style="fill:none;stroke:#000;stroke-linejoin:miter"/><g transform="translate(14.5,11) scale(0.33)"><path d="M 22,10 C 32.5,11 38.5,18 38,39 L 15,39 C 15,30 25,32.5 23,18" style="fill:#000;stroke:none"/><path d="M 24,18 C 24.38,20.91 18.45,25.37 16,27 C 13,29 13.18,31.34 11,31 C 9.958,30.06 12.41,27.96 11,28 C 10,28 11.19,29.23 10,30 C 9,30 5.997,31 6,26 C 6,24 12,14 12,14 C 12,14 13.89,12.1 14,10.5 C 13.27,9.506 13.5,8.5 13.5,7.5 C 14.5,6.5 16.5,10 16.5,10 L 18.5,10 C 18.5,10 19.28,8.008 21,7 C 22,7 22,10 22,10" style="fill:#000;stroke:none"/></g></g></symbol>
</defs>

<rect x="24" y="24" width="38" height="38" fill="#f0d9b5" data-sq="a9" class="board-cell"/><rect x="62" y="24" width="38" height="38" fill="#b58863" data-sq="b9" class="board-cell"/><rect x="100" y="24" width="38" height="38" fill="#f0d9b5" data-sq="c9" class="board-cell"/><rect x="138" y="24" width="38" height="38" fill="#b58863" data-sq="d9" class="board-cell"/><rect x="176" y="24" width="38" height="38" fill="#f0d9b5" data-sq="e9" class="board-cell"/><rect x="214" y="24" width="38" height="38" fill="#b58863" data-sq="f9" class="board-cell"/><rect x="252" y="24" width="38" height="38" fill="#f0d9b5" data-sq="g9" class="board-cell"/><rect x="290" y="24" width="38" height="38" fill="#b58863" data-sq="h9" class="board-cell"/><rect x="328" y="24" width="38" height="38" fill="#f0d9b5" data-sq="i9" class="board-cell"/><rect x="24" y="62" width="38" height="38" fill="#b58863" data-sq="a8" class="board-cell"/><rect x="62" y="62" width="38" height="38" fill="#f0d9b5" data-sq="b8" class="board-cell"/><rect x="100" y="62" width="38" height="38" fill="#b58863" data-sq="c8" class="board-cell"/><rect x="138" y="62" width="38" height="38" fill="#f0d9b5" data-sq="d8" class="board-cell"/><rect x="176" y="62" width="38" height="38" fill="#b58863" data-sq="e8" class="board-cell"/><rect x="214" y="62" width="38" height="38" fill="#f0d9b5" data-sq="f8" class="board-cell"/><rect x="252" y="62" width="38" height="38" fill="#b58863" data-sq="g8" class="board-cell"/><rect x="290" y="62" width="38" height="38" fill="#f0d9b5" data-sq="h8" class="board-cell"/><rect x="328" y="62" width="38" height="38" fill="#b58863" data-sq="i8" class="board-cell"/><rect x="24" y="100" width="38" height="38" fill="#f0d9b5" data-sq="a7" class="board-cell"/><rect x="62" y="100" width="38" height="38" fill="#b58863" data-sq="b7" class="board-cell"/><rect x="100" y="100" width="38" height="38" fill="#f0d9b5" data-sq="c7" class="board-cell"/><rect x="138" y="100" width="38" height="38" fill="#b58863" data-sq="d7" class="board-cell"/><rect x="176" y="100" width="38" height="38" fill="#f0d9b5" data-sq="e7" class="board-cell"/><rect x="214" y="100" width="38" height="38" fill="#b58863" data-sq="f7" class="board-cell"/><rect x="252" y="100" width="38" height="38" fill="#f0d9b5" data-sq="g7" class="board-cell"/><rect x="290" y="100" width="38" height="38" fill="#b58863" data-sq="h7" class="board-cell"/><rect x="328" y="100" width="38" height="38" fill="#f0d9b5" data-sq="i7" class="board-cell"/><rect x="24" y="138" width="38" height="38" fill="#b58863" data-sq="a6" class="board-cell"/><rect x="62" y="138" width="38" height="38" fill="#f0d9b5" data-sq="b6" class="board-cell"/><rect x="100" y="138" width="38" height="38" fill="#b58863" data-sq="c6" class="board-cell"/><rect x="138" y="138" width="38" height="38" fill="#f0d9b5" data-sq="d6" class="board-cell"/><rect x="176" y="138" width="38" height="38" fill="#b58863" data-sq="e6" class="board-cell"/><rect x="214" y="138" width="38" height="38" fill="#f0d9b5" data-sq="f6" class="board-cell"/><rect x="252" y="138" width="38" height="38" fill="#b58863" data-sq="g6" class="board-cell"/><rect x="290" y="138" width="38" height="38" fill="#f0d9b5" data-sq="h6" class="board-cell"/><rect x="328" y="138" width="38" height="38" fill="#b58863" data-sq="i6" class="board-cell"/><rect x="24" y="176" width="38" height="38" fill="#f0d9b5" data-sq="a5" class="board-cell"/><rect x="62" y="176" width="38" height="38" fill="#b58863" data-sq="b5" class="board-cell"/><rect x="100" y="176" width="38" height="38" fill="#f0d9b5" data-sq="c5" class="board-cell"/><rect x="138" y="176" width="38" height="38" fill="#b58863" data-sq="d5" class="board-cell"/><rect x="176" y="176" width="38" height="38" fill="#f0d9b5" data-sq="e5" class="board-cell"/><rect x="214" y="176" width="38" height="38" fill="#b58863" data-sq="f5" class="board-cell"/><rect x="252" y="176" width="38" height="38" fill="#f0d9b5" data-sq="g5" class="board-cell"/><rect x="290" y="176" width="38" height="38" fill="#b58863" data-sq="h5" class="board-cell"/><rect x="328" y="176" width="38" height="38" fill="#f0d9b5" data-sq="i5" class="board-cell"/><rect x="24" y="214" width="38" height="38" fill="#b58863" data-sq="a4" class="board-cell"/><rect x="62" y="214" width="38" height="38" fill="#f0d9b5" data-sq="b4" class="board-cell"/><rect x="100" y="214" width="38" height="38" fill="#b58863" data-sq="c4" class="board-cell"/><rect x="138" y="214" width="38" height="38" fill="#f0d9b5" data-sq="d4" class="board-cell"/><rect x="176" y="214" width="38" height="38" fill="#b58863" data-sq="e4" class="board-cell"/><rect x="214" y="214" width="38" height="38" fill="#f0d9b5" data-sq="f4" class="board-cell"/><rect x="252" y="214" width="38" height="38" fill="#b58863" data-sq="g4" class="board-cell"/><rect x="290" y="214" width="38" height="38" fill="#f0d9b5" data-sq="h4" class="board-cell"/><rect x="328" y="214" width="38" height="38" fill="#b58863" data-sq="i4" class="board-cell"/><rect x="24" y="252" width="38" height="38" fill="#f0d9b5" data-sq="a3" class="board-cell"/><rect x="62" y="252" width="38" height="38" fill="#b58863" data-sq="b3" class="board-cell"/><rect x="100" y="252" width="38" height="38" fill="#f0d9b5" data-sq="c3" class="board-cell"/><rect x="138" y="252" width="38" height="38" fill="#b58863" data-sq="d3" class="board-cell"/><rect x="176" y="252" width="38" height="38" fill="#f0d9b5" data-sq="e3" class="board-cell"/><rect x="214" y="252" width="38" height="38" fill="#b58863" data-sq="f3" class="board-cell"/><rect x="252" y="252" width="38" height="38" fill="#f0d9b5" data-sq="g3" class="board-cell"/><rect x="290" y="252" width="38" height="38" fill="#b58863" data-sq="h3" class="board-cell"/><rect x="328" y="252" width="38" height="38" fill="#f0d9b5" data-sq="i3" class="board-cell"/><rect x="24" y="290" width="38" height="38" fill="#b58863" data-sq="a2" class="board-cell"/><rect x="62" y="290" width="38" height="38" fill="#f0d9b5" data-sq="b2" class="board-cell"/><rect x="100" y="290" width="38" height="38" fill="#b58863" data-sq="c2" class="board-cell"/><rect x="138" y="290" width="38" height="38" fill="#f0d9b5" data-sq="d2" class="board-cell"/><rect x="176" y="290" width="38" height="38" fill="#b58863" data-sq="e2" class="board-cell"/><rect x="214" y="290" width="38" height="38" fill="#f0d9b5" data-sq="f2" class="board-cell"/><rect x="252" y="290" width="38" height="38" fill="#b58863" data-sq="g2" class="board-cell"/><rect x="290" y="290" width="38" height="38" fill="#f0d9b5" data-sq="h2" class="board-cell"/><rect x="328" y="290" width="38" height="38" fill="#b58863" data-sq="i2" class="board-cell"/><rect x="24" y="328" width="38" height="38" fill="#f0d9b5" data-sq="a1" class="board-cell"/><rect x="62" y="328" width="38" height="38" fill="#b58863" data-sq="b1" class="board-cell"/><rect x="100" y="328" width="38" height="38" fill="#f0d9b5" data-sq="c1" class="board-cell"/><rect x="138" y="328" width="38" height="38" fill="#b58863" data-sq="d1" class="board-cell"/><rect x="176" y="328" width="38" height="38" fill="#f0d9b5" data-sq="e1" class="board-cell"/><rect x="214" y="328" width="38" height="38" fill="#b58863" data-sq="f1" class="board-cell"/><rect x="252" y="328" width="38" height="38" fill="#f0d9b5" data-sq="g1" class="board-cell"/><rect x="290" y="328" width="38" height="38" fill="#b58863" data-sq="h1" class="board-cell"/><rect x="328" y="328" width="38" height="38" fill="#f0d9b5" data-sq="i1" class="board-cell"/>
<g pointer-events="none"><use href="#piece-mce-chess-bS" x="24" y="24" width="38" height="38"/><use href="#piece-wikimedia-fairy-Black_chess_giraffe" x="62" y="24" width="38" height="38"/><use href="#piece-playstrategy-mono-eagle" x="100" y="24" width="38" height="38"/><use href="#piece-wikimedia-fairy-Black_dabbaba" x="138" y="24" width="38" height="38"/><use href="#piece-mce-chess-bA" x="176" y="24" width="38" height="38"/><use href="#piece-wikimedia-fairy-Black_dabbaba" x="252" y="24" width="38" height="38"/><use href="#piece-playstrategy-mono-eagle" x="290" y="24" width="38" height="38"/><use href="#piece-mce-chess-bS" x="328" y="24" width="38" height="38"/><use href="#piece-mce-chess-bP" x="62" y="100" width="38" height="38"/><use href="#piece-mce-chess-bP" x="100" y="100" width="38" height="38"/><use href="#piece-mce-chess-bP" x="138" y="100" width="38" height="38"/><use href="#piece-mce-chess-bP" x="176" y="100" width="38" height="38"/><use href="#piece-mce-chess-bP" x="214" y="100" width="38" height="38"/><use href="#piece-mce-chess-bP" x="252" y="100" width="38" height="38"/><use href="#piece-mce-chess-bP" x="290" y="100" width="38" height="38"/><use href="#piece-mce-chess-wP" x="62" y="252" width="38" height="38"/><use href="#piece-mce-chess-wP" x="100" y="252" width="38" height="38"/><use href="#piece-mce-chess-wP" x="138" y="252" width="38" height="38"/><use href="#piece-mce-chess-wP" x="176" y="252" width="38" height="38"/><use href="#piece-mce-chess-wP" x="214" y="252" width="38" height="38"/><use href="#piece-mce-chess-wP" x="252" y="252" width="38" height="38"/><use href="#piece-mce-chess-wP" x="290" y="252" width="38" height="38"/><use href="#piece-mce-chess-wS" x="24" y="328" width="38" height="38"/><use href="#piece-wikimedia-fairy-White_chess_giraffe" x="62" y="328" width="38" height="38"/><use href="#piece-playstrategy-mono-eagle" x="100" y="328" width="38" height="38"/><use href="#piece-wikimedia-fairy-White_dabbaba" x="138" y="328" width="38" height="38"/><use href="#piece-mce-chess-wA" x="176" y="328" width="38" height="38"/><use href="#piece-wikimedia-fairy-White_dabbaba" x="252" y="328" width="38" height="38"/><use href="#piece-playstrategy-mono-eagle" x="290" y="328" width="38" height="38"/><use href="#piece-mce-chess-wS" x="328" y="328" width="38" height="38"/></g>
<text x="43" y="381.6" text-anchor="middle" font-size="13" fill="#5c3a1e" font-family="monospace">a</text><text x="81" y="381.6" text-anchor="middle" font-size="13" fill="#5c3a1e" font-family="monospace">b</text><text x="119" y="381.6" text-anchor="middle" font-size="13" fill="#5c3a1e" font-family="monospace">c</text><text x="157" y="381.6" text-anchor="middle" font-size="13" fill="#5c3a1e" font-family="monospace">d</text><text x="195" y="381.6" text-anchor="middle" font-size="13" fill="#5c3a1e" font-family="monospace">e</text><text x="233" y="381.6" text-anchor="middle" font-size="13" fill="#5c3a1e" font-family="monospace">f</text><text x="271" y="381.6" text-anchor="middle" font-size="13" fill="#5c3a1e" font-family="monospace">g</text><text x="309" y="381.6" text-anchor="middle" font-size="13" fill="#5c3a1e" font-family="monospace">h</text><text x="347" y="381.6" text-anchor="middle" font-size="13" fill="#5c3a1e" font-family="monospace">i</text><text x="12" y="47.55" text-anchor="middle" font-size="13" fill="#5c3a1e" font-family="monospace">9</text><text x="12" y="85.55" text-anchor="middle" font-size="13" fill="#5c3a1e" font-family="monospace">8</text><text x="12" y="123.55" text-anchor="middle" font-size="13" fill="#5c3a1e" font-family="monospace">7</text><text x="12" y="161.55" text-anchor="middle" font-size="13" fill="#5c3a1e" font-family="monospace">6</text><text x="12" y="199.55" text-anchor="middle" font-size="13" fill="#5c3a1e" font-family="monospace">5</text><text x="12" y="237.55" text-anchor="middle" font-size="13" fill="#5c3a1e" font-family="monospace">4</text><text x="12" y="275.55" text-anchor="middle" font-size="13" fill="#5c3a1e" font-family="monospace">3</text><text x="12" y="313.55" text-anchor="middle" font-size="13" fill="#5c3a1e" font-family="monospace">2</text><text x="12" y="351.55" text-anchor="middle" font-size="13" fill="#5c3a1e" font-family="monospace">1</text>
</svg>