<svg xmlns="http://www.w3.org/2000/svg" viewBox="0 0 360 360" width="360" height="360">
<defs>
<symbol id="piece-mce-chess-bR" viewBox="0 0 45 45"><g style="fill:#000;stroke:#000;stroke-width:1.5;stroke-linecap:round;stroke-linejoin:round"><path d="M 9,39 L 36,39 L 36,36 L 9,36 L 9,39 z"/><path d="M 12,36 L 12,32 L 33,32 L 33,36 L 12,36 z"/><path d="M 11,14 L 11,9 L 15,9 L 15,11 L 20,11 L 20,9 L 25,9 L 25,11 L 30,11 L 30,9 L 34,9 L 34,14"/><path d="M 34,14 L 31,17 L 14,17 L 11,14"/><path d="M 31,17 L 31,29.5 L 14,29.5 L 14,17"/><path d="M 31,29.5 L 32.5,32 L 12.5,32 L 14,29.5"/><path d="M 11,14 L 34,14" style="fill:none;stroke:#fff;stroke-linejoin:miter"/><path d="M 12,35.5 L 33,35.5" style="fill:none;stroke:#fff;stroke-width:1"/><path d="M 13,31.5 L 32,31.5" style="fill:none;stroke:#fff;stroke-width:1"/><path d="M 14,29.5 L 31,29.5" style="fill:none;stroke:#fff;stroke-width:1"/></g></symbol>
<symbol id="piece-mce-chess-bN" viewBox="0 0 45 45"><g style="fill:none;stroke:#000;stroke-width:1.5;stroke-linecap:round;stroke-linejoin:round"><path d="M 22,10 C 32.5,11 38.5,18 38,39 L 15,39 C 15,30 25,32.5 23,18" style="fill:#000"/><path d="M 24,18 C 24.38,20.91 18.45,25.37 16,27 C 13,29 13.18,31.34 11,31 C 9.958,30.06 12.41,27.96 11,28 C 10,28 11.19,29.23 10,30 C 9,30 5.997,31 6,26 C 6,24 12,14 12,14 C 12,14 13.89,12.1 14,10.5 C 13.27,9.506 13.5,8.5 13.5,7.5 C 14.5,6.5 16.5,10 16.5,10 L 18.5,10 C 18.5,10 19.28,8.008 21,7 C 22,7 22,10 22,10" style="fill:#000"/><path d="M 9.5,25.5 A 0.5,0.5 0 1 1 8.5,25.5 A 0.5,0.5 0 1 1 9.5,25.5 z" style="fill:#fff"/><path d="M 15,15.5 A 0.5,1.5 0 1 1 14,15.5 A 0.5,1.5 0 1 1 15,15.5 z" transform="matrix(0.866,0.5,-0.5,0.866,9.693,-5.173)" style="fill:#fff"/><path d="M 24.55,10.4 L 24.1,11.85 L 24.6,12 C 27.75,13 30.25,14.49 32.5,18.75 C 34.75,23.01 35.75,29.06 35.25,39 L 35.2,39.5 L 37.45,39.5 L 37.5,39 C 38,28.94 36.62,22.15 34.25,17.66 C 31.88,13.17 28.46,11.02 25.06,10.5 L 24.55,10.4 z" style="fill:#fff;stroke:none"/></g></symbol>
<symbol id="piece-wikimedia-standard-Chess_Udt45" viewBox="0 0 45 45"><g>
  <title>Unicorn</title>
  <g id="Head" style="opacity:1; fill:none; fill-opacity:1; fill-rule:evenodd; stroke:#000000; stroke-width:1.5; stroke-linecap:round;stroke-linejoin:round;stroke-miterlimit:4; stroke-dasharray:none; stroke-opacity:1;">
    <path id="Neck" d="M 22,10 C 32.5,11 38.5,18 38,39 L 15,39 C 15,30 25,32.5 23,18" style="fill:#000000; stroke:#000000;"/>
    <path id="Face" fill="#000000" d="m24,18c0.38,2.91 -5.55,7.37 -8,9c-3,2 -2.82,4.34 -5,4c-1.042,-0.94 1.41,-3.04 0,-3c-1,0 0.19,1.23 -1,2c-1,0 -4,1 -4,-4c0,-2 6,-12 6,-12c0,0 -7.5275,-6.475 -7.0413,-7.15c0.4863,-0.675 8.9863,4.45 9.0413,3.65c-0.73,-0.994 -0.5,-2 -0.5,-3c1,-1 3,2.5 3,2.5l2,0c0,0 0.78,-1.992 2.5,-3c1,0 1,3 1,3" style="fill:#000000; stroke:#000000;"/>
    <path id="Nose" d="M 9.5 25.5 A 0.5 0.5 0 1 1 8.5,25.5 A 0.5 0.5 0 1 1 9.5 25.5 z" style="fill:#ffffff; stroke:#ffffff;"/>
    <path id="Eye" d="M 15 15.5 A 0.5 1.5 0 1 1  14,15.5 A 0.5 1.5 0 1 1  15 15.5 z" transform="matrix(0.866,0.5,-0.5,0.866,9.693,-5.173)" style="fill:#ffffff; stroke:#ffffff;"/>
    <path id="Mane" d="M 24.55,10.4 L 24.1,11.85 L 24.6,12 C 27.75,13 30.25,14.49 32.5,18.75 C 34.75,23.01 35.75,29.06 35.25,39 L 35.2,39.5 L 37.45,39.5 L 37.5,39 C 38,28.94 36.62,22.15 34.25,17.66 C 31.88,13.17 28.46,11.02 25.06,10.5 L 24.55,10.4 z " style="fill:#ffffff; stroke:none;"/>
  </g>
 </g></symbol>
<symbol id="piece-mce-chess-bC" viewBox="0 0 45 45"><g style="fill:#000;stroke:#000;stroke-width:1.5;stroke-linecap:round;stroke-linejoin:round"><path d="M 9,39 L 36,39 L 36,36 L 9,36 L 9,39 z"/><path d="M 12,36 L 12,32 L 33,32 L 33,36 L 12,36 z"/><path d="M 11,14 L 11,9 L 15,9 L 15,11 L 20,11 L 20,9 L 25,9 L 25,11 L 30,11 L 30,9 L 34,9 L 34,14"/><path d="M 34,14 L 31,17 L 14,17 L 11,14"/><path d="M 31,17 L 31,29.5 L 14,29.5 L 14,17"/><path d="M 31,29.5 L 32.5,32 L 12.5,32 L 14,29.5"/><path d="M 11,14 L 34,14" style="fill:none;stroke:#fff;stroke-linejoin:miter"/><path d="M 12,35.5 L 33,35.5" style="fill:none;stroke:#fff;stroke-width:1"/><path d="M 13,31.5 L 32,31.5" style="fill:none;stroke:#fff;stroke-width:1"/><path d="M 14,29.5 L 31,29.5" style="fill:none;stroke:#fff;stroke-width:1"/></g><g transform="translate(14.5,15) scale(0.33)"><path d="M 22,10 C 32.5,11 38.5,18 38,39 L 15,39 C 15,30 25,32.5 23,18" style="fill:#fff;stroke:none"/><path d="M 24,18 C 24.38,20.91 18.45,25.37 16,27 C 13,29 13.18,31.34 11,31 C 9.958,30.06 12.41,27.96 11,28 C 10,28 11.19,29.23 10,30 C 9,30 5.997,31 6,26 C 6,24 12,14 12,14 C 12,14 13.89,12.1 14,10.5 C 13.27,9.506 13.5,8.5 13.5,7.5 C 14.5,6.5 16.5,10 16.5,10 L 18.5,10 C 18.5,10 19.28,8.008 21,7 C 22,7 22,10 22,10" style="fill:#fff;stroke:none"/></g></symbol>
<symbol id="piece-mce-chess-bL" viewBox="0 0 45 45"><g transform="translate(-2,-2) scale(0.6)"><g style="fill:#000;stroke:#000;stroke-width:1.5;stroke-linecap:round;stroke-linejoin:round"><path d="M 9,39 L 36,39 L 36,36 L 9,36 L 9,39 z"/><path d="M 12,36 L 12,32 L 33,32 L 33,36 L 12,36 z"/><path d="M 11,14 L 11,9 L 15,9 L 15,11 L 20,11 L 20,9 L 25,9 L 25,11 L 30,11 L 30,9 L 34,9 L 34,14"/><path d="M 34,14 L 31,17 L 14,17 L 11,14"/><path d="M 31,17 L 31,29.5 L 14,29.5 L 14,17"/><path d="M 31,29.5 L 32.5,32 L 12.5,32 L 14,29.5"/><path d="M 11,14 L 34,14" style="fill:none;stroke:#fff;stroke-linejoin:miter"/><path d="M 12,35.5 L 33,35.5" style="fill:none;stroke:#fff;stroke-width:1"/><path d="M 13,31.5 L 32,31.5" style="fill:none;stroke:#fff;stroke-width:1"/><path d="M 14,29.5 L 31,29.5" style="fill:none;stroke:#fff;stroke-width:1"/></g></g><g transform="translate(20,20) scale(0.6)"><g style="fill:none;stroke:#000;stroke-width:1.5;stroke-linecap:round;stroke-linejoin:round"><path d="M 22,10 C 32.5,11 38.5,18 38,39 L 15,39 C 15,30 25,32.5 23,18" style="fill:#000"/><path d="M 24,18 C 24.38,20.91 18.45,25.37 16,27 C 13,29 13.18,31.34 11,31 C 9.958,30.06 12.41,27.96 11,28 C 10,28 11.19,29.23 10,30 C 9,30 5.997,31 6,26 C 6,24 12,14 12,14 C 12,14 13.89,12.1 14,10.5 C 13.27,9.506 13.5,8.5 13.5,7.5 C 14.5,6.5 16.5,10 16.5,10 L 18.5,10 C 18.5,10 19.28,8.008 21,7 C 22,7 22,10 22,10" style="fill:#000"/><path d="M 9.5,25.5 A 0.5,0.5 0 1 1 8.5,25.5 A 0.5,0.5 0 1 1 9.5,25.5 z" style="fill:#fff"/><path d="M 15,15.5 A 0.5,1.5 0 1 1 14,15.5 A 0.5,1.5 0 1 1 15,15.5 z" transform="matrix(0.866,0.5,-0.5,0.866,9.693,-5.173)" style="fill:#fff"/><path d="M 24.55,10.4 L 24.1,11.85 L 24.6,12 C 27.75,13 30.25,14.49 32.5,18.75 C 34.75,23.01 35.75,29.06 35.25,39 L 35.2,39.5 L 37.45,39.5 L 37.5,39 C 38,28.94 36.62,22.15 34.25,17.66 C 31.88,13.17 28.46,11.02 25.06,10.5 L 24.55,10.4 z" style="fill:#fff;stroke:none"/></g></g></symbol>
<symbol id="piece-mce-chess-bG" viewBox="0 0 45 45"><g transform="translate(10,10) scale(0.56)"><path d="M 22,9 C 19.79,9 18,10.79 18,13 C 18,13.89 18.29,14.71 18.78,15.38 C 16.83,16.5 15.5,18.59 15.5,21 C 15.5,23.03 16.44,24.84 17.91,26.03 C 14.91,27.09 10.5,31.58 10.5,39.5 L 33.5,39.5 C 33.5,31.58 29.09,27.09 26.09,26.03 C 27.56,24.84 28.5,23.03 28.5,21 C 28.5,18.59 27.17,16.5 25.22,15.38 C 25.71,14.71 26,13.89 26,13 C 26,10.79 24.21,9 22,9 z" style="fill:#000;stroke:#000;stroke-width:1.5;stroke-linecap:round"/></g><g transform="translate(0,0) scale(0.22)"><path d="M 22,9 C 19.79,9 18,10.79 18,13 C 18,13.89 18.29,14.71 18.78,15.38 C 16.83,16.5 15.5,18.59 15.5,21 C 15.5,23.03 16.44,24.84 17.91,26.03 C 14.91,27.09 10.5,31.58 10.5,39.5 L 33.5,39.5 C 33.5,31.58 29.09,27.09 26.09,26.03 C 27.56,24.84 28.5,23.03 28.5,21 C 28.5,18.59 27.17,16.5 25.22,15.38 C 25.71,14.71 26,13.89 26,13 C 26,10.79 24.21,9 22,9 z" style="fill:#fff;stroke:none"/></g><g transform="translate(35,0) scale(0.22)"><path d="M 22,9 C 19.79,9 18,10.79 18,13 C 18,13.89 18.29,14.71 18.78,15.38 C 16.83,16.5 15.5,18.59 15.5,21 C 15.5,23.03 16.44,24.84 17.91,26.03 C 14.91,27.09 10.5,31.58 10.5,39.5 L 33.5,39.5 C 33.5,31.58 29.09,27.09 26.09,26.03 C 27.56,24.84 28.5,23.03 28.5,21 C 28.5,18.59 27.17,16.5 25.22,15.38 C 25.71,14.71 26,13.89 26,13 C 26,10.79 24.21,9 22,9 z" style="fill:#fff;stroke:none"/></g><g transform="translate(0,35) scale(0.22)"><path d="M 22,9 C 19.79,9 18,10.79 18,13 C 18,13.89 18.29,14.71 18.78,15.38 C 16.83,16.5 15.5,18.59 15.5,21 C 15.5,23.03 16.44,24.84 17.91,26.03 C 14.91,27.09 10.5,31.58 10.5,39.5 L 33.5,39.5 C 33.5,31.58 29.09,27.09 26.09,26.03 C 27.56,24.84 28.5,23.03 28.5,21 C 28.5,18.59 27.17,16.5 25.22,15.38 C 25.71,14.71 26,13.89 26,13 C 26,10.79 24.21,9 22,9 z" style="fill:#fff;stroke:none"/></g><g transform="translate(35,35) scale(0.22)"><path d="M 22,9 C 19.79,9 18,10.79 18,13 C 18,13.89 18.29,14.71 18.78,15.38 C 16.83,16.5 15.5,18.59 15.5,21 C 15.5,23.03 16.44,24.84 17.91,26.03 C 14.91,27.09 10.5,31.58 10.5,39.5 L 33.5,39.5 C 33.5,31.58 29.09,27.09 26.09,26.03 C 27.56,24.84 28.5,23.03 28.5,21 C 28.5,18.59 27.17,16.5 25.22,15.38 C 25.71,14.71 26,13.89 26,13 C 26,10.79 24.21,9 22,9 z" style="fill:#fff;stroke:none"/></g></symbol>
<symbol id="piece-mce-chess-bK" viewBox="0 0 45 45"><g style="fill:#000;stroke:#000;stroke-width:1.5;stroke-linejoin:round"><path d="M 22.5,11.63 L 22.5,6" style="fill:none;stroke:#fff;stroke-linejoin:miter"/><path d="M 20,8 L 25,8" style="fill:none;stroke:#fff;stroke-linejoin:miter"/><path d="M 22.5,25 C 22.5,25 27,17.5 25.5,14.5 C 25.5,14.5 24.5,12 22.5,12 C 20.5,12 19.5,14.5 19.5,14.5 C 18,17.5 22.5,25 22.5,25"/><path d="M 12.5,37 C 18,40.5 27,40.5 32.5,37 L 32.5,30 C 32.5,30 41.5,25.5 38.5,19.5 C 34.5,13 25,16 22.5,23.5 L 22.5,27 L 22.5,23.5 C 20,16 10.5,13 6.5,19.5 C 3.5,25.5 12.5,30 12.5,30 L 12.5,37"/><path d="M 12.5,30 C 18,27 27,27 32.5,30" style="fill:none;stroke:#fff"/><path d="M 12.5,33.5 C 18,30.5 27,30.5 32.5,33.5" style="fill:none;stroke:#fff"/><path d="M 12.5,37 C 18,34 27,34 32.5,37" style="fill:none;stroke:#fff"/></g></symbol>
<symbol id="piece-mce-chess-bP" viewBox="0 0 45 45"><path d="M 22,9 C 19.79,9 18,10.79 18,13 C 18,13.89 18.29,14.71 18.78,15.38 C 16.83,16.5 15.5,18.59 15.5,21 C 15.5,23.03 16.44,24.84 17.91,26.03 C 14.91,27.09 10.5,31.58 10.5,39.5 L 33.5,39.5 C 33.5,31.58 29.09,27.09 26.09,26.03 C 27.56,24.84 28.5,23.03 28.5,21 C 28.5,18.59 27.17,16.5 25.22,15.38 C 25.71,14.71 26,13.89 26,13 C 26,10.79 24.21,9 22,9 z" style="fill:#000;stroke:#000;stroke-width:1.5;stroke-linecap:round"/></symbol>
<symbol id="piece-mce-chess-wP" viewBox="0 0 45 45"><path d="M 22,9 C 19.79,9 18,10.79 18,13 C 18,13.89 18.29,14.71 18.78,15.38 C 16.83,16.5 15.5,18.59 15.5,21 C 15.5,23.03 16.44,24.84 17.91,26.03 C 14.91,27.09 10.5,31.58 10.5,39.5 L 33.5,39.5 C 33.5,31.58 29.09,27.09 26.09,26.03 C 27.56,24.84 28.5,23.03 28.5,21 C 28.5,18.59 27.17,16.5 25.22,15.38 C 25.71,14.71 26,13.89 26,13 C 26,10.79 24.21,9 22,9 z" style="fill:#fff;stroke:#000;stroke-width:1.5;stroke-linecap:round"/></symbol>
<symbol id="piece-mce-chess-wR" viewBox="0 0 45 45"><g style="fill:#fff;stroke:#000;stroke-width:1.5;stroke-linecap:round;stroke-linejoin:round"><path d="M 9,39 L 36,39 L 36,36 L 9,36 L 9,39 z"/><path d="M 12,36 L 12,32 L 33,32 L 33,36 L 12,36 z"/><path d="M 11,14 L 11,9 L 15,9 L 15,11 L 20,11 L 20,9 L 25,9 L 25,11 L 30,11 L 30,9 L 34,9 L 34,14"/><path d="M 34,14 L 31,17 L 14,17 L 11,14"/><path d="M 31,17 L 31,29.5 L 14,29.5 L 14,17"/><path d="M 31,29.5 L 32.5,32 L 12.5,32 L 14,29.5"/><path d="M 11,14 L 34,14" style="fill:none"/></g></symbol>
<symbol id="piece-mce-chess-wN" viewBox="0 0 45 45"><g style="fill:none;stroke:#000;stroke-width:1.5;stroke-linecap:round;stroke-linejoin:round"><path d="M 22,10 C 32.5,11 38.5,18 38,39 L 15,39 C 15,30 25,32.5 23,18" style="fill:#fff"/><path d="M 24,18 C 24.38,20.91 18.45,25.37 16,27 C 13,29 13.18,31.34 11,31 C 9.958,30.06 12.41,27.96 11,28 C 10,28 11.19,29.23 10,30 C 9,30 5.997,31 6,26 C 6,24 12,14 12,14 C 12,14 13.89,12.1 14,10.5 C 13.27,9.506 13.5,8.5 13.5,7.5 C 14.5,6.5 16.5,10 16.5,10 L 18.5,10 C 18.5,10 19.28,8.008 21,7 C 22,7 22,10 22,10" style="fill:#fff"/><path d="M 9.5,25.5 A 0.5,0.5 0 1 1 8.5,25.5 A 0.5,0.5 0 1 1 9.5,25.5 z" style="fill:#000"/><path d="M 15,15.5 A 0.5,1.5 0 1 1 14,15.5 A 0.5,1.5 0 1 1 15,15.5 z" transform="matrix(0.866,0.5,-0.5,0.866,9.693,-5.173)" style="fill:#000"/></g></symbol>
<symbol id="piece-wikimedia-standard-Chess_Ult45" viewBox="0 0 45 45"><g>
  <title>Unicorn</title>
  <g id="Head" style="opacity:1; fill:none; fill-opacity:1; fill-rule:evenodd; stroke:#000000; stroke-width:1.5; stroke-linecap:round; stroke-linejoin:round; stroke-miterlimit:4; stroke-dasharray:none; stroke-opacity:1;">
    <path id="Neck" d="M 22,10 C 32.5,11 38.5,18 38,39 L 15,39 C 15,30 25,32.5 23,18" style="fill:#ffffff; stroke:#000000;"/>
   <path id="Face" d="m24,18c0.38,2.91 -5.55,7.37 -8,9c-3,2 -2.82,4.34 -5,4c-1.042,-0.94 1.41,-3.04 0,-3c-1,0 0.19,1.23 -1,2c-1,0 -4,1 -4,-4c0,-2 6,-12 6,-12c0,0 -7.5275,-6.475 -7.0413,-7.15c0.4863,-0.675 8.9863,4.45 9.0413,3.65c-0.73,-0.994 -0.5,-2 -0.5,-3c1,-1 3,2.5 3,2.5l2,0c0,0 0.78,-1.992 2.5,-3c1,0 1,3 1,3" style="fill:#ffffff; stroke:#000000;"/>
    <path id="Nose" d="M 9.5 25.5 A 0.5 0.5 0 1 1 8.5,25.5 A 0.5 0.5 0 1 1 9.5 25.5 z" style="fill:#000000; stroke:#000000;"/>
    <path id="Eye" d="M 15 15.5 A 0.5 1.5 0 1 1  14,15.5 A 0.5 1.5 0 1 1  15 15.5 z" transform="matrix(0.866,0.5,-0.5,0.866,9.693,-5.173)" style="fill:#000000; stroke:#000000;"/>
  </g>
 </g></symbol>
<symbol id="piece-mce-chess-wC" viewBox="0 0 45 45"><g style="fill:#fff;stroke:#000;stroke-width:1.5;stroke-linecap:round;stroke-linejoin:round"><path d="M 9,39 L 36,39 L 36,36 L 9,36 L 9,39 z"/><path d="M 12,36 L 12,32 L 33,32 L 33,36 L 12,36 z"/><path d="M 11,14 L 11,9 L 15,9 L 15,11 L 20,11 L 20,9 L 25,9 L 25,11 L 30,11 L 30,9 L 34,9 L 34,14"/><path d="M 34,14 L 31,17 L 14,17 L 11,14"/><path d="M 31,17 L 31,29.5 L 14,29.5 L 14,17"/><path d="M 31,29.5 L 32.5,32 L 12.5,32 L 14,29.5"/><path d="M 11,14 L 34,14" style="fill:none"/></g><g transform="translate(14.5,15) scale(0.33)"><path d="M 22,10 C 32.5,11 38.5,18 38,39 L 15,39 C 15,30 25,32.5 23,18" style="fill:#000;stroke:none"/><path d="M 24,18 C 24.38,20.91 18.45,25.37 16,27 C 13,29 13.18,31.34 11,31 C 9.958,30.06 12.41,27.96 11,28 C 10,28 11.19,29.23 10,30 C 9,30 5.997,31 6,26 C 6,24 12,14 12,14 C 12,14 13.89,12.1 14,10.5 C 13.27,9.506 13.5,8.5 13.5,7.5 C 14.5,6.5 16.5,10 16.5,10 L 18.5,10 C 18.5,10 19.28,8.008 21,7 C 22,7 22,10 22,10" style="fill:#000;stroke:none"/></g></symbol>
<symbol id="piece-mce-chess-wL" viewBox="0 0 45 45"><g transform="translate(-2,-2) scale(0.6)"><g style="fill:#fff;stroke:#000;stroke-width:1.5;stroke-linecap:round;stroke-linejoin:round"><path d="M 9,39 L 36,39 L 36,36 L 9,36 L 9,39 z"/><path d="M 12,36 L 12,32 L 33,32 L 33,36 L 12,36 z"/><path d="M 11,14 L 11,9 L 15,9 L 15,11 L 20,11 L 20,9 L 25,9 L 25,11 L 30,11 L 30,9 L 34,9 L 34,14"/><path d="M 34,14 L 31,17 L 14,17 L 11,14"/><path d="M 31,17 L 31,29.5 L 14,29.5 L 14,17"/><path d="M 31,29.5 L 32.5,32 L 12.5,32 L 14,29.5"/><path d="M 11,14 L 34,14" style="fill:none"/></g></g><g transform="translate(20,20) scale(0.6)"><g style="fill:none;stroke:#000;stroke-width:1.5;stroke-linecap:round;stroke-linejoin:round"><path d="M 22,10 C 32.5,11 38.5,18 38,39 L 15,39 C 15,30 25,32.5 23,18" style="fill:#fff"/><path d="M 24,18 C 24.38,20.91 18.45,25.37 16,27 C 13,29 13.18,31.34 11,31 C 9.958,30.06 12.41,27.96 11,28 C 10,28 11.19,29.23 10,30 C 9,30 5.997,31 6,26 C 6,24 12,14 12,14 C 12,14 13.89,12.1 14,10.5 C 13.27,9.506 13.5,8.5 13.5,7.5 C 14.5,6.5 16.5,10 16.5,10 L 18.5,10 C 18.5,10 19.28,8.008 21,7 C 22,7 22,10 22,10" style="fill:#fff"/><path d="M 9.5,25.5 A 0.5,0.5 0 1 1 8.5,25.5 A 0.5,0.5 0 1 1 9.5,25.5 z" style="fill:#000"/><path d="M 15,15.5 A 0.5,1.5 0 1 1 14,15.5 A 0.5,1.5 0 1 1 15,15.5 z" transform="matrix(0.866,0.5,-0.5,0.866,9.693,-5.173)" style="fill:#000"/></g></g></symbol>
<symbol id="piece-mce-chess-wG" viewBox="0 0 45 45"><g transform="translate(10,10) scale(0.56)"><path d="M 22,9 C 19.79,9 18,10.79 18,13 C 18,13.89 18.29,14.71 18.78,15.38 C 16.83,16.5 15.5,18.59 15.5,21 C 15.5,23.03 16.44,24.84 17.91,26.03 C 14.91,27.09 10.5,31.58 10.5,39.5 L 33.5,39.5 C 33.5,31.58 29.09,27.09 26.09,26.03 C 27.56,24.84 28.5,23.03 28.5,21 C 28.5,18.59 27.17,16.5 25.22,15.38 C 25.71,14.71 26,13.89 26,13 C 26,10.79 24.21,9 22,9 z" style="fill:#fff;stroke:#000;stroke-width:1.5;stroke-linecap:round"/></g><g transform="translate(0,0) scale(0.22)"><path d="M 22,9 C 19.79,9 18,10.79 18,13 C 18,13.89 18.29,14.71 18.78,15.38 C 16.83,16.5 15.5,18.59 15.5,21 C 15.5,23.03 16.44,24.84 17.91,26.03 C 14.91,27.09 10.5,31.58 10.5,39.5 L 33.5,39.5 C 33.5,31.58 29.09,27.09 26.09,26.03 C 27.56,24.84 28.5,23.03 28.5,21 C 28.5,18.59 27.17,16.5 25.22,15.38 C 25.71,14.71 26,13.89 26,13 C 26,10.79 24.21,9 22,9 z" style="fill:#000;stroke:none"/></g><g transform="translate(35,0) scale(0.22)"><path d="M 22,9 C 19.79,9 18,10.79 18,13 C 18,13.89 18.29,14.71 18.78,15.38 C 16.83,16.5 15.5,18.59 15.5,21 C 15.5,23.03 16.44,24.84 17.91,26.03 C 14.91,27.09 10.5,31.58 10.5,39.5 L 33.5,39.5 C 33.5,31.58 29.09,27.09 26.09,26.03 C 27.56,24.84 28.5,23.03 28.5,21 C 28.5,18.59 27.17,16.5 25.22,15.38 C 25.71,14.71 26,13.89 26,13 C 26,10.79 24.21,9 22,9 z" style="fill:#000;stroke:none"/></g><g transform="translate(0,35) scale(0.22)"><path d="M 22,9 C 19.79,9 18,10.79 18,13 C 18,13.89 18.29,14.71 18.78,15.38 C 16.83,16.5 15.5,18.59 15.5,21 C 15.5,23.03 16.44,24.84 17.91,26.03 C 14.91,27.09 10.5,31.58 10.5,39.5 L 33.5,39.5 C 33.5,31.58 29.09,27.09 26.09,26.03 C 27.56,24.84 28.5,23.03 28.5,21 C 28.5,18.59 27.17,16.5 25.22,15.38 C 25.71,14.71 26,13.89 26,13 C 26,10.79 24.21,9 22,9 z" style="fill:#000;stroke:none"/></g><g transform="translate(35,35) scale(0.22)"><path d="M 22,9 C 19.79,9 18,10.79 18,13 C 18,13.89 18.29,14.71 18.78,15.38 C 16.83,16.5 15.5,18.59 15.5,21 C 15.5,23.03 16.44,24.84 17.91,26.03 C 14.91,27.09 10.5,31.58 10.5,39.5 L 33.5,39.5 C 33.5,31.58 29.09,27.09 26.09,26.03 C 27.56,24.84 28.5,23.03 28.5,21 C 28.5,18.59 27.17,16.5 25.22,15.38 C 25.71,14.71 26,13.89 26,13 C 26,10.79 24.21,9 22,9 z" style="fill:#000;stroke:none"/></g></symbol>
<symbol id="piece-mce-chess-wK" viewBox="0 0 45 45"><g style="fill:#fff;stroke:#000;stroke-width:1.5;stroke-linejoin:round"><path d="M 22.5,11.63 L 22.5,6" style="fill:none;stroke-linejoin:miter"/><path d="M 20,8 L 25,8" style="fill:none;stroke-linejoin:miter"/><path d="M 22.5,25 C 22.5,25 27,17.5 25.5,14.5 C 25.5,14.5 24.5,12 22.5,12 C 20.5,12 19.5,14.5 19.5,14.5 C 18,17.5 22.5,25 22.5,25"/><path d="M 12.5,37 C 18,40.5 27,40.5 32.5,37 L 32.5,30 C 32.5,30 41.5,25.5 38.5,19.5 C 34.5,13 25,16 22.5,23.5 L 22.5,27 L 22.5,23.5 C 20,16 10.5,13 6.5,19.5 C 3.5,25.5 12.5,30 12.5,30 L 12.5,37"/><path d="M 12.5,30 C 18,27 27,27 32.5,30"/><path d="M 12.5,33.5 C 18,30.5 27,30.5 32.5,33.5"/><path d="M 12.5,37 C 18,34 27,34 32.5,37"/></g></symbol>
</defs>

<rect x="24" y="24" width="26" height="26" fill="#f0d9b5" data-sq="a12" class="board-cell"/><rect x="50" y="24" width="26" height="26" fill="#b58863" data-sq="b12" class="board-cell"/><rect x="76" y="24" width="26" height="26" fill="#f0d9b5" data-sq="c12" class="board-cell"/><rect x="102" y="24" width="26" height="26" fill="#b58863" data-sq="d12" class="board-cell"/><rect x="128" y="24" width="26" height="26" fill="#f0d9b5" data-sq="e12" class="board-cell"/><rect x="154" y="24" width="26" height="26" fill="#b58863" data-sq="f12" class="board-cell"/><rect x="180" y="24" width="26" height="26" fill="#f0d9b5" data-sq="g12" class="board-cell"/><rect x="206" y="24" width="26" height="26" fill="#b58863" data-sq="h12" class="board-cell"/><rect x="232" y="24" width="26" height="26" fill="#f0d9b5" data-sq="i12" class="board-cell"/><rect x="258" y="24" width="26" height="26" fill="#b58863" data-sq="j12" class="board-cell"/><rect x="284" y="24" width="26" height="26" fill="#f0d9b5" data-sq="k12" class="board-cell"/><rect x="310" y="24" width="26" height="26" fill="#b58863" data-sq="l12" class="board-cell"/><rect x="24" y="50" width="26" height="26" fill="#b58863" data-sq="a11" class="board-cell"/><rect x="50" y="50" width="26" height="26" fill="#f0d9b5" data-sq="b11" class="board-cell"/><rect x="76" y="50" width="26" height="26" fill="#b58863" data-sq="c11" class="board-cell"/><rect x="102" y="50" width="26" height="26" fill="#f0d9b5" data-sq="d11" class="board-cell"/><rect x="128" y="50" width="26" height="26" fill="#b58863" data-sq="e11" class="board-cell"/><rect x="154" y="50" width="26" height="26" fill="#f0d9b5" data-sq="f11" class="board-cell"/><rect x="180" y="50" width="26" height="26" fill="#b58863" data-sq="g11" class="board-cell"/><rect x="206" y="50" width="26" height="26" fill="#f0d9b5" data-sq="h11" class="board-cell"/><rect x="232" y="50" width="26" height="26" fill="#b58863" data-sq="i11" class="board-cell"/><rect x="258" y="50" width="26" height="26" fill="#f0d9b5" data-sq="j11" class="board-cell"/><rect x="284" y="50" width="26" height="26" fill="#b58863" data-sq="k11" class="board-cell"/><rect x="310" y="50" width="26" height="26" fill="#f0d9b5" data-sq="l11" class="board-cell"/><rect x="24" y="76" width="26" height="26" fill="#f0d9b5" data-sq="a10" class="board-cell"/><rect x="50" y="76" width="26" height="26" fill="#b58863" data-sq="b10" class="board-cell"/><rect x="76" y="76" width="26" height="26" fill="#f0d9b5" data-sq="c10" class="board-cell"/><rect x="102" y="76" width="26" height="26" fill="#b58863" data-sq="d10" class="board-cell"/><rect x="128" y="76" width="26" height="26" fill="#f0d9b5" data-sq="e10" class="board-cell"/><rect x="154" y="76" width="26" height="26" fill="#b58863" data-sq="f10" class="board-cell"/><rect x="180" y="76" width="26" height="26" fill="#f0d9b5" data-sq="g10" class="board-cell"/><rect x="206" y="76" width="26" height="26" fill="#b58863" data-sq="h10" class="board-cell"/><rect x="232" y="76" width="26" height="26" fill="#f0d9b5" data-sq="i10" class="board-cell"/><rect x="258" y="76" width="26" height="26" fill="#b58863" data-sq="j10" class="board-cell"/><rect x="284" y="76" width="26" height="26" fill="#f0d9b5" data-sq="k10" class="board-cell"/><rect x="310" y="76" width="26" height="26" fill="#b58863" data-sq="l10" class="board-cell"/><rect x="24" y="102" width="26" height="26" fill="#b58863" data-sq="a9" class="board-cell"/><rect x="50" y="102" width="26" height="26" fill="#f0d9b5" data-sq="b9" class="board-cell"/><rect x="76" y="102" width="26" height="26" fill="#b58863" data-sq="c9" class="board-cell"/><rect x="102" y="102" width="26" height="26" fill="#f0d9b5" data-sq="d9" class="board-cell"/><rect x="128" y="102" width="26" height="26" fill="#b58863" data-sq="e9" class="board-cell"/><rect x="154" y="102" width="26" height="26" fill="#f0d9b5" data-sq="f9" class="board-cell"/><rect x="180" y="102" width="26" height="26" fill="#b58863" data-sq="g9" class="board-cell"/><rect x="206" y="102" width="26" height="26" fill="#f0d9b5" data-sq="h9" class="board-cell"/><rect x="232" y="102" width="26" height="26" fill="#b58863" data-sq="i9" class="board-cell"/><rect x="258" y="102" width="26" height="26" fill="#f0d9b5" data-sq="j9" class="board-cell"/><rect x="284" y="102" width="26" height="26" fill="#b58863" data-sq="k9" class="board-cell"/><rect x="310" y="102" width="26" height="26" fill="#f0d9b5" data-sq="l9" class="board-cell"/><rect x="24" y="128" width="26" height="26" fill="#f0d9b5" data-sq="a8" class="board-cell"/><rect x="50" y="128" width="26" height="26" fill="#b58863" data-sq="b8" class="board-cell"/><rect x="76" y="128" width="26" height="26" fill="#f0d9b5" data-sq="c8" class="board-cell"/><rect x="102" y="128" width="26" height="26" fill="#b58863" data-sq="d8" class="board-cell"/><rect x="128" y="128" width="26" height="26" fill="#f0d9b5" data-sq="e8" class="board-cell"/><rect x="154" y="128" width="26" height="26" fill="#b58863" data-sq="f8" class="board-cell"/><rect x="180" y="128" width="26" height="26" fill="#f0d9b5" data-sq="g8" class="board-cell"/><rect x="206" y="128" width="26" height="26" fill="#b58863" data-sq="h8" class="board-cell"/><rect x="232" y="128" width="26" height="26" fill="#f0d9b5" data-sq="i8" class="board-cell"/><rect x="258" y="128" width="26" height="26" fill="#b58863" data-sq="j8" class="board-cell"/><rect x="284" y="128" width="26" height="26" fill="#f0d9b5" data-sq="k8" class="board-cell"/><rect x="310" y="128" width="26" height="26" fill="#b58863" data-sq="l8" class="board-cell"/><rect x="24" y="154" width="26" height="26" fill="#b58863" data-sq="a7" class="board-cell"/><rect x="50" y="154" width="26" height="26" fill="#f0d9b5" data-sq="b7" class="board-cell"/><rect x="76" y="154" width="26" height="26" fill="#b58863" data-sq="c7" class="board-cell"/><rect x="102" y="154" width="26" height="26" fill="#f0d9b5" data-sq="d7" class="board-cell"/><rect x="128" y="154" width="26" height="26" fill="#b58863" data-sq="e7" class="board-cell"/><rect x="154" y="154" width="26" height="26" fill="#f0d9b5" data-sq="f7" class="board-cell"/><rect x="180" y="154" width="26" height="26" fill="#b58863" data-sq="g7" class="board-cell"/><rect x="206" y="154" width="26" height="26" fill="#f0d9b5" data-sq="h7" class="board-cell"/><rect x="232" y="154" width="26" height="26" fill="#b58863" data-sq="i7" class="board-cell"/><rect x="258" y="154" width="26" height="26" fill="#f0d9b5" data-sq="j7" class="board-cell"/><rect x="284" y="154" width="26" height="26" fill="#b58863" data-sq="k7" class="board-cell"/><rect x="310" y="154" width="26" height="26" fill="#f0d9b5" data-sq="l7" class="board-cell"/><rect x="24" y="180" width="26" height="26" fill="#f0d9b5" data-sq="a6" class="board-cell"/><rect x="50" y="180" width="26" height="26" fill="#b58863" data-sq="b6" class="board-cell"/><rect x="76" y="180" width="26" height="26" fill="#f0d9b5" data-sq="c6" class="board-cell"/><rect x="102" y="180" width="26" height="26" fill="#b58863" data-sq="d6" class="board-cell"/><rect x="128" y="180" width="26" height="26" fill="#f0d9b5" data-sq="e6" class="board-cell"/><rect x="154" y="180" width="26" height="26" fill="#b58863" data-sq="f6" class="board-cell"/><rect x="180" y="180" width="26" height="26" fill="#f0d9b5" data-sq="g6" class="board-cell"/><rect x="206" y="180" width="26" height="26" fill="#b58863" data-sq="h6" class="board-cell"/><rect x="232" y="180" width="26" height="26" fill="#f0d9b5" data-sq="i6" class="board-cell"/><rect x="258" y="180" width="26" height="26" fill="#b58863" data-sq="j6" class="board-cell"/><rect x="284" y="180" width="26" height="26" fill="#f0d9b5" data-sq="k6" class="board-cell"/><rect x="310" y="180" width="26" height="26" fill="#b58863" data-sq="l6" class="board-cell"/><rect x="24" y="206" width="26" height="26" fill="#b58863" data-sq="a5" class="board-cell"/><rect x="50" y="206" width="26" height="26" fill="#f0d9b5" data-sq="b5" class="board-cell"/><rect x="76" y="206" width="26" height="26" fill="#b58863" data-sq="c5" class="board-cell"/><rect x="102" y="206" width="26" height="26" fill="#f0d9b5" data-sq="d5" class="board-cell"/><rect x="128" y="206" width="26" height="26" fill="#b58863" data-sq="e5" class="board-cell"/><rect x="154" y="206" width="26" height="26" fill="#f0d9b5" data-sq="f5" class="board-cell"/><rect x="180" y="206" width="26" height="26" fill="#b58863" data-sq="g5" class="board-cell"/><rect x="206" y="206" width="26" height="26" fill="#f0d9b5" data-sq="h5" class="board-cell"/><rect x="232" y="206" width="26" height="26" fill="#b58863" data-sq="i5" class="board-cell"/><rect x="258" y="206" width="26" height="26" fill="#f0d9b5" data-sq="j5" class="board-cell"/><rect x="284" y="206" width="26" height="26" fill="#b58863" data-sq="k5" class="board-cell"/><rect x="310" y="206" width="26" height="26" fill="#f0d9b5" data-sq="l5" class="board-cell"/><rect x="24" y="232" width="26" height="26" fill="#f0d9b5" data-sq="a4" class="board-cell"/><rect x="50" y="232" width="26" height="26" fill="#b58863" data-sq="b4" class="board-cell"/><rect x="76" y="232" width="26" height="26" fill="#f0d9b5" data-sq="c4" class="board-cell"/><rect x="102" y="232" width="26" height="26" fill="#b58863" data-sq="d4" class="board-cell"/><rect x="128" y="232" width="26" height="26" fill="#f0d9b5" data-sq="e4" class="board-cell"/><rect x="154" y="232" width="26" height="26" fill="#b58863" data-sq="f4" class="board-cell"/><rect x="180" y="232" width="26" height="26" fill="#f0d9b5" data-sq="g4" class="board-cell"/><rect x="206" y="232" width="26" height="26" fill="#b58863" data-sq="h4" class="board-cell"/><rect x="232" y="232" width="26" height="26" fill="#f0d9b5" data-sq="i4" class="board-cell"/><rect x="258" y="232" width="26" height="26" fill="#b58863" data-sq="j4" class="board-cell"/><rect x="284" y="232" width="26" height="26" fill="#f0d9b5" data-sq="k4" class="board-cell"/><rect x="310" y="232" width="26" height="26" fill="#b58863" data-sq="l4" class="board-cell"/><rect x="24" y="258" width="26" height="26" fill="#b58863" data-sq="a3" class="board-cell"/><rect x="50" y="258" width="26" height="26" fill="#f0d9b5" data-sq="b3" class="board-cell"/><rect x="76" y="258" width="26" height="26" fill="#b58863" data-sq="c3" class="board-cell"/><rect x="102" y="258" width="26" height="26" fill="#f0d9b5" data-sq="d3" class="board-cell"/><rect x="128" y="258" width="26" height="26" fill="#b58863" data-sq="e3" class="board-cell"/><rect x="154" y="258" width="26" height="26" fill="#f0d9b5" data-sq="f3" class="board-cell"/><rect x="180" y="258" width="26" height="26" fill="#b58863" data-sq="g3" class="board-cell"/><rect x="206" y="258" width="26" height="26" fill="#f0d9b5" data-sq="h3" class="board-cell"/><rect x="232" y="258" width="26" height="26" fill="#b58863" data-sq="i3" class="board-cell"/><rect x="258" y="258" width="26" height="26" fill="#f0d9b5" data-sq="j3" class="board-cell"/><rect x="284" y="258" width="26" height="26" fill="#b58863" data-sq="k3" class="board-cell"/><rect x="310" y="258" width="26" height="26" fill="#f0d9b5" data-sq="l3" class="board-cell"/><rect x="24" y="284" width="26" height="26" fill="#f0d9b5" data-sq="a2" class="board-cell"/><rect x="50" y="284" width="26" height="26" fill="#b58863" data-sq="b2" class="board-cell"/><rect x="76" y="284" width="26" height="26" fill="#f0d9b5" data-sq="c2" class="board-cell"/><rect x="102" y="284" width="26" height="26" fill="#b58863" data-sq="d2" class="board-cell"/><rect x="128" y="284" width="26" height="26" fill="#f0d9b5" data-sq="e2" class="board-cell"/><rect x="154" y="284" width="26" height="26" fill="#b58863" data-sq="f2" class="board-cell"/><rect x="180" y="284" width="26" height="26" fill="#f0d9b5" data-sq="g2" class="board-cell"/><rect x="206" y="284" width="26" height="26" fill="#b58863" data-sq="h2" class="board-cell"/><rect x="232" y="284" width="26" height="26" fill="#f0d9b5" data-sq="i2" class="board-cell"/><rect x="258" y="284" width="26" height="26" fill="#b58863" data-sq="j2" class="board-cell"/><rect x="284" y="284" width="26" height="26" fill="#f0d9b5" data-sq="k2" class="board-cell"/><rect x="310" y="284" width="26" height="26" fill="#b58863" data-sq="l2" class="board-cell"/><rect x="24" y="310" width="26" height="26" fill="#b58863" data-sq="a1" class="board-cell"/><rect x="50" y="310" width="26" height="26" fill="#f0d9b5" data-sq="b1" class="board-cell"/><rect x="76" y="310" width="26" height="26" fill="#b58863" data-sq="c1" class="board-cell"/><rect x="102" y="310" width="26" height="26" fill="#f0d9b5" data-sq="d1" class="board-cell"/><rect x="128" y="310" width="26" height="26" fill="#b58863" data-sq="e1" class="board-cell"/><rect x="154" y="310" width="26" height="26" fill="#f0d9b5" data-sq="f1" class="board-cell"/><rect x="180" y="310" width="26" height="26" fill="#b58863" data-sq="g1" class="board-cell"/><rect x="206" y="310" width="26" height="26" fill="#f0d9b5" data-sq="h1" class="board-cell"/><rect x="232" y="310" width="26" height="26" fill="#b58863" data-sq="i1" class="board-cell"/><rect x="258" y="310" width="26" height="26" fill="#f0d9b5" data-sq="j1" class="board-cell"/><rect x="284" y="310" width="26" height="26" fill="#b58863" data-sq="k1" class="board-cell"/><rect x="310" y="310" width="26" height="26" fill="#f0d9b5" data-sq="l1" class="board-cell"/>
<g pointer-events="none"><use href="#piece-mce-chess-bR" x="24" y="24" width="26" height="26"/><use href="#piece-mce-chess-bN" x="50" y="24" width="26" height="26"/><use href="#piece-wikimedia-standard-Chess_Udt45" x="76" y="24" width="26" height="26"/><use href="#piece-mce-chess-bC" x="102" y="24" width="26" height="26"/><use href="#piece-mce-chess-bL" x="128" y="24" width="26" height="26"/><use href="#piece-mce-chess-bG" x="154" y="24" width="26" height="26"/><use href="#piece-mce-chess-bK" x="180" y="24" width="26" height="26"/><use href="#piece-mce-chess-bG" x="206" y="24" width="26" height="26"/><use href="#piece-mce-chess-bL" x="232" y="24" width="26" height="26"/><use href="#piece-mce-chess-bC" x="258" y="24" width="26" height="26"/><use href="#piece-wikimedia-standard-Chess_Udt45" x="284" y="24" width="26" height="26"/><use href="#piece-mce-chess-bN" x="310" y="24" width="26" height="26"/><use href="#piece-mce-chess-bP" x="24" y="102" width="26" height="26"/><use href="#piece-mce-chess-bP" x="50" y="102" width="26" height="26"/><use href="#piece-mce-chess-bP" x="76" y="102" width="26" height="26"/><use href="#piece-mce-chess-bP" x="102" y="102" width="26" height="26"/><use href="#piece-mce-chess-bP" x="128" y="102" width="26" height="26"/><use href="#piece-mce-chess-bP" x="154" y="102" width="26" height="26"/><use href="#piece-mce-chess-bP" x="180" y="102" width="26" height="26"/><use href="#piece-mce-chess-bP" x="206" y="102" width="26" height="26"/><use href="#piece-mce-chess-bP" x="232" y="102" width="26" height="26"/><use href="#piece-mce-chess-bP" x="258" y="102" width="26" height="26"/><use href="#piece-mce-chess-bP" x="284" y="102" width="26" height="26"/><use href="#piece-mce-chess-bP" x="310" y="102" width="26" height="26"/><use href="#piece-mce-chess-wP" x="24" y="232" width="26" height="26"/><use href="#piece-mce-chess-wP" x="50" y="232" width="26" height="26"/><use href="#piece-mce-chess-wP" x="76" y="232" width="26" height="26"/><use href="#piece-mce-chess-wP" x="102" y="232" width="26" height="26"/><use href="#piece-mce-chess-wP" x="128" y="232" width="26" height="26"/><use href="#piece-mce-chess-wP" x="154" y="232" width="26" height="26"/><use href="#piece-mce-chess-wP" x="180" y="232" width="26" height="26"/><use href="#piece-mce-chess-wP" x="206" y="232" width="26" height="26"/><use href="#piece-mce-chess-wP" x="232" y="232" width="26" height="26"/><use href="#piece-mce-chess-wP" x="258" y="232" width="26" height="26"/><use href="#piece-mce-chess-wP" x="284" y="232" width="26" height="26"/><use href="#piece-mce-chess-wP" x="310" y="232" width="26" height="26"/><use href="#piece-mce-chess-wR" x="24" y="310" width="26" height="26"/><use href="#piece-mce-chess-wN" x="50" y="310" width="26" height="26"/><use href="#piece-wikimedia-standard-Chess_Ult45" x="76" y="310" width="26" height="26"/><use href="#piece-mce-chess-wC" x="102" y="310" width="26" height="26"/><use href="#piece-mce-chess-wL" x="128" y="310" width="26" height="26"/><use href="#piece-mce-chess-wG" x="154" y="310" width="26" height="26"/><use href="#piece-mce-chess-wK" x="180" y="310" width="26" height="26"/><use href="#piece-mce-chess-wG" x="206" y="310" width="26" height="26"/><use href="#piece-mce-chess-wL" x="232" y="310" width="26" height="26"/><use href="#piece-mce-chess-wC" x="258" y="310" width="26" height="26"/><use href="#piece-wikimedia-standard-Chess_Ult45" x="284" y="310" width="26" height="26"/><use href="#piece-mce-chess-wN" x="310" y="310" width="26" height="26"/></g>
<text x="37" y="351.6" text-anchor="middle" font-size="13" fill="#5c3a1e" font-family="monospace">a</text><text x="63" y="351.6" text-anchor="middle" font-size="13" fill="#5c3a1e" font-family="monospace">b</text><text x="89" y="351.6" text-anchor="middle" font-size="13" fill="#5c3a1e" font-family="monospace">c</text><text x="115" y="351.6" text-anchor="middle" font-size="13" fill="#5c3a1e" font-family="monospace">d</text><text x="141" y="351.6" text-anchor="middle" font-size="13" fill="#5c3a1e" font-family="monospace">e</text><text x="167" y="351.6" text-anchor="middle" font-size="13" fill="#5c3a1e" font-family="monospace">f</text><text x="193" y="351.6" text-anchor="middle" font-size="13" fill="#5c3a1e" font-family="monospace">g</text><text x="219" y="351.6" text-anchor="middle" font-size="13" fill="#5c3a1e" font-family="monospace">h</text><text x="245" y="351.6" text-anchor="middle" font-size="13" fill="#5c3a1e" font-family="monospace">i</text><text x="271" y="351.6" text-anchor="middle" font-size="13" fill="#5c3a1e" font-family="monospace">j</text><text x="297" y="351.6" text-anchor="middle" font-size="13" fill="#5c3a1e" font-family="monospace">k</text><text x="323" y="351.6" text-anchor="middle" font-size="13" fill="#5c3a1e" font-family="monospace">l</text><text x="12" y="41.55" text-anchor="middle" font-size="13" fill="#5c3a1e" font-family="monospace">12</text><text x="12" y="67.55" text-anchor="middle" font-size="13" fill="#5c3a1e" font-family="monospace">11</text><text x="12" y="93.55" text-anchor="middle" font-size="13" fill="#5c3a1e" font-family="monospace">10</text><text x="12" y="119.55" text-anchor="middle" font-size="13" fill="#5c3a1e" font-family="monospace">9</text><text x="12" y="145.55" text-anchor="middle" font-size="13" fill="#5c3a1e" font-family="monospace">8</text><text x="12" y="171.55" text-anchor="middle" font-size="13" fill="#5c3a1e" font-family="monospace">7</text><text x="12" y="197.55" text-anchor="middle" font-size="13" fill="#5c3a1e" font-family="monospace">6</text><text x="12" y="223.55" text-anchor="middle" font-size="13" fill="#5c3a1e" font-family="monospace">5</text><text x="12" y="249.55" text-anchor="middle" font-size="13" fill="#5c3a1e" font-family="monospace">4</text><text x="12" y="275.55" text-anchor="middle" font-size="13" fill="#5c3a1e" font-family="monospace">3</text><text x="12" y="301.55" text-anchor="middle" font-size="13" fill="#5c3a1e" font-family="monospace">2</text><text x="12" y="327.55" text-anchor="middle" font-size="13" fill="#5c3a1e" font-family="monospace">1</text>
</svg>