<svg xmlns="http://www.w3.org/2000/svg" viewBox="0 0 487.69219381653056 312" width="487.69219381653056" height="312">
<defs>
<symbol id="piece-mce-chess-bR" viewBox="0 0 45 45"><g style="fill:#000;stroke:#000;stroke-width:1.5;stroke-linecap:round;stroke-linejoin:round"><path d="M 9,39 L 36,39 L 36,36 L 9,36 L 9,39 z"/><path d="M 12,36 L 12,32 L 33,32 L 33,36 L 12,36 z"/><path d="M 11,14 L 11,9 L 15,9 L 15,11 L 20,11 L 20,9 L 25,9 L 25,11 L 30,11 L 30,9 L 34,9 L 34,14"/><path d="M 34,14 L 31,17 L 14,17 L 11,14"/><path d="M 31,17 L 31,29.5 L 14,29.5 L 14,17"/><path d="M 31,29.5 L 32.5,32 L 12.5,32 L 14,29.5"/><path d="M 11,14 L 34,14" style="fill:none;stroke:#fff;stroke-linejoin:miter"/><path d="M 12,35.5 L 33,35.5" style="fill:none;stroke:#fff;stroke-width:1"/><path d="M 13,31.5 L 32,31.5" style="fill:none;stroke:#fff;stroke-width:1"/><path d="M 14,29.5 L 31,29.5" style="fill:none;stroke:#fff;stroke-width:1"/></g></symbol>
<symbol id="piece-mce-chess-bP" viewBox="0 0 45 45"><path d="M 22,9 C 19.79,9 18,10.79 18,13 C 18,13.89 18.29,14.71 18.78,15.38 C 16.83,16.5 15.5,18.59 15.5,21 C 15.5,23.03 16.44,24.84 17.91,26.03 C 14.91,27.09 10.5,31.58 10.5,39.5 L 33.5,39.5 C 33.5,31.58 29.09,27.09 26.09,26.03 C 27.56,24.84 28.5,23.03 28.5,21 C 28.5,18.59 27.17,16.5 25.22,15.38 C 25.71,14.71 26,13.89 26,13 C 26,10.79 24.21,9 22,9 z" style="fill:#000;stroke:#000;stroke-width:1.5;stroke-linecap:round"/></symbol>
<symbol id="piece-mce-chess-wP" viewBox="0 0 45 45"><path d="M 22,9 C 19.79,9 18,10.79 18,13 C 18,13.89 18.29,14.71 18.78,15.38 C 16.83,16.5 15.5,18.59 15.5,21 C 15.5,23.03 16.44,24.84 17.91,26.03 C 14.91,27.09 10.5,31.58 10.5,39.5 L 33.5,39.5 C 33.5,31.58 29.09,27.09 26.09,26.03 C 27.56,24.84 28.5,23.03 28.5,21 C 28.5,18.59 27.17,16.5 25.22,15.38 C 25.71,14.71 26,13.89 26,13 C 26,10.79 24.21,9 22,9 z" style="fill:#fff;stroke:#000;stroke-width:1.5;stroke-linecap:round"/></symbol>
<symbol id="piece-mce-chess-wR" viewBox="0 0 45 45"><g style="fill:#fff;stroke:#000;stroke-width:1.5;stroke-linecap:round;stroke-linejoin:round"><path d="M 9,39 L 36,39 L 36,36 L 9,36 L 9,39 z"/><path d="M 12,36 L 12,32 L 33,32 L 33,36 L 12,36 z"/><path d="M 11,14 L 11,9 L 15,9 L 15,11 L 20,11 L 20,9 L 25,9 L 25,11 L 30,11 L 30,9 L 34,9 L 34,14"/><path d="M 34,14 L 31,17 L 14,17 L 11,14"/><path d="M 31,17 L 31,29.5 L 14,29.5 L 14,17"/><path d="M 31,29.5 L 32.5,32 L 12.5,32 L 14,29.5"/><path d="M 11,14 L 34,14" style="fill:none"/></g></symbol>
<symbol id="piece-mce-chess-bN" viewBox="0 0 45 45"><g style="fill:none;stroke:#000;stroke-width:1.5;stroke-linecap:round;stroke-linejoin:round"><path d="M 22,10 C 32.5,11 38.5,18 38,39 L 15,39 C 15,30 25,32.5 23,18" style="fill:#000"/><path d="M 24,18 C 24.38,20.91 18.45,25.37 16,27 C 13,29 13.18,31.34 11,31 C 9.958,30.06 12.41,27.96 11,28 C 10,28 11.19,29.23 10,30 C 9,30 5.997,31 6,26 C 6,24 12,14 12,14 C 12,14 13.89,12.1 14,10.5 C 13.27,9.506 13.5,8.5 13.5,7.5 C 14.5,6.5 16.5,10 16.5,10 L 18.5,10 C 18.5,10 19.28,8.008 21,7 C 22,7 22,10 22,10" style="fill:#000"/><path d="M 9.5,25.5 A 0.5,0.5 0 1 1 8.5,25.5 A 0.5,0.5 0 1 1 9.5,25.5 z" style="fill:#fff"/><path d="M 15,15.5 A 0.5,1.5 0 1 1 14,15.5 A 0.5,1.5 0 1 1 15,15.5 z" transform="matrix(0.866,0.5,-0.5,0.866,9.693,-5.173)" style="fill:#fff"/><path d="M 24.55,10.4 L 24.1,11.85 L 24.6,12 C 27.75,13 30.25,14.49 32.5,18.75 C 34.75,23.01 35.75,29.06 35.25,39 L 35.2,39.5 L 37.45,39.5 L 37.5,39 C 38,28.94 36.62,22.15 34.25,17.66 C 31.88,13.17 28.46,11.02 25.06,10.5 L 24.55,10.4 z" style="fill:#fff;stroke:none"/></g></symbol>
<symbol id="piece-mce-chess-wN" viewBox="0 0 45 45"><g style="fill:none;stroke:#000;stroke-width:1.5;stroke-linecap:round;stroke-linejoin:round"><path d="M 22,10 C 32.5,11 38.5,18 38,39 L 15,39 C 15,30 25,32.5 23,18" style="fill:#fff"/><path d="M 24,18 C 24.38,20.91 18.45,25.37 16,27 C 13,29 13.18,31.34 11,31 C 9.958,30.06 12.41,27.96 11,28 C 10,28 11.19,29.23 10,30 C 9,30 5.997,31 6,26 C 6,24 12,14 12,14 C 12,14 13.89,12.1 14,10.5 C 13.27,9.506 13.5,8.5 13.5,7.5 C 14.5,6.5 16.5,10 16.5,10 L 18.5,10 C 18.5,10 19.28,8.008 21,7 C 22,7 22,10 22,10" style="fill:#fff"/><path d="M 9.5,25.5 A 0.5,0.5 0 1 1 8.5,25.5 A 0.5,0.5 0 1 1 9.5,25.5 z" style="fill:#000"/><path d="M 15,15.5 A 0.5,1.5 0 1 1 14,15.5 A 0.5,1.5 0 1 1 15,15.5 z" transform="matrix(0.866,0.5,-0.5,0.866,9.693,-5.173)" style="fill:#000"/></g></symbol>
<symbol id="piece-mce-chess-bB" viewBox="0 0 45 45"><g style="fill:none;stroke:#000;stroke-width:1.5;stroke-linecap:round;stroke-linejoin:round"><g style="fill:#000;stroke-linecap:butt"><path d="M 9,36 C 12.39,35.03 19.11,36.43 22.5,34 C 25.89,36.43 32.61,35.03 36,36 C 36,36 37.65,36.54 39,38 C 38.32,38.97 37.2,38.91 36,38.5 C 32.61,37.53 25.89,38.96 22.5,37.5 C 19.11,38.96 12.39,37.53 9,38.5 C 7.8,38.91 6.68,38.97 6,38 C 7.35,36.54 9,36 9,36 z"/><path d="M 15,32 C 17.5,34.5 27.5,34.5 30,32 C 30.5,30.5 30,30 30,30 C 30,27.5 27.5,26 27.5,26 C 33,24.5 33.5,14.5 22.5,10.5 C 11.5,14.5 12,24.5 17.5,26 C 17.5,26 15,27.5 15,30 C 15,30 14.5,30.5 15,32 z"/><path d="M 25,8 A 2.5,2.5 0 1 1 20,8 A 2.5,2.5 0 1 1 25,8 z"/></g><path d="M 17.5,26 L 27.5,26 M 15,30 L 30,30 M 22.5,15.5 L 22.5,20.5 M 20,18 L 25,18" style="fill:none;stroke:#fff;stroke-linejoin:miter"/></g></symbol>
<symbol id="piece-mce-chess-wB" viewBox="0 0 45 45"><g style="fill:none;stroke:#000;stroke-width:1.5;stroke-linecap:round;stroke-linejoin:round"><g style="fill:#fff;stroke-linecap:butt"><path d="M 9,36 C 12.39,35.03 19.11,36.43 22.5,34 C 25.89,36.43 32.61,35.03 36,36 C 36,36 37.65,36.54 39,38 C 38.32,38.97 37.2,38.91 36,38.5 C 32.61,37.53 25.89,38.96 22.5,37.5 C 19.11,38.96 12.39,37.53 9,38.5 C 7.8,38.91 6.68,38.97 6,38 C 7.35,36.54 9,36 9,36 z"/><path d="M 15,32 C 17.5,34.5 27.5,34.5 30,32 C 30.5,30.5 30,30 30,30 C 30,27.5 27.5,26 27.5,26 C 33,24.5 33.5,14.5 22.5,10.5 C 11.5,14.5 12,24.5 17.5,26 C 17.5,26 15,27.5 15,30 C 15,30 14.5,30.5 15,32 z"/><path d="M 25,8 A 2.5,2.5 0 1 1 20,8 A 2.5,2.5 0 1 1 25,8 z"/></g><path d="M 17.5,26 L 27.5,26 M 15,30 L 30,30 M 22.5,15.5 L 22.5,20.5 M 20,18 L 25,18" style="fill:none;stroke:#000;stroke-linejoin:miter"/></g></symbol>
<symbol id="piece-mce-chess-bK" viewBox="0 0 45 45"><g style="fill:#000;stroke:#000;stroke-width:1.5;stroke-linejoin:round"><path d="M 22.5,11.63 L 22.5,6" style="fill:none;stroke:#fff;stroke-linejoin:miter"/><path d="M 20,8 L 25,8" style="fill:none;stroke:#fff;stroke-linejoin:miter"/><path d="M 22.5,25 C 22.5,25 27,17.5 25.5,14.5 C 25.5,14.5 24.5,12 22.5,12 C 20.5,12 19.5,14.5 19.5,14.5 C 18,17.5 22.5,25 22.5,25"/><path d="M 12.5,37 C 18,40.5 27,40.5 32.5,37 L 32.5,30 C 32.5,30 41.5,25.5 38.5,19.5 C 34.5,13 25,16 22.5,23.5 L 22.5,27 L 22.5,23.5 C 20,16 10.5,13 6.5,19.5 C 3.5,25.5 12.5,30 12.5,30 L 12.5,37"/><path d="M 12.5,30 C 18,27 27,27 32.5,30" style="fill:none;stroke:#fff"/><path d="M 12.5,33.5 C 18,30.5 27,30.5 32.5,33.5" style="fill:none;stroke:#fff"/><path d="M 12.5,37 C 18,34 27,34 32.5,37" style="fill:none;stroke:#fff"/></g></symbol>
<symbol id="piece-mce-chess-wQ" viewBox="0 0 45 45"><g style="fill:#fff;stroke:#000;stroke-width:1.5;stroke-linejoin:round"><path d="M 9,26 C 17.5,24.5 30,24.5 36,26 L 38.5,13.5 L 31,25 L 30.7,10.9 L 25.5,24.5 L 22.5,10 L 19.5,24.5 L 14.3,10.9 L 14,25 L 6.5,13.5 L 9,26 z"/><path d="M 9,26 C 9,28 10.5,28 11.5,30 C 12.5,31.5 12.5,31 12,33.5 C 10.5,34.5 11,36 11,36 C 9.5,37.5 11.5,38.5 11.5,38.5 C 17.5,39.5 27.5,39.5 33.5,38.5 C 33.5,38.5 35.5,37.5 34,36 C 34,36 34.5,34.5 33,33.5 C 32.5,31 32.5,31.5 33.5,30 C 34.5,28 36,28 36,26 C 27.5,24.5 17.5,24.5 9,26 z"/><path d="M 11.5,30 C 15,29 30,29 33.5,30" style="fill:none"/><path d="M 12,33.5 C 15,32.5 30,32.5 33,33.5" style="fill:none"/><circle cx="6" cy="12" r="2"/><circle cx="14" cy="9" r="2"/><circle cx="22.5" cy="8" r="2"/><circle cx="31" cy="9" r="2"/><circle cx="39" cy="12" r="2"/></g></symbol>
<symbol id="piece-mce-chess-bQ" viewBox="0 0 45 45"><g style="fill:#000;stroke:#000;stroke-width:1.5;stroke-linejoin:round"><path d="M 9,26 C 17.5,24.5 30,24.5 36,26 L 38.5,13.5 L 31,25 L 30.7,10.9 L 25.5,24.5 L 22.5,10 L 19.5,24.5 L 14.3,10.9 L 14,25 L 6.5,13.5 L 9,26 z"/><path d="M 9,26 C 9,28 10.5,28 11.5,30 C 12.5,31.5 12.5,31 12,33.5 C 10.5,34.5 11,36 11,36 C 9.5,37.5 11.5,38.5 11.5,38.5 C 17.5,39.5 27.5,39.5 33.5,38.5 C 33.5,38.5 35.5,37.5 34,36 C 34,36 34.5,34.5 33,33.5 C 32.5,31 32.5,31.5 33.5,30 C 34.5,28 36,28 36,26 C 27.5,24.5 17.5,24.5 9,26 z"/><path d="M 11.5,30 C 15,29 30,29 33.5,30" style="fill:none;stroke:#fff"/><path d="M 12,33.5 C 15,32.5 30,32.5 33,33.5" style="fill:none;stroke:#fff"/><circle cx="6" cy="12" r="2" style="fill:#fff"/><circle cx="14" cy="9" r="2" style="fill:#fff"/><circle cx="22.5" cy="8" r="2" style="fill:#fff"/><circle cx="31" cy="9" r="2" style="fill:#fff"/><circle cx="39" cy="12" r="2" style="fill:#fff"/></g></symbol>
<symbol id="piece-mce-chess-wK" viewBox="0 0 45 45"><g style="fill:#fff;stroke:#000;stroke-width:1.5;stroke-linejoin:round"><path d="M 22.5,11.63 L 22.5,6" style="fill:none;stroke-linejoin:miter"/><path d="M 20,8 L 25,8" style="fill:none;stroke-linejoin:miter"/><path d="M 22.5,25 C 22.5,25 27,17.5 25.5,14.5 C 25.5,14.5 24.5,12 22.5,12 C 20.5,12 19.5,14.5 19.5,14.5 C 18,17.5 22.5,25 22.5,25"/><path d="M 12.5,37 C 18,40.5 27,40.5 32.5,37 L 32.5,30 C 32.5,30 41.5,25.5 38.5,19.5 C 34.5,13 25,16 22.5,23.5 L 22.5,27 L 22.5,23.5 C 20,16 10.5,13 6.5,19.5 C 3.5,25.5 12.5,30 12.5,30 L 12.5,37"/><path d="M 12.5,30 C 18,27 27,27 32.5,30"/><path d="M 12.5,33.5 C 18,30.5 27,30.5 32.5,33.5"/><path d="M 12.5,37 C 18,34 27,34 32.5,37"/></g></symbol>
</defs>
<g fill="#6b4226"><polygon points="54.71,25.20 54.71,46.80 36.00,57.60 17.29,46.80 17.29,25.20 36.00,14.40"/><polygon points="89.35,25.20 89.35,46.80 70.64,57.60 51.93,46.80 51.93,25.20 70.64,14.40"/><polygon points="123.99,25.20 123.99,46.80 105.28,57.60 86.58,46.80 86.58,25.20 105.28,14.40"/><polygon points="158.63,25.20 158.63,46.80 139.92,57.60 121.22,46.80 121.22,25.20 139.92,14.40"/><polygon points="193.27,25.20 193.27,46.80 174.56,57.60 155.86,46.80 155.86,25.20 174.56,14.40"/><polygon points="227.91,25.20 227.91,46.80 209.21,57.60 190.50,46.80 190.50,25.20 209.21,14.40"/><polygon points="262.55,25.20 262.55,46.80 243.85,57.60 225.14,46.80 225.14,25.20 243.85,14.40"/><polygon points="297.19,25.20 297.19,46.80 278.49,57.60 259.78,46.80 259.78,25.20 278.49,14.40"/><polygon points="331.83,25.20 331.83,46.80 313.13,57.60 294.42,46.80 294.42,25.20 313.13,14.40"/><polygon points="72.03,55.20 72.03,76.80 53.32,87.60 34.61,76.80 34.61,55.20 53.32,44.40"/><polygon points="106.67,55.20 106.67,76.80 87.96,87.60 69.26,76.80 69.26,55.20 87.96,44.40"/><polygon points="141.31,55.20 141.31,76.80 122.60,87.60 103.90,76.80 103.90,55.20 122.60,44.40"/><polygon points="175.95,55.20 175.95,76.80 157.24,87.60 138.54,76.80 138.54,55.20 157.24,44.40"/><polygon points="210.59,55.20 210.59,76.80 191.88,87.60 173.18,76.80 173.18,55.20 191.88,44.40"/><polygon points="245.23,55.20 245.23,76.80 226.53,87.60 207.82,76.80 207.82,55.20 226.53,44.40"/><polygon points="279.87,55.20 279.87,76.80 261.17,87.60 242.46,76.80 242.46,55.20 261.17,44.40"/><polygon points="314.51,55.20 314.51,76.80 295.81,87.60 277.10,76.80 277.10,55.20 295.81,44.40"/><polygon points="349.15,55.20 349.15,76.80 330.45,87.60 311.74,76.80 311.74,55.20 330.45,44.40"/><polygon points="89.35,85.20 89.35,106.80 70.64,117.60 51.93,106.80 51.93,85.20 70.64,74.40"/><polygon points="123.99,85.20 123.99,106.80 105.28,117.60 86.58,106.80 86.58,85.20 105.28,74.40"/><polygon points="158.63,85.20 158.63,106.80 139.92,117.60 121.22,106.80 121.22,85.20 139.92,74.40"/><polygon points="193.27,85.20 193.27,106.80 174.56,117.60 155.86,106.80 155.86,85.20 174.56,74.40"/><polygon points="227.91,85.20 227.91,106.80 209.21,117.60 190.50,106.80 190.50,85.20 209.21,74.40"/><polygon points="262.55,85.20 262.55,106.80 243.85,117.60 225.14,106.80 225.14,85.20 243.85,74.40"/><polygon points="297.19,85.20 297.19,106.80 278.49,117.60 259.78,106.80 259.78,85.20 278.49,74.40"/><polygon points="331.83,85.20 331.83,106.80 313.13,117.60 294.42,106.80 294.42,85.20 313.13,74.40"/><polygon points="366.48,85.20 366.48,106.80 347.77,117.60 329.06,106.80 329.06,85.20 347.77,74.40"/><polygon points="106.67,115.20 106.67,136.80 87.96,147.60 69.26,136.80 69.26,115.20 87.96,104.40"/><polygon points="141.31,115.20 141.31,136.80 122.60,147.60 103.90,136.80 103.90,115.20 122.60,104.40"/><polygon points="175.95,115.20 175.95,136.80 157.24,147.60 138.54,136.80 138.54,115.20 157.24,104.40"/><polygon points="210.59,115.20 210.59,136.80 191.88,147.60 173.18,136.80 173.18,115.20 191.88,104.40"/><polygon points="245.23,115.20 245.23,136.80 226.53,147.60 207.82,136.80 207.82,115.20 226.53,104.40"/><polygon points="279.87,115.20 279.87,136.80 261.17,147.60 242.46,136.80 242.46,115.20 261.17,104.40"/><polygon points="314.51,115.20 314.51,136.80 295.81,147.60 277.10,136.80 277.10,115.20 295.81,104.40"/><polygon points="349.15,115.20 349.15,136.80 330.45,147.60 311.74,136.80 311.74,115.20 330.45,104.40"/><polygon points="383.80,115.20 383.80,136.80 365.09,147.60 346.38,136.80 346.38,115.20 365.09,104.40"/><polygon points="123.99,145.20 123.99,166.80 105.28,177.60 86.58,166.80 86.58,145.20 105.28,134.40"/><polygon points="158.63,145.20 158.63,166.80 139.92,177.60 121.22,166.80 121.22,145.20 139.92,134.40"/><polygon points="193.27,145.20 193.27,166.80 174.56,177.60 155.86,166.80 155.86,145.20 174.56,134.40"/><polygon points="227.91,145.20 227.91,166.80 209.21,177.60 190.50,166.80 190.50,145.20 209.21,134.40"/><polygon points="262.55,145.20 262.55,166.80 243.85,177.60 225.14,166.80 225.14,145.20 243.85,134.40"/><polygon points="297.19,145.20 297.19,166.80 278.49,177.60 259.78,166.80 259.78,145.20 278.49,134.40"/><polygon points="331.83,145.20 331.83,166.80 313.13,177.60 294.42,166.80 294.42,145.20 313.13,134.40"/><polygon points="366.48,145.20 366.48,166.80 347.77,177.60 329.06,166.80 329.06,145.20 347.77,134.40"/><polygon points="401.12,145.20 401.12,166.80 382.41,177.60 363.70,166.80 363.70,145.20 382.41,134.40"/><polygon points="141.31,175.20 141.31,196.80 122.60,207.60 103.90,196.80 103.90,175.20 122.60,164.40"/><polygon points="175.95,175.20 175.95,196.80 157.24,207.60 138.54,196.80 138.54,175.20 157.24,164.40"/><polygon points="210.59,175.20 210.59,196.80 191.88,207.60 173.18,196.80 173.18,175.20 191.88,164.40"/><polygon points="245.23,175.20 245.23,196.80 226.53,207.60 207.82,196.80 207.82,175.20 226.53,164.40"/><polygon points="279.87,175.20 279.87,196.80 261.17,207.60 242.46,196.80 242.46,175.20 261.17,164.40"/><polygon points="314.51,175.20 314.51,196.80 295.81,207.60 277.10,196.80 277.10,175.20 295.81,164.40"/><polygon points="349.15,175.20 349.15,196.80 330.45,207.60 311.74,196.80 311.74,175.20 330.45,164.40"/><polygon points="383.80,175.20 383.80,196.80 365.09,207.60 346.38,196.80 346.38,175.20 365.09,164.40"/><polygon points="418.44,175.20 418.44,196.80 399.73,207.60 381.02,196.80 381.02,175.20 399.73,164.40"/><polygon points="158.63,205.20 158.63,226.80 139.92,237.60 121.22,226.80 121.22,205.20 139.92,194.40"/><polygon points="193.27,205.20 193.27,226.80 174.56,237.60 155.86,226.80 155.86,205.20 174.56,194.40"/><polygon points="227.91,205.20 227.91,226.80 209.21,237.60 190.50,226.80 190.50,205.20 209.21,194.40"/><polygon points="262.55,205.20 262.55,226.80 243.85,237.60 225.14,226.80 225.14,205.20 243.85,194.40"/><polygon points="297.19,205.20 297.19,226.80 278.49,237.60 259.78,226.80 259.78,205.20 278.49,194.40"/><polygon points="331.83,205.20 331.83,226.80 313.13,237.60 294.42,226.80 294.42,205.20 313.13,194.40"/><polygon points="366.48,205.20 366.48,226.80 347.77,237.60 329.06,226.80 329.06,205.20 347.77,194.40"/><polygon points="401.12,205.20 401.12,226.80 382.41,237.60 363.70,226.80 363.70,205.20 382.41,194.40"/><polygon points="435.76,205.20 435.76,226.80 417.05,237.60 398.35,226.80 398.35,205.20 417.05,194.40"/><polygon points="175.95,235.20 175.95,256.80 157.24,267.60 138.54,256.80 138.54,235.20 157.24,224.40"/><polygon points="210.59,235.20 210.59,256.80 191.88,267.60 173.18,256.80 173.18,235.20 191.88,224.40"/><polygon points="245.23,235.20 245.23,256.80 226.53,267.60 207.82,256.80 207.82,235.20 226.53,224.40"/><polygon points="279.87,235.20 279.87,256.80 261.17,267.60 242.46,256.80 242.46,235.20 261.17,224.40"/><polygon points="314.51,235.20 314.51,256.80 295.81,267.60 277.10,256.80 277.10,235.20 295.81,224.40"/><polygon points="349.15,235.20 349.15,256.80 330.45,267.60 311.74,256.80 311.74,235.20 330.45,224.40"/><polygon points="383.80,235.20 383.80,256.80 365.09,267.60 346.38,256.80 346.38,235.20 365.09,224.40"/><polygon points="418.44,235.20 418.44,256.80 399.73,267.60 381.02,256.80 381.02,235.20 399.73,224.40"/><polygon points="453.08,235.20 453.08,256.80 434.37,267.60 415.67,256.80 415.67,235.20 434.37,224.40"/><polygon points="193.27,265.20 193.27,286.80 174.56,297.60 155.86,286.80 155.86,265.20 174.56,254.40"/><polygon points="227.91,265.20 227.91,286.80 209.21,297.60 190.50,286.80 190.50,265.20 209.21,254.40"/><polygon points="262.55,265.20 262.55,286.80 243.85,297.60 225.14,286.80 225.14,265.20 243.85,254.40"/><polygon points="297.19,265.20 297.19,286.80 278.49,297.60 259.78,286.80 259.78,265.20 278.49,254.40"/><polygon points="331.83,265.20 331.83,286.80 313.13,297.60 294.42,286.80 294.42,265.20 313.13,254.40"/><polygon points="366.48,265.20 366.48,286.80 347.77,297.60 329.06,286.80 329.06,265.20 347.77,254.40"/><polygon points="401.12,265.20 401.12,286.80 382.41,297.60 363.70,286.80 363.70,265.20 382.41,254.40"/><polygon points="435.76,265.20 435.76,286.80 417.05,297.60 398.35,286.80 398.35,265.20 417.05,254.40"/><polygon points="470.40,265.20 470.40,286.80 451.69,297.60 432.99,286.80 432.99,265.20 451.69,254.40"/></g><g fill="none" stroke="#6b4226" stroke-width="14" stroke-linecap="round" stroke-linejoin="round"><line x1="36.00" y1="57.00" x2="17.81" y2="46.50"/><line x1="17.81" y1="46.50" x2="17.81" y2="25.50"/><line x1="17.81" y1="25.50" x2="36.00" y2="15.00"/><line x1="36.00" y1="15.00" x2="54.19" y2="25.50"/><line x1="52.45" y1="25.50" x2="70.64" y2="15.00"/><line x1="70.64" y1="15.00" x2="88.83" y2="25.50"/><line x1="87.10" y1="25.50" x2="105.28" y2="15.00"/><line x1="105.28" y1="15.00" x2="123.47" y2="25.50"/><line x1="121.74" y1="25.50" x2="139.92" y2="15.00"/><line x1="139.92" y1="15.00" x2="158.11" y2="25.50"/><line x1="156.38" y1="25.50" x2="174.56" y2="15.00"/><line x1="174.56" y1="15.00" x2="192.75" y2="25.50"/><line x1="191.02" y1="25.50" x2="209.21" y2="15.00"/><line x1="209.21" y1="15.00" x2="227.39" y2="25.50"/><line x1="225.66" y1="25.50" x2="243.85" y2="15.00"/><line x1="243.85" y1="15.00" x2="262.03" y2="25.50"/><line x1="260.30" y1="25.50" x2="278.49" y2="15.00"/><line x1="278.49" y1="15.00" x2="296.67" y2="25.50"/><line x1="331.31" y1="25.50" x2="331.31" y2="46.50"/><line x1="294.94" y1="25.50" x2="313.13" y2="15.00"/><line x1="313.13" y1="15.00" x2="331.31" y2="25.50"/><line x1="53.32" y1="87.00" x2="35.13" y2="76.50"/><line x1="35.13" y1="76.50" x2="35.13" y2="55.50"/><line x1="348.64" y1="55.50" x2="348.64" y2="76.50"/><line x1="330.45" y1="45.00" x2="348.64" y2="55.50"/><line x1="70.64" y1="117.00" x2="52.45" y2="106.50"/><line x1="52.45" y1="106.50" x2="52.45" y2="85.50"/><line x1="365.96" y1="85.50" x2="365.96" y2="106.50"/><line x1="347.77" y1="75.00" x2="365.96" y2="85.50"/><line x1="87.96" y1="147.00" x2="69.77" y2="136.50"/><line x1="69.77" y1="136.50" x2="69.77" y2="115.50"/><line x1="383.28" y1="115.50" x2="383.28" y2="136.50"/><line x1="365.09" y1="105.00" x2="383.28" y2="115.50"/><line x1="105.28" y1="177.00" x2="87.10" y2="166.50"/><line x1="87.10" y1="166.50" x2="87.10" y2="145.50"/><line x1="400.60" y1="145.50" x2="400.60" y2="166.50"/><line x1="382.41" y1="135.00" x2="400.60" y2="145.50"/><line x1="122.60" y1="207.00" x2="104.42" y2="196.50"/><line x1="104.42" y1="196.50" x2="104.42" y2="175.50"/><line x1="417.92" y1="175.50" x2="417.92" y2="196.50"/><line x1="399.73" y1="165.00" x2="417.92" y2="175.50"/><line x1="139.92" y1="237.00" x2="121.74" y2="226.50"/><line x1="121.74" y1="226.50" x2="121.74" y2="205.50"/><line x1="435.24" y1="205.50" x2="435.24" y2="226.50"/><line x1="417.05" y1="195.00" x2="435.24" y2="205.50"/><line x1="157.24" y1="267.00" x2="139.06" y2="256.50"/><line x1="139.06" y1="256.50" x2="139.06" y2="235.50"/><line x1="452.56" y1="235.50" x2="452.56" y2="256.50"/><line x1="434.37" y1="225.00" x2="452.56" y2="235.50"/><line x1="192.75" y1="286.50" x2="174.56" y2="297.00"/><line x1="174.56" y1="297.00" x2="156.38" y2="286.50"/><line x1="156.38" y1="286.50" x2="156.38" y2="265.50"/><line x1="227.39" y1="286.50" x2="209.21" y2="297.00"/><line x1="209.21" y1="297.00" x2="191.02" y2="286.50"/><line x1="262.03" y1="286.50" x2="243.85" y2="297.00"/><line x1="243.85" y1="297.00" x2="225.66" y2="286.50"/><line x1="296.67" y1="286.50" x2="278.49" y2="297.00"/><line x1="278.49" y1="297.00" x2="260.30" y2="286.50"/><line x1="331.31" y1="286.50" x2="313.13" y2="297.00"/><line x1="313.13" y1="297.00" x2="294.94" y2="286.50"/><line x1="365.96" y1="286.50" x2="347.77" y2="297.00"/><line x1="347.77" y1="297.00" x2="329.58" y2="286.50"/><line x1="400.60" y1="286.50" x2="382.41" y2="297.00"/><line x1="382.41" y1="297.00" x2="364.22" y2="286.50"/><line x1="435.24" y1="286.50" x2="417.05" y2="297.00"/><line x1="417.05" y1="297.00" x2="398.86" y2="286.50"/><line x1="469.88" y1="265.50" x2="469.88" y2="286.50"/><line x1="469.88" y1="286.50" x2="451.69" y2="297.00"/><line x1="451.69" y1="297.00" x2="433.51" y2="286.50"/><line x1="451.69" y1="255.00" x2="469.88" y2="265.50"/></g><polygon points="52.45,26.50 52.45,45.50 36.00,55.00 19.55,45.50 19.55,26.50 36.00,17.00" fill="#ffce9e" stroke="rgba(0,0,0,0.15)" stroke-width="1" data-sq="0,0" class="board-cell"/><polygon points="87.10,26.50 87.10,45.50 70.64,55.00 54.19,45.50 54.19,26.50 70.64,17.00" fill="#e8ab6f" stroke="rgba(0,0,0,0.15)" stroke-width="1" data-sq="1,0" class="board-cell"/><polygon points="121.74,26.50 121.74,45.50 105.28,55.00 88.83,45.50 88.83,26.50 105.28,17.00" fill="#d18b47" stroke="rgba(0,0,0,0.15)" stroke-width="1" data-sq="2,0" class="board-cell"/><polygon points="156.38,26.50 156.38,45.50 139.92,55.00 123.47,45.50 123.47,26.50 139.92,17.00" fill="#ffce9e" stroke="rgba(0,0,0,0.15)" stroke-width="1" data-sq="3,0" class="board-cell"/><polygon points="191.02,26.50 191.02,45.50 174.56,55.00 158.11,45.50 158.11,26.50 174.56,17.00" fill="#e8ab6f" stroke="rgba(0,0,0,0.15)" stroke-width="1" data-sq="4,0" class="board-cell"/><polygon points="225.66,26.50 225.66,45.50 209.21,55.00 192.75,45.50 192.75,26.50 209.21,17.00" fill="#d18b47" stroke="rgba(0,0,0,0.15)" stroke-width="1" data-sq="5,0" class="board-cell"/><polygon points="260.30,26.50 260.30,45.50 243.85,55.00 227.39,45.50 227.39,26.50 243.85,17.00" fill="#ffce9e" stroke="rgba(0,0,0,0.15)" stroke-width="1" data-sq="6,0" class="board-cell"/><polygon points="294.94,26.50 294.94,45.50 278.49,55.00 262.03,45.50 262.03,26.50 278.49,17.00" fill="#e8ab6f" stroke="rgba(0,0,0,0.15)" stroke-width="1" data-sq="7,0" class="board-cell"/><polygon points="329.58,26.50 329.58,45.50 313.13,55.00 296.67,45.50 296.67,26.50 313.13,17.00" fill="#d18b47" stroke="rgba(0,0,0,0.15)" stroke-width="1" data-sq="8,0" class="board-cell"/><polygon points="69.77,56.50 69.77,75.50 53.32,85.00 36.87,75.50 36.87,56.50 53.32,47.00" fill="#d18b47" stroke="rgba(0,0,0,0.15)" stroke-width="1" data-sq="0,1" class="board-cell"/><polygon points="104.42,56.50 104.42,75.50 87.96,85.00 71.51,75.50 71.51,56.50 87.96,47.00" fill="#ffce9e" stroke="rgba(0,0,0,0.15)" stroke-width="1" data-sq="1,1" class="board-cell"/><polygon points="139.06,56.50 139.06,75.50 122.60,85.00 106.15,75.50 106.15,56.50 122.60,47.00" fill="#e8ab6f" stroke="rgba(0,0,0,0.15)" stroke-width="1" data-sq="2,1" class="board-cell"/><polygon points="173.70,56.50 173.70,75.50 157.24,85.00 140.79,75.50 140.79,56.50 157.24,47.00" fill="#d18b47" stroke="rgba(0,0,0,0.15)" stroke-width="1" data-sq="3,1" class="board-cell"/><polygon points="208.34,56.50 208.34,75.50 191.88,85.00 175.43,75.50 175.43,56.50 191.88,47.00" fill="#ffce9e" stroke="rgba(0,0,0,0.15)" stroke-width="1" data-sq="4,1" class="board-cell"/><polygon points="242.98,56.50 242.98,75.50 226.53,85.00 210.07,75.50 210.07,56.50 226.53,47.00" fill="#e8ab6f" stroke="rgba(0,0,0,0.15)" stroke-width="1" data-sq="5,1" class="board-cell"/><polygon points="277.62,56.50 277.62,75.50 261.17,85.00 244.71,75.50 244.71,56.50 261.17,47.00" fill="#d18b47" stroke="rgba(0,0,0,0.15)" stroke-width="1" data-sq="6,1" class="board-cell"/><polygon points="312.26,56.50 312.26,75.50 295.81,85.00 279.35,75.50 279.35,56.50 295.81,47.00" fill="#ffce9e" stroke="rgba(0,0,0,0.15)" stroke-width="1" data-sq="7,1" class="board-cell"/><polygon points="346.90,56.50 346.90,75.50 330.45,85.00 313.99,75.50 313.99,56.50 330.45,47.00" fill="#e8ab6f" stroke="rgba(0,0,0,0.15)" stroke-width="1" data-sq="8,1" class="board-cell"/><polygon points="87.10,86.50 87.10,105.50 70.64,115.00 54.19,105.50 54.19,86.50 70.64,77.00" fill="#e8ab6f" stroke="rgba(0,0,0,0.15)" stroke-width="1" data-sq="0,2" class="board-cell"/><polygon points="121.74,86.50 121.74,105.50 105.28,115.00 88.83,105.50 88.83,86.50 105.28,77.00" fill="#d18b47" stroke="rgba(0,0,0,0.15)" stroke-width="1" data-sq="1,2" class="board-cell"/><polygon points="156.38,86.50 156.38,105.50 139.92,115.00 123.47,105.50 123.47,86.50 139.92,77.00" fill="#ffce9e" stroke="rgba(0,0,0,0.15)" stroke-width="1" data-sq="2,2" class="board-cell"/><polygon points="191.02,86.50 191.02,105.50 174.56,115.00 158.11,105.50 158.11,86.50 174.56,77.00" fill="#e8ab6f" stroke="rgba(0,0,0,0.15)" stroke-width="1" data-sq="3,2" class="board-cell"/><polygon points="225.66,86.50 225.66,105.50 209.21,115.00 192.75,105.50 192.75,86.50 209.21,77.00" fill="#d18b47" stroke="rgba(0,0,0,0.15)" stroke-width="1" data-sq="4,2" class="board-cell"/><polygon points="260.30,86.50 260.30,105.50 243.85,115.00 227.39,105.50 227.39,86.50 243.85,77.00" fill="#ffce9e" stroke="rgba(0,0,0,0.15)" stroke-width="1" data-sq="5,2" class="board-cell"/><polygon points="294.94,86.50 294.94,105.50 278.49,115.00 262.03,105.50 262.03,86.50 278.49,77.00" fill="#e8ab6f" stroke="rgba(0,0,0,0.15)" stroke-width="1" data-sq="6,2" class="board-cell"/><polygon points="329.58,86.50 329.58,105.50 313.13,115.00 296.67,105.50 296.67,86.50 313.13,77.00" fill="#d18b47" stroke="rgba(0,0,0,0.15)" stroke-width="1" data-sq="7,2" class="board-cell"/><polygon points="364.22,86.50 364.22,105.50 347.77,115.00 331.31,105.50 331.31,86.50 347.77,77.00" fill="#ffce9e" stroke="rgba(0,0,0,0.15)" stroke-width="1" data-sq="8,2" class="board-cell"/><polygon points="104.42,116.50 104.42,135.50 87.96,145.00 71.51,135.50 71.51,116.50 87.96,107.00" fill="#ffce9e" stroke="rgba(0,0,0,0.15)" stroke-width="1" data-sq="0,3" class="board-cell"/><polygon points="139.06,116.50 139.06,135.50 122.60,145.00 106.15,135.50 106.15,116.50 122.60,107.00" fill="#e8ab6f" stroke="rgba(0,0,0,0.15)" stroke-width="1" data-sq="1,3" class="board-cell"/><polygon points="173.70,116.50 173.70,135.50 157.24,145.00 140.79,135.50 140.79,116.50 157.24,107.00" fill="#d18b47" stroke="rgba(0,0,0,0.15)" stroke-width="1" data-sq="2,3" class="board-cell"/><polygon points="208.34,116.50 208.34,135.50 191.88,145.00 175.43,135.50 175.43,116.50 191.88,107.00" fill="#ffce9e" stroke="rgba(0,0,0,0.15)" stroke-width="1" data-sq="3,3" class="board-cell"/><polygon points="242.98,116.50 242.98,135.50 226.53,145.00 210.07,135.50 210.07,116.50 226.53,107.00" fill="#e8ab6f" stroke="rgba(0,0,0,0.15)" stroke-width="1" data-sq="4,3" class="board-cell"/><polygon points="277.62,116.50 277.62,135.50 261.17,145.00 244.71,135.50 244.71,116.50 261.17,107.00" fill="#d18b47" stroke="rgba(0,0,0,0.15)" stroke-width="1" data-sq="5,3" class="board-cell"/><polygon points="312.26,116.50 312.26,135.50 295.81,145.00 279.35,135.50 279.35,116.50 295.81,107.00" fill="#ffce9e" stroke="rgba(0,0,0,0.15)" stroke-width="1" data-sq="6,3" class="board-cell"/><polygon points="346.90,116.50 346.90,135.50 330.45,145.00 313.99,135.50 313.99,116.50 330.45,107.00" fill="#e8ab6f" stroke="rgba(0,0,0,0.15)" stroke-width="1" data-sq="7,3" class="board-cell"/><polygon points="381.54,116.50 381.54,135.50 365.09,145.00 348.64,135.50 348.64,116.50 365.09,107.00" fill="#d18b47" stroke="rgba(0,0,0,0.15)" stroke-width="1" data-sq="8,3" class="board-cell"/><polygon points="121.74,146.50 121.74,165.50 105.28,175.00 88.83,165.50 88.83,146.50 105.28,137.00" fill="#d18b47" stroke="rgba(0,0,0,0.15)" stroke-width="1" data-sq="0,4" class="board-cell"/><polygon points="156.38,146.50 156.38,165.50 139.92,175.00 123.47,165.50 123.47,146.50 139.92,137.00" fill="#ffce9e" stroke="rgba(0,0,0,0.15)" stroke-width="1" data-sq="1,4" class="board-cell"/><polygon points="191.02,146.50 191.02,165.50 174.56,175.00 158.11,165.50 158.11,146.50 174.56,137.00" fill="#e8ab6f" stroke="rgba(0,0,0,0.15)" stroke-width="1" data-sq="2,4" class="board-cell"/><polygon points="225.66,146.50 225.66,165.50 209.21,175.00 192.75,165.50 192.75,146.50 209.21,137.00" fill="#d18b47" stroke="rgba(0,0,0,0.15)" stroke-width="1" data-sq="3,4" class="board-cell"/><polygon points="260.30,146.50 260.30,165.50 243.85,175.00 227.39,165.50 227.39,146.50 243.85,137.00" fill="#ffce9e" stroke="rgba(0,0,0,0.15)" stroke-width="1" data-sq="4,4" class="board-cell"/><polygon points="294.94,146.50 294.94,165.50 278.49,175.00 262.03,165.50 262.03,146.50 278.49,137.00" fill="#e8ab6f" stroke="rgba(0,0,0,0.15)" stroke-width="1" data-sq="5,4" class="board-cell"/><polygon points="329.58,146.50 329.58,165.50 313.13,175.00 296.67,165.50 296.67,146.50 313.13,137.00" fill="#d18b47" stroke="rgba(0,0,0,0.15)" stroke-width="1" data-sq="6,4" class="board-cell"/><polygon points="364.22,146.50 364.22,165.50 347.77,175.00 331.31,165.50 331.31,146.50 347.77,137.00" fill="#ffce9e" stroke="rgba(0,0,0,0.15)" stroke-width="1" data-sq="7,4" class="board-cell"/><polygon points="398.86,146.50 398.86,165.50 382.41,175.00 365.96,165.50 365.96,146.50 382.41,137.00" fill="#e8ab6f" stroke="rgba(0,0,0,0.15)" stroke-width="1" data-sq="8,4" class="board-cell"/><polygon points="139.06,176.50 139.06,195.50 122.60,205.00 106.15,195.50 106.15,176.50 122.60,167.00" fill="#e8ab6f" stroke="rgba(0,0,0,0.15)" stroke-width="1" data-sq="0,5" class="board-cell"/><polygon points="173.70,176.50 173.70,195.50 157.24,205.00 140.79,195.50 140.79,176.50 157.24,167.00" fill="#d18b47" stroke="rgba(0,0,0,0.15)" stroke-width="1" data-sq="1,5" class="board-cell"/><polygon points="208.34,176.50 208.34,195.50 191.88,205.00 175.43,195.50 175.43,176.50 191.88,167.00" fill="#ffce9e" stroke="rgba(0,0,0,0.15)" stroke-width="1" data-sq="2,5" class="board-cell"/><polygon points="242.98,176.50 242.98,195.50 226.53,205.00 210.07,195.50 210.07,176.50 226.53,167.00" fill="#e8ab6f" stroke="rgba(0,0,0,0.15)" stroke-width="1" data-sq="3,5" class="board-cell"/><polygon points="277.62,176.50 277.62,195.50 261.17,205.00 244.71,195.50 244.71,176.50 261.17,167.00" fill="#d18b47" stroke="rgba(0,0,0,0.15)" stroke-width="1" data-sq="4,5" class="board-cell"/><polygon points="312.26,176.50 312.26,195.50 295.81,205.00 279.35,195.50 279.35,176.50 295.81,167.00" fill="#ffce9e" stroke="rgba(0,0,0,0.15)" stroke-width="1" data-sq="5,5" class="board-cell"/><polygon points="346.90,176.50 346.90,195.50 330.45,205.00 313.99,195.50 313.99,176.50 330.45,167.00" fill="#e8ab6f" stroke="rgba(0,0,0,0.15)" stroke-width="1" data-sq="6,5" class="board-cell"/><polygon points="381.54,176.50 381.54,195.50 365.09,205.00 348.64,195.50 348.64,176.50 365.09,167.00" fill="#d18b47" stroke="rgba(0,0,0,0.15)" stroke-width="1" data-sq="7,5" class="board-cell"/><polygon points="416.19,176.50 416.19,195.50 399.73,205.00 383.28,195.50 383.28,176.50 399.73,167.00" fill="#ffce9e" stroke="rgba(0,0,0,0.15)" stroke-width="1" data-sq="8,5" class="board-cell"/><polygon points="156.38,206.50 156.38,225.50 139.92,235.00 123.47,225.50 123.47,206.50 139.92,197.00" fill="#ffce9e" stroke="rgba(0,0,0,0.15)" stroke-width="1" data-sq="0,6" class="board-cell"/><polygon points="191.02,206.50 191.02,225.50 174.56,235.00 158.11,225.50 158.11,206.50 174.56,197.00" fill="#e8ab6f" stroke="rgba(0,0,0,0.15)" stroke-width="1" data-sq="1,6" class="board-cell"/><polygon points="225.66,206.50 225.66,225.50 209.21,235.00 192.75,225.50 192.75,206.50 209.21,197.00" fill="#d18b47" stroke="rgba(0,0,0,0.15)" stroke-width="1" data-sq="2,6" class="board-cell"/><polygon points="260.30,206.50 260.30,225.50 243.85,235.00 227.39,225.50 227.39,206.50 243.85,197.00" fill="#ffce9e" stroke="rgba(0,0,0,0.15)" stroke-width="1" data-sq="3,6" class="board-cell"/><polygon points="294.94,206.50 294.94,225.50 278.49,235.00 262.03,225.50 262.03,206.50 278.49,197.00" fill="#e8ab6f" stroke="rgba(0,0,0,0.15)" stroke-width="1" data-sq="4,6" class="board-cell"/><polygon points="329.58,206.50 329.58,225.50 313.13,235.00 296.67,225.50 296.67,206.50 313.13,197.00" fill="#d18b47" stroke="rgba(0,0,0,0.15)" stroke-width="1" data-sq="5,6" class="board-cell"/><polygon points="364.22,206.50 364.22,225.50 347.77,235.00 331.31,225.50 331.31,206.50 347.77,197.00" fill="#ffce9e" stroke="rgba(0,0,0,0.15)" stroke-width="1" data-sq="6,6" class="board-cell"/><polygon points="398.86,206.50 398.86,225.50 382.41,235.00 365.96,225.50 365.96,206.50 382.41,197.00" fill="#e8ab6f" stroke="rgba(0,0,0,0.15)" stroke-width="1" data-sq="7,6" class="board-cell"/><polygon points="433.51,206.50 433.51,225.50 417.05,235.00 400.60,225.50 400.60,206.50 417.05,197.00" fill="#d18b47" stroke="rgba(0,0,0,0.15)" stroke-width="1" data-sq="8,6" class="board-cell"/><polygon points="173.70,236.50 173.70,255.50 157.24,265.00 140.79,255.50 140.79,236.50 157.24,227.00" fill="#d18b47" stroke="rgba(0,0,0,0.15)" stroke-width="1" data-sq="0,7" class="board-cell"/><polygon points="208.34,236.50 208.34,255.50 191.88,265.00 175.43,255.50 175.43,236.50 191.88,227.00" fill="#ffce9e" stroke="rgba(0,0,0,0.15)" stroke-width="1" data-sq="1,7" class="board-cell"/><polygon points="242.98,236.50 242.98,255.50 226.53,265.00 210.07,255.50 210.07,236.50 226.53,227.00" fill="#e8ab6f" stroke="rgba(0,0,0,0.15)" stroke-width="1" data-sq="2,7" class="board-cell"/><polygon points="277.62,236.50 277.62,255.50 261.17,265.00 244.71,255.50 244.71,236.50 261.17,227.00" fill="#d18b47" stroke="rgba(0,0,0,0.15)" stroke-width="1" data-sq="3,7" class="board-cell"/><polygon points="312.26,236.50 312.26,255.50 295.81,265.00 279.35,255.50 279.35,236.50 295.81,227.00" fill="#ffce9e" stroke="rgba(0,0,0,0.15)" stroke-width="1" data-sq="4,7" class="board-cell"/><polygon points="346.90,236.50 346.90,255.50 330.45,265.00 313.99,255.50 313.99,236.50 330.45,227.00" fill="#e8ab6f" stroke="rgba(0,0,0,0.15)" stroke-width="1" data-sq="5,7" class="board-cell"/><polygon points="381.54,236.50 381.54,255.50 365.09,265.00 348.64,255.50 348.64,236.50 365.09,227.00" fill="#d18b47" stroke="rgba(0,0,0,0.15)" stroke-width="1" data-sq="6,7" class="board-cell"/><polygon points="416.19,236.50 416.19,255.50 399.73,265.00 383.28,255.50 383.28,236.50 399.73,227.00" fill="#ffce9e" stroke="rgba(0,0,0,0.15)" stroke-width="1" data-sq="7,7" class="board-cell"/><polygon points="450.83,236.50 450.83,255.50 434.37,265.00 417.92,255.50 417.92,236.50 434.37,227.00" fill="#e8ab6f" stroke="rgba(0,0,0,0.15)" stroke-width="1" data-sq="8,7" class="board-cell"/><polygon points="191.02,266.50 191.02,285.50 174.56,295.00 158.11,285.50 158.11,266.50 174.56,257.00" fill="#e8ab6f" stroke="rgba(0,0,0,0.15)" stroke-width="1" data-sq="0,8" class="board-cell"/><polygon points="225.66,266.50 225.66,285.50 209.21,295.00 192.75,285.50 192.75,266.50 209.21,257.00" fill="#d18b47" stroke="rgba(0,0,0,0.15)" stroke-width="1" data-sq="1,8" class="board-cell"/><polygon points="260.30,266.50 260.30,285.50 243.85,295.00 227.39,285.50 227.39,266.50 243.85,257.00" fill="#ffce9e" stroke="rgba(0,0,0,0.15)" stroke-width="1" data-sq="2,8" class="board-cell"/><polygon points="294.94,266.50 294.94,285.50 278.49,295.00 262.03,285.50 262.03,266.50 278.49,257.00" fill="#e8ab6f" stroke="rgba(0,0,0,0.15)" stroke-width="1" data-sq="3,8" class="board-cell"/><polygon points="329.58,266.50 329.58,285.50 313.13,295.00 296.67,285.50 296.67,266.50 313.13,257.00" fill="#d18b47" stroke="rgba(0,0,0,0.15)" stroke-width="1" data-sq="4,8" class="board-cell"/><polygon points="364.22,266.50 364.22,285.50 347.77,295.00 331.31,285.50 331.31,266.50 347.77,257.00" fill="#ffce9e" stroke="rgba(0,0,0,0.15)" stroke-width="1" data-sq="5,8" class="board-cell"/><polygon points="398.86,266.50 398.86,285.50 382.41,295.00 365.96,285.50 365.96,266.50 382.41,257.00" fill="#e8ab6f" stroke="rgba(0,0,0,0.15)" stroke-width="1" data-sq="6,8" class="board-cell"/><polygon points="433.51,266.50 433.51,285.50 417.05,295.00 400.60,285.50 400.60,266.50 417.05,257.00" fill="#d18b47" stroke="rgba(0,0,0,0.15)" stroke-width="1" data-sq="7,8" class="board-cell"/><polygon points="468.15,266.50 468.15,285.50 451.69,295.00 435.24,285.50 435.24,266.50 451.69,257.00" fill="#ffce9e" stroke="rgba(0,0,0,0.15)" stroke-width="1" data-sq="8,8" class="board-cell"/><g pointer-events="none"><use href="#piece-mce-chess-bR" x="20.0" y="20.0" width="32.0" height="32.0"/><use href="#piece-mce-chess-bP" x="54.6" y="80.0" width="32.0" height="32.0"/><use href="#piece-mce-chess-wP" x="123.9" y="200.0" width="32.0" height="32.0"/><use href="#piece-mce-chess-wR" x="158.6" y="260.0" width="32.0" height="32.0"/><use href="#piece-mce-chess-bN" x="54.6" y="20.0" width="32.0" height="32.0"/><use href="#piece-mce-chess-bP" x="89.3" y="80.0" width="32.0" height="32.0"/><use href="#piece-mce-chess-wP" x="158.6" y="200.0" width="32.0" height="32.0"/><use href="#piece-mce-chess-wN" x="193.2" y="260.0" width="32.0" height="32.0"/><use href="#piece-mce-chess-bB" x="89.3" y="20.0" width="32.0" height="32.0"/><use href="#piece-mce-chess-bP" x="123.9" y="80.0" width="32.0" height="32.0"/><use href="#piece-mce-chess-wP" x="193.2" y="200.0" width="32.0" height="32.0"/><use href="#piece-mce-chess-wB" x="227.8" y="260.0" width="32.0" height="32.0"/><use href="#piece-mce-chess-bK" x="123.9" y="20.0" width="32.0" height="32.0"/><use href="#piece-mce-chess-bP" x="158.6" y="80.0" width="32.0" height="32.0"/><use href="#piece-mce-chess-wP" x="227.8" y="200.0" width="32.0" height="32.0"/><use href="#piece-mce-chess-wQ" x="262.5" y="260.0" width="32.0" height="32.0"/><use href="#piece-mce-chess-bB" x="158.6" y="20.0" width="32.0" height="32.0"/><use href="#piece-mce-chess-bP" x="193.2" y="80.0" width="32.0" height="32.0"/><use href="#piece-mce-chess-wP" x="262.5" y="200.0" width="32.0" height="32.0"/><use href="#piece-mce-chess-wB" x="297.1" y="260.0" width="32.0" height="32.0"/><use href="#piece-mce-chess-bQ" x="193.2" y="20.0" width="32.0" height="32.0"/><use href="#piece-mce-chess-bP" x="227.8" y="80.0" width="32.0" height="32.0"/><use href="#piece-mce-chess-wP" x="297.1" y="200.0" width="32.0" height="32.0"/><use href="#piece-mce-chess-wK" x="331.8" y="260.0" width="32.0" height="32.0"/><use href="#piece-mce-chess-bB" x="227.8" y="20.0" width="32.0" height="32.0"/><use href="#piece-mce-chess-bP" x="262.5" y="80.0" width="32.0" height="32.0"/><use href="#piece-mce-chess-wP" x="331.8" y="200.0" width="32.0" height="32.0"/><use href="#piece-mce-chess-wB" x="366.4" y="260.0" width="32.0" height="32.0"/><use href="#piece-mce-chess-bN" x="262.5" y="20.0" width="32.0" height="32.0"/><use href="#piece-mce-chess-bP" x="297.1" y="80.0" width="32.0" height="32.0"/><use href="#piece-mce-chess-wP" x="366.4" y="200.0" width="32.0" height="32.0"/><use href="#piece-mce-chess-wN" x="401.1" y="260.0" width="32.0" height="32.0"/><use href="#piece-mce-chess-bR" x="297.1" y="20.0" width="32.0" height="32.0"/><use href="#piece-mce-chess-bP" x="331.8" y="80.0" width="32.0" height="32.0"/><use href="#piece-mce-chess-wP" x="401.1" y="200.0" width="32.0" height="32.0"/><use href="#piece-mce-chess-wR" x="435.7" y="260.0" width="32.0" height="32.0"/></g>
</svg>