<svg xmlns="http://www.w3.org/2000/svg" viewBox="0 0 200 200" width="200" height="200">
<rect x="0" y="0" width="200" height="200" fill="#f5e6c8" rx="4"/><g fill="none" stroke="#4a3520" stroke-width="2.5" stroke-linecap="square"><rect x="12.5" y="12.5" width="175" height="175"/><line x1="100" y1="12.5" x2="100" y2="187.5"/><line x1="12.5" y1="100" x2="187.5" y2="100"/></g><g fill="#4a3520"><circle cx="12.5" cy="12.5" r="7"/><circle cx="12.5" cy="12.5" r="14" fill="transparent" class="board-cell" data-sq="n1" data-type="node"/><circle cx="187.5" cy="12.5" r="7"/><circle cx="187.5" cy="12.5" r="14" fill="transparent" class="board-cell" data-sq="n2" data-type="node"/><circle cx="187.5" cy="187.5" r="7"/><circle cx="187.5" cy="187.5" r="14" fill="transparent" class="board-cell" data-sq="n3" data-type="node"/><circle cx="12.5" cy="187.5" r="7"/><circle cx="12.5" cy="187.5" r="14" fill="transparent" class="board-cell" data-sq="n4" data-type="node"/><circle cx="100" cy="12.5" r="7"/><circle cx="100" cy="12.5" r="14" fill="transparent" class="board-cell" data-sq="n5" data-type="node"/><circle cx="187.5" cy="100" r="7"/><circle cx="187.5" cy="100" r="14" fill="transparent" class="board-cell" data-sq="n6" data-type="node"/><circle cx="100" cy="187.5" r="7"/><circle cx="100" cy="187.5" r="14" fill="transparent" class="board-cell" data-sq="n7" data-type="node"/><circle cx="12.5" cy="100" r="7"/><circle cx="12.5" cy="100" r="14" fill="transparent" class="board-cell" data-sq="n8" data-type="node"/><circle cx="100" cy="100" r="7"/><circle cx="100" cy="100" r="14" fill="transparent" class="board-cell" data-sq="n9" data-type="node"/></g>
</svg>