<svg xmlns="http://www.w3.org/2000/svg" viewBox="0 0 260 260" width="260" height="260">
<rect x="0" y="0" width="260" height="260" fill="#f5e6c8" rx="4"/><g fill="none" stroke="#4a3520" stroke-width="2.5" stroke-linecap="square"><rect x="16.25" y="16.25" width="227.5" height="227.5"/><rect x="97.5" y="97.5" width="65" height="65"/><line x1="130" y1="16.25" x2="130" y2="97.5"/><line x1="130" y1="162.5" x2="130" y2="243.75"/><line x1="16.25" y1="130" x2="97.5" y2="130"/><line x1="162.5" y1="130" x2="243.75" y2="130"/></g><g fill="#4a3520"><circle cx="16.25" cy="16.25" r="7"/><circle cx="16.25" cy="16.25" r="14" fill="transparent" class="board-cell" data-sq="n1" data-type="node"/><circle cx="243.75" cy="16.25" r="7"/><circle cx="243.75" cy="16.25" r="14" fill="transparent" class="board-cell" data-sq="n2" data-type="node"/><circle cx="243.75" cy="243.75" r="7"/><circle cx="243.75" cy="243.75" r="14" fill="transparent" class="board-cell" data-sq="n3" data-type="node"/><circle cx="16.25" cy="243.75" r="7"/><circle cx="16.25" cy="243.75" r="14" fill="transparent" class="board-cell" data-sq="n4" data-type="node"/><circle cx="130" cy="16.25" r="7"/><circle cx="130" cy="16.25" r="14" fill="transparent" class="board-cell" data-sq="n5" data-type="node"/><circle cx="243.75" cy="130" r="7"/><circle cx="243.75" cy="130" r="14" fill="transparent" class="board-cell" data-sq="n6" data-type="node"/><circle cx="130" cy="243.75" r="7"/><circle cx="130" cy="243.75" r="14" fill="transparent" class="board-cell" data-sq="n7" data-type="node"/><circle cx="16.25" cy="130" r="7"/><circle cx="16.25" cy="130" r="14" fill="transparent" class="board-cell" data-sq="n8" data-type="node"/><circle cx="97.5" cy="97.5" r="7"/><circle cx="97.5" cy="97.5" r="14" fill="transparent" class="board-cell" data-sq="n9" data-type="node"/><circle cx="162.5" cy="97.5" r="7"/><circle cx="162.5" cy="97.5" r="14" fill="transparent" class="board-cell" data-sq="n10" data-type="node"/><circle cx="162.5" cy="162.5" r="7"/><circle cx="162.5" cy="162.5" r="14" fill="transparent" class="board-cell" data-sq="n11" data-type="node"/><circle cx="97.5" cy="162.5" r="7"/><circle cx="97.5" cy="162.5" r="14" fill="transparent" class="board-cell" data-sq="n12" data-type="node"/><circle cx="130" cy="97.5" r="7"/><circle cx="130" cy="97.5" r="14" fill="transparent" class="board-cell" data-sq="n13" data-type="node"/><circle cx="162.5" cy="130" r="7"/><circle cx="162.5" cy="130" r="14" fill="transparent" class="board-cell" data-sq="n14" data-type="node"/><circle cx="130" cy="162.5" r="7"/><circle cx="130" cy="162.5" r="14" fill="transparent" class="board-cell" data-sq="n15" data-type="node"/><circle cx="97.5" cy="130" r="7"/><circle cx="97.5" cy="130" r="14" fill="transparent" class="board-cell" data-sq="n16" data-type="node"/></g>
</svg>