<svg xmlns="http://www.w3.org/2000/svg" viewBox="0 0 335.8153162899183 302.4" width="335.8153162899183" height="302.4">
<g fill="#6b4226"><polygon points="65.65,138.24 65.65,164.16 43.20,177.12 20.75,164.16 20.75,138.24 43.20,125.28"/><polygon points="86.43,174.24 86.43,200.16 63.98,213.12 41.54,200.16 41.54,174.24 63.98,161.28"/><polygon points="107.22,210.24 107.22,236.16 84.77,249.12 62.32,236.16 62.32,210.24 84.77,197.28"/><polygon points="128.00,246.24 128.00,272.16 105.55,285.12 83.11,272.16 83.11,246.24 105.55,233.28"/><polygon points="86.43,102.24 86.43,128.16 63.98,141.12 41.54,128.16 41.54,102.24 63.98,89.28"/><polygon points="107.22,138.24 107.22,164.16 84.77,177.12 62.32,164.16 62.32,138.24 84.77,125.28"/><polygon points="128.00,174.24 128.00,200.16 105.55,213.12 83.11,200.16 83.11,174.24 105.55,161.28"/><polygon points="148.79,210.24 148.79,236.16 126.34,249.12 103.89,236.16 103.89,210.24 126.34,197.28"/><polygon points="169.57,246.24 169.57,272.16 147.12,285.12 124.68,272.16 124.68,246.24 147.12,233.28"/><polygon points="107.22,66.24 107.22,92.16 84.77,105.12 62.32,92.16 62.32,66.24 84.77,53.28"/><polygon points="128.00,102.24 128.00,128.16 105.55,141.12 83.11,128.16 83.11,102.24 105.55,89.28"/><polygon points="148.79,138.24 148.79,164.16 126.34,177.12 103.89,164.16 103.89,138.24 126.34,125.28"/><polygon points="169.57,174.24 169.57,200.16 147.12,213.12 124.68,200.16 124.68,174.24 147.12,161.28"/><polygon points="190.36,210.24 190.36,236.16 167.91,249.12 145.46,236.16 145.46,210.24 167.91,197.28"/><polygon points="211.14,246.24 211.14,272.16 188.69,285.12 166.24,272.16 166.24,246.24 188.69,233.28"/><polygon points="128.00,30.24 128.00,56.16 105.55,69.12 83.11,56.16 83.11,30.24 105.55,17.28"/><polygon points="148.79,66.24 148.79,92.16 126.34,105.12 103.89,92.16 103.89,66.24 126.34,53.28"/><polygon points="169.57,102.24 169.57,128.16 147.12,141.12 124.68,128.16 124.68,102.24 147.12,89.28"/><polygon points="190.36,138.24 190.36,164.16 167.91,177.12 145.46,164.16 145.46,138.24 167.91,125.28"/><polygon points="211.14,174.24 211.14,200.16 188.69,213.12 166.24,200.16 166.24,174.24 188.69,161.28"/><polygon points="231.92,210.24 231.92,236.16 209.48,249.12 187.03,236.16 187.03,210.24 209.48,197.28"/><polygon points="252.71,246.24 252.71,272.16 230.26,285.12 207.81,272.16 207.81,246.24 230.26,233.28"/><polygon points="169.57,30.24 169.57,56.16 147.12,69.12 124.68,56.16 124.68,30.24 147.12,17.28"/><polygon points="190.36,66.24 190.36,92.16 167.91,105.12 145.46,92.16 145.46,66.24 167.91,53.28"/><polygon points="211.14,102.24 211.14,128.16 188.69,141.12 166.24,128.16 166.24,102.24 188.69,89.28"/><polygon points="231.92,138.24 231.92,164.16 209.48,177.12 187.03,164.16 187.03,138.24 209.48,125.28"/><polygon points="252.71,174.24 252.71,200.16 230.26,213.12 207.81,200.16 207.81,174.24 230.26,161.28"/><polygon points="273.49,210.24 273.49,236.16 251.05,249.12 228.60,236.16 228.60,210.24 251.05,197.28"/><polygon points="211.14,30.24 211.14,56.16 188.69,69.12 166.24,56.16 166.24,30.24 188.69,17.28"/><polygon points="231.92,66.24 231.92,92.16 209.48,105.12 187.03,92.16 187.03,66.24 209.48,53.28"/><polygon points="252.71,102.24 252.71,128.16 230.26,141.12 207.81,128.16 207.81,102.24 230.26,89.28"/><polygon points="273.49,138.24 273.49,164.16 251.05,177.12 228.60,164.16 228.60,138.24 251.05,125.28"/><polygon points="294.28,174.24 294.28,200.16 271.83,213.12 249.38,200.16 249.38,174.24 271.83,161.28"/><polygon points="252.71,30.24 252.71,56.16 230.26,69.12 207.81,56.16 207.81,30.24 230.26,17.28"/><polygon points="273.49,66.24 273.49,92.16 251.05,105.12 228.60,92.16 228.60,66.24 251.05,53.28"/><polygon points="294.28,102.24 294.28,128.16 271.83,141.12 249.38,128.16 249.38,102.24 271.83,89.28"/><polygon points="315.06,138.24 315.06,164.16 292.62,177.12 270.17,164.16 270.17,138.24 292.62,125.28"/></g><g fill="none" stroke="#6b4226" stroke-width="14" stroke-linecap="round" stroke-linejoin="round"><line x1="43.20" y1="176.40" x2="21.38" y2="163.80"/><line x1="21.38" y1="163.80" x2="21.38" y2="138.60"/><line x1="21.38" y1="138.60" x2="43.20" y2="126.00"/><line x1="63.98" y1="212.40" x2="42.16" y2="199.80"/><line x1="42.16" y1="199.80" x2="42.16" y2="174.60"/><line x1="84.77" y1="248.40" x2="62.95" y2="235.80"/><line x1="62.95" y1="235.80" x2="62.95" y2="210.60"/><line x1="127.38" y1="271.80" x2="105.55" y2="284.40"/><line x1="105.55" y1="284.40" x2="83.73" y2="271.80"/><line x1="83.73" y1="271.80" x2="83.73" y2="246.60"/><line x1="42.16" y1="127.80" x2="42.16" y2="102.60"/><line x1="42.16" y1="102.60" x2="63.98" y2="90.00"/><line x1="168.95" y1="271.80" x2="147.12" y2="284.40"/><line x1="147.12" y1="284.40" x2="125.30" y2="271.80"/><line x1="62.95" y1="91.80" x2="62.95" y2="66.60"/><line x1="62.95" y1="66.60" x2="84.77" y2="54.00"/><line x1="210.52" y1="271.80" x2="188.69" y2="284.40"/><line x1="188.69" y1="284.40" x2="166.87" y2="271.80"/><line x1="83.73" y1="55.80" x2="83.73" y2="30.60"/><line x1="83.73" y1="30.60" x2="105.55" y2="18.00"/><line x1="105.55" y1="18.00" x2="127.38" y2="30.60"/><line x1="252.09" y1="246.60" x2="252.09" y2="271.80"/><line x1="252.09" y1="271.80" x2="230.26" y2="284.40"/><line x1="230.26" y1="284.40" x2="208.44" y2="271.80"/><line x1="125.30" y1="30.60" x2="147.12" y2="18.00"/><line x1="147.12" y1="18.00" x2="168.95" y2="30.60"/><line x1="272.87" y1="210.60" x2="272.87" y2="235.80"/><line x1="272.87" y1="235.80" x2="251.05" y2="248.40"/><line x1="166.87" y1="30.60" x2="188.69" y2="18.00"/><line x1="188.69" y1="18.00" x2="210.52" y2="30.60"/><line x1="293.65" y1="174.60" x2="293.65" y2="199.80"/><line x1="293.65" y1="199.80" x2="271.83" y2="212.40"/><line x1="252.09" y1="30.60" x2="252.09" y2="55.80"/><line x1="208.44" y1="30.60" x2="230.26" y2="18.00"/><line x1="230.26" y1="18.00" x2="252.09" y2="30.60"/><line x1="272.87" y1="66.60" x2="272.87" y2="91.80"/><line x1="251.05" y1="54.00" x2="272.87" y2="66.60"/><line x1="293.65" y1="102.60" x2="293.65" y2="127.80"/><line x1="271.83" y1="90.00" x2="293.65" y2="102.60"/><line x1="314.44" y1="138.60" x2="314.44" y2="163.80"/><line x1="314.44" y1="163.80" x2="292.62" y2="176.40"/><line x1="292.62" y1="126.00" x2="314.44" y2="138.60"/></g><polygon points="62.95,139.80 62.95,162.60 43.20,174.00 23.45,162.60 23.45,139.80 43.20,128.40" fill="undefined" stroke="rgba(0,0,0,0.2)" stroke-width="1" data-sq="-3,0" class="board-cell"/><polygon points="83.73,175.80 83.73,198.60 63.98,210.00 44.24,198.60 44.24,175.80 63.98,164.40" fill="undefined" stroke="rgba(0,0,0,0.2)" stroke-width="1" data-sq="-3,1" class="board-cell"/><polygon points="104.51,211.80 104.51,234.60 84.77,246.00 65.02,234.60 65.02,211.80 84.77,200.40" fill="undefined" stroke="rgba(0,0,0,0.2)" stroke-width="1" data-sq="-3,2" class="board-cell"/><polygon points="125.30,247.80 125.30,270.60 105.55,282.00 85.81,270.60 85.81,247.80 105.55,236.40" fill="undefined" stroke="rgba(0,0,0,0.2)" stroke-width="1" data-sq="-3,3" class="board-cell"/><polygon points="83.73,103.80 83.73,126.60 63.98,138.00 44.24,126.60 44.24,103.80 63.98,92.40" fill="undefined" stroke="rgba(0,0,0,0.2)" stroke-width="1" data-sq="-2,-1" class="board-cell"/><polygon points="104.51,139.80 104.51,162.60 84.77,174.00 65.02,162.60 65.02,139.80 84.77,128.40" fill="undefined" stroke="rgba(0,0,0,0.2)" stroke-width="1" data-sq="-2,0" class="board-cell"/><polygon points="125.30,175.80 125.30,198.60 105.55,210.00 85.81,198.60 85.81,175.80 105.55,164.40" fill="undefined" stroke="rgba(0,0,0,0.2)" stroke-width="1" data-sq="-2,1" class="board-cell"/><polygon points="146.08,211.80 146.08,234.60 126.34,246.00 106.59,234.60 106.59,211.80 126.34,200.40" fill="undefined" stroke="rgba(0,0,0,0.2)" stroke-width="1" data-sq="-2,2" class="board-cell"/><polygon points="166.87,247.80 166.87,270.60 147.12,282.00 127.38,270.60 127.38,247.80 147.12,236.40" fill="undefined" stroke="rgba(0,0,0,0.2)" stroke-width="1" data-sq="-2,3" class="board-cell"/><polygon points="104.51,67.80 104.51,90.60 84.77,102.00 65.02,90.60 65.02,67.80 84.77,56.40" fill="undefined" stroke="rgba(0,0,0,0.2)" stroke-width="1" data-sq="-1,-2" class="board-cell"/><polygon points="125.30,103.80 125.30,126.60 105.55,138.00 85.81,126.60 85.81,103.80 105.55,92.40" fill="undefined" stroke="rgba(0,0,0,0.2)" stroke-width="1" data-sq="-1,-1" class="board-cell"/><polygon points="146.08,139.80 146.08,162.60 126.34,174.00 106.59,162.60 106.59,139.80 126.34,128.40" fill="undefined" stroke="rgba(0,0,0,0.2)" stroke-width="1" data-sq="-1,0" class="board-cell"/><polygon points="166.87,175.80 166.87,198.60 147.12,210.00 127.38,198.60 127.38,175.80 147.12,164.40" fill="undefined" stroke="rgba(0,0,0,0.2)" stroke-width="1" data-sq="-1,1" class="board-cell"/><polygon points="187.65,211.80 187.65,234.60 167.91,246.00 148.16,234.60 148.16,211.80 167.91,200.40" fill="undefined" stroke="rgba(0,0,0,0.2)" stroke-width="1" data-sq="-1,2" class="board-cell"/><polygon points="208.44,247.80 208.44,270.60 188.69,282.00 168.95,270.60 168.95,247.80 188.69,236.40" fill="undefined" stroke="rgba(0,0,0,0.2)" stroke-width="1" data-sq="-1,3" class="board-cell"/><polygon points="125.30,31.80 125.30,54.60 105.55,66.00 85.81,54.60 85.81,31.80 105.55,20.40" fill="undefined" stroke="rgba(0,0,0,0.2)" stroke-width="1" data-sq="0,-3" class="board-cell"/><polygon points="146.08,67.80 146.08,90.60 126.34,102.00 106.59,90.60 106.59,67.80 126.34,56.40" fill="undefined" stroke="rgba(0,0,0,0.2)" stroke-width="1" data-sq="0,-2" class="board-cell"/><polygon points="166.87,103.80 166.87,126.60 147.12,138.00 127.38,126.60 127.38,103.80 147.12,92.40" fill="undefined" stroke="rgba(0,0,0,0.2)" stroke-width="1" data-sq="0,-1" class="board-cell"/><polygon points="187.65,139.80 187.65,162.60 167.91,174.00 148.16,162.60 148.16,139.80 167.91,128.40" fill="undefined" stroke="rgba(0,0,0,0.2)" stroke-width="1" data-sq="0,0" class="board-cell"/><polygon points="208.44,175.80 208.44,198.60 188.69,210.00 168.95,198.60 168.95,175.80 188.69,164.40" fill="undefined" stroke="rgba(0,0,0,0.2)" stroke-width="1" data-sq="0,1" class="board-cell"/><polygon points="229.22,211.80 229.22,234.60 209.48,246.00 189.73,234.60 189.73,211.80 209.48,200.40" fill="undefined" stroke="rgba(0,0,0,0.2)" stroke-width="1" data-sq="0,2" class="board-cell"/><polygon points="250.01,247.80 250.01,270.60 230.26,282.00 210.52,270.60 210.52,247.80 230.26,236.40" fill="undefined" stroke="rgba(0,0,0,0.2)" stroke-width="1" data-sq="0,3" class="board-cell"/><polygon points="166.87,31.80 166.87,54.60 147.12,66.00 127.38,54.60 127.38,31.80 147.12,20.40" fill="undefined" stroke="rgba(0,0,0,0.2)" stroke-width="1" data-sq="1,-3" class="board-cell"/><polygon points="187.65,67.80 187.65,90.60 167.91,102.00 148.16,90.60 148.16,67.80 167.91,56.40" fill="undefined" stroke="rgba(0,0,0,0.2)" stroke-width="1" data-sq="1,-2" class="board-cell"/><polygon points="208.44,103.80 208.44,126.60 188.69,138.00 168.95,126.60 168.95,103.80 188.69,92.40" fill="undefined" stroke="rgba(0,0,0,0.2)" stroke-width="1" data-sq="1,-1" class="board-cell"/><polygon points="229.22,139.80 229.22,162.60 209.48,174.00 189.73,162.60 189.73,139.80 209.48,128.40" fill="undefined" stroke="rgba(0,0,0,0.2)" stroke-width="1" data-sq="1,0" class="board-cell"/><polygon points="250.01,175.80 250.01,198.60 230.26,210.00 210.52,198.60 210.52,175.80 230.26,164.40" fill="undefined" stroke="rgba(0,0,0,0.2)" stroke-width="1" data-sq="1,1" class="board-cell"/><polygon points="270.79,211.80 270.79,234.60 251.05,246.00 231.30,234.60 231.30,211.80 251.05,200.40" fill="undefined" stroke="rgba(0,0,0,0.2)" stroke-width="1" data-sq="1,2" class="board-cell"/><polygon points="208.44,31.80 208.44,54.60 188.69,66.00 168.95,54.60 168.95,31.80 188.69,20.40" fill="undefined" stroke="rgba(0,0,0,0.2)" stroke-width="1" data-sq="2,-3" class="board-cell"/><polygon points="229.22,67.80 229.22,90.60 209.48,102.00 189.73,90.60 189.73,67.80 209.48,56.40" fill="undefined" stroke="rgba(0,0,0,0.2)" stroke-width="1" data-sq="2,-2" class="board-cell"/><polygon points="250.01,103.80 250.01,126.60 230.26,138.00 210.52,126.60 210.52,103.80 230.26,92.40" fill="undefined" stroke="rgba(0,0,0,0.2)" stroke-width="1" data-sq="2,-1" class="board-cell"/><polygon points="270.79,139.80 270.79,162.60 251.05,174.00 231.30,162.60 231.30,139.80 251.05,128.40" fill="undefined" stroke="rgba(0,0,0,0.2)" stroke-width="1" data-sq="2,0" class="board-cell"/><polygon points="291.58,175.80 291.58,198.60 271.83,210.00 252.09,198.60 252.09,175.80 271.83,164.40" fill="undefined" stroke="rgba(0,0,0,0.2)" stroke-width="1" data-sq="2,1" class="board-cell"/><polygon points="250.01,31.80 250.01,54.60 230.26,66.00 210.52,54.60 210.52,31.80 230.26,20.40" fill="undefined" stroke="rgba(0,0,0,0.2)" stroke-width="1" data-sq="3,-3" class="board-cell"/><polygon points="270.79,67.80 270.79,90.60 251.05,102.00 231.30,90.60 231.30,67.80 251.05,56.40" fill="undefined" stroke="rgba(0,0,0,0.2)" stroke-width="1" data-sq="3,-2" class="board-cell"/><polygon points="291.58,103.80 291.58,126.60 271.83,138.00 252.09,126.60 252.09,103.80 271.83,92.40" fill="undefined" stroke="rgba(0,0,0,0.2)" stroke-width="1" data-sq="3,-1" class="board-cell"/><polygon points="312.36,139.80 312.36,162.60 292.62,174.00 272.87,162.60 272.87,139.80 292.62,128.40" fill="undefined" stroke="rgba(0,0,0,0.2)" stroke-width="1" data-sq="3,0" class="board-cell"/>
</svg>