<svg xmlns="http://www.w3.org/2000/svg" viewBox="0 0 330 330" width="330" height="330">
<defs>
<symbol id="piece-mce-shogi-fairy-wLH" viewBox="0 0 45 45"><polygon points="22.5,2 42,16 38,43 7,43 3,16" fill="#f5deb3" stroke="#8b4513" stroke-width="1.5"/><text x="22.5" y="30" text-anchor="middle" font-size="18" font-family="serif" fill="#1a1a1a">馬</text></symbol>
<symbol id="piece-mce-shogi-fairy-wCM" viewBox="0 0 45 45"><polygon points="22.5,2 42,16 38,43 7,43 3,16" fill="#f5deb3" stroke="#8b4513" stroke-width="1.5"/><text x="22.5" y="30" text-anchor="middle" font-size="18" font-family="serif" fill="#1a1a1a">猿</text></symbol>
<symbol id="piece-mce-shogi-fairy-wSO" viewBox="0 0 45 45"><polygon points="22.5,2 42,16 38,43 7,43 3,16" fill="#f5deb3" stroke="#8b4513" stroke-width="1.5"/><text x="22.5" y="30" text-anchor="middle" font-size="18" font-family="serif" fill="#1a1a1a">梟</text></symbol>
<symbol id="piece-mce-shogi-fairy-wFC" viewBox="0 0 45 45"><polygon points="22.5,2 42,16 38,43 7,43 3,16" fill="#f5deb3" stroke="#8b4513" stroke-width="1.5"/><text x="22.5" y="30" text-anchor="middle" font-size="18" font-family="serif" fill="#1a1a1a">鶏</text></symbol>
<symbol id="piece-mce-shogi-fairy-wVS" viewBox="0 0 45 45"><polygon points="22.5,2 42,16 38,43 7,43 3,16" fill="#f5deb3" stroke="#8b4513" stroke-width="1.5"/><text x="22.5" y="30" text-anchor="middle" font-size="18" font-family="serif" fill="#1a1a1a">鹿</text></symbol>
<symbol id="piece-mce-shogi-fairy-wCK" viewBox="0 0 45 45"><polygon points="22.5,2 42,16 38,43 7,43 3,16" fill="#f5deb3" stroke="#8b4513" stroke-width="1.5"/><text x="22.5" y="30" text-anchor="middle" font-size="18" font-family="serif" fill="#1a1a1a">鶴</text></symbol>
<symbol id="piece-mce-shogi-fairy-wVW" viewBox="0 0 45 45"><polygon points="22.5,2 42,16 38,43 7,43 3,16" fill="#f5deb3" stroke="#8b4513" stroke-width="1.5"/><text x="22.5" y="30" text-anchor="middle" font-size="18" font-family="serif" fill="#1a1a1a">狼</text></symbol>
<symbol id="piece-mce-shogi-fairy-wFG" viewBox="0 0 45 45"><polygon points="22.5,2 42,16 38,43 7,43 3,16" fill="#f5deb3" stroke="#8b4513" stroke-width="1.5"/><text x="22.5" y="30" text-anchor="middle" font-size="18" font-family="serif" fill="#1a1a1a">鵞</text></symbol>
<symbol id="piece-mce-shogi-fairy-wSC" viewBox="0 0 45 45"><polygon points="22.5,2 42,16 38,43 7,43 3,16" fill="#f5deb3" stroke="#8b4513" stroke-width="1.5"/><text x="22.5" y="30" text-anchor="middle" font-size="18" font-family="serif" fill="#1a1a1a">烏</text></symbol>
<symbol id="piece-mce-shogi-fairy-wBD" viewBox="0 0 45 45"><polygon points="22.5,2 42,16 38,43 7,43 3,16" fill="#f5deb3" stroke="#8b4513" stroke-width="1.5"/><text x="22.5" y="30" text-anchor="middle" font-size="18" font-family="serif" fill="#1a1a1a">犬</text></symbol>
<symbol id="piece-mce-shogi-fairy-wOC" viewBox="0 0 45 45"><polygon points="22.5,2 42,16 38,43 7,43 3,16" fill="#f5deb3" stroke="#8b4513" stroke-width="1.5"/><text x="22.5" y="30" text-anchor="middle" font-size="18" font-family="serif" fill="#1a1a1a">牛</text></symbol>
<symbol id="piece-mce-shogi-fairy-wCE" viewBox="0 0 45 45"><polygon points="22.5,2 42,16 38,43 7,43 3,16" fill="#f5deb3" stroke="#8b4513" stroke-width="1.5"/><text x="22.5" y="30" text-anchor="middle" font-size="18" font-family="serif" fill="#1a1a1a">鷲</text></symbol>
<symbol id="piece-mce-shogi-fairy-wSW" viewBox="0 0 45 45"><polygon points="22.5,2 42,16 38,43 7,43 3,16" fill="#f5deb3" stroke="#8b4513" stroke-width="1.5"/><text x="22.5" y="30" text-anchor="middle" font-size="18" font-family="serif" fill="#1a1a1a">燕</text></symbol>
<symbol id="piece-mce-shogi-fairy-wFF" viewBox="0 0 45 45"><polygon points="22.5,2 42,16 38,43 7,43 3,16" fill="#f5deb3" stroke="#8b4513" stroke-width="1.5"/><text x="22.5" y="30" text-anchor="middle" font-size="18" font-family="serif" fill="#1a1a1a">鷹</text></symbol>
<symbol id="piece-mce-shogi-fairy-wSP" viewBox="0 0 45 45"><polygon points="22.5,2 42,16 38,43 7,43 3,16" fill="#f5deb3" stroke="#8b4513" stroke-width="1.5"/><text x="22.5" y="30" text-anchor="middle" font-size="18" font-family="serif" fill="#1a1a1a">雀</text></symbol>
<symbol id="piece-mce-shogi-fairy-wRR" viewBox="0 0 45 45"><polygon points="22.5,2 42,16 38,43 7,43 3,16" fill="#f5deb3" stroke="#8b4513" stroke-width="1.5"/><text x="22.5" y="30" text-anchor="middle" font-size="18" font-family="serif" fill="#1a1a1a">兎</text></symbol>
<symbol id="piece-mce-shogi-fairy-wTF" viewBox="0 0 45 45"><polygon points="22.5,2 42,16 38,43 7,43 3,16" fill="#f5deb3" stroke="#8b4513" stroke-width="1.5"/><text x="22.5" y="30" text-anchor="middle" font-size="18" font-family="serif" fill="#1a1a1a">狐</text></symbol>
<symbol id="piece-mce-shogi-fairy-bSP" viewBox="0 0 45 45"><polygon points="22.5,43 3,29 7,2 38,2 42,29" fill="#f5deb3" stroke="#8b4513" stroke-width="1.5"/><text x="22.5" y="28" text-anchor="middle" font-size="18" font-family="serif" fill="#1a1a1a">雀</text></symbol>
<symbol id="piece-mce-shogi-fairy-bTF" viewBox="0 0 45 45"><polygon points="22.5,43 3,29 7,2 38,2 42,29" fill="#f5deb3" stroke="#8b4513" stroke-width="1.5"/><text x="22.5" y="28" text-anchor="middle" font-size="18" font-family="serif" fill="#1a1a1a">狐</text></symbol>
<symbol id="piece-mce-shogi-fairy-bRR" viewBox="0 0 45 45"><polygon points="22.5,43 3,29 7,2 38,2 42,29" fill="#f5deb3" stroke="#8b4513" stroke-width="1.5"/><text x="22.5" y="28" text-anchor="middle" font-size="18" font-family="serif" fill="#1a1a1a">兎</text></symbol>
<symbol id="piece-mce-shogi-fairy-bFF" viewBox="0 0 45 45"><polygon points="22.5,43 3,29 7,2 38,2 42,29" fill="#f5deb3" stroke="#8b4513" stroke-width="1.5"/><text x="22.5" y="28" text-anchor="middle" font-size="18" font-family="serif" fill="#1a1a1a">鷹</text></symbol>
<symbol id="piece-mce-shogi-fairy-bSW" viewBox="0 0 45 45"><polygon points="22.5,43 3,29 7,2 38,2 42,29" fill="#f5deb3" stroke="#8b4513" stroke-width="1.5"/><text x="22.5" y="28" text-anchor="middle" font-size="18" font-family="serif" fill="#1a1a1a">燕</text></symbol>
<symbol id="piece-mce-shogi-fairy-bCE" viewBox="0 0 45 45"><polygon points="22.5,43 3,29 7,2 38,2 42,29" fill="#f5deb3" stroke="#8b4513" stroke-width="1.5"/><text x="22.5" y="28" text-anchor="middle" font-size="18" font-family="serif" fill="#1a1a1a">鷲</text></symbol>
<symbol id="piece-mce-shogi-fairy-bOC" viewBox="0 0 45 45"><polygon points="22.5,43 3,29 7,2 38,2 42,29" fill="#f5deb3" stroke="#8b4513" stroke-width="1.5"/><text x="22.5" y="28" text-anchor="middle" font-size="18" font-family="serif" fill="#1a1a1a">牛</text></symbol>
<symbol id="piece-mce-shogi-fairy-bBD" viewBox="0 0 45 45"><polygon points="22.5,43 3,29 7,2 38,2 42,29" fill="#f5deb3" stroke="#8b4513" stroke-width="1.5"/><text x="22.5" y="28" text-anchor="middle" font-size="18" font-family="serif" fill="#1a1a1a">犬</text></symbol>
<symbol id="piece-mce-shogi-fairy-bSC" viewBox="0 0 45 45"><polygon points="22.5,43 3,29 7,2 38,2 42,29" fill="#f5deb3" stroke="#8b4513" stroke-width="1.5"/><text x="22.5" y="28" text-anchor="middle" font-size="18" font-family="serif" fill="#1a1a1a">烏</text></symbol>
<symbol id="piece-mce-shogi-fairy-bFG" viewBox="0 0 45 45"><polygon points="22.5,43 3,29 7,2 38,2 42,29" fill="#f5deb3" stroke="#8b4513" stroke-width="1.5"/><text x="22.5" y="28" text-anchor="middle" font-size="18" font-family="serif" fill="#1a1a1a">鵞</text></symbol>
<symbol id="piece-mce-shogi-fairy-bVW" viewBox="0 0 45 45"><polygon points="22.5,43 3,29 7,2 38,2 42,29" fill="#f5deb3" stroke="#8b4513" stroke-width="1.5"/><text x="22.5" y="28" text-anchor="middle" font-size="18" font-family="serif" fill="#1a1a1a">狼</text></symbol>
<symbol id="piece-mce-shogi-fairy-bCK" viewBox="0 0 45 45"><polygon points="22.5,43 3,29 7,2 38,2 42,29" fill="#f5deb3" stroke="#8b4513" stroke-width="1.5"/><text x="22.5" y="28" text-anchor="middle" font-size="18" font-family="serif" fill="#1a1a1a">鶴</text></symbol>
<symbol id="piece-mce-shogi-fairy-bVS" viewBox="0 0 45 45"><polygon points="22.5,43 3,29 7,2 38,2 42,29" fill="#f5deb3" stroke="#8b4513" stroke-width="1.5"/><text x="22.5" y="28" text-anchor="middle" font-size="18" font-family="serif" fill="#1a1a1a">鹿</text></symbol>
<symbol id="piece-mce-shogi-fairy-bFC" viewBox="0 0 45 45"><polygon points="22.5,43 3,29 7,2 38,2 42,29" fill="#f5deb3" stroke="#8b4513" stroke-width="1.5"/><text x="22.5" y="28" text-anchor="middle" font-size="18" font-family="serif" fill="#1a1a1a">鶏</text></symbol>
<symbol id="piece-mce-shogi-fairy-bSO" viewBox="0 0 45 45"><polygon points="22.5,43 3,29 7,2 38,2 42,29" fill="#f5deb3" stroke="#8b4513" stroke-width="1.5"/><text x="22.5" y="28" text-anchor="middle" font-size="18" font-family="serif" fill="#1a1a1a">梟</text></symbol>
<symbol id="piece-mce-shogi-fairy-bCM" viewBox="0 0 45 45"><polygon points="22.5,43 3,29 7,2 38,2 42,29" fill="#f5deb3" stroke="#8b4513" stroke-width="1.5"/><text x="22.5" y="28" text-anchor="middle" font-size="18" font-family="serif" fill="#1a1a1a">猿</text></symbol>
<symbol id="piece-mce-shogi-fairy-bLH" viewBox="0 0 45 45"><polygon points="22.5,43 3,29 7,2 38,2 42,29" fill="#f5deb3" stroke="#8b4513" stroke-width="1.5"/><text x="22.5" y="28" text-anchor="middle" font-size="18" font-family="serif" fill="#1a1a1a">馬</text></symbol>
</defs>

<rect x="0" y="0" width="30" height="30" fill="#e8c97a" data-sq="a11" class="board-cell"/><rect x="30" y="0" width="30" height="30" fill="#e8c97a" data-sq="b11" class="board-cell"/><rect x="60" y="0" width="30" height="30" fill="#e8c97a" data-sq="c11" class="board-cell"/><rect x="90" y="0" width="30" height="30" fill="#e8c97a" data-sq="d11" class="board-cell"/><rect x="120" y="0" width="30" height="30" fill="#e8c97a" data-sq="e11" class="board-cell"/><rect x="150" y="0" width="30" height="30" fill="#e8c97a" data-sq="f11" class="board-cell"/><rect x="180" y="0" width="30" height="30" fill="#e8c97a" data-sq="g11" class="board-cell"/><rect x="210" y="0" width="30" height="30" fill="#e8c97a" data-sq="h11" class="board-cell"/><rect x="240" y="0" width="30" height="30" fill="#e8c97a" data-sq="i11" class="board-cell"/><rect x="270" y="0" width="30" height="30" fill="#e8c97a" data-sq="j11" class="board-cell"/><rect x="300" y="0" width="30" height="30" fill="#e8c97a" data-sq="k11" class="board-cell"/><rect x="0" y="30" width="30" height="30" fill="#e8c97a" data-sq="a10" class="board-cell"/><rect x="30" y="30" width="30" height="30" fill="#e8c97a" data-sq="b10" class="board-cell"/><rect x="60" y="30" width="30" height="30" fill="#e8c97a" data-sq="c10" class="board-cell"/><rect x="90" y="30" width="30" height="30" fill="#e8c97a" data-sq="d10" class="board-cell"/><rect x="120" y="30" width="30" height="30" fill="#e8c97a" data-sq="e10" class="board-cell"/><rect x="150" y="30" width="30" height="30" fill="#e8c97a" data-sq="f10" class="board-cell"/><rect x="180" y="30" width="30" height="30" fill="#e8c97a" data-sq="g10" class="board-cell"/><rect x="210" y="30" width="30" height="30" fill="#e8c97a" data-sq="h10" class="board-cell"/><rect x="240" y="30" width="30" height="30" fill="#e8c97a" data-sq="i10" class="board-cell"/><rect x="270" y="30" width="30" height="30" fill="#e8c97a" data-sq="j10" class="board-cell"/><rect x="300" y="30" width="30" height="30" fill="#e8c97a" data-sq="k10" class="board-cell"/><rect x="0" y="60" width="30" height="30" fill="#e8c97a" data-sq="a9" class="board-cell"/><rect x="30" y="60" width="30" height="30" fill="#e8c97a" data-sq="b9" class="board-cell"/><rect x="60" y="60" width="30" height="30" fill="#e8c97a" data-sq="c9" class="board-cell"/><rect x="90" y="60" width="30" height="30" fill="#e8c97a" data-sq="d9" class="board-cell"/><rect x="120" y="60" width="30" height="30" fill="#e8c97a" data-sq="e9" class="board-cell"/><rect x="150" y="60" width="30" height="30" fill="#e8c97a" data-sq="f9" class="board-cell"/><rect x="180" y="60" width="30" height="30" fill="#e8c97a" data-sq="g9" class="board-cell"/><rect x="210" y="60" width="30" height="30" fill="#e8c97a" data-sq="h9" class="board-cell"/><rect x="240" y="60" width="30" height="30" fill="#e8c97a" data-sq="i9" class="board-cell"/><rect x="270" y="60" width="30" height="30" fill="#e8c97a" data-sq="j9" class="board-cell"/><rect x="300" y="60" width="30" height="30" fill="#e8c97a" data-sq="k9" class="board-cell"/><rect x="0" y="90" width="30" height="30" fill="#e8c97a" data-sq="a8" class="board-cell"/><rect x="30" y="90" width="30" height="30" fill="#e8c97a" data-sq="b8" class="board-cell"/><rect x="60" y="90" width="30" height="30" fill="#e8c97a" data-sq="c8" class="board-cell"/><rect x="90" y="90" width="30" height="30" fill="#e8c97a" data-sq="d8" class="board-cell"/><rect x="120" y="90" width="30" height="30" fill="#e8c97a" data-sq="e8" class="board-cell"/><rect x="150" y="90" width="30" height="30" fill="#e8c97a" data-sq="f8" class="board-cell"/><rect x="180" y="90" width="30" height="30" fill="#e8c97a" data-sq="g8" class="board-cell"/><rect x="210" y="90" width="30" height="30" fill="#e8c97a" data-sq="h8" class="board-cell"/><rect x="240" y="90" width="30" height="30" fill="#e8c97a" data-sq="i8" class="board-cell"/><rect x="270" y="90" width="30" height="30" fill="#e8c97a" data-sq="j8" class="board-cell"/><rect x="300" y="90" width="30" height="30" fill="#e8c97a" data-sq="k8" class="board-cell"/><rect x="0" y="120" width="30" height="30" fill="#e8c97a" data-sq="a7" class="board-cell"/><rect x="30" y="120" width="30" height="30" fill="#e8c97a" data-sq="b7" class="board-cell"/><rect x="60" y="120" width="30" height="30" fill="#e8c97a" data-sq="c7" class="board-cell"/><rect x="90" y="120" width="30" height="30" fill="#e8c97a" data-sq="d7" class="board-cell"/><rect x="120" y="120" width="30" height="30" fill="#e8c97a" data-sq="e7" class="board-cell"/><rect x="150" y="120" width="30" height="30" fill="#e8c97a" data-sq="f7" class="board-cell"/><rect x="180" y="120" width="30" height="30" fill="#e8c97a" data-sq="g7" class="board-cell"/><rect x="210" y="120" width="30" height="30" fill="#e8c97a" data-sq="h7" class="board-cell"/><rect x="240" y="120" width="30" height="30" fill="#e8c97a" data-sq="i7" class="board-cell"/><rect x="270" y="120" width="30" height="30" fill="#e8c97a" data-sq="j7" class="board-cell"/><rect x="300" y="120" width="30" height="30" fill="#e8c97a" data-sq="k7" class="board-cell"/><rect x="0" y="150" width="30" height="30" fill="#e8c97a" data-sq="a6" class="board-cell"/><rect x="30" y="150" width="30" height="30" fill="#e8c97a" data-sq="b6" class="board-cell"/><rect x="60" y="150" width="30" height="30" fill="#e8c97a" data-sq="c6" class="board-cell"/><rect x="90" y="150" width="30" height="30" fill="#e8c97a" data-sq="d6" class="board-cell"/><rect x="120" y="150" width="30" height="30" fill="#e8c97a" data-sq="e6" class="board-cell"/><rect x="150" y="150" width="30" height="30" fill="#e8c97a" data-sq="f6" class="board-cell"/><rect x="180" y="150" width="30" height="30" fill="#e8c97a" data-sq="g6" class="board-cell"/><rect x="210" y="150" width="30" height="30" fill="#e8c97a" data-sq="h6" class="board-cell"/><rect x="240" y="150" width="30" height="30" fill="#e8c97a" data-sq="i6" class="board-cell"/><rect x="270" y="150" width="30" height="30" fill="#e8c97a" data-sq="j6" class="board-cell"/><rect x="300" y="150" width="30" height="30" fill="#e8c97a" data-sq="k6" class="board-cell"/><rect x="0" y="180" width="30" height="30" fill="#e8c97a" data-sq="a5" class="board-cell"/><rect x="30" y="180" width="30" height="30" fill="#e8c97a" data-sq="b5" class="board-cell"/><rect x="60" y="180" width="30" height="30" fill="#e8c97a" data-sq="c5" class="board-cell"/><rect x="90" y="180" width="30" height="30" fill="#e8c97a" data-sq="d5" class="board-cell"/><rect x="120" y="180" width="30" height="30" fill="#e8c97a" data-sq="e5" class="board-cell"/><rect x="150" y="180" width="30" height="30" fill="#e8c97a" data-sq="f5" class="board-cell"/><rect x="180" y="180" width="30" height="30" fill="#e8c97a" data-sq="g5" class="board-cell"/><rect x="210" y="180" width="30" height="30" fill="#e8c97a" data-sq="h5" class="board-cell"/><rect x="240" y="180" width="30" height="30" fill="#e8c97a" data-sq="i5" class="board-cell"/><rect x="270" y="180" width="30" height="30" fill="#e8c97a" data-sq="j5" class="board-cell"/><rect x="300" y="180" width="30" height="30" fill="#e8c97a" data-sq="k5" class="board-cell"/><rect x="0" y="210" width="30" height="30" fill="#e8c97a" data-sq="a4" class="board-cell"/><rect x="30" y="210" width="30" height="30" fill="#e8c97a" data-sq="b4" class="board-cell"/><rect x="60" y="210" width="30" height="30" fill="#e8c97a" data-sq="c4" class="board-cell"/><rect x="90" y="210" width="30" height="30" fill="#e8c97a" data-sq="d4" class="board-cell"/><rect x="120" y="210" width="30" height="30" fill="#e8c97a" data-sq="e4" class="board-cell"/><rect x="150" y="210" width="30" height="30" fill="#e8c97a" data-sq="f4" class="board-cell"/><rect x="180" y="210" width="30" height="30" fill="#e8c97a" data-sq="g4" class="board-cell"/><rect x="210" y="210" width="30" height="30" fill="#e8c97a" data-sq="h4" class="board-cell"/><rect x="240" y="210" width="30" height="30" fill="#e8c97a" data-sq="i4" class="board-cell"/><rect x="270" y="210" width="30" height="30" fill="#e8c97a" data-sq="j4" class="board-cell"/><rect x="300" y="210" width="30" height="30" fill="#e8c97a" data-sq="k4" class="board-cell"/><rect x="0" y="240" width="30" height="30" fill="#e8c97a" data-sq="a3" class="board-cell"/><rect x="30" y="240" width="30" height="30" fill="#e8c97a" data-sq="b3" class="board-cell"/><rect x="60" y="240" width="30" height="30" fill="#e8c97a" data-sq="c3" class="board-cell"/><rect x="90" y="240" width="30" height="30" fill="#e8c97a" data-sq="d3" class="board-cell"/><rect x="120" y="240" width="30" height="30" fill="#e8c97a" data-sq="e3" class="board-cell"/><rect x="150" y="240" width="30" height="30" fill="#e8c97a" data-sq="f3" class="board-cell"/><rect x="180" y="240" width="30" height="30" fill="#e8c97a" data-sq="g3" class="board-cell"/><rect x="210" y="240" width="30" height="30" fill="#e8c97a" data-sq="h3" class="board-cell"/><rect x="240" y="240" width="30" height="30" fill="#e8c97a" data-sq="i3" class="board-cell"/><rect x="270" y="240" width="30" height="30" fill="#e8c97a" data-sq="j3" class="board-cell"/><rect x="300" y="240" width="30" height="30" fill="#e8c97a" data-sq="k3" class="board-cell"/><rect x="0" y="270" width="30" height="30" fill="#e8c97a" data-sq="a2" class="board-cell"/><rect x="30" y="270" width="30" height="30" fill="#e8c97a" data-sq="b2" class="board-cell"/><rect x="60" y="270" width="30" height="30" fill="#e8c97a" data-sq="c2" class="board-cell"/><rect x="90" y="270" width="30" height="30" fill="#e8c97a" data-sq="d2" class="board-cell"/><rect x="120" y="270" width="30" height="30" fill="#e8c97a" data-sq="e2" class="board-cell"/><rect x="150" y="270" width="30" height="30" fill="#e8c97a" data-sq="f2" class="board-cell"/><rect x="180" y="270" width="30" height="30" fill="#e8c97a" data-sq="g2" class="board-cell"/><rect x="210" y="270" width="30" height="30" fill="#e8c97a" data-sq="h2" class="board-cell"/><rect x="240" y="270" width="30" height="30" fill="#e8c97a" data-sq="i2" class="board-cell"/><rect x="270" y="270" width="30" height="30" fill="#e8c97a" data-sq="j2" class="board-cell"/><rect x="300" y="270" width="30" height="30" fill="#e8c97a" data-sq="k2" class="board-cell"/><rect x="0" y="300" width="30" height="30" fill="#e8c97a" data-sq="a1" class="board-cell"/><rect x="30" y="300" width="30" height="30" fill="#e8c97a" data-sq="b1" class="board-cell"/><rect x="60" y="300" width="30" height="30" fill="#e8c97a" data-sq="c1" class="board-cell"/><rect x="90" y="300" width="30" height="30" fill="#e8c97a" data-sq="d1" class="board-cell"/><rect x="120" y="300" width="30" height="30" fill="#e8c97a" data-sq="e1" class="board-cell"/><rect x="150" y="300" width="30" height="30" fill="#e8c97a" data-sq="f1" class="board-cell"/><rect x="180" y="300" width="30" height="30" fill="#e8c97a" data-sq="g1" class="board-cell"/><rect x="210" y="300" width="30" height="30" fill="#e8c97a" data-sq="h1" class="board-cell"/><rect x="240" y="300" width="30" height="30" fill="#e8c97a" data-sq="i1" class="board-cell"/><rect x="270" y="300" width="30" height="30" fill="#e8c97a" data-sq="j1" class="board-cell"/><rect x="300" y="300" width="30" height="30" fill="#e8c97a" data-sq="k1" class="board-cell"/><line x1="15" y1="15" x2="315" y2="15" stroke="#6b4e1a" stroke-width="2"/><line x1="15" y1="45" x2="315" y2="45" stroke="#6b4e1a" stroke-width="2"/><line x1="15" y1="75" x2="315" y2="75" stroke="#6b4e1a" stroke-width="2"/><line x1="15" y1="105" x2="315" y2="105" stroke="#6b4e1a" stroke-width="2"/><line x1="15" y1="135" x2="315" y2="135" stroke="#6b4e1a" stroke-width="2"/><line x1="15" y1="165" x2="315" y2="165" stroke="#6b4e1a" stroke-width="2"/><line x1="15" y1="195" x2="315" y2="195" stroke="#6b4e1a" stroke-width="2"/><line x1="15" y1="225" x2="315" y2="225" stroke="#6b4e1a" stroke-width="2"/><line x1="15" y1="255" x2="315" y2="255" stroke="#6b4e1a" stroke-width="2"/><line x1="15" y1="285" x2="315" y2="285" stroke="#6b4e1a" stroke-width="2"/><line x1="15" y1="315" x2="315" y2="315" stroke="#6b4e1a" stroke-width="2"/><line x1="15" y1="15" x2="15" y2="315" stroke="#6b4e1a" stroke-width="2"/><line x1="45" y1="15" x2="45" y2="315" stroke="#6b4e1a" stroke-width="2"/><line x1="75" y1="15" x2="75" y2="315" stroke="#6b4e1a" stroke-width="2"/><line x1="105" y1="15" x2="105" y2="315" stroke="#6b4e1a" stroke-width="2"/><line x1="135" y1="15" x2="135" y2="315" stroke="#6b4e1a" stroke-width="2"/><line x1="165" y1="15" x2="165" y2="315" stroke="#6b4e1a" stroke-width="2"/><line x1="195" y1="15" x2="195" y2="315" stroke="#6b4e1a" stroke-width="2"/><line x1="225" y1="15" x2="225" y2="315" stroke="#6b4e1a" stroke-width="2"/><line x1="255" y1="15" x2="255" y2="315" stroke="#6b4e1a" stroke-width="2"/><line x1="285" y1="15" x2="285" y2="315" stroke="#6b4e1a" stroke-width="2"/><line x1="315" y1="15" x2="315" y2="315" stroke="#6b4e1a" stroke-width="2"/><rect x="0" y="0" width="30" height="30" fill="rgba(180, 60, 40, 0.08)" opacity="0.3"/><rect x="30" y="0" width="30" height="30" fill="rgba(180, 60, 40, 0.08)" opacity="0.3"/><rect x="60" y="0" width="30" height="30" fill="rgba(180, 60, 40, 0.08)" opacity="0.3"/><rect x="90" y="0" width="30" height="30" fill="rgba(180, 60, 40, 0.08)" opacity="0.3"/><rect x="120" y="0" width="30" height="30" fill="rgba(180, 60, 40, 0.08)" opacity="0.3"/><rect x="150" y="0" width="30" height="30" fill="rgba(180, 60, 40, 0.08)" opacity="0.3"/><rect x="180" y="0" width="30" height="30" fill="rgba(180, 60, 40, 0.08)" opacity="0.3"/><rect x="210" y="0" width="30" height="30" fill="rgba(180, 60, 40, 0.08)" opacity="0.3"/><rect x="240" y="0" width="30" height="30" fill="rgba(180, 60, 40, 0.08)" opacity="0.3"/><rect x="270" y="0" width="30" height="30" fill="rgba(180, 60, 40, 0.08)" opacity="0.3"/><rect x="300" y="0" width="30" height="30" fill="rgba(180, 60, 40, 0.08)" opacity="0.3"/><rect x="0" y="30" width="30" height="30" fill="rgba(180, 60, 40, 0.08)" opacity="0.3"/><rect x="30" y="30" width="30" height="30" fill="rgba(180, 60, 40, 0.08)" opacity="0.3"/><rect x="60" y="30" width="30" height="30" fill="rgba(180, 60, 40, 0.08)" opacity="0.3"/><rect x="90" y="30" width="30" height="30" fill="rgba(180, 60, 40, 0.08)" opacity="0.3"/><rect x="120" y="30" width="30" height="30" fill="rgba(180, 60, 40, 0.08)" opacity="0.3"/><rect x="150" y="30" width="30" height="30" fill="rgba(180, 60, 40, 0.08)" opacity="0.3"/><rect x="180" y="30" width="30" height="30" fill="rgba(180, 60, 40, 0.08)" opacity="0.3"/><rect x="210" y="30" width="30" height="30" fill="rgba(180, 60, 40, 0.08)" opacity="0.3"/><rect x="240" y="30" width="30" height="30" fill="rgba(180, 60, 40, 0.08)" opacity="0.3"/><rect x="270" y="30" width="30" height="30" fill="rgba(180, 60, 40, 0.08)" opacity="0.3"/><rect x="300" y="30" width="30" height="30" fill="rgba(180, 60, 40, 0.08)" opacity="0.3"/><rect x="0" y="60" width="30" height="30" fill="rgba(180, 60, 40, 0.08)" opacity="0.3"/><rect x="30" y="60" width="30" height="30" fill="rgba(180, 60, 40, 0.08)" opacity="0.3"/><rect x="60" y="60" width="30" height="30" fill="rgba(180, 60, 40, 0.08)" opacity="0.3"/><rect x="90" y="60" width="30" height="30" fill="rgba(180, 60, 40, 0.08)" opacity="0.3"/><rect x="120" y="60" width="30" height="30" fill="rgba(180, 60, 40, 0.08)" opacity="0.3"/><rect x="150" y="60" width="30" height="30" fill="rgba(180, 60, 40, 0.08)" opacity="0.3"/><rect x="180" y="60" width="30" height="30" fill="rgba(180, 60, 40, 0.08)" opacity="0.3"/><rect x="210" y="60" width="30" height="30" fill="rgba(180, 60, 40, 0.08)" opacity="0.3"/><rect x="240" y="60" width="30" height="30" fill="rgba(180, 60, 40, 0.08)" opacity="0.3"/><rect x="270" y="60" width="30" height="30" fill="rgba(180, 60, 40, 0.08)" opacity="0.3"/><rect x="300" y="60" width="30" height="30" fill="rgba(180, 60, 40, 0.08)" opacity="0.3"/><rect x="0" y="180" width="30" height="30" fill="rgba(180, 60, 40, 0.08)" opacity="0.3"/><rect x="30" y="180" width="30" height="30" fill="rgba(180, 60, 40, 0.08)" opacity="0.3"/><rect x="60" y="180" width="30" height="30" fill="rgba(180, 60, 40, 0.08)" opacity="0.3"/><rect x="90" y="180" width="30" height="30" fill="rgba(180, 60, 40, 0.08)" opacity="0.3"/><rect x="120" y="180" width="30" height="30" fill="rgba(180, 60, 40, 0.08)" opacity="0.3"/><rect x="150" y="180" width="30" height="30" fill="rgba(180, 60, 40, 0.08)" opacity="0.3"/><rect x="180" y="180" width="30" height="30" fill="rgba(180, 60, 40, 0.08)" opacity="0.3"/><rect x="210" y="180" width="30" height="30" fill="rgba(180, 60, 40, 0.08)" opacity="0.3"/><rect x="240" y="180" width="30" height="30" fill="rgba(180, 60, 40, 0.08)" opacity="0.3"/><rect x="270" y="180" width="30" height="30" fill="rgba(180, 60, 40, 0.08)" opacity="0.3"/><rect x="300" y="180" width="30" height="30" fill="rgba(180, 60, 40, 0.08)" opacity="0.3"/><rect x="0" y="210" width="30" height="30" fill="rgba(180, 60, 40, 0.08)" opacity="0.3"/><rect x="30" y="210" width="30" height="30" fill="rgba(180, 60, 40, 0.08)" opacity="0.3"/><rect x="60" y="210" width="30" height="30" fill="rgba(180, 60, 40, 0.08)" opacity="0.3"/><rect x="90" y="210" width="30" height="30" fill="rgba(180, 60, 40, 0.08)" opacity="0.3"/><rect x="120" y="210" width="30" height="30" fill="rgba(180, 60, 40, 0.08)" opacity="0.3"/><rect x="150" y="210" width="30" height="30" fill="rgba(180, 60, 40, 0.08)" opacity="0.3"/><rect x="180" y="210" width="30" height="30" fill="rgba(180, 60, 40, 0.08)" opacity="0.3"/><rect x="210" y="210" width="30" height="30" fill="rgba(180, 60, 40, 0.08)" opacity="0.3"/><rect x="240" y="210" width="30" height="30" fill="rgba(180, 60, 40, 0.08)" opacity="0.3"/><rect x="270" y="210" width="30" height="30" fill="rgba(180, 60, 40, 0.08)" opacity="0.3"/><rect x="300" y="210" width="30" height="30" fill="rgba(180, 60, 40, 0.08)" opacity="0.3"/><rect x="0" y="240" width="30" height="30" fill="rgba(180, 60, 40, 0.08)" opacity="0.3"/><rect x="30" y="240" width="30" height="30" fill="rgba(180, 60, 40, 0.08)" opacity="0.3"/><rect x="60" y="240" width="30" height="30" fill="rgba(180, 60, 40, 0.08)" opacity="0.3"/><rect x="90" y="240" width="30" height="30" fill="rgba(180, 60, 40, 0.08)" opacity="0.3"/><rect x="120" y="240" width="30" height="30" fill="rgba(180, 60, 40, 0.08)" opacity="0.3"/><rect x="150" y="240" width="30" height="30" fill="rgba(180, 60, 40, 0.08)" opacity="0.3"/><rect x="180" y="240" width="30" height="30" fill="rgba(180, 60, 40, 0.08)" opacity="0.3"/><rect x="210" y="240" width="30" height="30" fill="rgba(180, 60, 40, 0.08)" opacity="0.3"/><rect x="240" y="240" width="30" height="30" fill="rgba(180, 60, 40, 0.08)" opacity="0.3"/><rect x="270" y="240" width="30" height="30" fill="rgba(180, 60, 40, 0.08)" opacity="0.3"/><rect x="300" y="240" width="30" height="30" fill="rgba(180, 60, 40, 0.08)" opacity="0.3"/><circle cx="75" cy="75" r="3" fill="#6b4e1a"/><circle cx="195" cy="75" r="3" fill="#6b4e1a"/><circle cx="75" cy="195" r="3" fill="#6b4e1a"/><circle cx="195" cy="195" r="3" fill="#6b4e1a"/>
<g pointer-events="none"><use href="#piece-mce-shogi-fairy-wLH" x="0" y="0" width="30" height="30"/><use href="#piece-mce-shogi-fairy-wCM" x="30" y="0" width="30" height="30"/><use href="#piece-mce-shogi-fairy-wSO" x="60" y="0" width="30" height="30"/><use href="#piece-mce-shogi-fairy-wFC" x="90" y="0" width="30" height="30"/><use href="#piece-mce-shogi-fairy-wVS" x="120" y="0" width="30" height="30"/><use href="#piece-mce-shogi-fairy-wCK" x="150" y="0" width="30" height="30"/><use href="#piece-mce-shogi-fairy-wVW" x="180" y="0" width="30" height="30"/><use href="#piece-mce-shogi-fairy-wFG" x="210" y="0" width="30" height="30"/><use href="#piece-mce-shogi-fairy-wSC" x="240" y="0" width="30" height="30"/><use href="#piece-mce-shogi-fairy-wBD" x="270" y="0" width="30" height="30"/><use href="#piece-mce-shogi-fairy-wOC" x="300" y="0" width="30" height="30"/><use href="#piece-mce-shogi-fairy-wCE" x="30" y="30" width="30" height="30"/><use href="#piece-mce-shogi-fairy-wSW" x="150" y="30" width="30" height="30"/><use href="#piece-mce-shogi-fairy-wFF" x="270" y="30" width="30" height="30"/><use href="#piece-mce-shogi-fairy-wSP" x="0" y="60" width="30" height="30"/><use href="#piece-mce-shogi-fairy-wSP" x="30" y="60" width="30" height="30"/><use href="#piece-mce-shogi-fairy-wSP" x="60" y="60" width="30" height="30"/><use href="#piece-mce-shogi-fairy-wRR" x="90" y="60" width="30" height="30"/><use href="#piece-mce-shogi-fairy-wSP" x="120" y="60" width="30" height="30"/><use href="#piece-mce-shogi-fairy-wSP" x="150" y="60" width="30" height="30"/><use href="#piece-mce-shogi-fairy-wSP" x="180" y="60" width="30" height="30"/><use href="#piece-mce-shogi-fairy-wTF" x="210" y="60" width="30" height="30"/><use href="#piece-mce-shogi-fairy-wSP" x="240" y="60" width="30" height="30"/><use href="#piece-mce-shogi-fairy-wSP" x="270" y="60" width="30" height="30"/><use href="#piece-mce-shogi-fairy-wSP" x="300" y="60" width="30" height="30"/><use href="#piece-mce-shogi-fairy-wSP" x="90" y="90" width="30" height="30"/><use href="#piece-mce-shogi-fairy-wSP" x="210" y="90" width="30" height="30"/><use href="#piece-mce-shogi-fairy-bSP" x="90" y="210" width="30" height="30"/><use href="#piece-mce-shogi-fairy-bSP" x="210" y="210" width="30" height="30"/><use href="#piece-mce-shogi-fairy-bSP" x="0" y="240" width="30" height="30"/><use href="#piece-mce-shogi-fairy-bSP" x="30" y="240" width="30" height="30"/><use href="#piece-mce-shogi-fairy-bSP" x="60" y="240" width="30" height="30"/><use href="#piece-mce-shogi-fairy-bTF" x="90" y="240" width="30" height="30"/><use href="#piece-mce-shogi-fairy-bSP" x="120" y="240" width="30" height="30"/><use href="#piece-mce-shogi-fairy-bSP" x="150" y="240" width="30" height="30"/><use href="#piece-mce-shogi-fairy-bSP" x="180" y="240" width="30" height="30"/><use href="#piece-mce-shogi-fairy-bRR" x="210" y="240" width="30" height="30"/><use href="#piece-mce-shogi-fairy-bSP" x="240" y="240" width="30" height="30"/><use href="#piece-mce-shogi-fairy-bSP" x="270" y="240" width="30" height="30"/><use href="#piece-mce-shogi-fairy-bSP" x="300" y="240" width="30" height="30"/><use href="#piece-mce-shogi-fairy-bFF" x="30" y="270" width="30" height="30"/><use href="#piece-mce-shogi-fairy-bSW" x="150" y="270" width="30" height="30"/><use href="#piece-mce-shogi-fairy-bCE" x="270" y="270" width="30" height="30"/><use href="#piece-mce-shogi-fairy-bOC" x="0" y="300" width="30" height="30"/><use href="#piece-mce-shogi-fairy-bBD" x="30" y="300" width="30" height="30"/><use href="#piece-mce-shogi-fairy-bSC" x="60" y="300" width="30" height="30"/><use href="#piece-mce-shogi-fairy-bFG" x="90" y="300" width="30" height="30"/><use href="#piece-mce-shogi-fairy-bVW" x="120" y="300" width="30" height="30"/><use href="#piece-mce-shogi-fairy-bCK" x="150" y="300" width="30" height="30"/><use href="#piece-mce-shogi-fairy-bVS" x="180" y="300" width="30" height="30"/><use href="#piece-mce-shogi-fairy-bFC" x="210" y="300" width="30" height="30"/><use href="#piece-mce-shogi-fairy-bSO" x="240" y="300" width="30" height="30"/><use href="#piece-mce-shogi-fairy-bCM" x="270" y="300" width="30" height="30"/><use href="#piece-mce-shogi-fairy-bLH" x="300" y="300" width="30" height="30"/></g>
</svg>