<svg xmlns="http://www.w3.org/2000/svg" viewBox="0 0 735.9797974644666 543.9797974644666" width="735.9797974644666" height="543.9797974644666">
<rect x="0" y="0" width="735.9797974644666" height="543.9797974644666" fill="#1b5e3a" rx="16"/><rect x="20" y="20" width="695.9797974644666" height="503.9797974644666" fill="#2d7a4f" rx="12" stroke="#1a4a2e" stroke-width="2"/><g class="hand" data-zone="Player 1 — 5 cards (visible)"><g data-card="2"><image href="../pieces/sets/playstrategy-backgammon/wdicefive.svg" x="239.9898987322333" y="50" width="48" height="48" preserveAspectRatio="xMidYMid meet"/></g><g data-card="6"><image href="../pieces/sets/playstrategy-backgammon/wdiceone.svg" x="291.9898987322333" y="50" width="48" height="48" preserveAspectRatio="xMidYMid meet"/></g><g data-card="6"><image href="../pieces/sets/playstrategy-backgammon/wdicetwo.svg" x="343.9898987322333" y="50" width="48" height="48" preserveAspectRatio="xMidYMid meet"/></g><g data-card="2"><image href="../pieces/sets/playstrategy-backgammon/wdicesix.svg" x="395.9898987322333" y="50" width="48" height="48" preserveAspectRatio="xMidYMid meet"/></g><g data-card="2"><image href="../pieces/sets/playstrategy-backgammon/wdicethree.svg" x="447.9898987322333" y="50" width="48" height="48" preserveAspectRatio="xMidYMid meet"/></g></g><text x="367.9898987322333" y="44" text-anchor="middle" font-size="11" fill="rgba(255,255,255,0.6)" font-family="system-ui">Player 1 (5)</text><g class="hand" data-zone="Player 2 — 5 cards (hidden)"><rect x="437.9797974644666" y="247.9898987322333" width="48" height="48" fill="#2a3a6a" rx="3" stroke="#1a2a4a" stroke-width="1" data-card="Face down"/><rect x="489.9797974644666" y="247.9898987322333" width="48" height="48" fill="#2a3a6a" rx="3" stroke="#1a2a4a" stroke-width="1" data-card="Face down"/><rect x="541.9797974644666" y="247.9898987322333" width="48" height="48" fill="#2a3a6a" rx="3" stroke="#1a2a4a" stroke-width="1" data-card="Face down"/><rect x="593.9797974644666" y="247.9898987322333" width="48" height="48" fill="#2a3a6a" rx="3" stroke="#1a2a4a" stroke-width="1" data-card="Face down"/><rect x="645.9797974644666" y="247.9898987322333" width="48" height="48" fill="#2a3a6a" rx="3" stroke="#1a2a4a" stroke-width="1" data-card="Face down"/></g><text x="565.9797974644666" y="241.9898987322333" text-anchor="middle" font-size="11" fill="rgba(255,255,255,0.6)" font-family="system-ui">Player 2 (5)</text><g class="hand" data-zone="Player 3 — 5 cards (hidden)"><rect x="239.9898987322333" y="445.9797974644666" width="48" height="48" fill="#2a3a6a" rx="3" stroke="#1a2a4a" stroke-width="1" data-card="Face down"/><rect x="291.9898987322333" y="445.9797974644666" width="48" height="48" fill="#2a3a6a" rx="3" stroke="#1a2a4a" stroke-width="1" data-card="Face down"/><rect x="343.9898987322333" y="445.9797974644666" width="48" height="48" fill="#2a3a6a" rx="3" stroke="#1a2a4a" stroke-width="1" data-card="Face down"/><rect x="395.9898987322333" y="445.9797974644666" width="48" height="48" fill="#2a3a6a" rx="3" stroke="#1a2a4a" stroke-width="1" data-card="Face down"/><rect x="447.9898987322333" y="445.9797974644666" width="48" height="48" fill="#2a3a6a" rx="3" stroke="#1a2a4a" stroke-width="1" data-card="Face down"/></g><text x="367.9898987322333" y="507.9797974644666" text-anchor="middle" font-size="11" fill="rgba(255,255,255,0.6)" font-family="system-ui">Player 3 (5)</text><g class="hand" data-zone="Player 4 — 5 cards (hidden)"><rect x="42" y="247.9898987322333" width="48" height="48" fill="#2a3a6a" rx="3" stroke="#1a2a4a" stroke-width="1" data-card="Face down"/><rect x="94" y="247.9898987322333" width="48" height="48" fill="#2a3a6a" rx="3" stroke="#1a2a4a" stroke-width="1" data-card="Face down"/><rect x="146" y="247.9898987322333" width="48" height="48" fill="#2a3a6a" rx="3" stroke="#1a2a4a" stroke-width="1" data-card="Face down"/><rect x="198" y="247.9898987322333" width="48" height="48" fill="#2a3a6a" rx="3" stroke="#1a2a4a" stroke-width="1" data-card="Face down"/><rect x="250" y="247.9898987322333" width="48" height="48" fill="#2a3a6a" rx="3" stroke="#1a2a4a" stroke-width="1" data-card="Face down"/></g><text x="170" y="241.9898987322333" text-anchor="middle" font-size="11" fill="rgba(255,255,255,0.6)" font-family="system-ui">Player 4 (5)</text><text x="367.9898987322333" y="537.9797974644666" text-anchor="middle" font-size="9" fill="rgba(255,255,255,0.3)" font-family="system-ui">Standard Dice · seed: 42</text>
</svg>