<svg xmlns="http://www.w3.org/2000/svg" viewBox="0 0 2616 1452" width="2616" height="1452">
<rect x="0" y="0" width="2616" height="1452" fill="#1b5e3a" rx="16"/><rect x="20" y="20" width="2576" height="1412" fill="#2d7a4f" rx="12" stroke="#1a4a2e" stroke-width="2"/><g class="hand" data-zone="Player 1 — 26 cards (visible)"><g data-card="5♣"><image href="../pieces/sets/letele-cards/C-5.svg" x="686" y="50" width="44" height="64" preserveAspectRatio="xMidYMid meet"/></g><g data-card="J♠"><image href="../pieces/sets/letele-cards/S-J.svg" x="734" y="50" width="44" height="64" preserveAspectRatio="xMidYMid meet"/></g><g data-card="9♦"><image href="../pieces/sets/letele-cards/D-9.svg" x="782" y="50" width="44" height="64" preserveAspectRatio="xMidYMid meet"/></g><g data-card="9♣"><image href="../pieces/sets/letele-cards/C-9.svg" x="830" y="50" width="44" height="64" preserveAspectRatio="xMidYMid meet"/></g><g data-card="7♥"><image href="../pieces/sets/letele-cards/H-7.svg" x="878" y="50" width="44" height="64" preserveAspectRatio="xMidYMid meet"/></g><g data-card="2♥"><image href="../pieces/sets/letele-cards/H-2.svg" x="926" y="50" width="44" height="64" preserveAspectRatio="xMidYMid meet"/></g><g data-card="2♣"><image href="../pieces/sets/letele-cards/C-2.svg" x="974" y="50" width="44" height="64" preserveAspectRatio="xMidYMid meet"/></g><g data-card="8♥"><image href="../pieces/sets/letele-cards/H-8.svg" x="1022" y="50" width="44" height="64" preserveAspectRatio="xMidYMid meet"/></g><g data-card="6♥"><image href="../pieces/sets/letele-cards/H-6.svg" x="1070" y="50" width="44" height="64" preserveAspectRatio="xMidYMid meet"/></g><g data-card="5♥"><image href="../pieces/sets/letele-cards/H-5.svg" x="1118" y="50" width="44" height="64" preserveAspectRatio="xMidYMid meet"/></g><g data-card="5♠"><image href="../pieces/sets/letele-cards/S-5.svg" x="1166" y="50" width="44" height="64" preserveAspectRatio="xMidYMid meet"/></g><g data-card="7♦"><image href="../pieces/sets/letele-cards/D-7.svg" x="1214" y="50" width="44" height="64" preserveAspectRatio="xMidYMid meet"/></g><g data-card="A♥"><image href="../pieces/sets/letele-cards/H-A.svg" x="1262" y="50" width="44" height="64" preserveAspectRatio="xMidYMid meet"/></g><g data-card="3♦"><image href="../pieces/sets/letele-cards/D-3.svg" x="1310" y="50" width="44" height="64" preserveAspectRatio="xMidYMid meet"/></g><g data-card="J♥"><image href="../pieces/sets/letele-cards/H-J.svg" x="1358" y="50" width="44" height="64" preserveAspectRatio="xMidYMid meet"/></g><g data-card="8♠"><image href="../pieces/sets/letele-cards/S-8.svg" x="1406" y="50" width="44" height="64" preserveAspectRatio="xMidYMid meet"/></g><g data-card="7♣"><image href="../pieces/sets/letele-cards/C-7.svg" x="1454" y="50" width="44" height="64" preserveAspectRatio="xMidYMid meet"/></g><g data-card="6♣"><image href="../pieces/sets/letele-cards/C-6.svg" x="1502" y="50" width="44" height="64" preserveAspectRatio="xMidYMid meet"/></g><g data-card="Q♦"><image href="../pieces/sets/letele-cards/D-Q.svg" x="1550" y="50" width="44" height="64" preserveAspectRatio="xMidYMid meet"/></g><g data-card="A♦"><image href="../pieces/sets/letele-cards/D-A.svg" x="1598" y="50" width="44" height="64" preserveAspectRatio="xMidYMid meet"/></g><g data-card="3♠"><image href="../pieces/sets/letele-cards/S-3.svg" x="1646" y="50" width="44" height="64" preserveAspectRatio="xMidYMid meet"/></g><g data-card="A♠"><image href="../pieces/sets/letele-cards/S-A.svg" x="1694" y="50" width="44" height="64" preserveAspectRatio="xMidYMid meet"/></g><g data-card="7♠"><image href="../pieces/sets/letele-cards/S-7.svg" x="1742" y="50" width="44" height="64" preserveAspectRatio="xMidYMid meet"/></g><g data-card="3♥"><image href="../pieces/sets/letele-cards/H-3.svg" x="1790" y="50" width="44" height="64" preserveAspectRatio="xMidYMid meet"/></g><g data-card="3♣"><image href="../pieces/sets/letele-cards/C-3.svg" x="1838" y="50" width="44" height="64" preserveAspectRatio="xMidYMid meet"/></g><g data-card="4♠"><image href="../pieces/sets/letele-cards/S-4.svg" x="1886" y="50" width="44" height="64" preserveAspectRatio="xMidYMid meet"/></g></g><text x="1308" y="44" text-anchor="middle" font-size="11" fill="rgba(255,255,255,0.6)" font-family="system-ui">Player 1 (26)</text><g class="hand" data-zone="Player 2 — 26 cards (hidden)"><g data-card="Face down"><image href="../pieces/sets/letele-cards/B-1.svg" x="686" y="1338" width="44" height="64" preserveAspectRatio="xMidYMid meet"/></g><g data-card="Face down"><image href="../pieces/sets/letele-cards/B-1.svg" x="734" y="1338" width="44" height="64" preserveAspectRatio="xMidYMid meet"/></g><g data-card="Face down"><image href="../pieces/sets/letele-cards/B-1.svg" x="782" y="1338" width="44" height="64" preserveAspectRatio="xMidYMid meet"/></g><g data-card="Face down"><image href="../pieces/sets/letele-cards/B-1.svg" x="830" y="1338" width="44" height="64" preserveAspectRatio="xMidYMid meet"/></g><g data-card="Face down"><image href="../pieces/sets/letele-cards/B-1.svg" x="878" y="1338" width="44" height="64" preserveAspectRatio="xMidYMid meet"/></g><g data-card="Face down"><image href="../pieces/sets/letele-cards/B-1.svg" x="926" y="1338" width="44" height="64" preserveAspectRatio="xMidYMid meet"/></g><g data-card="Face down"><image href="../pieces/sets/letele-cards/B-1.svg" x="974" y="1338" width="44" height="64" preserveAspectRatio="xMidYMid meet"/></g><g data-card="Face down"><image href="../pieces/sets/letele-cards/B-1.svg" x="1022" y="1338" width="44" height="64" preserveAspectRatio="xMidYMid meet"/></g><g data-card="Face down"><image href="../pieces/sets/letele-cards/B-1.svg" x="1070" y="1338" width="44" height="64" preserveAspectRatio="xMidYMid meet"/></g><g data-card="Face down"><image href="../pieces/sets/letele-cards/B-1.svg" x="1118" y="1338" width="44" height="64" preserveAspectRatio="xMidYMid meet"/></g><g data-card="Face down"><image href="../pieces/sets/letele-cards/B-1.svg" x="1166" y="1338" width="44" height="64" preserveAspectRatio="xMidYMid meet"/></g><g data-card="Face down"><image href="../pieces/sets/letele-cards/B-1.svg" x="1214" y="1338" width="44" height="64" preserveAspectRatio="xMidYMid meet"/></g><g data-card="Face down"><image href="../pieces/sets/letele-cards/B-1.svg" x="1262" y="1338" width="44" height="64" preserveAspectRatio="xMidYMid meet"/></g><g data-card="Face down"><image href="../pieces/sets/letele-cards/B-1.svg" x="1310" y="1338" width="44" height="64" preserveAspectRatio="xMidYMid meet"/></g><g data-card="Face down"><image href="../pieces/sets/letele-cards/B-1.svg" x="1358" y="1338" width="44" height="64" preserveAspectRatio="xMidYMid meet"/></g><g data-card="Face down"><image href="../pieces/sets/letele-cards/B-1.svg" x="1406" y="1338" width="44" height="64" preserveAspectRatio="xMidYMid meet"/></g><g data-card="Face down"><image href="../pieces/sets/letele-cards/B-1.svg" x="1454" y="1338" width="44" height="64" preserveAspectRatio="xMidYMid meet"/></g><g data-card="Face down"><image href="../pieces/sets/letele-cards/B-1.svg" x="1502" y="1338" width="44" height="64" preserveAspectRatio="xMidYMid meet"/></g><g data-card="Face down"><image href="../pieces/sets/letele-cards/B-1.svg" x="1550" y="1338" width="44" height="64" preserveAspectRatio="xMidYMid meet"/></g><g data-card="Face down"><image href="../pieces/sets/letele-cards/B-1.svg" x="1598" y="1338" width="44" height="64" preserveAspectRatio="xMidYMid meet"/></g><g data-card="Face down"><image href="../pieces/sets/letele-cards/B-1.svg" x="1646" y="1338" width="44" height="64" preserveAspectRatio="xMidYMid meet"/></g><g data-card="Face down"><image href="../pieces/sets/letele-cards/B-1.svg" x="1694" y="1338" width="44" height="64" preserveAspectRatio="xMidYMid meet"/></g><g data-card="Face down"><image href="../pieces/sets/letele-cards/B-1.svg" x="1742" y="1338" width="44" height="64" preserveAspectRatio="xMidYMid meet"/></g><g data-card="Face down"><image href="../pieces/sets/letele-cards/B-1.svg" x="1790" y="1338" width="44" height="64" preserveAspectRatio="xMidYMid meet"/></g><g data-card="Face down"><image href="../pieces/sets/letele-cards/B-1.svg" x="1838" y="1338" width="44" height="64" preserveAspectRatio="xMidYMid meet"/></g><g data-card="Face down"><image href="../pieces/sets/letele-cards/B-1.svg" x="1886" y="1338" width="44" height="64" preserveAspectRatio="xMidYMid meet"/></g></g><text x="1308" y="1416" text-anchor="middle" font-size="11" fill="rgba(255,255,255,0.6)" font-family="system-ui">Player 2 (26)</text><text x="1308" y="1446" text-anchor="middle" font-size="9" fill="rgba(255,255,255,0.3)" font-family="system-ui">Standard 52 · seed: 42</text>
</svg>