<svg xmlns="http://www.w3.org/2000/svg" viewBox="0 0 1132 736" width="1132" height="736">
<rect x="0" y="0" width="1132" height="736" fill="#1b5e3a" rx="16"/><rect x="20" y="20" width="1092" height="696" fill="#2d7a4f" rx="12" stroke="#1a4a2e" stroke-width="2"/><g class="hand" data-zone="Player 1 — 10 cards (visible)"><g data-card="5♣"><image href="../pieces/sets/letele-cards/C-5.svg" x="328" y="50" width="44" height="64" preserveAspectRatio="xMidYMid meet"/></g><g data-card="9♦"><image href="../pieces/sets/letele-cards/D-9.svg" x="376" y="50" width="44" height="64" preserveAspectRatio="xMidYMid meet"/></g><g data-card="7♥"><image href="../pieces/sets/letele-cards/H-7.svg" x="424" y="50" width="44" height="64" preserveAspectRatio="xMidYMid meet"/></g><g data-card="2♣"><image href="../pieces/sets/letele-cards/C-2.svg" x="472" y="50" width="44" height="64" preserveAspectRatio="xMidYMid meet"/></g><g data-card="6♥"><image href="../pieces/sets/letele-cards/H-6.svg" x="520" y="50" width="44" height="64" preserveAspectRatio="xMidYMid meet"/></g><g data-card="5♠"><image href="../pieces/sets/letele-cards/S-5.svg" x="568" y="50" width="44" height="64" preserveAspectRatio="xMidYMid meet"/></g><g data-card="A♥"><image href="../pieces/sets/letele-cards/H-A.svg" x="616" y="50" width="44" height="64" preserveAspectRatio="xMidYMid meet"/></g><g data-card="J♥"><image href="../pieces/sets/letele-cards/H-J.svg" x="664" y="50" width="44" height="64" preserveAspectRatio="xMidYMid meet"/></g><g data-card="7♣"><image href="../pieces/sets/letele-cards/C-7.svg" x="712" y="50" width="44" height="64" preserveAspectRatio="xMidYMid meet"/></g><g data-card="Q♦"><image href="../pieces/sets/letele-cards/D-Q.svg" x="760" y="50" width="44" height="64" preserveAspectRatio="xMidYMid meet"/></g></g><text x="566" y="44" text-anchor="middle" font-size="11" fill="rgba(255,255,255,0.6)" font-family="system-ui">Player 1 (10)</text><g class="hand" data-zone="Player 2 — 10 cards (hidden)"><g data-card="Face down"><image href="../pieces/sets/letele-cards/B-1.svg" x="328" y="622" width="44" height="64" preserveAspectRatio="xMidYMid meet"/></g><g data-card="Face down"><image href="../pieces/sets/letele-cards/B-1.svg" x="376" y="622" width="44" height="64" preserveAspectRatio="xMidYMid meet"/></g><g data-card="Face down"><image href="../pieces/sets/letele-cards/B-1.svg" x="424" y="622" width="44" height="64" preserveAspectRatio="xMidYMid meet"/></g><g data-card="Face down"><image href="../pieces/sets/letele-cards/B-1.svg" x="472" y="622" width="44" height="64" preserveAspectRatio="xMidYMid meet"/></g><g data-card="Face down"><image href="../pieces/sets/letele-cards/B-1.svg" x="520" y="622" width="44" height="64" preserveAspectRatio="xMidYMid meet"/></g><g data-card="Face down"><image href="../pieces/sets/letele-cards/B-1.svg" x="568" y="622" width="44" height="64" preserveAspectRatio="xMidYMid meet"/></g><g data-card="Face down"><image href="../pieces/sets/letele-cards/B-1.svg" x="616" y="622" width="44" height="64" preserveAspectRatio="xMidYMid meet"/></g><g data-card="Face down"><image href="../pieces/sets/letele-cards/B-1.svg" x="664" y="622" width="44" height="64" preserveAspectRatio="xMidYMid meet"/></g><g data-card="Face down"><image href="../pieces/sets/letele-cards/B-1.svg" x="712" y="622" width="44" height="64" preserveAspectRatio="xMidYMid meet"/></g><g data-card="Face down"><image href="../pieces/sets/letele-cards/B-1.svg" x="760" y="622" width="44" height="64" preserveAspectRatio="xMidYMid meet"/></g></g><text x="566" y="700" text-anchor="middle" font-size="11" fill="rgba(255,255,255,0.6)" font-family="system-ui">Player 2 (10)</text><g data-zone="Draw pile — 32 cards remaining (face down)"><image href="../pieces/sets/letele-cards/B-1.svg" x="539.5" y="331.5" width="44" height="64" preserveAspectRatio="xMidYMid meet"/><image href="../pieces/sets/letele-cards/B-1.svg" x="541" y="333" width="44" height="64" preserveAspectRatio="xMidYMid meet"/><image href="../pieces/sets/letele-cards/B-1.svg" x="542.5" y="334.5" width="44" height="64" preserveAspectRatio="xMidYMid meet"/><image href="../pieces/sets/letele-cards/B-1.svg" x="544" y="336" width="44" height="64" preserveAspectRatio="xMidYMid meet"/><text x="566" y="371" text-anchor="middle" font-size="11" fill="rgba(255,255,255,0.85)" font-family="system-ui" font-weight="bold">32</text></g><text x="566" y="730" text-anchor="middle" font-size="9" fill="rgba(255,255,255,0.3)" font-family="system-ui">Standard 52 · seed: 42</text>
</svg>