<svg xmlns="http://www.w3.org/2000/svg" viewBox="0 0 652 496" width="652" height="496">
<defs>
<symbol id="piece-letele-cards-C-5" viewBox="-120 -168 240 336"><defs><symbol id="SC5" viewBox="-600 -600 1200 1200" preserveAspectRatio="xMinYMid"><path d="M30 150C35 385 85 400 130 500L-130 500C-85 400 -35 385 -30 150A10 10 0 0 0 -50 150A210 210 0 1 1 -124 -51A10 10 0 0 0 -110 -65A230 230 0 1 1 110 -65A10 10 0 0 0 124 -51A210 210 0 1 1 50 150A10 10 0 0 0 30 150Z" fill="black"></path></symbol><symbol id="VC5" viewBox="-500 -500 1000 1000" preserveAspectRatio="xMinYMid"><path d="M170 -460L-175 -460L-210 -115C-210 -115 -200 -200 0 -200C100 -200 255 -80 255 120C255 320 180 460 -20 460C-220 460 -255 285 -255 285" stroke="black" stroke-width="80" stroke-linecap="square" stroke-miterlimit="1.5" fill="none"></path></symbol></defs><rect width="239" height="335" x="-119.5" y="-167.5" rx="12" ry="12" fill="white" stroke="black"></rect><use href="#VC5" height="32" width="32" x="-114.4" y="-156"></use><use href="#SC5" height="26.769" width="26.769" x="-111.784" y="-119"></use><use href="#SC5" height="70" width="70" x="-87.501" y="-135.588"></use><use href="#SC5" height="70" width="70" x="17.501" y="-135.588"></use><use href="#SC5" height="70" width="70" x="-35" y="-35"></use><g transform="rotate(180)"><use href="#VC5" height="32" width="32" x="-114.4" y="-156"></use><use href="#SC5" height="26.769" width="26.769" x="-111.784" y="-119"></use><use href="#SC5" height="70" width="70" x="-87.501" y="-135.588"></use><use href="#SC5" height="70" width="70" x="17.501" y="-135.588"></use></g></symbol>
<symbol id="piece-letele-cards-C-9" viewBox="-120 -168 240 336"><defs><symbol id="SC9" viewBox="-600 -600 1200 1200" preserveAspectRatio="xMinYMid"><path d="M30 150C35 385 85 400 130 500L-130 500C-85 400 -35 385 -30 150A10 10 0 0 0 -50 150A210 210 0 1 1 -124 -51A10 10 0 0 0 -110 -65A230 230 0 1 1 110 -65A10 10 0 0 0 124 -51A210 210 0 1 1 50 150A10 10 0 0 0 30 150Z" fill="black"></path></symbol><symbol id="VC9" viewBox="-500 -500 1000 1000" preserveAspectRatio="xMinYMid"><path d="M250 -100A250 250 0 0 1 -250 -100L-250 -210A250 250 0 0 1 250 -210L250 210A250 250 0 0 1 0 460C-150 460 -180 400 -200 375" stroke="black" stroke-width="80" stroke-linecap="square" stroke-miterlimit="1.5" fill="none"></path></symbol></defs><rect width="239" height="335" x="-119.5" y="-167.5" rx="12" ry="12" fill="white" stroke="black"></rect><use href="#VC9" height="32" width="32" x="-114.4" y="-156"></use><use href="#SC9" height="26.769" width="26.769" x="-111.784" y="-119"></use><use href="#SC9" height="70" width="70" x="-87.501" y="-135.588"></use><use href="#SC9" height="70" width="70" x="17.501" y="-135.588"></use><use href="#SC9" height="70" width="70" x="-87.501" y="-68.529"></use><use href="#SC9" height="70" width="70" x="17.501" y="-68.529"></use><use href="#SC9" height="70" width="70" x="-35" y="-42"></use><g transform="rotate(180)"><use href="#VC9" height="32" width="32" x="-114.4" y="-156"></use><use href="#SC9" height="26.769" width="26.769" x="-111.784" y="-119"></use><use href="#SC9" height="70" width="70" x="-87.501" y="-135.588"></use><use href="#SC9" height="70" width="70" x="17.501" y="-135.588"></use><use href="#SC9" height="70" width="70" x="-87.501" y="-68.529"></use><use href="#SC9" height="70" width="70" x="17.501" y="-68.529"></use></g></symbol>
<symbol id="piece-letele-cards-C-2" viewBox="-120 -168 240 336"><defs><symbol id="SC2" viewBox="-600 -600 1200 1200" preserveAspectRatio="xMinYMid"><path d="M30 150C35 385 85 400 130 500L-130 500C-85 400 -35 385 -30 150A10 10 0 0 0 -50 150A210 210 0 1 1 -124 -51A10 10 0 0 0 -110 -65A230 230 0 1 1 110 -65A10 10 0 0 0 124 -51A210 210 0 1 1 50 150A10 10 0 0 0 30 150Z" fill="black"></path></symbol><symbol id="VC2" viewBox="-500 -500 1000 1000" preserveAspectRatio="xMinYMid"><path d="M-225 -225C-245 -265 -200 -460 0 -460C 200 -460 225 -325 225 -225C225 -25 -225 160 -225 460L225 460L225 300" stroke="black" stroke-width="80" stroke-linecap="square" stroke-miterlimit="1.5" fill="none"></path></symbol></defs><rect width="239" height="335" x="-119.5" y="-167.5" rx="12" ry="12" fill="white" stroke="black"></rect><use href="#VC2" height="32" width="32" x="-114.4" y="-156"></use><use href="#SC2" height="26.769" width="26.769" x="-111.784" y="-119"></use><use href="#SC2" height="70" width="70" x="-35" y="-135.588"></use><g transform="rotate(180)"><use href="#VC2" height="32" width="32" x="-114.4" y="-156"></use><use href="#SC2" height="26.769" width="26.769" x="-111.784" y="-119"></use><use href="#SC2" height="70" width="70" x="-35" y="-135.588"></use></g></symbol>
<symbol id="piece-letele-cards-H-5" viewBox="-120 -168 240 336"><defs><symbol id="SH5" viewBox="-600 -600 1200 1200" preserveAspectRatio="xMinYMid"><path d="M0 -300C0 -400 100 -500 200 -500C300 -500 400 -400 400 -250C400 0 0 400 0 500C0 400 -400 0 -400 -250C-400 -400 -300 -500 -200 -500C-100 -500 0 -400 -0 -300Z" fill="red"></path></symbol><symbol id="VH5" viewBox="-500 -500 1000 1000" preserveAspectRatio="xMinYMid"><path d="M170 -460L-175 -460L-210 -115C-210 -115 -200 -200 0 -200C100 -200 255 -80 255 120C255 320 180 460 -20 460C-220 460 -255 285 -255 285" stroke="red" stroke-width="80" stroke-linecap="square" stroke-miterlimit="1.5" fill="none"></path></symbol></defs><rect width="239" height="335" x="-119.5" y="-167.5" rx="12" ry="12" fill="white" stroke="black"></rect><use href="#VH5" height="32" width="32" x="-114.4" y="-156"></use><use href="#SH5" height="26.769" width="26.769" x="-111.784" y="-119"></use><use href="#SH5" height="70" width="70" x="-87.501" y="-135.501"></use><use href="#SH5" height="70" width="70" x="17.501" y="-135.501"></use><use href="#SH5" height="70" width="70" x="-35" y="-35"></use><g transform="rotate(180)"><use href="#VH5" height="32" width="32" x="-114.4" y="-156"></use><use href="#SH5" height="26.769" width="26.769" x="-111.784" y="-119"></use><use href="#SH5" height="70" width="70" x="-87.501" y="-135.501"></use><use href="#SH5" height="70" width="70" x="17.501" y="-135.501"></use></g></symbol>
<symbol id="piece-letele-cards-H-A" viewBox="-120 -168 240 336"><defs><symbol id="VHA" viewBox="-500 -500 1000 1000" preserveAspectRatio="xMinYMid"><path d="M-270 460L-110 460M-200 450L0 -460L200 450M110 460L270 460M-120 130L120 130" stroke="red" stroke-width="80" stroke-linecap="square" stroke-miterlimit="1.5" fill="none"></path></symbol><symbol id="SHA" viewBox="-600 -600 1200 1200" preserveAspectRatio="xMinYMid"><path d="M0 -300C0 -400 100 -500 200 -500C300 -500 400 -400 400 -250C400 0 0 400 0 500C0 400 -400 0 -400 -250C-400 -400 -300 -500 -200 -500C-100 -500 0 -400 -0 -300Z" fill="red"></path></symbol></defs><rect width="239" height="335" x="-119.5" y="-167.5" rx="12" ry="12" fill="white" stroke="black"></rect><use href="#SHA" height="70" width="70" x="-35" y="-35"></use><use href="#VHA" height="32" width="32" x="-114.4" y="-156"></use><use href="#SHA" height="26.769" width="26.769" x="-111.784" y="-119"></use><g transform="rotate(180)"><use href="#VHA" height="32" width="32" x="-114.4" y="-156"></use><use href="#SHA" height="26.769" width="26.769" x="-111.784" y="-119"></use></g></symbol>
<symbol id="piece-letele-cards-B-1" viewBox="-120 -168 240 336"><defs><pattern id="B1" width="6" height="6" patternUnits="userSpaceOnUse"><path d="M3 0L6 3L3 6L0 3Z" fill="black"></path></pattern></defs><rect width="239" height="335" x="-119.5" y="-167.5" rx="12" ry="12" fill="white" stroke="black"></rect><rect fill="url(#B1)" width="216" height="312" x="-108" y="-156" rx="12" ry="12"></rect></symbol>
</defs>
<rect x="0" y="0" width="652" height="496" fill="#1b5e3a" rx="16"/><rect x="20" y="20" width="612" height="456" fill="#2d7a4f" rx="12" stroke="#1a4a2e" stroke-width="2"/><g class="hand" data-zone="Player 1 — 5 cards (visible)"><g data-card="5♣"><use href="#piece-letele-cards-C-5" x="208" y="50" width="44" height="64"/></g><g data-card="9♣"><use href="#piece-letele-cards-C-9" x="256" y="50" width="44" height="64"/></g><g data-card="2♣"><use href="#piece-letele-cards-C-2" x="304" y="50" width="44" height="64"/></g><g data-card="5♥"><use href="#piece-letele-cards-H-5" x="352" y="50" width="44" height="64"/></g><g data-card="A♥"><use href="#piece-letele-cards-H-A" x="400" y="50" width="44" height="64"/></g></g><text x="326" y="44" text-anchor="middle" font-size="11" fill="rgba(255,255,255,0.6)" font-family="system-ui">Player 1 (5)</text><g class="hand" data-zone="Player 2 — 5 cards (hidden)"><g data-card="Face down"><use href="#piece-letele-cards-B-1" x="351.76021702821686" y="299" width="44" height="64"/></g><g data-card="Face down"><use href="#piece-letele-cards-B-1" x="399.76021702821686" y="299" width="44" height="64"/></g><g data-card="Face down"><use href="#piece-letele-cards-B-1" x="447.76021702821686" y="299" width="44" height="64"/></g><g data-card="Face down"><use href="#piece-letele-cards-B-1" x="495.76021702821686" y="299" width="44" height="64"/></g><g data-card="Face down"><use href="#piece-letele-cards-B-1" x="543.7602170282169" y="299" width="44" height="64"/></g></g><text x="469.76021702821686" y="377" text-anchor="middle" font-size="11" fill="rgba(255,255,255,0.6)" font-family="system-ui">Player 2 (5)</text><g class="hand" data-zone="Player 3 — 5 cards (hidden)"><g data-card="Face down"><use href="#piece-letele-cards-B-1" x="64.2397829717832" y="299.00000000000006" width="44" height="64"/></g><g data-card="Face down"><use href="#piece-letele-cards-B-1" x="112.2397829717832" y="299.00000000000006" width="44" height="64"/></g><g data-card="Face down"><use href="#piece-letele-cards-B-1" x="160.2397829717832" y="299.00000000000006" width="44" height="64"/></g><g data-card="Face down"><use href="#piece-letele-cards-B-1" x="208.2397829717832" y="299.00000000000006" width="44" height="64"/></g><g data-card="Face down"><use href="#piece-letele-cards-B-1" x="256.2397829717832" y="299.00000000000006" width="44" height="64"/></g></g><text x="182.2397829717832" y="377.00000000000006" text-anchor="middle" font-size="11" fill="rgba(255,255,255,0.6)" font-family="system-ui">Player 3 (5)</text><g data-zone="Draw pile — 37 cards remaining (face down)"><use href="#piece-letele-cards-B-1" x="299.5" y="211.5" width="44" height="64"/><use href="#piece-letele-cards-B-1" x="301" y="213" width="44" height="64"/><use href="#piece-letele-cards-B-1" x="302.5" y="214.5" width="44" height="64"/><use href="#piece-letele-cards-B-1" x="304" y="216" width="44" height="64"/><text x="326" y="251" text-anchor="middle" font-size="11" fill="rgba(255,255,255,0.85)" font-family="system-ui" font-weight="bold">37</text></g><text x="326" y="490" text-anchor="middle" font-size="9" fill="rgba(255,255,255,0.3)" font-family="system-ui">Standard 52 · seed: 42</text>
</svg>