<svg xmlns="http://www.w3.org/2000/svg" viewBox="0 0 919.4600282048218 667.4600282048218" width="919.4600282048218" height="667.4600282048218">
<defs>
<symbol id="piece-letele-cards-C-5" viewBox="-120 -168 240 336"><defs><symbol id="SC5" viewBox="-600 -600 1200 1200" preserveAspectRatio="xMinYMid"><path d="M30 150C35 385 85 400 130 500L-130 500C-85 400 -35 385 -30 150A10 10 0 0 0 -50 150A210 210 0 1 1 -124 -51A10 10 0 0 0 -110 -65A230 230 0 1 1 110 -65A10 10 0 0 0 124 -51A210 210 0 1 1 50 150A10 10 0 0 0 30 150Z" fill="black"></path></symbol><symbol id="VC5" viewBox="-500 -500 1000 1000" preserveAspectRatio="xMinYMid"><path d="M170 -460L-175 -460L-210 -115C-210 -115 -200 -200 0 -200C100 -200 255 -80 255 120C255 320 180 460 -20 460C-220 460 -255 285 -255 285" stroke="black" stroke-width="80" stroke-linecap="square" stroke-miterlimit="1.5" fill="none"></path></symbol></defs><rect width="239" height="335" x="-119.5" y="-167.5" rx="12" ry="12" fill="white" stroke="black"></rect><use href="#VC5" height="32" width="32" x="-114.4" y="-156"></use><use href="#SC5" height="26.769" width="26.769" x="-111.784" y="-119"></use><use href="#SC5" height="70" width="70" x="-87.501" y="-135.588"></use><use href="#SC5" height="70" width="70" x="17.501" y="-135.588"></use><use href="#SC5" height="70" width="70" x="-35" y="-35"></use><g transform="rotate(180)"><use href="#VC5" height="32" width="32" x="-114.4" y="-156"></use><use href="#SC5" height="26.769" width="26.769" x="-111.784" y="-119"></use><use href="#SC5" height="70" width="70" x="-87.501" y="-135.588"></use><use href="#SC5" height="70" width="70" x="17.501" y="-135.588"></use></g></symbol>
<symbol id="piece-letele-cards-H-7" viewBox="-120 -168 240 336"><defs><symbol id="SH7" viewBox="-600 -600 1200 1200" preserveAspectRatio="xMinYMid"><path d="M0 -300C0 -400 100 -500 200 -500C300 -500 400 -400 400 -250C400 0 0 400 0 500C0 400 -400 0 -400 -250C-400 -400 -300 -500 -200 -500C-100 -500 0 -400 -0 -300Z" fill="red"></path></symbol><symbol id="VH7" viewBox="-500 -500 1000 1000" preserveAspectRatio="xMinYMid"><path d="M-265 -320L-265 -460L265 -460C135 -200 -90 100 -90 460" stroke="red" stroke-width="80" stroke-linecap="square" stroke-miterlimit="1.5" fill="none"></path></symbol></defs><rect width="239" height="335" x="-119.5" y="-167.5" rx="12" ry="12" fill="white" stroke="black"></rect><use href="#VH7" height="32" width="32" x="-114.4" y="-156"></use><use href="#SH7" height="26.769" width="26.769" x="-111.784" y="-119"></use><use href="#SH7" height="70" width="70" x="-87.501" y="-135.501"></use><use href="#SH7" height="70" width="70" x="17.501" y="-135.501"></use><use href="#SH7" height="70" width="70" x="-87.501" y="-35"></use><use href="#SH7" height="70" width="70" x="17.501" y="-35"></use><use href="#SH7" height="70" width="70" x="-35" y="-85.25"></use><g transform="rotate(180)"><use href="#VH7" height="32" width="32" x="-114.4" y="-156"></use><use href="#SH7" height="26.769" width="26.769" x="-111.784" y="-119"></use><use href="#SH7" height="70" width="70" x="-87.501" y="-135.501"></use><use href="#SH7" height="70" width="70" x="17.501" y="-135.501"></use></g></symbol>
<symbol id="piece-letele-cards-H-6" viewBox="-120 -168 240 336"><defs><symbol id="SH6" viewBox="-600 -600 1200 1200" preserveAspectRatio="xMinYMid"><path d="M0 -300C0 -400 100 -500 200 -500C300 -500 400 -400 400 -250C400 0 0 400 0 500C0 400 -400 0 -400 -250C-400 -400 -300 -500 -200 -500C-100 -500 0 -400 -0 -300Z" fill="red"></path></symbol><symbol id="VH6" viewBox="-500 -500 1000 1000" preserveAspectRatio="xMinYMid"><path d="M-250 100A250 250 0 0 1 250 100L250 210A250 250 0 0 1 -250 210L-250 -210A250 250 0 0 1 0 -460C150 -460 180 -400 200 -375" stroke="red" stroke-width="80" stroke-linecap="square" stroke-miterlimit="1.5" fill="none"></path></symbol></defs><rect width="239" height="335" x="-119.5" y="-167.5" rx="12" ry="12" fill="white" stroke="black"></rect><use href="#VH6" height="32" width="32" x="-114.4" y="-156"></use><use href="#SH6" height="26.769" width="26.769" x="-111.784" y="-119"></use><use href="#SH6" height="70" width="70" x="-87.501" y="-135.501"></use><use href="#SH6" height="70" width="70" x="17.501" y="-135.501"></use><use href="#SH6" height="70" width="70" x="-87.501" y="-35"></use><use href="#SH6" height="70" width="70" x="17.501" y="-35"></use><g transform="rotate(180)"><use href="#VH6" height="32" width="32" x="-114.4" y="-156"></use><use href="#SH6" height="26.769" width="26.769" x="-111.784" y="-119"></use><use href="#SH6" height="70" width="70" x="-87.501" y="-135.501"></use><use href="#SH6" height="70" width="70" x="17.501" y="-135.501"></use></g></symbol>
<symbol id="piece-letele-cards-H-A" viewBox="-120 -168 240 336"><defs><symbol id="VHA" viewBox="-500 -500 1000 1000" preserveAspectRatio="xMinYMid"><path d="M-270 460L-110 460M-200 450L0 -460L200 450M110 460L270 460M-120 130L120 130" stroke="red" stroke-width="80" stroke-linecap="square" stroke-miterlimit="1.5" fill="none"></path></symbol><symbol id="SHA" viewBox="-600 -600 1200 1200" preserveAspectRatio="xMinYMid"><path d="M0 -300C0 -400 100 -500 200 -500C300 -500 400 -400 400 -250C400 0 0 400 0 500C0 400 -400 0 -400 -250C-400 -400 -300 -500 -200 -500C-100 -500 0 -400 -0 -300Z" fill="red"></path></symbol></defs><rect width="239" height="335" x="-119.5" y="-167.5" rx="12" ry="12" fill="white" stroke="black"></rect><use href="#SHA" height="70" width="70" x="-35" y="-35"></use><use href="#VHA" height="32" width="32" x="-114.4" y="-156"></use><use href="#SHA" height="26.769" width="26.769" x="-111.784" y="-119"></use><g transform="rotate(180)"><use href="#VHA" height="32" width="32" x="-114.4" y="-156"></use><use href="#SHA" height="26.769" width="26.769" x="-111.784" y="-119"></use></g></symbol>
<symbol id="piece-letele-cards-C-7" viewBox="-120 -168 240 336"><defs><symbol id="SC7" viewBox="-600 -600 1200 1200" preserveAspectRatio="xMinYMid"><path d="M30 150C35 385 85 400 130 500L-130 500C-85 400 -35 385 -30 150A10 10 0 0 0 -50 150A210 210 0 1 1 -124 -51A10 10 0 0 0 -110 -65A230 230 0 1 1 110 -65A10 10 0 0 0 124 -51A210 210 0 1 1 50 150A10 10 0 0 0 30 150Z" fill="black"></path></symbol><symbol id="VC7" viewBox="-500 -500 1000 1000" preserveAspectRatio="xMinYMid"><path d="M-265 -320L-265 -460L265 -460C135 -200 -90 100 -90 460" stroke="black" stroke-width="80" stroke-linecap="square" stroke-miterlimit="1.5" fill="none"></path></symbol></defs><rect width="239" height="335" x="-119.5" y="-167.5" rx="12" ry="12" fill="white" stroke="black"></rect><use href="#VC7" height="32" width="32" x="-114.4" y="-156"></use><use href="#SC7" height="26.769" width="26.769" x="-111.784" y="-119"></use><use href="#SC7" height="70" width="70" x="-87.501" y="-135.588"></use><use href="#SC7" height="70" width="70" x="17.501" y="-135.588"></use><use href="#SC7" height="70" width="70" x="-87.501" y="-35"></use><use href="#SC7" height="70" width="70" x="17.501" y="-35"></use><use href="#SC7" height="70" width="70" x="-35" y="-85.294"></use><g transform="rotate(180)"><use href="#VC7" height="32" width="32" x="-114.4" y="-156"></use><use href="#SC7" height="26.769" width="26.769" x="-111.784" y="-119"></use><use href="#SC7" height="70" width="70" x="-87.501" y="-135.588"></use><use href="#SC7" height="70" width="70" x="17.501" y="-135.588"></use></g></symbol>
<symbol id="piece-letele-cards-S-3" viewBox="-120 -168 240 336"><defs><symbol id="SS3" viewBox="-600 -600 1200 1200" preserveAspectRatio="xMinYMid"><path d="M0 -500C100 -250 355 -100 355 185A150 150 0 0 1 55 185A10 10 0 0 0 35 185C35 385 85 400 130 500L-130 500C-85 400 -35 385 -35 185A10 10 0 0 0 -55 185A150 150 0 0 1 -355 185C-355 -100 -100 -250 0 -500Z" fill="black"></path></symbol><symbol id="VS3" viewBox="-500 -500 1000 1000" preserveAspectRatio="xMinYMid"><path d="M-250 -320L-250 -460L200 -460L-110 -80C-100 -90 -50 -120 0 -120C200 -120 250 0 250 150C250 350 170 460 -30 460C-230 460 -260 300 -260 300" stroke="black" stroke-width="80" stroke-linecap="square" stroke-miterlimit="1.5" fill="none"></path></symbol></defs><rect width="239" height="335" x="-119.5" y="-167.5" rx="12" ry="12" fill="white" stroke="black"></rect><use href="#VS3" height="32" width="32" x="-114.4" y="-156"></use><use href="#SS3" height="26.769" width="26.769" x="-111.784" y="-119"></use><use href="#SS3" height="70" width="70" x="-35" y="-135.501"></use><use href="#SS3" height="70" width="70" x="-35" y="-35"></use><g transform="rotate(180)"><use href="#VS3" height="32" width="32" x="-114.4" y="-156"></use><use href="#SS3" height="26.769" width="26.769" x="-111.784" y="-119"></use><use href="#SS3" height="70" width="70" x="-35" y="-135.501"></use></g></symbol>
<symbol id="piece-letele-cards-C-3" viewBox="-120 -168 240 336"><defs><symbol id="SC3" viewBox="-600 -600 1200 1200" preserveAspectRatio="xMinYMid"><path d="M30 150C35 385 85 400 130 500L-130 500C-85 400 -35 385 -30 150A10 10 0 0 0 -50 150A210 210 0 1 1 -124 -51A10 10 0 0 0 -110 -65A230 230 0 1 1 110 -65A10 10 0 0 0 124 -51A210 210 0 1 1 50 150A10 10 0 0 0 30 150Z" fill="black"></path></symbol><symbol id="VC3" viewBox="-500 -500 1000 1000" preserveAspectRatio="xMinYMid"><path d="M-250 -320L-250 -460L200 -460L-110 -80C-100 -90 -50 -120 0 -120C200 -120 250 0 250 150C250 350 170 460 -30 460C-230 460 -260 300 -260 300" stroke="black" stroke-width="80" stroke-linecap="square" stroke-miterlimit="1.5" fill="none"></path></symbol></defs><rect width="239" height="335" x="-119.5" y="-167.5" rx="12" ry="12" fill="white" stroke="black"></rect><use href="#VC3" height="32" width="32" x="-114.4" y="-156"></use><use href="#SC3" height="26.769" width="26.769" x="-111.784" y="-119"></use><use href="#SC3" height="70" width="70" x="-35" y="-135.588"></use><use href="#SC3" height="70" width="70" x="-35" y="-35"></use><g transform="rotate(180)"><use href="#VC3" height="32" width="32" x="-114.4" y="-156"></use><use href="#SC3" height="26.769" width="26.769" x="-111.784" y="-119"></use><use href="#SC3" height="70" width="70" x="-35" y="-135.588"></use></g></symbol>
<symbol id="piece-letele-cards-B-1" viewBox="-120 -168 240 336"><defs><pattern id="B1" width="6" height="6" patternUnits="userSpaceOnUse"><path d="M3 0L6 3L3 6L0 3Z" fill="black"></path></pattern></defs><rect width="239" height="335" x="-119.5" y="-167.5" rx="12" ry="12" fill="white" stroke="black"></rect><rect fill="url(#B1)" width="216" height="312" x="-108" y="-156" rx="12" ry="12"></rect></symbol>
</defs>
<rect x="0" y="0" width="919.4600282048218" height="667.4600282048218" fill="#1b5e3a" rx="16"/><rect x="20" y="20" width="879.4600282048218" height="627.4600282048218" fill="#2d7a4f" rx="12" stroke="#1a4a2e" stroke-width="2"/><g class="hand" data-zone="Player 1 — 7 cards (visible)"><g data-card="5♣"><use href="#piece-letele-cards-C-5" x="293.7300141024109" y="50" width="44" height="64"/></g><g data-card="7♥"><use href="#piece-letele-cards-H-7" x="341.7300141024109" y="50" width="44" height="64"/></g><g data-card="6♥"><use href="#piece-letele-cards-H-6" x="389.7300141024109" y="50" width="44" height="64"/></g><g data-card="A♥"><use href="#piece-letele-cards-H-A" x="437.7300141024109" y="50" width="44" height="64"/></g><g data-card="7♣"><use href="#piece-letele-cards-C-7" x="485.7300141024109" y="50" width="44" height="64"/></g><g data-card="3♠"><use href="#piece-letele-cards-S-3" x="533.7300141024109" y="50" width="44" height="64"/></g><g data-card="3♣"><use href="#piece-letele-cards-C-3" x="581.7300141024109" y="50" width="44" height="64"/></g></g><text x="459.7300141024109" y="44" text-anchor="middle" font-size="11" fill="rgba(255,255,255,0.6)" font-family="system-ui">Player 1 (7)</text><g class="hand" data-zone="Player 2 — 7 cards (hidden)"><g data-card="Face down"><use href="#piece-letele-cards-B-1" x="545.4600282048218" y="301.7300141024109" width="44" height="64"/></g><g data-card="Face down"><use href="#piece-letele-cards-B-1" x="593.4600282048218" y="301.7300141024109" width="44" height="64"/></g><g data-card="Face down"><use href="#piece-letele-cards-B-1" x="641.4600282048218" y="301.7300141024109" width="44" height="64"/></g><g data-card="Face down"><use href="#piece-letele-cards-B-1" x="689.4600282048218" y="301.7300141024109" width="44" height="64"/></g><g data-card="Face down"><use href="#piece-letele-cards-B-1" x="737.4600282048218" y="301.7300141024109" width="44" height="64"/></g><g data-card="Face down"><use href="#piece-letele-cards-B-1" x="785.4600282048218" y="301.7300141024109" width="44" height="64"/></g><g data-card="Face down"><use href="#piece-letele-cards-B-1" x="833.4600282048218" y="301.7300141024109" width="44" height="64"/></g></g><text x="711.4600282048218" y="295.7300141024109" text-anchor="middle" font-size="11" fill="rgba(255,255,255,0.6)" font-family="system-ui">Player 2 (7)</text><g class="hand" data-zone="Player 3 — 7 cards (hidden)"><g data-card="Face down"><use href="#piece-letele-cards-B-1" x="293.7300141024109" y="553.4600282048218" width="44" height="64"/></g><g data-card="Face down"><use href="#piece-letele-cards-B-1" x="341.7300141024109" y="553.4600282048218" width="44" height="64"/></g><g data-card="Face down"><use href="#piece-letele-cards-B-1" x="389.7300141024109" y="553.4600282048218" width="44" height="64"/></g><g data-card="Face down"><use href="#piece-letele-cards-B-1" x="437.7300141024109" y="553.4600282048218" width="44" height="64"/></g><g data-card="Face down"><use href="#piece-letele-cards-B-1" x="485.7300141024109" y="553.4600282048218" width="44" height="64"/></g><g data-card="Face down"><use href="#piece-letele-cards-B-1" x="533.7300141024109" y="553.4600282048218" width="44" height="64"/></g><g data-card="Face down"><use href="#piece-letele-cards-B-1" x="581.7300141024109" y="553.4600282048218" width="44" height="64"/></g></g><text x="459.7300141024109" y="631.4600282048218" text-anchor="middle" font-size="11" fill="rgba(255,255,255,0.6)" font-family="system-ui">Player 3 (7)</text><g class="hand" data-zone="Player 4 — 7 cards (hidden)"><g data-card="Face down"><use href="#piece-letele-cards-B-1" x="42" y="301.73001410241096" width="44" height="64"/></g><g data-card="Face down"><use href="#piece-letele-cards-B-1" x="90" y="301.73001410241096" width="44" height="64"/></g><g data-card="Face down"><use href="#piece-letele-cards-B-1" x="138" y="301.73001410241096" width="44" height="64"/></g><g data-card="Face down"><use href="#piece-letele-cards-B-1" x="186" y="301.73001410241096" width="44" height="64"/></g><g data-card="Face down"><use href="#piece-letele-cards-B-1" x="234" y="301.73001410241096" width="44" height="64"/></g><g data-card="Face down"><use href="#piece-letele-cards-B-1" x="282" y="301.73001410241096" width="44" height="64"/></g><g data-card="Face down"><use href="#piece-letele-cards-B-1" x="330" y="301.73001410241096" width="44" height="64"/></g></g><text x="208" y="379.73001410241096" text-anchor="middle" font-size="11" fill="rgba(255,255,255,0.6)" font-family="system-ui">Player 4 (7)</text><g data-zone="Draw pile — 24 cards remaining (face down)"><use href="#piece-letele-cards-B-1" x="433.2300141024109" y="297.2300141024109" width="44" height="64"/><use href="#piece-letele-cards-B-1" x="434.7300141024109" y="298.7300141024109" width="44" height="64"/><use href="#piece-letele-cards-B-1" x="436.2300141024109" y="300.2300141024109" width="44" height="64"/><use href="#piece-letele-cards-B-1" x="437.7300141024109" y="301.7300141024109" width="44" height="64"/><text x="459.7300141024109" y="336.7300141024109" text-anchor="middle" font-size="11" fill="rgba(255,255,255,0.85)" font-family="system-ui" font-weight="bold">24</text></g><text x="459.7300141024109" y="661.4600282048218" text-anchor="middle" font-size="9" fill="rgba(255,255,255,0.3)" font-family="system-ui">Standard 52 · seed: 42</text>
</svg>