<svg xmlns="http://www.w3.org/2000/svg" viewBox="0 0 748 544" width="748" height="544">
<rect x="0" y="0" width="748" height="544" fill="#1b5e3a" rx="16"/><rect x="20" y="20" width="708" height="504" fill="#2d7a4f" rx="12" stroke="#1a4a2e" stroke-width="2"/><g class="hand" data-zone="Player 1 — 6 cards (visible)"><g data-card="5♣"><image href="../pieces/sets/letele-cards/C-5.svg" x="232" y="50" width="44" height="64" preserveAspectRatio="xMidYMid meet"/></g><g data-card="9♦"><image href="../pieces/sets/letele-cards/D-9.svg" x="280" y="50" width="44" height="64" preserveAspectRatio="xMidYMid meet"/></g><g data-card="7♥"><image href="../pieces/sets/letele-cards/H-7.svg" x="328" y="50" width="44" height="64" preserveAspectRatio="xMidYMid meet"/></g><g data-card="2♣"><image href="../pieces/sets/letele-cards/C-2.svg" x="376" y="50" width="44" height="64" preserveAspectRatio="xMidYMid meet"/></g><g data-card="6♥"><image href="../pieces/sets/letele-cards/H-6.svg" x="424" y="50" width="44" height="64" preserveAspectRatio="xMidYMid meet"/></g><g data-card="5♠"><image href="../pieces/sets/letele-cards/S-5.svg" x="472" y="50" width="44" height="64" preserveAspectRatio="xMidYMid meet"/></g></g><text x="374" y="44" text-anchor="middle" font-size="11" fill="rgba(255,255,255,0.6)" font-family="system-ui">Player 1 (6)</text><g class="hand" data-zone="Player 2 — 6 cards (hidden)"><g data-card="Face down"><image href="../pieces/sets/letele-cards/B-1.svg" x="232" y="430" width="44" height="64" preserveAspectRatio="xMidYMid meet"/></g><g data-card="Face down"><image href="../pieces/sets/letele-cards/B-1.svg" x="280" y="430" width="44" height="64" preserveAspectRatio="xMidYMid meet"/></g><g data-card="Face down"><image href="../pieces/sets/letele-cards/B-1.svg" x="328" y="430" width="44" height="64" preserveAspectRatio="xMidYMid meet"/></g><g data-card="Face down"><image href="../pieces/sets/letele-cards/B-1.svg" x="376" y="430" width="44" height="64" preserveAspectRatio="xMidYMid meet"/></g><g data-card="Face down"><image href="../pieces/sets/letele-cards/B-1.svg" x="424" y="430" width="44" height="64" preserveAspectRatio="xMidYMid meet"/></g><g data-card="Face down"><image href="../pieces/sets/letele-cards/B-1.svg" x="472" y="430" width="44" height="64" preserveAspectRatio="xMidYMid meet"/></g></g><text x="374" y="508" text-anchor="middle" font-size="11" fill="rgba(255,255,255,0.6)" font-family="system-ui">Player 2 (6)</text><g data-zone="Draw pile — 40 cards remaining (face down)"><image href="../pieces/sets/letele-cards/B-1.svg" x="347.5" y="235.5" width="44" height="64" preserveAspectRatio="xMidYMid meet"/><image href="../pieces/sets/letele-cards/B-1.svg" x="349" y="237" width="44" height="64" preserveAspectRatio="xMidYMid meet"/><image href="../pieces/sets/letele-cards/B-1.svg" x="350.5" y="238.5" width="44" height="64" preserveAspectRatio="xMidYMid meet"/><image href="../pieces/sets/letele-cards/B-1.svg" x="352" y="240" width="44" height="64" preserveAspectRatio="xMidYMid meet"/><text x="374" y="275" text-anchor="middle" font-size="11" fill="rgba(255,255,255,0.85)" font-family="system-ui" font-weight="bold">40</text></g><text x="374" y="538" text-anchor="middle" font-size="9" fill="rgba(255,255,255,0.3)" font-family="system-ui">Standard 52 · seed: 42</text>
</svg>