<svg xmlns="http://www.w3.org/2000/svg" viewBox="0 0 476 464" width="476" height="464">
<defs>
<symbol id="piece-letele-cards-C-5" viewBox="-120 -168 240 336"><defs><symbol id="SC5" viewBox="-600 -600 1200 1200" preserveAspectRatio="xMinYMid"><path d="M30 150C35 385 85 400 130 500L-130 500C-85 400 -35 385 -30 150A10 10 0 0 0 -50 150A210 210 0 1 1 -124 -51A10 10 0 0 0 -110 -65A230 230 0 1 1 110 -65A10 10 0 0 0 124 -51A210 210 0 1 1 50 150A10 10 0 0 0 30 150Z" fill="black"></path></symbol><symbol id="VC5" viewBox="-500 -500 1000 1000" preserveAspectRatio="xMinYMid"><path d="M170 -460L-175 -460L-210 -115C-210 -115 -200 -200 0 -200C100 -200 255 -80 255 120C255 320 180 460 -20 460C-220 460 -255 285 -255 285" stroke="black" stroke-width="80" stroke-linecap="square" stroke-miterlimit="1.5" fill="none"></path></symbol></defs><rect width="239" height="335" x="-119.5" y="-167.5" rx="12" ry="12" fill="white" stroke="black"></rect><use href="#VC5" height="32" width="32" x="-114.4" y="-156"></use><use href="#SC5" height="26.769" width="26.769" x="-111.784" y="-119"></use><use href="#SC5" height="70" width="70" x="-87.501" y="-135.588"></use><use href="#SC5" height="70" width="70" x="17.501" y="-135.588"></use><use href="#SC5" height="70" width="70" x="-35" y="-35"></use><g transform="rotate(180)"><use href="#VC5" height="32" width="32" x="-114.4" y="-156"></use><use href="#SC5" height="26.769" width="26.769" x="-111.784" y="-119"></use><use href="#SC5" height="70" width="70" x="-87.501" y="-135.588"></use><use href="#SC5" height="70" width="70" x="17.501" y="-135.588"></use></g></symbol>
<symbol id="piece-letele-cards-H-7" viewBox="-120 -168 240 336"><defs><symbol id="SH7" viewBox="-600 -600 1200 1200" preserveAspectRatio="xMinYMid"><path d="M0 -300C0 -400 100 -500 200 -500C300 -500 400 -400 400 -250C400 0 0 400 0 500C0 400 -400 0 -400 -250C-400 -400 -300 -500 -200 -500C-100 -500 0 -400 -0 -300Z" fill="red"></path></symbol><symbol id="VH7" viewBox="-500 -500 1000 1000" preserveAspectRatio="xMinYMid"><path d="M-265 -320L-265 -460L265 -460C135 -200 -90 100 -90 460" stroke="red" stroke-width="80" stroke-linecap="square" stroke-miterlimit="1.5" fill="none"></path></symbol></defs><rect width="239" height="335" x="-119.5" y="-167.5" rx="12" ry="12" fill="white" stroke="black"></rect><use href="#VH7" height="32" width="32" x="-114.4" y="-156"></use><use href="#SH7" height="26.769" width="26.769" x="-111.784" y="-119"></use><use href="#SH7" height="70" width="70" x="-87.501" y="-135.501"></use><use href="#SH7" height="70" width="70" x="17.501" y="-135.501"></use><use href="#SH7" height="70" width="70" x="-87.501" y="-35"></use><use href="#SH7" height="70" width="70" x="17.501" y="-35"></use><use href="#SH7" height="70" width="70" x="-35" y="-85.25"></use><g transform="rotate(180)"><use href="#VH7" height="32" width="32" x="-114.4" y="-156"></use><use href="#SH7" height="26.769" width="26.769" x="-111.784" y="-119"></use><use href="#SH7" height="70" width="70" x="-87.501" y="-135.501"></use><use href="#SH7" height="70" width="70" x="17.501" y="-135.501"></use></g></symbol>
<symbol id="piece-letele-cards-B-1" viewBox="-120 -168 240 336"><defs><pattern id="B1" width="6" height="6" patternUnits="userSpaceOnUse"><path d="M3 0L6 3L3 6L0 3Z" fill="black"></path></pattern></defs><rect width="239" height="335" x="-119.5" y="-167.5" rx="12" ry="12" fill="white" stroke="black"></rect><rect fill="url(#B1)" width="216" height="312" x="-108" y="-156" rx="12" ry="12"></rect></symbol>
</defs>
<rect x="0" y="0" width="476" height="464" fill="#1b5e3a" rx="16"/><rect x="20" y="20" width="436" height="424" fill="#2d7a4f" rx="12" stroke="#1a4a2e" stroke-width="2"/><g class="hand" data-zone="Player 1 — 2 cards (visible)"><g data-card="5♣"><use href="#piece-letele-cards-C-5" x="192" y="50" width="44" height="64"/></g><g data-card="7♥"><use href="#piece-letele-cards-H-7" x="240" y="50" width="44" height="64"/></g></g><text x="238" y="44" text-anchor="middle" font-size="11" fill="rgba(255,255,255,0.6)" font-family="system-ui">Player 1 (2)</text><g class="hand" data-zone="Player 2 — 2 cards (hidden)"><g data-card="Face down"><use href="#piece-letele-cards-B-1" x="342" y="200" width="44" height="64"/></g><g data-card="Face down"><use href="#piece-letele-cards-B-1" x="390" y="200" width="44" height="64"/></g></g><text x="388" y="194" text-anchor="middle" font-size="11" fill="rgba(255,255,255,0.6)" font-family="system-ui">Player 2 (2)</text><g class="hand" data-zone="Player 3 — 2 cards (hidden)"><g data-card="Face down"><use href="#piece-letele-cards-B-1" x="192" y="350" width="44" height="64"/></g><g data-card="Face down"><use href="#piece-letele-cards-B-1" x="240" y="350" width="44" height="64"/></g></g><text x="238" y="428" text-anchor="middle" font-size="11" fill="rgba(255,255,255,0.6)" font-family="system-ui">Player 3 (2)</text><g class="hand" data-zone="Player 4 — 2 cards (hidden)"><g data-card="Face down"><use href="#piece-letele-cards-B-1" x="42" y="200.00000000000003" width="44" height="64"/></g><g data-card="Face down"><use href="#piece-letele-cards-B-1" x="90" y="200.00000000000003" width="44" height="64"/></g></g><text x="88" y="278" text-anchor="middle" font-size="11" fill="rgba(255,255,255,0.6)" font-family="system-ui">Player 4 (2)</text><g data-zone="Draw pile — 44 cards remaining (face down)"><use href="#piece-letele-cards-B-1" x="211.5" y="195.5" width="44" height="64"/><use href="#piece-letele-cards-B-1" x="213" y="197" width="44" height="64"/><use href="#piece-letele-cards-B-1" x="214.5" y="198.5" width="44" height="64"/><use href="#piece-letele-cards-B-1" x="216" y="200" width="44" height="64"/><text x="238" y="235" text-anchor="middle" font-size="11" fill="rgba(255,255,255,0.85)" font-family="system-ui" font-weight="bold">44</text></g><text x="238" y="458" text-anchor="middle" font-size="9" fill="rgba(255,255,255,0.3)" font-family="system-ui">Standard 52 · seed: 42</text>
</svg>