<svg xmlns="http://www.w3.org/2000/svg" viewBox="0 0 280 240" width="280" height="240">
<defs>
<symbol id="piece-mce-xiangqi-trad-bR" viewBox="0 0 100 100"><g transform="translate(50,50)"><circle r="48.5" stroke-width="3" stroke="#000" fill="#fda"/><circle r="43.5" stroke-width="3" stroke="#000" fill="none"/><path transform="scale(0.267)" fill="#000" d="M-15,-129C-17,-128 -17,-126 -15,-114C-14,-110 -13,-104 -13,-100L-13,-93 -24,-92C-30,-91 -41,-90 -48,-89C-61,-88 -65,-86 -63,-83C-61,-75 -53,-72 -34,-73C-27,-74 -19,-74 -17,-75L-13,-75 -13,-67C-14,-63 -14,-59 -14,-58C-15,-58 -39,-55 -47,-55C-50,-55 -57,-55 -60,-55C-66,-56 -67,-56 -69,-54C-72,-52 -72,-50 -68,-45C-64,-40 -62,-34 -59,-9C-56,16 -55,18 -52,22C-49,25 -46,25 -42,21C-39,18 -39,18 -29,18C-23,18 -17,18 -17,17C-15,17 -15,18 -15,25C-15,36 -12,34 -39,37C-49,37 -64,39 -72,40C-79,40 -91,41 -99,42C-112,42 -116,43 -116,47C-116,49 -115,51 -114,52C-112,55 -103,61 -97,62C-92,64 -91,64 -81,61C-65,56 -50,54 -19,52L-15,51 -16,64C-16,83 -15,115 -13,120C-10,126 -5,125 -2,117C1,111 4,91 5,70C6,59 6,50 7,50C8,49 33,48 69,48C92,47 111,47 112,46C121,43 116,33 103,27C95,23 92,23 77,25C61,28 8,33 7,32C6,32 6,28 7,24L7,16 11,16C13,15 18,15 23,14L31,14 34,17C39,22 44,22 48,18C52,14 54,9 61,-17C66,-33 68,-37 71,-42C73,-45 75,-49 75,-50C77,-55 70,-61 59,-66C50,-71 45,-71 35,-68C28,-65 14,-62 10,-62C8,-62 8,-63 9,-70C9,-74 9,-78 10,-78C10,-78 18,-79 28,-81C52,-84 57,-85 60,-88C62,-90 63,-91 63,-92C63,-95 57,-99 52,-101C44,-103 40,-103 29,-100C24,-99 17,-98 15,-97L10,-97 10,-102C11,-105 12,-109 13,-111C15,-116 14,-118 10,-122C4,-128 -10,-133 -15,-129M43,-49C43,-47 41,-35 41,-34C40,-34 39,-35 37,-35C32,-38 26,-38 19,-36C16,-35 12,-34 11,-34L8,-33 8,-40C8,-48 7,-48 20,-49C31,-50 42,-50 43,-49M-14,-37C-14,-32 -14,-29 -15,-29C-15,-29 -21,-28 -28,-28C-36,-27 -42,-26 -42,-27C-42,-27 -43,-30 -43,-34L-44,-41 -36,-41C-32,-42 -26,-42 -23,-43C-19,-43 -16,-44 -15,-44C-14,-44 -14,-42 -14,-37M39,-20C38,-19 37,-15 36,-10L34,-2 23,-1C17,-1 11,-1 10,-1L7,0 7,-8L7,-16 19,-17C26,-18 32,-20 34,-20C38,-21 39,-21 39,-20M-14,-6C-15,-2 -15,2 -16,2C-16,2 -21,3 -28,3L-40,5 -40,2C-40,1 -40,-3 -41,-6L-41,-11 -30,-12C-24,-12 -17,-13 -16,-13C-14,-13 -14,-13 -14,-6"/></g></symbol>
<symbol id="piece-mce-xiangqi-trad-bN" viewBox="0 0 100 100"><g transform="translate(50,50)"><circle r="48.5" stroke-width="3" stroke="#000" fill="#fda"/><circle r="43.5" stroke-width="3" stroke="#000" fill="none"/><path transform="scale(0.267)" fill="#000" d="M27,-107C18,-106 -0,-103 -13,-101C-34,-98 -38,-98 -41,-99C-55,-103 -56,-103 -59,-102C-63,-100 -63,-95 -60,-91C-57,-85 -56,-74 -57,-51C-58,-22 -60,-9 -63,-3C-67,3 -67,5 -64,10C-59,20 -54,23 -46,19C-30,11 7,6 54,4C68,4 72,4 73,5C76,7 75,15 73,34C69,62 66,73 61,80C59,81 57,83 56,83C55,83 50,81 44,80C33,75 32,75 30,78C28,81 28,81 38,94C41,99 45,105 47,109C51,117 53,118 60,115C67,112 76,104 81,96C85,90 90,76 92,66C93,62 94,50 95,38C98,18 98,16 101,10C106,1 105,-1 100,-5C95,-9 80,-16 77,-16C75,-16 71,-15 67,-15C61,-13 20,-9 13,-9C11,-9 11,-9 11,-16L12,-24 30,-26C40,-27 50,-28 53,-29C57,-30 61,-33 61,-35C61,-37 56,-41 51,-43C46,-45 44,-45 37,-45C32,-44 25,-43 21,-43L13,-41 13,-48L13,-54 19,-54C33,-56 53,-59 55,-60C56,-61 57,-62 58,-63C60,-68 54,-73 43,-75C38,-76 36,-76 26,-74C19,-72 14,-71 14,-71C13,-71 14,-73 14,-76C15,-78 15,-82 16,-84C16,-87 17,-88 18,-88C20,-89 29,-90 39,-92C59,-95 63,-96 64,-101C64,-104 61,-107 54,-110C48,-112 45,-111 27,-107M-11,-82C-11,-81 -10,-77 -10,-74C-10,-67 -9,-68 -24,-66C-39,-64 -38,-64 -38,-69C-37,-71 -37,-75 -36,-78L-36,-84 -26,-84C-20,-84 -15,-85 -14,-85C-13,-85 -12,-84 -11,-82M-9,-45L-9,-38 -20,-37C-26,-36 -33,-36 -35,-35C-40,-35 -40,-35 -40,-38C-40,-44 -39,-50 -38,-49C-37,-49 -16,-50 -10,-51C-9,-51 -9,-49 -9,-45M-10,-10L-11,-6 -25,-3C-43,-0 -42,-0 -42,-6C-42,-9 -42,-13 -41,-15L-41,-20 -33,-19C-29,-19 -22,-19 -18,-20L-11,-21 -10,-17C-10,-16 -10,-12 -10,-10M18,21C17,21 16,23 16,24C16,28 39,54 44,56C48,56 52,54 54,51C57,47 57,36 54,32C52,28 43,24 32,22C20,19 20,19 18,21M-88,24C-89,25 -90,29 -91,31C-93,38 -94,41 -100,51C-104,59 -105,62 -105,65C-105,71 -103,79 -100,81C-97,84 -92,84 -88,81C-85,77 -79,66 -77,57C-74,41 -77,23 -84,22C-86,22 -87,23 -88,24M-20,26C-23,29 -21,33 -13,45C-7,54 -0,60 3,60C6,60 11,55 12,52C13,47 12,40 10,36C6,30 -16,22 -20,26M-60,30C-62,31 -61,36 -55,46C-47,61 -41,66 -35,64C-30,62 -27,51 -31,43C-33,39 -39,34 -48,31C-53,29 -59,28 -60,30"/></g></symbol>
<symbol id="piece-mce-xiangqi-trad-bA" viewBox="0 0 100 100"><g transform="translate(50,50)"><circle r="48.5" stroke-width="3" stroke="#000" fill="#fda"/><circle r="43.5" stroke-width="3" stroke="#000" fill="none"/><path transform="scale(0.267)" fill="#000" d="M-23,-107C-26,-104 -26,-102 -22,-95L-19,-90 -18,-51C-18,-17 -18,-13 -19,-13C-20,-13 -34,-11 -51,-9C-67,-7 -87,-5 -96,-4C-104,-3 -112,-2 -114,-2C-122,1 -114,11 -99,18C-93,21 -91,21 -83,18C-75,15 -27,6 -20,6C-18,6 -18,8 -18,39C-18,64 -18,71 -19,71C-20,71 -30,72 -43,74C-55,75 -68,76 -72,76C-78,76 -79,76 -81,78C-85,82 -80,88 -70,92C-62,95 -57,95 -51,94C-34,90 -6,87 39,86C79,85 79,85 79,79C79,74 74,70 64,66C55,62 55,62 39,65C32,66 23,67 19,67C14,68 9,68 8,69L5,69 5,37C5,19 6,4 6,4C7,2 47,1 78,1C117,1 118,1 118,-5C118,-10 112,-15 103,-20C92,-24 91,-25 55,-20C39,-18 22,-17 16,-16C6,-15 6,-16 6,-17C6,-26 9,-73 10,-77C11,-79 12,-84 14,-87C16,-92 16,-93 15,-96C13,-102 -2,-109 -13,-110C-20,-110 -20,-110 -23,-107"/></g></symbol>
<symbol id="piece-mce-xiangqi-trad-bK" viewBox="0 0 100 100"><g transform="translate(50,50)"><circle r="48.5" stroke-width="3" stroke="#000" fill="#fda"/><circle r="43.5" stroke-width="3" stroke="#000" fill="none"/><path transform="scale(0.267)" fill="#000" d="M32,-110C31,-109 29,-104 28,-100C26,-94 24,-89 21,-85C16,-79 4,-68 -4,-61C-9,-57 -10,-54 -7,-52C-5,-50 2,-51 9,-56L16,-60 23,-54C27,-51 33,-46 36,-43L41,-37 34,-31C23,-22 7,-12 -4,-6C-14,-2 -16,1 -12,4C-11,6 -11,6 -14,6C-16,6 -19,6 -21,7C-23,8 -24,9 -24,11C-24,14 -22,16 -17,19C-9,23 -3,24 5,22C14,20 27,18 42,17L52,16 52,36C52,58 50,77 48,79C47,81 46,81 42,79C39,79 34,78 30,77C25,77 24,77 23,79C21,82 22,84 27,88C29,90 35,96 40,102C47,110 50,112 52,112C58,112 66,103 70,92C72,85 72,84 72,62C72,49 72,34 71,27L71,16 94,16C112,15 117,15 118,13C122,10 119,4 111,-1C103,-5 99,-5 85,-3C78,-2 73,-1 72,-1C72,-2 73,-5 73,-10C74,-16 74,-18 73,-20C71,-22 65,-25 61,-26L57,-26 66,-35C71,-40 79,-49 83,-55C88,-60 95,-67 97,-69C100,-71 103,-74 104,-75C106,-80 102,-85 91,-92C84,-96 81,-96 72,-93C66,-90 58,-88 52,-87L49,-86 53,-90C58,-95 58,-98 54,-102C50,-106 39,-111 35,-111C34,-111 32,-110 32,-110M-46,-105C-49,-103 -49,-101 -46,-92C-44,-86 -44,-83 -44,-63L-45,-41 -57,-39C-64,-38 -70,-37 -70,-37C-71,-38 -67,-60 -66,-63C-65,-65 -64,-68 -64,-70C-64,-77 -83,-87 -88,-82C-90,-80 -90,-77 -88,-72C-86,-66 -87,-55 -91,-39L-94,-26 -92,-22C-90,-17 -87,-14 -83,-13C-82,-12 -79,-13 -76,-16C-73,-18 -65,-21 -58,-24L-46,-28 -45,-13C-45,-5 -45,3 -45,3C-46,3 -54,5 -64,6C-79,8 -84,9 -91,8C-101,8 -103,8 -103,13C-103,18 -96,27 -89,29C-85,30 -85,31 -86,33C-87,41 -97,61 -103,70C-106,73 -110,78 -113,81C-119,86 -120,88 -118,91C-117,94 -114,93 -106,89C-96,84 -85,74 -78,64C-76,60 -70,50 -66,43C-60,30 -59,28 -59,25L-60,21 -53,19L-46,17 -46,24C-46,34 -49,63 -51,72C-52,83 -52,85 -50,92C-47,101 -42,107 -39,105C-34,104 -31,100 -29,92C-26,85 -26,84 -26,43C-26,-2 -25,-56 -23,-73C-23,-78 -21,-84 -21,-86C-20,-88 -19,-91 -19,-92C-19,-99 -39,-109 -46,-105M71,-73C71,-73 56,-52 55,-51C54,-50 53,-51 51,-53C48,-58 40,-63 33,-65C25,-68 28,-70 45,-70C52,-71 61,-72 64,-72C71,-74 71,-74 71,-73M23,-43C14,-40 -3,-37 -9,-37C-13,-37 -15,-37 -16,-35C-19,-32 -18,-29 -11,-23C-5,-17 -0,-15 3,-18C4,-19 11,-24 19,-28C29,-35 33,-37 33,-39C34,-42 34,-42 33,-44C30,-45 29,-45 23,-43M47,-14C48,-11 50,-7 50,-5C51,1 50,1 44,1C41,1 32,2 22,3C-9,7 -7,6 3,3C14,-0 33,-10 40,-14C42,-16 45,-18 45,-18C45,-18 47,-16 47,-14M-6,28C-8,29 -8,31 -7,32C-6,35 7,56 10,59C15,65 24,64 27,57C34,43 21,29 0,26C-4,26 -5,26 -6,28"/></g></symbol>
<symbol id="piece-mce-xiangqi-trad-bC" viewBox="0 0 100 100"><g transform="translate(50,50)"><circle r="48.5" stroke-width="3" stroke="#000" fill="#fda"/><circle r="43.5" stroke-width="3" stroke="#000" fill="none"/><path transform="scale(0.267)" fill="#000" d="M14,-111C13,-110 13,-107 13,-105C13,-98 8,-84 2,-71C-3,-60 -17,-39 -26,-26C-32,-18 -32,-15 -27,-14C-23,-14 -11,-23 1,-36L11,-46 15,-45C18,-43 20,-43 28,-46C40,-48 54,-50 65,-50C75,-50 75,-50 75,-34C73,-4 69,11 64,12C63,13 60,12 56,10C49,6 47,6 46,9C45,11 46,13 52,25C55,32 59,39 60,40C61,41 63,42 65,42C69,42 79,35 83,29C90,20 91,14 95,-19C96,-38 96,-38 100,-46C101,-50 102,-53 101,-54C101,-57 90,-65 84,-68L79,-70 73,-68C65,-66 21,-59 20,-60C20,-61 33,-83 37,-88C39,-91 41,-94 41,-94C41,-104 18,-118 14,-111M-33,-66C-34,-66 -40,-65 -45,-63C-55,-61 -76,-56 -85,-55C-94,-54 -96,-53 -96,-50C-96,-45 -87,-40 -78,-40C-77,-40 -75,-40 -75,-39C-75,-37 -81,-21 -83,-16C-91,0 -105,18 -117,28C-126,37 -128,40 -127,42C-124,47 -104,39 -91,27C-89,25 -87,23 -87,24C-87,24 -86,31 -85,39C-83,55 -81,61 -77,63C-74,64 -71,63 -69,60C-68,57 -67,57 -51,56C-42,55 -33,53 -32,53C-29,51 -28,48 -31,45L-33,43 -29,30C-27,23 -24,16 -22,12C-18,6 -17,3 -20,1C-23,-2 -31,-6 -36,-7C-40,-8 -41,-8 -46,-6C-51,-3 -67,2 -70,2C-71,2 -71,1 -69,-1C-68,-2 -64,-8 -61,-15C-58,-21 -54,-27 -52,-29C-49,-32 -48,-35 -51,-40L-53,-43 -50,-43C-34,-47 -17,-51 -15,-52C-11,-56 -13,-60 -20,-64C-23,-65 -30,-67 -33,-66M26,-25C20,-23 7,-19 2,-19C1,-19 -2,-20 -3,-21C-6,-22 -10,-22 -12,-20C-14,-18 -14,-15 -12,-8C-11,-3 -11,0 -12,26C-13,57 -13,64 -9,75C-5,85 9,96 26,100C36,103 56,104 72,102C97,100 115,93 123,84C129,78 129,75 125,66C122,61 121,57 119,48C118,42 117,36 116,35C115,31 108,32 108,36C107,38 106,44 105,50C103,63 101,66 96,70C88,77 71,81 46,80C14,79 6,74 5,53C5,48 5,41 5,38L6,33 12,32C22,32 38,31 40,30C43,29 44,24 42,22C40,20 40,20 44,9C46,2 49,-4 52,-7C54,-10 56,-13 56,-14C57,-17 53,-21 46,-24C37,-28 33,-29 26,-25M27,-8C27,-7 26,-2 25,4C23,11 22,15 21,15C19,16 7,18 7,17C6,17 7,12 8,7C8,1 9,-4 9,-5C9,-6 19,-9 24,-9C26,-9 27,-9 27,-8M-46,12C-46,15 -50,38 -51,38C-52,39 -67,42 -68,42C-68,41 -68,35 -69,28L-69,14 -60,13C-49,11 -46,11 -46,12"/></g></symbol>
<symbol id="piece-mce-xiangqi-trad-bP" viewBox="0 0 100 100"><g transform="translate(50,50)"><circle r="48.5" stroke-width="3" stroke="#000" fill="#fda"/><circle r="43.5" stroke-width="3" stroke="#000" fill="none"/><path transform="scale(0.267)" fill="#000" d="M-19,-123C-22,-121 -21,-118 -14,-104C-10,-97 -6,-90 -7,-90C-7,-90 -46,-86 -60,-85C-73,-85 -75,-85 -77,-83C-81,-79 -79,-73 -72,-71C-70,-70 -64,-70 -58,-69C-49,-69 -47,-68 -48,-67C-49,-67 -49,-64 -49,-60C-50,-50 -60,-33 -77,-14C-82,-10 -85,-5 -85,-4C-85,-3 -84,-1 -83,-1C-81,1 -80,1 -77,-1C-72,-3 -61,-10 -53,-18L-46,-24 -44,-22C-34,-7 -24,-1 -18,-6C-17,-7 -16,-10 -15,-12C-14,-16 -14,-17 -17,-22C-20,-28 -25,-32 -32,-35C-38,-36 -38,-35 -28,-46C-23,-52 -22,-55 -25,-59C-27,-62 -34,-67 -39,-68C-44,-70 -44,-70 -22,-71C11,-74 58,-79 67,-80C75,-82 79,-84 80,-88C80,-91 78,-94 72,-97C64,-101 56,-101 49,-99C45,-97 20,-93 16,-93C14,-93 14,-94 15,-98C16,-109 8,-117 -5,-122C-14,-124 -17,-124 -19,-123M33,-74C33,-73 32,-71 32,-69C32,-60 26,-44 15,-25C12,-20 10,-15 10,-15C10,-13 10,-13 6,-14C5,-15 1,-16 -3,-17C-9,-18 -9,-18 -11,-16C-13,-14 -13,-14 -12,-8C-11,0 -11,14 -12,14C-14,14 -49,17 -57,18C-62,19 -75,19 -87,20C-99,20 -109,21 -110,22C-113,22 -113,28 -110,31C-107,34 -102,37 -96,39C-89,40 -88,40 -68,36C-56,34 -37,31 -22,30L-11,30 -11,74C-11,116 -11,119 -10,122C-6,129 -1,128 3,120C7,110 9,97 10,66C11,50 11,35 12,32L12,28 27,28C36,27 57,27 75,27C107,27 108,26 111,24C112,23 114,21 114,20C115,15 103,8 91,6C86,5 83,5 72,7C57,9 45,11 25,12L12,12 13,8C13,5 14,3 15,1C16,-1 16,-5 15,-8C14,-9 14,-10 15,-10C17,-10 24,-15 31,-23L38,-29 46,-21C58,-8 64,-4 71,-5C76,-7 79,-18 75,-25C72,-29 64,-35 54,-37C49,-39 46,-40 46,-41C46,-43 53,-53 56,-56C58,-58 58,-59 58,-62C56,-69 37,-78 33,-74"/></g></symbol>
<symbol id="piece-mce-xiangqi-trad-rP" viewBox="0 0 100 100"><g transform="translate(50,50)"><circle r="48.5" stroke-width="3" stroke="#000" fill="#fda"/><circle r="43.5" stroke-width="3" stroke="#c00" fill="none"/><path transform="scale(0.267)" fill="#c00" d="M23,-116C21,-115 19,-113 17,-111C8,-103 -14,-91 -33,-83L-41,-80 -47,-84C-55,-88 -62,-88 -65,-85C-67,-83 -67,-81 -65,-75C-64,-72 -62,-65 -61,-59C-57,-36 -49,21 -50,22C-50,22 -57,23 -66,24C-113,27 -115,27 -117,29C-119,31 -118,33 -115,36C-111,40 -99,46 -95,46C-94,46 -85,45 -77,43C-37,35 -1,32 83,32C98,31 112,31 113,30C115,30 117,29 118,27C119,26 119,25 117,22C115,17 110,14 100,11L92,9 77,11C60,13 36,16 35,16C35,15 44,-17 45,-19C48,-23 47,-27 44,-31C42,-32 40,-34 39,-35C37,-36 37,-36 38,-36C45,-36 72,-40 74,-41C79,-45 75,-51 64,-55C55,-58 52,-58 42,-56C37,-54 19,-50 2,-46C-16,-43 -31,-40 -33,-39C-35,-39 -35,-39 -36,-50C-37,-66 -38,-66 -33,-67C-31,-67 -17,-71 -2,-75C14,-80 31,-84 38,-86C50,-88 52,-90 52,-95C52,-98 51,-100 46,-104C40,-110 32,-115 27,-116C26,-117 24,-116 23,-116M17,-29C19,-22 16,15 14,17C14,18 -27,20 -27,20C-28,20 -29,11 -30,1C-31,-8 -32,-18 -33,-21C-33,-23 -33,-25 -32,-25C-32,-24 -22,-26 -10,-28C18,-33 17,-33 17,-29M-39,43C-41,44 -43,47 -43,50C-43,53 -48,61 -54,67C-61,75 -79,91 -92,100C-102,107 -103,108 -101,111C-99,114 -96,114 -86,109C-69,102 -51,92 -36,80C-25,72 -19,67 -16,67C-15,66 -13,65 -12,64C-8,59 -12,53 -24,47C-31,43 -35,42 -39,43M14,49C13,49 12,51 12,52C12,53 17,59 23,66C29,72 39,83 44,89C59,107 68,113 74,109C79,107 80,103 80,95C79,81 70,70 51,60C40,55 26,49 19,48C17,47 16,48 14,49"/></g></symbol>
<symbol id="piece-mce-xiangqi-trad-rC" viewBox="0 0 100 100"><g transform="translate(50,50)"><circle r="48.5" stroke-width="3" stroke="#000" fill="#fda"/><circle r="43.5" stroke-width="3" stroke="#c00" fill="none"/><path transform="scale(0.267)" fill="#c00" d="M9,-112C8,-110 7,-108 7,-104C7,-98 4,-85 -1,-72C-4,-62 -16,-36 -24,-23C-27,-17 -27,-16 -26,-14C-25,-13 -25,-11 -26,-11C-27,-10 -29,-6 -29,-4C-27,1 -26,13 -27,38C-29,77 -27,85 -17,95C-11,101 -2,105 11,109C19,111 23,111 40,112C78,113 101,107 117,92C123,85 123,83 119,77C115,71 113,66 110,53C108,42 106,38 103,38C100,38 98,41 96,52C93,71 90,79 81,83C67,91 30,93 7,87C-2,85 -6,83 -8,78C-10,74 -10,72 -10,59L-11,45 4,42C11,40 19,39 21,38C28,37 31,33 26,28C25,26 25,25 28,17C30,12 32,5 34,3C39,-5 39,-7 35,-11C32,-13 24,-17 19,-18C17,-19 14,-18 10,-16C6,-14 -0,-12 -5,-11C-12,-9 -13,-9 -16,-10L-20,-12 -10,-22C-5,-27 1,-33 2,-34L4,-37 8,-35C13,-34 13,-34 21,-37C31,-41 49,-46 56,-47C60,-47 62,-47 64,-46C66,-45 66,-44 66,-36C63,-5 57,22 53,24C52,24 48,23 45,21C39,19 37,19 35,20C31,21 31,24 37,31C40,34 43,39 45,42C50,52 53,53 61,49C66,47 72,38 75,30C78,24 81,8 84,-15C86,-24 88,-34 89,-38C90,-42 91,-47 92,-48C93,-52 90,-56 83,-61C79,-64 75,-66 73,-66C71,-67 67,-66 60,-64C54,-62 43,-59 35,-57C14,-52 13,-52 13,-53C15,-58 31,-88 33,-91C37,-96 37,-99 33,-103C29,-108 18,-114 15,-114C13,-114 11,-113 9,-112M-80,-105C-83,-103 -82,-101 -80,-94C-75,-82 -75,-17 -80,12C-85,42 -95,65 -114,87C-121,95 -123,99 -119,101C-113,104 -88,83 -78,66C-75,62 -71,55 -70,51C-68,47 -67,43 -67,43C-66,43 -63,48 -58,54C-46,70 -43,72 -37,66C-34,64 -34,63 -33,57C-33,47 -38,41 -55,34C-59,33 -63,32 -63,31C-63,31 -62,28 -62,24C-60,17 -57,-10 -57,-18C-57,-19 -56,-20 -54,-21C-52,-22 -46,-26 -41,-31C-35,-35 -29,-39 -26,-41C-24,-42 -21,-45 -20,-46L-18,-49 -20,-54C-24,-62 -36,-69 -41,-66C-42,-66 -44,-61 -46,-56C-49,-47 -52,-41 -54,-38C-56,-36 -56,-36 -56,-39C-56,-52 -54,-81 -52,-88C-51,-92 -50,-96 -51,-97C-51,-99 -59,-105 -65,-106C-71,-108 -78,-107 -80,-105M-115,-33C-119,-31 -118,-26 -112,-13C-103,5 -97,11 -90,8C-86,5 -84,1 -84,-6C-84,-17 -90,-25 -101,-30C-109,-34 -112,-34 -115,-33M11,1C11,2 10,7 9,13L7,24 3,25C1,26 -3,27 -6,28C-10,28 -10,28 -10,25C-9,24 -9,20 -9,16C-8,5 -7,3 -1,2C6,-0 11,-0 11,1"/></g></symbol>
<symbol id="piece-mce-xiangqi-trad-rR" viewBox="0 0 100 100"><g transform="translate(50,50)"><circle r="48.5" stroke-width="3" stroke="#000" fill="#fda"/><circle r="43.5" stroke-width="3" stroke="#c00" fill="none"/><path transform="scale(0.267)" fill="#c00" d="M15,-124C14,-123 12,-121 12,-120C11,-118 11,-117 19,-107C21,-104 21,-103 21,-93C21,-84 21,-83 19,-83C15,-82 0,-80 -11,-79C-21,-79 -22,-78 -24,-76C-25,-74 -24,-71 -20,-68C-13,-63 -8,-62 4,-62C10,-63 16,-63 18,-64L21,-64 21,-58L21,-52 6,-50C-3,-48 -13,-48 -21,-48C-37,-47 -38,-47 -31,-30C-28,-24 -25,-12 -23,-5C-19,11 -19,13 -16,17C-12,23 -5,24 -4,20C-3,19 0,18 7,17C12,16 18,16 19,16C21,15 21,16 21,24L21,32 17,32C14,33 -20,36 -37,38C-43,38 -45,39 -47,40C-48,42 -48,42 -47,45C-45,50 -37,55 -31,56C-29,56 -21,55 -13,54C-5,53 5,52 9,51C12,51 17,51 18,50L21,50 21,72C21,97 22,108 26,112C31,117 37,112 39,101C40,97 40,84 41,72L41,49 51,48C57,48 73,48 87,49C114,50 118,50 120,46C121,45 121,43 121,42C121,37 106,26 98,25C96,24 85,25 74,26C63,28 51,29 47,30L41,30 41,22L41,14 52,13L64,13 68,16C75,22 80,22 84,15C86,11 90,-5 93,-20C94,-24 96,-28 99,-33C105,-42 105,-44 99,-50C93,-55 81,-61 77,-61C76,-61 70,-60 65,-59C60,-58 52,-57 48,-56L41,-56 41,-58C41,-63 42,-67 44,-67C45,-68 52,-69 60,-70C85,-74 88,-75 88,-82C88,-85 87,-86 84,-88C77,-93 67,-93 55,-90C51,-89 46,-88 45,-88L42,-87 43,-93C44,-96 45,-100 46,-103C48,-108 48,-109 47,-112C45,-117 40,-120 30,-124C23,-127 19,-127 15,-124M-54,-113C-57,-111 -58,-108 -56,-103C-54,-96 -55,-93 -62,-78C-72,-58 -85,-40 -109,-11C-119,1 -120,4 -118,7C-116,9 -111,8 -105,4C-98,-0 -83,-13 -80,-18L-77,-21 -76,-19C-75,-17 -74,-11 -74,3C-74,25 -75,37 -79,56C-82,70 -82,73 -79,81C-77,90 -74,94 -70,96C-64,99 -61,97 -58,85C-56,79 -56,74 -55,38C-55,16 -54,-7 -53,-13L-53,-23 -59,-29L-64,-36 -62,-39C-59,-42 -44,-61 -38,-71C-36,-74 -32,-79 -29,-82C-25,-87 -24,-89 -24,-92C-24,-96 -25,-97 -30,-102C-38,-111 -48,-115 -54,-113M67,-42C71,-41 72,-38 71,-34C71,-32 71,-32 65,-32C62,-32 55,-31 51,-31C46,-30 42,-29 42,-29C41,-29 41,-32 41,-35L41,-41 50,-41C55,-42 59,-42 60,-42C63,-43 65,-43 67,-42M21,-32C21,-25 22,-26 9,-24C4,-23 -1,-23 -3,-22C-7,-22 -7,-22 -8,-29L-9,-33 -1,-34C7,-36 16,-38 19,-38C21,-38 21,-37 21,-32M68,-11C67,-4 67,-3 63,-4C60,-5 52,-4 44,-3C41,-2 41,-2 41,-7L41,-13 48,-13C52,-14 58,-14 60,-14C62,-15 65,-15 67,-15C69,-15 69,-15 68,-11M21,-5L21,1 12,1C7,2 2,2 0,3C-3,3 -3,3 -4,-2L-5,-7 5,-8C10,-9 15,-10 16,-11C16,-11 18,-11 19,-11C21,-11 21,-11 21,-5"/></g></symbol>
<symbol id="piece-mce-xiangqi-trad-rN" viewBox="0 0 100 100"><g transform="translate(50,50)"><circle r="48.5" stroke-width="3" stroke="#000" fill="#fda"/><circle r="43.5" stroke-width="3" stroke="#c00" fill="none"/><path transform="scale(0.267)" fill="#c00" d="M-48,-105C-49,-103 -50,-101 -50,-94C-51,-83 -55,-73 -63,-58C-76,-36 -91,-16 -107,1C-117,11 -117,12 -116,15C-115,18 -112,18 -106,15C-99,11 -82,-3 -75,-11C-71,-15 -68,-18 -68,-18C-67,-18 -67,8 -68,22C-70,42 -72,60 -74,68C-77,77 -76,80 -74,88C-68,104 -60,107 -55,95C-52,87 -51,81 -50,43C-50,23 -49,1 -48,-7C-47,-25 -46,-24 -51,-29L-56,-34 -49,-45C-45,-51 -39,-61 -36,-67C-32,-73 -28,-80 -25,-83C-23,-86 -21,-88 -21,-89C-21,-93 -28,-102 -35,-105C-40,-108 -45,-108 -48,-105M73,-103C68,-101 38,-96 21,-94C6,-92 6,-92 0,-94C-7,-96 -12,-97 -14,-94C-16,-92 -16,-92 -14,-86C-12,-81 -12,-78 -11,-65C-10,-38 -14,-2 -17,3C-20,7 -19,12 -16,18C-11,26 -10,26 2,22C12,17 44,13 72,11C90,11 90,10 89,24C89,36 86,59 83,67C81,75 77,80 72,83C68,85 65,84 57,80C50,77 47,76 45,80C44,81 45,82 49,90C52,94 56,101 58,105C63,114 66,117 70,117C79,115 92,105 97,95C102,85 107,65 111,37C112,26 113,23 115,18C121,8 119,4 103,-4C94,-9 92,-9 83,-7C80,-6 71,-5 64,-4L50,-2 50,-10C50,-16 50,-18 51,-18C55,-18 78,-21 81,-22C87,-23 88,-25 88,-28C88,-31 84,-34 77,-36C71,-37 72,-37 54,-34L51,-34 51,-41C51,-45 51,-49 52,-49C52,-50 59,-51 67,-52C88,-55 92,-57 89,-63C88,-65 86,-66 80,-68L73,-70 63,-68C58,-67 54,-66 53,-66C52,-66 52,-72 53,-74C54,-75 54,-77 54,-79C54,-81 55,-82 56,-82C58,-83 65,-84 73,-85C89,-88 93,-89 95,-92C99,-98 82,-106 73,-103M31,-76C31,-75 32,-71 32,-68L32,-62 23,-61C18,-60 12,-60 11,-59C8,-59 8,-59 8,-63C8,-66 8,-70 9,-73L10,-78 16,-78C20,-78 24,-79 26,-79C29,-79 30,-79 31,-76M32,-39C32,-35 31,-32 31,-31C30,-31 6,-27 5,-27C5,-27 5,-31 6,-36L7,-44 13,-45C17,-45 22,-45 24,-46C33,-48 32,-48 32,-39M31,-8C31,-3 31,0 30,0C30,0 24,1 18,2C11,3 5,4 5,4C4,4 4,0 4,-4L4,-13 14,-14C20,-14 26,-15 28,-15L31,-15 31,-8M46,22C44,24 44,25 52,42C57,52 59,55 62,57C66,60 68,60 71,56C80,46 75,31 60,24C52,20 49,19 46,22M-27,30C-27,31 -29,35 -30,40C-32,44 -35,51 -37,54C-42,63 -43,68 -42,73C-40,80 -38,83 -35,84C-25,88 -13,64 -16,43C-17,38 -18,33 -19,32C-21,28 -25,27 -27,30M17,30C14,33 14,33 23,50C28,61 30,64 33,65C37,68 40,67 43,62C46,57 47,50 44,44C42,40 36,34 30,31C21,28 19,28 17,30M-8,35C-11,37 -10,38 -7,50C-1,71 5,77 12,71C16,67 17,64 17,58C17,50 12,43 2,37C-4,33 -6,32 -8,35"/></g></symbol>
<symbol id="piece-mce-xiangqi-trad-rA" viewBox="0 0 100 100"><g transform="translate(50,50)"><circle r="48.5" stroke-width="3" stroke="#000" fill="#fda"/><circle r="43.5" stroke-width="3" stroke="#c00" fill="none"/><path transform="scale(0.267)" fill="#c00" d="M-49,-106C-50,-105 -51,-103 -52,-98C-55,-72 -81,-30 -115,6C-123,14 -125,17 -122,20C-120,22 -116,21 -110,17C-89,1 -84,-3 -77,-11L-69,-20 -69,12C-70,44 -71,61 -74,72C-75,80 -75,84 -73,90C-70,98 -67,104 -64,105C-62,106 -62,106 -59,103C-52,97 -52,96 -51,48C-51,24 -51,0 -50,-5C-47,-26 -47,-23 -53,-29L-58,-34 -56,-36C-53,-40 -40,-61 -34,-72C-31,-76 -28,-82 -26,-84C-20,-89 -21,-92 -27,-98C-36,-107 -44,-110 -49,-106M14,-98C11,-95 11,-93 14,-86C18,-77 19,-69 19,-42L19,-18 -11,-14C-28,-12 -43,-9 -44,-9C-50,-6 -45,2 -35,5C-28,8 -22,7 -11,5C-1,3 15,0 18,0C20,0 20,2 20,27L20,55 -3,58C-26,61 -31,62 -31,65C-31,68 -27,73 -24,74C-16,78 -11,78 3,76C10,75 23,73 32,72C45,70 55,70 90,68C99,67 102,65 102,61C102,57 98,53 91,50C83,45 77,45 59,48C51,50 44,51 43,51C42,51 42,47 42,24C43,9 43,-3 43,-4C44,-4 86,-8 104,-9C119,-10 122,-11 124,-14C126,-18 122,-23 111,-28C103,-32 100,-33 92,-30C89,-30 78,-28 68,-26C57,-24 47,-23 46,-22L43,-22 43,-39C43,-60 44,-68 48,-77C50,-84 50,-84 49,-87C44,-96 20,-104 14,-98"/></g></symbol>
<symbol id="piece-mce-xiangqi-trad-rK" viewBox="0 0 100 100"><g transform="translate(50,50)"><circle r="48.5" stroke-width="3" stroke="#000" fill="#fda"/><circle r="43.5" stroke-width="3" stroke="#c00" fill="none"/><path transform="scale(0.267)" fill="#c00" d="M24,-121C21,-118 21,-116 24,-110C26,-105 26,-103 27,-77C27,-55 27,-49 26,-48C23,-46 7,-46 0,-47C-5,-48 -7,-48 -9,-47C-12,-45 -13,-41 -10,-35C-6,-24 -6,-9 -12,8C-14,14 -15,18 -15,20C-12,34 -5,43 0,37C6,31 11,8 13,-21L13,-31 18,-31C20,-32 23,-32 25,-33L27,-33 27,38C27,103 27,109 28,114C30,118 31,120 32,121C37,123 40,120 43,108C47,94 48,81 49,21L51,-35 54,-36C55,-37 61,-37 66,-37L76,-38 76,-18C76,0 75,17 74,19C73,19 70,18 65,18C59,16 57,16 55,17C51,19 53,22 61,30C65,34 70,40 72,42C77,50 83,50 89,41C96,32 98,22 100,-14C101,-28 101,-33 102,-36C106,-44 103,-49 90,-55L83,-58 75,-56C67,-54 55,-52 52,-52C50,-52 51,-95 54,-105L55,-112 52,-116C48,-119 40,-122 32,-123C26,-123 25,-123 24,-121M-65,-116C-67,-114 -68,-113 -69,-107C-71,-93 -84,-63 -87,-65C-90,-66 -98,-66 -100,-65C-104,-63 -104,-61 -101,-54L-98,-48 -98,-22C-98,7 -99,24 -103,40C-104,50 -105,53 -104,57C-102,67 -95,77 -90,77C-87,77 -85,75 -85,71C-83,64 -83,64 -76,64C-50,61 -31,59 -29,58C-26,57 -26,52 -29,50C-31,48 -31,47 -28,37C-26,32 -24,24 -22,21C-20,17 -18,13 -18,12C-18,9 -22,5 -28,3C-37,-2 -41,-2 -49,2C-55,5 -62,7 -73,9L-80,11 -79,3C-79,-2 -79,-6 -79,-6C-78,-6 -57,-9 -44,-10C-39,-11 -33,-11 -32,-12C-29,-13 -29,-17 -30,-20C-32,-22 -32,-23 -29,-31C-27,-36 -24,-43 -21,-47C-19,-50 -17,-54 -17,-55C-17,-59 -26,-65 -35,-68C-38,-69 -39,-69 -51,-65C-57,-63 -65,-61 -67,-60L-72,-60 -69,-64C-67,-67 -62,-73 -58,-78C-55,-82 -49,-90 -45,-94C-42,-99 -39,-102 -39,-103C-39,-103 -40,-105 -41,-107C-42,-109 -45,-111 -51,-114C-60,-119 -62,-119 -65,-116M-46,-48C-47,-47 -48,-41 -49,-36L-50,-26 -62,-24C-69,-23 -75,-22 -76,-21C-78,-21 -78,-22 -78,-33L-78,-45 -71,-45C-68,-46 -61,-47 -57,-48C-47,-51 -46,-51 -46,-48M-47,19C-47,20 -47,26 -48,33L-50,44 -63,47C-82,50 -81,50 -81,43C-81,39 -81,34 -80,30L-80,24 -74,24C-71,23 -65,22 -60,21C-50,18 -48,18 -47,19"/></g></symbol>
</defs>

<rect x="0" y="0" width="40" height="40" fill="#f5deb3" data-sq="a6" class="board-cell"/><rect x="40" y="0" width="40" height="40" fill="#f5deb3" data-sq="b6" class="board-cell"/><rect x="80" y="0" width="40" height="40" fill="#f5deb3" data-sq="c6" class="board-cell"/><rect x="120" y="0" width="40" height="40" fill="#f5deb3" data-sq="d6" class="board-cell"/><rect x="160" y="0" width="40" height="40" fill="#f5deb3" data-sq="e6" class="board-cell"/><rect x="200" y="0" width="40" height="40" fill="#f5deb3" data-sq="f6" class="board-cell"/><rect x="240" y="0" width="40" height="40" fill="#f5deb3" data-sq="g6" class="board-cell"/><rect x="0" y="40" width="40" height="40" fill="#f5deb3" data-sq="a5" class="board-cell"/><rect x="40" y="40" width="40" height="40" fill="#f5deb3" data-sq="b5" class="board-cell"/><rect x="80" y="40" width="40" height="40" fill="#f5deb3" data-sq="c5" class="board-cell"/><rect x="120" y="40" width="40" height="40" fill="#f5deb3" data-sq="d5" class="board-cell"/><rect x="160" y="40" width="40" height="40" fill="#f5deb3" data-sq="e5" class="board-cell"/><rect x="200" y="40" width="40" height="40" fill="#f5deb3" data-sq="f5" class="board-cell"/><rect x="240" y="40" width="40" height="40" fill="#f5deb3" data-sq="g5" class="board-cell"/><rect x="0" y="80" width="40" height="40" fill="#f5deb3" data-sq="a4" class="board-cell"/><rect x="40" y="80" width="40" height="40" fill="#f5deb3" data-sq="b4" class="board-cell"/><rect x="80" y="80" width="40" height="40" fill="#f5deb3" data-sq="c4" class="board-cell"/><rect x="120" y="80" width="40" height="40" fill="#f5deb3" data-sq="d4" class="board-cell"/><rect x="160" y="80" width="40" height="40" fill="#f5deb3" data-sq="e4" class="board-cell"/><rect x="200" y="80" width="40" height="40" fill="#f5deb3" data-sq="f4" class="board-cell"/><rect x="240" y="80" width="40" height="40" fill="#f5deb3" data-sq="g4" class="board-cell"/><rect x="0" y="120" width="40" height="40" fill="#f5deb3" data-sq="a3" class="board-cell"/><rect x="40" y="120" width="40" height="40" fill="#f5deb3" data-sq="b3" class="board-cell"/><rect x="80" y="120" width="40" height="40" fill="#f5deb3" data-sq="c3" class="board-cell"/><rect x="120" y="120" width="40" height="40" fill="#f5deb3" data-sq="d3" class="board-cell"/><rect x="160" y="120" width="40" height="40" fill="#f5deb3" data-sq="e3" class="board-cell"/><rect x="200" y="120" width="40" height="40" fill="#f5deb3" data-sq="f3" class="board-cell"/><rect x="240" y="120" width="40" height="40" fill="#f5deb3" data-sq="g3" class="board-cell"/><rect x="0" y="160" width="40" height="40" fill="#f5deb3" data-sq="a2" class="board-cell"/><rect x="40" y="160" width="40" height="40" fill="#f5deb3" data-sq="b2" class="board-cell"/><rect x="80" y="160" width="40" height="40" fill="#f5deb3" data-sq="c2" class="board-cell"/><rect x="120" y="160" width="40" height="40" fill="#f5deb3" data-sq="d2" class="board-cell"/><rect x="160" y="160" width="40" height="40" fill="#f5deb3" data-sq="e2" class="board-cell"/><rect x="200" y="160" width="40" height="40" fill="#f5deb3" data-sq="f2" class="board-cell"/><rect x="240" y="160" width="40" height="40" fill="#f5deb3" data-sq="g2" class="board-cell"/><rect x="0" y="200" width="40" height="40" fill="#f5deb3" data-sq="a1" class="board-cell"/><rect x="40" y="200" width="40" height="40" fill="#f5deb3" data-sq="b1" class="board-cell"/><rect x="80" y="200" width="40" height="40" fill="#f5deb3" data-sq="c1" class="board-cell"/><rect x="120" y="200" width="40" height="40" fill="#f5deb3" data-sq="d1" class="board-cell"/><rect x="160" y="200" width="40" height="40" fill="#f5deb3" data-sq="e1" class="board-cell"/><rect x="200" y="200" width="40" height="40" fill="#f5deb3" data-sq="f1" class="board-cell"/><rect x="240" y="200" width="40" height="40" fill="#f5deb3" data-sq="g1" class="board-cell"/><line x1="20" y1="20" x2="260" y2="20" stroke="#4a3520" stroke-width="2"/><line x1="20" y1="60" x2="260" y2="60" stroke="#4a3520" stroke-width="2"/><line x1="20" y1="100" x2="260" y2="100" stroke="#4a3520" stroke-width="2"/><line x1="20" y1="140" x2="260" y2="140" stroke="#4a3520" stroke-width="2"/><line x1="20" y1="180" x2="260" y2="180" stroke="#4a3520" stroke-width="2"/><line x1="20" y1="220" x2="260" y2="220" stroke="#4a3520" stroke-width="2"/><line x1="20" y1="20" x2="20" y2="220" stroke="#4a3520" stroke-width="2"/><line x1="60" y1="20" x2="60" y2="180" stroke="#4a3520" stroke-width="2"/><line x1="60" y1="220" x2="60" y2="220" stroke="#4a3520" stroke-width="2"/><line x1="100" y1="20" x2="100" y2="180" stroke="#4a3520" stroke-width="2"/><line x1="100" y1="220" x2="100" y2="220" stroke="#4a3520" stroke-width="2"/><line x1="140" y1="20" x2="140" y2="180" stroke="#4a3520" stroke-width="2"/><line x1="140" y1="220" x2="140" y2="220" stroke="#4a3520" stroke-width="2"/><line x1="180" y1="20" x2="180" y2="180" stroke="#4a3520" stroke-width="2"/><line x1="180" y1="220" x2="180" y2="220" stroke="#4a3520" stroke-width="2"/><line x1="220" y1="20" x2="220" y2="180" stroke="#4a3520" stroke-width="2"/><line x1="220" y1="220" x2="220" y2="220" stroke="#4a3520" stroke-width="2"/><line x1="260" y1="20" x2="260" y2="220" stroke="#4a3520" stroke-width="2"/>
<g pointer-events="none"><use href="#piece-mce-xiangqi-trad-bR" x="0" y="0" width="40" height="40"/><use href="#piece-mce-xiangqi-trad-bN" x="40" y="0" width="40" height="40"/><use href="#piece-mce-xiangqi-trad-bA" x="80" y="0" width="40" height="40"/><use href="#piece-mce-xiangqi-trad-bK" x="120" y="0" width="40" height="40"/><use href="#piece-mce-xiangqi-trad-bA" x="160" y="0" width="40" height="40"/><use href="#piece-mce-xiangqi-trad-bN" x="200" y="0" width="40" height="40"/><use href="#piece-mce-xiangqi-trad-bR" x="240" y="0" width="40" height="40"/><use href="#piece-mce-xiangqi-trad-bC" x="40" y="40" width="40" height="40"/><use href="#piece-mce-xiangqi-trad-bC" x="200" y="40" width="40" height="40"/><use href="#piece-mce-xiangqi-trad-bP" x="0" y="80" width="40" height="40"/><use href="#piece-mce-xiangqi-trad-bP" x="120" y="80" width="40" height="40"/><use href="#piece-mce-xiangqi-trad-bP" x="240" y="80" width="40" height="40"/><use href="#piece-mce-xiangqi-trad-rP" x="0" y="120" width="40" height="40"/><use href="#piece-mce-xiangqi-trad-rP" x="120" y="120" width="40" height="40"/><use href="#piece-mce-xiangqi-trad-rP" x="240" y="120" width="40" height="40"/><use href="#piece-mce-xiangqi-trad-rC" x="40" y="160" width="40" height="40"/><use href="#piece-mce-xiangqi-trad-rC" x="200" y="160" width="40" height="40"/><use href="#piece-mce-xiangqi-trad-rR" x="0" y="200" width="40" height="40"/><use href="#piece-mce-xiangqi-trad-rN" x="40" y="200" width="40" height="40"/><use href="#piece-mce-xiangqi-trad-rA" x="80" y="200" width="40" height="40"/><use href="#piece-mce-xiangqi-trad-rK" x="120" y="200" width="40" height="40"/><use href="#piece-mce-xiangqi-trad-rA" x="160" y="200" width="40" height="40"/><use href="#piece-mce-xiangqi-trad-rN" x="200" y="200" width="40" height="40"/><use href="#piece-mce-xiangqi-trad-rR" x="240" y="200" width="40" height="40"/></g>
</svg>