<svg xmlns="http://www.w3.org/2000/svg" viewBox="0 0 324 360" width="324" height="360">
<defs>
<symbol id="piece-mce-xiangqi-fairy-bR" viewBox="0 0 45 45"><circle cx="22.5" cy="22.5" r="20" fill="#f5e6c8" stroke="#1a1a1a" stroke-width="2"/><circle cx="22.5" cy="22.5" r="17" fill="none" stroke="#1a1a1a" stroke-width="0.8"/><text x="22.5" y="28" text-anchor="middle" font-size="18" font-family="serif" fill="#1a1a1a">車</text></symbol>
<symbol id="piece-mce-xiangqi-fairy-bN" viewBox="0 0 45 45"><circle cx="22.5" cy="22.5" r="20" fill="#f5e6c8" stroke="#1a1a1a" stroke-width="2"/><circle cx="22.5" cy="22.5" r="17" fill="none" stroke="#1a1a1a" stroke-width="0.8"/><text x="22.5" y="28" text-anchor="middle" font-size="18" font-family="serif" fill="#1a1a1a">馬</text></symbol>
<symbol id="piece-mce-xiangqi-fairy-bV" viewBox="0 0 45 45"><circle cx="22.5" cy="22.5" r="20" fill="#f5e6c8" stroke="#1a1a1a" stroke-width="2"/><circle cx="22.5" cy="22.5" r="17" fill="none" stroke="#1a1a1a" stroke-width="0.8"/><text x="22.5" y="28" text-anchor="middle" font-size="18" font-family="serif" fill="#1a1a1a">砲</text></symbol>
<symbol id="piece-mce-xiangqi-fairy-bA" viewBox="0 0 45 45"><circle cx="22.5" cy="22.5" r="20" fill="#f5e6c8" stroke="#1a1a1a" stroke-width="2"/><circle cx="22.5" cy="22.5" r="17" fill="none" stroke="#1a1a1a" stroke-width="0.8"/><text x="22.5" y="28" text-anchor="middle" font-size="18" font-family="serif" fill="#1a1a1a">士</text></symbol>
<symbol id="piece-mce-xiangqi-fairy-bK" viewBox="0 0 45 45"><circle cx="22.5" cy="22.5" r="20" fill="#f5e6c8" stroke="#1a1a1a" stroke-width="2"/><circle cx="22.5" cy="22.5" r="17" fill="none" stroke="#1a1a1a" stroke-width="0.8"/><text x="22.5" y="28" text-anchor="middle" font-size="18" font-family="serif" fill="#1a1a1a">將</text></symbol>
<symbol id="piece-mce-xiangqi-fairy-bC" viewBox="0 0 45 45"><circle cx="22.5" cy="22.5" r="20" fill="#f5e6c8" stroke="#1a1a1a" stroke-width="2"/><circle cx="22.5" cy="22.5" r="17" fill="none" stroke="#1a1a1a" stroke-width="0.8"/><text x="22.5" y="28" text-anchor="middle" font-size="18" font-family="serif" fill="#1a1a1a">砲</text></symbol>
<symbol id="piece-mce-xiangqi-fairy-bP" viewBox="0 0 45 45"><circle cx="22.5" cy="22.5" r="20" fill="#f5e6c8" stroke="#1a1a1a" stroke-width="2"/><circle cx="22.5" cy="22.5" r="17" fill="none" stroke="#1a1a1a" stroke-width="0.8"/><text x="22.5" y="28" text-anchor="middle" font-size="18" font-family="serif" fill="#1a1a1a">卒</text></symbol>
<symbol id="piece-mce-xiangqi-fairy-wP" viewBox="0 0 45 45"><circle cx="22.5" cy="22.5" r="20" fill="#f5e6c8" stroke="#c62828" stroke-width="2"/><circle cx="22.5" cy="22.5" r="17" fill="none" stroke="#c62828" stroke-width="0.8"/><text x="22.5" y="28" text-anchor="middle" font-size="18" font-family="serif" fill="#c62828">兵</text></symbol>
<symbol id="piece-mce-xiangqi-fairy-wC" viewBox="0 0 45 45"><circle cx="22.5" cy="22.5" r="20" fill="#f5e6c8" stroke="#c62828" stroke-width="2"/><circle cx="22.5" cy="22.5" r="17" fill="none" stroke="#c62828" stroke-width="0.8"/><text x="22.5" y="28" text-anchor="middle" font-size="18" font-family="serif" fill="#c62828">炮</text></symbol>
<symbol id="piece-mce-xiangqi-fairy-wR" viewBox="0 0 45 45"><circle cx="22.5" cy="22.5" r="20" fill="#f5e6c8" stroke="#c62828" stroke-width="2"/><circle cx="22.5" cy="22.5" r="17" fill="none" stroke="#c62828" stroke-width="0.8"/><text x="22.5" y="28" text-anchor="middle" font-size="18" font-family="serif" fill="#c62828">車</text></symbol>
<symbol id="piece-mce-xiangqi-fairy-wN" viewBox="0 0 45 45"><circle cx="22.5" cy="22.5" r="20" fill="#f5e6c8" stroke="#c62828" stroke-width="2"/><circle cx="22.5" cy="22.5" r="17" fill="none" stroke="#c62828" stroke-width="0.8"/><text x="22.5" y="28" text-anchor="middle" font-size="18" font-family="serif" fill="#c62828">馬</text></symbol>
<symbol id="piece-mce-xiangqi-fairy-wV" viewBox="0 0 45 45"><circle cx="22.5" cy="22.5" r="20" fill="#f5e6c8" stroke="#c62828" stroke-width="2"/><circle cx="22.5" cy="22.5" r="17" fill="none" stroke="#c62828" stroke-width="0.8"/><text x="22.5" y="28" text-anchor="middle" font-size="18" font-family="serif" fill="#c62828">砲</text></symbol>
<symbol id="piece-mce-xiangqi-fairy-wA" viewBox="0 0 45 45"><circle cx="22.5" cy="22.5" r="20" fill="#f5e6c8" stroke="#c62828" stroke-width="2"/><circle cx="22.5" cy="22.5" r="17" fill="none" stroke="#c62828" stroke-width="0.8"/><text x="22.5" y="28" text-anchor="middle" font-size="18" font-family="serif" fill="#c62828">仕</text></symbol>
<symbol id="piece-mce-xiangqi-fairy-wK" viewBox="0 0 45 45"><circle cx="22.5" cy="22.5" r="20" fill="#f5e6c8" stroke="#c62828" stroke-width="2"/><circle cx="22.5" cy="22.5" r="17" fill="none" stroke="#c62828" stroke-width="0.8"/><text x="22.5" y="28" text-anchor="middle" font-size="18" font-family="serif" fill="#c62828">帥</text></symbol>
</defs>

<rect x="0" y="0" width="36" height="36" fill="#f5deb3" data-sq="a10" class="board-cell"/><rect x="36" y="0" width="36" height="36" fill="#f5deb3" data-sq="b10" class="board-cell"/><rect x="72" y="0" width="36" height="36" fill="#f5deb3" data-sq="c10" class="board-cell"/><rect x="108" y="0" width="36" height="36" fill="#f5deb3" data-sq="d10" class="board-cell"/><rect x="144" y="0" width="36" height="36" fill="#f5deb3" data-sq="e10" class="board-cell"/><rect x="180" y="0" width="36" height="36" fill="#f5deb3" data-sq="f10" class="board-cell"/><rect x="216" y="0" width="36" height="36" fill="#f5deb3" data-sq="g10" class="board-cell"/><rect x="252" y="0" width="36" height="36" fill="#f5deb3" data-sq="h10" class="board-cell"/><rect x="288" y="0" width="36" height="36" fill="#f5deb3" data-sq="i10" class="board-cell"/><rect x="0" y="36" width="36" height="36" fill="#f5deb3" data-sq="a9" class="board-cell"/><rect x="36" y="36" width="36" height="36" fill="#f5deb3" data-sq="b9" class="board-cell"/><rect x="72" y="36" width="36" height="36" fill="#f5deb3" data-sq="c9" class="board-cell"/><rect x="108" y="36" width="36" height="36" fill="#f5deb3" data-sq="d9" class="board-cell"/><rect x="144" y="36" width="36" height="36" fill="#f5deb3" data-sq="e9" class="board-cell"/><rect x="180" y="36" width="36" height="36" fill="#f5deb3" data-sq="f9" class="board-cell"/><rect x="216" y="36" width="36" height="36" fill="#f5deb3" data-sq="g9" class="board-cell"/><rect x="252" y="36" width="36" height="36" fill="#f5deb3" data-sq="h9" class="board-cell"/><rect x="288" y="36" width="36" height="36" fill="#f5deb3" data-sq="i9" class="board-cell"/><rect x="0" y="72" width="36" height="36" fill="#f5deb3" data-sq="a8" class="board-cell"/><rect x="36" y="72" width="36" height="36" fill="#f5deb3" data-sq="b8" class="board-cell"/><rect x="72" y="72" width="36" height="36" fill="#f5deb3" data-sq="c8" class="board-cell"/><rect x="108" y="72" width="36" height="36" fill="#f5deb3" data-sq="d8" class="board-cell"/><rect x="144" y="72" width="36" height="36" fill="#f5deb3" data-sq="e8" class="board-cell"/><rect x="180" y="72" width="36" height="36" fill="#f5deb3" data-sq="f8" class="board-cell"/><rect x="216" y="72" width="36" height="36" fill="#f5deb3" data-sq="g8" class="board-cell"/><rect x="252" y="72" width="36" height="36" fill="#f5deb3" data-sq="h8" class="board-cell"/><rect x="288" y="72" width="36" height="36" fill="#f5deb3" data-sq="i8" class="board-cell"/><rect x="0" y="108" width="36" height="36" fill="#f5deb3" data-sq="a7" class="board-cell"/><rect x="36" y="108" width="36" height="36" fill="#f5deb3" data-sq="b7" class="board-cell"/><rect x="72" y="108" width="36" height="36" fill="#f5deb3" data-sq="c7" class="board-cell"/><rect x="108" y="108" width="36" height="36" fill="#f5deb3" data-sq="d7" class="board-cell"/><rect x="144" y="108" width="36" height="36" fill="#f5deb3" data-sq="e7" class="board-cell"/><rect x="180" y="108" width="36" height="36" fill="#f5deb3" data-sq="f7" class="board-cell"/><rect x="216" y="108" width="36" height="36" fill="#f5deb3" data-sq="g7" class="board-cell"/><rect x="252" y="108" width="36" height="36" fill="#f5deb3" data-sq="h7" class="board-cell"/><rect x="288" y="108" width="36" height="36" fill="#f5deb3" data-sq="i7" class="board-cell"/><rect x="0" y="144" width="36" height="36" fill="#f5deb3" data-sq="a6" class="board-cell"/><rect x="36" y="144" width="36" height="36" fill="#f5deb3" data-sq="b6" class="board-cell"/><rect x="72" y="144" width="36" height="36" fill="#f5deb3" data-sq="c6" class="board-cell"/><rect x="108" y="144" width="36" height="36" fill="#f5deb3" data-sq="d6" class="board-cell"/><rect x="144" y="144" width="36" height="36" fill="#f5deb3" data-sq="e6" class="board-cell"/><rect x="180" y="144" width="36" height="36" fill="#f5deb3" data-sq="f6" class="board-cell"/><rect x="216" y="144" width="36" height="36" fill="#f5deb3" data-sq="g6" class="board-cell"/><rect x="252" y="144" width="36" height="36" fill="#f5deb3" data-sq="h6" class="board-cell"/><rect x="288" y="144" width="36" height="36" fill="#f5deb3" data-sq="i6" class="board-cell"/><rect x="0" y="180" width="36" height="36" fill="#f5deb3" data-sq="a5" class="board-cell"/><rect x="36" y="180" width="36" height="36" fill="#f5deb3" data-sq="b5" class="board-cell"/><rect x="72" y="180" width="36" height="36" fill="#f5deb3" data-sq="c5" class="board-cell"/><rect x="108" y="180" width="36" height="36" fill="#f5deb3" data-sq="d5" class="board-cell"/><rect x="144" y="180" width="36" height="36" fill="#f5deb3" data-sq="e5" class="board-cell"/><rect x="180" y="180" width="36" height="36" fill="#f5deb3" data-sq="f5" class="board-cell"/><rect x="216" y="180" width="36" height="36" fill="#f5deb3" data-sq="g5" class="board-cell"/><rect x="252" y="180" width="36" height="36" fill="#f5deb3" data-sq="h5" class="board-cell"/><rect x="288" y="180" width="36" height="36" fill="#f5deb3" data-sq="i5" class="board-cell"/><rect x="0" y="216" width="36" height="36" fill="#f5deb3" data-sq="a4" class="board-cell"/><rect x="36" y="216" width="36" height="36" fill="#f5deb3" data-sq="b4" class="board-cell"/><rect x="72" y="216" width="36" height="36" fill="#f5deb3" data-sq="c4" class="board-cell"/><rect x="108" y="216" width="36" height="36" fill="#f5deb3" data-sq="d4" class="board-cell"/><rect x="144" y="216" width="36" height="36" fill="#f5deb3" data-sq="e4" class="board-cell"/><rect x="180" y="216" width="36" height="36" fill="#f5deb3" data-sq="f4" class="board-cell"/><rect x="216" y="216" width="36" height="36" fill="#f5deb3" data-sq="g4" class="board-cell"/><rect x="252" y="216" width="36" height="36" fill="#f5deb3" data-sq="h4" class="board-cell"/><rect x="288" y="216" width="36" height="36" fill="#f5deb3" data-sq="i4" class="board-cell"/><rect x="0" y="252" width="36" height="36" fill="#f5deb3" data-sq="a3" class="board-cell"/><rect x="36" y="252" width="36" height="36" fill="#f5deb3" data-sq="b3" class="board-cell"/><rect x="72" y="252" width="36" height="36" fill="#f5deb3" data-sq="c3" class="board-cell"/><rect x="108" y="252" width="36" height="36" fill="#f5deb3" data-sq="d3" class="board-cell"/><rect x="144" y="252" width="36" height="36" fill="#f5deb3" data-sq="e3" class="board-cell"/><rect x="180" y="252" width="36" height="36" fill="#f5deb3" data-sq="f3" class="board-cell"/><rect x="216" y="252" width="36" height="36" fill="#f5deb3" data-sq="g3" class="board-cell"/><rect x="252" y="252" width="36" height="36" fill="#f5deb3" data-sq="h3" class="board-cell"/><rect x="288" y="252" width="36" height="36" fill="#f5deb3" data-sq="i3" class="board-cell"/><rect x="0" y="288" width="36" height="36" fill="#f5deb3" data-sq="a2" class="board-cell"/><rect x="36" y="288" width="36" height="36" fill="#f5deb3" data-sq="b2" class="board-cell"/><rect x="72" y="288" width="36" height="36" fill="#f5deb3" data-sq="c2" class="board-cell"/><rect x="108" y="288" width="36" height="36" fill="#f5deb3" data-sq="d2" class="board-cell"/><rect x="144" y="288" width="36" height="36" fill="#f5deb3" data-sq="e2" class="board-cell"/><rect x="180" y="288" width="36" height="36" fill="#f5deb3" data-sq="f2" class="board-cell"/><rect x="216" y="288" width="36" height="36" fill="#f5deb3" data-sq="g2" class="board-cell"/><rect x="252" y="288" width="36" height="36" fill="#f5deb3" data-sq="h2" class="board-cell"/><rect x="288" y="288" width="36" height="36" fill="#f5deb3" data-sq="i2" class="board-cell"/><rect x="0" y="324" width="36" height="36" fill="#f5deb3" data-sq="a1" class="board-cell"/><rect x="36" y="324" width="36" height="36" fill="#f5deb3" data-sq="b1" class="board-cell"/><rect x="72" y="324" width="36" height="36" fill="#f5deb3" data-sq="c1" class="board-cell"/><rect x="108" y="324" width="36" height="36" fill="#f5deb3" data-sq="d1" class="board-cell"/><rect x="144" y="324" width="36" height="36" fill="#f5deb3" data-sq="e1" class="board-cell"/><rect x="180" y="324" width="36" height="36" fill="#f5deb3" data-sq="f1" class="board-cell"/><rect x="216" y="324" width="36" height="36" fill="#f5deb3" data-sq="g1" class="board-cell"/><rect x="252" y="324" width="36" height="36" fill="#f5deb3" data-sq="h1" class="board-cell"/><rect x="288" y="324" width="36" height="36" fill="#f5deb3" data-sq="i1" class="board-cell"/><line x1="18" y1="18" x2="306" y2="18" stroke="#4a3520" stroke-width="2"/><line x1="18" y1="54" x2="306" y2="54" stroke="#4a3520" stroke-width="2"/><line x1="18" y1="90" x2="306" y2="90" stroke="#4a3520" stroke-width="2"/><line x1="18" y1="126" x2="306" y2="126" stroke="#4a3520" stroke-width="2"/><line x1="18" y1="162" x2="306" y2="162" stroke="#4a3520" stroke-width="2"/><line x1="18" y1="198" x2="306" y2="198" stroke="#4a3520" stroke-width="2"/><line x1="18" y1="234" x2="306" y2="234" stroke="#4a3520" stroke-width="2"/><line x1="18" y1="270" x2="306" y2="270" stroke="#4a3520" stroke-width="2"/><line x1="18" y1="306" x2="306" y2="306" stroke="#4a3520" stroke-width="2"/><line x1="18" y1="342" x2="306" y2="342" stroke="#4a3520" stroke-width="2"/><line x1="18" y1="18" x2="18" y2="342" stroke="#4a3520" stroke-width="2"/><line x1="54" y1="18" x2="54" y2="162" stroke="#4a3520" stroke-width="2"/><line x1="54" y1="198" x2="54" y2="342" stroke="#4a3520" stroke-width="2"/><line x1="90" y1="18" x2="90" y2="162" stroke="#4a3520" stroke-width="2"/><line x1="90" y1="198" x2="90" y2="342" stroke="#4a3520" stroke-width="2"/><line x1="126" y1="18" x2="126" y2="162" stroke="#4a3520" stroke-width="2"/><line x1="126" y1="198" x2="126" y2="342" stroke="#4a3520" stroke-width="2"/><line x1="162" y1="18" x2="162" y2="162" stroke="#4a3520" stroke-width="2"/><line x1="162" y1="198" x2="162" y2="342" stroke="#4a3520" stroke-width="2"/><line x1="198" y1="18" x2="198" y2="162" stroke="#4a3520" stroke-width="2"/><line x1="198" y1="198" x2="198" y2="342" stroke="#4a3520" stroke-width="2"/><line x1="234" y1="18" x2="234" y2="162" stroke="#4a3520" stroke-width="2"/><line x1="234" y1="198" x2="234" y2="342" stroke="#4a3520" stroke-width="2"/><line x1="270" y1="18" x2="270" y2="162" stroke="#4a3520" stroke-width="2"/><line x1="270" y1="198" x2="270" y2="342" stroke="#4a3520" stroke-width="2"/><line x1="306" y1="18" x2="306" y2="342" stroke="#4a3520" stroke-width="2"/>
<g pointer-events="none"><use href="#piece-mce-xiangqi-fairy-bR" x="0" y="0" width="36" height="36"/><use href="#piece-mce-xiangqi-fairy-bN" x="36" y="0" width="36" height="36"/><use href="#piece-mce-xiangqi-fairy-bV" x="72" y="0" width="36" height="36"/><use href="#piece-mce-xiangqi-fairy-bA" x="108" y="0" width="36" height="36"/><use href="#piece-mce-xiangqi-fairy-bK" x="144" y="0" width="36" height="36"/><use href="#piece-mce-xiangqi-fairy-bA" x="180" y="0" width="36" height="36"/><use href="#piece-mce-xiangqi-fairy-bV" x="216" y="0" width="36" height="36"/><use href="#piece-mce-xiangqi-fairy-bN" x="252" y="0" width="36" height="36"/><use href="#piece-mce-xiangqi-fairy-bR" x="288" y="0" width="36" height="36"/><use href="#piece-mce-xiangqi-fairy-bC" x="36" y="36" width="36" height="36"/><use href="#piece-mce-xiangqi-fairy-bC" x="252" y="36" width="36" height="36"/><use href="#piece-mce-xiangqi-fairy-bP" x="0" y="72" width="36" height="36"/><use href="#piece-mce-xiangqi-fairy-bP" x="72" y="72" width="36" height="36"/><use href="#piece-mce-xiangqi-fairy-bP" x="144" y="72" width="36" height="36"/><use href="#piece-mce-xiangqi-fairy-bP" x="216" y="72" width="36" height="36"/><use href="#piece-mce-xiangqi-fairy-bP" x="288" y="72" width="36" height="36"/><use href="#piece-mce-xiangqi-fairy-bP" x="36" y="108" width="36" height="36"/><use href="#piece-mce-xiangqi-fairy-bP" x="108" y="108" width="36" height="36"/><use href="#piece-mce-xiangqi-fairy-bP" x="180" y="108" width="36" height="36"/><use href="#piece-mce-xiangqi-fairy-bP" x="252" y="108" width="36" height="36"/><use href="#piece-mce-xiangqi-fairy-wP" x="36" y="216" width="36" height="36"/><use href="#piece-mce-xiangqi-fairy-wP" x="108" y="216" width="36" height="36"/><use href="#piece-mce-xiangqi-fairy-wP" x="180" y="216" width="36" height="36"/><use href="#piece-mce-xiangqi-fairy-wP" x="252" y="216" width="36" height="36"/><use href="#piece-mce-xiangqi-fairy-wP" x="0" y="252" width="36" height="36"/><use href="#piece-mce-xiangqi-fairy-wP" x="72" y="252" width="36" height="36"/><use href="#piece-mce-xiangqi-fairy-wP" x="144" y="252" width="36" height="36"/><use href="#piece-mce-xiangqi-fairy-wP" x="216" y="252" width="36" height="36"/><use href="#piece-mce-xiangqi-fairy-wP" x="288" y="252" width="36" height="36"/><use href="#piece-mce-xiangqi-fairy-wC" x="36" y="288" width="36" height="36"/><use href="#piece-mce-xiangqi-fairy-wC" x="252" y="288" width="36" height="36"/><use href="#piece-mce-xiangqi-fairy-wR" x="0" y="324" width="36" height="36"/><use href="#piece-mce-xiangqi-fairy-wN" x="36" y="324" width="36" height="36"/><use href="#piece-mce-xiangqi-fairy-wV" x="72" y="324" width="36" height="36"/><use href="#piece-mce-xiangqi-fairy-wA" x="108" y="324" width="36" height="36"/><use href="#piece-mce-xiangqi-fairy-wK" x="144" y="324" width="36" height="36"/><use href="#piece-mce-xiangqi-fairy-wA" x="180" y="324" width="36" height="36"/><use href="#piece-mce-xiangqi-fairy-wV" x="216" y="324" width="36" height="36"/><use href="#piece-mce-xiangqi-fairy-wN" x="252" y="324" width="36" height="36"/><use href="#piece-mce-xiangqi-fairy-wR" x="288" y="324" width="36" height="36"/></g>
</svg>