<?xml version="1.0" encoding="UTF-8" standalone="no"?>
<!-- Created with Inkscape (http://www.inkscape.org/) -->

<svg
   width="49.999996mm"
   height="50mm"
   viewBox="0 0 49.999996 50"
   version="1.1"
   id="svg1"
   xmlns="http://www.w3.org/2000/svg"
   xmlns:svg="http://www.w3.org/2000/svg"
   xmlns:rdf="http://www.w3.org/1999/02/22-rdf-syntax-ns#"
   xmlns:cc="http://creativecommons.org/ns#"
   xmlns:dc="http://purl.org/dc/elements/1.1/">
  <title
     id="title1">Tile front 3 Crown Piecepack</title>
  <defs
     id="defs1" />
  <g
     id="layer1"
     transform="translate(-80.168752,-123.56041)">
    <rect
       style="fill:#ffffff;fill-opacity:1;stroke:#000000;stroke-width:0.999608;stroke-linecap:round;stroke-linejoin:round;stroke-miterlimit:10;stroke-dasharray:none"
       id="rect1924-94"
       width="49.000389"
       height="49.000393"
       x="80.668556"
       y="124.06022" />
    <path
       d="m 86.793628,127.46639 -0.62826,0.72068 v 1.4733 l -0.35644,0.49137 -0.55229,-0.47158 v -1.40596 l -0.76223,-0.77282 -0.55634,0.97787 0.1702,1.41029 -0.24938,0.39505 -0.68235,-0.38989 -0.17871,-1.31439 -1.24426,-0.70591 0.64974,2.70014 c 0,0 -0.202,0.0767 -0.17802,0.28493 0.024,0.20822 0.28911,0.24366 0.28911,0.24366 l 0.2144,0.78105 c 0,0 -0.10353,0.0678 -0.0767,0.30835 0.0269,0.24057 0.23001,0.28144 0.23001,0.28144 0,0 0.88385,0.43019 3.91149,0.43018 3.02765,0 3.91136,-0.43018 3.91136,-0.43018 0,0 0.20314,-0.0409 0.23001,-0.28144 0.0269,-0.24058 -0.0767,-0.30835 -0.0767,-0.30835 l 0.21439,-0.78105 c 0,0 0.26513,-0.0355 0.28912,-0.24366 0.024,-0.20822 -0.17801,-0.28493 -0.17801,-0.28493 l 0.64987,-2.70014 -1.24441,0.70591 -0.1787,1.31439 -0.68236,0.38989 -0.24938,-0.39505 0.17021,-1.41029 -0.55634,-0.97787 -0.76223,0.77282 v 1.40596 l -0.55229,0.47158 -0.35644,-0.49137 v -1.4733 z"
       style="fill:#fcc602;fill-opacity:1;stroke-width:0.0713715px"
       id="path10-1-7" />
    <text
       xml:space="preserve"
       style="font-size:31.75px;line-height:1.25;font-family:Escolar4;-inkscape-font-specification:Escolar4;fill:#fcc602;fill-opacity:1;stroke-width:0.264583"
       x="95.1306"
       y="160.11786"
       id="text41806-3-2-2"><tspan
         id="tspan41804-6-7-7"
         style="font-style:normal;font-variant:normal;font-weight:normal;font-stretch:normal;font-size:31.75px;font-family:sans-serif;-inkscape-font-specification:sans-serif;fill:#fcc602;fill-opacity:1;stroke-width:0.264583"
         x="95.1306"
         y="160.11786">3</tspan></text>
  </g>
  <metadata
     id="metadata1">
    <rdf:RDF>
      <cc:Work
         rdf:about="">
        <dc:title>Tile front 3 Crown Piecepack</dc:title>
        <dc:date>2024/03</dc:date>
        <dc:creator>
          <cc:Agent>
            <dc:title>Miguel de Dios Matias</dc:title>
          </cc:Agent>
        </dc:creator>
        <dc:rights>
          <cc:Agent>
            <dc:title>CC0</dc:title>
          </cc:Agent>
        </dc:rights>
        <dc:subject>
          <rdf:Bag>
            <rdf:li>piecepack</rdf:li>
          </rdf:Bag>
        </dc:subject>
        <cc:license
           rdf:resource="http://creativecommons.org/publicdomain/zero/1.0/" />
      </cc:Work>
      <cc:License
         rdf:about="http://creativecommons.org/publicdomain/zero/1.0/">
        <cc:permits
           rdf:resource="http://creativecommons.org/ns#Reproduction" />
        <cc:permits
           rdf:resource="http://creativecommons.org/ns#Distribution" />
        <cc:permits
           rdf:resource="http://creativecommons.org/ns#DerivativeWorks" />
      </cc:License>
    </rdf:RDF>
  </metadata>
</svg>
