<?xml version="1.0" encoding="UTF-8" standalone="no"?>
<!-- Created with Inkscape (http://www.inkscape.org/) -->

<svg
   width="49.999996mm"
   height="50mm"
   viewBox="0 0 49.999996 50"
   version="1.1"
   id="svg1"
   xmlns="http://www.w3.org/2000/svg"
   xmlns:svg="http://www.w3.org/2000/svg"
   xmlns:rdf="http://www.w3.org/1999/02/22-rdf-syntax-ns#"
   xmlns:cc="http://creativecommons.org/ns#"
   xmlns:dc="http://purl.org/dc/elements/1.1/">
  <title
     id="title1">Tile front 3 Arm Piecepack</title>
  <defs
     id="defs1" />
  <g
     id="layer1"
     transform="translate(-76.993749,-78.316663)">
    <rect
       style="fill:#ffffff;fill-opacity:1;stroke:#000000;stroke-width:0.999608;stroke-linecap:round;stroke-linejoin:round;stroke-miterlimit:10;stroke-dasharray:none"
       id="rect1924-94"
       width="49.000389"
       height="49.000393"
       x="77.493553"
       y="78.816467" />
    <text
       xml:space="preserve"
       style="font-size:31.75px;line-height:1.25;font-family:Escolar4;-inkscape-font-specification:Escolar4;fill:#0423c0;fill-opacity:1;stroke-width:0.264583"
       x="91.955605"
       y="114.87411"
       id="text41806-3-2-2"><tspan
         id="tspan41804-6-7-7"
         style="font-style:normal;font-variant:normal;font-weight:normal;font-stretch:normal;font-size:31.75px;font-family:sans-serif;-inkscape-font-specification:sans-serif;fill:#0423c0;fill-opacity:1;stroke-width:0.264583"
         x="91.955605"
         y="114.87411">3</tspan></text>
    <path
       id="path1-5-60-23"
       style="fill:#0423c0;fill-opacity:1;stroke-width:0.248838"
       d="m 83.618306,80.409428 -0.17283,0.384234 c -0.0951,0.21135 -0.29574,0.53666 -0.44582,0.7228 -0.42405,0.52593 -0.43056,0.76825 -0.071,2.642675 0.26786,1.39632 0.33051,2.55719 0.32996,2.85871 h -0.21069 c -0.0135,-0.38105 -0.0211,-0.55383 -0.11412,-1.17455 -0.24975,-1.66579 -1.2415,-2.3332 -2.20044,-1.88669 -0.72485,0.33751 -0.8755,1.35676 -0.28225,1.90945 0.25563,0.23817 0.33999,0.23227 0.33999,-0.0237 0,-0.35948 0.31924,-0.67022 0.6886,-0.67022 0.0192,0 1.22053,0.008 1.33763,1.84566 h -0.62023 v 0.35131 h 1.0614 c -0.0436,1.15004 -0.82815,0.75905 -0.97511,0.61209 -0.17557,-0.17557 -0.17553,-0.17554 -0.17553,0.0742 0,0.35198 0.28652,0.58294 0.70956,0.57184 0.32388,-0.008 0.34385,0.006 0.34385,0.24881 0,0.14183 0.0408,0.33432 0.0908,0.42771 0.0627,0.11719 0.15878,0.16987 0.3666,0.16987 z m 5.8e-4,0 0.17283,0.384234 c 0.0951,0.21135 0.29574,0.53666 0.44583,0.7228 0.42404,0.52593 0.43055,0.76825 0.071,2.642675 -0.26786,1.39632 -0.3305,2.55719 -0.32996,2.85871 h 0.2107 c 0.0135,-0.38105 0.0211,-0.55383 0.11411,-1.17455 0.24976,-1.66579 1.2415,-2.3332 2.20045,-1.88669 0.72484,0.33751 0.87549,1.35676 0.28225,1.90945 -0.25564,0.23817 -0.33999,0.23227 -0.33999,-0.0237 0,-0.35948 -0.31925,-0.67022 -0.6886,-0.67022 -0.0192,0 -1.22053,0.008 -1.33763,1.84566 h 0.62022 v 0.35131 h -1.0614 c 0.0436,1.15004 0.82816,0.75905 0.97512,0.61209 0.17557,-0.17557 0.17552,-0.17554 0.17552,0.0742 0,0.35198 -0.28651,0.58294 -0.70956,0.57184 -0.32387,-0.008 -0.34385,0.006 -0.34385,0.24881 0,0.14183 -0.0409,0.33432 -0.0908,0.42771 -0.0627,0.11719 -0.15879,0.16987 -0.3666,0.16987 z" />
  </g>
  <metadata
     id="metadata1">
    <rdf:RDF>
      <cc:Work
         rdf:about="">
        <dc:title>Tile front 3 Arm Piecepack</dc:title>
        <dc:date>2024/03</dc:date>
        <dc:creator>
          <cc:Agent>
            <dc:title>Miguel de Dios Matias</dc:title>
          </cc:Agent>
        </dc:creator>
        <dc:rights>
          <cc:Agent>
            <dc:title>CC0</dc:title>
          </cc:Agent>
        </dc:rights>
        <dc:subject>
          <rdf:Bag>
            <rdf:li>piecepack</rdf:li>
          </rdf:Bag>
        </dc:subject>
        <cc:license
           rdf:resource="http://creativecommons.org/publicdomain/zero/1.0/" />
      </cc:Work>
      <cc:License
         rdf:about="http://creativecommons.org/publicdomain/zero/1.0/">
        <cc:permits
           rdf:resource="http://creativecommons.org/ns#Reproduction" />
        <cc:permits
           rdf:resource="http://creativecommons.org/ns#Distribution" />
        <cc:permits
           rdf:resource="http://creativecommons.org/ns#DerivativeWorks" />
      </cc:License>
    </rdf:RDF>
  </metadata>
</svg>
