<svg xmlns="http://www.w3.org/2000/svg" viewBox="0 0 400 400" width="400" height="400" aria-label="Halma 16x16 board with corner camp areas marked">
  <defs>
    <pattern id="checker" x="0" y="0" width="50" height="50" patternUnits="userSpaceOnUse">
      <rect width="25" height="25" fill="#fdf8f0"/>
      <rect x="25" width="25" height="25" fill="#c9a46e"/>
      <rect y="25" width="25" height="25" fill="#c9a46e"/>
      <rect x="25" y="25" width="25" height="25" fill="#fdf8f0"/>
    </pattern>
  </defs>
  <rect width="400" height="400" fill="url(#checker)"/>
  <g stroke="#3b1f0e" stroke-width="0.4" opacity="0.3">
    <line x1="25" y1="0" x2="25" y2="400"/>
    <line x1="50" y1="0" x2="50" y2="400"/>
    <line x1="75" y1="0" x2="75" y2="400"/>
    <line x1="100" y1="0" x2="100" y2="400"/>
    <line x1="125" y1="0" x2="125" y2="400"/>
    <line x1="150" y1="0" x2="150" y2="400"/>
    <line x1="175" y1="0" x2="175" y2="400"/>
    <line x1="200" y1="0" x2="200" y2="400"/>
    <line x1="225" y1="0" x2="225" y2="400"/>
    <line x1="250" y1="0" x2="250" y2="400"/>
    <line x1="275" y1="0" x2="275" y2="400"/>
    <line x1="300" y1="0" x2="300" y2="400"/>
    <line x1="325" y1="0" x2="325" y2="400"/>
    <line x1="350" y1="0" x2="350" y2="400"/>
    <line x1="375" y1="0" x2="375" y2="400"/>
    <line x1="0" y1="25" x2="400" y2="25"/>
    <line x1="0" y1="50" x2="400" y2="50"/>
    <line x1="0" y1="75" x2="400" y2="75"/>
    <line x1="0" y1="100" x2="400" y2="100"/>
    <line x1="0" y1="125" x2="400" y2="125"/>
    <line x1="0" y1="150" x2="400" y2="150"/>
    <line x1="0" y1="175" x2="400" y2="175"/>
    <line x1="0" y1="200" x2="400" y2="200"/>
    <line x1="0" y1="225" x2="400" y2="225"/>
    <line x1="0" y1="250" x2="400" y2="250"/>
    <line x1="0" y1="275" x2="400" y2="275"/>
    <line x1="0" y1="300" x2="400" y2="300"/>
    <line x1="0" y1="325" x2="400" y2="325"/>
    <line x1="0" y1="350" x2="400" y2="350"/>
    <line x1="0" y1="375" x2="400" y2="375"/>
  </g>
  <polygon points="275,325 325,325 325,300 375,300 375,275 400,275 400,400 275,400" fill="#8b5e3c" opacity="0.28"/>
  <polygon points="0,0 125,0 125,75 75,75 75,100 25,100 25,125 0,125" fill="#8b5e3c" opacity="0.18"/>
  <rect width="400" height="400" fill="none" stroke="#3b1f0e" stroke-width="2"/>
  <circle cx="387.5" cy="387.5" r="9" fill="#8b5e3c" stroke="#3b1f0e" stroke-width="1.5"/>
  <circle cx="362.5" cy="387.5" r="9" fill="#8b5e3c" stroke="#3b1f0e" stroke-width="1.5"/>
  <circle cx="337.5" cy="387.5" r="9" fill="#8b5e3c" stroke="#3b1f0e" stroke-width="1.5"/>
  <circle cx="387.5" cy="362.5" r="9" fill="#8b5e3c" stroke="#3b1f0e" stroke-width="1.5"/>
  <circle cx="12.5" cy="12.5" r="9" fill="#fdf8f0" stroke="#3b1f0e" stroke-width="1.5"/>
  <circle cx="37.5" cy="12.5" r="9" fill="#fdf8f0" stroke="#3b1f0e" stroke-width="1.5"/>
  <circle cx="62.5" cy="12.5" r="9" fill="#fdf8f0" stroke="#3b1f0e" stroke-width="1.5"/>
  <circle cx="12.5" cy="37.5" r="9" fill="#fdf8f0" stroke="#3b1f0e" stroke-width="1.5"/>
  <text x="340" y="320" font-family="sans-serif" font-size="11" fill="#3b1f0e" font-weight="600" opacity="0.65">Camp P1</text>
  <text x="4" y="140" font-family="sans-serif" font-size="11" fill="#3b1f0e" font-weight="600" opacity="0.65">Camp P2</text>
</svg>
