<?xml version="1.0" encoding="UTF-8"?><svg xmlns="http://www.w3.org/2000/svg" xmlns:xlink="http://www.w3.org/1999/xlink" width="198pt" height="198pt" viewBox="0 0 198 198" version="1.1"><symbol overflow="visible" id="1"><path style="stroke:none;" d="M 75 -115.046875 C 79.695313 -115.046875 83.867188 -114.84375 87.515625 -114.4375 C 91.171875 -114.039063 94.347656 -113.445313 97.046875 -112.65625 C 102.453125 -111.15625 105.15625 -109.050781 105.15625 -106.34375 L 104.703125 -74.09375 L 118.5 -32.25 C 118.800781 -32.351563 119.175781 -32.425781 119.625 -32.46875 C 120.070313 -32.519531 120.597656 -32.546875 121.203125 -32.546875 C 124.097656 -32.546875 126.492188 -31.570313 128.390625 -29.625 C 130.296875 -27.675781 131.25 -25.148438 131.25 -22.046875 C 131.25 -19.242188 130.25 -16.894531 128.25 -15 C 126.25 -13.101563 123.847656 -12.15625 121.046875 -12.15625 C 118.148438 -12.15625 115.722656 -13.128906 113.765625 -15.078125 C 111.816406 -17.023438 110.84375 -19.445313 110.84375 -22.34375 C 110.84375 -24.050781 111.269531 -25.703125 112.125 -27.296875 C 112.976563 -28.898438 114.050781 -30.101563 115.34375 -30.90625 L 95.703125 -64.046875 L 100.046875 -20.25 L 100.34375 -20.25 C 102.945313 -20.25 105.273438 -19.273438 107.328125 -17.328125 C 109.378906 -15.378906 110.40625 -12.953125 110.40625 -10.046875 C 110.40625 -7.242188 109.453125 -4.816406 107.546875 -2.765625 C 105.648438 -0.722656 103.25 0.296875 100.34375 0.296875 C 97.550781 0.296875 95.128906 -0.675781 93.078125 -2.625 C 91.023438 -4.570313 90 -7 90 -9.90625 C 90 -12.101563 90.570313 -14.078125 91.71875 -15.828125 C 92.875 -17.578125 94.5 -18.800781 96.59375 -19.5 L 82.5 -62.25 L 76.796875 -15.15625 C 79.097656 -14.75 81.070313 -13.617188 82.71875 -11.765625 C 84.375 -9.921875 85.203125 -7.695313 85.203125 -5.09375 C 85.203125 -2.300781 84.222656 0.09375 82.265625 2.09375 C 80.316406 4.09375 77.894531 5.09375 75 5.09375 C 72.195313 5.09375 69.796875 4.117188 67.796875 2.171875 C 65.796875 0.222656 64.796875 -2.195313 64.796875 -5.09375 C 64.796875 -7.695313 65.617188 -9.921875 67.265625 -11.765625 C 68.921875 -13.617188 70.898438 -14.75 73.203125 -15.15625 L 67.5 -62.25 L 53.40625 -19.5 C 55.5 -18.800781 57.117188 -17.578125 58.265625 -15.828125 C 59.421875 -14.078125 60 -12.101563 60 -9.90625 C 60 -7 58.972656 -4.570313 56.921875 -2.625 C 54.867188 -0.675781 52.445313 0.296875 49.65625 0.296875 C 46.851563 0.296875 44.472656 -0.722656 42.515625 -2.765625 C 40.566406 -4.816406 39.59375 -7.242188 39.59375 -10.046875 C 39.59375 -12.847656 40.617188 -15.25 42.671875 -17.25 C 44.722656 -19.25 47.050781 -20.25 49.65625 -20.25 L 49.953125 -20.25 L 54.296875 -64.046875 L 34.65625 -30.90625 C 36.050781 -30.101563 37.148438 -28.898438 37.953125 -27.296875 C 38.753906 -25.703125 39.15625 -24.050781 39.15625 -22.34375 C 39.15625 -19.445313 38.175781 -17.023438 36.21875 -15.078125 C 34.269531 -13.128906 31.847656 -12.15625 28.953125 -12.15625 C 26.148438 -12.15625 23.75 -13.101563 21.75 -15 C 19.75 -16.894531 18.75 -19.242188 18.75 -22.046875 C 18.75 -25.242188 19.722656 -27.789063 21.671875 -29.6875 C 23.617188 -31.59375 25.992188 -32.546875 28.796875 -32.546875 C 29.398438 -32.546875 29.925781 -32.519531 30.375 -32.46875 C 30.820313 -32.425781 31.195313 -32.351563 31.5 -32.25 L 45.296875 -74.09375 L 44.84375 -106.34375 C 44.84375 -109.144531 47.546875 -111.296875 52.953125 -112.796875 C 58.347656 -114.296875 65.695313 -115.046875 75 -115.046875 Z M 100.203125 -101.546875 C 97.503906 -100.648438 93.851563 -99.972656 89.25 -99.515625 C 84.644531 -99.066406 79.894531 -98.84375 75 -98.84375 C 70.195313 -98.84375 65.421875 -99.066406 60.671875 -99.515625 C 55.921875 -99.972656 52.25 -100.648438 49.65625 -101.546875 L 49.65625 -99.15625 C 50.851563 -98.65625 52.898438 -98.175781 55.796875 -97.71875 C 58.703125 -97.269531 61.90625 -96.894531 65.40625 -96.59375 C 68.90625 -96.300781 72.101563 -96.15625 75 -96.15625 C 77.800781 -96.15625 80.925781 -96.300781 84.375 -96.59375 C 87.820313 -96.894531 91.019531 -97.269531 93.96875 -97.71875 C 96.925781 -98.175781 99.003906 -98.65625 100.203125 -99.15625 Z M 100.046875 -92.84375 C 93.742188 -90.84375 85.394531 -89.84375 75 -89.84375 C 70.800781 -89.84375 66.347656 -90.09375 61.640625 -90.59375 C 56.941406 -91.09375 52.992188 -91.84375 49.796875 -92.84375 L 49.796875 -90.15625 C 50.992188 -89.75 53.039063 -89.296875 55.9375 -88.796875 C 58.84375 -88.296875 62.046875 -87.894531 65.546875 -87.59375 C 69.046875 -87.300781 72.195313 -87.15625 75 -87.15625 C 77.800781 -87.15625 80.898438 -87.300781 84.296875 -87.59375 C 87.703125 -87.894531 90.878906 -88.269531 93.828125 -88.71875 C 96.773438 -89.175781 98.847656 -89.65625 100.046875 -90.15625 Z M 99.90625 -83.84375 C 93.601563 -81.84375 85.300781 -80.84375 75 -80.84375 C 70.695313 -80.84375 66.21875 -81.09375 61.5625 -81.59375 C 56.914063 -82.09375 53.046875 -82.84375 49.953125 -83.84375 L 49.953125 -81.15625 C 51.148438 -80.65625 53.222656 -80.175781 56.171875 -79.71875 C 59.117188 -79.269531 62.316406 -78.894531 65.765625 -78.59375 C 69.222656 -78.300781 72.300781 -78.15625 75 -78.15625 C 77.894531 -78.15625 81.039063 -78.300781 84.4375 -78.59375 C 87.84375 -78.894531 90.992188 -79.296875 93.890625 -79.796875 C 96.796875 -80.296875 98.800781 -80.75 99.90625 -81.15625 Z M 123.75 -24.75 C 122.75 -24.75 121.875 -24.398438 121.125 -23.703125 C 120.375 -23.003906 120 -22.101563 120 -21 C 120 -20 120.375 -19.125 121.125 -18.375 C 121.875 -17.625 122.75 -17.25 123.75 -17.25 C 124.851563 -17.25 125.753906 -17.625 126.453125 -18.375 C 127.148438 -19.125 127.5 -20 127.5 -21 C 127.5 -22.101563 127.148438 -23.003906 126.453125 -23.703125 C 125.753906 -24.398438 124.851563 -24.75 123.75 -24.75 Z M 31.65625 -24.75 C 30.65625 -24.75 29.78125 -24.398438 29.03125 -23.703125 C 28.28125 -23.003906 27.90625 -22.101563 27.90625 -21 C 27.90625 -20 28.28125 -19.125 29.03125 -18.375 C 29.78125 -17.625 30.65625 -17.25 31.65625 -17.25 C 32.75 -17.25 33.644531 -17.625 34.34375 -18.375 C 35.050781 -19.125 35.40625 -20 35.40625 -21 C 35.40625 -22.101563 35.050781 -23.003906 34.34375 -23.703125 C 33.644531 -24.398438 32.75 -24.75 31.65625 -24.75 Z M 102.75 -12.59375 C 101.75 -12.59375 100.875 -12.242188 100.125 -11.546875 C 99.375 -10.847656 99 -9.945313 99 -8.84375 C 99 -7.84375 99.375 -6.96875 100.125 -6.21875 C 100.875 -5.46875 101.75 -5.09375 102.75 -5.09375 C 103.851563 -5.09375 104.753906 -5.46875 105.453125 -6.21875 C 106.148438 -6.96875 106.5 -7.84375 106.5 -8.84375 C 106.5 -9.945313 106.148438 -10.847656 105.453125 -11.546875 C 104.753906 -12.242188 103.851563 -12.59375 102.75 -12.59375 Z M 52.5 -12.59375 C 51.5 -12.59375 50.625 -12.242188 49.875 -11.546875 C 49.125 -10.847656 48.75 -9.945313 48.75 -8.84375 C 48.75 -7.84375 49.125 -6.96875 49.875 -6.21875 C 50.625 -5.46875 51.5 -5.09375 52.5 -5.09375 C 53.601563 -5.09375 54.503906 -5.46875 55.203125 -6.21875 C 55.898438 -6.96875 56.25 -7.84375 56.25 -8.84375 C 56.25 -9.945313 55.898438 -10.847656 55.203125 -11.546875 C 54.503906 -12.242188 53.601563 -12.59375 52.5 -12.59375 Z M 77.703125 -7.796875 C 76.703125 -7.796875 75.828125 -7.445313 75.078125 -6.75 C 74.328125 -6.050781 73.953125 -5.148438 73.953125 -4.046875 C 73.953125 -3.046875 74.328125 -2.171875 75.078125 -1.421875 C 75.828125 -0.671875 76.703125 -0.296875 77.703125 -0.296875 C 78.796875 -0.296875 79.691406 -0.671875 80.390625 -1.421875 C 81.097656 -2.171875 81.453125 -3.046875 81.453125 -4.046875 C 81.453125 -5.148438 81.097656 -6.050781 80.390625 -6.75 C 79.691406 -7.445313 78.796875 -7.796875 77.703125 -7.796875 Z M 77.703125 -7.796875"/></symbol><g style="fill:rgb(0%,0%,0%);fill-opacity:1;"><use xlink:href="#1" x="24.000001" y="153.499379"/></g></svg>