<?xml version="1.0" encoding="UTF-8"?><svg xmlns="http://www.w3.org/2000/svg" xmlns:xlink="http://www.w3.org/1999/xlink" width="198pt" height="198pt" viewBox="0 0 198 198" version="1.1"><symbol overflow="visible" id="1"><path style="stroke:none;" d="M 21.15625 -95.40625 L 26.546875 -95.40625 L 67.046875 -61.796875 L 67.046875 -73.953125 L 82.953125 -73.953125 L 82.953125 -61.796875 L 123.453125 -95.40625 L 128.84375 -95.40625 L 128.84375 -12.296875 L 123.453125 -12.296875 L 82.953125 -45.90625 L 82.953125 -33.75 L 67.046875 -33.75 L 67.046875 -45.90625 L 26.546875 -12.296875 L 21.15625 -12.296875 Z M 27.15625 -86.84375 L 27.15625 -20.84375 L 32.546875 -25.34375 L 32.546875 -82.34375 Z M 117.453125 -82.34375 L 117.453125 -25.34375 L 122.84375 -20.84375 L 122.84375 -86.84375 Z M 72.296875 -68.546875 L 72.296875 -39.15625 L 77.703125 -39.15625 L 77.703125 -68.546875 Z M 72.296875 -68.546875"/></symbol><g style="fill:rgb(0%,0%,0%);fill-opacity:1;"><use xlink:href="#1" x="24.000001" y="153.499851"/></g></svg>