<?xml version="1.0" encoding="UTF-8"?><svg xmlns="http://www.w3.org/2000/svg" xmlns:xlink="http://www.w3.org/1999/xlink" width="198pt" height="198pt" viewBox="0 0 198 198" version="1.1"><symbol overflow="visible" id="1"><path style="stroke:none;" d="M 15.75 -103.953125 L 30.296875 -103.953125 C 31.703125 -102.347656 32.878906 -100.09375 33.828125 -97.1875 C 34.773438 -94.289063 35.25 -91.09375 35.25 -87.59375 L 35.25 -66 C 35.25 -63.695313 35.421875 -61.945313 35.765625 -60.75 C 36.117188 -59.550781 37.097656 -58.953125 38.703125 -58.953125 C 39.398438 -70.453125 41.847656 -76.203125 46.046875 -76.203125 C 46.648438 -76.203125 47.25 -76.050781 47.84375 -75.75 L 61.34375 -70.5 C 63.550781 -74 66.726563 -76.773438 70.875 -78.828125 C 75.019531 -80.878906 79.445313 -81.90625 84.15625 -81.90625 C 90.65625 -81.90625 96.878906 -79.601563 102.828125 -75 C 108.773438 -70.394531 114 -64.09375 118.5 -56.09375 C 120.101563 -58.894531 122.550781 -60.296875 125.84375 -60.296875 C 128.144531 -60.296875 130.117188 -59.46875 131.765625 -57.8125 C 133.421875 -56.164063 134.25 -54.195313 134.25 -51.90625 C 134.25 -49.601563 133.421875 -47.625 131.765625 -45.96875 C 130.117188 -44.320313 128.144531 -43.5 125.84375 -43.5 C 122.550781 -43.5 120.101563 -44.898438 118.5 -47.703125 C 114 -39.703125 108.773438 -33.398438 102.828125 -28.796875 C 96.878906 -24.203125 90.65625 -21.90625 84.15625 -21.90625 C 79.445313 -21.90625 75.019531 -22.925781 70.875 -24.96875 C 66.726563 -27.019531 63.550781 -29.796875 61.34375 -33.296875 L 47.84375 -28.046875 C 47.25 -27.742188 46.648438 -27.59375 46.046875 -27.59375 C 41.847656 -27.59375 39.398438 -33.34375 38.703125 -44.84375 C 37.097656 -44.84375 36.117188 -44.242188 35.765625 -43.046875 C 35.421875 -41.847656 35.25 -40.097656 35.25 -37.796875 L 35.25 -16.203125 C 35.25 -12.703125 34.773438 -9.5 33.828125 -6.59375 C 32.878906 -3.695313 31.703125 -1.445313 30.296875 0.15625 L 15.75 0.15625 L 15.75 -3.59375 C 20.050781 -4.300781 22.203125 -8.101563 22.203125 -15 L 22.203125 -43.046875 C 22.203125 -47.453125 23.550781 -50.40625 26.25 -51.90625 C 23.550781 -53.40625 22.203125 -56.351563 22.203125 -60.75 L 22.203125 -88.796875 C 22.203125 -95.703125 20.050781 -99.503906 15.75 -100.203125 Z M 43.5 -51.90625 C 43.5 -49.101563 43.570313 -46.722656 43.71875 -44.765625 C 43.875 -42.816406 44.050781 -41.195313 44.25 -39.90625 C 44.75 -37.300781 45.347656 -36 46.046875 -36 C 46.742188 -36 47.394531 -37.398438 48 -40.203125 C 48.300781 -41.597656 48.5 -43.269531 48.59375 -45.21875 C 48.695313 -47.175781 48.75 -49.40625 48.75 -51.90625 C 48.75 -54.40625 48.695313 -56.628906 48.59375 -58.578125 C 48.5 -60.523438 48.300781 -62.195313 48 -63.59375 C 47.394531 -66.394531 46.742188 -67.796875 46.046875 -67.796875 C 45.347656 -67.796875 44.75 -66.5 44.25 -63.90625 C 44.050781 -62.601563 43.875 -60.972656 43.71875 -59.015625 C 43.570313 -57.066406 43.5 -54.695313 43.5 -51.90625 Z M 52.046875 -66.453125 C 53.046875 -63.546875 53.546875 -58.695313 53.546875 -51.90625 C 53.546875 -45.101563 53.046875 -40.25 52.046875 -37.34375 L 57.59375 -39.59375 C 57.195313 -41.800781 56.898438 -43.878906 56.703125 -45.828125 C 56.503906 -47.773438 56.40625 -49.800781 56.40625 -51.90625 C 56.40625 -54 56.503906 -56.019531 56.703125 -57.96875 C 56.898438 -59.925781 57.195313 -62.003906 57.59375 -64.203125 Z M 66.90625 -54.453125 L 66.90625 -49.34375 L 93.59375 -49.34375 L 93.59375 -37.34375 L 98.40625 -37.34375 L 98.40625 -49.34375 L 110.40625 -49.34375 L 110.40625 -54.453125 L 98.40625 -54.453125 L 98.40625 -66.453125 L 93.59375 -66.453125 L 93.59375 -54.453125 Z M 66.90625 -54.453125"/></symbol><g style="fill:rgb(0%,0%,0%);fill-opacity:1;"><use xlink:href="#1" x="24.000001" y="153.49913"/></g></svg>