<?xml version="1.0" encoding="UTF-8"?><svg xmlns="http://www.w3.org/2000/svg" xmlns:xlink="http://www.w3.org/1999/xlink" width="198pt" height="198pt" viewBox="0 0 198 198" version="1.1"><symbol overflow="visible" id="1"><path style="stroke:none;" d="M 129 -5.25 L 115.34375 -5.25 L 115.34375 -14.25 L 105.15625 -14.25 L 105.15625 -20.546875 L 94.953125 -26.25 L 49.34375 -26.25 L 39.15625 -20.546875 L 39.15625 -14.25 L 21.15625 -14.25 L 21.15625 -32.84375 L 25.5 -32.84375 L 25.5 -41.84375 L 21.75 -41.84375 L 21.75 -66 L 25.5 -66 L 25.5 -75 L 21.15625 -75 L 21.15625 -93.59375 L 39.15625 -93.59375 L 39.15625 -87.15625 L 49.34375 -81.59375 L 94.953125 -81.59375 L 105.15625 -87.15625 L 105.15625 -93.59375 L 115.34375 -93.59375 L 115.34375 -102.59375 L 129 -102.59375 Z M 124.046875 -9.75 L 124.046875 -98.09375 L 120.90625 -98.09375 L 120.90625 -9.75 Z M 113.84375 -18.75 L 113.84375 -89.09375 L 110.703125 -89.09375 L 110.703125 -18.75 Z M 35.703125 -18.75 L 35.703125 -89.09375 L 32.546875 -89.09375 L 32.546875 -18.75 Z M 103.65625 -25.5 L 103.65625 -82.34375 L 100.5 -80.546875 L 100.5 -27.296875 Z M 44.40625 -27.75 L 44.40625 -80.09375 L 41.25 -81.90625 L 41.25 -25.953125 Z M 44.40625 -27.75"/></symbol><g style="fill:rgb(0%,0%,0%);fill-opacity:1;"><use xlink:href="#1" x="24.000001" y="153.499667"/></g></svg>