<?xml version="1.0" encoding="UTF-8"?><svg xmlns="http://www.w3.org/2000/svg" xmlns:xlink="http://www.w3.org/1999/xlink" width="198pt" height="198pt" viewBox="0 0 198 198" version="1.1"><symbol overflow="visible" id="1"><path style="stroke:none;" d="M 124.796875 -5.703125 C 119.203125 -5.703125 114.253906 -7.851563 109.953125 -12.15625 C 103.046875 -8.25 94.894531 -6.296875 85.5 -6.296875 C 79.101563 -6.296875 72.40625 -7.34375 65.40625 -9.4375 C 58.40625 -11.539063 51.40625 -14.84375 44.40625 -19.34375 C 38.5 -23.144531 32.695313 -27.421875 27 -32.171875 C 21.300781 -36.921875 15.648438 -42.097656 10.046875 -47.703125 L 9.15625 -48.59375 L 62.546875 -102 C 66.046875 -98.601563 68.820313 -95.03125 70.875 -91.28125 C 72.925781 -87.53125 74.148438 -84.351563 74.546875 -81.75 C 74.742188 -80.445313 74.914063 -78.546875 75.0625 -76.046875 C 75.21875 -73.546875 75.296875 -70.394531 75.296875 -66.59375 C 75.296875 -62 75.519531 -58.5 75.96875 -56.09375 C 76.425781 -53.695313 77.453125 -51.800781 79.046875 -50.40625 L 81.15625 -48.75 L 81.59375 -49.203125 C 81.394531 -49.597656 81.195313 -50.144531 81 -50.84375 C 80.800781 -51.550781 80.703125 -52.351563 80.703125 -53.25 C 80.703125 -55.144531 81.148438 -57.046875 82.046875 -58.953125 C 82.546875 -59.847656 83.296875 -60.992188 84.296875 -62.390625 C 85.296875 -63.796875 86.5 -65.300781 87.90625 -66.90625 C 88.195313 -68.101563 88.34375 -69.550781 88.34375 -71.25 C 88.34375 -72.351563 88.289063 -73.53125 88.1875 -74.78125 C 88.09375 -76.03125 87.945313 -77.203125 87.75 -78.296875 C 87.550781 -79.703125 87.453125 -80.953125 87.453125 -82.046875 C 87.453125 -84.847656 88.101563 -87 89.40625 -88.5 C 92.101563 -91.5 94.851563 -93 97.65625 -93 C 97.945313 -93 98.269531 -93 98.625 -93 C 98.976563 -93 99.300781 -92.945313 99.59375 -92.84375 L 111.90625 -90.15625 C 112.40625 -88.75 113.03125 -87.046875 113.78125 -85.046875 C 114.53125 -83.046875 115.550781 -80.847656 116.84375 -78.453125 C 118.144531 -75.953125 119.117188 -73.75 119.765625 -71.84375 C 120.421875 -69.945313 120.800781 -68.300781 120.90625 -66.90625 C 121.101563 -65.601563 121.5 -64.125 122.09375 -62.46875 C 122.695313 -60.820313 123.550781 -59 124.65625 -57 C 126.15625 -54.5 127.28125 -52.347656 128.03125 -50.546875 C 128.78125 -48.742188 129.15625 -46.84375 129.15625 -44.84375 C 129.15625 -42.84375 128.703125 -40.242188 127.796875 -37.046875 C 129.203125 -34.148438 131.050781 -31.648438 133.34375 -29.546875 C 135.644531 -27.347656 138.144531 -25.445313 140.84375 -23.84375 L 138.296875 -21.296875 C 135.796875 -20.203125 133.5 -19.65625 131.40625 -19.65625 C 128.90625 -19.65625 126.503906 -20.40625 124.203125 -21.90625 L 123.453125 -21.296875 C 123.847656 -20.398438 124.71875 -19.148438 126.0625 -17.546875 C 127.414063 -15.953125 128.59375 -14.601563 129.59375 -13.5 C 130.695313 -12.195313 131.945313 -11.046875 133.34375 -10.046875 L 129.59375 -6.453125 C 128.800781 -6.253906 128.003906 -6.078125 127.203125 -5.921875 C 126.398438 -5.773438 125.597656 -5.703125 124.796875 -5.703125 Z M 102.59375 -69 L 103.5 -69 C 105.800781 -71.601563 106.953125 -74.15625 106.953125 -76.65625 C 106.953125 -78.25 106.5 -79.796875 105.59375 -81.296875 C 105.300781 -81.398438 105.003906 -81.472656 104.703125 -81.515625 C 104.398438 -81.566406 104.097656 -81.59375 103.796875 -81.59375 C 102.398438 -81.59375 101.300781 -81.296875 100.5 -80.703125 C 101.101563 -79.796875 101.65625 -78.59375 102.15625 -77.09375 C 102.65625 -75.59375 102.90625 -73.894531 102.90625 -72 C 102.90625 -71.601563 102.878906 -71.128906 102.828125 -70.578125 C 102.773438 -70.023438 102.695313 -69.5 102.59375 -69 Z M 86.703125 -16.796875 C 90.097656 -16.796875 93.144531 -17.097656 95.84375 -17.703125 L 96.15625 -19.34375 C 95.15625 -19.25 94.175781 -19.175781 93.21875 -19.125 C 92.269531 -19.070313 91.347656 -19.046875 90.453125 -19.046875 C 85.953125 -19.046875 81.472656 -19.71875 77.015625 -21.0625 C 72.566406 -22.414063 67.84375 -24.84375 62.84375 -28.34375 C 57.84375 -31.84375 52.144531 -36.796875 45.75 -43.203125 C 43.144531 -45.796875 40.71875 -48.34375 38.46875 -50.84375 C 36.21875 -53.34375 34.242188 -55.695313 32.546875 -57.90625 L 25.65625 -50.84375 C 29.75 -46.644531 33.945313 -42.742188 38.25 -39.140625 C 42.550781 -35.546875 46.898438 -32.195313 51.296875 -29.09375 C 57.898438 -24.5 64.222656 -21.300781 70.265625 -19.5 C 76.316406 -17.695313 81.796875 -16.796875 86.703125 -16.796875 Z M 109.5 -38.25 L 113.25 -40.34375 C 113.75 -40.644531 114.296875 -40.992188 114.890625 -41.390625 C 115.492188 -41.796875 116 -42.195313 116.40625 -42.59375 C 117.90625 -44.09375 118.65625 -45.546875 118.65625 -46.953125 C 118.65625 -47.753906 118.40625 -48.40625 117.90625 -48.90625 L 117.15625 -49.65625 L 116.546875 -49.953125 C 115.648438 -49.953125 114.351563 -49.101563 112.65625 -47.40625 C 111.65625 -46.40625 111.15625 -45.15625 111.15625 -43.65625 C 111.15625 -42.945313 111.03125 -42.269531 110.78125 -41.625 C 110.53125 -40.976563 110.101563 -40.40625 109.5 -39.90625 L 108.59375 -39.15625 Z M 109.5 -38.25"/></symbol><g style="fill:rgb(0%,0%,0%);fill-opacity:1;"><use xlink:href="#1" x="24.000001" y="153.499261"/></g></svg>