<?xml version="1.0" encoding="UTF-8"?><svg xmlns="http://www.w3.org/2000/svg" xmlns:xlink="http://www.w3.org/1999/xlink" width="198pt" height="198pt" viewBox="0 0 198 198" version="1.1"><symbol overflow="visible" id="1"><path style="stroke:none;" d="M 134.09375 -54 C 134.09375 -49.394531 133.894531 -45.242188 133.5 -41.546875 C 133.101563 -37.847656 132.503906 -34.648438 131.703125 -31.953125 C 130.203125 -26.546875 128.101563 -23.84375 125.40625 -23.84375 L 94.953125 -25.953125 C 83.347656 -14.953125 72.894531 -9.453125 63.59375 -9.453125 C 57.300781 -9.453125 52.300781 -11.078125 48.59375 -14.328125 C 44.894531 -17.578125 43.046875 -22.050781 43.046875 -27.75 C 43.046875 -34.351563 45.445313 -40.050781 50.25 -44.84375 L 40.34375 -44.25 C 36.644531 -43.945313 34.394531 -46.347656 33.59375 -51.453125 L 25.203125 -51.453125 L 25.203125 -45.296875 L 21.59375 -45.296875 L 21.59375 -51.453125 L 16.046875 -51.453125 L 16.046875 -56.546875 L 21.59375 -56.546875 L 21.59375 -62.703125 L 25.203125 -62.703125 L 25.203125 -56.546875 L 33.59375 -56.546875 C 34.394531 -61.648438 36.644531 -64.050781 40.34375 -63.75 L 50.25 -63.15625 C 45.445313 -67.945313 43.046875 -73.644531 43.046875 -80.25 C 43.046875 -85.945313 44.894531 -90.421875 48.59375 -93.671875 C 52.300781 -96.921875 57.300781 -98.546875 63.59375 -98.546875 C 72.894531 -98.546875 83.347656 -93.046875 94.953125 -82.046875 L 125.40625 -84.15625 C 128.101563 -84.15625 130.203125 -81.453125 131.703125 -76.046875 C 132.503906 -73.347656 133.101563 -70.171875 133.5 -66.515625 C 133.894531 -62.867188 134.09375 -58.695313 134.09375 -54 Z M 91.953125 -76.953125 C 87.546875 -81.253906 82.789063 -84.800781 77.6875 -87.59375 C 72.59375 -90.394531 68.144531 -91.796875 64.34375 -91.796875 C 59.644531 -91.796875 55.96875 -90.769531 53.3125 -88.71875 C 50.664063 -86.675781 49.34375 -83.753906 49.34375 -79.953125 C 49.34375 -76.753906 50.367188 -73.78125 52.421875 -71.03125 C 54.472656 -68.28125 57.195313 -65.851563 60.59375 -63.75 C 64 -61.644531 67.828125 -60.019531 72.078125 -58.875 C 76.328125 -57.726563 80.601563 -57.15625 84.90625 -57.15625 L 89.703125 -57.15625 C 89.703125 -62.851563 90.453125 -69.453125 91.953125 -76.953125 Z M 87.15625 -76.34375 C 86.65625 -72.945313 86.253906 -69.972656 85.953125 -67.421875 C 85.648438 -64.867188 85.5 -62.695313 85.5 -60.90625 L 84.75 -60.90625 C 79.851563 -60.90625 75.050781 -61.675781 70.34375 -63.21875 C 65.644531 -64.769531 61.769531 -66.894531 58.71875 -69.59375 C 55.675781 -72.300781 54.15625 -75.253906 54.15625 -78.453125 C 54.15625 -81.347656 55.203125 -83.519531 57.296875 -84.96875 C 59.398438 -86.425781 62.203125 -87.15625 65.703125 -87.15625 C 71.597656 -87.15625 78.75 -83.550781 87.15625 -76.34375 Z M 118.203125 -30.90625 C 116.398438 -36.195313 115.5 -43.894531 115.5 -54 C 115.5 -64.195313 116.398438 -71.894531 118.203125 -77.09375 L 114.296875 -76.796875 C 113.597656 -73.992188 112.921875 -70.492188 112.265625 -66.296875 C 111.617188 -62.097656 111.296875 -58 111.296875 -54 C 111.296875 -50 111.617188 -45.898438 112.265625 -41.703125 C 112.921875 -37.503906 113.597656 -34.003906 114.296875 -31.203125 Z M 106.65625 -31.953125 C 106.25 -32.953125 105.84375 -34.625 105.4375 -36.96875 C 105.039063 -39.320313 104.71875 -42.023438 104.46875 -45.078125 C 104.21875 -48.128906 104.09375 -51.101563 104.09375 -54 C 104.09375 -57 104.21875 -60 104.46875 -63 C 104.71875 -66 105.039063 -68.671875 105.4375 -71.015625 C 105.84375 -73.367188 106.25 -75.046875 106.65625 -76.046875 L 102.453125 -75.75 C 101.648438 -72.550781 101.023438 -69.148438 100.578125 -65.546875 C 100.128906 -61.953125 99.90625 -58.101563 99.90625 -54 C 99.90625 -50 100.128906 -46.171875 100.578125 -42.515625 C 101.023438 -38.867188 101.648438 -35.445313 102.453125 -32.25 Z M 65.703125 -54 C 61.703125 -55.5 58.648438 -56.898438 56.546875 -58.203125 L 42.296875 -58.203125 C 38.992188 -58.203125 37.34375 -56.800781 37.34375 -54 C 37.34375 -51.195313 38.992188 -49.796875 42.296875 -49.796875 L 56.546875 -49.796875 C 58.648438 -51.097656 61.703125 -52.5 65.703125 -54 Z M 61.796875 -54 C 60.898438 -53.800781 59.875 -53.523438 58.71875 -53.171875 C 57.570313 -52.828125 56.445313 -52.453125 55.34375 -52.046875 L 44.703125 -52.046875 C 44.003906 -52.046875 43.253906 -52.144531 42.453125 -52.34375 C 41.648438 -52.550781 41.25 -53.101563 41.25 -54 C 41.25 -54.894531 41.648438 -55.441406 42.453125 -55.640625 C 43.253906 -55.847656 44.003906 -55.953125 44.703125 -55.953125 L 55.34375 -55.953125 C 56.445313 -55.546875 57.570313 -55.164063 58.71875 -54.8125 C 59.875 -54.46875 60.898438 -54.195313 61.796875 -54 Z M 91.953125 -31.046875 C 90.453125 -38.546875 89.703125 -45.144531 89.703125 -50.84375 L 84.90625 -50.84375 C 80.601563 -50.84375 76.328125 -50.269531 72.078125 -49.125 C 67.828125 -47.976563 64 -46.351563 60.59375 -44.25 C 57.195313 -42.144531 54.472656 -39.71875 52.421875 -36.96875 C 50.367188 -34.21875 49.34375 -31.242188 49.34375 -28.046875 C 49.34375 -24.347656 50.664063 -21.445313 53.3125 -19.34375 C 55.96875 -17.25 59.644531 -16.203125 64.34375 -16.203125 C 68.144531 -16.203125 72.59375 -17.597656 77.6875 -20.390625 C 82.789063 -23.191406 87.546875 -26.742188 91.953125 -31.046875 Z M 87.15625 -31.65625 C 78.75 -24.445313 71.597656 -20.84375 65.703125 -20.84375 C 62.203125 -20.84375 59.398438 -21.566406 57.296875 -23.015625 C 55.203125 -24.472656 54.15625 -26.648438 54.15625 -29.546875 C 54.15625 -32.847656 55.675781 -35.820313 58.71875 -38.46875 C 61.769531 -41.125 65.644531 -43.222656 70.34375 -44.765625 C 75.050781 -46.316406 79.851563 -47.09375 84.75 -47.09375 L 85.5 -47.09375 C 85.5 -45.300781 85.648438 -43.128906 85.953125 -40.578125 C 86.253906 -38.023438 86.65625 -35.050781 87.15625 -31.65625 Z M 87.15625 -31.65625"/></symbol><g style="fill:rgb(0%,0%,0%);fill-opacity:1;"><use xlink:href="#1" x="24.000001" y="153.499641"/></g></svg>