<?xml version="1.0" encoding="UTF-8"?><svg xmlns="http://www.w3.org/2000/svg" xmlns:xlink="http://www.w3.org/1999/xlink" width="198pt" height="198pt" viewBox="0 0 198 198" version="1.1"><symbol overflow="visible" id="1"><path style="stroke:none;" d="M 45 11.703125 L 42.453125 9.15625 C 41.847656 8.050781 41.421875 6.898438 41.171875 5.703125 C 40.921875 4.503906 40.796875 3.40625 40.796875 2.40625 C 40.796875 -0.300781 41.546875 -2.753906 43.046875 -4.953125 L 42.453125 -5.703125 C 41.453125 -5.296875 40.203125 -4.46875 38.703125 -3.21875 C 37.203125 -1.96875 35.75 -0.671875 34.34375 0.671875 C 32.945313 2.023438 31.898438 3.203125 31.203125 4.203125 L 27.59375 0.453125 C 27.09375 -1.242188 26.84375 -2.84375 26.84375 -4.34375 C 26.84375 -6.945313 27.394531 -9.570313 28.5 -12.21875 C 29.601563 -14.875 31.203125 -17.203125 33.296875 -19.203125 C 29.296875 -26.398438 27.296875 -34.597656 27.296875 -43.796875 C 27.296875 -50.296875 28.367188 -57.019531 30.515625 -63.96875 C 32.671875 -70.925781 36 -77.851563 40.5 -84.75 C 44.300781 -90.644531 48.578125 -96.441406 53.328125 -102.140625 C 58.078125 -107.847656 63.25 -113.5 68.84375 -119.09375 L 69.75 -120 L 123.15625 -66.59375 C 119.75 -63.195313 116.171875 -60.472656 112.421875 -58.421875 C 108.671875 -56.367188 105.5 -55.09375 102.90625 -54.59375 C 101.601563 -54.394531 99.703125 -54.21875 97.203125 -54.0625 C 94.703125 -53.914063 91.550781 -53.84375 87.75 -53.84375 C 83.144531 -53.84375 79.644531 -53.644531 77.25 -53.25 C 74.851563 -52.851563 72.953125 -51.800781 71.546875 -50.09375 L 69.90625 -48 L 70.34375 -47.546875 C 71.144531 -48.148438 72.546875 -48.453125 74.546875 -48.453125 C 76.453125 -48.453125 78.300781 -48 80.09375 -47.09375 C 81 -46.695313 82.125 -45.972656 83.46875 -44.921875 C 84.820313 -43.867188 86.347656 -42.644531 88.046875 -41.25 C 89.453125 -40.945313 91.003906 -40.796875 92.703125 -40.796875 C 93.703125 -40.796875 94.828125 -40.867188 96.078125 -41.015625 C 97.328125 -41.171875 98.5 -41.300781 99.59375 -41.40625 C 100.300781 -41.5 100.976563 -41.570313 101.625 -41.625 C 102.269531 -41.675781 102.84375 -41.703125 103.34375 -41.703125 C 106.25 -41.703125 108.351563 -41.050781 109.65625 -39.75 C 112.65625 -36.75 114.15625 -34 114.15625 -31.5 C 114.15625 -30.601563 114.101563 -29.953125 114 -29.546875 L 111.296875 -17.25 C 109.898438 -16.851563 108.203125 -16.253906 106.203125 -15.453125 C 104.203125 -14.648438 102 -13.597656 99.59375 -12.296875 C 97.09375 -10.992188 94.894531 -10.039063 93 -9.4375 C 91.101563 -8.84375 89.453125 -8.445313 88.046875 -8.25 C 86.742188 -8.144531 85.269531 -7.769531 83.625 -7.125 C 81.976563 -6.476563 80.15625 -5.601563 78.15625 -4.5 C 75.65625 -3 73.476563 -1.875 71.625 -1.125 C 69.769531 -0.375 67.84375 0 65.84375 0 C 63.945313 0 61.398438 -0.445313 58.203125 -1.34375 C 55.296875 0.0507813 52.796875 1.898438 50.703125 4.203125 C 48.503906 6.503906 46.601563 9.003906 45 11.703125 Z M 40.5 -33 C 40.394531 -34 40.316406 -34.972656 40.265625 -35.921875 C 40.222656 -36.867188 40.203125 -37.84375 40.203125 -38.84375 C 40.203125 -43.34375 40.898438 -47.789063 42.296875 -52.1875 C 43.703125 -56.59375 46.15625 -61.296875 49.65625 -66.296875 C 53.15625 -71.296875 58.050781 -77 64.34375 -83.40625 C 66.945313 -86 69.5 -88.421875 72 -90.671875 C 74.5 -92.921875 76.847656 -94.894531 79.046875 -96.59375 L 72 -103.5 C 67.800781 -99.394531 63.898438 -95.191406 60.296875 -90.890625 C 56.703125 -86.597656 53.351563 -82.25 50.25 -77.84375 C 45.644531 -71.144531 42.441406 -64.796875 40.640625 -58.796875 C 38.847656 -52.796875 37.953125 -47.296875 37.953125 -42.296875 C 37.953125 -38.992188 38.25 -35.992188 38.84375 -33.296875 Z M 97.953125 -22.203125 C 99.453125 -22.203125 100.953125 -22.648438 102.453125 -23.546875 C 102.648438 -24.148438 102.75 -24.75 102.75 -25.34375 C 102.75 -26.945313 102.445313 -28.050781 101.84375 -28.65625 C 100.945313 -28.050781 99.722656 -27.5 98.171875 -27 C 96.617188 -26.5 94.945313 -26.25 93.15625 -26.25 C 92.75 -26.25 92.269531 -26.273438 91.71875 -26.328125 C 91.175781 -26.378906 90.65625 -26.453125 90.15625 -26.546875 L 90.15625 -25.65625 C 92.550781 -23.351563 95.148438 -22.203125 97.953125 -22.203125 Z M 68.09375 -10.5 C 68.894531 -10.5 69.546875 -10.75 70.046875 -11.25 L 70.796875 -12 L 71.09375 -12.59375 C 71.09375 -13.5 70.242188 -14.800781 68.546875 -16.5 C 67.546875 -17.5 66.296875 -18 64.796875 -18 C 64.097656 -18 63.421875 -18.125 62.765625 -18.375 C 62.117188 -18.625 61.546875 -19.050781 61.046875 -19.65625 L 60.296875 -20.546875 L 59.40625 -19.65625 L 61.5 -15.90625 C 61.800781 -15.40625 62.148438 -14.878906 62.546875 -14.328125 C 62.953125 -13.773438 63.351563 -13.25 63.75 -12.75 C 65.25 -11.25 66.695313 -10.5 68.09375 -10.5 Z M 68.09375 -10.5"/></symbol><g style="fill:rgb(0%,0%,0%);fill-opacity:1;"><use xlink:href="#1" x="24.000001" y="153.499536"/></g></svg>