<?xml version="1.0" encoding="UTF-8"?><svg xmlns="http://www.w3.org/2000/svg" xmlns:xlink="http://www.w3.org/1999/xlink" width="198pt" height="198pt" viewBox="0 0 198 198" version="1.1"><symbol overflow="visible" id="1"><path style="stroke:none;" d="M 50.40625 0 C 50.40625 -4.894531 51.003906 -9.394531 52.203125 -13.5 C 53.398438 -17.601563 54.75 -20.703125 56.25 -22.796875 C 57.050781 -23.898438 58.273438 -25.375 59.921875 -27.21875 C 61.578125 -29.070313 63.753906 -31.347656 66.453125 -34.046875 C 69.648438 -37.242188 71.921875 -39.867188 73.265625 -41.921875 C 74.617188 -43.972656 75.296875 -46.050781 75.296875 -48.15625 C 75.296875 -49.15625 75.195313 -50.050781 75 -50.84375 L 74.40625 -50.84375 C 74.300781 -50.050781 73.570313 -48.90625 72.21875 -47.40625 C 70.875 -45.90625 69.203125 -44.851563 67.203125 -44.25 C 66.203125 -43.945313 64.875 -43.671875 63.21875 -43.421875 C 61.570313 -43.171875 59.597656 -42.945313 57.296875 -42.75 C 56.097656 -41.945313 54.820313 -40.84375 53.46875 -39.4375 C 52.125 -38.039063 50.703125 -36.34375 49.203125 -34.34375 C 46.203125 -30.445313 43.5 -28.5 41.09375 -28.5 C 38.5 -28.5 36.375 -28.796875 34.71875 -29.390625 C 33.070313 -29.992188 31.75 -31.097656 30.75 -32.703125 L 24 -43.34375 C 24.695313 -44.644531 25.421875 -46.296875 26.171875 -48.296875 C 26.921875 -50.296875 27.75 -52.546875 28.65625 -55.046875 C 29.550781 -57.648438 30.472656 -59.875 31.421875 -61.71875 C 32.367188 -63.570313 33.242188 -65 34.046875 -66 C 35.742188 -68.195313 37.195313 -71.445313 38.40625 -75.75 C 38.601563 -76.351563 38.773438 -76.925781 38.921875 -77.46875 C 39.078125 -78.019531 39.203125 -78.546875 39.296875 -79.046875 L 30.296875 -109.203125 C 29.492188 -109.003906 28.644531 -108.90625 27.75 -108.90625 C 24.945313 -108.90625 22.546875 -109.878906 20.546875 -111.828125 C 18.546875 -113.773438 17.546875 -116.195313 17.546875 -119.09375 C 17.546875 -122 18.546875 -124.425781 20.546875 -126.375 C 22.546875 -128.320313 24.945313 -129.296875 27.75 -129.296875 C 30.550781 -129.296875 32.953125 -128.320313 34.953125 -126.375 C 36.953125 -124.425781 37.953125 -122 37.953125 -119.09375 C 37.953125 -117.300781 37.550781 -115.675781 36.75 -114.21875 C 35.945313 -112.769531 34.894531 -111.597656 33.59375 -110.703125 L 47.09375 -90.296875 C 48 -90.796875 49.050781 -91.394531 50.25 -92.09375 C 51.144531 -95 51.59375 -98.050781 51.59375 -101.25 C 51.59375 -102.851563 51.492188 -104.425781 51.296875 -105.96875 C 51.097656 -107.519531 50.800781 -109.097656 50.40625 -110.703125 L 53.25 -110.703125 L 52.953125 -121.34375 C 50.148438 -121.34375 47.75 -122.316406 45.75 -124.265625 C 43.75 -126.222656 42.75 -128.648438 42.75 -131.546875 C 42.75 -134.453125 43.75 -136.878906 45.75 -138.828125 C 47.75 -140.773438 50.148438 -141.75 52.953125 -141.75 C 55.753906 -141.75 58.15625 -140.773438 60.15625 -138.828125 C 62.15625 -136.878906 63.15625 -134.453125 63.15625 -131.546875 C 63.15625 -129.242188 62.53125 -127.242188 61.28125 -125.546875 C 60.03125 -123.847656 58.453125 -122.648438 56.546875 -121.953125 L 63 -102.453125 C 63.101563 -101.953125 63.253906 -101.453125 63.453125 -100.953125 L 63.59375 -100.203125 L 64.5 -100.203125 C 64.894531 -101.097656 65.191406 -102.59375 65.390625 -104.6875 C 65.597656 -106.789063 65.703125 -108.546875 65.703125 -109.953125 C 65.703125 -110.847656 65.675781 -111.742188 65.625 -112.640625 C 65.570313 -113.546875 65.5 -114.347656 65.40625 -115.046875 L 70.65625 -115.046875 C 73.050781 -113.742188 75.097656 -111.84375 76.796875 -109.34375 L 79.34375 -126.296875 C 76.945313 -126.703125 74.945313 -127.828125 73.34375 -129.671875 C 71.75 -131.523438 70.953125 -133.75 70.953125 -136.34375 C 70.953125 -139.25 71.953125 -141.675781 73.953125 -143.625 C 75.953125 -145.570313 78.351563 -146.546875 81.15625 -146.546875 C 83.945313 -146.546875 86.34375 -145.570313 88.34375 -143.625 C 90.34375 -141.675781 91.34375 -139.25 91.34375 -136.34375 C 91.34375 -133.75 90.539063 -131.523438 88.9375 -129.671875 C 87.34375 -127.828125 85.347656 -126.703125 82.953125 -126.296875 L 87.59375 -94.34375 C 90.195313 -93.050781 92.75 -91.550781 95.25 -89.84375 L 105.75 -121.953125 C 103.851563 -122.648438 102.28125 -123.847656 101.03125 -125.546875 C 99.78125 -127.242188 99.15625 -129.242188 99.15625 -131.546875 C 99.15625 -134.453125 100.15625 -136.878906 102.15625 -138.828125 C 104.15625 -140.773438 106.550781 -141.75 109.34375 -141.75 C 112.25 -141.75 114.675781 -140.773438 116.625 -138.828125 C 118.570313 -136.878906 119.546875 -134.453125 119.546875 -131.546875 C 119.546875 -128.648438 118.546875 -126.222656 116.546875 -124.265625 C 114.546875 -122.316406 112.144531 -121.34375 109.34375 -121.34375 L 108.15625 -79.5 L 128.703125 -110.703125 C 127.398438 -111.597656 126.347656 -112.769531 125.546875 -114.21875 C 124.742188 -115.675781 124.34375 -117.300781 124.34375 -119.09375 C 124.34375 -122 125.34375 -124.425781 127.34375 -126.375 C 129.34375 -128.320313 131.742188 -129.296875 134.546875 -129.296875 C 137.453125 -129.296875 139.878906 -128.320313 141.828125 -126.375 C 143.773438 -124.425781 144.75 -122 144.75 -119.09375 C 144.75 -116.195313 143.75 -113.773438 141.75 -111.828125 C 139.75 -109.878906 137.347656 -108.90625 134.546875 -108.90625 C 133.648438 -108.90625 132.800781 -109.003906 132 -109.203125 L 117.296875 -60.296875 C 119.203125 -55.703125 120.703125 -50.800781 121.796875 -45.59375 C 123.203125 -38.695313 124.253906 -31.570313 124.953125 -24.21875 C 125.648438 -16.875 126 -9.25 126 -1.34375 L 126 0 Z M 78.453125 -133.65625 C 79.546875 -133.65625 80.441406 -134.03125 81.140625 -134.78125 C 81.847656 -135.53125 82.203125 -136.40625 82.203125 -137.40625 C 82.203125 -138.5 81.847656 -139.394531 81.140625 -140.09375 C 80.441406 -140.800781 79.546875 -141.15625 78.453125 -141.15625 C 77.453125 -141.15625 76.578125 -140.800781 75.828125 -140.09375 C 75.078125 -139.394531 74.703125 -138.5 74.703125 -137.40625 C 74.703125 -136.40625 75.078125 -135.53125 75.828125 -134.78125 C 76.578125 -134.03125 77.453125 -133.65625 78.453125 -133.65625 Z M 50.25 -128.84375 C 51.351563 -128.84375 52.253906 -129.21875 52.953125 -129.96875 C 53.648438 -130.71875 54 -131.59375 54 -132.59375 C 54 -133.695313 53.648438 -134.597656 52.953125 -135.296875 C 52.253906 -135.992188 51.351563 -136.34375 50.25 -136.34375 C 49.25 -136.34375 48.375 -135.992188 47.625 -135.296875 C 46.875 -134.597656 46.5 -133.695313 46.5 -132.59375 C 46.5 -131.59375 46.875 -130.71875 47.625 -129.96875 C 48.375 -129.21875 49.25 -128.84375 50.25 -128.84375 Z M 106.65625 -128.84375 C 107.75 -128.84375 108.644531 -129.21875 109.34375 -129.96875 C 110.050781 -130.71875 110.40625 -131.59375 110.40625 -132.59375 C 110.40625 -133.695313 110.050781 -134.597656 109.34375 -135.296875 C 108.644531 -135.992188 107.75 -136.34375 106.65625 -136.34375 C 105.65625 -136.34375 104.78125 -135.992188 104.03125 -135.296875 C 103.28125 -134.597656 102.90625 -133.695313 102.90625 -132.59375 C 102.90625 -131.59375 103.28125 -130.71875 104.03125 -129.96875 C 104.78125 -129.21875 105.65625 -128.84375 106.65625 -128.84375 Z M 25.046875 -116.40625 C 26.148438 -116.40625 27.050781 -116.78125 27.75 -117.53125 C 28.445313 -118.28125 28.796875 -119.15625 28.796875 -120.15625 C 28.796875 -121.25 28.445313 -122.144531 27.75 -122.84375 C 27.050781 -123.550781 26.148438 -123.90625 25.046875 -123.90625 C 24.046875 -123.90625 23.171875 -123.550781 22.421875 -122.84375 C 21.671875 -122.144531 21.296875 -121.25 21.296875 -120.15625 C 21.296875 -119.15625 21.671875 -118.28125 22.421875 -117.53125 C 23.171875 -116.78125 24.046875 -116.40625 25.046875 -116.40625 Z M 131.84375 -116.40625 C 132.945313 -116.40625 133.847656 -116.78125 134.546875 -117.53125 C 135.242188 -118.28125 135.59375 -119.15625 135.59375 -120.15625 C 135.59375 -121.25 135.242188 -122.144531 134.546875 -122.84375 C 133.847656 -123.550781 132.945313 -123.90625 131.84375 -123.90625 C 130.84375 -123.90625 129.96875 -123.550781 129.21875 -122.84375 C 128.46875 -122.144531 128.09375 -121.25 128.09375 -120.15625 C 128.09375 -119.15625 128.46875 -118.28125 129.21875 -117.53125 C 129.96875 -116.78125 130.84375 -116.40625 131.84375 -116.40625 Z M 105.90625 -10.046875 L 115.796875 -10.046875 C 115.796875 -17.847656 115.367188 -25.445313 114.515625 -32.84375 C 113.671875 -40.25 112.347656 -47.050781 110.546875 -53.25 C 108.742188 -59.445313 106.34375 -64.644531 103.34375 -68.84375 C 101.144531 -72.050781 98.894531 -74.851563 96.59375 -77.25 C 94.300781 -79.644531 91.953125 -81.59375 89.546875 -83.09375 L 88.203125 -82.203125 C 92.398438 -78.703125 95.875 -74.828125 98.625 -70.578125 C 101.375 -66.328125 103.445313 -61 104.84375 -54.59375 C 106.25 -48.195313 106.953125 -39.898438 106.953125 -29.703125 C 106.953125 -26.003906 106.875 -22.503906 106.71875 -19.203125 C 106.570313 -15.898438 106.300781 -12.847656 105.90625 -10.046875 Z M 53.703125 -74.09375 C 55.003906 -74.09375 56.253906 -74.59375 57.453125 -75.59375 C 58.648438 -76.59375 59.898438 -77.09375 61.203125 -77.09375 L 62.40625 -76.953125 L 62.40625 -78.296875 L 58.203125 -79.5 C 57.597656 -79.695313 56.96875 -79.84375 56.3125 -79.9375 C 55.664063 -80.039063 55.046875 -80.09375 54.453125 -80.09375 C 52.847656 -80.09375 51.519531 -79.789063 50.46875 -79.1875 C 49.425781 -78.59375 48.90625 -77.75 48.90625 -76.65625 L 48.90625 -75.59375 L 49.046875 -75 C 49.847656 -74.394531 51.398438 -74.09375 53.703125 -74.09375 Z M 38.703125 -41.84375 C 39.003906 -43.25 39.703125 -44.875 40.796875 -46.71875 C 41.898438 -48.570313 43.453125 -50.195313 45.453125 -51.59375 L 44.84375 -52.34375 C 42.050781 -52.25 39.78125 -51.523438 38.03125 -50.171875 C 36.28125 -48.828125 35.15625 -47.15625 34.65625 -45.15625 C 35.050781 -44.351563 35.671875 -43.625 36.515625 -42.96875 C 37.367188 -42.320313 38.097656 -41.945313 38.703125 -41.84375 Z M 38.703125 -41.84375"/></symbol><g style="fill:rgb(0%,0%,0%);fill-opacity:1;"><use xlink:href="#1" x="24.000001" y="153.499956"/></g></svg>