<?xml version="1.0" encoding="UTF-8"?><svg xmlns="http://www.w3.org/2000/svg" xmlns:xlink="http://www.w3.org/1999/xlink" width="198pt" height="198pt" viewBox="0 0 198 198" version="1.1"><symbol overflow="visible" id="1"><path style="stroke:none;" d="M 18.296875 -103.796875 L 23.84375 -103.796875 C 31.644531 -103.796875 38.820313 -102.570313 45.375 -100.125 C 51.925781 -97.675781 57.550781 -94.203125 62.25 -89.703125 C 66.945313 -85.203125 70.296875 -79.898438 72.296875 -73.796875 C 76.703125 -80.597656 82.351563 -84 89.25 -84 C 94.550781 -84 99.148438 -82.347656 103.046875 -79.046875 C 106.953125 -75.742188 109.851563 -71.046875 111.75 -64.953125 C 112.550781 -67.046875 113.800781 -68.71875 115.5 -69.96875 C 117.195313 -71.21875 119.195313 -71.84375 121.5 -71.84375 C 124.601563 -71.84375 127.050781 -70.492188 128.84375 -67.796875 C 130.644531 -65.097656 131.546875 -61.398438 131.546875 -56.703125 C 131.546875 -52.097656 130.644531 -48.421875 128.84375 -45.671875 C 127.050781 -42.921875 124.601563 -41.546875 121.5 -41.546875 C 119.195313 -41.546875 117.171875 -42.195313 115.421875 -43.5 C 113.671875 -44.800781 112.445313 -46.453125 111.75 -48.453125 C 109.851563 -42.453125 106.953125 -37.773438 103.046875 -34.421875 C 99.148438 -31.078125 94.550781 -29.40625 89.25 -29.40625 C 82.351563 -29.40625 76.703125 -32.800781 72.296875 -39.59375 C 70.296875 -33.394531 66.945313 -28.046875 62.25 -23.546875 C 57.550781 -19.046875 51.925781 -15.59375 45.375 -13.1875 C 38.820313 -10.789063 31.644531 -9.59375 23.84375 -9.59375 L 18.296875 -9.59375 Z M 27.59375 -96 L 27.59375 -90.90625 L 29.703125 -90.90625 C 38.203125 -90.601563 45.078125 -89.175781 50.328125 -86.625 C 55.578125 -84.070313 59.800781 -80.597656 63 -76.203125 C 61 -82.398438 57.097656 -87.25 51.296875 -90.75 C 45.492188 -94.25 38.796875 -96 31.203125 -96 Z M 77.703125 -70.796875 C 79.597656 -72.203125 81.445313 -73.203125 83.25 -73.796875 C 85.050781 -74.398438 87.351563 -74.703125 90.15625 -74.703125 C 97.050781 -74.703125 102.347656 -71.75 106.046875 -65.84375 C 105.953125 -67.644531 105.175781 -69.519531 103.71875 -71.46875 C 102.269531 -73.425781 100.34375 -75.078125 97.9375 -76.421875 C 95.539063 -77.773438 92.894531 -78.453125 90 -78.453125 C 87.195313 -78.453125 84.617188 -77.675781 82.265625 -76.125 C 79.921875 -74.570313 78.398438 -72.796875 77.703125 -70.796875 Z M 114.90625 -64.953125 C 115.90625 -66.253906 117.90625 -66.90625 120.90625 -66.90625 C 124 -66.90625 126.445313 -65.453125 128.25 -62.546875 C 128.25 -63.648438 127.523438 -64.953125 126.078125 -66.453125 C 124.628906 -67.953125 122.851563 -68.703125 120.75 -68.703125 C 119.351563 -68.703125 118.078125 -68.300781 116.921875 -67.5 C 115.773438 -66.695313 115.101563 -65.847656 114.90625 -64.953125 Z M 114.90625 -64.953125"/></symbol><g style="fill:rgb(0%,0%,0%);fill-opacity:1;"><use xlink:href="#1" x="24.000001" y="153.499156"/></g></svg>