<?xml version="1.0" encoding="UTF-8"?><svg xmlns="http://www.w3.org/2000/svg" xmlns:xlink="http://www.w3.org/1999/xlink" width="198pt" height="198pt" viewBox="0 0 198 198" version="1.1"><symbol overflow="visible" id="1"><path style="stroke:none;" d="M 21.15625 -102.59375 L 34.796875 -102.59375 L 34.796875 -93.59375 L 45 -93.59375 L 45 -87.296875 L 55.203125 -81.59375 L 100.796875 -81.59375 L 111 -87.296875 L 111 -93.59375 L 129 -93.59375 L 129 -75 L 124.65625 -75 L 124.65625 -66 L 128.40625 -66 L 128.40625 -41.84375 L 124.65625 -41.84375 L 124.65625 -32.84375 L 129 -32.84375 L 129 -14.25 L 111 -14.25 L 111 -20.703125 L 100.796875 -26.25 L 55.203125 -26.25 L 45 -20.703125 L 45 -14.25 L 34.796875 -14.25 L 34.796875 -5.25 L 21.15625 -5.25 Z M 26.09375 -98.09375 L 26.09375 -9.75 L 29.25 -9.75 L 29.25 -98.09375 Z M 36.296875 -89.09375 L 36.296875 -18.75 L 39.453125 -18.75 L 39.453125 -89.09375 Z M 114.453125 -89.09375 L 114.453125 -18.75 L 117.59375 -18.75 L 117.59375 -89.09375 Z M 46.5 -82.34375 L 46.5 -25.5 L 49.65625 -27.296875 L 49.65625 -80.546875 Z M 105.75 -80.09375 L 105.75 -27.75 L 108.90625 -25.953125 L 108.90625 -81.90625 Z M 105.75 -80.09375"/></symbol><g style="fill:rgb(0%,0%,0%);fill-opacity:1;"><use xlink:href="#1" x="24.000001" y="153.499117"/></g></svg>