<svg width="16" height="16" viewBox="0 0 12 12" xmlns="http://www.w3.org/2000/svg"><path d="m9.136 8.114-.421-.28h-3.65l-.421.28Zm-.561-.561v-.326h-3.37v.326ZM5.059 4.605c0 .389-.123.767-.37 1.134a1.17 1.17 0 0 1-1.033.55c-.502 0-.897-.153-1.185-.46l-.073.095c.022.023.043.045.062.068.363.385.761.578 1.196.578.584 0 1.057-.19 1.42-.573.363-.385.545-.85.545-1.392Zm-.022-1.662a.31.31 0 0 0 .034.14c.026.045.061.08.106.107a.31.31 0 0 0 .281 0 .252.252 0 0 0 .101-.107.275.275 0 0 0 0-.28.22.22 0 0 0-.1-.102.275.275 0 0 0-.282 0 .252.252 0 0 0-.106.101.31.31 0 0 0-.034.14zm3.818 3.532v1.078l.843.561v.842H4.082v-.842l.843-.561v-.326c-.375-.157-.607-.346-.697-.567-.108.026-.25.043-.426.05v2.538c0 .543.02.895.061 1.056.042.165.105.28.191.348a.412.412 0 0 0 .264.107c.124 0 .275-.082.455-.247.184-.161.307-.255.37-.28.229-.083.265.081.107.493.266.131.358.244.276.337-.08.094-.289.14-.63.14-.598 0-1.072-.213-1.42-.64-.344-.426-.517-1.08-.517-1.96V6.52a2.393 2.393 0 0 1-.657-.595l.169-.208c.13.158.294.278.488.36V4.464c0-.584.163-1.145.489-1.684a3.74 3.74 0 0 1 1.246-1.275c.506-.31 1.238-.466 2.196-.466.584 0 1.099.155 1.544.466.45.307.773.73.972 1.27a5.08 5.08 0 0 1 .292 1.532 3.04 3.04 0 0 1-.191.932c-.131.34-.3.601-.506.78a1.01 1.01 0 0 1-.69.27c-.375 0-.721-.099-1.04-.297a1.67 1.67 0 0 1-.667-.753 7.297 7.297 0 0 0-.05-.146l-.175.124a1.8 1.8 0 0 0 .724.96c.36.243.762.365 1.208.365.22 0 .402-.023.544-.067z"/></svg>
