<?xml version="1.0" encoding="UTF-8"?><svg xmlns="http://www.w3.org/2000/svg" xmlns:xlink="http://www.w3.org/1999/xlink" width="198pt" height="198pt" viewBox="0 0 198 198" version="1.1"><symbol overflow="visible" id="1"><path style="stroke:none;" d="M 14.84375 -55.046875 C 14.84375 -59.742188 15.066406 -63.914063 15.515625 -67.5625 C 15.972656 -71.21875 16.550781 -74.394531 17.25 -77.09375 C 18.75 -82.5 20.847656 -85.203125 23.546875 -85.203125 L 55.796875 -84.75 L 97.65625 -98.546875 C 97.550781 -98.847656 97.472656 -99.222656 97.421875 -99.671875 C 97.367188 -100.117188 97.34375 -100.644531 97.34375 -101.25 C 97.34375 -104.144531 98.316406 -106.539063 100.265625 -108.4375 C 102.222656 -110.34375 104.75 -111.296875 107.84375 -111.296875 C 110.644531 -111.296875 112.992188 -110.296875 114.890625 -108.296875 C 116.796875 -106.296875 117.75 -103.894531 117.75 -101.09375 C 117.75 -98.195313 116.773438 -95.773438 114.828125 -93.828125 C 112.878906 -91.878906 110.453125 -90.90625 107.546875 -90.90625 C 105.953125 -90.90625 104.328125 -91.328125 102.671875 -92.171875 C 101.023438 -93.023438 99.800781 -94.101563 99 -95.40625 L 65.84375 -75.75 L 109.65625 -80.09375 L 109.65625 -80.40625 C 109.65625 -83 110.65625 -85.320313 112.65625 -87.375 C 114.65625 -89.425781 117.050781 -90.453125 119.84375 -90.453125 C 122.644531 -90.453125 125.070313 -89.5 127.125 -87.59375 C 129.175781 -85.695313 130.203125 -83.300781 130.203125 -80.40625 C 130.203125 -77.601563 129.222656 -75.175781 127.265625 -73.125 C 125.316406 -71.070313 122.894531 -70.046875 120 -70.046875 C 117.800781 -70.046875 115.847656 -70.617188 114.140625 -71.765625 C 112.441406 -72.921875 111.195313 -74.550781 110.40625 -76.65625 L 67.65625 -62.546875 L 114.75 -56.84375 C 115.144531 -59.144531 116.269531 -61.117188 118.125 -62.765625 C 119.976563 -64.421875 122.203125 -65.25 124.796875 -65.25 C 127.703125 -65.25 130.128906 -64.273438 132.078125 -62.328125 C 134.023438 -60.378906 135 -57.953125 135 -55.046875 C 135 -52.242188 134.023438 -49.84375 132.078125 -47.84375 C 130.128906 -45.84375 127.703125 -44.84375 124.796875 -44.84375 C 122.203125 -44.84375 119.976563 -45.664063 118.125 -47.3125 C 116.269531 -48.96875 115.144531 -50.945313 114.75 -53.25 L 67.65625 -47.546875 L 110.40625 -33.453125 C 111.195313 -35.546875 112.441406 -37.164063 114.140625 -38.3125 C 115.847656 -39.46875 117.800781 -40.046875 120 -40.046875 C 122.894531 -40.046875 125.316406 -39.019531 127.265625 -36.96875 C 129.222656 -34.925781 130.203125 -32.503906 130.203125 -29.703125 C 130.203125 -26.898438 129.175781 -24.523438 127.125 -22.578125 C 125.070313 -20.628906 122.644531 -19.65625 119.84375 -19.65625 C 117.050781 -19.65625 114.65625 -20.675781 112.65625 -22.71875 C 110.65625 -24.769531 109.65625 -27.097656 109.65625 -29.703125 L 109.65625 -30 L 65.84375 -34.34375 L 99 -14.703125 C 99.800781 -16.097656 101.023438 -17.195313 102.671875 -18 C 104.328125 -18.800781 105.953125 -19.203125 107.546875 -19.203125 C 110.453125 -19.203125 112.878906 -18.222656 114.828125 -16.265625 C 116.773438 -14.316406 117.75 -11.894531 117.75 -9 C 117.75 -6.195313 116.796875 -3.796875 114.890625 -1.796875 C 112.992188 0.203125 110.644531 1.203125 107.84375 1.203125 C 104.75 1.203125 102.222656 0.226563 100.265625 -1.71875 C 98.316406 -3.675781 97.34375 -6.050781 97.34375 -8.84375 C 97.34375 -9.445313 97.367188 -9.972656 97.421875 -10.421875 C 97.472656 -10.867188 97.550781 -11.242188 97.65625 -11.546875 L 55.796875 -25.34375 L 23.546875 -24.90625 C 20.742188 -24.90625 18.59375 -27.601563 17.09375 -33 C 15.59375 -38.394531 14.84375 -45.742188 14.84375 -55.046875 Z M 105.15625 -103.796875 C 105.15625 -102.796875 105.53125 -101.921875 106.28125 -101.171875 C 107.03125 -100.421875 107.90625 -100.046875 108.90625 -100.046875 C 110 -100.046875 110.894531 -100.421875 111.59375 -101.171875 C 112.300781 -101.921875 112.65625 -102.796875 112.65625 -103.796875 C 112.65625 -104.898438 112.300781 -105.800781 111.59375 -106.5 C 110.894531 -107.195313 110 -107.546875 108.90625 -107.546875 C 107.90625 -107.546875 107.03125 -107.195313 106.28125 -106.5 C 105.53125 -105.800781 105.15625 -104.898438 105.15625 -103.796875 Z M 117.296875 -82.796875 C 117.296875 -81.796875 117.671875 -80.921875 118.421875 -80.171875 C 119.171875 -79.421875 120.046875 -79.046875 121.046875 -79.046875 C 122.148438 -79.046875 123.050781 -79.421875 123.75 -80.171875 C 124.445313 -80.921875 124.796875 -81.796875 124.796875 -82.796875 C 124.796875 -83.898438 124.445313 -84.800781 123.75 -85.5 C 123.050781 -86.195313 122.148438 -86.546875 121.046875 -86.546875 C 120.046875 -86.546875 119.171875 -86.195313 118.421875 -85.5 C 117.671875 -84.800781 117.296875 -83.898438 117.296875 -82.796875 Z M 28.34375 -80.25 C 29.25 -77.550781 29.925781 -73.898438 30.375 -69.296875 C 30.820313 -64.703125 31.046875 -59.953125 31.046875 -55.046875 C 31.046875 -50.242188 30.820313 -45.46875 30.375 -40.71875 C 29.925781 -35.96875 29.25 -32.296875 28.34375 -29.703125 L 30.75 -29.703125 C 31.25 -30.898438 31.722656 -32.945313 32.171875 -35.84375 C 32.617188 -38.75 32.992188 -41.953125 33.296875 -45.453125 C 33.597656 -48.953125 33.75 -52.148438 33.75 -55.046875 C 33.75 -57.847656 33.597656 -60.972656 33.296875 -64.421875 C 32.992188 -67.867188 32.617188 -71.066406 32.171875 -74.015625 C 31.722656 -76.972656 31.25 -79.050781 30.75 -80.25 Z M 37.046875 -80.09375 C 39.046875 -73.800781 40.046875 -65.453125 40.046875 -55.046875 C 40.046875 -50.847656 39.796875 -46.398438 39.296875 -41.703125 C 38.796875 -37.003906 38.046875 -33.050781 37.046875 -29.84375 L 39.75 -29.84375 C 40.25 -31.050781 40.722656 -33.101563 41.171875 -36 C 41.617188 -38.894531 41.992188 -42.09375 42.296875 -45.59375 C 42.597656 -49.09375 42.75 -52.242188 42.75 -55.046875 C 42.75 -57.847656 42.597656 -60.945313 42.296875 -64.34375 C 41.992188 -67.75 41.617188 -70.925781 41.171875 -73.875 C 40.722656 -76.820313 40.25 -78.894531 39.75 -80.09375 Z M 46.046875 -79.953125 C 48.046875 -73.648438 49.046875 -65.347656 49.046875 -55.046875 C 49.046875 -50.742188 48.820313 -46.269531 48.375 -41.625 C 47.925781 -36.976563 47.148438 -33.101563 46.046875 -30 L 48.75 -30 C 49.25 -31.195313 49.722656 -33.269531 50.171875 -36.21875 C 50.617188 -39.175781 50.992188 -42.378906 51.296875 -45.828125 C 51.597656 -49.273438 51.75 -52.347656 51.75 -55.046875 C 51.75 -57.953125 51.597656 -61.101563 51.296875 -64.5 C 50.992188 -67.894531 50.617188 -71.039063 50.171875 -73.9375 C 49.722656 -76.84375 49.25 -78.847656 48.75 -79.953125 Z M 122.09375 -57.75 C 122.09375 -56.75 122.46875 -55.875 123.21875 -55.125 C 123.96875 -54.375 124.84375 -54 125.84375 -54 C 126.945313 -54 127.847656 -54.375 128.546875 -55.125 C 129.242188 -55.875 129.59375 -56.75 129.59375 -57.75 C 129.59375 -58.851563 129.242188 -59.753906 128.546875 -60.453125 C 127.847656 -61.148438 126.945313 -61.5 125.84375 -61.5 C 124.84375 -61.5 123.96875 -61.148438 123.21875 -60.453125 C 122.46875 -59.753906 122.09375 -58.851563 122.09375 -57.75 Z M 117.296875 -32.546875 C 117.296875 -31.546875 117.671875 -30.671875 118.421875 -29.921875 C 119.171875 -29.171875 120.046875 -28.796875 121.046875 -28.796875 C 122.148438 -28.796875 123.050781 -29.171875 123.75 -29.921875 C 124.445313 -30.671875 124.796875 -31.546875 124.796875 -32.546875 C 124.796875 -33.648438 124.445313 -34.550781 123.75 -35.25 C 123.050781 -35.945313 122.148438 -36.296875 121.046875 -36.296875 C 120.046875 -36.296875 119.171875 -35.945313 118.421875 -35.25 C 117.671875 -34.550781 117.296875 -33.648438 117.296875 -32.546875 Z M 105.15625 -11.703125 C 105.15625 -10.703125 105.53125 -9.828125 106.28125 -9.078125 C 107.03125 -8.328125 107.90625 -7.953125 108.90625 -7.953125 C 110 -7.953125 110.894531 -8.328125 111.59375 -9.078125 C 112.300781 -9.828125 112.65625 -10.703125 112.65625 -11.703125 C 112.65625 -12.796875 112.300781 -13.691406 111.59375 -14.390625 C 110.894531 -15.097656 110 -15.453125 108.90625 -15.453125 C 107.90625 -15.453125 107.03125 -15.097656 106.28125 -14.390625 C 105.53125 -13.691406 105.15625 -12.796875 105.15625 -11.703125 Z M 105.15625 -11.703125"/></symbol><g style="fill:rgb(0%,0%,0%);fill-opacity:1;"><use xlink:href="#1" x="24.000001" y="153.499104"/></g></svg>