<?xml version="1.0" encoding="UTF-8"?><svg xmlns="http://www.w3.org/2000/svg" xmlns:xlink="http://www.w3.org/1999/xlink" width="198pt" height="198pt" viewBox="0 0 198 198" version="1.1"><symbol overflow="visible" id="1"><path style="stroke:none;" d="M 122.09375 -113.25 L 122.09375 -107.703125 C 122.09375 -99.898438 120.867188 -92.722656 118.421875 -86.171875 C 115.972656 -79.617188 112.5 -74.019531 108 -69.375 C 103.5 -64.726563 98.195313 -61.351563 92.09375 -59.25 C 98.894531 -54.851563 102.296875 -49.203125 102.296875 -42.296875 C 102.296875 -37.097656 100.644531 -32.523438 97.34375 -28.578125 C 94.050781 -24.628906 89.351563 -21.703125 83.25 -19.796875 C 85.351563 -19.097656 87.03125 -17.875 88.28125 -16.125 C 89.53125 -14.375 90.15625 -12.347656 90.15625 -10.046875 C 90.15625 -6.953125 88.800781 -4.503906 86.09375 -2.703125 C 83.394531 -0.898438 79.695313 0 75 0 C 70.394531 0 66.71875 -0.898438 63.96875 -2.703125 C 61.21875 -4.503906 59.84375 -6.953125 59.84375 -10.046875 C 59.84375 -12.347656 60.492188 -14.375 61.796875 -16.125 C 63.097656 -17.875 64.75 -19.097656 66.75 -19.796875 C 60.75 -21.703125 56.070313 -24.628906 52.71875 -28.578125 C 49.375 -32.523438 47.703125 -37.097656 47.703125 -42.296875 C 47.703125 -49.203125 51.101563 -54.851563 57.90625 -59.25 C 51.695313 -61.351563 46.34375 -64.726563 41.84375 -69.375 C 37.34375 -74.019531 33.894531 -79.644531 31.5 -86.25 C 29.101563 -92.851563 27.90625 -100.003906 27.90625 -107.703125 L 27.90625 -113.25 Z M 114.296875 -103.953125 L 109.203125 -103.953125 L 109.203125 -101.84375 C 108.898438 -93.34375 107.472656 -86.46875 104.921875 -81.21875 C 102.367188 -75.96875 98.894531 -71.742188 94.5 -68.546875 C 100.695313 -70.546875 105.546875 -74.445313 109.046875 -80.25 C 112.546875 -86.050781 114.296875 -92.75 114.296875 -100.34375 Z M 89.09375 -53.84375 C 90.5 -51.945313 91.5 -50.097656 92.09375 -48.296875 C 92.695313 -46.492188 93 -44.195313 93 -41.40625 C 93 -34.5 90.050781 -29.195313 84.15625 -25.5 C 85.945313 -25.601563 87.816406 -26.378906 89.765625 -27.828125 C 91.722656 -29.273438 93.375 -31.195313 94.71875 -33.59375 C 96.070313 -36 96.75 -38.648438 96.75 -41.546875 C 96.75 -44.453125 95.972656 -47.050781 94.421875 -49.34375 C 92.867188 -51.644531 91.09375 -53.144531 89.09375 -53.84375 Z M 83.25 -16.65625 C 84.550781 -15.65625 85.203125 -13.65625 85.203125 -10.65625 C 85.203125 -7.550781 83.75 -5.097656 80.84375 -3.296875 C 81.945313 -3.296875 83.25 -4.019531 84.75 -5.46875 C 86.25 -6.925781 87 -8.703125 87 -10.796875 C 87 -12.203125 86.597656 -13.503906 85.796875 -14.703125 C 84.992188 -15.898438 84.144531 -16.550781 83.25 -16.65625 Z M 83.25 -16.65625"/></symbol><g style="fill:rgb(0%,0%,0%);fill-opacity:1;"><use xlink:href="#1" x="24.000001" y="153.499431"/></g></svg>