<?xml version="1.0" encoding="UTF-8"?><svg xmlns="http://www.w3.org/2000/svg" xmlns:xlink="http://www.w3.org/1999/xlink" width="198pt" height="198pt" viewBox="0 0 198 198" version="1.1"><symbol overflow="visible" id="1"><path style="stroke:none;" d="M 15.90625 -54 C 15.90625 -58.695313 16.128906 -62.867188 16.578125 -66.515625 C 17.023438 -70.171875 17.597656 -73.347656 18.296875 -76.046875 C 19.796875 -81.453125 21.894531 -84.15625 24.59375 -84.15625 L 55.046875 -82.046875 C 66.648438 -93.046875 77.101563 -98.546875 86.40625 -98.546875 C 92.695313 -98.546875 97.691406 -96.921875 101.390625 -93.671875 C 105.097656 -90.421875 106.953125 -85.945313 106.953125 -80.25 C 106.953125 -73.644531 104.550781 -67.945313 99.75 -63.15625 L 109.65625 -63.75 C 113.351563 -64.050781 115.601563 -61.648438 116.40625 -56.546875 L 124.796875 -56.546875 L 124.796875 -62.703125 L 128.40625 -62.703125 L 128.40625 -56.546875 L 133.953125 -56.546875 L 133.953125 -51.453125 L 128.40625 -51.453125 L 128.40625 -45.296875 L 124.796875 -45.296875 L 124.796875 -51.453125 L 116.40625 -51.453125 C 115.601563 -46.347656 113.351563 -43.945313 109.65625 -44.25 L 99.75 -44.84375 C 104.550781 -40.050781 106.953125 -34.351563 106.953125 -27.75 C 106.953125 -22.050781 105.097656 -17.578125 101.390625 -14.328125 C 97.691406 -11.078125 92.695313 -9.453125 86.40625 -9.453125 C 77.101563 -9.453125 66.648438 -14.953125 55.046875 -25.953125 L 24.59375 -23.84375 C 21.894531 -23.84375 19.796875 -26.546875 18.296875 -31.953125 C 17.597656 -34.648438 17.023438 -37.847656 16.578125 -41.546875 C 16.128906 -45.242188 15.90625 -49.394531 15.90625 -54 Z M 58.046875 -76.953125 C 59.546875 -69.453125 60.296875 -62.851563 60.296875 -57.15625 L 65.09375 -57.15625 C 69.5 -57.15625 73.800781 -57.726563 78 -58.875 C 82.195313 -60.019531 85.992188 -61.644531 89.390625 -63.75 C 92.796875 -65.851563 95.523438 -68.28125 97.578125 -71.03125 C 99.628906 -73.78125 100.65625 -76.753906 100.65625 -79.953125 C 100.65625 -83.753906 99.328125 -86.675781 96.671875 -88.71875 C 94.023438 -90.769531 90.351563 -91.796875 85.65625 -91.796875 C 81.851563 -91.796875 77.398438 -90.394531 72.296875 -87.59375 C 67.203125 -84.800781 62.453125 -81.253906 58.046875 -76.953125 Z M 62.84375 -76.34375 C 71.25 -83.550781 78.398438 -87.15625 84.296875 -87.15625 C 87.796875 -87.15625 90.59375 -86.425781 92.6875 -84.96875 C 94.789063 -83.519531 95.84375 -81.347656 95.84375 -78.453125 C 95.84375 -75.253906 94.316406 -72.300781 91.265625 -69.59375 C 88.222656 -66.894531 84.375 -64.769531 79.71875 -63.21875 C 75.070313 -61.675781 70.25 -60.90625 65.25 -60.90625 L 64.5 -60.90625 C 64.5 -62.695313 64.347656 -64.867188 64.046875 -67.421875 C 63.742188 -69.972656 63.34375 -72.945313 62.84375 -76.34375 Z M 31.796875 -77.09375 C 33.597656 -71.894531 34.5 -64.195313 34.5 -54 C 34.5 -43.894531 33.597656 -36.195313 31.796875 -30.90625 L 35.703125 -31.203125 C 36.503906 -34.003906 37.203125 -37.503906 37.796875 -41.703125 C 38.398438 -45.898438 38.703125 -50 38.703125 -54 C 38.703125 -58 38.398438 -62.097656 37.796875 -66.296875 C 37.203125 -70.492188 36.503906 -73.992188 35.703125 -76.796875 Z M 43.34375 -76.046875 C 43.75 -75.046875 44.148438 -73.367188 44.546875 -71.015625 C 44.953125 -68.671875 45.28125 -66 45.53125 -63 C 45.78125 -60 45.90625 -57 45.90625 -54 C 45.90625 -51.101563 45.78125 -48.128906 45.53125 -45.078125 C 45.28125 -42.023438 44.953125 -39.320313 44.546875 -36.96875 C 44.148438 -34.625 43.75 -32.953125 43.34375 -31.953125 L 47.546875 -32.25 C 48.347656 -35.445313 48.972656 -38.867188 49.421875 -42.515625 C 49.867188 -46.171875 50.09375 -50 50.09375 -54 C 50.09375 -58.101563 49.867188 -61.953125 49.421875 -65.546875 C 48.972656 -69.148438 48.347656 -72.550781 47.546875 -75.75 Z M 84.296875 -54 C 88.296875 -52.5 91.347656 -51.097656 93.453125 -49.796875 L 107.703125 -49.796875 C 111.003906 -49.796875 112.65625 -51.195313 112.65625 -54 C 112.65625 -56.800781 111.003906 -58.203125 107.703125 -58.203125 L 93.453125 -58.203125 C 91.347656 -56.898438 88.296875 -55.5 84.296875 -54 Z M 88.203125 -54 C 89.097656 -54.195313 90.144531 -54.46875 91.34375 -54.8125 C 92.550781 -55.164063 93.65625 -55.546875 94.65625 -55.953125 L 105.296875 -55.953125 C 106.097656 -55.953125 106.875 -55.847656 107.625 -55.640625 C 108.375 -55.441406 108.75 -54.894531 108.75 -54 C 108.75 -53.101563 108.375 -52.550781 107.625 -52.34375 C 106.875 -52.144531 106.097656 -52.046875 105.296875 -52.046875 L 94.65625 -52.046875 C 93.65625 -52.453125 92.550781 -52.828125 91.34375 -53.171875 C 90.144531 -53.523438 89.097656 -53.800781 88.203125 -54 Z M 58.046875 -31.046875 C 62.453125 -26.742188 67.203125 -23.191406 72.296875 -20.390625 C 77.398438 -17.597656 81.851563 -16.203125 85.65625 -16.203125 C 90.351563 -16.203125 94.023438 -17.25 96.671875 -19.34375 C 99.328125 -21.445313 100.65625 -24.347656 100.65625 -28.046875 C 100.65625 -31.242188 99.628906 -34.21875 97.578125 -36.96875 C 95.523438 -39.71875 92.796875 -42.144531 89.390625 -44.25 C 85.992188 -46.351563 82.195313 -47.976563 78 -49.125 C 73.800781 -50.269531 69.5 -50.84375 65.09375 -50.84375 L 60.296875 -50.84375 C 60.296875 -45.144531 59.546875 -38.546875 58.046875 -31.046875 Z M 62.84375 -31.65625 C 63.34375 -35.050781 63.742188 -38.023438 64.046875 -40.578125 C 64.347656 -43.128906 64.5 -45.300781 64.5 -47.09375 L 65.25 -47.09375 C 70.25 -47.09375 75.070313 -46.316406 79.71875 -44.765625 C 84.375 -43.222656 88.222656 -41.125 91.265625 -38.46875 C 94.316406 -35.820313 95.84375 -32.847656 95.84375 -29.546875 C 95.84375 -26.648438 94.789063 -24.472656 92.6875 -23.015625 C 90.59375 -21.566406 87.796875 -20.84375 84.296875 -20.84375 C 78.398438 -20.84375 71.25 -24.445313 62.84375 -31.65625 Z M 62.84375 -31.65625"/></symbol><g style="fill:rgb(0%,0%,0%);fill-opacity:1;"><use xlink:href="#1" x="24.000001" y="153.499091"/></g></svg>