<?xml version="1.0" encoding="UTF-8"?><svg xmlns="http://www.w3.org/2000/svg" xmlns:xlink="http://www.w3.org/1999/xlink" width="198pt" height="198pt" viewBox="0 0 198 198" version="1.1"><symbol overflow="visible" id="1"><path style="stroke:none;" d="M 132.59375 -33 C 127.695313 -33 123.195313 -33.597656 119.09375 -34.796875 C 115 -35.992188 111.898438 -37.34375 109.796875 -38.84375 C 108.796875 -39.644531 107.34375 -40.867188 105.4375 -42.515625 C 103.539063 -44.171875 101.242188 -46.347656 98.546875 -49.046875 C 95.347656 -52.242188 92.722656 -54.519531 90.671875 -55.875 C 88.617188 -57.226563 86.546875 -57.90625 84.453125 -57.90625 C 83.453125 -57.90625 82.550781 -57.800781 81.75 -57.59375 L 81.75 -57 C 82.550781 -56.894531 83.703125 -56.164063 85.203125 -54.8125 C 86.703125 -53.46875 87.75 -51.796875 88.34375 -49.796875 C 88.644531 -48.796875 88.921875 -47.46875 89.171875 -45.8125 C 89.421875 -44.164063 89.644531 -42.195313 89.84375 -39.90625 C 90.644531 -38.695313 91.742188 -37.414063 93.140625 -36.0625 C 94.546875 -34.71875 96.25 -33.296875 98.25 -31.796875 C 102.144531 -28.796875 104.09375 -26.097656 104.09375 -23.703125 C 104.09375 -21.097656 103.789063 -18.96875 103.1875 -17.3125 C 102.59375 -15.664063 101.5 -14.34375 99.90625 -13.34375 L 89.25 -6.59375 C 87.945313 -7.300781 86.320313 -8.03125 84.375 -8.78125 C 82.425781 -9.53125 80.148438 -10.351563 77.546875 -11.25 C 74.953125 -12.144531 72.753906 -13.066406 70.953125 -14.015625 C 69.148438 -14.972656 67.695313 -15.851563 66.59375 -16.65625 C 64.394531 -18.351563 61.144531 -19.800781 56.84375 -21 C 53.945313 -21.800781 51.570313 -22.578125 49.71875 -23.328125 C 47.875 -24.078125 46.273438 -25.148438 44.921875 -26.546875 C 43.578125 -27.953125 42.101563 -30.050781 40.5 -32.84375 C 37.695313 -33.75 34.644531 -34.203125 31.34375 -34.203125 C 29.75 -34.203125 28.175781 -34.097656 26.625 -33.890625 C 25.070313 -33.691406 23.5 -33.394531 21.90625 -33 L 21.90625 -36.59375 C 23.90625 -41.894531 27.40625 -45.097656 32.40625 -46.203125 L 32.40625 -47.09375 C 31.5 -47.5 29.992188 -47.800781 27.890625 -48 C 25.796875 -48.195313 24.050781 -48.296875 22.65625 -48.296875 C 21.75 -48.296875 20.84375 -48.269531 19.9375 -48.21875 C 19.039063 -48.175781 18.242188 -48.101563 17.546875 -48 L 17.546875 -53.25 C 19.242188 -56.25 21.71875 -58.648438 24.96875 -60.453125 C 28.21875 -62.253906 31.742188 -63.15625 35.546875 -63.15625 C 37.347656 -69.351563 40.523438 -75.222656 45.078125 -80.765625 C 49.628906 -86.316406 55.453125 -91.164063 62.546875 -95.3125 C 69.648438 -99.46875 77.800781 -102.5 87 -104.40625 C 93.894531 -105.800781 101.019531 -106.847656 108.375 -107.546875 C 115.726563 -108.242188 123.351563 -108.59375 131.25 -108.59375 L 132.59375 -108.59375 Z M 122.546875 -88.5 L 122.546875 -98.40625 C 114.742188 -98.40625 107.144531 -97.976563 99.75 -97.125 C 92.351563 -96.269531 85.578125 -94.941406 79.421875 -93.140625 C 73.273438 -91.347656 68.050781 -88.953125 63.75 -85.953125 C 60.550781 -83.753906 57.75 -81.503906 55.34375 -79.203125 C 52.945313 -76.898438 51 -74.550781 49.5 -72.15625 L 50.40625 -70.796875 C 54 -74.992188 57.894531 -78.46875 62.09375 -81.21875 C 66.300781 -83.96875 71.628906 -86.039063 78.078125 -87.4375 C 84.523438 -88.84375 92.800781 -89.546875 102.90625 -89.546875 C 106.695313 -89.546875 110.21875 -89.46875 113.46875 -89.3125 C 116.71875 -89.164063 119.742188 -88.894531 122.546875 -88.5 Z M 58.5 -36.296875 C 58.5 -37.597656 58 -38.847656 57 -40.046875 C 56 -41.242188 55.5 -42.492188 55.5 -43.796875 L 55.65625 -45 L 54.296875 -45 L 53.09375 -40.796875 C 53 -40.203125 52.875 -39.578125 52.71875 -38.921875 C 52.570313 -38.273438 52.5 -37.648438 52.5 -37.046875 C 52.5 -35.453125 52.820313 -34.128906 53.46875 -33.078125 C 54.125 -32.023438 54.953125 -31.5 55.953125 -31.5 L 57 -31.5 L 57.59375 -31.65625 C 58.195313 -32.445313 58.5 -33.992188 58.5 -36.296875 Z M 90.75 -21.296875 C 89.445313 -21.597656 87.84375 -22.296875 85.9375 -23.390625 C 84.039063 -24.492188 82.394531 -26.046875 81 -28.046875 L 80.25 -27.453125 C 80.445313 -24.648438 81.195313 -22.375 82.5 -20.625 C 83.800781 -18.875 85.453125 -17.75 87.453125 -17.25 C 88.253906 -17.644531 88.976563 -18.269531 89.625 -19.125 C 90.269531 -19.976563 90.644531 -20.703125 90.75 -21.296875 Z M 90.75 -21.296875"/></symbol><g style="fill:rgb(0%,0%,0%);fill-opacity:1;"><use xlink:href="#1" x="24.000001" y="153.499694"/></g></svg>