<?xml version="1.0" encoding="UTF-8"?><svg xmlns="http://www.w3.org/2000/svg" xmlns:xlink="http://www.w3.org/1999/xlink" width="198pt" height="198pt" viewBox="0 0 198 198" version="1.1"><symbol overflow="visible" id="1"><path style="stroke:none;" d="M 99.59375 -115.046875 C 99.59375 -110.148438 98.992188 -105.648438 97.796875 -101.546875 C 96.597656 -97.453125 95.25 -94.351563 93.75 -92.25 C 93.050781 -91.25 91.847656 -89.796875 90.140625 -87.890625 C 88.441406 -85.992188 86.242188 -83.695313 83.546875 -81 C 80.347656 -77.800781 78.070313 -75.175781 76.71875 -73.125 C 75.375 -71.070313 74.703125 -69 74.703125 -66.90625 C 74.703125 -65.90625 74.800781 -65.003906 75 -64.203125 L 75.59375 -64.203125 C 75.800781 -65.003906 76.550781 -66.15625 77.84375 -67.65625 C 79.144531 -69.15625 80.796875 -70.203125 82.796875 -70.796875 C 83.796875 -71.097656 85.117188 -71.375 86.765625 -71.625 C 88.421875 -71.875 90.398438 -72.097656 92.703125 -72.296875 C 93.898438 -73.097656 95.171875 -74.195313 96.515625 -75.59375 C 97.867188 -77 99.296875 -78.703125 100.796875 -80.703125 C 103.796875 -84.597656 106.5 -86.546875 108.90625 -86.546875 C 111.5 -86.546875 113.617188 -86.242188 115.265625 -85.640625 C 116.921875 -85.046875 118.25 -83.945313 119.25 -82.34375 L 126 -71.703125 C 125.300781 -70.398438 124.578125 -68.773438 123.828125 -66.828125 C 123.078125 -64.878906 122.25 -62.601563 121.34375 -60 C 120.445313 -57.394531 119.523438 -55.191406 118.578125 -53.390625 C 117.628906 -51.597656 116.753906 -50.148438 115.953125 -49.046875 C 114.253906 -46.847656 112.800781 -43.597656 111.59375 -39.296875 C 110.800781 -36.398438 110.03125 -34.023438 109.28125 -32.171875 C 108.53125 -30.328125 107.453125 -28.726563 106.046875 -27.375 C 104.648438 -26.019531 102.550781 -24.546875 99.75 -22.953125 C 98.851563 -20.148438 98.40625 -17.097656 98.40625 -13.796875 C 98.40625 -12.203125 98.503906 -10.628906 98.703125 -9.078125 C 98.898438 -7.523438 99.195313 -5.945313 99.59375 -4.34375 L 96 -4.34375 C 90.695313 -6.34375 87.5 -9.84375 86.40625 -14.84375 L 85.5 -14.84375 C 85.101563 -13.945313 84.800781 -12.445313 84.59375 -10.34375 C 84.394531 -8.25 84.296875 -6.5 84.296875 -5.09375 C 84.296875 -4.195313 84.320313 -3.296875 84.375 -2.390625 C 84.425781 -1.492188 84.5 -0.695313 84.59375 0 L 79.34375 0 C 76.34375 -1.695313 73.941406 -4.171875 72.140625 -7.421875 C 70.347656 -10.671875 69.453125 -14.195313 69.453125 -18 C 63.347656 -19.800781 57.492188 -22.972656 51.890625 -27.515625 C 46.296875 -32.066406 41.421875 -37.894531 37.265625 -45 C 33.117188 -52.101563 30.097656 -60.253906 28.203125 -69.453125 C 26.796875 -76.347656 25.742188 -83.46875 25.046875 -90.8125 C 24.347656 -98.164063 24 -105.796875 24 -113.703125 L 24 -115.046875 Z M 44.09375 -105 L 34.203125 -105 C 34.203125 -97.195313 34.597656 -89.59375 35.390625 -82.1875 C 36.191406 -74.789063 37.519531 -68.019531 39.375 -61.875 C 41.226563 -55.726563 43.65625 -50.503906 46.65625 -46.203125 C 48.945313 -43.003906 51.21875 -40.203125 53.46875 -37.796875 C 55.71875 -35.398438 58.046875 -33.453125 60.453125 -31.953125 L 61.796875 -32.84375 C 57.703125 -36.445313 54.253906 -40.347656 51.453125 -44.546875 C 48.648438 -48.742188 46.546875 -54.066406 45.140625 -60.515625 C 43.742188 -66.972656 43.046875 -75.25 43.046875 -85.34375 C 43.046875 -89.144531 43.117188 -92.671875 43.265625 -95.921875 C 43.421875 -99.171875 43.695313 -102.195313 44.09375 -105 Z M 111.296875 -73.203125 C 110.992188 -71.898438 110.289063 -70.296875 109.1875 -68.390625 C 108.09375 -66.492188 106.546875 -64.847656 104.546875 -63.453125 L 105.15625 -62.703125 C 107.945313 -62.898438 110.21875 -63.648438 111.96875 -64.953125 C 113.71875 -66.253906 114.84375 -67.90625 115.34375 -69.90625 C 114.945313 -70.695313 114.320313 -71.414063 113.46875 -72.0625 C 112.625 -72.71875 111.898438 -73.097656 111.296875 -73.203125 Z M 96.296875 -40.953125 C 94.992188 -40.953125 93.742188 -40.453125 92.546875 -39.453125 C 91.347656 -38.453125 90.097656 -37.953125 88.796875 -37.953125 L 87.59375 -38.09375 L 87.59375 -36.75 L 91.796875 -35.546875 C 92.398438 -35.453125 93.023438 -35.328125 93.671875 -35.171875 C 94.328125 -35.023438 94.953125 -34.953125 95.546875 -34.953125 C 97.242188 -34.953125 98.59375 -35.273438 99.59375 -35.921875 C 100.59375 -36.578125 101.09375 -37.40625 101.09375 -38.40625 L 101.09375 -39.453125 L 100.953125 -40.046875 C 100.253906 -40.648438 98.703125 -40.953125 96.296875 -40.953125 Z M 96.296875 -40.953125"/></symbol><g style="fill:rgb(0%,0%,0%);fill-opacity:1;"><use xlink:href="#1" x="24.000001" y="153.499418"/></g></svg>