<?xml version="1.0" encoding="UTF-8"?><svg xmlns="http://www.w3.org/2000/svg" xmlns:xlink="http://www.w3.org/1999/xlink" width="198pt" height="198pt" viewBox="0 0 198 198" version="1.1"><symbol overflow="visible" id="1"><path style="stroke:none;" d="M 87.453125 -5.703125 C 84.046875 -9.203125 81.316406 -12.828125 79.265625 -16.578125 C 77.222656 -20.328125 75.953125 -23.453125 75.453125 -25.953125 C 75.253906 -27.253906 75.078125 -29.15625 74.921875 -31.65625 C 74.773438 -34.15625 74.703125 -37.300781 74.703125 -41.09375 C 74.703125 -45.695313 74.5 -49.222656 74.09375 -51.671875 C 73.695313 -54.117188 72.648438 -55.992188 70.953125 -57.296875 L 68.84375 -58.953125 L 68.40625 -58.5 C 68.601563 -58.101563 68.800781 -57.550781 69 -56.84375 C 69.195313 -56.144531 69.296875 -55.347656 69.296875 -54.453125 C 69.296875 -52.648438 68.847656 -50.75 67.953125 -48.75 C 67.546875 -47.851563 66.816406 -46.703125 65.765625 -45.296875 C 64.722656 -43.898438 63.5 -42.398438 62.09375 -40.796875 C 61.800781 -39.597656 61.65625 -38.148438 61.65625 -36.453125 C 61.65625 -35.453125 61.726563 -34.300781 61.875 -33 C 62.019531 -31.695313 62.144531 -30.5 62.25 -29.40625 C 62.445313 -28 62.546875 -26.75 62.546875 -25.65625 C 62.546875 -22.851563 61.894531 -20.703125 60.59375 -19.203125 C 57.894531 -16.203125 55.144531 -14.703125 52.34375 -14.703125 C 52.050781 -14.703125 51.726563 -14.703125 51.375 -14.703125 C 51.019531 -14.703125 50.695313 -14.75 50.40625 -14.84375 L 38.09375 -17.546875 C 37.695313 -18.953125 37.097656 -20.65625 36.296875 -22.65625 C 35.492188 -24.65625 34.445313 -26.851563 33.15625 -29.25 C 31.851563 -31.75 30.898438 -33.972656 30.296875 -35.921875 C 29.703125 -37.867188 29.300781 -39.492188 29.09375 -40.796875 C 29 -42.097656 28.625 -43.597656 27.96875 -45.296875 C 27.320313 -46.992188 26.445313 -48.796875 25.34375 -50.703125 C 23.84375 -53.296875 22.71875 -55.46875 21.96875 -57.21875 C 21.21875 -58.96875 20.84375 -60.84375 20.84375 -62.84375 C 20.84375 -64.945313 21.296875 -67.550781 22.203125 -70.65625 C 20.796875 -73.550781 18.945313 -76.050781 16.65625 -78.15625 C 14.351563 -80.351563 11.851563 -82.25 9.15625 -83.84375 L 11.703125 -86.40625 C 14.203125 -87.5 16.5 -88.046875 18.59375 -88.046875 C 21.195313 -88.046875 23.597656 -87.296875 25.796875 -85.796875 L 26.546875 -86.40625 C 26.148438 -87.300781 25.273438 -88.570313 23.921875 -90.21875 C 22.578125 -91.875 21.40625 -93.203125 20.40625 -94.203125 C 19.300781 -95.503906 18.050781 -96.65625 16.65625 -97.65625 L 20.40625 -101.25 C 21.195313 -101.445313 21.992188 -101.617188 22.796875 -101.765625 C 23.597656 -101.921875 24.398438 -102 25.203125 -102 C 30.796875 -102 35.742188 -99.847656 40.046875 -95.546875 C 46.953125 -99.453125 55.101563 -101.40625 64.5 -101.40625 C 71 -101.40625 77.722656 -100.351563 84.671875 -98.25 C 91.617188 -96.144531 98.59375 -92.84375 105.59375 -88.34375 C 111.5 -84.550781 117.300781 -80.28125 123 -75.53125 C 128.695313 -70.78125 134.347656 -65.601563 139.953125 -60 L 140.84375 -59.09375 Z M 117.453125 -49.796875 L 124.34375 -56.84375 C 120.25 -61.050781 116.050781 -64.953125 111.75 -68.546875 C 107.445313 -72.148438 103.097656 -75.5 98.703125 -78.59375 C 92.097656 -83.195313 85.796875 -86.398438 79.796875 -88.203125 C 73.796875 -90.003906 68.296875 -90.90625 63.296875 -90.90625 C 59.898438 -90.90625 56.851563 -90.601563 54.15625 -90 L 53.84375 -88.34375 C 54.84375 -88.445313 55.816406 -88.523438 56.765625 -88.578125 C 57.722656 -88.628906 58.648438 -88.65625 59.546875 -88.65625 C 64.148438 -88.65625 68.648438 -87.976563 73.046875 -86.625 C 77.453125 -85.269531 82.15625 -82.84375 87.15625 -79.34375 C 92.15625 -75.84375 97.851563 -70.894531 104.25 -64.5 C 106.851563 -61.894531 109.28125 -59.367188 111.53125 -56.921875 C 113.78125 -54.472656 115.753906 -52.097656 117.453125 -49.796875 Z M 33.453125 -57.75 C 34.347656 -57.75 35.644531 -58.597656 37.34375 -60.296875 C 38.34375 -61.296875 38.84375 -62.546875 38.84375 -64.046875 C 38.84375 -64.742188 38.96875 -65.441406 39.21875 -66.140625 C 39.46875 -66.847656 39.894531 -67.398438 40.5 -67.796875 L 41.40625 -68.546875 L 40.5 -69.453125 L 36.75 -67.34375 C 36.25 -67.050781 35.722656 -66.726563 35.171875 -66.375 C 34.617188 -66.019531 34.09375 -65.59375 33.59375 -65.09375 C 32.09375 -63.59375 31.34375 -62.144531 31.34375 -60.75 C 31.34375 -59.945313 31.59375 -59.296875 32.09375 -58.796875 L 32.84375 -58.046875 Z M 46.203125 -26.09375 C 47.597656 -26.09375 48.695313 -26.394531 49.5 -27 C 48.894531 -27.894531 48.34375 -29.09375 47.84375 -30.59375 C 47.34375 -32.09375 47.09375 -33.796875 47.09375 -35.703125 C 47.09375 -36.203125 47.117188 -36.703125 47.171875 -37.203125 C 47.222656 -37.703125 47.300781 -38.203125 47.40625 -38.703125 L 46.5 -38.703125 C 44.195313 -36.097656 43.046875 -33.546875 43.046875 -31.046875 C 43.046875 -29.453125 43.5 -27.90625 44.40625 -26.40625 C 44.695313 -26.300781 44.992188 -26.222656 45.296875 -26.171875 C 45.597656 -26.117188 45.898438 -26.09375 46.203125 -26.09375 Z M 46.203125 -26.09375"/></symbol><g style="fill:rgb(0%,0%,0%);fill-opacity:1;"><use xlink:href="#1" x="24.000001" y="153.499812"/></g></svg>