<?xml version="1.0" encoding="UTF-8"?><svg xmlns="http://www.w3.org/2000/svg" xmlns:xlink="http://www.w3.org/1999/xlink" width="198pt" height="198pt" viewBox="0 0 198 198" version="1.1"><symbol overflow="visible" id="1"><path style="stroke:none;" d="M 127.046875 -111.15625 L 127.046875 -96.59375 C 125.453125 -95.195313 123.203125 -94.023438 120.296875 -93.078125 C 117.398438 -92.128906 114.203125 -91.65625 110.703125 -91.65625 L 89.09375 -91.65625 C 86.800781 -91.65625 85.050781 -91.476563 83.84375 -91.125 C 82.644531 -90.769531 82.046875 -89.796875 82.046875 -88.203125 C 93.546875 -87.503906 99.296875 -85.050781 99.296875 -80.84375 C 99.296875 -80.25 99.144531 -79.648438 98.84375 -79.046875 L 93.59375 -65.546875 C 97.09375 -63.347656 99.867188 -60.171875 101.921875 -56.015625 C 103.972656 -51.867188 105 -47.445313 105 -42.75 C 105 -36.351563 102.695313 -30.15625 98.09375 -24.15625 C 93.5 -18.15625 87.203125 -12.90625 79.203125 -8.40625 C 82.003906 -6.800781 83.40625 -4.347656 83.40625 -1.046875 C 83.40625 1.253906 82.578125 3.226563 80.921875 4.875 C 79.273438 6.519531 77.300781 7.34375 75 7.34375 C 72.695313 7.34375 70.71875 6.519531 69.0625 4.875 C 67.414063 3.226563 66.59375 1.253906 66.59375 -1.046875 C 66.59375 -4.347656 67.992188 -6.800781 70.796875 -8.40625 C 62.796875 -12.90625 56.492188 -18.15625 51.890625 -24.15625 C 47.296875 -30.15625 45 -36.351563 45 -42.75 C 45 -47.445313 46.023438 -51.867188 48.078125 -56.015625 C 50.128906 -60.171875 52.90625 -63.347656 56.40625 -65.546875 L 51.15625 -79.046875 C 50.851563 -79.648438 50.703125 -80.25 50.703125 -80.84375 C 50.703125 -85.050781 56.453125 -87.503906 67.953125 -88.203125 C 67.953125 -89.796875 67.347656 -90.769531 66.140625 -91.125 C 64.941406 -91.476563 63.195313 -91.65625 60.90625 -91.65625 L 39.296875 -91.65625 C 35.796875 -91.65625 32.59375 -92.128906 29.6875 -93.078125 C 26.789063 -94.023438 24.546875 -95.195313 22.953125 -96.59375 L 22.953125 -111.15625 L 26.703125 -111.15625 C 27.398438 -106.851563 31.195313 -104.703125 38.09375 -104.703125 L 66.15625 -104.703125 C 70.550781 -104.703125 73.5 -103.351563 75 -100.65625 C 76.5 -103.351563 79.445313 -104.703125 83.84375 -104.703125 L 111.90625 -104.703125 C 118.800781 -104.703125 122.597656 -106.851563 123.296875 -111.15625 Z M 75 -83.40625 C 72.195313 -83.40625 69.820313 -83.328125 67.875 -83.171875 C 65.925781 -83.023438 64.300781 -82.851563 63 -82.65625 C 60.394531 -82.15625 59.09375 -81.550781 59.09375 -80.84375 C 59.09375 -80.144531 60.492188 -79.5 63.296875 -78.90625 C 64.703125 -78.601563 66.378906 -78.398438 68.328125 -78.296875 C 70.273438 -78.203125 72.5 -78.15625 75 -78.15625 C 77.5 -78.15625 79.722656 -78.203125 81.671875 -78.296875 C 83.617188 -78.398438 85.296875 -78.601563 86.703125 -78.90625 C 89.503906 -79.5 90.90625 -80.144531 90.90625 -80.84375 C 90.90625 -81.550781 89.601563 -82.15625 87 -82.65625 C 85.695313 -82.851563 84.070313 -83.023438 82.125 -83.171875 C 80.175781 -83.328125 77.800781 -83.40625 75 -83.40625 Z M 89.546875 -74.84375 C 86.648438 -73.84375 81.800781 -73.34375 75 -73.34375 C 68.195313 -73.34375 63.347656 -73.84375 60.453125 -74.84375 L 62.703125 -69.296875 C 64.898438 -69.703125 66.972656 -70.003906 68.921875 -70.203125 C 70.867188 -70.398438 72.894531 -70.5 75 -70.5 C 77.101563 -70.5 79.128906 -70.398438 81.078125 -70.203125 C 83.023438 -70.003906 85.097656 -69.703125 87.296875 -69.296875 Z M 77.546875 -60 L 72.453125 -60 L 72.453125 -33.296875 L 60.453125 -33.296875 L 60.453125 -28.5 L 72.453125 -28.5 L 72.453125 -16.5 L 77.546875 -16.5 L 77.546875 -28.5 L 89.546875 -28.5 L 89.546875 -33.296875 L 77.546875 -33.296875 Z M 77.546875 -60"/></symbol><g style="fill:rgb(0%,0%,0%);fill-opacity:1;"><use xlink:href="#1" x="24.000001" y="153.499405"/></g></svg>