<?xml version="1.0" encoding="UTF-8"?><svg xmlns="http://www.w3.org/2000/svg" xmlns:xlink="http://www.w3.org/1999/xlink" width="198pt" height="198pt" viewBox="0 0 198 198" version="1.1"><symbol overflow="visible" id="1"><path style="stroke:none;" d="M 134.25 0.15625 L 119.703125 0.15625 C 118.296875 -1.445313 117.117188 -3.695313 116.171875 -6.59375 C 115.222656 -9.5 114.75 -12.703125 114.75 -16.203125 L 114.75 -37.796875 C 114.75 -40.097656 114.570313 -41.847656 114.21875 -43.046875 C 113.875 -44.242188 112.898438 -44.84375 111.296875 -44.84375 C 110.597656 -33.34375 108.148438 -27.59375 103.953125 -27.59375 C 103.347656 -27.59375 102.75 -27.742188 102.15625 -28.046875 L 88.65625 -33.296875 C 86.445313 -29.796875 83.269531 -27.019531 79.125 -24.96875 C 74.976563 -22.925781 70.550781 -21.90625 65.84375 -21.90625 C 59.445313 -21.90625 53.25 -24.203125 47.25 -28.796875 C 41.25 -33.398438 36 -39.703125 31.5 -47.703125 C 29.894531 -44.898438 27.445313 -43.5 24.15625 -43.5 C 21.851563 -43.5 19.875 -44.320313 18.21875 -45.96875 C 16.570313 -47.625 15.75 -49.601563 15.75 -51.90625 C 15.75 -54.195313 16.570313 -56.164063 18.21875 -57.8125 C 19.875 -59.46875 21.851563 -60.296875 24.15625 -60.296875 C 27.445313 -60.296875 29.894531 -58.894531 31.5 -56.09375 C 36 -64.09375 41.25 -70.394531 47.25 -75 C 53.25 -79.601563 59.445313 -81.90625 65.84375 -81.90625 C 70.550781 -81.90625 74.976563 -80.878906 79.125 -78.828125 C 83.269531 -76.773438 86.445313 -74 88.65625 -70.5 L 102.15625 -75.75 C 102.75 -76.050781 103.347656 -76.203125 103.953125 -76.203125 C 108.148438 -76.203125 110.597656 -70.453125 111.296875 -58.953125 C 112.898438 -58.953125 113.875 -59.550781 114.21875 -60.75 C 114.570313 -61.945313 114.75 -63.695313 114.75 -66 L 114.75 -87.59375 C 114.75 -91.09375 115.222656 -94.289063 116.171875 -97.1875 C 117.117188 -100.09375 118.296875 -102.347656 119.703125 -103.953125 L 134.25 -103.953125 L 134.25 -100.203125 C 129.945313 -99.503906 127.796875 -95.703125 127.796875 -88.796875 L 127.796875 -60.75 C 127.796875 -56.351563 126.445313 -53.40625 123.75 -51.90625 C 126.445313 -50.40625 127.796875 -47.453125 127.796875 -43.046875 L 127.796875 -15 C 127.796875 -8.101563 129.945313 -4.300781 134.25 -3.59375 Z M 106.5 -51.90625 C 106.5 -54.695313 106.421875 -57.066406 106.265625 -59.015625 C 106.117188 -60.972656 105.945313 -62.601563 105.75 -63.90625 C 105.25 -66.5 104.648438 -67.796875 103.953125 -67.796875 C 103.253906 -67.796875 102.601563 -66.394531 102 -63.59375 C 101.695313 -62.195313 101.492188 -60.523438 101.390625 -58.578125 C 101.296875 -56.628906 101.25 -54.40625 101.25 -51.90625 C 101.25 -49.40625 101.296875 -47.175781 101.390625 -45.21875 C 101.492188 -43.269531 101.695313 -41.597656 102 -40.203125 C 102.601563 -37.398438 103.253906 -36 103.953125 -36 C 104.648438 -36 105.25 -37.300781 105.75 -39.90625 C 105.945313 -41.195313 106.117188 -42.816406 106.265625 -44.765625 C 106.421875 -46.722656 106.5 -49.101563 106.5 -51.90625 Z M 97.953125 -37.34375 C 96.953125 -40.25 96.453125 -45.101563 96.453125 -51.90625 C 96.453125 -58.695313 96.953125 -63.546875 97.953125 -66.453125 L 92.40625 -64.203125 C 92.800781 -62.003906 93.097656 -59.925781 93.296875 -57.96875 C 93.492188 -56.019531 93.59375 -54 93.59375 -51.90625 C 93.59375 -49.800781 93.492188 -47.773438 93.296875 -45.828125 C 93.097656 -43.878906 92.800781 -41.800781 92.40625 -39.59375 Z M 83.09375 -49.34375 L 83.09375 -54.453125 L 56.40625 -54.453125 L 56.40625 -66.453125 L 51.59375 -66.453125 L 51.59375 -54.453125 L 39.59375 -54.453125 L 39.59375 -49.34375 L 51.59375 -49.34375 L 51.59375 -37.34375 L 56.40625 -37.34375 L 56.40625 -49.34375 Z M 83.09375 -49.34375"/></symbol><g style="fill:rgb(0%,0%,0%);fill-opacity:1;"><use xlink:href="#1" x="24.000001" y="153.49968"/></g></svg>