<?xml version="1.0" encoding="UTF-8"?><svg xmlns="http://www.w3.org/2000/svg" xmlns:xlink="http://www.w3.org/1999/xlink" width="198pt" height="198pt" viewBox="0 0 198 198" version="1.1"><symbol overflow="visible" id="1"><path style="stroke:none;" d="M 17.40625 -82.203125 C 22.300781 -82.203125 26.796875 -81.597656 30.890625 -80.390625 C 34.992188 -79.191406 38.097656 -77.84375 40.203125 -76.34375 C 41.296875 -75.644531 42.769531 -74.445313 44.625 -72.75 C 46.476563 -71.050781 48.753906 -68.851563 51.453125 -66.15625 C 54.648438 -62.945313 57.273438 -60.664063 59.328125 -59.3125 C 61.378906 -57.96875 63.453125 -57.296875 65.546875 -57.296875 C 66.546875 -57.296875 67.445313 -57.394531 68.25 -57.59375 L 68.25 -58.203125 C 67.445313 -58.398438 66.296875 -59.148438 64.796875 -60.453125 C 63.296875 -61.753906 62.25 -63.40625 61.65625 -65.40625 C 61.351563 -66.40625 61.078125 -67.726563 60.828125 -69.375 C 60.578125 -71.019531 60.351563 -72.992188 60.15625 -75.296875 C 59.351563 -76.492188 58.25 -77.769531 56.84375 -79.125 C 55.445313 -80.476563 53.75 -81.90625 51.75 -83.40625 C 47.851563 -86.40625 45.90625 -89.101563 45.90625 -91.5 C 45.90625 -94.101563 46.203125 -96.226563 46.796875 -97.875 C 47.398438 -99.519531 48.5 -100.84375 50.09375 -101.84375 L 60.75 -108.59375 C 62.050781 -107.894531 63.703125 -107.171875 65.703125 -106.421875 C 67.703125 -105.671875 69.953125 -104.847656 72.453125 -103.953125 C 75.046875 -103.046875 77.269531 -102.117188 79.125 -101.171875 C 80.976563 -100.222656 82.40625 -99.347656 83.40625 -98.546875 C 85.601563 -96.847656 88.851563 -95.398438 93.15625 -94.203125 C 96.050781 -93.398438 98.421875 -92.625 100.265625 -91.875 C 102.117188 -91.125 103.742188 -90.046875 105.140625 -88.640625 C 106.546875 -87.242188 108 -85.144531 109.5 -82.34375 C 112.394531 -81.445313 115.445313 -81 118.65625 -81 C 120.25 -81 121.820313 -81.097656 123.375 -81.296875 C 124.925781 -81.492188 126.5 -81.796875 128.09375 -82.203125 L 128.09375 -78.59375 C 126.09375 -73.300781 122.59375 -70.101563 117.59375 -69 L 117.59375 -68.09375 C 118.5 -67.695313 120 -67.398438 122.09375 -67.203125 C 124.195313 -67.003906 125.945313 -66.90625 127.34375 -66.90625 C 128.25 -66.90625 129.148438 -66.925781 130.046875 -66.96875 C 130.953125 -67.019531 131.753906 -67.097656 132.453125 -67.203125 L 132.453125 -61.953125 C 130.847656 -58.953125 128.394531 -56.550781 125.09375 -54.75 C 121.800781 -52.945313 118.253906 -52.046875 114.453125 -52.046875 C 112.753906 -45.953125 109.601563 -40.101563 105 -34.5 C 100.394531 -28.894531 94.539063 -24.019531 87.4375 -19.875 C 80.34375 -15.726563 72.195313 -12.703125 63 -10.796875 C 56.101563 -9.398438 48.976563 -8.347656 41.625 -7.640625 C 34.269531 -6.941406 26.644531 -6.59375 18.75 -6.59375 L 17.40625 -6.59375 Z M 59.25 -93.90625 C 60.644531 -93.601563 62.269531 -92.898438 64.125 -91.796875 C 65.976563 -90.703125 67.601563 -89.15625 69 -87.15625 L 69.75 -87.75 C 69.644531 -90.550781 68.914063 -92.828125 67.5625 -94.578125 C 66.21875 -96.328125 64.546875 -97.453125 62.546875 -97.953125 C 61.742188 -97.546875 61.019531 -96.914063 60.375 -96.0625 C 59.726563 -95.21875 59.351563 -94.5 59.25 -93.90625 Z M 91.5 -78.90625 C 91.5 -77.601563 92 -76.351563 93 -75.15625 C 94 -73.945313 94.5 -72.695313 94.5 -71.40625 L 94.34375 -70.203125 L 95.703125 -70.203125 L 96.90625 -74.40625 C 97.101563 -75 97.25 -75.617188 97.34375 -76.265625 C 97.445313 -76.921875 97.5 -77.550781 97.5 -78.15625 C 97.5 -79.851563 97.195313 -81.203125 96.59375 -82.203125 C 96 -83.203125 95.148438 -83.703125 94.046875 -83.703125 L 93 -83.703125 L 92.40625 -83.546875 C 91.800781 -82.847656 91.5 -81.300781 91.5 -78.90625 Z M 27.453125 -26.703125 L 27.453125 -16.796875 C 35.253906 -16.796875 42.851563 -17.21875 50.25 -18.0625 C 57.644531 -18.914063 64.441406 -20.242188 70.640625 -22.046875 C 76.847656 -23.847656 82.050781 -26.25 86.25 -29.25 C 89.445313 -31.550781 92.242188 -33.828125 94.640625 -36.078125 C 97.046875 -38.328125 99 -40.648438 100.5 -43.046875 L 99.59375 -44.40625 C 96.09375 -40.195313 92.21875 -36.71875 87.96875 -33.96875 C 83.71875 -31.21875 78.394531 -29.144531 72 -27.75 C 65.601563 -26.351563 57.300781 -25.65625 47.09375 -25.65625 C 43.394531 -25.65625 39.894531 -25.726563 36.59375 -25.875 C 33.300781 -26.019531 30.253906 -26.296875 27.453125 -26.703125 Z M 27.453125 -26.703125"/></symbol><g style="fill:rgb(0%,0%,0%);fill-opacity:1;"><use xlink:href="#1" x="24.000001" y="153.499143"/></g></svg>