<?xml version="1.0" encoding="UTF-8"?><svg xmlns="http://www.w3.org/2000/svg" xmlns:xlink="http://www.w3.org/1999/xlink" width="198pt" height="198pt" viewBox="0 0 198 198" version="1.1"><symbol overflow="visible" id="1"><path style="stroke:none;" d="M 131.703125 -9.59375 L 126.15625 -9.59375 C 118.351563 -9.59375 111.175781 -10.816406 104.625 -13.265625 C 98.070313 -15.722656 92.46875 -19.203125 87.8125 -23.703125 C 83.164063 -28.203125 79.796875 -33.5 77.703125 -39.59375 C 73.296875 -32.800781 67.644531 -29.40625 60.75 -29.40625 C 55.550781 -29.40625 50.972656 -31.050781 47.015625 -34.34375 C 43.066406 -37.644531 40.144531 -42.347656 38.25 -48.453125 C 37.550781 -46.347656 36.328125 -44.671875 34.578125 -43.421875 C 32.828125 -42.171875 30.800781 -41.546875 28.5 -41.546875 C 25.394531 -41.546875 22.941406 -42.921875 21.140625 -45.671875 C 19.347656 -48.421875 18.453125 -52.097656 18.453125 -56.703125 C 18.453125 -61.296875 19.347656 -64.96875 21.140625 -67.71875 C 22.941406 -70.46875 25.394531 -71.84375 28.5 -71.84375 C 30.800781 -71.84375 32.828125 -71.191406 34.578125 -69.890625 C 36.328125 -68.597656 37.550781 -66.953125 38.25 -64.953125 C 40.144531 -70.953125 43.066406 -75.625 47.015625 -78.96875 C 50.972656 -82.320313 55.550781 -84 60.75 -84 C 67.644531 -84 73.296875 -80.597656 77.703125 -73.796875 C 79.796875 -79.992188 83.164063 -85.34375 87.8125 -89.84375 C 92.46875 -94.34375 98.09375 -97.789063 104.6875 -100.1875 C 111.289063 -102.59375 118.445313 -103.796875 126.15625 -103.796875 L 131.703125 -103.796875 Z M 35.09375 -48.453125 C 34.09375 -47.148438 32.09375 -46.5 29.09375 -46.5 C 26 -46.5 23.550781 -47.945313 21.75 -50.84375 C 21.75 -49.75 22.472656 -48.453125 23.921875 -46.953125 C 25.367188 -45.453125 27.144531 -44.703125 29.25 -44.703125 C 30.644531 -44.703125 31.941406 -45.097656 33.140625 -45.890625 C 34.347656 -46.691406 35 -47.546875 35.09375 -48.453125 Z M 72.296875 -42.59375 C 70.398438 -41.300781 68.550781 -40.328125 66.75 -39.671875 C 64.945313 -39.023438 62.644531 -38.703125 59.84375 -38.703125 C 52.945313 -38.703125 47.648438 -41.648438 43.953125 -47.546875 C 44.046875 -45.847656 44.816406 -44 46.265625 -42 C 47.722656 -40 49.648438 -38.320313 52.046875 -36.96875 C 54.453125 -35.625 57.101563 -34.953125 60 -34.953125 C 62.894531 -34.953125 65.492188 -35.75 67.796875 -37.34375 C 70.097656 -38.945313 71.597656 -40.695313 72.296875 -42.59375 Z M 122.40625 -17.40625 L 122.40625 -22.5 L 120.296875 -22.5 C 111.796875 -22.800781 104.921875 -24.222656 99.671875 -26.765625 C 94.421875 -29.316406 90.195313 -32.796875 87 -37.203125 C 89 -31.097656 92.898438 -26.269531 98.703125 -22.71875 C 104.503906 -19.175781 111.203125 -17.40625 118.796875 -17.40625 Z M 122.40625 -17.40625"/></symbol><g style="fill:rgb(0%,0%,0%);fill-opacity:1;"><use xlink:href="#1" x="24.000001" y="153.499707"/></g></svg>