<?xml version="1.0" encoding="UTF-8"?><svg xmlns="http://www.w3.org/2000/svg" xmlns:xlink="http://www.w3.org/1999/xlink" width="198pt" height="198pt" viewBox="0 0 198 198" version="1.1"><symbol overflow="visible" id="1"><path style="stroke:none;" d="M 135.15625 -55.046875 C 135.15625 -50.453125 134.953125 -46.300781 134.546875 -42.59375 C 134.148438 -38.894531 133.550781 -35.695313 132.75 -33 C 131.25 -27.601563 129.148438 -24.90625 126.453125 -24.90625 L 94.203125 -25.34375 L 52.34375 -11.546875 C 52.445313 -11.242188 52.523438 -10.867188 52.578125 -10.421875 C 52.628906 -9.972656 52.65625 -9.445313 52.65625 -8.84375 C 52.65625 -6.050781 51.675781 -3.675781 49.71875 -1.71875 C 47.769531 0.226563 45.25 1.203125 42.15625 1.203125 C 39.351563 1.203125 37 0.203125 35.09375 -1.796875 C 33.195313 -3.796875 32.25 -6.195313 32.25 -9 C 32.25 -11.894531 33.222656 -14.316406 35.171875 -16.265625 C 37.117188 -18.222656 39.546875 -19.203125 42.453125 -19.203125 C 44.148438 -19.203125 45.796875 -18.800781 47.390625 -18 C 48.992188 -17.195313 50.195313 -16.097656 51 -14.703125 L 84.15625 -34.34375 L 40.34375 -30 L 40.34375 -29.703125 C 40.34375 -27.097656 39.367188 -24.769531 37.421875 -22.71875 C 35.472656 -20.675781 33.050781 -19.65625 30.15625 -19.65625 C 27.351563 -19.65625 24.925781 -20.628906 22.875 -22.578125 C 20.820313 -24.523438 19.796875 -26.898438 19.796875 -29.703125 C 19.796875 -32.503906 20.769531 -34.925781 22.71875 -36.96875 C 24.675781 -39.019531 27.101563 -40.046875 30 -40.046875 C 32.195313 -40.046875 34.171875 -39.46875 35.921875 -38.3125 C 37.671875 -37.164063 38.894531 -35.546875 39.59375 -33.453125 L 82.34375 -47.546875 L 35.25 -53.25 C 34.851563 -50.945313 33.726563 -48.96875 31.875 -47.3125 C 30.019531 -45.664063 27.796875 -44.84375 25.203125 -44.84375 C 22.398438 -44.84375 20 -45.84375 18 -47.84375 C 16 -49.84375 15 -52.242188 15 -55.046875 C 15 -57.847656 15.972656 -60.25 17.921875 -62.25 C 19.867188 -64.25 22.296875 -65.25 25.203125 -65.25 C 27.796875 -65.25 30.019531 -64.421875 31.875 -62.765625 C 33.726563 -61.117188 34.851563 -59.144531 35.25 -56.84375 L 82.34375 -62.546875 L 39.59375 -76.65625 C 38.894531 -74.550781 37.671875 -72.921875 35.921875 -71.765625 C 34.171875 -70.617188 32.195313 -70.046875 30 -70.046875 C 27.101563 -70.046875 24.675781 -71.070313 22.71875 -73.125 C 20.769531 -75.175781 19.796875 -77.601563 19.796875 -80.40625 C 19.796875 -83.300781 20.820313 -85.695313 22.875 -87.59375 C 24.925781 -89.5 27.351563 -90.453125 30.15625 -90.453125 C 32.945313 -90.453125 35.34375 -89.425781 37.34375 -87.375 C 39.34375 -85.320313 40.34375 -83 40.34375 -80.40625 L 40.34375 -80.09375 L 84.15625 -75.75 L 51 -95.40625 C 50.195313 -94.101563 48.992188 -93.023438 47.390625 -92.171875 C 45.796875 -91.328125 44.148438 -90.90625 42.453125 -90.90625 C 39.546875 -90.90625 37.117188 -91.878906 35.171875 -93.828125 C 33.222656 -95.773438 32.25 -98.195313 32.25 -101.09375 C 32.25 -104 33.195313 -106.425781 35.09375 -108.375 C 37 -110.320313 39.351563 -111.296875 42.15625 -111.296875 C 45.351563 -111.296875 47.898438 -110.320313 49.796875 -108.375 C 51.703125 -106.425781 52.65625 -104.050781 52.65625 -101.25 C 52.65625 -100.644531 52.628906 -100.117188 52.578125 -99.671875 C 52.523438 -99.222656 52.445313 -98.847656 52.34375 -98.546875 L 94.203125 -84.75 L 126.453125 -85.203125 C 129.253906 -85.203125 131.40625 -82.5 132.90625 -77.09375 C 134.40625 -71.695313 135.15625 -64.347656 135.15625 -55.046875 Z M 44.84375 -98.40625 C 44.84375 -99.5 44.492188 -100.394531 43.796875 -101.09375 C 43.097656 -101.800781 42.195313 -102.15625 41.09375 -102.15625 C 40.09375 -102.15625 39.21875 -101.800781 38.46875 -101.09375 C 37.71875 -100.394531 37.34375 -99.5 37.34375 -98.40625 C 37.34375 -97.40625 37.71875 -96.53125 38.46875 -95.78125 C 39.21875 -95.03125 40.09375 -94.65625 41.09375 -94.65625 C 42.195313 -94.65625 43.097656 -95.03125 43.796875 -95.78125 C 44.492188 -96.53125 44.84375 -97.40625 44.84375 -98.40625 Z M 32.703125 -77.546875 C 32.703125 -78.648438 32.347656 -79.550781 31.640625 -80.25 C 30.941406 -80.945313 30.046875 -81.296875 28.953125 -81.296875 C 27.953125 -81.296875 27.078125 -80.945313 26.328125 -80.25 C 25.578125 -79.550781 25.203125 -78.648438 25.203125 -77.546875 C 25.203125 -76.546875 25.578125 -75.671875 26.328125 -74.921875 C 27.078125 -74.171875 27.953125 -73.796875 28.953125 -73.796875 C 30.046875 -73.796875 30.941406 -74.171875 31.640625 -74.921875 C 32.347656 -75.671875 32.703125 -76.546875 32.703125 -77.546875 Z M 121.65625 -29.84375 C 120.75 -32.550781 120.070313 -36.203125 119.625 -40.796875 C 119.175781 -45.398438 118.953125 -50.148438 118.953125 -55.046875 C 118.953125 -59.847656 119.175781 -64.625 119.625 -69.375 C 120.070313 -74.125 120.75 -77.800781 121.65625 -80.40625 L 119.25 -80.40625 C 118.75 -79.195313 118.273438 -77.144531 117.828125 -74.25 C 117.378906 -71.351563 117.003906 -68.15625 116.703125 -64.65625 C 116.398438 -61.15625 116.25 -57.953125 116.25 -55.046875 C 116.25 -52.242188 116.398438 -49.117188 116.703125 -45.671875 C 117.003906 -42.222656 117.378906 -39.023438 117.828125 -36.078125 C 118.273438 -33.128906 118.75 -31.050781 119.25 -29.84375 Z M 112.953125 -30 C 110.953125 -36.300781 109.953125 -44.648438 109.953125 -55.046875 C 109.953125 -59.242188 110.203125 -63.691406 110.703125 -68.390625 C 111.203125 -73.097656 111.953125 -77.050781 112.953125 -80.25 L 110.25 -80.25 C 109.851563 -79.144531 109.40625 -77.117188 108.90625 -74.171875 C 108.40625 -71.222656 108.003906 -68 107.703125 -64.5 C 107.398438 -61 107.25 -57.847656 107.25 -55.046875 C 107.25 -52.347656 107.398438 -49.273438 107.703125 -45.828125 C 108.003906 -42.378906 108.378906 -39.175781 108.828125 -36.21875 C 109.273438 -33.269531 109.75 -31.195313 110.25 -30 Z M 103.953125 -30.15625 C 101.953125 -36.445313 100.953125 -44.742188 100.953125 -55.046875 C 100.953125 -59.453125 101.203125 -63.953125 101.703125 -68.546875 C 102.203125 -73.148438 102.953125 -77 103.953125 -80.09375 L 101.25 -80.09375 C 100.75 -78.894531 100.273438 -76.820313 99.828125 -73.875 C 99.378906 -70.925781 99.003906 -67.722656 98.703125 -64.265625 C 98.398438 -60.816406 98.25 -57.742188 98.25 -55.046875 C 98.25 -52.242188 98.398438 -49.117188 98.703125 -45.671875 C 99.003906 -42.222656 99.40625 -39.070313 99.90625 -36.21875 C 100.40625 -33.375 100.851563 -31.351563 101.25 -30.15625 Z M 27.90625 -52.34375 C 27.90625 -53.445313 27.550781 -54.347656 26.84375 -55.046875 C 26.144531 -55.742188 25.25 -56.09375 24.15625 -56.09375 C 23.15625 -56.09375 22.28125 -55.742188 21.53125 -55.046875 C 20.78125 -54.347656 20.40625 -53.445313 20.40625 -52.34375 C 20.40625 -51.34375 20.78125 -50.46875 21.53125 -49.71875 C 22.28125 -48.96875 23.15625 -48.59375 24.15625 -48.59375 C 25.25 -48.59375 26.144531 -48.96875 26.84375 -49.71875 C 27.550781 -50.46875 27.90625 -51.34375 27.90625 -52.34375 Z M 32.703125 -27.296875 C 32.703125 -28.398438 32.347656 -29.300781 31.640625 -30 C 30.941406 -30.695313 30.046875 -31.046875 28.953125 -31.046875 C 27.953125 -31.046875 27.078125 -30.695313 26.328125 -30 C 25.578125 -29.300781 25.203125 -28.398438 25.203125 -27.296875 C 25.203125 -26.296875 25.578125 -25.421875 26.328125 -24.671875 C 27.078125 -23.921875 27.953125 -23.546875 28.953125 -23.546875 C 30.046875 -23.546875 30.941406 -23.921875 31.640625 -24.671875 C 32.347656 -25.421875 32.703125 -26.296875 32.703125 -27.296875 Z M 44.84375 -6.296875 C 44.84375 -7.398438 44.492188 -8.300781 43.796875 -9 C 43.097656 -9.695313 42.195313 -10.046875 41.09375 -10.046875 C 40.09375 -10.046875 39.21875 -9.695313 38.46875 -9 C 37.71875 -8.300781 37.34375 -7.398438 37.34375 -6.296875 C 37.34375 -5.296875 37.71875 -4.421875 38.46875 -3.671875 C 39.21875 -2.921875 40.09375 -2.546875 41.09375 -2.546875 C 42.195313 -2.546875 43.097656 -2.921875 43.796875 -3.671875 C 44.492188 -4.421875 44.84375 -5.296875 44.84375 -6.296875 Z M 44.84375 -6.296875"/></symbol><g style="fill:rgb(0%,0%,0%);fill-opacity:1;"><use xlink:href="#1" x="24.000001" y="153.499654"/></g></svg>