<?xml version="1.0" encoding="UTF-8"?><svg xmlns="http://www.w3.org/2000/svg" xmlns:xlink="http://www.w3.org/1999/xlink" width="198pt" height="198pt" viewBox="0 0 198 198" version="1.1"><symbol overflow="visible" id="1"><path style="stroke:none;" d="M 75 -112.953125 C 79.695313 -112.953125 83.867188 -112.75 87.515625 -112.34375 C 91.171875 -111.945313 94.347656 -111.347656 97.046875 -110.546875 C 102.453125 -109.046875 105.15625 -106.945313 105.15625 -104.25 L 103.046875 -73.796875 C 114.046875 -62.203125 119.546875 -51.753906 119.546875 -42.453125 C 119.546875 -36.148438 117.921875 -31.148438 114.671875 -27.453125 C 111.421875 -23.753906 106.945313 -21.90625 101.25 -21.90625 C 94.644531 -21.90625 88.945313 -24.300781 84.15625 -29.09375 L 84.75 -19.203125 C 85.050781 -15.503906 82.648438 -13.253906 77.546875 -12.453125 L 77.546875 -4.046875 L 83.703125 -4.046875 L 83.703125 -0.453125 L 77.546875 -0.453125 L 77.546875 5.09375 L 72.453125 5.09375 L 72.453125 -0.453125 L 66.296875 -0.453125 L 66.296875 -4.046875 L 72.453125 -4.046875 L 72.453125 -12.453125 C 67.347656 -13.253906 64.945313 -15.601563 65.25 -19.5 L 65.84375 -29.09375 C 61.25 -24.300781 55.550781 -21.90625 48.75 -21.90625 C 43.050781 -21.90625 38.578125 -23.753906 35.328125 -27.453125 C 32.078125 -31.148438 30.453125 -36.148438 30.453125 -42.453125 C 30.453125 -46.753906 31.675781 -51.425781 34.125 -56.46875 C 36.570313 -61.519531 40.847656 -67.296875 46.953125 -73.796875 L 44.84375 -104.25 C 44.84375 -107.050781 47.546875 -109.203125 52.953125 -110.703125 C 58.546875 -112.203125 65.894531 -112.953125 75 -112.953125 Z M 75 -108.59375 C 59.195313 -108.59375 51.296875 -107.046875 51.296875 -103.953125 C 51.296875 -102.453125 53.347656 -101.300781 57.453125 -100.5 C 59.546875 -100.101563 62.066406 -99.800781 65.015625 -99.59375 C 67.972656 -99.394531 71.300781 -99.296875 75 -99.296875 Z M 75 -94.953125 C 65.195313 -94.953125 57.597656 -95.851563 52.203125 -97.65625 L 52.65625 -89.40625 C 59.75 -87.40625 67.195313 -86.40625 75 -86.40625 L 75 -90.15625 C 79 -90.15625 83.097656 -90.476563 87.296875 -91.125 C 91.492188 -91.769531 94.992188 -92.445313 97.796875 -93.15625 L 98.09375 -97.046875 C 92.894531 -95.242188 85.195313 -94.34375 75 -94.34375 Z M 75 -82.046875 C 72.300781 -82.046875 69.453125 -82.171875 66.453125 -82.421875 C 63.453125 -82.671875 60.722656 -82.992188 58.265625 -83.390625 C 55.816406 -83.796875 54.046875 -84.195313 52.953125 -84.59375 L 53.703125 -75.90625 C 57.003906 -75.101563 60.425781 -74.472656 63.96875 -74.015625 C 67.519531 -73.566406 71.195313 -73.34375 75 -73.34375 L 75 -78.75 C 79.101563 -78.75 82.953125 -78.972656 86.546875 -79.421875 C 90.148438 -79.867188 93.550781 -80.492188 96.75 -81.296875 L 97.046875 -85.5 C 96.046875 -85.101563 94.367188 -84.703125 92.015625 -84.296875 C 89.671875 -83.898438 87 -83.578125 84 -83.328125 C 81 -83.078125 78 -82.953125 75 -82.953125 Z M 97.953125 -70.796875 C 90.453125 -69.296875 83.851563 -68.546875 78.15625 -68.546875 L 78.15625 -63.75 C 78.15625 -59.445313 78.726563 -55.171875 79.875 -50.921875 C 81.019531 -46.671875 82.644531 -42.84375 84.75 -39.4375 C 86.851563 -36.039063 89.28125 -33.316406 92.03125 -31.265625 C 94.78125 -29.222656 97.753906 -28.203125 100.953125 -28.203125 C 104.753906 -28.203125 107.675781 -29.523438 109.71875 -32.171875 C 111.769531 -34.828125 112.796875 -38.503906 112.796875 -43.203125 C 112.796875 -47.003906 111.394531 -51.453125 108.59375 -56.546875 C 105.800781 -61.648438 102.253906 -66.398438 97.953125 -70.796875 Z M 52.046875 -70.796875 C 47.648438 -66.203125 44.078125 -61.40625 41.328125 -56.40625 C 38.578125 -51.40625 37.203125 -47.003906 37.203125 -43.203125 C 37.203125 -38.703125 38.203125 -35.078125 40.203125 -32.328125 C 42.203125 -29.578125 45.148438 -28.203125 49.046875 -28.203125 C 52.242188 -28.203125 55.242188 -29.222656 58.046875 -31.265625 C 60.847656 -33.316406 63.273438 -36.039063 65.328125 -39.4375 C 67.378906 -42.84375 68.976563 -46.617188 70.125 -50.765625 C 71.269531 -54.921875 71.84375 -59.050781 71.84375 -63.15625 L 71.84375 -68.546875 C 69.445313 -68.546875 66.347656 -68.769531 62.546875 -69.21875 C 58.742188 -69.675781 55.242188 -70.203125 52.046875 -70.796875 Z M 97.34375 -66 C 104.550781 -57.601563 108.15625 -50.453125 108.15625 -44.546875 C 108.15625 -41.046875 107.425781 -38.242188 105.96875 -36.140625 C 104.519531 -34.046875 102.347656 -33 99.453125 -33 C 96.253906 -33 93.300781 -34.523438 90.59375 -37.578125 C 87.894531 -40.628906 85.769531 -44.503906 84.21875 -49.203125 C 82.675781 -53.898438 81.90625 -58.695313 81.90625 -63.59375 L 81.90625 -64.34375 C 83.695313 -64.34375 85.867188 -64.492188 88.421875 -64.796875 C 90.972656 -65.097656 93.945313 -65.5 97.34375 -66 Z M 75 -44.546875 C 73.800781 -40.847656 72.398438 -37.800781 70.796875 -35.40625 L 70.796875 -21.15625 C 70.796875 -17.851563 72.195313 -16.203125 75 -16.203125 C 77.800781 -16.203125 79.203125 -17.851563 79.203125 -21.15625 L 79.203125 -35.40625 C 77.898438 -37.5 76.5 -40.546875 75 -44.546875 Z M 75 -40.65625 C 75.195313 -39.75 75.46875 -38.71875 75.8125 -37.5625 C 76.164063 -36.414063 76.546875 -35.296875 76.953125 -34.203125 L 76.953125 -23.546875 C 76.953125 -22.847656 76.847656 -22.097656 76.640625 -21.296875 C 76.441406 -20.492188 75.894531 -20.09375 75 -20.09375 Z M 75 -40.65625"/></symbol><g style="fill:rgb(0%,0%,0%);fill-opacity:1;"><use xlink:href="#1" x="24.000001" y="153.499445"/></g></svg>