<?xml version="1.0" encoding="UTF-8"?><svg xmlns="http://www.w3.org/2000/svg" xmlns:xlink="http://www.w3.org/1999/xlink" width="198pt" height="198pt" viewBox="0 0 198 198" version="1.1"><symbol overflow="visible" id="1"><path style="stroke:none;" d="M 26.40625 0 L 26.40625 -13.65625 L 35.40625 -13.65625 L 35.40625 -23.84375 L 41.703125 -23.84375 L 47.40625 -34.046875 L 47.40625 -79.65625 L 41.703125 -89.84375 L 35.40625 -89.84375 L 35.40625 -107.84375 L 54 -107.84375 L 54 -103.5 L 63 -103.5 L 63 -107.25 L 87.15625 -107.25 L 87.15625 -103.5 L 96.15625 -103.5 L 96.15625 -107.84375 L 114.75 -107.84375 L 114.75 -89.84375 L 108.296875 -89.84375 L 102.75 -79.65625 L 102.75 -34.046875 L 108.296875 -23.84375 L 114.75 -23.84375 L 114.75 -13.65625 L 123.75 -13.65625 L 123.75 0 Z M 39.90625 -93.296875 L 75 -93.296875 L 75 -94.046875 L 108.296875 -94.046875 L 108.296875 -102.90625 L 100.046875 -102.90625 L 100.046875 -98.546875 L 83.25 -98.546875 L 83.25 -102.296875 L 75 -102.296875 L 75 -96.453125 L 39.90625 -96.453125 Z M 48.90625 -84.59375 L 75 -84.59375 L 75 -83.84375 L 98.703125 -83.84375 L 101.546875 -89.09375 L 75 -89.09375 L 75 -87.75 L 47.09375 -87.75 Z M 75 -34.796875 L 96.296875 -34.796875 L 96.296875 -78.90625 L 75 -78.90625 Z M 46.65625 -25.34375 L 75 -25.34375 L 75 -24.59375 L 101.546875 -24.59375 L 98.546875 -29.84375 L 75 -29.84375 L 75 -28.5 L 48.453125 -28.5 Z M 39.90625 -15.15625 L 75 -15.15625 L 75 -14.40625 L 108.296875 -14.40625 L 108.296875 -19.65625 L 75 -19.65625 L 75 -18.296875 L 39.90625 -18.296875 Z M 30.90625 -4.953125 L 75 -4.953125 L 75 -4.203125 L 117.296875 -4.203125 L 117.296875 -9.453125 L 75 -9.453125 L 75 -8.09375 L 30.90625 -8.09375 Z M 30.90625 -4.953125"/></symbol><g style="fill:rgb(0%,0%,0%);fill-opacity:1;"><use xlink:href="#1" x="24.000001" y="153.500816"/></g></svg>