<?xml version="1.0" encoding="UTF-8"?><svg xmlns="http://www.w3.org/2000/svg" xmlns:xlink="http://www.w3.org/1999/xlink" width="198pt" height="198pt" viewBox="0 0 198 198" version="1.1"><symbol overflow="visible" id="1"><path style="stroke:none;" d="M 99.59375 -115.046875 C 99.59375 -110.148438 98.992188 -105.648438 97.796875 -101.546875 C 96.597656 -97.453125 95.25 -94.351563 93.75 -92.25 C 93.050781 -91.25 91.847656 -89.796875 90.140625 -87.890625 C 88.441406 -85.992188 86.242188 -83.695313 83.546875 -81 C 80.347656 -77.800781 78.070313 -75.175781 76.71875 -73.125 C 75.375 -71.070313 74.703125 -69 74.703125 -66.90625 C 74.703125 -65.90625 74.800781 -65.003906 75 -64.203125 L 75.59375 -64.203125 C 75.800781 -65.003906 76.550781 -66.15625 77.84375 -67.65625 C 79.144531 -69.15625 80.796875 -70.203125 82.796875 -70.796875 C 83.796875 -71.097656 85.117188 -71.375 86.765625 -71.625 C 88.421875 -71.875 90.398438 -72.097656 92.703125 -72.296875 C 93.898438 -73.097656 95.171875 -74.195313 96.515625 -75.59375 C 97.867188 -77 99.296875 -78.703125 100.796875 -80.703125 C 103.796875 -84.597656 106.5 -86.546875 108.90625 -86.546875 C 111.5 -86.546875 113.617188 -86.242188 115.265625 -85.640625 C 116.921875 -85.046875 118.25 -83.945313 119.25 -82.34375 L 126 -71.703125 C 125.300781 -70.398438 124.578125 -68.773438 123.828125 -66.828125 C 123.078125 -64.878906 122.25 -62.601563 121.34375 -60 C 120.445313 -57.394531 119.523438 -55.191406 118.578125 -53.390625 C 117.628906 -51.597656 116.753906 -50.148438 115.953125 -49.046875 C 114.253906 -46.847656 112.800781 -43.597656 111.59375 -39.296875 C 110.800781 -36.398438 110.03125 -34.023438 109.28125 -32.171875 C 108.53125 -30.328125 107.453125 -28.726563 106.046875 -27.375 C 104.648438 -26.019531 102.550781 -24.546875 99.75 -22.953125 C 98.851563 -20.148438 98.40625 -17.097656 98.40625 -13.796875 C 98.40625 -12.203125 98.503906 -10.628906 98.703125 -9.078125 C 98.898438 -7.523438 99.195313 -5.945313 99.59375 -4.34375 L 96 -4.34375 C 90.695313 -6.34375 87.5 -9.84375 86.40625 -14.84375 L 85.5 -14.84375 C 85.101563 -13.945313 84.800781 -12.445313 84.59375 -10.34375 C 84.394531 -8.25 84.296875 -6.5 84.296875 -5.09375 C 84.296875 -4.195313 84.320313 -3.296875 84.375 -2.390625 C 84.425781 -1.492188 84.5 -0.695313 84.59375 0 L 79.34375 0 C 76.34375 -1.695313 73.941406 -4.171875 72.140625 -7.421875 C 70.347656 -10.671875 69.453125 -14.195313 69.453125 -18 C 63.347656 -19.800781 57.492188 -22.972656 51.890625 -27.515625 C 46.296875 -32.066406 41.421875 -37.894531 37.265625 -45 C 33.117188 -52.101563 30.097656 -60.253906 28.203125 -69.453125 C 26.796875 -76.347656 25.742188 -83.46875 25.046875 -90.8125 C 24.347656 -98.164063 24 -105.796875 24 -113.703125 L 24 -115.046875 Z M 91.046875 -106.953125 L 33.296875 -106.953125 L 33.296875 -102.90625 C 33.296875 -89.695313 34.46875 -78.289063 36.8125 -68.6875 C 39.164063 -59.09375 42.34375 -51.046875 46.34375 -44.546875 C 50.34375 -38.046875 54.914063 -32.894531 60.0625 -29.09375 C 65.21875 -25.300781 70.644531 -22.601563 76.34375 -21 C 76.050781 -19.101563 75.90625 -17.351563 75.90625 -15.75 C 75.90625 -11.644531 77.40625 -8.09375 80.40625 -5.09375 C 80.300781 -5.59375 80.25 -6.09375 80.25 -6.59375 C 80.25 -7.09375 80.25 -7.59375 80.25 -8.09375 C 80.25 -10.695313 80.570313 -13.222656 81.21875 -15.671875 C 81.875 -18.117188 82.648438 -19.894531 83.546875 -21 L 90.453125 -21 L 90.453125 -19.5 C 90.453125 -17.101563 90.722656 -15.253906 91.265625 -13.953125 C 91.816406 -12.648438 92.894531 -11.347656 94.5 -10.046875 C 94.101563 -11.546875 93.90625 -13.445313 93.90625 -15.75 C 93.90625 -18.644531 94.203125 -21.242188 94.796875 -23.546875 C 95.398438 -25.847656 96.050781 -27.25 96.75 -27.75 C 97.050781 -27.945313 97.523438 -28.320313 98.171875 -28.875 C 98.828125 -29.425781 99.601563 -30.050781 100.5 -30.75 C 102 -32.050781 103.171875 -33.703125 104.015625 -35.703125 C 104.867188 -37.703125 105.945313 -40.703125 107.25 -44.703125 C 107.945313 -46.898438 109 -48.800781 110.40625 -50.40625 C 111 -51.101563 111.71875 -52.273438 112.5625 -53.921875 C 113.414063 -55.578125 114.296875 -57.65625 115.203125 -60.15625 C 116.097656 -62.65625 116.921875 -64.800781 117.671875 -66.59375 C 118.421875 -68.394531 119.046875 -69.75 119.546875 -70.65625 L 118.203125 -73.203125 C 117.003906 -75.597656 116.03125 -77.296875 115.28125 -78.296875 C 114.53125 -79.296875 113.726563 -79.921875 112.875 -80.171875 C 112.019531 -80.421875 110.695313 -80.546875 108.90625 -80.546875 C 107.90625 -80.546875 106.925781 -80.269531 105.96875 -79.71875 C 105.019531 -79.175781 103.847656 -77.90625 102.453125 -75.90625 C 101.546875 -74.601563 100.289063 -73.097656 98.6875 -71.390625 C 97.09375 -69.691406 95.75 -68.394531 94.65625 -67.5 C 94.445313 -67.5 93.539063 -67.347656 91.9375 -67.046875 C 90.34375 -66.742188 88.671875 -66.394531 86.921875 -66 C 85.171875 -65.601563 83.796875 -65.203125 82.796875 -64.796875 C 81.398438 -64.296875 80.25 -63.492188 79.34375 -62.390625 C 78.445313 -61.296875 77.945313 -60.347656 77.84375 -59.546875 L 70.796875 -59.546875 L 68.546875 -67.65625 C 68.742188 -69.550781 69.117188 -71.320313 69.671875 -72.96875 C 70.222656 -74.625 71 -76.050781 72 -77.25 L 78.15625 -84 C 82.550781 -88.800781 85.796875 -92.773438 87.890625 -95.921875 C 89.992188 -99.078125 91.046875 -102.550781 91.046875 -106.34375 Z M 47.09375 -105 C 46.695313 -102.195313 46.421875 -99.171875 46.265625 -95.921875 C 46.117188 -92.671875 46.046875 -89.144531 46.046875 -85.34375 C 46.046875 -75.144531 46.742188 -66.820313 48.140625 -60.375 C 49.546875 -53.925781 51.648438 -48.597656 54.453125 -44.390625 C 57.253906 -40.191406 60.703125 -36.34375 64.796875 -32.84375 L 63.453125 -31.953125 C 58.847656 -34.847656 54.296875 -39.492188 49.796875 -45.890625 C 45.296875 -52.296875 42.046875 -60.800781 40.046875 -71.40625 C 39.046875 -76.695313 38.320313 -82.144531 37.875 -87.75 C 37.425781 -93.351563 37.203125 -99.101563 37.203125 -105 Z M 111.296875 -73.203125 C 111.898438 -73.097656 112.625 -72.71875 113.46875 -72.0625 C 114.320313 -71.414063 114.945313 -70.695313 115.34375 -69.90625 C 114.25 -65.40625 110.851563 -63.003906 105.15625 -62.703125 L 104.546875 -63.453125 C 106.546875 -64.847656 108.09375 -66.492188 109.1875 -68.390625 C 110.289063 -70.296875 110.992188 -71.898438 111.296875 -73.203125 Z M 96.296875 -40.953125 C 98.703125 -40.953125 100.253906 -40.648438 100.953125 -40.046875 L 101.09375 -39.453125 L 101.09375 -38.40625 C 101.09375 -37.40625 100.59375 -36.578125 99.59375 -35.921875 C 98.59375 -35.273438 97.242188 -34.953125 95.546875 -34.953125 C 94.953125 -34.953125 94.328125 -35.023438 93.671875 -35.171875 C 93.023438 -35.328125 92.398438 -35.453125 91.796875 -35.546875 L 87.59375 -36.75 L 87.59375 -38.09375 L 88.796875 -37.953125 C 90.097656 -37.953125 91.347656 -38.453125 92.546875 -39.453125 C 93.742188 -40.453125 94.992188 -40.953125 96.296875 -40.953125 Z M 96.296875 -40.953125"/></symbol><g style="fill:rgb(0%,0%,0%);fill-opacity:1;"><use xlink:href="#1" x="24.000001" y="153.49934"/></g></svg>