<?xml version="1.0" encoding="UTF-8"?><svg xmlns="http://www.w3.org/2000/svg" xmlns:xlink="http://www.w3.org/1999/xlink" width="198pt" height="198pt" viewBox="0 0 198 198" version="1.1"><symbol overflow="visible" id="1"><path style="stroke:none;" d="M 134.25 0.15625 L 119.703125 0.15625 C 118.296875 -1.445313 117.117188 -3.695313 116.171875 -6.59375 C 115.222656 -9.5 114.75 -12.703125 114.75 -16.203125 L 114.75 -37.796875 C 114.75 -40.097656 114.570313 -41.847656 114.21875 -43.046875 C 113.875 -44.242188 112.898438 -44.84375 111.296875 -44.84375 C 110.597656 -33.34375 108.148438 -27.59375 103.953125 -27.59375 C 103.347656 -27.59375 102.75 -27.742188 102.15625 -28.046875 L 88.65625 -33.296875 C 86.445313 -29.796875 83.269531 -27.019531 79.125 -24.96875 C 74.976563 -22.925781 70.550781 -21.90625 65.84375 -21.90625 C 59.445313 -21.90625 53.25 -24.203125 47.25 -28.796875 C 41.25 -33.398438 36 -39.703125 31.5 -47.703125 C 29.894531 -44.898438 27.445313 -43.5 24.15625 -43.5 C 21.851563 -43.5 19.875 -44.320313 18.21875 -45.96875 C 16.570313 -47.625 15.75 -49.601563 15.75 -51.90625 C 15.75 -54.195313 16.570313 -56.164063 18.21875 -57.8125 C 19.875 -59.46875 21.851563 -60.296875 24.15625 -60.296875 C 27.445313 -60.296875 29.894531 -58.894531 31.5 -56.09375 C 36 -64.09375 41.25 -70.394531 47.25 -75 C 53.25 -79.601563 59.445313 -81.90625 65.84375 -81.90625 C 70.550781 -81.90625 74.976563 -80.878906 79.125 -78.828125 C 83.269531 -76.773438 86.445313 -74 88.65625 -70.5 L 102.15625 -75.75 C 102.75 -76.050781 103.347656 -76.203125 103.953125 -76.203125 C 108.148438 -76.203125 110.597656 -70.453125 111.296875 -58.953125 C 112.898438 -58.953125 113.875 -59.550781 114.21875 -60.75 C 114.570313 -61.945313 114.75 -63.695313 114.75 -66 L 114.75 -87.59375 C 114.75 -91.09375 115.222656 -94.289063 116.171875 -97.1875 C 117.117188 -100.09375 118.296875 -102.347656 119.703125 -103.953125 L 134.25 -103.953125 L 134.25 -100.203125 C 129.945313 -99.503906 127.796875 -95.703125 127.796875 -88.796875 L 127.796875 -60.75 C 127.796875 -56.351563 126.445313 -53.40625 123.75 -51.90625 C 126.445313 -50.40625 127.796875 -47.453125 127.796875 -43.046875 L 127.796875 -15 C 127.796875 -8.101563 129.945313 -4.300781 134.25 -3.59375 Z M 127.5 -100.046875 L 122.703125 -99.75 C 120.296875 -97.945313 119.09375 -93.75 119.09375 -87.15625 L 119.09375 -64.34375 C 119.09375 -58.644531 116.546875 -55.796875 111.453125 -55.796875 L 111.453125 -53.25 C 115.453125 -53.25 118.453125 -53.597656 120.453125 -54.296875 C 122.453125 -54.992188 123.453125 -57.144531 123.453125 -60.75 L 123.453125 -87 C 123.453125 -90.101563 123.800781 -92.800781 124.5 -95.09375 C 125.195313 -97.394531 126.195313 -99.046875 127.5 -100.046875 Z M 87.296875 -51.90625 C 87.296875 -59 85.367188 -64.644531 81.515625 -68.84375 C 77.671875 -73.050781 72.398438 -75.15625 65.703125 -75.15625 C 59.503906 -75.15625 53.550781 -72.976563 47.84375 -68.625 C 42.144531 -64.269531 37.597656 -58.695313 34.203125 -51.90625 C 37.597656 -45.195313 42.144531 -39.644531 47.84375 -35.25 C 53.550781 -30.851563 59.503906 -28.65625 65.703125 -28.65625 C 72.398438 -28.65625 77.671875 -30.78125 81.515625 -35.03125 C 85.367188 -39.28125 87.296875 -44.90625 87.296875 -51.90625 Z M 107.703125 -51.90625 C 107.703125 -54.5 107.625 -56.894531 107.46875 -59.09375 C 107.320313 -61.300781 107.050781 -63.203125 106.65625 -64.796875 C 105.851563 -68.296875 104.953125 -70.046875 103.953125 -70.046875 C 102.847656 -70.046875 101.945313 -68.347656 101.25 -64.953125 C 100.851563 -63.347656 100.578125 -61.445313 100.421875 -59.25 C 100.273438 -57.050781 100.203125 -54.601563 100.203125 -51.90625 C 100.203125 -49.195313 100.273438 -46.769531 100.421875 -44.625 C 100.578125 -42.476563 100.851563 -40.550781 101.25 -38.84375 C 101.945313 -35.445313 102.847656 -33.75 103.953125 -33.75 C 104.953125 -33.75 105.851563 -35.5 106.65625 -39 C 107.050781 -40.695313 107.320313 -42.617188 107.46875 -44.765625 C 107.625 -46.921875 107.703125 -49.300781 107.703125 -51.90625 Z M 97.953125 -35.40625 C 97.253906 -37.695313 96.726563 -40.191406 96.375 -42.890625 C 96.019531 -45.597656 95.84375 -48.601563 95.84375 -51.90625 C 95.84375 -55.195313 96.019531 -58.21875 96.375 -60.96875 C 96.726563 -63.71875 97.253906 -66.195313 97.953125 -68.40625 L 90.59375 -65.40625 C 91 -63.601563 91.300781 -61.675781 91.5 -59.625 C 91.695313 -57.570313 91.796875 -55 91.796875 -51.90625 C 91.796875 -48.800781 91.695313 -46.222656 91.5 -44.171875 C 91.300781 -42.117188 91 -40.195313 90.59375 -38.40625 Z M 83.09375 -49.34375 L 56.40625 -49.34375 L 56.40625 -37.34375 L 51.59375 -37.34375 L 51.59375 -49.34375 L 39.59375 -49.34375 L 39.59375 -54.453125 L 51.59375 -54.453125 L 51.59375 -66.453125 L 56.40625 -66.453125 L 56.40625 -54.453125 L 83.09375 -54.453125 Z M 28.5 -51.90625 C 28.5 -53.101563 28.070313 -54.125 27.21875 -54.96875 C 26.375 -55.820313 25.351563 -56.25 24.15625 -56.25 C 23.050781 -56.25 22.070313 -55.820313 21.21875 -54.96875 C 20.375 -54.125 19.953125 -53.101563 19.953125 -51.90625 C 19.953125 -50.695313 20.375 -49.664063 21.21875 -48.8125 C 22.070313 -47.96875 23.050781 -47.546875 24.15625 -47.546875 C 25.351563 -47.546875 26.375 -47.96875 27.21875 -48.8125 C 28.070313 -49.664063 28.5 -50.695313 28.5 -51.90625 Z M 127.5 -3.75 C 126.195313 -4.851563 125.195313 -6.53125 124.5 -8.78125 C 123.800781 -11.03125 123.453125 -13.703125 123.453125 -16.796875 L 123.453125 -43.046875 C 123.453125 -46.648438 122.453125 -48.800781 120.453125 -49.5 C 118.453125 -50.195313 115.453125 -50.546875 111.453125 -50.546875 L 111.453125 -48 C 116.546875 -48 119.09375 -45.148438 119.09375 -39.453125 L 119.09375 -16.65625 C 119.09375 -10.050781 120.296875 -5.847656 122.703125 -4.046875 Z M 127.5 -3.75"/></symbol><g style="fill:rgb(0%,0%,0%);fill-opacity:1;"><use xlink:href="#1" x="24.000001" y="153.499602"/></g></svg>