<?xml version="1.0" encoding="UTF-8"?><svg xmlns="http://www.w3.org/2000/svg" xmlns:xlink="http://www.w3.org/1999/xlink" width="198pt" height="198pt" viewBox="0 0 198 198" version="1.1"><symbol overflow="visible" id="1"><path style="stroke:none;" d="M 75 -115.046875 C 79.695313 -115.046875 83.867188 -114.84375 87.515625 -114.4375 C 91.171875 -114.039063 94.347656 -113.445313 97.046875 -112.65625 C 102.453125 -111.15625 105.15625 -109.050781 105.15625 -106.34375 L 104.703125 -74.546875 L 118.5 -32.25 C 118.800781 -32.351563 119.175781 -32.425781 119.625 -32.46875 C 120.070313 -32.519531 120.597656 -32.546875 121.203125 -32.546875 C 124.097656 -32.546875 126.492188 -31.570313 128.390625 -29.625 C 130.296875 -27.675781 131.25 -25.148438 131.25 -22.046875 C 131.25 -19.242188 130.25 -16.894531 128.25 -15 C 126.25 -13.101563 123.847656 -12.15625 121.046875 -12.15625 C 118.148438 -12.15625 115.722656 -13.128906 113.765625 -15.078125 C 111.816406 -17.023438 110.84375 -19.445313 110.84375 -22.34375 C 110.84375 -24.050781 111.269531 -25.703125 112.125 -27.296875 C 112.976563 -28.898438 114.050781 -30.101563 115.34375 -30.90625 L 96.90625 -60.75 L 100.046875 -20.25 L 100.34375 -20.25 C 102.945313 -20.25 105.273438 -19.273438 107.328125 -17.328125 C 109.378906 -15.378906 110.40625 -12.953125 110.40625 -10.046875 C 110.40625 -7.242188 109.453125 -4.816406 107.546875 -2.765625 C 105.648438 -0.722656 103.25 0.296875 100.34375 0.296875 C 97.550781 0.296875 95.128906 -0.675781 93.078125 -2.625 C 91.023438 -4.570313 90 -7 90 -9.90625 C 90 -12.101563 90.570313 -14.078125 91.71875 -15.828125 C 92.875 -17.578125 94.5 -18.800781 96.59375 -19.5 L 83.09375 -57.59375 L 76.796875 -15.15625 C 79.097656 -14.75 81.070313 -13.617188 82.71875 -11.765625 C 84.375 -9.921875 85.203125 -7.695313 85.203125 -5.09375 C 85.203125 -2.300781 84.222656 0.09375 82.265625 2.09375 C 80.316406 4.09375 77.894531 5.09375 75 5.09375 C 72.195313 5.09375 69.796875 4.117188 67.796875 2.171875 C 65.796875 0.222656 64.796875 -2.195313 64.796875 -5.09375 C 64.796875 -7.695313 65.617188 -9.921875 67.265625 -11.765625 C 68.921875 -13.617188 70.898438 -14.75 73.203125 -15.15625 L 66.90625 -57.59375 L 53.40625 -19.5 C 55.5 -18.800781 57.117188 -17.578125 58.265625 -15.828125 C 59.421875 -14.078125 60 -12.101563 60 -9.90625 C 60 -7 58.972656 -4.570313 56.921875 -2.625 C 54.867188 -0.675781 52.445313 0.296875 49.65625 0.296875 C 46.851563 0.296875 44.472656 -0.722656 42.515625 -2.765625 C 40.566406 -4.816406 39.59375 -7.242188 39.59375 -10.046875 C 39.59375 -12.847656 40.617188 -15.25 42.671875 -17.25 C 44.722656 -19.25 47.050781 -20.25 49.65625 -20.25 L 49.953125 -20.25 L 53.09375 -60.75 L 34.65625 -30.90625 C 36.050781 -30.101563 37.148438 -28.898438 37.953125 -27.296875 C 38.753906 -25.703125 39.15625 -24.050781 39.15625 -22.34375 C 39.15625 -19.445313 38.175781 -17.023438 36.21875 -15.078125 C 34.269531 -13.128906 31.847656 -12.15625 28.953125 -12.15625 C 26.148438 -12.15625 23.75 -13.101563 21.75 -15 C 19.75 -16.894531 18.75 -19.242188 18.75 -22.046875 C 18.75 -25.242188 19.722656 -27.789063 21.671875 -29.6875 C 23.617188 -31.59375 25.992188 -32.546875 28.796875 -32.546875 C 29.398438 -32.546875 29.925781 -32.519531 30.375 -32.46875 C 30.820313 -32.425781 31.195313 -32.351563 31.5 -32.25 L 45.296875 -74.546875 L 44.84375 -106.34375 C 44.84375 -109.144531 47.546875 -111.296875 52.953125 -112.796875 C 58.347656 -114.296875 65.695313 -115.046875 75 -115.046875 Z M 75 -110.703125 C 59.394531 -110.703125 51.59375 -109.148438 51.59375 -106.046875 C 51.59375 -104.546875 53.644531 -103.394531 57.75 -102.59375 C 59.851563 -102.195313 62.328125 -101.898438 65.171875 -101.703125 C 68.023438 -101.503906 71.300781 -101.40625 75 -101.40625 C 78.695313 -101.40625 81.96875 -101.503906 84.8125 -101.703125 C 87.664063 -101.898438 90.09375 -102.195313 92.09375 -102.59375 C 96.300781 -103.5 98.40625 -104.648438 98.40625 -106.046875 C 98.40625 -109.148438 90.601563 -110.703125 75 -110.703125 Z M 98.09375 -99.75 C 92.695313 -97.945313 85 -97.046875 75 -97.046875 C 65 -97.046875 57.300781 -97.945313 51.90625 -99.75 L 51.90625 -95.09375 C 54.40625 -94.300781 57.800781 -93.601563 62.09375 -93 C 66.394531 -92.394531 70.695313 -92.09375 75 -92.09375 C 79.101563 -92.09375 83.351563 -92.394531 87.75 -93 C 92.144531 -93.601563 95.59375 -94.300781 98.09375 -95.09375 Z M 97.953125 -91.046875 C 94.953125 -90.046875 91.550781 -89.296875 87.75 -88.796875 C 83.945313 -88.296875 79.695313 -88.046875 75 -88.046875 C 65.695313 -88.046875 58.046875 -89.046875 52.046875 -91.046875 L 52.046875 -86.09375 C 54.546875 -85.300781 58.019531 -84.601563 62.46875 -84 C 66.925781 -83.394531 71.101563 -83.09375 75 -83.09375 C 79.101563 -83.09375 83.328125 -83.394531 87.671875 -84 C 92.023438 -84.601563 95.453125 -85.300781 97.953125 -86.09375 Z M 97.796875 -82.046875 C 91.796875 -80.046875 84.195313 -79.046875 75 -79.046875 C 65.800781 -79.046875 58.203125 -80.046875 52.203125 -82.046875 L 52.203125 -77.09375 C 54.597656 -76.394531 57.96875 -75.71875 62.3125 -75.0625 C 66.664063 -74.414063 70.894531 -74.09375 75 -74.09375 C 79 -74.09375 83.222656 -74.414063 87.671875 -75.0625 C 92.117188 -75.71875 95.492188 -76.394531 97.796875 -77.09375 Z M 49.203125 -73.203125 L 40.203125 -46.796875 L 54.59375 -71.84375 Z M 100.796875 -73.203125 L 95.40625 -71.84375 L 109.796875 -46.796875 Z M 58.953125 -71.09375 L 54.90625 -35.703125 L 65.40625 -70.34375 C 64.195313 -70.445313 63.066406 -70.570313 62.015625 -70.71875 C 60.972656 -70.875 59.953125 -71 58.953125 -71.09375 Z M 91.046875 -71.09375 C 90.046875 -71 89.019531 -70.875 87.96875 -70.71875 C 86.925781 -70.570313 85.800781 -70.445313 84.59375 -70.34375 L 95.09375 -35.703125 Z M 79.953125 -70.046875 C 79.148438 -69.953125 78.320313 -69.90625 77.46875 -69.90625 C 76.625 -69.90625 75.800781 -69.90625 75 -69.90625 C 74.195313 -69.90625 73.367188 -69.90625 72.515625 -69.90625 C 71.671875 -69.90625 70.847656 -69.953125 70.046875 -70.046875 L 75 -27.75 Z M 121.046875 -27.90625 C 119.453125 -27.90625 118.15625 -27.378906 117.15625 -26.328125 C 116.15625 -25.273438 115.65625 -24 115.65625 -22.5 C 115.65625 -20.894531 116.15625 -19.566406 117.15625 -18.515625 C 118.15625 -17.472656 119.550781 -16.953125 121.34375 -16.953125 C 122.75 -16.953125 123.972656 -17.453125 125.015625 -18.453125 C 126.066406 -19.453125 126.59375 -20.703125 126.59375 -22.203125 C 126.59375 -23.898438 126.09375 -25.273438 125.09375 -26.328125 C 124.09375 -27.378906 122.742188 -27.90625 121.046875 -27.90625 Z M 28.953125 -27.90625 C 27.347656 -27.90625 26.019531 -27.378906 24.96875 -26.328125 C 23.925781 -25.273438 23.40625 -23.898438 23.40625 -22.203125 C 23.40625 -20.703125 23.925781 -19.453125 24.96875 -18.453125 C 26.019531 -17.453125 27.25 -16.953125 28.65625 -16.953125 C 30.445313 -16.953125 31.84375 -17.472656 32.84375 -18.515625 C 33.84375 -19.566406 34.34375 -20.894531 34.34375 -22.5 C 34.34375 -24 33.84375 -25.273438 32.84375 -26.328125 C 31.84375 -27.378906 30.546875 -27.90625 28.953125 -27.90625 Z M 100.046875 -15.59375 C 98.453125 -15.59375 97.15625 -15.066406 96.15625 -14.015625 C 95.15625 -12.972656 94.65625 -11.703125 94.65625 -10.203125 C 94.65625 -8.597656 95.15625 -7.269531 96.15625 -6.21875 C 97.15625 -5.175781 98.550781 -4.65625 100.34375 -4.65625 C 101.75 -4.65625 102.972656 -5.15625 104.015625 -6.15625 C 105.066406 -7.15625 105.59375 -8.40625 105.59375 -9.90625 C 105.59375 -11.601563 105.09375 -12.972656 104.09375 -14.015625 C 103.09375 -15.066406 101.742188 -15.59375 100.046875 -15.59375 Z M 49.953125 -15.59375 C 48.253906 -15.59375 46.90625 -15.066406 45.90625 -14.015625 C 44.90625 -12.972656 44.40625 -11.601563 44.40625 -9.90625 C 44.40625 -8.40625 44.925781 -7.15625 45.96875 -6.15625 C 47.019531 -5.15625 48.25 -4.65625 49.65625 -4.65625 C 51.550781 -4.65625 52.972656 -5.175781 53.921875 -6.21875 C 54.867188 -7.269531 55.34375 -8.597656 55.34375 -10.203125 C 55.34375 -11.703125 54.84375 -12.972656 53.84375 -14.015625 C 52.84375 -15.066406 51.546875 -15.59375 49.953125 -15.59375 Z M 74.84375 -10.65625 C 73.445313 -10.65625 72.222656 -10.128906 71.171875 -9.078125 C 70.117188 -8.023438 69.59375 -6.648438 69.59375 -4.953125 C 69.59375 -3.453125 70.117188 -2.203125 71.171875 -1.203125 C 72.222656 -0.203125 73.550781 0.296875 75.15625 0.296875 C 76.550781 0.296875 77.773438 -0.203125 78.828125 -1.203125 C 79.878906 -2.203125 80.40625 -3.453125 80.40625 -4.953125 C 80.40625 -6.648438 79.90625 -8.023438 78.90625 -9.078125 C 77.90625 -10.128906 76.550781 -10.65625 74.84375 -10.65625 Z M 74.84375 -10.65625"/></symbol><g style="fill:rgb(0%,0%,0%);fill-opacity:1;"><use xlink:href="#1" x="24.000001" y="153.4993"/></g></svg>