<?xml version="1.0" encoding="UTF-8"?><svg xmlns="http://www.w3.org/2000/svg" xmlns:xlink="http://www.w3.org/1999/xlink" width="198pt" height="198pt" viewBox="0 0 198 198" version="1.1"><symbol overflow="visible" id="1"><path style="stroke:none;" d="M 18.296875 -103.796875 L 23.84375 -103.796875 C 31.644531 -103.796875 38.820313 -102.570313 45.375 -100.125 C 51.925781 -97.675781 57.550781 -94.203125 62.25 -89.703125 C 66.945313 -85.203125 70.296875 -79.898438 72.296875 -73.796875 C 76.703125 -80.597656 82.351563 -84 89.25 -84 C 94.550781 -84 99.148438 -82.347656 103.046875 -79.046875 C 106.953125 -75.742188 109.851563 -71.046875 111.75 -64.953125 C 112.550781 -67.046875 113.800781 -68.71875 115.5 -69.96875 C 117.195313 -71.21875 119.195313 -71.84375 121.5 -71.84375 C 124.601563 -71.84375 127.050781 -70.492188 128.84375 -67.796875 C 130.644531 -65.097656 131.546875 -61.398438 131.546875 -56.703125 C 131.546875 -52.097656 130.644531 -48.421875 128.84375 -45.671875 C 127.050781 -42.921875 124.601563 -41.546875 121.5 -41.546875 C 119.195313 -41.546875 117.171875 -42.195313 115.421875 -43.5 C 113.671875 -44.800781 112.445313 -46.453125 111.75 -48.453125 C 109.851563 -42.453125 106.953125 -37.773438 103.046875 -34.421875 C 99.148438 -31.078125 94.550781 -29.40625 89.25 -29.40625 C 82.351563 -29.40625 76.703125 -32.800781 72.296875 -39.59375 C 70.296875 -33.394531 66.945313 -28.046875 62.25 -23.546875 C 57.550781 -19.046875 51.925781 -15.59375 45.375 -13.1875 C 38.820313 -10.789063 31.644531 -9.59375 23.84375 -9.59375 L 18.296875 -9.59375 Z M 26.546875 -94.796875 L 26.546875 -18.59375 C 33.046875 -18.59375 39.117188 -19.84375 44.765625 -22.34375 C 50.421875 -24.84375 55.375 -28.394531 59.625 -33 C 63.875 -37.601563 67 -43.003906 69 -49.203125 L 74.703125 -49.203125 C 78.296875 -41.296875 83.242188 -37.34375 89.546875 -37.34375 C 98.742188 -37.34375 105.296875 -43.046875 109.203125 -54.453125 L 113.84375 -54.453125 C 115.644531 -50.148438 118.195313 -48 121.5 -48 C 123.101563 -48 124.476563 -48.773438 125.625 -50.328125 C 126.769531 -51.878906 127.34375 -54.003906 127.34375 -56.703125 C 127.34375 -59.398438 126.769531 -61.523438 125.625 -63.078125 C 124.476563 -64.628906 123.101563 -65.40625 121.5 -65.40625 C 118.195313 -65.40625 115.644531 -63.253906 113.84375 -58.953125 L 109.203125 -58.953125 C 105.296875 -70.347656 98.742188 -76.046875 89.546875 -76.046875 C 83.242188 -76.046875 78.296875 -72.097656 74.703125 -64.203125 L 69 -64.203125 C 67 -70.503906 63.875 -75.925781 59.625 -80.46875 C 55.375 -85.019531 50.421875 -88.546875 44.765625 -91.046875 C 39.117188 -93.546875 33.046875 -94.796875 26.546875 -94.796875 Z M 26.546875 -94.796875"/></symbol><g style="fill:rgb(0%,0%,0%);fill-opacity:1;"><use xlink:href="#1" x="24.000001" y="153.499078"/></g></svg>