<?xml version="1.0" encoding="UTF-8"?><svg xmlns="http://www.w3.org/2000/svg" xmlns:xlink="http://www.w3.org/1999/xlink" width="198pt" height="198pt" viewBox="0 0 198 198" version="1.1"><symbol overflow="visible" id="1"><path style="stroke:none;" d="M 80.25 11.703125 L 26.84375 -41.703125 C 30.34375 -45.203125 33.96875 -47.972656 37.71875 -50.015625 C 41.46875 -52.066406 44.59375 -53.296875 47.09375 -53.703125 C 48.394531 -53.898438 50.296875 -54.070313 52.796875 -54.21875 C 55.296875 -54.375 58.445313 -54.453125 62.25 -54.453125 C 66.851563 -54.453125 70.378906 -54.648438 72.828125 -55.046875 C 75.273438 -55.453125 77.148438 -56.503906 78.453125 -58.203125 L 80.09375 -60.296875 L 79.65625 -60.75 C 78.851563 -60.144531 77.453125 -59.84375 75.453125 -59.84375 C 73.546875 -59.84375 71.695313 -60.296875 69.90625 -61.203125 C 69 -61.703125 67.867188 -62.453125 66.515625 -63.453125 C 65.171875 -64.453125 63.648438 -65.648438 61.953125 -67.046875 C 60.648438 -67.347656 59.097656 -67.5 57.296875 -67.5 C 56.296875 -67.5 55.171875 -67.445313 53.921875 -67.34375 C 52.671875 -67.25 51.5 -67.101563 50.40625 -66.90625 C 49.695313 -66.800781 49.019531 -66.722656 48.375 -66.671875 C 47.726563 -66.617188 47.15625 -66.59375 46.65625 -66.59375 C 43.75 -66.59375 41.644531 -67.242188 40.34375 -68.546875 C 37.34375 -71.546875 35.84375 -74.296875 35.84375 -76.796875 C 35.84375 -77.703125 35.894531 -78.351563 36 -78.75 L 38.703125 -91.046875 C 40.097656 -91.546875 41.796875 -92.171875 43.796875 -92.921875 C 45.796875 -93.671875 48 -94.695313 50.40625 -96 C 52.90625 -97.300781 55.128906 -98.273438 57.078125 -98.921875 C 59.023438 -99.578125 60.648438 -99.953125 61.953125 -100.046875 C 63.253906 -100.242188 64.753906 -100.644531 66.453125 -101.25 C 68.148438 -101.851563 69.945313 -102.703125 71.84375 -103.796875 C 74.445313 -105.296875 76.648438 -106.421875 78.453125 -107.171875 C 80.253906 -107.921875 82.15625 -108.296875 84.15625 -108.296875 C 86.15625 -108.296875 88.703125 -107.847656 91.796875 -106.953125 C 94.703125 -108.347656 97.203125 -110.195313 99.296875 -112.5 C 101.492188 -114.800781 103.394531 -117.300781 105 -120 L 107.546875 -117.453125 C 108.148438 -116.347656 108.578125 -115.21875 108.828125 -114.0625 C 109.078125 -112.914063 109.203125 -111.796875 109.203125 -110.703125 C 109.203125 -108.097656 108.453125 -105.644531 106.953125 -103.34375 L 107.546875 -102.59375 C 108.648438 -103.09375 109.925781 -103.941406 111.375 -105.140625 C 112.820313 -106.347656 114.242188 -107.648438 115.640625 -109.046875 C 117.046875 -110.453125 118.097656 -111.601563 118.796875 -112.5 L 122.40625 -108.75 C 122.90625 -107.050781 123.15625 -105.453125 123.15625 -103.953125 C 123.15625 -101.347656 122.601563 -98.71875 121.5 -96.0625 C 120.394531 -93.414063 118.796875 -91.09375 116.703125 -89.09375 C 120.703125 -81.894531 122.703125 -73.695313 122.703125 -64.5 C 122.703125 -58.101563 121.625 -51.40625 119.46875 -44.40625 C 117.320313 -37.40625 114 -30.453125 109.5 -23.546875 C 105.695313 -17.648438 101.421875 -11.847656 96.671875 -6.140625 C 91.921875 -0.441406 86.75 5.203125 81.15625 10.796875 Z M 79.34375 -0.59375 L 82.203125 -3.453125 C 94.597656 -15.847656 103.320313 -27.421875 108.375 -38.171875 C 113.425781 -48.921875 115.953125 -58.695313 115.953125 -67.5 C 115.953125 -72.101563 115.425781 -76.453125 114.375 -80.546875 C 113.320313 -84.648438 111.796875 -88.398438 109.796875 -91.796875 C 112.492188 -93.898438 114.539063 -95.925781 115.9375 -97.875 C 117.34375 -99.820313 118.046875 -102.5 118.046875 -105.90625 C 117.742188 -105.5 117.441406 -105.117188 117.140625 -104.765625 C 116.847656 -104.421875 116.5 -104.050781 116.09375 -103.65625 C 114.300781 -101.851563 112.300781 -100.328125 110.09375 -99.078125 C 107.894531 -97.828125 106.097656 -97.101563 104.703125 -96.90625 L 99.75 -101.84375 L 100.796875 -102.90625 C 102.492188 -104.601563 103.566406 -106.097656 104.015625 -107.390625 C 104.472656 -108.691406 104.703125 -110.34375 104.703125 -112.34375 C 104.296875 -111.644531 103.789063 -110.945313 103.1875 -110.25 C 102.59375 -109.550781 101.894531 -108.800781 101.09375 -108 C 99.09375 -106 97.09375 -104.398438 95.09375 -103.203125 C 93.09375 -102.003906 91.644531 -101.40625 90.75 -101.40625 C 90.050781 -101.601563 89.222656 -101.75 88.265625 -101.84375 C 87.316406 -101.945313 86.144531 -102 84.75 -102 C 83.050781 -102 81.222656 -101.625 79.265625 -100.875 C 77.316406 -100.125 74.59375 -98.800781 71.09375 -96.90625 C 70 -96.300781 68.953125 -95.875 67.953125 -95.625 C 66.953125 -95.375 65.898438 -95.195313 64.796875 -95.09375 C 63.898438 -95 62.578125 -94.675781 60.828125 -94.125 C 59.078125 -93.570313 57 -92.75 54.59375 -91.65625 C 52.195313 -90.550781 50.097656 -89.597656 48.296875 -88.796875 C 46.492188 -87.992188 45.09375 -87.492188 44.09375 -87.296875 L 43.203125 -84.453125 C 42.703125 -82.847656 42.300781 -81.519531 42 -80.46875 C 41.695313 -79.425781 41.546875 -78.503906 41.546875 -77.703125 C 41.546875 -76.796875 41.796875 -76.019531 42.296875 -75.375 C 42.796875 -74.726563 43.546875 -73.851563 44.546875 -72.75 C 45.046875 -72.25 45.617188 -71.847656 46.265625 -71.546875 C 46.921875 -71.242188 47.800781 -71.09375 48.90625 -71.09375 C 49.40625 -71.09375 49.953125 -71.117188 50.546875 -71.171875 C 51.148438 -71.222656 51.800781 -71.300781 52.5 -71.40625 C 53.5 -71.601563 55.125 -71.722656 57.375 -71.765625 C 59.625 -71.816406 61.800781 -71.84375 63.90625 -71.84375 C 64.101563 -71.75 64.847656 -71.25 66.140625 -70.34375 C 67.441406 -69.445313 68.894531 -68.5 70.5 -67.5 C 72.101563 -66.5 73.351563 -65.800781 74.25 -65.40625 C 75.445313 -64.90625 76.597656 -64.65625 77.703125 -64.65625 C 79.296875 -64.65625 80.546875 -65.003906 81.453125 -65.703125 L 86.40625 -60.59375 L 82.203125 -53.25 C 80.796875 -52.050781 79.316406 -51.050781 77.765625 -50.25 C 76.222656 -49.445313 74.648438 -49 73.046875 -48.90625 L 63.90625 -48.59375 C 57.40625 -48.394531 52.300781 -47.894531 48.59375 -47.09375 C 44.894531 -46.300781 41.695313 -44.550781 39 -41.84375 L 38.546875 -41.40625 Z M 89.703125 -87.75 L 88.953125 -88.65625 C 88.546875 -89.25 87.992188 -89.671875 87.296875 -89.921875 C 86.597656 -90.171875 85.898438 -90.296875 85.203125 -90.296875 C 83.703125 -90.296875 82.453125 -90.796875 81.453125 -91.796875 C 79.753906 -93.492188 78.90625 -94.796875 78.90625 -95.703125 L 79.203125 -96.296875 L 79.953125 -97.046875 C 80.453125 -97.546875 81.101563 -97.796875 81.90625 -97.796875 C 83.300781 -97.796875 84.75 -97.046875 86.25 -95.546875 C 86.75 -95.148438 87.171875 -94.648438 87.515625 -94.046875 C 87.867188 -93.453125 88.195313 -92.90625 88.5 -92.40625 L 90.59375 -88.65625 Z M 48.15625 -79.65625 C 47.550781 -80.25 47.25 -81.347656 47.25 -82.953125 C 47.25 -83.546875 47.347656 -84.144531 47.546875 -84.75 C 49.046875 -85.644531 50.546875 -86.09375 52.046875 -86.09375 C 54.847656 -86.09375 57.445313 -84.945313 59.84375 -82.65625 L 59.84375 -81.75 C 59.34375 -81.851563 58.84375 -81.925781 58.34375 -81.96875 C 57.84375 -82.019531 57.34375 -82.046875 56.84375 -82.046875 C 55.050781 -82.046875 53.378906 -81.796875 51.828125 -81.296875 C 50.273438 -80.796875 49.050781 -80.25 48.15625 -79.65625 Z M 78 -4.796875 L 70.953125 -11.703125 C 73.253906 -13.398438 75.628906 -15.375 78.078125 -17.625 C 80.523438 -19.875 83.050781 -22.300781 85.65625 -24.90625 C 92.050781 -31.300781 96.972656 -37 100.421875 -42 C 103.867188 -47 106.289063 -51.695313 107.6875 -56.09375 C 109.09375 -60.5 109.796875 -64.953125 109.796875 -69.453125 C 109.796875 -70.453125 109.769531 -71.425781 109.71875 -72.375 C 109.675781 -73.320313 109.601563 -74.296875 109.5 -75.296875 L 111.15625 -75 C 111.75 -72.300781 112.046875 -69.300781 112.046875 -66 C 112.046875 -61.101563 111.171875 -55.628906 109.421875 -49.578125 C 107.671875 -43.523438 104.445313 -37.148438 99.75 -30.453125 C 96.644531 -26.046875 93.289063 -21.691406 89.6875 -17.390625 C 86.09375 -13.097656 82.195313 -8.898438 78 -4.796875 Z M 78 -4.796875"/></symbol><g style="fill:rgb(0%,0%,0%);fill-opacity:1;"><use xlink:href="#1" x="24.000001" y="153.500869"/></g></svg>