<?xml version="1.0" encoding="UTF-8"?><svg xmlns="http://www.w3.org/2000/svg" xmlns:xlink="http://www.w3.org/1999/xlink" width="198pt" height="198pt" viewBox="0 0 198 198" version="1.1"><symbol overflow="visible" id="1"><path style="stroke:none;" d="M 50.40625 0 C 50.40625 -4.894531 51.003906 -9.394531 52.203125 -13.5 C 53.398438 -17.601563 54.75 -20.703125 56.25 -22.796875 C 57.050781 -23.898438 58.273438 -25.375 59.921875 -27.21875 C 61.578125 -29.070313 63.753906 -31.347656 66.453125 -34.046875 C 69.648438 -37.242188 71.921875 -39.867188 73.265625 -41.921875 C 74.617188 -43.972656 75.296875 -46.050781 75.296875 -48.15625 C 75.296875 -49.15625 75.195313 -50.050781 75 -50.84375 L 74.40625 -50.84375 C 74.300781 -50.050781 73.570313 -48.90625 72.21875 -47.40625 C 70.875 -45.90625 69.203125 -44.851563 67.203125 -44.25 C 66.203125 -43.945313 64.875 -43.671875 63.21875 -43.421875 C 61.570313 -43.171875 59.597656 -42.945313 57.296875 -42.75 C 56.097656 -41.945313 54.820313 -40.84375 53.46875 -39.4375 C 52.125 -38.039063 50.703125 -36.34375 49.203125 -34.34375 C 46.203125 -30.445313 43.5 -28.5 41.09375 -28.5 C 38.5 -28.5 36.375 -28.796875 34.71875 -29.390625 C 33.070313 -29.992188 31.75 -31.097656 30.75 -32.703125 L 24 -43.34375 C 24.695313 -44.644531 25.421875 -46.296875 26.171875 -48.296875 C 26.921875 -50.296875 27.75 -52.546875 28.65625 -55.046875 C 29.550781 -57.648438 30.472656 -59.875 31.421875 -61.71875 C 32.367188 -63.570313 33.242188 -65 34.046875 -66 C 35.742188 -68.195313 37.195313 -71.445313 38.40625 -75.75 C 38.601563 -76.351563 38.773438 -76.925781 38.921875 -77.46875 C 39.078125 -78.019531 39.203125 -78.546875 39.296875 -79.046875 L 30.296875 -109.203125 C 29.492188 -109.003906 28.644531 -108.90625 27.75 -108.90625 C 24.945313 -108.90625 22.546875 -109.878906 20.546875 -111.828125 C 18.546875 -113.773438 17.546875 -116.195313 17.546875 -119.09375 C 17.546875 -122 18.546875 -124.425781 20.546875 -126.375 C 22.546875 -128.320313 24.945313 -129.296875 27.75 -129.296875 C 30.550781 -129.296875 32.953125 -128.320313 34.953125 -126.375 C 36.953125 -124.425781 37.953125 -122 37.953125 -119.09375 C 37.953125 -117.300781 37.550781 -115.675781 36.75 -114.21875 C 35.945313 -112.769531 34.894531 -111.597656 33.59375 -110.703125 L 47.09375 -90.296875 C 48 -90.796875 49.050781 -91.394531 50.25 -92.09375 C 51.144531 -95 51.59375 -98.050781 51.59375 -101.25 C 51.59375 -102.851563 51.492188 -104.425781 51.296875 -105.96875 C 51.097656 -107.519531 50.800781 -109.097656 50.40625 -110.703125 L 53.25 -110.703125 L 52.953125 -121.34375 C 50.148438 -121.34375 47.75 -122.316406 45.75 -124.265625 C 43.75 -126.222656 42.75 -128.648438 42.75 -131.546875 C 42.75 -134.453125 43.75 -136.878906 45.75 -138.828125 C 47.75 -140.773438 50.148438 -141.75 52.953125 -141.75 C 55.753906 -141.75 58.15625 -140.773438 60.15625 -138.828125 C 62.15625 -136.878906 63.15625 -134.453125 63.15625 -131.546875 C 63.15625 -129.242188 62.53125 -127.242188 61.28125 -125.546875 C 60.03125 -123.847656 58.453125 -122.648438 56.546875 -121.953125 L 63 -102.453125 C 63.101563 -101.953125 63.253906 -101.453125 63.453125 -100.953125 L 63.59375 -100.203125 L 64.5 -100.203125 C 64.894531 -101.097656 65.191406 -102.59375 65.390625 -104.6875 C 65.597656 -106.789063 65.703125 -108.546875 65.703125 -109.953125 C 65.703125 -110.847656 65.675781 -111.742188 65.625 -112.640625 C 65.570313 -113.546875 65.5 -114.347656 65.40625 -115.046875 L 70.65625 -115.046875 C 73.050781 -113.742188 75.097656 -111.84375 76.796875 -109.34375 L 79.34375 -126.296875 C 76.945313 -126.703125 74.945313 -127.828125 73.34375 -129.671875 C 71.75 -131.523438 70.953125 -133.75 70.953125 -136.34375 C 70.953125 -139.25 71.953125 -141.675781 73.953125 -143.625 C 75.953125 -145.570313 78.351563 -146.546875 81.15625 -146.546875 C 83.945313 -146.546875 86.34375 -145.570313 88.34375 -143.625 C 90.34375 -141.675781 91.34375 -139.25 91.34375 -136.34375 C 91.34375 -133.75 90.539063 -131.523438 88.9375 -129.671875 C 87.34375 -127.828125 85.347656 -126.703125 82.953125 -126.296875 L 87.59375 -94.34375 C 90.195313 -93.050781 92.75 -91.550781 95.25 -89.84375 L 105.75 -121.953125 C 103.851563 -122.648438 102.28125 -123.847656 101.03125 -125.546875 C 99.78125 -127.242188 99.15625 -129.242188 99.15625 -131.546875 C 99.15625 -134.453125 100.15625 -136.878906 102.15625 -138.828125 C 104.15625 -140.773438 106.550781 -141.75 109.34375 -141.75 C 112.25 -141.75 114.675781 -140.773438 116.625 -138.828125 C 118.570313 -136.878906 119.546875 -134.453125 119.546875 -131.546875 C 119.546875 -128.648438 118.546875 -126.222656 116.546875 -124.265625 C 114.546875 -122.316406 112.144531 -121.34375 109.34375 -121.34375 L 108.15625 -79.5 L 128.703125 -110.703125 C 127.398438 -111.597656 126.347656 -112.769531 125.546875 -114.21875 C 124.742188 -115.675781 124.34375 -117.300781 124.34375 -119.09375 C 124.34375 -122 125.34375 -124.425781 127.34375 -126.375 C 129.34375 -128.320313 131.742188 -129.296875 134.546875 -129.296875 C 137.453125 -129.296875 139.878906 -128.320313 141.828125 -126.375 C 143.773438 -124.425781 144.75 -122 144.75 -119.09375 C 144.75 -116.195313 143.75 -113.773438 141.75 -111.828125 C 139.75 -109.878906 137.347656 -108.90625 134.546875 -108.90625 C 133.648438 -108.90625 132.800781 -109.003906 132 -109.203125 L 117.296875 -60.296875 C 119.203125 -55.703125 120.703125 -50.800781 121.796875 -45.59375 C 123.203125 -38.695313 124.253906 -31.570313 124.953125 -24.21875 C 125.648438 -16.875 126 -9.25 126 -1.34375 L 126 0 Z M 81.296875 -130.796875 C 82.703125 -130.796875 83.925781 -131.34375 84.96875 -132.4375 C 86.019531 -133.539063 86.546875 -134.894531 86.546875 -136.5 C 86.546875 -138 86.019531 -139.25 84.96875 -140.25 C 83.925781 -141.25 82.601563 -141.75 81 -141.75 C 79.601563 -141.75 78.378906 -141.25 77.328125 -140.25 C 76.273438 -139.25 75.75 -138 75.75 -136.5 C 75.75 -134.894531 76.273438 -133.539063 77.328125 -132.4375 C 78.378906 -131.34375 79.703125 -130.796875 81.296875 -130.796875 Z M 109.203125 -126 C 110.898438 -126 112.25 -126.546875 113.25 -127.640625 C 114.25 -128.742188 114.75 -130.097656 114.75 -131.703125 C 114.75 -133.203125 114.222656 -134.453125 113.171875 -135.453125 C 112.117188 -136.453125 110.894531 -136.953125 109.5 -136.953125 C 107.894531 -136.953125 106.566406 -136.453125 105.515625 -135.453125 C 104.472656 -134.453125 103.953125 -133.203125 103.953125 -131.703125 C 103.953125 -130.097656 104.472656 -128.742188 105.515625 -127.640625 C 106.566406 -126.546875 107.796875 -126 109.203125 -126 Z M 53.09375 -126 C 54.5 -126 55.722656 -126.546875 56.765625 -127.640625 C 57.816406 -128.742188 58.34375 -130.097656 58.34375 -131.703125 C 58.34375 -133.203125 57.816406 -134.453125 56.765625 -135.453125 C 55.722656 -136.453125 54.398438 -136.953125 52.796875 -136.953125 C 51.398438 -136.953125 50.175781 -136.453125 49.125 -135.453125 C 48.070313 -134.453125 47.546875 -133.203125 47.546875 -131.703125 C 47.546875 -130.097656 48.070313 -128.742188 49.125 -127.640625 C 50.175781 -126.546875 51.5 -126 53.09375 -126 Z M 134.40625 -113.546875 C 136.101563 -113.546875 137.453125 -114.09375 138.453125 -115.1875 C 139.453125 -116.289063 139.953125 -117.644531 139.953125 -119.25 C 139.953125 -120.75 139.425781 -122 138.375 -123 C 137.320313 -124 136.097656 -124.5 134.703125 -124.5 C 133.097656 -124.5 131.769531 -124 130.71875 -123 C 129.675781 -122 129.15625 -120.75 129.15625 -119.25 C 129.15625 -117.644531 129.675781 -116.289063 130.71875 -115.1875 C 131.769531 -114.09375 133 -113.546875 134.40625 -113.546875 Z M 27.90625 -113.546875 C 29.300781 -113.546875 30.523438 -114.09375 31.578125 -115.1875 C 32.628906 -116.289063 33.15625 -117.644531 33.15625 -119.25 C 33.15625 -120.75 32.628906 -122 31.578125 -123 C 30.523438 -124 29.195313 -124.5 27.59375 -124.5 C 26.195313 -124.5 24.972656 -124 23.921875 -123 C 22.867188 -122 22.34375 -120.75 22.34375 -119.25 C 22.34375 -117.644531 22.867188 -116.289063 23.921875 -115.1875 C 24.972656 -114.09375 26.300781 -113.546875 27.90625 -113.546875 Z M 80.546875 -97.046875 C 81.453125 -96.742188 82.351563 -96.445313 83.25 -96.15625 L 81.15625 -113.703125 L 79.796875 -102.59375 C 80.296875 -100.800781 80.546875 -98.953125 80.546875 -97.046875 Z M 58.953125 -8.09375 L 116.703125 -8.09375 L 116.703125 -12.15625 C 116.703125 -25.351563 115.523438 -36.773438 113.171875 -46.421875 C 110.828125 -56.078125 107.65625 -64.128906 103.65625 -70.578125 C 99.65625 -77.023438 95.078125 -82.148438 89.921875 -85.953125 C 84.773438 -89.753906 79.351563 -92.453125 73.65625 -94.046875 C 73.945313 -96.046875 74.09375 -97.796875 74.09375 -99.296875 C 74.09375 -103.398438 72.59375 -106.953125 69.59375 -109.953125 C 69.695313 -109.453125 69.75 -108.953125 69.75 -108.453125 C 69.75 -107.953125 69.75 -107.453125 69.75 -106.953125 C 69.75 -104.453125 69.421875 -101.953125 68.765625 -99.453125 C 68.117188 -96.953125 67.347656 -95.148438 66.453125 -94.046875 L 59.546875 -94.046875 L 59.546875 -95.546875 C 59.546875 -97.953125 59.269531 -99.800781 58.71875 -101.09375 C 58.175781 -102.394531 57.101563 -103.695313 55.5 -105 C 55.894531 -103.5 56.09375 -101.597656 56.09375 -99.296875 C 56.09375 -96.398438 55.789063 -93.800781 55.1875 -91.5 C 54.59375 -89.195313 53.945313 -87.796875 53.25 -87.296875 C 52.945313 -87.097656 52.46875 -86.75 51.8125 -86.25 C 51.164063 -85.75 50.394531 -85.097656 49.5 -84.296875 C 48 -82.992188 46.820313 -81.34375 45.96875 -79.34375 C 45.125 -77.34375 44.050781 -74.34375 42.75 -70.34375 C 42.050781 -68.144531 41 -66.25 39.59375 -64.65625 C 39 -63.945313 38.273438 -62.769531 37.421875 -61.125 C 36.578125 -59.476563 35.703125 -57.40625 34.796875 -54.90625 C 33.898438 -52.40625 33.078125 -50.253906 32.328125 -48.453125 C 31.578125 -46.648438 30.953125 -45.300781 30.453125 -44.40625 L 31.796875 -41.84375 C 33.097656 -39.445313 34.097656 -37.75 34.796875 -36.75 C 35.492188 -35.75 36.289063 -35.125 37.1875 -34.875 C 38.09375 -34.625 39.394531 -34.5 41.09375 -34.5 C 42.09375 -34.5 43.09375 -34.773438 44.09375 -35.328125 C 45.09375 -35.878906 46.242188 -37.15625 47.546875 -39.15625 C 48.453125 -40.445313 49.726563 -41.941406 51.375 -43.640625 C 53.019531 -45.347656 54.34375 -46.648438 55.34375 -47.546875 C 55.644531 -47.546875 56.570313 -47.695313 58.125 -48 C 59.675781 -48.300781 61.347656 -48.675781 63.140625 -49.125 C 64.941406 -49.570313 66.296875 -49.945313 67.203125 -50.25 C 68.597656 -50.75 69.742188 -51.570313 70.640625 -52.71875 C 71.546875 -53.875 72.050781 -54.800781 72.15625 -55.5 L 79.203125 -55.5 L 81.453125 -47.40625 C 81.347656 -45.5 81.019531 -43.71875 80.46875 -42.0625 C 79.925781 -40.414063 79.101563 -38.992188 78 -37.796875 L 71.84375 -31.046875 C 67.445313 -26.242188 64.195313 -22.269531 62.09375 -19.125 C 60 -15.976563 58.953125 -12.503906 58.953125 -8.703125 Z M 105.453125 -109.203125 L 98.703125 -87 C 100.503906 -85.5 102.203125 -83.847656 103.796875 -82.046875 Z M 125.09375 -98.546875 L 110.09375 -74.25 C 111.695313 -71.851563 113.148438 -69.351563 114.453125 -66.75 Z M 37.203125 -98.546875 L 41.703125 -84.90625 C 42.296875 -85.90625 43.046875 -86.851563 43.953125 -87.75 Z M 102.90625 -10.046875 C 103.300781 -12.847656 103.570313 -15.898438 103.71875 -19.203125 C 103.875 -22.503906 103.953125 -26.003906 103.953125 -29.703125 C 103.953125 -40.003906 103.25 -48.351563 101.84375 -54.75 C 100.445313 -61.144531 98.375 -66.441406 95.625 -70.640625 C 92.875 -74.847656 89.398438 -78.703125 85.203125 -82.203125 L 86.546875 -83.09375 C 91.242188 -80.195313 95.84375 -75.546875 100.34375 -69.140625 C 104.84375 -62.742188 108.046875 -54.25 109.953125 -43.65625 C 110.953125 -38.351563 111.675781 -32.898438 112.125 -27.296875 C 112.570313 -21.703125 112.796875 -15.953125 112.796875 -10.046875 Z M 53.703125 -74.09375 C 51.398438 -74.09375 49.847656 -74.394531 49.046875 -75 L 48.90625 -75.59375 L 48.90625 -76.65625 C 48.90625 -77.75 49.425781 -78.59375 50.46875 -79.1875 C 51.519531 -79.789063 52.847656 -80.09375 54.453125 -80.09375 C 55.046875 -80.09375 55.664063 -80.039063 56.3125 -79.9375 C 56.96875 -79.84375 57.597656 -79.695313 58.203125 -79.5 L 62.40625 -78.296875 L 62.40625 -76.953125 L 61.203125 -77.09375 C 59.898438 -77.09375 58.648438 -76.59375 57.453125 -75.59375 C 56.253906 -74.59375 55.003906 -74.09375 53.703125 -74.09375 Z M 38.703125 -41.84375 C 38.097656 -41.945313 37.367188 -42.320313 36.515625 -42.96875 C 35.671875 -43.625 35.050781 -44.351563 34.65625 -45.15625 C 35.75 -49.65625 39.144531 -52.050781 44.84375 -52.34375 L 45.453125 -51.59375 C 43.453125 -50.195313 41.898438 -48.570313 40.796875 -46.71875 C 39.703125 -44.875 39.003906 -43.25 38.703125 -41.84375 Z M 38.703125 -41.84375"/></symbol><g style="fill:rgb(0%,0%,0%);fill-opacity:1;"><use xlink:href="#1" x="24.000001" y="153.499916"/></g></svg>