<?xml version="1.0" encoding="UTF-8"?><svg xmlns="http://www.w3.org/2000/svg" xmlns:xlink="http://www.w3.org/1999/xlink" width="198pt" height="198pt" viewBox="0 0 198 198" version="1.1"><symbol overflow="visible" id="1"><path style="stroke:none;" d="M 129 -5.25 L 115.34375 -5.25 L 115.34375 -14.25 L 105.15625 -14.25 L 105.15625 -20.546875 L 94.953125 -26.25 L 49.34375 -26.25 L 39.15625 -20.546875 L 39.15625 -14.25 L 21.15625 -14.25 L 21.15625 -32.84375 L 25.5 -32.84375 L 25.5 -41.84375 L 21.75 -41.84375 L 21.75 -66 L 25.5 -66 L 25.5 -75 L 21.15625 -75 L 21.15625 -93.59375 L 39.15625 -93.59375 L 39.15625 -87.15625 L 49.34375 -81.59375 L 94.953125 -81.59375 L 105.15625 -87.15625 L 105.15625 -93.59375 L 115.34375 -93.59375 L 115.34375 -102.59375 L 129 -102.59375 Z M 124.796875 -11.703125 L 124.796875 -96.15625 L 119.546875 -96.15625 L 119.546875 -11.703125 Z M 114.59375 -20.703125 L 114.59375 -87.15625 L 109.34375 -87.15625 L 109.34375 -20.703125 Z M 34.953125 -20.703125 L 34.953125 -87.15625 L 26.09375 -87.15625 L 26.09375 -78.90625 L 30.453125 -78.90625 L 30.453125 -62.09375 L 26.703125 -62.09375 L 26.703125 -45.75 L 30.453125 -45.75 L 30.453125 -28.953125 L 26.09375 -28.953125 L 26.09375 -20.703125 Z M 104.40625 -27.453125 L 104.40625 -80.40625 L 99.15625 -77.40625 L 99.15625 -30.296875 Z M 45.15625 -30.59375 L 45.15625 -77.546875 L 39.90625 -80.40625 L 39.90625 -27.453125 Z M 94.203125 -32.703125 L 94.203125 -75.15625 L 50.09375 -75.15625 L 50.09375 -32.703125 Z M 94.203125 -32.703125"/></symbol><g style="fill:rgb(0%,0%,0%);fill-opacity:1;"><use xlink:href="#1" x="24.000001" y="153.499589"/></g></svg>