<?xml version="1.0" encoding="UTF-8"?><svg xmlns="http://www.w3.org/2000/svg" xmlns:xlink="http://www.w3.org/1999/xlink" width="198pt" height="198pt" viewBox="0 0 198 198" version="1.1"><symbol overflow="visible" id="1"><path style="stroke:none;" d="M 124.796875 -5.703125 C 119.203125 -5.703125 114.253906 -7.851563 109.953125 -12.15625 C 103.046875 -8.25 94.894531 -6.296875 85.5 -6.296875 C 79.101563 -6.296875 72.40625 -7.34375 65.40625 -9.4375 C 58.40625 -11.539063 51.40625 -14.84375 44.40625 -19.34375 C 38.5 -23.144531 32.695313 -27.421875 27 -32.171875 C 21.300781 -36.921875 15.648438 -42.097656 10.046875 -47.703125 L 9.15625 -48.59375 L 62.546875 -102 C 66.046875 -98.601563 68.820313 -95.03125 70.875 -91.28125 C 72.925781 -87.53125 74.148438 -84.351563 74.546875 -81.75 C 74.742188 -80.445313 74.914063 -78.546875 75.0625 -76.046875 C 75.21875 -73.546875 75.296875 -70.394531 75.296875 -66.59375 C 75.296875 -62 75.519531 -58.5 75.96875 -56.09375 C 76.425781 -53.695313 77.453125 -51.800781 79.046875 -50.40625 L 81.15625 -48.75 L 81.59375 -49.203125 C 81.394531 -49.597656 81.195313 -50.144531 81 -50.84375 C 80.800781 -51.550781 80.703125 -52.351563 80.703125 -53.25 C 80.703125 -55.144531 81.148438 -57.046875 82.046875 -58.953125 C 82.546875 -59.847656 83.296875 -60.992188 84.296875 -62.390625 C 85.296875 -63.796875 86.5 -65.300781 87.90625 -66.90625 C 88.195313 -68.101563 88.34375 -69.550781 88.34375 -71.25 C 88.34375 -72.351563 88.289063 -73.53125 88.1875 -74.78125 C 88.09375 -76.03125 87.945313 -77.203125 87.75 -78.296875 C 87.550781 -79.703125 87.453125 -80.953125 87.453125 -82.046875 C 87.453125 -84.847656 88.101563 -87 89.40625 -88.5 C 92.101563 -91.5 94.851563 -93 97.65625 -93 C 97.945313 -93 98.269531 -93 98.625 -93 C 98.976563 -93 99.300781 -92.945313 99.59375 -92.84375 L 111.90625 -90.15625 C 112.40625 -88.75 113.03125 -87.046875 113.78125 -85.046875 C 114.53125 -83.046875 115.550781 -80.847656 116.84375 -78.453125 C 118.144531 -75.953125 119.117188 -73.75 119.765625 -71.84375 C 120.421875 -69.945313 120.800781 -68.300781 120.90625 -66.90625 C 121.101563 -65.601563 121.5 -64.125 122.09375 -62.46875 C 122.695313 -60.820313 123.550781 -59 124.65625 -57 C 126.15625 -54.5 127.28125 -52.347656 128.03125 -50.546875 C 128.78125 -48.742188 129.15625 -46.84375 129.15625 -44.84375 C 129.15625 -42.84375 128.703125 -40.242188 127.796875 -37.046875 C 129.203125 -34.148438 131.050781 -31.648438 133.34375 -29.546875 C 135.644531 -27.347656 138.144531 -25.445313 140.84375 -23.84375 L 138.296875 -21.296875 C 135.796875 -20.203125 133.5 -19.65625 131.40625 -19.65625 C 128.90625 -19.65625 126.503906 -20.40625 124.203125 -21.90625 L 123.453125 -21.296875 C 123.847656 -20.398438 124.71875 -19.148438 126.0625 -17.546875 C 127.414063 -15.953125 128.59375 -14.601563 129.59375 -13.5 C 130.695313 -12.195313 131.945313 -11.046875 133.34375 -10.046875 L 129.59375 -6.453125 C 128.800781 -6.253906 128.003906 -6.078125 127.203125 -5.921875 C 126.398438 -5.773438 125.597656 -5.703125 124.796875 -5.703125 Z M 126.75 -10.796875 C 126.351563 -11.097656 125.976563 -11.398438 125.625 -11.703125 C 125.269531 -12.003906 124.894531 -12.351563 124.5 -12.75 C 122.695313 -14.550781 121.171875 -16.550781 119.921875 -18.75 C 118.671875 -20.945313 117.945313 -22.75 117.75 -24.15625 L 122.703125 -29.09375 L 123.75 -28.046875 C 125.644531 -26.148438 127.21875 -25.023438 128.46875 -24.671875 C 129.71875 -24.328125 131.296875 -24.15625 133.203125 -24.15625 C 132.503906 -24.65625 131.800781 -25.203125 131.09375 -25.796875 C 130.394531 -26.398438 129.644531 -27.050781 128.84375 -27.75 C 126.75 -29.851563 125.148438 -31.925781 124.046875 -33.96875 C 122.953125 -36.019531 122.40625 -37.445313 122.40625 -38.25 C 122.5 -38.75 122.59375 -39.523438 122.6875 -40.578125 C 122.789063 -41.628906 122.84375 -42.800781 122.84375 -44.09375 C 122.84375 -45.800781 122.46875 -47.65625 121.71875 -49.65625 C 120.96875 -51.65625 119.644531 -54.351563 117.75 -57.75 C 117.144531 -58.851563 116.71875 -59.925781 116.46875 -60.96875 C 116.21875 -62.019531 116.046875 -63.046875 115.953125 -64.046875 C 115.847656 -64.953125 115.519531 -66.28125 114.96875 -68.03125 C 114.425781 -69.78125 113.601563 -71.851563 112.5 -74.25 C 111.394531 -76.644531 110.441406 -78.742188 109.640625 -80.546875 C 108.847656 -82.347656 108.351563 -83.75 108.15625 -84.75 L 105.75 -85.5 C 103.851563 -86.101563 102.351563 -86.550781 101.25 -86.84375 C 100.144531 -87.144531 99.195313 -87.296875 98.40625 -87.296875 C 96.90625 -87.296875 95.300781 -86.296875 93.59375 -84.296875 C 93.195313 -83.796875 92.820313 -83.195313 92.46875 -82.5 C 92.125 -81.800781 91.953125 -80.851563 91.953125 -79.65625 C 91.953125 -79.25 91.972656 -78.769531 92.015625 -78.21875 C 92.066406 -77.675781 92.144531 -77.050781 92.25 -76.34375 C 92.445313 -75.34375 92.59375 -74.117188 92.6875 -72.671875 C 92.789063 -71.222656 92.84375 -69.800781 92.84375 -68.40625 C 92.84375 -67.695313 92.84375 -67.066406 92.84375 -66.515625 C 92.84375 -65.972656 92.796875 -65.453125 92.703125 -64.953125 C 92.597656 -64.753906 92.070313 -64.003906 91.125 -62.703125 C 90.175781 -61.398438 89.222656 -59.972656 88.265625 -58.421875 C 87.316406 -56.867188 86.644531 -55.59375 86.25 -54.59375 C 85.75 -53.300781 85.5 -52.15625 85.5 -51.15625 C 85.5 -49.550781 85.847656 -48.300781 86.546875 -47.40625 L 81.453125 -42.453125 L 74.09375 -46.65625 C 72.894531 -48.050781 71.894531 -49.523438 71.09375 -51.078125 C 70.300781 -52.628906 69.851563 -54.203125 69.75 -55.796875 L 69.453125 -64.953125 C 69.253906 -71.453125 68.753906 -76.550781 67.953125 -80.25 C 67.148438 -83.945313 65.398438 -87.144531 62.703125 -89.84375 L 62.25 -90.296875 L 21.453125 -49.5 L 24.296875 -46.65625 C 36.703125 -34.25 48.300781 -25.492188 59.09375 -20.390625 C 69.894531 -15.296875 79.695313 -12.75 88.5 -12.75 C 93.101563 -12.75 97.425781 -13.320313 101.46875 -14.46875 C 105.519531 -15.625 109.25 -17.148438 112.65625 -19.046875 C 114.851563 -16.347656 116.898438 -14.296875 118.796875 -12.890625 C 120.703125 -11.492188 123.351563 -10.796875 126.75 -10.796875 Z M 102.59375 -69 C 102.695313 -69.5 102.773438 -70.023438 102.828125 -70.578125 C 102.878906 -71.128906 102.90625 -71.601563 102.90625 -72 C 102.90625 -73.894531 102.65625 -75.59375 102.15625 -77.09375 C 101.65625 -78.59375 101.101563 -79.796875 100.5 -80.703125 C 101.300781 -81.296875 102.398438 -81.59375 103.796875 -81.59375 C 104.097656 -81.59375 104.398438 -81.566406 104.703125 -81.515625 C 105.003906 -81.472656 105.300781 -81.398438 105.59375 -81.296875 C 106.5 -79.796875 106.953125 -78.25 106.953125 -76.65625 C 106.953125 -74.15625 105.800781 -71.601563 103.5 -69 Z M 86.703125 -16.796875 C 81.796875 -16.796875 76.316406 -17.695313 70.265625 -19.5 C 64.222656 -21.300781 57.898438 -24.5 51.296875 -29.09375 C 46.898438 -32.195313 42.550781 -35.546875 38.25 -39.140625 C 33.945313 -42.742188 29.75 -46.644531 25.65625 -50.84375 L 32.546875 -57.90625 C 34.242188 -55.695313 36.21875 -53.34375 38.46875 -50.84375 C 40.71875 -48.34375 43.144531 -45.796875 45.75 -43.203125 C 52.144531 -36.796875 57.84375 -31.84375 62.84375 -28.34375 C 67.84375 -24.84375 72.566406 -22.414063 77.015625 -21.0625 C 81.472656 -19.71875 85.953125 -19.046875 90.453125 -19.046875 C 91.347656 -19.046875 92.269531 -19.070313 93.21875 -19.125 C 94.175781 -19.175781 95.15625 -19.25 96.15625 -19.34375 L 95.84375 -17.703125 C 93.144531 -17.097656 90.097656 -16.796875 86.703125 -16.796875 Z M 109.5 -38.25 L 108.59375 -39.15625 L 109.5 -39.90625 C 110.101563 -40.40625 110.53125 -40.976563 110.78125 -41.625 C 111.03125 -42.269531 111.15625 -42.945313 111.15625 -43.65625 C 111.15625 -45.15625 111.65625 -46.40625 112.65625 -47.40625 C 114.351563 -49.101563 115.648438 -49.953125 116.546875 -49.953125 L 117.15625 -49.65625 L 117.90625 -48.90625 C 118.40625 -48.40625 118.65625 -47.753906 118.65625 -46.953125 C 118.65625 -45.546875 117.90625 -44.09375 116.40625 -42.59375 C 116 -42.195313 115.492188 -41.796875 114.890625 -41.390625 C 114.296875 -40.992188 113.75 -40.644531 113.25 -40.34375 Z M 109.5 -38.25"/></symbol><g style="fill:rgb(0%,0%,0%);fill-opacity:1;"><use xlink:href="#1" x="24.000001" y="153.499248"/></g></svg>