<?xml version="1.0" encoding="UTF-8"?><svg xmlns="http://www.w3.org/2000/svg" xmlns:xlink="http://www.w3.org/1999/xlink" width="198pt" height="198pt" viewBox="0 0 198 198" version="1.1"><symbol overflow="visible" id="1"><path style="stroke:none;" d="M 21.15625 -102.59375 L 34.796875 -102.59375 L 34.796875 -93.59375 L 45 -93.59375 L 45 -87.296875 L 55.203125 -81.59375 L 100.796875 -81.59375 L 111 -87.296875 L 111 -93.59375 L 129 -93.59375 L 129 -75 L 124.65625 -75 L 124.65625 -66 L 128.40625 -66 L 128.40625 -41.84375 L 124.65625 -41.84375 L 124.65625 -32.84375 L 129 -32.84375 L 129 -14.25 L 111 -14.25 L 111 -20.703125 L 100.796875 -26.25 L 55.203125 -26.25 L 45 -20.703125 L 45 -14.25 L 34.796875 -14.25 L 34.796875 -5.25 L 21.15625 -5.25 Z M 25.34375 -96.15625 L 25.34375 -11.703125 L 30.59375 -11.703125 L 30.59375 -96.15625 Z M 35.546875 -87.15625 L 35.546875 -20.703125 L 40.796875 -20.703125 L 40.796875 -87.15625 Z M 115.203125 -87.15625 L 115.203125 -20.703125 L 124.046875 -20.703125 L 124.046875 -28.953125 L 119.703125 -28.953125 L 119.703125 -45.75 L 123.453125 -45.75 L 123.453125 -62.09375 L 119.703125 -62.09375 L 119.703125 -78.90625 L 124.046875 -78.90625 L 124.046875 -87.15625 Z M 45.75 -80.40625 L 45.75 -27.453125 L 51 -30.453125 L 51 -77.546875 Z M 105 -77.25 L 105 -30.296875 L 110.25 -27.453125 L 110.25 -80.40625 Z M 55.953125 -75.15625 L 55.953125 -32.703125 L 100.046875 -32.703125 L 100.046875 -75.15625 Z M 55.953125 -75.15625"/></symbol><g style="fill:rgb(0%,0%,0%);fill-opacity:1;"><use xlink:href="#1" x="24.000001" y="153.499038"/></g></svg>