<?xml version="1.0" encoding="UTF-8"?><svg xmlns="http://www.w3.org/2000/svg" xmlns:xlink="http://www.w3.org/1999/xlink" width="198pt" height="198pt" viewBox="0 0 198 198" version="1.1"><symbol overflow="visible" id="1"><path style="stroke:none;" d="M 122.09375 -113.25 L 122.09375 -107.703125 C 122.09375 -99.898438 120.867188 -92.722656 118.421875 -86.171875 C 115.972656 -79.617188 112.5 -74.019531 108 -69.375 C 103.5 -64.726563 98.195313 -61.351563 92.09375 -59.25 C 98.894531 -54.851563 102.296875 -49.203125 102.296875 -42.296875 C 102.296875 -37.097656 100.644531 -32.523438 97.34375 -28.578125 C 94.050781 -24.628906 89.351563 -21.703125 83.25 -19.796875 C 85.351563 -19.097656 87.03125 -17.875 88.28125 -16.125 C 89.53125 -14.375 90.15625 -12.347656 90.15625 -10.046875 C 90.15625 -6.953125 88.800781 -4.503906 86.09375 -2.703125 C 83.394531 -0.898438 79.695313 0 75 0 C 70.394531 0 66.71875 -0.898438 63.96875 -2.703125 C 61.21875 -4.503906 59.84375 -6.953125 59.84375 -10.046875 C 59.84375 -12.347656 60.492188 -14.375 61.796875 -16.125 C 63.097656 -17.875 64.75 -19.097656 66.75 -19.796875 C 60.75 -21.703125 56.070313 -24.628906 52.71875 -28.578125 C 49.375 -32.523438 47.703125 -37.097656 47.703125 -42.296875 C 47.703125 -49.203125 51.101563 -54.851563 57.90625 -59.25 C 51.695313 -61.351563 46.34375 -64.726563 41.84375 -69.375 C 37.34375 -74.019531 33.894531 -79.644531 31.5 -86.25 C 29.101563 -92.851563 27.90625 -100.003906 27.90625 -107.703125 L 27.90625 -113.25 Z M 113.09375 -105 L 36.90625 -105 C 36.90625 -98.601563 38.15625 -92.550781 40.65625 -86.84375 C 43.15625 -81.144531 46.703125 -76.195313 51.296875 -72 C 55.898438 -67.800781 61.300781 -64.648438 67.5 -62.546875 L 67.5 -56.84375 C 59.601563 -53.25 55.65625 -48.300781 55.65625 -42 C 55.65625 -32.800781 61.351563 -26.25 72.75 -22.34375 L 72.75 -17.703125 C 68.445313 -15.898438 66.296875 -13.347656 66.296875 -10.046875 C 66.296875 -8.453125 67.070313 -7.078125 68.625 -5.921875 C 70.175781 -4.773438 72.300781 -4.203125 75 -4.203125 C 77.695313 -4.203125 79.820313 -4.773438 81.375 -5.921875 C 82.925781 -7.078125 83.703125 -8.453125 83.703125 -10.046875 C 83.703125 -13.347656 81.550781 -15.898438 77.25 -17.703125 L 77.25 -22.34375 C 88.644531 -26.25 94.34375 -32.800781 94.34375 -42 C 94.34375 -48.300781 90.394531 -53.25 82.5 -56.84375 L 82.5 -62.546875 C 88.800781 -64.648438 94.222656 -67.800781 98.765625 -72 C 103.316406 -76.195313 106.84375 -81.144531 109.34375 -86.84375 C 111.84375 -92.550781 113.09375 -98.601563 113.09375 -105 Z M 113.09375 -105"/></symbol><g style="fill:rgb(0%,0%,0%);fill-opacity:1;"><use xlink:href="#1" x="24.000001" y="153.499353"/></g></svg>