<?xml version="1.0" encoding="UTF-8"?><svg xmlns="http://www.w3.org/2000/svg" xmlns:xlink="http://www.w3.org/1999/xlink" width="198pt" height="198pt" viewBox="0 0 198 198" version="1.1"><symbol overflow="visible" id="1"><path style="stroke:none;" d="M 15.75 -103.953125 L 30.296875 -103.953125 C 31.703125 -102.347656 32.878906 -100.09375 33.828125 -97.1875 C 34.773438 -94.289063 35.25 -91.09375 35.25 -87.59375 L 35.25 -66 C 35.25 -63.695313 35.421875 -61.945313 35.765625 -60.75 C 36.117188 -59.550781 37.097656 -58.953125 38.703125 -58.953125 C 39.398438 -70.453125 41.847656 -76.203125 46.046875 -76.203125 C 46.648438 -76.203125 47.25 -76.050781 47.84375 -75.75 L 61.34375 -70.5 C 63.550781 -74 66.726563 -76.773438 70.875 -78.828125 C 75.019531 -80.878906 79.445313 -81.90625 84.15625 -81.90625 C 90.65625 -81.90625 96.878906 -79.601563 102.828125 -75 C 108.773438 -70.394531 114 -64.09375 118.5 -56.09375 C 120.101563 -58.894531 122.550781 -60.296875 125.84375 -60.296875 C 128.144531 -60.296875 130.117188 -59.46875 131.765625 -57.8125 C 133.421875 -56.164063 134.25 -54.195313 134.25 -51.90625 C 134.25 -49.601563 133.421875 -47.625 131.765625 -45.96875 C 130.117188 -44.320313 128.144531 -43.5 125.84375 -43.5 C 122.550781 -43.5 120.101563 -44.898438 118.5 -47.703125 C 114 -39.703125 108.773438 -33.398438 102.828125 -28.796875 C 96.878906 -24.203125 90.65625 -21.90625 84.15625 -21.90625 C 79.445313 -21.90625 75.019531 -22.925781 70.875 -24.96875 C 66.726563 -27.019531 63.550781 -29.796875 61.34375 -33.296875 L 47.84375 -28.046875 C 47.25 -27.742188 46.648438 -27.59375 46.046875 -27.59375 C 41.847656 -27.59375 39.398438 -33.34375 38.703125 -44.84375 C 37.097656 -44.84375 36.117188 -44.242188 35.765625 -43.046875 C 35.421875 -41.847656 35.25 -40.097656 35.25 -37.796875 L 35.25 -16.203125 C 35.25 -12.703125 34.773438 -9.5 33.828125 -6.59375 C 32.878906 -3.695313 31.703125 -1.445313 30.296875 0.15625 L 15.75 0.15625 L 15.75 -3.59375 C 20.050781 -4.300781 22.203125 -8.101563 22.203125 -15 L 22.203125 -43.046875 C 22.203125 -47.453125 23.550781 -50.40625 26.25 -51.90625 C 23.550781 -53.40625 22.203125 -56.351563 22.203125 -60.75 L 22.203125 -88.796875 C 22.203125 -95.703125 20.050781 -99.503906 15.75 -100.203125 Z M 22.5 -100.046875 C 23.894531 -99.046875 24.914063 -97.394531 25.5625 -95.09375 C 26.21875 -92.800781 26.546875 -90.101563 26.546875 -87 L 26.546875 -60.75 C 26.546875 -57.144531 27.546875 -54.992188 29.546875 -54.296875 C 31.546875 -53.597656 34.546875 -53.25 38.546875 -53.25 L 38.546875 -55.796875 C 33.453125 -55.796875 30.90625 -58.644531 30.90625 -64.34375 L 30.90625 -87.15625 C 30.90625 -93.75 29.703125 -97.945313 27.296875 -99.75 Z M 62.703125 -51.90625 C 62.703125 -44.90625 64.625 -39.28125 68.46875 -35.03125 C 72.320313 -30.78125 77.597656 -28.65625 84.296875 -28.65625 C 90.492188 -28.65625 96.441406 -30.851563 102.140625 -35.25 C 107.847656 -39.644531 112.398438 -45.195313 115.796875 -51.90625 C 112.398438 -58.695313 107.847656 -64.269531 102.140625 -68.625 C 96.441406 -72.976563 90.492188 -75.15625 84.296875 -75.15625 C 77.597656 -75.15625 72.320313 -73.050781 68.46875 -68.84375 C 64.625 -64.644531 62.703125 -59 62.703125 -51.90625 Z M 42.296875 -51.90625 C 42.296875 -49.300781 42.367188 -46.921875 42.515625 -44.765625 C 42.671875 -42.617188 42.945313 -40.695313 43.34375 -39 C 44.144531 -35.5 45.046875 -33.75 46.046875 -33.75 C 47.148438 -33.75 48.050781 -35.445313 48.75 -38.84375 C 49.144531 -40.550781 49.414063 -42.476563 49.5625 -44.625 C 49.71875 -46.769531 49.796875 -49.195313 49.796875 -51.90625 C 49.796875 -54.601563 49.71875 -57.050781 49.5625 -59.25 C 49.414063 -61.445313 49.144531 -63.347656 48.75 -64.953125 C 48.050781 -68.347656 47.148438 -70.046875 46.046875 -70.046875 C 45.046875 -70.046875 44.144531 -68.296875 43.34375 -64.796875 C 42.945313 -63.203125 42.671875 -61.300781 42.515625 -59.09375 C 42.367188 -56.894531 42.296875 -54.5 42.296875 -51.90625 Z M 52.046875 -68.40625 C 52.742188 -66.195313 53.269531 -63.71875 53.625 -60.96875 C 53.976563 -58.21875 54.15625 -55.195313 54.15625 -51.90625 C 54.15625 -48.601563 53.976563 -45.597656 53.625 -42.890625 C 53.269531 -40.191406 52.742188 -37.695313 52.046875 -35.40625 L 59.40625 -38.40625 C 59 -40.195313 58.695313 -42.117188 58.5 -44.171875 C 58.300781 -46.222656 58.203125 -48.800781 58.203125 -51.90625 C 58.203125 -55 58.300781 -57.570313 58.5 -59.625 C 58.695313 -61.675781 59 -63.601563 59.40625 -65.40625 Z M 66.90625 -54.453125 L 93.59375 -54.453125 L 93.59375 -66.453125 L 98.40625 -66.453125 L 98.40625 -54.453125 L 110.40625 -54.453125 L 110.40625 -49.34375 L 98.40625 -49.34375 L 98.40625 -37.34375 L 93.59375 -37.34375 L 93.59375 -49.34375 L 66.90625 -49.34375 Z M 121.5 -51.90625 C 121.5 -50.695313 121.921875 -49.664063 122.765625 -48.8125 C 123.617188 -47.96875 124.644531 -47.546875 125.84375 -47.546875 C 126.945313 -47.546875 127.921875 -47.96875 128.765625 -48.8125 C 129.617188 -49.664063 130.046875 -50.695313 130.046875 -51.90625 C 130.046875 -53.101563 129.617188 -54.125 128.765625 -54.96875 C 127.921875 -55.820313 126.945313 -56.25 125.84375 -56.25 C 124.644531 -56.25 123.617188 -55.820313 122.765625 -54.96875 C 121.921875 -54.125 121.5 -53.101563 121.5 -51.90625 Z M 22.5 -3.75 L 27.296875 -4.046875 C 29.703125 -5.847656 30.90625 -10.050781 30.90625 -16.65625 L 30.90625 -39.453125 C 30.90625 -45.148438 33.453125 -48 38.546875 -48 L 38.546875 -50.546875 C 34.546875 -50.546875 31.546875 -50.195313 29.546875 -49.5 C 27.546875 -48.800781 26.546875 -46.648438 26.546875 -43.046875 L 26.546875 -16.796875 C 26.546875 -13.703125 26.21875 -11.03125 25.5625 -8.78125 C 24.914063 -6.53125 23.894531 -4.851563 22.5 -3.75 Z M 22.5 -3.75"/></symbol><g style="fill:rgb(0%,0%,0%);fill-opacity:1;"><use xlink:href="#1" x="24.000001" y="153.499051"/></g></svg>