<?xml version="1.0" encoding="UTF-8"?><svg xmlns="http://www.w3.org/2000/svg" xmlns:xlink="http://www.w3.org/1999/xlink" width="198pt" height="198pt" viewBox="0 0 198 198" version="1.1"><symbol overflow="visible" id="1"><path style="stroke:none;" d="M 131.703125 -9.59375 L 126.15625 -9.59375 C 118.351563 -9.59375 111.175781 -10.816406 104.625 -13.265625 C 98.070313 -15.722656 92.46875 -19.203125 87.8125 -23.703125 C 83.164063 -28.203125 79.796875 -33.5 77.703125 -39.59375 C 73.296875 -32.800781 67.644531 -29.40625 60.75 -29.40625 C 55.550781 -29.40625 50.972656 -31.050781 47.015625 -34.34375 C 43.066406 -37.644531 40.144531 -42.347656 38.25 -48.453125 C 37.550781 -46.347656 36.328125 -44.671875 34.578125 -43.421875 C 32.828125 -42.171875 30.800781 -41.546875 28.5 -41.546875 C 25.394531 -41.546875 22.941406 -42.921875 21.140625 -45.671875 C 19.347656 -48.421875 18.453125 -52.097656 18.453125 -56.703125 C 18.453125 -61.296875 19.347656 -64.96875 21.140625 -67.71875 C 22.941406 -70.46875 25.394531 -71.84375 28.5 -71.84375 C 30.800781 -71.84375 32.828125 -71.191406 34.578125 -69.890625 C 36.328125 -68.597656 37.550781 -66.953125 38.25 -64.953125 C 40.144531 -70.953125 43.066406 -75.625 47.015625 -78.96875 C 50.972656 -82.320313 55.550781 -84 60.75 -84 C 67.644531 -84 73.296875 -80.597656 77.703125 -73.796875 C 79.796875 -79.992188 83.164063 -85.34375 87.8125 -89.84375 C 92.46875 -94.34375 98.09375 -97.789063 104.6875 -100.1875 C 111.289063 -102.59375 118.445313 -103.796875 126.15625 -103.796875 L 131.703125 -103.796875 Z M 123.453125 -18.59375 L 123.453125 -94.796875 C 117.046875 -94.796875 110.992188 -93.546875 105.296875 -91.046875 C 99.597656 -88.546875 94.648438 -85.019531 90.453125 -80.46875 C 86.253906 -75.925781 83.101563 -70.503906 81 -64.203125 L 75.296875 -64.203125 C 71.703125 -72.097656 66.753906 -76.046875 60.453125 -76.046875 C 51.253906 -76.046875 44.703125 -70.347656 40.796875 -58.953125 L 36.15625 -58.953125 C 34.351563 -63.253906 31.800781 -65.40625 28.5 -65.40625 C 26.894531 -65.40625 25.519531 -64.628906 24.375 -63.078125 C 23.226563 -61.523438 22.65625 -59.398438 22.65625 -56.703125 C 22.65625 -54.003906 23.226563 -51.878906 24.375 -50.328125 C 25.519531 -48.773438 26.894531 -48 28.5 -48 C 31.800781 -48 34.351563 -50.148438 36.15625 -54.453125 L 40.796875 -54.453125 C 44.703125 -43.046875 51.253906 -37.34375 60.453125 -37.34375 C 66.753906 -37.34375 71.703125 -41.296875 75.296875 -49.203125 L 81 -49.203125 C 83.101563 -43.003906 86.253906 -37.601563 90.453125 -33 C 94.648438 -28.394531 99.597656 -24.84375 105.296875 -22.34375 C 110.992188 -19.84375 117.046875 -18.59375 123.453125 -18.59375 Z M 123.453125 -18.59375"/></symbol><g style="fill:rgb(0%,0%,0%);fill-opacity:1;"><use xlink:href="#1" x="24.000001" y="153.499628"/></g></svg>