<?xml version="1.0" encoding="UTF-8"?><svg xmlns="http://www.w3.org/2000/svg" xmlns:xlink="http://www.w3.org/1999/xlink" width="198pt" height="198pt" viewBox="0 0 198 198" version="1.1"><symbol overflow="visible" id="1"><path style="stroke:none;" d="M 132.59375 -33 C 127.695313 -33 123.195313 -33.597656 119.09375 -34.796875 C 115 -35.992188 111.898438 -37.34375 109.796875 -38.84375 C 108.796875 -39.644531 107.34375 -40.867188 105.4375 -42.515625 C 103.539063 -44.171875 101.242188 -46.347656 98.546875 -49.046875 C 95.347656 -52.242188 92.722656 -54.519531 90.671875 -55.875 C 88.617188 -57.226563 86.546875 -57.90625 84.453125 -57.90625 C 83.453125 -57.90625 82.550781 -57.800781 81.75 -57.59375 L 81.75 -57 C 82.550781 -56.894531 83.703125 -56.164063 85.203125 -54.8125 C 86.703125 -53.46875 87.75 -51.796875 88.34375 -49.796875 C 88.644531 -48.796875 88.921875 -47.46875 89.171875 -45.8125 C 89.421875 -44.164063 89.644531 -42.195313 89.84375 -39.90625 C 90.644531 -38.695313 91.742188 -37.414063 93.140625 -36.0625 C 94.546875 -34.71875 96.25 -33.296875 98.25 -31.796875 C 102.144531 -28.796875 104.09375 -26.097656 104.09375 -23.703125 C 104.09375 -21.097656 103.789063 -18.96875 103.1875 -17.3125 C 102.59375 -15.664063 101.5 -14.34375 99.90625 -13.34375 L 89.25 -6.59375 C 87.945313 -7.300781 86.320313 -8.03125 84.375 -8.78125 C 82.425781 -9.53125 80.148438 -10.351563 77.546875 -11.25 C 74.953125 -12.144531 72.753906 -13.066406 70.953125 -14.015625 C 69.148438 -14.972656 67.695313 -15.851563 66.59375 -16.65625 C 64.394531 -18.351563 61.144531 -19.800781 56.84375 -21 C 53.945313 -21.800781 51.570313 -22.578125 49.71875 -23.328125 C 47.875 -24.078125 46.273438 -25.148438 44.921875 -26.546875 C 43.578125 -27.953125 42.101563 -30.050781 40.5 -32.84375 C 37.695313 -33.75 34.644531 -34.203125 31.34375 -34.203125 C 29.75 -34.203125 28.175781 -34.097656 26.625 -33.890625 C 25.070313 -33.691406 23.5 -33.394531 21.90625 -33 L 21.90625 -36.59375 C 23.90625 -41.894531 27.40625 -45.097656 32.40625 -46.203125 L 32.40625 -47.09375 C 31.5 -47.5 29.992188 -47.800781 27.890625 -48 C 25.796875 -48.195313 24.050781 -48.296875 22.65625 -48.296875 C 21.75 -48.296875 20.84375 -48.269531 19.9375 -48.21875 C 19.039063 -48.175781 18.242188 -48.101563 17.546875 -48 L 17.546875 -53.25 C 19.242188 -56.25 21.71875 -58.648438 24.96875 -60.453125 C 28.21875 -62.253906 31.742188 -63.15625 35.546875 -63.15625 C 37.347656 -69.351563 40.523438 -75.222656 45.078125 -80.765625 C 49.628906 -86.316406 55.453125 -91.164063 62.546875 -95.3125 C 69.648438 -99.46875 77.800781 -102.5 87 -104.40625 C 93.894531 -105.800781 101.019531 -106.847656 108.375 -107.546875 C 115.726563 -108.242188 123.351563 -108.59375 131.25 -108.59375 L 132.59375 -108.59375 Z M 124.5 -41.546875 L 124.5 -99.296875 L 120.453125 -99.296875 C 107.253906 -99.296875 95.851563 -98.117188 86.25 -95.765625 C 76.644531 -93.421875 68.59375 -90.25 62.09375 -86.25 C 55.59375 -82.25 50.441406 -77.671875 46.640625 -72.515625 C 42.847656 -67.367188 40.148438 -61.945313 38.546875 -56.25 C 36.648438 -56.550781 34.898438 -56.703125 33.296875 -56.703125 C 29.203125 -56.703125 25.65625 -55.203125 22.65625 -52.203125 C 23.15625 -52.296875 23.65625 -52.34375 24.15625 -52.34375 C 24.65625 -52.34375 25.15625 -52.34375 25.65625 -52.34375 C 28.25 -52.34375 30.769531 -52.019531 33.21875 -51.375 C 35.675781 -50.726563 37.453125 -49.953125 38.546875 -49.046875 L 38.546875 -42.15625 L 37.046875 -42.15625 C 34.648438 -42.15625 32.800781 -41.878906 31.5 -41.328125 C 30.195313 -40.773438 28.894531 -39.695313 27.59375 -38.09375 C 29.09375 -38.5 30.992188 -38.703125 33.296875 -38.703125 C 36.203125 -38.703125 38.800781 -38.398438 41.09375 -37.796875 C 43.394531 -37.203125 44.796875 -36.550781 45.296875 -35.84375 C 45.492188 -35.550781 45.867188 -35.078125 46.421875 -34.421875 C 46.972656 -33.773438 47.597656 -33 48.296875 -32.09375 C 49.597656 -30.59375 51.25 -29.414063 53.25 -28.5625 C 55.25 -27.71875 58.25 -26.644531 62.25 -25.34375 C 64.445313 -24.644531 66.347656 -23.597656 67.953125 -22.203125 C 68.648438 -21.597656 69.820313 -20.867188 71.46875 -20.015625 C 73.125 -19.171875 75.203125 -18.300781 77.703125 -17.40625 C 80.203125 -16.5 82.347656 -15.671875 84.140625 -14.921875 C 85.941406 -14.171875 87.296875 -13.546875 88.203125 -13.046875 L 90.75 -14.40625 C 93.144531 -15.695313 94.84375 -16.691406 95.84375 -17.390625 C 96.84375 -18.097656 97.46875 -18.898438 97.71875 -19.796875 C 97.96875 -20.703125 98.09375 -22.003906 98.09375 -23.703125 C 98.09375 -24.703125 97.816406 -25.703125 97.265625 -26.703125 C 96.722656 -27.703125 95.453125 -28.851563 93.453125 -30.15625 C 92.148438 -31.050781 90.648438 -32.320313 88.953125 -33.96875 C 87.253906 -35.625 85.953125 -36.953125 85.046875 -37.953125 C 85.046875 -38.253906 84.894531 -39.175781 84.59375 -40.71875 C 84.300781 -42.269531 83.953125 -43.945313 83.546875 -45.75 C 83.148438 -47.550781 82.75 -48.898438 82.34375 -49.796875 C 81.84375 -51.203125 81.039063 -52.351563 79.9375 -53.25 C 78.84375 -54.144531 77.894531 -54.644531 77.09375 -54.75 L 77.09375 -61.796875 L 85.203125 -64.046875 C 87.097656 -63.953125 88.867188 -63.628906 90.515625 -63.078125 C 92.171875 -62.523438 93.597656 -61.695313 94.796875 -60.59375 L 101.546875 -54.453125 C 106.347656 -50.046875 110.320313 -46.789063 113.46875 -44.6875 C 116.625 -42.59375 120.101563 -41.546875 123.90625 -41.546875 Z M 122.546875 -85.5 C 119.742188 -85.894531 116.71875 -86.164063 113.46875 -86.3125 C 110.21875 -86.46875 106.695313 -86.546875 102.90625 -86.546875 C 92.695313 -86.546875 84.367188 -85.84375 77.921875 -84.4375 C 71.472656 -83.039063 66.148438 -80.96875 61.953125 -78.21875 C 57.753906 -75.46875 53.90625 -71.992188 50.40625 -67.796875 L 49.5 -69.15625 C 52.394531 -73.851563 57.039063 -78.453125 63.4375 -82.953125 C 69.84375 -87.453125 78.347656 -90.648438 88.953125 -92.546875 C 94.253906 -93.546875 99.703125 -94.269531 105.296875 -94.71875 C 110.898438 -95.175781 116.648438 -95.40625 122.546875 -95.40625 Z M 58.5 -36.296875 C 58.5 -33.992188 58.195313 -32.445313 57.59375 -31.65625 L 57 -31.5 L 55.953125 -31.5 C 54.953125 -31.5 54.125 -32.023438 53.46875 -33.078125 C 52.820313 -34.128906 52.5 -35.453125 52.5 -37.046875 C 52.5 -37.648438 52.570313 -38.273438 52.71875 -38.921875 C 52.875 -39.578125 53 -40.203125 53.09375 -40.796875 L 54.296875 -45 L 55.65625 -45 L 55.5 -43.796875 C 55.5 -42.492188 56 -41.242188 57 -40.046875 C 58 -38.847656 58.5 -37.597656 58.5 -36.296875 Z M 90.75 -21.296875 C 90.644531 -20.703125 90.269531 -19.976563 89.625 -19.125 C 88.976563 -18.269531 88.253906 -17.644531 87.453125 -17.25 C 82.953125 -18.351563 80.550781 -21.753906 80.25 -27.453125 L 81 -28.046875 C 82.394531 -26.046875 84.039063 -24.492188 85.9375 -23.390625 C 87.84375 -22.296875 89.445313 -21.597656 90.75 -21.296875 Z M 90.75 -21.296875"/></symbol><g style="fill:rgb(0%,0%,0%);fill-opacity:1;"><use xlink:href="#1" x="24.000001" y="153.499615"/></g></svg>