<?xml version="1.0" encoding="UTF-8"?><svg xmlns="http://www.w3.org/2000/svg" xmlns:xlink="http://www.w3.org/1999/xlink" width="198pt" height="198pt" viewBox="0 0 198 198" version="1.1"><symbol overflow="visible" id="1"><path style="stroke:none;" d="M 123.75 -107.84375 L 123.75 -94.203125 L 114.75 -94.203125 L 114.75 -84 L 108.453125 -84 L 102.75 -73.796875 L 102.75 -28.203125 L 108.453125 -18 L 114.75 -18 L 114.75 0 L 96.15625 0 L 96.15625 -4.34375 L 87.15625 -4.34375 L 87.15625 -0.59375 L 63 -0.59375 L 63 -4.34375 L 54 -4.34375 L 54 0 L 35.40625 0 L 35.40625 -18 L 41.84375 -18 L 47.40625 -28.203125 L 47.40625 -73.796875 L 41.84375 -84 L 35.40625 -84 L 35.40625 -94.203125 L 26.40625 -94.203125 L 26.40625 -107.84375 Z M 117.296875 -103.65625 L 32.84375 -103.65625 L 32.84375 -98.40625 L 117.296875 -98.40625 Z M 108.296875 -93.453125 L 41.84375 -93.453125 L 41.84375 -88.203125 L 108.296875 -88.203125 Z M 101.546875 -83.25 L 48.59375 -83.25 L 51.59375 -78 L 98.703125 -78 Z M 96.296875 -73.046875 L 53.84375 -73.046875 L 53.84375 -28.953125 L 96.296875 -28.953125 Z M 98.40625 -24 L 51.453125 -24 L 48.59375 -18.75 L 101.546875 -18.75 Z M 108.296875 -13.796875 L 41.84375 -13.796875 L 41.84375 -4.953125 L 50.09375 -4.953125 L 50.09375 -9.296875 L 66.90625 -9.296875 L 66.90625 -5.546875 L 83.25 -5.546875 L 83.25 -9.296875 L 100.046875 -9.296875 L 100.046875 -4.953125 L 108.296875 -4.953125 Z M 108.296875 -13.796875"/></symbol><g style="fill:rgb(0%,0%,0%);fill-opacity:1;"><use xlink:href="#1" x="24.000001" y="153.499314"/></g></svg>