<?xml version="1.0" encoding="UTF-8"?><svg xmlns="http://www.w3.org/2000/svg" xmlns:xlink="http://www.w3.org/1999/xlink" width="198pt" height="198pt" viewBox="0 0 198 198" version="1.1"><symbol overflow="visible" id="1"><path style="stroke:none;" d="M 15.90625 -54 C 15.90625 -58.695313 16.128906 -62.867188 16.578125 -66.515625 C 17.023438 -70.171875 17.597656 -73.347656 18.296875 -76.046875 C 19.796875 -81.453125 21.894531 -84.15625 24.59375 -84.15625 L 55.046875 -82.046875 C 66.648438 -93.046875 77.101563 -98.546875 86.40625 -98.546875 C 92.695313 -98.546875 97.691406 -96.921875 101.390625 -93.671875 C 105.097656 -90.421875 106.953125 -85.945313 106.953125 -80.25 C 106.953125 -73.644531 104.550781 -67.945313 99.75 -63.15625 L 109.65625 -63.75 C 113.351563 -64.050781 115.601563 -61.648438 116.40625 -56.546875 L 124.796875 -56.546875 L 124.796875 -62.703125 L 128.40625 -62.703125 L 128.40625 -56.546875 L 133.953125 -56.546875 L 133.953125 -51.453125 L 128.40625 -51.453125 L 128.40625 -45.296875 L 124.796875 -45.296875 L 124.796875 -51.453125 L 116.40625 -51.453125 C 115.601563 -46.347656 113.25 -43.945313 109.34375 -44.25 L 99.75 -44.84375 C 104.550781 -40.25 106.953125 -34.550781 106.953125 -27.75 C 106.953125 -22.050781 105.097656 -17.578125 101.390625 -14.328125 C 97.691406 -11.078125 92.695313 -9.453125 86.40625 -9.453125 C 82.101563 -9.453125 77.425781 -10.675781 72.375 -13.125 C 67.320313 -15.570313 61.546875 -19.847656 55.046875 -25.953125 L 24.59375 -23.84375 C 21.800781 -23.84375 19.65625 -26.546875 18.15625 -31.953125 C 16.65625 -37.546875 15.90625 -44.894531 15.90625 -54 Z M 58.046875 -76.953125 C 59.546875 -69.453125 60.296875 -62.851563 60.296875 -57.15625 L 65.09375 -57.15625 C 69.5 -57.15625 73.800781 -57.726563 78 -58.875 C 82.195313 -60.019531 85.992188 -61.644531 89.390625 -63.75 C 92.796875 -65.851563 95.523438 -68.28125 97.578125 -71.03125 C 99.628906 -73.78125 100.65625 -76.753906 100.65625 -79.953125 C 100.65625 -83.753906 99.328125 -86.675781 96.671875 -88.71875 C 94.023438 -90.769531 90.351563 -91.796875 85.65625 -91.796875 C 81.851563 -91.796875 77.398438 -90.394531 72.296875 -87.59375 C 67.203125 -84.800781 62.453125 -81.253906 58.046875 -76.953125 Z M 20.25 -54 C 20.25 -38.195313 21.800781 -30.296875 24.90625 -30.296875 C 26.40625 -30.296875 27.550781 -32.347656 28.34375 -36.453125 C 28.75 -38.546875 29.050781 -41.066406 29.25 -44.015625 C 29.445313 -46.972656 29.546875 -50.300781 29.546875 -54 C 29.546875 -57.800781 29.46875 -61.125 29.3125 -63.96875 C 29.164063 -66.820313 28.84375 -69.300781 28.34375 -71.40625 C 27.445313 -75.601563 26.300781 -77.703125 24.90625 -77.703125 C 21.800781 -77.703125 20.25 -69.800781 20.25 -54 Z M 31.203125 -76.796875 C 33.003906 -71.597656 33.90625 -64 33.90625 -54 C 33.90625 -44.195313 33.003906 -36.597656 31.203125 -31.203125 L 39.453125 -31.65625 C 41.453125 -38.75 42.453125 -46.195313 42.453125 -54 C 42.453125 -58 42.148438 -62.023438 41.546875 -66.078125 C 40.953125 -70.128906 40.253906 -73.550781 39.453125 -76.34375 Z M 44.25 -76.046875 C 44.644531 -75.046875 45.039063 -73.367188 45.4375 -71.015625 C 45.84375 -68.671875 46.171875 -66 46.421875 -63 C 46.671875 -60 46.796875 -57 46.796875 -54 C 46.796875 -51.300781 46.671875 -48.453125 46.421875 -45.453125 C 46.171875 -42.453125 45.84375 -39.722656 45.4375 -37.265625 C 45.039063 -34.816406 44.644531 -33.046875 44.25 -31.953125 L 52.953125 -32.703125 C 53.753906 -36.003906 54.378906 -39.425781 54.828125 -42.96875 C 55.273438 -46.519531 55.5 -50.195313 55.5 -54 C 55.5 -57.894531 55.273438 -61.617188 54.828125 -65.171875 C 54.378906 -68.722656 53.753906 -72.097656 52.953125 -75.296875 Z M 84.296875 -54 C 87.992188 -52.800781 91.046875 -51.398438 93.453125 -49.796875 L 107.703125 -49.796875 C 111.003906 -49.796875 112.65625 -51.195313 112.65625 -54 C 112.65625 -56.800781 111.003906 -58.203125 107.703125 -58.203125 L 93.453125 -58.203125 C 91.347656 -56.898438 88.296875 -55.5 84.296875 -54 Z M 58.046875 -31.046875 C 62.648438 -26.648438 67.453125 -23.078125 72.453125 -20.328125 C 77.453125 -17.578125 81.851563 -16.203125 85.65625 -16.203125 C 90.15625 -16.203125 93.78125 -17.203125 96.53125 -19.203125 C 99.28125 -21.203125 100.65625 -24.148438 100.65625 -28.046875 C 100.65625 -31.242188 99.628906 -34.242188 97.578125 -37.046875 C 95.523438 -39.847656 92.796875 -42.273438 89.390625 -44.328125 C 85.992188 -46.378906 82.21875 -47.976563 78.0625 -49.125 C 73.914063 -50.269531 69.796875 -50.84375 65.703125 -50.84375 L 60.296875 -50.84375 C 60.296875 -48.445313 60.070313 -45.347656 59.625 -41.546875 C 59.175781 -37.742188 58.648438 -34.242188 58.046875 -31.046875 Z M 58.046875 -31.046875"/></symbol><g style="fill:rgb(0%,0%,0%);fill-opacity:1;"><use xlink:href="#1" x="24.000001" y="153.499012"/></g></svg>