<?xml version="1.0" encoding="UTF-8"?><svg xmlns="http://www.w3.org/2000/svg" xmlns:xlink="http://www.w3.org/1999/xlink" width="198pt" height="198pt" viewBox="0 0 198 198" version="1.1"><symbol overflow="visible" id="1"><path style="stroke:none;" d="M 127.046875 -111.15625 L 127.046875 -96.59375 C 125.453125 -95.195313 123.203125 -94.023438 120.296875 -93.078125 C 117.398438 -92.128906 114.203125 -91.65625 110.703125 -91.65625 L 89.09375 -91.65625 C 86.800781 -91.65625 85.050781 -91.476563 83.84375 -91.125 C 82.644531 -90.769531 82.046875 -89.796875 82.046875 -88.203125 C 93.546875 -87.503906 99.296875 -85.050781 99.296875 -80.84375 C 99.296875 -80.25 99.144531 -79.648438 98.84375 -79.046875 L 93.59375 -65.546875 C 97.09375 -63.347656 99.867188 -60.171875 101.921875 -56.015625 C 103.972656 -51.867188 105 -47.445313 105 -42.75 C 105 -36.351563 102.695313 -30.15625 98.09375 -24.15625 C 93.5 -18.15625 87.203125 -12.90625 79.203125 -8.40625 C 82.003906 -6.800781 83.40625 -4.347656 83.40625 -1.046875 C 83.40625 1.253906 82.578125 3.226563 80.921875 4.875 C 79.273438 6.519531 77.300781 7.34375 75 7.34375 C 72.695313 7.34375 70.71875 6.519531 69.0625 4.875 C 67.414063 3.226563 66.59375 1.253906 66.59375 -1.046875 C 66.59375 -4.347656 67.992188 -6.800781 70.796875 -8.40625 C 62.796875 -12.90625 56.492188 -18.15625 51.890625 -24.15625 C 47.296875 -30.15625 45 -36.351563 45 -42.75 C 45 -47.445313 46.023438 -51.867188 48.078125 -56.015625 C 50.128906 -60.171875 52.90625 -63.347656 56.40625 -65.546875 L 51.15625 -79.046875 C 50.851563 -79.648438 50.703125 -80.25 50.703125 -80.84375 C 50.703125 -85.050781 56.453125 -87.503906 67.953125 -88.203125 C 67.953125 -89.796875 67.347656 -90.769531 66.140625 -91.125 C 64.941406 -91.476563 63.195313 -91.65625 60.90625 -91.65625 L 39.296875 -91.65625 C 35.796875 -91.65625 32.59375 -92.128906 29.6875 -93.078125 C 26.789063 -94.023438 24.546875 -95.195313 22.953125 -96.59375 L 22.953125 -111.15625 L 26.703125 -111.15625 C 27.398438 -106.851563 31.195313 -104.703125 38.09375 -104.703125 L 66.15625 -104.703125 C 70.550781 -104.703125 73.5 -103.351563 75 -100.65625 C 76.5 -103.351563 79.445313 -104.703125 83.84375 -104.703125 L 111.90625 -104.703125 C 118.800781 -104.703125 122.597656 -106.851563 123.296875 -111.15625 Z M 123.15625 -104.40625 C 122.15625 -103.101563 120.503906 -102.097656 118.203125 -101.390625 C 115.898438 -100.691406 113.195313 -100.34375 110.09375 -100.34375 L 83.84375 -100.34375 C 80.25 -100.34375 78.097656 -99.34375 77.390625 -97.34375 C 76.691406 -95.34375 76.34375 -92.34375 76.34375 -88.34375 L 78.90625 -88.34375 C 78.90625 -93.445313 81.753906 -96 87.453125 -96 L 110.25 -96 C 116.851563 -96 121.050781 -97.195313 122.84375 -99.59375 Z M 26.84375 -104.40625 L 27.15625 -99.59375 C 28.945313 -97.195313 33.144531 -96 39.75 -96 L 62.546875 -96 C 68.242188 -96 71.09375 -93.445313 71.09375 -88.34375 L 73.65625 -88.34375 C 73.65625 -92.34375 73.300781 -95.34375 72.59375 -97.34375 C 71.894531 -99.34375 69.75 -100.34375 66.15625 -100.34375 L 39.90625 -100.34375 C 36.800781 -100.34375 34.125 -100.691406 31.875 -101.390625 C 29.625 -102.097656 27.945313 -103.101563 26.84375 -104.40625 Z M 75 -84.59375 C 72.394531 -84.59375 70.019531 -84.519531 67.875 -84.375 C 65.726563 -84.226563 63.800781 -83.953125 62.09375 -83.546875 C 58.59375 -82.742188 56.84375 -81.84375 56.84375 -80.84375 C 56.84375 -79.75 58.546875 -78.851563 61.953125 -78.15625 C 63.648438 -77.75 65.570313 -77.46875 67.71875 -77.3125 C 69.875 -77.164063 72.300781 -77.09375 75 -77.09375 C 77.695313 -77.09375 80.144531 -77.164063 82.34375 -77.3125 C 84.550781 -77.46875 86.453125 -77.75 88.046875 -78.15625 C 91.453125 -78.851563 93.15625 -79.75 93.15625 -80.84375 C 93.15625 -81.84375 91.40625 -82.742188 87.90625 -83.546875 C 86.300781 -83.953125 84.398438 -84.226563 82.203125 -84.375 C 80.003906 -84.519531 77.601563 -84.59375 75 -84.59375 Z M 91.5 -74.84375 C 89.300781 -74.144531 86.828125 -73.617188 84.078125 -73.265625 C 81.328125 -72.921875 78.300781 -72.75 75 -72.75 C 71.695313 -72.75 68.695313 -72.921875 66 -73.265625 C 63.300781 -73.617188 60.800781 -74.144531 58.5 -74.84375 L 61.5 -67.5 C 63.300781 -67.894531 65.222656 -68.191406 67.265625 -68.390625 C 69.316406 -68.597656 71.894531 -68.703125 75 -68.703125 C 78.101563 -68.703125 80.675781 -68.597656 82.71875 -68.390625 C 84.769531 -68.191406 86.695313 -67.894531 88.5 -67.5 Z M 75 -64.203125 C 68 -64.203125 62.375 -62.273438 58.125 -58.421875 C 53.875 -54.578125 51.75 -49.300781 51.75 -42.59375 C 51.75 -36.394531 53.945313 -30.445313 58.34375 -24.75 C 62.75 -19.050781 68.300781 -14.5 75 -11.09375 C 81.800781 -14.5 87.375 -19.050781 91.71875 -24.75 C 96.070313 -30.445313 98.25 -36.394531 98.25 -42.59375 C 98.25 -49.300781 96.148438 -54.578125 91.953125 -58.421875 C 87.753906 -62.273438 82.101563 -64.203125 75 -64.203125 Z M 77.546875 -60 L 77.546875 -33.296875 L 89.546875 -33.296875 L 89.546875 -28.5 L 77.546875 -28.5 L 77.546875 -16.5 L 72.453125 -16.5 L 72.453125 -28.5 L 60.453125 -28.5 L 60.453125 -33.296875 L 72.453125 -33.296875 L 72.453125 -60 Z M 75 -5.40625 C 73.800781 -5.40625 72.773438 -4.976563 71.921875 -4.125 C 71.078125 -3.269531 70.65625 -2.242188 70.65625 -1.046875 C 70.65625 0.046875 71.078125 1.019531 71.921875 1.875 C 72.773438 2.726563 73.800781 3.15625 75 3.15625 C 76.195313 3.15625 77.21875 2.726563 78.0625 1.875 C 78.914063 1.019531 79.34375 0.046875 79.34375 -1.046875 C 79.34375 -2.242188 78.914063 -3.269531 78.0625 -4.125 C 77.21875 -4.976563 76.195313 -5.40625 75 -5.40625 Z M 75 -5.40625"/></symbol><g style="fill:rgb(0%,0%,0%);fill-opacity:1;"><use xlink:href="#1" x="24.000001" y="153.499327"/></g></svg>