<?xml version="1.0" encoding="UTF-8"?><svg xmlns="http://www.w3.org/2000/svg" xmlns:xlink="http://www.w3.org/1999/xlink" width="198pt" height="198pt" viewBox="0 0 198 198" version="1.1"><symbol overflow="visible" id="1"><path style="stroke:none;" d="M 87.453125 -5.703125 C 84.046875 -9.203125 81.316406 -12.828125 79.265625 -16.578125 C 77.222656 -20.328125 75.953125 -23.453125 75.453125 -25.953125 C 75.253906 -27.253906 75.078125 -29.15625 74.921875 -31.65625 C 74.773438 -34.15625 74.703125 -37.300781 74.703125 -41.09375 C 74.703125 -45.695313 74.5 -49.222656 74.09375 -51.671875 C 73.695313 -54.117188 72.648438 -55.992188 70.953125 -57.296875 L 68.84375 -58.953125 L 68.40625 -58.5 C 68.601563 -58.101563 68.800781 -57.550781 69 -56.84375 C 69.195313 -56.144531 69.296875 -55.347656 69.296875 -54.453125 C 69.296875 -52.648438 68.847656 -50.75 67.953125 -48.75 C 67.546875 -47.851563 66.816406 -46.703125 65.765625 -45.296875 C 64.722656 -43.898438 63.5 -42.398438 62.09375 -40.796875 C 61.800781 -39.597656 61.65625 -38.148438 61.65625 -36.453125 C 61.65625 -35.453125 61.726563 -34.300781 61.875 -33 C 62.019531 -31.695313 62.144531 -30.5 62.25 -29.40625 C 62.445313 -28 62.546875 -26.75 62.546875 -25.65625 C 62.546875 -22.851563 61.894531 -20.703125 60.59375 -19.203125 C 57.894531 -16.203125 55.144531 -14.703125 52.34375 -14.703125 C 52.050781 -14.703125 51.726563 -14.703125 51.375 -14.703125 C 51.019531 -14.703125 50.695313 -14.75 50.40625 -14.84375 L 38.09375 -17.546875 C 37.695313 -18.953125 37.097656 -20.65625 36.296875 -22.65625 C 35.492188 -24.65625 34.445313 -26.851563 33.15625 -29.25 C 31.851563 -31.75 30.898438 -33.972656 30.296875 -35.921875 C 29.703125 -37.867188 29.300781 -39.492188 29.09375 -40.796875 C 29 -42.097656 28.625 -43.597656 27.96875 -45.296875 C 27.320313 -46.992188 26.445313 -48.796875 25.34375 -50.703125 C 23.84375 -53.296875 22.71875 -55.46875 21.96875 -57.21875 C 21.21875 -58.96875 20.84375 -60.84375 20.84375 -62.84375 C 20.84375 -64.945313 21.296875 -67.550781 22.203125 -70.65625 C 20.796875 -73.550781 18.945313 -76.050781 16.65625 -78.15625 C 14.351563 -80.351563 11.851563 -82.25 9.15625 -83.84375 L 11.703125 -86.40625 C 14.203125 -87.5 16.5 -88.046875 18.59375 -88.046875 C 21.195313 -88.046875 23.597656 -87.296875 25.796875 -85.796875 L 26.546875 -86.40625 C 26.148438 -87.300781 25.273438 -88.570313 23.921875 -90.21875 C 22.578125 -91.875 21.40625 -93.203125 20.40625 -94.203125 C 19.300781 -95.503906 18.050781 -96.65625 16.65625 -97.65625 L 20.40625 -101.25 C 21.195313 -101.445313 21.992188 -101.617188 22.796875 -101.765625 C 23.597656 -101.921875 24.398438 -102 25.203125 -102 C 30.796875 -102 35.742188 -99.847656 40.046875 -95.546875 C 46.953125 -99.453125 55.101563 -101.40625 64.5 -101.40625 C 71 -101.40625 77.722656 -100.351563 84.671875 -98.25 C 91.617188 -96.144531 98.59375 -92.84375 105.59375 -88.34375 C 111.5 -84.550781 117.300781 -80.28125 123 -75.53125 C 128.695313 -70.78125 134.347656 -65.601563 139.953125 -60 L 140.84375 -59.09375 Z M 87.75 -17.40625 L 128.546875 -58.203125 L 125.703125 -61.046875 C 113.296875 -73.453125 101.71875 -82.203125 90.96875 -87.296875 C 80.21875 -92.398438 70.394531 -94.953125 61.5 -94.953125 C 56.894531 -94.953125 52.59375 -94.398438 48.59375 -93.296875 C 44.59375 -92.203125 40.84375 -90.65625 37.34375 -88.65625 C 35.144531 -91.351563 33.09375 -93.398438 31.1875 -94.796875 C 29.289063 -96.203125 26.644531 -96.90625 23.25 -96.90625 C 23.644531 -96.601563 24.019531 -96.300781 24.375 -96 C 24.726563 -95.695313 25.101563 -95.347656 25.5 -94.953125 C 27.300781 -93.148438 28.847656 -91.148438 30.140625 -88.953125 C 31.441406 -86.753906 32.144531 -84.953125 32.25 -83.546875 L 27.296875 -78.59375 L 26.25 -79.65625 C 24.351563 -81.550781 22.800781 -82.671875 21.59375 -83.015625 C 20.394531 -83.367188 18.796875 -83.546875 16.796875 -83.546875 C 17.597656 -83.148438 18.347656 -82.648438 19.046875 -82.046875 C 19.742188 -81.453125 20.445313 -80.753906 21.15625 -79.953125 C 23.25 -77.847656 24.84375 -75.769531 25.9375 -73.71875 C 27.039063 -71.675781 27.59375 -70.253906 27.59375 -69.453125 C 27.5 -69.046875 27.398438 -68.316406 27.296875 -67.265625 C 27.203125 -66.222656 27.15625 -65 27.15625 -63.59375 C 27.15625 -61.894531 27.53125 -60.070313 28.28125 -58.125 C 29.03125 -56.175781 30.351563 -53.453125 32.25 -49.953125 C 32.851563 -48.847656 33.28125 -47.796875 33.53125 -46.796875 C 33.78125 -45.796875 33.953125 -44.75 34.046875 -43.65625 C 34.148438 -42.75 34.472656 -41.421875 35.015625 -39.671875 C 35.566406 -37.921875 36.394531 -35.847656 37.5 -33.453125 C 38.601563 -31.046875 39.550781 -28.941406 40.34375 -27.140625 C 41.144531 -25.347656 41.644531 -23.953125 41.84375 -22.953125 L 44.25 -22.203125 C 46.144531 -21.597656 47.664063 -21.144531 48.8125 -20.84375 C 49.96875 -20.550781 50.894531 -20.40625 51.59375 -20.40625 C 53.09375 -20.40625 54.695313 -21.40625 56.40625 -23.40625 C 56.90625 -23.90625 57.300781 -24.503906 57.59375 -25.203125 C 57.894531 -25.898438 58.046875 -26.847656 58.046875 -28.046875 C 58.046875 -28.546875 58.046875 -29.046875 58.046875 -29.546875 C 58.046875 -30.046875 57.945313 -30.644531 57.75 -31.34375 C 57.550781 -32.34375 57.398438 -33.59375 57.296875 -35.09375 C 57.203125 -36.59375 57.15625 -37.992188 57.15625 -39.296875 C 57.15625 -39.992188 57.15625 -40.644531 57.15625 -41.25 C 57.15625 -41.851563 57.203125 -42.351563 57.296875 -42.75 C 57.492188 -42.945313 58.039063 -43.695313 58.9375 -45 C 59.84375 -46.300781 60.796875 -47.722656 61.796875 -49.265625 C 62.796875 -50.816406 63.445313 -52.09375 63.75 -53.09375 C 64.25 -54.394531 64.5 -55.546875 64.5 -56.546875 C 64.5 -58.148438 64.148438 -59.398438 63.453125 -60.296875 L 68.546875 -65.25 L 75.90625 -61.046875 C 77.101563 -59.648438 78.097656 -58.175781 78.890625 -56.625 C 79.691406 -55.070313 80.144531 -53.5 80.25 -51.90625 L 80.546875 -42.75 C 80.742188 -36.25 81.242188 -31.148438 82.046875 -27.453125 C 82.847656 -23.753906 84.597656 -20.550781 87.296875 -17.84375 Z M 117.453125 -49.796875 C 115.753906 -52.097656 113.78125 -54.472656 111.53125 -56.921875 C 109.28125 -59.367188 106.851563 -61.894531 104.25 -64.5 C 97.851563 -70.894531 92.15625 -75.84375 87.15625 -79.34375 C 82.15625 -82.84375 77.453125 -85.269531 73.046875 -86.625 C 68.648438 -87.976563 64.148438 -88.65625 59.546875 -88.65625 C 58.648438 -88.65625 57.722656 -88.628906 56.765625 -88.578125 C 55.816406 -88.523438 54.84375 -88.445313 53.84375 -88.34375 L 54.15625 -90 C 56.851563 -90.601563 59.898438 -90.90625 63.296875 -90.90625 C 68.296875 -90.90625 73.796875 -90.003906 79.796875 -88.203125 C 85.796875 -86.398438 92.097656 -83.195313 98.703125 -78.59375 C 103.097656 -75.5 107.445313 -72.148438 111.75 -68.546875 C 116.050781 -64.953125 120.25 -61.050781 124.34375 -56.84375 Z M 33.453125 -57.75 L 32.84375 -58.046875 L 32.09375 -58.796875 C 31.59375 -59.296875 31.34375 -59.945313 31.34375 -60.75 C 31.34375 -62.144531 32.09375 -63.59375 33.59375 -65.09375 C 34.09375 -65.59375 34.617188 -66.019531 35.171875 -66.375 C 35.722656 -66.726563 36.25 -67.050781 36.75 -67.34375 L 40.5 -69.453125 L 41.40625 -68.546875 L 40.5 -67.796875 C 39.894531 -67.398438 39.46875 -66.847656 39.21875 -66.140625 C 38.96875 -65.441406 38.84375 -64.742188 38.84375 -64.046875 C 38.84375 -62.546875 38.34375 -61.296875 37.34375 -60.296875 C 35.644531 -58.597656 34.347656 -57.75 33.453125 -57.75 Z M 46.203125 -26.09375 C 45.898438 -26.09375 45.597656 -26.117188 45.296875 -26.171875 C 44.992188 -26.222656 44.695313 -26.300781 44.40625 -26.40625 C 43.5 -27.90625 43.046875 -29.453125 43.046875 -31.046875 C 43.046875 -33.546875 44.195313 -36.097656 46.5 -38.703125 L 47.40625 -38.703125 C 47.300781 -38.203125 47.222656 -37.703125 47.171875 -37.203125 C 47.117188 -36.703125 47.09375 -36.203125 47.09375 -35.703125 C 47.09375 -33.796875 47.34375 -32.09375 47.84375 -30.59375 C 48.34375 -29.09375 48.894531 -27.894531 49.5 -27 C 48.695313 -26.394531 47.597656 -26.09375 46.203125 -26.09375 Z M 46.203125 -26.09375"/></symbol><g style="fill:rgb(0%,0%,0%);fill-opacity:1;"><use xlink:href="#1" x="24.000001" y="153.499798"/></g></svg>