<?xml version="1.0" encoding="UTF-8"?><svg xmlns="http://www.w3.org/2000/svg" xmlns:xlink="http://www.w3.org/1999/xlink" width="198pt" height="198pt" viewBox="0 0 198 198" version="1.1"><symbol overflow="visible" id="1"><path style="stroke:none;" d="M 33.453125 0 L 33.453125 -5.40625 L 67.046875 -45.90625 L 54.90625 -45.90625 L 54.90625 -61.796875 L 67.046875 -61.796875 L 33.453125 -102.296875 L 33.453125 -107.703125 L 116.546875 -107.703125 L 116.546875 -102.296875 L 82.953125 -61.796875 L 95.09375 -61.796875 L 95.09375 -45.90625 L 82.953125 -45.90625 L 116.546875 -5.40625 L 116.546875 0 Z M 46.5 -96.296875 L 103.5 -96.296875 L 108 -101.703125 L 42 -101.703125 Z M 74.84375 -61.796875 L 75.15625 -61.796875 L 99.15625 -90.90625 L 50.84375 -90.90625 Z M 60.296875 -51.15625 L 89.703125 -51.15625 L 89.703125 -56.546875 L 60.296875 -56.546875 Z M 50.84375 -16.796875 L 99.15625 -16.796875 L 75.15625 -45.90625 L 74.84375 -45.90625 Z M 42 -6 L 108 -6 L 103.5 -11.40625 L 46.5 -11.40625 Z M 42 -6"/></symbol><g style="fill:rgb(0%,0%,0%);fill-opacity:1;"><use xlink:href="#1" x="24.000001" y="153.499877"/></g></svg>