<?xml version="1.0" encoding="UTF-8"?><svg xmlns="http://www.w3.org/2000/svg" xmlns:xlink="http://www.w3.org/1999/xlink" width="198pt" height="198pt" viewBox="0 0 198 198" version="1.1"><symbol overflow="visible" id="1"><path style="stroke:none;" d="M 45 11.703125 L 42.453125 9.15625 C 41.847656 8.050781 41.421875 6.898438 41.171875 5.703125 C 40.921875 4.503906 40.796875 3.40625 40.796875 2.40625 C 40.796875 -0.300781 41.546875 -2.753906 43.046875 -4.953125 L 42.453125 -5.703125 C 41.453125 -5.296875 40.203125 -4.46875 38.703125 -3.21875 C 37.203125 -1.96875 35.75 -0.671875 34.34375 0.671875 C 32.945313 2.023438 31.898438 3.203125 31.203125 4.203125 L 27.59375 0.453125 C 27.09375 -1.242188 26.84375 -2.84375 26.84375 -4.34375 C 26.84375 -6.945313 27.394531 -9.570313 28.5 -12.21875 C 29.601563 -14.875 31.203125 -17.203125 33.296875 -19.203125 C 29.296875 -26.398438 27.296875 -34.597656 27.296875 -43.796875 C 27.296875 -50.296875 28.367188 -57.019531 30.515625 -63.96875 C 32.671875 -70.925781 36 -77.851563 40.5 -84.75 C 44.300781 -90.644531 48.578125 -96.441406 53.328125 -102.140625 C 58.078125 -107.847656 63.25 -113.5 68.84375 -119.09375 L 69.75 -120 L 123.15625 -66.59375 C 119.75 -63.195313 116.171875 -60.472656 112.421875 -58.421875 C 108.671875 -56.367188 105.5 -55.09375 102.90625 -54.59375 C 101.601563 -54.394531 99.703125 -54.21875 97.203125 -54.0625 C 94.703125 -53.914063 91.550781 -53.84375 87.75 -53.84375 C 83.144531 -53.84375 79.644531 -53.644531 77.25 -53.25 C 74.851563 -52.851563 72.953125 -51.800781 71.546875 -50.09375 L 69.90625 -48 L 70.34375 -47.546875 C 71.144531 -48.148438 72.546875 -48.453125 74.546875 -48.453125 C 76.453125 -48.453125 78.300781 -48 80.09375 -47.09375 C 81 -46.695313 82.125 -45.972656 83.46875 -44.921875 C 84.820313 -43.867188 86.347656 -42.644531 88.046875 -41.25 C 89.453125 -40.945313 91.003906 -40.796875 92.703125 -40.796875 C 93.703125 -40.796875 94.828125 -40.867188 96.078125 -41.015625 C 97.328125 -41.171875 98.5 -41.300781 99.59375 -41.40625 C 100.300781 -41.5 100.976563 -41.570313 101.625 -41.625 C 102.269531 -41.675781 102.84375 -41.703125 103.34375 -41.703125 C 106.25 -41.703125 108.351563 -41.050781 109.65625 -39.75 C 112.65625 -36.75 114.15625 -34 114.15625 -31.5 C 114.15625 -30.601563 114.101563 -29.953125 114 -29.546875 L 111.296875 -17.25 C 109.898438 -16.851563 108.203125 -16.253906 106.203125 -15.453125 C 104.203125 -14.648438 102 -13.597656 99.59375 -12.296875 C 97.09375 -10.992188 94.894531 -10.039063 93 -9.4375 C 91.101563 -8.84375 89.453125 -8.445313 88.046875 -8.25 C 86.742188 -8.144531 85.269531 -7.769531 83.625 -7.125 C 81.976563 -6.476563 80.15625 -5.601563 78.15625 -4.5 C 75.65625 -3 73.476563 -1.875 71.625 -1.125 C 69.769531 -0.375 67.84375 0 65.84375 0 C 63.945313 0 61.398438 -0.445313 58.203125 -1.34375 C 55.296875 0.0507813 52.796875 1.898438 50.703125 4.203125 C 48.503906 6.503906 46.601563 9.003906 45 11.703125 Z M 45.296875 4.046875 C 45.796875 3.242188 46.34375 2.492188 46.9375 1.796875 C 47.539063 1.097656 48.195313 0.398438 48.90625 -0.296875 C 50.90625 -2.296875 52.90625 -3.894531 54.90625 -5.09375 C 56.90625 -6.300781 58.351563 -6.90625 59.25 -6.90625 C 59.945313 -6.800781 60.769531 -6.671875 61.71875 -6.515625 C 62.675781 -6.367188 63.851563 -6.296875 65.25 -6.296875 C 66.945313 -6.296875 68.796875 -6.671875 70.796875 -7.421875 C 72.796875 -8.171875 75.5 -9.5 78.90625 -11.40625 C 80 -12 81.070313 -12.421875 82.125 -12.671875 C 83.175781 -12.921875 84.203125 -13.097656 85.203125 -13.203125 C 86.097656 -13.296875 87.421875 -13.617188 89.171875 -14.171875 C 90.921875 -14.722656 93 -15.550781 95.40625 -16.65625 C 97.800781 -17.75 99.898438 -18.695313 101.703125 -19.5 C 103.503906 -20.300781 104.90625 -20.800781 105.90625 -21 L 106.796875 -23.84375 C 107.296875 -25.550781 107.695313 -26.925781 108 -27.96875 C 108.300781 -29.019531 108.453125 -29.894531 108.453125 -30.59375 C 108.453125 -31.5 108.222656 -32.300781 107.765625 -33 C 107.316406 -33.695313 106.546875 -34.546875 105.453125 -35.546875 C 104.953125 -36.046875 104.375 -36.445313 103.71875 -36.75 C 103.070313 -37.050781 102.195313 -37.203125 101.09375 -37.203125 C 100.59375 -37.203125 100.066406 -37.203125 99.515625 -37.203125 C 98.972656 -37.203125 98.300781 -37.101563 97.5 -36.90625 C 96.5 -36.695313 94.875 -36.566406 92.625 -36.515625 C 90.375 -36.472656 88.195313 -36.453125 86.09375 -36.453125 C 85.894531 -36.648438 85.144531 -37.171875 83.84375 -38.015625 C 82.550781 -38.867188 81.128906 -39.796875 79.578125 -40.796875 C 78.023438 -41.796875 76.75 -42.5 75.75 -42.90625 C 74.550781 -43.40625 73.398438 -43.65625 72.296875 -43.65625 C 70.703125 -43.65625 69.453125 -43.300781 68.546875 -42.59375 L 63.59375 -47.703125 L 67.796875 -55.046875 C 69.203125 -56.242188 70.675781 -57.242188 72.21875 -58.046875 C 73.769531 -58.847656 75.347656 -59.300781 76.953125 -59.40625 L 86.09375 -59.703125 C 92.59375 -59.898438 97.691406 -60.398438 101.390625 -61.203125 C 105.097656 -62.003906 108.300781 -63.753906 111 -66.453125 L 111.453125 -66.90625 L 70.65625 -107.703125 L 67.796875 -104.84375 C 55.398438 -92.445313 46.675781 -80.898438 41.625 -70.203125 C 36.570313 -59.503906 34.046875 -49.703125 34.046875 -40.796875 C 34.046875 -36.203125 34.59375 -31.878906 35.6875 -27.828125 C 36.789063 -23.773438 38.296875 -20 40.203125 -16.5 C 37.503906 -14.394531 35.453125 -12.367188 34.046875 -10.421875 C 32.648438 -8.472656 31.953125 -5.800781 31.953125 -2.40625 C 32.253906 -2.800781 32.550781 -3.171875 32.84375 -3.515625 C 33.144531 -3.867188 33.5 -4.25 33.90625 -4.65625 C 35.695313 -6.445313 37.691406 -7.992188 39.890625 -9.296875 C 42.097656 -10.597656 43.898438 -11.300781 45.296875 -11.40625 L 50.25 -6.453125 L 49.203125 -5.40625 C 47.503906 -3.695313 46.425781 -2.191406 45.96875 -0.890625 C 45.519531 0.398438 45.296875 2.046875 45.296875 4.046875 Z M 40.5 -33 L 38.84375 -33.296875 C 38.25 -35.992188 37.953125 -38.992188 37.953125 -42.296875 C 37.953125 -47.296875 38.847656 -52.796875 40.640625 -58.796875 C 42.441406 -64.796875 45.644531 -71.144531 50.25 -77.84375 C 53.351563 -82.25 56.703125 -86.597656 60.296875 -90.890625 C 63.898438 -95.191406 67.800781 -99.394531 72 -103.5 L 79.046875 -96.59375 C 76.847656 -94.894531 74.5 -92.921875 72 -90.671875 C 69.5 -88.421875 66.945313 -86 64.34375 -83.40625 C 58.050781 -77 53.15625 -71.296875 49.65625 -66.296875 C 46.15625 -61.296875 43.703125 -56.59375 42.296875 -52.1875 C 40.898438 -47.789063 40.203125 -43.34375 40.203125 -38.84375 C 40.203125 -37.84375 40.222656 -36.867188 40.265625 -35.921875 C 40.316406 -34.972656 40.394531 -34 40.5 -33 Z M 97.953125 -22.203125 C 95.148438 -22.203125 92.550781 -23.351563 90.15625 -25.65625 L 90.15625 -26.546875 C 90.65625 -26.453125 91.175781 -26.378906 91.71875 -26.328125 C 92.269531 -26.273438 92.75 -26.25 93.15625 -26.25 C 94.945313 -26.25 96.617188 -26.5 98.171875 -27 C 99.722656 -27.5 100.945313 -28.050781 101.84375 -28.65625 C 102.445313 -28.050781 102.75 -26.945313 102.75 -25.34375 C 102.75 -24.75 102.648438 -24.148438 102.453125 -23.546875 C 100.953125 -22.648438 99.453125 -22.203125 97.953125 -22.203125 Z M 68.09375 -10.5 C 66.695313 -10.5 65.25 -11.25 63.75 -12.75 C 63.351563 -13.25 62.953125 -13.773438 62.546875 -14.328125 C 62.148438 -14.878906 61.800781 -15.40625 61.5 -15.90625 L 59.40625 -19.65625 L 60.296875 -20.546875 L 61.046875 -19.65625 C 61.546875 -19.050781 62.117188 -18.625 62.765625 -18.375 C 63.421875 -18.125 64.097656 -18 64.796875 -18 C 66.296875 -18 67.546875 -17.5 68.546875 -16.5 C 70.242188 -14.800781 71.09375 -13.5 71.09375 -12.59375 L 70.796875 -12 L 70.046875 -11.25 C 69.546875 -10.75 68.894531 -10.5 68.09375 -10.5 Z M 68.09375 -10.5"/></symbol><g style="fill:rgb(0%,0%,0%);fill-opacity:1;"><use xlink:href="#1" x="24.000001" y="153.499523"/></g></svg>