<?xml version="1.0" encoding="UTF-8"?><svg xmlns="http://www.w3.org/2000/svg" xmlns:xlink="http://www.w3.org/1999/xlink" width="198pt" height="198pt" viewBox="0 0 198 198" version="1.1"><symbol overflow="visible" id="1"><path style="stroke:none;" d="M 14.84375 -55.046875 C 14.84375 -59.742188 15.066406 -63.914063 15.515625 -67.5625 C 15.972656 -71.21875 16.550781 -74.394531 17.25 -77.09375 C 18.75 -82.5 20.847656 -85.203125 23.546875 -85.203125 L 55.34375 -84.75 L 97.65625 -98.546875 C 97.550781 -98.847656 97.472656 -99.222656 97.421875 -99.671875 C 97.367188 -100.117188 97.34375 -100.644531 97.34375 -101.25 C 97.34375 -104.144531 98.316406 -106.539063 100.265625 -108.4375 C 102.222656 -110.34375 104.75 -111.296875 107.84375 -111.296875 C 110.644531 -111.296875 112.992188 -110.296875 114.890625 -108.296875 C 116.796875 -106.296875 117.75 -103.894531 117.75 -101.09375 C 117.75 -98.195313 116.773438 -95.773438 114.828125 -93.828125 C 112.878906 -91.878906 110.453125 -90.90625 107.546875 -90.90625 C 105.953125 -90.90625 104.328125 -91.328125 102.671875 -92.171875 C 101.023438 -93.023438 99.800781 -94.101563 99 -95.40625 L 69.15625 -76.953125 L 109.65625 -80.09375 L 109.65625 -80.40625 C 109.65625 -83 110.65625 -85.320313 112.65625 -87.375 C 114.65625 -89.425781 117.050781 -90.453125 119.84375 -90.453125 C 122.644531 -90.453125 125.070313 -89.5 127.125 -87.59375 C 129.175781 -85.695313 130.203125 -83.300781 130.203125 -80.40625 C 130.203125 -77.601563 129.222656 -75.175781 127.265625 -73.125 C 125.316406 -71.070313 122.894531 -70.046875 120 -70.046875 C 117.800781 -70.046875 115.847656 -70.617188 114.140625 -71.765625 C 112.441406 -72.921875 111.195313 -74.550781 110.40625 -76.65625 L 72.296875 -63.15625 L 114.75 -56.84375 C 115.144531 -59.144531 116.269531 -61.117188 118.125 -62.765625 C 119.976563 -64.421875 122.203125 -65.25 124.796875 -65.25 C 127.703125 -65.25 130.128906 -64.273438 132.078125 -62.328125 C 134.023438 -60.378906 135 -57.953125 135 -55.046875 C 135 -52.242188 134.023438 -49.84375 132.078125 -47.84375 C 130.128906 -45.84375 127.703125 -44.84375 124.796875 -44.84375 C 122.203125 -44.84375 119.976563 -45.664063 118.125 -47.3125 C 116.269531 -48.96875 115.144531 -50.945313 114.75 -53.25 L 72.296875 -46.953125 L 110.40625 -33.453125 C 111.195313 -35.546875 112.441406 -37.164063 114.140625 -38.3125 C 115.847656 -39.46875 117.800781 -40.046875 120 -40.046875 C 122.894531 -40.046875 125.316406 -39.019531 127.265625 -36.96875 C 129.222656 -34.925781 130.203125 -32.503906 130.203125 -29.703125 C 130.203125 -26.898438 129.175781 -24.523438 127.125 -22.578125 C 125.070313 -20.628906 122.644531 -19.65625 119.84375 -19.65625 C 117.050781 -19.65625 114.65625 -20.675781 112.65625 -22.71875 C 110.65625 -24.769531 109.65625 -27.097656 109.65625 -29.703125 L 109.65625 -30 L 69.15625 -33.15625 L 99 -14.703125 C 99.800781 -16.097656 101.023438 -17.195313 102.671875 -18 C 104.328125 -18.800781 105.953125 -19.203125 107.546875 -19.203125 C 110.453125 -19.203125 112.878906 -18.222656 114.828125 -16.265625 C 116.773438 -14.316406 117.75 -11.894531 117.75 -9 C 117.75 -6.195313 116.796875 -3.796875 114.890625 -1.796875 C 112.992188 0.203125 110.644531 1.203125 107.84375 1.203125 C 104.75 1.203125 102.222656 0.226563 100.265625 -1.71875 C 98.316406 -3.675781 97.34375 -6.050781 97.34375 -8.84375 C 97.34375 -9.445313 97.367188 -9.972656 97.421875 -10.421875 C 97.472656 -10.867188 97.550781 -11.242188 97.65625 -11.546875 L 55.34375 -25.34375 L 23.546875 -24.90625 C 20.742188 -24.90625 18.59375 -27.601563 17.09375 -33 C 15.59375 -38.394531 14.84375 -45.742188 14.84375 -55.046875 Z M 102 -101.09375 C 102 -99.5 102.523438 -98.203125 103.578125 -97.203125 C 104.628906 -96.203125 105.90625 -95.703125 107.40625 -95.703125 C 109 -95.703125 110.320313 -96.203125 111.375 -97.203125 C 112.425781 -98.203125 112.953125 -99.601563 112.953125 -101.40625 C 112.953125 -102.800781 112.453125 -104.023438 111.453125 -105.078125 C 110.453125 -106.128906 109.203125 -106.65625 107.703125 -106.65625 C 106.097656 -106.65625 104.742188 -106.15625 103.640625 -105.15625 C 102.546875 -104.15625 102 -102.800781 102 -101.09375 Z M 56.703125 -80.84375 L 58.046875 -75.453125 L 83.09375 -89.84375 Z M 114.296875 -80.09375 C 114.296875 -78.5 114.820313 -77.203125 115.875 -76.203125 C 116.925781 -75.203125 118.203125 -74.703125 119.703125 -74.703125 C 121.296875 -74.703125 122.617188 -75.203125 123.671875 -76.203125 C 124.722656 -77.203125 125.25 -78.601563 125.25 -80.40625 C 125.25 -81.800781 124.75 -83.023438 123.75 -84.078125 C 122.75 -85.128906 121.5 -85.65625 120 -85.65625 C 118.394531 -85.65625 117.039063 -85.15625 115.9375 -84.15625 C 114.84375 -83.15625 114.296875 -81.800781 114.296875 -80.09375 Z M 19.203125 -55.046875 C 19.203125 -39.453125 20.75 -31.65625 23.84375 -31.65625 C 25.34375 -31.65625 26.492188 -33.703125 27.296875 -37.796875 C 27.703125 -39.898438 28.003906 -42.375 28.203125 -45.21875 C 28.398438 -48.070313 28.5 -51.347656 28.5 -55.046875 C 28.5 -58.742188 28.421875 -62.019531 28.265625 -64.875 C 28.117188 -67.726563 27.796875 -70.15625 27.296875 -72.15625 C 26.398438 -76.351563 25.25 -78.453125 23.84375 -78.453125 C 20.75 -78.453125 19.203125 -70.648438 19.203125 -55.046875 Z M 30.15625 -78.15625 C 31.945313 -72.75 32.84375 -65.046875 32.84375 -55.046875 C 32.84375 -45.046875 31.945313 -37.347656 30.15625 -31.953125 L 34.796875 -31.953125 C 35.597656 -34.453125 36.296875 -37.847656 36.890625 -42.140625 C 37.492188 -46.441406 37.796875 -50.742188 37.796875 -55.046875 C 37.796875 -59.148438 37.492188 -63.398438 36.890625 -67.796875 C 36.296875 -72.203125 35.597656 -75.65625 34.796875 -78.15625 Z M 38.84375 -78 C 39.84375 -75 40.59375 -71.597656 41.09375 -67.796875 C 41.59375 -63.992188 41.84375 -59.742188 41.84375 -55.046875 C 41.84375 -45.742188 40.84375 -38.09375 38.84375 -32.09375 L 43.796875 -32.09375 C 44.597656 -34.59375 45.296875 -38.066406 45.890625 -42.515625 C 46.492188 -46.972656 46.796875 -51.148438 46.796875 -55.046875 C 46.796875 -59.148438 46.492188 -63.375 45.890625 -67.71875 C 45.296875 -72.070313 44.597656 -75.5 43.796875 -78 Z M 47.84375 -77.84375 C 49.84375 -71.84375 50.84375 -64.242188 50.84375 -55.046875 C 50.84375 -45.847656 49.84375 -38.25 47.84375 -32.25 L 52.796875 -32.25 C 53.597656 -34.644531 54.296875 -38.019531 54.890625 -42.375 C 55.492188 -46.726563 55.796875 -50.953125 55.796875 -55.046875 C 55.796875 -59.046875 55.492188 -63.269531 54.890625 -67.71875 C 54.296875 -72.175781 53.597656 -75.550781 52.796875 -77.84375 Z M 58.796875 -71.09375 C 58.992188 -70.09375 59.144531 -69.066406 59.25 -68.015625 C 59.351563 -66.972656 59.453125 -65.851563 59.546875 -64.65625 L 94.203125 -75.15625 Z M 119.25 -54.90625 C 119.25 -53.5 119.796875 -52.269531 120.890625 -51.21875 C 121.992188 -50.175781 123.347656 -49.65625 124.953125 -49.65625 C 126.453125 -49.65625 127.703125 -50.175781 128.703125 -51.21875 C 129.703125 -52.269531 130.203125 -53.597656 130.203125 -55.203125 C 130.203125 -56.597656 129.703125 -57.820313 128.703125 -58.875 C 127.703125 -59.925781 126.453125 -60.453125 124.953125 -60.453125 C 123.347656 -60.453125 121.992188 -59.953125 120.890625 -58.953125 C 119.796875 -57.953125 119.25 -56.601563 119.25 -54.90625 Z M 59.84375 -60 C 59.945313 -59.195313 60 -58.367188 60 -57.515625 C 60 -56.671875 60 -55.847656 60 -55.046875 C 60 -54.242188 60 -53.414063 60 -52.5625 C 60 -51.71875 59.945313 -50.894531 59.84375 -50.09375 L 102.15625 -55.046875 Z M 58.796875 -39 L 94.203125 -34.953125 L 59.546875 -45.453125 C 59.453125 -44.253906 59.351563 -43.128906 59.25 -42.078125 C 59.144531 -41.023438 58.992188 -40 58.796875 -39 Z M 114.296875 -30 C 114.296875 -28.300781 114.84375 -26.953125 115.9375 -25.953125 C 117.039063 -24.953125 118.394531 -24.453125 120 -24.453125 C 121.5 -24.453125 122.75 -24.972656 123.75 -26.015625 C 124.75 -27.066406 125.25 -28.296875 125.25 -29.703125 C 125.25 -31.597656 124.722656 -33.019531 123.671875 -33.96875 C 122.617188 -34.925781 121.296875 -35.40625 119.703125 -35.40625 C 118.203125 -35.40625 116.925781 -34.90625 115.875 -33.90625 C 114.820313 -32.90625 114.296875 -31.601563 114.296875 -30 Z M 56.703125 -29.25 L 83.09375 -20.25 L 58.046875 -34.65625 Z M 102 -9 C 102 -7.394531 102.546875 -6.066406 103.640625 -5.015625 C 104.742188 -3.972656 106.097656 -3.453125 107.703125 -3.453125 C 109.203125 -3.453125 110.453125 -3.972656 111.453125 -5.015625 C 112.453125 -6.066406 112.953125 -7.296875 112.953125 -8.703125 C 112.953125 -10.503906 112.425781 -11.90625 111.375 -12.90625 C 110.320313 -13.90625 109 -14.40625 107.40625 -14.40625 C 105.90625 -14.40625 104.628906 -13.90625 103.578125 -12.90625 C 102.523438 -11.90625 102 -10.601563 102 -9 Z M 102 -9"/></symbol><g style="fill:rgb(0%,0%,0%);fill-opacity:1;"><use xlink:href="#1" x="24.000001" y="153.499025"/></g></svg>