<?xml version="1.0" encoding="UTF-8"?><svg xmlns="http://www.w3.org/2000/svg" xmlns:xlink="http://www.w3.org/1999/xlink" width="198pt" height="198pt" viewBox="0 0 198 198" version="1.1"><symbol overflow="visible" id="1"><path style="stroke:none;" d="M 134.09375 -54 C 134.09375 -49.394531 133.894531 -45.242188 133.5 -41.546875 C 133.101563 -37.847656 132.503906 -34.648438 131.703125 -31.953125 C 130.203125 -26.546875 128.101563 -23.84375 125.40625 -23.84375 L 94.953125 -25.953125 C 83.347656 -14.953125 72.894531 -9.453125 63.59375 -9.453125 C 57.300781 -9.453125 52.300781 -11.078125 48.59375 -14.328125 C 44.894531 -17.578125 43.046875 -22.050781 43.046875 -27.75 C 43.046875 -34.351563 45.445313 -40.050781 50.25 -44.84375 L 40.34375 -44.25 C 36.644531 -43.945313 34.394531 -46.347656 33.59375 -51.453125 L 25.203125 -51.453125 L 25.203125 -45.296875 L 21.59375 -45.296875 L 21.59375 -51.453125 L 16.046875 -51.453125 L 16.046875 -56.546875 L 21.59375 -56.546875 L 21.59375 -62.703125 L 25.203125 -62.703125 L 25.203125 -56.546875 L 33.59375 -56.546875 C 34.394531 -61.648438 36.75 -64.050781 40.65625 -63.75 L 50.25 -63.15625 C 45.445313 -67.851563 43.046875 -73.550781 43.046875 -80.25 C 43.046875 -85.945313 44.894531 -90.421875 48.59375 -93.671875 C 52.300781 -96.921875 57.300781 -98.546875 63.59375 -98.546875 C 67.894531 -98.546875 72.570313 -97.320313 77.625 -94.875 C 82.675781 -92.425781 88.453125 -88.148438 94.953125 -82.046875 L 125.40625 -84.15625 C 128.195313 -84.15625 130.34375 -81.453125 131.84375 -76.046875 C 133.34375 -70.546875 134.09375 -63.195313 134.09375 -54 Z M 91.953125 -76.953125 C 87.347656 -81.347656 82.546875 -84.921875 77.546875 -87.671875 C 72.546875 -90.421875 68.144531 -91.796875 64.34375 -91.796875 C 59.84375 -91.796875 56.21875 -90.796875 53.46875 -88.796875 C 50.71875 -86.796875 49.34375 -83.847656 49.34375 -79.953125 C 49.34375 -76.753906 50.367188 -73.753906 52.421875 -70.953125 C 54.472656 -68.148438 57.195313 -65.722656 60.59375 -63.671875 C 64 -61.617188 67.773438 -60.019531 71.921875 -58.875 C 76.078125 -57.726563 80.203125 -57.15625 84.296875 -57.15625 L 89.703125 -57.15625 C 89.703125 -59.550781 89.925781 -62.648438 90.375 -66.453125 C 90.820313 -70.253906 91.347656 -73.753906 91.953125 -76.953125 Z M 129.75 -54 C 129.75 -69.800781 128.195313 -77.703125 125.09375 -77.703125 C 123.59375 -77.703125 122.445313 -75.648438 121.65625 -71.546875 C 121.25 -69.453125 120.945313 -66.953125 120.75 -64.046875 C 120.550781 -61.148438 120.453125 -57.800781 120.453125 -54 C 120.453125 -50.300781 120.550781 -47 120.75 -44.09375 C 120.945313 -41.195313 121.25 -38.695313 121.65625 -36.59375 C 122.550781 -32.394531 123.695313 -30.296875 125.09375 -30.296875 C 128.195313 -30.296875 129.75 -38.195313 129.75 -54 Z M 118.796875 -31.203125 C 116.992188 -36.503906 116.09375 -44.101563 116.09375 -54 C 116.09375 -63.800781 116.992188 -71.398438 118.796875 -76.796875 L 110.546875 -76.34375 C 108.546875 -69.25 107.546875 -61.800781 107.546875 -54 C 107.546875 -50 107.84375 -45.972656 108.4375 -41.921875 C 109.039063 -37.867188 109.742188 -34.445313 110.546875 -31.65625 Z M 105.75 -31.953125 C 105.351563 -32.953125 104.953125 -34.625 104.546875 -36.96875 C 104.148438 -39.320313 103.828125 -42.023438 103.578125 -45.078125 C 103.328125 -48.128906 103.203125 -51.101563 103.203125 -54 C 103.203125 -56.800781 103.328125 -59.675781 103.578125 -62.625 C 103.828125 -65.570313 104.148438 -68.269531 104.546875 -70.71875 C 104.953125 -73.175781 105.351563 -74.953125 105.75 -76.046875 L 97.046875 -75.296875 C 96.242188 -71.992188 95.617188 -68.566406 95.171875 -65.015625 C 94.722656 -61.472656 94.5 -57.800781 94.5 -54 C 94.5 -50.101563 94.722656 -46.378906 95.171875 -42.828125 C 95.617188 -39.273438 96.242188 -35.898438 97.046875 -32.703125 Z M 65.703125 -54 C 62.003906 -55.195313 58.953125 -56.597656 56.546875 -58.203125 L 42.296875 -58.203125 C 38.992188 -58.203125 37.34375 -56.800781 37.34375 -54 C 37.34375 -51.195313 38.992188 -49.796875 42.296875 -49.796875 L 56.546875 -49.796875 C 58.648438 -51.097656 61.703125 -52.5 65.703125 -54 Z M 91.953125 -31.046875 C 90.453125 -38.546875 89.703125 -45.144531 89.703125 -50.84375 L 84.90625 -50.84375 C 80.601563 -50.84375 76.328125 -50.269531 72.078125 -49.125 C 67.828125 -47.976563 64 -46.351563 60.59375 -44.25 C 57.195313 -42.144531 54.472656 -39.71875 52.421875 -36.96875 C 50.367188 -34.21875 49.34375 -31.242188 49.34375 -28.046875 C 49.34375 -24.347656 50.664063 -21.445313 53.3125 -19.34375 C 55.96875 -17.25 59.644531 -16.203125 64.34375 -16.203125 C 68.144531 -16.203125 72.59375 -17.597656 77.6875 -20.390625 C 82.789063 -23.191406 87.546875 -26.742188 91.953125 -31.046875 Z M 91.953125 -31.046875"/></symbol><g style="fill:rgb(0%,0%,0%);fill-opacity:1;"><use xlink:href="#1" x="24.000001" y="153.499563"/></g></svg>