<svg xmlns="http://www.w3.org/2000/svg" viewBox="0 0 100 100">
<g transform="translate(50,50)"><circle r="48.5" stroke-width="3" stroke="#000" fill="#fda"/><circle r="43.5" stroke-width="3" stroke="#c00" fill="none"/><path transform="scale(0.2)" stroke-linecap="round" stroke-linejoin="round" stroke-width="20" stroke="#c00" fill="none" d="M-75,35 -125,70 -170,70 -170,40 -130,40 -97,18C-130,-60 -75,-106 30,-69L164,-20L164,22 70,30M-5,-40A65,65 180 0 0 -5,90A65,65 180 0 0 -5,-40M-5,-10A35,35 180 0 0 -5,60A35,35 180 0 0 -5,-10"/></g>
</svg>
