<svg xmlns="http://www.w3.org/2000/svg" viewBox="0 0 380 380" width="380" height="380">

<rect x="0" y="0" width="380" height="380" fill="#f5e6c8" rx="4"/><rect x="110.2" y="30.400000000000006" width="159.59999999999997" height="79.8" fill="rgba(40,80,180,0.15)" stroke="none"/><polygon points="70.30000000000001,30.400000000000006 110.2,30.400000000000006 110.2,70.30000000000001" fill="rgba(40,80,180,0.15)" stroke="none"/><polygon points="309.70000000000005,30.400000000000006 269.79999999999995,30.400000000000006 269.79999999999995,70.30000000000001" fill="rgba(40,80,180,0.15)" stroke="none"/><rect x="110.2" y="30.400000000000006" width="159.59999999999997" height="79.8" fill="none" stroke="#3355aa" stroke-width="2"/><g fill="none" stroke="#2a2a2a" stroke-width="2" stroke-linecap="round"><line x1="110.2" y1="30.400000000000006" x2="150.1" y2="30.400000000000006"/><line x1="150.1" y1="30.400000000000006" x2="190" y2="30.400000000000006"/><line x1="190" y1="30.400000000000006" x2="229.9" y2="30.400000000000006"/><line x1="229.9" y1="30.400000000000006" x2="269.79999999999995" y2="30.400000000000006"/><line x1="110.2" y1="70.30000000000001" x2="150.1" y2="70.30000000000001"/><line x1="150.1" y1="70.30000000000001" x2="190" y2="70.30000000000001"/><line x1="190" y1="70.30000000000001" x2="229.9" y2="70.30000000000001"/><line x1="229.9" y1="70.30000000000001" x2="269.79999999999995" y2="70.30000000000001"/><line x1="30.400000000000006" y1="110.2" x2="70.30000000000001" y2="110.2"/><line x1="70.30000000000001" y1="110.2" x2="110.2" y2="110.2"/><line x1="110.2" y1="110.2" x2="150.1" y2="110.2"/><line x1="150.1" y1="110.2" x2="190" y2="110.2"/><line x1="190" y1="110.2" x2="229.9" y2="110.2"/><line x1="229.9" y1="110.2" x2="269.79999999999995" y2="110.2"/><line x1="269.79999999999995" y1="110.2" x2="309.70000000000005" y2="110.2"/><line x1="309.70000000000005" y1="110.2" x2="349.6" y2="110.2"/><line x1="30.400000000000006" y1="150.1" x2="70.30000000000001" y2="150.1"/><line x1="70.30000000000001" y1="150.1" x2="110.2" y2="150.1"/><line x1="110.2" y1="150.1" x2="150.1" y2="150.1"/><line x1="150.1" y1="150.1" x2="190" y2="150.1"/><line x1="190" y1="150.1" x2="229.9" y2="150.1"/><line x1="229.9" y1="150.1" x2="269.79999999999995" y2="150.1"/><line x1="269.79999999999995" y1="150.1" x2="309.70000000000005" y2="150.1"/><line x1="309.70000000000005" y1="150.1" x2="349.6" y2="150.1"/><line x1="30.400000000000006" y1="190" x2="70.30000000000001" y2="190"/><line x1="70.30000000000001" y1="190" x2="110.2" y2="190"/><line x1="110.2" y1="190" x2="150.1" y2="190"/><line x1="150.1" y1="190" x2="190" y2="190"/><line x1="190" y1="190" x2="229.9" y2="190"/><line x1="229.9" y1="190" x2="269.79999999999995" y2="190"/><line x1="269.79999999999995" y1="190" x2="309.70000000000005" y2="190"/><line x1="309.70000000000005" y1="190" x2="349.6" y2="190"/><line x1="30.400000000000006" y1="229.9" x2="70.30000000000001" y2="229.9"/><line x1="70.30000000000001" y1="229.9" x2="110.2" y2="229.9"/><line x1="110.2" y1="229.9" x2="150.1" y2="229.9"/><line x1="150.1" y1="229.9" x2="190" y2="229.9"/><line x1="190" y1="229.9" x2="229.9" y2="229.9"/><line x1="229.9" y1="229.9" x2="269.79999999999995" y2="229.9"/><line x1="269.79999999999995" y1="229.9" x2="309.70000000000005" y2="229.9"/><line x1="309.70000000000005" y1="229.9" x2="349.6" y2="229.9"/><line x1="30.400000000000006" y1="269.79999999999995" x2="70.30000000000001" y2="269.79999999999995"/><line x1="70.30000000000001" y1="269.79999999999995" x2="110.2" y2="269.79999999999995"/><line x1="110.2" y1="269.79999999999995" x2="150.1" y2="269.79999999999995"/><line x1="150.1" y1="269.79999999999995" x2="190" y2="269.79999999999995"/><line x1="190" y1="269.79999999999995" x2="229.9" y2="269.79999999999995"/><line x1="229.9" y1="269.79999999999995" x2="269.79999999999995" y2="269.79999999999995"/><line x1="269.79999999999995" y1="269.79999999999995" x2="309.70000000000005" y2="269.79999999999995"/><line x1="309.70000000000005" y1="269.79999999999995" x2="349.6" y2="269.79999999999995"/><line x1="110.2" y1="309.70000000000005" x2="150.1" y2="309.70000000000005"/><line x1="150.1" y1="309.70000000000005" x2="190" y2="309.70000000000005"/><line x1="190" y1="309.70000000000005" x2="229.9" y2="309.70000000000005"/><line x1="229.9" y1="309.70000000000005" x2="269.79999999999995" y2="309.70000000000005"/><line x1="110.2" y1="349.6" x2="150.1" y2="349.6"/><line x1="150.1" y1="349.6" x2="190" y2="349.6"/><line x1="190" y1="349.6" x2="229.9" y2="349.6"/><line x1="229.9" y1="349.6" x2="269.79999999999995" y2="349.6"/><line x1="110.2" y1="30.400000000000006" x2="110.2" y2="70.30000000000001"/><line x1="150.1" y1="30.400000000000006" x2="150.1" y2="70.30000000000001"/><line x1="190" y1="30.400000000000006" x2="190" y2="70.30000000000001"/><line x1="229.9" y1="30.400000000000006" x2="229.9" y2="70.30000000000001"/><line x1="269.79999999999995" y1="30.400000000000006" x2="269.79999999999995" y2="70.30000000000001"/><line x1="110.2" y1="70.30000000000001" x2="110.2" y2="110.2"/><line x1="150.1" y1="70.30000000000001" x2="150.1" y2="110.2"/><line x1="190" y1="70.30000000000001" x2="190" y2="110.2"/><line x1="229.9" y1="70.30000000000001" x2="229.9" y2="110.2"/><line x1="269.79999999999995" y1="70.30000000000001" x2="269.79999999999995" y2="110.2"/><line x1="30.400000000000006" y1="110.2" x2="30.400000000000006" y2="150.1"/><line x1="70.30000000000001" y1="110.2" x2="70.30000000000001" y2="150.1"/><line x1="110.2" y1="110.2" x2="110.2" y2="150.1"/><line x1="150.1" y1="110.2" x2="150.1" y2="150.1"/><line x1="190" y1="110.2" x2="190" y2="150.1"/><line x1="229.9" y1="110.2" x2="229.9" y2="150.1"/><line x1="269.79999999999995" y1="110.2" x2="269.79999999999995" y2="150.1"/><line x1="309.70000000000005" y1="110.2" x2="309.70000000000005" y2="150.1"/><line x1="349.6" y1="110.2" x2="349.6" y2="150.1"/><line x1="30.400000000000006" y1="150.1" x2="30.400000000000006" y2="190"/><line x1="70.30000000000001" y1="150.1" x2="70.30000000000001" y2="190"/><line x1="110.2" y1="150.1" x2="110.2" y2="190"/><line x1="150.1" y1="150.1" x2="150.1" y2="190"/><line x1="190" y1="150.1" x2="190" y2="190"/><line x1="229.9" y1="150.1" x2="229.9" y2="190"/><line x1="269.79999999999995" y1="150.1" x2="269.79999999999995" y2="190"/><line x1="309.70000000000005" y1="150.1" x2="309.70000000000005" y2="190"/><line x1="349.6" y1="150.1" x2="349.6" y2="190"/><line x1="30.400000000000006" y1="190" x2="30.400000000000006" y2="229.9"/><line x1="70.30000000000001" y1="190" x2="70.30000000000001" y2="229.9"/><line x1="110.2" y1="190" x2="110.2" y2="229.9"/><line x1="150.1" y1="190" x2="150.1" y2="229.9"/><line x1="190" y1="190" x2="190" y2="229.9"/><line x1="229.9" y1="190" x2="229.9" y2="229.9"/><line x1="269.79999999999995" y1="190" x2="269.79999999999995" y2="229.9"/><line x1="309.70000000000005" y1="190" x2="309.70000000000005" y2="229.9"/><line x1="349.6" y1="190" x2="349.6" y2="229.9"/><line x1="30.400000000000006" y1="229.9" x2="30.400000000000006" y2="269.79999999999995"/><line x1="70.30000000000001" y1="229.9" x2="70.30000000000001" y2="269.79999999999995"/><line x1="110.2" y1="229.9" x2="110.2" y2="269.79999999999995"/><line x1="150.1" y1="229.9" x2="150.1" y2="269.79999999999995"/><line x1="190" y1="229.9" x2="190" y2="269.79999999999995"/><line x1="229.9" y1="229.9" x2="229.9" y2="269.79999999999995"/><line x1="269.79999999999995" y1="229.9" x2="269.79999999999995" y2="269.79999999999995"/><line x1="309.70000000000005" y1="229.9" x2="309.70000000000005" y2="269.79999999999995"/><line x1="349.6" y1="229.9" x2="349.6" y2="269.79999999999995"/><line x1="110.2" y1="269.79999999999995" x2="110.2" y2="309.70000000000005"/><line x1="150.1" y1="269.79999999999995" x2="150.1" y2="309.70000000000005"/><line x1="190" y1="269.79999999999995" x2="190" y2="309.70000000000005"/><line x1="229.9" y1="269.79999999999995" x2="229.9" y2="309.70000000000005"/><line x1="269.79999999999995" y1="269.79999999999995" x2="269.79999999999995" y2="309.70000000000005"/><line x1="110.2" y1="309.70000000000005" x2="110.2" y2="349.6"/><line x1="150.1" y1="309.70000000000005" x2="150.1" y2="349.6"/><line x1="190" y1="309.70000000000005" x2="190" y2="349.6"/><line x1="229.9" y1="309.70000000000005" x2="229.9" y2="349.6"/><line x1="269.79999999999995" y1="309.70000000000005" x2="269.79999999999995" y2="349.6"/><line x1="110.2" y1="30.400000000000006" x2="150.1" y2="70.30000000000001"/><line x1="150.1" y1="30.400000000000006" x2="110.2" y2="70.30000000000001"/><line x1="150.1" y1="30.400000000000006" x2="190" y2="70.30000000000001"/><line x1="190" y1="30.400000000000006" x2="150.1" y2="70.30000000000001"/><line x1="190" y1="30.400000000000006" x2="229.9" y2="70.30000000000001"/><line x1="229.9" y1="30.400000000000006" x2="190" y2="70.30000000000001"/><line x1="229.9" y1="30.400000000000006" x2="269.79999999999995" y2="70.30000000000001"/><line x1="269.79999999999995" y1="30.400000000000006" x2="229.9" y2="70.30000000000001"/><line x1="110.2" y1="70.30000000000001" x2="150.1" y2="110.2"/><line x1="150.1" y1="70.30000000000001" x2="110.2" y2="110.2"/><line x1="150.1" y1="70.30000000000001" x2="190" y2="110.2"/><line x1="190" y1="70.30000000000001" x2="150.1" y2="110.2"/><line x1="190" y1="70.30000000000001" x2="229.9" y2="110.2"/><line x1="229.9" y1="70.30000000000001" x2="190" y2="110.2"/><line x1="229.9" y1="70.30000000000001" x2="269.79999999999995" y2="110.2"/><line x1="269.79999999999995" y1="70.30000000000001" x2="229.9" y2="110.2"/><line x1="30.400000000000006" y1="110.2" x2="70.30000000000001" y2="150.1"/><line x1="70.30000000000001" y1="110.2" x2="30.400000000000006" y2="150.1"/><line x1="70.30000000000001" y1="110.2" x2="110.2" y2="150.1"/><line x1="110.2" y1="110.2" x2="70.30000000000001" y2="150.1"/><line x1="110.2" y1="110.2" x2="150.1" y2="150.1"/><line x1="150.1" y1="110.2" x2="110.2" y2="150.1"/><line x1="150.1" y1="110.2" x2="190" y2="150.1"/><line x1="190" y1="110.2" x2="150.1" y2="150.1"/><line x1="190" y1="110.2" x2="229.9" y2="150.1"/><line x1="229.9" y1="110.2" x2="190" y2="150.1"/><line x1="229.9" y1="110.2" x2="269.79999999999995" y2="150.1"/><line x1="269.79999999999995" y1="110.2" x2="229.9" y2="150.1"/><line x1="269.79999999999995" y1="110.2" x2="309.70000000000005" y2="150.1"/><line x1="309.70000000000005" y1="110.2" x2="269.79999999999995" y2="150.1"/><line x1="309.70000000000005" y1="110.2" x2="349.6" y2="150.1"/><line x1="349.6" y1="110.2" x2="309.70000000000005" y2="150.1"/><line x1="30.400000000000006" y1="150.1" x2="70.30000000000001" y2="190"/><line x1="70.30000000000001" y1="150.1" x2="30.400000000000006" y2="190"/><line x1="70.30000000000001" y1="150.1" x2="110.2" y2="190"/><line x1="110.2" y1="150.1" x2="70.30000000000001" y2="190"/><line x1="110.2" y1="150.1" x2="150.1" y2="190"/><line x1="150.1" y1="150.1" x2="110.2" y2="190"/><line x1="150.1" y1="150.1" x2="190" y2="190"/><line x1="190" y1="150.1" x2="150.1" y2="190"/><line x1="190" y1="150.1" x2="229.9" y2="190"/><line x1="229.9" y1="150.1" x2="190" y2="190"/><line x1="229.9" y1="150.1" x2="269.79999999999995" y2="190"/><line x1="269.79999999999995" y1="150.1" x2="229.9" y2="190"/><line x1="269.79999999999995" y1="150.1" x2="309.70000000000005" y2="190"/><line x1="309.70000000000005" y1="150.1" x2="269.79999999999995" y2="190"/><line x1="309.70000000000005" y1="150.1" x2="349.6" y2="190"/><line x1="349.6" y1="150.1" x2="309.70000000000005" y2="190"/><line x1="30.400000000000006" y1="190" x2="70.30000000000001" y2="229.9"/><line x1="70.30000000000001" y1="190" x2="30.400000000000006" y2="229.9"/><line x1="70.30000000000001" y1="190" x2="110.2" y2="229.9"/><line x1="110.2" y1="190" x2="70.30000000000001" y2="229.9"/><line x1="110.2" y1="190" x2="150.1" y2="229.9"/><line x1="150.1" y1="190" x2="110.2" y2="229.9"/><line x1="150.1" y1="190" x2="190" y2="229.9"/><line x1="190" y1="190" x2="150.1" y2="229.9"/><line x1="190" y1="190" x2="229.9" y2="229.9"/><line x1="229.9" y1="190" x2="190" y2="229.9"/><line x1="229.9" y1="190" x2="269.79999999999995" y2="229.9"/><line x1="269.79999999999995" y1="190" x2="229.9" y2="229.9"/><line x1="269.79999999999995" y1="190" x2="309.70000000000005" y2="229.9"/><line x1="309.70000000000005" y1="190" x2="269.79999999999995" y2="229.9"/><line x1="309.70000000000005" y1="190" x2="349.6" y2="229.9"/><line x1="349.6" y1="190" x2="309.70000000000005" y2="229.9"/><line x1="30.400000000000006" y1="229.9" x2="70.30000000000001" y2="269.79999999999995"/><line x1="70.30000000000001" y1="229.9" x2="30.400000000000006" y2="269.79999999999995"/><line x1="70.30000000000001" y1="229.9" x2="110.2" y2="269.79999999999995"/><line x1="110.2" y1="229.9" x2="70.30000000000001" y2="269.79999999999995"/><line x1="110.2" y1="229.9" x2="150.1" y2="269.79999999999995"/><line x1="150.1" y1="229.9" x2="110.2" y2="269.79999999999995"/><line x1="150.1" y1="229.9" x2="190" y2="269.79999999999995"/><line x1="190" y1="229.9" x2="150.1" y2="269.79999999999995"/><line x1="190" y1="229.9" x2="229.9" y2="269.79999999999995"/><line x1="229.9" y1="229.9" x2="190" y2="269.79999999999995"/><line x1="229.9" y1="229.9" x2="269.79999999999995" y2="269.79999999999995"/><line x1="269.79999999999995" y1="229.9" x2="229.9" y2="269.79999999999995"/><line x1="269.79999999999995" y1="229.9" x2="309.70000000000005" y2="269.79999999999995"/><line x1="309.70000000000005" y1="229.9" x2="269.79999999999995" y2="269.79999999999995"/><line x1="309.70000000000005" y1="229.9" x2="349.6" y2="269.79999999999995"/><line x1="349.6" y1="229.9" x2="309.70000000000005" y2="269.79999999999995"/><line x1="110.2" y1="269.79999999999995" x2="150.1" y2="309.70000000000005"/><line x1="150.1" y1="269.79999999999995" x2="110.2" y2="309.70000000000005"/><line x1="150.1" y1="269.79999999999995" x2="190" y2="309.70000000000005"/><line x1="190" y1="269.79999999999995" x2="150.1" y2="309.70000000000005"/><line x1="190" y1="269.79999999999995" x2="229.9" y2="309.70000000000005"/><line x1="229.9" y1="269.79999999999995" x2="190" y2="309.70000000000005"/><line x1="229.9" y1="269.79999999999995" x2="269.79999999999995" y2="309.70000000000005"/><line x1="269.79999999999995" y1="269.79999999999995" x2="229.9" y2="309.70000000000005"/><line x1="110.2" y1="309.70000000000005" x2="150.1" y2="349.6"/><line x1="150.1" y1="309.70000000000005" x2="110.2" y2="349.6"/><line x1="150.1" y1="309.70000000000005" x2="190" y2="349.6"/><line x1="190" y1="309.70000000000005" x2="150.1" y2="349.6"/><line x1="190" y1="309.70000000000005" x2="229.9" y2="349.6"/><line x1="229.9" y1="309.70000000000005" x2="190" y2="349.6"/><line x1="229.9" y1="309.70000000000005" x2="269.79999999999995" y2="349.6"/><line x1="269.79999999999995" y1="309.70000000000005" x2="229.9" y2="349.6"/><line x1="70.30000000000001" y1="30.400000000000006" x2="110.2" y2="30.400000000000006"/><line x1="70.30000000000001" y1="30.400000000000006" x2="110.2" y2="70.30000000000001"/><line x1="309.70000000000005" y1="30.400000000000006" x2="269.79999999999995" y2="30.400000000000006"/><line x1="309.70000000000005" y1="30.400000000000006" x2="269.79999999999995" y2="70.30000000000001"/></g><g fill="#2a2a2a"><circle cx="110.2" cy="30.400000000000006" r="6" fill="#2a2a2a"/><circle cx="110.2" cy="30.400000000000006" r="12" fill="transparent" class="board-cell" data-sq="n1" data-type="node"/><circle cx="150.1" cy="30.400000000000006" r="6" fill="#2a2a2a"/><circle cx="150.1" cy="30.400000000000006" r="12" fill="transparent" class="board-cell" data-sq="n2" data-type="node"/><circle cx="190" cy="30.400000000000006" r="6" fill="#2a2a2a"/><circle cx="190" cy="30.400000000000006" r="12" fill="transparent" class="board-cell" data-sq="n3" data-type="node"/><circle cx="229.9" cy="30.400000000000006" r="6" fill="#2a2a2a"/><circle cx="229.9" cy="30.400000000000006" r="12" fill="transparent" class="board-cell" data-sq="n4" data-type="node"/><circle cx="269.79999999999995" cy="30.400000000000006" r="6" fill="#2a2a2a"/><circle cx="269.79999999999995" cy="30.400000000000006" r="12" fill="transparent" class="board-cell" data-sq="n5" data-type="node"/><circle cx="110.2" cy="70.30000000000001" r="6" fill="#2a2a2a"/><circle cx="110.2" cy="70.30000000000001" r="12" fill="transparent" class="board-cell" data-sq="n6" data-type="node"/><circle cx="150.1" cy="70.30000000000001" r="6" fill="#2a2a2a"/><circle cx="150.1" cy="70.30000000000001" r="12" fill="transparent" class="board-cell" data-sq="n7" data-type="node"/><circle cx="190" cy="70.30000000000001" r="6" fill="#2a2a2a"/><circle cx="190" cy="70.30000000000001" r="12" fill="transparent" class="board-cell" data-sq="n8" data-type="node"/><circle cx="229.9" cy="70.30000000000001" r="6" fill="#2a2a2a"/><circle cx="229.9" cy="70.30000000000001" r="12" fill="transparent" class="board-cell" data-sq="n9" data-type="node"/><circle cx="269.79999999999995" cy="70.30000000000001" r="6" fill="#2a2a2a"/><circle cx="269.79999999999995" cy="70.30000000000001" r="12" fill="transparent" class="board-cell" data-sq="n10" data-type="node"/><circle cx="30.400000000000006" cy="110.2" r="6" fill="#2a2a2a"/><circle cx="30.400000000000006" cy="110.2" r="12" fill="transparent" class="board-cell" data-sq="n11" data-type="node"/><circle cx="70.30000000000001" cy="110.2" r="6" fill="#2a2a2a"/><circle cx="70.30000000000001" cy="110.2" r="12" fill="transparent" class="board-cell" data-sq="n12" data-type="node"/><circle cx="110.2" cy="110.2" r="6" fill="#2a2a2a"/><circle cx="110.2" cy="110.2" r="12" fill="transparent" class="board-cell" data-sq="n13" data-type="node"/><circle cx="150.1" cy="110.2" r="6" fill="#2a2a2a"/><circle cx="150.1" cy="110.2" r="12" fill="transparent" class="board-cell" data-sq="n14" data-type="node"/><circle cx="190" cy="110.2" r="6" fill="#2a2a2a"/><circle cx="190" cy="110.2" r="12" fill="transparent" class="board-cell" data-sq="n15" data-type="node"/><circle cx="229.9" cy="110.2" r="6" fill="#2a2a2a"/><circle cx="229.9" cy="110.2" r="12" fill="transparent" class="board-cell" data-sq="n16" data-type="node"/><circle cx="269.79999999999995" cy="110.2" r="6" fill="#2a2a2a"/><circle cx="269.79999999999995" cy="110.2" r="12" fill="transparent" class="board-cell" data-sq="n17" data-type="node"/><circle cx="309.70000000000005" cy="110.2" r="6" fill="#2a2a2a"/><circle cx="309.70000000000005" cy="110.2" r="12" fill="transparent" class="board-cell" data-sq="n18" data-type="node"/><circle cx="349.6" cy="110.2" r="6" fill="#2a2a2a"/><circle cx="349.6" cy="110.2" r="12" fill="transparent" class="board-cell" data-sq="n19" data-type="node"/><circle cx="30.400000000000006" cy="150.1" r="6" fill="#2a2a2a"/><circle cx="30.400000000000006" cy="150.1" r="12" fill="transparent" class="board-cell" data-sq="n20" data-type="node"/><circle cx="70.30000000000001" cy="150.1" r="6" fill="#2a2a2a"/><circle cx="70.30000000000001" cy="150.1" r="12" fill="transparent" class="board-cell" data-sq="n21" data-type="node"/><circle cx="110.2" cy="150.1" r="6" fill="#2a2a2a"/><circle cx="110.2" cy="150.1" r="12" fill="transparent" class="board-cell" data-sq="n22" data-type="node"/><circle cx="150.1" cy="150.1" r="6" fill="#2a2a2a"/><circle cx="150.1" cy="150.1" r="12" fill="transparent" class="board-cell" data-sq="n23" data-type="node"/><circle cx="190" cy="150.1" r="6" fill="#2a2a2a"/><circle cx="190" cy="150.1" r="12" fill="transparent" class="board-cell" data-sq="n24" data-type="node"/><circle cx="229.9" cy="150.1" r="6" fill="#2a2a2a"/><circle cx="229.9" cy="150.1" r="12" fill="transparent" class="board-cell" data-sq="n25" data-type="node"/><circle cx="269.79999999999995" cy="150.1" r="6" fill="#2a2a2a"/><circle cx="269.79999999999995" cy="150.1" r="12" fill="transparent" class="board-cell" data-sq="n26" data-type="node"/><circle cx="309.70000000000005" cy="150.1" r="6" fill="#2a2a2a"/><circle cx="309.70000000000005" cy="150.1" r="12" fill="transparent" class="board-cell" data-sq="n27" data-type="node"/><circle cx="349.6" cy="150.1" r="6" fill="#2a2a2a"/><circle cx="349.6" cy="150.1" r="12" fill="transparent" class="board-cell" data-sq="n28" data-type="node"/><circle cx="30.400000000000006" cy="190" r="6" fill="#2a2a2a"/><circle cx="30.400000000000006" cy="190" r="12" fill="transparent" class="board-cell" data-sq="n29" data-type="node"/><circle cx="70.30000000000001" cy="190" r="6" fill="#2a2a2a"/><circle cx="70.30000000000001" cy="190" r="12" fill="transparent" class="board-cell" data-sq="n30" data-type="node"/><circle cx="110.2" cy="190" r="6" fill="#2a2a2a"/><circle cx="110.2" cy="190" r="12" fill="transparent" class="board-cell" data-sq="n31" data-type="node"/><circle cx="150.1" cy="190" r="6" fill="#2a2a2a"/><circle cx="150.1" cy="190" r="12" fill="transparent" class="board-cell" data-sq="n32" data-type="node"/><circle cx="190" cy="190" r="6" fill="#2a2a2a"/><circle cx="190" cy="190" r="12" fill="transparent" class="board-cell" data-sq="n33" data-type="node"/><circle cx="229.9" cy="190" r="6" fill="#2a2a2a"/><circle cx="229.9" cy="190" r="12" fill="transparent" class="board-cell" data-sq="n34" data-type="node"/><circle cx="269.79999999999995" cy="190" r="6" fill="#2a2a2a"/><circle cx="269.79999999999995" cy="190" r="12" fill="transparent" class="board-cell" data-sq="n35" data-type="node"/><circle cx="309.70000000000005" cy="190" r="6" fill="#2a2a2a"/><circle cx="309.70000000000005" cy="190" r="12" fill="transparent" class="board-cell" data-sq="n36" data-type="node"/><circle cx="349.6" cy="190" r="6" fill="#2a2a2a"/><circle cx="349.6" cy="190" r="12" fill="transparent" class="board-cell" data-sq="n37" data-type="node"/><circle cx="30.400000000000006" cy="229.9" r="6" fill="#2a2a2a"/><circle cx="30.400000000000006" cy="229.9" r="12" fill="transparent" class="board-cell" data-sq="n38" data-type="node"/><circle cx="70.30000000000001" cy="229.9" r="6" fill="#2a2a2a"/><circle cx="70.30000000000001" cy="229.9" r="12" fill="transparent" class="board-cell" data-sq="n39" data-type="node"/><circle cx="110.2" cy="229.9" r="6" fill="#2a2a2a"/><circle cx="110.2" cy="229.9" r="12" fill="transparent" class="board-cell" data-sq="n40" data-type="node"/><circle cx="150.1" cy="229.9" r="6" fill="#2a2a2a"/><circle cx="150.1" cy="229.9" r="12" fill="transparent" class="board-cell" data-sq="n41" data-type="node"/><circle cx="190" cy="229.9" r="6" fill="#2a2a2a"/><circle cx="190" cy="229.9" r="12" fill="transparent" class="board-cell" data-sq="n42" data-type="node"/><circle cx="229.9" cy="229.9" r="6" fill="#2a2a2a"/><circle cx="229.9" cy="229.9" r="12" fill="transparent" class="board-cell" data-sq="n43" data-type="node"/><circle cx="269.79999999999995" cy="229.9" r="6" fill="#2a2a2a"/><circle cx="269.79999999999995" cy="229.9" r="12" fill="transparent" class="board-cell" data-sq="n44" data-type="node"/><circle cx="309.70000000000005" cy="229.9" r="6" fill="#2a2a2a"/><circle cx="309.70000000000005" cy="229.9" r="12" fill="transparent" class="board-cell" data-sq="n45" data-type="node"/><circle cx="349.6" cy="229.9" r="6" fill="#2a2a2a"/><circle cx="349.6" cy="229.9" r="12" fill="transparent" class="board-cell" data-sq="n46" data-type="node"/><circle cx="30.400000000000006" cy="269.79999999999995" r="6" fill="#2a2a2a"/><circle cx="30.400000000000006" cy="269.79999999999995" r="12" fill="transparent" class="board-cell" data-sq="n47" data-type="node"/><circle cx="70.30000000000001" cy="269.79999999999995" r="6" fill="#2a2a2a"/><circle cx="70.30000000000001" cy="269.79999999999995" r="12" fill="transparent" class="board-cell" data-sq="n48" data-type="node"/><circle cx="110.2" cy="269.79999999999995" r="6" fill="#2a2a2a"/><circle cx="110.2" cy="269.79999999999995" r="12" fill="transparent" class="board-cell" data-sq="n49" data-type="node"/><circle cx="150.1" cy="269.79999999999995" r="6" fill="#2a2a2a"/><circle cx="150.1" cy="269.79999999999995" r="12" fill="transparent" class="board-cell" data-sq="n50" data-type="node"/><circle cx="190" cy="269.79999999999995" r="6" fill="#2a2a2a"/><circle cx="190" cy="269.79999999999995" r="12" fill="transparent" class="board-cell" data-sq="n51" data-type="node"/><circle cx="229.9" cy="269.79999999999995" r="6" fill="#2a2a2a"/><circle cx="229.9" cy="269.79999999999995" r="12" fill="transparent" class="board-cell" data-sq="n52" data-type="node"/><circle cx="269.79999999999995" cy="269.79999999999995" r="6" fill="#2a2a2a"/><circle cx="269.79999999999995" cy="269.79999999999995" r="12" fill="transparent" class="board-cell" data-sq="n53" data-type="node"/><circle cx="309.70000000000005" cy="269.79999999999995" r="6" fill="#2a2a2a"/><circle cx="309.70000000000005" cy="269.79999999999995" r="12" fill="transparent" class="board-cell" data-sq="n54" data-type="node"/><circle cx="349.6" cy="269.79999999999995" r="6" fill="#2a2a2a"/><circle cx="349.6" cy="269.79999999999995" r="12" fill="transparent" class="board-cell" data-sq="n55" data-type="node"/><circle cx="110.2" cy="309.70000000000005" r="6" fill="#2a2a2a"/><circle cx="110.2" cy="309.70000000000005" r="12" fill="transparent" class="board-cell" data-sq="n56" data-type="node"/><circle cx="150.1" cy="309.70000000000005" r="6" fill="#2a2a2a"/><circle cx="150.1" cy="309.70000000000005" r="12" fill="transparent" class="board-cell" data-sq="n57" data-type="node"/><circle cx="190" cy="309.70000000000005" r="6" fill="#2a2a2a"/><circle cx="190" cy="309.70000000000005" r="12" fill="transparent" class="board-cell" data-sq="n58" data-type="node"/><circle cx="229.9" cy="309.70000000000005" r="6" fill="#2a2a2a"/><circle cx="229.9" cy="309.70000000000005" r="12" fill="transparent" class="board-cell" data-sq="n59" data-type="node"/><circle cx="269.79999999999995" cy="309.70000000000005" r="6" fill="#2a2a2a"/><circle cx="269.79999999999995" cy="309.70000000000005" r="12" fill="transparent" class="board-cell" data-sq="n60" data-type="node"/><circle cx="110.2" cy="349.6" r="6" fill="#2a2a2a"/><circle cx="110.2" cy="349.6" r="12" fill="transparent" class="board-cell" data-sq="n61" data-type="node"/><circle cx="150.1" cy="349.6" r="6" fill="#2a2a2a"/><circle cx="150.1" cy="349.6" r="12" fill="transparent" class="board-cell" data-sq="n62" data-type="node"/><circle cx="190" cy="349.6" r="6" fill="#2a2a2a"/><circle cx="190" cy="349.6" r="12" fill="transparent" class="board-cell" data-sq="n63" data-type="node"/><circle cx="229.9" cy="349.6" r="6" fill="#2a2a2a"/><circle cx="229.9" cy="349.6" r="12" fill="transparent" class="board-cell" data-sq="n64" data-type="node"/><circle cx="269.79999999999995" cy="349.6" r="6" fill="#2a2a2a"/><circle cx="269.79999999999995" cy="349.6" r="12" fill="transparent" class="board-cell" data-sq="n65" data-type="node"/><circle cx="70.30000000000001" cy="30.400000000000006" r="6" fill="#2a2a2a"/><circle cx="70.30000000000001" cy="30.400000000000006" r="12" fill="transparent" class="board-cell" data-sq="n66" data-type="node"/><circle cx="309.70000000000005" cy="30.400000000000006" r="6" fill="#2a2a2a"/><circle cx="309.70000000000005" cy="30.400000000000006" r="12" fill="transparent" class="board-cell" data-sq="n67" data-type="node"/></g><image href="../pieces/sets/playstrategy-go-classic/wS.svg" x="19.900000000000006" y="99.7" width="21" height="21" pointer-events="none"/><image href="../pieces/sets/playstrategy-go-classic/wS.svg" x="59.80000000000001" y="99.7" width="21" height="21" pointer-events="none"/><circle cx="110.2" cy="110.2" r="9" fill="#44aa44" stroke="#227722" stroke-width="1.5"/><circle cx="190" cy="110.2" r="9" fill="#44aa44" stroke="#227722" stroke-width="1.5"/><circle cx="269.79999999999995" cy="110.2" r="9" fill="#44aa44" stroke="#227722" stroke-width="1.5"/><image href="../pieces/sets/playstrategy-go-classic/wS.svg" x="299.20000000000005" y="99.7" width="21" height="21" pointer-events="none"/><image href="../pieces/sets/playstrategy-go-classic/wS.svg" x="339.1" y="99.7" width="21" height="21" pointer-events="none"/><image href="../pieces/sets/playstrategy-go-classic/wS.svg" x="19.900000000000006" y="139.6" width="21" height="21" pointer-events="none"/><image href="../pieces/sets/playstrategy-go-classic/wS.svg" x="59.80000000000001" y="139.6" width="21" height="21" pointer-events="none"/><image href="../pieces/sets/playstrategy-go-classic/wS.svg" x="99.7" y="139.6" width="21" height="21" pointer-events="none"/><image href="../pieces/sets/playstrategy-go-classic/wS.svg" x="139.6" y="139.6" width="21" height="21" pointer-events="none"/><image href="../pieces/sets/playstrategy-go-classic/wS.svg" x="179.5" y="139.6" width="21" height="21" pointer-events="none"/><image href="../pieces/sets/playstrategy-go-classic/wS.svg" x="219.4" y="139.6" width="21" height="21" pointer-events="none"/><image href="../pieces/sets/playstrategy-go-classic/wS.svg" x="259.29999999999995" y="139.6" width="21" height="21" pointer-events="none"/><image href="../pieces/sets/playstrategy-go-classic/wS.svg" x="299.20000000000005" y="139.6" width="21" height="21" pointer-events="none"/><image href="../pieces/sets/playstrategy-go-classic/wS.svg" x="339.1" y="139.6" width="21" height="21" pointer-events="none"/><image href="../pieces/sets/playstrategy-go-classic/wS.svg" x="19.900000000000006" y="179.5" width="21" height="21" pointer-events="none"/><image href="../pieces/sets/playstrategy-go-classic/wS.svg" x="59.80000000000001" y="179.5" width="21" height="21" pointer-events="none"/><image href="../pieces/sets/playstrategy-go-classic/wS.svg" x="99.7" y="179.5" width="21" height="21" pointer-events="none"/><image href="../pieces/sets/playstrategy-go-classic/wS.svg" x="139.6" y="179.5" width="21" height="21" pointer-events="none"/><image href="../pieces/sets/playstrategy-go-classic/wS.svg" x="179.5" y="179.5" width="21" height="21" pointer-events="none"/><image href="../pieces/sets/playstrategy-go-classic/wS.svg" x="219.4" y="179.5" width="21" height="21" pointer-events="none"/><image href="../pieces/sets/playstrategy-go-classic/wS.svg" x="259.29999999999995" y="179.5" width="21" height="21" pointer-events="none"/><image href="../pieces/sets/playstrategy-go-classic/wS.svg" x="299.20000000000005" y="179.5" width="21" height="21" pointer-events="none"/><image href="../pieces/sets/playstrategy-go-classic/wS.svg" x="339.1" y="179.5" width="21" height="21" pointer-events="none"/><image href="../pieces/sets/playstrategy-go-classic/wS.svg" x="19.900000000000006" y="219.4" width="21" height="21" pointer-events="none"/><image href="../pieces/sets/playstrategy-go-classic/wS.svg" x="59.80000000000001" y="219.4" width="21" height="21" pointer-events="none"/><image href="../pieces/sets/playstrategy-go-classic/wS.svg" x="99.7" y="219.4" width="21" height="21" pointer-events="none"/><image href="../pieces/sets/playstrategy-go-classic/wS.svg" x="139.6" y="219.4" width="21" height="21" pointer-events="none"/><image href="../pieces/sets/playstrategy-go-classic/wS.svg" x="179.5" y="219.4" width="21" height="21" pointer-events="none"/><image href="../pieces/sets/playstrategy-go-classic/wS.svg" x="219.4" y="219.4" width="21" height="21" pointer-events="none"/><image href="../pieces/sets/playstrategy-go-classic/wS.svg" x="259.29999999999995" y="219.4" width="21" height="21" pointer-events="none"/><image href="../pieces/sets/playstrategy-go-classic/wS.svg" x="299.20000000000005" y="219.4" width="21" height="21" pointer-events="none"/><image href="../pieces/sets/playstrategy-go-classic/wS.svg" x="339.1" y="219.4" width="21" height="21" pointer-events="none"/><image href="../pieces/sets/playstrategy-go-classic/wS.svg" x="19.900000000000006" y="259.29999999999995" width="21" height="21" pointer-events="none"/><image href="../pieces/sets/playstrategy-go-classic/wS.svg" x="59.80000000000001" y="259.29999999999995" width="21" height="21" pointer-events="none"/><image href="../pieces/sets/playstrategy-go-classic/wS.svg" x="99.7" y="259.29999999999995" width="21" height="21" pointer-events="none"/><image href="../pieces/sets/playstrategy-go-classic/wS.svg" x="139.6" y="259.29999999999995" width="21" height="21" pointer-events="none"/><image href="../pieces/sets/playstrategy-go-classic/wS.svg" x="179.5" y="259.29999999999995" width="21" height="21" pointer-events="none"/><image href="../pieces/sets/playstrategy-go-classic/wS.svg" x="219.4" y="259.29999999999995" width="21" height="21" pointer-events="none"/><image href="../pieces/sets/playstrategy-go-classic/wS.svg" x="259.29999999999995" y="259.29999999999995" width="21" height="21" pointer-events="none"/><image href="../pieces/sets/playstrategy-go-classic/wS.svg" x="299.20000000000005" y="259.29999999999995" width="21" height="21" pointer-events="none"/><image href="../pieces/sets/playstrategy-go-classic/wS.svg" x="339.1" y="259.29999999999995" width="21" height="21" pointer-events="none"/><image href="../pieces/sets/playstrategy-go-classic/wS.svg" x="99.7" y="299.20000000000005" width="21" height="21" pointer-events="none"/><image href="../pieces/sets/playstrategy-go-classic/wS.svg" x="139.6" y="299.20000000000005" width="21" height="21" pointer-events="none"/><image href="../pieces/sets/playstrategy-go-classic/wS.svg" x="179.5" y="299.20000000000005" width="21" height="21" pointer-events="none"/><image href="../pieces/sets/playstrategy-go-classic/wS.svg" x="219.4" y="299.20000000000005" width="21" height="21" pointer-events="none"/><image href="../pieces/sets/playstrategy-go-classic/wS.svg" x="259.29999999999995" y="299.20000000000005" width="21" height="21" pointer-events="none"/><image href="../pieces/sets/playstrategy-go-classic/wS.svg" x="99.7" y="339.1" width="21" height="21" pointer-events="none"/><image href="../pieces/sets/playstrategy-go-classic/wS.svg" x="139.6" y="339.1" width="21" height="21" pointer-events="none"/><image href="../pieces/sets/playstrategy-go-classic/wS.svg" x="179.5" y="339.1" width="21" height="21" pointer-events="none"/><image href="../pieces/sets/playstrategy-go-classic/wS.svg" x="219.4" y="339.1" width="21" height="21" pointer-events="none"/><image href="../pieces/sets/playstrategy-go-classic/wS.svg" x="259.29999999999995" y="339.1" width="21" height="21" pointer-events="none"/>
<g pointer-events="none"></g>
</svg>