<svg xmlns="http://www.w3.org/2000/svg" viewBox="0 0 440 320" width="440" height="320">
<rect x="0" y="0" width="440" height="320" rx="6" ry="6" fill="#3d2b1f"/><rect x="16" y="16" width="192" height="288" fill="#1a5c3a"/><rect x="232" y="16" width="192" height="288" fill="#1a5c3a"/><rect x="208" y="0" width="24" height="320" fill="#3d2b1f"/><polygon points="392,304 424,304 408,184" fill="#c47e3b" class="board-cell" data-sq="point-1"/><polygon points="360,304 392,304 376,184" fill="#8b2500" class="board-cell" data-sq="point-2"/><polygon points="328,304 360,304 344,184" fill="#c47e3b" class="board-cell" data-sq="point-3"/><polygon points="296,304 328,304 312,184" fill="#8b2500" class="board-cell" data-sq="point-4"/><polygon points="264,304 296,304 280,184" fill="#c47e3b" class="board-cell" data-sq="point-5"/><polygon points="232,304 264,304 248,184" fill="#8b2500" class="board-cell" data-sq="point-6"/><polygon points="176,304 208,304 192,184" fill="#c47e3b" class="board-cell" data-sq="point-7"/><polygon points="144,304 176,304 160,184" fill="#8b2500" class="board-cell" data-sq="point-8"/><polygon points="112,304 144,304 128,184" fill="#c47e3b" class="board-cell" data-sq="point-9"/><polygon points="80,304 112,304 96,184" fill="#8b2500" class="board-cell" data-sq="point-10"/><polygon points="48,304 80,304 64,184" fill="#c47e3b" class="board-cell" data-sq="point-11"/><polygon points="16,304 48,304 32,184" fill="#8b2500" class="board-cell" data-sq="point-12"/><polygon points="16,16 48,16 32,136" fill="#8b2500" class="board-cell" data-sq="point-13"/><polygon points="48,16 80,16 64,136" fill="#c47e3b" class="board-cell" data-sq="point-14"/><polygon points="80,16 112,16 96,136" fill="#8b2500" class="board-cell" data-sq="point-15"/><polygon points="112,16 144,16 128,136" fill="#c47e3b" class="board-cell" data-sq="point-16"/><polygon points="144,16 176,16 160,136" fill="#8b2500" class="board-cell" data-sq="point-17"/><polygon points="176,16 208,16 192,136" fill="#c47e3b" class="board-cell" data-sq="point-18"/><polygon points="232,16 264,16 248,136" fill="#8b2500" class="board-cell" data-sq="point-19"/><polygon points="264,16 296,16 280,136" fill="#c47e3b" class="board-cell" data-sq="point-20"/><polygon points="296,16 328,16 312,136" fill="#8b2500" class="board-cell" data-sq="point-21"/><polygon points="328,16 360,16 344,136" fill="#c47e3b" class="board-cell" data-sq="point-22"/><polygon points="360,16 392,16 376,136" fill="#8b2500" class="board-cell" data-sq="point-23"/><polygon points="392,16 424,16 408,136" fill="#c47e3b" class="board-cell" data-sq="point-24"/><image href="../pieces/sets/playstrategy-draughts-plain/wM.svg" x="397" y="280" width="22" height="22"/><image href="../pieces/sets/playstrategy-draughts-plain/wM.svg" x="397" y="258" width="22" height="22"/><image href="../pieces/sets/playstrategy-draughts-plain/wM.svg" x="365" y="280" width="22" height="22"/><image href="../pieces/sets/playstrategy-draughts-plain/wM.svg" x="365" y="258" width="22" height="22"/><image href="../pieces/sets/playstrategy-draughts-plain/bM.svg" x="237" y="280" width="22" height="22"/><image href="../pieces/sets/playstrategy-draughts-plain/bM.svg" x="237" y="258" width="22" height="22"/><image href="../pieces/sets/playstrategy-draughts-plain/bM.svg" x="237" y="236" width="22" height="22"/><image href="../pieces/sets/playstrategy-draughts-plain/bM.svg" x="149" y="280" width="22" height="22"/><image href="../pieces/sets/playstrategy-draughts-plain/bM.svg" x="149" y="258" width="22" height="22"/><image href="../pieces/sets/playstrategy-draughts-plain/bM.svg" x="149" y="236" width="22" height="22"/><image href="../pieces/sets/playstrategy-draughts-plain/wM.svg" x="21" y="280" width="22" height="22"/><image href="../pieces/sets/playstrategy-draughts-plain/wM.svg" x="21" y="258" width="22" height="22"/><image href="../pieces/sets/playstrategy-draughts-plain/wM.svg" x="21" y="236" width="22" height="22"/><image href="../pieces/sets/playstrategy-draughts-plain/wM.svg" x="21" y="214" width="22" height="22"/><image href="../pieces/sets/playstrategy-draughts-plain/wM.svg" x="21" y="192" width="22" height="22"/><image href="../pieces/sets/playstrategy-draughts-plain/bM.svg" x="21" y="18" width="22" height="22"/><image href="../pieces/sets/playstrategy-draughts-plain/bM.svg" x="21" y="40" width="22" height="22"/><image href="../pieces/sets/playstrategy-draughts-plain/bM.svg" x="21" y="62" width="22" height="22"/><image href="../pieces/sets/playstrategy-draughts-plain/bM.svg" x="21" y="84" width="22" height="22"/><image href="../pieces/sets/playstrategy-draughts-plain/bM.svg" x="21" y="106" width="22" height="22"/><image href="../pieces/sets/playstrategy-draughts-plain/wM.svg" x="149" y="18" width="22" height="22"/><image href="../pieces/sets/playstrategy-draughts-plain/wM.svg" x="149" y="40" width="22" height="22"/><image href="../pieces/sets/playstrategy-draughts-plain/wM.svg" x="149" y="62" width="22" height="22"/><image href="../pieces/sets/playstrategy-draughts-plain/wM.svg" x="237" y="18" width="22" height="22"/><image href="../pieces/sets/playstrategy-draughts-plain/wM.svg" x="237" y="40" width="22" height="22"/><image href="../pieces/sets/playstrategy-draughts-plain/wM.svg" x="237" y="62" width="22" height="22"/><image href="../pieces/sets/playstrategy-draughts-plain/bM.svg" x="365" y="18" width="22" height="22"/><image href="../pieces/sets/playstrategy-draughts-plain/bM.svg" x="365" y="40" width="22" height="22"/><image href="../pieces/sets/playstrategy-draughts-plain/bM.svg" x="397" y="18" width="22" height="22"/><image href="../pieces/sets/playstrategy-draughts-plain/bM.svg" x="397" y="40" width="22" height="22"/>
</svg>