<svg xmlns="http://www.w3.org/2000/svg" viewBox="0 0 380 380" width="380" height="380">
<rect x="0" y="0" width="380" height="380" fill="transparent"/><rect x="160" y="0" width="20" height="20" fill="#d4d8f0" stroke="#2d3a8c" stroke-width="2" data-sq="i19" data-type="floor" class="board-cell"/><rect x="180" y="0" width="20" height="20" fill="#d4d8f0" stroke="#2d3a8c" stroke-width="2" data-sq="j19" data-type="floor" class="board-cell"/><rect x="200" y="0" width="20" height="20" fill="#d4d8f0" stroke="#2d3a8c" stroke-width="2" data-sq="k19" data-type="floor" class="board-cell"/><rect x="160" y="20" width="20" height="20" fill="#d4d8f0" stroke="#2d3a8c" stroke-width="2" data-sq="i18" data-type="floor" class="board-cell"/><rect x="180" y="20" width="20" height="20" fill="#d4d8f0" stroke="#2d3a8c" stroke-width="2" data-sq="j18" data-type="floor" class="board-cell"/><rect x="200" y="20" width="20" height="20" fill="#d4d8f0" stroke="#2d3a8c" stroke-width="2" data-sq="k18" data-type="floor" class="board-cell"/><rect x="160" y="40" width="20" height="20" fill="#d4d8f0" stroke="#2d3a8c" stroke-width="2" data-sq="i17" data-type="floor" class="board-cell"/><rect x="180" y="40" width="20" height="20" fill="#d4d8f0" stroke="#2d3a8c" stroke-width="2" data-sq="j17" data-type="floor" class="board-cell"/><rect x="200" y="40" width="20" height="20" fill="#d4d8f0" stroke="#2d3a8c" stroke-width="2" data-sq="k17" data-type="floor" class="board-cell"/><rect x="160" y="60" width="20" height="20" fill="#d4d8f0" stroke="#2d3a8c" stroke-width="2" data-sq="i16" data-type="floor" class="board-cell"/><rect x="180" y="60" width="20" height="20" fill="#d4d8f0" stroke="#2d3a8c" stroke-width="2" data-sq="j16" data-type="floor" class="board-cell"/><rect x="200" y="60" width="20" height="20" fill="#d4d8f0" stroke="#2d3a8c" stroke-width="2" data-sq="k16" data-type="floor" class="board-cell"/><rect x="160" y="80" width="20" height="20" fill="#d4d8f0" stroke="#2d3a8c" stroke-width="2" data-sq="i15" data-type="floor" class="board-cell"/><rect x="180" y="80" width="20" height="20" fill="#d4d8f0" stroke="#2d3a8c" stroke-width="2" data-sq="j15" data-type="floor" class="board-cell"/><rect x="200" y="80" width="20" height="20" fill="#d4d8f0" stroke="#2d3a8c" stroke-width="2" data-sq="k15" data-type="floor" class="board-cell"/><rect x="160" y="100" width="20" height="20" fill="#d4d8f0" stroke="#2d3a8c" stroke-width="2" data-sq="i14" data-type="floor" class="board-cell"/><rect x="180" y="100" width="20" height="20" fill="#d4d8f0" stroke="#2d3a8c" stroke-width="2" data-sq="j14" data-type="floor" class="board-cell"/><rect x="200" y="100" width="20" height="20" fill="#d4d8f0" stroke="#2d3a8c" stroke-width="2" data-sq="k14" data-type="floor" class="board-cell"/><rect x="160" y="120" width="20" height="20" fill="#d4d8f0" stroke="#2d3a8c" stroke-width="2" data-sq="i13" data-type="floor" class="board-cell"/><rect x="180" y="120" width="20" height="20" fill="#d4d8f0" stroke="#2d3a8c" stroke-width="2" data-sq="j13" data-type="floor" class="board-cell"/><rect x="200" y="120" width="20" height="20" fill="#d4d8f0" stroke="#2d3a8c" stroke-width="2" data-sq="k13" data-type="floor" class="board-cell"/><rect x="160" y="140" width="20" height="20" fill="#d4d8f0" stroke="#2d3a8c" stroke-width="2" data-sq="i12" data-type="floor" class="board-cell"/><rect x="180" y="140" width="20" height="20" fill="#d4d8f0" stroke="#2d3a8c" stroke-width="2" data-sq="j12" data-type="floor" class="board-cell"/><rect x="200" y="140" width="20" height="20" fill="#d4d8f0" stroke="#2d3a8c" stroke-width="2" data-sq="k12" data-type="floor" class="board-cell"/><rect x="0" y="160" width="20" height="20" fill="#d4d8f0" stroke="#2d3a8c" stroke-width="2" data-sq="a11" data-type="floor" class="board-cell"/><rect x="20" y="160" width="20" height="20" fill="#d4d8f0" stroke="#2d3a8c" stroke-width="2" data-sq="b11" data-type="floor" class="board-cell"/><rect x="40" y="160" width="20" height="20" fill="#d4d8f0" stroke="#2d3a8c" stroke-width="2" data-sq="c11" data-type="floor" class="board-cell"/><rect x="60" y="160" width="20" height="20" fill="#d4d8f0" stroke="#2d3a8c" stroke-width="2" data-sq="d11" data-type="floor" class="board-cell"/><rect x="80" y="160" width="20" height="20" fill="#d4d8f0" stroke="#2d3a8c" stroke-width="2" data-sq="e11" data-type="floor" class="board-cell"/><rect x="100" y="160" width="20" height="20" fill="#d4d8f0" stroke="#2d3a8c" stroke-width="2" data-sq="f11" data-type="floor" class="board-cell"/><rect x="120" y="160" width="20" height="20" fill="#d4d8f0" stroke="#2d3a8c" stroke-width="2" data-sq="g11" data-type="floor" class="board-cell"/><rect x="140" y="160" width="20" height="20" fill="#d4d8f0" stroke="#2d3a8c" stroke-width="2" data-sq="h11" data-type="floor" class="board-cell"/><rect x="160" y="160" width="20" height="20" fill="#1a1a6b" stroke="#12124a" stroke-width="2" data-sq="i11" data-type="home" class="board-cell"/><rect x="180" y="160" width="20" height="20" fill="#1a1a6b" stroke="#12124a" stroke-width="2" data-sq="j11" data-type="home" class="board-cell"/><rect x="200" y="160" width="20" height="20" fill="#1a1a6b" stroke="#12124a" stroke-width="2" data-sq="k11" data-type="home" class="board-cell"/><rect x="220" y="160" width="20" height="20" fill="#d4d8f0" stroke="#2d3a8c" stroke-width="2" data-sq="l11" data-type="floor" class="board-cell"/><rect x="240" y="160" width="20" height="20" fill="#d4d8f0" stroke="#2d3a8c" stroke-width="2" data-sq="m11" data-type="floor" class="board-cell"/><rect x="260" y="160" width="20" height="20" fill="#d4d8f0" stroke="#2d3a8c" stroke-width="2" data-sq="n11" data-type="floor" class="board-cell"/><rect x="280" y="160" width="20" height="20" fill="#d4d8f0" stroke="#2d3a8c" stroke-width="2" data-sq="o11" data-type="floor" class="board-cell"/><rect x="300" y="160" width="20" height="20" fill="#d4d8f0" stroke="#2d3a8c" stroke-width="2" data-sq="p11" data-type="floor" class="board-cell"/><rect x="320" y="160" width="20" height="20" fill="#d4d8f0" stroke="#2d3a8c" stroke-width="2" data-sq="q11" data-type="floor" class="board-cell"/><rect x="340" y="160" width="20" height="20" fill="#d4d8f0" stroke="#2d3a8c" stroke-width="2" data-sq="r11" data-type="floor" class="board-cell"/><rect x="360" y="160" width="20" height="20" fill="#d4d8f0" stroke="#2d3a8c" stroke-width="2" data-sq="s11" data-type="floor" class="board-cell"/><rect x="0" y="180" width="20" height="20" fill="#d4d8f0" stroke="#2d3a8c" stroke-width="2" data-sq="a10" data-type="floor" class="board-cell"/><rect x="20" y="180" width="20" height="20" fill="#d4d8f0" stroke="#2d3a8c" stroke-width="2" data-sq="b10" data-type="floor" class="board-cell"/><rect x="40" y="180" width="20" height="20" fill="#d4d8f0" stroke="#2d3a8c" stroke-width="2" data-sq="c10" data-type="floor" class="board-cell"/><rect x="60" y="180" width="20" height="20" fill="#d4d8f0" stroke="#2d3a8c" stroke-width="2" data-sq="d10" data-type="floor" class="board-cell"/><rect x="80" y="180" width="20" height="20" fill="#d4d8f0" stroke="#2d3a8c" stroke-width="2" data-sq="e10" data-type="floor" class="board-cell"/><rect x="100" y="180" width="20" height="20" fill="#d4d8f0" stroke="#2d3a8c" stroke-width="2" data-sq="f10" data-type="floor" class="board-cell"/><rect x="120" y="180" width="20" height="20" fill="#d4d8f0" stroke="#2d3a8c" stroke-width="2" data-sq="g10" data-type="floor" class="board-cell"/><rect x="140" y="180" width="20" height="20" fill="#d4d8f0" stroke="#2d3a8c" stroke-width="2" data-sq="h10" data-type="floor" class="board-cell"/><rect x="160" y="180" width="20" height="20" fill="#1a1a6b" stroke="#12124a" stroke-width="2" data-sq="i10" data-type="home" class="board-cell"/><rect x="180" y="180" width="20" height="20" fill="#1a1a6b" stroke="#12124a" stroke-width="2" data-sq="j10" data-type="home" class="board-cell"/><rect x="200" y="180" width="20" height="20" fill="#1a1a6b" stroke="#12124a" stroke-width="2" data-sq="k10" data-type="home" class="board-cell"/><rect x="220" y="180" width="20" height="20" fill="#d4d8f0" stroke="#2d3a8c" stroke-width="2" data-sq="l10" data-type="floor" class="board-cell"/><rect x="240" y="180" width="20" height="20" fill="#d4d8f0" stroke="#2d3a8c" stroke-width="2" data-sq="m10" data-type="floor" class="board-cell"/><rect x="260" y="180" width="20" height="20" fill="#d4d8f0" stroke="#2d3a8c" stroke-width="2" data-sq="n10" data-type="floor" class="board-cell"/><rect x="280" y="180" width="20" height="20" fill="#d4d8f0" stroke="#2d3a8c" stroke-width="2" data-sq="o10" data-type="floor" class="board-cell"/><rect x="300" y="180" width="20" height="20" fill="#d4d8f0" stroke="#2d3a8c" stroke-width="2" data-sq="p10" data-type="floor" class="board-cell"/><rect x="320" y="180" width="20" height="20" fill="#d4d8f0" stroke="#2d3a8c" stroke-width="2" data-sq="q10" data-type="floor" class="board-cell"/><rect x="340" y="180" width="20" height="20" fill="#d4d8f0" stroke="#2d3a8c" stroke-width="2" data-sq="r10" data-type="floor" class="board-cell"/><rect x="360" y="180" width="20" height="20" fill="#d4d8f0" stroke="#2d3a8c" stroke-width="2" data-sq="s10" data-type="floor" class="board-cell"/><rect x="0" y="200" width="20" height="20" fill="#d4d8f0" stroke="#2d3a8c" stroke-width="2" data-sq="a9" data-type="floor" class="board-cell"/><rect x="20" y="200" width="20" height="20" fill="#d4d8f0" stroke="#2d3a8c" stroke-width="2" data-sq="b9" data-type="floor" class="board-cell"/><rect x="40" y="200" width="20" height="20" fill="#d4d8f0" stroke="#2d3a8c" stroke-width="2" data-sq="c9" data-type="floor" class="board-cell"/><rect x="60" y="200" width="20" height="20" fill="#d4d8f0" stroke="#2d3a8c" stroke-width="2" data-sq="d9" data-type="floor" class="board-cell"/><rect x="80" y="200" width="20" height="20" fill="#d4d8f0" stroke="#2d3a8c" stroke-width="2" data-sq="e9" data-type="floor" class="board-cell"/><rect x="100" y="200" width="20" height="20" fill="#d4d8f0" stroke="#2d3a8c" stroke-width="2" data-sq="f9" data-type="floor" class="board-cell"/><rect x="120" y="200" width="20" height="20" fill="#d4d8f0" stroke="#2d3a8c" stroke-width="2" data-sq="g9" data-type="floor" class="board-cell"/><rect x="140" y="200" width="20" height="20" fill="#d4d8f0" stroke="#2d3a8c" stroke-width="2" data-sq="h9" data-type="floor" class="board-cell"/><rect x="160" y="200" width="20" height="20" fill="#1a1a6b" stroke="#12124a" stroke-width="2" data-sq="i9" data-type="home" class="board-cell"/><rect x="180" y="200" width="20" height="20" fill="#1a1a6b" stroke="#12124a" stroke-width="2" data-sq="j9" data-type="home" class="board-cell"/><rect x="200" y="200" width="20" height="20" fill="#1a1a6b" stroke="#12124a" stroke-width="2" data-sq="k9" data-type="home" class="board-cell"/><rect x="220" y="200" width="20" height="20" fill="#d4d8f0" stroke="#2d3a8c" stroke-width="2" data-sq="l9" data-type="floor" class="board-cell"/><rect x="240" y="200" width="20" height="20" fill="#d4d8f0" stroke="#2d3a8c" stroke-width="2" data-sq="m9" data-type="floor" class="board-cell"/><rect x="260" y="200" width="20" height="20" fill="#d4d8f0" stroke="#2d3a8c" stroke-width="2" data-sq="n9" data-type="floor" class="board-cell"/><rect x="280" y="200" width="20" height="20" fill="#d4d8f0" stroke="#2d3a8c" stroke-width="2" data-sq="o9" data-type="floor" class="board-cell"/><rect x="300" y="200" width="20" height="20" fill="#d4d8f0" stroke="#2d3a8c" stroke-width="2" data-sq="p9" data-type="floor" class="board-cell"/><rect x="320" y="200" width="20" height="20" fill="#d4d8f0" stroke="#2d3a8c" stroke-width="2" data-sq="q9" data-type="floor" class="board-cell"/><rect x="340" y="200" width="20" height="20" fill="#d4d8f0" stroke="#2d3a8c" stroke-width="2" data-sq="r9" data-type="floor" class="board-cell"/><rect x="360" y="200" width="20" height="20" fill="#d4d8f0" stroke="#2d3a8c" stroke-width="2" data-sq="s9" data-type="floor" class="board-cell"/><rect x="160" y="220" width="20" height="20" fill="#d4d8f0" stroke="#2d3a8c" stroke-width="2" data-sq="i8" data-type="floor" class="board-cell"/><rect x="180" y="220" width="20" height="20" fill="#d4d8f0" stroke="#2d3a8c" stroke-width="2" data-sq="j8" data-type="floor" class="board-cell"/><rect x="200" y="220" width="20" height="20" fill="#d4d8f0" stroke="#2d3a8c" stroke-width="2" data-sq="k8" data-type="floor" class="board-cell"/><rect x="160" y="240" width="20" height="20" fill="#d4d8f0" stroke="#2d3a8c" stroke-width="2" data-sq="i7" data-type="floor" class="board-cell"/><rect x="180" y="240" width="20" height="20" fill="#d4d8f0" stroke="#2d3a8c" stroke-width="2" data-sq="j7" data-type="floor" class="board-cell"/><rect x="200" y="240" width="20" height="20" fill="#d4d8f0" stroke="#2d3a8c" stroke-width="2" data-sq="k7" data-type="floor" class="board-cell"/><rect x="160" y="260" width="20" height="20" fill="#d4d8f0" stroke="#2d3a8c" stroke-width="2" data-sq="i6" data-type="floor" class="board-cell"/><rect x="180" y="260" width="20" height="20" fill="#d4d8f0" stroke="#2d3a8c" stroke-width="2" data-sq="j6" data-type="floor" class="board-cell"/><rect x="200" y="260" width="20" height="20" fill="#d4d8f0" stroke="#2d3a8c" stroke-width="2" data-sq="k6" data-type="floor" class="board-cell"/><rect x="160" y="280" width="20" height="20" fill="#d4d8f0" stroke="#2d3a8c" stroke-width="2" data-sq="i5" data-type="floor" class="board-cell"/><rect x="180" y="280" width="20" height="20" fill="#d4d8f0" stroke="#2d3a8c" stroke-width="2" data-sq="j5" data-type="floor" class="board-cell"/><rect x="200" y="280" width="20" height="20" fill="#d4d8f0" stroke="#2d3a8c" stroke-width="2" data-sq="k5" data-type="floor" class="board-cell"/><rect x="160" y="300" width="20" height="20" fill="#d4d8f0" stroke="#2d3a8c" stroke-width="2" data-sq="i4" data-type="floor" class="board-cell"/><rect x="180" y="300" width="20" height="20" fill="#d4d8f0" stroke="#2d3a8c" stroke-width="2" data-sq="j4" data-type="floor" class="board-cell"/><rect x="200" y="300" width="20" height="20" fill="#d4d8f0" stroke="#2d3a8c" stroke-width="2" data-sq="k4" data-type="floor" class="board-cell"/><rect x="160" y="320" width="20" height="20" fill="#d4d8f0" stroke="#2d3a8c" stroke-width="2" data-sq="i3" data-type="floor" class="board-cell"/><rect x="180" y="320" width="20" height="20" fill="#d4d8f0" stroke="#2d3a8c" stroke-width="2" data-sq="j3" data-type="floor" class="board-cell"/><rect x="200" y="320" width="20" height="20" fill="#d4d8f0" stroke="#2d3a8c" stroke-width="2" data-sq="k3" data-type="floor" class="board-cell"/><rect x="160" y="340" width="20" height="20" fill="#d4d8f0" stroke="#2d3a8c" stroke-width="2" data-sq="i2" data-type="floor" class="board-cell"/><rect x="180" y="340" width="20" height="20" fill="#d4d8f0" stroke="#2d3a8c" stroke-width="2" data-sq="j2" data-type="floor" class="board-cell"/><rect x="200" y="340" width="20" height="20" fill="#d4d8f0" stroke="#2d3a8c" stroke-width="2" data-sq="k2" data-type="floor" class="board-cell"/><rect x="160" y="360" width="20" height="20" fill="#d4d8f0" stroke="#2d3a8c" stroke-width="2" data-sq="i1" data-type="floor" class="board-cell"/><rect x="180" y="360" width="20" height="20" fill="#d4d8f0" stroke="#2d3a8c" stroke-width="2" data-sq="j1" data-type="floor" class="board-cell"/><rect x="200" y="360" width="20" height="20" fill="#d4d8f0" stroke="#2d3a8c" stroke-width="2" data-sq="k1" data-type="floor" class="board-cell"/>
</svg>