<svg xmlns="http://www.w3.org/2000/svg" viewBox="0 0 280 360" width="280" height="360">

<rect x="0" y="0" width="280" height="360" fill="transparent"/><rect x="0" y="0" width="40" height="40" fill="#7cb342" stroke="#558b2f" stroke-width="2" data-sq="a9" data-type="floor" class="board-cell"/><rect x="40" y="0" width="40" height="40" fill="#7cb342" stroke="#558b2f" stroke-width="2" data-sq="b9" data-type="floor" class="board-cell"/><rect x="80" y="0" width="40" height="40" fill="#c8963c" stroke="#8b6520" stroke-width="2" data-sq="c9" data-type="trap" class="board-cell"/><rect x="120" y="0" width="40" height="40" fill="#4a3520" stroke="#2a1a10" stroke-width="2" data-sq="d9" data-type="den" class="board-cell"/><rect x="160" y="0" width="40" height="40" fill="#c8963c" stroke="#8b6520" stroke-width="2" data-sq="e9" data-type="trap" class="board-cell"/><rect x="200" y="0" width="40" height="40" fill="#7cb342" stroke="#558b2f" stroke-width="2" data-sq="f9" data-type="floor" class="board-cell"/><rect x="240" y="0" width="40" height="40" fill="#7cb342" stroke="#558b2f" stroke-width="2" data-sq="g9" data-type="floor" class="board-cell"/><rect x="0" y="40" width="40" height="40" fill="#7cb342" stroke="#558b2f" stroke-width="2" data-sq="a8" data-type="floor" class="board-cell"/><rect x="40" y="40" width="40" height="40" fill="#7cb342" stroke="#558b2f" stroke-width="2" data-sq="b8" data-type="floor" class="board-cell"/><rect x="80" y="40" width="40" height="40" fill="#7cb342" stroke="#558b2f" stroke-width="2" data-sq="c8" data-type="floor" class="board-cell"/><rect x="120" y="40" width="40" height="40" fill="#c8963c" stroke="#8b6520" stroke-width="2" data-sq="d8" data-type="trap" class="board-cell"/><rect x="160" y="40" width="40" height="40" fill="#7cb342" stroke="#558b2f" stroke-width="2" data-sq="e8" data-type="floor" class="board-cell"/><rect x="200" y="40" width="40" height="40" fill="#7cb342" stroke="#558b2f" stroke-width="2" data-sq="f8" data-type="floor" class="board-cell"/><rect x="240" y="40" width="40" height="40" fill="#7cb342" stroke="#558b2f" stroke-width="2" data-sq="g8" data-type="floor" class="board-cell"/><rect x="0" y="80" width="40" height="40" fill="#7cb342" stroke="#558b2f" stroke-width="2" data-sq="a7" data-type="floor" class="board-cell"/><rect x="40" y="80" width="40" height="40" fill="#7cb342" stroke="#558b2f" stroke-width="2" data-sq="b7" data-type="floor" class="board-cell"/><rect x="80" y="80" width="40" height="40" fill="#7cb342" stroke="#558b2f" stroke-width="2" data-sq="c7" data-type="floor" class="board-cell"/><rect x="120" y="80" width="40" height="40" fill="#7cb342" stroke="#558b2f" stroke-width="2" data-sq="d7" data-type="floor" class="board-cell"/><rect x="160" y="80" width="40" height="40" fill="#7cb342" stroke="#558b2f" stroke-width="2" data-sq="e7" data-type="floor" class="board-cell"/><rect x="200" y="80" width="40" height="40" fill="#7cb342" stroke="#558b2f" stroke-width="2" data-sq="f7" data-type="floor" class="board-cell"/><rect x="240" y="80" width="40" height="40" fill="#7cb342" stroke="#558b2f" stroke-width="2" data-sq="g7" data-type="floor" class="board-cell"/><rect x="0" y="120" width="40" height="40" fill="#7cb342" stroke="#558b2f" stroke-width="2" data-sq="a6" data-type="floor" class="board-cell"/><rect x="40" y="120" width="40" height="40" fill="#4a90c8" stroke="#2a6a9a" stroke-width="2" data-sq="b6" data-type="river" class="board-cell"/><rect x="80" y="120" width="40" height="40" fill="#4a90c8" stroke="#2a6a9a" stroke-width="2" data-sq="c6" data-type="river" class="board-cell"/><rect x="120" y="120" width="40" height="40" fill="#7cb342" stroke="#558b2f" stroke-width="2" data-sq="d6" data-type="floor" class="board-cell"/><rect x="160" y="120" width="40" height="40" fill="#4a90c8" stroke="#2a6a9a" stroke-width="2" data-sq="e6" data-type="river" class="board-cell"/><rect x="200" y="120" width="40" height="40" fill="#4a90c8" stroke="#2a6a9a" stroke-width="2" data-sq="f6" data-type="river" class="board-cell"/><rect x="240" y="120" width="40" height="40" fill="#7cb342" stroke="#558b2f" stroke-width="2" data-sq="g6" data-type="floor" class="board-cell"/><rect x="0" y="160" width="40" height="40" fill="#7cb342" stroke="#558b2f" stroke-width="2" data-sq="a5" data-type="floor" class="board-cell"/><rect x="40" y="160" width="40" height="40" fill="#4a90c8" stroke="#2a6a9a" stroke-width="2" data-sq="b5" data-type="river" class="board-cell"/><rect x="80" y="160" width="40" height="40" fill="#4a90c8" stroke="#2a6a9a" stroke-width="2" data-sq="c5" data-type="river" class="board-cell"/><rect x="120" y="160" width="40" height="40" fill="#7cb342" stroke="#558b2f" stroke-width="2" data-sq="d5" data-type="floor" class="board-cell"/><rect x="160" y="160" width="40" height="40" fill="#4a90c8" stroke="#2a6a9a" stroke-width="2" data-sq="e5" data-type="river" class="board-cell"/><rect x="200" y="160" width="40" height="40" fill="#4a90c8" stroke="#2a6a9a" stroke-width="2" data-sq="f5" data-type="river" class="board-cell"/><rect x="240" y="160" width="40" height="40" fill="#7cb342" stroke="#558b2f" stroke-width="2" data-sq="g5" data-type="floor" class="board-cell"/><rect x="0" y="200" width="40" height="40" fill="#7cb342" stroke="#558b2f" stroke-width="2" data-sq="a4" data-type="floor" class="board-cell"/><rect x="40" y="200" width="40" height="40" fill="#4a90c8" stroke="#2a6a9a" stroke-width="2" data-sq="b4" data-type="river" class="board-cell"/><rect x="80" y="200" width="40" height="40" fill="#4a90c8" stroke="#2a6a9a" stroke-width="2" data-sq="c4" data-type="river" class="board-cell"/><rect x="120" y="200" width="40" height="40" fill="#7cb342" stroke="#558b2f" stroke-width="2" data-sq="d4" data-type="floor" class="board-cell"/><rect x="160" y="200" width="40" height="40" fill="#4a90c8" stroke="#2a6a9a" stroke-width="2" data-sq="e4" data-type="river" class="board-cell"/><rect x="200" y="200" width="40" height="40" fill="#4a90c8" stroke="#2a6a9a" stroke-width="2" data-sq="f4" data-type="river" class="board-cell"/><rect x="240" y="200" width="40" height="40" fill="#7cb342" stroke="#558b2f" stroke-width="2" data-sq="g4" data-type="floor" class="board-cell"/><rect x="0" y="240" width="40" height="40" fill="#7cb342" stroke="#558b2f" stroke-width="2" data-sq="a3" data-type="floor" class="board-cell"/><rect x="40" y="240" width="40" height="40" fill="#7cb342" stroke="#558b2f" stroke-width="2" data-sq="b3" data-type="floor" class="board-cell"/><rect x="80" y="240" width="40" height="40" fill="#7cb342" stroke="#558b2f" stroke-width="2" data-sq="c3" data-type="floor" class="board-cell"/><rect x="120" y="240" width="40" height="40" fill="#7cb342" stroke="#558b2f" stroke-width="2" data-sq="d3" data-type="floor" class="board-cell"/><rect x="160" y="240" width="40" height="40" fill="#7cb342" stroke="#558b2f" stroke-width="2" data-sq="e3" data-type="floor" class="board-cell"/><rect x="200" y="240" width="40" height="40" fill="#7cb342" stroke="#558b2f" stroke-width="2" data-sq="f3" data-type="floor" class="board-cell"/><rect x="240" y="240" width="40" height="40" fill="#7cb342" stroke="#558b2f" stroke-width="2" data-sq="g3" data-type="floor" class="board-cell"/><rect x="0" y="280" width="40" height="40" fill="#7cb342" stroke="#558b2f" stroke-width="2" data-sq="a2" data-type="floor" class="board-cell"/><rect x="40" y="280" width="40" height="40" fill="#7cb342" stroke="#558b2f" stroke-width="2" data-sq="b2" data-type="floor" class="board-cell"/><rect x="80" y="280" width="40" height="40" fill="#7cb342" stroke="#558b2f" stroke-width="2" data-sq="c2" data-type="floor" class="board-cell"/><rect x="120" y="280" width="40" height="40" fill="#c8963c" stroke="#8b6520" stroke-width="2" data-sq="d2" data-type="trap" class="board-cell"/><rect x="160" y="280" width="40" height="40" fill="#7cb342" stroke="#558b2f" stroke-width="2" data-sq="e2" data-type="floor" class="board-cell"/><rect x="200" y="280" width="40" height="40" fill="#7cb342" stroke="#558b2f" stroke-width="2" data-sq="f2" data-type="floor" class="board-cell"/><rect x="240" y="280" width="40" height="40" fill="#7cb342" stroke="#558b2f" stroke-width="2" data-sq="g2" data-type="floor" class="board-cell"/><rect x="0" y="320" width="40" height="40" fill="#7cb342" stroke="#558b2f" stroke-width="2" data-sq="a1" data-type="floor" class="board-cell"/><rect x="40" y="320" width="40" height="40" fill="#7cb342" stroke="#558b2f" stroke-width="2" data-sq="b1" data-type="floor" class="board-cell"/><rect x="80" y="320" width="40" height="40" fill="#c8963c" stroke="#8b6520" stroke-width="2" data-sq="c1" data-type="trap" class="board-cell"/><rect x="120" y="320" width="40" height="40" fill="#4a3520" stroke="#2a1a10" stroke-width="2" data-sq="d1" data-type="den" class="board-cell"/><rect x="160" y="320" width="40" height="40" fill="#c8963c" stroke="#8b6520" stroke-width="2" data-sq="e1" data-type="trap" class="board-cell"/><rect x="200" y="320" width="40" height="40" fill="#7cb342" stroke="#558b2f" stroke-width="2" data-sq="f1" data-type="floor" class="board-cell"/><rect x="240" y="320" width="40" height="40" fill="#7cb342" stroke="#558b2f" stroke-width="2" data-sq="g1" data-type="floor" class="board-cell"/>
<g pointer-events="none"><circle cx="20" cy="20" r="18.400000000000002" fill="#ffcdd2" stroke="#c62828" stroke-width="2" pointer-events="none"/><image href="../pieces/sets/twemoji/lion.svg" x="8" y="8" width="24" height="24" pointer-events="none"/><circle cx="260" cy="20" r="18.400000000000002" fill="#ffcdd2" stroke="#c62828" stroke-width="2" pointer-events="none"/><image href="../pieces/sets/twemoji/tiger.svg" x="248" y="8" width="24" height="24" pointer-events="none"/><circle cx="60" cy="60" r="18.400000000000002" fill="#ffcdd2" stroke="#c62828" stroke-width="2" pointer-events="none"/><image href="../pieces/sets/twemoji/dog.svg" x="48" y="48" width="24" height="24" pointer-events="none"/><circle cx="220" cy="60" r="18.400000000000002" fill="#ffcdd2" stroke="#c62828" stroke-width="2" pointer-events="none"/><image href="../pieces/sets/twemoji/cat.svg" x="208" y="48" width="24" height="24" pointer-events="none"/><circle cx="20" cy="100" r="18.400000000000002" fill="#ffcdd2" stroke="#c62828" stroke-width="2" pointer-events="none"/><image href="../pieces/sets/twemoji/rat.svg" x="8" y="88" width="24" height="24" pointer-events="none"/><circle cx="100" cy="100" r="18.400000000000002" fill="#ffcdd2" stroke="#c62828" stroke-width="2" pointer-events="none"/><image href="../pieces/sets/twemoji/leopard.svg" x="88" y="88" width="24" height="24" pointer-events="none"/><circle cx="180" cy="100" r="18.400000000000002" fill="#ffcdd2" stroke="#c62828" stroke-width="2" pointer-events="none"/><image href="../pieces/sets/twemoji/wolf.svg" x="168" y="88" width="24" height="24" pointer-events="none"/><circle cx="260" cy="100" r="18.400000000000002" fill="#ffcdd2" stroke="#c62828" stroke-width="2" pointer-events="none"/><image href="../pieces/sets/twemoji/elephant.svg" x="248" y="88" width="24" height="24" pointer-events="none"/><circle cx="20" cy="260" r="18.400000000000002" fill="#bbdefb" stroke="#1565c0" stroke-width="2" pointer-events="none"/><image href="../pieces/sets/twemoji/elephant.svg" x="8" y="248" width="24" height="24" pointer-events="none"/><circle cx="100" cy="260" r="18.400000000000002" fill="#bbdefb" stroke="#1565c0" stroke-width="2" pointer-events="none"/><image href="../pieces/sets/twemoji/wolf.svg" x="88" y="248" width="24" height="24" pointer-events="none"/><circle cx="180" cy="260" r="18.400000000000002" fill="#bbdefb" stroke="#1565c0" stroke-width="2" pointer-events="none"/><image href="../pieces/sets/twemoji/leopard.svg" x="168" y="248" width="24" height="24" pointer-events="none"/><circle cx="260" cy="260" r="18.400000000000002" fill="#bbdefb" stroke="#1565c0" stroke-width="2" pointer-events="none"/><image href="../pieces/sets/twemoji/rat.svg" x="248" y="248" width="24" height="24" pointer-events="none"/><circle cx="60" cy="300" r="18.400000000000002" fill="#bbdefb" stroke="#1565c0" stroke-width="2" pointer-events="none"/><image href="../pieces/sets/twemoji/cat.svg" x="48" y="288" width="24" height="24" pointer-events="none"/><circle cx="220" cy="300" r="18.400000000000002" fill="#bbdefb" stroke="#1565c0" stroke-width="2" pointer-events="none"/><image href="../pieces/sets/twemoji/dog.svg" x="208" y="288" width="24" height="24" pointer-events="none"/><circle cx="20" cy="340" r="18.400000000000002" fill="#bbdefb" stroke="#1565c0" stroke-width="2" pointer-events="none"/><image href="../pieces/sets/twemoji/tiger.svg" x="8" y="328" width="24" height="24" pointer-events="none"/><circle cx="260" cy="340" r="18.400000000000002" fill="#bbdefb" stroke="#1565c0" stroke-width="2" pointer-events="none"/><image href="../pieces/sets/twemoji/lion.svg" x="248" y="328" width="24" height="24" pointer-events="none"/></g>
</svg>