<svg xmlns="http://www.w3.org/2000/svg" viewBox="0 0 368 368" width="368" height="368">

<rect x="24" y="24" width="40" height="40" fill="#f0d9b5" data-sq="a8" class="board-cell"/><rect x="64" y="24" width="40" height="40" fill="#b58863" data-sq="b8" class="board-cell"/><rect x="104" y="24" width="40" height="40" fill="#f0d9b5" data-sq="c8" class="board-cell"/><rect x="144" y="24" width="40" height="40" fill="#b58863" data-sq="d8" class="board-cell"/><rect x="184" y="24" width="40" height="40" fill="#f0d9b5" data-sq="e8" class="board-cell"/><rect x="224" y="24" width="40" height="40" fill="#b58863" data-sq="f8" class="board-cell"/><rect x="264" y="24" width="40" height="40" fill="#f0d9b5" data-sq="g8" class="board-cell"/><rect x="304" y="24" width="40" height="40" fill="#b58863" data-sq="h8" class="board-cell"/><rect x="24" y="64" width="40" height="40" fill="#b58863" data-sq="a7" class="board-cell"/><rect x="64" y="64" width="40" height="40" fill="#f0d9b5" data-sq="b7" class="board-cell"/><rect x="104" y="64" width="40" height="40" fill="#b58863" data-sq="c7" class="board-cell"/><rect x="144" y="64" width="40" height="40" fill="#f0d9b5" data-sq="d7" class="board-cell"/><rect x="184" y="64" width="40" height="40" fill="#b58863" data-sq="e7" class="board-cell"/><rect x="224" y="64" width="40" height="40" fill="#f0d9b5" data-sq="f7" class="board-cell"/><rect x="264" y="64" width="40" height="40" fill="#b58863" data-sq="g7" class="board-cell"/><rect x="304" y="64" width="40" height="40" fill="#f0d9b5" data-sq="h7" class="board-cell"/><rect x="24" y="104" width="40" height="40" fill="#f0d9b5" data-sq="a6" class="board-cell"/><rect x="64" y="104" width="40" height="40" fill="#b58863" data-sq="b6" class="board-cell"/><rect x="104" y="104" width="40" height="40" fill="#f0d9b5" data-sq="c6" class="board-cell"/><rect x="144" y="104" width="40" height="40" fill="#b58863" data-sq="d6" class="board-cell"/><rect x="184" y="104" width="40" height="40" fill="#f0d9b5" data-sq="e6" class="board-cell"/><rect x="224" y="104" width="40" height="40" fill="#b58863" data-sq="f6" class="board-cell"/><rect x="264" y="104" width="40" height="40" fill="#f0d9b5" data-sq="g6" class="board-cell"/><rect x="304" y="104" width="40" height="40" fill="#b58863" data-sq="h6" class="board-cell"/><rect x="24" y="144" width="40" height="40" fill="#b58863" data-sq="a5" class="board-cell"/><rect x="64" y="144" width="40" height="40" fill="#f0d9b5" data-sq="b5" class="board-cell"/><rect x="104" y="144" width="40" height="40" fill="#b58863" data-sq="c5" class="board-cell"/><rect x="144" y="144" width="40" height="40" fill="#f0d9b5" data-sq="d5" class="board-cell"/><rect x="184" y="144" width="40" height="40" fill="#b58863" data-sq="e5" class="board-cell"/><rect x="224" y="144" width="40" height="40" fill="#f0d9b5" data-sq="f5" class="board-cell"/><rect x="264" y="144" width="40" height="40" fill="#b58863" data-sq="g5" class="board-cell"/><rect x="304" y="144" width="40" height="40" fill="#f0d9b5" data-sq="h5" class="board-cell"/><rect x="24" y="184" width="40" height="40" fill="#f0d9b5" data-sq="a4" class="board-cell"/><rect x="64" y="184" width="40" height="40" fill="#b58863" data-sq="b4" class="board-cell"/><rect x="104" y="184" width="40" height="40" fill="#f0d9b5" data-sq="c4" class="board-cell"/><rect x="144" y="184" width="40" height="40" fill="#b58863" data-sq="d4" class="board-cell"/><rect x="184" y="184" width="40" height="40" fill="#f0d9b5" data-sq="e4" class="board-cell"/><rect x="224" y="184" width="40" height="40" fill="#b58863" data-sq="f4" class="board-cell"/><rect x="264" y="184" width="40" height="40" fill="#f0d9b5" data-sq="g4" class="board-cell"/><rect x="304" y="184" width="40" height="40" fill="#b58863" data-sq="h4" class="board-cell"/><rect x="24" y="224" width="40" height="40" fill="#b58863" data-sq="a3" class="board-cell"/><rect x="64" y="224" width="40" height="40" fill="#f0d9b5" data-sq="b3" class="board-cell"/><rect x="104" y="224" width="40" height="40" fill="#b58863" data-sq="c3" class="board-cell"/><rect x="144" y="224" width="40" height="40" fill="#f0d9b5" data-sq="d3" class="board-cell"/><rect x="184" y="224" width="40" height="40" fill="#b58863" data-sq="e3" class="board-cell"/><rect x="224" y="224" width="40" height="40" fill="#f0d9b5" data-sq="f3" class="board-cell"/><rect x="264" y="224" width="40" height="40" fill="#b58863" data-sq="g3" class="board-cell"/><rect x="304" y="224" width="40" height="40" fill="#f0d9b5" data-sq="h3" class="board-cell"/><rect x="24" y="264" width="40" height="40" fill="#f0d9b5" data-sq="a2" class="board-cell"/><rect x="64" y="264" width="40" height="40" fill="#b58863" data-sq="b2" class="board-cell"/><rect x="104" y="264" width="40" height="40" fill="#f0d9b5" data-sq="c2" class="board-cell"/><rect x="144" y="264" width="40" height="40" fill="#b58863" data-sq="d2" class="board-cell"/><rect x="184" y="264" width="40" height="40" fill="#f0d9b5" data-sq="e2" class="board-cell"/><rect x="224" y="264" width="40" height="40" fill="#b58863" data-sq="f2" class="board-cell"/><rect x="264" y="264" width="40" height="40" fill="#f0d9b5" data-sq="g2" class="board-cell"/><rect x="304" y="264" width="40" height="40" fill="#b58863" data-sq="h2" class="board-cell"/><rect x="24" y="304" width="40" height="40" fill="#b58863" data-sq="a1" class="board-cell"/><rect x="64" y="304" width="40" height="40" fill="#f0d9b5" data-sq="b1" class="board-cell"/><rect x="104" y="304" width="40" height="40" fill="#b58863" data-sq="c1" class="board-cell"/><rect x="144" y="304" width="40" height="40" fill="#f0d9b5" data-sq="d1" class="board-cell"/><rect x="184" y="304" width="40" height="40" fill="#b58863" data-sq="e1" class="board-cell"/><rect x="224" y="304" width="40" height="40" fill="#f0d9b5" data-sq="f1" class="board-cell"/><rect x="264" y="304" width="40" height="40" fill="#b58863" data-sq="g1" class="board-cell"/><rect x="304" y="304" width="40" height="40" fill="#f0d9b5" data-sq="h1" class="board-cell"/>
<g pointer-events="none"><image href="../pieces/sets/playstrategy-dameo-fabirovsky/bM.svg" x="24" y="24" width="40" height="40" pointer-events="none"/><image href="../pieces/sets/playstrategy-dameo-fabirovsky/bM.svg" x="104" y="24" width="40" height="40" pointer-events="none"/><image href="../pieces/sets/playstrategy-dameo-fabirovsky/bM.svg" x="184" y="24" width="40" height="40" pointer-events="none"/><image href="../pieces/sets/playstrategy-dameo-fabirovsky/bM.svg" x="264" y="24" width="40" height="40" pointer-events="none"/><image href="../pieces/sets/playstrategy-dameo-fabirovsky/bM.svg" x="64" y="64" width="40" height="40" pointer-events="none"/><image href="../pieces/sets/playstrategy-dameo-fabirovsky/bM.svg" x="144" y="64" width="40" height="40" pointer-events="none"/><image href="../pieces/sets/playstrategy-dameo-fabirovsky/bM.svg" x="224" y="64" width="40" height="40" pointer-events="none"/><image href="../pieces/sets/playstrategy-dameo-fabirovsky/bM.svg" x="304" y="64" width="40" height="40" pointer-events="none"/><image href="../pieces/sets/playstrategy-dameo-fabirovsky/wM.svg" x="24" y="264" width="40" height="40" pointer-events="none"/><image href="../pieces/sets/playstrategy-dameo-fabirovsky/wM.svg" x="104" y="264" width="40" height="40" pointer-events="none"/><image href="../pieces/sets/playstrategy-dameo-fabirovsky/wM.svg" x="184" y="264" width="40" height="40" pointer-events="none"/><image href="../pieces/sets/playstrategy-dameo-fabirovsky/wM.svg" x="264" y="264" width="40" height="40" pointer-events="none"/><image href="../pieces/sets/playstrategy-dameo-fabirovsky/wM.svg" x="64" y="304" width="40" height="40" pointer-events="none"/><image href="../pieces/sets/playstrategy-dameo-fabirovsky/wM.svg" x="144" y="304" width="40" height="40" pointer-events="none"/><image href="../pieces/sets/playstrategy-dameo-fabirovsky/wM.svg" x="224" y="304" width="40" height="40" pointer-events="none"/><image href="../pieces/sets/playstrategy-dameo-fabirovsky/wM.svg" x="304" y="304" width="40" height="40" pointer-events="none"/></g>
<text x="44" y="359.6" text-anchor="middle" font-size="13" fill="#5c3a1e" font-family="monospace">a</text><text x="84" y="359.6" text-anchor="middle" font-size="13" fill="#5c3a1e" font-family="monospace">b</text><text x="124" y="359.6" text-anchor="middle" font-size="13" fill="#5c3a1e" font-family="monospace">c</text><text x="164" y="359.6" text-anchor="middle" font-size="13" fill="#5c3a1e" font-family="monospace">d</text><text x="204" y="359.6" text-anchor="middle" font-size="13" fill="#5c3a1e" font-family="monospace">e</text><text x="244" y="359.6" text-anchor="middle" font-size="13" fill="#5c3a1e" font-family="monospace">f</text><text x="284" y="359.6" text-anchor="middle" font-size="13" fill="#5c3a1e" font-family="monospace">g</text><text x="324" y="359.6" text-anchor="middle" font-size="13" fill="#5c3a1e" font-family="monospace">h</text><text x="12" y="48.55" text-anchor="middle" font-size="13" fill="#5c3a1e" font-family="monospace">8</text><text x="12" y="88.55" text-anchor="middle" font-size="13" fill="#5c3a1e" font-family="monospace">7</text><text x="12" y="128.55" text-anchor="middle" font-size="13" fill="#5c3a1e" font-family="monospace">6</text><text x="12" y="168.55" text-anchor="middle" font-size="13" fill="#5c3a1e" font-family="monospace">5</text><text x="12" y="208.55" text-anchor="middle" font-size="13" fill="#5c3a1e" font-family="monospace">4</text><text x="12" y="248.55" text-anchor="middle" font-size="13" fill="#5c3a1e" font-family="monospace">3</text><text x="12" y="288.55" text-anchor="middle" font-size="13" fill="#5c3a1e" font-family="monospace">2</text><text x="12" y="328.55" text-anchor="middle" font-size="13" fill="#5c3a1e" font-family="monospace">1</text>
</svg>