<svg xmlns="http://www.w3.org/2000/svg" viewBox="0 0 168 420" width="168" height="420">
<rect x="0" y="0" width="168" height="420" fill="transparent"/><rect x="0" y="0" width="21" height="21" fill="#f0b0b0" stroke="#c05050" stroke-width="2" data-sq="a20" data-type="p2" class="board-cell"/><rect x="21" y="0" width="21" height="21" fill="#f0b0b0" stroke="#c05050" stroke-width="2" data-sq="b20" data-type="p2" class="board-cell"/><rect x="42" y="0" width="21" height="21" fill="#f0b0b0" stroke="#c05050" stroke-width="2" data-sq="c20" data-type="p2" class="board-cell"/><rect x="63" y="0" width="21" height="21" fill="#f0b0b0" stroke="#c05050" stroke-width="2" data-sq="d20" data-type="p2" class="board-cell"/><rect x="84" y="0" width="21" height="21" fill="#f0b0b0" stroke="#c05050" stroke-width="2" data-sq="e20" data-type="p2" class="board-cell"/><rect x="105" y="0" width="21" height="21" fill="#f0b0b0" stroke="#c05050" stroke-width="2" data-sq="f20" data-type="p2" class="board-cell"/><rect x="126" y="0" width="21" height="21" fill="#f0b0b0" stroke="#c05050" stroke-width="2" data-sq="g20" data-type="p2" class="board-cell"/><rect x="147" y="0" width="21" height="21" fill="#f0b0b0" stroke="#c05050" stroke-width="2" data-sq="h20" data-type="p2" class="board-cell"/><rect x="0" y="21" width="21" height="21" fill="#f0b0b0" stroke="#c05050" stroke-width="2" data-sq="a19" data-type="p2" class="board-cell"/><rect x="21" y="21" width="21" height="21" fill="#f0b0b0" stroke="#c05050" stroke-width="2" data-sq="b19" data-type="p2" class="board-cell"/><rect x="42" y="21" width="21" height="21" fill="#f0b0b0" stroke="#c05050" stroke-width="2" data-sq="c19" data-type="p2" class="board-cell"/><rect x="63" y="21" width="21" height="21" fill="#f0b0b0" stroke="#c05050" stroke-width="2" data-sq="d19" data-type="p2" class="board-cell"/><rect x="84" y="21" width="21" height="21" fill="#f0b0b0" stroke="#c05050" stroke-width="2" data-sq="e19" data-type="p2" class="board-cell"/><rect x="105" y="21" width="21" height="21" fill="#f0b0b0" stroke="#c05050" stroke-width="2" data-sq="f19" data-type="p2" class="board-cell"/><rect x="126" y="21" width="21" height="21" fill="#f0b0b0" stroke="#c05050" stroke-width="2" data-sq="g19" data-type="p2" class="board-cell"/><rect x="147" y="21" width="21" height="21" fill="#f0b0b0" stroke="#c05050" stroke-width="2" data-sq="h19" data-type="p2" class="board-cell"/><rect x="0" y="42" width="21" height="21" fill="#d4c4a8" stroke="#2a2a2a" stroke-width="2" data-sq="a18" data-type="floor" class="board-cell"/><rect x="21" y="42" width="21" height="21" fill="#d4c4a8" stroke="#2a2a2a" stroke-width="2" data-sq="b18" data-type="floor" class="board-cell"/><rect x="42" y="42" width="21" height="21" fill="#d4c4a8" stroke="#2a2a2a" stroke-width="2" data-sq="c18" data-type="floor" class="board-cell"/><rect x="63" y="42" width="21" height="21" fill="#d4c4a8" stroke="#2a2a2a" stroke-width="2" data-sq="d18" data-type="floor" class="board-cell"/><rect x="84" y="42" width="21" height="21" fill="#d4c4a8" stroke="#2a2a2a" stroke-width="2" data-sq="e18" data-type="floor" class="board-cell"/><rect x="105" y="42" width="21" height="21" fill="#d4c4a8" stroke="#2a2a2a" stroke-width="2" data-sq="f18" data-type="floor" class="board-cell"/><rect x="126" y="42" width="21" height="21" fill="#d4c4a8" stroke="#2a2a2a" stroke-width="2" data-sq="g18" data-type="floor" class="board-cell"/><rect x="147" y="42" width="21" height="21" fill="#d4c4a8" stroke="#2a2a2a" stroke-width="2" data-sq="h18" data-type="floor" class="board-cell"/><rect x="63" y="63" width="21" height="21" fill="#d4c4a8" stroke="#2a2a2a" stroke-width="2" data-sq="d17" data-type="floor" class="board-cell"/><rect x="84" y="63" width="21" height="21" fill="#d4c4a8" stroke="#2a2a2a" stroke-width="2" data-sq="e17" data-type="floor" class="board-cell"/><rect x="63" y="84" width="21" height="21" fill="#d4c4a8" stroke="#2a2a2a" stroke-width="2" data-sq="d16" data-type="floor" class="board-cell"/><rect x="84" y="84" width="21" height="21" fill="#d4c4a8" stroke="#2a2a2a" stroke-width="2" data-sq="e16" data-type="floor" class="board-cell"/><rect x="63" y="105" width="21" height="21" fill="#d4c4a8" stroke="#2a2a2a" stroke-width="2" data-sq="d15" data-type="floor" class="board-cell"/><rect x="84" y="105" width="21" height="21" fill="#d4c4a8" stroke="#2a2a2a" stroke-width="2" data-sq="e15" data-type="floor" class="board-cell"/><rect x="0" y="126" width="21" height="21" fill="#d4c4a8" stroke="#2a2a2a" stroke-width="2" data-sq="a14" data-type="floor" class="board-cell"/><rect x="21" y="126" width="21" height="21" fill="#d4c4a8" stroke="#2a2a2a" stroke-width="2" data-sq="b14" data-type="floor" class="board-cell"/><rect x="42" y="126" width="21" height="21" fill="#d4c4a8" stroke="#2a2a2a" stroke-width="2" data-sq="c14" data-type="floor" class="board-cell"/><rect x="63" y="126" width="21" height="21" fill="#d4c4a8" stroke="#2a2a2a" stroke-width="2" data-sq="d14" data-type="floor" class="board-cell"/><rect x="84" y="126" width="21" height="21" fill="#d4c4a8" stroke="#2a2a2a" stroke-width="2" data-sq="e14" data-type="floor" class="board-cell"/><rect x="105" y="126" width="21" height="21" fill="#d4c4a8" stroke="#2a2a2a" stroke-width="2" data-sq="f14" data-type="floor" class="board-cell"/><rect x="126" y="126" width="21" height="21" fill="#d4c4a8" stroke="#2a2a2a" stroke-width="2" data-sq="g14" data-type="floor" class="board-cell"/><rect x="147" y="126" width="21" height="21" fill="#d4c4a8" stroke="#2a2a2a" stroke-width="2" data-sq="h14" data-type="floor" class="board-cell"/><rect x="0" y="147" width="21" height="21" fill="#d4c4a8" stroke="#2a2a2a" stroke-width="2" data-sq="a13" data-type="floor" class="board-cell"/><rect x="21" y="147" width="21" height="21" fill="#d4c4a8" stroke="#2a2a2a" stroke-width="2" data-sq="b13" data-type="floor" class="board-cell"/><rect x="42" y="147" width="21" height="21" fill="#d4c4a8" stroke="#2a2a2a" stroke-width="2" data-sq="c13" data-type="floor" class="board-cell"/><rect x="63" y="147" width="21" height="21" fill="#d4c4a8" stroke="#2a2a2a" stroke-width="2" data-sq="d13" data-type="floor" class="board-cell"/><rect x="84" y="147" width="21" height="21" fill="#d4c4a8" stroke="#2a2a2a" stroke-width="2" data-sq="e13" data-type="floor" class="board-cell"/><rect x="105" y="147" width="21" height="21" fill="#d4c4a8" stroke="#2a2a2a" stroke-width="2" data-sq="f13" data-type="floor" class="board-cell"/><rect x="126" y="147" width="21" height="21" fill="#d4c4a8" stroke="#2a2a2a" stroke-width="2" data-sq="g13" data-type="floor" class="board-cell"/><rect x="147" y="147" width="21" height="21" fill="#d4c4a8" stroke="#2a2a2a" stroke-width="2" data-sq="h13" data-type="floor" class="board-cell"/><rect x="0" y="168" width="21" height="21" fill="#d4c4a8" stroke="#2a2a2a" stroke-width="2" data-sq="a12" data-type="floor" class="board-cell"/><rect x="21" y="168" width="21" height="21" fill="#d4c4a8" stroke="#2a2a2a" stroke-width="2" data-sq="b12" data-type="floor" class="board-cell"/><rect x="42" y="168" width="21" height="21" fill="#4a90c8" stroke="#2a2a2a" stroke-width="2" data-sq="c12" data-type="water" class="board-cell"/><rect x="63" y="168" width="21" height="21" fill="#4a90c8" stroke="#2a2a2a" stroke-width="2" data-sq="d12" data-type="water" class="board-cell"/><rect x="84" y="168" width="21" height="21" fill="#4a90c8" stroke="#2a2a2a" stroke-width="2" data-sq="e12" data-type="water" class="board-cell"/><rect x="105" y="168" width="21" height="21" fill="#4a90c8" stroke="#2a2a2a" stroke-width="2" data-sq="f12" data-type="water" class="board-cell"/><rect x="126" y="168" width="21" height="21" fill="#d4c4a8" stroke="#2a2a2a" stroke-width="2" data-sq="g12" data-type="floor" class="board-cell"/><rect x="147" y="168" width="21" height="21" fill="#d4c4a8" stroke="#2a2a2a" stroke-width="2" data-sq="h12" data-type="floor" class="board-cell"/><rect x="0" y="189" width="21" height="21" fill="#d4c4a8" stroke="#2a2a2a" stroke-width="2" data-sq="a11" data-type="floor" class="board-cell"/><rect x="21" y="189" width="21" height="21" fill="#d4c4a8" stroke="#2a2a2a" stroke-width="2" data-sq="b11" data-type="floor" class="board-cell"/><rect x="42" y="189" width="21" height="21" fill="#4a90c8" stroke="#2a2a2a" stroke-width="2" data-sq="c11" data-type="water" class="board-cell"/><rect x="63" y="189" width="21" height="21" fill="#4a90c8" stroke="#2a2a2a" stroke-width="2" data-sq="d11" data-type="water" class="board-cell"/><rect x="84" y="189" width="21" height="21" fill="#4a90c8" stroke="#2a2a2a" stroke-width="2" data-sq="e11" data-type="water" class="board-cell"/><rect x="105" y="189" width="21" height="21" fill="#4a90c8" stroke="#2a2a2a" stroke-width="2" data-sq="f11" data-type="water" class="board-cell"/><rect x="126" y="189" width="21" height="21" fill="#d4c4a8" stroke="#2a2a2a" stroke-width="2" data-sq="g11" data-type="floor" class="board-cell"/><rect x="147" y="189" width="21" height="21" fill="#d4c4a8" stroke="#2a2a2a" stroke-width="2" data-sq="h11" data-type="floor" class="board-cell"/><rect x="0" y="210" width="21" height="21" fill="#d4c4a8" stroke="#2a2a2a" stroke-width="2" data-sq="a10" data-type="floor" class="board-cell"/><rect x="21" y="210" width="21" height="21" fill="#d4c4a8" stroke="#2a2a2a" stroke-width="2" data-sq="b10" data-type="floor" class="board-cell"/><rect x="42" y="210" width="21" height="21" fill="#4a90c8" stroke="#2a2a2a" stroke-width="2" data-sq="c10" data-type="water" class="board-cell"/><rect x="63" y="210" width="21" height="21" fill="#4a90c8" stroke="#2a2a2a" stroke-width="2" data-sq="d10" data-type="water" class="board-cell"/><rect x="84" y="210" width="21" height="21" fill="#4a90c8" stroke="#2a2a2a" stroke-width="2" data-sq="e10" data-type="water" class="board-cell"/><rect x="105" y="210" width="21" height="21" fill="#4a90c8" stroke="#2a2a2a" stroke-width="2" data-sq="f10" data-type="water" class="board-cell"/><rect x="126" y="210" width="21" height="21" fill="#d4c4a8" stroke="#2a2a2a" stroke-width="2" data-sq="g10" data-type="floor" class="board-cell"/><rect x="147" y="210" width="21" height="21" fill="#d4c4a8" stroke="#2a2a2a" stroke-width="2" data-sq="h10" data-type="floor" class="board-cell"/><rect x="0" y="231" width="21" height="21" fill="#d4c4a8" stroke="#2a2a2a" stroke-width="2" data-sq="a9" data-type="floor" class="board-cell"/><rect x="21" y="231" width="21" height="21" fill="#d4c4a8" stroke="#2a2a2a" stroke-width="2" data-sq="b9" data-type="floor" class="board-cell"/><rect x="42" y="231" width="21" height="21" fill="#4a90c8" stroke="#2a2a2a" stroke-width="2" data-sq="c9" data-type="water" class="board-cell"/><rect x="63" y="231" width="21" height="21" fill="#4a90c8" stroke="#2a2a2a" stroke-width="2" data-sq="d9" data-type="water" class="board-cell"/><rect x="84" y="231" width="21" height="21" fill="#4a90c8" stroke="#2a2a2a" stroke-width="2" data-sq="e9" data-type="water" class="board-cell"/><rect x="105" y="231" width="21" height="21" fill="#4a90c8" stroke="#2a2a2a" stroke-width="2" data-sq="f9" data-type="water" class="board-cell"/><rect x="126" y="231" width="21" height="21" fill="#d4c4a8" stroke="#2a2a2a" stroke-width="2" data-sq="g9" data-type="floor" class="board-cell"/><rect x="147" y="231" width="21" height="21" fill="#d4c4a8" stroke="#2a2a2a" stroke-width="2" data-sq="h9" data-type="floor" class="board-cell"/><rect x="0" y="252" width="21" height="21" fill="#d4c4a8" stroke="#2a2a2a" stroke-width="2" data-sq="a8" data-type="floor" class="board-cell"/><rect x="21" y="252" width="21" height="21" fill="#d4c4a8" stroke="#2a2a2a" stroke-width="2" data-sq="b8" data-type="floor" class="board-cell"/><rect x="42" y="252" width="21" height="21" fill="#d4c4a8" stroke="#2a2a2a" stroke-width="2" data-sq="c8" data-type="floor" class="board-cell"/><rect x="63" y="252" width="21" height="21" fill="#d4c4a8" stroke="#2a2a2a" stroke-width="2" data-sq="d8" data-type="floor" class="board-cell"/><rect x="84" y="252" width="21" height="21" fill="#d4c4a8" stroke="#2a2a2a" stroke-width="2" data-sq="e8" data-type="floor" class="board-cell"/><rect x="105" y="252" width="21" height="21" fill="#d4c4a8" stroke="#2a2a2a" stroke-width="2" data-sq="f8" data-type="floor" class="board-cell"/><rect x="126" y="252" width="21" height="21" fill="#d4c4a8" stroke="#2a2a2a" stroke-width="2" data-sq="g8" data-type="floor" class="board-cell"/><rect x="147" y="252" width="21" height="21" fill="#d4c4a8" stroke="#2a2a2a" stroke-width="2" data-sq="h8" data-type="floor" class="board-cell"/><rect x="0" y="273" width="21" height="21" fill="#d4c4a8" stroke="#2a2a2a" stroke-width="2" data-sq="a7" data-type="floor" class="board-cell"/><rect x="21" y="273" width="21" height="21" fill="#d4c4a8" stroke="#2a2a2a" stroke-width="2" data-sq="b7" data-type="floor" class="board-cell"/><rect x="42" y="273" width="21" height="21" fill="#d4c4a8" stroke="#2a2a2a" stroke-width="2" data-sq="c7" data-type="floor" class="board-cell"/><rect x="63" y="273" width="21" height="21" fill="#d4c4a8" stroke="#2a2a2a" stroke-width="2" data-sq="d7" data-type="floor" class="board-cell"/><rect x="84" y="273" width="21" height="21" fill="#d4c4a8" stroke="#2a2a2a" stroke-width="2" data-sq="e7" data-type="floor" class="board-cell"/><rect x="105" y="273" width="21" height="21" fill="#d4c4a8" stroke="#2a2a2a" stroke-width="2" data-sq="f7" data-type="floor" class="board-cell"/><rect x="126" y="273" width="21" height="21" fill="#d4c4a8" stroke="#2a2a2a" stroke-width="2" data-sq="g7" data-type="floor" class="board-cell"/><rect x="147" y="273" width="21" height="21" fill="#d4c4a8" stroke="#2a2a2a" stroke-width="2" data-sq="h7" data-type="floor" class="board-cell"/><rect x="63" y="294" width="21" height="21" fill="#d4c4a8" stroke="#2a2a2a" stroke-width="2" data-sq="d6" data-type="floor" class="board-cell"/><rect x="84" y="294" width="21" height="21" fill="#d4c4a8" stroke="#2a2a2a" stroke-width="2" data-sq="e6" data-type="floor" class="board-cell"/><rect x="63" y="315" width="21" height="21" fill="#d4c4a8" stroke="#2a2a2a" stroke-width="2" data-sq="d5" data-type="floor" class="board-cell"/><rect x="84" y="315" width="21" height="21" fill="#d4c4a8" stroke="#2a2a2a" stroke-width="2" data-sq="e5" data-type="floor" class="board-cell"/><rect x="63" y="336" width="21" height="21" fill="#d4c4a8" stroke="#2a2a2a" stroke-width="2" data-sq="d4" data-type="floor" class="board-cell"/><rect x="84" y="336" width="21" height="21" fill="#d4c4a8" stroke="#2a2a2a" stroke-width="2" data-sq="e4" data-type="floor" class="board-cell"/><rect x="0" y="357" width="21" height="21" fill="#d4c4a8" stroke="#2a2a2a" stroke-width="2" data-sq="a3" data-type="floor" class="board-cell"/><rect x="21" y="357" width="21" height="21" fill="#d4c4a8" stroke="#2a2a2a" stroke-width="2" data-sq="b3" data-type="floor" class="board-cell"/><rect x="42" y="357" width="21" height="21" fill="#d4c4a8" stroke="#2a2a2a" stroke-width="2" data-sq="c3" data-type="floor" class="board-cell"/><rect x="63" y="357" width="21" height="21" fill="#d4c4a8" stroke="#2a2a2a" stroke-width="2" data-sq="d3" data-type="floor" class="board-cell"/><rect x="84" y="357" width="21" height="21" fill="#d4c4a8" stroke="#2a2a2a" stroke-width="2" data-sq="e3" data-type="floor" class="board-cell"/><rect x="105" y="357" width="21" height="21" fill="#d4c4a8" stroke="#2a2a2a" stroke-width="2" data-sq="f3" data-type="floor" class="board-cell"/><rect x="126" y="357" width="21" height="21" fill="#d4c4a8" stroke="#2a2a2a" stroke-width="2" data-sq="g3" data-type="floor" class="board-cell"/><rect x="147" y="357" width="21" height="21" fill="#d4c4a8" stroke="#2a2a2a" stroke-width="2" data-sq="h3" data-type="floor" class="board-cell"/><rect x="0" y="378" width="21" height="21" fill="#f0d080" stroke="#c08820" stroke-width="2" data-sq="a2" data-type="p1" class="board-cell"/><rect x="21" y="378" width="21" height="21" fill="#f0d080" stroke="#c08820" stroke-width="2" data-sq="b2" data-type="p1" class="board-cell"/><rect x="42" y="378" width="21" height="21" fill="#f0d080" stroke="#c08820" stroke-width="2" data-sq="c2" data-type="p1" class="board-cell"/><rect x="63" y="378" width="21" height="21" fill="#f0d080" stroke="#c08820" stroke-width="2" data-sq="d2" data-type="p1" class="board-cell"/><rect x="84" y="378" width="21" height="21" fill="#f0d080" stroke="#c08820" stroke-width="2" data-sq="e2" data-type="p1" class="board-cell"/><rect x="105" y="378" width="21" height="21" fill="#f0d080" stroke="#c08820" stroke-width="2" data-sq="f2" data-type="p1" class="board-cell"/><rect x="126" y="378" width="21" height="21" fill="#f0d080" stroke="#c08820" stroke-width="2" data-sq="g2" data-type="p1" class="board-cell"/><rect x="147" y="378" width="21" height="21" fill="#f0d080" stroke="#c08820" stroke-width="2" data-sq="h2" data-type="p1" class="board-cell"/><rect x="0" y="399" width="21" height="21" fill="#f0d080" stroke="#c08820" stroke-width="2" data-sq="a1" data-type="p1" class="board-cell"/><rect x="21" y="399" width="21" height="21" fill="#f0d080" stroke="#c08820" stroke-width="2" data-sq="b1" data-type="p1" class="board-cell"/><rect x="42" y="399" width="21" height="21" fill="#f0d080" stroke="#c08820" stroke-width="2" data-sq="c1" data-type="p1" class="board-cell"/><rect x="63" y="399" width="21" height="21" fill="#f0d080" stroke="#c08820" stroke-width="2" data-sq="d1" data-type="p1" class="board-cell"/><rect x="84" y="399" width="21" height="21" fill="#f0d080" stroke="#c08820" stroke-width="2" data-sq="e1" data-type="p1" class="board-cell"/><rect x="105" y="399" width="21" height="21" fill="#f0d080" stroke="#c08820" stroke-width="2" data-sq="f1" data-type="p1" class="board-cell"/><rect x="126" y="399" width="21" height="21" fill="#f0d080" stroke="#c08820" stroke-width="2" data-sq="g1" data-type="p1" class="board-cell"/><rect x="147" y="399" width="21" height="21" fill="#f0d080" stroke="#c08820" stroke-width="2" data-sq="h1" data-type="p1" class="board-cell"/>
</svg>