<svg xmlns="http://www.w3.org/2000/svg" viewBox="0 0 240 240" width="240" height="240">
<rect x="0" y="0" width="240" height="240" fill="transparent"/><rect x="0" y="0" width="24" height="24" fill="#f0b0b0" stroke="#c05050" stroke-width="2" data-sq="a10" data-type="p2" class="board-cell"/><rect x="24" y="0" width="24" height="24" fill="#f0b0b0" stroke="#c05050" stroke-width="2" data-sq="b10" data-type="p2" class="board-cell"/><rect x="48" y="0" width="24" height="24" fill="#f0b0b0" stroke="#c05050" stroke-width="2" data-sq="c10" data-type="p2" class="board-cell"/><rect x="72" y="0" width="24" height="24" fill="#f0b0b0" stroke="#c05050" stroke-width="2" data-sq="d10" data-type="p2" class="board-cell"/><rect x="96" y="0" width="24" height="24" fill="#f0b0b0" stroke="#c05050" stroke-width="2" data-sq="e10" data-type="p2" class="board-cell"/><rect x="120" y="0" width="24" height="24" fill="#f0b0b0" stroke="#c05050" stroke-width="2" data-sq="f10" data-type="p2" class="board-cell"/><rect x="144" y="0" width="24" height="24" fill="#f0b0b0" stroke="#c05050" stroke-width="2" data-sq="g10" data-type="p2" class="board-cell"/><rect x="168" y="0" width="24" height="24" fill="#f0b0b0" stroke="#c05050" stroke-width="2" data-sq="h10" data-type="p2" class="board-cell"/><rect x="192" y="0" width="24" height="24" fill="#f0b0b0" stroke="#c05050" stroke-width="2" data-sq="i10" data-type="p2" class="board-cell"/><rect x="216" y="0" width="24" height="24" fill="#f0b0b0" stroke="#c05050" stroke-width="2" data-sq="j10" data-type="p2" class="board-cell"/><rect x="0" y="24" width="24" height="24" fill="#f0b0b0" stroke="#c05050" stroke-width="2" data-sq="a9" data-type="p2" class="board-cell"/><rect x="24" y="24" width="24" height="24" fill="#f0b0b0" stroke="#c05050" stroke-width="2" data-sq="b9" data-type="p2" class="board-cell"/><rect x="48" y="24" width="24" height="24" fill="#f0b0b0" stroke="#c05050" stroke-width="2" data-sq="c9" data-type="p2" class="board-cell"/><rect x="72" y="24" width="24" height="24" fill="#f0b0b0" stroke="#c05050" stroke-width="2" data-sq="d9" data-type="p2" class="board-cell"/><rect x="96" y="24" width="24" height="24" fill="#f0b0b0" stroke="#c05050" stroke-width="2" data-sq="e9" data-type="p2" class="board-cell"/><rect x="120" y="24" width="24" height="24" fill="#f0b0b0" stroke="#c05050" stroke-width="2" data-sq="f9" data-type="p2" class="board-cell"/><rect x="144" y="24" width="24" height="24" fill="#f0b0b0" stroke="#c05050" stroke-width="2" data-sq="g9" data-type="p2" class="board-cell"/><rect x="168" y="24" width="24" height="24" fill="#f0b0b0" stroke="#c05050" stroke-width="2" data-sq="h9" data-type="p2" class="board-cell"/><rect x="192" y="24" width="24" height="24" fill="#f0b0b0" stroke="#c05050" stroke-width="2" data-sq="i9" data-type="p2" class="board-cell"/><rect x="216" y="24" width="24" height="24" fill="#f0b0b0" stroke="#c05050" stroke-width="2" data-sq="j9" data-type="p2" class="board-cell"/><rect x="0" y="48" width="24" height="24" fill="#d4c4a8" stroke="#2a2a2a" stroke-width="2" data-sq="a8" data-type="floor" class="board-cell"/><rect x="24" y="48" width="24" height="24" fill="#d4c4a8" stroke="#2a2a2a" stroke-width="2" data-sq="b8" data-type="floor" class="board-cell"/><rect x="48" y="48" width="24" height="24" fill="#d4c4a8" stroke="#2a2a2a" stroke-width="2" data-sq="c8" data-type="floor" class="board-cell"/><rect x="72" y="48" width="24" height="24" fill="#d4c4a8" stroke="#2a2a2a" stroke-width="2" data-sq="d8" data-type="floor" class="board-cell"/><rect x="96" y="48" width="24" height="24" fill="#d4c4a8" stroke="#2a2a2a" stroke-width="2" data-sq="e8" data-type="floor" class="board-cell"/><rect x="120" y="48" width="24" height="24" fill="#d4c4a8" stroke="#2a2a2a" stroke-width="2" data-sq="f8" data-type="floor" class="board-cell"/><rect x="144" y="48" width="24" height="24" fill="#d4c4a8" stroke="#2a2a2a" stroke-width="2" data-sq="g8" data-type="floor" class="board-cell"/><rect x="168" y="48" width="24" height="24" fill="#d4c4a8" stroke="#2a2a2a" stroke-width="2" data-sq="h8" data-type="floor" class="board-cell"/><rect x="192" y="48" width="24" height="24" fill="#d4c4a8" stroke="#2a2a2a" stroke-width="2" data-sq="i8" data-type="floor" class="board-cell"/><rect x="216" y="48" width="24" height="24" fill="#d4c4a8" stroke="#2a2a2a" stroke-width="2" data-sq="j8" data-type="floor" class="board-cell"/><rect x="0" y="72" width="24" height="24" fill="#d4c4a8" stroke="#2a2a2a" stroke-width="2" data-sq="a7" data-type="floor" class="board-cell"/><rect x="24" y="72" width="24" height="24" fill="#d4c4a8" stroke="#2a2a2a" stroke-width="2" data-sq="b7" data-type="floor" class="board-cell"/><rect x="48" y="72" width="24" height="24" fill="#d4c4a8" stroke="#2a2a2a" stroke-width="2" data-sq="c7" data-type="floor" class="board-cell"/><rect x="72" y="72" width="24" height="24" fill="#4a90c8" stroke="#2a2a2a" stroke-width="2" data-sq="d7" data-type="water" class="board-cell"/><rect x="96" y="72" width="24" height="24" fill="#4a90c8" stroke="#2a2a2a" stroke-width="2" data-sq="e7" data-type="water" class="board-cell"/><rect x="120" y="72" width="24" height="24" fill="#4a90c8" stroke="#2a2a2a" stroke-width="2" data-sq="f7" data-type="water" class="board-cell"/><rect x="144" y="72" width="24" height="24" fill="#4a90c8" stroke="#2a2a2a" stroke-width="2" data-sq="g7" data-type="water" class="board-cell"/><rect x="168" y="72" width="24" height="24" fill="#d4c4a8" stroke="#2a2a2a" stroke-width="2" data-sq="h7" data-type="floor" class="board-cell"/><rect x="192" y="72" width="24" height="24" fill="#d4c4a8" stroke="#2a2a2a" stroke-width="2" data-sq="i7" data-type="floor" class="board-cell"/><rect x="216" y="72" width="24" height="24" fill="#d4c4a8" stroke="#2a2a2a" stroke-width="2" data-sq="j7" data-type="floor" class="board-cell"/><rect x="0" y="96" width="24" height="24" fill="#d4c4a8" stroke="#2a2a2a" stroke-width="2" data-sq="a6" data-type="floor" class="board-cell"/><rect x="24" y="96" width="24" height="24" fill="#d4c4a8" stroke="#2a2a2a" stroke-width="2" data-sq="b6" data-type="floor" class="board-cell"/><rect x="48" y="96" width="24" height="24" fill="#d4c4a8" stroke="#2a2a2a" stroke-width="2" data-sq="c6" data-type="floor" class="board-cell"/><rect x="72" y="96" width="24" height="24" fill="#4a90c8" stroke="#2a2a2a" stroke-width="2" data-sq="d6" data-type="water" class="board-cell"/><rect x="96" y="96" width="24" height="24" fill="#4a90c8" stroke="#2a2a2a" stroke-width="2" data-sq="e6" data-type="water" class="board-cell"/><rect x="120" y="96" width="24" height="24" fill="#4a90c8" stroke="#2a2a2a" stroke-width="2" data-sq="f6" data-type="water" class="board-cell"/><rect x="144" y="96" width="24" height="24" fill="#4a90c8" stroke="#2a2a2a" stroke-width="2" data-sq="g6" data-type="water" class="board-cell"/><rect x="168" y="96" width="24" height="24" fill="#d4c4a8" stroke="#2a2a2a" stroke-width="2" data-sq="h6" data-type="floor" class="board-cell"/><rect x="192" y="96" width="24" height="24" fill="#d4c4a8" stroke="#2a2a2a" stroke-width="2" data-sq="i6" data-type="floor" class="board-cell"/><rect x="216" y="96" width="24" height="24" fill="#d4c4a8" stroke="#2a2a2a" stroke-width="2" data-sq="j6" data-type="floor" class="board-cell"/><rect x="0" y="120" width="24" height="24" fill="#d4c4a8" stroke="#2a2a2a" stroke-width="2" data-sq="a5" data-type="floor" class="board-cell"/><rect x="24" y="120" width="24" height="24" fill="#d4c4a8" stroke="#2a2a2a" stroke-width="2" data-sq="b5" data-type="floor" class="board-cell"/><rect x="48" y="120" width="24" height="24" fill="#d4c4a8" stroke="#2a2a2a" stroke-width="2" data-sq="c5" data-type="floor" class="board-cell"/><rect x="72" y="120" width="24" height="24" fill="#4a90c8" stroke="#2a2a2a" stroke-width="2" data-sq="d5" data-type="water" class="board-cell"/><rect x="96" y="120" width="24" height="24" fill="#4a90c8" stroke="#2a2a2a" stroke-width="2" data-sq="e5" data-type="water" class="board-cell"/><rect x="120" y="120" width="24" height="24" fill="#4a90c8" stroke="#2a2a2a" stroke-width="2" data-sq="f5" data-type="water" class="board-cell"/><rect x="144" y="120" width="24" height="24" fill="#4a90c8" stroke="#2a2a2a" stroke-width="2" data-sq="g5" data-type="water" class="board-cell"/><rect x="168" y="120" width="24" height="24" fill="#d4c4a8" stroke="#2a2a2a" stroke-width="2" data-sq="h5" data-type="floor" class="board-cell"/><rect x="192" y="120" width="24" height="24" fill="#d4c4a8" stroke="#2a2a2a" stroke-width="2" data-sq="i5" data-type="floor" class="board-cell"/><rect x="216" y="120" width="24" height="24" fill="#d4c4a8" stroke="#2a2a2a" stroke-width="2" data-sq="j5" data-type="floor" class="board-cell"/><rect x="0" y="144" width="24" height="24" fill="#d4c4a8" stroke="#2a2a2a" stroke-width="2" data-sq="a4" data-type="floor" class="board-cell"/><rect x="24" y="144" width="24" height="24" fill="#d4c4a8" stroke="#2a2a2a" stroke-width="2" data-sq="b4" data-type="floor" class="board-cell"/><rect x="48" y="144" width="24" height="24" fill="#d4c4a8" stroke="#2a2a2a" stroke-width="2" data-sq="c4" data-type="floor" class="board-cell"/><rect x="72" y="144" width="24" height="24" fill="#4a90c8" stroke="#2a2a2a" stroke-width="2" data-sq="d4" data-type="water" class="board-cell"/><rect x="96" y="144" width="24" height="24" fill="#4a90c8" stroke="#2a2a2a" stroke-width="2" data-sq="e4" data-type="water" class="board-cell"/><rect x="120" y="144" width="24" height="24" fill="#4a90c8" stroke="#2a2a2a" stroke-width="2" data-sq="f4" data-type="water" class="board-cell"/><rect x="144" y="144" width="24" height="24" fill="#4a90c8" stroke="#2a2a2a" stroke-width="2" data-sq="g4" data-type="water" class="board-cell"/><rect x="168" y="144" width="24" height="24" fill="#d4c4a8" stroke="#2a2a2a" stroke-width="2" data-sq="h4" data-type="floor" class="board-cell"/><rect x="192" y="144" width="24" height="24" fill="#d4c4a8" stroke="#2a2a2a" stroke-width="2" data-sq="i4" data-type="floor" class="board-cell"/><rect x="216" y="144" width="24" height="24" fill="#d4c4a8" stroke="#2a2a2a" stroke-width="2" data-sq="j4" data-type="floor" class="board-cell"/><rect x="0" y="168" width="24" height="24" fill="#d4c4a8" stroke="#2a2a2a" stroke-width="2" data-sq="a3" data-type="floor" class="board-cell"/><rect x="24" y="168" width="24" height="24" fill="#d4c4a8" stroke="#2a2a2a" stroke-width="2" data-sq="b3" data-type="floor" class="board-cell"/><rect x="48" y="168" width="24" height="24" fill="#d4c4a8" stroke="#2a2a2a" stroke-width="2" data-sq="c3" data-type="floor" class="board-cell"/><rect x="72" y="168" width="24" height="24" fill="#d4c4a8" stroke="#2a2a2a" stroke-width="2" data-sq="d3" data-type="floor" class="board-cell"/><rect x="96" y="168" width="24" height="24" fill="#d4c4a8" stroke="#2a2a2a" stroke-width="2" data-sq="e3" data-type="floor" class="board-cell"/><rect x="120" y="168" width="24" height="24" fill="#d4c4a8" stroke="#2a2a2a" stroke-width="2" data-sq="f3" data-type="floor" class="board-cell"/><rect x="144" y="168" width="24" height="24" fill="#d4c4a8" stroke="#2a2a2a" stroke-width="2" data-sq="g3" data-type="floor" class="board-cell"/><rect x="168" y="168" width="24" height="24" fill="#d4c4a8" stroke="#2a2a2a" stroke-width="2" data-sq="h3" data-type="floor" class="board-cell"/><rect x="192" y="168" width="24" height="24" fill="#d4c4a8" stroke="#2a2a2a" stroke-width="2" data-sq="i3" data-type="floor" class="board-cell"/><rect x="216" y="168" width="24" height="24" fill="#d4c4a8" stroke="#2a2a2a" stroke-width="2" data-sq="j3" data-type="floor" class="board-cell"/><rect x="0" y="192" width="24" height="24" fill="#f0d080" stroke="#c08820" stroke-width="2" data-sq="a2" data-type="p1" class="board-cell"/><rect x="24" y="192" width="24" height="24" fill="#f0d080" stroke="#c08820" stroke-width="2" data-sq="b2" data-type="p1" class="board-cell"/><rect x="48" y="192" width="24" height="24" fill="#f0d080" stroke="#c08820" stroke-width="2" data-sq="c2" data-type="p1" class="board-cell"/><rect x="72" y="192" width="24" height="24" fill="#f0d080" stroke="#c08820" stroke-width="2" data-sq="d2" data-type="p1" class="board-cell"/><rect x="96" y="192" width="24" height="24" fill="#f0d080" stroke="#c08820" stroke-width="2" data-sq="e2" data-type="p1" class="board-cell"/><rect x="120" y="192" width="24" height="24" fill="#f0d080" stroke="#c08820" stroke-width="2" data-sq="f2" data-type="p1" class="board-cell"/><rect x="144" y="192" width="24" height="24" fill="#f0d080" stroke="#c08820" stroke-width="2" data-sq="g2" data-type="p1" class="board-cell"/><rect x="168" y="192" width="24" height="24" fill="#f0d080" stroke="#c08820" stroke-width="2" data-sq="h2" data-type="p1" class="board-cell"/><rect x="192" y="192" width="24" height="24" fill="#f0d080" stroke="#c08820" stroke-width="2" data-sq="i2" data-type="p1" class="board-cell"/><rect x="216" y="192" width="24" height="24" fill="#f0d080" stroke="#c08820" stroke-width="2" data-sq="j2" data-type="p1" class="board-cell"/><rect x="0" y="216" width="24" height="24" fill="#f0d080" stroke="#c08820" stroke-width="2" data-sq="a1" data-type="p1" class="board-cell"/><rect x="24" y="216" width="24" height="24" fill="#f0d080" stroke="#c08820" stroke-width="2" data-sq="b1" data-type="p1" class="board-cell"/><rect x="48" y="216" width="24" height="24" fill="#f0d080" stroke="#c08820" stroke-width="2" data-sq="c1" data-type="p1" class="board-cell"/><rect x="72" y="216" width="24" height="24" fill="#f0d080" stroke="#c08820" stroke-width="2" data-sq="d1" data-type="p1" class="board-cell"/><rect x="96" y="216" width="24" height="24" fill="#f0d080" stroke="#c08820" stroke-width="2" data-sq="e1" data-type="p1" class="board-cell"/><rect x="120" y="216" width="24" height="24" fill="#f0d080" stroke="#c08820" stroke-width="2" data-sq="f1" data-type="p1" class="board-cell"/><rect x="144" y="216" width="24" height="24" fill="#f0d080" stroke="#c08820" stroke-width="2" data-sq="g1" data-type="p1" class="board-cell"/><rect x="168" y="216" width="24" height="24" fill="#f0d080" stroke="#c08820" stroke-width="2" data-sq="h1" data-type="p1" class="board-cell"/><rect x="192" y="216" width="24" height="24" fill="#f0d080" stroke="#c08820" stroke-width="2" data-sq="i1" data-type="p1" class="board-cell"/><rect x="216" y="216" width="24" height="24" fill="#f0d080" stroke="#c08820" stroke-width="2" data-sq="j1" data-type="p1" class="board-cell"/>
</svg>