<svg xmlns="http://www.w3.org/2000/svg" viewBox="0 0 278 278" width="278" height="278">
<rect x="24" y="24" width="230" height="230" fill="#dcb35c"/><rect x="39" y="39" width="200" height="200" fill="#d4a843" rx="2"/><g stroke="#3d2b1a" stroke-width="0.8"><line x1="39" y1="39" x2="239" y2="39"/><line x1="39" y1="59" x2="239" y2="59"/><line x1="39" y1="79" x2="239" y2="79"/><line x1="39" y1="99" x2="239" y2="99"/><line x1="39" y1="119" x2="239" y2="119"/><line x1="39" y1="139" x2="239" y2="139"/><line x1="39" y1="159" x2="239" y2="159"/><line x1="39" y1="179" x2="239" y2="179"/><line x1="39" y1="199" x2="239" y2="199"/><line x1="39" y1="219" x2="239" y2="219"/><line x1="39" y1="239" x2="239" y2="239"/><line x1="39" y1="39" x2="39" y2="239"/><line x1="59" y1="39" x2="59" y2="239"/><line x1="79" y1="39" x2="79" y2="239"/><line x1="99" y1="39" x2="99" y2="239"/><line x1="119" y1="39" x2="119" y2="239"/><line x1="139" y1="39" x2="139" y2="239"/><line x1="159" y1="39" x2="159" y2="239"/><line x1="179" y1="39" x2="179" y2="239"/><line x1="199" y1="39" x2="199" y2="239"/><line x1="219" y1="39" x2="219" y2="239"/><line x1="239" y1="39" x2="239" y2="239"/></g><g fill="transparent"><circle cx="39" cy="39" r="9" class="board-cell" data-sq="a11"/><circle cx="59" cy="39" r="9" class="board-cell" data-sq="b11"/><circle cx="79" cy="39" r="9" class="board-cell" data-sq="c11"/><circle cx="99" cy="39" r="9" class="board-cell" data-sq="d11"/><circle cx="119" cy="39" r="9" class="board-cell" data-sq="e11"/><circle cx="139" cy="39" r="9" class="board-cell" data-sq="f11"/><circle cx="159" cy="39" r="9" class="board-cell" data-sq="g11"/><circle cx="179" cy="39" r="9" class="board-cell" data-sq="h11"/><circle cx="199" cy="39" r="9" class="board-cell" data-sq="j11"/><circle cx="219" cy="39" r="9" class="board-cell" data-sq="k11"/><circle cx="239" cy="39" r="9" class="board-cell" data-sq="l11"/><circle cx="39" cy="59" r="9" class="board-cell" data-sq="a10"/><circle cx="59" cy="59" r="9" class="board-cell" data-sq="b10"/><circle cx="79" cy="59" r="9" class="board-cell" data-sq="c10"/><circle cx="99" cy="59" r="9" class="board-cell" data-sq="d10"/><circle cx="119" cy="59" r="9" class="board-cell" data-sq="e10"/><circle cx="139" cy="59" r="9" class="board-cell" data-sq="f10"/><circle cx="159" cy="59" r="9" class="board-cell" data-sq="g10"/><circle cx="179" cy="59" r="9" class="board-cell" data-sq="h10"/><circle cx="199" cy="59" r="9" class="board-cell" data-sq="j10"/><circle cx="219" cy="59" r="9" class="board-cell" data-sq="k10"/><circle cx="239" cy="59" r="9" class="board-cell" data-sq="l10"/><circle cx="39" cy="79" r="9" class="board-cell" data-sq="a9"/><circle cx="59" cy="79" r="9" class="board-cell" data-sq="b9"/><circle cx="79" cy="79" r="9" class="board-cell" data-sq="c9"/><circle cx="99" cy="79" r="9" class="board-cell" data-sq="d9"/><circle cx="119" cy="79" r="9" class="board-cell" data-sq="e9"/><circle cx="139" cy="79" r="9" class="board-cell" data-sq="f9"/><circle cx="159" cy="79" r="9" class="board-cell" data-sq="g9"/><circle cx="179" cy="79" r="9" class="board-cell" data-sq="h9"/><circle cx="199" cy="79" r="9" class="board-cell" data-sq="j9"/><circle cx="219" cy="79" r="9" class="board-cell" data-sq="k9"/><circle cx="239" cy="79" r="9" class="board-cell" data-sq="l9"/><circle cx="39" cy="99" r="9" class="board-cell" data-sq="a8"/><circle cx="59" cy="99" r="9" class="board-cell" data-sq="b8"/><circle cx="79" cy="99" r="9" class="board-cell" data-sq="c8"/><circle cx="99" cy="99" r="9" class="board-cell" data-sq="d8"/><circle cx="119" cy="99" r="9" class="board-cell" data-sq="e8"/><circle cx="139" cy="99" r="9" class="board-cell" data-sq="f8"/><circle cx="159" cy="99" r="9" class="board-cell" data-sq="g8"/><circle cx="179" cy="99" r="9" class="board-cell" data-sq="h8"/><circle cx="199" cy="99" r="9" class="board-cell" data-sq="j8"/><circle cx="219" cy="99" r="9" class="board-cell" data-sq="k8"/><circle cx="239" cy="99" r="9" class="board-cell" data-sq="l8"/><circle cx="39" cy="119" r="9" class="board-cell" data-sq="a7"/><circle cx="59" cy="119" r="9" class="board-cell" data-sq="b7"/><circle cx="79" cy="119" r="9" class="board-cell" data-sq="c7"/><circle cx="99" cy="119" r="9" class="board-cell" data-sq="d7"/><circle cx="119" cy="119" r="9" class="board-cell" data-sq="e7"/><circle cx="139" cy="119" r="9" class="board-cell" data-sq="f7"/><circle cx="159" cy="119" r="9" class="board-cell" data-sq="g7"/><circle cx="179" cy="119" r="9" class="board-cell" data-sq="h7"/><circle cx="199" cy="119" r="9" class="board-cell" data-sq="j7"/><circle cx="219" cy="119" r="9" class="board-cell" data-sq="k7"/><circle cx="239" cy="119" r="9" class="board-cell" data-sq="l7"/><circle cx="39" cy="139" r="9" class="board-cell" data-sq="a6"/><circle cx="59" cy="139" r="9" class="board-cell" data-sq="b6"/><circle cx="79" cy="139" r="9" class="board-cell" data-sq="c6"/><circle cx="99" cy="139" r="9" class="board-cell" data-sq="d6"/><circle cx="119" cy="139" r="9" class="board-cell" data-sq="e6"/><circle cx="139" cy="139" r="9" class="board-cell" data-sq="f6"/><circle cx="159" cy="139" r="9" class="board-cell" data-sq="g6"/><circle cx="179" cy="139" r="9" class="board-cell" data-sq="h6"/><circle cx="199" cy="139" r="9" class="board-cell" data-sq="j6"/><circle cx="219" cy="139" r="9" class="board-cell" data-sq="k6"/><circle cx="239" cy="139" r="9" class="board-cell" data-sq="l6"/><circle cx="39" cy="159" r="9" class="board-cell" data-sq="a5"/><circle cx="59" cy="159" r="9" class="board-cell" data-sq="b5"/><circle cx="79" cy="159" r="9" class="board-cell" data-sq="c5"/><circle cx="99" cy="159" r="9" class="board-cell" data-sq="d5"/><circle cx="119" cy="159" r="9" class="board-cell" data-sq="e5"/><circle cx="139" cy="159" r="9" class="board-cell" data-sq="f5"/><circle cx="159" cy="159" r="9" class="board-cell" data-sq="g5"/><circle cx="179" cy="159" r="9" class="board-cell" data-sq="h5"/><circle cx="199" cy="159" r="9" class="board-cell" data-sq="j5"/><circle cx="219" cy="159" r="9" class="board-cell" data-sq="k5"/><circle cx="239" cy="159" r="9" class="board-cell" data-sq="l5"/><circle cx="39" cy="179" r="9" class="board-cell" data-sq="a4"/><circle cx="59" cy="179" r="9" class="board-cell" data-sq="b4"/><circle cx="79" cy="179" r="9" class="board-cell" data-sq="c4"/><circle cx="99" cy="179" r="9" class="board-cell" data-sq="d4"/><circle cx="119" cy="179" r="9" class="board-cell" data-sq="e4"/><circle cx="139" cy="179" r="9" class="board-cell" data-sq="f4"/><circle cx="159" cy="179" r="9" class="board-cell" data-sq="g4"/><circle cx="179" cy="179" r="9" class="board-cell" data-sq="h4"/><circle cx="199" cy="179" r="9" class="board-cell" data-sq="j4"/><circle cx="219" cy="179" r="9" class="board-cell" data-sq="k4"/><circle cx="239" cy="179" r="9" class="board-cell" data-sq="l4"/><circle cx="39" cy="199" r="9" class="board-cell" data-sq="a3"/><circle cx="59" cy="199" r="9" class="board-cell" data-sq="b3"/><circle cx="79" cy="199" r="9" class="board-cell" data-sq="c3"/><circle cx="99" cy="199" r="9" class="board-cell" data-sq="d3"/><circle cx="119" cy="199" r="9" class="board-cell" data-sq="e3"/><circle cx="139" cy="199" r="9" class="board-cell" data-sq="f3"/><circle cx="159" cy="199" r="9" class="board-cell" data-sq="g3"/><circle cx="179" cy="199" r="9" class="board-cell" data-sq="h3"/><circle cx="199" cy="199" r="9" class="board-cell" data-sq="j3"/><circle cx="219" cy="199" r="9" class="board-cell" data-sq="k3"/><circle cx="239" cy="199" r="9" class="board-cell" data-sq="l3"/><circle cx="39" cy="219" r="9" class="board-cell" data-sq="a2"/><circle cx="59" cy="219" r="9" class="board-cell" data-sq="b2"/><circle cx="79" cy="219" r="9" class="board-cell" data-sq="c2"/><circle cx="99" cy="219" r="9" class="board-cell" data-sq="d2"/><circle cx="119" cy="219" r="9" class="board-cell" data-sq="e2"/><circle cx="139" cy="219" r="9" class="board-cell" data-sq="f2"/><circle cx="159" cy="219" r="9" class="board-cell" data-sq="g2"/><circle cx="179" cy="219" r="9" class="board-cell" data-sq="h2"/><circle cx="199" cy="219" r="9" class="board-cell" data-sq="j2"/><circle cx="219" cy="219" r="9" class="board-cell" data-sq="k2"/><circle cx="239" cy="219" r="9" class="board-cell" data-sq="l2"/><circle cx="39" cy="239" r="9" class="board-cell" data-sq="a1"/><circle cx="59" cy="239" r="9" class="board-cell" data-sq="b1"/><circle cx="79" cy="239" r="9" class="board-cell" data-sq="c1"/><circle cx="99" cy="239" r="9" class="board-cell" data-sq="d1"/><circle cx="119" cy="239" r="9" class="board-cell" data-sq="e1"/><circle cx="139" cy="239" r="9" class="board-cell" data-sq="f1"/><circle cx="159" cy="239" r="9" class="board-cell" data-sq="g1"/><circle cx="179" cy="239" r="9" class="board-cell" data-sq="h1"/><circle cx="199" cy="239" r="9" class="board-cell" data-sq="j1"/><circle cx="219" cy="239" r="9" class="board-cell" data-sq="k1"/><circle cx="239" cy="239" r="9" class="board-cell" data-sq="l1"/></g>
<text x="39" y="269.6" text-anchor="middle" font-size="13" fill="#5a4020" font-family="sans-serif">A</text><text x="59" y="269.6" text-anchor="middle" font-size="13" fill="#5a4020" font-family="sans-serif">B</text><text x="79" y="269.6" text-anchor="middle" font-size="13" fill="#5a4020" font-family="sans-serif">C</text><text x="99" y="269.6" text-anchor="middle" font-size="13" fill="#5a4020" font-family="sans-serif">D</text><text x="119" y="269.6" text-anchor="middle" font-size="13" fill="#5a4020" font-family="sans-serif">E</text><text x="139" y="269.6" text-anchor="middle" font-size="13" fill="#5a4020" font-family="sans-serif">F</text><text x="159" y="269.6" text-anchor="middle" font-size="13" fill="#5a4020" font-family="sans-serif">G</text><text x="179" y="269.6" text-anchor="middle" font-size="13" fill="#5a4020" font-family="sans-serif">H</text><text x="199" y="269.6" text-anchor="middle" font-size="13" fill="#5a4020" font-family="sans-serif">J</text><text x="219" y="269.6" text-anchor="middle" font-size="13" fill="#5a4020" font-family="sans-serif">K</text><text x="239" y="269.6" text-anchor="middle" font-size="13" fill="#5a4020" font-family="sans-serif">L</text><text x="12" y="43.55" text-anchor="middle" font-size="13" fill="#5a4020" font-family="sans-serif">11</text><text x="12" y="63.55" text-anchor="middle" font-size="13" fill="#5a4020" font-family="sans-serif">10</text><text x="12" y="83.55" text-anchor="middle" font-size="13" fill="#5a4020" font-family="sans-serif">9</text><text x="12" y="103.55" text-anchor="middle" font-size="13" fill="#5a4020" font-family="sans-serif">8</text><text x="12" y="123.55" text-anchor="middle" font-size="13" fill="#5a4020" font-family="sans-serif">7</text><text x="12" y="143.55" text-anchor="middle" font-size="13" fill="#5a4020" font-family="sans-serif">6</text><text x="12" y="163.55" text-anchor="middle" font-size="13" fill="#5a4020" font-family="sans-serif">5</text><text x="12" y="183.55" text-anchor="middle" font-size="13" fill="#5a4020" font-family="sans-serif">4</text><text x="12" y="203.55" text-anchor="middle" font-size="13" fill="#5a4020" font-family="sans-serif">3</text><text x="12" y="223.55" text-anchor="middle" font-size="13" fill="#5a4020" font-family="sans-serif">2</text><text x="12" y="243.55" text-anchor="middle" font-size="13" fill="#5a4020" font-family="sans-serif">1</text>
</svg>