<svg xmlns="http://www.w3.org/2000/svg" viewBox="0 0 320 320" width="320" height="320">

<rect x="0" y="0" width="20" height="20" fill="#f5e6c8" data-sq="a16" class="board-cell"/><rect x="20" y="0" width="20" height="20" fill="#e8d4a8" data-sq="b16" class="board-cell"/><rect x="40" y="0" width="20" height="20" fill="#f5e6c8" data-sq="c16" class="board-cell"/><rect x="60" y="0" width="20" height="20" fill="#e8d4a8" data-sq="d16" class="board-cell"/><rect x="80" y="0" width="20" height="20" fill="#f5e6c8" data-sq="e16" class="board-cell"/><rect x="100" y="0" width="20" height="20" fill="#e8d4a8" data-sq="f16" class="board-cell"/><rect x="120" y="0" width="20" height="20" fill="#f5e6c8" data-sq="g16" class="board-cell"/><rect x="140" y="0" width="20" height="20" fill="#e8d4a8" data-sq="h16" class="board-cell"/><rect x="160" y="0" width="20" height="20" fill="#f5e6c8" data-sq="i16" class="board-cell"/><rect x="180" y="0" width="20" height="20" fill="#e8d4a8" data-sq="j16" class="board-cell"/><rect x="200" y="0" width="20" height="20" fill="#f5e6c8" data-sq="k16" class="board-cell"/><rect x="220" y="0" width="20" height="20" fill="#e8d4a8" data-sq="l16" class="board-cell"/><rect x="240" y="0" width="20" height="20" fill="#f5e6c8" data-sq="m16" class="board-cell"/><rect x="260" y="0" width="20" height="20" fill="#e8d4a8" data-sq="n16" class="board-cell"/><rect x="280" y="0" width="20" height="20" fill="#f5e6c8" data-sq="o16" class="board-cell"/><rect x="300" y="0" width="20" height="20" fill="#e8d4a8" data-sq="p16" class="board-cell"/><rect x="0" y="20" width="20" height="20" fill="#e8d4a8" data-sq="a15" class="board-cell"/><rect x="20" y="20" width="20" height="20" fill="#f5e6c8" data-sq="b15" class="board-cell"/><rect x="40" y="20" width="20" height="20" fill="#e8d4a8" data-sq="c15" class="board-cell"/><rect x="60" y="20" width="20" height="20" fill="#f5e6c8" data-sq="d15" class="board-cell"/><rect x="80" y="20" width="20" height="20" fill="#e8d4a8" data-sq="e15" class="board-cell"/><rect x="100" y="20" width="20" height="20" fill="#f5e6c8" data-sq="f15" class="board-cell"/><rect x="120" y="20" width="20" height="20" fill="#e8d4a8" data-sq="g15" class="board-cell"/><rect x="140" y="20" width="20" height="20" fill="#f5e6c8" data-sq="h15" class="board-cell"/><rect x="160" y="20" width="20" height="20" fill="#e8d4a8" data-sq="i15" class="board-cell"/><rect x="180" y="20" width="20" height="20" fill="#f5e6c8" data-sq="j15" class="board-cell"/><rect x="200" y="20" width="20" height="20" fill="#e8d4a8" data-sq="k15" class="board-cell"/><rect x="220" y="20" width="20" height="20" fill="#f5e6c8" data-sq="l15" class="board-cell"/><rect x="240" y="20" width="20" height="20" fill="#e8d4a8" data-sq="m15" class="board-cell"/><rect x="260" y="20" width="20" height="20" fill="#f5e6c8" data-sq="n15" class="board-cell"/><rect x="280" y="20" width="20" height="20" fill="#e8d4a8" data-sq="o15" class="board-cell"/><rect x="300" y="20" width="20" height="20" fill="#f5e6c8" data-sq="p15" class="board-cell"/><rect x="0" y="40" width="20" height="20" fill="#f5e6c8" data-sq="a14" class="board-cell"/><rect x="20" y="40" width="20" height="20" fill="#e8d4a8" data-sq="b14" class="board-cell"/><rect x="40" y="40" width="20" height="20" fill="#f5e6c8" data-sq="c14" class="board-cell"/><rect x="60" y="40" width="20" height="20" fill="#e8d4a8" data-sq="d14" class="board-cell"/><rect x="80" y="40" width="20" height="20" fill="#f5e6c8" data-sq="e14" class="board-cell"/><rect x="100" y="40" width="20" height="20" fill="#e8d4a8" data-sq="f14" class="board-cell"/><rect x="120" y="40" width="20" height="20" fill="#f5e6c8" data-sq="g14" class="board-cell"/><rect x="140" y="40" width="20" height="20" fill="#e8d4a8" data-sq="h14" class="board-cell"/><rect x="160" y="40" width="20" height="20" fill="#f5e6c8" data-sq="i14" class="board-cell"/><rect x="180" y="40" width="20" height="20" fill="#e8d4a8" data-sq="j14" class="board-cell"/><rect x="200" y="40" width="20" height="20" fill="#f5e6c8" data-sq="k14" class="board-cell"/><rect x="220" y="40" width="20" height="20" fill="#e8d4a8" data-sq="l14" class="board-cell"/><rect x="240" y="40" width="20" height="20" fill="#f5e6c8" data-sq="m14" class="board-cell"/><rect x="260" y="40" width="20" height="20" fill="#e8d4a8" data-sq="n14" class="board-cell"/><rect x="280" y="40" width="20" height="20" fill="#f5e6c8" data-sq="o14" class="board-cell"/><rect x="300" y="40" width="20" height="20" fill="#e8d4a8" data-sq="p14" class="board-cell"/><rect x="0" y="60" width="20" height="20" fill="#e8d4a8" data-sq="a13" class="board-cell"/><rect x="20" y="60" width="20" height="20" fill="#f5e6c8" data-sq="b13" class="board-cell"/><rect x="40" y="60" width="20" height="20" fill="#e8d4a8" data-sq="c13" class="board-cell"/><rect x="60" y="60" width="20" height="20" fill="#f5e6c8" data-sq="d13" class="board-cell"/><rect x="80" y="60" width="20" height="20" fill="#e8d4a8" data-sq="e13" class="board-cell"/><rect x="100" y="60" width="20" height="20" fill="#f5e6c8" data-sq="f13" class="board-cell"/><rect x="120" y="60" width="20" height="20" fill="#e8d4a8" data-sq="g13" class="board-cell"/><rect x="140" y="60" width="20" height="20" fill="#f5e6c8" data-sq="h13" class="board-cell"/><rect x="160" y="60" width="20" height="20" fill="#e8d4a8" data-sq="i13" class="board-cell"/><rect x="180" y="60" width="20" height="20" fill="#f5e6c8" data-sq="j13" class="board-cell"/><rect x="200" y="60" width="20" height="20" fill="#e8d4a8" data-sq="k13" class="board-cell"/><rect x="220" y="60" width="20" height="20" fill="#f5e6c8" data-sq="l13" class="board-cell"/><rect x="240" y="60" width="20" height="20" fill="#e8d4a8" data-sq="m13" class="board-cell"/><rect x="260" y="60" width="20" height="20" fill="#f5e6c8" data-sq="n13" class="board-cell"/><rect x="280" y="60" width="20" height="20" fill="#e8d4a8" data-sq="o13" class="board-cell"/><rect x="300" y="60" width="20" height="20" fill="#f5e6c8" data-sq="p13" class="board-cell"/><rect x="0" y="80" width="20" height="20" fill="#f5e6c8" data-sq="a12" class="board-cell"/><rect x="20" y="80" width="20" height="20" fill="#e8d4a8" data-sq="b12" class="board-cell"/><rect x="40" y="80" width="20" height="20" fill="#f5e6c8" data-sq="c12" class="board-cell"/><rect x="60" y="80" width="20" height="20" fill="#e8d4a8" data-sq="d12" class="board-cell"/><rect x="80" y="80" width="20" height="20" fill="#f5e6c8" data-sq="e12" class="board-cell"/><rect x="100" y="80" width="20" height="20" fill="#e8d4a8" data-sq="f12" class="board-cell"/><rect x="120" y="80" width="20" height="20" fill="#f5e6c8" data-sq="g12" class="board-cell"/><rect x="140" y="80" width="20" height="20" fill="#e8d4a8" data-sq="h12" class="board-cell"/><rect x="160" y="80" width="20" height="20" fill="#f5e6c8" data-sq="i12" class="board-cell"/><rect x="180" y="80" width="20" height="20" fill="#e8d4a8" data-sq="j12" class="board-cell"/><rect x="200" y="80" width="20" height="20" fill="#f5e6c8" data-sq="k12" class="board-cell"/><rect x="220" y="80" width="20" height="20" fill="#e8d4a8" data-sq="l12" class="board-cell"/><rect x="240" y="80" width="20" height="20" fill="#f5e6c8" data-sq="m12" class="board-cell"/><rect x="260" y="80" width="20" height="20" fill="#e8d4a8" data-sq="n12" class="board-cell"/><rect x="280" y="80" width="20" height="20" fill="#f5e6c8" data-sq="o12" class="board-cell"/><rect x="300" y="80" width="20" height="20" fill="#e8d4a8" data-sq="p12" class="board-cell"/><rect x="0" y="100" width="20" height="20" fill="#e8d4a8" data-sq="a11" class="board-cell"/><rect x="20" y="100" width="20" height="20" fill="#f5e6c8" data-sq="b11" class="board-cell"/><rect x="40" y="100" width="20" height="20" fill="#e8d4a8" data-sq="c11" class="board-cell"/><rect x="60" y="100" width="20" height="20" fill="#f5e6c8" data-sq="d11" class="board-cell"/><rect x="80" y="100" width="20" height="20" fill="#e8d4a8" data-sq="e11" class="board-cell"/><rect x="100" y="100" width="20" height="20" fill="#f5e6c8" data-sq="f11" class="board-cell"/><rect x="120" y="100" width="20" height="20" fill="#e8d4a8" data-sq="g11" class="board-cell"/><rect x="140" y="100" width="20" height="20" fill="#f5e6c8" data-sq="h11" class="board-cell"/><rect x="160" y="100" width="20" height="20" fill="#e8d4a8" data-sq="i11" class="board-cell"/><rect x="180" y="100" width="20" height="20" fill="#f5e6c8" data-sq="j11" class="board-cell"/><rect x="200" y="100" width="20" height="20" fill="#e8d4a8" data-sq="k11" class="board-cell"/><rect x="220" y="100" width="20" height="20" fill="#f5e6c8" data-sq="l11" class="board-cell"/><rect x="240" y="100" width="20" height="20" fill="#e8d4a8" data-sq="m11" class="board-cell"/><rect x="260" y="100" width="20" height="20" fill="#f5e6c8" data-sq="n11" class="board-cell"/><rect x="280" y="100" width="20" height="20" fill="#e8d4a8" data-sq="o11" class="board-cell"/><rect x="300" y="100" width="20" height="20" fill="#f5e6c8" data-sq="p11" class="board-cell"/><rect x="0" y="120" width="20" height="20" fill="#f5e6c8" data-sq="a10" class="board-cell"/><rect x="20" y="120" width="20" height="20" fill="#e8d4a8" data-sq="b10" class="board-cell"/><rect x="40" y="120" width="20" height="20" fill="#f5e6c8" data-sq="c10" class="board-cell"/><rect x="60" y="120" width="20" height="20" fill="#e8d4a8" data-sq="d10" class="board-cell"/><rect x="80" y="120" width="20" height="20" fill="#f5e6c8" data-sq="e10" class="board-cell"/><rect x="100" y="120" width="20" height="20" fill="#e8d4a8" data-sq="f10" class="board-cell"/><rect x="120" y="120" width="20" height="20" fill="#f5e6c8" data-sq="g10" class="board-cell"/><rect x="140" y="120" width="20" height="20" fill="#e8d4a8" data-sq="h10" class="board-cell"/><rect x="160" y="120" width="20" height="20" fill="#f5e6c8" data-sq="i10" class="board-cell"/><rect x="180" y="120" width="20" height="20" fill="#e8d4a8" data-sq="j10" class="board-cell"/><rect x="200" y="120" width="20" height="20" fill="#f5e6c8" data-sq="k10" class="board-cell"/><rect x="220" y="120" width="20" height="20" fill="#e8d4a8" data-sq="l10" class="board-cell"/><rect x="240" y="120" width="20" height="20" fill="#f5e6c8" data-sq="m10" class="board-cell"/><rect x="260" y="120" width="20" height="20" fill="#e8d4a8" data-sq="n10" class="board-cell"/><rect x="280" y="120" width="20" height="20" fill="#f5e6c8" data-sq="o10" class="board-cell"/><rect x="300" y="120" width="20" height="20" fill="#e8d4a8" data-sq="p10" class="board-cell"/><rect x="0" y="140" width="20" height="20" fill="#e8d4a8" data-sq="a9" class="board-cell"/><rect x="20" y="140" width="20" height="20" fill="#f5e6c8" data-sq="b9" class="board-cell"/><rect x="40" y="140" width="20" height="20" fill="#e8d4a8" data-sq="c9" class="board-cell"/><rect x="60" y="140" width="20" height="20" fill="#f5e6c8" data-sq="d9" class="board-cell"/><rect x="80" y="140" width="20" height="20" fill="#e8d4a8" data-sq="e9" class="board-cell"/><rect x="100" y="140" width="20" height="20" fill="#f5e6c8" data-sq="f9" class="board-cell"/><rect x="120" y="140" width="20" height="20" fill="#e8d4a8" data-sq="g9" class="board-cell"/><rect x="140" y="140" width="20" height="20" fill="#f5e6c8" data-sq="h9" class="board-cell"/><rect x="160" y="140" width="20" height="20" fill="#e8d4a8" data-sq="i9" class="board-cell"/><rect x="180" y="140" width="20" height="20" fill="#f5e6c8" data-sq="j9" class="board-cell"/><rect x="200" y="140" width="20" height="20" fill="#e8d4a8" data-sq="k9" class="board-cell"/><rect x="220" y="140" width="20" height="20" fill="#f5e6c8" data-sq="l9" class="board-cell"/><rect x="240" y="140" width="20" height="20" fill="#e8d4a8" data-sq="m9" class="board-cell"/><rect x="260" y="140" width="20" height="20" fill="#f5e6c8" data-sq="n9" class="board-cell"/><rect x="280" y="140" width="20" height="20" fill="#e8d4a8" data-sq="o9" class="board-cell"/><rect x="300" y="140" width="20" height="20" fill="#f5e6c8" data-sq="p9" class="board-cell"/><rect x="0" y="160" width="20" height="20" fill="#f5e6c8" data-sq="a8" class="board-cell"/><rect x="20" y="160" width="20" height="20" fill="#e8d4a8" data-sq="b8" class="board-cell"/><rect x="40" y="160" width="20" height="20" fill="#f5e6c8" data-sq="c8" class="board-cell"/><rect x="60" y="160" width="20" height="20" fill="#e8d4a8" data-sq="d8" class="board-cell"/><rect x="80" y="160" width="20" height="20" fill="#f5e6c8" data-sq="e8" class="board-cell"/><rect x="100" y="160" width="20" height="20" fill="#e8d4a8" data-sq="f8" class="board-cell"/><rect x="120" y="160" width="20" height="20" fill="#f5e6c8" data-sq="g8" class="board-cell"/><rect x="140" y="160" width="20" height="20" fill="#e8d4a8" data-sq="h8" class="board-cell"/><rect x="160" y="160" width="20" height="20" fill="#f5e6c8" data-sq="i8" class="board-cell"/><rect x="180" y="160" width="20" height="20" fill="#e8d4a8" data-sq="j8" class="board-cell"/><rect x="200" y="160" width="20" height="20" fill="#f5e6c8" data-sq="k8" class="board-cell"/><rect x="220" y="160" width="20" height="20" fill="#e8d4a8" data-sq="l8" class="board-cell"/><rect x="240" y="160" width="20" height="20" fill="#f5e6c8" data-sq="m8" class="board-cell"/><rect x="260" y="160" width="20" height="20" fill="#e8d4a8" data-sq="n8" class="board-cell"/><rect x="280" y="160" width="20" height="20" fill="#f5e6c8" data-sq="o8" class="board-cell"/><rect x="300" y="160" width="20" height="20" fill="#e8d4a8" data-sq="p8" class="board-cell"/><rect x="0" y="180" width="20" height="20" fill="#e8d4a8" data-sq="a7" class="board-cell"/><rect x="20" y="180" width="20" height="20" fill="#f5e6c8" data-sq="b7" class="board-cell"/><rect x="40" y="180" width="20" height="20" fill="#e8d4a8" data-sq="c7" class="board-cell"/><rect x="60" y="180" width="20" height="20" fill="#f5e6c8" data-sq="d7" class="board-cell"/><rect x="80" y="180" width="20" height="20" fill="#e8d4a8" data-sq="e7" class="board-cell"/><rect x="100" y="180" width="20" height="20" fill="#f5e6c8" data-sq="f7" class="board-cell"/><rect x="120" y="180" width="20" height="20" fill="#e8d4a8" data-sq="g7" class="board-cell"/><rect x="140" y="180" width="20" height="20" fill="#f5e6c8" data-sq="h7" class="board-cell"/><rect x="160" y="180" width="20" height="20" fill="#e8d4a8" data-sq="i7" class="board-cell"/><rect x="180" y="180" width="20" height="20" fill="#f5e6c8" data-sq="j7" class="board-cell"/><rect x="200" y="180" width="20" height="20" fill="#e8d4a8" data-sq="k7" class="board-cell"/><rect x="220" y="180" width="20" height="20" fill="#f5e6c8" data-sq="l7" class="board-cell"/><rect x="240" y="180" width="20" height="20" fill="#e8d4a8" data-sq="m7" class="board-cell"/><rect x="260" y="180" width="20" height="20" fill="#f5e6c8" data-sq="n7" class="board-cell"/><rect x="280" y="180" width="20" height="20" fill="#e8d4a8" data-sq="o7" class="board-cell"/><rect x="300" y="180" width="20" height="20" fill="#f5e6c8" data-sq="p7" class="board-cell"/><rect x="0" y="200" width="20" height="20" fill="#f5e6c8" data-sq="a6" class="board-cell"/><rect x="20" y="200" width="20" height="20" fill="#e8d4a8" data-sq="b6" class="board-cell"/><rect x="40" y="200" width="20" height="20" fill="#f5e6c8" data-sq="c6" class="board-cell"/><rect x="60" y="200" width="20" height="20" fill="#e8d4a8" data-sq="d6" class="board-cell"/><rect x="80" y="200" width="20" height="20" fill="#f5e6c8" data-sq="e6" class="board-cell"/><rect x="100" y="200" width="20" height="20" fill="#e8d4a8" data-sq="f6" class="board-cell"/><rect x="120" y="200" width="20" height="20" fill="#f5e6c8" data-sq="g6" class="board-cell"/><rect x="140" y="200" width="20" height="20" fill="#e8d4a8" data-sq="h6" class="board-cell"/><rect x="160" y="200" width="20" height="20" fill="#f5e6c8" data-sq="i6" class="board-cell"/><rect x="180" y="200" width="20" height="20" fill="#e8d4a8" data-sq="j6" class="board-cell"/><rect x="200" y="200" width="20" height="20" fill="#f5e6c8" data-sq="k6" class="board-cell"/><rect x="220" y="200" width="20" height="20" fill="#e8d4a8" data-sq="l6" class="board-cell"/><rect x="240" y="200" width="20" height="20" fill="#f5e6c8" data-sq="m6" class="board-cell"/><rect x="260" y="200" width="20" height="20" fill="#e8d4a8" data-sq="n6" class="board-cell"/><rect x="280" y="200" width="20" height="20" fill="#f5e6c8" data-sq="o6" class="board-cell"/><rect x="300" y="200" width="20" height="20" fill="#e8d4a8" data-sq="p6" class="board-cell"/><rect x="0" y="220" width="20" height="20" fill="#e8d4a8" data-sq="a5" class="board-cell"/><rect x="20" y="220" width="20" height="20" fill="#f5e6c8" data-sq="b5" class="board-cell"/><rect x="40" y="220" width="20" height="20" fill="#e8d4a8" data-sq="c5" class="board-cell"/><rect x="60" y="220" width="20" height="20" fill="#f5e6c8" data-sq="d5" class="board-cell"/><rect x="80" y="220" width="20" height="20" fill="#e8d4a8" data-sq="e5" class="board-cell"/><rect x="100" y="220" width="20" height="20" fill="#f5e6c8" data-sq="f5" class="board-cell"/><rect x="120" y="220" width="20" height="20" fill="#e8d4a8" data-sq="g5" class="board-cell"/><rect x="140" y="220" width="20" height="20" fill="#f5e6c8" data-sq="h5" class="board-cell"/><rect x="160" y="220" width="20" height="20" fill="#e8d4a8" data-sq="i5" class="board-cell"/><rect x="180" y="220" width="20" height="20" fill="#f5e6c8" data-sq="j5" class="board-cell"/><rect x="200" y="220" width="20" height="20" fill="#e8d4a8" data-sq="k5" class="board-cell"/><rect x="220" y="220" width="20" height="20" fill="#f5e6c8" data-sq="l5" class="board-cell"/><rect x="240" y="220" width="20" height="20" fill="#e8d4a8" data-sq="m5" class="board-cell"/><rect x="260" y="220" width="20" height="20" fill="#f5e6c8" data-sq="n5" class="board-cell"/><rect x="280" y="220" width="20" height="20" fill="#e8d4a8" data-sq="o5" class="board-cell"/><rect x="300" y="220" width="20" height="20" fill="#f5e6c8" data-sq="p5" class="board-cell"/><rect x="0" y="240" width="20" height="20" fill="#f5e6c8" data-sq="a4" class="board-cell"/><rect x="20" y="240" width="20" height="20" fill="#e8d4a8" data-sq="b4" class="board-cell"/><rect x="40" y="240" width="20" height="20" fill="#f5e6c8" data-sq="c4" class="board-cell"/><rect x="60" y="240" width="20" height="20" fill="#e8d4a8" data-sq="d4" class="board-cell"/><rect x="80" y="240" width="20" height="20" fill="#f5e6c8" data-sq="e4" class="board-cell"/><rect x="100" y="240" width="20" height="20" fill="#e8d4a8" data-sq="f4" class="board-cell"/><rect x="120" y="240" width="20" height="20" fill="#f5e6c8" data-sq="g4" class="board-cell"/><rect x="140" y="240" width="20" height="20" fill="#e8d4a8" data-sq="h4" class="board-cell"/><rect x="160" y="240" width="20" height="20" fill="#f5e6c8" data-sq="i4" class="board-cell"/><rect x="180" y="240" width="20" height="20" fill="#e8d4a8" data-sq="j4" class="board-cell"/><rect x="200" y="240" width="20" height="20" fill="#f5e6c8" data-sq="k4" class="board-cell"/><rect x="220" y="240" width="20" height="20" fill="#e8d4a8" data-sq="l4" class="board-cell"/><rect x="240" y="240" width="20" height="20" fill="#f5e6c8" data-sq="m4" class="board-cell"/><rect x="260" y="240" width="20" height="20" fill="#e8d4a8" data-sq="n4" class="board-cell"/><rect x="280" y="240" width="20" height="20" fill="#f5e6c8" data-sq="o4" class="board-cell"/><rect x="300" y="240" width="20" height="20" fill="#e8d4a8" data-sq="p4" class="board-cell"/><rect x="0" y="260" width="20" height="20" fill="#e8d4a8" data-sq="a3" class="board-cell"/><rect x="20" y="260" width="20" height="20" fill="#f5e6c8" data-sq="b3" class="board-cell"/><rect x="40" y="260" width="20" height="20" fill="#e8d4a8" data-sq="c3" class="board-cell"/><rect x="60" y="260" width="20" height="20" fill="#f5e6c8" data-sq="d3" class="board-cell"/><rect x="80" y="260" width="20" height="20" fill="#e8d4a8" data-sq="e3" class="board-cell"/><rect x="100" y="260" width="20" height="20" fill="#f5e6c8" data-sq="f3" class="board-cell"/><rect x="120" y="260" width="20" height="20" fill="#e8d4a8" data-sq="g3" class="board-cell"/><rect x="140" y="260" width="20" height="20" fill="#f5e6c8" data-sq="h3" class="board-cell"/><rect x="160" y="260" width="20" height="20" fill="#e8d4a8" data-sq="i3" class="board-cell"/><rect x="180" y="260" width="20" height="20" fill="#f5e6c8" data-sq="j3" class="board-cell"/><rect x="200" y="260" width="20" height="20" fill="#e8d4a8" data-sq="k3" class="board-cell"/><rect x="220" y="260" width="20" height="20" fill="#f5e6c8" data-sq="l3" class="board-cell"/><rect x="240" y="260" width="20" height="20" fill="#e8d4a8" data-sq="m3" class="board-cell"/><rect x="260" y="260" width="20" height="20" fill="#f5e6c8" data-sq="n3" class="board-cell"/><rect x="280" y="260" width="20" height="20" fill="#e8d4a8" data-sq="o3" class="board-cell"/><rect x="300" y="260" width="20" height="20" fill="#f5e6c8" data-sq="p3" class="board-cell"/><rect x="0" y="280" width="20" height="20" fill="#f5e6c8" data-sq="a2" class="board-cell"/><rect x="20" y="280" width="20" height="20" fill="#e8d4a8" data-sq="b2" class="board-cell"/><rect x="40" y="280" width="20" height="20" fill="#f5e6c8" data-sq="c2" class="board-cell"/><rect x="60" y="280" width="20" height="20" fill="#e8d4a8" data-sq="d2" class="board-cell"/><rect x="80" y="280" width="20" height="20" fill="#f5e6c8" data-sq="e2" class="board-cell"/><rect x="100" y="280" width="20" height="20" fill="#e8d4a8" data-sq="f2" class="board-cell"/><rect x="120" y="280" width="20" height="20" fill="#f5e6c8" data-sq="g2" class="board-cell"/><rect x="140" y="280" width="20" height="20" fill="#e8d4a8" data-sq="h2" class="board-cell"/><rect x="160" y="280" width="20" height="20" fill="#f5e6c8" data-sq="i2" class="board-cell"/><rect x="180" y="280" width="20" height="20" fill="#e8d4a8" data-sq="j2" class="board-cell"/><rect x="200" y="280" width="20" height="20" fill="#f5e6c8" data-sq="k2" class="board-cell"/><rect x="220" y="280" width="20" height="20" fill="#e8d4a8" data-sq="l2" class="board-cell"/><rect x="240" y="280" width="20" height="20" fill="#f5e6c8" data-sq="m2" class="board-cell"/><rect x="260" y="280" width="20" height="20" fill="#e8d4a8" data-sq="n2" class="board-cell"/><rect x="280" y="280" width="20" height="20" fill="#f5e6c8" data-sq="o2" class="board-cell"/><rect x="300" y="280" width="20" height="20" fill="#e8d4a8" data-sq="p2" class="board-cell"/><rect x="0" y="300" width="20" height="20" fill="#e8d4a8" data-sq="a1" class="board-cell"/><rect x="20" y="300" width="20" height="20" fill="#f5e6c8" data-sq="b1" class="board-cell"/><rect x="40" y="300" width="20" height="20" fill="#e8d4a8" data-sq="c1" class="board-cell"/><rect x="60" y="300" width="20" height="20" fill="#f5e6c8" data-sq="d1" class="board-cell"/><rect x="80" y="300" width="20" height="20" fill="#e8d4a8" data-sq="e1" class="board-cell"/><rect x="100" y="300" width="20" height="20" fill="#f5e6c8" data-sq="f1" class="board-cell"/><rect x="120" y="300" width="20" height="20" fill="#e8d4a8" data-sq="g1" class="board-cell"/><rect x="140" y="300" width="20" height="20" fill="#f5e6c8" data-sq="h1" class="board-cell"/><rect x="160" y="300" width="20" height="20" fill="#e8d4a8" data-sq="i1" class="board-cell"/><rect x="180" y="300" width="20" height="20" fill="#f5e6c8" data-sq="j1" class="board-cell"/><rect x="200" y="300" width="20" height="20" fill="#e8d4a8" data-sq="k1" class="board-cell"/><rect x="220" y="300" width="20" height="20" fill="#f5e6c8" data-sq="l1" class="board-cell"/><rect x="240" y="300" width="20" height="20" fill="#e8d4a8" data-sq="m1" class="board-cell"/><rect x="260" y="300" width="20" height="20" fill="#f5e6c8" data-sq="n1" class="board-cell"/><rect x="280" y="300" width="20" height="20" fill="#e8d4a8" data-sq="o1" class="board-cell"/><rect x="300" y="300" width="20" height="20" fill="#f5e6c8" data-sq="p1" class="board-cell"/>
<g pointer-events="none"><image href="../pieces/sets/playstrategy-draughts-plain/bM.svg" x="0" y="0" width="20" height="20" pointer-events="none"/><image href="../pieces/sets/playstrategy-draughts-plain/bM.svg" x="20" y="0" width="20" height="20" pointer-events="none"/><image href="../pieces/sets/playstrategy-draughts-plain/bM.svg" x="40" y="0" width="20" height="20" pointer-events="none"/><image href="../pieces/sets/playstrategy-draughts-plain/bM.svg" x="60" y="0" width="20" height="20" pointer-events="none"/><image href="../pieces/sets/playstrategy-draughts-plain/bM.svg" x="80" y="0" width="20" height="20" pointer-events="none"/><image href="../pieces/sets/playstrategy-draughts-plain/bM.svg" x="0" y="20" width="20" height="20" pointer-events="none"/><image href="../pieces/sets/playstrategy-draughts-plain/bM.svg" x="20" y="20" width="20" height="20" pointer-events="none"/><image href="../pieces/sets/playstrategy-draughts-plain/bM.svg" x="40" y="20" width="20" height="20" pointer-events="none"/><image href="../pieces/sets/playstrategy-draughts-plain/bM.svg" x="60" y="20" width="20" height="20" pointer-events="none"/><image href="../pieces/sets/playstrategy-draughts-plain/bM.svg" x="80" y="20" width="20" height="20" pointer-events="none"/><image href="../pieces/sets/playstrategy-draughts-plain/bM.svg" x="0" y="40" width="20" height="20" pointer-events="none"/><image href="../pieces/sets/playstrategy-draughts-plain/bM.svg" x="20" y="40" width="20" height="20" pointer-events="none"/><image href="../pieces/sets/playstrategy-draughts-plain/bM.svg" x="40" y="40" width="20" height="20" pointer-events="none"/><image href="../pieces/sets/playstrategy-draughts-plain/bM.svg" x="60" y="40" width="20" height="20" pointer-events="none"/><image href="../pieces/sets/playstrategy-draughts-plain/bM.svg" x="80" y="40" width="20" height="20" pointer-events="none"/><image href="../pieces/sets/playstrategy-draughts-plain/bM.svg" x="0" y="60" width="20" height="20" pointer-events="none"/><image href="../pieces/sets/playstrategy-draughts-plain/bM.svg" x="20" y="60" width="20" height="20" pointer-events="none"/><image href="../pieces/sets/playstrategy-draughts-plain/bM.svg" x="40" y="60" width="20" height="20" pointer-events="none"/><image href="../pieces/sets/playstrategy-draughts-plain/bM.svg" x="0" y="80" width="20" height="20" pointer-events="none"/><image href="../pieces/sets/playstrategy-draughts-plain/wM.svg" x="300" y="220" width="20" height="20" pointer-events="none"/><image href="../pieces/sets/playstrategy-draughts-plain/wM.svg" x="260" y="240" width="20" height="20" pointer-events="none"/><image href="../pieces/sets/playstrategy-draughts-plain/wM.svg" x="280" y="240" width="20" height="20" pointer-events="none"/><image href="../pieces/sets/playstrategy-draughts-plain/wM.svg" x="300" y="240" width="20" height="20" pointer-events="none"/><image href="../pieces/sets/playstrategy-draughts-plain/wM.svg" x="220" y="260" width="20" height="20" pointer-events="none"/><image href="../pieces/sets/playstrategy-draughts-plain/wM.svg" x="240" y="260" width="20" height="20" pointer-events="none"/><image href="../pieces/sets/playstrategy-draughts-plain/wM.svg" x="260" y="260" width="20" height="20" pointer-events="none"/><image href="../pieces/sets/playstrategy-draughts-plain/wM.svg" x="280" y="260" width="20" height="20" pointer-events="none"/><image href="../pieces/sets/playstrategy-draughts-plain/wM.svg" x="300" y="260" width="20" height="20" pointer-events="none"/><image href="../pieces/sets/playstrategy-draughts-plain/wM.svg" x="220" y="280" width="20" height="20" pointer-events="none"/><image href="../pieces/sets/playstrategy-draughts-plain/wM.svg" x="240" y="280" width="20" height="20" pointer-events="none"/><image href="../pieces/sets/playstrategy-draughts-plain/wM.svg" x="260" y="280" width="20" height="20" pointer-events="none"/><image href="../pieces/sets/playstrategy-draughts-plain/wM.svg" x="280" y="280" width="20" height="20" pointer-events="none"/><image href="../pieces/sets/playstrategy-draughts-plain/wM.svg" x="300" y="280" width="20" height="20" pointer-events="none"/><image href="../pieces/sets/playstrategy-draughts-plain/wM.svg" x="220" y="300" width="20" height="20" pointer-events="none"/><image href="../pieces/sets/playstrategy-draughts-plain/wM.svg" x="240" y="300" width="20" height="20" pointer-events="none"/><image href="../pieces/sets/playstrategy-draughts-plain/wM.svg" x="260" y="300" width="20" height="20" pointer-events="none"/><image href="../pieces/sets/playstrategy-draughts-plain/wM.svg" x="280" y="300" width="20" height="20" pointer-events="none"/><image href="../pieces/sets/playstrategy-draughts-plain/wM.svg" x="300" y="300" width="20" height="20" pointer-events="none"/></g>
</svg>