<svg xmlns="http://www.w3.org/2000/svg" viewBox="0 0 585.2306325798367 374.4" width="585.2306325798367" height="374.4">
<g fill="#6b4226"><polygon points="65.65,30.24 65.65,56.16 43.20,69.12 20.75,56.16 20.75,30.24 43.20,17.28"/><polygon points="107.22,30.24 107.22,56.16 84.77,69.12 62.32,56.16 62.32,30.24 84.77,17.28"/><polygon points="148.79,30.24 148.79,56.16 126.34,69.12 103.89,56.16 103.89,30.24 126.34,17.28"/><polygon points="190.36,30.24 190.36,56.16 167.91,69.12 145.46,56.16 145.46,30.24 167.91,17.28"/><polygon points="231.92,30.24 231.92,56.16 209.48,69.12 187.03,56.16 187.03,30.24 209.48,17.28"/><polygon points="273.49,30.24 273.49,56.16 251.05,69.12 228.60,56.16 228.60,30.24 251.05,17.28"/><polygon points="315.06,30.24 315.06,56.16 292.62,69.12 270.17,56.16 270.17,30.24 292.62,17.28"/><polygon points="356.63,30.24 356.63,56.16 334.18,69.12 311.74,56.16 311.74,30.24 334.18,17.28"/><polygon points="398.20,30.24 398.20,56.16 375.75,69.12 353.31,56.16 353.31,30.24 375.75,17.28"/><polygon points="86.43,66.24 86.43,92.16 63.98,105.12 41.54,92.16 41.54,66.24 63.98,53.28"/><polygon points="128.00,66.24 128.00,92.16 105.55,105.12 83.11,92.16 83.11,66.24 105.55,53.28"/><polygon points="169.57,66.24 169.57,92.16 147.12,105.12 124.68,92.16 124.68,66.24 147.12,53.28"/><polygon points="211.14,66.24 211.14,92.16 188.69,105.12 166.24,92.16 166.24,66.24 188.69,53.28"/><polygon points="252.71,66.24 252.71,92.16 230.26,105.12 207.81,92.16 207.81,66.24 230.26,53.28"/><polygon points="294.28,66.24 294.28,92.16 271.83,105.12 249.38,92.16 249.38,66.24 271.83,53.28"/><polygon points="335.85,66.24 335.85,92.16 313.40,105.12 290.95,92.16 290.95,66.24 313.40,53.28"/><polygon points="377.42,66.24 377.42,92.16 354.97,105.12 332.52,92.16 332.52,66.24 354.97,53.28"/><polygon points="418.99,66.24 418.99,92.16 396.54,105.12 374.09,92.16 374.09,66.24 396.54,53.28"/><polygon points="107.22,102.24 107.22,128.16 84.77,141.12 62.32,128.16 62.32,102.24 84.77,89.28"/><polygon points="148.79,102.24 148.79,128.16 126.34,141.12 103.89,128.16 103.89,102.24 126.34,89.28"/><polygon points="190.36,102.24 190.36,128.16 167.91,141.12 145.46,128.16 145.46,102.24 167.91,89.28"/><polygon points="231.92,102.24 231.92,128.16 209.48,141.12 187.03,128.16 187.03,102.24 209.48,89.28"/><polygon points="273.49,102.24 273.49,128.16 251.05,141.12 228.60,128.16 228.60,102.24 251.05,89.28"/><polygon points="315.06,102.24 315.06,128.16 292.62,141.12 270.17,128.16 270.17,102.24 292.62,89.28"/><polygon points="356.63,102.24 356.63,128.16 334.18,141.12 311.74,128.16 311.74,102.24 334.18,89.28"/><polygon points="398.20,102.24 398.20,128.16 375.75,141.12 353.31,128.16 353.31,102.24 375.75,89.28"/><polygon points="439.77,102.24 439.77,128.16 417.32,141.12 394.88,128.16 394.88,102.24 417.32,89.28"/><polygon points="128.00,138.24 128.00,164.16 105.55,177.12 83.11,164.16 83.11,138.24 105.55,125.28"/><polygon points="169.57,138.24 169.57,164.16 147.12,177.12 124.68,164.16 124.68,138.24 147.12,125.28"/><polygon points="211.14,138.24 211.14,164.16 188.69,177.12 166.24,164.16 166.24,138.24 188.69,125.28"/><polygon points="252.71,138.24 252.71,164.16 230.26,177.12 207.81,164.16 207.81,138.24 230.26,125.28"/><polygon points="294.28,138.24 294.28,164.16 271.83,177.12 249.38,164.16 249.38,138.24 271.83,125.28"/><polygon points="335.85,138.24 335.85,164.16 313.40,177.12 290.95,164.16 290.95,138.24 313.40,125.28"/><polygon points="377.42,138.24 377.42,164.16 354.97,177.12 332.52,164.16 332.52,138.24 354.97,125.28"/><polygon points="418.99,138.24 418.99,164.16 396.54,177.12 374.09,164.16 374.09,138.24 396.54,125.28"/><polygon points="460.55,138.24 460.55,164.16 438.11,177.12 415.66,164.16 415.66,138.24 438.11,125.28"/><polygon points="148.79,174.24 148.79,200.16 126.34,213.12 103.89,200.16 103.89,174.24 126.34,161.28"/><polygon points="190.36,174.24 190.36,200.16 167.91,213.12 145.46,200.16 145.46,174.24 167.91,161.28"/><polygon points="231.92,174.24 231.92,200.16 209.48,213.12 187.03,200.16 187.03,174.24 209.48,161.28"/><polygon points="273.49,174.24 273.49,200.16 251.05,213.12 228.60,200.16 228.60,174.24 251.05,161.28"/><polygon points="315.06,174.24 315.06,200.16 292.62,213.12 270.17,200.16 270.17,174.24 292.62,161.28"/><polygon points="356.63,174.24 356.63,200.16 334.18,213.12 311.74,200.16 311.74,174.24 334.18,161.28"/><polygon points="398.20,174.24 398.20,200.16 375.75,213.12 353.31,200.16 353.31,174.24 375.75,161.28"/><polygon points="439.77,174.24 439.77,200.16 417.32,213.12 394.88,200.16 394.88,174.24 417.32,161.28"/><polygon points="481.34,174.24 481.34,200.16 458.89,213.12 436.44,200.16 436.44,174.24 458.89,161.28"/><polygon points="169.57,210.24 169.57,236.16 147.12,249.12 124.68,236.16 124.68,210.24 147.12,197.28"/><polygon points="211.14,210.24 211.14,236.16 188.69,249.12 166.24,236.16 166.24,210.24 188.69,197.28"/><polygon points="252.71,210.24 252.71,236.16 230.26,249.12 207.81,236.16 207.81,210.24 230.26,197.28"/><polygon points="294.28,210.24 294.28,236.16 271.83,249.12 249.38,236.16 249.38,210.24 271.83,197.28"/><polygon points="335.85,210.24 335.85,236.16 313.40,249.12 290.95,236.16 290.95,210.24 313.40,197.28"/><polygon points="377.42,210.24 377.42,236.16 354.97,249.12 332.52,236.16 332.52,210.24 354.97,197.28"/><polygon points="418.99,210.24 418.99,236.16 396.54,249.12 374.09,236.16 374.09,210.24 396.54,197.28"/><polygon points="460.55,210.24 460.55,236.16 438.11,249.12 415.66,236.16 415.66,210.24 438.11,197.28"/><polygon points="502.12,210.24 502.12,236.16 479.68,249.12 457.23,236.16 457.23,210.24 479.68,197.28"/><polygon points="190.36,246.24 190.36,272.16 167.91,285.12 145.46,272.16 145.46,246.24 167.91,233.28"/><polygon points="231.92,246.24 231.92,272.16 209.48,285.12 187.03,272.16 187.03,246.24 209.48,233.28"/><polygon points="273.49,246.24 273.49,272.16 251.05,285.12 228.60,272.16 228.60,246.24 251.05,233.28"/><polygon points="315.06,246.24 315.06,272.16 292.62,285.12 270.17,272.16 270.17,246.24 292.62,233.28"/><polygon points="356.63,246.24 356.63,272.16 334.18,285.12 311.74,272.16 311.74,246.24 334.18,233.28"/><polygon points="398.20,246.24 398.20,272.16 375.75,285.12 353.31,272.16 353.31,246.24 375.75,233.28"/><polygon points="439.77,246.24 439.77,272.16 417.32,285.12 394.88,272.16 394.88,246.24 417.32,233.28"/><polygon points="481.34,246.24 481.34,272.16 458.89,285.12 436.44,272.16 436.44,246.24 458.89,233.28"/><polygon points="522.91,246.24 522.91,272.16 500.46,285.12 478.01,272.16 478.01,246.24 500.46,233.28"/><polygon points="211.14,282.24 211.14,308.16 188.69,321.12 166.24,308.16 166.24,282.24 188.69,269.28"/><polygon points="252.71,282.24 252.71,308.16 230.26,321.12 207.81,308.16 207.81,282.24 230.26,269.28"/><polygon points="294.28,282.24 294.28,308.16 271.83,321.12 249.38,308.16 249.38,282.24 271.83,269.28"/><polygon points="335.85,282.24 335.85,308.16 313.40,321.12 290.95,308.16 290.95,282.24 313.40,269.28"/><polygon points="377.42,282.24 377.42,308.16 354.97,321.12 332.52,308.16 332.52,282.24 354.97,269.28"/><polygon points="418.99,282.24 418.99,308.16 396.54,321.12 374.09,308.16 374.09,282.24 396.54,269.28"/><polygon points="460.55,282.24 460.55,308.16 438.11,321.12 415.66,308.16 415.66,282.24 438.11,269.28"/><polygon points="502.12,282.24 502.12,308.16 479.68,321.12 457.23,308.16 457.23,282.24 479.68,269.28"/><polygon points="543.69,282.24 543.69,308.16 521.25,321.12 498.80,308.16 498.80,282.24 521.25,269.28"/><polygon points="231.92,318.24 231.92,344.16 209.48,357.12 187.03,344.16 187.03,318.24 209.48,305.28"/><polygon points="273.49,318.24 273.49,344.16 251.05,357.12 228.60,344.16 228.60,318.24 251.05,305.28"/><polygon points="315.06,318.24 315.06,344.16 292.62,357.12 270.17,344.16 270.17,318.24 292.62,305.28"/><polygon points="356.63,318.24 356.63,344.16 334.18,357.12 311.74,344.16 311.74,318.24 334.18,305.28"/><polygon points="398.20,318.24 398.20,344.16 375.75,357.12 353.31,344.16 353.31,318.24 375.75,305.28"/><polygon points="439.77,318.24 439.77,344.16 417.32,357.12 394.88,344.16 394.88,318.24 417.32,305.28"/><polygon points="481.34,318.24 481.34,344.16 458.89,357.12 436.44,344.16 436.44,318.24 458.89,305.28"/><polygon points="522.91,318.24 522.91,344.16 500.46,357.12 478.01,344.16 478.01,318.24 500.46,305.28"/><polygon points="564.48,318.24 564.48,344.16 542.03,357.12 519.58,344.16 519.58,318.24 542.03,305.28"/></g><g fill="none" stroke="#6b4226" stroke-width="14" stroke-linecap="round" stroke-linejoin="round"><line x1="43.20" y1="68.40" x2="21.38" y2="55.80"/><line x1="21.38" y1="55.80" x2="21.38" y2="30.60"/><line x1="21.38" y1="30.60" x2="43.20" y2="18.00"/><line x1="43.20" y1="18.00" x2="65.02" y2="30.60"/><line x1="62.95" y1="30.60" x2="84.77" y2="18.00"/><line x1="84.77" y1="18.00" x2="106.59" y2="30.60"/><line x1="104.51" y1="30.60" x2="126.34" y2="18.00"/><line x1="126.34" y1="18.00" x2="148.16" y2="30.60"/><line x1="146.08" y1="30.60" x2="167.91" y2="18.00"/><line x1="167.91" y1="18.00" x2="189.73" y2="30.60"/><line x1="187.65" y1="30.60" x2="209.48" y2="18.00"/><line x1="209.48" y1="18.00" x2="231.30" y2="30.60"/><line x1="229.22" y1="30.60" x2="251.05" y2="18.00"/><line x1="251.05" y1="18.00" x2="272.87" y2="30.60"/><line x1="270.79" y1="30.60" x2="292.62" y2="18.00"/><line x1="292.62" y1="18.00" x2="314.44" y2="30.60"/><line x1="312.36" y1="30.60" x2="334.18" y2="18.00"/><line x1="334.18" y1="18.00" x2="356.01" y2="30.60"/><line x1="397.58" y1="30.60" x2="397.58" y2="55.80"/><line x1="353.93" y1="30.60" x2="375.75" y2="18.00"/><line x1="375.75" y1="18.00" x2="397.58" y2="30.60"/><line x1="63.98" y1="104.40" x2="42.16" y2="91.80"/><line x1="42.16" y1="91.80" x2="42.16" y2="66.60"/><line x1="418.36" y1="66.60" x2="418.36" y2="91.80"/><line x1="396.54" y1="54.00" x2="418.36" y2="66.60"/><line x1="84.77" y1="140.40" x2="62.95" y2="127.80"/><line x1="62.95" y1="127.80" x2="62.95" y2="102.60"/><line x1="439.15" y1="102.60" x2="439.15" y2="127.80"/><line x1="417.32" y1="90.00" x2="439.15" y2="102.60"/><line x1="105.55" y1="176.40" x2="83.73" y2="163.80"/><line x1="83.73" y1="163.80" x2="83.73" y2="138.60"/><line x1="459.93" y1="138.60" x2="459.93" y2="163.80"/><line x1="438.11" y1="126.00" x2="459.93" y2="138.60"/><line x1="126.34" y1="212.40" x2="104.51" y2="199.80"/><line x1="104.51" y1="199.80" x2="104.51" y2="174.60"/><line x1="480.72" y1="174.60" x2="480.72" y2="199.80"/><line x1="458.89" y1="162.00" x2="480.72" y2="174.60"/><line x1="147.12" y1="248.40" x2="125.30" y2="235.80"/><line x1="125.30" y1="235.80" x2="125.30" y2="210.60"/><line x1="501.50" y1="210.60" x2="501.50" y2="235.80"/><line x1="479.68" y1="198.00" x2="501.50" y2="210.60"/><line x1="167.91" y1="284.40" x2="146.08" y2="271.80"/><line x1="146.08" y1="271.80" x2="146.08" y2="246.60"/><line x1="522.29" y1="246.60" x2="522.29" y2="271.80"/><line x1="500.46" y1="234.00" x2="522.29" y2="246.60"/><line x1="188.69" y1="320.40" x2="166.87" y2="307.80"/><line x1="166.87" y1="307.80" x2="166.87" y2="282.60"/><line x1="543.07" y1="282.60" x2="543.07" y2="307.80"/><line x1="521.25" y1="270.00" x2="543.07" y2="282.60"/><line x1="231.30" y1="343.80" x2="209.48" y2="356.40"/><line x1="209.48" y1="356.40" x2="187.65" y2="343.80"/><line x1="187.65" y1="343.80" x2="187.65" y2="318.60"/><line x1="272.87" y1="343.80" x2="251.05" y2="356.40"/><line x1="251.05" y1="356.40" x2="229.22" y2="343.80"/><line x1="314.44" y1="343.80" x2="292.62" y2="356.40"/><line x1="292.62" y1="356.40" x2="270.79" y2="343.80"/><line x1="356.01" y1="343.80" x2="334.18" y2="356.40"/><line x1="334.18" y1="356.40" x2="312.36" y2="343.80"/><line x1="397.58" y1="343.80" x2="375.75" y2="356.40"/><line x1="375.75" y1="356.40" x2="353.93" y2="343.80"/><line x1="439.15" y1="343.80" x2="417.32" y2="356.40"/><line x1="417.32" y1="356.40" x2="395.50" y2="343.80"/><line x1="480.72" y1="343.80" x2="458.89" y2="356.40"/><line x1="458.89" y1="356.40" x2="437.07" y2="343.80"/><line x1="522.29" y1="343.80" x2="500.46" y2="356.40"/><line x1="500.46" y1="356.40" x2="478.64" y2="343.80"/><line x1="563.85" y1="318.60" x2="563.85" y2="343.80"/><line x1="563.85" y1="343.80" x2="542.03" y2="356.40"/><line x1="542.03" y1="356.40" x2="520.21" y2="343.80"/><line x1="542.03" y1="306.00" x2="563.85" y2="318.60"/></g><polygon points="62.95,31.80 62.95,54.60 43.20,66.00 23.45,54.60 23.45,31.80 43.20,20.40" fill="#e8e8e8" stroke="rgba(0,0,0,0.3)" stroke-width="1" data-sq="0,0" class="board-cell"/><polygon points="104.51,31.80 104.51,54.60 84.77,66.00 65.02,54.60 65.02,31.80 84.77,20.40" fill="#c0c0c0" stroke="rgba(0,0,0,0.3)" stroke-width="1" data-sq="1,0" class="board-cell"/><polygon points="146.08,31.80 146.08,54.60 126.34,66.00 106.59,54.60 106.59,31.80 126.34,20.40" fill="#d8d8d8" stroke="rgba(0,0,0,0.3)" stroke-width="1" data-sq="2,0" class="board-cell"/><polygon points="187.65,31.80 187.65,54.60 167.91,66.00 148.16,54.60 148.16,31.80 167.91,20.40" fill="#e8e8e8" stroke="rgba(0,0,0,0.3)" stroke-width="1" data-sq="3,0" class="board-cell"/><polygon points="229.22,31.80 229.22,54.60 209.48,66.00 189.73,54.60 189.73,31.80 209.48,20.40" fill="#c0c0c0" stroke="rgba(0,0,0,0.3)" stroke-width="1" data-sq="4,0" class="board-cell"/><polygon points="270.79,31.80 270.79,54.60 251.05,66.00 231.30,54.60 231.30,31.80 251.05,20.40" fill="#d8d8d8" stroke="rgba(0,0,0,0.3)" stroke-width="1" data-sq="5,0" class="board-cell"/><polygon points="312.36,31.80 312.36,54.60 292.62,66.00 272.87,54.60 272.87,31.80 292.62,20.40" fill="#e8e8e8" stroke="rgba(0,0,0,0.3)" stroke-width="1" data-sq="6,0" class="board-cell"/><polygon points="353.93,31.80 353.93,54.60 334.18,66.00 314.44,54.60 314.44,31.80 334.18,20.40" fill="#c0c0c0" stroke="rgba(0,0,0,0.3)" stroke-width="1" data-sq="7,0" class="board-cell"/><polygon points="395.50,31.80 395.50,54.60 375.75,66.00 356.01,54.60 356.01,31.80 375.75,20.40" fill="#d8d8d8" stroke="rgba(0,0,0,0.3)" stroke-width="1" data-sq="8,0" class="board-cell"/><polygon points="83.73,67.80 83.73,90.60 63.98,102.00 44.24,90.60 44.24,67.80 63.98,56.40" fill="#c0c0c0" stroke="rgba(0,0,0,0.3)" stroke-width="1" data-sq="0,1" class="board-cell"/><polygon points="125.30,67.80 125.30,90.60 105.55,102.00 85.81,90.60 85.81,67.80 105.55,56.40" fill="#d8d8d8" stroke="rgba(0,0,0,0.3)" stroke-width="1" data-sq="1,1" class="board-cell"/><polygon points="166.87,67.80 166.87,90.60 147.12,102.00 127.38,90.60 127.38,67.80 147.12,56.40" fill="#e8e8e8" stroke="rgba(0,0,0,0.3)" stroke-width="1" data-sq="2,1" class="board-cell"/><polygon points="208.44,67.80 208.44,90.60 188.69,102.00 168.95,90.60 168.95,67.80 188.69,56.40" fill="#c0c0c0" stroke="rgba(0,0,0,0.3)" stroke-width="1" data-sq="3,1" class="board-cell"/><polygon points="250.01,67.80 250.01,90.60 230.26,102.00 210.52,90.60 210.52,67.80 230.26,56.40" fill="#d8d8d8" stroke="rgba(0,0,0,0.3)" stroke-width="1" data-sq="4,1" class="board-cell"/><polygon points="291.58,67.80 291.58,90.60 271.83,102.00 252.09,90.60 252.09,67.80 271.83,56.40" fill="#e8e8e8" stroke="rgba(0,0,0,0.3)" stroke-width="1" data-sq="5,1" class="board-cell"/><polygon points="333.15,67.80 333.15,90.60 313.40,102.00 293.65,90.60 293.65,67.80 313.40,56.40" fill="#c0c0c0" stroke="rgba(0,0,0,0.3)" stroke-width="1" data-sq="6,1" class="board-cell"/><polygon points="374.71,67.80 374.71,90.60 354.97,102.00 335.22,90.60 335.22,67.80 354.97,56.40" fill="#d8d8d8" stroke="rgba(0,0,0,0.3)" stroke-width="1" data-sq="7,1" class="board-cell"/><polygon points="416.28,67.80 416.28,90.60 396.54,102.00 376.79,90.60 376.79,67.80 396.54,56.40" fill="#e8e8e8" stroke="rgba(0,0,0,0.3)" stroke-width="1" data-sq="8,1" class="board-cell"/><polygon points="104.51,103.80 104.51,126.60 84.77,138.00 65.02,126.60 65.02,103.80 84.77,92.40" fill="#d8d8d8" stroke="rgba(0,0,0,0.3)" stroke-width="1" data-sq="0,2" class="board-cell"/><polygon points="146.08,103.80 146.08,126.60 126.34,138.00 106.59,126.60 106.59,103.80 126.34,92.40" fill="#e8e8e8" stroke="rgba(0,0,0,0.3)" stroke-width="1" data-sq="1,2" class="board-cell"/><polygon points="187.65,103.80 187.65,126.60 167.91,138.00 148.16,126.60 148.16,103.80 167.91,92.40" fill="#c0c0c0" stroke="rgba(0,0,0,0.3)" stroke-width="1" data-sq="2,2" class="board-cell"/><polygon points="229.22,103.80 229.22,126.60 209.48,138.00 189.73,126.60 189.73,103.80 209.48,92.40" fill="#d8d8d8" stroke="rgba(0,0,0,0.3)" stroke-width="1" data-sq="3,2" class="board-cell"/><polygon points="270.79,103.80 270.79,126.60 251.05,138.00 231.30,126.60 231.30,103.80 251.05,92.40" fill="#e8e8e8" stroke="rgba(0,0,0,0.3)" stroke-width="1" data-sq="4,2" class="board-cell"/><polygon points="312.36,103.80 312.36,126.60 292.62,138.00 272.87,126.60 272.87,103.80 292.62,92.40" fill="#c0c0c0" stroke="rgba(0,0,0,0.3)" stroke-width="1" data-sq="5,2" class="board-cell"/><polygon points="353.93,103.80 353.93,126.60 334.18,138.00 314.44,126.60 314.44,103.80 334.18,92.40" fill="#d8d8d8" stroke="rgba(0,0,0,0.3)" stroke-width="1" data-sq="6,2" class="board-cell"/><polygon points="395.50,103.80 395.50,126.60 375.75,138.00 356.01,126.60 356.01,103.80 375.75,92.40" fill="#e8e8e8" stroke="rgba(0,0,0,0.3)" stroke-width="1" data-sq="7,2" class="board-cell"/><polygon points="437.07,103.80 437.07,126.60 417.32,138.00 397.58,126.60 397.58,103.80 417.32,92.40" fill="#c0c0c0" stroke="rgba(0,0,0,0.3)" stroke-width="1" data-sq="8,2" class="board-cell"/><polygon points="125.30,139.80 125.30,162.60 105.55,174.00 85.81,162.60 85.81,139.80 105.55,128.40" fill="#e8e8e8" stroke="rgba(0,0,0,0.3)" stroke-width="1" data-sq="0,3" class="board-cell"/><polygon points="166.87,139.80 166.87,162.60 147.12,174.00 127.38,162.60 127.38,139.80 147.12,128.40" fill="#c0c0c0" stroke="rgba(0,0,0,0.3)" stroke-width="1" data-sq="1,3" class="board-cell"/><polygon points="208.44,139.80 208.44,162.60 188.69,174.00 168.95,162.60 168.95,139.80 188.69,128.40" fill="#d8d8d8" stroke="rgba(0,0,0,0.3)" stroke-width="1" data-sq="2,3" class="board-cell"/><polygon points="250.01,139.80 250.01,162.60 230.26,174.00 210.52,162.60 210.52,139.80 230.26,128.40" fill="#e8e8e8" stroke="rgba(0,0,0,0.3)" stroke-width="1" data-sq="3,3" class="board-cell"/><polygon points="291.58,139.80 291.58,162.60 271.83,174.00 252.09,162.60 252.09,139.80 271.83,128.40" fill="#c0c0c0" stroke="rgba(0,0,0,0.3)" stroke-width="1" data-sq="4,3" class="board-cell"/><polygon points="333.15,139.80 333.15,162.60 313.40,174.00 293.65,162.60 293.65,139.80 313.40,128.40" fill="#d8d8d8" stroke="rgba(0,0,0,0.3)" stroke-width="1" data-sq="5,3" class="board-cell"/><polygon points="374.71,139.80 374.71,162.60 354.97,174.00 335.22,162.60 335.22,139.80 354.97,128.40" fill="#e8e8e8" stroke="rgba(0,0,0,0.3)" stroke-width="1" data-sq="6,3" class="board-cell"/><polygon points="416.28,139.80 416.28,162.60 396.54,174.00 376.79,162.60 376.79,139.80 396.54,128.40" fill="#c0c0c0" stroke="rgba(0,0,0,0.3)" stroke-width="1" data-sq="7,3" class="board-cell"/><polygon points="457.85,139.80 457.85,162.60 438.11,174.00 418.36,162.60 418.36,139.80 438.11,128.40" fill="#d8d8d8" stroke="rgba(0,0,0,0.3)" stroke-width="1" data-sq="8,3" class="board-cell"/><polygon points="146.08,175.80 146.08,198.60 126.34,210.00 106.59,198.60 106.59,175.80 126.34,164.40" fill="#c0c0c0" stroke="rgba(0,0,0,0.3)" stroke-width="1" data-sq="0,4" class="board-cell"/><polygon points="187.65,175.80 187.65,198.60 167.91,210.00 148.16,198.60 148.16,175.80 167.91,164.40" fill="#d8d8d8" stroke="rgba(0,0,0,0.3)" stroke-width="1" data-sq="1,4" class="board-cell"/><polygon points="229.22,175.80 229.22,198.60 209.48,210.00 189.73,198.60 189.73,175.80 209.48,164.40" fill="#e8e8e8" stroke="rgba(0,0,0,0.3)" stroke-width="1" data-sq="2,4" class="board-cell"/><polygon points="270.79,175.80 270.79,198.60 251.05,210.00 231.30,198.60 231.30,175.80 251.05,164.40" fill="#c0c0c0" stroke="rgba(0,0,0,0.3)" stroke-width="1" data-sq="3,4" class="board-cell"/><polygon points="312.36,175.80 312.36,198.60 292.62,210.00 272.87,198.60 272.87,175.80 292.62,164.40" fill="#d8d8d8" stroke="rgba(0,0,0,0.3)" stroke-width="1" data-sq="4,4" class="board-cell"/><polygon points="353.93,175.80 353.93,198.60 334.18,210.00 314.44,198.60 314.44,175.80 334.18,164.40" fill="#e8e8e8" stroke="rgba(0,0,0,0.3)" stroke-width="1" data-sq="5,4" class="board-cell"/><polygon points="395.50,175.80 395.50,198.60 375.75,210.00 356.01,198.60 356.01,175.80 375.75,164.40" fill="#c0c0c0" stroke="rgba(0,0,0,0.3)" stroke-width="1" data-sq="6,4" class="board-cell"/><polygon points="437.07,175.80 437.07,198.60 417.32,210.00 397.58,198.60 397.58,175.80 417.32,164.40" fill="#d8d8d8" stroke="rgba(0,0,0,0.3)" stroke-width="1" data-sq="7,4" class="board-cell"/><polygon points="478.64,175.80 478.64,198.60 458.89,210.00 439.15,198.60 439.15,175.80 458.89,164.40" fill="#e8e8e8" stroke="rgba(0,0,0,0.3)" stroke-width="1" data-sq="8,4" class="board-cell"/><polygon points="166.87,211.80 166.87,234.60 147.12,246.00 127.38,234.60 127.38,211.80 147.12,200.40" fill="#d8d8d8" stroke="rgba(0,0,0,0.3)" stroke-width="1" data-sq="0,5" class="board-cell"/><polygon points="208.44,211.80 208.44,234.60 188.69,246.00 168.95,234.60 168.95,211.80 188.69,200.40" fill="#e8e8e8" stroke="rgba(0,0,0,0.3)" stroke-width="1" data-sq="1,5" class="board-cell"/><polygon points="250.01,211.80 250.01,234.60 230.26,246.00 210.52,234.60 210.52,211.80 230.26,200.40" fill="#c0c0c0" stroke="rgba(0,0,0,0.3)" stroke-width="1" data-sq="2,5" class="board-cell"/><polygon points="291.58,211.80 291.58,234.60 271.83,246.00 252.09,234.60 252.09,211.80 271.83,200.40" fill="#d8d8d8" stroke="rgba(0,0,0,0.3)" stroke-width="1" data-sq="3,5" class="board-cell"/><polygon points="333.15,211.80 333.15,234.60 313.40,246.00 293.65,234.60 293.65,211.80 313.40,200.40" fill="#e8e8e8" stroke="rgba(0,0,0,0.3)" stroke-width="1" data-sq="4,5" class="board-cell"/><polygon points="374.71,211.80 374.71,234.60 354.97,246.00 335.22,234.60 335.22,211.80 354.97,200.40" fill="#c0c0c0" stroke="rgba(0,0,0,0.3)" stroke-width="1" data-sq="5,5" class="board-cell"/><polygon points="416.28,211.80 416.28,234.60 396.54,246.00 376.79,234.60 376.79,211.80 396.54,200.40" fill="#d8d8d8" stroke="rgba(0,0,0,0.3)" stroke-width="1" data-sq="6,5" class="board-cell"/><polygon points="457.85,211.80 457.85,234.60 438.11,246.00 418.36,234.60 418.36,211.80 438.11,200.40" fill="#e8e8e8" stroke="rgba(0,0,0,0.3)" stroke-width="1" data-sq="7,5" class="board-cell"/><polygon points="499.42,211.80 499.42,234.60 479.68,246.00 459.93,234.60 459.93,211.80 479.68,200.40" fill="#c0c0c0" stroke="rgba(0,0,0,0.3)" stroke-width="1" data-sq="8,5" class="board-cell"/><polygon points="187.65,247.80 187.65,270.60 167.91,282.00 148.16,270.60 148.16,247.80 167.91,236.40" fill="#e8e8e8" stroke="rgba(0,0,0,0.3)" stroke-width="1" data-sq="0,6" class="board-cell"/><polygon points="229.22,247.80 229.22,270.60 209.48,282.00 189.73,270.60 189.73,247.80 209.48,236.40" fill="#c0c0c0" stroke="rgba(0,0,0,0.3)" stroke-width="1" data-sq="1,6" class="board-cell"/><polygon points="270.79,247.80 270.79,270.60 251.05,282.00 231.30,270.60 231.30,247.80 251.05,236.40" fill="#d8d8d8" stroke="rgba(0,0,0,0.3)" stroke-width="1" data-sq="2,6" class="board-cell"/><polygon points="312.36,247.80 312.36,270.60 292.62,282.00 272.87,270.60 272.87,247.80 292.62,236.40" fill="#e8e8e8" stroke="rgba(0,0,0,0.3)" stroke-width="1" data-sq="3,6" class="board-cell"/><polygon points="353.93,247.80 353.93,270.60 334.18,282.00 314.44,270.60 314.44,247.80 334.18,236.40" fill="#c0c0c0" stroke="rgba(0,0,0,0.3)" stroke-width="1" data-sq="4,6" class="board-cell"/><polygon points="395.50,247.80 395.50,270.60 375.75,282.00 356.01,270.60 356.01,247.80 375.75,236.40" fill="#d8d8d8" stroke="rgba(0,0,0,0.3)" stroke-width="1" data-sq="5,6" class="board-cell"/><polygon points="437.07,247.80 437.07,270.60 417.32,282.00 397.58,270.60 397.58,247.80 417.32,236.40" fill="#e8e8e8" stroke="rgba(0,0,0,0.3)" stroke-width="1" data-sq="6,6" class="board-cell"/><polygon points="478.64,247.80 478.64,270.60 458.89,282.00 439.15,270.60 439.15,247.80 458.89,236.40" fill="#c0c0c0" stroke="rgba(0,0,0,0.3)" stroke-width="1" data-sq="7,6" class="board-cell"/><polygon points="520.21,247.80 520.21,270.60 500.46,282.00 480.72,270.60 480.72,247.80 500.46,236.40" fill="#d8d8d8" stroke="rgba(0,0,0,0.3)" stroke-width="1" data-sq="8,6" class="board-cell"/><polygon points="208.44,283.80 208.44,306.60 188.69,318.00 168.95,306.60 168.95,283.80 188.69,272.40" fill="#c0c0c0" stroke="rgba(0,0,0,0.3)" stroke-width="1" data-sq="0,7" class="board-cell"/><polygon points="250.01,283.80 250.01,306.60 230.26,318.00 210.52,306.60 210.52,283.80 230.26,272.40" fill="#d8d8d8" stroke="rgba(0,0,0,0.3)" stroke-width="1" data-sq="1,7" class="board-cell"/><polygon points="291.58,283.80 291.58,306.60 271.83,318.00 252.09,306.60 252.09,283.80 271.83,272.40" fill="#e8e8e8" stroke="rgba(0,0,0,0.3)" stroke-width="1" data-sq="2,7" class="board-cell"/><polygon points="333.15,283.80 333.15,306.60 313.40,318.00 293.65,306.60 293.65,283.80 313.40,272.40" fill="#c0c0c0" stroke="rgba(0,0,0,0.3)" stroke-width="1" data-sq="3,7" class="board-cell"/><polygon points="374.71,283.80 374.71,306.60 354.97,318.00 335.22,306.60 335.22,283.80 354.97,272.40" fill="#d8d8d8" stroke="rgba(0,0,0,0.3)" stroke-width="1" data-sq="4,7" class="board-cell"/><polygon points="416.28,283.80 416.28,306.60 396.54,318.00 376.79,306.60 376.79,283.80 396.54,272.40" fill="#e8e8e8" stroke="rgba(0,0,0,0.3)" stroke-width="1" data-sq="5,7" class="board-cell"/><polygon points="457.85,283.80 457.85,306.60 438.11,318.00 418.36,306.60 418.36,283.80 438.11,272.40" fill="#c0c0c0" stroke="rgba(0,0,0,0.3)" stroke-width="1" data-sq="6,7" class="board-cell"/><polygon points="499.42,283.80 499.42,306.60 479.68,318.00 459.93,306.60 459.93,283.80 479.68,272.40" fill="#d8d8d8" stroke="rgba(0,0,0,0.3)" stroke-width="1" data-sq="7,7" class="board-cell"/><polygon points="540.99,283.80 540.99,306.60 521.25,318.00 501.50,306.60 501.50,283.80 521.25,272.40" fill="#e8e8e8" stroke="rgba(0,0,0,0.3)" stroke-width="1" data-sq="8,7" class="board-cell"/><polygon points="229.22,319.80 229.22,342.60 209.48,354.00 189.73,342.60 189.73,319.80 209.48,308.40" fill="#d8d8d8" stroke="rgba(0,0,0,0.3)" stroke-width="1" data-sq="0,8" class="board-cell"/><polygon points="270.79,319.80 270.79,342.60 251.05,354.00 231.30,342.60 231.30,319.80 251.05,308.40" fill="#e8e8e8" stroke="rgba(0,0,0,0.3)" stroke-width="1" data-sq="1,8" class="board-cell"/><polygon points="312.36,319.80 312.36,342.60 292.62,354.00 272.87,342.60 272.87,319.80 292.62,308.40" fill="#c0c0c0" stroke="rgba(0,0,0,0.3)" stroke-width="1" data-sq="2,8" class="board-cell"/><polygon points="353.93,319.80 353.93,342.60 334.18,354.00 314.44,342.60 314.44,319.80 334.18,308.40" fill="#d8d8d8" stroke="rgba(0,0,0,0.3)" stroke-width="1" data-sq="3,8" class="board-cell"/><polygon points="395.50,319.80 395.50,342.60 375.75,354.00 356.01,342.60 356.01,319.80 375.75,308.40" fill="#e8e8e8" stroke="rgba(0,0,0,0.3)" stroke-width="1" data-sq="4,8" class="board-cell"/><polygon points="437.07,319.80 437.07,342.60 417.32,354.00 397.58,342.60 397.58,319.80 417.32,308.40" fill="#c0c0c0" stroke="rgba(0,0,0,0.3)" stroke-width="1" data-sq="5,8" class="board-cell"/><polygon points="478.64,319.80 478.64,342.60 458.89,354.00 439.15,342.60 439.15,319.80 458.89,308.40" fill="#d8d8d8" stroke="rgba(0,0,0,0.3)" stroke-width="1" data-sq="6,8" class="board-cell"/><polygon points="520.21,319.80 520.21,342.60 500.46,354.00 480.72,342.60 480.72,319.80 500.46,308.40" fill="#e8e8e8" stroke="rgba(0,0,0,0.3)" stroke-width="1" data-sq="7,8" class="board-cell"/><polygon points="561.78,319.80 561.78,342.60 542.03,354.00 522.29,342.60 522.29,319.80 542.03,308.40" fill="#c0c0c0" stroke="rgba(0,0,0,0.3)" stroke-width="1" data-sq="8,8" class="board-cell"/>
</svg>