<svg xmlns="http://www.w3.org/2000/svg" viewBox="0 0 664 664" width="664" height="664">
<rect x="0" y="0" width="664" height="664" fill="#f5edd5"/><rect x="2" y="2" width="660" height="660" fill="none" stroke="#6b2020" stroke-width="2.5"/><rect x="584" y="584" width="80" height="80" fill="#d4c898" stroke="#3a3020" stroke-width="1.5" class="board-cell" data-sq="pos-40" data-type="corner"/><text x="624" y="616" text-anchor="middle" font-size="8" font-weight="bold" font-family="sans-serif" fill="#2a2015" dominant-baseline="central">MOTHER</text><text x="624" y="627" text-anchor="middle" font-size="8" font-weight="bold" font-family="sans-serif" fill="#2a2015" dominant-baseline="central">EARTH</text><text x="624" y="643" text-anchor="middle" font-size="5.5" font-family="sans-serif" fill="#2a2015" dominant-baseline="central">Collect $100 wages / St.</text><rect x="0" y="584" width="80" height="80" fill="#d4c898" stroke="#3a3020" stroke-width="1.5" class="board-cell" data-sq="pos-10" data-type="corner"/><polygon points="0,584 80,584 80,664" fill="#7aaac0" stroke="none" class="board-cell" data-sq="pos-10b" data-type="necessity"/><polygon points="0,584 0,664 80,664" fill="#d4c898" stroke="none" class="board-cell" data-sq="pos-10a" data-type="corner"/><line x1="0" y1="584" x2="80" y2="664" stroke="#3a3020" stroke-width="1"/><text x="56" y="605" text-anchor="middle" font-size="5" font-weight="bold" font-family="serif" fill="#2a2015" dominant-baseline="central">SHELTER</text><text x="56" y="613" text-anchor="middle" font-size="3.5" font-family="serif" fill="#2a2015" dominant-baseline="central">Tax $10</text><text x="24" y="640" text-anchor="middle" font-size="5" font-weight="bold" font-family="serif" fill="#2a2015" dominant-baseline="central">JAIL</text><rect x="0" y="584" width="80" height="80" fill="none" stroke="#3a3020" stroke-width="1.5"/><rect x="0" y="0" width="80" height="80" fill="#d4c898" stroke="#3a3020" stroke-width="1.5" class="board-cell" data-sq="pos-20" data-type="corner"/><polygon points="0,0 80,0 0,80" fill="#d4c898" stroke="none" class="board-cell" data-sq="pos-20b" data-type="corner"/><polygon points="80,0 80,80 0,80" fill="#d4c898" stroke="none" class="board-cell" data-sq="pos-20a" data-type="corner"/><line x1="0" y1="80" x2="80" y2="0" stroke="#3a3020" stroke-width="1"/><text x="24" y="24" text-anchor="middle" font-size="5" font-weight="bold" font-family="serif" fill="#2a2015" dominant-baseline="central">POORHOUSE</text><text x="56" y="53" text-anchor="middle" font-size="5" font-weight="bold" font-family="serif" fill="#2a2015" dominant-baseline="central">CENTRAL PARK</text><text x="56" y="61" text-anchor="middle" font-size="3.5" font-family="serif" fill="#2a2015" dominant-baseline="central">Free</text><rect x="0" y="0" width="80" height="80" fill="none" stroke="#3a3020" stroke-width="1.5"/><rect x="584" y="0" width="80" height="80" fill="#d4883a" stroke="#3a3020" stroke-width="1.5" class="board-cell" data-sq="pos-30" data-type="corner"/><text x="624" y="32" text-anchor="middle" font-size="8" font-weight="bold" font-family="sans-serif" fill="#2a2015" dominant-baseline="central">NO</text><text x="624" y="43" text-anchor="middle" font-size="8" font-weight="bold" font-family="sans-serif" fill="#2a2015" dominant-baseline="central">TRESPASSING</text><text x="624" y="59" text-anchor="middle" font-size="5.5" font-family="sans-serif" fill="#2a2015" dominant-baseline="central">Lord Blueblood's Estate.</text><rect x="528" y="584" width="56" height="80" fill="#6a9a50" stroke="#3a3020" stroke-width="0.75" class="board-cell" data-sq="pos-1" data-type="lot"/><g transform="translate(556,624) rotate(0)"><text text-anchor="middle" font-size="4.5" font-weight="bold" font-family="serif" fill="#2a2015" x="0" y="-2">WAYBACK</text><text text-anchor="middle" font-size="3.5" font-family="serif" fill="#2a2015" x="0" y="6">$25</text></g><rect x="472" y="584" width="56" height="80" fill="#7aaac0" stroke="#3a3020" stroke-width="0.75" class="board-cell" data-sq="pos-2" data-type="necessity"/><g transform="translate(500,624) rotate(0)"><text text-anchor="middle" font-size="4.5" font-weight="bold" font-family="serif" fill="#2a2015" x="0" y="-2">FUEL</text><text text-anchor="middle" font-size="3.5" font-family="serif" fill="#2a2015" x="0" y="6">Tax $10</text></g><rect x="416" y="584" width="56" height="80" fill="#6a9a50" stroke="#3a3020" stroke-width="0.75" class="board-cell" data-sq="pos-3" data-type="lot"/><g transform="translate(444,624) rotate(0)"><text text-anchor="middle" font-size="4.5" font-weight="bold" font-family="serif" fill="#2a2015" x="0" y="-2">LONELY LANE</text><text text-anchor="middle" font-size="3.5" font-family="serif" fill="#2a2015" x="0" y="6">$25 / Rent $2</text></g><rect x="360" y="584" width="56" height="80" fill="#d4883a" stroke="#3a3020" stroke-width="0.75" class="board-cell" data-sq="pos-4" data-type="go-to-jail"/><g transform="translate(388,624) rotate(0)"><text text-anchor="middle" font-size="4.5" font-weight="bold" font-family="serif" fill="#2a2015" x="0" y="-2">D.F. HOGG'S GAM.</text></g><rect x="304" y="584" width="56" height="80" fill="#d4889a" stroke="#3a3020" stroke-width="0.75" class="board-cell" data-sq="pos-5" data-type="railroad"/><g transform="translate(332,624) rotate(0)"><text text-anchor="middle" font-size="4.5" font-weight="bold" font-family="serif" fill="#2a2015" x="0" y="-2">ROYAL RUSHER R..</text><text text-anchor="middle" font-size="3.5" font-family="serif" fill="#2a2015" x="0" y="6">$50</text></g><rect x="248" y="584" width="56" height="80" fill="#6a9a50" stroke="#3a3020" stroke-width="0.75" class="board-cell" data-sq="pos-6" data-type="lot"/><g transform="translate(276,624) rotate(0)"><text text-anchor="middle" font-size="4.5" font-weight="bold" font-family="serif" fill="#2a2015" x="0" y="-2">THE PIKE</text><text text-anchor="middle" font-size="3.5" font-family="serif" fill="#2a2015" x="0" y="6">$25 / Rent $4</text></g><rect x="192" y="584" width="56" height="80" fill="#6a9a50" stroke="#3a3020" stroke-width="0.75" class="board-cell" data-sq="pos-7" data-type="lot"/><g transform="translate(220,624) rotate(0)"><text text-anchor="middle" font-size="4.5" font-weight="bold" font-family="serif" fill="#2a2015" x="0" y="-2">THE FARM</text><text text-anchor="middle" font-size="3.5" font-family="serif" fill="#2a2015" x="0" y="6">$25 / Rent $4</text></g><rect x="136" y="584" width="56" height="80" fill="#7aaac0" stroke="#3a3020" stroke-width="0.75" class="board-cell" data-sq="pos-8" data-type="special"/><g transform="translate(164,624) rotate(0)"><text text-anchor="middle" font-size="4.5" font-weight="bold" font-family="serif" fill="#2a2015" x="0" y="-2">SPECULATION</text><text text-anchor="middle" font-size="3.5" font-family="serif" fill="#2a2015" x="0" y="6">$50 / Rent $10</text></g><rect x="80" y="584" width="56" height="80" fill="#6a9a50" stroke="#3a3020" stroke-width="0.75" class="board-cell" data-sq="pos-9" data-type="lot"/><g transform="translate(108,624) rotate(0)"><text text-anchor="middle" font-size="4.5" font-weight="bold" font-family="serif" fill="#2a2015" x="0" y="-2">RUBBVILLE</text><text text-anchor="middle" font-size="3.5" font-family="serif" fill="#2a2015" x="0" y="6">$25 / Rent $6</text></g><rect x="0" y="528" width="80" height="56" fill="#6a9a50" stroke="#3a3020" stroke-width="0.75" class="board-cell" data-sq="pos-11" data-type="lot"/><g transform="translate(40,556) rotate(0)"><text text-anchor="middle" font-size="6" font-weight="bold" font-family="serif" fill="#2a2015" x="0" y="-4">BOOMTOWN</text><text text-anchor="middle" font-size="4.5" font-family="serif" fill="#2a2015" x="0" y="8">$50 / Rent $6</text></g><rect x="0" y="472" width="80" height="56" fill="#6a9a50" stroke="#3a3020" stroke-width="0.75" class="board-cell" data-sq="pos-12" data-type="lot"/><g transform="translate(40,500) rotate(0)"><text text-anchor="middle" font-size="6" font-weight="bold" font-family="serif" fill="#2a2015" x="0" y="-4">GOAT ALLEY</text><text text-anchor="middle" font-size="4.5" font-family="serif" fill="#2a2015" x="0" y="8">$50 / Rent $8</text></g><rect x="0" y="416" width="80" height="56" fill="#d4c060" stroke="#3a3020" stroke-width="0.75" class="board-cell" data-sq="pos-13" data-type="franchise"/><g transform="translate(40,444) rotate(0)"><text text-anchor="middle" font-size="6" font-weight="bold" font-family="serif" fill="#2a2015" x="0" y="-4">SOAKUM LIGHTING SY.</text><text text-anchor="middle" font-size="4.5" font-family="serif" fill="#2a2015" x="0" y="8">$50</text></g><rect x="0" y="360" width="80" height="56" fill="#6a9a50" stroke="#3a3020" stroke-width="0.75" class="board-cell" data-sq="pos-14" data-type="lot"/><g transform="translate(40,388) rotate(0)"><text text-anchor="middle" font-size="6" font-weight="bold" font-family="serif" fill="#2a2015" x="0" y="-4">BEGGARMAN'S COURT</text><text text-anchor="middle" font-size="4.5" font-family="serif" fill="#2a2015" x="0" y="8">$50 / Rent $8</text></g><rect x="0" y="304" width="80" height="56" fill="#d4889a" stroke="#3a3020" stroke-width="0.75" class="board-cell" data-sq="pos-15" data-type="railroad"/><g transform="translate(40,332) rotate(0)"><text text-anchor="middle" font-size="6" font-weight="bold" font-family="serif" fill="#2a2015" x="0" y="-4">SHOOTING STAR R.R.</text><text text-anchor="middle" font-size="4.5" font-family="serif" fill="#2a2015" x="0" y="8">$50</text></g><rect x="0" y="248" width="80" height="56" fill="#6a9a50" stroke="#3a3020" stroke-width="0.75" class="board-cell" data-sq="pos-16" data-type="lot"/><g transform="translate(40,276) rotate(0)"><text text-anchor="middle" font-size="6" font-weight="bold" font-family="serif" fill="#2a2015" x="0" y="-4">RICKETY ROW</text><text text-anchor="middle" font-size="4.5" font-family="serif" fill="#2a2015" x="0" y="8">$50 / Rent $10</text></g><rect x="0" y="192" width="80" height="56" fill="#7aaac0" stroke="#3a3020" stroke-width="0.75" class="board-cell" data-sq="pos-17" data-type="necessity"/><g transform="translate(40,220) rotate(0)"><text text-anchor="middle" font-size="6" font-weight="bold" font-family="serif" fill="#2a2015" x="0" y="-4">FOOD</text><text text-anchor="middle" font-size="4.5" font-family="serif" fill="#2a2015" x="0" y="8">Tax $10</text></g><rect x="0" y="136" width="80" height="56" fill="#6a9a50" stroke="#3a3020" stroke-width="0.75" class="board-cell" data-sq="pos-18" data-type="lot"/><g transform="translate(40,164) rotate(0)"><text text-anchor="middle" font-size="6" font-weight="bold" font-family="serif" fill="#2a2015" x="0" y="-4">MARKET PLACE</text><text text-anchor="middle" font-size="4.5" font-family="serif" fill="#2a2015" x="0" y="8">$50 / Rent $10</text></g><rect x="0" y="80" width="80" height="56" fill="#6a9a50" stroke="#3a3020" stroke-width="0.75" class="board-cell" data-sq="pos-19" data-type="lot"/><g transform="translate(40,108) rotate(0)"><text text-anchor="middle" font-size="6" font-weight="bold" font-family="serif" fill="#2a2015" x="0" y="-4">COTTAGE TERRACE</text><text text-anchor="middle" font-size="4.5" font-family="serif" fill="#2a2015" x="0" y="8">$50 / Rent $12</text></g><rect x="80" y="0" width="56" height="80" fill="#6a9a50" stroke="#3a3020" stroke-width="0.75" class="board-cell" data-sq="pos-21" data-type="lot"/><g transform="translate(108,40) rotate(0)"><text text-anchor="middle" font-size="4.5" font-weight="bold" font-family="serif" fill="#2a2015" x="0" y="-2">EASY STREET</text><text text-anchor="middle" font-size="3.5" font-family="serif" fill="#2a2015" x="0" y="6">$75 / Rent $12</text></g><rect x="136" y="0" width="56" height="80" fill="#cc3030" stroke="#3a3020" stroke-width="0.75" class="board-cell" data-sq="pos-22" data-type="chance"/><g transform="translate(164,40) rotate(0)"><text text-anchor="middle" font-size="4.5" font-weight="bold" font-family="serif" fill="#fff" x="0" y="-2">CHANCE</text></g><rect x="192" y="0" width="56" height="80" fill="#6a9a50" stroke="#3a3020" stroke-width="0.75" class="board-cell" data-sq="pos-23" data-type="lot"/><g transform="translate(220,40) rotate(0)"><text text-anchor="middle" font-size="4.5" font-weight="bold" font-family="serif" fill="#2a2015" x="0" y="-2">GEORGE STREET</text><text text-anchor="middle" font-size="3.5" font-family="serif" fill="#2a2015" x="0" y="6">$75 / Rent $14</text></g><rect x="248" y="0" width="56" height="80" fill="#6a9a50" stroke="#3a3020" stroke-width="0.75" class="board-cell" data-sq="pos-24" data-type="lot"/><g transform="translate(276,40) rotate(0)"><text text-anchor="middle" font-size="4.5" font-weight="bold" font-family="serif" fill="#2a2015" x="0" y="-2">MAGUIRE FLATS</text><text text-anchor="middle" font-size="3.5" font-family="serif" fill="#2a2015" x="0" y="6">$75 / Rent $14</text></g><rect x="304" y="0" width="56" height="80" fill="#d4889a" stroke="#3a3020" stroke-width="0.75" class="board-cell" data-sq="pos-25" data-type="railroad"/><g transform="translate(332,40) rotate(0)"><text text-anchor="middle" font-size="4.5" font-weight="bold" font-family="serif" fill="#2a2015" x="0" y="-2">GEE WHIZ R.R.</text><text text-anchor="middle" font-size="3.5" font-family="serif" fill="#2a2015" x="0" y="6">$50</text></g><rect x="360" y="0" width="56" height="80" fill="#6a9a50" stroke="#3a3020" stroke-width="0.75" class="board-cell" data-sq="pos-26" data-type="lot"/><g transform="translate(388,40) rotate(0)"><text text-anchor="middle" font-size="4.5" font-weight="bold" font-family="serif" fill="#2a2015" x="0" y="-2">FAIRHOPE AVENUE</text><text text-anchor="middle" font-size="3.5" font-family="serif" fill="#2a2015" x="0" y="6">$75 / Rent $16</text></g><rect x="416" y="0" width="56" height="80" fill="#d4c060" stroke="#3a3020" stroke-width="0.75" class="board-cell" data-sq="pos-27" data-type="franchise"/><g transform="translate(444,40) rotate(0)"><text text-anchor="middle" font-size="4.5" font-weight="bold" font-family="serif" fill="#2a2015" x="0" y="-2">SLAMBANG TROLLEY</text><text text-anchor="middle" font-size="3.5" font-family="serif" fill="#2a2015" x="0" y="6">$50</text></g><rect x="472" y="0" width="56" height="80" fill="#6a9a50" stroke="#3a3020" stroke-width="0.75" class="board-cell" data-sq="pos-28" data-type="lot"/><g transform="translate(500,40) rotate(0)"><text text-anchor="middle" font-size="4.5" font-weight="bold" font-family="serif" fill="#2a2015" x="0" y="-2">JOHNSON CIRCLE</text><text text-anchor="middle" font-size="3.5" font-family="serif" fill="#2a2015" x="0" y="6">$75 / Rent $16</text></g><rect x="528" y="0" width="56" height="80" fill="#6a9a50" stroke="#3a3020" stroke-width="0.75" class="board-cell" data-sq="pos-29" data-type="lot"/><g transform="translate(556,40) rotate(0)"><text text-anchor="middle" font-size="4.5" font-weight="bold" font-family="serif" fill="#2a2015" x="0" y="-2">THE BOWERY</text><text text-anchor="middle" font-size="3.5" font-family="serif" fill="#2a2015" x="0" y="6">$75 / Rent $18</text></g><rect x="584" y="80" width="80" height="56" fill="#6a9a50" stroke="#3a3020" stroke-width="0.75" class="board-cell" data-sq="pos-31" data-type="lot"/><g transform="translate(624,108) rotate(0)"><text text-anchor="middle" font-size="6" font-weight="bold" font-family="serif" fill="#2a2015" x="0" y="-4">BROADWAY</text><text text-anchor="middle" font-size="4.5" font-family="serif" fill="#2a2015" x="0" y="8">$100 / Rent $18</text></g><rect x="584" y="136" width="80" height="56" fill="#7aaac0" stroke="#3a3020" stroke-width="0.75" class="board-cell" data-sq="pos-32" data-type="necessity"/><g transform="translate(624,164) rotate(0)"><text text-anchor="middle" font-size="6" font-weight="bold" font-family="serif" fill="#2a2015" x="0" y="-4">CLOTHING</text><text text-anchor="middle" font-size="4.5" font-family="serif" fill="#2a2015" x="0" y="8">Tax $10</text></g><rect x="584" y="192" width="80" height="56" fill="#6a9a50" stroke="#3a3020" stroke-width="0.75" class="board-cell" data-sq="pos-33" data-type="lot"/><g transform="translate(624,220) rotate(0)"><text text-anchor="middle" font-size="6" font-weight="bold" font-family="serif" fill="#2a2015" x="0" y="-4">MADISON SQUARE</text><text text-anchor="middle" font-size="4.5" font-family="serif" fill="#2a2015" x="0" y="8">$100 / Rent $20</text></g><rect x="584" y="248" width="80" height="56" fill="#6a9a50" stroke="#3a3020" stroke-width="0.75" class="board-cell" data-sq="pos-34" data-type="lot"/><g transform="translate(624,276) rotate(0)"><text text-anchor="middle" font-size="6" font-weight="bold" font-family="serif" fill="#2a2015" x="0" y="-4">FIFTH AVENUE</text><text text-anchor="middle" font-size="4.5" font-family="serif" fill="#2a2015" x="0" y="8">$100 / Rent $20</text></g><rect x="584" y="304" width="80" height="56" fill="#d4889a" stroke="#3a3020" stroke-width="0.75" class="board-cell" data-sq="pos-35" data-type="railroad"/><g transform="translate(624,332) rotate(0)"><text text-anchor="middle" font-size="6" font-weight="bold" font-family="serif" fill="#2a2015" x="0" y="-4">P.D.Q. R.R.</text><text text-anchor="middle" font-size="4.5" font-family="serif" fill="#2a2015" x="0" y="8">$50</text></g><rect x="584" y="360" width="80" height="56" fill="#6a9a50" stroke="#3a3020" stroke-width="0.75" class="board-cell" data-sq="pos-36" data-type="lot"/><g transform="translate(624,388) rotate(0)"><text text-anchor="middle" font-size="6" font-weight="bold" font-family="serif" fill="#2a2015" x="0" y="-4">GRAND BOULEVARD</text><text text-anchor="middle" font-size="4.5" font-family="serif" fill="#2a2015" x="0" y="8">$100 / Rent $22</text></g><rect x="584" y="416" width="80" height="56" fill="#cc3030" stroke="#3a3020" stroke-width="0.75" class="board-cell" data-sq="pos-37" data-type="chance"/><g transform="translate(624,444) rotate(0)"><text text-anchor="middle" font-size="6" font-weight="bold" font-family="serif" fill="#fff" x="0" y="-4">CHANCE</text></g><rect x="584" y="472" width="80" height="56" fill="#6a9a50" stroke="#3a3020" stroke-width="0.75" class="board-cell" data-sq="pos-38" data-type="lot"/><g transform="translate(624,500) rotate(0)"><text text-anchor="middle" font-size="6" font-weight="bold" font-family="serif" fill="#2a2015" x="0" y="-4">WALL STREET</text><text text-anchor="middle" font-size="4.5" font-family="serif" fill="#2a2015" x="0" y="8">$100 / Rent $22</text></g><rect x="584" y="528" width="80" height="56" fill="#d4889a" stroke="#3a3020" stroke-width="0.75" class="board-cell" data-sq="pos-39" data-type="luxury"/><g transform="translate(624,556) rotate(0)"><text text-anchor="middle" font-size="6" font-weight="bold" font-family="serif" fill="#2a2015" x="0" y="-4">LUXURY</text><text text-anchor="middle" font-size="4.5" font-family="serif" fill="#2a2015" x="0" y="8">$75</text></g><rect x="80" y="80" width="504" height="504" fill="#f8f4e8"/><text x="332" y="312" text-anchor="middle" font-size="7" font-weight="bold" font-family="serif" fill="#2a2015">MISCELLANEOUS</text><text x="332" y="338" text-anchor="middle" font-size="9" font-weight="bold" font-family="serif" fill="#2a2015">PUBLIC TREASURY</text><text x="332" y="352" text-anchor="middle" font-size="5" font-family="serif" fill="#2a2015">MONEY DENOMINATIONS</text><circle cx="292" cy="366" r="7" fill="#f8f4e8" stroke="#3a3020" stroke-width="0.75"/><text x="292" y="368" text-anchor="middle" font-size="4" font-weight="bold" font-family="serif" fill="#2a2015">$1</text><circle cx="312" cy="366" r="7" fill="#cc3030" stroke="#3a3020" stroke-width="0.75"/><text x="312" y="368" text-anchor="middle" font-size="4" font-weight="bold" font-family="serif" fill="#fff">$5</text><circle cx="332" cy="366" r="7" fill="#8a9a8a" stroke="#3a3020" stroke-width="0.75"/><text x="332" y="368" text-anchor="middle" font-size="4" font-weight="bold" font-family="serif" fill="#fff">$10</text><circle cx="352" cy="366" r="7" fill="#d4c040" stroke="#3a3020" stroke-width="0.75"/><text x="352" y="368" text-anchor="middle" font-size="4" font-weight="bold" font-family="serif" fill="#fff">$50</text><circle cx="372" cy="366" r="7" fill="#6a9a50" stroke="#3a3020" stroke-width="0.75"/><text x="372" y="368" text-anchor="middle" font-size="4" font-weight="bold" font-family="serif" fill="#fff">$100</text><text x="332" y="390" text-anchor="middle" font-size="6" font-weight="bold" font-family="serif" fill="#2a2015">The Landlord's Game</text><text x="332" y="401" text-anchor="middle" font-size="4.5" font-family="serif" fill="#2a2015">Patented Jan. 5, 1904, No. 748626 by Lizzie J. Magie</text><text x="332" y="411" text-anchor="middle" font-size="5" font-family="serif" fill="#2a2015">Economic Game Co., New York</text><polygon points="472,584 472,528 528,528 528,472 584,472 584,584" fill="#d4c060" stroke="#3a3020" stroke-width="1.2" class="board-cell" data-sq="inner-1" data-type="natural-opportunity"/><text x="528" y="552" text-anchor="middle" font-size="3" font-family="sans-serif" fill="#2a2015">Natural Opportunity</text><text x="528" y="559" text-anchor="middle" font-size="3" font-family="sans-serif" fill="#2a2015">to Labor</text><text x="556" y="523" text-anchor="middle" font-size="3.5" font-weight="bold" font-family="serif" fill="#2a2015">TIMBERLAND</text><text x="556" y="531" text-anchor="middle" font-size="3" font-family="sans-serif" fill="#2a2015">Wages $40</text><text x="556" y="538" text-anchor="middle" font-size="3" font-family="sans-serif" fill="#2a2015">Rent $10</text><polygon points="80,584 80,472 136,472 136,528 192,528 192,584" fill="#d4c060" stroke="#3a3020" stroke-width="1.2" class="board-cell" data-sq="inner-2" data-type="natural-opportunity"/><text x="136" y="552" text-anchor="middle" font-size="3" font-family="sans-serif" fill="#2a2015">Natural Opportunity</text><text x="136" y="559" text-anchor="middle" font-size="3" font-family="sans-serif" fill="#2a2015">to Labor</text><text x="108" y="523" text-anchor="middle" font-size="3.5" font-weight="bold" font-family="serif" fill="#2a2015">FARMLANDS</text><text x="108" y="531" text-anchor="middle" font-size="3" font-family="sans-serif" fill="#2a2015">Wages $60</text><text x="108" y="538" text-anchor="middle" font-size="3" font-family="sans-serif" fill="#2a2015">Rent $25</text><polygon points="80,80 192,80 192,136 136,136 136,192 80,192" fill="#d4c060" stroke="#3a3020" stroke-width="1.2" class="board-cell" data-sq="inner-3" data-type="natural-opportunity"/><text x="136" y="104" text-anchor="middle" font-size="3" font-family="sans-serif" fill="#2a2015">Natural Opportunity</text><text x="136" y="111" text-anchor="middle" font-size="3" font-family="sans-serif" fill="#2a2015">to Labor</text><text x="108" y="159" text-anchor="middle" font-size="3.5" font-weight="bold" font-family="serif" fill="#2a2015">COAL MINES</text><text x="108" y="167" text-anchor="middle" font-size="3" font-family="sans-serif" fill="#2a2015">Wages $80</text><text x="108" y="174" text-anchor="middle" font-size="3" font-family="sans-serif" fill="#2a2015">Rent $50</text><polygon points="472,80 584,80 584,192 528,192 528,136 472,136" fill="#d4c060" stroke="#3a3020" stroke-width="1.2" class="board-cell" data-sq="inner-4" data-type="natural-opportunity"/><text x="528" y="104" text-anchor="middle" font-size="3" font-family="sans-serif" fill="#2a2015">Natural Opportunity</text><text x="528" y="111" text-anchor="middle" font-size="3" font-family="sans-serif" fill="#2a2015">to Labor</text><text x="556" y="159" text-anchor="middle" font-size="3.5" font-weight="bold" font-family="serif" fill="#2a2015">OIL FIELDS</text><text x="556" y="167" text-anchor="middle" font-size="3" font-family="sans-serif" fill="#2a2015">Wages $100</text><text x="556" y="174" text-anchor="middle" font-size="3" font-family="sans-serif" fill="#2a2015">Rent $75</text><rect x="528" y="582.5" width="56" height="1.5" fill="#d4c060"/><rect x="528" y="584" width="56" height="1.5" fill="#6a9a50"/><rect x="78.5" y="528" width="1.5" height="56" fill="#6a9a50"/><rect x="80" y="528" width="1.5" height="56" fill="#d4c060"/><rect x="80" y="80" width="56" height="1.5" fill="#d4c060"/><rect x="80" y="78.5" width="56" height="1.5" fill="#6a9a50"/><rect x="582.5" y="80" width="1.5" height="56" fill="#d4c060"/><rect x="584" y="80" width="1.5" height="56" fill="#6a9a50"/>
</svg>