<svg xmlns="http://www.w3.org/2000/svg" viewBox="0 0 608 608" width="608" height="608">
<rect x="0" y="0" width="608" height="608" fill="#f8f4ec"/><rect x="2" y="2" width="604" height="604" fill="none" stroke="#2a4a7a" stroke-width="2.5"/><rect x="528" y="528" width="80" height="80" fill="#ffffff" stroke="#2a4a7a" stroke-width="1.5" class="board-cell" data-sq="pos-10" data-type="corner"/><path d="M 534.4,568 A 33.6,33.6 0 1,1 601.6,568 A 33.6,33.6 0 1,1 534.4,568" fill="none" stroke="#8c2020" stroke-width="3.5"/><text x="568" y="560" text-anchor="middle" font-size="8" font-weight="bold" font-family="sans-serif" fill="#6b2020" dominant-baseline="central">LICKETY</text><text x="568" y="571" text-anchor="middle" font-size="8" font-weight="bold" font-family="sans-serif" fill="#6b2020" dominant-baseline="central">CUT R.R.</text><text x="568" y="587" text-anchor="middle" font-size="5.5" font-family="sans-serif" fill="#1a2a40" dominant-baseline="central">Fare $100</text><rect x="0" y="528" width="80" height="80" fill="#ffffff" stroke="#2a4a7a" stroke-width="1.5" class="board-cell" data-sq="pos-19" data-type="corner"/><path d="M 6.399999999999999,568 A 33.6,33.6 0 1,1 73.6,568 A 33.6,33.6 0 1,1 6.399999999999999,568" fill="none" stroke="#8c2020" stroke-width="3.5"/><text x="40" y="560" text-anchor="middle" font-size="8" font-weight="bold" font-family="sans-serif" fill="#6b2020" dominant-baseline="central">GEE WHIZ</text><text x="40" y="571" text-anchor="middle" font-size="8" font-weight="bold" font-family="sans-serif" fill="#6b2020" dominant-baseline="central">R.R.</text><text x="40" y="587" text-anchor="middle" font-size="5.5" font-family="sans-serif" fill="#1a2a40" dominant-baseline="central">Fare $100</text><rect x="0" y="0" width="80" height="80" fill="#ffffff" stroke="#2a4a7a" stroke-width="1.5" class="board-cell" data-sq="pos-28" data-type="corner"/><path d="M 6.399999999999999,40 A 33.6,33.6 0 1,1 73.6,40 A 33.6,33.6 0 1,1 6.399999999999999,40" fill="none" stroke="#8c2020" stroke-width="3.5"/><text x="40" y="32" text-anchor="middle" font-size="8" font-weight="bold" font-family="sans-serif" fill="#6b2020" dominant-baseline="central">P.D.Q.</text><text x="40" y="43" text-anchor="middle" font-size="8" font-weight="bold" font-family="sans-serif" fill="#6b2020" dominant-baseline="central">R.R.</text><text x="40" y="59" text-anchor="middle" font-size="5.5" font-family="sans-serif" fill="#1a2a40" dominant-baseline="central">Fare $100</text><rect x="528" y="0" width="80" height="80" fill="#ffffff" stroke="#2a4a7a" stroke-width="1.5" class="board-cell" data-sq="pos-1" data-type="corner"/><path d="M 568,6.399999999999999 A 33.6,33.6 0 0,1 601.6,40" fill="none" stroke="#2a5a9a" stroke-width="4"/><path d="M 601.6,40 A 33.6,33.6 0 0,1 568,73.6" fill="none" stroke="#3a8a3a" stroke-width="4"/><path d="M 568,73.6 A 33.6,33.6 0 0,1 534.4,40.00000000000001" fill="none" stroke="#c8b020" stroke-width="4"/><path d="M 534.4,40.00000000000001 A 33.6,33.6 0 0,1 568,6.399999999999999" fill="none" stroke="#8c2020" stroke-width="4"/><text x="568" y="32" text-anchor="middle" font-size="8" font-weight="bold" font-family="sans-serif" fill="#6b2020" dominant-baseline="central">WAGES</text><text x="568" y="53.5" text-anchor="middle" font-size="5.5" font-family="sans-serif" fill="#1a2a40" dominant-baseline="central">Labor Applied To Land P.</text><rect x="472" y="528" width="56" height="80" fill="#ffffff" stroke="#2a4a7a" stroke-width="0.75" class="board-cell" data-sq="pos-11" data-type="lot"/><rect x="472.5" y="528.5" width="55" height="17.6" fill="#3a8a3a" opacity="0.35"/><line x1="472.5" y1="545.6" x2="527.5" y2="545.6" stroke="#3a8a3a" stroke-width="1.2"/><rect x="472.5" y="589.9" width="55" height="17.6" fill="#3a8a3a" opacity="0.35"/><line x1="472.5" y1="590.4" x2="527.5" y2="590.4" stroke="#3a8a3a" stroke-width="1.2"/><g transform="translate(500,568) rotate(0)"><text text-anchor="end" font-size="3" font-family="sans-serif" fill="#1a2a40" opacity="0.6" x="24.64" y="-30.4">11</text><text text-anchor="middle" font-size="3.2" font-family="sans-serif" fill="#1a2a40" x="0" y="-31.200000000000003">Land In Use</text><text text-anchor="middle" font-size="5" font-weight="bold" font-family="sans-serif" fill="#1a2a40" x="0" y="2">POVERTY PLACE</text><text text-anchor="middle" font-size="3.5" font-family="sans-serif" fill="#1a2a40" x="0" y="31.200000000000003">Land Rent $50</text></g><rect x="416" y="528" width="56" height="80" fill="#ffffff" stroke="#2a4a7a" stroke-width="0.75" class="board-cell" data-sq="pos-12" data-type="lot"/><rect x="416.5" y="528.5" width="55" height="17.6" fill="#3a8a3a" opacity="0.35"/><line x1="416.5" y1="545.6" x2="471.5" y2="545.6" stroke="#3a8a3a" stroke-width="1.2"/><rect x="416.5" y="589.9" width="55" height="17.6" fill="#3a8a3a" opacity="0.35"/><line x1="416.5" y1="590.4" x2="471.5" y2="590.4" stroke="#3a8a3a" stroke-width="1.2"/><g transform="translate(444,568) rotate(0)"><text text-anchor="end" font-size="3" font-family="sans-serif" fill="#1a2a40" opacity="0.6" x="24.64" y="-30.4">12</text><text text-anchor="middle" font-size="3.2" font-family="sans-serif" fill="#1a2a40" x="0" y="-31.200000000000003">Land In Use</text><text text-anchor="middle" font-size="5" font-weight="bold" font-family="sans-serif" fill="#1a2a40" x="0" y="2">GOAT ALLEY</text><text text-anchor="middle" font-size="3.5" font-family="sans-serif" fill="#1a2a40" x="0" y="31.200000000000003">Land Rent $50</text></g><rect x="360" y="528" width="56" height="80" fill="#ffffff" stroke="#2a4a7a" stroke-width="0.75" class="board-cell" data-sq="pos-13" data-type="franchise"/><rect x="360.5" y="528.5" width="55" height="17.6" fill="#d4a030" opacity="0.35"/><line x1="360.5" y1="545.6" x2="415.5" y2="545.6" stroke="#d4a030" stroke-width="1.2"/><rect x="360.5" y="589.9" width="55" height="17.6" fill="#d4a030" opacity="0.35"/><line x1="360.5" y1="590.4" x2="415.5" y2="590.4" stroke="#d4a030" stroke-width="1.2"/><g transform="translate(388,568) rotate(0)"><text text-anchor="end" font-size="3" font-family="sans-serif" fill="#1a2a40" opacity="0.6" x="24.64" y="-30.4">13</text><text text-anchor="middle" font-size="3.2" font-family="sans-serif" fill="#1a2a40" x="0" y="-31.200000000000003">Local Public Utility</text><text text-anchor="middle" font-size="5" font-weight="bold" font-family="sans-serif" fill="#1a2a40" x="0" y="2">SLAMBANG TROLL.</text><text text-anchor="middle" font-size="3.5" font-family="sans-serif" fill="#1a2a40" x="0" y="31.200000000000003">Fare $50</text></g><rect x="304" y="528" width="56" height="80" fill="#ffffff" stroke="#2a4a7a" stroke-width="0.75" class="board-cell" data-sq="pos-14" data-type="lot"/><rect x="304.5" y="528.5" width="55" height="17.6" fill="#3a8a3a" opacity="0.35"/><line x1="304.5" y1="545.6" x2="359.5" y2="545.6" stroke="#3a8a3a" stroke-width="1.2"/><rect x="304.5" y="589.9" width="55" height="17.6" fill="#3a8a3a" opacity="0.35"/><line x1="304.5" y1="590.4" x2="359.5" y2="590.4" stroke="#3a8a3a" stroke-width="1.2"/><g transform="translate(332,568) rotate(0)"><text text-anchor="end" font-size="3" font-family="sans-serif" fill="#1a2a40" opacity="0.6" x="24.64" y="-30.4">14</text><text text-anchor="middle" font-size="3.2" font-family="sans-serif" fill="#1a2a40" x="0" y="-31.200000000000003">Land In Use</text><text text-anchor="middle" font-size="5" font-weight="bold" font-family="sans-serif" fill="#1a2a40" x="0" y="2">RICKETY ROW</text><text text-anchor="middle" font-size="3.5" font-family="sans-serif" fill="#1a2a40" x="0" y="31.200000000000003">Land Rent $50</text></g><rect x="248" y="528" width="56" height="80" fill="#ffffff" stroke="#2a4a7a" stroke-width="0.75" class="board-cell" data-sq="pos-15" data-type="taxes"/><rect x="248.5" y="528.5" width="55" height="17.6" fill="#2a5a9a" opacity="0.35"/><line x1="248.5" y1="545.6" x2="303.5" y2="545.6" stroke="#2a5a9a" stroke-width="1.2"/><rect x="248.5" y="589.9" width="55" height="17.6" fill="#2a5a9a" opacity="0.35"/><line x1="248.5" y1="590.4" x2="303.5" y2="590.4" stroke="#2a5a9a" stroke-width="1.2"/><g transform="translate(276,568) rotate(0)"><text text-anchor="end" font-size="3" font-family="sans-serif" fill="#1a2a40" opacity="0.6" x="24.64" y="-30.4">15</text><text text-anchor="middle" font-size="3.2" font-family="sans-serif" fill="#1a2a40" x="0" y="-31.200000000000003">Personal Property</text><text text-anchor="middle" font-size="5" font-weight="bold" font-family="sans-serif" fill="#1a2a40" x="0" y="2">LAND TAXES</text><text text-anchor="middle" font-size="3.5" font-family="sans-serif" fill="#1a2a40" x="0" y="31.200000000000003">$10</text></g><rect x="192" y="528" width="56" height="80" fill="#ffffff" stroke="#2a4a7a" stroke-width="0.75" class="board-cell" data-sq="pos-16" data-type="lot"/><rect x="192.5" y="528.5" width="55" height="17.6" fill="#3a8a3a" opacity="0.35"/><line x1="192.5" y1="545.6" x2="247.5" y2="545.6" stroke="#3a8a3a" stroke-width="1.2"/><rect x="192.5" y="589.9" width="55" height="17.6" fill="#3a8a3a" opacity="0.35"/><line x1="192.5" y1="590.4" x2="247.5" y2="590.4" stroke="#3a8a3a" stroke-width="1.2"/><g transform="translate(220,568) rotate(0)"><text text-anchor="end" font-size="3" font-family="sans-serif" fill="#1a2a40" opacity="0.6" x="24.64" y="-30.4">16</text><text text-anchor="middle" font-size="3.2" font-family="sans-serif" fill="#1a2a40" x="0" y="-31.200000000000003">Land In Use</text><text text-anchor="middle" font-size="5" font-weight="bold" font-family="sans-serif" fill="#1a2a40" x="0" y="2">HELL'S HALF AC.</text><text text-anchor="middle" font-size="3.5" font-family="sans-serif" fill="#1a2a40" x="0" y="31.200000000000003">Land Rent $50</text></g><rect x="136" y="528" width="56" height="80" fill="#ffffff" stroke="#2a4a7a" stroke-width="0.75" class="board-cell" data-sq="pos-17" data-type="broker"/><rect x="136.5" y="528.5" width="55" height="17.6" fill="#c8b020" opacity="0.35"/><line x1="136.5" y1="545.6" x2="191.5" y2="545.6" stroke="#c8b020" stroke-width="1.2"/><rect x="136.5" y="589.9" width="55" height="17.6" fill="#c8b020" opacity="0.35"/><line x1="136.5" y1="590.4" x2="191.5" y2="590.4" stroke="#c8b020" stroke-width="1.2"/><g transform="translate(164,568) rotate(0)"><text text-anchor="end" font-size="3" font-family="sans-serif" fill="#1a2a40" opacity="0.6" x="24.64" y="-30.4">17</text><text text-anchor="middle" font-size="3.2" font-family="sans-serif" fill="#1a2a40" x="0" y="-31.200000000000003">Real Estate</text><text text-anchor="middle" font-size="5" font-weight="bold" font-family="sans-serif" fill="#1a2a40" x="0" y="2">REAL ESTATE</text></g><rect x="80" y="528" width="56" height="80" fill="#ffffff" stroke="#2a4a7a" stroke-width="0.75" class="board-cell" data-sq="pos-18" data-type="lot"/><rect x="80.5" y="528.5" width="55" height="17.6" fill="#3a8a3a" opacity="0.35"/><line x1="80.5" y1="545.6" x2="135.5" y2="545.6" stroke="#3a8a3a" stroke-width="1.2"/><rect x="80.5" y="589.9" width="55" height="17.6" fill="#3a8a3a" opacity="0.35"/><line x1="80.5" y1="590.4" x2="135.5" y2="590.4" stroke="#3a8a3a" stroke-width="1.2"/><g transform="translate(108,568) rotate(0)"><text text-anchor="end" font-size="3" font-family="sans-serif" fill="#1a2a40" opacity="0.6" x="24.64" y="-30.4">18</text><text text-anchor="middle" font-size="3.2" font-family="sans-serif" fill="#1a2a40" x="0" y="-31.200000000000003">Land In Use</text><text text-anchor="middle" font-size="5" font-weight="bold" font-family="sans-serif" fill="#1a2a40" x="0" y="2">THE BOWERY</text><text text-anchor="middle" font-size="3.5" font-family="sans-serif" fill="#1a2a40" x="0" y="31.200000000000003">Land Rent $50</text></g><rect x="0" y="472" width="80" height="56" fill="#ffffff" stroke="#2a4a7a" stroke-width="0.75" class="board-cell" data-sq="pos-20" data-type="lot"/><rect x="0.5" y="472.5" width="79" height="12.32" fill="#3a8a3a" opacity="0.35"/><line x1="0.5" y1="484.32" x2="79.5" y2="484.32" stroke="#3a8a3a" stroke-width="1.2"/><rect x="0.5" y="515.18" width="79" height="12.32" fill="#3a8a3a" opacity="0.35"/><line x1="0.5" y1="515.68" x2="79.5" y2="515.68" stroke="#3a8a3a" stroke-width="1.2"/><g transform="translate(40,500) rotate(0)"><text text-anchor="end" font-size="3" font-family="sans-serif" fill="#1a2a40" opacity="0.6" x="35.2" y="-21.28">20</text><text text-anchor="middle" font-size="3.8" font-family="sans-serif" fill="#1a2a40" x="0" y="-21.84">Land In Use</text><text text-anchor="middle" font-size="6" font-weight="bold" font-family="sans-serif" fill="#1a2a40" x="0" y="2">PROGRESS PARK</text><text text-anchor="middle" font-size="4" font-family="sans-serif" fill="#1a2a40" x="0" y="21.84">Land Rent $25</text></g><rect x="0" y="416" width="80" height="56" fill="#ffffff" stroke="#2a4a7a" stroke-width="0.75" class="board-cell" data-sq="pos-21" data-type="lot"/><rect x="0.5" y="416.5" width="79" height="12.32" fill="#3a8a3a" opacity="0.35"/><line x1="0.5" y1="428.32" x2="79.5" y2="428.32" stroke="#3a8a3a" stroke-width="1.2"/><rect x="0.5" y="459.18" width="79" height="12.32" fill="#3a8a3a" opacity="0.35"/><line x1="0.5" y1="459.68" x2="79.5" y2="459.68" stroke="#3a8a3a" stroke-width="1.2"/><g transform="translate(40,444) rotate(0)"><text text-anchor="end" font-size="3" font-family="sans-serif" fill="#1a2a40" opacity="0.6" x="35.2" y="-21.28">21</text><text text-anchor="middle" font-size="3.8" font-family="sans-serif" fill="#1a2a40" x="0" y="-21.84">Land In Use</text><text text-anchor="middle" font-size="6" font-weight="bold" font-family="sans-serif" fill="#1a2a40" x="0" y="2">GEORGE STREET</text><text text-anchor="middle" font-size="4" font-family="sans-serif" fill="#1a2a40" x="0" y="21.84">Land Rent $25</text></g><rect x="0" y="360" width="80" height="56" fill="#ffffff" stroke="#2a4a7a" stroke-width="0.75" class="board-cell" data-sq="pos-22" data-type="franchise"/><rect x="0.5" y="360.5" width="79" height="12.32" fill="#d4a030" opacity="0.35"/><line x1="0.5" y1="372.32" x2="79.5" y2="372.32" stroke="#d4a030" stroke-width="1.2"/><rect x="0.5" y="403.18" width="79" height="12.32" fill="#d4a030" opacity="0.35"/><line x1="0.5" y1="403.68" x2="79.5" y2="403.68" stroke="#d4a030" stroke-width="1.2"/><g transform="translate(40,388) rotate(0)"><text text-anchor="end" font-size="3" font-family="sans-serif" fill="#1a2a40" opacity="0.6" x="35.2" y="-21.28">22</text><text text-anchor="middle" font-size="3.8" font-family="sans-serif" fill="#1a2a40" x="0" y="-21.84">Local Public Utility</text><text text-anchor="middle" font-size="6" font-weight="bold" font-family="sans-serif" fill="#1a2a40" x="0" y="2">SOAKUM LIGHTING SY.</text><text text-anchor="middle" font-size="4" font-family="sans-serif" fill="#1a2a40" x="0" y="21.84">$50</text></g><rect x="0" y="304" width="80" height="56" fill="#ffffff" stroke="#2a4a7a" stroke-width="0.75" class="board-cell" data-sq="pos-23" data-type="lot"/><rect x="0.5" y="304.5" width="79" height="12.32" fill="#3a8a3a" opacity="0.35"/><line x1="0.5" y1="316.32" x2="79.5" y2="316.32" stroke="#3a8a3a" stroke-width="1.2"/><rect x="0.5" y="347.18" width="79" height="12.32" fill="#3a8a3a" opacity="0.35"/><line x1="0.5" y1="347.68" x2="79.5" y2="347.68" stroke="#3a8a3a" stroke-width="1.2"/><g transform="translate(40,332) rotate(0)"><text text-anchor="end" font-size="3" font-family="sans-serif" fill="#1a2a40" opacity="0.6" x="35.2" y="-21.28">23</text><text text-anchor="middle" font-size="3.8" font-family="sans-serif" fill="#1a2a40" x="0" y="-21.84">Land In Use</text><text text-anchor="middle" font-size="6" font-weight="bold" font-family="sans-serif" fill="#1a2a40" x="0" y="2">JOHNSON ROAD</text><text text-anchor="middle" font-size="4" font-family="sans-serif" fill="#1a2a40" x="0" y="21.84">Land Rent $25</text></g><rect x="0" y="248" width="80" height="56" fill="#ffffff" stroke="#2a4a7a" stroke-width="0.75" class="board-cell" data-sq="pos-24" data-type="taxes"/><rect x="0.5" y="248.5" width="79" height="12.32" fill="#2a5a9a" opacity="0.35"/><line x1="0.5" y1="260.32" x2="79.5" y2="260.32" stroke="#2a5a9a" stroke-width="1.2"/><rect x="0.5" y="291.18" width="79" height="12.32" fill="#2a5a9a" opacity="0.35"/><line x1="0.5" y1="291.68" x2="79.5" y2="291.68" stroke="#2a5a9a" stroke-width="1.2"/><g transform="translate(40,276) rotate(0)"><text text-anchor="end" font-size="3" font-family="sans-serif" fill="#1a2a40" opacity="0.6" x="35.2" y="-21.28">24</text><text text-anchor="middle" font-size="3.8" font-family="sans-serif" fill="#1a2a40" x="0" y="-21.84">Personal Property</text><text text-anchor="middle" font-size="6" font-weight="bold" font-family="sans-serif" fill="#1a2a40" x="0" y="2">IMPROVEMENT TAXES</text><text text-anchor="middle" font-size="4" font-family="sans-serif" fill="#1a2a40" x="0" y="21.84">$25</text></g><rect x="0" y="192" width="80" height="56" fill="#ffffff" stroke="#2a4a7a" stroke-width="0.75" class="board-cell" data-sq="pos-25" data-type="lot"/><rect x="0.5" y="192.5" width="79" height="12.32" fill="#3a8a3a" opacity="0.35"/><line x1="0.5" y1="204.32" x2="79.5" y2="204.32" stroke="#3a8a3a" stroke-width="1.2"/><rect x="0.5" y="235.18" width="79" height="12.32" fill="#3a8a3a" opacity="0.35"/><line x1="0.5" y1="235.68" x2="79.5" y2="235.68" stroke="#3a8a3a" stroke-width="1.2"/><g transform="translate(40,220) rotate(0)"><text text-anchor="end" font-size="3" font-family="sans-serif" fill="#1a2a40" opacity="0.6" x="35.2" y="-21.28">25</text><text text-anchor="middle" font-size="3.8" font-family="sans-serif" fill="#1a2a40" x="0" y="-21.84">Land In Use</text><text text-anchor="middle" font-size="6" font-weight="bold" font-family="sans-serif" fill="#1a2a40" x="0" y="2">POST AVENUE</text><text text-anchor="middle" font-size="4" font-family="sans-serif" fill="#1a2a40" x="0" y="21.84">Land Rent $25</text></g><rect x="0" y="136" width="80" height="56" fill="#ffffff" stroke="#2a4a7a" stroke-width="0.75" class="board-cell" data-sq="pos-26" data-type="broker"/><rect x="0.5" y="136.5" width="79" height="12.32" fill="#c8b020" opacity="0.35"/><line x1="0.5" y1="148.32" x2="79.5" y2="148.32" stroke="#c8b020" stroke-width="1.2"/><rect x="0.5" y="179.18" width="79" height="12.32" fill="#c8b020" opacity="0.35"/><line x1="0.5" y1="179.68" x2="79.5" y2="179.68" stroke="#c8b020" stroke-width="1.2"/><g transform="translate(40,164) rotate(0)"><text text-anchor="end" font-size="3" font-family="sans-serif" fill="#1a2a40" opacity="0.6" x="35.2" y="-21.28">26</text><text text-anchor="middle" font-size="3.8" font-family="sans-serif" fill="#1a2a40" x="0" y="-21.84">Real Estate</text><text text-anchor="middle" font-size="6" font-weight="bold" font-family="sans-serif" fill="#1a2a40" x="0" y="2">REAL ESTATE</text></g><rect x="0" y="80" width="80" height="56" fill="#ffffff" stroke="#2a4a7a" stroke-width="0.75" class="board-cell" data-sq="pos-27" data-type="lot"/><rect x="0.5" y="80.5" width="79" height="12.32" fill="#3a8a3a" opacity="0.35"/><line x1="0.5" y1="92.32" x2="79.5" y2="92.32" stroke="#3a8a3a" stroke-width="1.2"/><rect x="0.5" y="123.18" width="79" height="12.32" fill="#3a8a3a" opacity="0.35"/><line x1="0.5" y1="123.68" x2="79.5" y2="123.68" stroke="#3a8a3a" stroke-width="1.2"/><g transform="translate(40,108) rotate(0)"><text text-anchor="end" font-size="3" font-family="sans-serif" fill="#1a2a40" opacity="0.6" x="35.2" y="-21.28">27</text><text text-anchor="middle" font-size="3.8" font-family="sans-serif" fill="#1a2a40" x="0" y="-21.84">Land In Use</text><text text-anchor="middle" font-size="6" font-weight="bold" font-family="sans-serif" fill="#1a2a40" x="0" y="2">PUBLIC HIGHWAY</text><text text-anchor="middle" font-size="4" font-family="sans-serif" fill="#1a2a40" x="0" y="21.84">Land Rent $75</text></g><rect x="80" y="0" width="56" height="80" fill="#ffffff" stroke="#2a4a7a" stroke-width="0.75" class="board-cell" data-sq="pos-29" data-type="lot"/><rect x="80.5" y="0.5" width="55" height="17.6" fill="#3a8a3a" opacity="0.35"/><line x1="80.5" y1="17.6" x2="135.5" y2="17.6" stroke="#3a8a3a" stroke-width="1.2"/><rect x="80.5" y="61.9" width="55" height="17.6" fill="#3a8a3a" opacity="0.35"/><line x1="80.5" y1="62.4" x2="135.5" y2="62.4" stroke="#3a8a3a" stroke-width="1.2"/><g transform="translate(108,40) rotate(0)"><text text-anchor="end" font-size="3" font-family="sans-serif" fill="#1a2a40" opacity="0.6" x="24.64" y="-30.4">29</text><text text-anchor="middle" font-size="3.2" font-family="sans-serif" fill="#1a2a40" x="0" y="-31.200000000000003">Land In Use</text><text text-anchor="middle" font-size="5" font-weight="bold" font-family="sans-serif" fill="#1a2a40" x="0" y="2">BROADWAY</text><text text-anchor="middle" font-size="3.5" font-family="sans-serif" fill="#1a2a40" x="0" y="31.200000000000003">Land Rent $100</text></g><rect x="136" y="0" width="56" height="80" fill="#ffffff" stroke="#2a4a7a" stroke-width="0.75" class="board-cell" data-sq="pos-30" data-type="go-to-jail"/><rect x="136.5" y="0.5" width="55" height="17.6" fill="#808080" opacity="0.35"/><line x1="136.5" y1="17.6" x2="191.5" y2="17.6" stroke="#808080" stroke-width="1.2"/><rect x="136.5" y="61.9" width="55" height="17.6" fill="#808080" opacity="0.35"/><line x1="136.5" y1="62.4" x2="191.5" y2="62.4" stroke="#808080" stroke-width="1.2"/><g transform="translate(164,40) rotate(0)"><text text-anchor="end" font-size="3" font-family="sans-serif" fill="#1a2a40" opacity="0.6" x="24.64" y="-30.4">30</text><text text-anchor="middle" font-size="3.2" font-family="sans-serif" fill="#1a2a40" x="0" y="-31.200000000000003">No Trespassing</text><text text-anchor="middle" font-size="5" font-weight="bold" font-family="sans-serif" fill="#1a2a40" x="0" y="2">LORD BLUEBLOOD.</text></g><rect x="192" y="0" width="56" height="80" fill="#ffffff" stroke="#2a4a7a" stroke-width="0.75" class="board-cell" data-sq="pos-31" data-type="lot"/><rect x="192.5" y="0.5" width="55" height="17.6" fill="#3a8a3a" opacity="0.35"/><line x1="192.5" y1="17.6" x2="247.5" y2="17.6" stroke="#3a8a3a" stroke-width="1.2"/><rect x="192.5" y="61.9" width="55" height="17.6" fill="#3a8a3a" opacity="0.35"/><line x1="192.5" y1="62.4" x2="247.5" y2="62.4" stroke="#3a8a3a" stroke-width="1.2"/><g transform="translate(220,40) rotate(0)"><text text-anchor="end" font-size="3" font-family="sans-serif" fill="#1a2a40" opacity="0.6" x="24.64" y="-30.4">31</text><text text-anchor="middle" font-size="3.2" font-family="sans-serif" fill="#1a2a40" x="0" y="-31.200000000000003">Land In Use</text><text text-anchor="middle" font-size="5" font-weight="bold" font-family="sans-serif" fill="#1a2a40" x="0" y="2">FIFTH AVENUE</text><text text-anchor="middle" font-size="3.5" font-family="sans-serif" fill="#1a2a40" x="0" y="31.200000000000003">Land Rent $100</text></g><rect x="248" y="0" width="56" height="80" fill="#ffffff" stroke="#2a4a7a" stroke-width="0.75" class="board-cell" data-sq="pos-32" data-type="franchise"/><rect x="248.5" y="0.5" width="55" height="17.6" fill="#d4a030" opacity="0.35"/><line x1="248.5" y1="17.6" x2="303.5" y2="17.6" stroke="#d4a030" stroke-width="1.2"/><rect x="248.5" y="61.9" width="55" height="17.6" fill="#d4a030" opacity="0.35"/><line x1="248.5" y1="62.4" x2="303.5" y2="62.4" stroke="#d4a030" stroke-width="1.2"/><g transform="translate(276,40) rotate(0)"><text text-anchor="end" font-size="3" font-family="sans-serif" fill="#1a2a40" opacity="0.6" x="24.64" y="-30.4">32</text><text text-anchor="middle" font-size="3.2" font-family="sans-serif" fill="#1a2a40" x="0" y="-31.200000000000003">Local Public Utility</text><text text-anchor="middle" font-size="5" font-weight="bold" font-family="sans-serif" fill="#1a2a40" x="0" y="2">TING-A-LING TE.</text><text text-anchor="middle" font-size="3.5" font-family="sans-serif" fill="#1a2a40" x="0" y="31.200000000000003">$50</text></g><rect x="304" y="0" width="56" height="80" fill="#ffffff" stroke="#2a4a7a" stroke-width="0.75" class="board-cell" data-sq="pos-33" data-type="lot"/><rect x="304.5" y="0.5" width="55" height="17.6" fill="#3a8a3a" opacity="0.35"/><line x1="304.5" y1="17.6" x2="359.5" y2="17.6" stroke="#3a8a3a" stroke-width="1.2"/><rect x="304.5" y="61.9" width="55" height="17.6" fill="#3a8a3a" opacity="0.35"/><line x1="304.5" y1="62.4" x2="359.5" y2="62.4" stroke="#3a8a3a" stroke-width="1.2"/><g transform="translate(332,40) rotate(0)"><text text-anchor="end" font-size="3" font-family="sans-serif" fill="#1a2a40" opacity="0.6" x="24.64" y="-30.4">33</text><text text-anchor="middle" font-size="3.2" font-family="sans-serif" fill="#1a2a40" x="0" y="-31.200000000000003">Land In Use</text><text text-anchor="middle" font-size="5" font-weight="bold" font-family="sans-serif" fill="#1a2a40" x="0" y="2">THE LOOP</text><text text-anchor="middle" font-size="3.5" font-family="sans-serif" fill="#1a2a40" x="0" y="31.200000000000003">Land Rent $100</text></g><rect x="360" y="0" width="56" height="80" fill="#ffffff" stroke="#2a4a7a" stroke-width="0.75" class="board-cell" data-sq="pos-34" data-type="luxury"/><rect x="360.5" y="0.5" width="55" height="17.6" fill="#d4708a" opacity="0.35"/><line x1="360.5" y1="17.6" x2="415.5" y2="17.6" stroke="#d4708a" stroke-width="1.2"/><rect x="360.5" y="61.9" width="55" height="17.6" fill="#d4708a" opacity="0.35"/><line x1="360.5" y1="62.4" x2="415.5" y2="62.4" stroke="#d4708a" stroke-width="1.2"/><g transform="translate(388,40) rotate(0)"><text text-anchor="end" font-size="3" font-family="sans-serif" fill="#1a2a40" opacity="0.6" x="24.64" y="-30.4">34</text><text text-anchor="middle" font-size="3.2" font-family="sans-serif" fill="#1a2a40" x="0" y="-31.200000000000003">Luxury</text><text text-anchor="middle" font-size="5" font-weight="bold" font-family="sans-serif" fill="#1a2a40" x="0" y="2">LA SWELLE HOTEL</text><text text-anchor="middle" font-size="3.5" font-family="sans-serif" fill="#1a2a40" x="0" y="31.200000000000003">$25</text></g><rect x="416" y="0" width="56" height="80" fill="#ffffff" stroke="#2a4a7a" stroke-width="0.75" class="board-cell" data-sq="pos-35" data-type="lot"/><rect x="416.5" y="0.5" width="55" height="17.6" fill="#3a8a3a" opacity="0.35"/><line x1="416.5" y1="17.6" x2="471.5" y2="17.6" stroke="#3a8a3a" stroke-width="1.2"/><rect x="416.5" y="61.9" width="55" height="17.6" fill="#3a8a3a" opacity="0.35"/><line x1="416.5" y1="62.4" x2="471.5" y2="62.4" stroke="#3a8a3a" stroke-width="1.2"/><g transform="translate(444,40) rotate(0)"><text text-anchor="end" font-size="3" font-family="sans-serif" fill="#1a2a40" opacity="0.6" x="24.64" y="-30.4">35</text><text text-anchor="middle" font-size="3.2" font-family="sans-serif" fill="#1a2a40" x="0" y="-31.200000000000003">Land In Use</text><text text-anchor="middle" font-size="5" font-weight="bold" font-family="sans-serif" fill="#1a2a40" x="0" y="2">LAKE SHORE DRI.</text><text text-anchor="middle" font-size="3.5" font-family="sans-serif" fill="#1a2a40" x="0" y="31.200000000000003">Land Rent $100</text></g><rect x="472" y="0" width="56" height="80" fill="#ffffff" stroke="#2a4a7a" stroke-width="0.75" class="board-cell" data-sq="pos-36" data-type="lot"/><rect x="472.5" y="0.5" width="55" height="17.6" fill="#3a8a3a" opacity="0.35"/><line x1="472.5" y1="17.6" x2="527.5" y2="17.6" stroke="#3a8a3a" stroke-width="1.2"/><rect x="472.5" y="61.9" width="55" height="17.6" fill="#3a8a3a" opacity="0.35"/><line x1="472.5" y1="62.4" x2="527.5" y2="62.4" stroke="#3a8a3a" stroke-width="1.2"/><g transform="translate(500,40) rotate(0)"><text text-anchor="end" font-size="3" font-family="sans-serif" fill="#1a2a40" opacity="0.6" x="24.64" y="-30.4">36</text><text text-anchor="middle" font-size="3.2" font-family="sans-serif" fill="#1a2a40" x="0" y="-31.200000000000003">Land In Use</text><text text-anchor="middle" font-size="5" font-weight="bold" font-family="sans-serif" fill="#1a2a40" x="0" y="2">EASY STREET</text><text text-anchor="middle" font-size="3.5" font-family="sans-serif" fill="#1a2a40" x="0" y="31.200000000000003">Land Rent $100</text></g><rect x="528" y="80" width="80" height="56" fill="#ffffff" stroke="#2a4a7a" stroke-width="0.75" class="board-cell" data-sq="pos-2" data-type="jail"/><rect x="528.5" y="80.5" width="79" height="12.32" fill="#808080" opacity="0.35"/><line x1="528.5" y1="92.32" x2="607.5" y2="92.32" stroke="#808080" stroke-width="1.2"/><rect x="528.5" y="123.18" width="79" height="12.32" fill="#808080" opacity="0.35"/><line x1="528.5" y1="123.68" x2="607.5" y2="123.68" stroke="#808080" stroke-width="1.2"/><g transform="translate(568,108) rotate(0)"><text text-anchor="end" font-size="3" font-family="sans-serif" fill="#1a2a40" opacity="0.6" x="35.2" y="-21.28">2</text><text text-anchor="middle" font-size="3.8" font-family="sans-serif" fill="#1a2a40" x="0" y="-21.84">Jail</text><text text-anchor="middle" font-size="6" font-weight="bold" font-family="sans-serif" fill="#1a2a40" x="0" y="2">JAIL</text></g><rect x="528" y="136" width="80" height="56" fill="#ffffff" stroke="#2a4a7a" stroke-width="0.75" class="board-cell" data-sq="pos-3" data-type="lot"/><rect x="528.5" y="136.5" width="79" height="12.32" fill="#3a8a3a" opacity="0.35"/><line x1="528.5" y1="148.32" x2="607.5" y2="148.32" stroke="#3a8a3a" stroke-width="1.2"/><rect x="528.5" y="179.18" width="79" height="12.32" fill="#3a8a3a" opacity="0.35"/><line x1="528.5" y1="179.68" x2="607.5" y2="179.68" stroke="#3a8a3a" stroke-width="1.2"/><g transform="translate(568,164) rotate(0)"><text text-anchor="end" font-size="3" font-family="sans-serif" fill="#1a2a40" opacity="0.6" x="35.2" y="-21.28">3</text><text text-anchor="middle" font-size="3.8" font-family="sans-serif" fill="#1a2a40" x="0" y="-21.84">Land In Use</text><text text-anchor="middle" font-size="6" font-weight="bold" font-family="sans-serif" fill="#1a2a40" x="0" y="2">WAYBACK</text><text text-anchor="middle" font-size="4" font-family="sans-serif" fill="#1a2a40" x="0" y="21.84">Land Rent $25</text></g><rect x="528" y="192" width="80" height="56" fill="#ffffff" stroke="#2a4a7a" stroke-width="0.75" class="board-cell" data-sq="pos-4" data-type="lot"/><rect x="528.5" y="192.5" width="79" height="12.32" fill="#3a8a3a" opacity="0.35"/><line x1="528.5" y1="204.32" x2="607.5" y2="204.32" stroke="#3a8a3a" stroke-width="1.2"/><rect x="528.5" y="235.18" width="79" height="12.32" fill="#3a8a3a" opacity="0.35"/><line x1="528.5" y1="235.68" x2="607.5" y2="235.68" stroke="#3a8a3a" stroke-width="1.2"/><g transform="translate(568,220) rotate(0)"><text text-anchor="end" font-size="3" font-family="sans-serif" fill="#1a2a40" opacity="0.6" x="35.2" y="-21.28">4</text><text text-anchor="middle" font-size="3.8" font-family="sans-serif" fill="#1a2a40" x="0" y="-21.84">Land In Use</text><text text-anchor="middle" font-size="6" font-weight="bold" font-family="sans-serif" fill="#1a2a40" x="0" y="2">LONELY LANE</text><text text-anchor="middle" font-size="4" font-family="sans-serif" fill="#1a2a40" x="0" y="21.84">Land Rent $25</text></g><rect x="528" y="248" width="80" height="56" fill="#ffffff" stroke="#2a4a7a" stroke-width="0.75" class="board-cell" data-sq="pos-5" data-type="lot"/><rect x="528.5" y="248.5" width="79" height="12.32" fill="#3a8a3a" opacity="0.35"/><line x1="528.5" y1="260.32" x2="607.5" y2="260.32" stroke="#3a8a3a" stroke-width="1.2"/><rect x="528.5" y="291.18" width="79" height="12.32" fill="#3a8a3a" opacity="0.35"/><line x1="528.5" y1="291.68" x2="607.5" y2="291.68" stroke="#3a8a3a" stroke-width="1.2"/><g transform="translate(568,276) rotate(0)"><text text-anchor="end" font-size="3" font-family="sans-serif" fill="#1a2a40" opacity="0.6" x="35.2" y="-21.28">5</text><text text-anchor="middle" font-size="3.8" font-family="sans-serif" fill="#1a2a40" x="0" y="-21.84">Land In Use</text><text text-anchor="middle" font-size="6" font-weight="bold" font-family="sans-serif" fill="#1a2a40" x="0" y="2">CROSSROADS</text><text text-anchor="middle" font-size="4" font-family="sans-serif" fill="#1a2a40" x="0" y="21.84">Land Rent $25</text></g><rect x="528" y="304" width="80" height="56" fill="#ffffff" stroke="#2a4a7a" stroke-width="0.75" class="board-cell" data-sq="pos-6" data-type="lot"/><rect x="528.5" y="304.5" width="79" height="12.32" fill="#3a8a3a" opacity="0.35"/><line x1="528.5" y1="316.32" x2="607.5" y2="316.32" stroke="#3a8a3a" stroke-width="1.2"/><rect x="528.5" y="347.18" width="79" height="12.32" fill="#3a8a3a" opacity="0.35"/><line x1="528.5" y1="347.68" x2="607.5" y2="347.68" stroke="#3a8a3a" stroke-width="1.2"/><g transform="translate(568,332) rotate(0)"><text text-anchor="end" font-size="3" font-family="sans-serif" fill="#1a2a40" opacity="0.6" x="35.2" y="-21.28">6</text><text text-anchor="middle" font-size="3.8" font-family="sans-serif" fill="#1a2a40" x="0" y="-21.84">Land In Use</text><text text-anchor="middle" font-size="6" font-weight="bold" font-family="sans-serif" fill="#1a2a40" x="0" y="2">JAYTOWN</text><text text-anchor="middle" font-size="4" font-family="sans-serif" fill="#1a2a40" x="0" y="21.84">Land Rent $25</text></g><rect x="528" y="360" width="80" height="56" fill="#ffffff" stroke="#2a4a7a" stroke-width="0.75" class="board-cell" data-sq="pos-7" data-type="taxes"/><rect x="528.5" y="360.5" width="79" height="12.32" fill="#2a5a9a" opacity="0.35"/><line x1="528.5" y1="372.32" x2="607.5" y2="372.32" stroke="#2a5a9a" stroke-width="1.2"/><rect x="528.5" y="403.18" width="79" height="12.32" fill="#2a5a9a" opacity="0.35"/><line x1="528.5" y1="403.68" x2="607.5" y2="403.68" stroke="#2a5a9a" stroke-width="1.2"/><g transform="translate(568,388) rotate(0)"><text text-anchor="end" font-size="3" font-family="sans-serif" fill="#1a2a40" opacity="0.6" x="35.2" y="-21.28">7</text><text text-anchor="middle" font-size="3.8" font-family="sans-serif" fill="#1a2a40" x="0" y="-21.84">Personal Property</text><text text-anchor="middle" font-size="6" font-weight="bold" font-family="sans-serif" fill="#1a2a40" x="0" y="2">TAXES</text><text text-anchor="middle" font-size="4" font-family="sans-serif" fill="#1a2a40" x="0" y="21.84">$10</text></g><rect x="528" y="416" width="80" height="56" fill="#ffffff" stroke="#2a4a7a" stroke-width="0.75" class="board-cell" data-sq="pos-8" data-type="broker"/><rect x="528.5" y="416.5" width="79" height="12.32" fill="#c8b020" opacity="0.35"/><line x1="528.5" y1="428.32" x2="607.5" y2="428.32" stroke="#c8b020" stroke-width="1.2"/><rect x="528.5" y="459.18" width="79" height="12.32" fill="#c8b020" opacity="0.35"/><line x1="528.5" y1="459.68" x2="607.5" y2="459.68" stroke="#c8b020" stroke-width="1.2"/><g transform="translate(568,444) rotate(0)"><text text-anchor="end" font-size="3" font-family="sans-serif" fill="#1a2a40" opacity="0.6" x="35.2" y="-21.28">8</text><text text-anchor="middle" font-size="3.8" font-family="sans-serif" fill="#1a2a40" x="0" y="-21.84">Real Estate</text><text text-anchor="middle" font-size="6" font-weight="bold" font-family="sans-serif" fill="#1a2a40" x="0" y="2">REAL ESTATE</text></g><rect x="528" y="472" width="80" height="56" fill="#ffffff" stroke="#2a4a7a" stroke-width="0.75" class="board-cell" data-sq="pos-9" data-type="lot"/><rect x="528.5" y="472.5" width="79" height="12.32" fill="#3a8a3a" opacity="0.35"/><line x1="528.5" y1="484.32" x2="607.5" y2="484.32" stroke="#3a8a3a" stroke-width="1.2"/><rect x="528.5" y="515.18" width="79" height="12.32" fill="#3a8a3a" opacity="0.35"/><line x1="528.5" y1="515.68" x2="607.5" y2="515.68" stroke="#3a8a3a" stroke-width="1.2"/><g transform="translate(568,500) rotate(0)"><text text-anchor="end" font-size="3" font-family="sans-serif" fill="#1a2a40" opacity="0.6" x="35.2" y="-21.28">9</text><text text-anchor="middle" font-size="3.8" font-family="sans-serif" fill="#1a2a40" x="0" y="-21.84">Land In Use</text><text text-anchor="middle" font-size="6" font-weight="bold" font-family="sans-serif" fill="#1a2a40" x="0" y="2">BOOMTOWN</text><text text-anchor="middle" font-size="4" font-family="sans-serif" fill="#1a2a40" x="0" y="21.84">Land Rent $25</text></g><rect x="80" y="80" width="448" height="448" fill="#f8f4ec"/><polygon points="304,160.64 345.9891718490966,202.62917184909656 405.37082815090344,202.62917184909656 405.37082815090344,262.0108281509034 447.36,304 405.37082815090344,345.9891718490966 405.37082815090344,405.37082815090344 345.9891718490966,405.37082815090344 304,447.36 262.0108281509034,405.37082815090344 202.62917184909656,405.37082815090344 202.62917184909656,345.9891718490966 160.64,304 202.62917184909656,262.0108281509034 202.62917184909656,202.62917184909656 262.0108281509034,202.62917184909656" fill="none" stroke="#6b2020" stroke-width="2.5"/><text x="304" y="288" text-anchor="middle" font-size="10" font-weight="bold" font-family="serif" fill="#6b2020">THE</text><text x="304" y="306" text-anchor="middle" font-size="12" font-weight="bold" font-family="serif" fill="#6b2020">LANDLORD'S GAME</text><text x="304" y="320" text-anchor="middle" font-size="8" font-family="serif" fill="#6b2020">AND PROSPERITY</text><text x="304" y="340" text-anchor="middle" font-size="5.5" font-family="serif" fill="#1a2a40">A Magie Game — Patent No. 1,509,312</text><text x="304" y="350" text-anchor="middle" font-size="5" font-family="serif" fill="#1a2a40">Adgame Company (Inc.), Washington, D.C.</text><text x="304" y="94" text-anchor="middle" font-size="5" font-family="sans-serif" fill="#c8b020">Your Checker Yellow</text><text x="304" y="518" text-anchor="middle" font-size="5" font-family="sans-serif" fill="#2a5a9a">Your Checker Blue</text><text x="94" y="304" text-anchor="middle" font-size="5" font-family="sans-serif" fill="#3a8a3a" transform="rotate(-90,94,304)">Your Checker Green</text><text x="514" y="304" text-anchor="middle" font-size="5" font-family="sans-serif" fill="#8c2020" transform="rotate(90,514,304)">Your Checker Red</text><text x="151.31458592454828" y="304" text-anchor="middle" font-size="5" font-weight="bold" font-family="serif" fill="#1a2a40" transform="rotate(-90,151.31458592454828,304)">General Land Office</text><text x="456.6854140754517" y="304" text-anchor="middle" font-size="5" font-weight="bold" font-family="serif" fill="#1a2a40" transform="rotate(90,456.6854140754517,304)">Public Treasury</text><line x1="151.31458592454828" y1="268" x2="151.31458592454828" y2="161.2345859245483" stroke="#1a2a40" stroke-width="0.8"/><path d="M 149.31458592454828,164.2345859245483 L 151.31458592454828,161.2345859245483 L 153.31458592454828,164.2345859245483" fill="none" stroke="#1a2a40" stroke-width="0.8"/><rect x="119.95458592454828" y="123.39458592454828" width="62.720000000000006" height="35.84" fill="#f8f4ec" stroke="#2a4a7a" stroke-width="0.75" rx="1" class="board-cell" data-sq="inner-1" data-type="land-in-use"/><text x="151.31458592454828" y="139.31458592454828" text-anchor="middle" font-size="3.5" font-family="sans-serif" fill="#1a2a40">For Sale</text><text x="151.31458592454828" y="146.31458592454828" text-anchor="middle" font-size="3.5" font-family="sans-serif" fill="#1a2a40">Land in Use</text><line x1="151.31458592454828" y1="340" x2="151.31458592454828" y2="446.7654140754517" stroke="#1a2a40" stroke-width="0.8"/><path d="M 149.31458592454828,443.7654140754517 L 151.31458592454828,446.7654140754517 L 153.31458592454828,443.7654140754517" fill="none" stroke="#1a2a40" stroke-width="0.8"/><rect x="119.95458592454828" y="448.7654140754517" width="62.720000000000006" height="35.84" fill="#f8f4ec" stroke="#2a4a7a" stroke-width="0.75" rx="1" class="board-cell" data-sq="inner-2" data-type="idle-land"/><text x="151.31458592454828" y="464.6854140754517" text-anchor="middle" font-size="3.5" font-family="sans-serif" fill="#1a2a40">For Sale</text><text x="151.31458592454828" y="471.6854140754517" text-anchor="middle" font-size="3.5" font-family="sans-serif" fill="#1a2a40">Idle Land</text><line x1="456.6854140754517" y1="268" x2="456.6854140754517" y2="161.2345859245483" stroke="#1a2a40" stroke-width="0.8"/><path d="M 454.6854140754517,164.2345859245483 L 456.6854140754517,161.2345859245483 L 458.6854140754517,164.2345859245483" fill="none" stroke="#1a2a40" stroke-width="0.8"/><rect x="425.3254140754517" y="123.39458592454828" width="62.720000000000006" height="35.84" fill="#f8f4ec" stroke="#2a4a7a" stroke-width="0.75" rx="1" class="board-cell" data-sq="inner-3" data-type="general-fund"/><text x="456.6854140754517" y="139.31458592454828" text-anchor="middle" font-size="3.5" font-family="sans-serif" fill="#1a2a40">General Fund</text><text x="456.6854140754517" y="146.31458592454828" text-anchor="middle" font-size="3.5" font-family="sans-serif" fill="#1a2a40"></text><line x1="456.6854140754517" y1="340" x2="456.6854140754517" y2="446.7654140754517" stroke="#1a2a40" stroke-width="0.8"/><path d="M 454.6854140754517,443.7654140754517 L 456.6854140754517,446.7654140754517 L 458.6854140754517,443.7654140754517" fill="none" stroke="#1a2a40" stroke-width="0.8"/><rect x="425.3254140754517" y="448.7654140754517" width="62.720000000000006" height="35.84" fill="#f8f4ec" stroke="#2a4a7a" stroke-width="0.75" rx="1" class="board-cell" data-sq="inner-4" data-type="rent-fund"/><text x="456.6854140754517" y="464.6854140754517" text-anchor="middle" font-size="3.5" font-family="sans-serif" fill="#1a2a40">Prosperity Land</text><text x="456.6854140754517" y="471.6854140754517" text-anchor="middle" font-size="3.5" font-family="sans-serif" fill="#1a2a40">Rent Fund</text>
</svg>