<svg xmlns="http://www.w3.org/2000/svg" viewBox="0 0 360 360" width="360" height="360">
<rect x="0" y="0" width="360" height="360" fill="transparent"/><rect x="0" y="0" width="30" height="30" fill="#5a8a3a" stroke="#3d6b28" stroke-width="2" data-sq="a12" data-type="land" class="board-cell"/><rect x="30" y="0" width="30" height="30" fill="#5a8a3a" stroke="#3d6b28" stroke-width="2" data-sq="b12" data-type="land" class="board-cell"/><rect x="60" y="0" width="30" height="30" fill="#5a8a3a" stroke="#3d6b28" stroke-width="2" data-sq="c12" data-type="land" class="board-cell"/><rect x="90" y="0" width="30" height="30" fill="#5a8a3a" stroke="#3d6b28" stroke-width="2" data-sq="d12" data-type="land" class="board-cell"/><rect x="120" y="0" width="30" height="30" fill="#5a8a3a" stroke="#3d6b28" stroke-width="2" data-sq="e12" data-type="land" class="board-cell"/><rect x="150" y="0" width="30" height="30" fill="#c8a832" stroke="#9a8020" stroke-width="2" data-sq="f12" data-type="hq" class="board-cell"/><rect x="180" y="0" width="30" height="30" fill="#5a8a3a" stroke="#3d6b28" stroke-width="2" data-sq="g12" data-type="land" class="board-cell"/><rect x="210" y="0" width="30" height="30" fill="#5a8a3a" stroke="#3d6b28" stroke-width="2" data-sq="h12" data-type="land" class="board-cell"/><rect x="240" y="0" width="30" height="30" fill="#5a8a3a" stroke="#3d6b28" stroke-width="2" data-sq="i12" data-type="land" class="board-cell"/><rect x="270" y="0" width="30" height="30" fill="#5a8a3a" stroke="#3d6b28" stroke-width="2" data-sq="j12" data-type="land" class="board-cell"/><rect x="300" y="0" width="30" height="30" fill="#5a8a3a" stroke="#3d6b28" stroke-width="2" data-sq="k12" data-type="land" class="board-cell"/><rect x="330" y="0" width="30" height="30" fill="#5a8a3a" stroke="#3d6b28" stroke-width="2" data-sq="l12" data-type="land" class="board-cell"/><rect x="0" y="30" width="30" height="30" fill="#5a8a3a" stroke="#3d6b28" stroke-width="2" data-sq="a11" data-type="land" class="board-cell"/><rect x="30" y="30" width="30" height="30" fill="#5a8a3a" stroke="#3d6b28" stroke-width="2" data-sq="b11" data-type="land" class="board-cell"/><rect x="60" y="30" width="30" height="30" fill="#5a8a3a" stroke="#3d6b28" stroke-width="2" data-sq="c11" data-type="land" class="board-cell"/><rect x="90" y="30" width="30" height="30" fill="#5a8a3a" stroke="#3d6b28" stroke-width="2" data-sq="d11" data-type="land" class="board-cell"/><rect x="120" y="30" width="30" height="30" fill="#5a8a3a" stroke="#3d6b28" stroke-width="2" data-sq="e11" data-type="land" class="board-cell"/><rect x="150" y="30" width="30" height="30" fill="#5a8a3a" stroke="#3d6b28" stroke-width="2" data-sq="f11" data-type="land" class="board-cell"/><rect x="180" y="30" width="30" height="30" fill="#5a8a3a" stroke="#3d6b28" stroke-width="2" data-sq="g11" data-type="land" class="board-cell"/><rect x="210" y="30" width="30" height="30" fill="#5a8a3a" stroke="#3d6b28" stroke-width="2" data-sq="h11" data-type="land" class="board-cell"/><rect x="240" y="30" width="30" height="30" fill="#3a6e9e" stroke="#2a5580" stroke-width="2" data-sq="i11" data-type="lake" class="board-cell"/><rect x="270" y="30" width="30" height="30" fill="#5a8a3a" stroke="#3d6b28" stroke-width="2" data-sq="j11" data-type="land" class="board-cell"/><rect x="300" y="30" width="30" height="30" fill="#5a8a3a" stroke="#3d6b28" stroke-width="2" data-sq="k11" data-type="land" class="board-cell"/><rect x="330" y="30" width="30" height="30" fill="#5a8a3a" stroke="#3d6b28" stroke-width="2" data-sq="l11" data-type="land" class="board-cell"/><rect x="0" y="60" width="30" height="30" fill="#5a8a3a" stroke="#3d6b28" stroke-width="2" data-sq="a10" data-type="land" class="board-cell"/><rect x="30" y="60" width="30" height="30" fill="#5a8a3a" stroke="#3d6b28" stroke-width="2" data-sq="b10" data-type="land" class="board-cell"/><rect x="60" y="60" width="30" height="30" fill="#5a8a3a" stroke="#3d6b28" stroke-width="2" data-sq="c10" data-type="land" class="board-cell"/><rect x="90" y="60" width="30" height="30" fill="#5a8a3a" stroke="#3d6b28" stroke-width="2" data-sq="d10" data-type="land" class="board-cell"/><rect x="120" y="60" width="30" height="30" fill="#5a8a3a" stroke="#3d6b28" stroke-width="2" data-sq="e10" data-type="land" class="board-cell"/><rect x="150" y="60" width="30" height="30" fill="#5a8a3a" stroke="#3d6b28" stroke-width="2" data-sq="f10" data-type="land" class="board-cell"/><rect x="180" y="60" width="30" height="30" fill="#5a8a3a" stroke="#3d6b28" stroke-width="2" data-sq="g10" data-type="land" class="board-cell"/><rect x="210" y="60" width="30" height="30" fill="#5a8a3a" stroke="#3d6b28" stroke-width="2" data-sq="h10" data-type="land" class="board-cell"/><rect x="240" y="60" width="30" height="30" fill="#5a8a3a" stroke="#3d6b28" stroke-width="2" data-sq="i10" data-type="land" class="board-cell"/><rect x="270" y="60" width="30" height="30" fill="#5a8a3a" stroke="#3d6b28" stroke-width="2" data-sq="j10" data-type="land" class="board-cell"/><rect x="300" y="60" width="30" height="30" fill="#5a8a3a" stroke="#3d6b28" stroke-width="2" data-sq="k10" data-type="land" class="board-cell"/><rect x="330" y="60" width="30" height="30" fill="#5a8a3a" stroke="#3d6b28" stroke-width="2" data-sq="l10" data-type="land" class="board-cell"/><rect x="0" y="90" width="30" height="30" fill="#3a6e9e" stroke="#2a5580" stroke-width="2" data-sq="a9" data-type="sea" class="board-cell"/><rect x="30" y="90" width="30" height="30" fill="#3a6e9e" stroke="#2a5580" stroke-width="2" data-sq="b9" data-type="sea" class="board-cell"/><rect x="60" y="90" width="30" height="30" fill="#3a6e9e" stroke="#2a5580" stroke-width="2" data-sq="c9" data-type="sea" class="board-cell"/><rect x="90" y="90" width="30" height="30" fill="#3a6e9e" stroke="#2a5580" stroke-width="2" data-sq="d9" data-type="sea" class="board-cell"/><rect x="120" y="90" width="30" height="30" fill="#3a6e9e" stroke="#2a5580" stroke-width="2" data-sq="e9" data-type="sea" class="board-cell"/><rect x="150" y="90" width="30" height="30" fill="#3a6e9e" stroke="#2a5580" stroke-width="2" data-sq="f9" data-type="sea" class="board-cell"/><rect x="180" y="90" width="30" height="30" fill="#5a8a3a" stroke="#3d6b28" stroke-width="2" data-sq="g9" data-type="land" class="board-cell"/><rect x="210" y="90" width="30" height="30" fill="#5a8a3a" stroke="#3d6b28" stroke-width="2" data-sq="h9" data-type="land" class="board-cell"/><rect x="240" y="90" width="30" height="30" fill="#5a8a3a" stroke="#3d6b28" stroke-width="2" data-sq="i9" data-type="land" class="board-cell"/><rect x="270" y="90" width="30" height="30" fill="#5a8a3a" stroke="#3d6b28" stroke-width="2" data-sq="j9" data-type="land" class="board-cell"/><rect x="300" y="90" width="30" height="30" fill="#5a8a3a" stroke="#3d6b28" stroke-width="2" data-sq="k9" data-type="land" class="board-cell"/><rect x="330" y="90" width="30" height="30" fill="#5a8a3a" stroke="#3d6b28" stroke-width="2" data-sq="l9" data-type="land" class="board-cell"/><rect x="0" y="120" width="30" height="30" fill="#3a6e9e" stroke="#2a5580" stroke-width="2" data-sq="a8" data-type="sea" class="board-cell"/><rect x="30" y="120" width="30" height="30" fill="#3a6e9e" stroke="#2a5580" stroke-width="2" data-sq="b8" data-type="sea" class="board-cell"/><rect x="60" y="120" width="30" height="30" fill="#3a6e9e" stroke="#2a5580" stroke-width="2" data-sq="c8" data-type="sea" class="board-cell"/><rect x="90" y="120" width="30" height="30" fill="#3a6e9e" stroke="#2a5580" stroke-width="2" data-sq="d8" data-type="sea" class="board-cell"/><rect x="120" y="120" width="30" height="30" fill="#3a6e9e" stroke="#2a5580" stroke-width="2" data-sq="e8" data-type="sea" class="board-cell"/><rect x="150" y="120" width="30" height="30" fill="#3a6e9e" stroke="#2a5580" stroke-width="2" data-sq="f8" data-type="sea" class="board-cell"/><rect x="180" y="120" width="30" height="30" fill="#3a6e9e" stroke="#2a5580" stroke-width="2" data-sq="g8" data-type="sea" class="board-cell"/><rect x="210" y="120" width="30" height="30" fill="#3a6e9e" stroke="#2a5580" stroke-width="2" data-sq="h8" data-type="sea" class="board-cell"/><rect x="240" y="120" width="30" height="30" fill="#5a8a3a" stroke="#3d6b28" stroke-width="2" data-sq="i8" data-type="land" class="board-cell"/><rect x="270" y="120" width="30" height="30" fill="#5a8a3a" stroke="#3d6b28" stroke-width="2" data-sq="j8" data-type="land" class="board-cell"/><rect x="300" y="120" width="30" height="30" fill="#5a8a3a" stroke="#3d6b28" stroke-width="2" data-sq="k8" data-type="land" class="board-cell"/><rect x="330" y="120" width="30" height="30" fill="#5a8a3a" stroke="#3d6b28" stroke-width="2" data-sq="l8" data-type="land" class="board-cell"/><rect x="0" y="150" width="30" height="30" fill="#3a6e9e" stroke="#2a5580" stroke-width="2" data-sq="a7" data-type="sea" class="board-cell"/><rect x="30" y="150" width="30" height="30" fill="#3a6e9e" stroke="#2a5580" stroke-width="2" data-sq="b7" data-type="sea" class="board-cell"/><rect x="60" y="150" width="30" height="30" fill="#3a6e9e" stroke="#2a5580" stroke-width="2" data-sq="c7" data-type="sea" class="board-cell"/><rect x="90" y="150" width="30" height="30" fill="#3a6e9e" stroke="#2a5580" stroke-width="2" data-sq="d7" data-type="sea" class="board-cell"/><rect x="120" y="150" width="30" height="30" fill="#3a6e9e" stroke="#2a5580" stroke-width="2" data-sq="e7" data-type="sea" class="board-cell"/><rect x="150" y="150" width="30" height="30" fill="#3a6e9e" stroke="#2a5580" stroke-width="2" data-sq="f7" data-type="sea" class="board-cell"/><rect x="180" y="150" width="30" height="30" fill="#3a6e9e" stroke="#2a5580" stroke-width="2" data-sq="g7" data-type="sea" class="board-cell"/><rect x="210" y="150" width="30" height="30" fill="#3a6e9e" stroke="#2a5580" stroke-width="2" data-sq="h7" data-type="sea" class="board-cell"/><rect x="240" y="150" width="30" height="30" fill="#5a8a3a" stroke="#3d6b28" stroke-width="2" data-sq="i7" data-type="land" class="board-cell"/><rect x="270" y="150" width="30" height="30" fill="#5a8a3a" stroke="#3d6b28" stroke-width="2" data-sq="j7" data-type="land" class="board-cell"/><rect x="300" y="150" width="30" height="30" fill="#5a8a3a" stroke="#3d6b28" stroke-width="2" data-sq="k7" data-type="land" class="board-cell"/><rect x="330" y="150" width="30" height="30" fill="#5a8a3a" stroke="#3d6b28" stroke-width="2" data-sq="l7" data-type="land" class="board-cell"/><rect x="0" y="180" width="30" height="30" fill="#3a6e9e" stroke="#2a5580" stroke-width="2" data-sq="a6" data-type="sea" class="board-cell"/><rect x="30" y="180" width="30" height="30" fill="#3a6e9e" stroke="#2a5580" stroke-width="2" data-sq="b6" data-type="sea" class="board-cell"/><rect x="60" y="180" width="30" height="30" fill="#3a6e9e" stroke="#2a5580" stroke-width="2" data-sq="c6" data-type="sea" class="board-cell"/><rect x="90" y="180" width="30" height="30" fill="#3a6e9e" stroke="#2a5580" stroke-width="2" data-sq="d6" data-type="sea" class="board-cell"/><rect x="120" y="180" width="30" height="30" fill="#3a6e9e" stroke="#2a5580" stroke-width="2" data-sq="e6" data-type="sea" class="board-cell"/><rect x="150" y="180" width="30" height="30" fill="#3a6e9e" stroke="#2a5580" stroke-width="2" data-sq="f6" data-type="sea" class="board-cell"/><rect x="180" y="180" width="30" height="30" fill="#3a6e9e" stroke="#2a5580" stroke-width="2" data-sq="g6" data-type="sea" class="board-cell"/><rect x="210" y="180" width="30" height="30" fill="#3a6e9e" stroke="#2a5580" stroke-width="2" data-sq="h6" data-type="sea" class="board-cell"/><rect x="240" y="180" width="30" height="30" fill="#5a8a3a" stroke="#3d6b28" stroke-width="2" data-sq="i6" data-type="land" class="board-cell"/><rect x="270" y="180" width="30" height="30" fill="#5a8a3a" stroke="#3d6b28" stroke-width="2" data-sq="j6" data-type="land" class="board-cell"/><rect x="300" y="180" width="30" height="30" fill="#5a8a3a" stroke="#3d6b28" stroke-width="2" data-sq="k6" data-type="land" class="board-cell"/><rect x="330" y="180" width="30" height="30" fill="#5a8a3a" stroke="#3d6b28" stroke-width="2" data-sq="l6" data-type="land" class="board-cell"/><rect x="0" y="210" width="30" height="30" fill="#3a6e9e" stroke="#2a5580" stroke-width="2" data-sq="a5" data-type="sea" class="board-cell"/><rect x="30" y="210" width="30" height="30" fill="#3a6e9e" stroke="#2a5580" stroke-width="2" data-sq="b5" data-type="sea" class="board-cell"/><rect x="60" y="210" width="30" height="30" fill="#3a6e9e" stroke="#2a5580" stroke-width="2" data-sq="c5" data-type="sea" class="board-cell"/><rect x="90" y="210" width="30" height="30" fill="#3a6e9e" stroke="#2a5580" stroke-width="2" data-sq="d5" data-type="sea" class="board-cell"/><rect x="120" y="210" width="30" height="30" fill="#3a6e9e" stroke="#2a5580" stroke-width="2" data-sq="e5" data-type="sea" class="board-cell"/><rect x="150" y="210" width="30" height="30" fill="#3a6e9e" stroke="#2a5580" stroke-width="2" data-sq="f5" data-type="sea" class="board-cell"/><rect x="180" y="210" width="30" height="30" fill="#3a6e9e" stroke="#2a5580" stroke-width="2" data-sq="g5" data-type="sea" class="board-cell"/><rect x="210" y="210" width="30" height="30" fill="#3a6e9e" stroke="#2a5580" stroke-width="2" data-sq="h5" data-type="sea" class="board-cell"/><rect x="240" y="210" width="30" height="30" fill="#5a8a3a" stroke="#3d6b28" stroke-width="2" data-sq="i5" data-type="land" class="board-cell"/><rect x="270" y="210" width="30" height="30" fill="#5a8a3a" stroke="#3d6b28" stroke-width="2" data-sq="j5" data-type="land" class="board-cell"/><rect x="300" y="210" width="30" height="30" fill="#5a8a3a" stroke="#3d6b28" stroke-width="2" data-sq="k5" data-type="land" class="board-cell"/><rect x="330" y="210" width="30" height="30" fill="#5a8a3a" stroke="#3d6b28" stroke-width="2" data-sq="l5" data-type="land" class="board-cell"/><rect x="0" y="240" width="30" height="30" fill="#3a6e9e" stroke="#2a5580" stroke-width="2" data-sq="a4" data-type="sea" class="board-cell"/><rect x="30" y="240" width="30" height="30" fill="#3a6e9e" stroke="#2a5580" stroke-width="2" data-sq="b4" data-type="sea" class="board-cell"/><rect x="60" y="240" width="30" height="30" fill="#3a6e9e" stroke="#2a5580" stroke-width="2" data-sq="c4" data-type="sea" class="board-cell"/><rect x="90" y="240" width="30" height="30" fill="#3a6e9e" stroke="#2a5580" stroke-width="2" data-sq="d4" data-type="sea" class="board-cell"/><rect x="120" y="240" width="30" height="30" fill="#3a6e9e" stroke="#2a5580" stroke-width="2" data-sq="e4" data-type="sea" class="board-cell"/><rect x="150" y="240" width="30" height="30" fill="#3a6e9e" stroke="#2a5580" stroke-width="2" data-sq="f4" data-type="sea" class="board-cell"/><rect x="180" y="240" width="30" height="30" fill="#5a8a3a" stroke="#3d6b28" stroke-width="2" data-sq="g4" data-type="land" class="board-cell"/><rect x="210" y="240" width="30" height="30" fill="#5a8a3a" stroke="#3d6b28" stroke-width="2" data-sq="h4" data-type="land" class="board-cell"/><rect x="240" y="240" width="30" height="30" fill="#5a8a3a" stroke="#3d6b28" stroke-width="2" data-sq="i4" data-type="land" class="board-cell"/><rect x="270" y="240" width="30" height="30" fill="#5a8a3a" stroke="#3d6b28" stroke-width="2" data-sq="j4" data-type="land" class="board-cell"/><rect x="300" y="240" width="30" height="30" fill="#5a8a3a" stroke="#3d6b28" stroke-width="2" data-sq="k4" data-type="land" class="board-cell"/><rect x="330" y="240" width="30" height="30" fill="#5a8a3a" stroke="#3d6b28" stroke-width="2" data-sq="l4" data-type="land" class="board-cell"/><rect x="0" y="270" width="30" height="30" fill="#5a8a3a" stroke="#3d6b28" stroke-width="2" data-sq="a3" data-type="land" class="board-cell"/><rect x="30" y="270" width="30" height="30" fill="#5a8a3a" stroke="#3d6b28" stroke-width="2" data-sq="b3" data-type="land" class="board-cell"/><rect x="60" y="270" width="30" height="30" fill="#5a8a3a" stroke="#3d6b28" stroke-width="2" data-sq="c3" data-type="land" class="board-cell"/><rect x="90" y="270" width="30" height="30" fill="#5a8a3a" stroke="#3d6b28" stroke-width="2" data-sq="d3" data-type="land" class="board-cell"/><rect x="120" y="270" width="30" height="30" fill="#5a8a3a" stroke="#3d6b28" stroke-width="2" data-sq="e3" data-type="land" class="board-cell"/><rect x="150" y="270" width="30" height="30" fill="#5a8a3a" stroke="#3d6b28" stroke-width="2" data-sq="f3" data-type="land" class="board-cell"/><rect x="180" y="270" width="30" height="30" fill="#5a8a3a" stroke="#3d6b28" stroke-width="2" data-sq="g3" data-type="land" class="board-cell"/><rect x="210" y="270" width="30" height="30" fill="#5a8a3a" stroke="#3d6b28" stroke-width="2" data-sq="h3" data-type="land" class="board-cell"/><rect x="240" y="270" width="30" height="30" fill="#5a8a3a" stroke="#3d6b28" stroke-width="2" data-sq="i3" data-type="land" class="board-cell"/><rect x="270" y="270" width="30" height="30" fill="#5a8a3a" stroke="#3d6b28" stroke-width="2" data-sq="j3" data-type="land" class="board-cell"/><rect x="300" y="270" width="30" height="30" fill="#5a8a3a" stroke="#3d6b28" stroke-width="2" data-sq="k3" data-type="land" class="board-cell"/><rect x="330" y="270" width="30" height="30" fill="#5a8a3a" stroke="#3d6b28" stroke-width="2" data-sq="l3" data-type="land" class="board-cell"/><rect x="0" y="300" width="30" height="30" fill="#5a8a3a" stroke="#3d6b28" stroke-width="2" data-sq="a2" data-type="land" class="board-cell"/><rect x="30" y="300" width="30" height="30" fill="#5a8a3a" stroke="#3d6b28" stroke-width="2" data-sq="b2" data-type="land" class="board-cell"/><rect x="60" y="300" width="30" height="30" fill="#5a8a3a" stroke="#3d6b28" stroke-width="2" data-sq="c2" data-type="land" class="board-cell"/><rect x="90" y="300" width="30" height="30" fill="#5a8a3a" stroke="#3d6b28" stroke-width="2" data-sq="d2" data-type="land" class="board-cell"/><rect x="120" y="300" width="30" height="30" fill="#5a8a3a" stroke="#3d6b28" stroke-width="2" data-sq="e2" data-type="land" class="board-cell"/><rect x="150" y="300" width="30" height="30" fill="#5a8a3a" stroke="#3d6b28" stroke-width="2" data-sq="f2" data-type="land" class="board-cell"/><rect x="180" y="300" width="30" height="30" fill="#5a8a3a" stroke="#3d6b28" stroke-width="2" data-sq="g2" data-type="land" class="board-cell"/><rect x="210" y="300" width="30" height="30" fill="#5a8a3a" stroke="#3d6b28" stroke-width="2" data-sq="h2" data-type="land" class="board-cell"/><rect x="240" y="300" width="30" height="30" fill="#3a6e9e" stroke="#2a5580" stroke-width="2" data-sq="i2" data-type="lake" class="board-cell"/><rect x="270" y="300" width="30" height="30" fill="#5a8a3a" stroke="#3d6b28" stroke-width="2" data-sq="j2" data-type="land" class="board-cell"/><rect x="300" y="300" width="30" height="30" fill="#5a8a3a" stroke="#3d6b28" stroke-width="2" data-sq="k2" data-type="land" class="board-cell"/><rect x="330" y="300" width="30" height="30" fill="#5a8a3a" stroke="#3d6b28" stroke-width="2" data-sq="l2" data-type="land" class="board-cell"/><rect x="0" y="330" width="30" height="30" fill="#5a8a3a" stroke="#3d6b28" stroke-width="2" data-sq="a1" data-type="land" class="board-cell"/><rect x="30" y="330" width="30" height="30" fill="#5a8a3a" stroke="#3d6b28" stroke-width="2" data-sq="b1" data-type="land" class="board-cell"/><rect x="60" y="330" width="30" height="30" fill="#5a8a3a" stroke="#3d6b28" stroke-width="2" data-sq="c1" data-type="land" class="board-cell"/><rect x="90" y="330" width="30" height="30" fill="#5a8a3a" stroke="#3d6b28" stroke-width="2" data-sq="d1" data-type="land" class="board-cell"/><rect x="120" y="330" width="30" height="30" fill="#5a8a3a" stroke="#3d6b28" stroke-width="2" data-sq="e1" data-type="land" class="board-cell"/><rect x="150" y="330" width="30" height="30" fill="#c8a832" stroke="#9a8020" stroke-width="2" data-sq="f1" data-type="hq" class="board-cell"/><rect x="180" y="330" width="30" height="30" fill="#5a8a3a" stroke="#3d6b28" stroke-width="2" data-sq="g1" data-type="land" class="board-cell"/><rect x="210" y="330" width="30" height="30" fill="#5a8a3a" stroke="#3d6b28" stroke-width="2" data-sq="h1" data-type="land" class="board-cell"/><rect x="240" y="330" width="30" height="30" fill="#5a8a3a" stroke="#3d6b28" stroke-width="2" data-sq="i1" data-type="land" class="board-cell"/><rect x="270" y="330" width="30" height="30" fill="#5a8a3a" stroke="#3d6b28" stroke-width="2" data-sq="j1" data-type="land" class="board-cell"/><rect x="300" y="330" width="30" height="30" fill="#5a8a3a" stroke="#3d6b28" stroke-width="2" data-sq="k1" data-type="land" class="board-cell"/><rect x="330" y="330" width="30" height="30" fill="#5a8a3a" stroke="#3d6b28" stroke-width="2" data-sq="l1" data-type="land" class="board-cell"/>
<path d="M165,105 L165,75 L195,75 L225,75 L255,75 L255,45" fill="none" stroke="#3a6e9e" stroke-width="9" stroke-linecap="round" stroke-linejoin="round"/><path d="M165,255 L165,285 L195,285 L225,285 L255,285 L255,315" fill="none" stroke="#3a6e9e" stroke-width="9" stroke-linecap="round" stroke-linejoin="round"/>
</svg>