<svg xmlns="http://www.w3.org/2000/svg" viewBox="0 0 556.6 157.39999999999998" width="556.6" height="157.39999999999998">
<rect x="8" y="8" width="540.6" height="141.39999999999998" rx="22" ry="22" fill="#7A5A32"/><rect x="14" y="14" width="528.6" height="129.39999999999998" rx="18" ry="18" fill="#9B7740"/><ellipse cx="48" cy="78.69999999999999" rx="24" ry="50" fill="#4E3320" stroke="#3A2515" stroke-width="1.5" class="board-cell" data-sq="store-1"/><ellipse cx="508.6" cy="78.69999999999999" rx="24" ry="50" fill="#4E3320" stroke="#3A2515" stroke-width="1.5" class="board-cell" data-sq="store-0"/><circle cx="116.3" cy="52.3" r="22" fill="#4E3320" stroke="#3A2515" stroke-width="1.5" class="board-cell" data-sq="pit-5"/><image href="../pieces/sets/playstrategy-oware/4.svg" x="98.69999999999999" y="34.699999999999996" width="35.2" height="35.2" pointer-events="none"/><circle cx="181.1" cy="52.3" r="22" fill="#4E3320" stroke="#3A2515" stroke-width="1.5" class="board-cell" data-sq="pit-4"/><image href="../pieces/sets/playstrategy-oware/4.svg" x="163.5" y="34.699999999999996" width="35.2" height="35.2" pointer-events="none"/><circle cx="245.89999999999998" cy="52.3" r="22" fill="#4E3320" stroke="#3A2515" stroke-width="1.5" class="board-cell" data-sq="pit-3"/><image href="../pieces/sets/playstrategy-oware/4.svg" x="228.29999999999998" y="34.699999999999996" width="35.2" height="35.2" pointer-events="none"/><circle cx="310.7" cy="52.3" r="22" fill="#4E3320" stroke="#3A2515" stroke-width="1.5" class="board-cell" data-sq="pit-2"/><image href="../pieces/sets/playstrategy-oware/4.svg" x="293.09999999999997" y="34.699999999999996" width="35.2" height="35.2" pointer-events="none"/><circle cx="375.5" cy="52.3" r="22" fill="#4E3320" stroke="#3A2515" stroke-width="1.5" class="board-cell" data-sq="pit-1"/><image href="../pieces/sets/playstrategy-oware/4.svg" x="357.9" y="34.699999999999996" width="35.2" height="35.2" pointer-events="none"/><circle cx="440.3" cy="52.3" r="22" fill="#4E3320" stroke="#3A2515" stroke-width="1.5" class="board-cell" data-sq="pit-0"/><image href="../pieces/sets/playstrategy-oware/4.svg" x="422.7" y="34.699999999999996" width="35.2" height="35.2" pointer-events="none"/><circle cx="116.3" cy="105.09999999999998" r="22" fill="#4E3320" stroke="#3A2515" stroke-width="1.5" class="board-cell" data-sq="pit-6"/><image href="../pieces/sets/playstrategy-oware/4.svg" x="98.69999999999999" y="87.49999999999997" width="35.2" height="35.2" pointer-events="none"/><circle cx="181.1" cy="105.09999999999998" r="22" fill="#4E3320" stroke="#3A2515" stroke-width="1.5" class="board-cell" data-sq="pit-7"/><image href="../pieces/sets/playstrategy-oware/4.svg" x="163.5" y="87.49999999999997" width="35.2" height="35.2" pointer-events="none"/><circle cx="245.89999999999998" cy="105.09999999999998" r="22" fill="#4E3320" stroke="#3A2515" stroke-width="1.5" class="board-cell" data-sq="pit-8"/><image href="../pieces/sets/playstrategy-oware/4.svg" x="228.29999999999998" y="87.49999999999997" width="35.2" height="35.2" pointer-events="none"/><circle cx="310.7" cy="105.09999999999998" r="22" fill="#4E3320" stroke="#3A2515" stroke-width="1.5" class="board-cell" data-sq="pit-9"/><image href="../pieces/sets/playstrategy-oware/4.svg" x="293.09999999999997" y="87.49999999999997" width="35.2" height="35.2" pointer-events="none"/><circle cx="375.5" cy="105.09999999999998" r="22" fill="#4E3320" stroke="#3A2515" stroke-width="1.5" class="board-cell" data-sq="pit-10"/><image href="../pieces/sets/playstrategy-oware/4.svg" x="357.9" y="87.49999999999997" width="35.2" height="35.2" pointer-events="none"/><circle cx="440.3" cy="105.09999999999998" r="22" fill="#4E3320" stroke="#3A2515" stroke-width="1.5" class="board-cell" data-sq="pit-11"/><image href="../pieces/sets/playstrategy-oware/4.svg" x="422.7" y="87.49999999999997" width="35.2" height="35.2" pointer-events="none"/>
</svg>