<svg xmlns="http://www.w3.org/2000/svg" viewBox="0 0 560 180" width="560" height="180">
<ellipse cx="280" cy="90" rx="267.9" ry="75.96000000000001" fill="#7A5A32"/><ellipse cx="280" cy="90" rx="259.9" ry="67.96000000000001" fill="#9B7740"/><ellipse cx="80.16" cy="90" rx="20" ry="38" fill="#4E3320" stroke="#3A2515" stroke-width="1.5" class="board-cell" data-sq="store-1"/><ellipse cx="479.84000000000003" cy="90" rx="20" ry="38" fill="#4E3320" stroke="#3A2515" stroke-width="1.5" class="board-cell" data-sq="store-0"/><circle cx="120.16" cy="58" r="18" fill="#4E3320" stroke="#3A2515" stroke-width="1.5" class="board-cell" data-sq="pit-6"/><circle cx="120.16" cy="122" r="18" fill="#4E3320" stroke="#3A2515" stroke-width="1.5" class="board-cell" data-sq="pit-7"/><image href="../pieces/sets/playstrategy-oware/7.svg" x="105.75999999999999" y="43.6" width="28.8" height="28.8" pointer-events="none"/><image href="../pieces/sets/playstrategy-oware/7.svg" x="105.75999999999999" y="107.6" width="28.8" height="28.8" pointer-events="none"/><circle cx="173.44" cy="55.77777777777778" r="18" fill="#4E3320" stroke="#3A2515" stroke-width="1.5" class="board-cell" data-sq="pit-5"/><circle cx="173.44" cy="124.22222222222223" r="18" fill="#4E3320" stroke="#3A2515" stroke-width="1.5" class="board-cell" data-sq="pit-8"/><image href="../pieces/sets/playstrategy-oware/7.svg" x="159.04" y="41.37777777777778" width="28.8" height="28.8" pointer-events="none"/><image href="../pieces/sets/playstrategy-oware/7.svg" x="159.04" y="109.82222222222222" width="28.8" height="28.8" pointer-events="none"/><circle cx="226.72" cy="54.44444444444444" r="18" fill="#4E3320" stroke="#3A2515" stroke-width="1.5" class="board-cell" data-sq="pit-4"/><circle cx="226.72" cy="125.55555555555556" r="18" fill="#4E3320" stroke="#3A2515" stroke-width="1.5" class="board-cell" data-sq="pit-9"/><image href="../pieces/sets/playstrategy-oware/7.svg" x="212.32" y="40.044444444444444" width="28.8" height="28.8" pointer-events="none"/><image href="../pieces/sets/playstrategy-oware/7.svg" x="212.32" y="111.15555555555555" width="28.8" height="28.8" pointer-events="none"/><circle cx="280" cy="54" r="18" fill="#4E3320" stroke="#3A2515" stroke-width="1.5" class="board-cell" data-sq="pit-3"/><circle cx="280" cy="126" r="18" fill="#4E3320" stroke="#3A2515" stroke-width="1.5" class="board-cell" data-sq="pit-10"/><image href="../pieces/sets/playstrategy-oware/7.svg" x="265.6" y="39.6" width="28.8" height="28.8" pointer-events="none"/><image href="../pieces/sets/playstrategy-oware/7.svg" x="265.6" y="111.6" width="28.8" height="28.8" pointer-events="none"/><circle cx="333.28" cy="54.44444444444444" r="18" fill="#4E3320" stroke="#3A2515" stroke-width="1.5" class="board-cell" data-sq="pit-2"/><circle cx="333.28" cy="125.55555555555556" r="18" fill="#4E3320" stroke="#3A2515" stroke-width="1.5" class="board-cell" data-sq="pit-11"/><image href="../pieces/sets/playstrategy-oware/7.svg" x="318.88" y="40.044444444444444" width="28.8" height="28.8" pointer-events="none"/><image href="../pieces/sets/playstrategy-oware/7.svg" x="318.88" y="111.15555555555555" width="28.8" height="28.8" pointer-events="none"/><circle cx="386.56" cy="55.77777777777778" r="18" fill="#4E3320" stroke="#3A2515" stroke-width="1.5" class="board-cell" data-sq="pit-1"/><circle cx="386.56" cy="124.22222222222223" r="18" fill="#4E3320" stroke="#3A2515" stroke-width="1.5" class="board-cell" data-sq="pit-12"/><image href="../pieces/sets/playstrategy-oware/7.svg" x="372.16" y="41.37777777777778" width="28.8" height="28.8" pointer-events="none"/><image href="../pieces/sets/playstrategy-oware/7.svg" x="372.16" y="109.82222222222222" width="28.8" height="28.8" pointer-events="none"/><circle cx="439.84000000000003" cy="58" r="18" fill="#4E3320" stroke="#3A2515" stroke-width="1.5" class="board-cell" data-sq="pit-0"/><circle cx="439.84000000000003" cy="122" r="18" fill="#4E3320" stroke="#3A2515" stroke-width="1.5" class="board-cell" data-sq="pit-13"/><image href="../pieces/sets/playstrategy-oware/7.svg" x="425.44000000000005" y="43.6" width="28.8" height="28.8" pointer-events="none"/><image href="../pieces/sets/playstrategy-oware/7.svg" x="425.44000000000005" y="107.6" width="28.8" height="28.8" pointer-events="none"/>
</svg>