<svg xmlns="http://www.w3.org/2000/svg" viewBox="0 0 413.4 134.6" width="413.4" height="134.6">
<rect x="8" y="8" width="397.4" height="118.6" rx="22" ry="22" fill="#7A5A32"/><rect x="14" y="14" width="385.4" height="106.6" rx="18" ry="18" fill="#9B7740"/><circle cx="45.7" cy="45.7" r="18" fill="#4E3320" stroke="#3A2515" stroke-width="1.5" class="board-cell" data-sq="pit-6"/><image href="../pieces/sets/playstrategy-oware/12.svg" x="31.300000000000004" y="31.300000000000004" width="28.8" height="28.8" pointer-events="none"/><circle cx="99.36666666666667" cy="45.7" r="18" fill="#4E3320" stroke="#3A2515" stroke-width="1.5" class="board-cell" data-sq="pit-5"/><image href="../pieces/sets/playstrategy-oware/12.svg" x="84.96666666666667" y="31.300000000000004" width="28.8" height="28.8" pointer-events="none"/><circle cx="153.03333333333333" cy="45.7" r="18" fill="#4E3320" stroke="#3A2515" stroke-width="1.5" class="board-cell" data-sq="pit-4"/><image href="../pieces/sets/playstrategy-oware/12.svg" x="138.63333333333333" y="31.300000000000004" width="28.8" height="28.8" pointer-events="none"/><circle cx="206.7" cy="45.7" r="18" fill="#4E3320" stroke="#3A2515" stroke-width="1.5" class="board-cell" data-sq="pit-3"/><image href="../pieces/sets/playstrategy-oware/12.svg" x="192.29999999999998" y="31.300000000000004" width="28.8" height="28.8" pointer-events="none"/><circle cx="260.3666666666667" cy="45.7" r="18" fill="#4E3320" stroke="#3A2515" stroke-width="1.5" class="board-cell" data-sq="pit-2"/><image href="../pieces/sets/playstrategy-oware/12.svg" x="245.96666666666667" y="31.300000000000004" width="28.8" height="28.8" pointer-events="none"/><circle cx="314.0333333333333" cy="45.7" r="18" fill="#4E3320" stroke="#3A2515" stroke-width="1.5" class="board-cell" data-sq="pit-1"/><image href="../pieces/sets/playstrategy-oware/12.svg" x="299.6333333333333" y="31.300000000000004" width="28.8" height="28.8" pointer-events="none"/><circle cx="367.7" cy="45.7" r="18" fill="#4E3320" stroke="#3A2515" stroke-width="1.5" class="board-cell" data-sq="pit-0"/><image href="../pieces/sets/playstrategy-oware/12.svg" x="353.3" y="31.300000000000004" width="28.8" height="28.8" pointer-events="none"/><circle cx="45.7" cy="88.89999999999999" r="18" fill="#4E3320" stroke="#3A2515" stroke-width="1.5" class="board-cell" data-sq="pit-7"/><image href="../pieces/sets/playstrategy-oware/12.svg" x="31.300000000000004" y="74.49999999999999" width="28.8" height="28.8" pointer-events="none"/><circle cx="99.36666666666667" cy="88.89999999999999" r="18" fill="#4E3320" stroke="#3A2515" stroke-width="1.5" class="board-cell" data-sq="pit-8"/><image href="../pieces/sets/playstrategy-oware/12.svg" x="84.96666666666667" y="74.49999999999999" width="28.8" height="28.8" pointer-events="none"/><circle cx="153.03333333333333" cy="88.89999999999999" r="18" fill="#4E3320" stroke="#3A2515" stroke-width="1.5" class="board-cell" data-sq="pit-9"/><image href="../pieces/sets/playstrategy-oware/12.svg" x="138.63333333333333" y="74.49999999999999" width="28.8" height="28.8" pointer-events="none"/><circle cx="206.7" cy="88.89999999999999" r="18" fill="#4E3320" stroke="#3A2515" stroke-width="1.5" class="board-cell" data-sq="pit-10"/><image href="../pieces/sets/playstrategy-oware/12.svg" x="192.29999999999998" y="74.49999999999999" width="28.8" height="28.8" pointer-events="none"/><circle cx="260.3666666666667" cy="88.89999999999999" r="18" fill="#4E3320" stroke="#3A2515" stroke-width="1.5" class="board-cell" data-sq="pit-11"/><image href="../pieces/sets/playstrategy-oware/12.svg" x="245.96666666666667" y="74.49999999999999" width="28.8" height="28.8" pointer-events="none"/><circle cx="314.0333333333333" cy="88.89999999999999" r="18" fill="#4E3320" stroke="#3A2515" stroke-width="1.5" class="board-cell" data-sq="pit-12"/><image href="../pieces/sets/playstrategy-oware/12.svg" x="299.6333333333333" y="74.49999999999999" width="28.8" height="28.8" pointer-events="none"/><circle cx="367.7" cy="88.89999999999999" r="18" fill="#4E3320" stroke="#3A2515" stroke-width="1.5" class="board-cell" data-sq="pit-13"/><image href="../pieces/sets/playstrategy-oware/12.svg" x="353.3" y="74.49999999999999" width="28.8" height="28.8" pointer-events="none"/>
</svg>