<svg xmlns="http://www.w3.org/2000/svg" viewBox="0 0 408 336" width="408" height="336">

<rect x="24" y="24" width="36" height="36" fill="#f0d9b5" data-sq="a8" class="board-cell"/><rect x="60" y="24" width="36" height="36" fill="#b58863" data-sq="b8" class="board-cell"/><rect x="96" y="24" width="36" height="36" fill="#f0d9b5" data-sq="c8" class="board-cell"/><rect x="132" y="24" width="36" height="36" fill="#b58863" data-sq="d8" class="board-cell"/><rect x="168" y="24" width="36" height="36" fill="#f0d9b5" data-sq="e8" class="board-cell"/><rect x="204" y="24" width="36" height="36" fill="#b58863" data-sq="f8" class="board-cell"/><rect x="240" y="24" width="36" height="36" fill="#f0d9b5" data-sq="g8" class="board-cell"/><rect x="276" y="24" width="36" height="36" fill="#b58863" data-sq="h8" class="board-cell"/><rect x="312" y="24" width="36" height="36" fill="#f0d9b5" data-sq="i8" class="board-cell"/><rect x="348" y="24" width="36" height="36" fill="#b58863" data-sq="j8" class="board-cell"/><rect x="24" y="60" width="36" height="36" fill="#b58863" data-sq="a7" class="board-cell"/><rect x="60" y="60" width="36" height="36" fill="#f0d9b5" data-sq="b7" class="board-cell"/><rect x="96" y="60" width="36" height="36" fill="#b58863" data-sq="c7" class="board-cell"/><rect x="132" y="60" width="36" height="36" fill="#f0d9b5" data-sq="d7" class="board-cell"/><rect x="168" y="60" width="36" height="36" fill="#b58863" data-sq="e7" class="board-cell"/><rect x="204" y="60" width="36" height="36" fill="#f0d9b5" data-sq="f7" class="board-cell"/><rect x="240" y="60" width="36" height="36" fill="#b58863" data-sq="g7" class="board-cell"/><rect x="276" y="60" width="36" height="36" fill="#f0d9b5" data-sq="h7" class="board-cell"/><rect x="312" y="60" width="36" height="36" fill="#b58863" data-sq="i7" class="board-cell"/><rect x="348" y="60" width="36" height="36" fill="#f0d9b5" data-sq="j7" class="board-cell"/><rect x="24" y="96" width="36" height="36" fill="#f0d9b5" data-sq="a6" class="board-cell"/><rect x="60" y="96" width="36" height="36" fill="#b58863" data-sq="b6" class="board-cell"/><rect x="96" y="96" width="36" height="36" fill="#f0d9b5" data-sq="c6" class="board-cell"/><rect x="132" y="96" width="36" height="36" fill="#b58863" data-sq="d6" class="board-cell"/><rect x="168" y="96" width="36" height="36" fill="#f0d9b5" data-sq="e6" class="board-cell"/><rect x="204" y="96" width="36" height="36" fill="#b58863" data-sq="f6" class="board-cell"/><rect x="240" y="96" width="36" height="36" fill="#f0d9b5" data-sq="g6" class="board-cell"/><rect x="276" y="96" width="36" height="36" fill="#b58863" data-sq="h6" class="board-cell"/><rect x="312" y="96" width="36" height="36" fill="#f0d9b5" data-sq="i6" class="board-cell"/><rect x="348" y="96" width="36" height="36" fill="#b58863" data-sq="j6" class="board-cell"/><rect x="24" y="132" width="36" height="36" fill="#b58863" data-sq="a5" class="board-cell"/><rect x="60" y="132" width="36" height="36" fill="#f0d9b5" data-sq="b5" class="board-cell"/><rect x="96" y="132" width="36" height="36" fill="#b58863" data-sq="c5" class="board-cell"/><rect x="132" y="132" width="36" height="36" fill="#f0d9b5" data-sq="d5" class="board-cell"/><rect x="168" y="132" width="36" height="36" fill="#b58863" data-sq="e5" class="board-cell"/><rect x="204" y="132" width="36" height="36" fill="#f0d9b5" data-sq="f5" class="board-cell"/><rect x="240" y="132" width="36" height="36" fill="#b58863" data-sq="g5" class="board-cell"/><rect x="276" y="132" width="36" height="36" fill="#f0d9b5" data-sq="h5" class="board-cell"/><rect x="312" y="132" width="36" height="36" fill="#b58863" data-sq="i5" class="board-cell"/><rect x="348" y="132" width="36" height="36" fill="#f0d9b5" data-sq="j5" class="board-cell"/><rect x="24" y="168" width="36" height="36" fill="#f0d9b5" data-sq="a4" class="board-cell"/><rect x="60" y="168" width="36" height="36" fill="#b58863" data-sq="b4" class="board-cell"/><rect x="96" y="168" width="36" height="36" fill="#f0d9b5" data-sq="c4" class="board-cell"/><rect x="132" y="168" width="36" height="36" fill="#b58863" data-sq="d4" class="board-cell"/><rect x="168" y="168" width="36" height="36" fill="#f0d9b5" data-sq="e4" class="board-cell"/><rect x="204" y="168" width="36" height="36" fill="#b58863" data-sq="f4" class="board-cell"/><rect x="240" y="168" width="36" height="36" fill="#f0d9b5" data-sq="g4" class="board-cell"/><rect x="276" y="168" width="36" height="36" fill="#b58863" data-sq="h4" class="board-cell"/><rect x="312" y="168" width="36" height="36" fill="#f0d9b5" data-sq="i4" class="board-cell"/><rect x="348" y="168" width="36" height="36" fill="#b58863" data-sq="j4" class="board-cell"/><rect x="24" y="204" width="36" height="36" fill="#b58863" data-sq="a3" class="board-cell"/><rect x="60" y="204" width="36" height="36" fill="#f0d9b5" data-sq="b3" class="board-cell"/><rect x="96" y="204" width="36" height="36" fill="#b58863" data-sq="c3" class="board-cell"/><rect x="132" y="204" width="36" height="36" fill="#f0d9b5" data-sq="d3" class="board-cell"/><rect x="168" y="204" width="36" height="36" fill="#b58863" data-sq="e3" class="board-cell"/><rect x="204" y="204" width="36" height="36" fill="#f0d9b5" data-sq="f3" class="board-cell"/><rect x="240" y="204" width="36" height="36" fill="#b58863" data-sq="g3" class="board-cell"/><rect x="276" y="204" width="36" height="36" fill="#f0d9b5" data-sq="h3" class="board-cell"/><rect x="312" y="204" width="36" height="36" fill="#b58863" data-sq="i3" class="board-cell"/><rect x="348" y="204" width="36" height="36" fill="#f0d9b5" data-sq="j3" class="board-cell"/><rect x="24" y="240" width="36" height="36" fill="#f0d9b5" data-sq="a2" class="board-cell"/><rect x="60" y="240" width="36" height="36" fill="#b58863" data-sq="b2" class="board-cell"/><rect x="96" y="240" width="36" height="36" fill="#f0d9b5" data-sq="c2" class="board-cell"/><rect x="132" y="240" width="36" height="36" fill="#b58863" data-sq="d2" class="board-cell"/><rect x="168" y="240" width="36" height="36" fill="#f0d9b5" data-sq="e2" class="board-cell"/><rect x="204" y="240" width="36" height="36" fill="#b58863" data-sq="f2" class="board-cell"/><rect x="240" y="240" width="36" height="36" fill="#f0d9b5" data-sq="g2" class="board-cell"/><rect x="276" y="240" width="36" height="36" fill="#b58863" data-sq="h2" class="board-cell"/><rect x="312" y="240" width="36" height="36" fill="#f0d9b5" data-sq="i2" class="board-cell"/><rect x="348" y="240" width="36" height="36" fill="#b58863" data-sq="j2" class="board-cell"/><rect x="24" y="276" width="36" height="36" fill="#b58863" data-sq="a1" class="board-cell"/><rect x="60" y="276" width="36" height="36" fill="#f0d9b5" data-sq="b1" class="board-cell"/><rect x="96" y="276" width="36" height="36" fill="#b58863" data-sq="c1" class="board-cell"/><rect x="132" y="276" width="36" height="36" fill="#f0d9b5" data-sq="d1" class="board-cell"/><rect x="168" y="276" width="36" height="36" fill="#b58863" data-sq="e1" class="board-cell"/><rect x="204" y="276" width="36" height="36" fill="#f0d9b5" data-sq="f1" class="board-cell"/><rect x="240" y="276" width="36" height="36" fill="#b58863" data-sq="g1" class="board-cell"/><rect x="276" y="276" width="36" height="36" fill="#f0d9b5" data-sq="h1" class="board-cell"/><rect x="312" y="276" width="36" height="36" fill="#b58863" data-sq="i1" class="board-cell"/><rect x="348" y="276" width="36" height="36" fill="#f0d9b5" data-sq="j1" class="board-cell"/>
<g pointer-events="none"><image href="../pieces/sets/mce-chess/bR.svg" x="24" y="24" width="36" height="36" pointer-events="none"/><image href="../pieces/sets/mce-chess/bN.svg" x="60" y="24" width="36" height="36" pointer-events="none"/><image href="../pieces/sets/mce-chess/bB.svg" x="96" y="24" width="36" height="36" pointer-events="none"/><image href="../pieces/sets/mce-chess/bG.svg" x="132" y="24" width="36" height="36" pointer-events="none"/><image href="../pieces/sets/mce-chess/bQ.svg" x="168" y="24" width="36" height="36" pointer-events="none"/><image href="../pieces/sets/mce-chess/bK.svg" x="204" y="24" width="36" height="36" pointer-events="none"/><image href="../pieces/sets/mce-chess/bE.svg" x="240" y="24" width="36" height="36" pointer-events="none"/><image href="../pieces/sets/mce-chess/bB.svg" x="276" y="24" width="36" height="36" pointer-events="none"/><image href="../pieces/sets/mce-chess/bN.svg" x="312" y="24" width="36" height="36" pointer-events="none"/><image href="../pieces/sets/mce-chess/bR.svg" x="348" y="24" width="36" height="36" pointer-events="none"/><image href="../pieces/sets/mce-chess/bP.svg" x="24" y="60" width="36" height="36" pointer-events="none"/><image href="../pieces/sets/mce-chess/bP.svg" x="60" y="60" width="36" height="36" pointer-events="none"/><image href="../pieces/sets/mce-chess/bP.svg" x="96" y="60" width="36" height="36" pointer-events="none"/><image href="../pieces/sets/mce-chess/bP.svg" x="132" y="60" width="36" height="36" pointer-events="none"/><image href="../pieces/sets/mce-chess/bP.svg" x="168" y="60" width="36" height="36" pointer-events="none"/><image href="../pieces/sets/mce-chess/bP.svg" x="204" y="60" width="36" height="36" pointer-events="none"/><image href="../pieces/sets/mce-chess/bP.svg" x="240" y="60" width="36" height="36" pointer-events="none"/><image href="../pieces/sets/mce-chess/bP.svg" x="276" y="60" width="36" height="36" pointer-events="none"/><image href="../pieces/sets/mce-chess/bP.svg" x="312" y="60" width="36" height="36" pointer-events="none"/><image href="../pieces/sets/mce-chess/bP.svg" x="348" y="60" width="36" height="36" pointer-events="none"/><image href="../pieces/sets/mce-chess/wP.svg" x="24" y="240" width="36" height="36" pointer-events="none"/><image href="../pieces/sets/mce-chess/wP.svg" x="60" y="240" width="36" height="36" pointer-events="none"/><image href="../pieces/sets/mce-chess/wP.svg" x="96" y="240" width="36" height="36" pointer-events="none"/><image href="../pieces/sets/mce-chess/wP.svg" x="132" y="240" width="36" height="36" pointer-events="none"/><image href="../pieces/sets/mce-chess/wP.svg" x="168" y="240" width="36" height="36" pointer-events="none"/><image href="../pieces/sets/mce-chess/wP.svg" x="204" y="240" width="36" height="36" pointer-events="none"/><image href="../pieces/sets/mce-chess/wP.svg" x="240" y="240" width="36" height="36" pointer-events="none"/><image href="../pieces/sets/mce-chess/wP.svg" x="276" y="240" width="36" height="36" pointer-events="none"/><image href="../pieces/sets/mce-chess/wP.svg" x="312" y="240" width="36" height="36" pointer-events="none"/><image href="../pieces/sets/mce-chess/wP.svg" x="348" y="240" width="36" height="36" pointer-events="none"/><image href="../pieces/sets/mce-chess/wR.svg" x="24" y="276" width="36" height="36" pointer-events="none"/><image href="../pieces/sets/mce-chess/wN.svg" x="60" y="276" width="36" height="36" pointer-events="none"/><image href="../pieces/sets/mce-chess/wB.svg" x="96" y="276" width="36" height="36" pointer-events="none"/><image href="../pieces/sets/mce-chess/wG.svg" x="132" y="276" width="36" height="36" pointer-events="none"/><image href="../pieces/sets/mce-chess/wQ.svg" x="168" y="276" width="36" height="36" pointer-events="none"/><image href="../pieces/sets/mce-chess/wK.svg" x="204" y="276" width="36" height="36" pointer-events="none"/><image href="../pieces/sets/mce-chess/wE.svg" x="240" y="276" width="36" height="36" pointer-events="none"/><image href="../pieces/sets/mce-chess/wB.svg" x="276" y="276" width="36" height="36" pointer-events="none"/><image href="../pieces/sets/mce-chess/wN.svg" x="312" y="276" width="36" height="36" pointer-events="none"/><image href="../pieces/sets/mce-chess/wR.svg" x="348" y="276" width="36" height="36" pointer-events="none"/></g>
<text x="42" y="327.6" text-anchor="middle" font-size="13" fill="#5c3a1e" font-family="monospace">a</text><text x="78" y="327.6" text-anchor="middle" font-size="13" fill="#5c3a1e" font-family="monospace">b</text><text x="114" y="327.6" text-anchor="middle" font-size="13" fill="#5c3a1e" font-family="monospace">c</text><text x="150" y="327.6" text-anchor="middle" font-size="13" fill="#5c3a1e" font-family="monospace">d</text><text x="186" y="327.6" text-anchor="middle" font-size="13" fill="#5c3a1e" font-family="monospace">e</text><text x="222" y="327.6" text-anchor="middle" font-size="13" fill="#5c3a1e" font-family="monospace">f</text><text x="258" y="327.6" text-anchor="middle" font-size="13" fill="#5c3a1e" font-family="monospace">g</text><text x="294" y="327.6" text-anchor="middle" font-size="13" fill="#5c3a1e" font-family="monospace">h</text><text x="330" y="327.6" text-anchor="middle" font-size="13" fill="#5c3a1e" font-family="monospace">i</text><text x="366" y="327.6" text-anchor="middle" font-size="13" fill="#5c3a1e" font-family="monospace">j</text><text x="12" y="46.55" text-anchor="middle" font-size="13" fill="#5c3a1e" font-family="monospace">8</text><text x="12" y="82.55" text-anchor="middle" font-size="13" fill="#5c3a1e" font-family="monospace">7</text><text x="12" y="118.55" text-anchor="middle" font-size="13" fill="#5c3a1e" font-family="monospace">6</text><text x="12" y="154.55" text-anchor="middle" font-size="13" fill="#5c3a1e" font-family="monospace">5</text><text x="12" y="190.55" text-anchor="middle" font-size="13" fill="#5c3a1e" font-family="monospace">4</text><text x="12" y="226.55" text-anchor="middle" font-size="13" fill="#5c3a1e" font-family="monospace">3</text><text x="12" y="262.55" text-anchor="middle" font-size="13" fill="#5c3a1e" font-family="monospace">2</text><text x="12" y="298.55" text-anchor="middle" font-size="13" fill="#5c3a1e" font-family="monospace">1</text>
</svg>