<svg xmlns="http://www.w3.org/2000/svg" viewBox="0 0 432 304" width="432" height="304">

<rect x="24" y="24" width="32" height="32" fill="#f0d9b5" data-sq="a8" class="board-cell"/><rect x="56" y="24" width="32" height="32" fill="#b58863" data-sq="b8" class="board-cell"/><rect x="88" y="24" width="32" height="32" fill="#f0d9b5" data-sq="c8" class="board-cell"/><rect x="120" y="24" width="32" height="32" fill="#b58863" data-sq="d8" class="board-cell"/><rect x="152" y="24" width="32" height="32" fill="#f0d9b5" data-sq="e8" class="board-cell"/><rect x="184" y="24" width="32" height="32" fill="#b58863" data-sq="f8" class="board-cell"/><rect x="216" y="24" width="32" height="32" fill="#f0d9b5" data-sq="g8" class="board-cell"/><rect x="248" y="24" width="32" height="32" fill="#b58863" data-sq="h8" class="board-cell"/><rect x="280" y="24" width="32" height="32" fill="#f0d9b5" data-sq="i8" class="board-cell"/><rect x="312" y="24" width="32" height="32" fill="#b58863" data-sq="j8" class="board-cell"/><rect x="344" y="24" width="32" height="32" fill="#f0d9b5" data-sq="k8" class="board-cell"/><rect x="376" y="24" width="32" height="32" fill="#b58863" data-sq="l8" class="board-cell"/><rect x="24" y="56" width="32" height="32" fill="#b58863" data-sq="a7" class="board-cell"/><rect x="56" y="56" width="32" height="32" fill="#f0d9b5" data-sq="b7" class="board-cell"/><rect x="88" y="56" width="32" height="32" fill="#b58863" data-sq="c7" class="board-cell"/><rect x="120" y="56" width="32" height="32" fill="#f0d9b5" data-sq="d7" class="board-cell"/><rect x="152" y="56" width="32" height="32" fill="#b58863" data-sq="e7" class="board-cell"/><rect x="184" y="56" width="32" height="32" fill="#f0d9b5" data-sq="f7" class="board-cell"/><rect x="216" y="56" width="32" height="32" fill="#b58863" data-sq="g7" class="board-cell"/><rect x="248" y="56" width="32" height="32" fill="#f0d9b5" data-sq="h7" class="board-cell"/><rect x="280" y="56" width="32" height="32" fill="#b58863" data-sq="i7" class="board-cell"/><rect x="312" y="56" width="32" height="32" fill="#f0d9b5" data-sq="j7" class="board-cell"/><rect x="344" y="56" width="32" height="32" fill="#b58863" data-sq="k7" class="board-cell"/><rect x="376" y="56" width="32" height="32" fill="#f0d9b5" data-sq="l7" class="board-cell"/><rect x="24" y="88" width="32" height="32" fill="#f0d9b5" data-sq="a6" class="board-cell"/><rect x="56" y="88" width="32" height="32" fill="#b58863" data-sq="b6" class="board-cell"/><rect x="88" y="88" width="32" height="32" fill="#f0d9b5" data-sq="c6" class="board-cell"/><rect x="120" y="88" width="32" height="32" fill="#b58863" data-sq="d6" class="board-cell"/><rect x="152" y="88" width="32" height="32" fill="#f0d9b5" data-sq="e6" class="board-cell"/><rect x="184" y="88" width="32" height="32" fill="#b58863" data-sq="f6" class="board-cell"/><rect x="216" y="88" width="32" height="32" fill="#f0d9b5" data-sq="g6" class="board-cell"/><rect x="248" y="88" width="32" height="32" fill="#b58863" data-sq="h6" class="board-cell"/><rect x="280" y="88" width="32" height="32" fill="#f0d9b5" data-sq="i6" class="board-cell"/><rect x="312" y="88" width="32" height="32" fill="#b58863" data-sq="j6" class="board-cell"/><rect x="344" y="88" width="32" height="32" fill="#f0d9b5" data-sq="k6" class="board-cell"/><rect x="376" y="88" width="32" height="32" fill="#b58863" data-sq="l6" class="board-cell"/><rect x="24" y="120" width="32" height="32" fill="#b58863" data-sq="a5" class="board-cell"/><rect x="56" y="120" width="32" height="32" fill="#f0d9b5" data-sq="b5" class="board-cell"/><rect x="88" y="120" width="32" height="32" fill="#b58863" data-sq="c5" class="board-cell"/><rect x="120" y="120" width="32" height="32" fill="#f0d9b5" data-sq="d5" class="board-cell"/><rect x="152" y="120" width="32" height="32" fill="#b58863" data-sq="e5" class="board-cell"/><rect x="184" y="120" width="32" height="32" fill="#f0d9b5" data-sq="f5" class="board-cell"/><rect x="216" y="120" width="32" height="32" fill="#b58863" data-sq="g5" class="board-cell"/><rect x="248" y="120" width="32" height="32" fill="#f0d9b5" data-sq="h5" class="board-cell"/><rect x="280" y="120" width="32" height="32" fill="#b58863" data-sq="i5" class="board-cell"/><rect x="312" y="120" width="32" height="32" fill="#f0d9b5" data-sq="j5" class="board-cell"/><rect x="344" y="120" width="32" height="32" fill="#b58863" data-sq="k5" class="board-cell"/><rect x="376" y="120" width="32" height="32" fill="#f0d9b5" data-sq="l5" class="board-cell"/><rect x="24" y="152" width="32" height="32" fill="#f0d9b5" data-sq="a4" class="board-cell"/><rect x="56" y="152" width="32" height="32" fill="#b58863" data-sq="b4" class="board-cell"/><rect x="88" y="152" width="32" height="32" fill="#f0d9b5" data-sq="c4" class="board-cell"/><rect x="120" y="152" width="32" height="32" fill="#b58863" data-sq="d4" class="board-cell"/><rect x="152" y="152" width="32" height="32" fill="#f0d9b5" data-sq="e4" class="board-cell"/><rect x="184" y="152" width="32" height="32" fill="#b58863" data-sq="f4" class="board-cell"/><rect x="216" y="152" width="32" height="32" fill="#f0d9b5" data-sq="g4" class="board-cell"/><rect x="248" y="152" width="32" height="32" fill="#b58863" data-sq="h4" class="board-cell"/><rect x="280" y="152" width="32" height="32" fill="#f0d9b5" data-sq="i4" class="board-cell"/><rect x="312" y="152" width="32" height="32" fill="#b58863" data-sq="j4" class="board-cell"/><rect x="344" y="152" width="32" height="32" fill="#f0d9b5" data-sq="k4" class="board-cell"/><rect x="376" y="152" width="32" height="32" fill="#b58863" data-sq="l4" class="board-cell"/><rect x="24" y="184" width="32" height="32" fill="#b58863" data-sq="a3" class="board-cell"/><rect x="56" y="184" width="32" height="32" fill="#f0d9b5" data-sq="b3" class="board-cell"/><rect x="88" y="184" width="32" height="32" fill="#b58863" data-sq="c3" class="board-cell"/><rect x="120" y="184" width="32" height="32" fill="#f0d9b5" data-sq="d3" class="board-cell"/><rect x="152" y="184" width="32" height="32" fill="#b58863" data-sq="e3" class="board-cell"/><rect x="184" y="184" width="32" height="32" fill="#f0d9b5" data-sq="f3" class="board-cell"/><rect x="216" y="184" width="32" height="32" fill="#b58863" data-sq="g3" class="board-cell"/><rect x="248" y="184" width="32" height="32" fill="#f0d9b5" data-sq="h3" class="board-cell"/><rect x="280" y="184" width="32" height="32" fill="#b58863" data-sq="i3" class="board-cell"/><rect x="312" y="184" width="32" height="32" fill="#f0d9b5" data-sq="j3" class="board-cell"/><rect x="344" y="184" width="32" height="32" fill="#b58863" data-sq="k3" class="board-cell"/><rect x="376" y="184" width="32" height="32" fill="#f0d9b5" data-sq="l3" class="board-cell"/><rect x="24" y="216" width="32" height="32" fill="#f0d9b5" data-sq="a2" class="board-cell"/><rect x="56" y="216" width="32" height="32" fill="#b58863" data-sq="b2" class="board-cell"/><rect x="88" y="216" width="32" height="32" fill="#f0d9b5" data-sq="c2" class="board-cell"/><rect x="120" y="216" width="32" height="32" fill="#b58863" data-sq="d2" class="board-cell"/><rect x="152" y="216" width="32" height="32" fill="#f0d9b5" data-sq="e2" class="board-cell"/><rect x="184" y="216" width="32" height="32" fill="#b58863" data-sq="f2" class="board-cell"/><rect x="216" y="216" width="32" height="32" fill="#f0d9b5" data-sq="g2" class="board-cell"/><rect x="248" y="216" width="32" height="32" fill="#b58863" data-sq="h2" class="board-cell"/><rect x="280" y="216" width="32" height="32" fill="#f0d9b5" data-sq="i2" class="board-cell"/><rect x="312" y="216" width="32" height="32" fill="#b58863" data-sq="j2" class="board-cell"/><rect x="344" y="216" width="32" height="32" fill="#f0d9b5" data-sq="k2" class="board-cell"/><rect x="376" y="216" width="32" height="32" fill="#b58863" data-sq="l2" class="board-cell"/><rect x="24" y="248" width="32" height="32" fill="#b58863" data-sq="a1" class="board-cell"/><rect x="56" y="248" width="32" height="32" fill="#f0d9b5" data-sq="b1" class="board-cell"/><rect x="88" y="248" width="32" height="32" fill="#b58863" data-sq="c1" class="board-cell"/><rect x="120" y="248" width="32" height="32" fill="#f0d9b5" data-sq="d1" class="board-cell"/><rect x="152" y="248" width="32" height="32" fill="#b58863" data-sq="e1" class="board-cell"/><rect x="184" y="248" width="32" height="32" fill="#f0d9b5" data-sq="f1" class="board-cell"/><rect x="216" y="248" width="32" height="32" fill="#b58863" data-sq="g1" class="board-cell"/><rect x="248" y="248" width="32" height="32" fill="#f0d9b5" data-sq="h1" class="board-cell"/><rect x="280" y="248" width="32" height="32" fill="#b58863" data-sq="i1" class="board-cell"/><rect x="312" y="248" width="32" height="32" fill="#f0d9b5" data-sq="j1" class="board-cell"/><rect x="344" y="248" width="32" height="32" fill="#b58863" data-sq="k1" class="board-cell"/><rect x="376" y="248" width="32" height="32" fill="#f0d9b5" data-sq="l1" class="board-cell"/>
<g pointer-events="none"><image href="../pieces/sets/mce-chess/bR.svg" x="24" y="24" width="32" height="32" pointer-events="none"/><image href="../pieces/sets/mce-chess/bN.svg" x="56" y="24" width="32" height="32" pointer-events="none"/><image href="../pieces/sets/mce-chess/bE.svg" x="88" y="24" width="32" height="32" pointer-events="none"/><image href="../pieces/sets/mce-chess/bB.svg" x="120" y="24" width="32" height="32" pointer-events="none"/><image href="../pieces/sets/mce-chess/bF.svg" x="152" y="24" width="32" height="32" pointer-events="none"/><image href="../pieces/sets/mce-chess/bS.svg" x="184" y="24" width="32" height="32" pointer-events="none"/><image href="../pieces/sets/mce-chess/bK.svg" x="216" y="24" width="32" height="32" pointer-events="none"/><image href="../pieces/sets/mce-chess/bS.svg" x="248" y="24" width="32" height="32" pointer-events="none"/><image href="../pieces/sets/mce-chess/bB.svg" x="280" y="24" width="32" height="32" pointer-events="none"/><image href="../pieces/sets/mce-chess/bE.svg" x="312" y="24" width="32" height="32" pointer-events="none"/><image href="../pieces/sets/mce-chess/bN.svg" x="344" y="24" width="32" height="32" pointer-events="none"/><image href="../pieces/sets/mce-chess/bR.svg" x="376" y="24" width="32" height="32" pointer-events="none"/><image href="../pieces/sets/mce-chess/bP.svg" x="24" y="56" width="32" height="32" pointer-events="none"/><image href="../pieces/sets/mce-chess/bP.svg" x="56" y="56" width="32" height="32" pointer-events="none"/><image href="../pieces/sets/mce-chess/bP.svg" x="88" y="56" width="32" height="32" pointer-events="none"/><image href="../pieces/sets/mce-chess/bP.svg" x="120" y="56" width="32" height="32" pointer-events="none"/><image href="../pieces/sets/mce-chess/bP.svg" x="152" y="56" width="32" height="32" pointer-events="none"/><image href="../pieces/sets/mce-chess/bP.svg" x="184" y="56" width="32" height="32" pointer-events="none"/><image href="../pieces/sets/mce-chess/bP.svg" x="216" y="56" width="32" height="32" pointer-events="none"/><image href="../pieces/sets/mce-chess/bP.svg" x="248" y="56" width="32" height="32" pointer-events="none"/><image href="../pieces/sets/mce-chess/bP.svg" x="280" y="56" width="32" height="32" pointer-events="none"/><image href="../pieces/sets/mce-chess/bP.svg" x="312" y="56" width="32" height="32" pointer-events="none"/><image href="../pieces/sets/mce-chess/bP.svg" x="344" y="56" width="32" height="32" pointer-events="none"/><image href="../pieces/sets/mce-chess/bP.svg" x="376" y="56" width="32" height="32" pointer-events="none"/><image href="../pieces/sets/mce-chess/wP.svg" x="24" y="216" width="32" height="32" pointer-events="none"/><image href="../pieces/sets/mce-chess/wP.svg" x="56" y="216" width="32" height="32" pointer-events="none"/><image href="../pieces/sets/mce-chess/wP.svg" x="88" y="216" width="32" height="32" pointer-events="none"/><image href="../pieces/sets/mce-chess/wP.svg" x="120" y="216" width="32" height="32" pointer-events="none"/><image href="../pieces/sets/mce-chess/wP.svg" x="152" y="216" width="32" height="32" pointer-events="none"/><image href="../pieces/sets/mce-chess/wP.svg" x="184" y="216" width="32" height="32" pointer-events="none"/><image href="../pieces/sets/mce-chess/wP.svg" x="216" y="216" width="32" height="32" pointer-events="none"/><image href="../pieces/sets/mce-chess/wP.svg" x="248" y="216" width="32" height="32" pointer-events="none"/><image href="../pieces/sets/mce-chess/wP.svg" x="280" y="216" width="32" height="32" pointer-events="none"/><image href="../pieces/sets/mce-chess/wP.svg" x="312" y="216" width="32" height="32" pointer-events="none"/><image href="../pieces/sets/mce-chess/wP.svg" x="344" y="216" width="32" height="32" pointer-events="none"/><image href="../pieces/sets/mce-chess/wP.svg" x="376" y="216" width="32" height="32" pointer-events="none"/><image href="../pieces/sets/mce-chess/wR.svg" x="24" y="248" width="32" height="32" pointer-events="none"/><image href="../pieces/sets/mce-chess/wN.svg" x="56" y="248" width="32" height="32" pointer-events="none"/><image href="../pieces/sets/mce-chess/wE.svg" x="88" y="248" width="32" height="32" pointer-events="none"/><image href="../pieces/sets/mce-chess/wB.svg" x="120" y="248" width="32" height="32" pointer-events="none"/><image href="../pieces/sets/mce-chess/wF.svg" x="152" y="248" width="32" height="32" pointer-events="none"/><image href="../pieces/sets/mce-chess/wS.svg" x="184" y="248" width="32" height="32" pointer-events="none"/><image href="../pieces/sets/mce-chess/wK.svg" x="216" y="248" width="32" height="32" pointer-events="none"/><image href="../pieces/sets/mce-chess/wS.svg" x="248" y="248" width="32" height="32" pointer-events="none"/><image href="../pieces/sets/mce-chess/wB.svg" x="280" y="248" width="32" height="32" pointer-events="none"/><image href="../pieces/sets/mce-chess/wE.svg" x="312" y="248" width="32" height="32" pointer-events="none"/><image href="../pieces/sets/mce-chess/wN.svg" x="344" y="248" width="32" height="32" pointer-events="none"/><image href="../pieces/sets/mce-chess/wR.svg" x="376" y="248" width="32" height="32" pointer-events="none"/></g>
<text x="40" y="295.6" text-anchor="middle" font-size="13" fill="#5c3a1e" font-family="monospace">a</text><text x="72" y="295.6" text-anchor="middle" font-size="13" fill="#5c3a1e" font-family="monospace">b</text><text x="104" y="295.6" text-anchor="middle" font-size="13" fill="#5c3a1e" font-family="monospace">c</text><text x="136" y="295.6" text-anchor="middle" font-size="13" fill="#5c3a1e" font-family="monospace">d</text><text x="168" y="295.6" text-anchor="middle" font-size="13" fill="#5c3a1e" font-family="monospace">e</text><text x="200" y="295.6" text-anchor="middle" font-size="13" fill="#5c3a1e" font-family="monospace">f</text><text x="232" y="295.6" text-anchor="middle" font-size="13" fill="#5c3a1e" font-family="monospace">g</text><text x="264" y="295.6" text-anchor="middle" font-size="13" fill="#5c3a1e" font-family="monospace">h</text><text x="296" y="295.6" text-anchor="middle" font-size="13" fill="#5c3a1e" font-family="monospace">i</text><text x="328" y="295.6" text-anchor="middle" font-size="13" fill="#5c3a1e" font-family="monospace">j</text><text x="360" y="295.6" text-anchor="middle" font-size="13" fill="#5c3a1e" font-family="monospace">k</text><text x="392" y="295.6" text-anchor="middle" font-size="13" fill="#5c3a1e" font-family="monospace">l</text><text x="12" y="44.55" text-anchor="middle" font-size="13" fill="#5c3a1e" font-family="monospace">8</text><text x="12" y="76.55" text-anchor="middle" font-size="13" fill="#5c3a1e" font-family="monospace">7</text><text x="12" y="108.55" text-anchor="middle" font-size="13" fill="#5c3a1e" font-family="monospace">6</text><text x="12" y="140.55" text-anchor="middle" font-size="13" fill="#5c3a1e" font-family="monospace">5</text><text x="12" y="172.55" text-anchor="middle" font-size="13" fill="#5c3a1e" font-family="monospace">4</text><text x="12" y="204.55" text-anchor="middle" font-size="13" fill="#5c3a1e" font-family="monospace">3</text><text x="12" y="236.55" text-anchor="middle" font-size="13" fill="#5c3a1e" font-family="monospace">2</text><text x="12" y="268.55" text-anchor="middle" font-size="13" fill="#5c3a1e" font-family="monospace">1</text>
</svg>