<svg xmlns="http://www.w3.org/2000/svg" viewBox="0 0 360 360" width="360" height="360">

<rect x="24" y="24" width="26" height="26" fill="#f0d9b5" data-sq="a12" class="board-cell"/><rect x="50" y="24" width="26" height="26" fill="#b58863" data-sq="b12" class="board-cell"/><rect x="76" y="24" width="26" height="26" fill="#f0d9b5" data-sq="c12" class="board-cell"/><rect x="102" y="24" width="26" height="26" fill="#b58863" data-sq="d12" class="board-cell"/><rect x="128" y="24" width="26" height="26" fill="#f0d9b5" data-sq="e12" class="board-cell"/><rect x="154" y="24" width="26" height="26" fill="#b58863" data-sq="f12" class="board-cell"/><rect x="180" y="24" width="26" height="26" fill="#f0d9b5" data-sq="g12" class="board-cell"/><rect x="206" y="24" width="26" height="26" fill="#b58863" data-sq="h12" class="board-cell"/><rect x="232" y="24" width="26" height="26" fill="#f0d9b5" data-sq="i12" class="board-cell"/><rect x="258" y="24" width="26" height="26" fill="#b58863" data-sq="j12" class="board-cell"/><rect x="284" y="24" width="26" height="26" fill="#f0d9b5" data-sq="k12" class="board-cell"/><rect x="310" y="24" width="26" height="26" fill="#b58863" data-sq="l12" class="board-cell"/><rect x="24" y="50" width="26" height="26" fill="#b58863" data-sq="a11" class="board-cell"/><rect x="50" y="50" width="26" height="26" fill="#f0d9b5" data-sq="b11" class="board-cell"/><rect x="76" y="50" width="26" height="26" fill="#b58863" data-sq="c11" class="board-cell"/><rect x="102" y="50" width="26" height="26" fill="#f0d9b5" data-sq="d11" class="board-cell"/><rect x="128" y="50" width="26" height="26" fill="#b58863" data-sq="e11" class="board-cell"/><rect x="154" y="50" width="26" height="26" fill="#f0d9b5" data-sq="f11" class="board-cell"/><rect x="180" y="50" width="26" height="26" fill="#b58863" data-sq="g11" class="board-cell"/><rect x="206" y="50" width="26" height="26" fill="#f0d9b5" data-sq="h11" class="board-cell"/><rect x="232" y="50" width="26" height="26" fill="#b58863" data-sq="i11" class="board-cell"/><rect x="258" y="50" width="26" height="26" fill="#f0d9b5" data-sq="j11" class="board-cell"/><rect x="284" y="50" width="26" height="26" fill="#b58863" data-sq="k11" class="board-cell"/><rect x="310" y="50" width="26" height="26" fill="#f0d9b5" data-sq="l11" class="board-cell"/><rect x="24" y="76" width="26" height="26" fill="#f0d9b5" data-sq="a10" class="board-cell"/><rect x="50" y="76" width="26" height="26" fill="#b58863" data-sq="b10" class="board-cell"/><rect x="76" y="76" width="26" height="26" fill="#f0d9b5" data-sq="c10" class="board-cell"/><rect x="102" y="76" width="26" height="26" fill="#b58863" data-sq="d10" class="board-cell"/><rect x="128" y="76" width="26" height="26" fill="#f0d9b5" data-sq="e10" class="board-cell"/><rect x="154" y="76" width="26" height="26" fill="#b58863" data-sq="f10" class="board-cell"/><rect x="180" y="76" width="26" height="26" fill="#f0d9b5" data-sq="g10" class="board-cell"/><rect x="206" y="76" width="26" height="26" fill="#b58863" data-sq="h10" class="board-cell"/><rect x="232" y="76" width="26" height="26" fill="#f0d9b5" data-sq="i10" class="board-cell"/><rect x="258" y="76" width="26" height="26" fill="#b58863" data-sq="j10" class="board-cell"/><rect x="284" y="76" width="26" height="26" fill="#f0d9b5" data-sq="k10" class="board-cell"/><rect x="310" y="76" width="26" height="26" fill="#b58863" data-sq="l10" class="board-cell"/><rect x="24" y="102" width="26" height="26" fill="#b58863" data-sq="a9" class="board-cell"/><rect x="50" y="102" width="26" height="26" fill="#f0d9b5" data-sq="b9" class="board-cell"/><rect x="76" y="102" width="26" height="26" fill="#b58863" data-sq="c9" class="board-cell"/><rect x="102" y="102" width="26" height="26" fill="#f0d9b5" data-sq="d9" class="board-cell"/><rect x="128" y="102" width="26" height="26" fill="#b58863" data-sq="e9" class="board-cell"/><rect x="154" y="102" width="26" height="26" fill="#f0d9b5" data-sq="f9" class="board-cell"/><rect x="180" y="102" width="26" height="26" fill="#b58863" data-sq="g9" class="board-cell"/><rect x="206" y="102" width="26" height="26" fill="#f0d9b5" data-sq="h9" class="board-cell"/><rect x="232" y="102" width="26" height="26" fill="#b58863" data-sq="i9" class="board-cell"/><rect x="258" y="102" width="26" height="26" fill="#f0d9b5" data-sq="j9" class="board-cell"/><rect x="284" y="102" width="26" height="26" fill="#b58863" data-sq="k9" class="board-cell"/><rect x="310" y="102" width="26" height="26" fill="#f0d9b5" data-sq="l9" class="board-cell"/><rect x="24" y="128" width="26" height="26" fill="#f0d9b5" data-sq="a8" class="board-cell"/><rect x="50" y="128" width="26" height="26" fill="#b58863" data-sq="b8" class="board-cell"/><rect x="76" y="128" width="26" height="26" fill="#f0d9b5" data-sq="c8" class="board-cell"/><rect x="102" y="128" width="26" height="26" fill="#b58863" data-sq="d8" class="board-cell"/><rect x="128" y="128" width="26" height="26" fill="#f0d9b5" data-sq="e8" class="board-cell"/><rect x="154" y="128" width="26" height="26" fill="#b58863" data-sq="f8" class="board-cell"/><rect x="180" y="128" width="26" height="26" fill="#f0d9b5" data-sq="g8" class="board-cell"/><rect x="206" y="128" width="26" height="26" fill="#b58863" data-sq="h8" class="board-cell"/><rect x="232" y="128" width="26" height="26" fill="#f0d9b5" data-sq="i8" class="board-cell"/><rect x="258" y="128" width="26" height="26" fill="#b58863" data-sq="j8" class="board-cell"/><rect x="284" y="128" width="26" height="26" fill="#f0d9b5" data-sq="k8" class="board-cell"/><rect x="310" y="128" width="26" height="26" fill="#b58863" data-sq="l8" class="board-cell"/><rect x="24" y="154" width="26" height="26" fill="#b58863" data-sq="a7" class="board-cell"/><rect x="50" y="154" width="26" height="26" fill="#f0d9b5" data-sq="b7" class="board-cell"/><rect x="76" y="154" width="26" height="26" fill="#b58863" data-sq="c7" class="board-cell"/><rect x="102" y="154" width="26" height="26" fill="#f0d9b5" data-sq="d7" class="board-cell"/><rect x="128" y="154" width="26" height="26" fill="#b58863" data-sq="e7" class="board-cell"/><rect x="154" y="154" width="26" height="26" fill="#f0d9b5" data-sq="f7" class="board-cell"/><rect x="180" y="154" width="26" height="26" fill="#b58863" data-sq="g7" class="board-cell"/><rect x="206" y="154" width="26" height="26" fill="#f0d9b5" data-sq="h7" class="board-cell"/><rect x="232" y="154" width="26" height="26" fill="#b58863" data-sq="i7" class="board-cell"/><rect x="258" y="154" width="26" height="26" fill="#f0d9b5" data-sq="j7" class="board-cell"/><rect x="284" y="154" width="26" height="26" fill="#b58863" data-sq="k7" class="board-cell"/><rect x="310" y="154" width="26" height="26" fill="#f0d9b5" data-sq="l7" class="board-cell"/><rect x="24" y="180" width="26" height="26" fill="#f0d9b5" data-sq="a6" class="board-cell"/><rect x="50" y="180" width="26" height="26" fill="#b58863" data-sq="b6" class="board-cell"/><rect x="76" y="180" width="26" height="26" fill="#f0d9b5" data-sq="c6" class="board-cell"/><rect x="102" y="180" width="26" height="26" fill="#b58863" data-sq="d6" class="board-cell"/><rect x="128" y="180" width="26" height="26" fill="#f0d9b5" data-sq="e6" class="board-cell"/><rect x="154" y="180" width="26" height="26" fill="#b58863" data-sq="f6" class="board-cell"/><rect x="180" y="180" width="26" height="26" fill="#f0d9b5" data-sq="g6" class="board-cell"/><rect x="206" y="180" width="26" height="26" fill="#b58863" data-sq="h6" class="board-cell"/><rect x="232" y="180" width="26" height="26" fill="#f0d9b5" data-sq="i6" class="board-cell"/><rect x="258" y="180" width="26" height="26" fill="#b58863" data-sq="j6" class="board-cell"/><rect x="284" y="180" width="26" height="26" fill="#f0d9b5" data-sq="k6" class="board-cell"/><rect x="310" y="180" width="26" height="26" fill="#b58863" data-sq="l6" class="board-cell"/><rect x="24" y="206" width="26" height="26" fill="#b58863" data-sq="a5" class="board-cell"/><rect x="50" y="206" width="26" height="26" fill="#f0d9b5" data-sq="b5" class="board-cell"/><rect x="76" y="206" width="26" height="26" fill="#b58863" data-sq="c5" class="board-cell"/><rect x="102" y="206" width="26" height="26" fill="#f0d9b5" data-sq="d5" class="board-cell"/><rect x="128" y="206" width="26" height="26" fill="#b58863" data-sq="e5" class="board-cell"/><rect x="154" y="206" width="26" height="26" fill="#f0d9b5" data-sq="f5" class="board-cell"/><rect x="180" y="206" width="26" height="26" fill="#b58863" data-sq="g5" class="board-cell"/><rect x="206" y="206" width="26" height="26" fill="#f0d9b5" data-sq="h5" class="board-cell"/><rect x="232" y="206" width="26" height="26" fill="#b58863" data-sq="i5" class="board-cell"/><rect x="258" y="206" width="26" height="26" fill="#f0d9b5" data-sq="j5" class="board-cell"/><rect x="284" y="206" width="26" height="26" fill="#b58863" data-sq="k5" class="board-cell"/><rect x="310" y="206" width="26" height="26" fill="#f0d9b5" data-sq="l5" class="board-cell"/><rect x="24" y="232" width="26" height="26" fill="#f0d9b5" data-sq="a4" class="board-cell"/><rect x="50" y="232" width="26" height="26" fill="#b58863" data-sq="b4" class="board-cell"/><rect x="76" y="232" width="26" height="26" fill="#f0d9b5" data-sq="c4" class="board-cell"/><rect x="102" y="232" width="26" height="26" fill="#b58863" data-sq="d4" class="board-cell"/><rect x="128" y="232" width="26" height="26" fill="#f0d9b5" data-sq="e4" class="board-cell"/><rect x="154" y="232" width="26" height="26" fill="#b58863" data-sq="f4" class="board-cell"/><rect x="180" y="232" width="26" height="26" fill="#f0d9b5" data-sq="g4" class="board-cell"/><rect x="206" y="232" width="26" height="26" fill="#b58863" data-sq="h4" class="board-cell"/><rect x="232" y="232" width="26" height="26" fill="#f0d9b5" data-sq="i4" class="board-cell"/><rect x="258" y="232" width="26" height="26" fill="#b58863" data-sq="j4" class="board-cell"/><rect x="284" y="232" width="26" height="26" fill="#f0d9b5" data-sq="k4" class="board-cell"/><rect x="310" y="232" width="26" height="26" fill="#b58863" data-sq="l4" class="board-cell"/><rect x="24" y="258" width="26" height="26" fill="#b58863" data-sq="a3" class="board-cell"/><rect x="50" y="258" width="26" height="26" fill="#f0d9b5" data-sq="b3" class="board-cell"/><rect x="76" y="258" width="26" height="26" fill="#b58863" data-sq="c3" class="board-cell"/><rect x="102" y="258" width="26" height="26" fill="#f0d9b5" data-sq="d3" class="board-cell"/><rect x="128" y="258" width="26" height="26" fill="#b58863" data-sq="e3" class="board-cell"/><rect x="154" y="258" width="26" height="26" fill="#f0d9b5" data-sq="f3" class="board-cell"/><rect x="180" y="258" width="26" height="26" fill="#b58863" data-sq="g3" class="board-cell"/><rect x="206" y="258" width="26" height="26" fill="#f0d9b5" data-sq="h3" class="board-cell"/><rect x="232" y="258" width="26" height="26" fill="#b58863" data-sq="i3" class="board-cell"/><rect x="258" y="258" width="26" height="26" fill="#f0d9b5" data-sq="j3" class="board-cell"/><rect x="284" y="258" width="26" height="26" fill="#b58863" data-sq="k3" class="board-cell"/><rect x="310" y="258" width="26" height="26" fill="#f0d9b5" data-sq="l3" class="board-cell"/><rect x="24" y="284" width="26" height="26" fill="#f0d9b5" data-sq="a2" class="board-cell"/><rect x="50" y="284" width="26" height="26" fill="#b58863" data-sq="b2" class="board-cell"/><rect x="76" y="284" width="26" height="26" fill="#f0d9b5" data-sq="c2" class="board-cell"/><rect x="102" y="284" width="26" height="26" fill="#b58863" data-sq="d2" class="board-cell"/><rect x="128" y="284" width="26" height="26" fill="#f0d9b5" data-sq="e2" class="board-cell"/><rect x="154" y="284" width="26" height="26" fill="#b58863" data-sq="f2" class="board-cell"/><rect x="180" y="284" width="26" height="26" fill="#f0d9b5" data-sq="g2" class="board-cell"/><rect x="206" y="284" width="26" height="26" fill="#b58863" data-sq="h2" class="board-cell"/><rect x="232" y="284" width="26" height="26" fill="#f0d9b5" data-sq="i2" class="board-cell"/><rect x="258" y="284" width="26" height="26" fill="#b58863" data-sq="j2" class="board-cell"/><rect x="284" y="284" width="26" height="26" fill="#f0d9b5" data-sq="k2" class="board-cell"/><rect x="310" y="284" width="26" height="26" fill="#b58863" data-sq="l2" class="board-cell"/><rect x="24" y="310" width="26" height="26" fill="#b58863" data-sq="a1" class="board-cell"/><rect x="50" y="310" width="26" height="26" fill="#f0d9b5" data-sq="b1" class="board-cell"/><rect x="76" y="310" width="26" height="26" fill="#b58863" data-sq="c1" class="board-cell"/><rect x="102" y="310" width="26" height="26" fill="#f0d9b5" data-sq="d1" class="board-cell"/><rect x="128" y="310" width="26" height="26" fill="#b58863" data-sq="e1" class="board-cell"/><rect x="154" y="310" width="26" height="26" fill="#f0d9b5" data-sq="f1" class="board-cell"/><rect x="180" y="310" width="26" height="26" fill="#b58863" data-sq="g1" class="board-cell"/><rect x="206" y="310" width="26" height="26" fill="#f0d9b5" data-sq="h1" class="board-cell"/><rect x="232" y="310" width="26" height="26" fill="#b58863" data-sq="i1" class="board-cell"/><rect x="258" y="310" width="26" height="26" fill="#f0d9b5" data-sq="j1" class="board-cell"/><rect x="284" y="310" width="26" height="26" fill="#b58863" data-sq="k1" class="board-cell"/><rect x="310" y="310" width="26" height="26" fill="#f0d9b5" data-sq="l1" class="board-cell"/>
<g pointer-events="none"><image href="../pieces/sets/mce-chess/bR.svg" x="24" y="24" width="26" height="26" pointer-events="none"/><image href="../pieces/sets/mce-chess/bN.svg" x="50" y="24" width="26" height="26" pointer-events="none"/><image href="../pieces/sets/mce-chess/bB.svg" x="76" y="24" width="26" height="26" pointer-events="none"/><image href="../pieces/sets/mce-chess/bC.svg" x="102" y="24" width="26" height="26" pointer-events="none"/><image href="../pieces/sets/mce-chess/bL.svg" x="128" y="24" width="26" height="26" pointer-events="none"/><image href="../pieces/sets/mce-chess/bQ.svg" x="154" y="24" width="26" height="26" pointer-events="none"/><image href="../pieces/sets/mce-chess/bK.svg" x="180" y="24" width="26" height="26" pointer-events="none"/><image href="../pieces/sets/mce-chess/bL.svg" x="206" y="24" width="26" height="26" pointer-events="none"/><image href="../pieces/sets/mce-chess/bC.svg" x="232" y="24" width="26" height="26" pointer-events="none"/><image href="../pieces/sets/mce-chess/bB.svg" x="258" y="24" width="26" height="26" pointer-events="none"/><image href="../pieces/sets/mce-chess/bN.svg" x="284" y="24" width="26" height="26" pointer-events="none"/><image href="../pieces/sets/mce-chess/bR.svg" x="310" y="24" width="26" height="26" pointer-events="none"/><image href="../pieces/sets/mce-chess/bP.svg" x="24" y="50" width="26" height="26" pointer-events="none"/><image href="../pieces/sets/mce-chess/bP.svg" x="50" y="50" width="26" height="26" pointer-events="none"/><image href="../pieces/sets/mce-chess/bP.svg" x="76" y="50" width="26" height="26" pointer-events="none"/><image href="../pieces/sets/mce-chess/bP.svg" x="102" y="50" width="26" height="26" pointer-events="none"/><image href="../pieces/sets/mce-chess/bP.svg" x="128" y="50" width="26" height="26" pointer-events="none"/><image href="../pieces/sets/mce-chess/bP.svg" x="154" y="50" width="26" height="26" pointer-events="none"/><image href="../pieces/sets/mce-chess/bP.svg" x="180" y="50" width="26" height="26" pointer-events="none"/><image href="../pieces/sets/mce-chess/bP.svg" x="206" y="50" width="26" height="26" pointer-events="none"/><image href="../pieces/sets/mce-chess/bP.svg" x="232" y="50" width="26" height="26" pointer-events="none"/><image href="../pieces/sets/mce-chess/bP.svg" x="258" y="50" width="26" height="26" pointer-events="none"/><image href="../pieces/sets/mce-chess/bP.svg" x="284" y="50" width="26" height="26" pointer-events="none"/><image href="../pieces/sets/mce-chess/bP.svg" x="310" y="50" width="26" height="26" pointer-events="none"/><image href="../pieces/sets/mce-chess/wP.svg" x="24" y="284" width="26" height="26" pointer-events="none"/><image href="../pieces/sets/mce-chess/wP.svg" x="50" y="284" width="26" height="26" pointer-events="none"/><image href="../pieces/sets/mce-chess/wP.svg" x="76" y="284" width="26" height="26" pointer-events="none"/><image href="../pieces/sets/mce-chess/wP.svg" x="102" y="284" width="26" height="26" pointer-events="none"/><image href="../pieces/sets/mce-chess/wP.svg" x="128" y="284" width="26" height="26" pointer-events="none"/><image href="../pieces/sets/mce-chess/wP.svg" x="154" y="284" width="26" height="26" pointer-events="none"/><image href="../pieces/sets/mce-chess/wP.svg" x="180" y="284" width="26" height="26" pointer-events="none"/><image href="../pieces/sets/mce-chess/wP.svg" x="206" y="284" width="26" height="26" pointer-events="none"/><image href="../pieces/sets/mce-chess/wP.svg" x="232" y="284" width="26" height="26" pointer-events="none"/><image href="../pieces/sets/mce-chess/wP.svg" x="258" y="284" width="26" height="26" pointer-events="none"/><image href="../pieces/sets/mce-chess/wP.svg" x="284" y="284" width="26" height="26" pointer-events="none"/><image href="../pieces/sets/mce-chess/wP.svg" x="310" y="284" width="26" height="26" pointer-events="none"/><image href="../pieces/sets/mce-chess/wR.svg" x="24" y="310" width="26" height="26" pointer-events="none"/><image href="../pieces/sets/mce-chess/wN.svg" x="50" y="310" width="26" height="26" pointer-events="none"/><image href="../pieces/sets/mce-chess/wB.svg" x="76" y="310" width="26" height="26" pointer-events="none"/><image href="../pieces/sets/mce-chess/wC.svg" x="102" y="310" width="26" height="26" pointer-events="none"/><image href="../pieces/sets/mce-chess/wL.svg" x="128" y="310" width="26" height="26" pointer-events="none"/><image href="../pieces/sets/mce-chess/wQ.svg" x="154" y="310" width="26" height="26" pointer-events="none"/><image href="../pieces/sets/mce-chess/wK.svg" x="180" y="310" width="26" height="26" pointer-events="none"/><image href="../pieces/sets/mce-chess/wL.svg" x="206" y="310" width="26" height="26" pointer-events="none"/><image href="../pieces/sets/mce-chess/wC.svg" x="232" y="310" width="26" height="26" pointer-events="none"/><image href="../pieces/sets/mce-chess/wB.svg" x="258" y="310" width="26" height="26" pointer-events="none"/><image href="../pieces/sets/mce-chess/wN.svg" x="284" y="310" width="26" height="26" pointer-events="none"/><image href="../pieces/sets/mce-chess/wR.svg" x="310" y="310" width="26" height="26" pointer-events="none"/></g>
<text x="37" y="351.6" text-anchor="middle" font-size="13" fill="#5c3a1e" font-family="monospace">a</text><text x="63" y="351.6" text-anchor="middle" font-size="13" fill="#5c3a1e" font-family="monospace">b</text><text x="89" y="351.6" text-anchor="middle" font-size="13" fill="#5c3a1e" font-family="monospace">c</text><text x="115" y="351.6" text-anchor="middle" font-size="13" fill="#5c3a1e" font-family="monospace">d</text><text x="141" y="351.6" text-anchor="middle" font-size="13" fill="#5c3a1e" font-family="monospace">e</text><text x="167" y="351.6" text-anchor="middle" font-size="13" fill="#5c3a1e" font-family="monospace">f</text><text x="193" y="351.6" text-anchor="middle" font-size="13" fill="#5c3a1e" font-family="monospace">g</text><text x="219" y="351.6" text-anchor="middle" font-size="13" fill="#5c3a1e" font-family="monospace">h</text><text x="245" y="351.6" text-anchor="middle" font-size="13" fill="#5c3a1e" font-family="monospace">i</text><text x="271" y="351.6" text-anchor="middle" font-size="13" fill="#5c3a1e" font-family="monospace">j</text><text x="297" y="351.6" text-anchor="middle" font-size="13" fill="#5c3a1e" font-family="monospace">k</text><text x="323" y="351.6" text-anchor="middle" font-size="13" fill="#5c3a1e" font-family="monospace">l</text><text x="12" y="41.55" text-anchor="middle" font-size="13" fill="#5c3a1e" font-family="monospace">12</text><text x="12" y="67.55" text-anchor="middle" font-size="13" fill="#5c3a1e" font-family="monospace">11</text><text x="12" y="93.55" text-anchor="middle" font-size="13" fill="#5c3a1e" font-family="monospace">10</text><text x="12" y="119.55" text-anchor="middle" font-size="13" fill="#5c3a1e" font-family="monospace">9</text><text x="12" y="145.55" text-anchor="middle" font-size="13" fill="#5c3a1e" font-family="monospace">8</text><text x="12" y="171.55" text-anchor="middle" font-size="13" fill="#5c3a1e" font-family="monospace">7</text><text x="12" y="197.55" text-anchor="middle" font-size="13" fill="#5c3a1e" font-family="monospace">6</text><text x="12" y="223.55" text-anchor="middle" font-size="13" fill="#5c3a1e" font-family="monospace">5</text><text x="12" y="249.55" text-anchor="middle" font-size="13" fill="#5c3a1e" font-family="monospace">4</text><text x="12" y="275.55" text-anchor="middle" font-size="13" fill="#5c3a1e" font-family="monospace">3</text><text x="12" y="301.55" text-anchor="middle" font-size="13" fill="#5c3a1e" font-family="monospace">2</text><text x="12" y="327.55" text-anchor="middle" font-size="13" fill="#5c3a1e" font-family="monospace">1</text>
</svg>