<svg xmlns="http://www.w3.org/2000/svg" viewBox="0 0 388 388" width="388" height="388">

<rect x="24" y="24" width="34" height="34" fill="#f0d9b5" data-sq="a10" class="board-cell"/><rect x="58" y="24" width="34" height="34" fill="#b58863" data-sq="b10" class="board-cell"/><rect x="92" y="24" width="34" height="34" fill="#f0d9b5" data-sq="c10" class="board-cell"/><rect x="126" y="24" width="34" height="34" fill="#b58863" data-sq="d10" class="board-cell"/><rect x="160" y="24" width="34" height="34" fill="#f0d9b5" data-sq="e10" class="board-cell"/><rect x="194" y="24" width="34" height="34" fill="#b58863" data-sq="f10" class="board-cell"/><rect x="228" y="24" width="34" height="34" fill="#f0d9b5" data-sq="g10" class="board-cell"/><rect x="262" y="24" width="34" height="34" fill="#b58863" data-sq="h10" class="board-cell"/><rect x="296" y="24" width="34" height="34" fill="#f0d9b5" data-sq="i10" class="board-cell"/><rect x="330" y="24" width="34" height="34" fill="#b58863" data-sq="j10" class="board-cell"/><rect x="24" y="58" width="34" height="34" fill="#b58863" data-sq="a9" class="board-cell"/><rect x="58" y="58" width="34" height="34" fill="#f0d9b5" data-sq="b9" class="board-cell"/><rect x="92" y="58" width="34" height="34" fill="#b58863" data-sq="c9" class="board-cell"/><rect x="126" y="58" width="34" height="34" fill="#f0d9b5" data-sq="d9" class="board-cell"/><rect x="160" y="58" width="34" height="34" fill="#b58863" data-sq="e9" class="board-cell"/><rect x="194" y="58" width="34" height="34" fill="#f0d9b5" data-sq="f9" class="board-cell"/><rect x="228" y="58" width="34" height="34" fill="#b58863" data-sq="g9" class="board-cell"/><rect x="262" y="58" width="34" height="34" fill="#f0d9b5" data-sq="h9" class="board-cell"/><rect x="296" y="58" width="34" height="34" fill="#b58863" data-sq="i9" class="board-cell"/><rect x="330" y="58" width="34" height="34" fill="#f0d9b5" data-sq="j9" class="board-cell"/><rect x="24" y="92" width="34" height="34" fill="#f0d9b5" data-sq="a8" class="board-cell"/><rect x="58" y="92" width="34" height="34" fill="#b58863" data-sq="b8" class="board-cell"/><rect x="92" y="92" width="34" height="34" fill="#f0d9b5" data-sq="c8" class="board-cell"/><rect x="126" y="92" width="34" height="34" fill="#b58863" data-sq="d8" class="board-cell"/><rect x="160" y="92" width="34" height="34" fill="#f0d9b5" data-sq="e8" class="board-cell"/><rect x="194" y="92" width="34" height="34" fill="#b58863" data-sq="f8" class="board-cell"/><rect x="228" y="92" width="34" height="34" fill="#f0d9b5" data-sq="g8" class="board-cell"/><rect x="262" y="92" width="34" height="34" fill="#b58863" data-sq="h8" class="board-cell"/><rect x="296" y="92" width="34" height="34" fill="#f0d9b5" data-sq="i8" class="board-cell"/><rect x="330" y="92" width="34" height="34" fill="#b58863" data-sq="j8" class="board-cell"/><rect x="24" y="126" width="34" height="34" fill="#b58863" data-sq="a7" class="board-cell"/><rect x="58" y="126" width="34" height="34" fill="#f0d9b5" data-sq="b7" class="board-cell"/><rect x="92" y="126" width="34" height="34" fill="#b58863" data-sq="c7" class="board-cell"/><rect x="126" y="126" width="34" height="34" fill="#f0d9b5" data-sq="d7" class="board-cell"/><rect x="160" y="126" width="34" height="34" fill="#b58863" data-sq="e7" class="board-cell"/><rect x="194" y="126" width="34" height="34" fill="#f0d9b5" data-sq="f7" class="board-cell"/><rect x="228" y="126" width="34" height="34" fill="#b58863" data-sq="g7" class="board-cell"/><rect x="262" y="126" width="34" height="34" fill="#f0d9b5" data-sq="h7" class="board-cell"/><rect x="296" y="126" width="34" height="34" fill="#b58863" data-sq="i7" class="board-cell"/><rect x="330" y="126" width="34" height="34" fill="#f0d9b5" data-sq="j7" class="board-cell"/><rect x="24" y="160" width="34" height="34" fill="#f0d9b5" data-sq="a6" class="board-cell"/><rect x="58" y="160" width="34" height="34" fill="#b58863" data-sq="b6" class="board-cell"/><rect x="92" y="160" width="34" height="34" fill="#f0d9b5" data-sq="c6" class="board-cell"/><rect x="126" y="160" width="34" height="34" fill="#b58863" data-sq="d6" class="board-cell"/><rect x="160" y="160" width="34" height="34" fill="#f0d9b5" data-sq="e6" class="board-cell"/><rect x="194" y="160" width="34" height="34" fill="#b58863" data-sq="f6" class="board-cell"/><rect x="228" y="160" width="34" height="34" fill="#f0d9b5" data-sq="g6" class="board-cell"/><rect x="262" y="160" width="34" height="34" fill="#b58863" data-sq="h6" class="board-cell"/><rect x="296" y="160" width="34" height="34" fill="#f0d9b5" data-sq="i6" class="board-cell"/><rect x="330" y="160" width="34" height="34" fill="#b58863" data-sq="j6" class="board-cell"/><rect x="24" y="194" width="34" height="34" fill="#b58863" data-sq="a5" class="board-cell"/><rect x="58" y="194" width="34" height="34" fill="#f0d9b5" data-sq="b5" class="board-cell"/><rect x="92" y="194" width="34" height="34" fill="#b58863" data-sq="c5" class="board-cell"/><rect x="126" y="194" width="34" height="34" fill="#f0d9b5" data-sq="d5" class="board-cell"/><rect x="160" y="194" width="34" height="34" fill="#b58863" data-sq="e5" class="board-cell"/><rect x="194" y="194" width="34" height="34" fill="#f0d9b5" data-sq="f5" class="board-cell"/><rect x="228" y="194" width="34" height="34" fill="#b58863" data-sq="g5" class="board-cell"/><rect x="262" y="194" width="34" height="34" fill="#f0d9b5" data-sq="h5" class="board-cell"/><rect x="296" y="194" width="34" height="34" fill="#b58863" data-sq="i5" class="board-cell"/><rect x="330" y="194" width="34" height="34" fill="#f0d9b5" data-sq="j5" class="board-cell"/><rect x="24" y="228" width="34" height="34" fill="#f0d9b5" data-sq="a4" class="board-cell"/><rect x="58" y="228" width="34" height="34" fill="#b58863" data-sq="b4" class="board-cell"/><rect x="92" y="228" width="34" height="34" fill="#f0d9b5" data-sq="c4" class="board-cell"/><rect x="126" y="228" width="34" height="34" fill="#b58863" data-sq="d4" class="board-cell"/><rect x="160" y="228" width="34" height="34" fill="#f0d9b5" data-sq="e4" class="board-cell"/><rect x="194" y="228" width="34" height="34" fill="#b58863" data-sq="f4" class="board-cell"/><rect x="228" y="228" width="34" height="34" fill="#f0d9b5" data-sq="g4" class="board-cell"/><rect x="262" y="228" width="34" height="34" fill="#b58863" data-sq="h4" class="board-cell"/><rect x="296" y="228" width="34" height="34" fill="#f0d9b5" data-sq="i4" class="board-cell"/><rect x="330" y="228" width="34" height="34" fill="#b58863" data-sq="j4" class="board-cell"/><rect x="24" y="262" width="34" height="34" fill="#b58863" data-sq="a3" class="board-cell"/><rect x="58" y="262" width="34" height="34" fill="#f0d9b5" data-sq="b3" class="board-cell"/><rect x="92" y="262" width="34" height="34" fill="#b58863" data-sq="c3" class="board-cell"/><rect x="126" y="262" width="34" height="34" fill="#f0d9b5" data-sq="d3" class="board-cell"/><rect x="160" y="262" width="34" height="34" fill="#b58863" data-sq="e3" class="board-cell"/><rect x="194" y="262" width="34" height="34" fill="#f0d9b5" data-sq="f3" class="board-cell"/><rect x="228" y="262" width="34" height="34" fill="#b58863" data-sq="g3" class="board-cell"/><rect x="262" y="262" width="34" height="34" fill="#f0d9b5" data-sq="h3" class="board-cell"/><rect x="296" y="262" width="34" height="34" fill="#b58863" data-sq="i3" class="board-cell"/><rect x="330" y="262" width="34" height="34" fill="#f0d9b5" data-sq="j3" class="board-cell"/><rect x="24" y="296" width="34" height="34" fill="#f0d9b5" data-sq="a2" class="board-cell"/><rect x="58" y="296" width="34" height="34" fill="#b58863" data-sq="b2" class="board-cell"/><rect x="92" y="296" width="34" height="34" fill="#f0d9b5" data-sq="c2" class="board-cell"/><rect x="126" y="296" width="34" height="34" fill="#b58863" data-sq="d2" class="board-cell"/><rect x="160" y="296" width="34" height="34" fill="#f0d9b5" data-sq="e2" class="board-cell"/><rect x="194" y="296" width="34" height="34" fill="#b58863" data-sq="f2" class="board-cell"/><rect x="228" y="296" width="34" height="34" fill="#f0d9b5" data-sq="g2" class="board-cell"/><rect x="262" y="296" width="34" height="34" fill="#b58863" data-sq="h2" class="board-cell"/><rect x="296" y="296" width="34" height="34" fill="#f0d9b5" data-sq="i2" class="board-cell"/><rect x="330" y="296" width="34" height="34" fill="#b58863" data-sq="j2" class="board-cell"/><rect x="24" y="330" width="34" height="34" fill="#b58863" data-sq="a1" class="board-cell"/><rect x="58" y="330" width="34" height="34" fill="#f0d9b5" data-sq="b1" class="board-cell"/><rect x="92" y="330" width="34" height="34" fill="#b58863" data-sq="c1" class="board-cell"/><rect x="126" y="330" width="34" height="34" fill="#f0d9b5" data-sq="d1" class="board-cell"/><rect x="160" y="330" width="34" height="34" fill="#b58863" data-sq="e1" class="board-cell"/><rect x="194" y="330" width="34" height="34" fill="#f0d9b5" data-sq="f1" class="board-cell"/><rect x="228" y="330" width="34" height="34" fill="#b58863" data-sq="g1" class="board-cell"/><rect x="262" y="330" width="34" height="34" fill="#f0d9b5" data-sq="h1" class="board-cell"/><rect x="296" y="330" width="34" height="34" fill="#b58863" data-sq="i1" class="board-cell"/><rect x="330" y="330" width="34" height="34" fill="#f0d9b5" data-sq="j1" class="board-cell"/>
<g pointer-events="none"><image href="../pieces/sets/mce-chess/bR.svg" x="24" y="24" width="34" height="34" pointer-events="none"/><image href="../pieces/sets/mce-chess/bN.svg" x="58" y="24" width="34" height="34" pointer-events="none"/><image href="../pieces/sets/mce-chess/bC.svg" x="92" y="24" width="34" height="34" pointer-events="none"/><image href="../pieces/sets/mce-chess/bB.svg" x="126" y="24" width="34" height="34" pointer-events="none"/><image href="../pieces/sets/mce-chess/bQ.svg" x="160" y="24" width="34" height="34" pointer-events="none"/><image href="../pieces/sets/mce-chess/bK.svg" x="194" y="24" width="34" height="34" pointer-events="none"/><image href="../pieces/sets/mce-chess/bB.svg" x="228" y="24" width="34" height="34" pointer-events="none"/><image href="../pieces/sets/mce-chess/bC.svg" x="262" y="24" width="34" height="34" pointer-events="none"/><image href="../pieces/sets/mce-chess/bN.svg" x="296" y="24" width="34" height="34" pointer-events="none"/><image href="../pieces/sets/mce-chess/bR.svg" x="330" y="24" width="34" height="34" pointer-events="none"/><image href="../pieces/sets/mce-chess/bP.svg" x="24" y="58" width="34" height="34" pointer-events="none"/><image href="../pieces/sets/mce-chess/bP.svg" x="58" y="58" width="34" height="34" pointer-events="none"/><image href="../pieces/sets/mce-chess/bP.svg" x="92" y="58" width="34" height="34" pointer-events="none"/><image href="../pieces/sets/mce-chess/bP.svg" x="126" y="58" width="34" height="34" pointer-events="none"/><image href="../pieces/sets/mce-chess/bP.svg" x="160" y="58" width="34" height="34" pointer-events="none"/><image href="../pieces/sets/mce-chess/bP.svg" x="194" y="58" width="34" height="34" pointer-events="none"/><image href="../pieces/sets/mce-chess/bP.svg" x="228" y="58" width="34" height="34" pointer-events="none"/><image href="../pieces/sets/mce-chess/bP.svg" x="262" y="58" width="34" height="34" pointer-events="none"/><image href="../pieces/sets/mce-chess/bP.svg" x="296" y="58" width="34" height="34" pointer-events="none"/><image href="../pieces/sets/mce-chess/bP.svg" x="330" y="58" width="34" height="34" pointer-events="none"/><image href="../pieces/sets/mce-chess/wP.svg" x="24" y="296" width="34" height="34" pointer-events="none"/><image href="../pieces/sets/mce-chess/wP.svg" x="58" y="296" width="34" height="34" pointer-events="none"/><image href="../pieces/sets/mce-chess/wP.svg" x="92" y="296" width="34" height="34" pointer-events="none"/><image href="../pieces/sets/mce-chess/wP.svg" x="126" y="296" width="34" height="34" pointer-events="none"/><image href="../pieces/sets/mce-chess/wP.svg" x="160" y="296" width="34" height="34" pointer-events="none"/><image href="../pieces/sets/mce-chess/wP.svg" x="194" y="296" width="34" height="34" pointer-events="none"/><image href="../pieces/sets/mce-chess/wP.svg" x="228" y="296" width="34" height="34" pointer-events="none"/><image href="../pieces/sets/mce-chess/wP.svg" x="262" y="296" width="34" height="34" pointer-events="none"/><image href="../pieces/sets/mce-chess/wP.svg" x="296" y="296" width="34" height="34" pointer-events="none"/><image href="../pieces/sets/mce-chess/wP.svg" x="330" y="296" width="34" height="34" pointer-events="none"/><image href="../pieces/sets/mce-chess/wR.svg" x="24" y="330" width="34" height="34" pointer-events="none"/><image href="../pieces/sets/mce-chess/wN.svg" x="58" y="330" width="34" height="34" pointer-events="none"/><image href="../pieces/sets/mce-chess/wC.svg" x="92" y="330" width="34" height="34" pointer-events="none"/><image href="../pieces/sets/mce-chess/wB.svg" x="126" y="330" width="34" height="34" pointer-events="none"/><image href="../pieces/sets/mce-chess/wQ.svg" x="160" y="330" width="34" height="34" pointer-events="none"/><image href="../pieces/sets/mce-chess/wK.svg" x="194" y="330" width="34" height="34" pointer-events="none"/><image href="../pieces/sets/mce-chess/wB.svg" x="228" y="330" width="34" height="34" pointer-events="none"/><image href="../pieces/sets/mce-chess/wC.svg" x="262" y="330" width="34" height="34" pointer-events="none"/><image href="../pieces/sets/mce-chess/wN.svg" x="296" y="330" width="34" height="34" pointer-events="none"/><image href="../pieces/sets/mce-chess/wR.svg" x="330" y="330" width="34" height="34" pointer-events="none"/></g>
<text x="41" y="379.6" text-anchor="middle" font-size="13" fill="#5c3a1e" font-family="monospace">a</text><text x="75" y="379.6" text-anchor="middle" font-size="13" fill="#5c3a1e" font-family="monospace">b</text><text x="109" y="379.6" text-anchor="middle" font-size="13" fill="#5c3a1e" font-family="monospace">c</text><text x="143" y="379.6" text-anchor="middle" font-size="13" fill="#5c3a1e" font-family="monospace">d</text><text x="177" y="379.6" text-anchor="middle" font-size="13" fill="#5c3a1e" font-family="monospace">e</text><text x="211" y="379.6" text-anchor="middle" font-size="13" fill="#5c3a1e" font-family="monospace">f</text><text x="245" y="379.6" text-anchor="middle" font-size="13" fill="#5c3a1e" font-family="monospace">g</text><text x="279" y="379.6" text-anchor="middle" font-size="13" fill="#5c3a1e" font-family="monospace">h</text><text x="313" y="379.6" text-anchor="middle" font-size="13" fill="#5c3a1e" font-family="monospace">i</text><text x="347" y="379.6" text-anchor="middle" font-size="13" fill="#5c3a1e" font-family="monospace">j</text><text x="12" y="45.55" text-anchor="middle" font-size="13" fill="#5c3a1e" font-family="monospace">10</text><text x="12" y="79.55" text-anchor="middle" font-size="13" fill="#5c3a1e" font-family="monospace">9</text><text x="12" y="113.55" text-anchor="middle" font-size="13" fill="#5c3a1e" font-family="monospace">8</text><text x="12" y="147.55" text-anchor="middle" font-size="13" fill="#5c3a1e" font-family="monospace">7</text><text x="12" y="181.55" text-anchor="middle" font-size="13" fill="#5c3a1e" font-family="monospace">6</text><text x="12" y="215.55" text-anchor="middle" font-size="13" fill="#5c3a1e" font-family="monospace">5</text><text x="12" y="249.55" text-anchor="middle" font-size="13" fill="#5c3a1e" font-family="monospace">4</text><text x="12" y="283.55" text-anchor="middle" font-size="13" fill="#5c3a1e" font-family="monospace">3</text><text x="12" y="317.55" text-anchor="middle" font-size="13" fill="#5c3a1e" font-family="monospace">2</text><text x="12" y="351.55" text-anchor="middle" font-size="13" fill="#5c3a1e" font-family="monospace">1</text>
</svg>