<svg xmlns="http://www.w3.org/2000/svg" viewBox="0 0 352 390" width="352" height="390">

<rect x="24" y="24" width="38" height="38" fill="#f0d9b5" data-sq="a9" class="board-cell"/><rect x="62" y="24" width="38" height="38" fill="#b58863" data-sq="b9" class="board-cell"/><rect x="100" y="24" width="38" height="38" fill="#f0d9b5" data-sq="c9" class="board-cell"/><rect x="138" y="24" width="38" height="38" fill="#b58863" data-sq="d9" class="board-cell"/><rect x="176" y="24" width="38" height="38" fill="#f0d9b5" data-sq="e9" class="board-cell"/><rect x="214" y="24" width="38" height="38" fill="#b58863" data-sq="f9" class="board-cell"/><rect x="252" y="24" width="38" height="38" fill="#f0d9b5" data-sq="g9" class="board-cell"/><rect x="290" y="24" width="38" height="38" fill="#b58863" data-sq="h9" class="board-cell"/><rect x="24" y="62" width="38" height="38" fill="#b58863" data-sq="a8" class="board-cell"/><rect x="62" y="62" width="38" height="38" fill="#f0d9b5" data-sq="b8" class="board-cell"/><rect x="100" y="62" width="38" height="38" fill="#b58863" data-sq="c8" class="board-cell"/><rect x="138" y="62" width="38" height="38" fill="#f0d9b5" data-sq="d8" class="board-cell"/><rect x="176" y="62" width="38" height="38" fill="#b58863" data-sq="e8" class="board-cell"/><rect x="214" y="62" width="38" height="38" fill="#f0d9b5" data-sq="f8" class="board-cell"/><rect x="252" y="62" width="38" height="38" fill="#b58863" data-sq="g8" class="board-cell"/><rect x="290" y="62" width="38" height="38" fill="#f0d9b5" data-sq="h8" class="board-cell"/><rect x="24" y="100" width="38" height="38" fill="#f0d9b5" data-sq="a7" class="board-cell"/><rect x="62" y="100" width="38" height="38" fill="#b58863" data-sq="b7" class="board-cell"/><rect x="100" y="100" width="38" height="38" fill="#f0d9b5" data-sq="c7" class="board-cell"/><rect x="138" y="100" width="38" height="38" fill="#b58863" data-sq="d7" class="board-cell"/><rect x="176" y="100" width="38" height="38" fill="#f0d9b5" data-sq="e7" class="board-cell"/><rect x="214" y="100" width="38" height="38" fill="#b58863" data-sq="f7" class="board-cell"/><rect x="252" y="100" width="38" height="38" fill="#f0d9b5" data-sq="g7" class="board-cell"/><rect x="290" y="100" width="38" height="38" fill="#b58863" data-sq="h7" class="board-cell"/><rect x="24" y="138" width="38" height="38" fill="#b58863" data-sq="a6" class="board-cell"/><rect x="62" y="138" width="38" height="38" fill="#f0d9b5" data-sq="b6" class="board-cell"/><rect x="100" y="138" width="38" height="38" fill="#b58863" data-sq="c6" class="board-cell"/><rect x="138" y="138" width="38" height="38" fill="#f0d9b5" data-sq="d6" class="board-cell"/><rect x="176" y="138" width="38" height="38" fill="#b58863" data-sq="e6" class="board-cell"/><rect x="214" y="138" width="38" height="38" fill="#f0d9b5" data-sq="f6" class="board-cell"/><rect x="252" y="138" width="38" height="38" fill="#b58863" data-sq="g6" class="board-cell"/><rect x="290" y="138" width="38" height="38" fill="#f0d9b5" data-sq="h6" class="board-cell"/><rect x="24" y="176" width="38" height="38" fill="#f0d9b5" data-sq="a5" class="board-cell"/><rect x="62" y="176" width="38" height="38" fill="#b58863" data-sq="b5" class="board-cell"/><rect x="100" y="176" width="38" height="38" fill="#f0d9b5" data-sq="c5" class="board-cell"/><rect x="138" y="176" width="38" height="38" fill="#b58863" data-sq="d5" class="board-cell"/><rect x="176" y="176" width="38" height="38" fill="#f0d9b5" data-sq="e5" class="board-cell"/><rect x="214" y="176" width="38" height="38" fill="#b58863" data-sq="f5" class="board-cell"/><rect x="252" y="176" width="38" height="38" fill="#f0d9b5" data-sq="g5" class="board-cell"/><rect x="290" y="176" width="38" height="38" fill="#b58863" data-sq="h5" class="board-cell"/><rect x="24" y="214" width="38" height="38" fill="#b58863" data-sq="a4" class="board-cell"/><rect x="62" y="214" width="38" height="38" fill="#f0d9b5" data-sq="b4" class="board-cell"/><rect x="100" y="214" width="38" height="38" fill="#b58863" data-sq="c4" class="board-cell"/><rect x="138" y="214" width="38" height="38" fill="#f0d9b5" data-sq="d4" class="board-cell"/><rect x="176" y="214" width="38" height="38" fill="#b58863" data-sq="e4" class="board-cell"/><rect x="214" y="214" width="38" height="38" fill="#f0d9b5" data-sq="f4" class="board-cell"/><rect x="252" y="214" width="38" height="38" fill="#b58863" data-sq="g4" class="board-cell"/><rect x="290" y="214" width="38" height="38" fill="#f0d9b5" data-sq="h4" class="board-cell"/><rect x="24" y="252" width="38" height="38" fill="#f0d9b5" data-sq="a3" class="board-cell"/><rect x="62" y="252" width="38" height="38" fill="#b58863" data-sq="b3" class="board-cell"/><rect x="100" y="252" width="38" height="38" fill="#f0d9b5" data-sq="c3" class="board-cell"/><rect x="138" y="252" width="38" height="38" fill="#b58863" data-sq="d3" class="board-cell"/><rect x="176" y="252" width="38" height="38" fill="#f0d9b5" data-sq="e3" class="board-cell"/><rect x="214" y="252" width="38" height="38" fill="#b58863" data-sq="f3" class="board-cell"/><rect x="252" y="252" width="38" height="38" fill="#f0d9b5" data-sq="g3" class="board-cell"/><rect x="290" y="252" width="38" height="38" fill="#b58863" data-sq="h3" class="board-cell"/><rect x="24" y="290" width="38" height="38" fill="#b58863" data-sq="a2" class="board-cell"/><rect x="62" y="290" width="38" height="38" fill="#f0d9b5" data-sq="b2" class="board-cell"/><rect x="100" y="290" width="38" height="38" fill="#b58863" data-sq="c2" class="board-cell"/><rect x="138" y="290" width="38" height="38" fill="#f0d9b5" data-sq="d2" class="board-cell"/><rect x="176" y="290" width="38" height="38" fill="#b58863" data-sq="e2" class="board-cell"/><rect x="214" y="290" width="38" height="38" fill="#f0d9b5" data-sq="f2" class="board-cell"/><rect x="252" y="290" width="38" height="38" fill="#b58863" data-sq="g2" class="board-cell"/><rect x="290" y="290" width="38" height="38" fill="#f0d9b5" data-sq="h2" class="board-cell"/><rect x="24" y="328" width="38" height="38" fill="#f0d9b5" data-sq="a1" class="board-cell"/><rect x="62" y="328" width="38" height="38" fill="#b58863" data-sq="b1" class="board-cell"/><rect x="100" y="328" width="38" height="38" fill="#f0d9b5" data-sq="c1" class="board-cell"/><rect x="138" y="328" width="38" height="38" fill="#b58863" data-sq="d1" class="board-cell"/><rect x="176" y="328" width="38" height="38" fill="#f0d9b5" data-sq="e1" class="board-cell"/><rect x="214" y="328" width="38" height="38" fill="#b58863" data-sq="f1" class="board-cell"/><rect x="252" y="328" width="38" height="38" fill="#f0d9b5" data-sq="g1" class="board-cell"/><rect x="290" y="328" width="38" height="38" fill="#b58863" data-sq="h1" class="board-cell"/>
<g pointer-events="none"><image href="../pieces/sets/mce-chess/bR.svg" x="24" y="24" width="38" height="38" pointer-events="none"/><image href="../pieces/sets/mce-chess/bN.svg" x="62" y="24" width="38" height="38" pointer-events="none"/><image href="../pieces/sets/mce-chess/bC.svg" x="100" y="24" width="38" height="38" pointer-events="none"/><image href="../pieces/sets/mce-chess/bA.svg" x="138" y="24" width="38" height="38" pointer-events="none"/><image href="../pieces/sets/mce-chess/bK.svg" x="176" y="24" width="38" height="38" pointer-events="none"/><image href="../pieces/sets/mce-chess/bQ.svg" x="214" y="24" width="38" height="38" pointer-events="none"/><image href="../pieces/sets/mce-chess/bB.svg" x="252" y="24" width="38" height="38" pointer-events="none"/><image href="../pieces/sets/mce-chess/bM.svg" x="290" y="24" width="38" height="38" pointer-events="none"/><image href="../pieces/sets/mce-chess/bP.svg" x="24" y="62" width="38" height="38" pointer-events="none"/><image href="../pieces/sets/mce-chess/bP.svg" x="62" y="62" width="38" height="38" pointer-events="none"/><image href="../pieces/sets/mce-chess/bP.svg" x="100" y="62" width="38" height="38" pointer-events="none"/><image href="../pieces/sets/mce-chess/bP.svg" x="138" y="62" width="38" height="38" pointer-events="none"/><image href="../pieces/sets/mce-chess/bP.svg" x="176" y="62" width="38" height="38" pointer-events="none"/><image href="../pieces/sets/mce-chess/bP.svg" x="214" y="62" width="38" height="38" pointer-events="none"/><image href="../pieces/sets/mce-chess/bP.svg" x="252" y="62" width="38" height="38" pointer-events="none"/><image href="../pieces/sets/mce-chess/bP.svg" x="290" y="62" width="38" height="38" pointer-events="none"/><image href="../pieces/sets/mce-chess/wP.svg" x="24" y="290" width="38" height="38" pointer-events="none"/><image href="../pieces/sets/mce-chess/wP.svg" x="62" y="290" width="38" height="38" pointer-events="none"/><image href="../pieces/sets/mce-chess/wP.svg" x="100" y="290" width="38" height="38" pointer-events="none"/><image href="../pieces/sets/mce-chess/wP.svg" x="138" y="290" width="38" height="38" pointer-events="none"/><image href="../pieces/sets/mce-chess/wP.svg" x="176" y="290" width="38" height="38" pointer-events="none"/><image href="../pieces/sets/mce-chess/wP.svg" x="214" y="290" width="38" height="38" pointer-events="none"/><image href="../pieces/sets/mce-chess/wP.svg" x="252" y="290" width="38" height="38" pointer-events="none"/><image href="../pieces/sets/mce-chess/wP.svg" x="290" y="290" width="38" height="38" pointer-events="none"/><image href="../pieces/sets/mce-chess/wR.svg" x="24" y="328" width="38" height="38" pointer-events="none"/><image href="../pieces/sets/mce-chess/wN.svg" x="62" y="328" width="38" height="38" pointer-events="none"/><image href="../pieces/sets/mce-chess/wC.svg" x="100" y="328" width="38" height="38" pointer-events="none"/><image href="../pieces/sets/mce-chess/wA.svg" x="138" y="328" width="38" height="38" pointer-events="none"/><image href="../pieces/sets/mce-chess/wK.svg" x="176" y="328" width="38" height="38" pointer-events="none"/><image href="../pieces/sets/mce-chess/wQ.svg" x="214" y="328" width="38" height="38" pointer-events="none"/><image href="../pieces/sets/mce-chess/wB.svg" x="252" y="328" width="38" height="38" pointer-events="none"/><image href="../pieces/sets/mce-chess/wM.svg" x="290" y="328" width="38" height="38" pointer-events="none"/></g>
<text x="43" y="381.6" text-anchor="middle" font-size="13" fill="#5c3a1e" font-family="monospace">a</text><text x="81" y="381.6" text-anchor="middle" font-size="13" fill="#5c3a1e" font-family="monospace">b</text><text x="119" y="381.6" text-anchor="middle" font-size="13" fill="#5c3a1e" font-family="monospace">c</text><text x="157" y="381.6" text-anchor="middle" font-size="13" fill="#5c3a1e" font-family="monospace">d</text><text x="195" y="381.6" text-anchor="middle" font-size="13" fill="#5c3a1e" font-family="monospace">e</text><text x="233" y="381.6" text-anchor="middle" font-size="13" fill="#5c3a1e" font-family="monospace">f</text><text x="271" y="381.6" text-anchor="middle" font-size="13" fill="#5c3a1e" font-family="monospace">g</text><text x="309" y="381.6" text-anchor="middle" font-size="13" fill="#5c3a1e" font-family="monospace">h</text><text x="12" y="47.55" text-anchor="middle" font-size="13" fill="#5c3a1e" font-family="monospace">9</text><text x="12" y="85.55" text-anchor="middle" font-size="13" fill="#5c3a1e" font-family="monospace">8</text><text x="12" y="123.55" text-anchor="middle" font-size="13" fill="#5c3a1e" font-family="monospace">7</text><text x="12" y="161.55" text-anchor="middle" font-size="13" fill="#5c3a1e" font-family="monospace">6</text><text x="12" y="199.55" text-anchor="middle" font-size="13" fill="#5c3a1e" font-family="monospace">5</text><text x="12" y="237.55" text-anchor="middle" font-size="13" fill="#5c3a1e" font-family="monospace">4</text><text x="12" y="275.55" text-anchor="middle" font-size="13" fill="#5c3a1e" font-family="monospace">3</text><text x="12" y="313.55" text-anchor="middle" font-size="13" fill="#5c3a1e" font-family="monospace">2</text><text x="12" y="351.55" text-anchor="middle" font-size="13" fill="#5c3a1e" font-family="monospace">1</text>
</svg>