<svg xmlns="http://www.w3.org/2000/svg" viewBox="0 0 360 360" width="360" height="360">

<rect x="24" y="24" width="312" height="312" fill="transparent"/><rect x="24" y="24" width="26" height="26" fill="#f0d9b5" stroke="rgba(0,0,0,0.15)" stroke-width="1" data-sq="a12" data-type="true" class="board-cell"/><rect x="310" y="24" width="26" height="26" fill="#b58863" stroke="rgba(0,0,0,0.15)" stroke-width="1" data-sq="l12" data-type="true" class="board-cell"/><rect x="50" y="50" width="26" height="26" fill="#f0d9b5" stroke="rgba(0,0,0,0.15)" stroke-width="1" data-sq="b11" data-type="true" class="board-cell"/><rect x="76" y="50" width="26" height="26" fill="#b58863" stroke="rgba(0,0,0,0.15)" stroke-width="1" data-sq="c11" data-type="true" class="board-cell"/><rect x="102" y="50" width="26" height="26" fill="#f0d9b5" stroke="rgba(0,0,0,0.15)" stroke-width="1" data-sq="d11" data-type="true" class="board-cell"/><rect x="128" y="50" width="26" height="26" fill="#b58863" stroke="rgba(0,0,0,0.15)" stroke-width="1" data-sq="e11" data-type="true" class="board-cell"/><rect x="154" y="50" width="26" height="26" fill="#f0d9b5" stroke="rgba(0,0,0,0.15)" stroke-width="1" data-sq="f11" data-type="true" class="board-cell"/><rect x="180" y="50" width="26" height="26" fill="#b58863" stroke="rgba(0,0,0,0.15)" stroke-width="1" data-sq="g11" data-type="true" class="board-cell"/><rect x="206" y="50" width="26" height="26" fill="#f0d9b5" stroke="rgba(0,0,0,0.15)" stroke-width="1" data-sq="h11" data-type="true" class="board-cell"/><rect x="232" y="50" width="26" height="26" fill="#b58863" stroke="rgba(0,0,0,0.15)" stroke-width="1" data-sq="i11" data-type="true" class="board-cell"/><rect x="258" y="50" width="26" height="26" fill="#f0d9b5" stroke="rgba(0,0,0,0.15)" stroke-width="1" data-sq="j11" data-type="true" class="board-cell"/><rect x="284" y="50" width="26" height="26" fill="#b58863" stroke="rgba(0,0,0,0.15)" stroke-width="1" data-sq="k11" data-type="true" class="board-cell"/><rect x="50" y="76" width="26" height="26" fill="#b58863" stroke="rgba(0,0,0,0.15)" stroke-width="1" data-sq="b10" data-type="true" class="board-cell"/><rect x="76" y="76" width="26" height="26" fill="#f0d9b5" stroke="rgba(0,0,0,0.15)" stroke-width="1" data-sq="c10" data-type="true" class="board-cell"/><rect x="102" y="76" width="26" height="26" fill="#b58863" stroke="rgba(0,0,0,0.15)" stroke-width="1" data-sq="d10" data-type="true" class="board-cell"/><rect x="128" y="76" width="26" height="26" fill="#f0d9b5" stroke="rgba(0,0,0,0.15)" stroke-width="1" data-sq="e10" data-type="true" class="board-cell"/><rect x="154" y="76" width="26" height="26" fill="#b58863" stroke="rgba(0,0,0,0.15)" stroke-width="1" data-sq="f10" data-type="true" class="board-cell"/><rect x="180" y="76" width="26" height="26" fill="#f0d9b5" stroke="rgba(0,0,0,0.15)" stroke-width="1" data-sq="g10" data-type="true" class="board-cell"/><rect x="206" y="76" width="26" height="26" fill="#b58863" stroke="rgba(0,0,0,0.15)" stroke-width="1" data-sq="h10" data-type="true" class="board-cell"/><rect x="232" y="76" width="26" height="26" fill="#f0d9b5" stroke="rgba(0,0,0,0.15)" stroke-width="1" data-sq="i10" data-type="true" class="board-cell"/><rect x="258" y="76" width="26" height="26" fill="#b58863" stroke="rgba(0,0,0,0.15)" stroke-width="1" data-sq="j10" data-type="true" class="board-cell"/><rect x="284" y="76" width="26" height="26" fill="#f0d9b5" stroke="rgba(0,0,0,0.15)" stroke-width="1" data-sq="k10" data-type="true" class="board-cell"/><rect x="50" y="102" width="26" height="26" fill="#f0d9b5" stroke="rgba(0,0,0,0.15)" stroke-width="1" data-sq="b9" data-type="true" class="board-cell"/><rect x="76" y="102" width="26" height="26" fill="#b58863" stroke="rgba(0,0,0,0.15)" stroke-width="1" data-sq="c9" data-type="true" class="board-cell"/><rect x="102" y="102" width="26" height="26" fill="#f0d9b5" stroke="rgba(0,0,0,0.15)" stroke-width="1" data-sq="d9" data-type="true" class="board-cell"/><rect x="128" y="102" width="26" height="26" fill="#b58863" stroke="rgba(0,0,0,0.15)" stroke-width="1" data-sq="e9" data-type="true" class="board-cell"/><rect x="154" y="102" width="26" height="26" fill="#f0d9b5" stroke="rgba(0,0,0,0.15)" stroke-width="1" data-sq="f9" data-type="true" class="board-cell"/><rect x="180" y="102" width="26" height="26" fill="#b58863" stroke="rgba(0,0,0,0.15)" stroke-width="1" data-sq="g9" data-type="true" class="board-cell"/><rect x="206" y="102" width="26" height="26" fill="#f0d9b5" stroke="rgba(0,0,0,0.15)" stroke-width="1" data-sq="h9" data-type="true" class="board-cell"/><rect x="232" y="102" width="26" height="26" fill="#b58863" stroke="rgba(0,0,0,0.15)" stroke-width="1" data-sq="i9" data-type="true" class="board-cell"/><rect x="258" y="102" width="26" height="26" fill="#f0d9b5" stroke="rgba(0,0,0,0.15)" stroke-width="1" data-sq="j9" data-type="true" class="board-cell"/><rect x="284" y="102" width="26" height="26" fill="#b58863" stroke="rgba(0,0,0,0.15)" stroke-width="1" data-sq="k9" data-type="true" class="board-cell"/><rect x="50" y="128" width="26" height="26" fill="#b58863" stroke="rgba(0,0,0,0.15)" stroke-width="1" data-sq="b8" data-type="true" class="board-cell"/><rect x="76" y="128" width="26" height="26" fill="#f0d9b5" stroke="rgba(0,0,0,0.15)" stroke-width="1" data-sq="c8" data-type="true" class="board-cell"/><rect x="102" y="128" width="26" height="26" fill="#b58863" stroke="rgba(0,0,0,0.15)" stroke-width="1" data-sq="d8" data-type="true" class="board-cell"/><rect x="128" y="128" width="26" height="26" fill="#f0d9b5" stroke="rgba(0,0,0,0.15)" stroke-width="1" data-sq="e8" data-type="true" class="board-cell"/><rect x="154" y="128" width="26" height="26" fill="#b58863" stroke="rgba(0,0,0,0.15)" stroke-width="1" data-sq="f8" data-type="true" class="board-cell"/><rect x="180" y="128" width="26" height="26" fill="#f0d9b5" stroke="rgba(0,0,0,0.15)" stroke-width="1" data-sq="g8" data-type="true" class="board-cell"/><rect x="206" y="128" width="26" height="26" fill="#b58863" stroke="rgba(0,0,0,0.15)" stroke-width="1" data-sq="h8" data-type="true" class="board-cell"/><rect x="232" y="128" width="26" height="26" fill="#f0d9b5" stroke="rgba(0,0,0,0.15)" stroke-width="1" data-sq="i8" data-type="true" class="board-cell"/><rect x="258" y="128" width="26" height="26" fill="#b58863" stroke="rgba(0,0,0,0.15)" stroke-width="1" data-sq="j8" data-type="true" class="board-cell"/><rect x="284" y="128" width="26" height="26" fill="#f0d9b5" stroke="rgba(0,0,0,0.15)" stroke-width="1" data-sq="k8" data-type="true" class="board-cell"/><rect x="50" y="154" width="26" height="26" fill="#f0d9b5" stroke="rgba(0,0,0,0.15)" stroke-width="1" data-sq="b7" data-type="true" class="board-cell"/><rect x="76" y="154" width="26" height="26" fill="#b58863" stroke="rgba(0,0,0,0.15)" stroke-width="1" data-sq="c7" data-type="true" class="board-cell"/><rect x="102" y="154" width="26" height="26" fill="#f0d9b5" stroke="rgba(0,0,0,0.15)" stroke-width="1" data-sq="d7" data-type="true" class="board-cell"/><rect x="128" y="154" width="26" height="26" fill="#b58863" stroke="rgba(0,0,0,0.15)" stroke-width="1" data-sq="e7" data-type="true" class="board-cell"/><rect x="154" y="154" width="26" height="26" fill="#f0d9b5" stroke="rgba(0,0,0,0.15)" stroke-width="1" data-sq="f7" data-type="true" class="board-cell"/><rect x="180" y="154" width="26" height="26" fill="#b58863" stroke="rgba(0,0,0,0.15)" stroke-width="1" data-sq="g7" data-type="true" class="board-cell"/><rect x="206" y="154" width="26" height="26" fill="#f0d9b5" stroke="rgba(0,0,0,0.15)" stroke-width="1" data-sq="h7" data-type="true" class="board-cell"/><rect x="232" y="154" width="26" height="26" fill="#b58863" stroke="rgba(0,0,0,0.15)" stroke-width="1" data-sq="i7" data-type="true" class="board-cell"/><rect x="258" y="154" width="26" height="26" fill="#f0d9b5" stroke="rgba(0,0,0,0.15)" stroke-width="1" data-sq="j7" data-type="true" class="board-cell"/><rect x="284" y="154" width="26" height="26" fill="#b58863" stroke="rgba(0,0,0,0.15)" stroke-width="1" data-sq="k7" data-type="true" class="board-cell"/><rect x="50" y="180" width="26" height="26" fill="#b58863" stroke="rgba(0,0,0,0.15)" stroke-width="1" data-sq="b6" data-type="true" class="board-cell"/><rect x="76" y="180" width="26" height="26" fill="#f0d9b5" stroke="rgba(0,0,0,0.15)" stroke-width="1" data-sq="c6" data-type="true" class="board-cell"/><rect x="102" y="180" width="26" height="26" fill="#b58863" stroke="rgba(0,0,0,0.15)" stroke-width="1" data-sq="d6" data-type="true" class="board-cell"/><rect x="128" y="180" width="26" height="26" fill="#f0d9b5" stroke="rgba(0,0,0,0.15)" stroke-width="1" data-sq="e6" data-type="true" class="board-cell"/><rect x="154" y="180" width="26" height="26" fill="#b58863" stroke="rgba(0,0,0,0.15)" stroke-width="1" data-sq="f6" data-type="true" class="board-cell"/><rect x="180" y="180" width="26" height="26" fill="#f0d9b5" stroke="rgba(0,0,0,0.15)" stroke-width="1" data-sq="g6" data-type="true" class="board-cell"/><rect x="206" y="180" width="26" height="26" fill="#b58863" stroke="rgba(0,0,0,0.15)" stroke-width="1" data-sq="h6" data-type="true" class="board-cell"/><rect x="232" y="180" width="26" height="26" fill="#f0d9b5" stroke="rgba(0,0,0,0.15)" stroke-width="1" data-sq="i6" data-type="true" class="board-cell"/><rect x="258" y="180" width="26" height="26" fill="#b58863" stroke="rgba(0,0,0,0.15)" stroke-width="1" data-sq="j6" data-type="true" class="board-cell"/><rect x="284" y="180" width="26" height="26" fill="#f0d9b5" stroke="rgba(0,0,0,0.15)" stroke-width="1" data-sq="k6" data-type="true" class="board-cell"/><rect x="50" y="206" width="26" height="26" fill="#f0d9b5" stroke="rgba(0,0,0,0.15)" stroke-width="1" data-sq="b5" data-type="true" class="board-cell"/><rect x="76" y="206" width="26" height="26" fill="#b58863" stroke="rgba(0,0,0,0.15)" stroke-width="1" data-sq="c5" data-type="true" class="board-cell"/><rect x="102" y="206" width="26" height="26" fill="#f0d9b5" stroke="rgba(0,0,0,0.15)" stroke-width="1" data-sq="d5" data-type="true" class="board-cell"/><rect x="128" y="206" width="26" height="26" fill="#b58863" stroke="rgba(0,0,0,0.15)" stroke-width="1" data-sq="e5" data-type="true" class="board-cell"/><rect x="154" y="206" width="26" height="26" fill="#f0d9b5" stroke="rgba(0,0,0,0.15)" stroke-width="1" data-sq="f5" data-type="true" class="board-cell"/><rect x="180" y="206" width="26" height="26" fill="#b58863" stroke="rgba(0,0,0,0.15)" stroke-width="1" data-sq="g5" data-type="true" class="board-cell"/><rect x="206" y="206" width="26" height="26" fill="#f0d9b5" stroke="rgba(0,0,0,0.15)" stroke-width="1" data-sq="h5" data-type="true" class="board-cell"/><rect x="232" y="206" width="26" height="26" fill="#b58863" stroke="rgba(0,0,0,0.15)" stroke-width="1" data-sq="i5" data-type="true" class="board-cell"/><rect x="258" y="206" width="26" height="26" fill="#f0d9b5" stroke="rgba(0,0,0,0.15)" stroke-width="1" data-sq="j5" data-type="true" class="board-cell"/><rect x="284" y="206" width="26" height="26" fill="#b58863" stroke="rgba(0,0,0,0.15)" stroke-width="1" data-sq="k5" data-type="true" class="board-cell"/><rect x="50" y="232" width="26" height="26" fill="#b58863" stroke="rgba(0,0,0,0.15)" stroke-width="1" data-sq="b4" data-type="true" class="board-cell"/><rect x="76" y="232" width="26" height="26" fill="#f0d9b5" stroke="rgba(0,0,0,0.15)" stroke-width="1" data-sq="c4" data-type="true" class="board-cell"/><rect x="102" y="232" width="26" height="26" fill="#b58863" stroke="rgba(0,0,0,0.15)" stroke-width="1" data-sq="d4" data-type="true" class="board-cell"/><rect x="128" y="232" width="26" height="26" fill="#f0d9b5" stroke="rgba(0,0,0,0.15)" stroke-width="1" data-sq="e4" data-type="true" class="board-cell"/><rect x="154" y="232" width="26" height="26" fill="#b58863" stroke="rgba(0,0,0,0.15)" stroke-width="1" data-sq="f4" data-type="true" class="board-cell"/><rect x="180" y="232" width="26" height="26" fill="#f0d9b5" stroke="rgba(0,0,0,0.15)" stroke-width="1" data-sq="g4" data-type="true" class="board-cell"/><rect x="206" y="232" width="26" height="26" fill="#b58863" stroke="rgba(0,0,0,0.15)" stroke-width="1" data-sq="h4" data-type="true" class="board-cell"/><rect x="232" y="232" width="26" height="26" fill="#f0d9b5" stroke="rgba(0,0,0,0.15)" stroke-width="1" data-sq="i4" data-type="true" class="board-cell"/><rect x="258" y="232" width="26" height="26" fill="#b58863" stroke="rgba(0,0,0,0.15)" stroke-width="1" data-sq="j4" data-type="true" class="board-cell"/><rect x="284" y="232" width="26" height="26" fill="#f0d9b5" stroke="rgba(0,0,0,0.15)" stroke-width="1" data-sq="k4" data-type="true" class="board-cell"/><rect x="50" y="258" width="26" height="26" fill="#f0d9b5" stroke="rgba(0,0,0,0.15)" stroke-width="1" data-sq="b3" data-type="true" class="board-cell"/><rect x="76" y="258" width="26" height="26" fill="#b58863" stroke="rgba(0,0,0,0.15)" stroke-width="1" data-sq="c3" data-type="true" class="board-cell"/><rect x="102" y="258" width="26" height="26" fill="#f0d9b5" stroke="rgba(0,0,0,0.15)" stroke-width="1" data-sq="d3" data-type="true" class="board-cell"/><rect x="128" y="258" width="26" height="26" fill="#b58863" stroke="rgba(0,0,0,0.15)" stroke-width="1" data-sq="e3" data-type="true" class="board-cell"/><rect x="154" y="258" width="26" height="26" fill="#f0d9b5" stroke="rgba(0,0,0,0.15)" stroke-width="1" data-sq="f3" data-type="true" class="board-cell"/><rect x="180" y="258" width="26" height="26" fill="#b58863" stroke="rgba(0,0,0,0.15)" stroke-width="1" data-sq="g3" data-type="true" class="board-cell"/><rect x="206" y="258" width="26" height="26" fill="#f0d9b5" stroke="rgba(0,0,0,0.15)" stroke-width="1" data-sq="h3" data-type="true" class="board-cell"/><rect x="232" y="258" width="26" height="26" fill="#b58863" stroke="rgba(0,0,0,0.15)" stroke-width="1" data-sq="i3" data-type="true" class="board-cell"/><rect x="258" y="258" width="26" height="26" fill="#f0d9b5" stroke="rgba(0,0,0,0.15)" stroke-width="1" data-sq="j3" data-type="true" class="board-cell"/><rect x="284" y="258" width="26" height="26" fill="#b58863" stroke="rgba(0,0,0,0.15)" stroke-width="1" data-sq="k3" data-type="true" class="board-cell"/><rect x="50" y="284" width="26" height="26" fill="#b58863" stroke="rgba(0,0,0,0.15)" stroke-width="1" data-sq="b2" data-type="true" class="board-cell"/><rect x="76" y="284" width="26" height="26" fill="#f0d9b5" stroke="rgba(0,0,0,0.15)" stroke-width="1" data-sq="c2" data-type="true" class="board-cell"/><rect x="102" y="284" width="26" height="26" fill="#b58863" stroke="rgba(0,0,0,0.15)" stroke-width="1" data-sq="d2" data-type="true" class="board-cell"/><rect x="128" y="284" width="26" height="26" fill="#f0d9b5" stroke="rgba(0,0,0,0.15)" stroke-width="1" data-sq="e2" data-type="true" class="board-cell"/><rect x="154" y="284" width="26" height="26" fill="#b58863" stroke="rgba(0,0,0,0.15)" stroke-width="1" data-sq="f2" data-type="true" class="board-cell"/><rect x="180" y="284" width="26" height="26" fill="#f0d9b5" stroke="rgba(0,0,0,0.15)" stroke-width="1" data-sq="g2" data-type="true" class="board-cell"/><rect x="206" y="284" width="26" height="26" fill="#b58863" stroke="rgba(0,0,0,0.15)" stroke-width="1" data-sq="h2" data-type="true" class="board-cell"/><rect x="232" y="284" width="26" height="26" fill="#f0d9b5" stroke="rgba(0,0,0,0.15)" stroke-width="1" data-sq="i2" data-type="true" class="board-cell"/><rect x="258" y="284" width="26" height="26" fill="#b58863" stroke="rgba(0,0,0,0.15)" stroke-width="1" data-sq="j2" data-type="true" class="board-cell"/><rect x="284" y="284" width="26" height="26" fill="#f0d9b5" stroke="rgba(0,0,0,0.15)" stroke-width="1" data-sq="k2" data-type="true" class="board-cell"/><rect x="24" y="310" width="26" height="26" fill="#b58863" stroke="rgba(0,0,0,0.15)" stroke-width="1" data-sq="a1" data-type="true" class="board-cell"/><rect x="310" y="310" width="26" height="26" fill="#f0d9b5" stroke="rgba(0,0,0,0.15)" stroke-width="1" data-sq="l1" data-type="true" class="board-cell"/>
<g pointer-events="none"><image href="../pieces/sets/wikimedia-fairy/Black_dabbaba.svg" x="50" y="50" width="26" height="26" pointer-events="none"/><image href="../pieces/sets/mce-chess/bN.svg" x="76" y="50" width="26" height="26" pointer-events="none"/><image href="../pieces/sets/mce-chess/bB.svg" x="102" y="50" width="26" height="26" pointer-events="none"/><image href="../pieces/sets/mce-chess/bW.svg" x="128" y="50" width="26" height="26" pointer-events="none"/><image href="../pieces/sets/mce-chess/bQ.svg" x="154" y="50" width="26" height="26" pointer-events="none"/><image href="../pieces/sets/mce-chess/bK.svg" x="180" y="50" width="26" height="26" pointer-events="none"/><image href="../pieces/sets/mce-chess/bW.svg" x="206" y="50" width="26" height="26" pointer-events="none"/><image href="../pieces/sets/mce-chess/bB.svg" x="232" y="50" width="26" height="26" pointer-events="none"/><image href="../pieces/sets/mce-chess/bN.svg" x="258" y="50" width="26" height="26" pointer-events="none"/><image href="../pieces/sets/wikimedia-fairy/Black_dabbaba.svg" x="284" y="50" width="26" height="26" pointer-events="none"/><image href="../pieces/sets/mce-chess/bP.svg" x="50" y="76" width="26" height="26" pointer-events="none"/><image href="../pieces/sets/mce-chess/bP.svg" x="76" y="76" width="26" height="26" pointer-events="none"/><image href="../pieces/sets/mce-chess/bP.svg" x="102" y="76" width="26" height="26" pointer-events="none"/><image href="../pieces/sets/mce-chess/bP.svg" x="128" y="76" width="26" height="26" pointer-events="none"/><image href="../pieces/sets/mce-chess/bP.svg" x="154" y="76" width="26" height="26" pointer-events="none"/><image href="../pieces/sets/mce-chess/bP.svg" x="180" y="76" width="26" height="26" pointer-events="none"/><image href="../pieces/sets/mce-chess/bP.svg" x="206" y="76" width="26" height="26" pointer-events="none"/><image href="../pieces/sets/mce-chess/bP.svg" x="232" y="76" width="26" height="26" pointer-events="none"/><image href="../pieces/sets/mce-chess/bP.svg" x="258" y="76" width="26" height="26" pointer-events="none"/><image href="../pieces/sets/mce-chess/bP.svg" x="284" y="76" width="26" height="26" pointer-events="none"/><image href="../pieces/sets/mce-chess/wP.svg" x="50" y="258" width="26" height="26" pointer-events="none"/><image href="../pieces/sets/mce-chess/wP.svg" x="76" y="258" width="26" height="26" pointer-events="none"/><image href="../pieces/sets/mce-chess/wP.svg" x="102" y="258" width="26" height="26" pointer-events="none"/><image href="../pieces/sets/mce-chess/wP.svg" x="128" y="258" width="26" height="26" pointer-events="none"/><image href="../pieces/sets/mce-chess/wP.svg" x="154" y="258" width="26" height="26" pointer-events="none"/><image href="../pieces/sets/mce-chess/wP.svg" x="180" y="258" width="26" height="26" pointer-events="none"/><image href="../pieces/sets/mce-chess/wP.svg" x="206" y="258" width="26" height="26" pointer-events="none"/><image href="../pieces/sets/mce-chess/wP.svg" x="232" y="258" width="26" height="26" pointer-events="none"/><image href="../pieces/sets/mce-chess/wP.svg" x="258" y="258" width="26" height="26" pointer-events="none"/><image href="../pieces/sets/mce-chess/wP.svg" x="284" y="258" width="26" height="26" pointer-events="none"/><image href="../pieces/sets/wikimedia-fairy/White_dabbaba.svg" x="50" y="284" width="26" height="26" pointer-events="none"/><image href="../pieces/sets/mce-chess/wN.svg" x="76" y="284" width="26" height="26" pointer-events="none"/><image href="../pieces/sets/mce-chess/wB.svg" x="102" y="284" width="26" height="26" pointer-events="none"/><image href="../pieces/sets/mce-chess/wW.svg" x="128" y="284" width="26" height="26" pointer-events="none"/><image href="../pieces/sets/mce-chess/wQ.svg" x="154" y="284" width="26" height="26" pointer-events="none"/><image href="../pieces/sets/mce-chess/wK.svg" x="180" y="284" width="26" height="26" pointer-events="none"/><image href="../pieces/sets/mce-chess/wW.svg" x="206" y="284" width="26" height="26" pointer-events="none"/><image href="../pieces/sets/mce-chess/wB.svg" x="232" y="284" width="26" height="26" pointer-events="none"/><image href="../pieces/sets/mce-chess/wN.svg" x="258" y="284" width="26" height="26" pointer-events="none"/><image href="../pieces/sets/wikimedia-fairy/White_dabbaba.svg" x="284" y="284" width="26" height="26" pointer-events="none"/></g>
<text x="37" y="351.6" text-anchor="middle" font-size="13" fill="#5c3a1e" font-family="monospace">a</text><text x="63" y="351.6" text-anchor="middle" font-size="13" fill="#5c3a1e" font-family="monospace">b</text><text x="89" y="351.6" text-anchor="middle" font-size="13" fill="#5c3a1e" font-family="monospace">c</text><text x="115" y="351.6" text-anchor="middle" font-size="13" fill="#5c3a1e" font-family="monospace">d</text><text x="141" y="351.6" text-anchor="middle" font-size="13" fill="#5c3a1e" font-family="monospace">e</text><text x="167" y="351.6" text-anchor="middle" font-size="13" fill="#5c3a1e" font-family="monospace">f</text><text x="193" y="351.6" text-anchor="middle" font-size="13" fill="#5c3a1e" font-family="monospace">g</text><text x="219" y="351.6" text-anchor="middle" font-size="13" fill="#5c3a1e" font-family="monospace">h</text><text x="245" y="351.6" text-anchor="middle" font-size="13" fill="#5c3a1e" font-family="monospace">i</text><text x="271" y="351.6" text-anchor="middle" font-size="13" fill="#5c3a1e" font-family="monospace">j</text><text x="297" y="351.6" text-anchor="middle" font-size="13" fill="#5c3a1e" font-family="monospace">k</text><text x="323" y="351.6" text-anchor="middle" font-size="13" fill="#5c3a1e" font-family="monospace">l</text><text x="12" y="41.55" text-anchor="middle" font-size="13" fill="#5c3a1e" font-family="monospace">12</text><text x="12" y="67.55" text-anchor="middle" font-size="13" fill="#5c3a1e" font-family="monospace">11</text><text x="12" y="93.55" text-anchor="middle" font-size="13" fill="#5c3a1e" font-family="monospace">10</text><text x="12" y="119.55" text-anchor="middle" font-size="13" fill="#5c3a1e" font-family="monospace">9</text><text x="12" y="145.55" text-anchor="middle" font-size="13" fill="#5c3a1e" font-family="monospace">8</text><text x="12" y="171.55" text-anchor="middle" font-size="13" fill="#5c3a1e" font-family="monospace">7</text><text x="12" y="197.55" text-anchor="middle" font-size="13" fill="#5c3a1e" font-family="monospace">6</text><text x="12" y="223.55" text-anchor="middle" font-size="13" fill="#5c3a1e" font-family="monospace">5</text><text x="12" y="249.55" text-anchor="middle" font-size="13" fill="#5c3a1e" font-family="monospace">4</text><text x="12" y="275.55" text-anchor="middle" font-size="13" fill="#5c3a1e" font-family="monospace">3</text><text x="12" y="301.55" text-anchor="middle" font-size="13" fill="#5c3a1e" font-family="monospace">2</text><text x="12" y="327.55" text-anchor="middle" font-size="13" fill="#5c3a1e" font-family="monospace">1</text>
</svg>