<svg xmlns="http://www.w3.org/2000/svg" viewBox="0 0 344 806" width="344" height="806">
<text x="172" y="0" text-anchor="middle" font-size="11" fill="#333" font-family="system-ui">Subterranean</text>
<g transform="translate(4,4)" data-layer="0">


<rect x="24" y="24" width="24" height="24" fill="#a0c8e8" data-sq="a8" class="board-cell"/><rect x="48" y="24" width="24" height="24" fill="#6a9ec8" data-sq="b8" class="board-cell"/><rect x="72" y="24" width="24" height="24" fill="#a0c8e8" data-sq="c8" class="board-cell"/><rect x="96" y="24" width="24" height="24" fill="#6a9ec8" data-sq="d8" class="board-cell"/><rect x="120" y="24" width="24" height="24" fill="#a0c8e8" data-sq="e8" class="board-cell"/><rect x="144" y="24" width="24" height="24" fill="#6a9ec8" data-sq="f8" class="board-cell"/><rect x="168" y="24" width="24" height="24" fill="#a0c8e8" data-sq="g8" class="board-cell"/><rect x="192" y="24" width="24" height="24" fill="#6a9ec8" data-sq="h8" class="board-cell"/><rect x="216" y="24" width="24" height="24" fill="#a0c8e8" data-sq="i8" class="board-cell"/><rect x="240" y="24" width="24" height="24" fill="#6a9ec8" data-sq="j8" class="board-cell"/><rect x="264" y="24" width="24" height="24" fill="#a0c8e8" data-sq="k8" class="board-cell"/><rect x="288" y="24" width="24" height="24" fill="#6a9ec8" data-sq="l8" class="board-cell"/><rect x="24" y="48" width="24" height="24" fill="#6a9ec8" data-sq="a7" class="board-cell"/><rect x="48" y="48" width="24" height="24" fill="#a0c8e8" data-sq="b7" class="board-cell"/><rect x="72" y="48" width="24" height="24" fill="#6a9ec8" data-sq="c7" class="board-cell"/><rect x="96" y="48" width="24" height="24" fill="#a0c8e8" data-sq="d7" class="board-cell"/><rect x="120" y="48" width="24" height="24" fill="#6a9ec8" data-sq="e7" class="board-cell"/><rect x="144" y="48" width="24" height="24" fill="#a0c8e8" data-sq="f7" class="board-cell"/><rect x="168" y="48" width="24" height="24" fill="#6a9ec8" data-sq="g7" class="board-cell"/><rect x="192" y="48" width="24" height="24" fill="#a0c8e8" data-sq="h7" class="board-cell"/><rect x="216" y="48" width="24" height="24" fill="#6a9ec8" data-sq="i7" class="board-cell"/><rect x="240" y="48" width="24" height="24" fill="#a0c8e8" data-sq="j7" class="board-cell"/><rect x="264" y="48" width="24" height="24" fill="#6a9ec8" data-sq="k7" class="board-cell"/><rect x="288" y="48" width="24" height="24" fill="#a0c8e8" data-sq="l7" class="board-cell"/><rect x="24" y="72" width="24" height="24" fill="#a0c8e8" data-sq="a6" class="board-cell"/><rect x="48" y="72" width="24" height="24" fill="#6a9ec8" data-sq="b6" class="board-cell"/><rect x="72" y="72" width="24" height="24" fill="#a0c8e8" data-sq="c6" class="board-cell"/><rect x="96" y="72" width="24" height="24" fill="#6a9ec8" data-sq="d6" class="board-cell"/><rect x="120" y="72" width="24" height="24" fill="#a0c8e8" data-sq="e6" class="board-cell"/><rect x="144" y="72" width="24" height="24" fill="#6a9ec8" data-sq="f6" class="board-cell"/><rect x="168" y="72" width="24" height="24" fill="#a0c8e8" data-sq="g6" class="board-cell"/><rect x="192" y="72" width="24" height="24" fill="#6a9ec8" data-sq="h6" class="board-cell"/><rect x="216" y="72" width="24" height="24" fill="#a0c8e8" data-sq="i6" class="board-cell"/><rect x="240" y="72" width="24" height="24" fill="#6a9ec8" data-sq="j6" class="board-cell"/><rect x="264" y="72" width="24" height="24" fill="#a0c8e8" data-sq="k6" class="board-cell"/><rect x="288" y="72" width="24" height="24" fill="#6a9ec8" data-sq="l6" class="board-cell"/><rect x="24" y="96" width="24" height="24" fill="#6a9ec8" data-sq="a5" class="board-cell"/><rect x="48" y="96" width="24" height="24" fill="#a0c8e8" data-sq="b5" class="board-cell"/><rect x="72" y="96" width="24" height="24" fill="#6a9ec8" data-sq="c5" class="board-cell"/><rect x="96" y="96" width="24" height="24" fill="#a0c8e8" data-sq="d5" class="board-cell"/><rect x="120" y="96" width="24" height="24" fill="#6a9ec8" data-sq="e5" class="board-cell"/><rect x="144" y="96" width="24" height="24" fill="#a0c8e8" data-sq="f5" class="board-cell"/><rect x="168" y="96" width="24" height="24" fill="#6a9ec8" data-sq="g5" class="board-cell"/><rect x="192" y="96" width="24" height="24" fill="#a0c8e8" data-sq="h5" class="board-cell"/><rect x="216" y="96" width="24" height="24" fill="#6a9ec8" data-sq="i5" class="board-cell"/><rect x="240" y="96" width="24" height="24" fill="#a0c8e8" data-sq="j5" class="board-cell"/><rect x="264" y="96" width="24" height="24" fill="#6a9ec8" data-sq="k5" class="board-cell"/><rect x="288" y="96" width="24" height="24" fill="#a0c8e8" data-sq="l5" class="board-cell"/><rect x="24" y="120" width="24" height="24" fill="#a0c8e8" data-sq="a4" class="board-cell"/><rect x="48" y="120" width="24" height="24" fill="#6a9ec8" data-sq="b4" class="board-cell"/><rect x="72" y="120" width="24" height="24" fill="#a0c8e8" data-sq="c4" class="board-cell"/><rect x="96" y="120" width="24" height="24" fill="#6a9ec8" data-sq="d4" class="board-cell"/><rect x="120" y="120" width="24" height="24" fill="#a0c8e8" data-sq="e4" class="board-cell"/><rect x="144" y="120" width="24" height="24" fill="#6a9ec8" data-sq="f4" class="board-cell"/><rect x="168" y="120" width="24" height="24" fill="#a0c8e8" data-sq="g4" class="board-cell"/><rect x="192" y="120" width="24" height="24" fill="#6a9ec8" data-sq="h4" class="board-cell"/><rect x="216" y="120" width="24" height="24" fill="#a0c8e8" data-sq="i4" class="board-cell"/><rect x="240" y="120" width="24" height="24" fill="#6a9ec8" data-sq="j4" class="board-cell"/><rect x="264" y="120" width="24" height="24" fill="#a0c8e8" data-sq="k4" class="board-cell"/><rect x="288" y="120" width="24" height="24" fill="#6a9ec8" data-sq="l4" class="board-cell"/><rect x="24" y="144" width="24" height="24" fill="#6a9ec8" data-sq="a3" class="board-cell"/><rect x="48" y="144" width="24" height="24" fill="#a0c8e8" data-sq="b3" class="board-cell"/><rect x="72" y="144" width="24" height="24" fill="#6a9ec8" data-sq="c3" class="board-cell"/><rect x="96" y="144" width="24" height="24" fill="#a0c8e8" data-sq="d3" class="board-cell"/><rect x="120" y="144" width="24" height="24" fill="#6a9ec8" data-sq="e3" class="board-cell"/><rect x="144" y="144" width="24" height="24" fill="#a0c8e8" data-sq="f3" class="board-cell"/><rect x="168" y="144" width="24" height="24" fill="#6a9ec8" data-sq="g3" class="board-cell"/><rect x="192" y="144" width="24" height="24" fill="#a0c8e8" data-sq="h3" class="board-cell"/><rect x="216" y="144" width="24" height="24" fill="#6a9ec8" data-sq="i3" class="board-cell"/><rect x="240" y="144" width="24" height="24" fill="#a0c8e8" data-sq="j3" class="board-cell"/><rect x="264" y="144" width="24" height="24" fill="#6a9ec8" data-sq="k3" class="board-cell"/><rect x="288" y="144" width="24" height="24" fill="#a0c8e8" data-sq="l3" class="board-cell"/><rect x="24" y="168" width="24" height="24" fill="#a0c8e8" data-sq="a2" class="board-cell"/><rect x="48" y="168" width="24" height="24" fill="#6a9ec8" data-sq="b2" class="board-cell"/><rect x="72" y="168" width="24" height="24" fill="#a0c8e8" data-sq="c2" class="board-cell"/><rect x="96" y="168" width="24" height="24" fill="#6a9ec8" data-sq="d2" class="board-cell"/><rect x="120" y="168" width="24" height="24" fill="#a0c8e8" data-sq="e2" class="board-cell"/><rect x="144" y="168" width="24" height="24" fill="#6a9ec8" data-sq="f2" class="board-cell"/><rect x="168" y="168" width="24" height="24" fill="#a0c8e8" data-sq="g2" class="board-cell"/><rect x="192" y="168" width="24" height="24" fill="#6a9ec8" data-sq="h2" class="board-cell"/><rect x="216" y="168" width="24" height="24" fill="#a0c8e8" data-sq="i2" class="board-cell"/><rect x="240" y="168" width="24" height="24" fill="#6a9ec8" data-sq="j2" class="board-cell"/><rect x="264" y="168" width="24" height="24" fill="#a0c8e8" data-sq="k2" class="board-cell"/><rect x="288" y="168" width="24" height="24" fill="#6a9ec8" data-sq="l2" class="board-cell"/><rect x="24" y="192" width="24" height="24" fill="#6a9ec8" data-sq="a1" class="board-cell"/><rect x="48" y="192" width="24" height="24" fill="#a0c8e8" data-sq="b1" class="board-cell"/><rect x="72" y="192" width="24" height="24" fill="#6a9ec8" data-sq="c1" class="board-cell"/><rect x="96" y="192" width="24" height="24" fill="#a0c8e8" data-sq="d1" class="board-cell"/><rect x="120" y="192" width="24" height="24" fill="#6a9ec8" data-sq="e1" class="board-cell"/><rect x="144" y="192" width="24" height="24" fill="#a0c8e8" data-sq="f1" class="board-cell"/><rect x="168" y="192" width="24" height="24" fill="#6a9ec8" data-sq="g1" class="board-cell"/><rect x="192" y="192" width="24" height="24" fill="#a0c8e8" data-sq="h1" class="board-cell"/><rect x="216" y="192" width="24" height="24" fill="#6a9ec8" data-sq="i1" class="board-cell"/><rect x="240" y="192" width="24" height="24" fill="#a0c8e8" data-sq="j1" class="board-cell"/><rect x="264" y="192" width="24" height="24" fill="#6a9ec8" data-sq="k1" class="board-cell"/><rect x="288" y="192" width="24" height="24" fill="#a0c8e8" data-sq="l1" class="board-cell"/>
<g pointer-events="none"><image href="../pieces/sets/mce-chess/wG.svg" x="72" y="24" width="24" height="24" pointer-events="none"/><image href="../pieces/sets/mce-chess/wR.svg" x="168" y="24" width="24" height="24" pointer-events="none"/><image href="../pieces/sets/mce-chess/wG.svg" x="264" y="24" width="24" height="24" pointer-events="none"/><image href="../pieces/sets/mce-chess/wS.svg" x="24" y="48" width="24" height="24" pointer-events="none"/><image href="../pieces/sets/mce-chess/wS.svg" x="72" y="48" width="24" height="24" pointer-events="none"/><image href="../pieces/sets/mce-chess/wS.svg" x="120" y="48" width="24" height="24" pointer-events="none"/><image href="../pieces/sets/mce-chess/wS.svg" x="168" y="48" width="24" height="24" pointer-events="none"/><image href="../pieces/sets/mce-chess/wS.svg" x="216" y="48" width="24" height="24" pointer-events="none"/><image href="../pieces/sets/mce-chess/wS.svg" x="264" y="48" width="24" height="24" pointer-events="none"/><image href="../pieces/sets/mce-chess/bS.svg" x="24" y="168" width="24" height="24" pointer-events="none"/><image href="../pieces/sets/mce-chess/bS.svg" x="72" y="168" width="24" height="24" pointer-events="none"/><image href="../pieces/sets/mce-chess/bS.svg" x="120" y="168" width="24" height="24" pointer-events="none"/><image href="../pieces/sets/mce-chess/bS.svg" x="168" y="168" width="24" height="24" pointer-events="none"/><image href="../pieces/sets/mce-chess/bS.svg" x="216" y="168" width="24" height="24" pointer-events="none"/><image href="../pieces/sets/mce-chess/bS.svg" x="264" y="168" width="24" height="24" pointer-events="none"/><image href="../pieces/sets/mce-chess/bG.svg" x="72" y="192" width="24" height="24" pointer-events="none"/><image href="../pieces/sets/mce-chess/bR.svg" x="168" y="192" width="24" height="24" pointer-events="none"/><image href="../pieces/sets/mce-chess/bG.svg" x="264" y="192" width="24" height="24" pointer-events="none"/></g>
<text x="36" y="231.6" text-anchor="middle" font-size="13" fill="#5c3a1e" font-family="monospace">a</text><text x="60" y="231.6" text-anchor="middle" font-size="13" fill="#5c3a1e" font-family="monospace">b</text><text x="84" y="231.6" text-anchor="middle" font-size="13" fill="#5c3a1e" font-family="monospace">c</text><text x="108" y="231.6" text-anchor="middle" font-size="13" fill="#5c3a1e" font-family="monospace">d</text><text x="132" y="231.6" text-anchor="middle" font-size="13" fill="#5c3a1e" font-family="monospace">e</text><text x="156" y="231.6" text-anchor="middle" font-size="13" fill="#5c3a1e" font-family="monospace">f</text><text x="180" y="231.6" text-anchor="middle" font-size="13" fill="#5c3a1e" font-family="monospace">g</text><text x="204" y="231.6" text-anchor="middle" font-size="13" fill="#5c3a1e" font-family="monospace">h</text><text x="228" y="231.6" text-anchor="middle" font-size="13" fill="#5c3a1e" font-family="monospace">i</text><text x="252" y="231.6" text-anchor="middle" font-size="13" fill="#5c3a1e" font-family="monospace">j</text><text x="276" y="231.6" text-anchor="middle" font-size="13" fill="#5c3a1e" font-family="monospace">k</text><text x="300" y="231.6" text-anchor="middle" font-size="13" fill="#5c3a1e" font-family="monospace">l</text><text x="12" y="40.55" text-anchor="middle" font-size="13" fill="#5c3a1e" font-family="monospace">8</text><text x="12" y="64.55" text-anchor="middle" font-size="13" fill="#5c3a1e" font-family="monospace">7</text><text x="12" y="88.55" text-anchor="middle" font-size="13" fill="#5c3a1e" font-family="monospace">6</text><text x="12" y="112.55" text-anchor="middle" font-size="13" fill="#5c3a1e" font-family="monospace">5</text><text x="12" y="136.55" text-anchor="middle" font-size="13" fill="#5c3a1e" font-family="monospace">4</text><text x="12" y="160.55" text-anchor="middle" font-size="13" fill="#5c3a1e" font-family="monospace">3</text><text x="12" y="184.55" text-anchor="middle" font-size="13" fill="#5c3a1e" font-family="monospace">2</text><text x="12" y="208.55" text-anchor="middle" font-size="13" fill="#5c3a1e" font-family="monospace">1</text>

</g>
<text x="172" y="270" text-anchor="middle" font-size="11" fill="#333" font-family="system-ui">Land</text>
<g transform="translate(4,274)" data-layer="1">


<rect x="24" y="24" width="24" height="24" fill="#a8c890" data-sq="a8" class="board-cell"/><rect x="48" y="24" width="24" height="24" fill="#6d9450" data-sq="b8" class="board-cell"/><rect x="72" y="24" width="24" height="24" fill="#a8c890" data-sq="c8" class="board-cell"/><rect x="96" y="24" width="24" height="24" fill="#6d9450" data-sq="d8" class="board-cell"/><rect x="120" y="24" width="24" height="24" fill="#a8c890" data-sq="e8" class="board-cell"/><rect x="144" y="24" width="24" height="24" fill="#6d9450" data-sq="f8" class="board-cell"/><rect x="168" y="24" width="24" height="24" fill="#a8c890" data-sq="g8" class="board-cell"/><rect x="192" y="24" width="24" height="24" fill="#6d9450" data-sq="h8" class="board-cell"/><rect x="216" y="24" width="24" height="24" fill="#a8c890" data-sq="i8" class="board-cell"/><rect x="240" y="24" width="24" height="24" fill="#6d9450" data-sq="j8" class="board-cell"/><rect x="264" y="24" width="24" height="24" fill="#a8c890" data-sq="k8" class="board-cell"/><rect x="288" y="24" width="24" height="24" fill="#6d9450" data-sq="l8" class="board-cell"/><rect x="24" y="48" width="24" height="24" fill="#6d9450" data-sq="a7" class="board-cell"/><rect x="48" y="48" width="24" height="24" fill="#a8c890" data-sq="b7" class="board-cell"/><rect x="72" y="48" width="24" height="24" fill="#6d9450" data-sq="c7" class="board-cell"/><rect x="96" y="48" width="24" height="24" fill="#a8c890" data-sq="d7" class="board-cell"/><rect x="120" y="48" width="24" height="24" fill="#6d9450" data-sq="e7" class="board-cell"/><rect x="144" y="48" width="24" height="24" fill="#a8c890" data-sq="f7" class="board-cell"/><rect x="168" y="48" width="24" height="24" fill="#6d9450" data-sq="g7" class="board-cell"/><rect x="192" y="48" width="24" height="24" fill="#a8c890" data-sq="h7" class="board-cell"/><rect x="216" y="48" width="24" height="24" fill="#6d9450" data-sq="i7" class="board-cell"/><rect x="240" y="48" width="24" height="24" fill="#a8c890" data-sq="j7" class="board-cell"/><rect x="264" y="48" width="24" height="24" fill="#6d9450" data-sq="k7" class="board-cell"/><rect x="288" y="48" width="24" height="24" fill="#a8c890" data-sq="l7" class="board-cell"/><rect x="24" y="72" width="24" height="24" fill="#a8c890" data-sq="a6" class="board-cell"/><rect x="48" y="72" width="24" height="24" fill="#6d9450" data-sq="b6" class="board-cell"/><rect x="72" y="72" width="24" height="24" fill="#a8c890" data-sq="c6" class="board-cell"/><rect x="96" y="72" width="24" height="24" fill="#6d9450" data-sq="d6" class="board-cell"/><rect x="120" y="72" width="24" height="24" fill="#a8c890" data-sq="e6" class="board-cell"/><rect x="144" y="72" width="24" height="24" fill="#6d9450" data-sq="f6" class="board-cell"/><rect x="168" y="72" width="24" height="24" fill="#a8c890" data-sq="g6" class="board-cell"/><rect x="192" y="72" width="24" height="24" fill="#6d9450" data-sq="h6" class="board-cell"/><rect x="216" y="72" width="24" height="24" fill="#a8c890" data-sq="i6" class="board-cell"/><rect x="240" y="72" width="24" height="24" fill="#6d9450" data-sq="j6" class="board-cell"/><rect x="264" y="72" width="24" height="24" fill="#a8c890" data-sq="k6" class="board-cell"/><rect x="288" y="72" width="24" height="24" fill="#6d9450" data-sq="l6" class="board-cell"/><rect x="24" y="96" width="24" height="24" fill="#6d9450" data-sq="a5" class="board-cell"/><rect x="48" y="96" width="24" height="24" fill="#a8c890" data-sq="b5" class="board-cell"/><rect x="72" y="96" width="24" height="24" fill="#6d9450" data-sq="c5" class="board-cell"/><rect x="96" y="96" width="24" height="24" fill="#a8c890" data-sq="d5" class="board-cell"/><rect x="120" y="96" width="24" height="24" fill="#6d9450" data-sq="e5" class="board-cell"/><rect x="144" y="96" width="24" height="24" fill="#a8c890" data-sq="f5" class="board-cell"/><rect x="168" y="96" width="24" height="24" fill="#6d9450" data-sq="g5" class="board-cell"/><rect x="192" y="96" width="24" height="24" fill="#a8c890" data-sq="h5" class="board-cell"/><rect x="216" y="96" width="24" height="24" fill="#6d9450" data-sq="i5" class="board-cell"/><rect x="240" y="96" width="24" height="24" fill="#a8c890" data-sq="j5" class="board-cell"/><rect x="264" y="96" width="24" height="24" fill="#6d9450" data-sq="k5" class="board-cell"/><rect x="288" y="96" width="24" height="24" fill="#a8c890" data-sq="l5" class="board-cell"/><rect x="24" y="120" width="24" height="24" fill="#a8c890" data-sq="a4" class="board-cell"/><rect x="48" y="120" width="24" height="24" fill="#6d9450" data-sq="b4" class="board-cell"/><rect x="72" y="120" width="24" height="24" fill="#a8c890" data-sq="c4" class="board-cell"/><rect x="96" y="120" width="24" height="24" fill="#6d9450" data-sq="d4" class="board-cell"/><rect x="120" y="120" width="24" height="24" fill="#a8c890" data-sq="e4" class="board-cell"/><rect x="144" y="120" width="24" height="24" fill="#6d9450" data-sq="f4" class="board-cell"/><rect x="168" y="120" width="24" height="24" fill="#a8c890" data-sq="g4" class="board-cell"/><rect x="192" y="120" width="24" height="24" fill="#6d9450" data-sq="h4" class="board-cell"/><rect x="216" y="120" width="24" height="24" fill="#a8c890" data-sq="i4" class="board-cell"/><rect x="240" y="120" width="24" height="24" fill="#6d9450" data-sq="j4" class="board-cell"/><rect x="264" y="120" width="24" height="24" fill="#a8c890" data-sq="k4" class="board-cell"/><rect x="288" y="120" width="24" height="24" fill="#6d9450" data-sq="l4" class="board-cell"/><rect x="24" y="144" width="24" height="24" fill="#6d9450" data-sq="a3" class="board-cell"/><rect x="48" y="144" width="24" height="24" fill="#a8c890" data-sq="b3" class="board-cell"/><rect x="72" y="144" width="24" height="24" fill="#6d9450" data-sq="c3" class="board-cell"/><rect x="96" y="144" width="24" height="24" fill="#a8c890" data-sq="d3" class="board-cell"/><rect x="120" y="144" width="24" height="24" fill="#6d9450" data-sq="e3" class="board-cell"/><rect x="144" y="144" width="24" height="24" fill="#a8c890" data-sq="f3" class="board-cell"/><rect x="168" y="144" width="24" height="24" fill="#6d9450" data-sq="g3" class="board-cell"/><rect x="192" y="144" width="24" height="24" fill="#a8c890" data-sq="h3" class="board-cell"/><rect x="216" y="144" width="24" height="24" fill="#6d9450" data-sq="i3" class="board-cell"/><rect x="240" y="144" width="24" height="24" fill="#a8c890" data-sq="j3" class="board-cell"/><rect x="264" y="144" width="24" height="24" fill="#6d9450" data-sq="k3" class="board-cell"/><rect x="288" y="144" width="24" height="24" fill="#a8c890" data-sq="l3" class="board-cell"/><rect x="24" y="168" width="24" height="24" fill="#a8c890" data-sq="a2" class="board-cell"/><rect x="48" y="168" width="24" height="24" fill="#6d9450" data-sq="b2" class="board-cell"/><rect x="72" y="168" width="24" height="24" fill="#a8c890" data-sq="c2" class="board-cell"/><rect x="96" y="168" width="24" height="24" fill="#6d9450" data-sq="d2" class="board-cell"/><rect x="120" y="168" width="24" height="24" fill="#a8c890" data-sq="e2" class="board-cell"/><rect x="144" y="168" width="24" height="24" fill="#6d9450" data-sq="f2" class="board-cell"/><rect x="168" y="168" width="24" height="24" fill="#a8c890" data-sq="g2" class="board-cell"/><rect x="192" y="168" width="24" height="24" fill="#6d9450" data-sq="h2" class="board-cell"/><rect x="216" y="168" width="24" height="24" fill="#a8c890" data-sq="i2" class="board-cell"/><rect x="240" y="168" width="24" height="24" fill="#6d9450" data-sq="j2" class="board-cell"/><rect x="264" y="168" width="24" height="24" fill="#a8c890" data-sq="k2" class="board-cell"/><rect x="288" y="168" width="24" height="24" fill="#6d9450" data-sq="l2" class="board-cell"/><rect x="24" y="192" width="24" height="24" fill="#6d9450" data-sq="a1" class="board-cell"/><rect x="48" y="192" width="24" height="24" fill="#a8c890" data-sq="b1" class="board-cell"/><rect x="72" y="192" width="24" height="24" fill="#6d9450" data-sq="c1" class="board-cell"/><rect x="96" y="192" width="24" height="24" fill="#a8c890" data-sq="d1" class="board-cell"/><rect x="120" y="192" width="24" height="24" fill="#6d9450" data-sq="e1" class="board-cell"/><rect x="144" y="192" width="24" height="24" fill="#a8c890" data-sq="f1" class="board-cell"/><rect x="168" y="192" width="24" height="24" fill="#6d9450" data-sq="g1" class="board-cell"/><rect x="192" y="192" width="24" height="24" fill="#a8c890" data-sq="h1" class="board-cell"/><rect x="216" y="192" width="24" height="24" fill="#6d9450" data-sq="i1" class="board-cell"/><rect x="240" y="192" width="24" height="24" fill="#a8c890" data-sq="j1" class="board-cell"/><rect x="264" y="192" width="24" height="24" fill="#6d9450" data-sq="k1" class="board-cell"/><rect x="288" y="192" width="24" height="24" fill="#a8c890" data-sq="l1" class="board-cell"/>
<g pointer-events="none"><circle cx="36" cy="36" r="11.040000000000001" fill="#f0f0f0" stroke="#999" stroke-width="2" pointer-events="none"/><image href="../pieces/sets/twemoji/ogre.svg" x="28.8" y="28.8" width="14.399999999999999" height="14.399999999999999" pointer-events="none"/><image href="../pieces/sets/wikimedia-standard/Chess_Ult45.svg" x="48" y="24" width="24" height="24" pointer-events="none"/><image href="../pieces/sets/mce-chess/wH.svg" x="72" y="24" width="24" height="24" pointer-events="none"/><image href="../pieces/sets/playstrategy-mono/tower.svg" x="96" y="24" width="24" height="24" pointer-events="none"/><image href="../pieces/sets/mce-chess/wC.svg" x="120" y="24" width="24" height="24" pointer-events="none"/><image href="../pieces/sets/mce-chess/wM.svg" x="144" y="24" width="24" height="24" pointer-events="none"/><image href="../pieces/sets/mce-chess/wK.svg" x="168" y="24" width="24" height="24" pointer-events="none"/><image href="../pieces/sets/mce-chess/wP.svg" x="192" y="24" width="24" height="24" pointer-events="none"/><image href="../pieces/sets/playstrategy-mono/tower.svg" x="216" y="24" width="24" height="24" pointer-events="none"/><image href="../pieces/sets/mce-chess/wH.svg" x="240" y="24" width="24" height="24" pointer-events="none"/><image href="../pieces/sets/wikimedia-standard/Chess_Ult45.svg" x="264" y="24" width="24" height="24" pointer-events="none"/><circle cx="300" cy="36" r="11.040000000000001" fill="#f0f0f0" stroke="#999" stroke-width="2" pointer-events="none"/><image href="../pieces/sets/twemoji/ogre.svg" x="292.8" y="28.8" width="14.399999999999999" height="14.399999999999999" pointer-events="none"/><image href="../pieces/sets/mce-chess/wW.svg" x="24" y="48" width="24" height="24" pointer-events="none"/><image href="../pieces/sets/mce-chess/wW.svg" x="48" y="48" width="24" height="24" pointer-events="none"/><image href="../pieces/sets/mce-chess/wW.svg" x="72" y="48" width="24" height="24" pointer-events="none"/><image href="../pieces/sets/mce-chess/wW.svg" x="96" y="48" width="24" height="24" pointer-events="none"/><image href="../pieces/sets/mce-chess/wW.svg" x="120" y="48" width="24" height="24" pointer-events="none"/><image href="../pieces/sets/mce-chess/wW.svg" x="144" y="48" width="24" height="24" pointer-events="none"/><image href="../pieces/sets/mce-chess/wW.svg" x="168" y="48" width="24" height="24" pointer-events="none"/><image href="../pieces/sets/mce-chess/wW.svg" x="192" y="48" width="24" height="24" pointer-events="none"/><image href="../pieces/sets/mce-chess/wW.svg" x="216" y="48" width="24" height="24" pointer-events="none"/><image href="../pieces/sets/mce-chess/wW.svg" x="240" y="48" width="24" height="24" pointer-events="none"/><image href="../pieces/sets/mce-chess/wW.svg" x="264" y="48" width="24" height="24" pointer-events="none"/><image href="../pieces/sets/mce-chess/wW.svg" x="288" y="48" width="24" height="24" pointer-events="none"/><image href="../pieces/sets/mce-chess/bW.svg" x="24" y="168" width="24" height="24" pointer-events="none"/><image href="../pieces/sets/mce-chess/bW.svg" x="48" y="168" width="24" height="24" pointer-events="none"/><image href="../pieces/sets/mce-chess/bW.svg" x="72" y="168" width="24" height="24" pointer-events="none"/><image href="../pieces/sets/mce-chess/bW.svg" x="96" y="168" width="24" height="24" pointer-events="none"/><image href="../pieces/sets/mce-chess/bW.svg" x="120" y="168" width="24" height="24" pointer-events="none"/><image href="../pieces/sets/mce-chess/bW.svg" x="144" y="168" width="24" height="24" pointer-events="none"/><image href="../pieces/sets/mce-chess/bW.svg" x="168" y="168" width="24" height="24" pointer-events="none"/><image href="../pieces/sets/mce-chess/bW.svg" x="192" y="168" width="24" height="24" pointer-events="none"/><image href="../pieces/sets/mce-chess/bW.svg" x="216" y="168" width="24" height="24" pointer-events="none"/><image href="../pieces/sets/mce-chess/bW.svg" x="240" y="168" width="24" height="24" pointer-events="none"/><image href="../pieces/sets/mce-chess/bW.svg" x="264" y="168" width="24" height="24" pointer-events="none"/><image href="../pieces/sets/mce-chess/bW.svg" x="288" y="168" width="24" height="24" pointer-events="none"/><circle cx="36" cy="204" r="11.040000000000001" fill="#2a2a2a" stroke="#555" stroke-width="2" pointer-events="none"/><image href="../pieces/sets/twemoji/ogre.svg" x="28.8" y="196.8" width="14.399999999999999" height="14.399999999999999" pointer-events="none"/><image href="../pieces/sets/wikimedia-standard/Chess_Udt45.svg" x="48" y="192" width="24" height="24" pointer-events="none"/><image href="../pieces/sets/mce-chess/bH.svg" x="72" y="192" width="24" height="24" pointer-events="none"/><image href="../pieces/sets/playstrategy-mono/tower.svg" x="96" y="192" width="24" height="24" pointer-events="none"/><image href="../pieces/sets/mce-chess/bC.svg" x="120" y="192" width="24" height="24" pointer-events="none"/><image href="../pieces/sets/mce-chess/bM.svg" x="144" y="192" width="24" height="24" pointer-events="none"/><image href="../pieces/sets/mce-chess/bK.svg" x="168" y="192" width="24" height="24" pointer-events="none"/><image href="../pieces/sets/mce-chess/bP.svg" x="192" y="192" width="24" height="24" pointer-events="none"/><image href="../pieces/sets/playstrategy-mono/tower.svg" x="216" y="192" width="24" height="24" pointer-events="none"/><image href="../pieces/sets/mce-chess/bH.svg" x="240" y="192" width="24" height="24" pointer-events="none"/><image href="../pieces/sets/wikimedia-standard/Chess_Udt45.svg" x="264" y="192" width="24" height="24" pointer-events="none"/><circle cx="300" cy="204" r="11.040000000000001" fill="#2a2a2a" stroke="#555" stroke-width="2" pointer-events="none"/><image href="../pieces/sets/twemoji/ogre.svg" x="292.8" y="196.8" width="14.399999999999999" height="14.399999999999999" pointer-events="none"/></g>
<text x="36" y="231.6" text-anchor="middle" font-size="13" fill="#5c3a1e" font-family="monospace">a</text><text x="60" y="231.6" text-anchor="middle" font-size="13" fill="#5c3a1e" font-family="monospace">b</text><text x="84" y="231.6" text-anchor="middle" font-size="13" fill="#5c3a1e" font-family="monospace">c</text><text x="108" y="231.6" text-anchor="middle" font-size="13" fill="#5c3a1e" font-family="monospace">d</text><text x="132" y="231.6" text-anchor="middle" font-size="13" fill="#5c3a1e" font-family="monospace">e</text><text x="156" y="231.6" text-anchor="middle" font-size="13" fill="#5c3a1e" font-family="monospace">f</text><text x="180" y="231.6" text-anchor="middle" font-size="13" fill="#5c3a1e" font-family="monospace">g</text><text x="204" y="231.6" text-anchor="middle" font-size="13" fill="#5c3a1e" font-family="monospace">h</text><text x="228" y="231.6" text-anchor="middle" font-size="13" fill="#5c3a1e" font-family="monospace">i</text><text x="252" y="231.6" text-anchor="middle" font-size="13" fill="#5c3a1e" font-family="monospace">j</text><text x="276" y="231.6" text-anchor="middle" font-size="13" fill="#5c3a1e" font-family="monospace">k</text><text x="300" y="231.6" text-anchor="middle" font-size="13" fill="#5c3a1e" font-family="monospace">l</text><text x="12" y="40.55" text-anchor="middle" font-size="13" fill="#5c3a1e" font-family="monospace">8</text><text x="12" y="64.55" text-anchor="middle" font-size="13" fill="#5c3a1e" font-family="monospace">7</text><text x="12" y="88.55" text-anchor="middle" font-size="13" fill="#5c3a1e" font-family="monospace">6</text><text x="12" y="112.55" text-anchor="middle" font-size="13" fill="#5c3a1e" font-family="monospace">5</text><text x="12" y="136.55" text-anchor="middle" font-size="13" fill="#5c3a1e" font-family="monospace">4</text><text x="12" y="160.55" text-anchor="middle" font-size="13" fill="#5c3a1e" font-family="monospace">3</text><text x="12" y="184.55" text-anchor="middle" font-size="13" fill="#5c3a1e" font-family="monospace">2</text><text x="12" y="208.55" text-anchor="middle" font-size="13" fill="#5c3a1e" font-family="monospace">1</text>

</g>
<text x="172" y="540" text-anchor="middle" font-size="11" fill="#333" font-family="system-ui">Air</text>
<g transform="translate(4,544)" data-layer="2">


<rect x="24" y="24" width="24" height="24" fill="#d4a080" data-sq="a8" class="board-cell"/><rect x="48" y="24" width="24" height="24" fill="#a06848" data-sq="b8" class="board-cell"/><rect x="72" y="24" width="24" height="24" fill="#d4a080" data-sq="c8" class="board-cell"/><rect x="96" y="24" width="24" height="24" fill="#a06848" data-sq="d8" class="board-cell"/><rect x="120" y="24" width="24" height="24" fill="#d4a080" data-sq="e8" class="board-cell"/><rect x="144" y="24" width="24" height="24" fill="#a06848" data-sq="f8" class="board-cell"/><rect x="168" y="24" width="24" height="24" fill="#d4a080" data-sq="g8" class="board-cell"/><rect x="192" y="24" width="24" height="24" fill="#a06848" data-sq="h8" class="board-cell"/><rect x="216" y="24" width="24" height="24" fill="#d4a080" data-sq="i8" class="board-cell"/><rect x="240" y="24" width="24" height="24" fill="#a06848" data-sq="j8" class="board-cell"/><rect x="264" y="24" width="24" height="24" fill="#d4a080" data-sq="k8" class="board-cell"/><rect x="288" y="24" width="24" height="24" fill="#a06848" data-sq="l8" class="board-cell"/><rect x="24" y="48" width="24" height="24" fill="#a06848" data-sq="a7" class="board-cell"/><rect x="48" y="48" width="24" height="24" fill="#d4a080" data-sq="b7" class="board-cell"/><rect x="72" y="48" width="24" height="24" fill="#a06848" data-sq="c7" class="board-cell"/><rect x="96" y="48" width="24" height="24" fill="#d4a080" data-sq="d7" class="board-cell"/><rect x="120" y="48" width="24" height="24" fill="#a06848" data-sq="e7" class="board-cell"/><rect x="144" y="48" width="24" height="24" fill="#d4a080" data-sq="f7" class="board-cell"/><rect x="168" y="48" width="24" height="24" fill="#a06848" data-sq="g7" class="board-cell"/><rect x="192" y="48" width="24" height="24" fill="#d4a080" data-sq="h7" class="board-cell"/><rect x="216" y="48" width="24" height="24" fill="#a06848" data-sq="i7" class="board-cell"/><rect x="240" y="48" width="24" height="24" fill="#d4a080" data-sq="j7" class="board-cell"/><rect x="264" y="48" width="24" height="24" fill="#a06848" data-sq="k7" class="board-cell"/><rect x="288" y="48" width="24" height="24" fill="#d4a080" data-sq="l7" class="board-cell"/><rect x="24" y="72" width="24" height="24" fill="#d4a080" data-sq="a6" class="board-cell"/><rect x="48" y="72" width="24" height="24" fill="#a06848" data-sq="b6" class="board-cell"/><rect x="72" y="72" width="24" height="24" fill="#d4a080" data-sq="c6" class="board-cell"/><rect x="96" y="72" width="24" height="24" fill="#a06848" data-sq="d6" class="board-cell"/><rect x="120" y="72" width="24" height="24" fill="#d4a080" data-sq="e6" class="board-cell"/><rect x="144" y="72" width="24" height="24" fill="#a06848" data-sq="f6" class="board-cell"/><rect x="168" y="72" width="24" height="24" fill="#d4a080" data-sq="g6" class="board-cell"/><rect x="192" y="72" width="24" height="24" fill="#a06848" data-sq="h6" class="board-cell"/><rect x="216" y="72" width="24" height="24" fill="#d4a080" data-sq="i6" class="board-cell"/><rect x="240" y="72" width="24" height="24" fill="#a06848" data-sq="j6" class="board-cell"/><rect x="264" y="72" width="24" height="24" fill="#d4a080" data-sq="k6" class="board-cell"/><rect x="288" y="72" width="24" height="24" fill="#a06848" data-sq="l6" class="board-cell"/><rect x="24" y="96" width="24" height="24" fill="#a06848" data-sq="a5" class="board-cell"/><rect x="48" y="96" width="24" height="24" fill="#d4a080" data-sq="b5" class="board-cell"/><rect x="72" y="96" width="24" height="24" fill="#a06848" data-sq="c5" class="board-cell"/><rect x="96" y="96" width="24" height="24" fill="#d4a080" data-sq="d5" class="board-cell"/><rect x="120" y="96" width="24" height="24" fill="#a06848" data-sq="e5" class="board-cell"/><rect x="144" y="96" width="24" height="24" fill="#d4a080" data-sq="f5" class="board-cell"/><rect x="168" y="96" width="24" height="24" fill="#a06848" data-sq="g5" class="board-cell"/><rect x="192" y="96" width="24" height="24" fill="#d4a080" data-sq="h5" class="board-cell"/><rect x="216" y="96" width="24" height="24" fill="#a06848" data-sq="i5" class="board-cell"/><rect x="240" y="96" width="24" height="24" fill="#d4a080" data-sq="j5" class="board-cell"/><rect x="264" y="96" width="24" height="24" fill="#a06848" data-sq="k5" class="board-cell"/><rect x="288" y="96" width="24" height="24" fill="#d4a080" data-sq="l5" class="board-cell"/><rect x="24" y="120" width="24" height="24" fill="#d4a080" data-sq="a4" class="board-cell"/><rect x="48" y="120" width="24" height="24" fill="#a06848" data-sq="b4" class="board-cell"/><rect x="72" y="120" width="24" height="24" fill="#d4a080" data-sq="c4" class="board-cell"/><rect x="96" y="120" width="24" height="24" fill="#a06848" data-sq="d4" class="board-cell"/><rect x="120" y="120" width="24" height="24" fill="#d4a080" data-sq="e4" class="board-cell"/><rect x="144" y="120" width="24" height="24" fill="#a06848" data-sq="f4" class="board-cell"/><rect x="168" y="120" width="24" height="24" fill="#d4a080" data-sq="g4" class="board-cell"/><rect x="192" y="120" width="24" height="24" fill="#a06848" data-sq="h4" class="board-cell"/><rect x="216" y="120" width="24" height="24" fill="#d4a080" data-sq="i4" class="board-cell"/><rect x="240" y="120" width="24" height="24" fill="#a06848" data-sq="j4" class="board-cell"/><rect x="264" y="120" width="24" height="24" fill="#d4a080" data-sq="k4" class="board-cell"/><rect x="288" y="120" width="24" height="24" fill="#a06848" data-sq="l4" class="board-cell"/><rect x="24" y="144" width="24" height="24" fill="#a06848" data-sq="a3" class="board-cell"/><rect x="48" y="144" width="24" height="24" fill="#d4a080" data-sq="b3" class="board-cell"/><rect x="72" y="144" width="24" height="24" fill="#a06848" data-sq="c3" class="board-cell"/><rect x="96" y="144" width="24" height="24" fill="#d4a080" data-sq="d3" class="board-cell"/><rect x="120" y="144" width="24" height="24" fill="#a06848" data-sq="e3" class="board-cell"/><rect x="144" y="144" width="24" height="24" fill="#d4a080" data-sq="f3" class="board-cell"/><rect x="168" y="144" width="24" height="24" fill="#a06848" data-sq="g3" class="board-cell"/><rect x="192" y="144" width="24" height="24" fill="#d4a080" data-sq="h3" class="board-cell"/><rect x="216" y="144" width="24" height="24" fill="#a06848" data-sq="i3" class="board-cell"/><rect x="240" y="144" width="24" height="24" fill="#d4a080" data-sq="j3" class="board-cell"/><rect x="264" y="144" width="24" height="24" fill="#a06848" data-sq="k3" class="board-cell"/><rect x="288" y="144" width="24" height="24" fill="#d4a080" data-sq="l3" class="board-cell"/><rect x="24" y="168" width="24" height="24" fill="#d4a080" data-sq="a2" class="board-cell"/><rect x="48" y="168" width="24" height="24" fill="#a06848" data-sq="b2" class="board-cell"/><rect x="72" y="168" width="24" height="24" fill="#d4a080" data-sq="c2" class="board-cell"/><rect x="96" y="168" width="24" height="24" fill="#a06848" data-sq="d2" class="board-cell"/><rect x="120" y="168" width="24" height="24" fill="#d4a080" data-sq="e2" class="board-cell"/><rect x="144" y="168" width="24" height="24" fill="#a06848" data-sq="f2" class="board-cell"/><rect x="168" y="168" width="24" height="24" fill="#d4a080" data-sq="g2" class="board-cell"/><rect x="192" y="168" width="24" height="24" fill="#a06848" data-sq="h2" class="board-cell"/><rect x="216" y="168" width="24" height="24" fill="#d4a080" data-sq="i2" class="board-cell"/><rect x="240" y="168" width="24" height="24" fill="#a06848" data-sq="j2" class="board-cell"/><rect x="264" y="168" width="24" height="24" fill="#d4a080" data-sq="k2" class="board-cell"/><rect x="288" y="168" width="24" height="24" fill="#a06848" data-sq="l2" class="board-cell"/><rect x="24" y="192" width="24" height="24" fill="#a06848" data-sq="a1" class="board-cell"/><rect x="48" y="192" width="24" height="24" fill="#d4a080" data-sq="b1" class="board-cell"/><rect x="72" y="192" width="24" height="24" fill="#a06848" data-sq="c1" class="board-cell"/><rect x="96" y="192" width="24" height="24" fill="#d4a080" data-sq="d1" class="board-cell"/><rect x="120" y="192" width="24" height="24" fill="#a06848" data-sq="e1" class="board-cell"/><rect x="144" y="192" width="24" height="24" fill="#d4a080" data-sq="f1" class="board-cell"/><rect x="168" y="192" width="24" height="24" fill="#a06848" data-sq="g1" class="board-cell"/><rect x="192" y="192" width="24" height="24" fill="#d4a080" data-sq="h1" class="board-cell"/><rect x="216" y="192" width="24" height="24" fill="#a06848" data-sq="i1" class="board-cell"/><rect x="240" y="192" width="24" height="24" fill="#d4a080" data-sq="j1" class="board-cell"/><rect x="264" y="192" width="24" height="24" fill="#a06848" data-sq="k1" class="board-cell"/><rect x="288" y="192" width="24" height="24" fill="#d4a080" data-sq="l1" class="board-cell"/>
<g pointer-events="none"><image href="../pieces/sets/mce-chess/wB.svg" x="72" y="24" width="24" height="24" pointer-events="none"/><image href="../pieces/sets/mce-chess/wE.svg" x="168" y="24" width="24" height="24" pointer-events="none"/><image href="../pieces/sets/mce-chess/wB.svg" x="264" y="24" width="24" height="24" pointer-events="none"/><image href="../pieces/sets/wikimedia-fairy/White_dabbaba.svg" x="48" y="48" width="24" height="24" pointer-events="none"/><image href="../pieces/sets/wikimedia-fairy/White_dabbaba.svg" x="96" y="48" width="24" height="24" pointer-events="none"/><image href="../pieces/sets/wikimedia-fairy/White_dabbaba.svg" x="144" y="48" width="24" height="24" pointer-events="none"/><image href="../pieces/sets/wikimedia-fairy/White_dabbaba.svg" x="192" y="48" width="24" height="24" pointer-events="none"/><image href="../pieces/sets/wikimedia-fairy/White_dabbaba.svg" x="240" y="48" width="24" height="24" pointer-events="none"/><image href="../pieces/sets/wikimedia-fairy/White_dabbaba.svg" x="288" y="48" width="24" height="24" pointer-events="none"/><image href="../pieces/sets/wikimedia-fairy/Black_dabbaba.svg" x="48" y="168" width="24" height="24" pointer-events="none"/><image href="../pieces/sets/wikimedia-fairy/Black_dabbaba.svg" x="96" y="168" width="24" height="24" pointer-events="none"/><image href="../pieces/sets/wikimedia-fairy/Black_dabbaba.svg" x="144" y="168" width="24" height="24" pointer-events="none"/><image href="../pieces/sets/wikimedia-fairy/Black_dabbaba.svg" x="192" y="168" width="24" height="24" pointer-events="none"/><image href="../pieces/sets/wikimedia-fairy/Black_dabbaba.svg" x="240" y="168" width="24" height="24" pointer-events="none"/><image href="../pieces/sets/wikimedia-fairy/Black_dabbaba.svg" x="288" y="168" width="24" height="24" pointer-events="none"/><image href="../pieces/sets/mce-chess/bB.svg" x="72" y="192" width="24" height="24" pointer-events="none"/><image href="../pieces/sets/mce-chess/bE.svg" x="168" y="192" width="24" height="24" pointer-events="none"/><image href="../pieces/sets/mce-chess/bB.svg" x="264" y="192" width="24" height="24" pointer-events="none"/></g>
<text x="36" y="231.6" text-anchor="middle" font-size="13" fill="#5c3a1e" font-family="monospace">a</text><text x="60" y="231.6" text-anchor="middle" font-size="13" fill="#5c3a1e" font-family="monospace">b</text><text x="84" y="231.6" text-anchor="middle" font-size="13" fill="#5c3a1e" font-family="monospace">c</text><text x="108" y="231.6" text-anchor="middle" font-size="13" fill="#5c3a1e" font-family="monospace">d</text><text x="132" y="231.6" text-anchor="middle" font-size="13" fill="#5c3a1e" font-family="monospace">e</text><text x="156" y="231.6" text-anchor="middle" font-size="13" fill="#5c3a1e" font-family="monospace">f</text><text x="180" y="231.6" text-anchor="middle" font-size="13" fill="#5c3a1e" font-family="monospace">g</text><text x="204" y="231.6" text-anchor="middle" font-size="13" fill="#5c3a1e" font-family="monospace">h</text><text x="228" y="231.6" text-anchor="middle" font-size="13" fill="#5c3a1e" font-family="monospace">i</text><text x="252" y="231.6" text-anchor="middle" font-size="13" fill="#5c3a1e" font-family="monospace">j</text><text x="276" y="231.6" text-anchor="middle" font-size="13" fill="#5c3a1e" font-family="monospace">k</text><text x="300" y="231.6" text-anchor="middle" font-size="13" fill="#5c3a1e" font-family="monospace">l</text><text x="12" y="40.55" text-anchor="middle" font-size="13" fill="#5c3a1e" font-family="monospace">8</text><text x="12" y="64.55" text-anchor="middle" font-size="13" fill="#5c3a1e" font-family="monospace">7</text><text x="12" y="88.55" text-anchor="middle" font-size="13" fill="#5c3a1e" font-family="monospace">6</text><text x="12" y="112.55" text-anchor="middle" font-size="13" fill="#5c3a1e" font-family="monospace">5</text><text x="12" y="136.55" text-anchor="middle" font-size="13" fill="#5c3a1e" font-family="monospace">4</text><text x="12" y="160.55" text-anchor="middle" font-size="13" fill="#5c3a1e" font-family="monospace">3</text><text x="12" y="184.55" text-anchor="middle" font-size="13" fill="#5c3a1e" font-family="monospace">2</text><text x="12" y="208.55" text-anchor="middle" font-size="13" fill="#5c3a1e" font-family="monospace">1</text>

</g>
</svg>