<svg xmlns="http://www.w3.org/2000/svg" viewBox="0 0 184 592" width="184" height="592">

<rect x="24" y="24" width="34" height="34" fill="#f0d9b5" data-sq="a16" class="board-cell"/><rect x="58" y="24" width="34" height="34" fill="#b58863" data-sq="b16" class="board-cell"/><rect x="92" y="24" width="34" height="34" fill="#f0d9b5" data-sq="c16" class="board-cell"/><rect x="126" y="24" width="34" height="34" fill="#b58863" data-sq="d16" class="board-cell"/><rect x="24" y="58" width="34" height="34" fill="#b58863" data-sq="a15" class="board-cell"/><rect x="58" y="58" width="34" height="34" fill="#f0d9b5" data-sq="b15" class="board-cell"/><rect x="92" y="58" width="34" height="34" fill="#b58863" data-sq="c15" class="board-cell"/><rect x="126" y="58" width="34" height="34" fill="#f0d9b5" data-sq="d15" class="board-cell"/><rect x="24" y="92" width="34" height="34" fill="#f0d9b5" data-sq="a14" class="board-cell"/><rect x="58" y="92" width="34" height="34" fill="#b58863" data-sq="b14" class="board-cell"/><rect x="92" y="92" width="34" height="34" fill="#f0d9b5" data-sq="c14" class="board-cell"/><rect x="126" y="92" width="34" height="34" fill="#b58863" data-sq="d14" class="board-cell"/><rect x="24" y="126" width="34" height="34" fill="#b58863" data-sq="a13" class="board-cell"/><rect x="58" y="126" width="34" height="34" fill="#f0d9b5" data-sq="b13" class="board-cell"/><rect x="92" y="126" width="34" height="34" fill="#b58863" data-sq="c13" class="board-cell"/><rect x="126" y="126" width="34" height="34" fill="#f0d9b5" data-sq="d13" class="board-cell"/><rect x="24" y="160" width="34" height="34" fill="#f0d9b5" data-sq="a12" class="board-cell"/><rect x="58" y="160" width="34" height="34" fill="#b58863" data-sq="b12" class="board-cell"/><rect x="92" y="160" width="34" height="34" fill="#f0d9b5" data-sq="c12" class="board-cell"/><rect x="126" y="160" width="34" height="34" fill="#b58863" data-sq="d12" class="board-cell"/><rect x="24" y="194" width="34" height="34" fill="#b58863" data-sq="a11" class="board-cell"/><rect x="58" y="194" width="34" height="34" fill="#f0d9b5" data-sq="b11" class="board-cell"/><rect x="92" y="194" width="34" height="34" fill="#b58863" data-sq="c11" class="board-cell"/><rect x="126" y="194" width="34" height="34" fill="#f0d9b5" data-sq="d11" class="board-cell"/><rect x="24" y="228" width="34" height="34" fill="#f0d9b5" data-sq="a10" class="board-cell"/><rect x="58" y="228" width="34" height="34" fill="#b58863" data-sq="b10" class="board-cell"/><rect x="92" y="228" width="34" height="34" fill="#f0d9b5" data-sq="c10" class="board-cell"/><rect x="126" y="228" width="34" height="34" fill="#b58863" data-sq="d10" class="board-cell"/><rect x="24" y="262" width="34" height="34" fill="#b58863" data-sq="a9" class="board-cell"/><rect x="58" y="262" width="34" height="34" fill="#f0d9b5" data-sq="b9" class="board-cell"/><rect x="92" y="262" width="34" height="34" fill="#b58863" data-sq="c9" class="board-cell"/><rect x="126" y="262" width="34" height="34" fill="#f0d9b5" data-sq="d9" class="board-cell"/><rect x="24" y="296" width="34" height="34" fill="#f0d9b5" data-sq="a8" class="board-cell"/><rect x="58" y="296" width="34" height="34" fill="#b58863" data-sq="b8" class="board-cell"/><rect x="92" y="296" width="34" height="34" fill="#f0d9b5" data-sq="c8" class="board-cell"/><rect x="126" y="296" width="34" height="34" fill="#b58863" data-sq="d8" class="board-cell"/><rect x="24" y="330" width="34" height="34" fill="#b58863" data-sq="a7" class="board-cell"/><rect x="58" y="330" width="34" height="34" fill="#f0d9b5" data-sq="b7" class="board-cell"/><rect x="92" y="330" width="34" height="34" fill="#b58863" data-sq="c7" class="board-cell"/><rect x="126" y="330" width="34" height="34" fill="#f0d9b5" data-sq="d7" class="board-cell"/><rect x="24" y="364" width="34" height="34" fill="#f0d9b5" data-sq="a6" class="board-cell"/><rect x="58" y="364" width="34" height="34" fill="#b58863" data-sq="b6" class="board-cell"/><rect x="92" y="364" width="34" height="34" fill="#f0d9b5" data-sq="c6" class="board-cell"/><rect x="126" y="364" width="34" height="34" fill="#b58863" data-sq="d6" class="board-cell"/><rect x="24" y="398" width="34" height="34" fill="#b58863" data-sq="a5" class="board-cell"/><rect x="58" y="398" width="34" height="34" fill="#f0d9b5" data-sq="b5" class="board-cell"/><rect x="92" y="398" width="34" height="34" fill="#b58863" data-sq="c5" class="board-cell"/><rect x="126" y="398" width="34" height="34" fill="#f0d9b5" data-sq="d5" class="board-cell"/><rect x="24" y="432" width="34" height="34" fill="#f0d9b5" data-sq="a4" class="board-cell"/><rect x="58" y="432" width="34" height="34" fill="#b58863" data-sq="b4" class="board-cell"/><rect x="92" y="432" width="34" height="34" fill="#f0d9b5" data-sq="c4" class="board-cell"/><rect x="126" y="432" width="34" height="34" fill="#b58863" data-sq="d4" class="board-cell"/><rect x="24" y="466" width="34" height="34" fill="#b58863" data-sq="a3" class="board-cell"/><rect x="58" y="466" width="34" height="34" fill="#f0d9b5" data-sq="b3" class="board-cell"/><rect x="92" y="466" width="34" height="34" fill="#b58863" data-sq="c3" class="board-cell"/><rect x="126" y="466" width="34" height="34" fill="#f0d9b5" data-sq="d3" class="board-cell"/><rect x="24" y="500" width="34" height="34" fill="#f0d9b5" data-sq="a2" class="board-cell"/><rect x="58" y="500" width="34" height="34" fill="#b58863" data-sq="b2" class="board-cell"/><rect x="92" y="500" width="34" height="34" fill="#f0d9b5" data-sq="c2" class="board-cell"/><rect x="126" y="500" width="34" height="34" fill="#b58863" data-sq="d2" class="board-cell"/><rect x="24" y="534" width="34" height="34" fill="#b58863" data-sq="a1" class="board-cell"/><rect x="58" y="534" width="34" height="34" fill="#f0d9b5" data-sq="b1" class="board-cell"/><rect x="92" y="534" width="34" height="34" fill="#b58863" data-sq="c1" class="board-cell"/><rect x="126" y="534" width="34" height="34" fill="#f0d9b5" data-sq="d1" class="board-cell"/>
<g pointer-events="none"><image href="../pieces/sets/mce-chess/bR.svg" x="24" y="24" width="34" height="34" pointer-events="none"/><image href="../pieces/sets/mce-chess/bN.svg" x="58" y="24" width="34" height="34" pointer-events="none"/><image href="../pieces/sets/mce-chess/bB.svg" x="92" y="24" width="34" height="34" pointer-events="none"/><image href="../pieces/sets/mce-chess/bK.svg" x="126" y="24" width="34" height="34" pointer-events="none"/><image href="../pieces/sets/mce-chess/bP.svg" x="24" y="58" width="34" height="34" pointer-events="none"/><image href="../pieces/sets/mce-chess/bP.svg" x="58" y="58" width="34" height="34" pointer-events="none"/><image href="../pieces/sets/mce-chess/bP.svg" x="92" y="58" width="34" height="34" pointer-events="none"/><image href="../pieces/sets/mce-chess/bP.svg" x="126" y="58" width="34" height="34" pointer-events="none"/><image href="../pieces/sets/mce-chess/wP.svg" x="24" y="500" width="34" height="34" pointer-events="none"/><image href="../pieces/sets/mce-chess/wP.svg" x="58" y="500" width="34" height="34" pointer-events="none"/><image href="../pieces/sets/mce-chess/wP.svg" x="92" y="500" width="34" height="34" pointer-events="none"/><image href="../pieces/sets/mce-chess/wP.svg" x="126" y="500" width="34" height="34" pointer-events="none"/><image href="../pieces/sets/mce-chess/wK.svg" x="24" y="534" width="34" height="34" pointer-events="none"/><image href="../pieces/sets/mce-chess/wB.svg" x="58" y="534" width="34" height="34" pointer-events="none"/><image href="../pieces/sets/mce-chess/wN.svg" x="92" y="534" width="34" height="34" pointer-events="none"/><image href="../pieces/sets/mce-chess/wR.svg" x="126" y="534" width="34" height="34" pointer-events="none"/></g>
<text x="41" y="583.6" text-anchor="middle" font-size="13" fill="#5c3a1e" font-family="monospace">a</text><text x="75" y="583.6" text-anchor="middle" font-size="13" fill="#5c3a1e" font-family="monospace">b</text><text x="109" y="583.6" text-anchor="middle" font-size="13" fill="#5c3a1e" font-family="monospace">c</text><text x="143" y="583.6" text-anchor="middle" font-size="13" fill="#5c3a1e" font-family="monospace">d</text><text x="12" y="45.55" text-anchor="middle" font-size="13" fill="#5c3a1e" font-family="monospace">16</text><text x="12" y="79.55" text-anchor="middle" font-size="13" fill="#5c3a1e" font-family="monospace">15</text><text x="12" y="113.55" text-anchor="middle" font-size="13" fill="#5c3a1e" font-family="monospace">14</text><text x="12" y="147.55" text-anchor="middle" font-size="13" fill="#5c3a1e" font-family="monospace">13</text><text x="12" y="181.55" text-anchor="middle" font-size="13" fill="#5c3a1e" font-family="monospace">12</text><text x="12" y="215.55" text-anchor="middle" font-size="13" fill="#5c3a1e" font-family="monospace">11</text><text x="12" y="249.55" text-anchor="middle" font-size="13" fill="#5c3a1e" font-family="monospace">10</text><text x="12" y="283.55" text-anchor="middle" font-size="13" fill="#5c3a1e" font-family="monospace">9</text><text x="12" y="317.55" text-anchor="middle" font-size="13" fill="#5c3a1e" font-family="monospace">8</text><text x="12" y="351.55" text-anchor="middle" font-size="13" fill="#5c3a1e" font-family="monospace">7</text><text x="12" y="385.55" text-anchor="middle" font-size="13" fill="#5c3a1e" font-family="monospace">6</text><text x="12" y="419.55" text-anchor="middle" font-size="13" fill="#5c3a1e" font-family="monospace">5</text><text x="12" y="453.55" text-anchor="middle" font-size="13" fill="#5c3a1e" font-family="monospace">4</text><text x="12" y="487.55" text-anchor="middle" font-size="13" fill="#5c3a1e" font-family="monospace">3</text><text x="12" y="521.55" text-anchor="middle" font-size="13" fill="#5c3a1e" font-family="monospace">2</text><text x="12" y="555.55" text-anchor="middle" font-size="13" fill="#5c3a1e" font-family="monospace">1</text>
</svg>