<svg xmlns="http://www.w3.org/2000/svg" viewBox="0 0 384 384" width="384" height="384">

<rect x="24" y="24" width="24" height="24" fill="#f0d9b5" data-sq="a14" class="board-cell"/><rect x="48" y="24" width="24" height="24" fill="#b58863" data-sq="b14" class="board-cell"/><rect x="72" y="24" width="24" height="24" fill="#f0d9b5" data-sq="c14" class="board-cell"/><rect x="96" y="24" width="24" height="24" fill="#b58863" data-sq="d14" class="board-cell"/><rect x="120" y="24" width="24" height="24" fill="#f0d9b5" data-sq="e14" class="board-cell"/><rect x="144" y="24" width="24" height="24" fill="#b58863" data-sq="f14" class="board-cell"/><rect x="168" y="24" width="24" height="24" fill="#f0d9b5" data-sq="g14" class="board-cell"/><rect x="192" y="24" width="24" height="24" fill="#b58863" data-sq="h14" class="board-cell"/><rect x="216" y="24" width="24" height="24" fill="#f0d9b5" data-sq="i14" class="board-cell"/><rect x="240" y="24" width="24" height="24" fill="#b58863" data-sq="j14" class="board-cell"/><rect x="264" y="24" width="24" height="24" fill="#f0d9b5" data-sq="k14" class="board-cell"/><rect x="288" y="24" width="24" height="24" fill="#b58863" data-sq="l14" class="board-cell"/><rect x="312" y="24" width="24" height="24" fill="#f0d9b5" data-sq="m14" class="board-cell"/><rect x="336" y="24" width="24" height="24" fill="#b58863" data-sq="n14" class="board-cell"/><rect x="24" y="48" width="24" height="24" fill="#b58863" data-sq="a13" class="board-cell"/><rect x="48" y="48" width="24" height="24" fill="#f0d9b5" data-sq="b13" class="board-cell"/><rect x="72" y="48" width="24" height="24" fill="#b58863" data-sq="c13" class="board-cell"/><rect x="96" y="48" width="24" height="24" fill="#f0d9b5" data-sq="d13" class="board-cell"/><rect x="120" y="48" width="24" height="24" fill="#b58863" data-sq="e13" class="board-cell"/><rect x="144" y="48" width="24" height="24" fill="#f0d9b5" data-sq="f13" class="board-cell"/><rect x="168" y="48" width="24" height="24" fill="#b58863" data-sq="g13" class="board-cell"/><rect x="192" y="48" width="24" height="24" fill="#f0d9b5" data-sq="h13" class="board-cell"/><rect x="216" y="48" width="24" height="24" fill="#b58863" data-sq="i13" class="board-cell"/><rect x="240" y="48" width="24" height="24" fill="#f0d9b5" data-sq="j13" class="board-cell"/><rect x="264" y="48" width="24" height="24" fill="#b58863" data-sq="k13" class="board-cell"/><rect x="288" y="48" width="24" height="24" fill="#f0d9b5" data-sq="l13" class="board-cell"/><rect x="312" y="48" width="24" height="24" fill="#b58863" data-sq="m13" class="board-cell"/><rect x="336" y="48" width="24" height="24" fill="#f0d9b5" data-sq="n13" class="board-cell"/><rect x="24" y="72" width="24" height="24" fill="#f0d9b5" data-sq="a12" class="board-cell"/><rect x="48" y="72" width="24" height="24" fill="#b58863" data-sq="b12" class="board-cell"/><rect x="72" y="72" width="24" height="24" fill="#f0d9b5" data-sq="c12" class="board-cell"/><rect x="96" y="72" width="24" height="24" fill="#b58863" data-sq="d12" class="board-cell"/><rect x="120" y="72" width="24" height="24" fill="#f0d9b5" data-sq="e12" class="board-cell"/><rect x="144" y="72" width="24" height="24" fill="#b58863" data-sq="f12" class="board-cell"/><rect x="168" y="72" width="24" height="24" fill="#f0d9b5" data-sq="g12" class="board-cell"/><rect x="192" y="72" width="24" height="24" fill="#b58863" data-sq="h12" class="board-cell"/><rect x="216" y="72" width="24" height="24" fill="#f0d9b5" data-sq="i12" class="board-cell"/><rect x="240" y="72" width="24" height="24" fill="#b58863" data-sq="j12" class="board-cell"/><rect x="264" y="72" width="24" height="24" fill="#f0d9b5" data-sq="k12" class="board-cell"/><rect x="288" y="72" width="24" height="24" fill="#b58863" data-sq="l12" class="board-cell"/><rect x="312" y="72" width="24" height="24" fill="#f0d9b5" data-sq="m12" class="board-cell"/><rect x="336" y="72" width="24" height="24" fill="#b58863" data-sq="n12" class="board-cell"/><rect x="24" y="96" width="24" height="24" fill="#b58863" data-sq="a11" class="board-cell"/><rect x="48" y="96" width="24" height="24" fill="#f0d9b5" data-sq="b11" class="board-cell"/><rect x="72" y="96" width="24" height="24" fill="#b58863" data-sq="c11" class="board-cell"/><rect x="96" y="96" width="24" height="24" fill="#f0d9b5" data-sq="d11" class="board-cell"/><rect x="120" y="96" width="24" height="24" fill="#b58863" data-sq="e11" class="board-cell"/><rect x="144" y="96" width="24" height="24" fill="#f0d9b5" data-sq="f11" class="board-cell"/><rect x="168" y="96" width="24" height="24" fill="#b58863" data-sq="g11" class="board-cell"/><rect x="192" y="96" width="24" height="24" fill="#f0d9b5" data-sq="h11" class="board-cell"/><rect x="216" y="96" width="24" height="24" fill="#b58863" data-sq="i11" class="board-cell"/><rect x="240" y="96" width="24" height="24" fill="#f0d9b5" data-sq="j11" class="board-cell"/><rect x="264" y="96" width="24" height="24" fill="#b58863" data-sq="k11" class="board-cell"/><rect x="288" y="96" width="24" height="24" fill="#f0d9b5" data-sq="l11" class="board-cell"/><rect x="312" y="96" width="24" height="24" fill="#b58863" data-sq="m11" class="board-cell"/><rect x="336" y="96" width="24" height="24" fill="#f0d9b5" data-sq="n11" class="board-cell"/><rect x="24" y="120" width="24" height="24" fill="#f0d9b5" data-sq="a10" class="board-cell"/><rect x="48" y="120" width="24" height="24" fill="#b58863" data-sq="b10" class="board-cell"/><rect x="72" y="120" width="24" height="24" fill="#f0d9b5" data-sq="c10" class="board-cell"/><rect x="96" y="120" width="24" height="24" fill="#b58863" data-sq="d10" class="board-cell"/><rect x="120" y="120" width="24" height="24" fill="#f0d9b5" data-sq="e10" class="board-cell"/><rect x="144" y="120" width="24" height="24" fill="#b58863" data-sq="f10" class="board-cell"/><rect x="168" y="120" width="24" height="24" fill="#f0d9b5" data-sq="g10" class="board-cell"/><rect x="192" y="120" width="24" height="24" fill="#b58863" data-sq="h10" class="board-cell"/><rect x="216" y="120" width="24" height="24" fill="#f0d9b5" data-sq="i10" class="board-cell"/><rect x="240" y="120" width="24" height="24" fill="#b58863" data-sq="j10" class="board-cell"/><rect x="264" y="120" width="24" height="24" fill="#f0d9b5" data-sq="k10" class="board-cell"/><rect x="288" y="120" width="24" height="24" fill="#b58863" data-sq="l10" class="board-cell"/><rect x="312" y="120" width="24" height="24" fill="#f0d9b5" data-sq="m10" class="board-cell"/><rect x="336" y="120" width="24" height="24" fill="#b58863" data-sq="n10" class="board-cell"/><rect x="24" y="144" width="24" height="24" fill="#b58863" data-sq="a9" class="board-cell"/><rect x="48" y="144" width="24" height="24" fill="#f0d9b5" data-sq="b9" class="board-cell"/><rect x="72" y="144" width="24" height="24" fill="#b58863" data-sq="c9" class="board-cell"/><rect x="96" y="144" width="24" height="24" fill="#f0d9b5" data-sq="d9" class="board-cell"/><rect x="120" y="144" width="24" height="24" fill="#b58863" data-sq="e9" class="board-cell"/><rect x="144" y="144" width="24" height="24" fill="#f0d9b5" data-sq="f9" class="board-cell"/><rect x="168" y="144" width="24" height="24" fill="#b58863" data-sq="g9" class="board-cell"/><rect x="192" y="144" width="24" height="24" fill="#f0d9b5" data-sq="h9" class="board-cell"/><rect x="216" y="144" width="24" height="24" fill="#b58863" data-sq="i9" class="board-cell"/><rect x="240" y="144" width="24" height="24" fill="#f0d9b5" data-sq="j9" class="board-cell"/><rect x="264" y="144" width="24" height="24" fill="#b58863" data-sq="k9" class="board-cell"/><rect x="288" y="144" width="24" height="24" fill="#f0d9b5" data-sq="l9" class="board-cell"/><rect x="312" y="144" width="24" height="24" fill="#b58863" data-sq="m9" class="board-cell"/><rect x="336" y="144" width="24" height="24" fill="#f0d9b5" data-sq="n9" class="board-cell"/><rect x="24" y="168" width="24" height="24" fill="#f0d9b5" data-sq="a8" class="board-cell"/><rect x="48" y="168" width="24" height="24" fill="#b58863" data-sq="b8" class="board-cell"/><rect x="72" y="168" width="24" height="24" fill="#f0d9b5" data-sq="c8" class="board-cell"/><rect x="96" y="168" width="24" height="24" fill="#b58863" data-sq="d8" class="board-cell"/><rect x="120" y="168" width="24" height="24" fill="#f0d9b5" data-sq="e8" class="board-cell"/><rect x="144" y="168" width="24" height="24" fill="#b58863" data-sq="f8" class="board-cell"/><rect x="168" y="168" width="24" height="24" fill="#f0d9b5" data-sq="g8" class="board-cell"/><rect x="192" y="168" width="24" height="24" fill="#b58863" data-sq="h8" class="board-cell"/><rect x="216" y="168" width="24" height="24" fill="#f0d9b5" data-sq="i8" class="board-cell"/><rect x="240" y="168" width="24" height="24" fill="#b58863" data-sq="j8" class="board-cell"/><rect x="264" y="168" width="24" height="24" fill="#f0d9b5" data-sq="k8" class="board-cell"/><rect x="288" y="168" width="24" height="24" fill="#b58863" data-sq="l8" class="board-cell"/><rect x="312" y="168" width="24" height="24" fill="#f0d9b5" data-sq="m8" class="board-cell"/><rect x="336" y="168" width="24" height="24" fill="#b58863" data-sq="n8" class="board-cell"/><rect x="24" y="192" width="24" height="24" fill="#b58863" data-sq="a7" class="board-cell"/><rect x="48" y="192" width="24" height="24" fill="#f0d9b5" data-sq="b7" class="board-cell"/><rect x="72" y="192" width="24" height="24" fill="#b58863" data-sq="c7" class="board-cell"/><rect x="96" y="192" width="24" height="24" fill="#f0d9b5" data-sq="d7" class="board-cell"/><rect x="120" y="192" width="24" height="24" fill="#b58863" data-sq="e7" class="board-cell"/><rect x="144" y="192" width="24" height="24" fill="#f0d9b5" data-sq="f7" class="board-cell"/><rect x="168" y="192" width="24" height="24" fill="#b58863" data-sq="g7" class="board-cell"/><rect x="192" y="192" width="24" height="24" fill="#f0d9b5" data-sq="h7" class="board-cell"/><rect x="216" y="192" width="24" height="24" fill="#b58863" data-sq="i7" class="board-cell"/><rect x="240" y="192" width="24" height="24" fill="#f0d9b5" data-sq="j7" class="board-cell"/><rect x="264" y="192" width="24" height="24" fill="#b58863" data-sq="k7" class="board-cell"/><rect x="288" y="192" width="24" height="24" fill="#f0d9b5" data-sq="l7" class="board-cell"/><rect x="312" y="192" width="24" height="24" fill="#b58863" data-sq="m7" class="board-cell"/><rect x="336" y="192" width="24" height="24" fill="#f0d9b5" data-sq="n7" class="board-cell"/><rect x="24" y="216" width="24" height="24" fill="#f0d9b5" data-sq="a6" class="board-cell"/><rect x="48" y="216" width="24" height="24" fill="#b58863" data-sq="b6" class="board-cell"/><rect x="72" y="216" width="24" height="24" fill="#f0d9b5" data-sq="c6" class="board-cell"/><rect x="96" y="216" width="24" height="24" fill="#b58863" data-sq="d6" class="board-cell"/><rect x="120" y="216" width="24" height="24" fill="#f0d9b5" data-sq="e6" class="board-cell"/><rect x="144" y="216" width="24" height="24" fill="#b58863" data-sq="f6" class="board-cell"/><rect x="168" y="216" width="24" height="24" fill="#f0d9b5" data-sq="g6" class="board-cell"/><rect x="192" y="216" width="24" height="24" fill="#b58863" data-sq="h6" class="board-cell"/><rect x="216" y="216" width="24" height="24" fill="#f0d9b5" data-sq="i6" class="board-cell"/><rect x="240" y="216" width="24" height="24" fill="#b58863" data-sq="j6" class="board-cell"/><rect x="264" y="216" width="24" height="24" fill="#f0d9b5" data-sq="k6" class="board-cell"/><rect x="288" y="216" width="24" height="24" fill="#b58863" data-sq="l6" class="board-cell"/><rect x="312" y="216" width="24" height="24" fill="#f0d9b5" data-sq="m6" class="board-cell"/><rect x="336" y="216" width="24" height="24" fill="#b58863" data-sq="n6" class="board-cell"/><rect x="24" y="240" width="24" height="24" fill="#b58863" data-sq="a5" class="board-cell"/><rect x="48" y="240" width="24" height="24" fill="#f0d9b5" data-sq="b5" class="board-cell"/><rect x="72" y="240" width="24" height="24" fill="#b58863" data-sq="c5" class="board-cell"/><rect x="96" y="240" width="24" height="24" fill="#f0d9b5" data-sq="d5" class="board-cell"/><rect x="120" y="240" width="24" height="24" fill="#b58863" data-sq="e5" class="board-cell"/><rect x="144" y="240" width="24" height="24" fill="#f0d9b5" data-sq="f5" class="board-cell"/><rect x="168" y="240" width="24" height="24" fill="#b58863" data-sq="g5" class="board-cell"/><rect x="192" y="240" width="24" height="24" fill="#f0d9b5" data-sq="h5" class="board-cell"/><rect x="216" y="240" width="24" height="24" fill="#b58863" data-sq="i5" class="board-cell"/><rect x="240" y="240" width="24" height="24" fill="#f0d9b5" data-sq="j5" class="board-cell"/><rect x="264" y="240" width="24" height="24" fill="#b58863" data-sq="k5" class="board-cell"/><rect x="288" y="240" width="24" height="24" fill="#f0d9b5" data-sq="l5" class="board-cell"/><rect x="312" y="240" width="24" height="24" fill="#b58863" data-sq="m5" class="board-cell"/><rect x="336" y="240" width="24" height="24" fill="#f0d9b5" data-sq="n5" class="board-cell"/><rect x="24" y="264" width="24" height="24" fill="#f0d9b5" data-sq="a4" class="board-cell"/><rect x="48" y="264" width="24" height="24" fill="#b58863" data-sq="b4" class="board-cell"/><rect x="72" y="264" width="24" height="24" fill="#f0d9b5" data-sq="c4" class="board-cell"/><rect x="96" y="264" width="24" height="24" fill="#b58863" data-sq="d4" class="board-cell"/><rect x="120" y="264" width="24" height="24" fill="#f0d9b5" data-sq="e4" class="board-cell"/><rect x="144" y="264" width="24" height="24" fill="#b58863" data-sq="f4" class="board-cell"/><rect x="168" y="264" width="24" height="24" fill="#f0d9b5" data-sq="g4" class="board-cell"/><rect x="192" y="264" width="24" height="24" fill="#b58863" data-sq="h4" class="board-cell"/><rect x="216" y="264" width="24" height="24" fill="#f0d9b5" data-sq="i4" class="board-cell"/><rect x="240" y="264" width="24" height="24" fill="#b58863" data-sq="j4" class="board-cell"/><rect x="264" y="264" width="24" height="24" fill="#f0d9b5" data-sq="k4" class="board-cell"/><rect x="288" y="264" width="24" height="24" fill="#b58863" data-sq="l4" class="board-cell"/><rect x="312" y="264" width="24" height="24" fill="#f0d9b5" data-sq="m4" class="board-cell"/><rect x="336" y="264" width="24" height="24" fill="#b58863" data-sq="n4" class="board-cell"/><rect x="24" y="288" width="24" height="24" fill="#b58863" data-sq="a3" class="board-cell"/><rect x="48" y="288" width="24" height="24" fill="#f0d9b5" data-sq="b3" class="board-cell"/><rect x="72" y="288" width="24" height="24" fill="#b58863" data-sq="c3" class="board-cell"/><rect x="96" y="288" width="24" height="24" fill="#f0d9b5" data-sq="d3" class="board-cell"/><rect x="120" y="288" width="24" height="24" fill="#b58863" data-sq="e3" class="board-cell"/><rect x="144" y="288" width="24" height="24" fill="#f0d9b5" data-sq="f3" class="board-cell"/><rect x="168" y="288" width="24" height="24" fill="#b58863" data-sq="g3" class="board-cell"/><rect x="192" y="288" width="24" height="24" fill="#f0d9b5" data-sq="h3" class="board-cell"/><rect x="216" y="288" width="24" height="24" fill="#b58863" data-sq="i3" class="board-cell"/><rect x="240" y="288" width="24" height="24" fill="#f0d9b5" data-sq="j3" class="board-cell"/><rect x="264" y="288" width="24" height="24" fill="#b58863" data-sq="k3" class="board-cell"/><rect x="288" y="288" width="24" height="24" fill="#f0d9b5" data-sq="l3" class="board-cell"/><rect x="312" y="288" width="24" height="24" fill="#b58863" data-sq="m3" class="board-cell"/><rect x="336" y="288" width="24" height="24" fill="#f0d9b5" data-sq="n3" class="board-cell"/><rect x="24" y="312" width="24" height="24" fill="#f0d9b5" data-sq="a2" class="board-cell"/><rect x="48" y="312" width="24" height="24" fill="#b58863" data-sq="b2" class="board-cell"/><rect x="72" y="312" width="24" height="24" fill="#f0d9b5" data-sq="c2" class="board-cell"/><rect x="96" y="312" width="24" height="24" fill="#b58863" data-sq="d2" class="board-cell"/><rect x="120" y="312" width="24" height="24" fill="#f0d9b5" data-sq="e2" class="board-cell"/><rect x="144" y="312" width="24" height="24" fill="#b58863" data-sq="f2" class="board-cell"/><rect x="168" y="312" width="24" height="24" fill="#f0d9b5" data-sq="g2" class="board-cell"/><rect x="192" y="312" width="24" height="24" fill="#b58863" data-sq="h2" class="board-cell"/><rect x="216" y="312" width="24" height="24" fill="#f0d9b5" data-sq="i2" class="board-cell"/><rect x="240" y="312" width="24" height="24" fill="#b58863" data-sq="j2" class="board-cell"/><rect x="264" y="312" width="24" height="24" fill="#f0d9b5" data-sq="k2" class="board-cell"/><rect x="288" y="312" width="24" height="24" fill="#b58863" data-sq="l2" class="board-cell"/><rect x="312" y="312" width="24" height="24" fill="#f0d9b5" data-sq="m2" class="board-cell"/><rect x="336" y="312" width="24" height="24" fill="#b58863" data-sq="n2" class="board-cell"/><rect x="24" y="336" width="24" height="24" fill="#b58863" data-sq="a1" class="board-cell"/><rect x="48" y="336" width="24" height="24" fill="#f0d9b5" data-sq="b1" class="board-cell"/><rect x="72" y="336" width="24" height="24" fill="#b58863" data-sq="c1" class="board-cell"/><rect x="96" y="336" width="24" height="24" fill="#f0d9b5" data-sq="d1" class="board-cell"/><rect x="120" y="336" width="24" height="24" fill="#b58863" data-sq="e1" class="board-cell"/><rect x="144" y="336" width="24" height="24" fill="#f0d9b5" data-sq="f1" class="board-cell"/><rect x="168" y="336" width="24" height="24" fill="#b58863" data-sq="g1" class="board-cell"/><rect x="192" y="336" width="24" height="24" fill="#f0d9b5" data-sq="h1" class="board-cell"/><rect x="216" y="336" width="24" height="24" fill="#b58863" data-sq="i1" class="board-cell"/><rect x="240" y="336" width="24" height="24" fill="#f0d9b5" data-sq="j1" class="board-cell"/><rect x="264" y="336" width="24" height="24" fill="#b58863" data-sq="k1" class="board-cell"/><rect x="288" y="336" width="24" height="24" fill="#f0d9b5" data-sq="l1" class="board-cell"/><rect x="312" y="336" width="24" height="24" fill="#b58863" data-sq="m1" class="board-cell"/><rect x="336" y="336" width="24" height="24" fill="#f0d9b5" data-sq="n1" class="board-cell"/>
<g pointer-events="none"><image href="../pieces/sets/mce-chess/bR.svg" x="96" y="96" width="24" height="24" pointer-events="none"/><image href="../pieces/sets/mce-chess/bN.svg" x="120" y="96" width="24" height="24" pointer-events="none"/><image href="../pieces/sets/mce-chess/bB.svg" x="144" y="96" width="24" height="24" pointer-events="none"/><image href="../pieces/sets/mce-chess/bQ.svg" x="168" y="96" width="24" height="24" pointer-events="none"/><image href="../pieces/sets/mce-chess/bK.svg" x="192" y="96" width="24" height="24" pointer-events="none"/><image href="../pieces/sets/mce-chess/bB.svg" x="216" y="96" width="24" height="24" pointer-events="none"/><image href="../pieces/sets/mce-chess/bN.svg" x="240" y="96" width="24" height="24" pointer-events="none"/><image href="../pieces/sets/mce-chess/bR.svg" x="264" y="96" width="24" height="24" pointer-events="none"/><image href="../pieces/sets/mce-chess/bP.svg" x="96" y="120" width="24" height="24" pointer-events="none"/><image href="../pieces/sets/mce-chess/bP.svg" x="120" y="120" width="24" height="24" pointer-events="none"/><image href="../pieces/sets/mce-chess/bP.svg" x="144" y="120" width="24" height="24" pointer-events="none"/><image href="../pieces/sets/mce-chess/bP.svg" x="168" y="120" width="24" height="24" pointer-events="none"/><image href="../pieces/sets/mce-chess/bP.svg" x="192" y="120" width="24" height="24" pointer-events="none"/><image href="../pieces/sets/mce-chess/bP.svg" x="216" y="120" width="24" height="24" pointer-events="none"/><image href="../pieces/sets/mce-chess/bP.svg" x="240" y="120" width="24" height="24" pointer-events="none"/><image href="../pieces/sets/mce-chess/bP.svg" x="264" y="120" width="24" height="24" pointer-events="none"/><image href="../pieces/sets/mce-chess/wP.svg" x="96" y="240" width="24" height="24" pointer-events="none"/><image href="../pieces/sets/mce-chess/wP.svg" x="120" y="240" width="24" height="24" pointer-events="none"/><image href="../pieces/sets/mce-chess/wP.svg" x="144" y="240" width="24" height="24" pointer-events="none"/><image href="../pieces/sets/mce-chess/wP.svg" x="168" y="240" width="24" height="24" pointer-events="none"/><image href="../pieces/sets/mce-chess/wP.svg" x="192" y="240" width="24" height="24" pointer-events="none"/><image href="../pieces/sets/mce-chess/wP.svg" x="216" y="240" width="24" height="24" pointer-events="none"/><image href="../pieces/sets/mce-chess/wP.svg" x="240" y="240" width="24" height="24" pointer-events="none"/><image href="../pieces/sets/mce-chess/wP.svg" x="264" y="240" width="24" height="24" pointer-events="none"/><image href="../pieces/sets/mce-chess/wR.svg" x="96" y="264" width="24" height="24" pointer-events="none"/><image href="../pieces/sets/mce-chess/wN.svg" x="120" y="264" width="24" height="24" pointer-events="none"/><image href="../pieces/sets/mce-chess/wB.svg" x="144" y="264" width="24" height="24" pointer-events="none"/><image href="../pieces/sets/mce-chess/wQ.svg" x="168" y="264" width="24" height="24" pointer-events="none"/><image href="../pieces/sets/mce-chess/wK.svg" x="192" y="264" width="24" height="24" pointer-events="none"/><image href="../pieces/sets/mce-chess/wB.svg" x="216" y="264" width="24" height="24" pointer-events="none"/><image href="../pieces/sets/mce-chess/wN.svg" x="240" y="264" width="24" height="24" pointer-events="none"/><image href="../pieces/sets/mce-chess/wR.svg" x="264" y="264" width="24" height="24" pointer-events="none"/></g>
<text x="36" y="375.6" text-anchor="middle" font-size="13" fill="#5c3a1e" font-family="monospace">a</text><text x="60" y="375.6" text-anchor="middle" font-size="13" fill="#5c3a1e" font-family="monospace">b</text><text x="84" y="375.6" text-anchor="middle" font-size="13" fill="#5c3a1e" font-family="monospace">c</text><text x="108" y="375.6" text-anchor="middle" font-size="13" fill="#5c3a1e" font-family="monospace">d</text><text x="132" y="375.6" text-anchor="middle" font-size="13" fill="#5c3a1e" font-family="monospace">e</text><text x="156" y="375.6" text-anchor="middle" font-size="13" fill="#5c3a1e" font-family="monospace">f</text><text x="180" y="375.6" text-anchor="middle" font-size="13" fill="#5c3a1e" font-family="monospace">g</text><text x="204" y="375.6" text-anchor="middle" font-size="13" fill="#5c3a1e" font-family="monospace">h</text><text x="228" y="375.6" text-anchor="middle" font-size="13" fill="#5c3a1e" font-family="monospace">i</text><text x="252" y="375.6" text-anchor="middle" font-size="13" fill="#5c3a1e" font-family="monospace">j</text><text x="276" y="375.6" text-anchor="middle" font-size="13" fill="#5c3a1e" font-family="monospace">k</text><text x="300" y="375.6" text-anchor="middle" font-size="13" fill="#5c3a1e" font-family="monospace">l</text><text x="324" y="375.6" text-anchor="middle" font-size="13" fill="#5c3a1e" font-family="monospace">m</text><text x="348" y="375.6" text-anchor="middle" font-size="13" fill="#5c3a1e" font-family="monospace">n</text><text x="12" y="40.55" text-anchor="middle" font-size="13" fill="#5c3a1e" font-family="monospace">14</text><text x="12" y="64.55" text-anchor="middle" font-size="13" fill="#5c3a1e" font-family="monospace">13</text><text x="12" y="88.55" text-anchor="middle" font-size="13" fill="#5c3a1e" font-family="monospace">12</text><text x="12" y="112.55" text-anchor="middle" font-size="13" fill="#5c3a1e" font-family="monospace">11</text><text x="12" y="136.55" text-anchor="middle" font-size="13" fill="#5c3a1e" font-family="monospace">10</text><text x="12" y="160.55" text-anchor="middle" font-size="13" fill="#5c3a1e" font-family="monospace">9</text><text x="12" y="184.55" text-anchor="middle" font-size="13" fill="#5c3a1e" font-family="monospace">8</text><text x="12" y="208.55" text-anchor="middle" font-size="13" fill="#5c3a1e" font-family="monospace">7</text><text x="12" y="232.55" text-anchor="middle" font-size="13" fill="#5c3a1e" font-family="monospace">6</text><text x="12" y="256.55" text-anchor="middle" font-size="13" fill="#5c3a1e" font-family="monospace">5</text><text x="12" y="280.55" text-anchor="middle" font-size="13" fill="#5c3a1e" font-family="monospace">4</text><text x="12" y="304.55" text-anchor="middle" font-size="13" fill="#5c3a1e" font-family="monospace">3</text><text x="12" y="328.55" text-anchor="middle" font-size="13" fill="#5c3a1e" font-family="monospace">2</text><text x="12" y="352.55" text-anchor="middle" font-size="13" fill="#5c3a1e" font-family="monospace">1</text>
</svg>