<svg xmlns="http://www.w3.org/2000/svg" viewBox="0 0 198 198" width="198" height="198">

<rect x="24" y="24" width="50" height="50" fill="#f0d9b5" data-sq="a3" class="board-cell"/><rect x="74" y="24" width="50" height="50" fill="#b58863" data-sq="b3" class="board-cell"/><rect x="124" y="24" width="50" height="50" fill="#f0d9b5" data-sq="c3" class="board-cell"/><rect x="24" y="74" width="50" height="50" fill="#b58863" data-sq="a2" class="board-cell"/><rect x="74" y="74" width="50" height="50" fill="#f0d9b5" data-sq="b2" class="board-cell"/><rect x="124" y="74" width="50" height="50" fill="#b58863" data-sq="c2" class="board-cell"/><rect x="24" y="124" width="50" height="50" fill="#f0d9b5" data-sq="a1" class="board-cell"/><rect x="74" y="124" width="50" height="50" fill="#b58863" data-sq="b1" class="board-cell"/><rect x="124" y="124" width="50" height="50" fill="#f0d9b5" data-sq="c1" class="board-cell"/>
<g pointer-events="none"><image href="../pieces/sets/mce-chess/bP.svg" x="24" y="24" width="50" height="50" pointer-events="none"/><image href="../pieces/sets/mce-chess/bP.svg" x="74" y="24" width="50" height="50" pointer-events="none"/><image href="../pieces/sets/mce-chess/bP.svg" x="124" y="24" width="50" height="50" pointer-events="none"/><image href="../pieces/sets/mce-chess/wP.svg" x="24" y="124" width="50" height="50" pointer-events="none"/><image href="../pieces/sets/mce-chess/wP.svg" x="74" y="124" width="50" height="50" pointer-events="none"/><image href="../pieces/sets/mce-chess/wP.svg" x="124" y="124" width="50" height="50" pointer-events="none"/></g>
<text x="49" y="189.6" text-anchor="middle" font-size="13" fill="#5c3a1e" font-family="monospace">a</text><text x="99" y="189.6" text-anchor="middle" font-size="13" fill="#5c3a1e" font-family="monospace">b</text><text x="149" y="189.6" text-anchor="middle" font-size="13" fill="#5c3a1e" font-family="monospace">c</text><text x="12" y="53.55" text-anchor="middle" font-size="13" fill="#5c3a1e" font-family="monospace">3</text><text x="12" y="103.55" text-anchor="middle" font-size="13" fill="#5c3a1e" font-family="monospace">2</text><text x="12" y="153.55" text-anchor="middle" font-size="13" fill="#5c3a1e" font-family="monospace">1</text>
</svg>