<svg xmlns="http://www.w3.org/2000/svg" viewBox="0 0 348 348" width="348" height="348">

<rect x="24" y="24" width="30" height="30" fill="#f0d9b5" data-sq="a10" class="board-cell"/><rect x="54" y="24" width="30" height="30" fill="#b58863" data-sq="b10" class="board-cell"/><rect x="84" y="24" width="30" height="30" fill="#f0d9b5" data-sq="c10" class="board-cell"/><rect x="114" y="24" width="30" height="30" fill="#b58863" data-sq="d10" class="board-cell"/><rect x="144" y="24" width="30" height="30" fill="#f0d9b5" data-sq="e10" class="board-cell"/><rect x="174" y="24" width="30" height="30" fill="#b58863" data-sq="f10" class="board-cell"/><rect x="204" y="24" width="30" height="30" fill="#f0d9b5" data-sq="g10" class="board-cell"/><rect x="234" y="24" width="30" height="30" fill="#b58863" data-sq="h10" class="board-cell"/><rect x="264" y="24" width="30" height="30" fill="#f0d9b5" data-sq="i10" class="board-cell"/><rect x="294" y="24" width="30" height="30" fill="#b58863" data-sq="j10" class="board-cell"/><rect x="24" y="54" width="30" height="30" fill="#b58863" data-sq="a9" class="board-cell"/><rect x="54" y="54" width="30" height="30" fill="#f0d9b5" data-sq="b9" class="board-cell"/><rect x="84" y="54" width="30" height="30" fill="#b58863" data-sq="c9" class="board-cell"/><rect x="114" y="54" width="30" height="30" fill="#f0d9b5" data-sq="d9" class="board-cell"/><rect x="144" y="54" width="30" height="30" fill="#b58863" data-sq="e9" class="board-cell"/><rect x="174" y="54" width="30" height="30" fill="#f0d9b5" data-sq="f9" class="board-cell"/><rect x="204" y="54" width="30" height="30" fill="#b58863" data-sq="g9" class="board-cell"/><rect x="234" y="54" width="30" height="30" fill="#f0d9b5" data-sq="h9" class="board-cell"/><rect x="264" y="54" width="30" height="30" fill="#b58863" data-sq="i9" class="board-cell"/><rect x="294" y="54" width="30" height="30" fill="#f0d9b5" data-sq="j9" class="board-cell"/><rect x="24" y="84" width="30" height="30" fill="#f0d9b5" data-sq="a8" class="board-cell"/><rect x="54" y="84" width="30" height="30" fill="#b58863" data-sq="b8" class="board-cell"/><rect x="84" y="84" width="30" height="30" fill="#f0d9b5" data-sq="c8" class="board-cell"/><rect x="114" y="84" width="30" height="30" fill="#b58863" data-sq="d8" class="board-cell"/><rect x="144" y="84" width="30" height="30" fill="#f0d9b5" data-sq="e8" class="board-cell"/><rect x="174" y="84" width="30" height="30" fill="#b58863" data-sq="f8" class="board-cell"/><rect x="204" y="84" width="30" height="30" fill="#f0d9b5" data-sq="g8" class="board-cell"/><rect x="234" y="84" width="30" height="30" fill="#b58863" data-sq="h8" class="board-cell"/><rect x="264" y="84" width="30" height="30" fill="#f0d9b5" data-sq="i8" class="board-cell"/><rect x="294" y="84" width="30" height="30" fill="#b58863" data-sq="j8" class="board-cell"/><rect x="24" y="114" width="30" height="30" fill="#b58863" data-sq="a7" class="board-cell"/><rect x="54" y="114" width="30" height="30" fill="#f0d9b5" data-sq="b7" class="board-cell"/><rect x="84" y="114" width="30" height="30" fill="#b58863" data-sq="c7" class="board-cell"/><rect x="114" y="114" width="30" height="30" fill="#f0d9b5" data-sq="d7" class="board-cell"/><rect x="144" y="114" width="30" height="30" fill="#b58863" data-sq="e7" class="board-cell"/><rect x="174" y="114" width="30" height="30" fill="#f0d9b5" data-sq="f7" class="board-cell"/><rect x="204" y="114" width="30" height="30" fill="#b58863" data-sq="g7" class="board-cell"/><rect x="234" y="114" width="30" height="30" fill="#f0d9b5" data-sq="h7" class="board-cell"/><rect x="264" y="114" width="30" height="30" fill="#b58863" data-sq="i7" class="board-cell"/><rect x="294" y="114" width="30" height="30" fill="#f0d9b5" data-sq="j7" class="board-cell"/><rect x="24" y="144" width="30" height="30" fill="#f0d9b5" data-sq="a6" class="board-cell"/><rect x="54" y="144" width="30" height="30" fill="#b58863" data-sq="b6" class="board-cell"/><rect x="84" y="144" width="30" height="30" fill="#f0d9b5" data-sq="c6" class="board-cell"/><rect x="114" y="144" width="30" height="30" fill="#b58863" data-sq="d6" class="board-cell"/><rect x="144" y="144" width="30" height="30" fill="#f0d9b5" data-sq="e6" class="board-cell"/><rect x="174" y="144" width="30" height="30" fill="#b58863" data-sq="f6" class="board-cell"/><rect x="204" y="144" width="30" height="30" fill="#f0d9b5" data-sq="g6" class="board-cell"/><rect x="234" y="144" width="30" height="30" fill="#b58863" data-sq="h6" class="board-cell"/><rect x="264" y="144" width="30" height="30" fill="#f0d9b5" data-sq="i6" class="board-cell"/><rect x="294" y="144" width="30" height="30" fill="#b58863" data-sq="j6" class="board-cell"/><rect x="24" y="174" width="30" height="30" fill="#b58863" data-sq="a5" class="board-cell"/><rect x="54" y="174" width="30" height="30" fill="#f0d9b5" data-sq="b5" class="board-cell"/><rect x="84" y="174" width="30" height="30" fill="#b58863" data-sq="c5" class="board-cell"/><rect x="114" y="174" width="30" height="30" fill="#f0d9b5" data-sq="d5" class="board-cell"/><rect x="144" y="174" width="30" height="30" fill="#b58863" data-sq="e5" class="board-cell"/><rect x="174" y="174" width="30" height="30" fill="#f0d9b5" data-sq="f5" class="board-cell"/><rect x="204" y="174" width="30" height="30" fill="#b58863" data-sq="g5" class="board-cell"/><rect x="234" y="174" width="30" height="30" fill="#f0d9b5" data-sq="h5" class="board-cell"/><rect x="264" y="174" width="30" height="30" fill="#b58863" data-sq="i5" class="board-cell"/><rect x="294" y="174" width="30" height="30" fill="#f0d9b5" data-sq="j5" class="board-cell"/><rect x="24" y="204" width="30" height="30" fill="#f0d9b5" data-sq="a4" class="board-cell"/><rect x="54" y="204" width="30" height="30" fill="#b58863" data-sq="b4" class="board-cell"/><rect x="84" y="204" width="30" height="30" fill="#f0d9b5" data-sq="c4" class="board-cell"/><rect x="114" y="204" width="30" height="30" fill="#b58863" data-sq="d4" class="board-cell"/><rect x="144" y="204" width="30" height="30" fill="#f0d9b5" data-sq="e4" class="board-cell"/><rect x="174" y="204" width="30" height="30" fill="#b58863" data-sq="f4" class="board-cell"/><rect x="204" y="204" width="30" height="30" fill="#f0d9b5" data-sq="g4" class="board-cell"/><rect x="234" y="204" width="30" height="30" fill="#b58863" data-sq="h4" class="board-cell"/><rect x="264" y="204" width="30" height="30" fill="#f0d9b5" data-sq="i4" class="board-cell"/><rect x="294" y="204" width="30" height="30" fill="#b58863" data-sq="j4" class="board-cell"/><rect x="24" y="234" width="30" height="30" fill="#b58863" data-sq="a3" class="board-cell"/><rect x="54" y="234" width="30" height="30" fill="#f0d9b5" data-sq="b3" class="board-cell"/><rect x="84" y="234" width="30" height="30" fill="#b58863" data-sq="c3" class="board-cell"/><rect x="114" y="234" width="30" height="30" fill="#f0d9b5" data-sq="d3" class="board-cell"/><rect x="144" y="234" width="30" height="30" fill="#b58863" data-sq="e3" class="board-cell"/><rect x="174" y="234" width="30" height="30" fill="#f0d9b5" data-sq="f3" class="board-cell"/><rect x="204" y="234" width="30" height="30" fill="#b58863" data-sq="g3" class="board-cell"/><rect x="234" y="234" width="30" height="30" fill="#f0d9b5" data-sq="h3" class="board-cell"/><rect x="264" y="234" width="30" height="30" fill="#b58863" data-sq="i3" class="board-cell"/><rect x="294" y="234" width="30" height="30" fill="#f0d9b5" data-sq="j3" class="board-cell"/><rect x="24" y="264" width="30" height="30" fill="#f0d9b5" data-sq="a2" class="board-cell"/><rect x="54" y="264" width="30" height="30" fill="#b58863" data-sq="b2" class="board-cell"/><rect x="84" y="264" width="30" height="30" fill="#f0d9b5" data-sq="c2" class="board-cell"/><rect x="114" y="264" width="30" height="30" fill="#b58863" data-sq="d2" class="board-cell"/><rect x="144" y="264" width="30" height="30" fill="#f0d9b5" data-sq="e2" class="board-cell"/><rect x="174" y="264" width="30" height="30" fill="#b58863" data-sq="f2" class="board-cell"/><rect x="204" y="264" width="30" height="30" fill="#f0d9b5" data-sq="g2" class="board-cell"/><rect x="234" y="264" width="30" height="30" fill="#b58863" data-sq="h2" class="board-cell"/><rect x="264" y="264" width="30" height="30" fill="#f0d9b5" data-sq="i2" class="board-cell"/><rect x="294" y="264" width="30" height="30" fill="#b58863" data-sq="j2" class="board-cell"/><rect x="24" y="294" width="30" height="30" fill="#b58863" data-sq="a1" class="board-cell"/><rect x="54" y="294" width="30" height="30" fill="#f0d9b5" data-sq="b1" class="board-cell"/><rect x="84" y="294" width="30" height="30" fill="#b58863" data-sq="c1" class="board-cell"/><rect x="114" y="294" width="30" height="30" fill="#f0d9b5" data-sq="d1" class="board-cell"/><rect x="144" y="294" width="30" height="30" fill="#b58863" data-sq="e1" class="board-cell"/><rect x="174" y="294" width="30" height="30" fill="#f0d9b5" data-sq="f1" class="board-cell"/><rect x="204" y="294" width="30" height="30" fill="#b58863" data-sq="g1" class="board-cell"/><rect x="234" y="294" width="30" height="30" fill="#f0d9b5" data-sq="h1" class="board-cell"/><rect x="264" y="294" width="30" height="30" fill="#b58863" data-sq="i1" class="board-cell"/><rect x="294" y="294" width="30" height="30" fill="#f0d9b5" data-sq="j1" class="board-cell"/>
<g pointer-events="none"><image href="../pieces/sets/mce-chess/bR.svg" x="24" y="24" width="30" height="30" pointer-events="none"/><image href="../pieces/sets/mce-chess/bN.svg" x="54" y="24" width="30" height="30" pointer-events="none"/><image href="../pieces/sets/mce-chess/bB.svg" x="84" y="24" width="30" height="30" pointer-events="none"/><image href="../pieces/sets/mce-chess/bP.svg" x="114" y="24" width="30" height="30" pointer-events="none"/><image href="../pieces/sets/mce-chess/bQ.svg" x="144" y="24" width="30" height="30" pointer-events="none"/><image href="../pieces/sets/mce-chess/bK.svg" x="174" y="24" width="30" height="30" pointer-events="none"/><image href="../pieces/sets/mce-chess/bP.svg" x="204" y="24" width="30" height="30" pointer-events="none"/><image href="../pieces/sets/mce-chess/bB.svg" x="234" y="24" width="30" height="30" pointer-events="none"/><image href="../pieces/sets/mce-chess/bN.svg" x="264" y="24" width="30" height="30" pointer-events="none"/><image href="../pieces/sets/mce-chess/bR.svg" x="294" y="24" width="30" height="30" pointer-events="none"/><image href="../pieces/sets/mce-chess/bP.svg" x="24" y="54" width="30" height="30" pointer-events="none"/><image href="../pieces/sets/mce-chess/bP.svg" x="54" y="54" width="30" height="30" pointer-events="none"/><image href="../pieces/sets/mce-chess/bP.svg" x="84" y="54" width="30" height="30" pointer-events="none"/><image href="../pieces/sets/mce-chess/bP.svg" x="114" y="54" width="30" height="30" pointer-events="none"/><image href="../pieces/sets/mce-chess/bP.svg" x="144" y="54" width="30" height="30" pointer-events="none"/><image href="../pieces/sets/mce-chess/bP.svg" x="174" y="54" width="30" height="30" pointer-events="none"/><image href="../pieces/sets/mce-chess/bP.svg" x="204" y="54" width="30" height="30" pointer-events="none"/><image href="../pieces/sets/mce-chess/bP.svg" x="234" y="54" width="30" height="30" pointer-events="none"/><image href="../pieces/sets/mce-chess/bP.svg" x="264" y="54" width="30" height="30" pointer-events="none"/><image href="../pieces/sets/mce-chess/bP.svg" x="294" y="54" width="30" height="30" pointer-events="none"/><image href="../pieces/sets/mce-chess/wP.svg" x="24" y="264" width="30" height="30" pointer-events="none"/><image href="../pieces/sets/mce-chess/wP.svg" x="54" y="264" width="30" height="30" pointer-events="none"/><image href="../pieces/sets/mce-chess/wP.svg" x="84" y="264" width="30" height="30" pointer-events="none"/><image href="../pieces/sets/mce-chess/wP.svg" x="114" y="264" width="30" height="30" pointer-events="none"/><image href="../pieces/sets/mce-chess/wP.svg" x="144" y="264" width="30" height="30" pointer-events="none"/><image href="../pieces/sets/mce-chess/wP.svg" x="174" y="264" width="30" height="30" pointer-events="none"/><image href="../pieces/sets/mce-chess/wP.svg" x="204" y="264" width="30" height="30" pointer-events="none"/><image href="../pieces/sets/mce-chess/wP.svg" x="234" y="264" width="30" height="30" pointer-events="none"/><image href="../pieces/sets/mce-chess/wP.svg" x="264" y="264" width="30" height="30" pointer-events="none"/><image href="../pieces/sets/mce-chess/wP.svg" x="294" y="264" width="30" height="30" pointer-events="none"/><image href="../pieces/sets/mce-chess/wR.svg" x="24" y="294" width="30" height="30" pointer-events="none"/><image href="../pieces/sets/mce-chess/wN.svg" x="54" y="294" width="30" height="30" pointer-events="none"/><image href="../pieces/sets/mce-chess/wB.svg" x="84" y="294" width="30" height="30" pointer-events="none"/><image href="../pieces/sets/mce-chess/wP.svg" x="114" y="294" width="30" height="30" pointer-events="none"/><image href="../pieces/sets/mce-chess/wQ.svg" x="144" y="294" width="30" height="30" pointer-events="none"/><image href="../pieces/sets/mce-chess/wK.svg" x="174" y="294" width="30" height="30" pointer-events="none"/><image href="../pieces/sets/mce-chess/wP.svg" x="204" y="294" width="30" height="30" pointer-events="none"/><image href="../pieces/sets/mce-chess/wB.svg" x="234" y="294" width="30" height="30" pointer-events="none"/><image href="../pieces/sets/mce-chess/wN.svg" x="264" y="294" width="30" height="30" pointer-events="none"/><image href="../pieces/sets/mce-chess/wR.svg" x="294" y="294" width="30" height="30" pointer-events="none"/></g>
<text x="39" y="339.6" text-anchor="middle" font-size="13" fill="#5c3a1e" font-family="monospace">a</text><text x="69" y="339.6" text-anchor="middle" font-size="13" fill="#5c3a1e" font-family="monospace">b</text><text x="99" y="339.6" text-anchor="middle" font-size="13" fill="#5c3a1e" font-family="monospace">c</text><text x="129" y="339.6" text-anchor="middle" font-size="13" fill="#5c3a1e" font-family="monospace">d</text><text x="159" y="339.6" text-anchor="middle" font-size="13" fill="#5c3a1e" font-family="monospace">e</text><text x="189" y="339.6" text-anchor="middle" font-size="13" fill="#5c3a1e" font-family="monospace">f</text><text x="219" y="339.6" text-anchor="middle" font-size="13" fill="#5c3a1e" font-family="monospace">g</text><text x="249" y="339.6" text-anchor="middle" font-size="13" fill="#5c3a1e" font-family="monospace">h</text><text x="279" y="339.6" text-anchor="middle" font-size="13" fill="#5c3a1e" font-family="monospace">i</text><text x="309" y="339.6" text-anchor="middle" font-size="13" fill="#5c3a1e" font-family="monospace">j</text><text x="12" y="43.55" text-anchor="middle" font-size="13" fill="#5c3a1e" font-family="monospace">10</text><text x="12" y="73.55" text-anchor="middle" font-size="13" fill="#5c3a1e" font-family="monospace">9</text><text x="12" y="103.55" text-anchor="middle" font-size="13" fill="#5c3a1e" font-family="monospace">8</text><text x="12" y="133.55" text-anchor="middle" font-size="13" fill="#5c3a1e" font-family="monospace">7</text><text x="12" y="163.55" text-anchor="middle" font-size="13" fill="#5c3a1e" font-family="monospace">6</text><text x="12" y="193.55" text-anchor="middle" font-size="13" fill="#5c3a1e" font-family="monospace">5</text><text x="12" y="223.55" text-anchor="middle" font-size="13" fill="#5c3a1e" font-family="monospace">4</text><text x="12" y="253.55" text-anchor="middle" font-size="13" fill="#5c3a1e" font-family="monospace">3</text><text x="12" y="283.55" text-anchor="middle" font-size="13" fill="#5c3a1e" font-family="monospace">2</text><text x="12" y="313.55" text-anchor="middle" font-size="13" fill="#5c3a1e" font-family="monospace">1</text>
</svg>