<svg xmlns="http://www.w3.org/2000/svg" viewBox="0 0 320 320" width="320" height="320">
<rect x="0" y="0" width="320" height="320" fill="#f5e6c8" rx="4"/><g fill="none" stroke="#4a3520" stroke-width="2.5" stroke-linecap="square"><rect x="20" y="20" width="280" height="280"/><rect x="70" y="70" width="180" height="180"/><rect x="120" y="120" width="80" height="80"/><line x1="160" y1="20" x2="160" y2="120"/><line x1="160" y1="200" x2="160" y2="300"/><line x1="20" y1="160" x2="120" y2="160"/><line x1="200" y1="160" x2="300" y2="160"/></g><g fill="#4a3520"><circle cx="20" cy="20" r="7"/><circle cx="20" cy="20" r="14" fill="transparent" class="board-cell" data-sq="n1" data-type="node"/><circle cx="300" cy="20" r="7"/><circle cx="300" cy="20" r="14" fill="transparent" class="board-cell" data-sq="n2" data-type="node"/><circle cx="300" cy="300" r="7"/><circle cx="300" cy="300" r="14" fill="transparent" class="board-cell" data-sq="n3" data-type="node"/><circle cx="20" cy="300" r="7"/><circle cx="20" cy="300" r="14" fill="transparent" class="board-cell" data-sq="n4" data-type="node"/><circle cx="160" cy="20" r="7"/><circle cx="160" cy="20" r="14" fill="transparent" class="board-cell" data-sq="n5" data-type="node"/><circle cx="300" cy="160" r="7"/><circle cx="300" cy="160" r="14" fill="transparent" class="board-cell" data-sq="n6" data-type="node"/><circle cx="160" cy="300" r="7"/><circle cx="160" cy="300" r="14" fill="transparent" class="board-cell" data-sq="n7" data-type="node"/><circle cx="20" cy="160" r="7"/><circle cx="20" cy="160" r="14" fill="transparent" class="board-cell" data-sq="n8" data-type="node"/><circle cx="70" cy="70" r="7"/><circle cx="70" cy="70" r="14" fill="transparent" class="board-cell" data-sq="n9" data-type="node"/><circle cx="250" cy="70" r="7"/><circle cx="250" cy="70" r="14" fill="transparent" class="board-cell" data-sq="n10" data-type="node"/><circle cx="250" cy="250" r="7"/><circle cx="250" cy="250" r="14" fill="transparent" class="board-cell" data-sq="n11" data-type="node"/><circle cx="70" cy="250" r="7"/><circle cx="70" cy="250" r="14" fill="transparent" class="board-cell" data-sq="n12" data-type="node"/><circle cx="160" cy="70" r="7"/><circle cx="160" cy="70" r="14" fill="transparent" class="board-cell" data-sq="n13" data-type="node"/><circle cx="250" cy="160" r="7"/><circle cx="250" cy="160" r="14" fill="transparent" class="board-cell" data-sq="n14" data-type="node"/><circle cx="160" cy="250" r="7"/><circle cx="160" cy="250" r="14" fill="transparent" class="board-cell" data-sq="n15" data-type="node"/><circle cx="70" cy="160" r="7"/><circle cx="70" cy="160" r="14" fill="transparent" class="board-cell" data-sq="n16" data-type="node"/><circle cx="120" cy="120" r="7"/><circle cx="120" cy="120" r="14" fill="transparent" class="board-cell" data-sq="n17" data-type="node"/><circle cx="200" cy="120" r="7"/><circle cx="200" cy="120" r="14" fill="transparent" class="board-cell" data-sq="n18" data-type="node"/><circle cx="200" cy="200" r="7"/><circle cx="200" cy="200" r="14" fill="transparent" class="board-cell" data-sq="n19" data-type="node"/><circle cx="120" cy="200" r="7"/><circle cx="120" cy="200" r="14" fill="transparent" class="board-cell" data-sq="n20" data-type="node"/><circle cx="160" cy="120" r="7"/><circle cx="160" cy="120" r="14" fill="transparent" class="board-cell" data-sq="n21" data-type="node"/><circle cx="200" cy="160" r="7"/><circle cx="200" cy="160" r="14" fill="transparent" class="board-cell" data-sq="n22" data-type="node"/><circle cx="160" cy="200" r="7"/><circle cx="160" cy="200" r="14" fill="transparent" class="board-cell" data-sq="n23" data-type="node"/><circle cx="120" cy="160" r="7"/><circle cx="120" cy="160" r="14" fill="transparent" class="board-cell" data-sq="n24" data-type="node"/></g>
</svg>