<svg xmlns="http://www.w3.org/2000/svg" viewBox="0 0 320 320" width="320" height="320">
<rect x="0" y="0" width="320" height="320" fill="#f5f0e8" rx="4"/><g fill="none" stroke="#8b7355" stroke-width="2.5" stroke-linecap="round"><line x1="294.4" y1="294.4" x2="240.64" y2="294.4"/><line x1="240.64" y1="294.4" x2="186.88" y2="294.4"/><line x1="186.88" y1="294.4" x2="133.12" y2="294.4"/><line x1="133.12" y1="294.4" x2="79.36000000000001" y2="294.4"/><line x1="79.36000000000001" y1="294.4" x2="25.6" y2="294.4"/><line x1="25.6" y1="294.4" x2="25.6" y2="240.64"/><line x1="25.6" y1="240.64" x2="25.6" y2="186.88"/><line x1="25.6" y1="186.88" x2="25.6" y2="133.12"/><line x1="25.6" y1="133.12" x2="25.6" y2="79.36000000000001"/><line x1="25.6" y1="79.36000000000001" x2="25.6" y2="25.6"/><line x1="25.6" y1="25.6" x2="79.35999999999999" y2="25.6"/><line x1="79.35999999999999" y1="25.6" x2="133.11999999999998" y2="25.6"/><line x1="133.11999999999998" y1="25.6" x2="186.87999999999997" y2="25.6"/><line x1="186.87999999999997" y1="25.6" x2="240.63999999999996" y2="25.6"/><line x1="240.63999999999996" y1="25.6" x2="294.4" y2="25.6"/><line x1="294.4" y1="25.6" x2="294.4" y2="79.35999999999999"/><line x1="294.4" y1="79.35999999999999" x2="294.4" y2="133.11999999999998"/><line x1="294.4" y1="133.11999999999998" x2="294.4" y2="186.87999999999997"/><line x1="294.4" y1="186.87999999999997" x2="294.4" y2="240.63999999999996"/><line x1="294.4" y1="240.63999999999996" x2="294.4" y2="294.4"/><line x1="25.6" y1="25.6" x2="70.4" y2="70.4"/><line x1="70.4" y1="70.4" x2="115.20000000000002" y2="115.20000000000002"/><line x1="115.20000000000002" y1="115.20000000000002" x2="160" y2="160"/><line x1="160" y1="160" x2="204.79999999999998" y2="204.79999999999998"/><line x1="204.79999999999998" y1="204.79999999999998" x2="249.59999999999997" y2="249.59999999999997"/><line x1="249.59999999999997" y1="249.59999999999997" x2="294.4" y2="294.4"/><line x1="294.4" y1="25.6" x2="249.6" y2="70.4"/><line x1="249.6" y1="70.4" x2="204.8" y2="115.20000000000002"/><line x1="204.8" y1="115.20000000000002" x2="160" y2="160"/><line x1="160" y1="160" x2="115.19999999999999" y2="204.79999999999998"/><line x1="115.19999999999999" y1="204.79999999999998" x2="70.39999999999999" y2="249.59999999999997"/><line x1="70.39999999999999" y1="249.59999999999997" x2="25.6" y2="294.4"/></g><g><circle cx="294.4" cy="294.4" r="8.4" fill="#c0622f"/><circle cx="294.4" cy="294.4" r="16.8" fill="transparent" class="board-cell" data-sq="n1" data-type="node"/><circle cx="240.64" cy="294.4" r="7" fill="#8b7355"/><circle cx="240.64" cy="294.4" r="14" fill="transparent" class="board-cell" data-sq="n2" data-type="node"/><circle cx="186.88" cy="294.4" r="7" fill="#8b7355"/><circle cx="186.88" cy="294.4" r="14" fill="transparent" class="board-cell" data-sq="n3" data-type="node"/><circle cx="133.12" cy="294.4" r="7" fill="#8b7355"/><circle cx="133.12" cy="294.4" r="14" fill="transparent" class="board-cell" data-sq="n4" data-type="node"/><circle cx="79.36000000000001" cy="294.4" r="7" fill="#8b7355"/><circle cx="79.36000000000001" cy="294.4" r="14" fill="transparent" class="board-cell" data-sq="n5" data-type="node"/><circle cx="25.6" cy="294.4" r="8.4" fill="#c0622f"/><circle cx="25.6" cy="294.4" r="16.8" fill="transparent" class="board-cell" data-sq="n6" data-type="node"/><circle cx="25.6" cy="240.64" r="7" fill="#8b7355"/><circle cx="25.6" cy="240.64" r="14" fill="transparent" class="board-cell" data-sq="n7" data-type="node"/><circle cx="25.6" cy="186.88" r="7" fill="#8b7355"/><circle cx="25.6" cy="186.88" r="14" fill="transparent" class="board-cell" data-sq="n8" data-type="node"/><circle cx="25.6" cy="133.12" r="7" fill="#8b7355"/><circle cx="25.6" cy="133.12" r="14" fill="transparent" class="board-cell" data-sq="n9" data-type="node"/><circle cx="25.6" cy="79.36000000000001" r="7" fill="#8b7355"/><circle cx="25.6" cy="79.36000000000001" r="14" fill="transparent" class="board-cell" data-sq="n10" data-type="node"/><circle cx="25.6" cy="25.6" r="8.4" fill="#c0622f"/><circle cx="25.6" cy="25.6" r="16.8" fill="transparent" class="board-cell" data-sq="n11" data-type="node"/><circle cx="79.35999999999999" cy="25.6" r="7" fill="#8b7355"/><circle cx="79.35999999999999" cy="25.6" r="14" fill="transparent" class="board-cell" data-sq="n12" data-type="node"/><circle cx="133.11999999999998" cy="25.6" r="7" fill="#8b7355"/><circle cx="133.11999999999998" cy="25.6" r="14" fill="transparent" class="board-cell" data-sq="n13" data-type="node"/><circle cx="186.87999999999997" cy="25.6" r="7" fill="#8b7355"/><circle cx="186.87999999999997" cy="25.6" r="14" fill="transparent" class="board-cell" data-sq="n14" data-type="node"/><circle cx="240.63999999999996" cy="25.6" r="7" fill="#8b7355"/><circle cx="240.63999999999996" cy="25.6" r="14" fill="transparent" class="board-cell" data-sq="n15" data-type="node"/><circle cx="294.4" cy="25.6" r="8.4" fill="#c0622f"/><circle cx="294.4" cy="25.6" r="16.8" fill="transparent" class="board-cell" data-sq="n16" data-type="node"/><circle cx="294.4" cy="79.35999999999999" r="7" fill="#8b7355"/><circle cx="294.4" cy="79.35999999999999" r="14" fill="transparent" class="board-cell" data-sq="n17" data-type="node"/><circle cx="294.4" cy="133.11999999999998" r="7" fill="#8b7355"/><circle cx="294.4" cy="133.11999999999998" r="14" fill="transparent" class="board-cell" data-sq="n18" data-type="node"/><circle cx="294.4" cy="186.87999999999997" r="7" fill="#8b7355"/><circle cx="294.4" cy="186.87999999999997" r="14" fill="transparent" class="board-cell" data-sq="n19" data-type="node"/><circle cx="294.4" cy="240.63999999999996" r="7" fill="#8b7355"/><circle cx="294.4" cy="240.63999999999996" r="14" fill="transparent" class="board-cell" data-sq="n20" data-type="node"/><circle cx="160" cy="160" r="9.799999999999999" fill="#8b1a1a"/><circle cx="160" cy="160" r="19.599999999999998" fill="transparent" class="board-cell" data-sq="n21" data-type="node"/><circle cx="70.4" cy="70.4" r="7" fill="#8b7355"/><circle cx="70.4" cy="70.4" r="14" fill="transparent" class="board-cell" data-sq="n22" data-type="node"/><circle cx="115.20000000000002" cy="115.20000000000002" r="7" fill="#8b7355"/><circle cx="115.20000000000002" cy="115.20000000000002" r="14" fill="transparent" class="board-cell" data-sq="n23" data-type="node"/><circle cx="204.79999999999998" cy="204.79999999999998" r="7" fill="#8b7355"/><circle cx="204.79999999999998" cy="204.79999999999998" r="14" fill="transparent" class="board-cell" data-sq="n24" data-type="node"/><circle cx="249.59999999999997" cy="249.59999999999997" r="7" fill="#8b7355"/><circle cx="249.59999999999997" cy="249.59999999999997" r="14" fill="transparent" class="board-cell" data-sq="n25" data-type="node"/><circle cx="249.6" cy="70.4" r="7" fill="#8b7355"/><circle cx="249.6" cy="70.4" r="14" fill="transparent" class="board-cell" data-sq="n26" data-type="node"/><circle cx="204.8" cy="115.20000000000002" r="7" fill="#8b7355"/><circle cx="204.8" cy="115.20000000000002" r="14" fill="transparent" class="board-cell" data-sq="n27" data-type="node"/><circle cx="115.19999999999999" cy="204.79999999999998" r="7" fill="#8b7355"/><circle cx="115.19999999999999" cy="204.79999999999998" r="14" fill="transparent" class="board-cell" data-sq="n28" data-type="node"/><circle cx="70.39999999999999" cy="249.59999999999997" r="7" fill="#8b7355"/><circle cx="70.39999999999999" cy="249.59999999999997" r="14" fill="transparent" class="board-cell" data-sq="n29" data-type="node"/></g>
</svg>