<svg xmlns="http://www.w3.org/2000/svg" viewBox="0 0 288 288" width="288" height="288">

<rect x="24" y="24" width="240" height="240" fill="#2e7d32"/><line x1="24" y1="24" x2="24" y2="264" stroke="#1b5e20" stroke-width="1.5"/><line x1="64" y1="24" x2="64" y2="264" stroke="#1b5e20" stroke-width="1.5"/><line x1="104" y1="24" x2="104" y2="264" stroke="#1b5e20" stroke-width="1.5"/><line x1="144" y1="24" x2="144" y2="264" stroke="#1b5e20" stroke-width="1.5"/><line x1="184" y1="24" x2="184" y2="264" stroke="#1b5e20" stroke-width="1.5"/><line x1="224" y1="24" x2="224" y2="264" stroke="#1b5e20" stroke-width="1.5"/><line x1="264" y1="24" x2="264" y2="264" stroke="#1b5e20" stroke-width="1.5"/><line x1="24" y1="24" x2="264" y2="24" stroke="#1b5e20" stroke-width="1.5"/><line x1="24" y1="64" x2="264" y2="64" stroke="#1b5e20" stroke-width="1.5"/><line x1="24" y1="104" x2="264" y2="104" stroke="#1b5e20" stroke-width="1.5"/><line x1="24" y1="144" x2="264" y2="144" stroke="#1b5e20" stroke-width="1.5"/><line x1="24" y1="184" x2="264" y2="184" stroke="#1b5e20" stroke-width="1.5"/><line x1="24" y1="224" x2="264" y2="224" stroke="#1b5e20" stroke-width="1.5"/><line x1="24" y1="264" x2="264" y2="264" stroke="#1b5e20" stroke-width="1.5"/><rect x="24" y="24" width="40" height="40" fill="transparent" data-sq="a6" class="board-cell"/><rect x="64" y="24" width="40" height="40" fill="transparent" data-sq="b6" class="board-cell"/><rect x="104" y="24" width="40" height="40" fill="transparent" data-sq="c6" class="board-cell"/><rect x="144" y="24" width="40" height="40" fill="transparent" data-sq="d6" class="board-cell"/><rect x="184" y="24" width="40" height="40" fill="transparent" data-sq="e6" class="board-cell"/><rect x="224" y="24" width="40" height="40" fill="transparent" data-sq="f6" class="board-cell"/><rect x="24" y="64" width="40" height="40" fill="transparent" data-sq="a5" class="board-cell"/><rect x="64" y="64" width="40" height="40" fill="transparent" data-sq="b5" class="board-cell"/><rect x="104" y="64" width="40" height="40" fill="transparent" data-sq="c5" class="board-cell"/><rect x="144" y="64" width="40" height="40" fill="transparent" data-sq="d5" class="board-cell"/><rect x="184" y="64" width="40" height="40" fill="transparent" data-sq="e5" class="board-cell"/><rect x="224" y="64" width="40" height="40" fill="transparent" data-sq="f5" class="board-cell"/><rect x="24" y="104" width="40" height="40" fill="transparent" data-sq="a4" class="board-cell"/><rect x="64" y="104" width="40" height="40" fill="transparent" data-sq="b4" class="board-cell"/><rect x="104" y="104" width="40" height="40" fill="transparent" data-sq="c4" class="board-cell"/><rect x="144" y="104" width="40" height="40" fill="transparent" data-sq="d4" class="board-cell"/><rect x="184" y="104" width="40" height="40" fill="transparent" data-sq="e4" class="board-cell"/><rect x="224" y="104" width="40" height="40" fill="transparent" data-sq="f4" class="board-cell"/><rect x="24" y="144" width="40" height="40" fill="transparent" data-sq="a3" class="board-cell"/><rect x="64" y="144" width="40" height="40" fill="transparent" data-sq="b3" class="board-cell"/><rect x="104" y="144" width="40" height="40" fill="transparent" data-sq="c3" class="board-cell"/><rect x="144" y="144" width="40" height="40" fill="transparent" data-sq="d3" class="board-cell"/><rect x="184" y="144" width="40" height="40" fill="transparent" data-sq="e3" class="board-cell"/><rect x="224" y="144" width="40" height="40" fill="transparent" data-sq="f3" class="board-cell"/><rect x="24" y="184" width="40" height="40" fill="transparent" data-sq="a2" class="board-cell"/><rect x="64" y="184" width="40" height="40" fill="transparent" data-sq="b2" class="board-cell"/><rect x="104" y="184" width="40" height="40" fill="transparent" data-sq="c2" class="board-cell"/><rect x="144" y="184" width="40" height="40" fill="transparent" data-sq="d2" class="board-cell"/><rect x="184" y="184" width="40" height="40" fill="transparent" data-sq="e2" class="board-cell"/><rect x="224" y="184" width="40" height="40" fill="transparent" data-sq="f2" class="board-cell"/><rect x="24" y="224" width="40" height="40" fill="transparent" data-sq="a1" class="board-cell"/><rect x="64" y="224" width="40" height="40" fill="transparent" data-sq="b1" class="board-cell"/><rect x="104" y="224" width="40" height="40" fill="transparent" data-sq="c1" class="board-cell"/><rect x="144" y="224" width="40" height="40" fill="transparent" data-sq="d1" class="board-cell"/><rect x="184" y="224" width="40" height="40" fill="transparent" data-sq="e1" class="board-cell"/><rect x="224" y="224" width="40" height="40" fill="transparent" data-sq="f1" class="board-cell"/>
<g pointer-events="none"><image href="../pieces/sets/playstrategy-flipello-classic/bP.svg" x="104" y="104" width="40" height="40" pointer-events="none"/><image href="../pieces/sets/playstrategy-flipello-classic/wP.svg" x="144" y="104" width="40" height="40" pointer-events="none"/><image href="../pieces/sets/playstrategy-flipello-classic/wP.svg" x="104" y="144" width="40" height="40" pointer-events="none"/><image href="../pieces/sets/playstrategy-flipello-classic/bP.svg" x="144" y="144" width="40" height="40" pointer-events="none"/></g>
<text x="44" y="279.6" text-anchor="middle" font-size="13" fill="#5c3a1e" font-family="monospace">a</text><text x="84" y="279.6" text-anchor="middle" font-size="13" fill="#5c3a1e" font-family="monospace">b</text><text x="124" y="279.6" text-anchor="middle" font-size="13" fill="#5c3a1e" font-family="monospace">c</text><text x="164" y="279.6" text-anchor="middle" font-size="13" fill="#5c3a1e" font-family="monospace">d</text><text x="204" y="279.6" text-anchor="middle" font-size="13" fill="#5c3a1e" font-family="monospace">e</text><text x="244" y="279.6" text-anchor="middle" font-size="13" fill="#5c3a1e" font-family="monospace">f</text><text x="12" y="48.55" text-anchor="middle" font-size="13" fill="#5c3a1e" font-family="monospace">6</text><text x="12" y="88.55" text-anchor="middle" font-size="13" fill="#5c3a1e" font-family="monospace">5</text><text x="12" y="128.55" text-anchor="middle" font-size="13" fill="#5c3a1e" font-family="monospace">4</text><text x="12" y="168.55" text-anchor="middle" font-size="13" fill="#5c3a1e" font-family="monospace">3</text><text x="12" y="208.55" text-anchor="middle" font-size="13" fill="#5c3a1e" font-family="monospace">2</text><text x="12" y="248.55" text-anchor="middle" font-size="13" fill="#5c3a1e" font-family="monospace">1</text>
</svg>