<svg xmlns="http://www.w3.org/2000/svg" viewBox="0 0 320 120" width="320" height="120">
<rect x="0" y="0" width="320" height="120" fill="transparent"/><rect x="0" y="0" width="40" height="40" fill="#c4956a" stroke="#8b5a3a" stroke-width="2" data-sq="a3" data-type="rosette" class="board-cell"/><circle cx="20" cy="20" r="4.2" fill="#8b3a3a"/><circle cx="20" cy="10" r="2.5" fill="#8b3a3a"/><circle cx="20" cy="30" r="2.5" fill="#8b3a3a"/><circle cx="10" cy="20" r="2.5" fill="#8b3a3a"/><circle cx="30" cy="20" r="2.5" fill="#8b3a3a"/><circle cx="13" cy="13" r="1.7000000000000002" fill="#a04848"/><circle cx="27" cy="13" r="1.7000000000000002" fill="#a04848"/><circle cx="13" cy="27" r="1.7000000000000002" fill="#a04848"/><circle cx="27" cy="27" r="1.7000000000000002" fill="#a04848"/><rect x="40" y="0" width="40" height="40" fill="#d4b896" stroke="#8b7355" stroke-width="2" data-sq="b3" data-type="floor" class="board-cell"/><rect x="80" y="0" width="40" height="40" fill="#d4b896" stroke="#8b7355" stroke-width="2" data-sq="c3" data-type="floor" class="board-cell"/><rect x="120" y="0" width="40" height="40" fill="#d4b896" stroke="#8b7355" stroke-width="2" data-sq="d3" data-type="floor" class="board-cell"/><rect x="240" y="0" width="40" height="40" fill="#c4956a" stroke="#8b5a3a" stroke-width="2" data-sq="g3" data-type="rosette" class="board-cell"/><circle cx="260" cy="20" r="4.2" fill="#8b3a3a"/><circle cx="260" cy="10" r="2.5" fill="#8b3a3a"/><circle cx="260" cy="30" r="2.5" fill="#8b3a3a"/><circle cx="250" cy="20" r="2.5" fill="#8b3a3a"/><circle cx="270" cy="20" r="2.5" fill="#8b3a3a"/><circle cx="253" cy="13" r="1.7000000000000002" fill="#a04848"/><circle cx="267" cy="13" r="1.7000000000000002" fill="#a04848"/><circle cx="253" cy="27" r="1.7000000000000002" fill="#a04848"/><circle cx="267" cy="27" r="1.7000000000000002" fill="#a04848"/><rect x="280" y="0" width="40" height="40" fill="#d4b896" stroke="#8b7355" stroke-width="2" data-sq="h3" data-type="floor" class="board-cell"/><rect x="0" y="40" width="40" height="40" fill="#d4b896" stroke="#8b7355" stroke-width="2" data-sq="a2" data-type="floor" class="board-cell"/><rect x="40" y="40" width="40" height="40" fill="#d4b896" stroke="#8b7355" stroke-width="2" data-sq="b2" data-type="floor" class="board-cell"/><rect x="80" y="40" width="40" height="40" fill="#d4b896" stroke="#8b7355" stroke-width="2" data-sq="c2" data-type="floor" class="board-cell"/><rect x="120" y="40" width="40" height="40" fill="#c4956a" stroke="#8b5a3a" stroke-width="2" data-sq="d2" data-type="rosette" class="board-cell"/><circle cx="140" cy="60" r="4.2" fill="#8b3a3a"/><circle cx="140" cy="50" r="2.5" fill="#8b3a3a"/><circle cx="140" cy="70" r="2.5" fill="#8b3a3a"/><circle cx="130" cy="60" r="2.5" fill="#8b3a3a"/><circle cx="150" cy="60" r="2.5" fill="#8b3a3a"/><circle cx="133" cy="53" r="1.7000000000000002" fill="#a04848"/><circle cx="147" cy="53" r="1.7000000000000002" fill="#a04848"/><circle cx="133" cy="67" r="1.7000000000000002" fill="#a04848"/><circle cx="147" cy="67" r="1.7000000000000002" fill="#a04848"/><rect x="160" y="40" width="40" height="40" fill="#d4b896" stroke="#8b7355" stroke-width="2" data-sq="e2" data-type="floor" class="board-cell"/><rect x="200" y="40" width="40" height="40" fill="#d4b896" stroke="#8b7355" stroke-width="2" data-sq="f2" data-type="floor" class="board-cell"/><rect x="240" y="40" width="40" height="40" fill="#d4b896" stroke="#8b7355" stroke-width="2" data-sq="g2" data-type="floor" class="board-cell"/><rect x="280" y="40" width="40" height="40" fill="#d4b896" stroke="#8b7355" stroke-width="2" data-sq="h2" data-type="floor" class="board-cell"/><rect x="0" y="80" width="40" height="40" fill="#c4956a" stroke="#8b5a3a" stroke-width="2" data-sq="a1" data-type="rosette" class="board-cell"/><circle cx="20" cy="100" r="4.2" fill="#8b3a3a"/><circle cx="20" cy="90" r="2.5" fill="#8b3a3a"/><circle cx="20" cy="110" r="2.5" fill="#8b3a3a"/><circle cx="10" cy="100" r="2.5" fill="#8b3a3a"/><circle cx="30" cy="100" r="2.5" fill="#8b3a3a"/><circle cx="13" cy="93" r="1.7000000000000002" fill="#a04848"/><circle cx="27" cy="93" r="1.7000000000000002" fill="#a04848"/><circle cx="13" cy="107" r="1.7000000000000002" fill="#a04848"/><circle cx="27" cy="107" r="1.7000000000000002" fill="#a04848"/><rect x="40" y="80" width="40" height="40" fill="#d4b896" stroke="#8b7355" stroke-width="2" data-sq="b1" data-type="floor" class="board-cell"/><rect x="80" y="80" width="40" height="40" fill="#d4b896" stroke="#8b7355" stroke-width="2" data-sq="c1" data-type="floor" class="board-cell"/><rect x="120" y="80" width="40" height="40" fill="#d4b896" stroke="#8b7355" stroke-width="2" data-sq="d1" data-type="floor" class="board-cell"/><rect x="240" y="80" width="40" height="40" fill="#c4956a" stroke="#8b5a3a" stroke-width="2" data-sq="g1" data-type="rosette" class="board-cell"/><circle cx="260" cy="100" r="4.2" fill="#8b3a3a"/><circle cx="260" cy="90" r="2.5" fill="#8b3a3a"/><circle cx="260" cy="110" r="2.5" fill="#8b3a3a"/><circle cx="250" cy="100" r="2.5" fill="#8b3a3a"/><circle cx="270" cy="100" r="2.5" fill="#8b3a3a"/><circle cx="253" cy="93" r="1.7000000000000002" fill="#a04848"/><circle cx="267" cy="93" r="1.7000000000000002" fill="#a04848"/><circle cx="253" cy="107" r="1.7000000000000002" fill="#a04848"/><circle cx="267" cy="107" r="1.7000000000000002" fill="#a04848"/><rect x="280" y="80" width="40" height="40" fill="#d4b896" stroke="#8b7355" stroke-width="2" data-sq="h1" data-type="floor" class="board-cell"/>
</svg>