<svg xmlns="http://www.w3.org/2000/svg" viewBox="0 0 336 336" width="336" height="336">

<rect x="0" y="0" width="28" height="28" fill="#e8c97a" data-sq="a12" class="board-cell"/><rect x="28" y="0" width="28" height="28" fill="#e8c97a" data-sq="b12" class="board-cell"/><rect x="56" y="0" width="28" height="28" fill="#e8c97a" data-sq="c12" class="board-cell"/><rect x="84" y="0" width="28" height="28" fill="#e8c97a" data-sq="d12" class="board-cell"/><rect x="112" y="0" width="28" height="28" fill="#e8c97a" data-sq="e12" class="board-cell"/><rect x="140" y="0" width="28" height="28" fill="#e8c97a" data-sq="f12" class="board-cell"/><rect x="168" y="0" width="28" height="28" fill="#e8c97a" data-sq="g12" class="board-cell"/><rect x="196" y="0" width="28" height="28" fill="#e8c97a" data-sq="h12" class="board-cell"/><rect x="224" y="0" width="28" height="28" fill="#e8c97a" data-sq="i12" class="board-cell"/><rect x="252" y="0" width="28" height="28" fill="#e8c97a" data-sq="j12" class="board-cell"/><rect x="280" y="0" width="28" height="28" fill="#e8c97a" data-sq="k12" class="board-cell"/><rect x="308" y="0" width="28" height="28" fill="#e8c97a" data-sq="l12" class="board-cell"/><rect x="0" y="28" width="28" height="28" fill="#e8c97a" data-sq="a11" class="board-cell"/><rect x="28" y="28" width="28" height="28" fill="#e8c97a" data-sq="b11" class="board-cell"/><rect x="56" y="28" width="28" height="28" fill="#e8c97a" data-sq="c11" class="board-cell"/><rect x="84" y="28" width="28" height="28" fill="#e8c97a" data-sq="d11" class="board-cell"/><rect x="112" y="28" width="28" height="28" fill="#e8c97a" data-sq="e11" class="board-cell"/><rect x="140" y="28" width="28" height="28" fill="#e8c97a" data-sq="f11" class="board-cell"/><rect x="168" y="28" width="28" height="28" fill="#e8c97a" data-sq="g11" class="board-cell"/><rect x="196" y="28" width="28" height="28" fill="#e8c97a" data-sq="h11" class="board-cell"/><rect x="224" y="28" width="28" height="28" fill="#e8c97a" data-sq="i11" class="board-cell"/><rect x="252" y="28" width="28" height="28" fill="#e8c97a" data-sq="j11" class="board-cell"/><rect x="280" y="28" width="28" height="28" fill="#e8c97a" data-sq="k11" class="board-cell"/><rect x="308" y="28" width="28" height="28" fill="#e8c97a" data-sq="l11" class="board-cell"/><rect x="0" y="56" width="28" height="28" fill="#e8c97a" data-sq="a10" class="board-cell"/><rect x="28" y="56" width="28" height="28" fill="#e8c97a" data-sq="b10" class="board-cell"/><rect x="56" y="56" width="28" height="28" fill="#e8c97a" data-sq="c10" class="board-cell"/><rect x="84" y="56" width="28" height="28" fill="#e8c97a" data-sq="d10" class="board-cell"/><rect x="112" y="56" width="28" height="28" fill="#e8c97a" data-sq="e10" class="board-cell"/><rect x="140" y="56" width="28" height="28" fill="#e8c97a" data-sq="f10" class="board-cell"/><rect x="168" y="56" width="28" height="28" fill="#e8c97a" data-sq="g10" class="board-cell"/><rect x="196" y="56" width="28" height="28" fill="#e8c97a" data-sq="h10" class="board-cell"/><rect x="224" y="56" width="28" height="28" fill="#e8c97a" data-sq="i10" class="board-cell"/><rect x="252" y="56" width="28" height="28" fill="#e8c97a" data-sq="j10" class="board-cell"/><rect x="280" y="56" width="28" height="28" fill="#e8c97a" data-sq="k10" class="board-cell"/><rect x="308" y="56" width="28" height="28" fill="#e8c97a" data-sq="l10" class="board-cell"/><rect x="0" y="84" width="28" height="28" fill="#e8c97a" data-sq="a9" class="board-cell"/><rect x="28" y="84" width="28" height="28" fill="#e8c97a" data-sq="b9" class="board-cell"/><rect x="56" y="84" width="28" height="28" fill="#e8c97a" data-sq="c9" class="board-cell"/><rect x="84" y="84" width="28" height="28" fill="#e8c97a" data-sq="d9" class="board-cell"/><rect x="112" y="84" width="28" height="28" fill="#e8c97a" data-sq="e9" class="board-cell"/><rect x="140" y="84" width="28" height="28" fill="#e8c97a" data-sq="f9" class="board-cell"/><rect x="168" y="84" width="28" height="28" fill="#e8c97a" data-sq="g9" class="board-cell"/><rect x="196" y="84" width="28" height="28" fill="#e8c97a" data-sq="h9" class="board-cell"/><rect x="224" y="84" width="28" height="28" fill="#e8c97a" data-sq="i9" class="board-cell"/><rect x="252" y="84" width="28" height="28" fill="#e8c97a" data-sq="j9" class="board-cell"/><rect x="280" y="84" width="28" height="28" fill="#e8c97a" data-sq="k9" class="board-cell"/><rect x="308" y="84" width="28" height="28" fill="#e8c97a" data-sq="l9" class="board-cell"/><rect x="0" y="112" width="28" height="28" fill="#e8c97a" data-sq="a8" class="board-cell"/><rect x="28" y="112" width="28" height="28" fill="#e8c97a" data-sq="b8" class="board-cell"/><rect x="56" y="112" width="28" height="28" fill="#e8c97a" data-sq="c8" class="board-cell"/><rect x="84" y="112" width="28" height="28" fill="#e8c97a" data-sq="d8" class="board-cell"/><rect x="112" y="112" width="28" height="28" fill="#e8c97a" data-sq="e8" class="board-cell"/><rect x="140" y="112" width="28" height="28" fill="#e8c97a" data-sq="f8" class="board-cell"/><rect x="168" y="112" width="28" height="28" fill="#e8c97a" data-sq="g8" class="board-cell"/><rect x="196" y="112" width="28" height="28" fill="#e8c97a" data-sq="h8" class="board-cell"/><rect x="224" y="112" width="28" height="28" fill="#e8c97a" data-sq="i8" class="board-cell"/><rect x="252" y="112" width="28" height="28" fill="#e8c97a" data-sq="j8" class="board-cell"/><rect x="280" y="112" width="28" height="28" fill="#e8c97a" data-sq="k8" class="board-cell"/><rect x="308" y="112" width="28" height="28" fill="#e8c97a" data-sq="l8" class="board-cell"/><rect x="0" y="140" width="28" height="28" fill="#e8c97a" data-sq="a7" class="board-cell"/><rect x="28" y="140" width="28" height="28" fill="#e8c97a" data-sq="b7" class="board-cell"/><rect x="56" y="140" width="28" height="28" fill="#e8c97a" data-sq="c7" class="board-cell"/><rect x="84" y="140" width="28" height="28" fill="#e8c97a" data-sq="d7" class="board-cell"/><rect x="112" y="140" width="28" height="28" fill="#e8c97a" data-sq="e7" class="board-cell"/><rect x="140" y="140" width="28" height="28" fill="#e8c97a" data-sq="f7" class="board-cell"/><rect x="168" y="140" width="28" height="28" fill="#e8c97a" data-sq="g7" class="board-cell"/><rect x="196" y="140" width="28" height="28" fill="#e8c97a" data-sq="h7" class="board-cell"/><rect x="224" y="140" width="28" height="28" fill="#e8c97a" data-sq="i7" class="board-cell"/><rect x="252" y="140" width="28" height="28" fill="#e8c97a" data-sq="j7" class="board-cell"/><rect x="280" y="140" width="28" height="28" fill="#e8c97a" data-sq="k7" class="board-cell"/><rect x="308" y="140" width="28" height="28" fill="#e8c97a" data-sq="l7" class="board-cell"/><rect x="0" y="168" width="28" height="28" fill="#e8c97a" data-sq="a6" class="board-cell"/><rect x="28" y="168" width="28" height="28" fill="#e8c97a" data-sq="b6" class="board-cell"/><rect x="56" y="168" width="28" height="28" fill="#e8c97a" data-sq="c6" class="board-cell"/><rect x="84" y="168" width="28" height="28" fill="#e8c97a" data-sq="d6" class="board-cell"/><rect x="112" y="168" width="28" height="28" fill="#e8c97a" data-sq="e6" class="board-cell"/><rect x="140" y="168" width="28" height="28" fill="#e8c97a" data-sq="f6" class="board-cell"/><rect x="168" y="168" width="28" height="28" fill="#e8c97a" data-sq="g6" class="board-cell"/><rect x="196" y="168" width="28" height="28" fill="#e8c97a" data-sq="h6" class="board-cell"/><rect x="224" y="168" width="28" height="28" fill="#e8c97a" data-sq="i6" class="board-cell"/><rect x="252" y="168" width="28" height="28" fill="#e8c97a" data-sq="j6" class="board-cell"/><rect x="280" y="168" width="28" height="28" fill="#e8c97a" data-sq="k6" class="board-cell"/><rect x="308" y="168" width="28" height="28" fill="#e8c97a" data-sq="l6" class="board-cell"/><rect x="0" y="196" width="28" height="28" fill="#e8c97a" data-sq="a5" class="board-cell"/><rect x="28" y="196" width="28" height="28" fill="#e8c97a" data-sq="b5" class="board-cell"/><rect x="56" y="196" width="28" height="28" fill="#e8c97a" data-sq="c5" class="board-cell"/><rect x="84" y="196" width="28" height="28" fill="#e8c97a" data-sq="d5" class="board-cell"/><rect x="112" y="196" width="28" height="28" fill="#e8c97a" data-sq="e5" class="board-cell"/><rect x="140" y="196" width="28" height="28" fill="#e8c97a" data-sq="f5" class="board-cell"/><rect x="168" y="196" width="28" height="28" fill="#e8c97a" data-sq="g5" class="board-cell"/><rect x="196" y="196" width="28" height="28" fill="#e8c97a" data-sq="h5" class="board-cell"/><rect x="224" y="196" width="28" height="28" fill="#e8c97a" data-sq="i5" class="board-cell"/><rect x="252" y="196" width="28" height="28" fill="#e8c97a" data-sq="j5" class="board-cell"/><rect x="280" y="196" width="28" height="28" fill="#e8c97a" data-sq="k5" class="board-cell"/><rect x="308" y="196" width="28" height="28" fill="#e8c97a" data-sq="l5" class="board-cell"/><rect x="0" y="224" width="28" height="28" fill="#e8c97a" data-sq="a4" class="board-cell"/><rect x="28" y="224" width="28" height="28" fill="#e8c97a" data-sq="b4" class="board-cell"/><rect x="56" y="224" width="28" height="28" fill="#e8c97a" data-sq="c4" class="board-cell"/><rect x="84" y="224" width="28" height="28" fill="#e8c97a" data-sq="d4" class="board-cell"/><rect x="112" y="224" width="28" height="28" fill="#e8c97a" data-sq="e4" class="board-cell"/><rect x="140" y="224" width="28" height="28" fill="#e8c97a" data-sq="f4" class="board-cell"/><rect x="168" y="224" width="28" height="28" fill="#e8c97a" data-sq="g4" class="board-cell"/><rect x="196" y="224" width="28" height="28" fill="#e8c97a" data-sq="h4" class="board-cell"/><rect x="224" y="224" width="28" height="28" fill="#e8c97a" data-sq="i4" class="board-cell"/><rect x="252" y="224" width="28" height="28" fill="#e8c97a" data-sq="j4" class="board-cell"/><rect x="280" y="224" width="28" height="28" fill="#e8c97a" data-sq="k4" class="board-cell"/><rect x="308" y="224" width="28" height="28" fill="#e8c97a" data-sq="l4" class="board-cell"/><rect x="0" y="252" width="28" height="28" fill="#e8c97a" data-sq="a3" class="board-cell"/><rect x="28" y="252" width="28" height="28" fill="#e8c97a" data-sq="b3" class="board-cell"/><rect x="56" y="252" width="28" height="28" fill="#e8c97a" data-sq="c3" class="board-cell"/><rect x="84" y="252" width="28" height="28" fill="#e8c97a" data-sq="d3" class="board-cell"/><rect x="112" y="252" width="28" height="28" fill="#e8c97a" data-sq="e3" class="board-cell"/><rect x="140" y="252" width="28" height="28" fill="#e8c97a" data-sq="f3" class="board-cell"/><rect x="168" y="252" width="28" height="28" fill="#e8c97a" data-sq="g3" class="board-cell"/><rect x="196" y="252" width="28" height="28" fill="#e8c97a" data-sq="h3" class="board-cell"/><rect x="224" y="252" width="28" height="28" fill="#e8c97a" data-sq="i3" class="board-cell"/><rect x="252" y="252" width="28" height="28" fill="#e8c97a" data-sq="j3" class="board-cell"/><rect x="280" y="252" width="28" height="28" fill="#e8c97a" data-sq="k3" class="board-cell"/><rect x="308" y="252" width="28" height="28" fill="#e8c97a" data-sq="l3" class="board-cell"/><rect x="0" y="280" width="28" height="28" fill="#e8c97a" data-sq="a2" class="board-cell"/><rect x="28" y="280" width="28" height="28" fill="#e8c97a" data-sq="b2" class="board-cell"/><rect x="56" y="280" width="28" height="28" fill="#e8c97a" data-sq="c2" class="board-cell"/><rect x="84" y="280" width="28" height="28" fill="#e8c97a" data-sq="d2" class="board-cell"/><rect x="112" y="280" width="28" height="28" fill="#e8c97a" data-sq="e2" class="board-cell"/><rect x="140" y="280" width="28" height="28" fill="#e8c97a" data-sq="f2" class="board-cell"/><rect x="168" y="280" width="28" height="28" fill="#e8c97a" data-sq="g2" class="board-cell"/><rect x="196" y="280" width="28" height="28" fill="#e8c97a" data-sq="h2" class="board-cell"/><rect x="224" y="280" width="28" height="28" fill="#e8c97a" data-sq="i2" class="board-cell"/><rect x="252" y="280" width="28" height="28" fill="#e8c97a" data-sq="j2" class="board-cell"/><rect x="280" y="280" width="28" height="28" fill="#e8c97a" data-sq="k2" class="board-cell"/><rect x="308" y="280" width="28" height="28" fill="#e8c97a" data-sq="l2" class="board-cell"/><rect x="0" y="308" width="28" height="28" fill="#e8c97a" data-sq="a1" class="board-cell"/><rect x="28" y="308" width="28" height="28" fill="#e8c97a" data-sq="b1" class="board-cell"/><rect x="56" y="308" width="28" height="28" fill="#e8c97a" data-sq="c1" class="board-cell"/><rect x="84" y="308" width="28" height="28" fill="#e8c97a" data-sq="d1" class="board-cell"/><rect x="112" y="308" width="28" height="28" fill="#e8c97a" data-sq="e1" class="board-cell"/><rect x="140" y="308" width="28" height="28" fill="#e8c97a" data-sq="f1" class="board-cell"/><rect x="168" y="308" width="28" height="28" fill="#e8c97a" data-sq="g1" class="board-cell"/><rect x="196" y="308" width="28" height="28" fill="#e8c97a" data-sq="h1" class="board-cell"/><rect x="224" y="308" width="28" height="28" fill="#e8c97a" data-sq="i1" class="board-cell"/><rect x="252" y="308" width="28" height="28" fill="#e8c97a" data-sq="j1" class="board-cell"/><rect x="280" y="308" width="28" height="28" fill="#e8c97a" data-sq="k1" class="board-cell"/><rect x="308" y="308" width="28" height="28" fill="#e8c97a" data-sq="l1" class="board-cell"/><line x1="14" y1="14" x2="322" y2="14" stroke="#6b4e1a" stroke-width="2"/><line x1="14" y1="42" x2="322" y2="42" stroke="#6b4e1a" stroke-width="2"/><line x1="14" y1="70" x2="322" y2="70" stroke="#6b4e1a" stroke-width="2"/><line x1="14" y1="98" x2="322" y2="98" stroke="#6b4e1a" stroke-width="2"/><line x1="14" y1="126" x2="322" y2="126" stroke="#6b4e1a" stroke-width="2"/><line x1="14" y1="154" x2="322" y2="154" stroke="#6b4e1a" stroke-width="2"/><line x1="14" y1="182" x2="322" y2="182" stroke="#6b4e1a" stroke-width="2"/><line x1="14" y1="210" x2="322" y2="210" stroke="#6b4e1a" stroke-width="2"/><line x1="14" y1="238" x2="322" y2="238" stroke="#6b4e1a" stroke-width="2"/><line x1="14" y1="266" x2="322" y2="266" stroke="#6b4e1a" stroke-width="2"/><line x1="14" y1="294" x2="322" y2="294" stroke="#6b4e1a" stroke-width="2"/><line x1="14" y1="322" x2="322" y2="322" stroke="#6b4e1a" stroke-width="2"/><line x1="14" y1="14" x2="14" y2="322" stroke="#6b4e1a" stroke-width="2"/><line x1="42" y1="14" x2="42" y2="322" stroke="#6b4e1a" stroke-width="2"/><line x1="70" y1="14" x2="70" y2="322" stroke="#6b4e1a" stroke-width="2"/><line x1="98" y1="14" x2="98" y2="322" stroke="#6b4e1a" stroke-width="2"/><line x1="126" y1="14" x2="126" y2="322" stroke="#6b4e1a" stroke-width="2"/><line x1="154" y1="14" x2="154" y2="322" stroke="#6b4e1a" stroke-width="2"/><line x1="182" y1="14" x2="182" y2="322" stroke="#6b4e1a" stroke-width="2"/><line x1="210" y1="14" x2="210" y2="322" stroke="#6b4e1a" stroke-width="2"/><line x1="238" y1="14" x2="238" y2="322" stroke="#6b4e1a" stroke-width="2"/><line x1="266" y1="14" x2="266" y2="322" stroke="#6b4e1a" stroke-width="2"/><line x1="294" y1="14" x2="294" y2="322" stroke="#6b4e1a" stroke-width="2"/><line x1="322" y1="14" x2="322" y2="322" stroke="#6b4e1a" stroke-width="2"/><rect x="0" y="0" width="28" height="28" fill="rgba(180, 60, 40, 0.08)" opacity="0.3"/><rect x="28" y="0" width="28" height="28" fill="rgba(180, 60, 40, 0.08)" opacity="0.3"/><rect x="56" y="0" width="28" height="28" fill="rgba(180, 60, 40, 0.08)" opacity="0.3"/><rect x="84" y="0" width="28" height="28" fill="rgba(180, 60, 40, 0.08)" opacity="0.3"/><rect x="112" y="0" width="28" height="28" fill="rgba(180, 60, 40, 0.08)" opacity="0.3"/><rect x="140" y="0" width="28" height="28" fill="rgba(180, 60, 40, 0.08)" opacity="0.3"/><rect x="168" y="0" width="28" height="28" fill="rgba(180, 60, 40, 0.08)" opacity="0.3"/><rect x="196" y="0" width="28" height="28" fill="rgba(180, 60, 40, 0.08)" opacity="0.3"/><rect x="224" y="0" width="28" height="28" fill="rgba(180, 60, 40, 0.08)" opacity="0.3"/><rect x="252" y="0" width="28" height="28" fill="rgba(180, 60, 40, 0.08)" opacity="0.3"/><rect x="280" y="0" width="28" height="28" fill="rgba(180, 60, 40, 0.08)" opacity="0.3"/><rect x="308" y="0" width="28" height="28" fill="rgba(180, 60, 40, 0.08)" opacity="0.3"/><rect x="0" y="28" width="28" height="28" fill="rgba(180, 60, 40, 0.08)" opacity="0.3"/><rect x="28" y="28" width="28" height="28" fill="rgba(180, 60, 40, 0.08)" opacity="0.3"/><rect x="56" y="28" width="28" height="28" fill="rgba(180, 60, 40, 0.08)" opacity="0.3"/><rect x="84" y="28" width="28" height="28" fill="rgba(180, 60, 40, 0.08)" opacity="0.3"/><rect x="112" y="28" width="28" height="28" fill="rgba(180, 60, 40, 0.08)" opacity="0.3"/><rect x="140" y="28" width="28" height="28" fill="rgba(180, 60, 40, 0.08)" opacity="0.3"/><rect x="168" y="28" width="28" height="28" fill="rgba(180, 60, 40, 0.08)" opacity="0.3"/><rect x="196" y="28" width="28" height="28" fill="rgba(180, 60, 40, 0.08)" opacity="0.3"/><rect x="224" y="28" width="28" height="28" fill="rgba(180, 60, 40, 0.08)" opacity="0.3"/><rect x="252" y="28" width="28" height="28" fill="rgba(180, 60, 40, 0.08)" opacity="0.3"/><rect x="280" y="28" width="28" height="28" fill="rgba(180, 60, 40, 0.08)" opacity="0.3"/><rect x="308" y="28" width="28" height="28" fill="rgba(180, 60, 40, 0.08)" opacity="0.3"/><rect x="0" y="56" width="28" height="28" fill="rgba(180, 60, 40, 0.08)" opacity="0.3"/><rect x="28" y="56" width="28" height="28" fill="rgba(180, 60, 40, 0.08)" opacity="0.3"/><rect x="56" y="56" width="28" height="28" fill="rgba(180, 60, 40, 0.08)" opacity="0.3"/><rect x="84" y="56" width="28" height="28" fill="rgba(180, 60, 40, 0.08)" opacity="0.3"/><rect x="112" y="56" width="28" height="28" fill="rgba(180, 60, 40, 0.08)" opacity="0.3"/><rect x="140" y="56" width="28" height="28" fill="rgba(180, 60, 40, 0.08)" opacity="0.3"/><rect x="168" y="56" width="28" height="28" fill="rgba(180, 60, 40, 0.08)" opacity="0.3"/><rect x="196" y="56" width="28" height="28" fill="rgba(180, 60, 40, 0.08)" opacity="0.3"/><rect x="224" y="56" width="28" height="28" fill="rgba(180, 60, 40, 0.08)" opacity="0.3"/><rect x="252" y="56" width="28" height="28" fill="rgba(180, 60, 40, 0.08)" opacity="0.3"/><rect x="280" y="56" width="28" height="28" fill="rgba(180, 60, 40, 0.08)" opacity="0.3"/><rect x="308" y="56" width="28" height="28" fill="rgba(180, 60, 40, 0.08)" opacity="0.3"/><rect x="0" y="168" width="28" height="28" fill="rgba(180, 60, 40, 0.08)" opacity="0.3"/><rect x="28" y="168" width="28" height="28" fill="rgba(180, 60, 40, 0.08)" opacity="0.3"/><rect x="56" y="168" width="28" height="28" fill="rgba(180, 60, 40, 0.08)" opacity="0.3"/><rect x="84" y="168" width="28" height="28" fill="rgba(180, 60, 40, 0.08)" opacity="0.3"/><rect x="112" y="168" width="28" height="28" fill="rgba(180, 60, 40, 0.08)" opacity="0.3"/><rect x="140" y="168" width="28" height="28" fill="rgba(180, 60, 40, 0.08)" opacity="0.3"/><rect x="168" y="168" width="28" height="28" fill="rgba(180, 60, 40, 0.08)" opacity="0.3"/><rect x="196" y="168" width="28" height="28" fill="rgba(180, 60, 40, 0.08)" opacity="0.3"/><rect x="224" y="168" width="28" height="28" fill="rgba(180, 60, 40, 0.08)" opacity="0.3"/><rect x="252" y="168" width="28" height="28" fill="rgba(180, 60, 40, 0.08)" opacity="0.3"/><rect x="280" y="168" width="28" height="28" fill="rgba(180, 60, 40, 0.08)" opacity="0.3"/><rect x="308" y="168" width="28" height="28" fill="rgba(180, 60, 40, 0.08)" opacity="0.3"/><rect x="0" y="196" width="28" height="28" fill="rgba(180, 60, 40, 0.08)" opacity="0.3"/><rect x="28" y="196" width="28" height="28" fill="rgba(180, 60, 40, 0.08)" opacity="0.3"/><rect x="56" y="196" width="28" height="28" fill="rgba(180, 60, 40, 0.08)" opacity="0.3"/><rect x="84" y="196" width="28" height="28" fill="rgba(180, 60, 40, 0.08)" opacity="0.3"/><rect x="112" y="196" width="28" height="28" fill="rgba(180, 60, 40, 0.08)" opacity="0.3"/><rect x="140" y="196" width="28" height="28" fill="rgba(180, 60, 40, 0.08)" opacity="0.3"/><rect x="168" y="196" width="28" height="28" fill="rgba(180, 60, 40, 0.08)" opacity="0.3"/><rect x="196" y="196" width="28" height="28" fill="rgba(180, 60, 40, 0.08)" opacity="0.3"/><rect x="224" y="196" width="28" height="28" fill="rgba(180, 60, 40, 0.08)" opacity="0.3"/><rect x="252" y="196" width="28" height="28" fill="rgba(180, 60, 40, 0.08)" opacity="0.3"/><rect x="280" y="196" width="28" height="28" fill="rgba(180, 60, 40, 0.08)" opacity="0.3"/><rect x="308" y="196" width="28" height="28" fill="rgba(180, 60, 40, 0.08)" opacity="0.3"/><rect x="0" y="224" width="28" height="28" fill="rgba(180, 60, 40, 0.08)" opacity="0.3"/><rect x="28" y="224" width="28" height="28" fill="rgba(180, 60, 40, 0.08)" opacity="0.3"/><rect x="56" y="224" width="28" height="28" fill="rgba(180, 60, 40, 0.08)" opacity="0.3"/><rect x="84" y="224" width="28" height="28" fill="rgba(180, 60, 40, 0.08)" opacity="0.3"/><rect x="112" y="224" width="28" height="28" fill="rgba(180, 60, 40, 0.08)" opacity="0.3"/><rect x="140" y="224" width="28" height="28" fill="rgba(180, 60, 40, 0.08)" opacity="0.3"/><rect x="168" y="224" width="28" height="28" fill="rgba(180, 60, 40, 0.08)" opacity="0.3"/><rect x="196" y="224" width="28" height="28" fill="rgba(180, 60, 40, 0.08)" opacity="0.3"/><rect x="224" y="224" width="28" height="28" fill="rgba(180, 60, 40, 0.08)" opacity="0.3"/><rect x="252" y="224" width="28" height="28" fill="rgba(180, 60, 40, 0.08)" opacity="0.3"/><rect x="280" y="224" width="28" height="28" fill="rgba(180, 60, 40, 0.08)" opacity="0.3"/><rect x="308" y="224" width="28" height="28" fill="rgba(180, 60, 40, 0.08)" opacity="0.3"/><circle cx="70" cy="70" r="3" fill="#6b4e1a"/><circle cx="182" cy="70" r="3" fill="#6b4e1a"/><circle cx="70" cy="182" r="3" fill="#6b4e1a"/><circle cx="182" cy="182" r="3" fill="#6b4e1a"/>
<g pointer-events="none"><image href="../pieces/sets/kahu-shogi-kanji-red-wood/1KY.svg" x="0" y="0" width="28" height="28" pointer-events="none"/><image href="../pieces/sets/kahu-shogi-kanji-red-wood/1GI.svg" x="84" y="0" width="28" height="28" pointer-events="none"/><image href="../pieces/sets/kahu-shogi-kanji-red-wood/1KI.svg" x="112" y="0" width="28" height="28" pointer-events="none"/><image href="../pieces/sets/kahu-shogi-kanji-red-wood/1OU.svg" x="168" y="0" width="28" height="28" pointer-events="none"/><image href="../pieces/sets/kahu-shogi-kanji-red-wood/1KI.svg" x="196" y="0" width="28" height="28" pointer-events="none"/><image href="../pieces/sets/kahu-shogi-kanji-red-wood/1GI.svg" x="224" y="0" width="28" height="28" pointer-events="none"/><image href="../pieces/sets/kahu-shogi-kanji-red-wood/1KY.svg" x="308" y="0" width="28" height="28" pointer-events="none"/><image href="../pieces/sets/kahu-shogi-kanji-red-wood/1KA.svg" x="56" y="28" width="28" height="28" pointer-events="none"/><image href="../pieces/sets/kahu-shogi-kanji-red-wood/1KA.svg" x="252" y="28" width="28" height="28" pointer-events="none"/><image href="../pieces/sets/kahu-shogi-kanji-red-wood/1HI.svg" x="56" y="56" width="28" height="28" pointer-events="none"/><image href="../pieces/sets/kahu-shogi-kanji-red-wood/1KE.svg" x="168" y="56" width="28" height="28" pointer-events="none"/><image href="../pieces/sets/kahu-shogi-kanji-red-wood/1HI.svg" x="252" y="56" width="28" height="28" pointer-events="none"/><image href="../pieces/sets/kahu-shogi-kanji-red-wood/1FU.svg" x="0" y="84" width="28" height="28" pointer-events="none"/><image href="../pieces/sets/kahu-shogi-kanji-red-wood/1FU.svg" x="28" y="84" width="28" height="28" pointer-events="none"/><image href="../pieces/sets/kahu-shogi-kanji-red-wood/1FU.svg" x="56" y="84" width="28" height="28" pointer-events="none"/><image href="../pieces/sets/kahu-shogi-kanji-red-wood/1FU.svg" x="84" y="84" width="28" height="28" pointer-events="none"/><image href="../pieces/sets/kahu-shogi-kanji-red-wood/1FU.svg" x="112" y="84" width="28" height="28" pointer-events="none"/><image href="../pieces/sets/kahu-shogi-kanji-red-wood/1FU.svg" x="140" y="84" width="28" height="28" pointer-events="none"/><image href="../pieces/sets/kahu-shogi-kanji-red-wood/1FU.svg" x="168" y="84" width="28" height="28" pointer-events="none"/><image href="../pieces/sets/kahu-shogi-kanji-red-wood/1FU.svg" x="196" y="84" width="28" height="28" pointer-events="none"/><image href="../pieces/sets/kahu-shogi-kanji-red-wood/1FU.svg" x="224" y="84" width="28" height="28" pointer-events="none"/><image href="../pieces/sets/kahu-shogi-kanji-red-wood/1FU.svg" x="252" y="84" width="28" height="28" pointer-events="none"/><image href="../pieces/sets/kahu-shogi-kanji-red-wood/1FU.svg" x="280" y="84" width="28" height="28" pointer-events="none"/><image href="../pieces/sets/kahu-shogi-kanji-red-wood/1FU.svg" x="308" y="84" width="28" height="28" pointer-events="none"/><image href="../pieces/sets/kahu-shogi-kanji-red-wood/0FU.svg" x="0" y="224" width="28" height="28" pointer-events="none"/><image href="../pieces/sets/kahu-shogi-kanji-red-wood/0FU.svg" x="28" y="224" width="28" height="28" pointer-events="none"/><image href="../pieces/sets/kahu-shogi-kanji-red-wood/0FU.svg" x="56" y="224" width="28" height="28" pointer-events="none"/><image href="../pieces/sets/kahu-shogi-kanji-red-wood/0FU.svg" x="84" y="224" width="28" height="28" pointer-events="none"/><image href="../pieces/sets/kahu-shogi-kanji-red-wood/0FU.svg" x="112" y="224" width="28" height="28" pointer-events="none"/><image href="../pieces/sets/kahu-shogi-kanji-red-wood/0FU.svg" x="140" y="224" width="28" height="28" pointer-events="none"/><image href="../pieces/sets/kahu-shogi-kanji-red-wood/0FU.svg" x="168" y="224" width="28" height="28" pointer-events="none"/><image href="../pieces/sets/kahu-shogi-kanji-red-wood/0FU.svg" x="196" y="224" width="28" height="28" pointer-events="none"/><image href="../pieces/sets/kahu-shogi-kanji-red-wood/0FU.svg" x="224" y="224" width="28" height="28" pointer-events="none"/><image href="../pieces/sets/kahu-shogi-kanji-red-wood/0FU.svg" x="252" y="224" width="28" height="28" pointer-events="none"/><image href="../pieces/sets/kahu-shogi-kanji-red-wood/0FU.svg" x="280" y="224" width="28" height="28" pointer-events="none"/><image href="../pieces/sets/kahu-shogi-kanji-red-wood/0FU.svg" x="308" y="224" width="28" height="28" pointer-events="none"/><image href="../pieces/sets/kahu-shogi-kanji-red-wood/0HI.svg" x="56" y="252" width="28" height="28" pointer-events="none"/><image href="../pieces/sets/kahu-shogi-kanji-red-wood/0KE.svg" x="140" y="252" width="28" height="28" pointer-events="none"/><image href="../pieces/sets/kahu-shogi-kanji-red-wood/0HI.svg" x="252" y="252" width="28" height="28" pointer-events="none"/><image href="../pieces/sets/kahu-shogi-kanji-red-wood/0KA.svg" x="56" y="280" width="28" height="28" pointer-events="none"/><image href="../pieces/sets/kahu-shogi-kanji-red-wood/0KA.svg" x="252" y="280" width="28" height="28" pointer-events="none"/><image href="../pieces/sets/kahu-shogi-kanji-red-wood/0KY.svg" x="0" y="308" width="28" height="28" pointer-events="none"/><image href="../pieces/sets/kahu-shogi-kanji-red-wood/0GI.svg" x="84" y="308" width="28" height="28" pointer-events="none"/><image href="../pieces/sets/kahu-shogi-kanji-red-wood/0KI.svg" x="112" y="308" width="28" height="28" pointer-events="none"/><image href="../pieces/sets/kahu-shogi-kanji-red-wood/0OU.svg" x="140" y="308" width="28" height="28" pointer-events="none"/><image href="../pieces/sets/kahu-shogi-kanji-red-wood/0KI.svg" x="196" y="308" width="28" height="28" pointer-events="none"/><image href="../pieces/sets/kahu-shogi-kanji-red-wood/0GI.svg" x="224" y="308" width="28" height="28" pointer-events="none"/><image href="../pieces/sets/kahu-shogi-kanji-red-wood/0KY.svg" x="308" y="308" width="28" height="28" pointer-events="none"/></g>
</svg>