<svg xmlns="http://www.w3.org/2000/svg" viewBox="0 0 150 200" width="150" height="200">

<rect x="0" y="0" width="50" height="50" fill="#e8c97a" data-sq="a4" class="board-cell"/><rect x="50" y="0" width="50" height="50" fill="#e8c97a" data-sq="b4" class="board-cell"/><rect x="100" y="0" width="50" height="50" fill="#e8c97a" data-sq="c4" class="board-cell"/><rect x="0" y="50" width="50" height="50" fill="#e8c97a" data-sq="a3" class="board-cell"/><rect x="50" y="50" width="50" height="50" fill="#e8c97a" data-sq="b3" class="board-cell"/><rect x="100" y="50" width="50" height="50" fill="#e8c97a" data-sq="c3" class="board-cell"/><rect x="0" y="100" width="50" height="50" fill="#e8c97a" data-sq="a2" class="board-cell"/><rect x="50" y="100" width="50" height="50" fill="#e8c97a" data-sq="b2" class="board-cell"/><rect x="100" y="100" width="50" height="50" fill="#e8c97a" data-sq="c2" class="board-cell"/><rect x="0" y="150" width="50" height="50" fill="#e8c97a" data-sq="a1" class="board-cell"/><rect x="50" y="150" width="50" height="50" fill="#e8c97a" data-sq="b1" class="board-cell"/><rect x="100" y="150" width="50" height="50" fill="#e8c97a" data-sq="c1" class="board-cell"/><line x1="25" y1="25" x2="125" y2="25" stroke="#6b4e1a" stroke-width="2"/><line x1="25" y1="75" x2="125" y2="75" stroke="#6b4e1a" stroke-width="2"/><line x1="25" y1="125" x2="125" y2="125" stroke="#6b4e1a" stroke-width="2"/><line x1="25" y1="175" x2="125" y2="175" stroke="#6b4e1a" stroke-width="2"/><line x1="25" y1="25" x2="25" y2="175" stroke="#6b4e1a" stroke-width="2"/><line x1="75" y1="25" x2="75" y2="175" stroke="#6b4e1a" stroke-width="2"/><line x1="125" y1="25" x2="125" y2="175" stroke="#6b4e1a" stroke-width="2"/><rect x="0" y="0" width="50" height="50" fill="rgba(180, 60, 40, 0.08)" opacity="0.3"/><rect x="50" y="0" width="50" height="50" fill="rgba(180, 60, 40, 0.08)" opacity="0.3"/><rect x="100" y="0" width="50" height="50" fill="rgba(180, 60, 40, 0.08)" opacity="0.3"/><rect x="0" y="50" width="50" height="50" fill="rgba(180, 60, 40, 0.08)" opacity="0.3"/><rect x="50" y="50" width="50" height="50" fill="rgba(180, 60, 40, 0.08)" opacity="0.3"/><rect x="100" y="50" width="50" height="50" fill="rgba(180, 60, 40, 0.08)" opacity="0.3"/><rect x="0" y="100" width="50" height="50" fill="rgba(180, 60, 40, 0.08)" opacity="0.3"/><rect x="50" y="100" width="50" height="50" fill="rgba(180, 60, 40, 0.08)" opacity="0.3"/><rect x="100" y="100" width="50" height="50" fill="rgba(180, 60, 40, 0.08)" opacity="0.3"/><circle cx="125" cy="125" r="3" fill="#6b4e1a"/><circle cx="325" cy="125" r="3" fill="#6b4e1a"/><circle cx="125" cy="325" r="3" fill="#6b4e1a"/><circle cx="325" cy="325" r="3" fill="#6b4e1a"/>
<g pointer-events="none"><image href="../pieces/sets/kahu-shogi-kanji-red-wood/1KI.svg" x="0" y="0" width="50" height="50" pointer-events="none"/><image href="../pieces/sets/kahu-shogi-kanji-red-wood/1KY.svg" x="50" y="0" width="50" height="50" pointer-events="none"/><image href="../pieces/sets/kahu-shogi-kanji-red-wood/0KY.svg" x="50" y="150" width="50" height="50" pointer-events="none"/><image href="../pieces/sets/kahu-shogi-kanji-red-wood/0KI.svg" x="100" y="150" width="50" height="50" pointer-events="none"/></g>
</svg>