<svg xmlns="http://www.w3.org/2000/svg" viewBox="0 0 324 324" width="324" height="324">

<rect x="0" y="0" width="36" height="36" fill="#e8c97a" data-sq="a9" class="board-cell"/><rect x="36" y="0" width="36" height="36" fill="#e8c97a" data-sq="b9" class="board-cell"/><rect x="72" y="0" width="36" height="36" fill="#e8c97a" data-sq="c9" class="board-cell"/><rect x="108" y="0" width="36" height="36" fill="#e8c97a" data-sq="d9" class="board-cell"/><rect x="144" y="0" width="36" height="36" fill="#e8c97a" data-sq="e9" class="board-cell"/><rect x="180" y="0" width="36" height="36" fill="#e8c97a" data-sq="f9" class="board-cell"/><rect x="216" y="0" width="36" height="36" fill="#e8c97a" data-sq="g9" class="board-cell"/><rect x="252" y="0" width="36" height="36" fill="#e8c97a" data-sq="h9" class="board-cell"/><rect x="288" y="0" width="36" height="36" fill="#e8c97a" data-sq="i9" class="board-cell"/><rect x="0" y="36" width="36" height="36" fill="#e8c97a" data-sq="a8" class="board-cell"/><rect x="36" y="36" width="36" height="36" fill="#e8c97a" data-sq="b8" class="board-cell"/><rect x="72" y="36" width="36" height="36" fill="#e8c97a" data-sq="c8" class="board-cell"/><rect x="108" y="36" width="36" height="36" fill="#e8c97a" data-sq="d8" class="board-cell"/><rect x="144" y="36" width="36" height="36" fill="#e8c97a" data-sq="e8" class="board-cell"/><rect x="180" y="36" width="36" height="36" fill="#e8c97a" data-sq="f8" class="board-cell"/><rect x="216" y="36" width="36" height="36" fill="#e8c97a" data-sq="g8" class="board-cell"/><rect x="252" y="36" width="36" height="36" fill="#e8c97a" data-sq="h8" class="board-cell"/><rect x="288" y="36" width="36" height="36" fill="#e8c97a" data-sq="i8" class="board-cell"/><rect x="0" y="72" width="36" height="36" fill="#e8c97a" data-sq="a7" class="board-cell"/><rect x="36" y="72" width="36" height="36" fill="#e8c97a" data-sq="b7" class="board-cell"/><rect x="72" y="72" width="36" height="36" fill="#e8c97a" data-sq="c7" class="board-cell"/><rect x="108" y="72" width="36" height="36" fill="#e8c97a" data-sq="d7" class="board-cell"/><rect x="144" y="72" width="36" height="36" fill="#e8c97a" data-sq="e7" class="board-cell"/><rect x="180" y="72" width="36" height="36" fill="#e8c97a" data-sq="f7" class="board-cell"/><rect x="216" y="72" width="36" height="36" fill="#e8c97a" data-sq="g7" class="board-cell"/><rect x="252" y="72" width="36" height="36" fill="#e8c97a" data-sq="h7" class="board-cell"/><rect x="288" y="72" width="36" height="36" fill="#e8c97a" data-sq="i7" class="board-cell"/><rect x="0" y="108" width="36" height="36" fill="#e8c97a" data-sq="a6" class="board-cell"/><rect x="36" y="108" width="36" height="36" fill="#e8c97a" data-sq="b6" class="board-cell"/><rect x="72" y="108" width="36" height="36" fill="#e8c97a" data-sq="c6" class="board-cell"/><rect x="108" y="108" width="36" height="36" fill="#e8c97a" data-sq="d6" class="board-cell"/><rect x="144" y="108" width="36" height="36" fill="#e8c97a" data-sq="e6" class="board-cell"/><rect x="180" y="108" width="36" height="36" fill="#e8c97a" data-sq="f6" class="board-cell"/><rect x="216" y="108" width="36" height="36" fill="#e8c97a" data-sq="g6" class="board-cell"/><rect x="252" y="108" width="36" height="36" fill="#e8c97a" data-sq="h6" class="board-cell"/><rect x="288" y="108" width="36" height="36" fill="#e8c97a" data-sq="i6" class="board-cell"/><rect x="0" y="144" width="36" height="36" fill="#e8c97a" data-sq="a5" class="board-cell"/><rect x="36" y="144" width="36" height="36" fill="#e8c97a" data-sq="b5" class="board-cell"/><rect x="72" y="144" width="36" height="36" fill="#e8c97a" data-sq="c5" class="board-cell"/><rect x="108" y="144" width="36" height="36" fill="#e8c97a" data-sq="d5" class="board-cell"/><rect x="144" y="144" width="36" height="36" fill="#e8c97a" data-sq="e5" class="board-cell"/><rect x="180" y="144" width="36" height="36" fill="#e8c97a" data-sq="f5" class="board-cell"/><rect x="216" y="144" width="36" height="36" fill="#e8c97a" data-sq="g5" class="board-cell"/><rect x="252" y="144" width="36" height="36" fill="#e8c97a" data-sq="h5" class="board-cell"/><rect x="288" y="144" width="36" height="36" fill="#e8c97a" data-sq="i5" class="board-cell"/><rect x="0" y="180" width="36" height="36" fill="#e8c97a" data-sq="a4" class="board-cell"/><rect x="36" y="180" width="36" height="36" fill="#e8c97a" data-sq="b4" class="board-cell"/><rect x="72" y="180" width="36" height="36" fill="#e8c97a" data-sq="c4" class="board-cell"/><rect x="108" y="180" width="36" height="36" fill="#e8c97a" data-sq="d4" class="board-cell"/><rect x="144" y="180" width="36" height="36" fill="#e8c97a" data-sq="e4" class="board-cell"/><rect x="180" y="180" width="36" height="36" fill="#e8c97a" data-sq="f4" class="board-cell"/><rect x="216" y="180" width="36" height="36" fill="#e8c97a" data-sq="g4" class="board-cell"/><rect x="252" y="180" width="36" height="36" fill="#e8c97a" data-sq="h4" class="board-cell"/><rect x="288" y="180" width="36" height="36" fill="#e8c97a" data-sq="i4" class="board-cell"/><rect x="0" y="216" width="36" height="36" fill="#e8c97a" data-sq="a3" class="board-cell"/><rect x="36" y="216" width="36" height="36" fill="#e8c97a" data-sq="b3" class="board-cell"/><rect x="72" y="216" width="36" height="36" fill="#e8c97a" data-sq="c3" class="board-cell"/><rect x="108" y="216" width="36" height="36" fill="#e8c97a" data-sq="d3" class="board-cell"/><rect x="144" y="216" width="36" height="36" fill="#e8c97a" data-sq="e3" class="board-cell"/><rect x="180" y="216" width="36" height="36" fill="#e8c97a" data-sq="f3" class="board-cell"/><rect x="216" y="216" width="36" height="36" fill="#e8c97a" data-sq="g3" class="board-cell"/><rect x="252" y="216" width="36" height="36" fill="#e8c97a" data-sq="h3" class="board-cell"/><rect x="288" y="216" width="36" height="36" fill="#e8c97a" data-sq="i3" class="board-cell"/><rect x="0" y="252" width="36" height="36" fill="#e8c97a" data-sq="a2" class="board-cell"/><rect x="36" y="252" width="36" height="36" fill="#e8c97a" data-sq="b2" class="board-cell"/><rect x="72" y="252" width="36" height="36" fill="#e8c97a" data-sq="c2" class="board-cell"/><rect x="108" y="252" width="36" height="36" fill="#e8c97a" data-sq="d2" class="board-cell"/><rect x="144" y="252" width="36" height="36" fill="#e8c97a" data-sq="e2" class="board-cell"/><rect x="180" y="252" width="36" height="36" fill="#e8c97a" data-sq="f2" class="board-cell"/><rect x="216" y="252" width="36" height="36" fill="#e8c97a" data-sq="g2" class="board-cell"/><rect x="252" y="252" width="36" height="36" fill="#e8c97a" data-sq="h2" class="board-cell"/><rect x="288" y="252" width="36" height="36" fill="#e8c97a" data-sq="i2" class="board-cell"/><rect x="0" y="288" width="36" height="36" fill="#e8c97a" data-sq="a1" class="board-cell"/><rect x="36" y="288" width="36" height="36" fill="#e8c97a" data-sq="b1" class="board-cell"/><rect x="72" y="288" width="36" height="36" fill="#e8c97a" data-sq="c1" class="board-cell"/><rect x="108" y="288" width="36" height="36" fill="#e8c97a" data-sq="d1" class="board-cell"/><rect x="144" y="288" width="36" height="36" fill="#e8c97a" data-sq="e1" class="board-cell"/><rect x="180" y="288" width="36" height="36" fill="#e8c97a" data-sq="f1" class="board-cell"/><rect x="216" y="288" width="36" height="36" fill="#e8c97a" data-sq="g1" class="board-cell"/><rect x="252" y="288" width="36" height="36" fill="#e8c97a" data-sq="h1" class="board-cell"/><rect x="288" y="288" width="36" height="36" fill="#e8c97a" data-sq="i1" class="board-cell"/><line x1="18" y1="18" x2="306" y2="18" stroke="#6b4e1a" stroke-width="2"/><line x1="18" y1="54" x2="306" y2="54" stroke="#6b4e1a" stroke-width="2"/><line x1="18" y1="90" x2="306" y2="90" stroke="#6b4e1a" stroke-width="2"/><line x1="18" y1="126" x2="306" y2="126" stroke="#6b4e1a" stroke-width="2"/><line x1="18" y1="162" x2="306" y2="162" stroke="#6b4e1a" stroke-width="2"/><line x1="18" y1="198" x2="306" y2="198" stroke="#6b4e1a" stroke-width="2"/><line x1="18" y1="234" x2="306" y2="234" stroke="#6b4e1a" stroke-width="2"/><line x1="18" y1="270" x2="306" y2="270" stroke="#6b4e1a" stroke-width="2"/><line x1="18" y1="306" x2="306" y2="306" stroke="#6b4e1a" stroke-width="2"/><line x1="18" y1="18" x2="18" y2="306" stroke="#6b4e1a" stroke-width="2"/><line x1="54" y1="18" x2="54" y2="306" stroke="#6b4e1a" stroke-width="2"/><line x1="90" y1="18" x2="90" y2="306" stroke="#6b4e1a" stroke-width="2"/><line x1="126" y1="18" x2="126" y2="306" stroke="#6b4e1a" stroke-width="2"/><line x1="162" y1="18" x2="162" y2="306" stroke="#6b4e1a" stroke-width="2"/><line x1="198" y1="18" x2="198" y2="306" stroke="#6b4e1a" stroke-width="2"/><line x1="234" y1="18" x2="234" y2="306" stroke="#6b4e1a" stroke-width="2"/><line x1="270" y1="18" x2="270" y2="306" stroke="#6b4e1a" stroke-width="2"/><line x1="306" y1="18" x2="306" y2="306" stroke="#6b4e1a" stroke-width="2"/><rect x="0" y="0" width="36" height="36" fill="rgba(180, 60, 40, 0.08)" opacity="0.3"/><rect x="36" y="0" width="36" height="36" fill="rgba(180, 60, 40, 0.08)" opacity="0.3"/><rect x="72" y="0" width="36" height="36" fill="rgba(180, 60, 40, 0.08)" opacity="0.3"/><rect x="108" y="0" width="36" height="36" fill="rgba(180, 60, 40, 0.08)" opacity="0.3"/><rect x="144" y="0" width="36" height="36" fill="rgba(180, 60, 40, 0.08)" opacity="0.3"/><rect x="180" y="0" width="36" height="36" fill="rgba(180, 60, 40, 0.08)" opacity="0.3"/><rect x="216" y="0" width="36" height="36" fill="rgba(180, 60, 40, 0.08)" opacity="0.3"/><rect x="252" y="0" width="36" height="36" fill="rgba(180, 60, 40, 0.08)" opacity="0.3"/><rect x="288" y="0" width="36" height="36" fill="rgba(180, 60, 40, 0.08)" opacity="0.3"/><rect x="0" y="36" width="36" height="36" fill="rgba(180, 60, 40, 0.08)" opacity="0.3"/><rect x="36" y="36" width="36" height="36" fill="rgba(180, 60, 40, 0.08)" opacity="0.3"/><rect x="72" y="36" width="36" height="36" fill="rgba(180, 60, 40, 0.08)" opacity="0.3"/><rect x="108" y="36" width="36" height="36" fill="rgba(180, 60, 40, 0.08)" opacity="0.3"/><rect x="144" y="36" width="36" height="36" fill="rgba(180, 60, 40, 0.08)" opacity="0.3"/><rect x="180" y="36" width="36" height="36" fill="rgba(180, 60, 40, 0.08)" opacity="0.3"/><rect x="216" y="36" width="36" height="36" fill="rgba(180, 60, 40, 0.08)" opacity="0.3"/><rect x="252" y="36" width="36" height="36" fill="rgba(180, 60, 40, 0.08)" opacity="0.3"/><rect x="288" y="36" width="36" height="36" fill="rgba(180, 60, 40, 0.08)" opacity="0.3"/><rect x="0" y="72" width="36" height="36" fill="rgba(180, 60, 40, 0.08)" opacity="0.3"/><rect x="36" y="72" width="36" height="36" fill="rgba(180, 60, 40, 0.08)" opacity="0.3"/><rect x="72" y="72" width="36" height="36" fill="rgba(180, 60, 40, 0.08)" opacity="0.3"/><rect x="108" y="72" width="36" height="36" fill="rgba(180, 60, 40, 0.08)" opacity="0.3"/><rect x="144" y="72" width="36" height="36" fill="rgba(180, 60, 40, 0.08)" opacity="0.3"/><rect x="180" y="72" width="36" height="36" fill="rgba(180, 60, 40, 0.08)" opacity="0.3"/><rect x="216" y="72" width="36" height="36" fill="rgba(180, 60, 40, 0.08)" opacity="0.3"/><rect x="252" y="72" width="36" height="36" fill="rgba(180, 60, 40, 0.08)" opacity="0.3"/><rect x="288" y="72" width="36" height="36" fill="rgba(180, 60, 40, 0.08)" opacity="0.3"/><rect x="0" y="216" width="36" height="36" fill="rgba(180, 60, 40, 0.08)" opacity="0.3"/><rect x="36" y="216" width="36" height="36" fill="rgba(180, 60, 40, 0.08)" opacity="0.3"/><rect x="72" y="216" width="36" height="36" fill="rgba(180, 60, 40, 0.08)" opacity="0.3"/><rect x="108" y="216" width="36" height="36" fill="rgba(180, 60, 40, 0.08)" opacity="0.3"/><rect x="144" y="216" width="36" height="36" fill="rgba(180, 60, 40, 0.08)" opacity="0.3"/><rect x="180" y="216" width="36" height="36" fill="rgba(180, 60, 40, 0.08)" opacity="0.3"/><rect x="216" y="216" width="36" height="36" fill="rgba(180, 60, 40, 0.08)" opacity="0.3"/><rect x="252" y="216" width="36" height="36" fill="rgba(180, 60, 40, 0.08)" opacity="0.3"/><rect x="288" y="216" width="36" height="36" fill="rgba(180, 60, 40, 0.08)" opacity="0.3"/><rect x="0" y="252" width="36" height="36" fill="rgba(180, 60, 40, 0.08)" opacity="0.3"/><rect x="36" y="252" width="36" height="36" fill="rgba(180, 60, 40, 0.08)" opacity="0.3"/><rect x="72" y="252" width="36" height="36" fill="rgba(180, 60, 40, 0.08)" opacity="0.3"/><rect x="108" y="252" width="36" height="36" fill="rgba(180, 60, 40, 0.08)" opacity="0.3"/><rect x="144" y="252" width="36" height="36" fill="rgba(180, 60, 40, 0.08)" opacity="0.3"/><rect x="180" y="252" width="36" height="36" fill="rgba(180, 60, 40, 0.08)" opacity="0.3"/><rect x="216" y="252" width="36" height="36" fill="rgba(180, 60, 40, 0.08)" opacity="0.3"/><rect x="252" y="252" width="36" height="36" fill="rgba(180, 60, 40, 0.08)" opacity="0.3"/><rect x="288" y="252" width="36" height="36" fill="rgba(180, 60, 40, 0.08)" opacity="0.3"/><rect x="0" y="288" width="36" height="36" fill="rgba(180, 60, 40, 0.08)" opacity="0.3"/><rect x="36" y="288" width="36" height="36" fill="rgba(180, 60, 40, 0.08)" opacity="0.3"/><rect x="72" y="288" width="36" height="36" fill="rgba(180, 60, 40, 0.08)" opacity="0.3"/><rect x="108" y="288" width="36" height="36" fill="rgba(180, 60, 40, 0.08)" opacity="0.3"/><rect x="144" y="288" width="36" height="36" fill="rgba(180, 60, 40, 0.08)" opacity="0.3"/><rect x="180" y="288" width="36" height="36" fill="rgba(180, 60, 40, 0.08)" opacity="0.3"/><rect x="216" y="288" width="36" height="36" fill="rgba(180, 60, 40, 0.08)" opacity="0.3"/><rect x="252" y="288" width="36" height="36" fill="rgba(180, 60, 40, 0.08)" opacity="0.3"/><rect x="288" y="288" width="36" height="36" fill="rgba(180, 60, 40, 0.08)" opacity="0.3"/><circle cx="90" cy="90" r="3" fill="#6b4e1a"/><circle cx="234" cy="90" r="3" fill="#6b4e1a"/><circle cx="90" cy="234" r="3" fill="#6b4e1a"/><circle cx="234" cy="234" r="3" fill="#6b4e1a"/>
<g pointer-events="none"><image href="../pieces/sets/kahu-shogi-kanji-red-wood/1KY.svg" x="0" y="0" width="36" height="36" pointer-events="none"/><image href="../pieces/sets/kahu-shogi-kanji-red-wood/1KE.svg" x="36" y="0" width="36" height="36" pointer-events="none"/><image href="../pieces/sets/kahu-shogi-kanji-red-wood/1GI.svg" x="72" y="0" width="36" height="36" pointer-events="none"/><image href="../pieces/sets/kahu-shogi-kanji-red-wood/1KI.svg" x="108" y="0" width="36" height="36" pointer-events="none"/><image href="../pieces/sets/kahu-shogi-kanji-red-wood/1OU.svg" x="144" y="0" width="36" height="36" pointer-events="none"/><image href="../pieces/sets/kahu-shogi-kanji-red-wood/1KI.svg" x="180" y="0" width="36" height="36" pointer-events="none"/><image href="../pieces/sets/kahu-shogi-kanji-red-wood/1GI.svg" x="216" y="0" width="36" height="36" pointer-events="none"/><image href="../pieces/sets/kahu-shogi-kanji-red-wood/1KE.svg" x="252" y="0" width="36" height="36" pointer-events="none"/><image href="../pieces/sets/kahu-shogi-kanji-red-wood/1KY.svg" x="288" y="0" width="36" height="36" pointer-events="none"/><image href="../pieces/sets/kahu-shogi-kanji-red-wood/1HI.svg" x="36" y="36" width="36" height="36" pointer-events="none"/><image href="../pieces/sets/kahu-shogi-kanji-red-wood/1KA.svg" x="252" y="36" width="36" height="36" pointer-events="none"/><image href="../pieces/sets/kahu-shogi-kanji-red-wood/1FU.svg" x="0" y="72" width="36" height="36" pointer-events="none"/><image href="../pieces/sets/kahu-shogi-kanji-red-wood/1FU.svg" x="36" y="72" width="36" height="36" pointer-events="none"/><image href="../pieces/sets/kahu-shogi-kanji-red-wood/1FU.svg" x="72" y="72" width="36" height="36" pointer-events="none"/><image href="../pieces/sets/kahu-shogi-kanji-red-wood/1FU.svg" x="108" y="72" width="36" height="36" pointer-events="none"/><image href="../pieces/sets/kahu-shogi-kanji-red-wood/1FU.svg" x="144" y="72" width="36" height="36" pointer-events="none"/><image href="../pieces/sets/kahu-shogi-kanji-red-wood/1FU.svg" x="180" y="72" width="36" height="36" pointer-events="none"/><image href="../pieces/sets/kahu-shogi-kanji-red-wood/1FU.svg" x="216" y="72" width="36" height="36" pointer-events="none"/><image href="../pieces/sets/kahu-shogi-kanji-red-wood/1FU.svg" x="252" y="72" width="36" height="36" pointer-events="none"/><image href="../pieces/sets/kahu-shogi-kanji-red-wood/1FU.svg" x="288" y="72" width="36" height="36" pointer-events="none"/><image href="../pieces/sets/kahu-shogi-kanji-red-wood/0FU.svg" x="0" y="216" width="36" height="36" pointer-events="none"/><image href="../pieces/sets/kahu-shogi-kanji-red-wood/0FU.svg" x="36" y="216" width="36" height="36" pointer-events="none"/><image href="../pieces/sets/kahu-shogi-kanji-red-wood/0FU.svg" x="72" y="216" width="36" height="36" pointer-events="none"/><image href="../pieces/sets/kahu-shogi-kanji-red-wood/0FU.svg" x="108" y="216" width="36" height="36" pointer-events="none"/><image href="../pieces/sets/kahu-shogi-kanji-red-wood/0FU.svg" x="144" y="216" width="36" height="36" pointer-events="none"/><image href="../pieces/sets/kahu-shogi-kanji-red-wood/0FU.svg" x="180" y="216" width="36" height="36" pointer-events="none"/><image href="../pieces/sets/kahu-shogi-kanji-red-wood/0FU.svg" x="216" y="216" width="36" height="36" pointer-events="none"/><image href="../pieces/sets/kahu-shogi-kanji-red-wood/0FU.svg" x="252" y="216" width="36" height="36" pointer-events="none"/><image href="../pieces/sets/kahu-shogi-kanji-red-wood/0FU.svg" x="288" y="216" width="36" height="36" pointer-events="none"/><image href="../pieces/sets/kahu-shogi-kanji-red-wood/0KA.svg" x="36" y="252" width="36" height="36" pointer-events="none"/><image href="../pieces/sets/kahu-shogi-kanji-red-wood/0HI.svg" x="252" y="252" width="36" height="36" pointer-events="none"/><image href="../pieces/sets/kahu-shogi-kanji-red-wood/0KY.svg" x="0" y="288" width="36" height="36" pointer-events="none"/><image href="../pieces/sets/kahu-shogi-kanji-red-wood/0KE.svg" x="36" y="288" width="36" height="36" pointer-events="none"/><image href="../pieces/sets/kahu-shogi-kanji-red-wood/0GI.svg" x="72" y="288" width="36" height="36" pointer-events="none"/><image href="../pieces/sets/kahu-shogi-kanji-red-wood/0KI.svg" x="108" y="288" width="36" height="36" pointer-events="none"/><image href="../pieces/sets/kahu-shogi-kanji-red-wood/0OU.svg" x="144" y="288" width="36" height="36" pointer-events="none"/><image href="../pieces/sets/kahu-shogi-kanji-red-wood/0KI.svg" x="180" y="288" width="36" height="36" pointer-events="none"/><image href="../pieces/sets/kahu-shogi-kanji-red-wood/0GI.svg" x="216" y="288" width="36" height="36" pointer-events="none"/><image href="../pieces/sets/kahu-shogi-kanji-red-wood/0KE.svg" x="252" y="288" width="36" height="36" pointer-events="none"/><image href="../pieces/sets/kahu-shogi-kanji-red-wood/0KY.svg" x="288" y="288" width="36" height="36" pointer-events="none"/></g>
</svg>