<svg xmlns="http://www.w3.org/2000/svg" viewBox="0 0 200 200" width="200" height="200">

<rect x="0" y="0" width="40" height="40" fill="#e8c97a" data-sq="a5" class="board-cell"/><rect x="40" y="0" width="40" height="40" fill="#e8c97a" data-sq="b5" class="board-cell"/><rect x="80" y="0" width="40" height="40" fill="#e8c97a" data-sq="c5" class="board-cell"/><rect x="120" y="0" width="40" height="40" fill="#e8c97a" data-sq="d5" class="board-cell"/><rect x="160" y="0" width="40" height="40" fill="#e8c97a" data-sq="e5" class="board-cell"/><rect x="0" y="40" width="40" height="40" fill="#e8c97a" data-sq="a4" class="board-cell"/><rect x="40" y="40" width="40" height="40" fill="#e8c97a" data-sq="b4" class="board-cell"/><rect x="80" y="40" width="40" height="40" fill="#e8c97a" data-sq="c4" class="board-cell"/><rect x="120" y="40" width="40" height="40" fill="#e8c97a" data-sq="d4" class="board-cell"/><rect x="160" y="40" width="40" height="40" fill="#e8c97a" data-sq="e4" class="board-cell"/><rect x="0" y="80" width="40" height="40" fill="#e8c97a" data-sq="a3" class="board-cell"/><rect x="40" y="80" width="40" height="40" fill="#e8c97a" data-sq="b3" class="board-cell"/><rect x="80" y="80" width="40" height="40" fill="#e8c97a" data-sq="c3" class="board-cell"/><rect x="120" y="80" width="40" height="40" fill="#e8c97a" data-sq="d3" class="board-cell"/><rect x="160" y="80" width="40" height="40" fill="#e8c97a" data-sq="e3" class="board-cell"/><rect x="0" y="120" width="40" height="40" fill="#e8c97a" data-sq="a2" class="board-cell"/><rect x="40" y="120" width="40" height="40" fill="#e8c97a" data-sq="b2" class="board-cell"/><rect x="80" y="120" width="40" height="40" fill="#e8c97a" data-sq="c2" class="board-cell"/><rect x="120" y="120" width="40" height="40" fill="#e8c97a" data-sq="d2" class="board-cell"/><rect x="160" y="120" width="40" height="40" fill="#e8c97a" data-sq="e2" class="board-cell"/><rect x="0" y="160" width="40" height="40" fill="#e8c97a" data-sq="a1" class="board-cell"/><rect x="40" y="160" width="40" height="40" fill="#e8c97a" data-sq="b1" class="board-cell"/><rect x="80" y="160" width="40" height="40" fill="#e8c97a" data-sq="c1" class="board-cell"/><rect x="120" y="160" width="40" height="40" fill="#e8c97a" data-sq="d1" class="board-cell"/><rect x="160" y="160" width="40" height="40" fill="#e8c97a" data-sq="e1" class="board-cell"/><line x1="20" y1="20" x2="180" y2="20" stroke="#6b4e1a" stroke-width="2"/><line x1="20" y1="60" x2="180" y2="60" stroke="#6b4e1a" stroke-width="2"/><line x1="20" y1="100" x2="180" y2="100" stroke="#6b4e1a" stroke-width="2"/><line x1="20" y1="140" x2="180" y2="140" stroke="#6b4e1a" stroke-width="2"/><line x1="20" y1="180" x2="180" y2="180" stroke="#6b4e1a" stroke-width="2"/><line x1="20" y1="20" x2="20" y2="180" stroke="#6b4e1a" stroke-width="2"/><line x1="60" y1="20" x2="60" y2="180" stroke="#6b4e1a" stroke-width="2"/><line x1="100" y1="20" x2="100" y2="180" stroke="#6b4e1a" stroke-width="2"/><line x1="140" y1="20" x2="140" y2="180" stroke="#6b4e1a" stroke-width="2"/><line x1="180" y1="20" x2="180" y2="180" stroke="#6b4e1a" stroke-width="2"/><rect x="0" y="0" width="40" height="40" fill="rgba(180, 60, 40, 0.08)" opacity="0.3"/><rect x="40" y="0" width="40" height="40" fill="rgba(180, 60, 40, 0.08)" opacity="0.3"/><rect x="80" y="0" width="40" height="40" fill="rgba(180, 60, 40, 0.08)" opacity="0.3"/><rect x="120" y="0" width="40" height="40" fill="rgba(180, 60, 40, 0.08)" opacity="0.3"/><rect x="160" y="0" width="40" height="40" fill="rgba(180, 60, 40, 0.08)" opacity="0.3"/><rect x="0" y="40" width="40" height="40" fill="rgba(180, 60, 40, 0.08)" opacity="0.3"/><rect x="40" y="40" width="40" height="40" fill="rgba(180, 60, 40, 0.08)" opacity="0.3"/><rect x="80" y="40" width="40" height="40" fill="rgba(180, 60, 40, 0.08)" opacity="0.3"/><rect x="120" y="40" width="40" height="40" fill="rgba(180, 60, 40, 0.08)" opacity="0.3"/><rect x="160" y="40" width="40" height="40" fill="rgba(180, 60, 40, 0.08)" opacity="0.3"/><rect x="0" y="80" width="40" height="40" fill="rgba(180, 60, 40, 0.08)" opacity="0.3"/><rect x="40" y="80" width="40" height="40" fill="rgba(180, 60, 40, 0.08)" opacity="0.3"/><rect x="80" y="80" width="40" height="40" fill="rgba(180, 60, 40, 0.08)" opacity="0.3"/><rect x="120" y="80" width="40" height="40" fill="rgba(180, 60, 40, 0.08)" opacity="0.3"/><rect x="160" y="80" width="40" height="40" fill="rgba(180, 60, 40, 0.08)" opacity="0.3"/><circle cx="100" cy="100" r="3" fill="#6b4e1a"/><circle cx="260" cy="100" r="3" fill="#6b4e1a"/><circle cx="100" cy="260" r="3" fill="#6b4e1a"/><circle cx="260" cy="260" r="3" fill="#6b4e1a"/>
<g pointer-events="none"><image href="../pieces/sets/kahu-shogi-kanji-red-wood/1FU.svg" x="0" y="0" width="40" height="40" pointer-events="none"/><image href="../pieces/sets/kahu-shogi-kanji-red-wood/1KI.svg" x="40" y="0" width="40" height="40" pointer-events="none"/><image href="../pieces/sets/kahu-shogi-kanji-red-wood/1GI.svg" x="80" y="0" width="40" height="40" pointer-events="none"/><image href="../pieces/sets/kahu-shogi-kanji-red-wood/1OU.svg" x="120" y="0" width="40" height="40" pointer-events="none"/><image href="../pieces/sets/kahu-shogi-kanji-red-wood/1KY.svg" x="160" y="0" width="40" height="40" pointer-events="none"/><image href="../pieces/sets/kahu-shogi-kanji-red-wood/0KY.svg" x="0" y="160" width="40" height="40" pointer-events="none"/><image href="../pieces/sets/kahu-shogi-kanji-red-wood/0OU.svg" x="40" y="160" width="40" height="40" pointer-events="none"/><image href="../pieces/sets/kahu-shogi-kanji-red-wood/0GI.svg" x="80" y="160" width="40" height="40" pointer-events="none"/><image href="../pieces/sets/kahu-shogi-kanji-red-wood/0KI.svg" x="120" y="160" width="40" height="40" pointer-events="none"/><image href="../pieces/sets/kahu-shogi-kanji-red-wood/0FU.svg" x="160" y="160" width="40" height="40" pointer-events="none"/></g>
</svg>