<svg xmlns="http://www.w3.org/2000/svg" viewBox="0 0 840.245948869755 524" width="840.245948869755" height="524">
<rect x="0" y="0" width="840.245948869755" height="524" fill="undefined" rx="6"/><polygon points="75.62,28.90 75.62,63.10 46.00,80.20 16.38,63.10 16.38,28.90 46.00,11.80" fill="#e8c97a" stroke="#6b4e1a" stroke-width="1" data-sq="0,0" class="board-cell"/><polygon points="137.97,28.90 137.97,63.10 108.35,80.20 78.74,63.10 78.74,28.90 108.35,11.80" fill="#8b6914" stroke="#6b4e1a" stroke-width="1" data-sq="1,0" class="board-cell"/><polygon points="200.33,28.90 200.33,63.10 170.71,80.20 141.09,63.10 141.09,28.90 170.71,11.80" fill="undefined" stroke="#6b4e1a" stroke-width="1" data-sq="2,0" class="board-cell"/><polygon points="262.68,28.90 262.68,63.10 233.06,80.20 203.44,63.10 203.44,28.90 233.06,11.80" fill="#e8c97a" stroke="#6b4e1a" stroke-width="1" data-sq="3,0" class="board-cell"/><polygon points="325.03,28.90 325.03,63.10 295.42,80.20 265.80,63.10 265.80,28.90 295.42,11.80" fill="#8b6914" stroke="#6b4e1a" stroke-width="1" data-sq="4,0" class="board-cell"/><polygon points="387.39,28.90 387.39,63.10 357.77,80.20 328.15,63.10 328.15,28.90 357.77,11.80" fill="undefined" stroke="#6b4e1a" stroke-width="1" data-sq="5,0" class="board-cell"/><polygon points="449.74,28.90 449.74,63.10 420.12,80.20 390.50,63.10 390.50,28.90 420.12,11.80" fill="#e8c97a" stroke="#6b4e1a" stroke-width="1" data-sq="6,0" class="board-cell"/><polygon points="512.09,28.90 512.09,63.10 482.48,80.20 452.86,63.10 452.86,28.90 482.48,11.80" fill="#8b6914" stroke="#6b4e1a" stroke-width="1" data-sq="7,0" class="board-cell"/><polygon points="574.45,28.90 574.45,63.10 544.83,80.20 515.21,63.10 515.21,28.90 544.83,11.80" fill="undefined" stroke="#6b4e1a" stroke-width="1" data-sq="8,0" class="board-cell"/><polygon points="106.79,82.90 106.79,117.10 77.18,134.20 47.56,117.10 47.56,82.90 77.18,65.80" fill="#8b6914" stroke="#6b4e1a" stroke-width="1" data-sq="0,1" class="board-cell"/><polygon points="169.15,82.90 169.15,117.10 139.53,134.20 109.91,117.10 109.91,82.90 139.53,65.80" fill="undefined" stroke="#6b4e1a" stroke-width="1" data-sq="1,1" class="board-cell"/><polygon points="231.50,82.90 231.50,117.10 201.88,134.20 172.27,117.10 172.27,82.90 201.88,65.80" fill="#e8c97a" stroke="#6b4e1a" stroke-width="1" data-sq="2,1" class="board-cell"/><polygon points="293.86,82.90 293.86,117.10 264.24,134.20 234.62,117.10 234.62,82.90 264.24,65.80" fill="#8b6914" stroke="#6b4e1a" stroke-width="1" data-sq="3,1" class="board-cell"/><polygon points="356.21,82.90 356.21,117.10 326.59,134.20 296.97,117.10 296.97,82.90 326.59,65.80" fill="undefined" stroke="#6b4e1a" stroke-width="1" data-sq="4,1" class="board-cell"/><polygon points="418.56,82.90 418.56,117.10 388.95,134.20 359.33,117.10 359.33,82.90 388.95,65.80" fill="#e8c97a" stroke="#6b4e1a" stroke-width="1" data-sq="5,1" class="board-cell"/><polygon points="480.92,82.90 480.92,117.10 451.30,134.20 421.68,117.10 421.68,82.90 451.30,65.80" fill="#8b6914" stroke="#6b4e1a" stroke-width="1" data-sq="6,1" class="board-cell"/><polygon points="543.27,82.90 543.27,117.10 513.65,134.20 484.04,117.10 484.04,82.90 513.65,65.80" fill="undefined" stroke="#6b4e1a" stroke-width="1" data-sq="7,1" class="board-cell"/><polygon points="605.63,82.90 605.63,117.10 576.01,134.20 546.39,117.10 546.39,82.90 576.01,65.80" fill="#e8c97a" stroke="#6b4e1a" stroke-width="1" data-sq="8,1" class="board-cell"/><polygon points="137.97,136.90 137.97,171.10 108.35,188.20 78.74,171.10 78.74,136.90 108.35,119.80" fill="undefined" stroke="#6b4e1a" stroke-width="1" data-sq="0,2" class="board-cell"/><polygon points="200.33,136.90 200.33,171.10 170.71,188.20 141.09,171.10 141.09,136.90 170.71,119.80" fill="#e8c97a" stroke="#6b4e1a" stroke-width="1" data-sq="1,2" class="board-cell"/><polygon points="262.68,136.90 262.68,171.10 233.06,188.20 203.44,171.10 203.44,136.90 233.06,119.80" fill="#8b6914" stroke="#6b4e1a" stroke-width="1" data-sq="2,2" class="board-cell"/><polygon points="325.03,136.90 325.03,171.10 295.42,188.20 265.80,171.10 265.80,136.90 295.42,119.80" fill="undefined" stroke="#6b4e1a" stroke-width="1" data-sq="3,2" class="board-cell"/><polygon points="387.39,136.90 387.39,171.10 357.77,188.20 328.15,171.10 328.15,136.90 357.77,119.80" fill="#e8c97a" stroke="#6b4e1a" stroke-width="1" data-sq="4,2" class="board-cell"/><polygon points="449.74,136.90 449.74,171.10 420.12,188.20 390.50,171.10 390.50,136.90 420.12,119.80" fill="#8b6914" stroke="#6b4e1a" stroke-width="1" data-sq="5,2" class="board-cell"/><polygon points="512.09,136.90 512.09,171.10 482.48,188.20 452.86,171.10 452.86,136.90 482.48,119.80" fill="undefined" stroke="#6b4e1a" stroke-width="1" data-sq="6,2" class="board-cell"/><polygon points="574.45,136.90 574.45,171.10 544.83,188.20 515.21,171.10 515.21,136.90 544.83,119.80" fill="#e8c97a" stroke="#6b4e1a" stroke-width="1" data-sq="7,2" class="board-cell"/><polygon points="636.80,136.90 636.80,171.10 607.18,188.20 577.57,171.10 577.57,136.90 607.18,119.80" fill="#8b6914" stroke="#6b4e1a" stroke-width="1" data-sq="8,2" class="board-cell"/><polygon points="169.15,190.90 169.15,225.10 139.53,242.20 109.91,225.10 109.91,190.90 139.53,173.80" fill="#e8c97a" stroke="#6b4e1a" stroke-width="1" data-sq="0,3" class="board-cell"/><polygon points="231.50,190.90 231.50,225.10 201.88,242.20 172.27,225.10 172.27,190.90 201.88,173.80" fill="#8b6914" stroke="#6b4e1a" stroke-width="1" data-sq="1,3" class="board-cell"/><polygon points="293.86,190.90 293.86,225.10 264.24,242.20 234.62,225.10 234.62,190.90 264.24,173.80" fill="undefined" stroke="#6b4e1a" stroke-width="1" data-sq="2,3" class="board-cell"/><polygon points="356.21,190.90 356.21,225.10 326.59,242.20 296.97,225.10 296.97,190.90 326.59,173.80" fill="#e8c97a" stroke="#6b4e1a" stroke-width="1" data-sq="3,3" class="board-cell"/><polygon points="418.56,190.90 418.56,225.10 388.95,242.20 359.33,225.10 359.33,190.90 388.95,173.80" fill="#8b6914" stroke="#6b4e1a" stroke-width="1" data-sq="4,3" class="board-cell"/><polygon points="480.92,190.90 480.92,225.10 451.30,242.20 421.68,225.10 421.68,190.90 451.30,173.80" fill="undefined" stroke="#6b4e1a" stroke-width="1" data-sq="5,3" class="board-cell"/><polygon points="543.27,190.90 543.27,225.10 513.65,242.20 484.04,225.10 484.04,190.90 513.65,173.80" fill="#e8c97a" stroke="#6b4e1a" stroke-width="1" data-sq="6,3" class="board-cell"/><polygon points="605.63,190.90 605.63,225.10 576.01,242.20 546.39,225.10 546.39,190.90 576.01,173.80" fill="#8b6914" stroke="#6b4e1a" stroke-width="1" data-sq="7,3" class="board-cell"/><polygon points="667.98,190.90 667.98,225.10 638.36,242.20 608.74,225.10 608.74,190.90 638.36,173.80" fill="undefined" stroke="#6b4e1a" stroke-width="1" data-sq="8,3" class="board-cell"/><polygon points="200.33,244.90 200.33,279.10 170.71,296.20 141.09,279.10 141.09,244.90 170.71,227.80" fill="#8b6914" stroke="#6b4e1a" stroke-width="1" data-sq="0,4" class="board-cell"/><polygon points="262.68,244.90 262.68,279.10 233.06,296.20 203.44,279.10 203.44,244.90 233.06,227.80" fill="undefined" stroke="#6b4e1a" stroke-width="1" data-sq="1,4" class="board-cell"/><polygon points="325.03,244.90 325.03,279.10 295.42,296.20 265.80,279.10 265.80,244.90 295.42,227.80" fill="#e8c97a" stroke="#6b4e1a" stroke-width="1" data-sq="2,4" class="board-cell"/><polygon points="387.39,244.90 387.39,279.10 357.77,296.20 328.15,279.10 328.15,244.90 357.77,227.80" fill="#8b6914" stroke="#6b4e1a" stroke-width="1" data-sq="3,4" class="board-cell"/><polygon points="449.74,244.90 449.74,279.10 420.12,296.20 390.50,279.10 390.50,244.90 420.12,227.80" fill="undefined" stroke="#6b4e1a" stroke-width="1" data-sq="4,4" class="board-cell"/><polygon points="512.09,244.90 512.09,279.10 482.48,296.20 452.86,279.10 452.86,244.90 482.48,227.80" fill="#e8c97a" stroke="#6b4e1a" stroke-width="1" data-sq="5,4" class="board-cell"/><polygon points="574.45,244.90 574.45,279.10 544.83,296.20 515.21,279.10 515.21,244.90 544.83,227.80" fill="#8b6914" stroke="#6b4e1a" stroke-width="1" data-sq="6,4" class="board-cell"/><polygon points="636.80,244.90 636.80,279.10 607.18,296.20 577.57,279.10 577.57,244.90 607.18,227.80" fill="undefined" stroke="#6b4e1a" stroke-width="1" data-sq="7,4" class="board-cell"/><polygon points="699.16,244.90 699.16,279.10 669.54,296.20 639.92,279.10 639.92,244.90 669.54,227.80" fill="#e8c97a" stroke="#6b4e1a" stroke-width="1" data-sq="8,4" class="board-cell"/><polygon points="231.50,298.90 231.50,333.10 201.88,350.20 172.27,333.10 172.27,298.90 201.88,281.80" fill="undefined" stroke="#6b4e1a" stroke-width="1" data-sq="0,5" class="board-cell"/><polygon points="293.86,298.90 293.86,333.10 264.24,350.20 234.62,333.10 234.62,298.90 264.24,281.80" fill="#e8c97a" stroke="#6b4e1a" stroke-width="1" data-sq="1,5" class="board-cell"/><polygon points="356.21,298.90 356.21,333.10 326.59,350.20 296.97,333.10 296.97,298.90 326.59,281.80" fill="#8b6914" stroke="#6b4e1a" stroke-width="1" data-sq="2,5" class="board-cell"/><polygon points="418.56,298.90 418.56,333.10 388.95,350.20 359.33,333.10 359.33,298.90 388.95,281.80" fill="undefined" stroke="#6b4e1a" stroke-width="1" data-sq="3,5" class="board-cell"/><polygon points="480.92,298.90 480.92,333.10 451.30,350.20 421.68,333.10 421.68,298.90 451.30,281.80" fill="#e8c97a" stroke="#6b4e1a" stroke-width="1" data-sq="4,5" class="board-cell"/><polygon points="543.27,298.90 543.27,333.10 513.65,350.20 484.04,333.10 484.04,298.90 513.65,281.80" fill="#8b6914" stroke="#6b4e1a" stroke-width="1" data-sq="5,5" class="board-cell"/><polygon points="605.63,298.90 605.63,333.10 576.01,350.20 546.39,333.10 546.39,298.90 576.01,281.80" fill="undefined" stroke="#6b4e1a" stroke-width="1" data-sq="6,5" class="board-cell"/><polygon points="667.98,298.90 667.98,333.10 638.36,350.20 608.74,333.10 608.74,298.90 638.36,281.80" fill="#e8c97a" stroke="#6b4e1a" stroke-width="1" data-sq="7,5" class="board-cell"/><polygon points="730.33,298.90 730.33,333.10 700.72,350.20 671.10,333.10 671.10,298.90 700.72,281.80" fill="#8b6914" stroke="#6b4e1a" stroke-width="1" data-sq="8,5" class="board-cell"/><polygon points="262.68,352.90 262.68,387.10 233.06,404.20 203.44,387.10 203.44,352.90 233.06,335.80" fill="#e8c97a" stroke="#6b4e1a" stroke-width="1" data-sq="0,6" class="board-cell"/><polygon points="325.03,352.90 325.03,387.10 295.42,404.20 265.80,387.10 265.80,352.90 295.42,335.80" fill="#8b6914" stroke="#6b4e1a" stroke-width="1" data-sq="1,6" class="board-cell"/><polygon points="387.39,352.90 387.39,387.10 357.77,404.20 328.15,387.10 328.15,352.90 357.77,335.80" fill="undefined" stroke="#6b4e1a" stroke-width="1" data-sq="2,6" class="board-cell"/><polygon points="449.74,352.90 449.74,387.10 420.12,404.20 390.50,387.10 390.50,352.90 420.12,335.80" fill="#e8c97a" stroke="#6b4e1a" stroke-width="1" data-sq="3,6" class="board-cell"/><polygon points="512.09,352.90 512.09,387.10 482.48,404.20 452.86,387.10 452.86,352.90 482.48,335.80" fill="#8b6914" stroke="#6b4e1a" stroke-width="1" data-sq="4,6" class="board-cell"/><polygon points="574.45,352.90 574.45,387.10 544.83,404.20 515.21,387.10 515.21,352.90 544.83,335.80" fill="undefined" stroke="#6b4e1a" stroke-width="1" data-sq="5,6" class="board-cell"/><polygon points="636.80,352.90 636.80,387.10 607.18,404.20 577.57,387.10 577.57,352.90 607.18,335.80" fill="#e8c97a" stroke="#6b4e1a" stroke-width="1" data-sq="6,6" class="board-cell"/><polygon points="699.16,352.90 699.16,387.10 669.54,404.20 639.92,387.10 639.92,352.90 669.54,335.80" fill="#8b6914" stroke="#6b4e1a" stroke-width="1" data-sq="7,6" class="board-cell"/><polygon points="761.51,352.90 761.51,387.10 731.89,404.20 702.27,387.10 702.27,352.90 731.89,335.80" fill="undefined" stroke="#6b4e1a" stroke-width="1" data-sq="8,6" class="board-cell"/><polygon points="293.86,406.90 293.86,441.10 264.24,458.20 234.62,441.10 234.62,406.90 264.24,389.80" fill="#8b6914" stroke="#6b4e1a" stroke-width="1" data-sq="0,7" class="board-cell"/><polygon points="356.21,406.90 356.21,441.10 326.59,458.20 296.97,441.10 296.97,406.90 326.59,389.80" fill="undefined" stroke="#6b4e1a" stroke-width="1" data-sq="1,7" class="board-cell"/><polygon points="418.56,406.90 418.56,441.10 388.95,458.20 359.33,441.10 359.33,406.90 388.95,389.80" fill="#e8c97a" stroke="#6b4e1a" stroke-width="1" data-sq="2,7" class="board-cell"/><polygon points="480.92,406.90 480.92,441.10 451.30,458.20 421.68,441.10 421.68,406.90 451.30,389.80" fill="#8b6914" stroke="#6b4e1a" stroke-width="1" data-sq="3,7" class="board-cell"/><polygon points="543.27,406.90 543.27,441.10 513.65,458.20 484.04,441.10 484.04,406.90 513.65,389.80" fill="undefined" stroke="#6b4e1a" stroke-width="1" data-sq="4,7" class="board-cell"/><polygon points="605.63,406.90 605.63,441.10 576.01,458.20 546.39,441.10 546.39,406.90 576.01,389.80" fill="#e8c97a" stroke="#6b4e1a" stroke-width="1" data-sq="5,7" class="board-cell"/><polygon points="667.98,406.90 667.98,441.10 638.36,458.20 608.74,441.10 608.74,406.90 638.36,389.80" fill="#8b6914" stroke="#6b4e1a" stroke-width="1" data-sq="6,7" class="board-cell"/><polygon points="730.33,406.90 730.33,441.10 700.72,458.20 671.10,441.10 671.10,406.90 700.72,389.80" fill="undefined" stroke="#6b4e1a" stroke-width="1" data-sq="7,7" class="board-cell"/><polygon points="792.69,406.90 792.69,441.10 763.07,458.20 733.45,441.10 733.45,406.90 763.07,389.80" fill="#e8c97a" stroke="#6b4e1a" stroke-width="1" data-sq="8,7" class="board-cell"/><polygon points="325.03,460.90 325.03,495.10 295.42,512.20 265.80,495.10 265.80,460.90 295.42,443.80" fill="undefined" stroke="#6b4e1a" stroke-width="1" data-sq="0,8" class="board-cell"/><polygon points="387.39,460.90 387.39,495.10 357.77,512.20 328.15,495.10 328.15,460.90 357.77,443.80" fill="#e8c97a" stroke="#6b4e1a" stroke-width="1" data-sq="1,8" class="board-cell"/><polygon points="449.74,460.90 449.74,495.10 420.12,512.20 390.50,495.10 390.50,460.90 420.12,443.80" fill="#8b6914" stroke="#6b4e1a" stroke-width="1" data-sq="2,8" class="board-cell"/><polygon points="512.09,460.90 512.09,495.10 482.48,512.20 452.86,495.10 452.86,460.90 482.48,443.80" fill="undefined" stroke="#6b4e1a" stroke-width="1" data-sq="3,8" class="board-cell"/><polygon points="574.45,460.90 574.45,495.10 544.83,512.20 515.21,495.10 515.21,460.90 544.83,443.80" fill="#e8c97a" stroke="#6b4e1a" stroke-width="1" data-sq="4,8" class="board-cell"/><polygon points="636.80,460.90 636.80,495.10 607.18,512.20 577.57,495.10 577.57,460.90 607.18,443.80" fill="#8b6914" stroke="#6b4e1a" stroke-width="1" data-sq="5,8" class="board-cell"/><polygon points="699.16,460.90 699.16,495.10 669.54,512.20 639.92,495.10 639.92,460.90 669.54,443.80" fill="undefined" stroke="#6b4e1a" stroke-width="1" data-sq="6,8" class="board-cell"/><polygon points="761.51,460.90 761.51,495.10 731.89,512.20 702.27,495.10 702.27,460.90 731.89,443.80" fill="#e8c97a" stroke="#6b4e1a" stroke-width="1" data-sq="7,8" class="board-cell"/><polygon points="823.86,460.90 823.86,495.10 794.25,512.20 764.63,495.10 764.63,460.90 794.25,443.80" fill="#8b6914" stroke="#6b4e1a" stroke-width="1" data-sq="8,8" class="board-cell"/>
</svg>