<svg xmlns="http://www.w3.org/2000/svg" viewBox="0 0 561.6 534.6" width="561.6" height="534.6">
<defs><filter id="board-shadow" x="-5%" y="-3%" width="110%" height="110%"><feDropShadow dx="0" dy="4" stdDeviation="6" flood-color="rgba(0,0,0,0.35)"/></filter></defs><rect x="0" y="0" width="561.6" height="534.6" fill="#4a3728" rx="18" filter="url(#board-shadow)"/><rect x="3" y="3" width="555.6" height="528.6" fill="#5c4636" rx="15"/><rect x="28.799999999999997" y="28.799999999999997" width="504" height="477" fill="#1a3a1a" rx="6"/><polygon points="228.28,170.35687752661224 333.32,170.35687752661224 389.272,267.07687752661224 333.32,363.6928775266123 228.28,363.6928775266123 172.32800000000003,267.07687752661224" fill="#2e7d32"/><polygon points="280.8,79.56487752661221 228.28,170.35687752661224 333.32,170.35687752661224" fill="#f2e8d4"/><polygon points="445.12,170.35687752661224 333.32,170.35687752661224 389.272,267.07687752661224" fill="#d4e4f0"/><polygon points="445.12,363.6928775266123 389.272,267.07687752661224 333.32,363.6928775266123" fill="#e8d8ec"/><polygon points="280.8,454.58887752661224 333.32,363.6928775266123 228.28,363.6928775266123" fill="#f2e8d4"/><polygon points="116.48000000000002,363.6928775266123 228.28,363.6928775266123 172.32800000000003,267.07687752661224" fill="#d4e4f0"/><polygon points="116.48000000000002,170.35687752661224 172.32800000000003,267.07687752661224 228.28,170.35687752661224" fill="#e8d8ec"/><polygon points="280.8,79.56487752661221 116.48000000000002,363.6928775266123 445.12,363.6928775266123" fill="none" stroke="#1b5e20" stroke-width="1.5"/><polygon points="280.8,454.58887752661224 116.48000000000002,170.35687752661224 445.12,170.35687752661224" fill="none" stroke="#1b5e20" stroke-width="1.5"/><g fill="#1b5e20" opacity="0.7"><circle cx="280.8" cy="100.8" r="2.5"/><circle cx="280.8" cy="100.8" r="4.5600000000000005" fill="transparent" class="board-cell" data-sq="h1" data-type="arm-N" data-arm="N"/><circle cx="268.8" cy="121.58460969082653" r="2.5"/><circle cx="268.8" cy="121.58460969082653" r="4.5600000000000005" fill="transparent" class="board-cell" data-sq="h2" data-type="arm-N" data-arm="N"/><circle cx="292.8" cy="121.58460969082653" r="2.5"/><circle cx="292.8" cy="121.58460969082653" r="4.5600000000000005" fill="transparent" class="board-cell" data-sq="h3" data-type="arm-N" data-arm="N"/><circle cx="256.8" cy="142.36921938165307" r="2.5"/><circle cx="256.8" cy="142.36921938165307" r="4.5600000000000005" fill="transparent" class="board-cell" data-sq="h4" data-type="arm-N" data-arm="N"/><circle cx="280.8" cy="142.36921938165307" r="2.5"/><circle cx="280.8" cy="142.36921938165307" r="4.5600000000000005" fill="transparent" class="board-cell" data-sq="h5" data-type="arm-N" data-arm="N"/><circle cx="304.8" cy="142.36921938165307" r="2.5"/><circle cx="304.8" cy="142.36921938165307" r="4.5600000000000005" fill="transparent" class="board-cell" data-sq="h6" data-type="arm-N" data-arm="N"/><circle cx="244.8" cy="163.1538290724796" r="2.5"/><circle cx="244.8" cy="163.1538290724796" r="4.5600000000000005" fill="transparent" class="board-cell" data-sq="h7" data-type="arm-N" data-arm="N"/><circle cx="268.8" cy="163.1538290724796" r="2.5"/><circle cx="268.8" cy="163.1538290724796" r="4.5600000000000005" fill="transparent" class="board-cell" data-sq="h8" data-type="arm-N" data-arm="N"/><circle cx="292.8" cy="163.1538290724796" r="2.5"/><circle cx="292.8" cy="163.1538290724796" r="4.5600000000000005" fill="transparent" class="board-cell" data-sq="h9" data-type="arm-N" data-arm="N"/><circle cx="316.8" cy="163.1538290724796" r="2.5"/><circle cx="316.8" cy="163.1538290724796" r="4.5600000000000005" fill="transparent" class="board-cell" data-sq="h10" data-type="arm-N" data-arm="N"/><circle cx="136.8" cy="183.93843876330612" r="2.5"/><circle cx="136.8" cy="183.93843876330612" r="4.5600000000000005" fill="transparent" class="board-cell" data-sq="h11" data-type="arm-NW" data-arm="NW"/><circle cx="160.8" cy="183.93843876330612" r="2.5"/><circle cx="160.8" cy="183.93843876330612" r="4.5600000000000005" fill="transparent" class="board-cell" data-sq="h12" data-type="arm-NW" data-arm="NW"/><circle cx="184.8" cy="183.93843876330612" r="2.5"/><circle cx="184.8" cy="183.93843876330612" r="4.5600000000000005" fill="transparent" class="board-cell" data-sq="h13" data-type="arm-NW" data-arm="NW"/><circle cx="208.8" cy="183.93843876330612" r="2.5"/><circle cx="208.8" cy="183.93843876330612" r="4.5600000000000005" fill="transparent" class="board-cell" data-sq="h14" data-type="arm-NW" data-arm="NW"/><circle cx="232.8" cy="183.93843876330612" r="2.5"/><circle cx="232.8" cy="183.93843876330612" r="4.5600000000000005" fill="transparent" class="board-cell" data-sq="h15" data-type="centre"/><circle cx="256.8" cy="183.93843876330612" r="2.5"/><circle cx="256.8" cy="183.93843876330612" r="4.5600000000000005" fill="transparent" class="board-cell" data-sq="h16" data-type="centre"/><circle cx="280.8" cy="183.93843876330612" r="2.5"/><circle cx="280.8" cy="183.93843876330612" r="4.5600000000000005" fill="transparent" class="board-cell" data-sq="h17" data-type="centre"/><circle cx="304.8" cy="183.93843876330612" r="2.5"/><circle cx="304.8" cy="183.93843876330612" r="4.5600000000000005" fill="transparent" class="board-cell" data-sq="h18" data-type="centre"/><circle cx="328.8" cy="183.93843876330612" r="2.5"/><circle cx="328.8" cy="183.93843876330612" r="4.5600000000000005" fill="transparent" class="board-cell" data-sq="h19" data-type="centre"/><circle cx="352.8" cy="183.93843876330612" r="2.5"/><circle cx="352.8" cy="183.93843876330612" r="4.5600000000000005" fill="transparent" class="board-cell" data-sq="h20" data-type="arm-NE" data-arm="NE"/><circle cx="376.8" cy="183.93843876330612" r="2.5"/><circle cx="376.8" cy="183.93843876330612" r="4.5600000000000005" fill="transparent" class="board-cell" data-sq="h21" data-type="arm-NE" data-arm="NE"/><circle cx="400.8" cy="183.93843876330612" r="2.5"/><circle cx="400.8" cy="183.93843876330612" r="4.5600000000000005" fill="transparent" class="board-cell" data-sq="h22" data-type="arm-NE" data-arm="NE"/><circle cx="424.8" cy="183.93843876330612" r="2.5"/><circle cx="424.8" cy="183.93843876330612" r="4.5600000000000005" fill="transparent" class="board-cell" data-sq="h23" data-type="arm-NE" data-arm="NE"/><circle cx="148.8" cy="204.72304845413265" r="2.5"/><circle cx="148.8" cy="204.72304845413265" r="4.5600000000000005" fill="transparent" class="board-cell" data-sq="h24" data-type="arm-NW" data-arm="NW"/><circle cx="172.8" cy="204.72304845413265" r="2.5"/><circle cx="172.8" cy="204.72304845413265" r="4.5600000000000005" fill="transparent" class="board-cell" data-sq="h25" data-type="arm-NW" data-arm="NW"/><circle cx="196.8" cy="204.72304845413265" r="2.5"/><circle cx="196.8" cy="204.72304845413265" r="4.5600000000000005" fill="transparent" class="board-cell" data-sq="h26" data-type="arm-NW" data-arm="NW"/><circle cx="220.8" cy="204.72304845413265" r="2.5"/><circle cx="220.8" cy="204.72304845413265" r="4.5600000000000005" fill="transparent" class="board-cell" data-sq="h27" data-type="centre"/><circle cx="244.8" cy="204.72304845413265" r="2.5"/><circle cx="244.8" cy="204.72304845413265" r="4.5600000000000005" fill="transparent" class="board-cell" data-sq="h28" data-type="centre"/><circle cx="268.8" cy="204.72304845413265" r="2.5"/><circle cx="268.8" cy="204.72304845413265" r="4.5600000000000005" fill="transparent" class="board-cell" data-sq="h29" data-type="centre"/><circle cx="292.8" cy="204.72304845413265" r="2.5"/><circle cx="292.8" cy="204.72304845413265" r="4.5600000000000005" fill="transparent" class="board-cell" data-sq="h30" data-type="centre"/><circle cx="316.8" cy="204.72304845413265" r="2.5"/><circle cx="316.8" cy="204.72304845413265" r="4.5600000000000005" fill="transparent" class="board-cell" data-sq="h31" data-type="centre"/><circle cx="340.8" cy="204.72304845413265" r="2.5"/><circle cx="340.8" cy="204.72304845413265" r="4.5600000000000005" fill="transparent" class="board-cell" data-sq="h32" data-type="centre"/><circle cx="364.8" cy="204.72304845413265" r="2.5"/><circle cx="364.8" cy="204.72304845413265" r="4.5600000000000005" fill="transparent" class="board-cell" data-sq="h33" data-type="arm-NE" data-arm="NE"/><circle cx="388.8" cy="204.72304845413265" r="2.5"/><circle cx="388.8" cy="204.72304845413265" r="4.5600000000000005" fill="transparent" class="board-cell" data-sq="h34" data-type="arm-NE" data-arm="NE"/><circle cx="412.8" cy="204.72304845413265" r="2.5"/><circle cx="412.8" cy="204.72304845413265" r="4.5600000000000005" fill="transparent" class="board-cell" data-sq="h35" data-type="arm-NE" data-arm="NE"/><circle cx="160.8" cy="225.50765814495918" r="2.5"/><circle cx="160.8" cy="225.50765814495918" r="4.5600000000000005" fill="transparent" class="board-cell" data-sq="h36" data-type="arm-NW" data-arm="NW"/><circle cx="184.8" cy="225.50765814495918" r="2.5"/><circle cx="184.8" cy="225.50765814495918" r="4.5600000000000005" fill="transparent" class="board-cell" data-sq="h37" data-type="arm-NW" data-arm="NW"/><circle cx="208.8" cy="225.50765814495918" r="2.5"/><circle cx="208.8" cy="225.50765814495918" r="4.5600000000000005" fill="transparent" class="board-cell" data-sq="h38" data-type="centre"/><circle cx="232.8" cy="225.50765814495918" r="2.5"/><circle cx="232.8" cy="225.50765814495918" r="4.5600000000000005" fill="transparent" class="board-cell" data-sq="h39" data-type="centre"/><circle cx="256.8" cy="225.50765814495918" r="2.5"/><circle cx="256.8" cy="225.50765814495918" r="4.5600000000000005" fill="transparent" class="board-cell" data-sq="h40" data-type="centre"/><circle cx="280.8" cy="225.50765814495918" r="2.5"/><circle cx="280.8" cy="225.50765814495918" r="4.5600000000000005" fill="transparent" class="board-cell" data-sq="h41" data-type="centre"/><circle cx="304.8" cy="225.50765814495918" r="2.5"/><circle cx="304.8" cy="225.50765814495918" r="4.5600000000000005" fill="transparent" class="board-cell" data-sq="h42" data-type="centre"/><circle cx="328.8" cy="225.50765814495918" r="2.5"/><circle cx="328.8" cy="225.50765814495918" r="4.5600000000000005" fill="transparent" class="board-cell" data-sq="h43" data-type="centre"/><circle cx="352.8" cy="225.50765814495918" r="2.5"/><circle cx="352.8" cy="225.50765814495918" r="4.5600000000000005" fill="transparent" class="board-cell" data-sq="h44" data-type="centre"/><circle cx="376.8" cy="225.50765814495918" r="2.5"/><circle cx="376.8" cy="225.50765814495918" r="4.5600000000000005" fill="transparent" class="board-cell" data-sq="h45" data-type="arm-NE" data-arm="NE"/><circle cx="400.8" cy="225.50765814495918" r="2.5"/><circle cx="400.8" cy="225.50765814495918" r="4.5600000000000005" fill="transparent" class="board-cell" data-sq="h46" data-type="arm-NE" data-arm="NE"/><circle cx="172.8" cy="246.2922678357857" r="2.5"/><circle cx="172.8" cy="246.2922678357857" r="4.5600000000000005" fill="transparent" class="board-cell" data-sq="h47" data-type="arm-NW" data-arm="NW"/><circle cx="196.8" cy="246.2922678357857" r="2.5"/><circle cx="196.8" cy="246.2922678357857" r="4.5600000000000005" fill="transparent" class="board-cell" data-sq="h48" data-type="centre"/><circle cx="220.8" cy="246.2922678357857" r="2.5"/><circle cx="220.8" cy="246.2922678357857" r="4.5600000000000005" fill="transparent" class="board-cell" data-sq="h49" data-type="centre"/><circle cx="244.8" cy="246.2922678357857" r="2.5"/><circle cx="244.8" cy="246.2922678357857" r="4.5600000000000005" fill="transparent" class="board-cell" data-sq="h50" data-type="centre"/><circle cx="268.8" cy="246.2922678357857" r="2.5"/><circle cx="268.8" cy="246.2922678357857" r="4.5600000000000005" fill="transparent" class="board-cell" data-sq="h51" data-type="centre"/><circle cx="292.8" cy="246.2922678357857" r="2.5"/><circle cx="292.8" cy="246.2922678357857" r="4.5600000000000005" fill="transparent" class="board-cell" data-sq="h52" data-type="centre"/><circle cx="316.8" cy="246.2922678357857" r="2.5"/><circle cx="316.8" cy="246.2922678357857" r="4.5600000000000005" fill="transparent" class="board-cell" data-sq="h53" data-type="centre"/><circle cx="340.8" cy="246.2922678357857" r="2.5"/><circle cx="340.8" cy="246.2922678357857" r="4.5600000000000005" fill="transparent" class="board-cell" data-sq="h54" data-type="centre"/><circle cx="364.8" cy="246.2922678357857" r="2.5"/><circle cx="364.8" cy="246.2922678357857" r="4.5600000000000005" fill="transparent" class="board-cell" data-sq="h55" data-type="centre"/><circle cx="388.8" cy="246.2922678357857" r="2.5"/><circle cx="388.8" cy="246.2922678357857" r="4.5600000000000005" fill="transparent" class="board-cell" data-sq="h56" data-type="arm-NE" data-arm="NE"/><circle cx="184.8" cy="267.07687752661224" r="2.5"/><circle cx="184.8" cy="267.07687752661224" r="4.5600000000000005" fill="transparent" class="board-cell" data-sq="h57" data-type="centre"/><circle cx="208.8" cy="267.07687752661224" r="2.5"/><circle cx="208.8" cy="267.07687752661224" r="4.5600000000000005" fill="transparent" class="board-cell" data-sq="h58" data-type="centre"/><circle cx="232.8" cy="267.07687752661224" r="2.5"/><circle cx="232.8" cy="267.07687752661224" r="4.5600000000000005" fill="transparent" class="board-cell" data-sq="h59" data-type="centre"/><circle cx="256.8" cy="267.07687752661224" r="2.5"/><circle cx="256.8" cy="267.07687752661224" r="4.5600000000000005" fill="transparent" class="board-cell" data-sq="h60" data-type="centre"/><circle cx="280.8" cy="267.07687752661224" r="2.5"/><circle cx="280.8" cy="267.07687752661224" r="4.5600000000000005" fill="transparent" class="board-cell" data-sq="h61" data-type="centre"/><circle cx="304.8" cy="267.07687752661224" r="2.5"/><circle cx="304.8" cy="267.07687752661224" r="4.5600000000000005" fill="transparent" class="board-cell" data-sq="h62" data-type="centre"/><circle cx="328.8" cy="267.07687752661224" r="2.5"/><circle cx="328.8" cy="267.07687752661224" r="4.5600000000000005" fill="transparent" class="board-cell" data-sq="h63" data-type="centre"/><circle cx="352.8" cy="267.07687752661224" r="2.5"/><circle cx="352.8" cy="267.07687752661224" r="4.5600000000000005" fill="transparent" class="board-cell" data-sq="h64" data-type="centre"/><circle cx="376.8" cy="267.07687752661224" r="2.5"/><circle cx="376.8" cy="267.07687752661224" r="4.5600000000000005" fill="transparent" class="board-cell" data-sq="h65" data-type="centre"/><circle cx="172.8" cy="287.86148721743876" r="2.5"/><circle cx="172.8" cy="287.86148721743876" r="4.5600000000000005" fill="transparent" class="board-cell" data-sq="h66" data-type="arm-SW" data-arm="SW"/><circle cx="196.8" cy="287.86148721743876" r="2.5"/><circle cx="196.8" cy="287.86148721743876" r="4.5600000000000005" fill="transparent" class="board-cell" data-sq="h67" data-type="centre"/><circle cx="220.8" cy="287.86148721743876" r="2.5"/><circle cx="220.8" cy="287.86148721743876" r="4.5600000000000005" fill="transparent" class="board-cell" data-sq="h68" data-type="centre"/><circle cx="244.8" cy="287.86148721743876" r="2.5"/><circle cx="244.8" cy="287.86148721743876" r="4.5600000000000005" fill="transparent" class="board-cell" data-sq="h69" data-type="centre"/><circle cx="268.8" cy="287.86148721743876" r="2.5"/><circle cx="268.8" cy="287.86148721743876" r="4.5600000000000005" fill="transparent" class="board-cell" data-sq="h70" data-type="centre"/><circle cx="292.8" cy="287.86148721743876" r="2.5"/><circle cx="292.8" cy="287.86148721743876" r="4.5600000000000005" fill="transparent" class="board-cell" data-sq="h71" data-type="centre"/><circle cx="316.8" cy="287.86148721743876" r="2.5"/><circle cx="316.8" cy="287.86148721743876" r="4.5600000000000005" fill="transparent" class="board-cell" data-sq="h72" data-type="centre"/><circle cx="340.8" cy="287.86148721743876" r="2.5"/><circle cx="340.8" cy="287.86148721743876" r="4.5600000000000005" fill="transparent" class="board-cell" data-sq="h73" data-type="centre"/><circle cx="364.8" cy="287.86148721743876" r="2.5"/><circle cx="364.8" cy="287.86148721743876" r="4.5600000000000005" fill="transparent" class="board-cell" data-sq="h74" data-type="centre"/><circle cx="388.8" cy="287.86148721743876" r="2.5"/><circle cx="388.8" cy="287.86148721743876" r="4.5600000000000005" fill="transparent" class="board-cell" data-sq="h75" data-type="arm-SE" data-arm="SE"/><circle cx="160.8" cy="308.6460969082653" r="2.5"/><circle cx="160.8" cy="308.6460969082653" r="4.5600000000000005" fill="transparent" class="board-cell" data-sq="h76" data-type="arm-SW" data-arm="SW"/><circle cx="184.8" cy="308.6460969082653" r="2.5"/><circle cx="184.8" cy="308.6460969082653" r="4.5600000000000005" fill="transparent" class="board-cell" data-sq="h77" data-type="arm-SW" data-arm="SW"/><circle cx="208.8" cy="308.6460969082653" r="2.5"/><circle cx="208.8" cy="308.6460969082653" r="4.5600000000000005" fill="transparent" class="board-cell" data-sq="h78" data-type="centre"/><circle cx="232.8" cy="308.6460969082653" r="2.5"/><circle cx="232.8" cy="308.6460969082653" r="4.5600000000000005" fill="transparent" class="board-cell" data-sq="h79" data-type="centre"/><circle cx="256.8" cy="308.6460969082653" r="2.5"/><circle cx="256.8" cy="308.6460969082653" r="4.5600000000000005" fill="transparent" class="board-cell" data-sq="h80" data-type="centre"/><circle cx="280.8" cy="308.6460969082653" r="2.5"/><circle cx="280.8" cy="308.6460969082653" r="4.5600000000000005" fill="transparent" class="board-cell" data-sq="h81" data-type="centre"/><circle cx="304.8" cy="308.6460969082653" r="2.5"/><circle cx="304.8" cy="308.6460969082653" r="4.5600000000000005" fill="transparent" class="board-cell" data-sq="h82" data-type="centre"/><circle cx="328.8" cy="308.6460969082653" r="2.5"/><circle cx="328.8" cy="308.6460969082653" r="4.5600000000000005" fill="transparent" class="board-cell" data-sq="h83" data-type="centre"/><circle cx="352.8" cy="308.6460969082653" r="2.5"/><circle cx="352.8" cy="308.6460969082653" r="4.5600000000000005" fill="transparent" class="board-cell" data-sq="h84" data-type="centre"/><circle cx="376.8" cy="308.6460969082653" r="2.5"/><circle cx="376.8" cy="308.6460969082653" r="4.5600000000000005" fill="transparent" class="board-cell" data-sq="h85" data-type="arm-SE" data-arm="SE"/><circle cx="400.8" cy="308.6460969082653" r="2.5"/><circle cx="400.8" cy="308.6460969082653" r="4.5600000000000005" fill="transparent" class="board-cell" data-sq="h86" data-type="arm-SE" data-arm="SE"/><circle cx="148.8" cy="329.4307065990918" r="2.5"/><circle cx="148.8" cy="329.4307065990918" r="4.5600000000000005" fill="transparent" class="board-cell" data-sq="h87" data-type="arm-SW" data-arm="SW"/><circle cx="172.8" cy="329.4307065990918" r="2.5"/><circle cx="172.8" cy="329.4307065990918" r="4.5600000000000005" fill="transparent" class="board-cell" data-sq="h88" data-type="arm-SW" data-arm="SW"/><circle cx="196.8" cy="329.4307065990918" r="2.5"/><circle cx="196.8" cy="329.4307065990918" r="4.5600000000000005" fill="transparent" class="board-cell" data-sq="h89" data-type="arm-SW" data-arm="SW"/><circle cx="220.8" cy="329.4307065990918" r="2.5"/><circle cx="220.8" cy="329.4307065990918" r="4.5600000000000005" fill="transparent" class="board-cell" data-sq="h90" data-type="centre"/><circle cx="244.8" cy="329.4307065990918" r="2.5"/><circle cx="244.8" cy="329.4307065990918" r="4.5600000000000005" fill="transparent" class="board-cell" data-sq="h91" data-type="centre"/><circle cx="268.8" cy="329.4307065990918" r="2.5"/><circle cx="268.8" cy="329.4307065990918" r="4.5600000000000005" fill="transparent" class="board-cell" data-sq="h92" data-type="centre"/><circle cx="292.8" cy="329.4307065990918" r="2.5"/><circle cx="292.8" cy="329.4307065990918" r="4.5600000000000005" fill="transparent" class="board-cell" data-sq="h93" data-type="centre"/><circle cx="316.8" cy="329.4307065990918" r="2.5"/><circle cx="316.8" cy="329.4307065990918" r="4.5600000000000005" fill="transparent" class="board-cell" data-sq="h94" data-type="centre"/><circle cx="340.8" cy="329.4307065990918" r="2.5"/><circle cx="340.8" cy="329.4307065990918" r="4.5600000000000005" fill="transparent" class="board-cell" data-sq="h95" data-type="centre"/><circle cx="364.8" cy="329.4307065990918" r="2.5"/><circle cx="364.8" cy="329.4307065990918" r="4.5600000000000005" fill="transparent" class="board-cell" data-sq="h96" data-type="arm-SE" data-arm="SE"/><circle cx="388.8" cy="329.4307065990918" r="2.5"/><circle cx="388.8" cy="329.4307065990918" r="4.5600000000000005" fill="transparent" class="board-cell" data-sq="h97" data-type="arm-SE" data-arm="SE"/><circle cx="412.8" cy="329.4307065990918" r="2.5"/><circle cx="412.8" cy="329.4307065990918" r="4.5600000000000005" fill="transparent" class="board-cell" data-sq="h98" data-type="arm-SE" data-arm="SE"/><circle cx="136.8" cy="350.21531628991835" r="2.5"/><circle cx="136.8" cy="350.21531628991835" r="4.5600000000000005" fill="transparent" class="board-cell" data-sq="h99" data-type="arm-SW" data-arm="SW"/><circle cx="160.8" cy="350.21531628991835" r="2.5"/><circle cx="160.8" cy="350.21531628991835" r="4.5600000000000005" fill="transparent" class="board-cell" data-sq="h100" data-type="arm-SW" data-arm="SW"/><circle cx="184.8" cy="350.21531628991835" r="2.5"/><circle cx="184.8" cy="350.21531628991835" r="4.5600000000000005" fill="transparent" class="board-cell" data-sq="h101" data-type="arm-SW" data-arm="SW"/><circle cx="208.8" cy="350.21531628991835" r="2.5"/><circle cx="208.8" cy="350.21531628991835" r="4.5600000000000005" fill="transparent" class="board-cell" data-sq="h102" data-type="arm-SW" data-arm="SW"/><circle cx="232.8" cy="350.21531628991835" r="2.5"/><circle cx="232.8" cy="350.21531628991835" r="4.5600000000000005" fill="transparent" class="board-cell" data-sq="h103" data-type="centre"/><circle cx="256.8" cy="350.21531628991835" r="2.5"/><circle cx="256.8" cy="350.21531628991835" r="4.5600000000000005" fill="transparent" class="board-cell" data-sq="h104" data-type="centre"/><circle cx="280.8" cy="350.21531628991835" r="2.5"/><circle cx="280.8" cy="350.21531628991835" r="4.5600000000000005" fill="transparent" class="board-cell" data-sq="h105" data-type="centre"/><circle cx="304.8" cy="350.21531628991835" r="2.5"/><circle cx="304.8" cy="350.21531628991835" r="4.5600000000000005" fill="transparent" class="board-cell" data-sq="h106" data-type="centre"/><circle cx="328.8" cy="350.21531628991835" r="2.5"/><circle cx="328.8" cy="350.21531628991835" r="4.5600000000000005" fill="transparent" class="board-cell" data-sq="h107" data-type="centre"/><circle cx="352.8" cy="350.21531628991835" r="2.5"/><circle cx="352.8" cy="350.21531628991835" r="4.5600000000000005" fill="transparent" class="board-cell" data-sq="h108" data-type="arm-SE" data-arm="SE"/><circle cx="376.8" cy="350.21531628991835" r="2.5"/><circle cx="376.8" cy="350.21531628991835" r="4.5600000000000005" fill="transparent" class="board-cell" data-sq="h109" data-type="arm-SE" data-arm="SE"/><circle cx="400.8" cy="350.21531628991835" r="2.5"/><circle cx="400.8" cy="350.21531628991835" r="4.5600000000000005" fill="transparent" class="board-cell" data-sq="h110" data-type="arm-SE" data-arm="SE"/><circle cx="424.8" cy="350.21531628991835" r="2.5"/><circle cx="424.8" cy="350.21531628991835" r="4.5600000000000005" fill="transparent" class="board-cell" data-sq="h111" data-type="arm-SE" data-arm="SE"/><circle cx="244.8" cy="370.9999259807449" r="2.5"/><circle cx="244.8" cy="370.9999259807449" r="4.5600000000000005" fill="transparent" class="board-cell" data-sq="h112" data-type="arm-S" data-arm="S"/><circle cx="268.8" cy="370.9999259807449" r="2.5"/><circle cx="268.8" cy="370.9999259807449" r="4.5600000000000005" fill="transparent" class="board-cell" data-sq="h113" data-type="arm-S" data-arm="S"/><circle cx="292.8" cy="370.9999259807449" r="2.5"/><circle cx="292.8" cy="370.9999259807449" r="4.5600000000000005" fill="transparent" class="board-cell" data-sq="h114" data-type="arm-S" data-arm="S"/><circle cx="316.8" cy="370.9999259807449" r="2.5"/><circle cx="316.8" cy="370.9999259807449" r="4.5600000000000005" fill="transparent" class="board-cell" data-sq="h115" data-type="arm-S" data-arm="S"/><circle cx="256.8" cy="391.7845356715714" r="2.5"/><circle cx="256.8" cy="391.7845356715714" r="4.5600000000000005" fill="transparent" class="board-cell" data-sq="h116" data-type="arm-S" data-arm="S"/><circle cx="280.8" cy="391.7845356715714" r="2.5"/><circle cx="280.8" cy="391.7845356715714" r="4.5600000000000005" fill="transparent" class="board-cell" data-sq="h117" data-type="arm-S" data-arm="S"/><circle cx="304.8" cy="391.7845356715714" r="2.5"/><circle cx="304.8" cy="391.7845356715714" r="4.5600000000000005" fill="transparent" class="board-cell" data-sq="h118" data-type="arm-S" data-arm="S"/><circle cx="268.8" cy="412.56914536239793" r="2.5"/><circle cx="268.8" cy="412.56914536239793" r="4.5600000000000005" fill="transparent" class="board-cell" data-sq="h119" data-type="arm-S" data-arm="S"/><circle cx="292.8" cy="412.56914536239793" r="2.5"/><circle cx="292.8" cy="412.56914536239793" r="4.5600000000000005" fill="transparent" class="board-cell" data-sq="h120" data-type="arm-S" data-arm="S"/><circle cx="280.8" cy="433.35375505322446" r="2.5"/><circle cx="280.8" cy="433.35375505322446" r="4.5600000000000005" fill="transparent" class="board-cell" data-sq="h121" data-type="arm-S" data-arm="S"/></g><image href="../pieces/sets/fluent-emoji/red-circle.svg" x="277.152" y="97.152" width="7.296000000000001" height="7.296000000000001"/><image href="../pieces/sets/fluent-emoji/red-circle.svg" x="265.152" y="117.93660969082653" width="7.296000000000001" height="7.296000000000001"/><image href="../pieces/sets/fluent-emoji/red-circle.svg" x="289.152" y="117.93660969082653" width="7.296000000000001" height="7.296000000000001"/><image href="../pieces/sets/fluent-emoji/red-circle.svg" x="253.15200000000002" y="138.72121938165307" width="7.296000000000001" height="7.296000000000001"/><image href="../pieces/sets/fluent-emoji/red-circle.svg" x="277.152" y="138.72121938165307" width="7.296000000000001" height="7.296000000000001"/><image href="../pieces/sets/fluent-emoji/red-circle.svg" x="301.152" y="138.72121938165307" width="7.296000000000001" height="7.296000000000001"/><image href="../pieces/sets/fluent-emoji/red-circle.svg" x="241.15200000000002" y="159.5058290724796" width="7.296000000000001" height="7.296000000000001"/><image href="../pieces/sets/fluent-emoji/red-circle.svg" x="265.152" y="159.5058290724796" width="7.296000000000001" height="7.296000000000001"/><image href="../pieces/sets/fluent-emoji/red-circle.svg" x="289.152" y="159.5058290724796" width="7.296000000000001" height="7.296000000000001"/><image href="../pieces/sets/fluent-emoji/red-circle.svg" x="313.152" y="159.5058290724796" width="7.296000000000001" height="7.296000000000001"/><image href="../pieces/sets/fluent-emoji/blue-circle.svg" x="349.152" y="180.29043876330613" width="7.296000000000001" height="7.296000000000001"/><image href="../pieces/sets/fluent-emoji/blue-circle.svg" x="373.152" y="180.29043876330613" width="7.296000000000001" height="7.296000000000001"/><image href="../pieces/sets/fluent-emoji/blue-circle.svg" x="397.152" y="180.29043876330613" width="7.296000000000001" height="7.296000000000001"/><image href="../pieces/sets/fluent-emoji/blue-circle.svg" x="421.152" y="180.29043876330613" width="7.296000000000001" height="7.296000000000001"/><image href="../pieces/sets/fluent-emoji/blue-circle.svg" x="361.152" y="201.07504845413266" width="7.296000000000001" height="7.296000000000001"/><image href="../pieces/sets/fluent-emoji/blue-circle.svg" x="385.152" y="201.07504845413266" width="7.296000000000001" height="7.296000000000001"/><image href="../pieces/sets/fluent-emoji/blue-circle.svg" x="409.152" y="201.07504845413266" width="7.296000000000001" height="7.296000000000001"/><image href="../pieces/sets/fluent-emoji/blue-circle.svg" x="373.152" y="221.85965814495918" width="7.296000000000001" height="7.296000000000001"/><image href="../pieces/sets/fluent-emoji/blue-circle.svg" x="397.152" y="221.85965814495918" width="7.296000000000001" height="7.296000000000001"/><image href="../pieces/sets/fluent-emoji/blue-circle.svg" x="385.152" y="242.6442678357857" width="7.296000000000001" height="7.296000000000001"/><image href="../pieces/sets/fluent-emoji/green-circle.svg" x="385.152" y="284.21348721743874" width="7.296000000000001" height="7.296000000000001"/><image href="../pieces/sets/fluent-emoji/green-circle.svg" x="373.152" y="304.99809690826527" width="7.296000000000001" height="7.296000000000001"/><image href="../pieces/sets/fluent-emoji/green-circle.svg" x="397.152" y="304.99809690826527" width="7.296000000000001" height="7.296000000000001"/><image href="../pieces/sets/fluent-emoji/green-circle.svg" x="361.152" y="325.7827065990918" width="7.296000000000001" height="7.296000000000001"/><image href="../pieces/sets/fluent-emoji/green-circle.svg" x="385.152" y="325.7827065990918" width="7.296000000000001" height="7.296000000000001"/><image href="../pieces/sets/fluent-emoji/green-circle.svg" x="409.152" y="325.7827065990918" width="7.296000000000001" height="7.296000000000001"/><image href="../pieces/sets/fluent-emoji/green-circle.svg" x="349.152" y="346.5673162899183" width="7.296000000000001" height="7.296000000000001"/><image href="../pieces/sets/fluent-emoji/green-circle.svg" x="373.152" y="346.5673162899183" width="7.296000000000001" height="7.296000000000001"/><image href="../pieces/sets/fluent-emoji/green-circle.svg" x="397.152" y="346.5673162899183" width="7.296000000000001" height="7.296000000000001"/><image href="../pieces/sets/fluent-emoji/green-circle.svg" x="421.152" y="346.5673162899183" width="7.296000000000001" height="7.296000000000001"/><image href="../pieces/sets/fluent-emoji/black-circle.svg" x="241.15200000000002" y="367.35192598074485" width="7.296000000000001" height="7.296000000000001"/><image href="../pieces/sets/fluent-emoji/black-circle.svg" x="265.152" y="367.35192598074485" width="7.296000000000001" height="7.296000000000001"/><image href="../pieces/sets/fluent-emoji/black-circle.svg" x="289.152" y="367.35192598074485" width="7.296000000000001" height="7.296000000000001"/><image href="../pieces/sets/fluent-emoji/black-circle.svg" x="313.152" y="367.35192598074485" width="7.296000000000001" height="7.296000000000001"/><image href="../pieces/sets/fluent-emoji/black-circle.svg" x="253.15200000000002" y="388.1365356715714" width="7.296000000000001" height="7.296000000000001"/><image href="../pieces/sets/fluent-emoji/black-circle.svg" x="277.152" y="388.1365356715714" width="7.296000000000001" height="7.296000000000001"/><image href="../pieces/sets/fluent-emoji/black-circle.svg" x="301.152" y="388.1365356715714" width="7.296000000000001" height="7.296000000000001"/><image href="../pieces/sets/fluent-emoji/black-circle.svg" x="265.152" y="408.9211453623979" width="7.296000000000001" height="7.296000000000001"/><image href="../pieces/sets/fluent-emoji/black-circle.svg" x="289.152" y="408.9211453623979" width="7.296000000000001" height="7.296000000000001"/><image href="../pieces/sets/fluent-emoji/black-circle.svg" x="277.152" y="429.70575505322444" width="7.296000000000001" height="7.296000000000001"/><image href="../pieces/sets/fluent-emoji/purple-circle.svg" x="169.15200000000002" y="284.21348721743874" width="7.296000000000001" height="7.296000000000001"/><image href="../pieces/sets/fluent-emoji/purple-circle.svg" x="157.15200000000002" y="304.99809690826527" width="7.296000000000001" height="7.296000000000001"/><image href="../pieces/sets/fluent-emoji/purple-circle.svg" x="181.15200000000002" y="304.99809690826527" width="7.296000000000001" height="7.296000000000001"/><image href="../pieces/sets/fluent-emoji/purple-circle.svg" x="145.15200000000002" y="325.7827065990918" width="7.296000000000001" height="7.296000000000001"/><image href="../pieces/sets/fluent-emoji/purple-circle.svg" x="169.15200000000002" y="325.7827065990918" width="7.296000000000001" height="7.296000000000001"/><image href="../pieces/sets/fluent-emoji/purple-circle.svg" x="193.15200000000002" y="325.7827065990918" width="7.296000000000001" height="7.296000000000001"/><image href="../pieces/sets/fluent-emoji/purple-circle.svg" x="133.15200000000002" y="346.5673162899183" width="7.296000000000001" height="7.296000000000001"/><image href="../pieces/sets/fluent-emoji/purple-circle.svg" x="157.15200000000002" y="346.5673162899183" width="7.296000000000001" height="7.296000000000001"/><image href="../pieces/sets/fluent-emoji/purple-circle.svg" x="181.15200000000002" y="346.5673162899183" width="7.296000000000001" height="7.296000000000001"/><image href="../pieces/sets/fluent-emoji/purple-circle.svg" x="205.15200000000002" y="346.5673162899183" width="7.296000000000001" height="7.296000000000001"/><image href="../pieces/sets/fluent-emoji/brown-circle.svg" x="133.15200000000002" y="180.29043876330613" width="7.296000000000001" height="7.296000000000001"/><image href="../pieces/sets/fluent-emoji/brown-circle.svg" x="157.15200000000002" y="180.29043876330613" width="7.296000000000001" height="7.296000000000001"/><image href="../pieces/sets/fluent-emoji/brown-circle.svg" x="181.15200000000002" y="180.29043876330613" width="7.296000000000001" height="7.296000000000001"/><image href="../pieces/sets/fluent-emoji/brown-circle.svg" x="205.15200000000002" y="180.29043876330613" width="7.296000000000001" height="7.296000000000001"/><image href="../pieces/sets/fluent-emoji/brown-circle.svg" x="145.15200000000002" y="201.07504845413266" width="7.296000000000001" height="7.296000000000001"/><image href="../pieces/sets/fluent-emoji/brown-circle.svg" x="169.15200000000002" y="201.07504845413266" width="7.296000000000001" height="7.296000000000001"/><image href="../pieces/sets/fluent-emoji/brown-circle.svg" x="193.15200000000002" y="201.07504845413266" width="7.296000000000001" height="7.296000000000001"/><image href="../pieces/sets/fluent-emoji/brown-circle.svg" x="157.15200000000002" y="221.85965814495918" width="7.296000000000001" height="7.296000000000001"/><image href="../pieces/sets/fluent-emoji/brown-circle.svg" x="181.15200000000002" y="221.85965814495918" width="7.296000000000001" height="7.296000000000001"/><image href="../pieces/sets/fluent-emoji/brown-circle.svg" x="169.15200000000002" y="242.6442678357857" width="7.296000000000001" height="7.296000000000001"/><g font-family="sans-serif" font-size="10" fill="rgba(255,255,255,0.7)" font-weight="600" text-anchor="middle"><text x="280.8" y="55.56487752661221">N</text><text x="280.8" y="483.58887752661224">S</text><text x="469.12" y="174.35687752661224">NE</text><text x="92.48000000000002" y="174.35687752661224">NW</text><text x="469.12" y="367.6928775266123">SE</text><text x="92.48000000000002" y="367.6928775266123">SW</text></g>
</svg>