<svg xmlns="http://www.w3.org/2000/svg" viewBox="0 0 348 348" width="348" height="348">

<rect x="24" y="24" width="50" height="50" fill="#d9c5a0" data-sq="a6" class="board-cell"/><rect x="74" y="24" width="50" height="50" fill="#d9c5a0" data-sq="b6" class="board-cell"/><rect x="124" y="24" width="50" height="50" fill="#d9c5a0" data-sq="c6" class="board-cell"/><rect x="174" y="24" width="50" height="50" fill="#d9c5a0" data-sq="d6" class="board-cell"/><rect x="224" y="24" width="50" height="50" fill="#d9c5a0" data-sq="e6" class="board-cell"/><rect x="274" y="24" width="50" height="50" fill="#d9c5a0" data-sq="f6" class="board-cell"/><rect x="24" y="74" width="50" height="50" fill="#d9c5a0" data-sq="a5" class="board-cell"/><rect x="74" y="74" width="50" height="50" fill="#d9c5a0" data-sq="b5" class="board-cell"/><rect x="124" y="74" width="50" height="50" fill="#d9c5a0" data-sq="c5" class="board-cell"/><rect x="174" y="74" width="50" height="50" fill="#d9c5a0" data-sq="d5" class="board-cell"/><rect x="224" y="74" width="50" height="50" fill="#d9c5a0" data-sq="e5" class="board-cell"/><rect x="274" y="74" width="50" height="50" fill="#d9c5a0" data-sq="f5" class="board-cell"/><rect x="24" y="124" width="50" height="50" fill="#d9c5a0" data-sq="a4" class="board-cell"/><rect x="74" y="124" width="50" height="50" fill="#d9c5a0" data-sq="b4" class="board-cell"/><rect x="124" y="124" width="50" height="50" fill="#d9c5a0" data-sq="c4" class="board-cell"/><rect x="174" y="124" width="50" height="50" fill="#d9c5a0" data-sq="d4" class="board-cell"/><rect x="224" y="124" width="50" height="50" fill="#d9c5a0" data-sq="e4" class="board-cell"/><rect x="274" y="124" width="50" height="50" fill="#d9c5a0" data-sq="f4" class="board-cell"/><rect x="24" y="174" width="50" height="50" fill="#d9c5a0" data-sq="a3" class="board-cell"/><rect x="74" y="174" width="50" height="50" fill="#d9c5a0" data-sq="b3" class="board-cell"/><rect x="124" y="174" width="50" height="50" fill="#d9c5a0" data-sq="c3" class="board-cell"/><rect x="174" y="174" width="50" height="50" fill="#d9c5a0" data-sq="d3" class="board-cell"/><rect x="224" y="174" width="50" height="50" fill="#d9c5a0" data-sq="e3" class="board-cell"/><rect x="274" y="174" width="50" height="50" fill="#d9c5a0" data-sq="f3" class="board-cell"/><rect x="24" y="224" width="50" height="50" fill="#d9c5a0" data-sq="a2" class="board-cell"/><rect x="74" y="224" width="50" height="50" fill="#d9c5a0" data-sq="b2" class="board-cell"/><rect x="124" y="224" width="50" height="50" fill="#d9c5a0" data-sq="c2" class="board-cell"/><rect x="174" y="224" width="50" height="50" fill="#d9c5a0" data-sq="d2" class="board-cell"/><rect x="224" y="224" width="50" height="50" fill="#d9c5a0" data-sq="e2" class="board-cell"/><rect x="274" y="224" width="50" height="50" fill="#d9c5a0" data-sq="f2" class="board-cell"/><rect x="24" y="274" width="50" height="50" fill="#d9c5a0" data-sq="a1" class="board-cell"/><rect x="74" y="274" width="50" height="50" fill="#d9c5a0" data-sq="b1" class="board-cell"/><rect x="124" y="274" width="50" height="50" fill="#d9c5a0" data-sq="c1" class="board-cell"/><rect x="174" y="274" width="50" height="50" fill="#d9c5a0" data-sq="d1" class="board-cell"/><rect x="224" y="274" width="50" height="50" fill="#d9c5a0" data-sq="e1" class="board-cell"/><rect x="274" y="274" width="50" height="50" fill="#d9c5a0" data-sq="f1" class="board-cell"/><line x1="49" y1="49" x2="299" y2="49" stroke="#8b7355" stroke-width="2"/><line x1="49" y1="99" x2="299" y2="99" stroke="#8b7355" stroke-width="2"/><line x1="49" y1="149" x2="299" y2="149" stroke="#8b7355" stroke-width="2"/><line x1="49" y1="199" x2="299" y2="199" stroke="#8b7355" stroke-width="2"/><line x1="49" y1="249" x2="299" y2="249" stroke="#8b7355" stroke-width="2"/><line x1="49" y1="299" x2="299" y2="299" stroke="#8b7355" stroke-width="2"/><line x1="49" y1="49" x2="49" y2="299" stroke="#8b7355" stroke-width="2"/><line x1="99" y1="49" x2="99" y2="299" stroke="#8b7355" stroke-width="2"/><line x1="149" y1="49" x2="149" y2="299" stroke="#8b7355" stroke-width="2"/><line x1="199" y1="49" x2="199" y2="299" stroke="#8b7355" stroke-width="2"/><line x1="249" y1="49" x2="249" y2="299" stroke="#8b7355" stroke-width="2"/><line x1="299" y1="49" x2="299" y2="299" stroke="#8b7355" stroke-width="2"/><path d="M 50 100 A 50 50 0 0 1 100 50" fill="none" stroke="#8b6914" stroke-width="2" stroke-linecap="round"/><path d="M 150 100 A 50 50 0 0 1 200 50" fill="none" stroke="#8b6914" stroke-width="2" stroke-linecap="round"/><path d="M 150 200 A 50 50 0 0 1 200 150" fill="none" stroke="#8b6914" stroke-width="2" stroke-linecap="round"/><path d="M 50 200 A 50 50 0 0 1 100 150" fill="none" stroke="#8b6914" stroke-width="2" stroke-linecap="round"/><path d="M -50 50 A 100 100 0 0 1 50 -50" fill="none" stroke="#8b6914" stroke-width="2" stroke-linecap="round"/><path d="M 150 50 A 100 100 0 0 1 250 -50" fill="none" stroke="#8b6914" stroke-width="2" stroke-linecap="round"/><path d="M 150 250 A 100 100 0 0 1 250 150" fill="none" stroke="#8b6914" stroke-width="2" stroke-linecap="round"/><path d="M -50 250 A 100 100 0 0 1 50 150" fill="none" stroke="#8b6914" stroke-width="2" stroke-linecap="round"/>
<g pointer-events="none"><image href="../pieces/sets/playstrategy-go-classic/bS.svg" x="24" y="24" width="50" height="50" pointer-events="none"/><image href="../pieces/sets/playstrategy-go-classic/bS.svg" x="74" y="24" width="50" height="50" pointer-events="none"/><image href="../pieces/sets/playstrategy-go-classic/bS.svg" x="124" y="24" width="50" height="50" pointer-events="none"/><image href="../pieces/sets/playstrategy-go-classic/bS.svg" x="174" y="24" width="50" height="50" pointer-events="none"/><image href="../pieces/sets/playstrategy-go-classic/bS.svg" x="224" y="24" width="50" height="50" pointer-events="none"/><image href="../pieces/sets/playstrategy-go-classic/bS.svg" x="274" y="24" width="50" height="50" pointer-events="none"/><image href="../pieces/sets/playstrategy-go-classic/bS.svg" x="24" y="74" width="50" height="50" pointer-events="none"/><image href="../pieces/sets/playstrategy-go-classic/bS.svg" x="74" y="74" width="50" height="50" pointer-events="none"/><image href="../pieces/sets/playstrategy-go-classic/bS.svg" x="124" y="74" width="50" height="50" pointer-events="none"/><image href="../pieces/sets/playstrategy-go-classic/bS.svg" x="174" y="74" width="50" height="50" pointer-events="none"/><image href="../pieces/sets/playstrategy-go-classic/bS.svg" x="224" y="74" width="50" height="50" pointer-events="none"/><image href="../pieces/sets/playstrategy-go-classic/bS.svg" x="274" y="74" width="50" height="50" pointer-events="none"/><image href="../pieces/sets/playstrategy-go-classic/wS.svg" x="24" y="224" width="50" height="50" pointer-events="none"/><image href="../pieces/sets/playstrategy-go-classic/wS.svg" x="74" y="224" width="50" height="50" pointer-events="none"/><image href="../pieces/sets/playstrategy-go-classic/wS.svg" x="124" y="224" width="50" height="50" pointer-events="none"/><image href="../pieces/sets/playstrategy-go-classic/wS.svg" x="174" y="224" width="50" height="50" pointer-events="none"/><image href="../pieces/sets/playstrategy-go-classic/wS.svg" x="224" y="224" width="50" height="50" pointer-events="none"/><image href="../pieces/sets/playstrategy-go-classic/wS.svg" x="274" y="224" width="50" height="50" pointer-events="none"/><image href="../pieces/sets/playstrategy-go-classic/wS.svg" x="24" y="274" width="50" height="50" pointer-events="none"/><image href="../pieces/sets/playstrategy-go-classic/wS.svg" x="74" y="274" width="50" height="50" pointer-events="none"/><image href="../pieces/sets/playstrategy-go-classic/wS.svg" x="124" y="274" width="50" height="50" pointer-events="none"/><image href="../pieces/sets/playstrategy-go-classic/wS.svg" x="174" y="274" width="50" height="50" pointer-events="none"/><image href="../pieces/sets/playstrategy-go-classic/wS.svg" x="224" y="274" width="50" height="50" pointer-events="none"/><image href="../pieces/sets/playstrategy-go-classic/wS.svg" x="274" y="274" width="50" height="50" pointer-events="none"/></g>
<text x="49" y="339.6" text-anchor="middle" font-size="13" fill="#5c3a1e" font-family="monospace">a</text><text x="99" y="339.6" text-anchor="middle" font-size="13" fill="#5c3a1e" font-family="monospace">b</text><text x="149" y="339.6" text-anchor="middle" font-size="13" fill="#5c3a1e" font-family="monospace">c</text><text x="199" y="339.6" text-anchor="middle" font-size="13" fill="#5c3a1e" font-family="monospace">d</text><text x="249" y="339.6" text-anchor="middle" font-size="13" fill="#5c3a1e" font-family="monospace">e</text><text x="299" y="339.6" text-anchor="middle" font-size="13" fill="#5c3a1e" font-family="monospace">f</text><text x="12" y="53.55" text-anchor="middle" font-size="13" fill="#5c3a1e" font-family="monospace">6</text><text x="12" y="103.55" text-anchor="middle" font-size="13" fill="#5c3a1e" font-family="monospace">5</text><text x="12" y="153.55" text-anchor="middle" font-size="13" fill="#5c3a1e" font-family="monospace">4</text><text x="12" y="203.55" text-anchor="middle" font-size="13" fill="#5c3a1e" font-family="monospace">3</text><text x="12" y="253.55" text-anchor="middle" font-size="13" fill="#5c3a1e" font-family="monospace">2</text><text x="12" y="303.55" text-anchor="middle" font-size="13" fill="#5c3a1e" font-family="monospace">1</text>
</svg>