<svg xmlns="http://www.w3.org/2000/svg" viewBox="0 0 280 280" width="280" height="280">

<rect x="0" y="0" width="40" height="40" fill="#f5deb3" data-sq="a7" class="board-cell"/><rect x="40" y="0" width="40" height="40" fill="#f5deb3" data-sq="b7" class="board-cell"/><rect x="80" y="0" width="40" height="40" fill="#f5deb3" data-sq="c7" class="board-cell"/><rect x="120" y="0" width="40" height="40" fill="#f5deb3" data-sq="d7" class="board-cell"/><rect x="160" y="0" width="40" height="40" fill="#f5deb3" data-sq="e7" class="board-cell"/><rect x="200" y="0" width="40" height="40" fill="#f5deb3" data-sq="f7" class="board-cell"/><rect x="240" y="0" width="40" height="40" fill="#f5deb3" data-sq="g7" class="board-cell"/><rect x="0" y="40" width="40" height="40" fill="#f5deb3" data-sq="a6" class="board-cell"/><rect x="40" y="40" width="40" height="40" fill="#f5deb3" data-sq="b6" class="board-cell"/><rect x="80" y="40" width="40" height="40" fill="#f5deb3" data-sq="c6" class="board-cell"/><rect x="120" y="40" width="40" height="40" fill="#f5deb3" data-sq="d6" class="board-cell"/><rect x="160" y="40" width="40" height="40" fill="#f5deb3" data-sq="e6" class="board-cell"/><rect x="200" y="40" width="40" height="40" fill="#f5deb3" data-sq="f6" class="board-cell"/><rect x="240" y="40" width="40" height="40" fill="#f5deb3" data-sq="g6" class="board-cell"/><rect x="0" y="80" width="40" height="40" fill="#f5deb3" data-sq="a5" class="board-cell"/><rect x="40" y="80" width="40" height="40" fill="#f5deb3" data-sq="b5" class="board-cell"/><rect x="80" y="80" width="40" height="40" fill="#f5deb3" data-sq="c5" class="board-cell"/><rect x="120" y="80" width="40" height="40" fill="#f5deb3" data-sq="d5" class="board-cell"/><rect x="160" y="80" width="40" height="40" fill="#f5deb3" data-sq="e5" class="board-cell"/><rect x="200" y="80" width="40" height="40" fill="#f5deb3" data-sq="f5" class="board-cell"/><rect x="240" y="80" width="40" height="40" fill="#f5deb3" data-sq="g5" class="board-cell"/><rect x="0" y="120" width="40" height="40" fill="#f5deb3" data-sq="a4" class="board-cell"/><rect x="40" y="120" width="40" height="40" fill="#f5deb3" data-sq="b4" class="board-cell"/><rect x="80" y="120" width="40" height="40" fill="#f5deb3" data-sq="c4" class="board-cell"/><rect x="120" y="120" width="40" height="40" fill="#f5deb3" data-sq="d4" class="board-cell"/><rect x="160" y="120" width="40" height="40" fill="#f5deb3" data-sq="e4" class="board-cell"/><rect x="200" y="120" width="40" height="40" fill="#f5deb3" data-sq="f4" class="board-cell"/><rect x="240" y="120" width="40" height="40" fill="#f5deb3" data-sq="g4" class="board-cell"/><rect x="0" y="160" width="40" height="40" fill="#f5deb3" data-sq="a3" class="board-cell"/><rect x="40" y="160" width="40" height="40" fill="#f5deb3" data-sq="b3" class="board-cell"/><rect x="80" y="160" width="40" height="40" fill="#f5deb3" data-sq="c3" class="board-cell"/><rect x="120" y="160" width="40" height="40" fill="#f5deb3" data-sq="d3" class="board-cell"/><rect x="160" y="160" width="40" height="40" fill="#f5deb3" data-sq="e3" class="board-cell"/><rect x="200" y="160" width="40" height="40" fill="#f5deb3" data-sq="f3" class="board-cell"/><rect x="240" y="160" width="40" height="40" fill="#f5deb3" data-sq="g3" class="board-cell"/><rect x="0" y="200" width="40" height="40" fill="#f5deb3" data-sq="a2" class="board-cell"/><rect x="40" y="200" width="40" height="40" fill="#f5deb3" data-sq="b2" class="board-cell"/><rect x="80" y="200" width="40" height="40" fill="#f5deb3" data-sq="c2" class="board-cell"/><rect x="120" y="200" width="40" height="40" fill="#f5deb3" data-sq="d2" class="board-cell"/><rect x="160" y="200" width="40" height="40" fill="#f5deb3" data-sq="e2" class="board-cell"/><rect x="200" y="200" width="40" height="40" fill="#f5deb3" data-sq="f2" class="board-cell"/><rect x="240" y="200" width="40" height="40" fill="#f5deb3" data-sq="g2" class="board-cell"/><rect x="0" y="240" width="40" height="40" fill="#f5deb3" data-sq="a1" class="board-cell"/><rect x="40" y="240" width="40" height="40" fill="#f5deb3" data-sq="b1" class="board-cell"/><rect x="80" y="240" width="40" height="40" fill="#f5deb3" data-sq="c1" class="board-cell"/><rect x="120" y="240" width="40" height="40" fill="#f5deb3" data-sq="d1" class="board-cell"/><rect x="160" y="240" width="40" height="40" fill="#f5deb3" data-sq="e1" class="board-cell"/><rect x="200" y="240" width="40" height="40" fill="#f5deb3" data-sq="f1" class="board-cell"/><rect x="240" y="240" width="40" height="40" fill="#f5deb3" data-sq="g1" class="board-cell"/><line x1="20" y1="20" x2="260" y2="20" stroke="#4a3520" stroke-width="2"/><line x1="20" y1="60" x2="260" y2="60" stroke="#4a3520" stroke-width="2"/><line x1="20" y1="100" x2="260" y2="100" stroke="#4a3520" stroke-width="2"/><line x1="20" y1="140" x2="260" y2="140" stroke="#4a3520" stroke-width="2"/><line x1="20" y1="180" x2="260" y2="180" stroke="#4a3520" stroke-width="2"/><line x1="20" y1="220" x2="260" y2="220" stroke="#4a3520" stroke-width="2"/><line x1="20" y1="260" x2="260" y2="260" stroke="#4a3520" stroke-width="2"/><line x1="20" y1="20" x2="20" y2="260" stroke="#4a3520" stroke-width="2"/><line x1="60" y1="20" x2="60" y2="260" stroke="#4a3520" stroke-width="2"/><line x1="100" y1="20" x2="100" y2="260" stroke="#4a3520" stroke-width="2"/><line x1="140" y1="20" x2="140" y2="260" stroke="#4a3520" stroke-width="2"/><line x1="180" y1="20" x2="180" y2="260" stroke="#4a3520" stroke-width="2"/><line x1="220" y1="20" x2="220" y2="260" stroke="#4a3520" stroke-width="2"/><line x1="260" y1="20" x2="260" y2="260" stroke="#4a3520" stroke-width="2"/>
<g pointer-events="none"><image href="../pieces/sets/mce-xiangqi-trad/bR.svg" x="0" y="0" width="40" height="40" pointer-events="none"/><image href="../pieces/sets/mce-xiangqi-trad/bC.svg" x="40" y="0" width="40" height="40" pointer-events="none"/><image href="../pieces/sets/mce-xiangqi-trad/bN.svg" x="80" y="0" width="40" height="40" pointer-events="none"/><image href="../pieces/sets/mce-xiangqi-trad/bK.svg" x="120" y="0" width="40" height="40" pointer-events="none"/><image href="../pieces/sets/mce-xiangqi-trad/bN.svg" x="160" y="0" width="40" height="40" pointer-events="none"/><image href="../pieces/sets/mce-xiangqi-trad/bC.svg" x="200" y="0" width="40" height="40" pointer-events="none"/><image href="../pieces/sets/mce-xiangqi-trad/bR.svg" x="240" y="0" width="40" height="40" pointer-events="none"/><image href="../pieces/sets/mce-xiangqi-trad/bP.svg" x="0" y="40" width="40" height="40" pointer-events="none"/><image href="../pieces/sets/mce-xiangqi-trad/bP.svg" x="80" y="40" width="40" height="40" pointer-events="none"/><image href="../pieces/sets/mce-xiangqi-trad/bP.svg" x="120" y="40" width="40" height="40" pointer-events="none"/><image href="../pieces/sets/mce-xiangqi-trad/bP.svg" x="160" y="40" width="40" height="40" pointer-events="none"/><image href="../pieces/sets/mce-xiangqi-trad/bP.svg" x="240" y="40" width="40" height="40" pointer-events="none"/><image href="../pieces/sets/mce-xiangqi-trad/rP.svg" x="0" y="200" width="40" height="40" pointer-events="none"/><image href="../pieces/sets/mce-xiangqi-trad/rP.svg" x="80" y="200" width="40" height="40" pointer-events="none"/><image href="../pieces/sets/mce-xiangqi-trad/rP.svg" x="120" y="200" width="40" height="40" pointer-events="none"/><image href="../pieces/sets/mce-xiangqi-trad/rP.svg" x="160" y="200" width="40" height="40" pointer-events="none"/><image href="../pieces/sets/mce-xiangqi-trad/rP.svg" x="240" y="200" width="40" height="40" pointer-events="none"/><image href="../pieces/sets/mce-xiangqi-trad/rR.svg" x="0" y="240" width="40" height="40" pointer-events="none"/><image href="../pieces/sets/mce-xiangqi-trad/rC.svg" x="40" y="240" width="40" height="40" pointer-events="none"/><image href="../pieces/sets/mce-xiangqi-trad/rN.svg" x="80" y="240" width="40" height="40" pointer-events="none"/><image href="../pieces/sets/mce-xiangqi-trad/rK.svg" x="120" y="240" width="40" height="40" pointer-events="none"/><image href="../pieces/sets/mce-xiangqi-trad/rN.svg" x="160" y="240" width="40" height="40" pointer-events="none"/><image href="../pieces/sets/mce-xiangqi-trad/rC.svg" x="200" y="240" width="40" height="40" pointer-events="none"/><image href="../pieces/sets/mce-xiangqi-trad/rR.svg" x="240" y="240" width="40" height="40" pointer-events="none"/></g>
</svg>