<svg xmlns="http://www.w3.org/2000/svg" width="400" height="460" viewBox="0 0 400 460">
<title>Chaupar — cross-shaped board layout</title>
<rect width="400" height="460" fill="#f5f5fb"/>
<text x="200" y="26" font-family="sans-serif" font-size="13" font-weight="700" fill="#0f1430" text-anchor="middle">CHAUPAR</text>

<!-- TOP ARM: cols 8,9,10 (x=170,190,210); rows 0-7 (y=40..180) -->
<!-- col 8 -->
<rect x="170" y="40" width="20" height="20" fill="#d4d8f0" stroke="#2d3a8c" stroke-width="1"/>
<rect x="170" y="60" width="20" height="20" fill="#d4d8f0" stroke="#2d3a8c" stroke-width="1"/>
<rect x="170" y="80" width="20" height="20" fill="#d4d8f0" stroke="#2d3a8c" stroke-width="1"/>
<rect x="170" y="100" width="20" height="20" fill="#d4d8f0" stroke="#2d3a8c" stroke-width="1"/>
<rect x="170" y="120" width="20" height="20" fill="#d4d8f0" stroke="#2d3a8c" stroke-width="1"/>
<rect x="170" y="140" width="20" height="20" fill="#d4d8f0" stroke="#2d3a8c" stroke-width="1"/>
<rect x="170" y="160" width="20" height="20" fill="#d4d8f0" stroke="#2d3a8c" stroke-width="1"/>
<rect x="170" y="180" width="20" height="20" fill="#d4d8f0" stroke="#2d3a8c" stroke-width="1"/>
<!-- col 9 (middle) -->
<rect x="190" y="40" width="20" height="20" fill="#d4d8f0" stroke="#2d3a8c" stroke-width="1"/>
<rect x="190" y="60" width="20" height="20" fill="#d4d8f0" stroke="#2d3a8c" stroke-width="1"/>
<rect x="190" y="80" width="20" height="20" fill="#d4d8f0" stroke="#2d3a8c" stroke-width="1"/>
<rect x="190" y="100" width="20" height="20" fill="#d4d8f0" stroke="#2d3a8c" stroke-width="1"/>
<rect x="190" y="120" width="20" height="20" fill="#d4d8f0" stroke="#2d3a8c" stroke-width="1"/>
<rect x="190" y="140" width="20" height="20" fill="#d4d8f0" stroke="#2d3a8c" stroke-width="1"/>
<rect x="190" y="160" width="20" height="20" fill="#d4d8f0" stroke="#2d3a8c" stroke-width="1"/>
<rect x="190" y="180" width="20" height="20" fill="#d4d8f0" stroke="#2d3a8c" stroke-width="1"/>
<!-- col 10 -->
<rect x="210" y="40" width="20" height="20" fill="#d4d8f0" stroke="#2d3a8c" stroke-width="1"/>
<rect x="210" y="60" width="20" height="20" fill="#d4d8f0" stroke="#2d3a8c" stroke-width="1"/>
<rect x="210" y="80" width="20" height="20" fill="#d4d8f0" stroke="#2d3a8c" stroke-width="1"/>
<rect x="210" y="100" width="20" height="20" fill="#d4d8f0" stroke="#2d3a8c" stroke-width="1"/>
<rect x="210" y="120" width="20" height="20" fill="#d4d8f0" stroke="#2d3a8c" stroke-width="1"/>
<rect x="210" y="140" width="20" height="20" fill="#d4d8f0" stroke="#2d3a8c" stroke-width="1"/>
<rect x="210" y="160" width="20" height="20" fill="#d4d8f0" stroke="#2d3a8c" stroke-width="1"/>
<rect x="210" y="180" width="20" height="20" fill="#d4d8f0" stroke="#2d3a8c" stroke-width="1"/>

<!-- LEFT ARM: rows 8,9,10; cols 0-7 -->
<!-- row 8 -->
<rect x="10" y="200" width="20" height="20" fill="#d4d8f0" stroke="#2d3a8c" stroke-width="1"/>
<rect x="30" y="200" width="20" height="20" fill="#d4d8f0" stroke="#2d3a8c" stroke-width="1"/>
<rect x="50" y="200" width="20" height="20" fill="#d4d8f0" stroke="#2d3a8c" stroke-width="1"/>
<rect x="70" y="200" width="20" height="20" fill="#d4d8f0" stroke="#2d3a8c" stroke-width="1"/>
<rect x="90" y="200" width="20" height="20" fill="#d4d8f0" stroke="#2d3a8c" stroke-width="1"/>
<rect x="110" y="200" width="20" height="20" fill="#d4d8f0" stroke="#2d3a8c" stroke-width="1"/>
<rect x="130" y="200" width="20" height="20" fill="#d4d8f0" stroke="#2d3a8c" stroke-width="1"/>
<rect x="150" y="200" width="20" height="20" fill="#d4d8f0" stroke="#2d3a8c" stroke-width="1"/>
<!-- row 9 (middle) -->
<rect x="10" y="220" width="20" height="20" fill="#d4d8f0" stroke="#2d3a8c" stroke-width="1"/>
<rect x="30" y="220" width="20" height="20" fill="#d4d8f0" stroke="#2d3a8c" stroke-width="1"/>
<rect x="50" y="220" width="20" height="20" fill="#d4d8f0" stroke="#2d3a8c" stroke-width="1"/>
<rect x="70" y="220" width="20" height="20" fill="#d4d8f0" stroke="#2d3a8c" stroke-width="1"/>
<rect x="90" y="220" width="20" height="20" fill="#d4d8f0" stroke="#2d3a8c" stroke-width="1"/>
<rect x="110" y="220" width="20" height="20" fill="#d4d8f0" stroke="#2d3a8c" stroke-width="1"/>
<rect x="130" y="220" width="20" height="20" fill="#d4d8f0" stroke="#2d3a8c" stroke-width="1"/>
<rect x="150" y="220" width="20" height="20" fill="#d4d8f0" stroke="#2d3a8c" stroke-width="1"/>
<!-- row 10 -->
<rect x="10" y="240" width="20" height="20" fill="#d4d8f0" stroke="#2d3a8c" stroke-width="1"/>
<rect x="30" y="240" width="20" height="20" fill="#d4d8f0" stroke="#2d3a8c" stroke-width="1"/>
<rect x="50" y="240" width="20" height="20" fill="#d4d8f0" stroke="#2d3a8c" stroke-width="1"/>
<rect x="70" y="240" width="20" height="20" fill="#d4d8f0" stroke="#2d3a8c" stroke-width="1"/>
<rect x="90" y="240" width="20" height="20" fill="#d4d8f0" stroke="#2d3a8c" stroke-width="1"/>
<rect x="110" y="240" width="20" height="20" fill="#d4d8f0" stroke="#2d3a8c" stroke-width="1"/>
<rect x="130" y="240" width="20" height="20" fill="#d4d8f0" stroke="#2d3a8c" stroke-width="1"/>
<rect x="150" y="240" width="20" height="20" fill="#d4d8f0" stroke="#2d3a8c" stroke-width="1"/>

<!-- CHARKONI -->
<rect x="170" y="200" width="60" height="60" fill="#1e2050" stroke="#2d3a8c" stroke-width="1.5"/>
<line x1="190" y1="200" x2="190" y2="260" stroke="#161840" stroke-width="0.8"/>
<line x1="210" y1="200" x2="210" y2="260" stroke="#161840" stroke-width="0.8"/>
<line x1="170" y1="220" x2="230" y2="220" stroke="#161840" stroke-width="0.8"/>
<line x1="170" y1="240" x2="230" y2="240" stroke="#161840" stroke-width="0.8"/>
<text x="200" y="230" font-family="sans-serif" font-size="9" font-weight="700" fill="#d4d8f0" text-anchor="middle" dominant-baseline="middle">CHARKONI</text>

<!-- RIGHT ARM: rows 8,9,10; cols 11-18 -->
<!-- row 8 -->
<rect x="230" y="200" width="20" height="20" fill="#d4d8f0" stroke="#2d3a8c" stroke-width="1"/>
<rect x="250" y="200" width="20" height="20" fill="#d4d8f0" stroke="#2d3a8c" stroke-width="1"/>
<rect x="270" y="200" width="20" height="20" fill="#d4d8f0" stroke="#2d3a8c" stroke-width="1"/>
<rect x="290" y="200" width="20" height="20" fill="#d4d8f0" stroke="#2d3a8c" stroke-width="1"/>
<rect x="310" y="200" width="20" height="20" fill="#d4d8f0" stroke="#2d3a8c" stroke-width="1"/>
<rect x="330" y="200" width="20" height="20" fill="#d4d8f0" stroke="#2d3a8c" stroke-width="1"/>
<rect x="350" y="200" width="20" height="20" fill="#d4d8f0" stroke="#2d3a8c" stroke-width="1"/>
<rect x="370" y="200" width="20" height="20" fill="#d4d8f0" stroke="#2d3a8c" stroke-width="1"/>
<!-- row 9 (middle) -->
<rect x="230" y="220" width="20" height="20" fill="#d4d8f0" stroke="#2d3a8c" stroke-width="1"/>
<rect x="250" y="220" width="20" height="20" fill="#d4d8f0" stroke="#2d3a8c" stroke-width="1"/>
<rect x="270" y="220" width="20" height="20" fill="#d4d8f0" stroke="#2d3a8c" stroke-width="1"/>
<rect x="290" y="220" width="20" height="20" fill="#d4d8f0" stroke="#2d3a8c" stroke-width="1"/>
<rect x="310" y="220" width="20" height="20" fill="#d4d8f0" stroke="#2d3a8c" stroke-width="1"/>
<rect x="330" y="220" width="20" height="20" fill="#d4d8f0" stroke="#2d3a8c" stroke-width="1"/>
<rect x="350" y="220" width="20" height="20" fill="#d4d8f0" stroke="#2d3a8c" stroke-width="1"/>
<rect x="370" y="220" width="20" height="20" fill="#d4d8f0" stroke="#2d3a8c" stroke-width="1"/>
<!-- row 10 -->
<rect x="230" y="240" width="20" height="20" fill="#d4d8f0" stroke="#2d3a8c" stroke-width="1"/>
<rect x="250" y="240" width="20" height="20" fill="#d4d8f0" stroke="#2d3a8c" stroke-width="1"/>
<rect x="270" y="240" width="20" height="20" fill="#d4d8f0" stroke="#2d3a8c" stroke-width="1"/>
<rect x="290" y="240" width="20" height="20" fill="#d4d8f0" stroke="#2d3a8c" stroke-width="1"/>
<rect x="310" y="240" width="20" height="20" fill="#d4d8f0" stroke="#2d3a8c" stroke-width="1"/>
<rect x="330" y="240" width="20" height="20" fill="#d4d8f0" stroke="#2d3a8c" stroke-width="1"/>
<rect x="350" y="240" width="20" height="20" fill="#d4d8f0" stroke="#2d3a8c" stroke-width="1"/>
<rect x="370" y="240" width="20" height="20" fill="#d4d8f0" stroke="#2d3a8c" stroke-width="1"/>

<!-- BOTTOM ARM: cols 8,9,10; rows 11-18 -->
<!-- col 8 -->
<rect x="170" y="260" width="20" height="20" fill="#d4d8f0" stroke="#2d3a8c" stroke-width="1"/>
<rect x="170" y="280" width="20" height="20" fill="#d4d8f0" stroke="#2d3a8c" stroke-width="1"/>
<rect x="170" y="300" width="20" height="20" fill="#d4d8f0" stroke="#2d3a8c" stroke-width="1"/>
<rect x="170" y="320" width="20" height="20" fill="#d4d8f0" stroke="#2d3a8c" stroke-width="1"/>
<rect x="170" y="340" width="20" height="20" fill="#d4d8f0" stroke="#2d3a8c" stroke-width="1"/>
<rect x="170" y="360" width="20" height="20" fill="#d4d8f0" stroke="#2d3a8c" stroke-width="1"/>
<rect x="170" y="380" width="20" height="20" fill="#d4d8f0" stroke="#2d3a8c" stroke-width="1"/>
<rect x="170" y="400" width="20" height="20" fill="#d4d8f0" stroke="#2d3a8c" stroke-width="1"/>
<!-- col 9 (middle) -->
<rect x="190" y="260" width="20" height="20" fill="#d4d8f0" stroke="#2d3a8c" stroke-width="1"/>
<rect x="190" y="280" width="20" height="20" fill="#d4d8f0" stroke="#2d3a8c" stroke-width="1"/>
<rect x="190" y="300" width="20" height="20" fill="#d4d8f0" stroke="#2d3a8c" stroke-width="1"/>
<rect x="190" y="320" width="20" height="20" fill="#d4d8f0" stroke="#2d3a8c" stroke-width="1"/>
<rect x="190" y="340" width="20" height="20" fill="#d4d8f0" stroke="#2d3a8c" stroke-width="1"/>
<rect x="190" y="360" width="20" height="20" fill="#d4d8f0" stroke="#2d3a8c" stroke-width="1"/>
<rect x="190" y="380" width="20" height="20" fill="#d4d8f0" stroke="#2d3a8c" stroke-width="1"/>
<rect x="190" y="400" width="20" height="20" fill="#d4d8f0" stroke="#2d3a8c" stroke-width="1"/>
<!-- col 10 -->
<rect x="210" y="260" width="20" height="20" fill="#d4d8f0" stroke="#2d3a8c" stroke-width="1"/>
<rect x="210" y="280" width="20" height="20" fill="#d4d8f0" stroke="#2d3a8c" stroke-width="1"/>
<rect x="210" y="300" width="20" height="20" fill="#d4d8f0" stroke="#2d3a8c" stroke-width="1"/>
<rect x="210" y="320" width="20" height="20" fill="#d4d8f0" stroke="#2d3a8c" stroke-width="1"/>
<rect x="210" y="340" width="20" height="20" fill="#d4d8f0" stroke="#2d3a8c" stroke-width="1"/>
<rect x="210" y="360" width="20" height="20" fill="#d4d8f0" stroke="#2d3a8c" stroke-width="1"/>
<rect x="210" y="380" width="20" height="20" fill="#d4d8f0" stroke="#2d3a8c" stroke-width="1"/>
<rect x="210" y="400" width="20" height="20" fill="#d4d8f0" stroke="#2d3a8c" stroke-width="1"/>

<!-- Legend -->
<rect x="50" y="436" width="14" height="14" fill="#d4d8f0" stroke="#2d3a8c" stroke-width="1"/>
<text x="70" y="443" font-family="sans-serif" font-size="11" fill="#0a0d28" dominant-baseline="middle">Playing square (no castle squares)</text>
<rect x="275" y="436" width="14" height="14" fill="#1e2050" stroke="#2d3a8c" stroke-width="1"/>
<text x="295" y="443" font-family="sans-serif" font-size="11" fill="#0a0d28" dominant-baseline="middle">Charkoni</text>
</svg>
