<svg xmlns="http://www.w3.org/2000/svg" width="400" height="460" viewBox="0 0 400 460">
<title>Pachisi — cross-shaped board layout with Charkoni and castle squares</title>
<rect width="400" height="460" fill="#fdf3e7"/>
<text x="200" y="26" font-family="sans-serif" font-size="13" font-weight="700" fill="#5c1f06" text-anchor="middle">PACHISI</text>

<!-- TOP ARM: cols 8,9,10 (x=170,190,210); rows 0-7 (y=40..180) -->
<!-- col 8 -->
<rect x="170" y="40" width="20" height="20" fill="#f0d5a0" stroke="#8b6545" stroke-width="1"/>
<rect x="170" y="60" width="20" height="20" fill="#f0d5a0" stroke="#8b6545" stroke-width="1"/>
<rect x="170" y="80" width="20" height="20" fill="#f0d5a0" stroke="#8b6545" stroke-width="1"/>
<rect x="170" y="100" width="20" height="20" fill="#c0622f" stroke="#8b6545" stroke-width="1"/>
<line x1="174" y1="104" x2="186" y2="116" stroke="#fff8f0" stroke-width="1.5" stroke-linecap="round"/>
<line x1="186" y1="104" x2="174" y2="116" stroke="#fff8f0" stroke-width="1.5" stroke-linecap="round"/>
<rect x="170" y="120" width="20" height="20" fill="#f0d5a0" stroke="#8b6545" stroke-width="1"/>
<rect x="170" y="140" width="20" height="20" fill="#f0d5a0" stroke="#8b6545" stroke-width="1"/>
<rect x="170" y="160" width="20" height="20" fill="#f0d5a0" stroke="#8b6545" stroke-width="1"/>
<rect x="170" y="180" width="20" height="20" fill="#f0d5a0" stroke="#8b6545" stroke-width="1"/>
<!-- col 9 (middle) -->
<rect x="190" y="40" width="20" height="20" fill="#c0622f" stroke="#8b6545" stroke-width="1"/>
<line x1="194" y1="44" x2="206" y2="56" stroke="#fff8f0" stroke-width="1.5" stroke-linecap="round"/>
<line x1="206" y1="44" x2="194" y2="56" stroke="#fff8f0" stroke-width="1.5" stroke-linecap="round"/>
<rect x="190" y="60" width="20" height="20" fill="#f0d5a0" stroke="#8b6545" stroke-width="1"/>
<rect x="190" y="80" width="20" height="20" fill="#f0d5a0" stroke="#8b6545" stroke-width="1"/>
<rect x="190" y="100" width="20" height="20" fill="#f0d5a0" stroke="#8b6545" stroke-width="1"/>
<rect x="190" y="120" width="20" height="20" fill="#f0d5a0" stroke="#8b6545" stroke-width="1"/>
<rect x="190" y="140" width="20" height="20" fill="#f0d5a0" stroke="#8b6545" stroke-width="1"/>
<rect x="190" y="160" width="20" height="20" fill="#f0d5a0" stroke="#8b6545" stroke-width="1"/>
<rect x="190" y="180" width="20" height="20" fill="#f0d5a0" stroke="#8b6545" stroke-width="1"/>
<!-- col 10 -->
<rect x="210" y="40" width="20" height="20" fill="#f0d5a0" stroke="#8b6545" stroke-width="1"/>
<rect x="210" y="60" width="20" height="20" fill="#f0d5a0" stroke="#8b6545" stroke-width="1"/>
<rect x="210" y="80" width="20" height="20" fill="#f0d5a0" stroke="#8b6545" stroke-width="1"/>
<rect x="210" y="100" width="20" height="20" fill="#c0622f" stroke="#8b6545" stroke-width="1"/>
<line x1="214" y1="104" x2="226" y2="116" stroke="#fff8f0" stroke-width="1.5" stroke-linecap="round"/>
<line x1="226" y1="104" x2="214" y2="116" stroke="#fff8f0" stroke-width="1.5" stroke-linecap="round"/>
<rect x="210" y="120" width="20" height="20" fill="#f0d5a0" stroke="#8b6545" stroke-width="1"/>
<rect x="210" y="140" width="20" height="20" fill="#f0d5a0" stroke="#8b6545" stroke-width="1"/>
<rect x="210" y="160" width="20" height="20" fill="#f0d5a0" stroke="#8b6545" stroke-width="1"/>
<rect x="210" y="180" width="20" height="20" fill="#f0d5a0" stroke="#8b6545" stroke-width="1"/>

<!-- LEFT ARM: rows 8,9,10 (y=200,220,240); cols 0-7 (x=10..150) -->
<!-- row 8 -->
<rect x="10" y="200" width="20" height="20" fill="#f0d5a0" stroke="#8b6545" stroke-width="1"/>
<rect x="30" y="200" width="20" height="20" fill="#f0d5a0" stroke="#8b6545" stroke-width="1"/>
<rect x="50" y="200" width="20" height="20" fill="#f0d5a0" stroke="#8b6545" stroke-width="1"/>
<rect x="70" y="200" width="20" height="20" fill="#c0622f" stroke="#8b6545" stroke-width="1"/>
<line x1="74" y1="204" x2="86" y2="216" stroke="#fff8f0" stroke-width="1.5" stroke-linecap="round"/>
<line x1="86" y1="204" x2="74" y2="216" stroke="#fff8f0" stroke-width="1.5" stroke-linecap="round"/>
<rect x="90" y="200" width="20" height="20" fill="#f0d5a0" stroke="#8b6545" stroke-width="1"/>
<rect x="110" y="200" width="20" height="20" fill="#f0d5a0" stroke="#8b6545" stroke-width="1"/>
<rect x="130" y="200" width="20" height="20" fill="#f0d5a0" stroke="#8b6545" stroke-width="1"/>
<rect x="150" y="200" width="20" height="20" fill="#f0d5a0" stroke="#8b6545" stroke-width="1"/>
<!-- row 9 (middle) -->
<rect x="10" y="220" width="20" height="20" fill="#c0622f" stroke="#8b6545" stroke-width="1"/>
<line x1="14" y1="224" x2="26" y2="236" stroke="#fff8f0" stroke-width="1.5" stroke-linecap="round"/>
<line x1="26" y1="224" x2="14" y2="236" stroke="#fff8f0" stroke-width="1.5" stroke-linecap="round"/>
<rect x="30" y="220" width="20" height="20" fill="#f0d5a0" stroke="#8b6545" stroke-width="1"/>
<rect x="50" y="220" width="20" height="20" fill="#f0d5a0" stroke="#8b6545" stroke-width="1"/>
<rect x="70" y="220" width="20" height="20" fill="#f0d5a0" stroke="#8b6545" stroke-width="1"/>
<rect x="90" y="220" width="20" height="20" fill="#f0d5a0" stroke="#8b6545" stroke-width="1"/>
<rect x="110" y="220" width="20" height="20" fill="#f0d5a0" stroke="#8b6545" stroke-width="1"/>
<rect x="130" y="220" width="20" height="20" fill="#f0d5a0" stroke="#8b6545" stroke-width="1"/>
<rect x="150" y="220" width="20" height="20" fill="#f0d5a0" stroke="#8b6545" stroke-width="1"/>
<!-- row 10 -->
<rect x="10" y="240" width="20" height="20" fill="#f0d5a0" stroke="#8b6545" stroke-width="1"/>
<rect x="30" y="240" width="20" height="20" fill="#f0d5a0" stroke="#8b6545" stroke-width="1"/>
<rect x="50" y="240" width="20" height="20" fill="#f0d5a0" stroke="#8b6545" stroke-width="1"/>
<rect x="70" y="240" width="20" height="20" fill="#c0622f" stroke="#8b6545" stroke-width="1"/>
<line x1="74" y1="244" x2="86" y2="256" stroke="#fff8f0" stroke-width="1.5" stroke-linecap="round"/>
<line x1="86" y1="244" x2="74" y2="256" stroke="#fff8f0" stroke-width="1.5" stroke-linecap="round"/>
<rect x="90" y="240" width="20" height="20" fill="#f0d5a0" stroke="#8b6545" stroke-width="1"/>
<rect x="110" y="240" width="20" height="20" fill="#f0d5a0" stroke="#8b6545" stroke-width="1"/>
<rect x="130" y="240" width="20" height="20" fill="#f0d5a0" stroke="#8b6545" stroke-width="1"/>
<rect x="150" y="240" width="20" height="20" fill="#f0d5a0" stroke="#8b6545" stroke-width="1"/>

<!-- CHARKONI (center 3x3): x=170-230, y=200-260 -->
<rect x="170" y="200" width="60" height="60" fill="#8b1a1a" stroke="#8b6545" stroke-width="1.5"/>
<line x1="190" y1="200" x2="190" y2="260" stroke="#6a1212" stroke-width="0.8"/>
<line x1="210" y1="200" x2="210" y2="260" stroke="#6a1212" stroke-width="0.8"/>
<line x1="170" y1="220" x2="230" y2="220" stroke="#6a1212" stroke-width="0.8"/>
<line x1="170" y1="240" x2="230" y2="240" stroke="#6a1212" stroke-width="0.8"/>
<text x="200" y="230" font-family="sans-serif" font-size="9" font-weight="700" fill="#f0d5a0" text-anchor="middle" dominant-baseline="middle">CHARKONI</text>

<!-- RIGHT ARM: rows 8,9,10; cols 11-18 (x=230..370) -->
<!-- row 8 -->
<rect x="230" y="200" width="20" height="20" fill="#f0d5a0" stroke="#8b6545" stroke-width="1"/>
<rect x="250" y="200" width="20" height="20" fill="#f0d5a0" stroke="#8b6545" stroke-width="1"/>
<rect x="270" y="200" width="20" height="20" fill="#f0d5a0" stroke="#8b6545" stroke-width="1"/>
<rect x="290" y="200" width="20" height="20" fill="#f0d5a0" stroke="#8b6545" stroke-width="1"/>
<rect x="310" y="200" width="20" height="20" fill="#c0622f" stroke="#8b6545" stroke-width="1"/>
<line x1="314" y1="204" x2="326" y2="216" stroke="#fff8f0" stroke-width="1.5" stroke-linecap="round"/>
<line x1="326" y1="204" x2="314" y2="216" stroke="#fff8f0" stroke-width="1.5" stroke-linecap="round"/>
<rect x="330" y="200" width="20" height="20" fill="#f0d5a0" stroke="#8b6545" stroke-width="1"/>
<rect x="350" y="200" width="20" height="20" fill="#f0d5a0" stroke="#8b6545" stroke-width="1"/>
<rect x="370" y="200" width="20" height="20" fill="#f0d5a0" stroke="#8b6545" stroke-width="1"/>
<!-- row 9 (middle) -->
<rect x="230" y="220" width="20" height="20" fill="#f0d5a0" stroke="#8b6545" stroke-width="1"/>
<rect x="250" y="220" width="20" height="20" fill="#f0d5a0" stroke="#8b6545" stroke-width="1"/>
<rect x="270" y="220" width="20" height="20" fill="#f0d5a0" stroke="#8b6545" stroke-width="1"/>
<rect x="290" y="220" width="20" height="20" fill="#f0d5a0" stroke="#8b6545" stroke-width="1"/>
<rect x="310" y="220" width="20" height="20" fill="#f0d5a0" stroke="#8b6545" stroke-width="1"/>
<rect x="330" y="220" width="20" height="20" fill="#f0d5a0" stroke="#8b6545" stroke-width="1"/>
<rect x="350" y="220" width="20" height="20" fill="#f0d5a0" stroke="#8b6545" stroke-width="1"/>
<rect x="370" y="220" width="20" height="20" fill="#c0622f" stroke="#8b6545" stroke-width="1"/>
<line x1="374" y1="224" x2="386" y2="236" stroke="#fff8f0" stroke-width="1.5" stroke-linecap="round"/>
<line x1="386" y1="224" x2="374" y2="236" stroke="#fff8f0" stroke-width="1.5" stroke-linecap="round"/>
<!-- row 10 -->
<rect x="230" y="240" width="20" height="20" fill="#f0d5a0" stroke="#8b6545" stroke-width="1"/>
<rect x="250" y="240" width="20" height="20" fill="#f0d5a0" stroke="#8b6545" stroke-width="1"/>
<rect x="270" y="240" width="20" height="20" fill="#f0d5a0" stroke="#8b6545" stroke-width="1"/>
<rect x="290" y="240" width="20" height="20" fill="#f0d5a0" stroke="#8b6545" stroke-width="1"/>
<rect x="310" y="240" width="20" height="20" fill="#c0622f" stroke="#8b6545" stroke-width="1"/>
<line x1="314" y1="244" x2="326" y2="256" stroke="#fff8f0" stroke-width="1.5" stroke-linecap="round"/>
<line x1="326" y1="244" x2="314" y2="256" stroke="#fff8f0" stroke-width="1.5" stroke-linecap="round"/>
<rect x="330" y="240" width="20" height="20" fill="#f0d5a0" stroke="#8b6545" stroke-width="1"/>
<rect x="350" y="240" width="20" height="20" fill="#f0d5a0" stroke="#8b6545" stroke-width="1"/>
<rect x="370" y="240" width="20" height="20" fill="#f0d5a0" stroke="#8b6545" stroke-width="1"/>

<!-- BOTTOM ARM: cols 8,9,10; rows 11-18 (y=260..400) -->
<!-- col 8 -->
<rect x="170" y="260" width="20" height="20" fill="#f0d5a0" stroke="#8b6545" stroke-width="1"/>
<rect x="170" y="280" width="20" height="20" fill="#f0d5a0" stroke="#8b6545" stroke-width="1"/>
<rect x="170" y="300" width="20" height="20" fill="#f0d5a0" stroke="#8b6545" stroke-width="1"/>
<rect x="170" y="320" width="20" height="20" fill="#f0d5a0" stroke="#8b6545" stroke-width="1"/>
<rect x="170" y="340" width="20" height="20" fill="#c0622f" stroke="#8b6545" stroke-width="1"/>
<line x1="174" y1="344" x2="186" y2="356" stroke="#fff8f0" stroke-width="1.5" stroke-linecap="round"/>
<line x1="186" y1="344" x2="174" y2="356" stroke="#fff8f0" stroke-width="1.5" stroke-linecap="round"/>
<rect x="170" y="360" width="20" height="20" fill="#f0d5a0" stroke="#8b6545" stroke-width="1"/>
<rect x="170" y="380" width="20" height="20" fill="#f0d5a0" stroke="#8b6545" stroke-width="1"/>
<rect x="170" y="400" width="20" height="20" fill="#f0d5a0" stroke="#8b6545" stroke-width="1"/>
<!-- col 9 (middle) -->
<rect x="190" y="260" width="20" height="20" fill="#f0d5a0" stroke="#8b6545" stroke-width="1"/>
<rect x="190" y="280" width="20" height="20" fill="#f0d5a0" stroke="#8b6545" stroke-width="1"/>
<rect x="190" y="300" width="20" height="20" fill="#f0d5a0" stroke="#8b6545" stroke-width="1"/>
<rect x="190" y="320" width="20" height="20" fill="#f0d5a0" stroke="#8b6545" stroke-width="1"/>
<rect x="190" y="340" width="20" height="20" fill="#f0d5a0" stroke="#8b6545" stroke-width="1"/>
<rect x="190" y="360" width="20" height="20" fill="#f0d5a0" stroke="#8b6545" stroke-width="1"/>
<rect x="190" y="380" width="20" height="20" fill="#f0d5a0" stroke="#8b6545" stroke-width="1"/>
<rect x="190" y="400" width="20" height="20" fill="#c0622f" stroke="#8b6545" stroke-width="1"/>
<line x1="194" y1="404" x2="206" y2="416" stroke="#fff8f0" stroke-width="1.5" stroke-linecap="round"/>
<line x1="206" y1="404" x2="194" y2="416" stroke="#fff8f0" stroke-width="1.5" stroke-linecap="round"/>
<!-- col 10 -->
<rect x="210" y="260" width="20" height="20" fill="#f0d5a0" stroke="#8b6545" stroke-width="1"/>
<rect x="210" y="280" width="20" height="20" fill="#f0d5a0" stroke="#8b6545" stroke-width="1"/>
<rect x="210" y="300" width="20" height="20" fill="#f0d5a0" stroke="#8b6545" stroke-width="1"/>
<rect x="210" y="320" width="20" height="20" fill="#f0d5a0" stroke="#8b6545" stroke-width="1"/>
<rect x="210" y="340" width="20" height="20" fill="#c0622f" stroke="#8b6545" stroke-width="1"/>
<line x1="214" y1="344" x2="226" y2="356" stroke="#fff8f0" stroke-width="1.5" stroke-linecap="round"/>
<line x1="226" y1="344" x2="214" y2="356" stroke="#fff8f0" stroke-width="1.5" stroke-linecap="round"/>
<rect x="210" y="360" width="20" height="20" fill="#f0d5a0" stroke="#8b6545" stroke-width="1"/>
<rect x="210" y="380" width="20" height="20" fill="#f0d5a0" stroke="#8b6545" stroke-width="1"/>
<rect x="210" y="400" width="20" height="20" fill="#f0d5a0" stroke="#8b6545" stroke-width="1"/>

<!-- Legend -->
<rect x="36" y="432" width="14" height="14" fill="#f0d5a0" stroke="#8b6545" stroke-width="1"/>
<text x="56" y="439" font-family="sans-serif" font-size="11" fill="#2c1006" dominant-baseline="middle">Playing square</text>
<rect x="156" y="432" width="14" height="14" fill="#c0622f" stroke="#8b6545" stroke-width="1"/>
<text x="176" y="439" font-family="sans-serif" font-size="11" fill="#2c1006" dominant-baseline="middle">Castle (safe)</text>
<rect x="268" y="432" width="14" height="14" fill="#8b1a1a" stroke="#8b6545" stroke-width="1"/>
<text x="288" y="439" font-family="sans-serif" font-size="11" fill="#2c1006" dominant-baseline="middle">Charkoni (home)</text>
</svg>
