<svg xmlns="http://www.w3.org/2000/svg" viewBox="0 0 388 433" width="400" height="446" aria-label="Stern-Halma six-pointed star board, 121 holes">
  <rect width="388" height="433" fill="#f8f9fc"/>
  <polygon points="143.5,123.3 244.5,123.3 298.3,216.3 244.5,309.2 143.5,309.2 89.7,216.3" fill="#eef1f8"/>
  <polygon points="194.0,36.0 143.5,123.3 244.5,123.3" fill="#f0e0c8"/>
  <polygon points="352.0,123.3 244.5,123.3 298.3,216.3" fill="#c8e8d0"/>
  <polygon points="352.0,309.2 298.3,216.3 244.5,309.2" fill="#c8d8f0"/>
  <polygon points="194.0,396.6 244.5,309.2 143.5,309.2" fill="#f0e0c8"/>
  <polygon points="36.0,309.2 143.5,309.2 89.7,216.3" fill="#c8e8d0"/>
  <polygon points="36.0,123.3 89.7,216.3 143.5,123.3" fill="#c8d8f0"/>
  <polygon points="194.0,36.0 36.0,309.2 352.0,309.2" fill="none" stroke="#8898b8" stroke-width="1"/>
  <polygon points="194.0,396.6 36.0,123.3 352.0,123.3" fill="none" stroke="#8898b8" stroke-width="1"/>
  <circle cx="194" cy="50" r="5" fill="#2a3a5c" opacity="0.8"/>
  <circle cx="182" cy="70.8" r="5" fill="#2a3a5c" opacity="0.8"/>
  <circle cx="206" cy="70.8" r="5" fill="#2a3a5c" opacity="0.8"/>
  <circle cx="170" cy="91.6" r="5" fill="#2a3a5c" opacity="0.8"/>
  <circle cx="194" cy="91.6" r="5" fill="#2a3a5c" opacity="0.8"/>
  <circle cx="218" cy="91.6" r="5" fill="#2a3a5c" opacity="0.8"/>
  <circle cx="158" cy="112.4" r="5" fill="#2a3a5c" opacity="0.8"/>
  <circle cx="182" cy="112.4" r="5" fill="#2a3a5c" opacity="0.8"/>
  <circle cx="206" cy="112.4" r="5" fill="#2a3a5c" opacity="0.8"/>
  <circle cx="230" cy="112.4" r="5" fill="#2a3a5c" opacity="0.8"/>
  <circle cx="50" cy="133.1" r="5" fill="#2a3a5c" opacity="0.8"/>
  <circle cx="74" cy="133.1" r="5" fill="#2a3a5c" opacity="0.8"/>
  <circle cx="98" cy="133.1" r="5" fill="#2a3a5c" opacity="0.8"/>
  <circle cx="122" cy="133.1" r="5" fill="#2a3a5c" opacity="0.8"/>
  <circle cx="146" cy="133.1" r="5" fill="#2a3a5c" opacity="0.8"/>
  <circle cx="170" cy="133.1" r="5" fill="#2a3a5c" opacity="0.8"/>
  <circle cx="194" cy="133.1" r="5" fill="#2a3a5c" opacity="0.8"/>
  <circle cx="218" cy="133.1" r="5" fill="#2a3a5c" opacity="0.8"/>
  <circle cx="242" cy="133.1" r="5" fill="#2a3a5c" opacity="0.8"/>
  <circle cx="266" cy="133.1" r="5" fill="#2a3a5c" opacity="0.8"/>
  <circle cx="290" cy="133.1" r="5" fill="#2a3a5c" opacity="0.8"/>
  <circle cx="314" cy="133.1" r="5" fill="#2a3a5c" opacity="0.8"/>
  <circle cx="338" cy="133.1" r="5" fill="#2a3a5c" opacity="0.8"/>
  <circle cx="62" cy="153.9" r="5" fill="#2a3a5c" opacity="0.8"/>
  <circle cx="86" cy="153.9" r="5" fill="#2a3a5c" opacity="0.8"/>
  <circle cx="110" cy="153.9" r="5" fill="#2a3a5c" opacity="0.8"/>
  <circle cx="134" cy="153.9" r="5" fill="#2a3a5c" opacity="0.8"/>
  <circle cx="158" cy="153.9" r="5" fill="#2a3a5c" opacity="0.8"/>
  <circle cx="182" cy="153.9" r="5" fill="#2a3a5c" opacity="0.8"/>
  <circle cx="206" cy="153.9" r="5" fill="#2a3a5c" opacity="0.8"/>
  <circle cx="230" cy="153.9" r="5" fill="#2a3a5c" opacity="0.8"/>
  <circle cx="254" cy="153.9" r="5" fill="#2a3a5c" opacity="0.8"/>
  <circle cx="278" cy="153.9" r="5" fill="#2a3a5c" opacity="0.8"/>
  <circle cx="302" cy="153.9" r="5" fill="#2a3a5c" opacity="0.8"/>
  <circle cx="326" cy="153.9" r="5" fill="#2a3a5c" opacity="0.8"/>
  <circle cx="74" cy="174.7" r="5" fill="#2a3a5c" opacity="0.8"/>
  <circle cx="98" cy="174.7" r="5" fill="#2a3a5c" opacity="0.8"/>
  <circle cx="122" cy="174.7" r="5" fill="#2a3a5c" opacity="0.8"/>
  <circle cx="146" cy="174.7" r="5" fill="#2a3a5c" opacity="0.8"/>
  <circle cx="170" cy="174.7" r="5" fill="#2a3a5c" opacity="0.8"/>
  <circle cx="194" cy="174.7" r="5" fill="#2a3a5c" opacity="0.8"/>
  <circle cx="218" cy="174.7" r="5" fill="#2a3a5c" opacity="0.8"/>
  <circle cx="242" cy="174.7" r="5" fill="#2a3a5c" opacity="0.8"/>
  <circle cx="266" cy="174.7" r="5" fill="#2a3a5c" opacity="0.8"/>
  <circle cx="290" cy="174.7" r="5" fill="#2a3a5c" opacity="0.8"/>
  <circle cx="314" cy="174.7" r="5" fill="#2a3a5c" opacity="0.8"/>
  <circle cx="86" cy="195.5" r="5" fill="#2a3a5c" opacity="0.8"/>
  <circle cx="110" cy="195.5" r="5" fill="#2a3a5c" opacity="0.8"/>
  <circle cx="134" cy="195.5" r="5" fill="#2a3a5c" opacity="0.8"/>
  <circle cx="158" cy="195.5" r="5" fill="#2a3a5c" opacity="0.8"/>
  <circle cx="182" cy="195.5" r="5" fill="#2a3a5c" opacity="0.8"/>
  <circle cx="206" cy="195.5" r="5" fill="#2a3a5c" opacity="0.8"/>
  <circle cx="230" cy="195.5" r="5" fill="#2a3a5c" opacity="0.8"/>
  <circle cx="254" cy="195.5" r="5" fill="#2a3a5c" opacity="0.8"/>
  <circle cx="278" cy="195.5" r="5" fill="#2a3a5c" opacity="0.8"/>
  <circle cx="302" cy="195.5" r="5" fill="#2a3a5c" opacity="0.8"/>
  <circle cx="98" cy="216.3" r="5" fill="#2a3a5c" opacity="0.8"/>
  <circle cx="122" cy="216.3" r="5" fill="#2a3a5c" opacity="0.8"/>
  <circle cx="146" cy="216.3" r="5" fill="#2a3a5c" opacity="0.8"/>
  <circle cx="170" cy="216.3" r="5" fill="#2a3a5c" opacity="0.8"/>
  <circle cx="194" cy="216.3" r="5" fill="#2a3a5c" opacity="0.8"/>
  <circle cx="218" cy="216.3" r="5" fill="#2a3a5c" opacity="0.8"/>
  <circle cx="242" cy="216.3" r="5" fill="#2a3a5c" opacity="0.8"/>
  <circle cx="266" cy="216.3" r="5" fill="#2a3a5c" opacity="0.8"/>
  <circle cx="290" cy="216.3" r="5" fill="#2a3a5c" opacity="0.8"/>
  <circle cx="86" cy="237.1" r="5" fill="#2a3a5c" opacity="0.8"/>
  <circle cx="110" cy="237.1" r="5" fill="#2a3a5c" opacity="0.8"/>
  <circle cx="134" cy="237.1" r="5" fill="#2a3a5c" opacity="0.8"/>
  <circle cx="158" cy="237.1" r="5" fill="#2a3a5c" opacity="0.8"/>
  <circle cx="182" cy="237.1" r="5" fill="#2a3a5c" opacity="0.8"/>
  <circle cx="206" cy="237.1" r="5" fill="#2a3a5c" opacity="0.8"/>
  <circle cx="230" cy="237.1" r="5" fill="#2a3a5c" opacity="0.8"/>
  <circle cx="254" cy="237.1" r="5" fill="#2a3a5c" opacity="0.8"/>
  <circle cx="278" cy="237.1" r="5" fill="#2a3a5c" opacity="0.8"/>
  <circle cx="302" cy="237.1" r="5" fill="#2a3a5c" opacity="0.8"/>
  <circle cx="74" cy="257.8" r="5" fill="#2a3a5c" opacity="0.8"/>
  <circle cx="98" cy="257.8" r="5" fill="#2a3a5c" opacity="0.8"/>
  <circle cx="122" cy="257.8" r="5" fill="#2a3a5c" opacity="0.8"/>
  <circle cx="146" cy="257.8" r="5" fill="#2a3a5c" opacity="0.8"/>
  <circle cx="170" cy="257.8" r="5" fill="#2a3a5c" opacity="0.8"/>
  <circle cx="194" cy="257.8" r="5" fill="#2a3a5c" opacity="0.8"/>
  <circle cx="218" cy="257.8" r="5" fill="#2a3a5c" opacity="0.8"/>
  <circle cx="242" cy="257.8" r="5" fill="#2a3a5c" opacity="0.8"/>
  <circle cx="266" cy="257.8" r="5" fill="#2a3a5c" opacity="0.8"/>
  <circle cx="290" cy="257.8" r="5" fill="#2a3a5c" opacity="0.8"/>
  <circle cx="314" cy="257.8" r="5" fill="#2a3a5c" opacity="0.8"/>
  <circle cx="62" cy="278.6" r="5" fill="#2a3a5c" opacity="0.8"/>
  <circle cx="86" cy="278.6" r="5" fill="#2a3a5c" opacity="0.8"/>
  <circle cx="110" cy="278.6" r="5" fill="#2a3a5c" opacity="0.8"/>
  <circle cx="134" cy="278.6" r="5" fill="#2a3a5c" opacity="0.8"/>
  <circle cx="158" cy="278.6" r="5" fill="#2a3a5c" opacity="0.8"/>
  <circle cx="182" cy="278.6" r="5" fill="#2a3a5c" opacity="0.8"/>
  <circle cx="206" cy="278.6" r="5" fill="#2a3a5c" opacity="0.8"/>
  <circle cx="230" cy="278.6" r="5" fill="#2a3a5c" opacity="0.8"/>
  <circle cx="254" cy="278.6" r="5" fill="#2a3a5c" opacity="0.8"/>
  <circle cx="278" cy="278.6" r="5" fill="#2a3a5c" opacity="0.8"/>
  <circle cx="302" cy="278.6" r="5" fill="#2a3a5c" opacity="0.8"/>
  <circle cx="326" cy="278.6" r="5" fill="#2a3a5c" opacity="0.8"/>
  <circle cx="50" cy="299.4" r="5" fill="#2a3a5c" opacity="0.8"/>
  <circle cx="74" cy="299.4" r="5" fill="#2a3a5c" opacity="0.8"/>
  <circle cx="98" cy="299.4" r="5" fill="#2a3a5c" opacity="0.8"/>
  <circle cx="122" cy="299.4" r="5" fill="#2a3a5c" opacity="0.8"/>
  <circle cx="146" cy="299.4" r="5" fill="#2a3a5c" opacity="0.8"/>
  <circle cx="170" cy="299.4" r="5" fill="#2a3a5c" opacity="0.8"/>
  <circle cx="194" cy="299.4" r="5" fill="#2a3a5c" opacity="0.8"/>
  <circle cx="218" cy="299.4" r="5" fill="#2a3a5c" opacity="0.8"/>
  <circle cx="242" cy="299.4" r="5" fill="#2a3a5c" opacity="0.8"/>
  <circle cx="266" cy="299.4" r="5" fill="#2a3a5c" opacity="0.8"/>
  <circle cx="290" cy="299.4" r="5" fill="#2a3a5c" opacity="0.8"/>
  <circle cx="314" cy="299.4" r="5" fill="#2a3a5c" opacity="0.8"/>
  <circle cx="338" cy="299.4" r="5" fill="#2a3a5c" opacity="0.8"/>
  <circle cx="158" cy="320.2" r="5" fill="#2a3a5c" opacity="0.8"/>
  <circle cx="182" cy="320.2" r="5" fill="#2a3a5c" opacity="0.8"/>
  <circle cx="206" cy="320.2" r="5" fill="#2a3a5c" opacity="0.8"/>
  <circle cx="230" cy="320.2" r="5" fill="#2a3a5c" opacity="0.8"/>
  <circle cx="170" cy="341" r="5" fill="#2a3a5c" opacity="0.8"/>
  <circle cx="194" cy="341" r="5" fill="#2a3a5c" opacity="0.8"/>
  <circle cx="218" cy="341" r="5" fill="#2a3a5c" opacity="0.8"/>
  <circle cx="182" cy="361.8" r="5" fill="#2a3a5c" opacity="0.8"/>
  <circle cx="206" cy="361.8" r="5" fill="#2a3a5c" opacity="0.8"/>
  <circle cx="194" cy="382.6" r="5" fill="#2a3a5c" opacity="0.8"/>
  <text x="194" y="24" font-family="sans-serif" font-size="11" fill="#1c2d4a" font-weight="600" text-anchor="middle">N</text>
  <text x="194" y="413" font-family="sans-serif" font-size="11" fill="#1c2d4a" font-weight="600" text-anchor="middle">S</text>
  <text x="366" y="137" font-family="sans-serif" font-size="11" fill="#1c2d4a" font-weight="600" text-anchor="middle">NE</text>
  <text x="22" y="137" font-family="sans-serif" font-size="11" fill="#1c2d4a" font-weight="600" text-anchor="middle">NW</text>
  <text x="366" y="303" font-family="sans-serif" font-size="11" fill="#1c2d4a" font-weight="600" text-anchor="middle">SE</text>
  <text x="22" y="303" font-family="sans-serif" font-size="11" fill="#1c2d4a" font-weight="600" text-anchor="middle">SW</text>
</svg>