<svg width="16" height="16" viewBox="0 0 12 12" xmlns="http://www.w3.org/2000/svg"><path d="M3.698 7.75h-.775q.022.218.135.42.04.073.084.135zm.68 0 .555.555q.045-.062.084-.135.107-.202.13-.42Zm-.006-.282h.78q-.028-.219-.135-.426-.039-.068-.09-.13Zm-.197-.196.556-.556q-.062-.05-.13-.09-.207-.107-.426-.135Zm-.28-.006v-.769q-.22.022-.422.13-.073.038-.134.083Zm.28 1.455q.22-.023.427-.135.067-.04.135-.084l-.562-.562Zm-.471-1.253-.562-.561q-.045.067-.084.135-.113.207-.135.426Zm-.365 1.034q.061.045.134.084.202.112.421.135v-.775Zm.696-2.297q.365 0 .702.18.342.18.522.522.18.337.18.702 0 .365-.18.702-.18.337-.522.522-.337.18-.702.18-.365 0-.708-.18-.337-.185-.516-.522-.18-.337-.18-.702 0-.365.18-.702.18-.343.516-.522.343-.18.708-.18Zm3.594 1.544h-.775q.022.22.134.421.04.073.085.135zm.679 0 .556.556q.045-.062.084-.135.107-.202.13-.42Zm-.006-.28h.78q-.027-.22-.134-.427-.04-.068-.09-.13Zm-.196-.197.556-.556q-.062-.05-.13-.09-.207-.107-.426-.135Zm-.28-.006v-.769q-.22.022-.422.13-.073.038-.135.083Zm.28 1.455q.219-.023.427-.135.067-.04.134-.084l-.561-.562Zm-.472-1.253-.561-.561q-.045.067-.085.135-.112.207-.134.426ZM7.27 8.502q.062.045.135.084.202.112.421.135v-.775Zm.696-2.297q.365 0 .702.18.343.18.523.522.18.337.18.702 0 .365-.18.702-.18.337-.523.522-.337.18-.702.18-.365 0-.707-.18-.337-.185-.517-.522t-.18-.702q0-.365.18-.702.18-.343.517-.522.342-.18.707-.18Zm-1.594.225H5.63q.061.09.117.19l.045.09h.416l.045-.09q.056-.1.118-.19zm-.764.561q-.011-.034-.101-.23-.202-.37-.556-.584l-.067-.04q-.41-.213-.848-.213-.264 0-.517.079-.163.05-.325.135l1.403-5.043h2.808l1.404 5.043q-.163-.085-.326-.135-.253-.079-.517-.079-.438 0-.842.214l-.073.039q-.331.196-.522.533-.079.146-.135.281Z" style="font-size:11.5px;line-height:0;font-family:Quivira;-inkscape-font-specification:Quivira;stroke-width:.15;stroke-linecap:square;stroke-linejoin:bevel;paint-order:markers stroke fill"/></svg>