<svg width="16" height="16" viewBox="0 0 12 12" xmlns="http://www.w3.org/2000/svg"><path d="m8.246 8.114-.42-.28h-3.65l-.422.28Zm-.561-.561v-.14l-.562-.281H4.877l-.561.28v.14Zm-.393-.618.674.337v.28l.842.562v.842H3.193v-.842l.842-.561v-.281l.674-.337q-.068-.017-.253-.124-.747-.398-1.145-1.14-.399-.74-.399-1.544 0-.803.399-1.544.398-.747 1.14-1.145.746-.399 1.55-.399.802 0 1.544.399.746.398 1.145 1.145.399.741.399 1.544T8.69 5.672q-.399.74-1.14 1.14-.19.106-.258.123ZM5.72 5.643q0 .113-.028.225-.029.112-.197.112h-.112v.113h1.235V5.98h-.112q-.169 0-.197-.112-.028-.112-.028-.225V4.408h1.235q.113 0 .225.028t.112.197v.112h.113V3.51h-.113v.112q0 .168-.112.197-.112.028-.225.028H6.281V2.61q0-.112.028-.224.028-.113.197-.113h.112v-.112H5.383v.112h.112q.168 0 .197.113.028.112.028.224v1.236H4.484q-.112 0-.224-.028-.113-.029-.113-.197V3.51h-.112v1.235h.112v-.112q0-.169.113-.197.112-.028.224-.028H5.72z" style="font-size:11.5px;line-height:0;font-family:Quivira;-inkscape-font-specification:Quivira;stroke-width:.15;stroke-linecap:square;stroke-linejoin:bevel;paint-order:markers stroke fill"/></svg>