<svg width="16" height="16" viewBox="0 0 12 12" xmlns="http://www.w3.org/2000/svg"><path d="m8.959 8.142-.421-.28h-3.65l-.421.28Zm-.562-.561v-.14l-.561-.282H5.59l-.562.281v.14ZM4.304 1.982q0 .073.034.14.039.068.106.107.068.034.14.034.074 0 .141-.034.067-.04.101-.106.04-.068.04-.14 0-.074-.04-.141-.034-.068-.1-.101-.068-.04-.141-.04-.073 0-.14.04-.068.033-.107.1-.034.068-.034.141zM2.72 3.992q0 .073.034.14.04.068.107.108.067.033.14.033.073 0 .084-.033.012-.04-.039-.107-.045-.068-.045-.14 0-.074.045-.14.05-.068.04-.102-.012-.04-.085-.04-.073 0-.14.04-.068.034-.107.101-.034.067-.034.14zm4.504-1.74.893 4.767.561.28v.282l.843.561v.842H3.905v-.842l.843-.561V7.3l.561-.281V4.621q-.017-.27-.084-.337-.068-.067-.264-.078-.242-.04-1.045.5-.797.533-1.145.146-.292-.455-.292-.82 0-.365.6-.899.607-.539.647-.96.039-.421.438-.786.258-.18.572-.27.169-.05.32-.073Q4.99.601 4.95.534q-.034-.068-.034-.14 0-.074.034-.141.039-.068.106-.101.068-.04.14-.04.074 0 .141.04.068.033.101.1.04.068.04.141 0 .073-.04.14-.033.068-.1.495.128.005.392.033-.067-.572-.106-.64Q5.59.354 5.59.281q0-.073.034-.14.039-.068.106-.102Q5.798 0 5.87 0q.074 0 .141.04.067.033.101.1.04.068.04.14 0 .074-.04.141-.034.068-.101.668l.09.012q.208-.107.455-.18.522-.174 1.078-.213-.04.555-.208 1.083-.079.247-.202.46Zm.27-1.404q-.455.034-.882.174-.152.045-.28.14-.405.343-.557.72l.163.14q.034-.08.067-.14.242-.433.77-.686.27-.123.488-.168-.04.286-.241.69-.253.5-.685.741-.062.029-.14.062l.14.163q.426-.19.59-.331.162-.14.246-.292.096-.152.152-.326.135-.432.168-.887Zm-.837 4.644q-.23-.753-1.112-1.028v1.19l.505.382q.275-.325.607-.544Zm-.146.971q.331.22.606.545l.506-.382v-1.19Q6.74 5.71 6.51 6.463Zm-.764-2.909q.23.753 1.112 1.028v-1.19l-.505-.382q-.276.325-.607.544Z" style="font-size:11.5px;line-height:0;font-family:Quivira;-inkscape-font-specification:Quivira;stroke-width:.15;stroke-linecap:square;stroke-linejoin:bevel;paint-order:markers stroke fill"/></svg>