<svg width="16" height="16" viewBox="0 0 12 12" xmlns="http://www.w3.org/2000/svg"><path d="m9.136 8.114-.421-.28h-3.65l-.421.28Zm-.562-.561v-.326H5.205v.326ZM5.06 4.605q0 .584-.37 1.134-.366.55-1.034.55-.752 0-1.185-.46l-.073.095q.034.034.062.068.545.578 1.196.578.876 0 1.42-.573.546-.578.546-1.392Zm-.022-1.662q0 .073.033.14.04.067.107.107.067.033.14.033.073 0 .14-.033.068-.04.102-.107.04-.067.04-.14 0-.073-.04-.14-.034-.068-.101-.102-.068-.04-.14-.04-.074 0-.141.04-.067.034-.107.101-.033.068-.033.14zm3.818 3.532v1.078l.842.561v.842H4.082v-.842l.842-.561v-.326q-.561-.236-.696-.567-.163.04-.427.05v2.538q0 .815.062 1.056.062.247.191.348.13.107.264.107.185 0 .455-.247.275-.242.37-.28.343-.124.107.493.399.197.275.337-.118.14-.629.14-.898 0-1.42-.64-.517-.64-.517-1.96V6.52q-.303-.18-.584-.505-.034-.045-.073-.09l.168-.208q.197.236.489.36V4.464q0-.876.489-1.684.494-.814 1.246-1.275.758-.466 2.196-.466.876 0 1.544.466.674.46.971 1.27.264.74.292 1.532-.022.483-.19.932-.197.511-.506.78-.303.27-.69.27-.562 0-1.04-.297-.471-.298-.668-.753l-.05-.146-.174.124q.185.59.724.96.54.365 1.207.365.332 0 .545-.067z" style="font-size:11.5px;line-height:0;font-family:Quivira;-inkscape-font-specification:Quivira;stroke-width:.15;stroke-linecap:square;stroke-linejoin:bevel;paint-order:markers stroke fill"/></svg>