<svg width="16" height="16" viewBox="0 0 12 12" xmlns="http://www.w3.org/2000/svg"><path d="m8.246 8.114-.421-.28h-3.65l-.421.28Zm-.561-.561v-.14l-.562-.281H4.877l-.562.28v.14Zm-.393-.618.673.337v.28l.843.562v.842H3.192v-.842l.843-.561v-.281l.673-.337a1.28 1.28 0 0 1-.252-.124 2.735 2.735 0 0 1-1.146-1.14 3.217 3.217 0 0 1-.398-1.544c0-.535.133-1.05.398-1.544a2.73 2.73 0 0 1 1.14-1.145A3.25 3.25 0 0 1 6 1.039c.535 0 1.05.133 1.544.399.498.265.88.647 1.146 1.145.265.494.398 1.01.398 1.544a3.23 3.23 0 0 1-.398 1.545 2.743 2.743 0 0 1-1.14 1.14 1.38 1.38 0 0 1-.258.123Zm-.416-1.539c.052.053.1.113.14.18a.15.15 0 0 1 .017.067c0 .05-.026.1-.078.152l-.079.079.079.078.87-.87-.079-.079-.078.079c-.053.052-.103.079-.152.079a.12.12 0 0 1-.067-.023.806.806 0 0 1-.18-.135l-.87-.876.87-.876a.962.962 0 0 1 .18-.14.15.15 0 0 1 .067-.017c.049 0 .1.026.152.079l.078.078.079-.078-.87-.87-.079.078.079.079c.052.052.078.103.078.151a.15.15 0 0 1-.017.068.962.962 0 0 1-.14.18L6 3.728l-.876-.87a.806.806 0 0 1-.135-.18.12.12 0 0 1-.022-.068c0-.048.026-.099.078-.151l.079-.079-.079-.079-.87.87.079.08.078-.08c.053-.052.103-.078.152-.078a.15.15 0 0 1 .067.017.962.962 0 0 1 .18.14l.87.876-.87.876a.806.806 0 0 1-.18.135.12.12 0 0 1-.067.023c-.049 0-.1-.027-.152-.079l-.078-.079-.079.079.87.87.079-.078-.079-.079c-.052-.052-.078-.103-.078-.152a.12.12 0 0 1 .022-.067.806.806 0 0 1 .135-.18L6 4.526Z"/></svg>
