<svg width="16" height="16" viewBox="0 0 12 12" xmlns="http://www.w3.org/2000/svg"><path d="M3.698 7.75h-.775c.015.145.06.286.135.42.026.049.054.094.084.135zm.68 0 .555.555a1.146 1.146 0 0 0 .213-.556Zm-.006-.282h.78a1.288 1.288 0 0 0-.135-.426.998.998 0 0 0-.09-.13Zm-.197-.196.556-.556a.997.997 0 0 0-.13-.09 1.288 1.288 0 0 0-.426-.135Zm-.28-.006v-.769a1.146 1.146 0 0 0-.556.213zm.28 1.455a1.135 1.135 0 0 0 .562-.22l-.562-.56Zm-.471-1.253-.562-.561c-.03.045-.058.09-.084.135-.075.138-.12.28-.135.426Zm-.365 1.034c.04.03.086.058.134.084.135.075.275.12.421.135v-.775Zm.696-2.297c.243 0 .477.06.702.18.228.12.402.294.522.522.12.225.18.458.18.702 0 .243-.06.477-.18.702-.12.224-.294.398-.522.522a1.472 1.472 0 0 1-1.41 0 1.263 1.263 0 0 1-.516-.522 1.472 1.472 0 0 1-.18-.702c0-.244.06-.477.18-.702a1.22 1.22 0 0 1 .516-.522c.229-.12.464-.18.708-.18Zm3.594 1.544h-.775c.015.146.06.287.134.421.027.049.055.094.085.135zm.679 0 .556.556a1.146 1.146 0 0 0 .213-.556Zm-.006-.28h.78a1.288 1.288 0 0 0-.134-.427.997.997 0 0 0-.09-.13Zm-.196-.197.556-.556a.997.997 0 0 0-.13-.09 1.288 1.288 0 0 0-.426-.135Zm-.28-.006v-.769a1.146 1.146 0 0 0-.557.213Zm.28 1.455a1.135 1.135 0 0 0 .561-.22l-.561-.56Zm-.472-1.253-.561-.561a1.135 1.135 0 0 0-.219.562ZM7.27 8.502c.041.03.086.058.135.084.135.075.275.12.421.135v-.775Zm.696-2.297c.244 0 .478.06.702.18.229.12.403.294.523.522.12.225.18.458.18.702 0 .243-.06.477-.18.702a1.26 1.26 0 0 1-.523.522 1.472 1.472 0 0 1-1.409 0 1.263 1.263 0 0 1-.517-.522 1.472 1.472 0 0 1-.18-.702c0-.244.06-.477.18-.702a1.22 1.22 0 0 1 .517-.522 1.5 1.5 0 0 1 .707-.18Zm.427-.517-1.27-4.312H4.877L3.608 5.688a2.086 2.086 0 0 1 1.415.208c.131.071.25.156.36.253h1.235c.108-.097.23-.182.365-.253a2.054 2.054 0 0 1 1.41-.208zm-2.021.742H5.63c.04.06.08.123.117.19l.045.09h.416l.045-.09c.037-.067.077-.13.118-.19Zm-.764.561a4.222 4.222 0 0 0-.101-.23 1.517 1.517 0 0 0-.556-.584l-.067-.04a1.814 1.814 0 0 0-.848-.213 1.73 1.73 0 0 0-.517.079 1.998 1.998 0 0 0-.325.135l1.403-5.043h2.808l1.404 5.043a1.998 1.998 0 0 0-.326-.135 1.73 1.73 0 0 0-.517-.079c-.292 0-.572.071-.842.214l-.073.039c-.22.131-.395.309-.522.533a3.15 3.15 0 0 0-.135.281Zm-1.572.337a.275.275 0 0 0-.14.04.252.252 0 0 0-.107.1.31.31 0 0 0 0 .281c.026.045.062.08.106.107a.31.31 0 0 0 .281 0 .252.252 0 0 0 .101-.107.275.275 0 0 0 0-.28.22.22 0 0 0-.1-.102.275.275 0 0 0-.141-.039Zm3.93 0a.275.275 0 0 0-.14.04.252.252 0 0 0-.107.1.31.31 0 0 0 0 .281c.027.045.062.08.107.107a.31.31 0 0 0 .28 0 .252.252 0 0 0 .102-.107.275.275 0 0 0 0-.28.22.22 0 0 0-.101-.102.275.275 0 0 0-.14-.039Z" style="font-size:11.5px;line-height:0;font-family:Quivira;-inkscape-font-specification:Quivira;stroke-width:.15;stroke-linecap:square;stroke-linejoin:bevel;paint-order:markers stroke fill"/></svg>