<svg width="16" height="16" viewBox="0 0 12 12" xmlns="http://www.w3.org/2000/svg"><path d="M9.417 8.676v-.281H4.363v.28Zm-.28-.562-.422-.28h-3.65l-.421.28Zm-.562-.561v-.326h-3.37v.326Zm-3.51-2.948c0 .389-.123.767-.37 1.134-.248.367-.594.55-1.04.55-.501 0-.896-.153-1.184-.46l-.073.095c.022.023.043.045.062.068.363.385.761.578 1.196.578.584 0 1.057-.19 1.42-.573.367-.385.55-.85.55-1.392Zm-.028-1.662a.31.31 0 0 1 .034-.14.252.252 0 0 1 .106-.102.275.275 0 0 1 .281 0 .22.22 0 0 1 .101.101.275.275 0 0 1 0 .28.252.252 0 0 1-.1.108.31.31 0 0 1-.282 0 .292.292 0 0 1-.106-.107.31.31 0 0 1-.034-.14ZM3.24 8.956c0 .375.126.828.376 1.36-.075-.195-.106-.648-.095-1.36V6.71a.838.838 0 0 1-.28-.084Zm6.07-3.459c.09-.351.135-.726.135-1.123a4.42 4.42 0 0 0-.27-1.533 2.329 2.329 0 0 0-.887-1.162 2.435 2.435 0 0 0-1.415-.421c-.88 0-1.552.14-2.016.421a3.54 3.54 0 0 0-1.156 1.162 2.848 2.848 0 0 0-.46 1.533v1.758c.624.112 1.07-.047 1.336-.477.265-.43.381-.828.348-1.19h.842c.011.542-.1.986-.331 1.33-.232.34-.534.588-.904.741.134.214.314.33.539.348H8.67a2.7 2.7 0 0 0 .28-.432 2.24 2.24 0 0 1-.628.09c-.446 0-.848-.14-1.207-.421a2.068 2.068 0 0 1-.725-1.073l.174-.123a7.3 7.3 0 0 1 .05.146c.132.303.355.554.67.752.317.199.664.298 1.038.298.258 0 .49-.09.696-.27.109-.097.206-.215.292-.354Zm-6.35.579V4.464c0-.584.162-1.145.488-1.684a3.74 3.74 0 0 1 1.246-1.275c.506-.31 1.238-.466 2.196-.466.584 0 1.099.155 1.544.466.45.307.771.732.966 1.275.198.539.298 1.1.298 1.684 0 .584-.088 1.125-.264 1.623-.172.498-.365.878-.579 1.14v.326l.843.561v.842H4.082v-.842l.843-.561v-.326c-.375-.157-.607-.346-.697-.567-.108.026-.25.043-.426.05v2.538c0 .543.02.895.061 1.056.042.165.105.28.191.348a.412.412 0 0 0 .264.107c.124 0 .275-.082.455-.247.184-.161.307-.255.37-.28.229-.083.265.081.107.493.266.131.358.244.276.337-.08.094-.289.14-.63.14-.598 0-1.072-.213-1.42-.64-.344-.426-.517-1.08-.517-1.96V6.52a2.393 2.393 0 0 1-.657-.595l.169-.208c.13.158.294.278.488.36z"/></svg>
