<svg width="16" height="16" viewBox="0 0 12 12" xmlns="http://www.w3.org/2000/svg"><path d="M9.24 8.704v-.281H4.186v.28Zm-.281-.562-.421-.28h-3.65l-.421.28Zm-.562-.561v-.14l-.561-.282H5.59l-.562.281v.14ZM4.304 1.982q0-.073.034-.14.039-.068.106-.101.068-.04.14-.04.074 0 .141.04.067.033.101.1.04.068.04.141 0 .073-.04.14-.034.068-.1.107-.068.034-.141.034-.073 0-.14-.034-.068-.04-.107-.106-.034-.068-.034-.14ZM2.72 3.992q0-.073.034-.14.04-.067.107-.101.067-.04.14-.04.073 0 .084.04.012.034-.039.101-.045.067-.045.14 0 .073.045.14.05.068.04.108-.012.033-.085.033-.073 0-.14-.033-.068-.04-.107-.107-.034-.068-.034-.14Zm3.027-.438q.331-.219.607-.544l.505.382v1.19q-.882-.275-1.112-1.028ZM5.59 5.688v1.19H7q-.225-.24-.49-.415.22-.724 1.045-1.005L6.932 2.33q-.258.225-.595.354l-.14-.163q.078-.033.14-.062.432-.241.685-.74.112-.214.174-.405.011-.095.017-.185-.169.01-.332.039-.05.011-.106.028-.528.253-.77.685-.033.062-.067.14l-.163-.14q.14-.354.388-.629-.534-.056-.708-.056-.241 0-.556.09-.309.09-.567.27-.399.364-.438.786-.04.42-.64.954-.623.427-.595.696.061.382.224.635.348.387 1.151-.152.506-.337.787-.443l.1-.034q.09-.028.152-.017.197.011.354.169.163.157.163.275v.056q.842.275 1.067 1.01-.332.22-.607.545Zm1.696 1.19h.55l-.213-1.072v.82ZM7.19 2.062l.927 4.958.561.28v.282l.843.561v.842H3.905v-.842l.843-.561V7.3l.561-.281V4.621q-.017-.27-.084-.337-.068-.067-.264-.078-.242-.04-1.045.5-.797.533-1.145.146-.292-.455-.292-.82 0-.365.6-.899.607-.539.647-.96.039-.421.438-.786.258-.18.572-.27.169-.05.32-.073Q4.99.601 4.95.534q-.034-.068-.034-.14 0-.074.034-.141.039-.068.106-.101.068-.04.14-.04.074 0 .141.04.068.033.101.1.04.068.04.141 0 .073-.04.14-.033.068-.1.495.128.005.392.033-.067-.572-.106-.64Q5.59.354 5.59.281q0-.073.034-.14.039-.068.106-.102Q5.798 0 5.87 0q.074 0 .141.04.067.033.101.1.04.068.04.14 0 .074-.04.141-.034.068-.101.668.146.017.32.034.13-.056.28-.101.428-.14.882-.174-.033.455-.168.887-.056.174-.135.326Z" style="font-size:11.5px;line-height:0;font-family:Quivira;-inkscape-font-specification:Quivira;stroke-width:.15;stroke-linecap:square;stroke-linejoin:bevel;paint-order:markers stroke fill"/></svg>