<svg width="16" height="16" viewBox="0 0 12 12" xmlns="http://www.w3.org/2000/svg"><path d="M9.417 8.676v-.281H4.363v.28Zm-.281-.562-.421-.28h-3.65l-.421.28Zm-.562-.561v-.326H5.205v.326Zm-3.51-2.948q0 .584-.37 1.134-.37.55-1.039.55-.752 0-1.185-.46l-.073.095q.034.034.062.068.545.578 1.196.578.876 0 1.42-.573.551-.578.551-1.392Zm-.027-1.662q0-.073.033-.14.04-.068.107-.102.067-.04.14-.04.073 0 .14.04.068.034.102.101.04.068.04.14 0 .074-.04.14-.034.068-.101.108-.068.033-.14.033-.074 0-.141-.033-.067-.04-.107-.107-.033-.067-.033-.14ZM3.24 8.956q0 .562.376 1.36-.112-.293-.095-1.36V6.71q-.146-.016-.281-.084Zm6.07-3.459q.135-.527.135-1.123 0-.797-.27-1.533-.27-.74-.887-1.162-.612-.421-1.415-.421-1.32 0-2.016.421-.69.421-1.157 1.162-.46.736-.46 1.533v1.758q.937.168 1.336-.477.399-.646.348-1.19h.843q.016.813-.332 1.33-.348.511-.904.741.202.32.54.348H8.67q.146-.18.28-.432-.308.09-.628.09-.669 0-1.208-.421-.539-.427-.724-1.073l.174-.123q.028.078.05.146.197.455.669.752.477.298 1.039.298.387 0 .696-.27.163-.146.292-.354Zm-6.351.579V4.464q0-.876.489-1.684.494-.814 1.246-1.275.758-.466 2.196-.466.876 0 1.544.466.674.46.966 1.275.297.808.297 1.684 0 .876-.264 1.623-.258.747-.578 1.14v.326l.842.561v.842H4.082v-.842l.842-.561v-.326q-.561-.236-.696-.567-.163.04-.427.05v2.538q0 .815.062 1.056.062.247.191.348.13.107.264.107.185 0 .455-.247.275-.242.37-.28.343-.124.107.493.399.197.275.337-.118.14-.629.14-.898 0-1.42-.64-.517-.64-.517-1.96V6.52q-.303-.18-.584-.505-.034-.045-.073-.09l.168-.208q.197.236.489.36z" style="font-size:11.5px;line-height:0;font-family:Quivira;-inkscape-font-specification:Quivira;stroke-width:.15;stroke-linecap:square;stroke-linejoin:bevel;paint-order:markers stroke fill"/></svg>