<?xml version="1.0" encoding="UTF-8"?>
<svg xmlns="http://www.w3.org/2000/svg" xml:space="preserve" width="50mm" height="50mm" viewBox="0 0 50 50">
  <path fill="#900" stroke="#000" d="M22.854 10.899C11.235 7.4041 6.752 13.2573 6.752 13.2573s-.84045 5.8124 4.2869 10.53c3.305 3.041 6.4016 3.2401 7.2707 3.2401 1.3637 0 2.7212-2.1061 2.7212-2.1061M27.146 10.899c11.619-3.4949 16.102 2.3583 16.102 2.3583s.84045 5.8124-4.2869 10.53c-3.305 3.041-6.4016 3.2401-7.2707 3.2401-1.3637 0-2.7212-2.1061-2.7212-2.1061"/>
  <path fill="none" stroke="#fff" d="M8.3019 13.945c2.311-2.1359 5.6054-2.6938 8.6465-2.5391 1.2632.07643 2.512.29244 3.7462.56749M41.699 13.945c-2.311-2.1359-5.6054-2.6938-8.6465-2.5391-1.2632.076434-2.512.29244-3.7462.56749"/>
  <path fill="#fff" stroke="#000" d="M20.728 27.11s-.67329 2.1495-.67329 3.4889c0 3.9196 1.7825 5.7658 2.3091 5.5218.52658-.24401-.85337-1.315-.85337-4.8692 0-1.2892.5429-2.6698.5429-2.6698M29.272 27.11s.67329 2.1495.67329 3.4889c0 3.9196-1.7825 5.7658-2.3091 5.5218-.52658-.24401.85337-1.315.85337-4.8692 0-1.2892-.5429-2.6698-.5429-2.6698"/>
  <path fill="#900" d="M29.478 26.996c-1.0423-3.6167-.76619-5.194-.76619-5.194s1.475-1.575 2.2386-3.7639c-.65587-1.8589-.09905-4.1932-.09905-4.1932-.95759-1.6139-2.4302-3.1977-5.8518-3.1977-3.4216 0-4.8942 1.5837-5.8518 3.1977 0 0 .55682 2.3343-.09904 4.1932.76362 2.1889 2.2386 3.7639 2.2386 3.7639s.2761 1.5772-.76619 5.194c1.7351.91063 2.0202 2.2094 2.0202 2.2094.6027 3.3716 2.2371 5.5789 1.0694 7.1088-1.1677 1.53-3.0071 1.8861-5.3763 1.8322-.73853-.01682-1.6447-.48187-1.6379.36283.0069.8447-.40484.79866-.30405 1.0355.10079.23684.70395.67605 1.5566.50879 3.7659-.73872 5.2967-.31744 7.3737-2.3505 2.0769-2.0331 1.632-5.126 2.2347-8.4976 0 0 .28517-1.2988 2.0202-2.2094z"/>
  <path fill="none" stroke="#fff" d="m20.695 11.974.57586 4.2309 1.7631 5.3258"/>
  <path fill="#fff" d="M21.152 19.249s-.73102.12264-.84076-.48343c-.07639-.42202.21449-1.0255.02925-1.6346 0 0 .65245.80655.87415 1.4718.15576.46731-.06266.64615-.06266.64615zm7.696 0s.73102.12264.84075-.48342c.0764-.42202-.21448-1.0255-.02925-1.6345 0 0-.65245.80654-.87415 1.4718-.15576.46731.06266.64615.06266.64615z"/>
  <g fill="none">
    <path stroke="#000" d="M17.85 40.053c.56149-.45544.38529-1.9071.38529-1.9071M21.988 26.194l.55397 3.0117zm6.024 0-.55397 3.0117z"/>
    <path stroke="#fff" d="m29.307 11.974-.57586 4.2309-1.7631 5.3258M17.9 25.428c.8035.02383 1.4689-.70356 1.6653-1.4279.15434-1.2939.31693-2.5873.48345-3.8806M32.1 25.428c-.8035.02383-1.4689-.70356-1.6653-1.4279-.15434-1.2939-.31693-2.5873-.48345-3.8806"/>
    <path stroke="#000" d="M29.478 26.996c-1.0423-3.6167-.76619-5.194-.76619-5.194s1.475-1.575 2.2386-3.7639c-.65587-1.8589-.09905-4.1932-.09905-4.1932-.95759-1.6139-2.4302-3.1977-5.8518-3.1977-3.4216 0-4.8942 1.5837-5.8518 3.1977 0 0 .55682 2.3343-.09904 4.1932.76362 2.1889 2.2386 3.7639 2.2386 3.7639s.2761 1.5772-.76619 5.194c1.7351.91063 2.0202 2.2094 2.0202 2.2094.6027 3.3716 2.2371 5.5789 1.0694 7.1088-1.1677 1.53-3.0071 1.8861-5.3763 1.8322-.73853-.01682-1.6447-.48187-1.6379.36283.0069.8447-.40484.79866-.30405 1.0355.10079.23684.70395.67605 1.5566.50879 3.7659-.73872 5.2967-.31744 7.3737-2.3505 2.0769-2.0331 1.632-5.126 2.2347-8.4976 0 0 .28517-1.2988 2.0202-2.2094z"/>
  </g>
</svg>