<?xml version="1.0" encoding="UTF-8"?>
<!-- Created with Inkscape (http://www.inkscape.org/) -->
<svg width="50mm" height="50mm" version="1.1" viewBox="0 0 50 50" xml:space="preserve" xmlns="http://www.w3.org/2000/svg"><path d="m19.092 15.908c0-3.263 2.6452-5.9082 5.9082-5.9082 3.263 0 5.9082 2.6452 5.9082 5.9082v7.1563l4.0907 16.935h-19.998s4.0907-16.935 4.0907-16.935c-4.9123-1.4238-7.1563-5.6756-7.1563-5.6756 3.9504 0 7.1563-1.4808 7.1563-1.4808z" fill="#104010"/><g fill="none"><g stroke="#fff"><path d="m18.85 24.065h12.299"/><path d="m18.246 26.565h13.507"/><path d="m15.605 37.5 18.79-1e-6"/></g><path d="m19.092 15.908c0-3.263 2.6452-5.9082 5.9082-5.9082 3.263 0 5.9082 2.6452 5.9082 5.9082v7.1563l4.0907 16.935h-19.998s4.0907-16.935 4.0907-16.935c-4.9123-1.4238-7.1563-5.6756-7.1563-5.6756 3.9504 0 7.1563-1.4808 7.1563-1.4808z" stroke="#000"/></g></svg>
