<?xml version="1.0" encoding="UTF-8" standalone="no"?>
<!-- Created with Inkscape (http://www.inkscape.org/) -->

<svg
   width="50mm"
   height="50mm"
   viewBox="0 0 50 50"
   version="1.1"
   id="svg5"
   inkscape:version="1.2.1 (9c6d41e410, 2022-07-14)"
   sodipodi:docname="Pink_Elephant_Xogos_da_Meiga_chess_icons_family.svg"
   inkscape:export-filename="C:\Users\iagoc\Documents\Xogos da Meiga\Deseño\Pezas2D\PNG\Yellow_Bishop.png"
   inkscape:export-xdpi="975.35999"
   inkscape:export-ydpi="975.35999"
   xml:space="preserve"
   xmlns:inkscape="http://www.inkscape.org/namespaces/inkscape"
   xmlns:sodipodi="http://sodipodi.sourceforge.net/DTD/sodipodi-0.dtd"
   xmlns="http://www.w3.org/2000/svg"
   xmlns:svg="http://www.w3.org/2000/svg"><sodipodi:namedview
     id="namedview7"
     pagecolor="#ffffff"
     bordercolor="#666666"
     borderopacity="1.0"
     inkscape:pageshadow="2"
     inkscape:pageopacity="0.0"
     inkscape:pagecheckerboard="0"
     inkscape:document-units="mm"
     showgrid="false"
     width="50mm"
     showguides="true"
     inkscape:zoom="4"
     inkscape:cx="51.5"
     inkscape:cy="101"
     inkscape:window-width="1920"
     inkscape:window-height="1017"
     inkscape:window-x="-8"
     inkscape:window-y="-8"
     inkscape:window-maximized="1"
     inkscape:current-layer="layer1"
     inkscape:snap-object-midpoints="true"
     viewbox-x="0"
     viewbox-y="0"
     inkscape:lockguides="false"
     inkscape:snap-bbox="true"
     inkscape:snap-bbox-edge-midpoints="true"
     inkscape:object-nodes="true"
     inkscape:snap-others="true"
     inkscape:snap-nodes="true"
     inkscape:snap-intersection-paths="true"
     inkscape:snap-smooth-nodes="true"
     inkscape:snap-midpoints="false"
     inkscape:snap-center="true"
     inkscape:object-paths="false"
     inkscape:snap-global="true"
     inkscape:showpageshadow="2"
     inkscape:deskcolor="#d1d1d1"><sodipodi:guide
       position="50,40"
       orientation="0,1"
       id="guide9"
       inkscape:label="Top_Limit"
       inkscape:locked="false"
       inkscape:color="rgb(0,0,255)" /><sodipodi:guide
       position="40,50"
       orientation="-1,0"
       id="guide11"
       inkscape:label="Right_Limit"
       inkscape:locked="false"
       inkscape:color="rgb(0,0,255)" /><sodipodi:guide
       position="50,9.9999999"
       orientation="0,1"
       id="guide13"
       inkscape:label="Base_Limit"
       inkscape:locked="false"
       inkscape:color="rgb(0,0,255)" /><sodipodi:guide
       position="9.9999999,50"
       orientation="-1,0"
       id="guide15"
       inkscape:label="Left_Limit"
       inkscape:locked="false"
       inkscape:color="rgb(0,0,255)" /><sodipodi:guide
       position="25,50"
       orientation="-1,0"
       id="guide367"
       inkscape:label="Center"
       inkscape:locked="false"
       inkscape:color="rgb(0,0,255)" /><sodipodi:guide
       position="50,25"
       orientation="0,1"
       id="guide441"
       inkscape:label="Center"
       inkscape:locked="false"
       inkscape:color="rgb(0,0,255)" /></sodipodi:namedview><defs
     id="defs2"><inkscape:path-effect
       effect="circle_3pts"
       id="path-effect8789"
       is_visible="true"
       lpeversion="1" /><inkscape:path-effect
       effect="circle_3pts"
       id="path-effect6763"
       is_visible="true"
       lpeversion="1" /><inkscape:path-effect
       effect="line_segment"
       id="path-effect4600"
       is_visible="true"
       lpeversion="1"
       end_type="open_both" /><inkscape:path-effect
       effect="line_segment"
       id="path-effect4389"
       is_visible="true"
       lpeversion="1"
       end_type="open_both" /><inkscape:path-effect
       effect="circle_3pts"
       id="path-effect4385"
       is_visible="true"
       lpeversion="1" /></defs><g
     inkscape:label="Layer 1"
     inkscape:groupmode="layer"
     id="layer1"><path
       style="fill:#ffffff;fill-opacity:1;stroke:#000000;stroke-width:1;stroke-linecap:butt;stroke-linejoin:miter;stroke-dasharray:none;stroke-opacity:1"
       d="m 20.72814,27.109809 c 0,0 -0.673292,2.149493 -0.673292,3.488895 0,3.919645 1.782528,5.765793 2.309108,5.521776 0.526577,-0.244014 -0.853367,-1.315033 -0.853367,-4.869202 0,-1.289188 0.542895,-2.669757 0.542895,-2.669757"
       id="path5077"
       sodipodi:nodetypes="cszsc" /><path
       style="fill:#ffffff;fill-opacity:1;stroke:#000000;stroke-width:1;stroke-linecap:butt;stroke-linejoin:miter;stroke-dasharray:none;stroke-opacity:1"
       d="m 29.271866,27.109809 c 0,0 0.673292,2.149493 0.673292,3.488895 0,3.919645 -1.782528,5.765793 -2.309108,5.521776 -0.526577,-0.244014 0.853367,-1.315033 0.853367,-4.869202 0,-1.289188 -0.542895,-2.669757 -0.542895,-2.669757"
       id="path2302"
       sodipodi:nodetypes="cszsc" /><path
       style="fill:#ff007f;fill-opacity:1;stroke:#000000;stroke-width:1;stroke-linecap:butt;stroke-linejoin:miter;stroke-dasharray:none;stroke-opacity:1"
       d="M 22.853722,10.898573 C 11.23475,7.4036746 6.7521693,13.256846 6.7521693,13.256846 c 0,0 -0.8404545,5.812436 4.2868967,10.530167 3.305012,3.040975 6.401612,3.240093 7.27069,3.240093 1.363717,0 2.721199,-2.106111 2.721199,-2.106111"
       id="path4711"
       sodipodi:nodetypes="ccssc" /><path
       style="fill:#ff007f;fill-opacity:1;stroke:#000000;stroke-width:1;stroke-linecap:butt;stroke-linejoin:miter;stroke-dasharray:none;stroke-opacity:1"
       d="m 27.146285,10.898573 c 11.618972,-3.4948984 16.101553,2.358273 16.101553,2.358273 0,0 0.840454,5.812436 -4.286897,10.530167 -3.305011,3.040975 -6.401612,3.240093 -7.27069,3.240093 -1.363716,0 -2.721199,-2.106111 -2.721199,-2.106111"
       id="path5147"
       sodipodi:nodetypes="ccssc" /><path
       id="path5151"
       style="fill:#ff007f;fill-opacity:1;stroke:#000000;stroke-width:1;stroke-linecap:butt;stroke-linejoin:miter;stroke-dasharray:none;stroke-opacity:1"
       d="m 29.478359,26.995779 c -1.042288,-3.616716 -0.766188,-5.193964 -0.766188,-5.193964 0,0 1.47503,-1.57499 2.238649,-3.763871 C 30.294954,16.179032 30.85177,13.844697 30.85177,13.844697 29.894177,12.230751 28.421578,10.647029 25,10.647029 c -3.421581,0 -4.89418,1.583722 -5.851772,3.197668 0,0 0.556821,2.334335 -0.09904,4.193247 0.763619,2.188881 2.238648,3.763871 2.238648,3.763871 0,0 0.2761,1.577248 -0.766188,5.193964 1.735059,0.910629 2.020229,2.209432 2.020229,2.209432 0.602698,3.371605 2.237134,5.578889 1.069431,7.108847 -1.167703,1.529959 -3.007076,1.886127 -5.376314,1.832185 -0.738529,-0.01682 -1.644696,-0.48187 -1.637872,0.362827 0.0069,0.844697 -0.404839,0.798663 -0.304052,1.035505 0.100787,0.236843 0.703948,0.676051 1.556634,0.508786 3.765855,-0.738717 5.296747,-0.317442 7.373679,-2.350502 2.076935,-2.03306 1.63205,-5.126043 2.234747,-8.497648 0,0 0.285171,-1.298803 2.020229,-2.209432 z"
       sodipodi:nodetypes="cccccccccczszzszcc" /><path
       style="display:inline;fill:#000000;fill-opacity:1;stroke:none;stroke-width:0.680868;stroke-linecap:butt;stroke-linejoin:miter;stroke-miterlimit:4;stroke-dasharray:none;stroke-opacity:1"
       d="m 21.151728,19.248682 c 0,0 -0.731025,0.122637 -0.840755,-0.483426 -0.07639,-0.422019 0.214486,-1.025484 0.02925,-1.63455 0,0 0.652454,0.806548 0.874152,1.471829 0.155761,0.467311 -0.06266,0.646152 -0.06266,0.646152 z"
       id="path54637"
       sodipodi:nodetypes="cscsc" /><path
       style="display:inline;fill:#000000;fill-opacity:1;stroke:none;stroke-width:0.680863;stroke-linecap:butt;stroke-linejoin:miter;stroke-miterlimit:4;stroke-dasharray:none;stroke-opacity:1"
       d="m 28.848277,19.248681 c 0,0 0.731017,0.122643 0.840747,-0.483421 0.0764,-0.422016 -0.214485,-1.025476 -0.02925,-1.634536 0,0 -0.652449,0.80654 -0.874146,1.471817 -0.155756,0.467306 0.06266,0.646146 0.06266,0.646146 z"
       id="path1275"
       sodipodi:nodetypes="cscsc" /><path
       style="fill:none;stroke:#000000;stroke-width:1;stroke-linecap:butt;stroke-linejoin:miter;stroke-dasharray:none;stroke-opacity:1"
       d="m 17.849704,40.053361 c 0.561492,-0.455437 0.38529,-1.907118 0.38529,-1.907118"
       id="path5109"
       sodipodi:nodetypes="cc" /><path
       id="path4822"
       style="fill:none;stroke:#000000;stroke-width:1;stroke-linecap:butt;stroke-linejoin:miter;stroke-dasharray:none;stroke-opacity:1"
       d="m 21.987805,26.19375 0.553972,3.011702 z"
       sodipodi:nodetypes="ccc" /><path
       id="path5153"
       style="fill:none;stroke:#000000;stroke-width:1;stroke-linecap:butt;stroke-linejoin:miter;stroke-dasharray:none;stroke-opacity:1"
       d="m 28.012244,26.19375 -0.553972,3.011702 z"
       sodipodi:nodetypes="ccc" /></g></svg>
