<?xml version="1.0" encoding="UTF-8"?>
<svg xmlns="http://www.w3.org/2000/svg" xmlns:xlink="http://www.w3.org/1999/xlink" viewBox="228.709 128.527 45 45" width="45" height="45">
<g transform="translate(228.709,128.527)" id="BlackQueen">
      <g transform="translate(3.5,5.125)" id="BQ">
        <path d="M 4,2 C 4,3.10457 3.10457,4 2,4 C 0.895431,4 0,3.10457 0,2 C 0,0.895431 0.895431,0 2,0 C 3.10457,0 4,0.895431 4,2 z" transform="translate(0.5,5)" id="path5571" style="fill:#000000;stroke:#000000;stroke-width:1;stroke-linecap:round;stroke-linejoin:round" />
        <path d="M 4,2 C 4,3.10457 3.10457,4 2,4 C 0.895431,4 0,3.10457 0,2 C 0,0.895431 0.895431,0 2,0 C 3.10457,0 4,0.895431 4,2 z" transform="translate(17,0.5)" id="path5573" style="fill:#000000;stroke:#000000;stroke-width:1;stroke-linecap:round;stroke-linejoin:round" />
        <path d="M 4,2 C 4,3.10457 3.10457,4 2,4 C 0.895431,4 0,3.10457 0,2 C 0,0.895431 0.895431,0 2,0 C 3.10457,0 4,0.895431 4,2 z" transform="translate(33.5,5)" id="path5575" style="fill:#000000;stroke:#000000;stroke-width:1;stroke-linecap:round;stroke-linejoin:round" />
        <path d="M 4,2 C 4,3.10457 3.10457,4 2,4 C 0.895431,4 0,3.10457 0,2 C 0,0.895431 0.895431,0 2,0 C 3.10457,0 4,0.895431 4,2 z" transform="translate(8.5,1.5)" id="path5577" style="fill:#000000;stroke:#000000;stroke-width:1;stroke-linecap:round;stroke-linejoin:round" />
        <path d="M 4,2 C 4,3.10457 3.10457,4 2,4 C 0.895431,4 0,3.10457 0,2 C 0,0.895431 0.895431,0 2,0 C 3.10457,0 4,0.895431 4,2 z" transform="translate(25.5,2)" id="path5579" style="fill:#000000;stroke:#000000;stroke-width:1;stroke-linecap:round;stroke-linejoin:round" />
        <path d="M 2,16.5 C 10.5,15 23,15 29,16.5 L 31,4.5 L 24,15.5 L 24,1.5 L 18.5,15 L 15.5,0 L 12.5,15 L 7,1 L 7,15.5 L 0,4.5 L 2,16.5 z" transform="translate(3.5,4.5)" id="path5581" style="fill:#000000;fill-rule:evenodd;stroke:#000000;stroke-width:1;stroke-linecap:butt;stroke-linejoin:round" />
        <path d="M 0,1.125 C 0,3.125 1.5,3.125 2.5,5.125 C 3.5,6.625 3.5,6.125 3,8.625 C 1.5,9.625 1.5,11.125 1.5,11.125 C 0,12.625 2,13.625 2,13.625 C 8.5,14.625 18.5,14.625 25,13.625 C 25,13.625 26.5,12.625 25,11.125 C 25,11.125 25.5,9.625 24,8.625 C 23.5,6.125 23.5,6.625 24.5,5.125 C 25.5,3.125 27,3.125 27,1.125 C 18.5,-0.375 8.5,-0.375 0,1.125 z" transform="translate(5.5,19.875)" id="path5583" style="fill:#000000;fill-rule:evenodd;stroke:#000000;stroke-width:1;stroke-linecap:butt;stroke-linejoin:round" />
        <path d="M 0,0.75 C 3.5,-0.25 18.5,-0.25 22,0.75" transform="translate(8,24.25)" id="path5585" style="fill:none;stroke:#ffffff;stroke-width:1;stroke-linecap:round;stroke-linejoin:round" />
        <path d="M 0,0.75 C 6,-0.25 15,-0.25 21,0.75" transform="translate(8.5,27.75)" id="path5587" style="fill:none;stroke:#ffffff;stroke-width:1;stroke-linecap:round;stroke-linejoin:round" />
        <path d="M 0,0.75 C 5,-0.25 18.5,-0.25 23.5,0.75" transform="translate(7,30.25)" id="path5589" style="fill:none;stroke:#ffffff;stroke-width:1;stroke-linecap:round;stroke-linejoin:round" />
      </g>
      
    </g>
    
</svg>