<?xml version="1.0" encoding="UTF-8"?>
<svg xmlns="http://www.w3.org/2000/svg" xmlns:xlink="http://www.w3.org/1999/xlink" viewBox="283.635 128.527 45 45" width="45" height="45">
<g transform="translate(283.635,128.527)" id="BlackRook">
      <g transform="translate(8.25,6.75)" id="BR">
        <path d="M 0,3 L 27,3 L 27,0 L 0,0 L 0,3 z" transform="translate(0.75,27.75)" id="path3119" style="fill:#000000;fill-rule:evenodd;stroke:#000000;stroke-width:1.5;stroke-linecap:butt;stroke-linejoin:round" />
        <path d="M 0,2.5 L 1.5,0 L 18.5,0 L 20,2.5 L 0,2.5 z" transform="translate(4.25,21.25)" id="path3123" style="fill:#000000;fill-rule:evenodd;stroke:#000000;stroke-width:1.5;stroke-linecap:butt;stroke-linejoin:round" />
        <path d="M 0,4 L 0,0 L 21,0 L 21,4 L 0,4 z" transform="translate(3.75,23.75)" id="path3121" style="fill:#000000;fill-rule:evenodd;stroke:#000000;stroke-width:1.5;stroke-linecap:butt;stroke-linejoin:round" />
        <path d="M 0,13 L 0,0 L 17,0 L 17,13 L 0,13 z" transform="translate(5.75,8.25)" id="path3125" style="fill:#000000;fill-rule:evenodd;stroke:#000000;stroke-width:1.5;stroke-linecap:butt;stroke-linejoin:miter;stroke-miterlimit:4" />
        <path d="M 3,2.5 L 0,0 L 23,0 L 20,2.5 L 3,2.5 z" transform="translate(2.75,5.75)" id="path3127" style="fill:#000000;fill-rule:evenodd;stroke:#000000;stroke-width:1.5;stroke-linecap:butt;stroke-linejoin:round" />
        <path d="M 0,5 L 0,0 L 4,0 L 4,2 L 9,2 L 9,0 L 14,0 L 14,2 L 19,2 L 19,0 L 23,0 L 23,5 L 0,5 z" transform="translate(2.75,0.75)" id="path3129" style="fill:#000000;fill-rule:evenodd;stroke:#000000;stroke-width:1.5;stroke-linecap:butt;stroke-linejoin:round" />
        <path d="M 0,0 L 21,0 L 21,0" transform="translate(3.75,27.25)" id="path4967" style="fill:none;stroke:#ffffff;stroke-width:1;stroke-linecap:round;stroke-linejoin:miter;stroke-miterlimit:2" />
        <path d="M 0,0 L 19,0" transform="translate(4.75,23.25)" id="path4969" style="fill:none;stroke:#ffffff;stroke-width:1;stroke-linecap:round;stroke-linejoin:miter;stroke-miterlimit:2" />
        <path d="M 0,0 L 17,0" transform="translate(5.75,21.25)" id="path4971" style="fill:none;stroke:#ffffff;stroke-width:1;stroke-linecap:round;stroke-linejoin:miter;stroke-miterlimit:2" />
        <path d="M 0,0 L 17,0" transform="translate(5.75,8.25)" id="path5050" style="fill:none;stroke:#ffffff;stroke-width:1;stroke-linecap:round;stroke-linejoin:miter;stroke-miterlimit:2" />
        <path d="M 0,0 L 23,0" transform="translate(2.75,5.75)" id="path5052" style="fill:none;stroke:#ffffff;stroke-width:1;stroke-linecap:round;stroke-linejoin:miter;stroke-miterlimit:2" />
      </g>
      
    </g>
  
</svg>