<?xml version="1.0" encoding="UTF-8"?>
<svg xmlns="http://www.w3.org/2000/svg" xmlns:xlink="http://www.w3.org/1999/xlink" viewBox="118.334 75.4531 45 45" width="45" height="45">
<g transform="translate(118.334,75.4531)" id="WhiteKnight">
      <g transform="translate(5.73552,5.75)" id="WN">
        <path d="M 7,0 C 17.5,1 23.5,8 23,29 L 0,29 C 0,20 10,22.5 8,8" transform="translate(9.75,3.75)" id="path3491-7" style="fill:#ffffff;fill-rule:evenodd;stroke:#000000;stroke-width:1.5;stroke-linecap:round;stroke-linejoin:miter;stroke-miterlimit:4" />
        <path d="M 18,11 C 18.3845,13.9113 12.4471,18.3686 10,20 C 7,22 7.1808,24.3429 5,24 C 3.95828,23.056 6.41343,20.9625 5,21 C 4,21 5.18733,22.2317 4,23 C 3,23 -0.00315831,24 2.49315e-06,19 C 2.49315e-06,17 6,7 6,7 C 6,7 7.88587,5.09787 8,3.5 C 7.27396,2.50563 7.5,1.5 7.5,0.5 C 8.5,-0.5 10.5,3 10.5,3 L 12.5,3 C 12.5,3 13.2818,1.00807 15,0 C 16,0 16,3 16,3" transform="translate(0.75,0.75)" id="path3495-6" style="fill:#ffffff;fill-rule:evenodd;stroke:#000000;stroke-width:1.5;stroke-linecap:round;stroke-linejoin:round" />
        <path d="M 1,0.5 C 1,0.776142 0.776142,1 0.5,1 C 0.223858,1 0,0.776142 0,0.5 C 0,0.223858 0.223858,0 0.5,0 C 0.776142,0 1,0.223858 1,0.5 z" transform="translate(3.25,18.75)" id="path3499-5" style="fill:#000000;stroke:#000000;stroke-width:1.5;stroke-linecap:round;stroke-linejoin:round" />
        <path d="M 1,1.5 C 1,2.32843 0.776142,3 0.5,3 C 0.223858,3 0,2.32843 0,1.5 C 0,0.671573 0.223858,0 0.5,0 C 0.776142,0 1,0.671573 1,1.5 z" transform="matrix(0.866025,0.5,-0.5,0.866025,9.56698,7.70096)" id="path3501-6" style="fill:#000000;stroke:#000000;stroke-width:1.5;stroke-linecap:round;stroke-linejoin:round" />
        <path d="M 12,28.5 C 13,8.5 6.5,1 0,0" transform="translate(19.75,4.25)" id="path8049-9" style="fill:none;stroke:#000000;stroke-width:1;stroke-linecap:round;stroke-linejoin:miter;stroke-miterlimit:4" />
      </g>
      
    </g>
    
</svg>