<?xml version="1.0" encoding="UTF-8"?>
<svg xmlns="http://www.w3.org/2000/svg" xmlns:xlink="http://www.w3.org/1999/xlink" viewBox="227.661 75.4531 45 45" width="45" height="45">
<g transform="translate(227.661,75.4531)" id="WhiteQueen">
      <g transform="translate(3.25,4.875)" id="WQ">
        <path d="M 4,2 C 4,3.10457 3.10457,4 2,4 C 0.895431,4 0,3.10457 0,2 C 0,0.895431 0.895431,0 2,0 C 3.10457,0 4,0.895431 4,2 z" transform="translate(0.75,5.25)" id="path5571-0" style="fill:#ffffff;stroke:#000000;stroke-width:1.5;stroke-linecap:round;stroke-linejoin:round" />
        <path d="M 4,2 C 4,3.10457 3.10457,4 2,4 C 0.895431,4 0,3.10457 0,2 C 0,0.895431 0.895431,0 2,0 C 3.10457,0 4,0.895431 4,2 z" transform="translate(17.25,0.75)" id="path5573-7" style="fill:#ffffff;stroke:#000000;stroke-width:1.5;stroke-linecap:round;stroke-linejoin:round" />
        <path d="M 4,2 C 4,3.10457 3.10457,4 2,4 C 0.895431,4 0,3.10457 0,2 C 0,0.895431 0.895431,0 2,0 C 3.10457,0 4,0.895431 4,2 z" transform="translate(33.75,5.25)" id="path5575-8" style="fill:#ffffff;stroke:#000000;stroke-width:1.5;stroke-linecap:round;stroke-linejoin:round" />
        <path d="M 4,2 C 4,3.10457 3.10457,4 2,4 C 0.895431,4 0,3.10457 0,2 C 0,0.895431 0.895431,0 2,0 C 3.10457,0 4,0.895431 4,2 z" transform="translate(8.75,1.75)" id="path5577-6" style="fill:#ffffff;stroke:#000000;stroke-width:1.5;stroke-linecap:round;stroke-linejoin:round" />
        <path d="M 4,2 C 4,3.10457 3.10457,4 2,4 C 0.895431,4 0,3.10457 0,2 C 0,0.895431 0.895431,0 2,0 C 3.10457,0 4,0.895431 4,2 z" transform="translate(25.75,2.25)" id="path5579-8" style="fill:#ffffff;stroke:#000000;stroke-width:1.5;stroke-linecap:round;stroke-linejoin:round" />
        <path d="M 2,16.5 C 10.5,15 23,15 29,16.5 L 31,4.5 L 24,15.5 L 24,1.5 L 18.5,15 L 15.5,0 L 12.5,15 L 7,1 L 7,15.5 L 0,4.5 L 2,16.5 z" transform="translate(3.75,4.75)" id="path5581-8" style="fill:#ffffff;fill-rule:evenodd;stroke:#000000;stroke-width:1.5;stroke-linecap:butt;stroke-linejoin:round" />
        <path d="M 0,1.125 C 0,3.125 1.5,3.125 2.5,5.125 C 3.5,6.625 3.5,6.125 3,8.625 C 1.5,9.625 1.5,11.125 1.5,11.125 C 0,12.625 2,13.625 2,13.625 C 8.5,14.625 18.5,14.625 25,13.625 C 25,13.625 26.5,12.625 25,11.125 C 25,11.125 25.5,9.625 24,8.625 C 23.5,6.125 23.5,6.625 24.5,5.125 C 25.5,3.125 27,3.125 27,1.125 C 18.5,-0.375 8.5,-0.375 0,1.125 z" transform="translate(5.75,20.125)" id="path5583-4" style="fill:#ffffff;fill-rule:evenodd;stroke:#000000;stroke-width:1.5;stroke-linecap:butt;stroke-linejoin:round" />
        <path d="M 0,0.75 C 3.5,-0.25 18.5,-0.25 22,0.75" transform="translate(8.25,24.5)" id="path5585-3" style="fill:none;stroke:#000000;stroke-width:1;stroke-linecap:round;stroke-linejoin:round" />
        <path d="M 0,0.75 C 6,-0.25 15,-0.25 21,0.75" transform="translate(8.75,28)" id="path5587-1" style="fill:none;stroke:#000000;stroke-width:1;stroke-linecap:round;stroke-linejoin:round" />
        <path d="M 0,0.75 C 5,-0.25 18.5,-0.25 23.5,0.75" transform="translate(7.25,30.5)" id="path5589-4" style="fill:none;stroke:#000000;stroke-width:1;stroke-linecap:round;stroke-linejoin:round" />
      </g>
      
    </g>
    
</svg>