<?xml version="1.0" encoding="UTF-8"?>
<svg xmlns="http://www.w3.org/2000/svg" xmlns:xlink="http://www.w3.org/1999/xlink" viewBox="282.325 75.4531 45 45" width="45" height="45">
<g transform="translate(282.325,75.4531)" id="WhiteRook">
      <g transform="translate(8.25,6.75)" id="WR">
        <path d="M 0,3 L 27,3 L 27,0 L 0,0 L 0,3 z" transform="translate(0.75,27.75)" id="path3119-9" style="fill:#ffffff;fill-rule:evenodd;stroke:#000000;stroke-width:1.5;stroke-linecap:butt;stroke-linejoin:round" />
        <path d="M 0,4 L 0,0 L 21,0 L 21,4 L 0,4 z" transform="translate(3.75,23.75)" id="path3121-2" style="fill:#ffffff;fill-rule:evenodd;stroke:#000000;stroke-width:1.5;stroke-linecap:butt;stroke-linejoin:round" />
        <path d="M 0,5 L 0,0 L 4,0 L 4,2 L 9,2 L 9,0 L 14,0 L 14,2 L 19,2 L 19,0 L 23,0 L 23,5" transform="translate(2.75,0.75)" id="path3129-6" style="fill:#ffffff;fill-rule:evenodd;stroke:#000000;stroke-width:1.5;stroke-linecap:butt;stroke-linejoin:round" />
        <path d="M 23,0 L 20,3 L 3,3 L 0,0" transform="translate(2.75,5.75)" id="path3127-6" style="fill:#ffffff;fill-rule:evenodd;stroke:#000000;stroke-width:1.5;stroke-linecap:round;stroke-linejoin:round" />
        <path d="M 17,0 L 17,12.5 L 0,12.5 L 0,0" transform="translate(5.75,8.75)" id="path3125-4" style="fill:#ffffff;fill-rule:evenodd;stroke:#000000;stroke-width:1.5;stroke-linecap:butt;stroke-linejoin:miter;stroke-miterlimit:4" />
        <path d="M 18.5,0 L 20,2.5 L 0,2.5 L 1.5,0" transform="translate(4.25,21.25)" id="path3123-9" style="fill:#ffffff;fill-rule:evenodd;stroke:#000000;stroke-width:1.5;stroke-linecap:round;stroke-linejoin:round" />
        <path d="M 0,0 L 23,0" transform="translate(2.75,5.75)" id="path5175" style="fill:none;stroke:#000000;stroke-width:1;stroke-linecap:round;stroke-linejoin:miter;stroke-miterlimit:2" />
      </g>
      
    </g>
    
</svg>