<svg xmlns="http://www.w3.org/2000/svg" viewBox="202.80 67.50 67.60 67.50"><!-- Oliphant. Artwork by Richard Ryley (boardgamegeek.com/filepage/229556), vector trace by Mark Smalley. --><g transform="translate(0,405) scale(0.1,-0.1)"><g fill="#ffffff"><path d="M2351 3289 c-53 -16 -79 -38 -87 -72 c-3 -18 -17 -50 -30 -73 c-13 -22 -24 -50 -24 -62 c0 -12 -9 -31 -21 -43 c-17 -17 -18 -23 -8 -35 c14 -17 13 -113 -1 -128 c-5 -5 -19 -9 -32 -10 c-19 -1 -24 -7 -26 -38 l-3 -38 l44 0 c30 0 53 7 71 21 c21 17 26 18 26 5 c0 -10 9 -16 23 -16 c90 -2 332 2 335 5 c3 2 3 24 2 47 c-6 97 0 199 15 228 c18 36 19 81 1 140 c-11 38 -19 47 -48 57 c-51 17 -197 24 -237 12 z"/><path d="M2568 3264 c37 -6 44 -24 9 -24 c-13 0 -32 -7 -43 -15 c-17 -13 -14 -14 32 -8 l52 6 l7 -43 c10 -62 -15 -113 -69 -136 c-22 -10 -57 -29 -76 -42 l-35 -23 l-11 33 c-7 18 -13 45 -13 61 c-1 15 -6 27 -12 27 c-7 0 -9 -12 -5 -34 c6 -32 4 -35 -22 -41 c-19 -4 -42 0 -66 12 c-30 14 -41 15 -56 5 c-11 -7 -24 -12 -30 -12 c-18 0 1 83 27 116 c12 17 23 40 23 51 c0 70 107 95 288 67 z"/><path d="M2596 2930 l1 -110 l-153 0 l-153 0 l1 43 c0 54 30 102 79 127 c47 25 49 25 49 0 c0 -35 24 -33 101 9 c41 23 74 41 74 41 c0 0 0 -50 1 -110 z"/><path d="M2310 3010 c0 -19 -48 -30 -77 -18 l-28 11 l25 7 c37 12 80 11 80 0 z"/><path d="M2269 2954 c2 -2 -1 -15 -7 -29 c-7 -14 -12 -34 -12 -45 c0 -52 -101 -102 -108 -54 c-2 16 4 23 23 28 c28 7 45 40 45 88 c0 28 2 30 27 23 c16 -4 30 -8 32 -11 z"/><path d="M2329 3191 c-21 -17 -22 -20 -7 -26 c20 -8 61 12 55 28 c-6 19 -23 18 -48 -2 z"/></g><g fill="#000"><path d="M2351 3289 c-53 -16 -79 -38 -87 -72 c-3 -18 -17 -50 -30 -73 c-13 -22 -24 -50 -24 -62 c0 -12 -9 -31 -21 -43 c-17 -17 -18 -23 -8 -35 c14 -17 13 -113 -1 -128 c-5 -5 -19 -9 -32 -10 c-19 -1 -24 -7 -26 -38 l-3 -38 l44 0 c30 0 53 7 71 21 c21 17 26 18 26 5 c0 -10 9 -16 23 -16 c90 -2 332 2 335 5 c3 2 3 24 2 47 c-6 97 0 199 15 228 c18 36 19 81 1 140 c-11 38 -19 47 -48 57 c-51 17 -197 24 -237 12 z M2568 3264 c37 -6 44 -24 9 -24 c-13 0 -32 -7 -43 -15 c-17 -13 -14 -14 32 -8 l52 6 l7 -43 c10 -62 -15 -113 -69 -136 c-22 -10 -57 -29 -76 -42 l-35 -23 l-11 33 c-7 18 -13 45 -13 61 c-1 15 -6 27 -12 27 c-7 0 -9 -12 -5 -34 c6 -32 4 -35 -22 -41 c-19 -4 -42 0 -66 12 c-30 14 -41 15 -56 5 c-11 -7 -24 -12 -30 -12 c-18 0 1 83 27 116 c12 17 23 40 23 51 c0 70 107 95 288 67 z M2596 2930 l1 -110 l-153 0 l-153 0 l1 43 c0 54 30 102 79 127 c47 25 49 25 49 0 c0 -35 24 -33 101 9 c41 23 74 41 74 41 c0 0 0 -50 1 -110 z M2310 3010 c0 -19 -48 -30 -77 -18 l-28 11 l25 7 c37 12 80 11 80 0 z M2269 2954 c2 -2 -1 -15 -7 -29 c-7 -14 -12 -34 -12 -45 c0 -52 -101 -102 -108 -54 c-2 16 4 23 23 28 c28 7 45 40 45 88 c0 28 2 30 27 23 c16 -4 30 -8 32 -11 z"/><path d="M2329 3191 c-21 -17 -22 -20 -7 -26 c20 -8 61 12 55 28 c-6 19 -23 18 -48 -2 z"/></g></g></svg>
