<svg xmlns="http://www.w3.org/2000/svg" viewBox="0 0 45 45"><g transform="translate(2,1) scale(0.228)"><path d="M140.07,68.8c3.43,6.1,5.37,13.14,5.37,20.64,0,3.43-.41,6.78-1.19,9.97-.1,.37-.17,.72-.27,1.09-1.69,6.7-2.84,13.61-3.41,20.68-.29,3.45-.43,6.91-.43,10.44,0,.93,.01,1.86,.04,2.79-1.09-.45-2.3-.85-3.65-1.2,0,0-47.52-4.73-70.93,0-1.42,.36-2.69,.78-3.82,1.27h-.63c1.09-7.23,3.99-13.85,8.24-19.4,2.72-3.58,6.02-6.71,9.76-9.27,.25-.16,.49-.31,.72-.49,2.01-1.36,3.88-2.9,5.61-4.6-4.46-1.44-12.33-5.8-16.01-8.57-2.29-.53-5.69,2.3-5.69,2.3-1.19,.99-2.3,2.06-3.37,3.19-.81,.84-1.58,1.72-2.28,2.61-4.24,5.31-7.24,11.68-8.55,18.63-.47,2.51-.7,5.1-.7,7.77,0,3.97,.55,7.8,1.58,11.45,0,0,1.43,4.08,2.52,6.8,.35,.88,.67,1.61,.89,2.02,1.27,2.36,1.06,6.71-1.63,9.88-1.17,1.38-2.81,2.54-4.99,3.22-.97,.33-1.99,.54-3.06,.58-.25,0-.49-.02-.74-.02-.59-.02-1.17-.08-1.73-.17-1.97-.37-3.74-1.28-5.14-2.59-.55-.49-1.03-1.03-1.44-1.64,.61-1.94,.92-4.01,.92-6.15s-.31-4.21-.92-6.15c0-.02,.02-.04,.02-.04,0-.02-.02-.06-.02-.08-.12-.33-.23-.68-.37-1.01-2.12-6.14-3.58-12.6-4.25-19.28-.12-1.17-.21-2.36-.29-3.54v-.02c-.1-1.66-.14-3.31-.14-4.99,0-18.42,5.88-35.47,15.89-49.36,.78-1.11,1.61-2.22,2.47-3.29,2.57-20.02,19.14-35.67,39.6-36.78,.78-.06,1.58-.08,2.38-.08,2.05,0,4.07,.16,6.04,.43,.02,0,.06,0,.08,.02,1.83-.41,3.68-.78,5.53-1.11,.78-.14,1.56-.27,2.36-.39,.8-.14,1.61-.26,2.41-.37,1.03-.16,2.06-.27,3.09-.39,.41-.06,.8-.1,1.21-.14,.97-.1,1.97-.19,2.96-.27,1.34-.12,2.72-.2,4.09-.28,2.08-.1,4.18-.16,6.31-.16,8.7,0,17.19,.88,25.39,2.55-1.58,11.45-4.67,22.41-9.09,32.67,.06,.8,.08,1.61,.08,2.43,0,.68-.02,1.38-.06,2.06,0,.1,0,.17-.02,.27-.02,.58-.06,1.15-.12,1.71,0,.12-.02,.24-.04,.33-.06,.6-.12,1.19-.21,1.79,0,.08-.02,.16-.04,.24-.08,.52-.16,1.03-.27,1.56l-.06,.35v.04Z" style="fill:#000;stroke:#fff;stroke-width:6"/><path d="M52.25,156.09v3.47h97.65v-3.47c.03-10.4,.05-19.46-13.36-22.87,0,0-47.52-4.73-70.93,0h0c-13.41,3.41-13.39,12.47-13.36,22.87Z" style="fill:#000;stroke:#fff;stroke-width:6"/><path d="M72.65,94.39c.12,0,7.82,4.74,12.82,6.35-.21,.17-.4,.35-.61,.52-.02,.02-.05,.02-.07,.02-5.44,3.05-11.32,5.01-17.56,5.82l-.31,.05c-.14,.02-.24,.05-.38,.05l-.21-.02-.17,.05c-2.58,0-4.66-2.08-4.66-4.66,0-1.96,1.3-3.78,3.14-4.4l.28-.07c2.88-.9,5.28-1.91,7.72-3.7Z" style="fill:#000;stroke:#fff;stroke-width:4"/><circle cx="76.4" cy="53.46" r="5.3" style="fill:#fff;stroke:none"/></g></svg>
