<svg xmlns="http://www.w3.org/2000/svg" viewBox="0 0 45 45"><g transform="translate(-2,-2) scale(0.6)"><g style="fill:#000;stroke:#000;stroke-width:1.5;stroke-linecap:round;stroke-linejoin:round"><path d="M 9,39 L 36,39 L 36,36 L 9,36 L 9,39 z"/><path d="M 12,36 L 12,32 L 33,32 L 33,36 L 12,36 z"/><path d="M 11,14 L 11,9 L 15,9 L 15,11 L 20,11 L 20,9 L 25,9 L 25,11 L 30,11 L 30,9 L 34,9 L 34,14"/><path d="M 34,14 L 31,17 L 14,17 L 11,14"/><path d="M 31,17 L 31,29.5 L 14,29.5 L 14,17"/><path d="M 31,29.5 L 32.5,32 L 12.5,32 L 14,29.5"/><path d="M 11,14 L 34,14" style="fill:none;stroke:#fff;stroke-linejoin:miter"/><path d="M 12,35.5 L 33,35.5" style="fill:none;stroke:#fff;stroke-width:1"/><path d="M 13,31.5 L 32,31.5" style="fill:none;stroke:#fff;stroke-width:1"/><path d="M 14,29.5 L 31,29.5" style="fill:none;stroke:#fff;stroke-width:1"/></g></g><g transform="translate(20,20) scale(0.6)"><g style="fill:none;stroke:#000;stroke-width:1.5;stroke-linecap:round;stroke-linejoin:round"><path d="M 22,10 C 32.5,11 38.5,18 38,39 L 15,39 C 15,30 25,32.5 23,18" style="fill:#000"/><path d="M 24,18 C 24.38,20.91 18.45,25.37 16,27 C 13,29 13.18,31.34 11,31 C 9.958,30.06 12.41,27.96 11,28 C 10,28 11.19,29.23 10,30 C 9,30 5.997,31 6,26 C 6,24 12,14 12,14 C 12,14 13.89,12.1 14,10.5 C 13.27,9.506 13.5,8.5 13.5,7.5 C 14.5,6.5 16.5,10 16.5,10 L 18.5,10 C 18.5,10 19.28,8.008 21,7 C 22,7 22,10 22,10" style="fill:#000"/><path d="M 9.5,25.5 A 0.5,0.5 0 1 1 8.5,25.5 A 0.5,0.5 0 1 1 9.5,25.5 z" style="fill:#fff"/><path d="M 15,15.5 A 0.5,1.5 0 1 1 14,15.5 A 0.5,1.5 0 1 1 15,15.5 z" transform="matrix(0.866,0.5,-0.5,0.866,9.693,-5.173)" style="fill:#fff"/><path d="M 24.55,10.4 L 24.1,11.85 L 24.6,12 C 27.75,13 30.25,14.49 32.5,18.75 C 34.75,23.01 35.75,29.06 35.25,39 L 35.2,39.5 L 37.45,39.5 L 37.5,39 C 38,28.94 36.62,22.15 34.25,17.66 C 31.88,13.17 28.46,11.02 25.06,10.5 L 24.55,10.4 z" style="fill:#fff;stroke:none"/></g></g></svg>
