<svg xmlns="http://www.w3.org/2000/svg" viewBox="0 0 45 45"><g style="fill:#000;stroke:#000;stroke-width:1.5;stroke-linejoin:round"><path d="M 9,26 C 17.5,24.5 30,24.5 36,26 L 38.5,13.5 L 31,25 L 30.7,10.9 L 25.5,24.5 L 22.5,10 L 19.5,24.5 L 14.3,10.9 L 14,25 L 6.5,13.5 L 9,26 z"/><path d="M 9,26 C 9,28 10.5,28 11.5,30 C 12.5,31.5 12.5,31 12,33.5 C 10.5,34.5 11,36 11,36 C 9.5,37.5 11.5,38.5 11.5,38.5 C 17.5,39.5 27.5,39.5 33.5,38.5 C 33.5,38.5 35.5,37.5 34,36 C 34,36 34.5,34.5 33,33.5 C 32.5,31 32.5,31.5 33.5,30 C 34.5,28 36,28 36,26 C 27.5,24.5 17.5,24.5 9,26 z"/><circle cx="6" cy="12" r="2" style="fill:#fff"/><circle cx="14" cy="9" r="2" style="fill:#fff"/><circle cx="22.5" cy="8" r="2" style="fill:#fff"/><circle cx="31" cy="9" r="2" style="fill:#fff"/><circle cx="39" cy="12" r="2" style="fill:#fff"/></g><g transform="translate(14.5,24) scale(0.33)"><path d="M 22,10 C 32.5,11 38.5,18 38,39 L 15,39 C 15,30 25,32.5 23,18" style="fill:#fff;stroke:none"/><path d="M 24,18 C 24.38,20.91 18.45,25.37 16,27 C 13,29 13.18,31.34 11,31 C 9.958,30.06 12.41,27.96 11,28 C 10,28 11.19,29.23 10,30 C 9,30 5.997,31 6,26 C 6,24 12,14 12,14 C 12,14 13.89,12.1 14,10.5 C 13.27,9.506 13.5,8.5 13.5,7.5 C 14.5,6.5 16.5,10 16.5,10 L 18.5,10 C 18.5,10 19.28,8.008 21,7 C 22,7 22,10 22,10" style="fill:#fff;stroke:none"/></g></svg>
