<svg xmlns="http://www.w3.org/2000/svg" viewBox="0 0 45 45"><g style="fill:none;stroke:#000;stroke-width:1.5;stroke-linecap:round;stroke-linejoin:round"><g style="fill:#fff;stroke-linecap:butt"><path d="M 9,36 C 12.39,35.03 19.11,36.43 22.5,34 C 25.89,36.43 32.61,35.03 36,36 C 36,36 37.65,36.54 39,38 C 38.32,38.97 37.2,38.91 36,38.5 C 32.61,37.53 25.89,38.96 22.5,37.5 C 19.11,38.96 12.39,37.53 9,38.5 C 7.8,38.91 6.68,38.97 6,38 C 7.35,36.54 9,36 9,36 z"/><path d="M 15,32 C 17.5,34.5 27.5,34.5 30,32 C 30.5,30.5 30,30 30,30 C 30,27.5 27.5,26 27.5,26 C 33,24.5 33.5,14.5 22.5,10.5 C 11.5,14.5 12,24.5 17.5,26 C 17.5,26 15,27.5 15,30 C 15,30 14.5,30.5 15,32 z"/><path d="M 25,8 A 2.5,2.5 0 1 1 20,8 A 2.5,2.5 0 1 1 25,8 z"/></g><path d="M 17.5,26 L 27.5,26 M 15,30 L 30,30" style="fill:none;stroke:#000;stroke-linejoin:miter"/><g transform="translate(14.5,11) scale(0.33)"><path d="M 22,10 C 32.5,11 38.5,18 38,39 L 15,39 C 15,30 25,32.5 23,18" style="fill:#000;stroke:none"/><path d="M 24,18 C 24.38,20.91 18.45,25.37 16,27 C 13,29 13.18,31.34 11,31 C 9.958,30.06 12.41,27.96 11,28 C 10,28 11.19,29.23 10,30 C 9,30 5.997,31 6,26 C 6,24 12,14 12,14 C 12,14 13.89,12.1 14,10.5 C 13.27,9.506 13.5,8.5 13.5,7.5 C 14.5,6.5 16.5,10 16.5,10 L 18.5,10 C 18.5,10 19.28,8.008 21,7 C 22,7 22,10 22,10" style="fill:#000;stroke:none"/></g></g></svg>
