<svg xmlns="http://www.w3.org/2000/svg" viewBox="0 0 45 45"><g transform="translate(0,0) scale(0.53)"><g transform="translate(8,8) scale(0.65)"><path d="M 22,9 C 19.79,9 18,10.79 18,13 C 18,13.89 18.29,14.71 18.78,15.38 C 16.83,16.5 15.5,18.59 15.5,21 C 15.5,23.03 16.44,24.84 17.91,26.03 C 14.91,27.09 10.5,31.58 10.5,39.5 L 33.5,39.5 C 33.5,31.58 29.09,27.09 26.09,26.03 C 27.56,24.84 28.5,23.03 28.5,21 C 28.5,18.59 27.17,16.5 25.22,15.38 C 25.71,14.71 26,13.89 26,13 C 26,10.79 24.21,9 22,9 z" style="fill:#fff;stroke:#000;stroke-width:1.5;stroke-linecap:round"/></g><polygon points="2,2 2,9 9,2" style="fill:#000;stroke:#000;stroke-width:0.5"/><polygon points="43,2 43,9 36,2" style="fill:#000;stroke:#000;stroke-width:0.5"/><polygon points="2,43 2,36 9,43" style="fill:#000;stroke:#000;stroke-width:0.5"/><polygon points="43,43 43,36 36,43" style="fill:#000;stroke:#000;stroke-width:0.5"/></g><g transform="translate(21,21) scale(0.53)"><g transform="translate(8,8) scale(0.65)"><path d="M 22,9 C 19.79,9 18,10.79 18,13 C 18,13.89 18.29,14.71 18.78,15.38 C 16.83,16.5 15.5,18.59 15.5,21 C 15.5,23.03 16.44,24.84 17.91,26.03 C 14.91,27.09 10.5,31.58 10.5,39.5 L 33.5,39.5 C 33.5,31.58 29.09,27.09 26.09,26.03 C 27.56,24.84 28.5,23.03 28.5,21 C 28.5,18.59 27.17,16.5 25.22,15.38 C 25.71,14.71 26,13.89 26,13 C 26,10.79 24.21,9 22,9 z" style="fill:#fff;stroke:#000;stroke-width:1.5;stroke-linecap:round"/></g><polygon points="22.5,1 19,5.5 26,5.5" style="fill:#000;stroke:#000;stroke-width:0.5"/><polygon points="22.5,44 19,39.5 26,39.5" style="fill:#000;stroke:#000;stroke-width:0.5"/><polygon points="1,22.5 5.5,19 5.5,26" style="fill:#000;stroke:#000;stroke-width:0.5"/><polygon points="44,22.5 39.5,19 39.5,26" style="fill:#000;stroke:#000;stroke-width:0.5"/></g></svg>
