<?xml version="1.0" standalone="no"?>
<!DOCTYPE svg PUBLIC "-//W3C//DTD SVG 20010904//EN"
 "http://www.w3.org/TR/2001/REC-SVG-20010904/DTD/svg10.dtd">
<svg version="1.0" xmlns="http://www.w3.org/2000/svg"
 width="360.000000pt" height="360.000000pt" viewBox="0 0 360.000000 360.000000"
 preserveAspectRatio="xMidYMid meet">

<g transform="translate(0.000000,360.000000) scale(0.100000,-0.100000)"
fill="#000000" stroke="none">
<path d="M1645 2830 c-90 -14 -220 -57 -310 -102 -202 -101 -364 -264 -464
-464 -334 -673 130 -1464 879 -1500 529 -26 990 347 1075 871 87 532 -247
1038 -776 1174 -96 25 -306 36 -404 21z m318 -85 c372 -65 667 -338 769 -714
28 -102 31 -342 5 -445 -46 -183 -128 -328 -261 -462 -134 -133 -280 -215
-462 -261 -95 -24 -333 -24 -428 0 -356 89 -621 349 -718 706 -28 102 -31 342
-5 445 126 502 601 818 1100 731z"/>
<path d="M1650 2525 c-143 -31 -264 -97 -371 -204 -180 -180 -254 -423 -203
-669 31 -149 94 -264 209 -379 70 -69 99 -89 186 -132 226 -109 432 -109 658
1 91 43 117 62 192 137 75 75 94 101 137 192 57 117 82 219 82 331 -1 296
-184 566 -465 685 -118 50 -293 66 -425 38z m276 -80 c258 -49 466 -257 518
-517 20 -97 20 -159 0 -256 -30 -149 -123 -302 -237 -388 -117 -88 -274 -144
-407 -144 -133 0 -290 56 -407 144 -148 112 -253 326 -253 516 0 192 104 403
254 517 160 121 341 165 532 128z"/>
</g>
</svg>
